<?xml version="1.0" encoding="UTF-8" standalone="no"?>
<!DOCTYPE svg PUBLIC "-//W3C//DTD SVG 1.1//EN"
 "http://www.w3.org/Graphics/SVG/1.1/DTD/svg11.dtd">
<!-- Generated by graphviz version 2.38.0 (20140413.2041)
 -->
<!-- Title: GuiSprite::initialize Pages: 1 -->
<svg width="238pt" height="66pt"
 viewBox="0.00 0.00 238.00 66.00" xmlns="http://www.w3.org/2000/svg" xmlns:xlink="http://www.w3.org/1999/xlink">
<g id="graph0" class="graph" transform="scale(1 1) rotate(0) translate(4 62)">
<title>GuiSprite::initialize</title>
<polygon fill="white" stroke="none" points="-4,4 -4,-62 234,-62 234,4 -4,4"/>
<!-- Node1 -->
<g id="node1" class="node"><title>Node1</title>
<g id="a_node1"><a xlink:title=" ">
<polygon fill="#bfbfbf" stroke="black" points="0,-19.5 0,-38.5 98,-38.5 98,-19.5 0,-19.5"/>
<text text-anchor="middle" x="49" y="-26.5" font-family="Helvetica,sans-Serif" font-size="10.00">GuiSprite::initialize</text>
</a>
</g>
</g>
<!-- Node2 -->
<g id="node2" class="node"><title>Node2</title>
<g id="a_node2"><a xlink:href="../../d2/d7f/class_texture.html#a0eaebfd0e00f88d19a64ed05ea634539" target="_top" xlink:title=" ">
<polygon fill="white" stroke="black" points="134,-38.5 134,-57.5 230,-57.5 230,-38.5 134,-38.5"/>
<text text-anchor="middle" x="182" y="-45.5" font-family="Helvetica,sans-Serif" font-size="10.00">Texture::getHeight</text>
</a>
</g>
</g>
<!-- Node1&#45;&gt;Node2 -->
<g id="edge1" class="edge"><title>Node1&#45;&gt;Node2</title>
<path fill="none" stroke="midnightblue" d="M98.0357,-35.967C106.433,-37.185 115.244,-38.4629 123.859,-39.7123"/>
<polygon fill="midnightblue" stroke="midnightblue" points="123.446,-43.189 133.845,-41.1607 124.451,-36.2615 123.446,-43.189"/>
</g>
<!-- Node3 -->
<g id="node3" class="node"><title>Node3</title>
<g id="a_node3"><a xlink:href="../../d2/d7f/class_texture.html#a4d8e86e7df22179e8f3af9392020608c" target="_top" xlink:title=" ">
<polygon fill="white" stroke="black" points="135,-0.5 135,-19.5 229,-19.5 229,-0.5 135,-0.5"/>
<text text-anchor="middle" x="182" y="-7.5" font-family="Helvetica,sans-Serif" font-size="10.00">Texture::getWidth</text>
</a>
</g>
</g>
<!-- Node1&#45;&gt;Node3 -->
<g id="edge2" class="edge"><title>Node1&#45;&gt;Node3</title>
<path fill="none" stroke="midnightblue" d="M98.0357,-22.033C106.737,-20.771 115.881,-19.4447 124.792,-18.1523"/>
<polygon fill="midnightblue" stroke="midnightblue" points="125.322,-21.6121 134.716,-16.7129 124.318,-14.6846 125.322,-21.6121"/>
</g>
</g>
</svg>
