<?xml version="1.0" encoding="UTF-8" standalone="no"?>
<!DOCTYPE svg PUBLIC "-//W3C//DTD SVG 1.1//EN"
 "http://www.w3.org/Graphics/SVG/1.1/DTD/svg11.dtd">
<!-- Generated by graphviz version 2.38.0 (20140413.2041)
 -->
<!-- Title: GuiSprite::render Pages: 1 -->
<!--zoomable 349 -->
<svg id="main" version="1.1" xmlns="http://www.w3.org/2000/svg" xmlns:xlink="http://www.w3.org/1999/xlink" xml:space="preserve" onload="init(evt)">
<style type="text/css"><![CDATA[
.edge:hover path { stroke: red; }
.edge:hover polygon { stroke: red; fill: red; }
]]></style>
<script type="text/javascript"><![CDATA[
var edges = document.getElementsByTagName('g');
if (edges && edges.length) {
  for (var i=0;i<edges.length;i++) {
    if (edges[i].id.substr(0,4)=='edge') {
      edges[i].setAttribute('class','edge');
    }
  }
}
]]></script>
        <defs>
                <circle id="rim" cx="0" cy="0" r="7"/>
                <circle id="rim2" cx="0" cy="0" r="3.5"/>
                <g id="zoomPlus">
                        <use xlink:href="#rim" fill="#404040">
                                <set attributeName="fill" to="#808080" begin="zoomplus.mouseover" end="zoomplus.mouseout"/>
                        </use>
                        <path d="M-4,0h8M0,-4v8" fill="none" stroke="white" stroke-width="1.5" pointer-events="none"/>
                </g>
                <g id="zoomMin">
                        <use xlink:href="#rim" fill="#404040">
                                <set attributeName="fill" to="#808080" begin="zoomminus.mouseover" end="zoomminus.mouseout"/>
                        </use>
                        <path d="M-4,0h8" fill="none" stroke="white" stroke-width="1.5" pointer-events="none"/>
                </g>
                <g id="dirArrow">
                        <path fill="none" stroke="white" stroke-width="1.5" d="M0,-3.0v7 M-2.5,-0.5L0,-3.0L2.5,-0.5"/>
                </g>
               <g id="resetDef">
                       <use xlink:href="#rim2" fill="#404040">
                               <set attributeName="fill" to="#808080" begin="reset.mouseover" end="reset.mouseout"/>
                       </use>
               </g>
        </defs>

<script type="text/javascript">
var viewWidth = 578;
var viewHeight = 349;
var sectionId = 'dynsection-5';
</script>
<script xlink:href="../../svgpan.js"/>
<svg id="graph" class="graph">
<g id="viewport">
<title>GuiSprite::render</title>
<polygon fill="white" stroke="none" points="-4,4 -4,-344.5 574,-344.5 574,4 -4,4"/>
<!-- Node1 -->
<g id="node1" class="node"><title>Node1</title>
<g id="a_node1"><a xlink:title=" ">
<polygon fill="#bfbfbf" stroke="black" points="0,-169 0,-188 90,-188 90,-169 0,-169"/>
<text text-anchor="middle" x="45" y="-176" font-family="Helvetica,sans-Serif" font-size="10.00">GuiSprite::render</text>
</a>
</g>
</g>
<!-- Node2 -->
<g id="node2" class="node"><title>Node2</title>
<g id="a_node2"><a xlink:href="../../d3/df8/class_quad.html#a424c01ecd59971dc51e39bc19fbda551" target="_top" xlink:title=" ">
<polygon fill="white" stroke="black" points="126,-169 126,-188 211,-188 211,-169 126,-169"/>
<text text-anchor="middle" x="168.5" y="-176" font-family="Helvetica,sans-Serif" font-size="10.00">Quad::render3D</text>
</a>
</g>
</g>
<!-- Node1&#45;&gt;Node2 -->
<g id="edge1" class="edge"><title>Node1&#45;&gt;Node2</title>
<path fill="none" stroke="midnightblue" d="M90.208,-178.5C98.5049,-178.5 107.247,-178.5 115.75,-178.5"/>
<polygon fill="midnightblue" stroke="midnightblue" points="115.955,-182 125.955,-178.5 115.955,-175 115.955,-182"/>
</g>
<!-- Node3 -->
<g id="node3" class="node"><title>Node3</title>
<g id="a_node3"><a xlink:href="../../d7/da2/namespace_shaders.html#a137768343963ec1e71572a39e29892e6" target="_top" xlink:title=" ">
<polygon fill="white" stroke="black" points="431.5,-245 431.5,-264 563.5,-264 563.5,-245 431.5,-245"/>
<text text-anchor="middle" x="497.5" y="-252" font-family="Helvetica,sans-Serif" font-size="10.00">Shaders::getAttribLocation</text>
</a>
</g>
</g>
<!-- Node2&#45;&gt;Node3 -->
<g id="edge2" class="edge"><title>Node2&#45;&gt;Node3</title>
<path fill="none" stroke="midnightblue" d="M211.27,-177.217C256.119,-176.959 329.018,-179.8 389,-197.5 420.415,-206.77 453.212,-225.721 474.191,-239.225"/>
<polygon fill="midnightblue" stroke="midnightblue" points="472.408,-242.242 482.686,-244.814 476.255,-236.394 472.408,-242.242"/>
</g>
<!-- Node4 -->
<g id="node4" class="node"><title>Node4</title>
<g id="a_node4"><a xlink:href="../../d2/d7f/class_texture.html#a0eaebfd0e00f88d19a64ed05ea634539" target="_top" xlink:title=" ">
<polygon fill="white" stroke="black" points="270,-283 270,-302 366,-302 366,-283 270,-283"/>
<text text-anchor="middle" x="318" y="-290" font-family="Helvetica,sans-Serif" font-size="10.00">Texture::getHeight</text>
</a>
</g>
</g>
<!-- Node2&#45;&gt;Node4 -->
<g id="edge3" class="edge"><title>Node2&#45;&gt;Node4</title>
<path fill="none" stroke="midnightblue" d="M174.674,-188.262C185.442,-207.61 212.186,-250.901 247,-273.5 251.076,-276.146 255.515,-278.426 260.113,-280.391"/>
<polygon fill="midnightblue" stroke="midnightblue" points="259.12,-283.756 269.712,-283.995 261.581,-277.203 259.12,-283.756"/>
</g>
<!-- Node5 -->
<g id="node5" class="node"><title>Node5</title>
<g id="a_node5"><a xlink:href="../../d1/d51/class_shader.html#a240b7ecb19883fa340489840733eae6d" target="_top" xlink:title=" ">
<polygon fill="white" stroke="black" points="261.5,-245 261.5,-264 374.5,-264 374.5,-245 261.5,-245"/>
<text text-anchor="middle" x="318" y="-252" font-family="Helvetica,sans-Serif" font-size="10.00">Shader::getProgramID</text>
</a>
</g>
</g>
<!-- Node2&#45;&gt;Node5 -->
<g id="edge4" class="edge"><title>Node2&#45;&gt;Node5</title>
<path fill="none" stroke="midnightblue" d="M180.204,-188.411C194.429,-201.076 220.826,-222.87 247,-235.5 251.891,-237.86 257.12,-239.964 262.436,-241.832"/>
<polygon fill="midnightblue" stroke="midnightblue" points="261.449,-245.191 272.041,-244.942 263.605,-238.531 261.449,-245.191"/>
</g>
<!-- Node6 -->
<g id="node6" class="node"><title>Node6</title>
<g id="a_node6"><a xlink:href="../../d2/d7f/class_texture.html#a922a73acbaee522dd96d971b630da0fa" target="_top" xlink:title=" ">
<polygon fill="white" stroke="black" points="257.5,-207 257.5,-226 378.5,-226 378.5,-207 257.5,-207"/>
<text text-anchor="middle" x="318" y="-214" font-family="Helvetica,sans-Serif" font-size="10.00">Texture::getTextureData</text>
</a>
</g>
</g>
<!-- Node2&#45;&gt;Node6 -->
<g id="edge5" class="edge"><title>Node2&#45;&gt;Node6</title>
<path fill="none" stroke="midnightblue" d="M206.72,-188.089C226.009,-193.058 249.758,-199.177 270.271,-204.461"/>
<polygon fill="midnightblue" stroke="midnightblue" points="269.49,-207.874 280.047,-206.98 271.237,-201.096 269.49,-207.874"/>
</g>
<!-- Node7 -->
<g id="node7" class="node"><title>Node7</title>
<g id="a_node7"><a xlink:href="../../d7/da2/namespace_shaders.html#aaa649eb98b860170946f582b8e93c12d" target="_top" xlink:title=" ">
<polygon fill="white" stroke="black" points="247,-93 247,-112 389,-112 389,-93 247,-93"/>
<text text-anchor="middle" x="318" y="-100" font-family="Helvetica,sans-Serif" font-size="10.00">Shaders::getUniformLocation</text>
</a>
</g>
</g>
<!-- Node2&#45;&gt;Node7 -->
<g id="edge6" class="edge"><title>Node2&#45;&gt;Node7</title>
<path fill="none" stroke="midnightblue" d="M180.204,-168.589C194.429,-155.924 220.826,-134.13 247,-121.5 251.891,-119.14 257.12,-117.036 262.436,-115.168"/>
<polygon fill="midnightblue" stroke="midnightblue" points="263.605,-118.469 272.041,-112.058 261.449,-111.809 263.605,-118.469"/>
</g>
<!-- Node9 -->
<g id="node9" class="node"><title>Node9</title>
<g id="a_node9"><a xlink:href="../../d2/d7f/class_texture.html#a4d8e86e7df22179e8f3af9392020608c" target="_top" xlink:title=" ">
<polygon fill="white" stroke="black" points="271,-131 271,-150 365,-150 365,-131 271,-131"/>
<text text-anchor="middle" x="318" y="-138" font-family="Helvetica,sans-Serif" font-size="10.00">Texture::getWidth</text>
</a>
</g>
</g>
<!-- Node2&#45;&gt;Node9 -->
<g id="edge8" class="edge"><title>Node2&#45;&gt;Node9</title>
<path fill="none" stroke="midnightblue" d="M206.72,-168.911C226.009,-163.942 249.758,-157.823 270.271,-152.539"/>
<polygon fill="midnightblue" stroke="midnightblue" points="271.237,-155.904 280.047,-150.02 269.49,-149.126 271.237,-155.904"/>
</g>
<!-- Node10 -->
<g id="node10" class="node"><title>Node10</title>
<g id="a_node10"><a xlink:href="../../d4/d58/namespace_game_info.html#a344c7e16ac06ee1f8458a249aac36e8e" target="_top" xlink:title=" ">
<polygon fill="white" stroke="black" points="248,-55 248,-74 388,-74 388,-55 248,-55"/>
<text text-anchor="middle" x="318" y="-62" font-family="Helvetica,sans-Serif" font-size="10.00">GameInfo::getWindowHeight</text>
</a>
</g>
</g>
<!-- Node2&#45;&gt;Node10 -->
<g id="edge9" class="edge"><title>Node2&#45;&gt;Node10</title>
<path fill="none" stroke="midnightblue" d="M174.674,-168.738C185.442,-149.39 212.186,-106.099 247,-83.5 250.292,-81.3627 253.821,-79.4642 257.479,-77.7781"/>
<polygon fill="midnightblue" stroke="midnightblue" points="258.826,-81.0088 266.779,-74.009 256.197,-74.5213 258.826,-81.0088"/>
</g>
<!-- Node12 -->
<g id="node12" class="node"><title>Node12</title>
<g id="a_node12"><a xlink:href="../../d4/d58/namespace_game_info.html#a7cf2306eb3025a60a9e2da52eefba71e" target="_top" xlink:title=" ">
<polygon fill="white" stroke="black" points="249.5,-12 249.5,-31 386.5,-31 386.5,-12 249.5,-12"/>
<text text-anchor="middle" x="318" y="-19" font-family="Helvetica,sans-Serif" font-size="10.00">GameInfo::getWindowWidth</text>
</a>
</g>
</g>
<!-- Node2&#45;&gt;Node12 -->
<g id="edge11" class="edge"><title>Node2&#45;&gt;Node12</title>
<path fill="none" stroke="midnightblue" d="M172.458,-168.903C180.423,-144.626 204.634,-80.2349 247,-45.5 252.02,-41.384 257.786,-37.9578 263.807,-35.1095"/>
<polygon fill="midnightblue" stroke="midnightblue" points="265.534,-38.181 273.409,-31.0931 262.833,-31.7232 265.534,-38.181"/>
</g>
<!-- Node14 -->
<g id="node14" class="node"><title>Node14</title>
<g id="a_node14"><a xlink:href="../../d3/df8/class_quad.html#ab6f9562308559b344d2e0d1e1cf3a0cf" target="_top" xlink:title=" ">
<polygon fill="white" stroke="black" points="288.5,-321 288.5,-340 347.5,-340 347.5,-321 288.5,-321"/>
<text text-anchor="middle" x="318" y="-328" font-family="Helvetica,sans-Serif" font-size="10.00">Quad::init</text>
</a>
</g>
</g>
<!-- Node2&#45;&gt;Node14 -->
<g id="edge13" class="edge"><title>Node2&#45;&gt;Node14</title>
<path fill="none" stroke="midnightblue" d="M172.325,-188.263C179.98,-212.932 203.523,-278.166 247,-311.5 256.028,-318.422 267.402,-322.825 278.342,-325.624"/>
<polygon fill="midnightblue" stroke="midnightblue" points="277.671,-329.06 288.187,-327.771 279.162,-322.221 277.671,-329.06"/>
</g>
<!-- Node8 -->
<g id="node8" class="node"><title>Node8</title>
<g id="a_node8"><a xlink:href="../../d7/da2/namespace_shaders.html#a25a80e81a8051ed31ecab4ed167b0be8" target="_top" xlink:title=" ">
<polygon fill="white" stroke="black" points="432,-99 432,-118 563,-118 563,-99 432,-99"/>
<text text-anchor="middle" x="497.5" y="-106" font-family="Helvetica,sans-Serif" font-size="10.00">Shaders::getUniformName</text>
</a>
</g>
</g>
<!-- Node7&#45;&gt;Node8 -->
<g id="edge7" class="edge"><title>Node7&#45;&gt;Node8</title>
<path fill="none" stroke="midnightblue" d="M389.153,-104.871C399.801,-105.231 410.823,-105.604 421.567,-105.967"/>
<polygon fill="midnightblue" stroke="midnightblue" points="421.651,-109.472 431.763,-106.312 421.887,-102.476 421.651,-109.472"/>
</g>
<!-- Node11 -->
<g id="node11" class="node"><title>Node11</title>
<g id="a_node11"><a xlink:href="../../de/d6b/class_application.html#a0398d40c89d52bb8d6ac6ac466c5d30c" target="_top" xlink:title=" ">
<polygon fill="white" stroke="black" points="425,-49.5 425,-79.5 570,-79.5 570,-49.5 425,-49.5"/>
<text text-anchor="start" x="433" y="-67.5" font-family="Helvetica,sans-Serif" font-size="10.00">Application::getGameWindow</text>
<text text-anchor="middle" x="497.5" y="-56.5" font-family="Helvetica,sans-Serif" font-size="10.00">Height</text>
</a>
</g>
</g>
<!-- Node10&#45;&gt;Node11 -->
<g id="edge10" class="edge"><title>Node10&#45;&gt;Node11</title>
<path fill="none" stroke="midnightblue" d="M388.134,-64.5C396.904,-64.5 405.943,-64.5 414.885,-64.5"/>
<polygon fill="midnightblue" stroke="midnightblue" points="414.919,-68.0001 424.919,-64.5 414.919,-61.0001 414.919,-68.0001"/>
</g>
<!-- Node13 -->
<g id="node13" class="node"><title>Node13</title>
<g id="a_node13"><a xlink:href="../../de/d6b/class_application.html#aad8864ec1fa58ee23db7b111876d09a5" target="_top" xlink:title=" ">
<polygon fill="white" stroke="black" points="425,-0.5 425,-30.5 570,-30.5 570,-0.5 425,-0.5"/>
<text text-anchor="start" x="433" y="-18.5" font-family="Helvetica,sans-Serif" font-size="10.00">Application::getGameWindow</text>
<text text-anchor="middle" x="497.5" y="-7.5" font-family="Helvetica,sans-Serif" font-size="10.00">Width</text>
</a>
</g>
</g>
<!-- Node12&#45;&gt;Node13 -->
<g id="edge12" class="edge"><title>Node12&#45;&gt;Node13</title>
<path fill="none" stroke="midnightblue" d="M386.611,-19.2145C395.821,-18.9032 405.353,-18.581 414.778,-18.2624"/>
<polygon fill="midnightblue" stroke="midnightblue" points="415.067,-21.7547 424.943,-17.9188 414.831,-14.7587 415.067,-21.7547"/>
</g>
<!-- Node14&#45;&gt;Node3 -->
<g id="edge14" class="edge"><title>Node14&#45;&gt;Node3</title>
<path fill="none" stroke="midnightblue" d="M347.736,-324.232C360.576,-321.044 375.766,-316.729 389,-311.5 418.778,-299.734 450.979,-281.919 472.295,-269.343"/>
<polygon fill="midnightblue" stroke="midnightblue" points="474.211,-272.275 480.999,-264.141 470.62,-266.266 474.211,-272.275"/>
</g>
</g>
</svg>
        <g id="navigator" transform="translate(0 0)" fill="#404254">
                <rect fill="#f2f5e9" fill-opacity="0.5" stroke="#606060" stroke-width=".5" x="0" y="0" width="60" height="60"/>
                <use id="zoomplus" xlink:href="#zoomPlus" x="17" y="9" onmousedown="handleZoom(evt,'in')"/>
                <use id="zoomminus" xlink:href="#zoomMin" x="42" y="9" onmousedown="handleZoom(evt,'out')"/>
                <use id="reset" xlink:href="#resetDef" x="30" y="36" onmousedown="handleReset()"/>
                <g id="arrowUp" xlink:href="#dirArrow" transform="translate(30 24)" onmousedown="handlePan(0,-1)">
                  <use xlink:href="#rim" fill="#404040">
                        <set attributeName="fill" to="#808080" begin="arrowUp.mouseover" end="arrowUp.mouseout"/>
                  </use>
                  <path fill="none" stroke="white" stroke-width="1.5" d="M0,-3.0v7 M-2.5,-0.5L0,-3.0L2.5,-0.5"/>
                </g>
                <g id="arrowRight" xlink:href="#dirArrow" transform="rotate(90) translate(36 -43)" onmousedown="handlePan(1,0)">
                  <use xlink:href="#rim" fill="#404040">
                        <set attributeName="fill" to="#808080" begin="arrowRight.mouseover" end="arrowRight.mouseout"/>
                  </use>
                  <path fill="none" stroke="white" stroke-width="1.5" d="M0,-3.0v7 M-2.5,-0.5L0,-3.0L2.5,-0.5"/>
                </g>
                <g id="arrowDown" xlink:href="#dirArrow" transform="rotate(180) translate(-30 -48)" onmousedown="handlePan(0,1)">
                  <use xlink:href="#rim" fill="#404040">
                        <set attributeName="fill" to="#808080" begin="arrowDown.mouseover" end="arrowDown.mouseout"/>
                  </use>
                  <path fill="none" stroke="white" stroke-width="1.5" d="M0,-3.0v7 M-2.5,-0.5L0,-3.0L2.5,-0.5"/>
                </g>
                <g id="arrowLeft" xlink:href="#dirArrow" transform="rotate(270) translate(-36 17)" onmousedown="handlePan(-1,0)">
                  <use xlink:href="#rim" fill="#404040">
                        <set attributeName="fill" to="#808080" begin="arrowLeft.mouseover" end="arrowLeft.mouseout"/>
                  </use>
                  <path fill="none" stroke="white" stroke-width="1.5" d="M0,-3.0v7 M-2.5,-0.5L0,-3.0L2.5,-0.5"/>
                </g>
        </g>
        <svg viewBox="0 0 15 15" width="100%" height="30px" preserveAspectRatio="xMaxYMin meet">
         <g id="arrow_out" transform="scale(0.3 0.3)">
          <a xlink:href="class_gui_sprite_ad8d743c3e3889fba893f29796717114f_cgraph_org.svg" target="_base">
           <rect id="button" ry="5" rx="5" y="6" x="6" height="38" width="38"
                fill="#f2f5e9" fill-opacity="0.5" stroke="#606060" stroke-width="1.0"/>
           <path id="arrow"
             d="M 11.500037,31.436501 C 11.940474,20.09759 22.043105,11.32322 32.158766,21.979434 L 37.068811,17.246167 C 37.068811,17.246167 37.088388,32 37.088388,32 L 22.160133,31.978069 C 22.160133,31.978069 26.997745,27.140456 26.997745,27.140456 C 18.528582,18.264221 13.291696,25.230495 11.500037,31.436501 z"
             style="fill:#404040;"/>
          </a>
         </g>
        </svg>
</svg>
