<?xml version="1.0" encoding="UTF-8" standalone="no"?>
<!DOCTYPE svg PUBLIC "-//W3C//DTD SVG 1.1//EN"
 "http://www.w3.org/Graphics/SVG/1.1/DTD/svg11.dtd">
<!-- Generated by graphviz version 2.38.0 (20140413.2041)
 -->
<!-- Title: Texture::getTextureData Pages: 1 -->
<!--zoomable 185 -->
<svg id="main" version="1.1" xmlns="http://www.w3.org/2000/svg" xmlns:xlink="http://www.w3.org/1999/xlink" xml:space="preserve" onload="init(evt)">
<style type="text/css"><![CDATA[
.edge:hover path { stroke: red; }
.edge:hover polygon { stroke: red; fill: red; }
]]></style>
<script type="text/javascript"><![CDATA[
var edges = document.getElementsByTagName('g');
if (edges && edges.length) {
  for (var i=0;i<edges.length;i++) {
    if (edges[i].id.substr(0,4)=='edge') {
      edges[i].setAttribute('class','edge');
    }
  }
}
]]></script>
        <defs>
                <circle id="rim" cx="0" cy="0" r="7"/>
                <circle id="rim2" cx="0" cy="0" r="3.5"/>
                <g id="zoomPlus">
                        <use xlink:href="#rim" fill="#404040">
                                <set attributeName="fill" to="#808080" begin="zoomplus.mouseover" end="zoomplus.mouseout"/>
                        </use>
                        <path d="M-4,0h8M0,-4v8" fill="none" stroke="white" stroke-width="1.5" pointer-events="none"/>
                </g>
                <g id="zoomMin">
                        <use xlink:href="#rim" fill="#404040">
                                <set attributeName="fill" to="#808080" begin="zoomminus.mouseover" end="zoomminus.mouseout"/>
                        </use>
                        <path d="M-4,0h8" fill="none" stroke="white" stroke-width="1.5" pointer-events="none"/>
                </g>
                <g id="dirArrow">
                        <path fill="none" stroke="white" stroke-width="1.5" d="M0,-3.0v7 M-2.5,-0.5L0,-3.0L2.5,-0.5"/>
                </g>
               <g id="resetDef">
                       <use xlink:href="#rim2" fill="#404040">
                               <set attributeName="fill" to="#808080" begin="reset.mouseover" end="reset.mouseout"/>
                       </use>
               </g>
        </defs>

<script type="text/javascript">
var viewWidth = 1644;
var viewHeight = 185;
var sectionId = 'dynsection-1';
</script>
<script xlink:href="../../svgpan.js"/>
<svg id="graph" class="graph">
<g id="viewport">
<title>Texture::getTextureData</title>
<polygon fill="white" stroke="none" points="-4,4 -4,-180.5 1640,-180.5 1640,4 -4,4"/>
<!-- Node1 -->
<g id="node1" class="node"><title>Node1</title>
<g id="a_node1"><a xlink:title=" ">
<polygon fill="#bfbfbf" stroke="black" points="1515,-91 1515,-110 1636,-110 1636,-91 1515,-91"/>
<text text-anchor="middle" x="1575.5" y="-98" font-family="Helvetica,sans-Serif" font-size="10.00">Texture::getTextureData</text>
</a>
</g>
</g>
<!-- Node2 -->
<g id="node2" class="node"><title>Node2</title>
<g id="a_node2"><a xlink:href="../../d3/d96/class__3_d_m_1_1_model.html#a4e709f9f65b099c0744e0fc21adeeb5d" target="_top" xlink:title=" ">
<polygon fill="white" stroke="black" points="1331,-157 1331,-176 1479,-176 1479,-157 1331,-157"/>
<text text-anchor="middle" x="1405" y="-164" font-family="Helvetica,sans-Serif" font-size="10.00">_3DM::Model::initializeTexture</text>
</a>
</g>
</g>
<!-- Node1&#45;&gt;Node2 -->
<g id="edge1" class="edge"><title>Node1&#45;&gt;Node2</title>
<path fill="none" stroke="midnightblue" d="M1548.85,-114.902C1529.97,-125.055 1503.45,-138.41 1479,-147.5 1469.3,-151.106 1458.64,-154.295 1448.53,-156.982"/>
<polygon fill="midnightblue" stroke="midnightblue" points="1550.61,-117.927 1557.71,-110.066 1547.26,-111.782 1550.61,-117.927"/>
</g>
<!-- Node3 -->
<g id="node3" class="node"><title>Node3</title>
<g id="a_node3"><a xlink:href="../../de/d92/class__3_d_m_1_1_animated_model.html#a45567581e2a85fd3e8358d43028ec8a7" target="_top" xlink:title=" ">
<polygon fill="white" stroke="black" points="1347,-107.5 1347,-137.5 1463,-137.5 1463,-107.5 1347,-107.5"/>
<text text-anchor="start" x="1355" y="-125.5" font-family="Helvetica,sans-Serif" font-size="10.00">_3DM::AnimatedModel</text>
<text text-anchor="middle" x="1405" y="-114.5" font-family="Helvetica,sans-Serif" font-size="10.00">::initializeTexture</text>
</a>
</g>
</g>
<!-- Node1&#45;&gt;Node3 -->
<g id="edge2" class="edge"><title>Node1&#45;&gt;Node3</title>
<path fill="none" stroke="midnightblue" d="M1504.67,-109.617C1490.85,-111.422 1476.49,-113.297 1463.15,-115.039"/>
<polygon fill="midnightblue" stroke="midnightblue" points="1505.16,-113.084 1514.62,-108.318 1504.25,-106.143 1505.16,-113.084"/>
</g>
<!-- Node4 -->
<g id="node4" class="node"><title>Node4</title>
<g id="a_node4"><a xlink:href="../../d3/df8/class_quad.html#a424c01ecd59971dc51e39bc19fbda551" target="_top" xlink:title=" ">
<polygon fill="white" stroke="black" points="1362.5,-69 1362.5,-88 1447.5,-88 1447.5,-69 1362.5,-69"/>
<text text-anchor="middle" x="1405" y="-76" font-family="Helvetica,sans-Serif" font-size="10.00">Quad::render3D</text>
</a>
</g>
</g>
<!-- Node1&#45;&gt;Node4 -->
<g id="edge3" class="edge"><title>Node1&#45;&gt;Node4</title>
<path fill="none" stroke="midnightblue" d="M1504.62,-91.3765C1485.28,-88.8512 1464.9,-86.19 1447.72,-83.9466"/>
<polygon fill="midnightblue" stroke="midnightblue" points="1504.25,-94.8575 1514.62,-92.6817 1505.16,-87.9164 1504.25,-94.8575"/>
</g>
<!-- Node15 -->
<g id="node15" class="node"><title>Node15</title>
<g id="a_node15"><a xlink:href="../../df/d86/class_default_particle_system.html#a18751e09ab38a8aeb21ec011206efe01" target="_top" xlink:title=" ">
<polygon fill="white" stroke="black" points="1176,-0.5 1176,-30.5 1289,-30.5 1289,-0.5 1176,-0.5"/>
<text text-anchor="start" x="1184" y="-18.5" font-family="Helvetica,sans-Serif" font-size="10.00">DefaultParticleSystem</text>
<text text-anchor="middle" x="1232.5" y="-7.5" font-family="Helvetica,sans-Serif" font-size="10.00">::renderParticles</text>
</a>
</g>
</g>
<!-- Node1&#45;&gt;Node15 -->
<g id="edge15" class="edge"><title>Node1&#45;&gt;Node15</title>
<path fill="none" stroke="midnightblue" d="M1546.47,-86.449C1527.76,-77.5829 1502.4,-66.5194 1479,-59.5 1415.34,-40.4025 1339.75,-28.3877 1289.44,-21.828"/>
<polygon fill="midnightblue" stroke="midnightblue" points="1545.07,-89.6596 1555.59,-90.852 1548.11,-83.3548 1545.07,-89.6596"/>
</g>
<!-- Node5 -->
<g id="node5" class="node"><title>Node5</title>
<g id="a_node5"><a xlink:href="../../dd/d84/class_gui_text_character.html#a807cfea698c6d8741d95e251230a5427" target="_top" xlink:title=" ">
<polygon fill="white" stroke="black" points="1170,-126 1170,-145 1295,-145 1295,-126 1170,-126"/>
<text text-anchor="middle" x="1232.5" y="-133" font-family="Helvetica,sans-Serif" font-size="10.00">GuiTextCharacter::render</text>
</a>
</g>
</g>
<!-- Node4&#45;&gt;Node5 -->
<g id="edge4" class="edge"><title>Node4&#45;&gt;Node5</title>
<path fill="none" stroke="midnightblue" d="M1356.45,-90.8218C1347.93,-93.2288 1339.17,-95.8367 1331,-98.5 1317.14,-103.016 1282.15,-116.486 1258.09,-125.862"/>
<polygon fill="midnightblue" stroke="midnightblue" points="1357.58,-94.1401 1366.28,-88.0973 1355.71,-87.3942 1357.58,-94.1401"/>
</g>
<!-- Node6 -->
<g id="node6" class="node"><title>Node6</title>
<g id="a_node6"><a xlink:href="../../d8/d31/class_rendering_system.html#ae6a25f6b28ebe40f08916d9eadc95ac2" target="_top" xlink:title=" ">
<polygon fill="white" stroke="black" points="440,-69 440,-88 567,-88 567,-69 440,-69"/>
<text text-anchor="middle" x="503.5" y="-76" font-family="Helvetica,sans-Serif" font-size="10.00">RenderingSystem::render</text>
</a>
</g>
</g>
<!-- Node4&#45;&gt;Node6 -->
<g id="edge5" class="edge"><title>Node4&#45;&gt;Node6</title>
<path fill="none" stroke="midnightblue" d="M1352.28,-83.0471C1283.78,-88.6679 1159.17,-97.5 1052.5,-97.5 1052.5,-97.5 1052.5,-97.5 854,-97.5 753.583,-97.5 637.176,-89.5831 567.264,-83.9701"/>
<polygon fill="midnightblue" stroke="midnightblue" points="1352.7,-86.5244 1362.38,-82.2085 1352.12,-79.5484 1352.7,-86.5244"/>
</g>
<!-- Node11 -->
<g id="node11" class="node"><title>Node11</title>
<g id="a_node11"><a xlink:href="../../d1/db9/class_gui_sprite.html#ad8d743c3e3889fba893f29796717114f" target="_top" xlink:title=" ">
<polygon fill="white" stroke="black" points="1187.5,-50 1187.5,-69 1277.5,-69 1277.5,-50 1187.5,-50"/>
<text text-anchor="middle" x="1232.5" y="-57" font-family="Helvetica,sans-Serif" font-size="10.00">GuiSprite::render</text>
</a>
</g>
</g>
<!-- Node4&#45;&gt;Node11 -->
<g id="edge10" class="edge"><title>Node4&#45;&gt;Node11</title>
<path fill="none" stroke="midnightblue" d="M1352.05,-72.7109C1328.31,-70.0655 1300.48,-66.9645 1277.76,-64.432"/>
<polygon fill="midnightblue" stroke="midnightblue" points="1351.96,-76.2229 1362.29,-73.8521 1352.74,-69.266 1351.96,-76.2229"/>
</g>
<!-- Node7 -->
<g id="node7" class="node"><title>Node7</title>
<g id="a_node7"><a xlink:href="../../dd/d1f/class_game.html#a15ddd769261d923827a3cdf41499c843" target="_top" xlink:title=" ">
<polygon fill="white" stroke="black" points="328,-69 328,-88 404,-88 404,-69 328,-69"/>
<text text-anchor="middle" x="366" y="-76" font-family="Helvetica,sans-Serif" font-size="10.00">Game::render</text>
</a>
</g>
</g>
<!-- Node6&#45;&gt;Node7 -->
<g id="edge6" class="edge"><title>Node6&#45;&gt;Node7</title>
<path fill="none" stroke="midnightblue" d="M429.877,-78.5C421.008,-78.5 412.25,-78.5 404.216,-78.5"/>
<polygon fill="midnightblue" stroke="midnightblue" points="429.906,-82.0001 439.906,-78.5 429.906,-75.0001 429.906,-82.0001"/>
</g>
<!-- Node8 -->
<g id="node8" class="node"><title>Node8</title>
<g id="a_node8"><a xlink:href="../../de/d6b/class_application.html#a9ac99d97ee1cc814298a2f2388bde835" target="_top" xlink:title=" ">
<polygon fill="white" stroke="black" points="194,-69 194,-88 292,-88 292,-69 194,-69"/>
<text text-anchor="middle" x="243" y="-76" font-family="Helvetica,sans-Serif" font-size="10.00">Application::render</text>
</a>
</g>
</g>
<!-- Node7&#45;&gt;Node8 -->
<g id="edge7" class="edge"><title>Node7&#45;&gt;Node8</title>
<path fill="none" stroke="midnightblue" d="M317.684,-78.5C309.282,-78.5 300.524,-78.5 292.101,-78.5"/>
<polygon fill="midnightblue" stroke="midnightblue" points="317.709,-82.0001 327.709,-78.5 317.709,-75.0001 317.709,-82.0001"/>
</g>
<!-- Node9 -->
<g id="node9" class="node"><title>Node9</title>
<g id="a_node9"><a xlink:href="../../de/d6b/class_application.html#a68965449404743bf1add056784d6cf81" target="_top" xlink:title=" ">
<polygon fill="white" stroke="black" points="74,-69 74,-88 158,-88 158,-69 74,-69"/>
<text text-anchor="middle" x="116" y="-76" font-family="Helvetica,sans-Serif" font-size="10.00">Application::run</text>
</a>
</g>
</g>
<!-- Node8&#45;&gt;Node9 -->
<g id="edge8" class="edge"><title>Node8&#45;&gt;Node9</title>
<path fill="none" stroke="midnightblue" d="M183.411,-78.5C174.926,-78.5 166.343,-78.5 158.294,-78.5"/>
<polygon fill="midnightblue" stroke="midnightblue" points="183.672,-82.0001 193.672,-78.5 183.672,-75.0001 183.672,-82.0001"/>
</g>
<!-- Node10 -->
<g id="node10" class="node"><title>Node10</title>
<g id="a_node10"><a xlink:href="../../d5/d12/_main_8cpp.html#a0ddf1224851353fc92bfbff6f499fa97" target="_top" xlink:title=" ">
<polygon fill="white" stroke="black" points="0,-69 0,-88 38,-88 38,-69 0,-69"/>
<text text-anchor="middle" x="19" y="-76" font-family="Helvetica,sans-Serif" font-size="10.00">main</text>
</a>
</g>
</g>
<!-- Node9&#45;&gt;Node10 -->
<g id="edge9" class="edge"><title>Node9&#45;&gt;Node10</title>
<path fill="none" stroke="midnightblue" d="M63.6206,-78.5C54.5384,-78.5 45.6466,-78.5 38.2853,-78.5"/>
<polygon fill="midnightblue" stroke="midnightblue" points="63.8842,-82.0001 73.8841,-78.5 63.8841,-75.0001 63.8842,-82.0001"/>
</g>
<!-- Node12 -->
<g id="node12" class="node"><title>Node12</title>
<g id="a_node12"><a xlink:href="../../d7/dd6/class_pause_menu_system.html#a275e625e495889f598a67bdffb2ffd4f" target="_top" xlink:title=" ">
<polygon fill="white" stroke="black" points="984,-50 984,-69 1119,-69 1119,-50 984,-50"/>
<text text-anchor="middle" x="1051.5" y="-57" font-family="Helvetica,sans-Serif" font-size="10.00">PauseMenuSystem::render</text>
</a>
</g>
</g>
<!-- Node11&#45;&gt;Node12 -->
<g id="edge11" class="edge"><title>Node11&#45;&gt;Node12</title>
<path fill="none" stroke="midnightblue" d="M1177.1,-59.5C1158.86,-59.5 1138.32,-59.5 1119.25,-59.5"/>
<polygon fill="midnightblue" stroke="midnightblue" points="1177.25,-63.0001 1187.25,-59.5 1177.25,-56.0001 1177.25,-63.0001"/>
</g>
<!-- Node13 -->
<g id="node13" class="node"><title>Node13</title>
<g id="a_node13"><a xlink:href="../../d8/d31/class_rendering_system.html#ad5115644b3d0a1df6446a610c683a31e" target="_top" xlink:title=" ">
<polygon fill="white" stroke="black" points="777,-50 777,-69 933,-69 933,-50 777,-50"/>
<text text-anchor="middle" x="855" y="-57" font-family="Helvetica,sans-Serif" font-size="10.00">RenderingSystem::renderOthers</text>
</a>
</g>
</g>
<!-- Node12&#45;&gt;Node13 -->
<g id="edge12" class="edge"><title>Node12&#45;&gt;Node13</title>
<path fill="none" stroke="midnightblue" d="M973.779,-59.5C960.466,-59.5 946.616,-59.5 933.288,-59.5"/>
<polygon fill="midnightblue" stroke="midnightblue" points="973.836,-63.0001 983.836,-59.5 973.836,-56.0001 973.836,-63.0001"/>
</g>
<!-- Node14 -->
<g id="node14" class="node"><title>Node14</title>
<g id="a_node14"><a xlink:href="../../d8/d31/class_rendering_system.html#a9f1ec48fdfa79ddc55421b6014fdb9c6" target="_top" xlink:title=" ">
<polygon fill="white" stroke="black" points="603,-50 603,-69 741,-69 741,-50 603,-50"/>
<text text-anchor="middle" x="672" y="-57" font-family="Helvetica,sans-Serif" font-size="10.00">RenderingSystem::renderAll</text>
</a>
</g>
</g>
<!-- Node13&#45;&gt;Node14 -->
<g id="edge13" class="edge"><title>Node13&#45;&gt;Node14</title>
<path fill="none" stroke="midnightblue" d="M766.854,-59.5C758.198,-59.5 749.5,-59.5 741.08,-59.5"/>
<polygon fill="midnightblue" stroke="midnightblue" points="766.977,-63.0001 776.977,-59.5 766.977,-56.0001 766.977,-63.0001"/>
</g>
<!-- Node14&#45;&gt;Node6 -->
<g id="edge14" class="edge"><title>Node14&#45;&gt;Node6</title>
<path fill="none" stroke="midnightblue" d="M592.795,-68.4243C584.227,-69.402 575.588,-70.3879 567.242,-71.3403"/>
<polygon fill="midnightblue" stroke="midnightblue" points="593.259,-71.8942 602.798,-67.2828 592.465,-64.9393 593.259,-71.8942"/>
</g>
<!-- Node16 -->
<g id="node16" class="node"><title>Node16</title>
<g id="a_node16"><a xlink:href="../../d8/d31/class_rendering_system.html#a488d5dcc3e1f3c63dedee53bc022a6af" target="_top" xlink:title=" ">
<polygon fill="white" stroke="black" points="969,-9 969,-28 1134,-28 1134,-9 969,-9"/>
<text text-anchor="middle" x="1051.5" y="-16" font-family="Helvetica,sans-Serif" font-size="10.00">RenderingSystem::renderParticles</text>
</a>
</g>
</g>
<!-- Node15&#45;&gt;Node16 -->
<g id="edge16" class="edge"><title>Node15&#45;&gt;Node16</title>
<path fill="none" stroke="midnightblue" d="M1165.72,-16.6025C1155.42,-16.775 1144.67,-16.9552 1134.08,-17.1328"/>
<polygon fill="midnightblue" stroke="midnightblue" points="1165.9,-20.1 1175.84,-16.4328 1165.79,-13.1009 1165.9,-20.1"/>
</g>
<!-- Node16&#45;&gt;Node13 -->
<g id="edge17" class="edge"><title>Node16&#45;&gt;Node13</title>
<path fill="none" stroke="midnightblue" d="M995.554,-30.0825C965.745,-36.366 929.351,-44.0379 901.203,-49.9714"/>
<polygon fill="midnightblue" stroke="midnightblue" points="996.326,-33.4967 1005.39,-28.0093 994.882,-26.6473 996.326,-33.4967"/>
</g>
</g>
</svg>
        <g id="navigator" transform="translate(0 0)" fill="#404254">
                <rect fill="#f2f5e9" fill-opacity="0.5" stroke="#606060" stroke-width=".5" x="0" y="0" width="60" height="60"/>
                <use id="zoomplus" xlink:href="#zoomPlus" x="17" y="9" onmousedown="handleZoom(evt,'in')"/>
                <use id="zoomminus" xlink:href="#zoomMin" x="42" y="9" onmousedown="handleZoom(evt,'out')"/>
                <use id="reset" xlink:href="#resetDef" x="30" y="36" onmousedown="handleReset()"/>
                <g id="arrowUp" xlink:href="#dirArrow" transform="translate(30 24)" onmousedown="handlePan(0,-1)">
                  <use xlink:href="#rim" fill="#404040">
                        <set attributeName="fill" to="#808080" begin="arrowUp.mouseover" end="arrowUp.mouseout"/>
                  </use>
                  <path fill="none" stroke="white" stroke-width="1.5" d="M0,-3.0v7 M-2.5,-0.5L0,-3.0L2.5,-0.5"/>
                </g>
                <g id="arrowRight" xlink:href="#dirArrow" transform="rotate(90) translate(36 -43)" onmousedown="handlePan(1,0)">
                  <use xlink:href="#rim" fill="#404040">
                        <set attributeName="fill" to="#808080" begin="arrowRight.mouseover" end="arrowRight.mouseout"/>
                  </use>
                  <path fill="none" stroke="white" stroke-width="1.5" d="M0,-3.0v7 M-2.5,-0.5L0,-3.0L2.5,-0.5"/>
                </g>
                <g id="arrowDown" xlink:href="#dirArrow" transform="rotate(180) translate(-30 -48)" onmousedown="handlePan(0,1)">
                  <use xlink:href="#rim" fill="#404040">
                        <set attributeName="fill" to="#808080" begin="arrowDown.mouseover" end="arrowDown.mouseout"/>
                  </use>
                  <path fill="none" stroke="white" stroke-width="1.5" d="M0,-3.0v7 M-2.5,-0.5L0,-3.0L2.5,-0.5"/>
                </g>
                <g id="arrowLeft" xlink:href="#dirArrow" transform="rotate(270) translate(-36 17)" onmousedown="handlePan(-1,0)">
                  <use xlink:href="#rim" fill="#404040">
                        <set attributeName="fill" to="#808080" begin="arrowLeft.mouseover" end="arrowLeft.mouseout"/>
                  </use>
                  <path fill="none" stroke="white" stroke-width="1.5" d="M0,-3.0v7 M-2.5,-0.5L0,-3.0L2.5,-0.5"/>
                </g>
        </g>
        <svg viewBox="0 0 15 15" width="100%" height="30px" preserveAspectRatio="xMaxYMin meet">
         <g id="arrow_out" transform="scale(0.3 0.3)">
          <a xlink:href="class_texture_a922a73acbaee522dd96d971b630da0fa_icgraph_org.svg" target="_base">
           <rect id="button" ry="5" rx="5" y="6" x="6" height="38" width="38"
                fill="#f2f5e9" fill-opacity="0.5" stroke="#606060" stroke-width="1.0"/>
           <path id="arrow"
             d="M 11.500037,31.436501 C 11.940474,20.09759 22.043105,11.32322 32.158766,21.979434 L 37.068811,17.246167 C 37.068811,17.246167 37.088388,32 37.088388,32 L 22.160133,31.978069 C 22.160133,31.978069 26.997745,27.140456 26.997745,27.140456 C 18.528582,18.264221 13.291696,25.230495 11.500037,31.436501 z"
             style="fill:#404040;"/>
          </a>
         </g>
        </svg>
</svg>
