<?xml version="1.0" encoding="UTF-8" standalone="no"?>
<!DOCTYPE svg PUBLIC "-//W3C//DTD SVG 1.1//EN"
 "http://www.w3.org/Graphics/SVG/1.1/DTD/svg11.dtd">
<!-- Generated by graphviz version 2.38.0 (20140413.2041)
 -->
<!-- Title: Texture::getHeight Pages: 1 -->
<!--zoomable 180 -->
<svg id="main" version="1.1" xmlns="http://www.w3.org/2000/svg" xmlns:xlink="http://www.w3.org/1999/xlink" xml:space="preserve" onload="init(evt)">
<style type="text/css"><![CDATA[
.edge:hover path { stroke: red; }
.edge:hover polygon { stroke: red; fill: red; }
]]></style>
<script type="text/javascript"><![CDATA[
var edges = document.getElementsByTagName('g');
if (edges && edges.length) {
  for (var i=0;i<edges.length;i++) {
    if (edges[i].id.substr(0,4)=='edge') {
      edges[i].setAttribute('class','edge');
    }
  }
}
]]></script>
        <defs>
                <circle id="rim" cx="0" cy="0" r="7"/>
                <circle id="rim2" cx="0" cy="0" r="3.5"/>
                <g id="zoomPlus">
                        <use xlink:href="#rim" fill="#404040">
                                <set attributeName="fill" to="#808080" begin="zoomplus.mouseover" end="zoomplus.mouseout"/>
                        </use>
                        <path d="M-4,0h8M0,-4v8" fill="none" stroke="white" stroke-width="1.5" pointer-events="none"/>
                </g>
                <g id="zoomMin">
                        <use xlink:href="#rim" fill="#404040">
                                <set attributeName="fill" to="#808080" begin="zoomminus.mouseover" end="zoomminus.mouseout"/>
                        </use>
                        <path d="M-4,0h8" fill="none" stroke="white" stroke-width="1.5" pointer-events="none"/>
                </g>
                <g id="dirArrow">
                        <path fill="none" stroke="white" stroke-width="1.5" d="M0,-3.0v7 M-2.5,-0.5L0,-3.0L2.5,-0.5"/>
                </g>
               <g id="resetDef">
                       <use xlink:href="#rim2" fill="#404040">
                               <set attributeName="fill" to="#808080" begin="reset.mouseover" end="reset.mouseout"/>
                       </use>
               </g>
        </defs>

<script type="text/javascript">
var viewWidth = 1539;
var viewHeight = 180;
var sectionId = 'dynsection-0';
</script>
<script xlink:href="../../svgpan.js"/>
<svg id="graph" class="graph">
<g id="viewport">
<title>Texture::getHeight</title>
<polygon fill="white" stroke="none" points="-4,4 -4,-176 1535,-176 1535,4 -4,4"/>
<!-- Node1 -->
<g id="node1" class="node"><title>Node1</title>
<g id="a_node1"><a xlink:title=" ">
<polygon fill="#bfbfbf" stroke="black" points="1435,-95.5 1435,-114.5 1531,-114.5 1531,-95.5 1435,-95.5"/>
<text text-anchor="middle" x="1483" y="-102.5" font-family="Helvetica,sans-Serif" font-size="10.00">Texture::getHeight</text>
</a>
</g>
</g>
<!-- Node2 -->
<g id="node2" class="node"><title>Node2</title>
<g id="a_node2"><a xlink:href="../../d1/db9/class_gui_sprite.html#a50b84e21fcb306c538ed057bd0eea717" target="_top" xlink:title=" ">
<polygon fill="white" stroke="black" points="1301,-114.5 1301,-133.5 1399,-133.5 1399,-114.5 1301,-114.5"/>
<text text-anchor="middle" x="1350" y="-121.5" font-family="Helvetica,sans-Serif" font-size="10.00">GuiSprite::initialize</text>
</a>
</g>
</g>
<!-- Node1&#45;&gt;Node2 -->
<g id="edge1" class="edge"><title>Node1&#45;&gt;Node2</title>
<path fill="none" stroke="midnightblue" d="M1424.78,-113.3C1416.21,-114.542 1407.46,-115.812 1399.11,-117.023"/>
<polygon fill="midnightblue" stroke="midnightblue" points="1425.31,-116.759 1434.71,-111.859 1424.31,-109.831 1425.31,-116.759"/>
</g>
<!-- Node6 -->
<g id="node6" class="node"><title>Node6</title>
<g id="a_node6"><a xlink:href="../../d3/df8/class_quad.html#a424c01ecd59971dc51e39bc19fbda551" target="_top" xlink:title=" ">
<polygon fill="white" stroke="black" points="1307.5,-57.5 1307.5,-76.5 1392.5,-76.5 1392.5,-57.5 1307.5,-57.5"/>
<text text-anchor="middle" x="1350" y="-64.5" font-family="Helvetica,sans-Serif" font-size="10.00">Quad::render3D</text>
</a>
</g>
</g>
<!-- Node1&#45;&gt;Node6 -->
<g id="edge5" class="edge"><title>Node1&#45;&gt;Node6</title>
<path fill="none" stroke="midnightblue" d="M1439.29,-92.6094C1421.35,-87.4055 1400.8,-81.4459 1384.05,-76.5859"/>
<polygon fill="midnightblue" stroke="midnightblue" points="1438.36,-95.9864 1448.94,-95.411 1440.31,-89.2636 1438.36,-95.9864"/>
</g>
<!-- Node3 -->
<g id="node3" class="node"><title>Node3</title>
<g id="a_node3"><a xlink:href="../../d1/db9/class_gui_sprite.html#ac63eacd51594c642bc2483c77d6ad2ba" target="_top" xlink:title=" ">
<polygon fill="white" stroke="black" points="1150.5,-152.5 1150.5,-171.5 1254.5,-171.5 1254.5,-152.5 1150.5,-152.5"/>
<text text-anchor="middle" x="1202.5" y="-159.5" font-family="Helvetica,sans-Serif" font-size="10.00">GuiSprite::GuiSprite</text>
</a>
</g>
</g>
<!-- Node2&#45;&gt;Node3 -->
<g id="edge2" class="edge"><title>Node2&#45;&gt;Node3</title>
<path fill="none" stroke="midnightblue" d="M1302.35,-136.184C1282.15,-141.46 1258.85,-147.544 1239.95,-152.48"/>
<polygon fill="midnightblue" stroke="midnightblue" points="1303.49,-139.502 1312.28,-133.589 1301.72,-132.73 1303.49,-139.502"/>
</g>
<!-- Node4 -->
<g id="node4" class="node"><title>Node4</title>
<g id="a_node4"><a xlink:href="../../d4/de5/class_pause_menu.html#a29f8b79ccd65bdc49a8c50e8f53f766f" target="_top" xlink:title=" ">
<polygon fill="white" stroke="black" points="1147.5,-114.5 1147.5,-133.5 1257.5,-133.5 1257.5,-114.5 1147.5,-114.5"/>
<text text-anchor="middle" x="1202.5" y="-121.5" font-family="Helvetica,sans-Serif" font-size="10.00">PauseMenu::initialize</text>
</a>
</g>
</g>
<!-- Node2&#45;&gt;Node4 -->
<g id="edge3" class="edge"><title>Node2&#45;&gt;Node4</title>
<path fill="none" stroke="midnightblue" d="M1290.64,-124C1279.71,-124 1268.33,-124 1257.53,-124"/>
<polygon fill="midnightblue" stroke="midnightblue" points="1290.95,-127.5 1300.95,-124 1290.95,-120.5 1290.95,-127.5"/>
</g>
<!-- Node5 -->
<g id="node5" class="node"><title>Node5</title>
<g id="a_node5"><a xlink:href="../../d8/d53/class_player.html#a74539e4ea62aea94ea420052bac78292" target="_top" xlink:title=" ">
<polygon fill="white" stroke="black" points="993.5,-114.5 993.5,-133.5 1079.5,-133.5 1079.5,-114.5 993.5,-114.5"/>
<text text-anchor="middle" x="1036.5" y="-121.5" font-family="Helvetica,sans-Serif" font-size="10.00">Player::initialize</text>
</a>
</g>
</g>
<!-- Node4&#45;&gt;Node5 -->
<g id="edge4" class="edge"><title>Node4&#45;&gt;Node5</title>
<path fill="none" stroke="midnightblue" d="M1137.1,-124C1117.8,-124 1097.13,-124 1079.65,-124"/>
<polygon fill="midnightblue" stroke="midnightblue" points="1137.35,-127.5 1147.35,-124 1137.35,-120.5 1137.35,-127.5"/>
</g>
<!-- Node7 -->
<g id="node7" class="node"><title>Node7</title>
<g id="a_node7"><a xlink:href="../../dd/d84/class_gui_text_character.html#a807cfea698c6d8741d95e251230a5427" target="_top" xlink:title=" ">
<polygon fill="white" stroke="black" points="1140,-76.5 1140,-95.5 1265,-95.5 1265,-76.5 1140,-76.5"/>
<text text-anchor="middle" x="1202.5" y="-83.5" font-family="Helvetica,sans-Serif" font-size="10.00">GuiTextCharacter::render</text>
</a>
</g>
</g>
<!-- Node6&#45;&gt;Node7 -->
<g id="edge6" class="edge"><title>Node6&#45;&gt;Node7</title>
<path fill="none" stroke="midnightblue" d="M1297.21,-73.7636C1286.86,-75.114 1275.91,-76.545 1265.27,-77.9341"/>
<polygon fill="midnightblue" stroke="midnightblue" points="1297.84,-77.2101 1307.31,-72.4446 1296.94,-70.269 1297.84,-77.2101"/>
</g>
<!-- Node8 -->
<g id="node8" class="node"><title>Node8</title>
<g id="a_node8"><a xlink:href="../../d8/d31/class_rendering_system.html#ae6a25f6b28ebe40f08916d9eadc95ac2" target="_top" xlink:title=" ">
<polygon fill="white" stroke="black" points="440,-19.5 440,-38.5 567,-38.5 567,-19.5 440,-19.5"/>
<text text-anchor="middle" x="503.5" y="-26.5" font-family="Helvetica,sans-Serif" font-size="10.00">RenderingSystem::render</text>
</a>
</g>
</g>
<!-- Node6&#45;&gt;Node8 -->
<g id="edge7" class="edge"><title>Node6&#45;&gt;Node8</title>
<path fill="none" stroke="midnightblue" d="M1297.22,-61.9058C1235.46,-56.2778 1129.05,-48 1037.5,-48 1037.5,-48 1037.5,-48 854,-48 753.583,-48 637.176,-40.0831 567.264,-34.4701"/>
<polygon fill="midnightblue" stroke="midnightblue" points="1297.2,-65.4188 1307.48,-62.8538 1297.85,-58.4485 1297.2,-65.4188"/>
</g>
<!-- Node13 -->
<g id="node13" class="node"><title>Node13</title>
<g id="a_node13"><a xlink:href="../../d1/db9/class_gui_sprite.html#ad8d743c3e3889fba893f29796717114f" target="_top" xlink:title=" ">
<polygon fill="white" stroke="black" points="1157.5,-0.5 1157.5,-19.5 1247.5,-19.5 1247.5,-0.5 1157.5,-0.5"/>
<text text-anchor="middle" x="1202.5" y="-7.5" font-family="Helvetica,sans-Serif" font-size="10.00">GuiSprite::render</text>
</a>
</g>
</g>
<!-- Node6&#45;&gt;Node13 -->
<g id="edge12" class="edge"><title>Node6&#45;&gt;Node13</title>
<path fill="none" stroke="midnightblue" d="M1315.17,-53.688C1299.85,-47.6673 1281.52,-40.4669 1265,-34 1252.83,-29.2362 1239.31,-23.9559 1228.04,-19.5638"/>
<polygon fill="midnightblue" stroke="midnightblue" points="1314.16,-57.0523 1324.75,-57.4545 1316.72,-50.5378 1314.16,-57.0523"/>
</g>
<!-- Node9 -->
<g id="node9" class="node"><title>Node9</title>
<g id="a_node9"><a xlink:href="../../dd/d1f/class_game.html#a15ddd769261d923827a3cdf41499c843" target="_top" xlink:title=" ">
<polygon fill="white" stroke="black" points="328,-19.5 328,-38.5 404,-38.5 404,-19.5 328,-19.5"/>
<text text-anchor="middle" x="366" y="-26.5" font-family="Helvetica,sans-Serif" font-size="10.00">Game::render</text>
</a>
</g>
</g>
<!-- Node8&#45;&gt;Node9 -->
<g id="edge8" class="edge"><title>Node8&#45;&gt;Node9</title>
<path fill="none" stroke="midnightblue" d="M429.877,-29C421.008,-29 412.25,-29 404.216,-29"/>
<polygon fill="midnightblue" stroke="midnightblue" points="429.906,-32.5001 439.906,-29 429.906,-25.5001 429.906,-32.5001"/>
</g>
<!-- Node10 -->
<g id="node10" class="node"><title>Node10</title>
<g id="a_node10"><a xlink:href="../../de/d6b/class_application.html#a9ac99d97ee1cc814298a2f2388bde835" target="_top" xlink:title=" ">
<polygon fill="white" stroke="black" points="194,-19.5 194,-38.5 292,-38.5 292,-19.5 194,-19.5"/>
<text text-anchor="middle" x="243" y="-26.5" font-family="Helvetica,sans-Serif" font-size="10.00">Application::render</text>
</a>
</g>
</g>
<!-- Node9&#45;&gt;Node10 -->
<g id="edge9" class="edge"><title>Node9&#45;&gt;Node10</title>
<path fill="none" stroke="midnightblue" d="M317.684,-29C309.282,-29 300.524,-29 292.101,-29"/>
<polygon fill="midnightblue" stroke="midnightblue" points="317.709,-32.5001 327.709,-29 317.709,-25.5001 317.709,-32.5001"/>
</g>
<!-- Node11 -->
<g id="node11" class="node"><title>Node11</title>
<g id="a_node11"><a xlink:href="../../de/d6b/class_application.html#a68965449404743bf1add056784d6cf81" target="_top" xlink:title=" ">
<polygon fill="white" stroke="black" points="74,-19.5 74,-38.5 158,-38.5 158,-19.5 74,-19.5"/>
<text text-anchor="middle" x="116" y="-26.5" font-family="Helvetica,sans-Serif" font-size="10.00">Application::run</text>
</a>
</g>
</g>
<!-- Node10&#45;&gt;Node11 -->
<g id="edge10" class="edge"><title>Node10&#45;&gt;Node11</title>
<path fill="none" stroke="midnightblue" d="M183.411,-29C174.926,-29 166.343,-29 158.294,-29"/>
<polygon fill="midnightblue" stroke="midnightblue" points="183.672,-32.5001 193.672,-29 183.672,-25.5001 183.672,-32.5001"/>
</g>
<!-- Node12 -->
<g id="node12" class="node"><title>Node12</title>
<g id="a_node12"><a xlink:href="../../d5/d12/_main_8cpp.html#a0ddf1224851353fc92bfbff6f499fa97" target="_top" xlink:title=" ">
<polygon fill="white" stroke="black" points="0,-19.5 0,-38.5 38,-38.5 38,-19.5 0,-19.5"/>
<text text-anchor="middle" x="19" y="-26.5" font-family="Helvetica,sans-Serif" font-size="10.00">main</text>
</a>
</g>
</g>
<!-- Node11&#45;&gt;Node12 -->
<g id="edge11" class="edge"><title>Node11&#45;&gt;Node12</title>
<path fill="none" stroke="midnightblue" d="M63.6206,-29C54.5384,-29 45.6466,-29 38.2853,-29"/>
<polygon fill="midnightblue" stroke="midnightblue" points="63.8842,-32.5001 73.8841,-29 63.8841,-25.5001 63.8842,-32.5001"/>
</g>
<!-- Node14 -->
<g id="node14" class="node"><title>Node14</title>
<g id="a_node14"><a xlink:href="../../d7/dd6/class_pause_menu_system.html#a275e625e495889f598a67bdffb2ffd4f" target="_top" xlink:title=" ">
<polygon fill="white" stroke="black" points="969,-0.5 969,-19.5 1104,-19.5 1104,-0.5 969,-0.5"/>
<text text-anchor="middle" x="1036.5" y="-7.5" font-family="Helvetica,sans-Serif" font-size="10.00">PauseMenuSystem::render</text>
</a>
</g>
</g>
<!-- Node13&#45;&gt;Node14 -->
<g id="edge13" class="edge"><title>Node13&#45;&gt;Node14</title>
<path fill="none" stroke="midnightblue" d="M1146.89,-10C1133.19,-10 1118.33,-10 1104.11,-10"/>
<polygon fill="midnightblue" stroke="midnightblue" points="1147.12,-13.5001 1157.12,-10 1147.12,-6.5001 1147.12,-13.5001"/>
</g>
<!-- Node15 -->
<g id="node15" class="node"><title>Node15</title>
<g id="a_node15"><a xlink:href="../../d8/d31/class_rendering_system.html#ad5115644b3d0a1df6446a610c683a31e" target="_top" xlink:title=" ">
<polygon fill="white" stroke="black" points="777,-0.5 777,-19.5 933,-19.5 933,-0.5 777,-0.5"/>
<text text-anchor="middle" x="855" y="-7.5" font-family="Helvetica,sans-Serif" font-size="10.00">RenderingSystem::renderOthers</text>
</a>
</g>
</g>
<!-- Node14&#45;&gt;Node15 -->
<g id="edge14" class="edge"><title>Node14&#45;&gt;Node15</title>
<path fill="none" stroke="midnightblue" d="M958.673,-10C950.195,-10 941.559,-10 933.078,-10"/>
<polygon fill="midnightblue" stroke="midnightblue" points="958.916,-13.5001 968.916,-10 958.916,-6.5001 958.916,-13.5001"/>
</g>
<!-- Node16 -->
<g id="node16" class="node"><title>Node16</title>
<g id="a_node16"><a xlink:href="../../d8/d31/class_rendering_system.html#a9f1ec48fdfa79ddc55421b6014fdb9c6" target="_top" xlink:title=" ">
<polygon fill="white" stroke="black" points="603,-0.5 603,-19.5 741,-19.5 741,-0.5 603,-0.5"/>
<text text-anchor="middle" x="672" y="-7.5" font-family="Helvetica,sans-Serif" font-size="10.00">RenderingSystem::renderAll</text>
</a>
</g>
</g>
<!-- Node15&#45;&gt;Node16 -->
<g id="edge15" class="edge"><title>Node15&#45;&gt;Node16</title>
<path fill="none" stroke="midnightblue" d="M766.854,-10C758.198,-10 749.5,-10 741.08,-10"/>
<polygon fill="midnightblue" stroke="midnightblue" points="766.977,-13.5001 776.977,-10 766.977,-6.5001 766.977,-13.5001"/>
</g>
<!-- Node16&#45;&gt;Node8 -->
<g id="edge16" class="edge"><title>Node16&#45;&gt;Node8</title>
<path fill="none" stroke="midnightblue" d="M592.795,-18.9243C584.227,-19.902 575.588,-20.8879 567.242,-21.8403"/>
<polygon fill="midnightblue" stroke="midnightblue" points="593.259,-22.3942 602.798,-17.7828 592.465,-15.4393 593.259,-22.3942"/>
</g>
</g>
</svg>
        <g id="navigator" transform="translate(0 0)" fill="#404254">
                <rect fill="#f2f5e9" fill-opacity="0.5" stroke="#606060" stroke-width=".5" x="0" y="0" width="60" height="60"/>
                <use id="zoomplus" xlink:href="#zoomPlus" x="17" y="9" onmousedown="handleZoom(evt,'in')"/>
                <use id="zoomminus" xlink:href="#zoomMin" x="42" y="9" onmousedown="handleZoom(evt,'out')"/>
                <use id="reset" xlink:href="#resetDef" x="30" y="36" onmousedown="handleReset()"/>
                <g id="arrowUp" xlink:href="#dirArrow" transform="translate(30 24)" onmousedown="handlePan(0,-1)">
                  <use xlink:href="#rim" fill="#404040">
                        <set attributeName="fill" to="#808080" begin="arrowUp.mouseover" end="arrowUp.mouseout"/>
                  </use>
                  <path fill="none" stroke="white" stroke-width="1.5" d="M0,-3.0v7 M-2.5,-0.5L0,-3.0L2.5,-0.5"/>
                </g>
                <g id="arrowRight" xlink:href="#dirArrow" transform="rotate(90) translate(36 -43)" onmousedown="handlePan(1,0)">
                  <use xlink:href="#rim" fill="#404040">
                        <set attributeName="fill" to="#808080" begin="arrowRight.mouseover" end="arrowRight.mouseout"/>
                  </use>
                  <path fill="none" stroke="white" stroke-width="1.5" d="M0,-3.0v7 M-2.5,-0.5L0,-3.0L2.5,-0.5"/>
                </g>
                <g id="arrowDown" xlink:href="#dirArrow" transform="rotate(180) translate(-30 -48)" onmousedown="handlePan(0,1)">
                  <use xlink:href="#rim" fill="#404040">
                        <set attributeName="fill" to="#808080" begin="arrowDown.mouseover" end="arrowDown.mouseout"/>
                  </use>
                  <path fill="none" stroke="white" stroke-width="1.5" d="M0,-3.0v7 M-2.5,-0.5L0,-3.0L2.5,-0.5"/>
                </g>
                <g id="arrowLeft" xlink:href="#dirArrow" transform="rotate(270) translate(-36 17)" onmousedown="handlePan(-1,0)">
                  <use xlink:href="#rim" fill="#404040">
                        <set attributeName="fill" to="#808080" begin="arrowLeft.mouseover" end="arrowLeft.mouseout"/>
                  </use>
                  <path fill="none" stroke="white" stroke-width="1.5" d="M0,-3.0v7 M-2.5,-0.5L0,-3.0L2.5,-0.5"/>
                </g>
        </g>
        <svg viewBox="0 0 15 15" width="100%" height="30px" preserveAspectRatio="xMaxYMin meet">
         <g id="arrow_out" transform="scale(0.3 0.3)">
          <a xlink:href="class_texture_a0eaebfd0e00f88d19a64ed05ea634539_icgraph_org.svg" target="_base">
           <rect id="button" ry="5" rx="5" y="6" x="6" height="38" width="38"
                fill="#f2f5e9" fill-opacity="0.5" stroke="#606060" stroke-width="1.0"/>
           <path id="arrow"
             d="M 11.500037,31.436501 C 11.940474,20.09759 22.043105,11.32322 32.158766,21.979434 L 37.068811,17.246167 C 37.068811,17.246167 37.088388,32 37.088388,32 L 22.160133,31.978069 C 22.160133,31.978069 26.997745,27.140456 26.997745,27.140456 C 18.528582,18.264221 13.291696,25.230495 11.500037,31.436501 z"
             style="fill:#404040;"/>
          </a>
         </g>
        </svg>
</svg>
