<?xml version="1.0" encoding="UTF-8" standalone="no"?>
<!DOCTYPE svg PUBLIC "-//W3C//DTD SVG 1.1//EN"
 "http://www.w3.org/Graphics/SVG/1.1/DTD/svg11.dtd">
<!-- Generated by graphviz version 2.38.0 (20140413.2041)
 -->
<!-- Title: PauseMenu Pages: 1 -->
<svg width="181pt" height="209pt"
 viewBox="0.00 0.00 181.00 209.00" xmlns="http://www.w3.org/2000/svg" xmlns:xlink="http://www.w3.org/1999/xlink">
<g id="graph0" class="graph" transform="scale(1 1) rotate(0) translate(4 205)">
<title>PauseMenu</title>
<polygon fill="white" stroke="none" points="-4,4 -4,-205 177,-205 177,4 -4,4"/>
<!-- Node1 -->
<g id="node1" class="node"><title>Node1</title>
<g id="a_node1"><a xlink:title=" ">
<polygon fill="#bfbfbf" stroke="black" points="34,-0.5 34,-19.5 102,-19.5 102,-0.5 34,-0.5"/>
<text text-anchor="middle" x="68" y="-7.5" font-family="Helvetica,sans-Serif" font-size="10.00">PauseMenu</text>
</a>
</g>
</g>
<!-- Node2 -->
<g id="node2" class="node"><title>Node2</title>
<g id="a_node2"><a xlink:href="../../d2/d00/class_component.html" target="_top" xlink:title=" ">
<polygon fill="white" stroke="black" points="0,-57.5 0,-76.5 136,-76.5 136,-57.5 0,-57.5"/>
<text text-anchor="middle" x="68" y="-64.5" font-family="Helvetica,sans-Serif" font-size="10.00">Component&lt; PauseMenu &gt;</text>
</a>
</g>
</g>
<!-- Node2&#45;&gt;Node1 -->
<g id="edge1" class="edge"><title>Node2&#45;&gt;Node1</title>
<path fill="none" stroke="midnightblue" d="M68,-47.1166C68,-37.8173 68,-27.0557 68,-19.7149"/>
<polygon fill="midnightblue" stroke="midnightblue" points="64.5001,-47.4062 68,-57.4063 71.5001,-47.4063 64.5001,-47.4062"/>
</g>
<!-- Node3 -->
<g id="node3" class="node"><title>Node3</title>
<g id="a_node3"><a xlink:href="../../d5/d79/class_component_interface.html" target="_top" xlink:title=" ">
<polygon fill="white" stroke="black" points="24.5,-181.5 24.5,-200.5 127.5,-200.5 127.5,-181.5 24.5,-181.5"/>
<text text-anchor="middle" x="76" y="-188.5" font-family="Helvetica,sans-Serif" font-size="10.00">ComponentInterface</text>
</a>
</g>
</g>
<!-- Node3&#45;&gt;Node2 -->
<g id="edge2" class="edge"><title>Node3&#45;&gt;Node2</title>
<path fill="none" stroke="midnightblue" d="M73.6478,-171.087C72.6924,-162.788 71.6602,-152.923 71,-144 69.207,-119.77 68.4417,-91.1087 68.153,-76.9036"/>
<polygon fill="midnightblue" stroke="midnightblue" points="70.1945,-171.686 74.8611,-181.198 77.1446,-170.852 70.1945,-171.686"/>
</g>
<!-- Node4 -->
<g id="node4" class="node"><title>Node4</title>
<g id="a_node4"><a xlink:href="../../d2/d00/class_component.html" target="_top" xlink:title=" ">
<polygon fill="white" stroke="black" points="80.5,-124.5 80.5,-143.5 169.5,-143.5 169.5,-124.5 80.5,-124.5"/>
<text text-anchor="middle" x="125" y="-131.5" font-family="Helvetica,sans-Serif" font-size="10.00">Component&lt; T &gt;</text>
</a>
</g>
</g>
<!-- Node3&#45;&gt;Node4 -->
<g id="edge4" class="edge"><title>Node3&#45;&gt;Node4</title>
<path fill="none" stroke="midnightblue" d="M90.4077,-173.828C99.182,-163.979 110.049,-151.782 117.236,-143.715"/>
<polygon fill="midnightblue" stroke="midnightblue" points="87.695,-171.611 83.6563,-181.406 92.9217,-176.268 87.695,-171.611"/>
</g>
<!-- Node4&#45;&gt;Node2 -->
<g id="edge3" class="edge"><title>Node4&#45;&gt;Node2</title>
<path fill="none" stroke="orange" stroke-dasharray="5,2" d="M110.649,-116.635C99.5015,-103.923 84.4842,-86.7978 75.5655,-76.6273"/>
<polygon fill="orange" stroke="orange" points="108.088,-119.023 117.313,-124.234 113.351,-114.408 108.088,-119.023"/>
<text text-anchor="middle" x="136.5" y="-98" font-family="Helvetica,sans-Serif" font-size="10.00"> &lt; PauseMenu &gt;</text>
</g>
</g>
</svg>
