<?xml version="1.0" encoding="UTF-8" standalone="no"?>
<!DOCTYPE svg PUBLIC "-//W3C//DTD SVG 1.1//EN"
 "http://www.w3.org/Graphics/SVG/1.1/DTD/svg11.dtd">
<!-- Generated by graphviz version 2.38.0 (20140413.2041)
 -->
<!-- Title: src/Shader.cpp Pages: 1 -->
<!--zoomable 252 -->
<svg id="main" version="1.1" xmlns="http://www.w3.org/2000/svg" xmlns:xlink="http://www.w3.org/1999/xlink" xml:space="preserve" onload="init(evt)">
<style type="text/css"><![CDATA[
.edge:hover path { stroke: red; }
.edge:hover polygon { stroke: red; fill: red; }
]]></style>
<script type="text/javascript"><![CDATA[
var edges = document.getElementsByTagName('g');
if (edges && edges.length) {
  for (var i=0;i<edges.length;i++) {
    if (edges[i].id.substr(0,4)=='edge') {
      edges[i].setAttribute('class','edge');
    }
  }
}
]]></script>
        <defs>
                <circle id="rim" cx="0" cy="0" r="7"/>
                <circle id="rim2" cx="0" cy="0" r="3.5"/>
                <g id="zoomPlus">
                        <use xlink:href="#rim" fill="#404040">
                                <set attributeName="fill" to="#808080" begin="zoomplus.mouseover" end="zoomplus.mouseout"/>
                        </use>
                        <path d="M-4,0h8M0,-4v8" fill="none" stroke="white" stroke-width="1.5" pointer-events="none"/>
                </g>
                <g id="zoomMin">
                        <use xlink:href="#rim" fill="#404040">
                                <set attributeName="fill" to="#808080" begin="zoomminus.mouseover" end="zoomminus.mouseout"/>
                        </use>
                        <path d="M-4,0h8" fill="none" stroke="white" stroke-width="1.5" pointer-events="none"/>
                </g>
                <g id="dirArrow">
                        <path fill="none" stroke="white" stroke-width="1.5" d="M0,-3.0v7 M-2.5,-0.5L0,-3.0L2.5,-0.5"/>
                </g>
               <g id="resetDef">
                       <use xlink:href="#rim2" fill="#404040">
                               <set attributeName="fill" to="#808080" begin="reset.mouseover" end="reset.mouseout"/>
                       </use>
               </g>
        </defs>

<script type="text/javascript">
var viewWidth = 768;
var viewHeight = 252;
var sectionId = 'dynsection-0';
</script>
<script xlink:href="../../svgpan.js"/>
<svg id="graph" class="graph">
<g id="viewport">
<title>src/Shader.cpp</title>
<polygon fill="white" stroke="none" points="-4,4 -4,-248 764.055,-248 764.055,4 -4,4"/>
<!-- Node1 -->
<g id="node1" class="node"><title>Node1</title>
<g id="a_node1"><a xlink:title=" ">
<polygon fill="#bfbfbf" stroke="black" points="318.555,-224.5 318.555,-243.5 401.555,-243.5 401.555,-224.5 318.555,-224.5"/>
<text text-anchor="middle" x="360.055" y="-231.5" font-family="Helvetica,sans-Serif" font-size="10.00">src/Shader.cpp</text>
</a>
</g>
</g>
<!-- Node2 -->
<g id="node2" class="node"><title>Node2</title>
<g id="a_node2"><a xlink:href="../../d8/d34/_shader_8h.html" target="_top" xlink:title=" ">
<polygon fill="white" stroke="black" points="332.055,-168.5 332.055,-187.5 388.055,-187.5 388.055,-168.5 332.055,-168.5"/>
<text text-anchor="middle" x="360.055" y="-175.5" font-family="Helvetica,sans-Serif" font-size="10.00">Shader.h</text>
</a>
</g>
</g>
<!-- Node1&#45;&gt;Node2 -->
<g id="edge1" class="edge"><title>Node1&#45;&gt;Node2</title>
<path fill="none" stroke="midnightblue" d="M360.055,-224.083C360.055,-217.006 360.055,-206.861 360.055,-197.986"/>
<polygon fill="midnightblue" stroke="midnightblue" points="363.555,-197.751 360.055,-187.751 356.555,-197.751 363.555,-197.751"/>
</g>
<!-- Node3 -->
<g id="node3" class="node"><title>Node3</title>
<g id="a_node3"><a xlink:href="../../dc/d20/_component_8h.html" target="_top" xlink:title=" ">
<polygon fill="white" stroke="black" points="4.0549,-56.5 4.0549,-75.5 78.0549,-75.5 78.0549,-56.5 4.0549,-56.5"/>
<text text-anchor="middle" x="41.0549" y="-63.5" font-family="Helvetica,sans-Serif" font-size="10.00">Component.h</text>
</a>
</g>
</g>
<!-- Node2&#45;&gt;Node3 -->
<g id="edge2" class="edge"><title>Node2&#45;&gt;Node3</title>
<path fill="none" stroke="midnightblue" d="M331.877,-175.534C251.688,-171.075 26.6189,-156.47 5.0549,-132 -8.1141,-117.056 7.69906,-96.4929 22.324,-82.5251"/>
<polygon fill="midnightblue" stroke="midnightblue" points="25.0262,-84.8032 30.1351,-75.5214 20.3531,-79.5914 25.0262,-84.8032"/>
</g>
<!-- Node5 -->
<g id="node5" class="node"><title>Node5</title>
<g id="a_node5"><a xlink:href="../../d0/d4b/_debug_8h.html" target="_top" xlink:title=" ">
<polygon fill="white" stroke="black" points="14.5549,-112.5 14.5549,-131.5 67.5549,-131.5 67.5549,-112.5 14.5549,-112.5"/>
<text text-anchor="middle" x="41.0549" y="-119.5" font-family="Helvetica,sans-Serif" font-size="10.00">Debug.h</text>
</a>
</g>
</g>
<!-- Node2&#45;&gt;Node5 -->
<g id="edge4" class="edge"><title>Node2&#45;&gt;Node5</title>
<path fill="none" stroke="midnightblue" d="M331.677,-173.408C282.036,-166.931 176.05,-152.242 77.5591,-132.164"/>
<polygon fill="midnightblue" stroke="midnightblue" points="78.2481,-128.733 67.7472,-130.141 76.8341,-135.589 78.2481,-128.733"/>
</g>
<!-- Node6 -->
<g id="node6" class="node"><title>Node6</title>
<g id="a_node6"><a xlink:href="../../d5/d31/_lights_8h.html" target="_top" xlink:title=" ">
<polygon fill="white" stroke="black" points="162.555,-112.5 162.555,-131.5 213.555,-131.5 213.555,-112.5 162.555,-112.5"/>
<text text-anchor="middle" x="188.055" y="-119.5" font-family="Helvetica,sans-Serif" font-size="10.00">Lights.h</text>
</a>
</g>
</g>
<!-- Node2&#45;&gt;Node6 -->
<g id="edge5" class="edge"><title>Node2&#45;&gt;Node6</title>
<path fill="none" stroke="midnightblue" d="M332.801,-168.444C303.185,-159.145 255.763,-144.257 223.326,-134.073"/>
<polygon fill="midnightblue" stroke="midnightblue" points="224.366,-130.732 213.777,-131.075 222.269,-137.41 224.366,-130.732"/>
</g>
<!-- Node7 -->
<g id="node7" class="node"><title>Node7</title>
<g id="a_node7"><a xlink:title=" ">
<polygon fill="white" stroke="#bfbfbf" points="151.055,-56.5 151.055,-75.5 225.055,-75.5 225.055,-56.5 151.055,-56.5"/>
<text text-anchor="middle" x="188.055" y="-63.5" font-family="Helvetica,sans-Serif" font-size="10.00">glm/vec3.hpp</text>
</a>
</g>
</g>
<!-- Node2&#45;&gt;Node7 -->
<g id="edge17" class="edge"><title>Node2&#45;&gt;Node7</title>
<path fill="none" stroke="midnightblue" d="M335.811,-168.349C315.098,-160.415 284.947,-147.553 261.055,-132 239.418,-117.915 217.716,-97.6139 203.668,-83.4599"/>
<polygon fill="midnightblue" stroke="midnightblue" points="205.822,-80.6553 196.339,-75.93 200.806,-85.5375 205.822,-80.6553"/>
</g>
<!-- Node8 -->
<g id="node8" class="node"><title>Node8</title>
<g id="a_node8"><a xlink:href="../../d3/d09/_material_8h.html" target="_top" xlink:title=" ">
<polygon fill="white" stroke="black" points="85.5549,-112.5 85.5549,-131.5 144.555,-131.5 144.555,-112.5 85.5549,-112.5"/>
<text text-anchor="middle" x="115.055" y="-119.5" font-family="Helvetica,sans-Serif" font-size="10.00">Material.h</text>
</a>
</g>
</g>
<!-- Node2&#45;&gt;Node8 -->
<g id="edge7" class="edge"><title>Node2&#45;&gt;Node8</title>
<path fill="none" stroke="midnightblue" d="M331.894,-171.051C293.9,-162.987 223.859,-147.989 155.052,-132.426"/>
<polygon fill="midnightblue" stroke="midnightblue" points="155.44,-128.925 144.914,-130.127 153.892,-135.752 155.44,-128.925"/>
</g>
<!-- Node9 -->
<g id="node9" class="node"><title>Node9</title>
<g id="a_node9"><a xlink:href="../../d4/d4a/_settings_8h.html" target="_top" xlink:title=" ">
<polygon fill="white" stroke="black" points="270.555,-112.5 270.555,-131.5 331.555,-131.5 331.555,-112.5 270.555,-112.5"/>
<text text-anchor="middle" x="301.055" y="-119.5" font-family="Helvetica,sans-Serif" font-size="10.00">Settings.h</text>
</a>
</g>
</g>
<!-- Node2&#45;&gt;Node9 -->
<g id="edge10" class="edge"><title>Node2&#45;&gt;Node9</title>
<path fill="none" stroke="midnightblue" d="M350.576,-168.324C341.854,-160.341 328.711,-148.313 318.157,-138.653"/>
<polygon fill="midnightblue" stroke="midnightblue" points="320.447,-136.004 310.707,-131.834 315.72,-141.167 320.447,-136.004"/>
</g>
<!-- Node10 -->
<g id="node10" class="node"><title>Node10</title>
<g id="a_node10"><a xlink:href="../../d2/d06/_shaders_8h.html" target="_top" xlink:title=" ">
<polygon fill="white" stroke="black" points="388.555,-112.5 388.555,-131.5 449.555,-131.5 449.555,-112.5 388.555,-112.5"/>
<text text-anchor="middle" x="419.055" y="-119.5" font-family="Helvetica,sans-Serif" font-size="10.00">Shaders.h</text>
</a>
</g>
</g>
<!-- Node2&#45;&gt;Node10 -->
<g id="edge11" class="edge"><title>Node2&#45;&gt;Node10</title>
<path fill="none" stroke="midnightblue" d="M369.534,-168.324C378.256,-160.341 391.398,-148.313 401.953,-138.653"/>
<polygon fill="midnightblue" stroke="midnightblue" points="404.389,-141.167 409.403,-131.834 399.663,-136.004 404.389,-141.167"/>
</g>
<!-- Node11 -->
<g id="node11" class="node"><title>Node11</title>
<g id="a_node11"><a xlink:title=" ">
<polygon fill="white" stroke="#bfbfbf" points="342.055,-56.5 342.055,-75.5 402.055,-75.5 402.055,-56.5 342.055,-56.5"/>
<text text-anchor="middle" x="372.055" y="-63.5" font-family="Helvetica,sans-Serif" font-size="10.00">GL/glew.h</text>
</a>
</g>
</g>
<!-- Node2&#45;&gt;Node11 -->
<g id="edge14" class="edge"><title>Node2&#45;&gt;Node11</title>
<path fill="none" stroke="midnightblue" d="M360.997,-168.368C362.933,-150.617 367.4,-109.666 370.026,-85.5974"/>
<polygon fill="midnightblue" stroke="midnightblue" points="373.512,-85.912 371.118,-75.5914 366.554,-85.1528 373.512,-85.912"/>
</g>
<!-- Node12 -->
<g id="node12" class="node"><title>Node12</title>
<g id="a_node12"><a xlink:title=" ">
<polygon fill="white" stroke="#bfbfbf" points="444.555,-56.5 444.555,-75.5 485.555,-75.5 485.555,-56.5 444.555,-56.5"/>
<text text-anchor="middle" x="465.055" y="-63.5" font-family="Helvetica,sans-Serif" font-size="10.00">string</text>
</a>
</g>
</g>
<!-- Node2&#45;&gt;Node12 -->
<g id="edge19" class="edge"><title>Node2&#45;&gt;Node12</title>
<path fill="none" stroke="midnightblue" d="M388.109,-171.967C410.825,-166.326 441.651,-154.794 458.055,-132 467.681,-118.625 468.64,-99.5138 467.666,-85.4751"/>
<polygon fill="midnightblue" stroke="midnightblue" points="471.144,-85.081 466.6,-75.5102 464.184,-85.8258 471.144,-85.081"/>
</g>
<!-- Node13 -->
<g id="node13" class="node"><title>Node13</title>
<g id="a_node13"><a xlink:title=" ">
<polygon fill="white" stroke="#bfbfbf" points="506.055,-112.5 506.055,-131.5 562.055,-131.5 562.055,-112.5 506.055,-112.5"/>
<text text-anchor="middle" x="534.055" y="-119.5" font-family="Helvetica,sans-Serif" font-size="10.00">algorithm</text>
</a>
</g>
</g>
<!-- Node2&#45;&gt;Node13 -->
<g id="edge15" class="edge"><title>Node2&#45;&gt;Node13</title>
<path fill="none" stroke="midnightblue" d="M387.626,-168.444C417.152,-159.28 464.173,-144.688 496.938,-134.519"/>
<polygon fill="midnightblue" stroke="midnightblue" points="498.1,-137.823 506.613,-131.516 496.025,-131.138 498.1,-137.823"/>
</g>
<!-- Node14 -->
<g id="node14" class="node"><title>Node14</title>
<g id="a_node14"><a xlink:title=" ">
<polygon fill="white" stroke="#bfbfbf" points="580.555,-112.5 580.555,-131.5 629.555,-131.5 629.555,-112.5 580.555,-112.5"/>
<text text-anchor="middle" x="605.055" y="-119.5" font-family="Helvetica,sans-Serif" font-size="10.00">fstream</text>
</a>
</g>
</g>
<!-- Node2&#45;&gt;Node14 -->
<g id="edge16" class="edge"><title>Node2&#45;&gt;Node14</title>
<path fill="none" stroke="midnightblue" d="M388.14,-171.463C426.846,-163.734 498.983,-148.979 570.173,-132.119"/>
<polygon fill="midnightblue" stroke="midnightblue" points="571.292,-135.45 580.208,-129.726 569.669,-128.641 571.292,-135.45"/>
</g>
<!-- Node15 -->
<g id="node15" class="node"><title>Node15</title>
<g id="a_node15"><a xlink:title=" ">
<polygon fill="white" stroke="#bfbfbf" points="648.055,-112.5 648.055,-131.5 700.055,-131.5 700.055,-112.5 648.055,-112.5"/>
<text text-anchor="middle" x="674.055" y="-119.5" font-family="Helvetica,sans-Serif" font-size="10.00">sstream</text>
</a>
</g>
</g>
<!-- Node2&#45;&gt;Node15 -->
<g id="edge18" class="edge"><title>Node2&#45;&gt;Node15</title>
<path fill="none" stroke="midnightblue" d="M388.329,-173.314C437.215,-166.754 540.858,-152.021 637.782,-132.112"/>
<polygon fill="midnightblue" stroke="midnightblue" points="638.663,-135.503 647.742,-130.042 637.239,-128.65 638.663,-135.503"/>
</g>
<!-- Node16 -->
<g id="node16" class="node"><title>Node16</title>
<g id="a_node16"><a xlink:title=" ">
<polygon fill="white" stroke="#bfbfbf" points="718.055,-112.5 718.055,-131.5 760.055,-131.5 760.055,-112.5 718.055,-112.5"/>
<text text-anchor="middle" x="739.055" y="-119.5" font-family="Helvetica,sans-Serif" font-size="10.00">vector</text>
</a>
</g>
</g>
<!-- Node2&#45;&gt;Node16 -->
<g id="edge20" class="edge"><title>Node2&#45;&gt;Node16</title>
<path fill="none" stroke="midnightblue" d="M388.366,-174.926C446.552,-170.328 583.85,-157.757 707.82,-131.951"/>
<polygon fill="midnightblue" stroke="midnightblue" points="708.802,-135.321 717.861,-129.825 707.353,-128.472 708.802,-135.321"/>
</g>
<!-- Node4 -->
<g id="node4" class="node"><title>Node4</title>
<g id="a_node4"><a xlink:title=" ">
<polygon fill="white" stroke="#bfbfbf" points="16.5549,-0.5 16.5549,-19.5 65.5549,-19.5 65.5549,-0.5 16.5549,-0.5"/>
<text text-anchor="middle" x="41.0549" y="-7.5" font-family="Helvetica,sans-Serif" font-size="10.00">stdint.h</text>
</a>
</g>
</g>
<!-- Node3&#45;&gt;Node4 -->
<g id="edge3" class="edge"><title>Node3&#45;&gt;Node4</title>
<path fill="none" stroke="midnightblue" d="M41.0549,-56.083C41.0549,-49.0059 41.0549,-38.8611 41.0549,-29.9865"/>
<polygon fill="midnightblue" stroke="midnightblue" points="44.555,-29.751 41.0549,-19.7511 37.555,-29.7511 44.555,-29.751"/>
</g>
<!-- Node6&#45;&gt;Node7 -->
<g id="edge6" class="edge"><title>Node6&#45;&gt;Node7</title>
<path fill="none" stroke="midnightblue" d="M188.055,-112.083C188.055,-105.006 188.055,-94.8611 188.055,-85.9865"/>
<polygon fill="midnightblue" stroke="midnightblue" points="191.555,-85.751 188.055,-75.7511 184.555,-85.7511 191.555,-85.751"/>
</g>
<!-- Node8&#45;&gt;Node3 -->
<g id="edge8" class="edge"><title>Node8&#45;&gt;Node3</title>
<path fill="none" stroke="midnightblue" d="M103.166,-112.324C91.9047,-104.107 74.7683,-91.6017 61.3458,-81.8069"/>
<polygon fill="midnightblue" stroke="midnightblue" points="63.3017,-78.9014 53.1606,-75.8339 59.1754,-84.5559 63.3017,-78.9014"/>
</g>
<!-- Node8&#45;&gt;Node7 -->
<g id="edge9" class="edge"><title>Node8&#45;&gt;Node7</title>
<path fill="none" stroke="midnightblue" d="M126.784,-112.324C137.892,-104.107 154.797,-91.6017 168.038,-81.8069"/>
<polygon fill="midnightblue" stroke="midnightblue" points="170.155,-84.5948 176.113,-75.8339 165.992,-78.9671 170.155,-84.5948"/>
</g>
<!-- Node10&#45;&gt;Node11 -->
<g id="edge12" class="edge"><title>Node10&#45;&gt;Node11</title>
<path fill="none" stroke="midnightblue" d="M411.294,-112.083C404.518,-104.298 394.512,-92.8015 386.3,-83.3665"/>
<polygon fill="midnightblue" stroke="midnightblue" points="388.877,-80.9963 379.672,-75.7511 383.597,-85.592 388.877,-80.9963"/>
</g>
<!-- Node10&#45;&gt;Node12 -->
<g id="edge13" class="edge"><title>Node10&#45;&gt;Node12</title>
<path fill="none" stroke="midnightblue" d="M426.651,-112.083C433.282,-104.298 443.076,-92.8015 451.113,-83.3665"/>
<polygon fill="midnightblue" stroke="midnightblue" points="453.78,-85.6332 457.6,-75.7511 448.451,-81.0939 453.78,-85.6332"/>
</g>
</g>
</svg>
        <g id="navigator" transform="translate(0 0)" fill="#404254">
                <rect fill="#f2f5e9" fill-opacity="0.5" stroke="#606060" stroke-width=".5" x="0" y="0" width="60" height="60"/>
                <use id="zoomplus" xlink:href="#zoomPlus" x="17" y="9" onmousedown="handleZoom(evt,'in')"/>
                <use id="zoomminus" xlink:href="#zoomMin" x="42" y="9" onmousedown="handleZoom(evt,'out')"/>
                <use id="reset" xlink:href="#resetDef" x="30" y="36" onmousedown="handleReset()"/>
                <g id="arrowUp" xlink:href="#dirArrow" transform="translate(30 24)" onmousedown="handlePan(0,-1)">
                  <use xlink:href="#rim" fill="#404040">
                        <set attributeName="fill" to="#808080" begin="arrowUp.mouseover" end="arrowUp.mouseout"/>
                  </use>
                  <path fill="none" stroke="white" stroke-width="1.5" d="M0,-3.0v7 M-2.5,-0.5L0,-3.0L2.5,-0.5"/>
                </g>
                <g id="arrowRight" xlink:href="#dirArrow" transform="rotate(90) translate(36 -43)" onmousedown="handlePan(1,0)">
                  <use xlink:href="#rim" fill="#404040">
                        <set attributeName="fill" to="#808080" begin="arrowRight.mouseover" end="arrowRight.mouseout"/>
                  </use>
                  <path fill="none" stroke="white" stroke-width="1.5" d="M0,-3.0v7 M-2.5,-0.5L0,-3.0L2.5,-0.5"/>
                </g>
                <g id="arrowDown" xlink:href="#dirArrow" transform="rotate(180) translate(-30 -48)" onmousedown="handlePan(0,1)">
                  <use xlink:href="#rim" fill="#404040">
                        <set attributeName="fill" to="#808080" begin="arrowDown.mouseover" end="arrowDown.mouseout"/>
                  </use>
                  <path fill="none" stroke="white" stroke-width="1.5" d="M0,-3.0v7 M-2.5,-0.5L0,-3.0L2.5,-0.5"/>
                </g>
                <g id="arrowLeft" xlink:href="#dirArrow" transform="rotate(270) translate(-36 17)" onmousedown="handlePan(-1,0)">
                  <use xlink:href="#rim" fill="#404040">
                        <set attributeName="fill" to="#808080" begin="arrowLeft.mouseover" end="arrowLeft.mouseout"/>
                  </use>
                  <path fill="none" stroke="white" stroke-width="1.5" d="M0,-3.0v7 M-2.5,-0.5L0,-3.0L2.5,-0.5"/>
                </g>
        </g>
        <svg viewBox="0 0 15 15" width="100%" height="30px" preserveAspectRatio="xMaxYMin meet">
         <g id="arrow_out" transform="scale(0.3 0.3)">
          <a xlink:href="_shader_8cpp__incl_org.svg" target="_base">
           <rect id="button" ry="5" rx="5" y="6" x="6" height="38" width="38"
                fill="#f2f5e9" fill-opacity="0.5" stroke="#606060" stroke-width="1.0"/>
           <path id="arrow"
             d="M 11.500037,31.436501 C 11.940474,20.09759 22.043105,11.32322 32.158766,21.979434 L 37.068811,17.246167 C 37.068811,17.246167 37.088388,32 37.088388,32 L 22.160133,31.978069 C 22.160133,31.978069 26.997745,27.140456 26.997745,27.140456 C 18.528582,18.264221 13.291696,25.230495 11.500037,31.436501 z"
             style="fill:#404040;"/>
          </a>
         </g>
        </svg>
</svg>
