<?xml version="1.0" encoding="UTF-8" standalone="no"?>
<!DOCTYPE svg PUBLIC "-//W3C//DTD SVG 1.1//EN"
 "http://www.w3.org/Graphics/SVG/1.1/DTD/svg11.dtd">
<!-- Generated by graphviz version 2.38.0 (20140413.2041)
 -->
<!-- Title: src/GuiSprite.h Pages: 1 -->
<!--zoomable 588 -->
<svg id="main" version="1.1" xmlns="http://www.w3.org/2000/svg" xmlns:xlink="http://www.w3.org/1999/xlink" xml:space="preserve" onload="init(evt)">
<style type="text/css"><![CDATA[
.edge:hover path { stroke: red; }
.edge:hover polygon { stroke: red; fill: red; }
]]></style>
<script type="text/javascript"><![CDATA[
var edges = document.getElementsByTagName('g');
if (edges && edges.length) {
  for (var i=0;i<edges.length;i++) {
    if (edges[i].id.substr(0,4)=='edge') {
      edges[i].setAttribute('class','edge');
    }
  }
}
]]></script>
        <defs>
                <circle id="rim" cx="0" cy="0" r="7"/>
                <circle id="rim2" cx="0" cy="0" r="3.5"/>
                <g id="zoomPlus">
                        <use xlink:href="#rim" fill="#404040">
                                <set attributeName="fill" to="#808080" begin="zoomplus.mouseover" end="zoomplus.mouseout"/>
                        </use>
                        <path d="M-4,0h8M0,-4v8" fill="none" stroke="white" stroke-width="1.5" pointer-events="none"/>
                </g>
                <g id="zoomMin">
                        <use xlink:href="#rim" fill="#404040">
                                <set attributeName="fill" to="#808080" begin="zoomminus.mouseover" end="zoomminus.mouseout"/>
                        </use>
                        <path d="M-4,0h8" fill="none" stroke="white" stroke-width="1.5" pointer-events="none"/>
                </g>
                <g id="dirArrow">
                        <path fill="none" stroke="white" stroke-width="1.5" d="M0,-3.0v7 M-2.5,-0.5L0,-3.0L2.5,-0.5"/>
                </g>
               <g id="resetDef">
                       <use xlink:href="#rim2" fill="#404040">
                               <set attributeName="fill" to="#808080" begin="reset.mouseover" end="reset.mouseout"/>
                       </use>
               </g>
        </defs>

<script type="text/javascript">
var viewWidth = 532;
var viewHeight = 588;
var sectionId = 'dynsection-1';
</script>
<script xlink:href="../../svgpan.js"/>
<svg id="graph" class="graph">
<g id="viewport">
<title>src/GuiSprite.h</title>
<polygon fill="white" stroke="none" points="-4,4 -4,-584 527.5,-584 527.5,4 -4,4"/>
<!-- Node1 -->
<g id="node1" class="node"><title>Node1</title>
<g id="a_node1"><a xlink:title=" ">
<polygon fill="#bfbfbf" stroke="black" points="221,-560.5 221,-579.5 303,-579.5 303,-560.5 221,-560.5"/>
<text text-anchor="middle" x="262" y="-567.5" font-family="Helvetica,sans-Serif" font-size="10.00">src/GuiSprite.h</text>
</a>
</g>
</g>
<!-- Node2 -->
<g id="node2" class="node"><title>Node2</title>
<g id="a_node2"><a xlink:href="../../da/d03/_entity_tests_8h.html" target="_top" xlink:title=" ">
<polygon fill="white" stroke="black" points="82.5,-392.5 82.5,-411.5 173.5,-411.5 173.5,-392.5 82.5,-392.5"/>
<text text-anchor="middle" x="128" y="-399.5" font-family="Helvetica,sans-Serif" font-size="10.00">src/EntityTests.h</text>
</a>
</g>
</g>
<!-- Node1&#45;&gt;Node2 -->
<g id="edge1" class="edge"><title>Node1&#45;&gt;Node2</title>
<path fill="none" stroke="midnightblue" d="M242.485,-554.159C232.228,-545.871 219.789,-535.016 210,-524 175.949,-485.683 144.58,-432.498 132.861,-411.766"/>
<polygon fill="midnightblue" stroke="midnightblue" points="240.462,-557.021 250.482,-560.464 244.797,-551.524 240.462,-557.021"/>
</g>
<!-- Node10 -->
<g id="node10" class="node"><title>Node10</title>
<g id="a_node10"><a xlink:href="../../d2/d74/_gui_button_8h.html" target="_top" xlink:title=" ">
<polygon fill="white" stroke="black" points="219.5,-504.5 219.5,-523.5 304.5,-523.5 304.5,-504.5 219.5,-504.5"/>
<text text-anchor="middle" x="262" y="-511.5" font-family="Helvetica,sans-Serif" font-size="10.00">src/GuiButton.h</text>
</a>
</g>
</g>
<!-- Node1&#45;&gt;Node10 -->
<g id="edge9" class="edge"><title>Node1&#45;&gt;Node10</title>
<path fill="none" stroke="midnightblue" d="M262,-549.805C262,-540.91 262,-530.78 262,-523.751"/>
<polygon fill="midnightblue" stroke="midnightblue" points="258.5,-550.083 262,-560.083 265.5,-550.083 258.5,-550.083"/>
</g>
<!-- Node17 -->
<g id="node17" class="node"><title>Node17</title>
<g id="a_node17"><a xlink:href="../../da/d66/_rendering_system_8h.html" target="_top" xlink:title=" ">
<polygon fill="white" stroke="black" points="359.5,-224.5 359.5,-243.5 478.5,-243.5 478.5,-224.5 359.5,-224.5"/>
<text text-anchor="middle" x="419" y="-231.5" font-family="Helvetica,sans-Serif" font-size="10.00">src/RenderingSystem.h</text>
</a>
</g>
</g>
<!-- Node1&#45;&gt;Node17 -->
<g id="edge27" class="edge"><title>Node1&#45;&gt;Node17</title>
<path fill="none" stroke="midnightblue" d="M313.028,-558.323C362.46,-544.639 430,-515.588 430,-459 430,-459 430,-459 430,-345 430,-306.999 423.42,-261.978 420.438,-243.529"/>
<polygon fill="midnightblue" stroke="midnightblue" points="311.877,-555.007 303.097,-560.936 313.659,-561.776 311.877,-555.007"/>
</g>
<!-- Node3 -->
<g id="node3" class="node"><title>Node3</title>
<g id="a_node3"><a xlink:href="../../d9/dcd/_game_8h.html" target="_top" xlink:title=" ">
<polygon fill="white" stroke="black" points="166,-168.5 166,-187.5 234,-187.5 234,-168.5 166,-168.5"/>
<text text-anchor="middle" x="200" y="-175.5" font-family="Helvetica,sans-Serif" font-size="10.00">src/Game.h</text>
</a>
</g>
</g>
<!-- Node2&#45;&gt;Node3 -->
<g id="edge2" class="edge"><title>Node2&#45;&gt;Node3</title>
<path fill="none" stroke="midnightblue" d="M151.533,-386.574C162.03,-378.853 173.478,-368.377 180,-356 210.564,-298 204.222,-214.677 201.139,-187.749"/>
<polygon fill="midnightblue" stroke="midnightblue" points="149.327,-383.843 143.069,-392.392 153.292,-389.612 149.327,-383.843"/>
</g>
<!-- Node9 -->
<g id="node9" class="node"><title>Node9</title>
<g id="a_node9"><a xlink:href="../../de/d4c/_entity_tests_8cpp.html" target="_top" xlink:title=" ">
<polygon fill="white" stroke="black" points="70.5,-336.5 70.5,-355.5 171.5,-355.5 171.5,-336.5 70.5,-336.5"/>
<text text-anchor="middle" x="121" y="-343.5" font-family="Helvetica,sans-Serif" font-size="10.00">src/EntityTests.cpp</text>
</a>
</g>
</g>
<!-- Node2&#45;&gt;Node9 -->
<g id="edge8" class="edge"><title>Node2&#45;&gt;Node9</title>
<path fill="none" stroke="midnightblue" d="M125.55,-382.101C124.388,-373.136 123.056,-362.858 122.134,-355.751"/>
<polygon fill="midnightblue" stroke="midnightblue" points="122.088,-382.616 126.844,-392.083 129.029,-381.716 122.088,-382.616"/>
</g>
<!-- Node4 -->
<g id="node4" class="node"><title>Node4</title>
<g id="a_node4"><a xlink:href="../../d9/da3/_application_8h.html" target="_top" xlink:title=" ">
<polygon fill="white" stroke="black" points="104.5,-112.5 104.5,-131.5 193.5,-131.5 193.5,-112.5 104.5,-112.5"/>
<text text-anchor="middle" x="149" y="-119.5" font-family="Helvetica,sans-Serif" font-size="10.00">src/Application.h</text>
</a>
</g>
</g>
<!-- Node3&#45;&gt;Node4 -->
<g id="edge3" class="edge"><title>Node3&#45;&gt;Node4</title>
<path fill="none" stroke="midnightblue" d="M184.622,-160.718C175.633,-151.2 164.641,-139.561 157.265,-131.751"/>
<polygon fill="midnightblue" stroke="midnightblue" points="182.168,-163.216 191.578,-168.083 187.257,-158.41 182.168,-163.216"/>
</g>
<!-- Node8 -->
<g id="node8" class="node"><title>Node8</title>
<g id="a_node8"><a xlink:href="../../d7/db5/_game_8cpp.html" target="_top" xlink:title=" ">
<polygon fill="white" stroke="black" points="212,-112.5 212,-131.5 290,-131.5 290,-112.5 212,-112.5"/>
<text text-anchor="middle" x="251" y="-119.5" font-family="Helvetica,sans-Serif" font-size="10.00">src/Game.cpp</text>
</a>
</g>
</g>
<!-- Node3&#45;&gt;Node8 -->
<g id="edge7" class="edge"><title>Node3&#45;&gt;Node8</title>
<path fill="none" stroke="midnightblue" d="M215.378,-160.718C224.367,-151.2 235.359,-139.561 242.735,-131.751"/>
<polygon fill="midnightblue" stroke="midnightblue" points="212.743,-158.41 208.422,-168.083 217.832,-163.216 212.743,-158.41"/>
</g>
<!-- Node5 -->
<g id="node5" class="node"><title>Node5</title>
<g id="a_node5"><a xlink:href="../../d0/d42/_application_8cpp.html" target="_top" xlink:title=" ">
<polygon fill="white" stroke="black" points="50,-56.5 50,-75.5 150,-75.5 150,-56.5 50,-56.5"/>
<text text-anchor="middle" x="100" y="-63.5" font-family="Helvetica,sans-Serif" font-size="10.00">src/Application.cpp</text>
</a>
</g>
</g>
<!-- Node4&#45;&gt;Node5 -->
<g id="edge4" class="edge"><title>Node4&#45;&gt;Node5</title>
<path fill="none" stroke="midnightblue" d="M133.966,-104.431C125.378,-94.9673 114.957,-83.4827 107.941,-75.7511"/>
<polygon fill="midnightblue" stroke="midnightblue" points="131.597,-107.029 140.909,-112.083 136.781,-102.325 131.597,-107.029"/>
</g>
<!-- Node6 -->
<g id="node6" class="node"><title>Node6</title>
<g id="a_node6"><a xlink:href="../../d4/dbf/main_8h.html" target="_top" xlink:title=" ">
<polygon fill="white" stroke="black" points="168,-56.5 168,-75.5 230,-75.5 230,-56.5 168,-56.5"/>
<text text-anchor="middle" x="199" y="-63.5" font-family="Helvetica,sans-Serif" font-size="10.00">src/main.h</text>
</a>
</g>
</g>
<!-- Node4&#45;&gt;Node6 -->
<g id="edge5" class="edge"><title>Node4&#45;&gt;Node6</title>
<path fill="none" stroke="midnightblue" d="M164.076,-104.718C172.889,-95.1997 183.666,-83.5608 190.897,-75.7511"/>
<polygon fill="midnightblue" stroke="midnightblue" points="161.482,-102.367 157.256,-112.083 166.619,-107.123 161.482,-102.367"/>
</g>
<!-- Node7 -->
<g id="node7" class="node"><title>Node7</title>
<g id="a_node7"><a xlink:href="../../d5/d12/_main_8cpp.html" target="_top" xlink:title=" ">
<polygon fill="white" stroke="black" points="162.5,-0.5 162.5,-19.5 235.5,-19.5 235.5,-0.5 162.5,-0.5"/>
<text text-anchor="middle" x="199" y="-7.5" font-family="Helvetica,sans-Serif" font-size="10.00">src/Main.cpp</text>
</a>
</g>
</g>
<!-- Node6&#45;&gt;Node7 -->
<g id="edge6" class="edge"><title>Node6&#45;&gt;Node7</title>
<path fill="none" stroke="midnightblue" d="M199,-45.8045C199,-36.9102 199,-26.7798 199,-19.7511"/>
<polygon fill="midnightblue" stroke="midnightblue" points="195.5,-46.083 199,-56.083 202.5,-46.083 195.5,-46.083"/>
</g>
<!-- Node11 -->
<g id="node11" class="node"><title>Node11</title>
<g id="a_node11"><a xlink:href="../../db/d30/_pause_menu_8h.html" target="_top" xlink:title=" ">
<polygon fill="white" stroke="black" points="215.5,-448.5 215.5,-467.5 308.5,-467.5 308.5,-448.5 215.5,-448.5"/>
<text text-anchor="middle" x="262" y="-455.5" font-family="Helvetica,sans-Serif" font-size="10.00">src/PauseMenu.h</text>
</a>
</g>
</g>
<!-- Node10&#45;&gt;Node11 -->
<g id="edge10" class="edge"><title>Node10&#45;&gt;Node11</title>
<path fill="none" stroke="midnightblue" d="M262,-493.805C262,-484.91 262,-474.78 262,-467.751"/>
<polygon fill="midnightblue" stroke="midnightblue" points="258.5,-494.083 262,-504.083 265.5,-494.083 258.5,-494.083"/>
</g>
<!-- Node15 -->
<g id="node15" class="node"><title>Node15</title>
<g id="a_node15"><a xlink:href="../../db/d81/_fixed_updating_system_8h.html" target="_top" xlink:title=" ">
<polygon fill="white" stroke="black" points="19.5,-224.5 19.5,-243.5 156.5,-243.5 156.5,-224.5 19.5,-224.5"/>
<text text-anchor="middle" x="88" y="-231.5" font-family="Helvetica,sans-Serif" font-size="10.00">src/FixedUpdatingSystem.h</text>
</a>
</g>
</g>
<!-- Node10&#45;&gt;Node15 -->
<g id="edge25" class="edge"><title>Node10&#45;&gt;Node15</title>
<path fill="none" stroke="midnightblue" d="M209.214,-509.299C144.125,-501.533 42,-477.482 42,-403 42,-403 42,-403 42,-345 42,-304.428 68.9644,-261.502 81.6039,-243.609"/>
<polygon fill="midnightblue" stroke="midnightblue" points="208.998,-512.796 219.321,-510.41 209.764,-505.838 208.998,-512.796"/>
</g>
<!-- Node10&#45;&gt;Node17 -->
<g id="edge26" class="edge"><title>Node10&#45;&gt;Node17</title>
<path fill="none" stroke="midnightblue" d="M297.041,-500.75C335.544,-484.787 392,-452.877 392,-403 392,-403 392,-403 392,-345 392,-306.262 407.989,-262.004 415.359,-243.662"/>
<polygon fill="midnightblue" stroke="midnightblue" points="295.686,-497.522 287.684,-504.466 298.27,-504.028 295.686,-497.522"/>
</g>
<!-- Node11&#45;&gt;Node2 -->
<g id="edge11" class="edge"><title>Node11&#45;&gt;Node2</title>
<path fill="none" stroke="midnightblue" d="M231.323,-444.638C206.177,-434.504 171.246,-420.427 149.133,-411.516"/>
<polygon fill="midnightblue" stroke="midnightblue" points="230.184,-447.952 240.767,-448.444 232.8,-441.459 230.184,-447.952"/>
</g>
<!-- Node12 -->
<g id="node12" class="node"><title>Node12</title>
<g id="a_node12"><a xlink:href="../../d8/dd5/_pause_menu_system_8h.html" target="_top" xlink:title=" ">
<polygon fill="white" stroke="black" points="198.5,-392.5 198.5,-411.5 325.5,-411.5 325.5,-392.5 198.5,-392.5"/>
<text text-anchor="middle" x="262" y="-399.5" font-family="Helvetica,sans-Serif" font-size="10.00">src/PauseMenuSystem.h</text>
</a>
</g>
</g>
<!-- Node11&#45;&gt;Node12 -->
<g id="edge12" class="edge"><title>Node11&#45;&gt;Node12</title>
<path fill="none" stroke="midnightblue" d="M262,-437.805C262,-428.91 262,-418.78 262,-411.751"/>
<polygon fill="midnightblue" stroke="midnightblue" points="258.5,-438.083 262,-448.083 265.5,-438.083 258.5,-438.083"/>
</g>
<!-- Node19 -->
<g id="node19" class="node"><title>Node19</title>
<g id="a_node19"><a xlink:href="../../db/dc0/_updating_system_8h.html" target="_top" xlink:title=" ">
<polygon fill="white" stroke="black" points="228.5,-224.5 228.5,-243.5 341.5,-243.5 341.5,-224.5 228.5,-224.5"/>
<text text-anchor="middle" x="285" y="-231.5" font-family="Helvetica,sans-Serif" font-size="10.00">src/UpdatingSystem.h</text>
</a>
</g>
</g>
<!-- Node11&#45;&gt;Node19 -->
<g id="edge24" class="edge"><title>Node11&#45;&gt;Node19</title>
<path fill="none" stroke="midnightblue" d="M296.543,-444.171C310.752,-437 325.781,-426.522 334,-412 338.926,-403.297 339.056,-289.108 335,-280 327.873,-263.998 311.932,-251.298 299.952,-243.526"/>
<polygon fill="midnightblue" stroke="midnightblue" points="294.999,-441.029 287.403,-448.415 297.947,-447.378 294.999,-441.029"/>
</g>
<!-- Node13 -->
<g id="node13" class="node"><title>Node13</title>
<g id="a_node13"><a xlink:href="../../d8/dc4/_sub_systems_8h.html" target="_top" xlink:title=" ">
<polygon fill="white" stroke="black" points="228,-336.5 228,-355.5 326,-355.5 326,-336.5 228,-336.5"/>
<text text-anchor="middle" x="277" y="-343.5" font-family="Helvetica,sans-Serif" font-size="10.00">src/SubSystems.h</text>
</a>
</g>
</g>
<!-- Node12&#45;&gt;Node13 -->
<g id="edge13" class="edge"><title>Node12&#45;&gt;Node13</title>
<path fill="none" stroke="midnightblue" d="M267.168,-382.396C269.677,-373.362 272.573,-362.936 274.569,-355.751"/>
<polygon fill="midnightblue" stroke="midnightblue" points="263.781,-381.511 264.477,-392.083 270.526,-383.385 263.781,-381.511"/>
</g>
<!-- Node14 -->
<g id="node14" class="node"><title>Node14</title>
<g id="a_node14"><a xlink:href="../../dc/d18/_system_base_8h.html" target="_top" xlink:title=" ">
<polygon fill="white" stroke="black" points="228,-280.5 228,-299.5 326,-299.5 326,-280.5 228,-280.5"/>
<text text-anchor="middle" x="277" y="-287.5" font-family="Helvetica,sans-Serif" font-size="10.00">src/SystemBase.h</text>
</a>
</g>
</g>
<!-- Node13&#45;&gt;Node14 -->
<g id="edge14" class="edge"><title>Node13&#45;&gt;Node14</title>
<path fill="none" stroke="midnightblue" d="M277,-325.805C277,-316.91 277,-306.78 277,-299.751"/>
<polygon fill="midnightblue" stroke="midnightblue" points="273.5,-326.083 277,-336.083 280.5,-326.083 273.5,-326.083"/>
</g>
<!-- Node14&#45;&gt;Node15 -->
<g id="edge15" class="edge"><title>Node14&#45;&gt;Node15</title>
<path fill="none" stroke="midnightblue" d="M236.987,-277.568C201.333,-267.381 149.962,-252.703 117.808,-243.516"/>
<polygon fill="midnightblue" stroke="midnightblue" points="236.476,-281.062 247.052,-280.444 238.399,-274.331 236.476,-281.062"/>
</g>
<!-- Node14&#45;&gt;Node17 -->
<g id="edge18" class="edge"><title>Node14&#45;&gt;Node17</title>
<path fill="none" stroke="midnightblue" d="M309.155,-276.772C335.828,-266.629 373.069,-252.467 396.605,-243.516"/>
<polygon fill="midnightblue" stroke="midnightblue" points="307.603,-273.618 299.5,-280.444 310.091,-280.16 307.603,-273.618"/>
</g>
<!-- Node14&#45;&gt;Node19 -->
<g id="edge21" class="edge"><title>Node14&#45;&gt;Node19</title>
<path fill="none" stroke="midnightblue" d="M279.8,-270.101C281.128,-261.136 282.651,-250.858 283.704,-243.751"/>
<polygon fill="midnightblue" stroke="midnightblue" points="276.324,-269.678 278.321,-280.083 283.249,-270.704 276.324,-269.678"/>
</g>
<!-- Node15&#45;&gt;Node3 -->
<g id="edge16" class="edge"><title>Node15&#45;&gt;Node3</title>
<path fill="none" stroke="midnightblue" d="M115.249,-219.862C136.016,-209.849 164.023,-196.346 182.05,-187.655"/>
<polygon fill="midnightblue" stroke="midnightblue" points="113.482,-216.828 105.995,-224.324 116.523,-223.134 113.482,-216.828"/>
</g>
<!-- Node16 -->
<g id="node16" class="node"><title>Node16</title>
<g id="a_node16"><a xlink:href="../../d0/d56/_fixed_updating_system_8cpp.html" target="_top" xlink:title=" ">
<polygon fill="white" stroke="black" points="0,-168.5 0,-187.5 148,-187.5 148,-168.5 0,-168.5"/>
<text text-anchor="middle" x="74" y="-175.5" font-family="Helvetica,sans-Serif" font-size="10.00">src/FixedUpdatingSystem.cpp</text>
</a>
</g>
</g>
<!-- Node15&#45;&gt;Node16 -->
<g id="edge17" class="edge"><title>Node15&#45;&gt;Node16</title>
<path fill="none" stroke="midnightblue" d="M83.1766,-214.396C80.8346,-205.362 78.1316,-194.936 76.2688,-187.751"/>
<polygon fill="midnightblue" stroke="midnightblue" points="79.7905,-215.281 85.6882,-224.083 86.5665,-213.525 79.7905,-215.281"/>
</g>
<!-- Node17&#45;&gt;Node3 -->
<g id="edge19" class="edge"><title>Node17&#45;&gt;Node3</title>
<path fill="none" stroke="midnightblue" d="M374.455,-222.016C332.955,-211.783 271.961,-196.744 234.178,-187.428"/>
<polygon fill="midnightblue" stroke="midnightblue" points="373.752,-225.448 384.299,-224.444 375.428,-218.651 373.752,-225.448"/>
</g>
<!-- Node18 -->
<g id="node18" class="node"><title>Node18</title>
<g id="a_node18"><a xlink:href="../../d2/db8/_rendering_system_8cpp.html" target="_top" xlink:title=" ">
<polygon fill="white" stroke="black" points="394.5,-168.5 394.5,-187.5 523.5,-187.5 523.5,-168.5 394.5,-168.5"/>
<text text-anchor="middle" x="459" y="-175.5" font-family="Helvetica,sans-Serif" font-size="10.00">src/RenderingSystem.cpp</text>
</a>
</g>
</g>
<!-- Node17&#45;&gt;Node18 -->
<g id="edge20" class="edge"><title>Node17&#45;&gt;Node18</title>
<path fill="none" stroke="midnightblue" d="M431.7,-215.855C438.626,-206.505 446.906,-195.327 452.518,-187.751"/>
<polygon fill="midnightblue" stroke="midnightblue" points="428.745,-213.964 425.605,-224.083 434.37,-218.131 428.745,-213.964"/>
</g>
<!-- Node19&#45;&gt;Node3 -->
<g id="edge22" class="edge"><title>Node19&#45;&gt;Node3</title>
<path fill="none" stroke="midnightblue" d="M262.806,-218.901C247.22,-208.999 226.87,-196.071 213.623,-187.655"/>
<polygon fill="midnightblue" stroke="midnightblue" points="261.026,-221.916 271.343,-224.324 264.779,-216.007 261.026,-221.916"/>
</g>
<!-- Node20 -->
<g id="node20" class="node"><title>Node20</title>
<g id="a_node20"><a xlink:href="../../d7/d1d/_updating_system_8cpp.html" target="_top" xlink:title=" ">
<polygon fill="white" stroke="black" points="252,-168.5 252,-187.5 376,-187.5 376,-168.5 252,-168.5"/>
<text text-anchor="middle" x="314" y="-175.5" font-family="Helvetica,sans-Serif" font-size="10.00">src/UpdatingSystem.cpp</text>
</a>
</g>
</g>
<!-- Node19&#45;&gt;Node20 -->
<g id="edge23" class="edge"><title>Node19&#45;&gt;Node20</title>
<path fill="none" stroke="midnightblue" d="M294.676,-214.983C299.598,-205.817 305.358,-195.092 309.3,-187.751"/>
<polygon fill="midnightblue" stroke="midnightblue" points="291.437,-213.617 289.789,-224.083 297.604,-216.929 291.437,-213.617"/>
</g>
</g>
</svg>
        <g id="navigator" transform="translate(0 0)" fill="#404254">
                <rect fill="#f2f5e9" fill-opacity="0.5" stroke="#606060" stroke-width=".5" x="0" y="0" width="60" height="60"/>
                <use id="zoomplus" xlink:href="#zoomPlus" x="17" y="9" onmousedown="handleZoom(evt,'in')"/>
                <use id="zoomminus" xlink:href="#zoomMin" x="42" y="9" onmousedown="handleZoom(evt,'out')"/>
                <use id="reset" xlink:href="#resetDef" x="30" y="36" onmousedown="handleReset()"/>
                <g id="arrowUp" xlink:href="#dirArrow" transform="translate(30 24)" onmousedown="handlePan(0,-1)">
                  <use xlink:href="#rim" fill="#404040">
                        <set attributeName="fill" to="#808080" begin="arrowUp.mouseover" end="arrowUp.mouseout"/>
                  </use>
                  <path fill="none" stroke="white" stroke-width="1.5" d="M0,-3.0v7 M-2.5,-0.5L0,-3.0L2.5,-0.5"/>
                </g>
                <g id="arrowRight" xlink:href="#dirArrow" transform="rotate(90) translate(36 -43)" onmousedown="handlePan(1,0)">
                  <use xlink:href="#rim" fill="#404040">
                        <set attributeName="fill" to="#808080" begin="arrowRight.mouseover" end="arrowRight.mouseout"/>
                  </use>
                  <path fill="none" stroke="white" stroke-width="1.5" d="M0,-3.0v7 M-2.5,-0.5L0,-3.0L2.5,-0.5"/>
                </g>
                <g id="arrowDown" xlink:href="#dirArrow" transform="rotate(180) translate(-30 -48)" onmousedown="handlePan(0,1)">
                  <use xlink:href="#rim" fill="#404040">
                        <set attributeName="fill" to="#808080" begin="arrowDown.mouseover" end="arrowDown.mouseout"/>
                  </use>
                  <path fill="none" stroke="white" stroke-width="1.5" d="M0,-3.0v7 M-2.5,-0.5L0,-3.0L2.5,-0.5"/>
                </g>
                <g id="arrowLeft" xlink:href="#dirArrow" transform="rotate(270) translate(-36 17)" onmousedown="handlePan(-1,0)">
                  <use xlink:href="#rim" fill="#404040">
                        <set attributeName="fill" to="#808080" begin="arrowLeft.mouseover" end="arrowLeft.mouseout"/>
                  </use>
                  <path fill="none" stroke="white" stroke-width="1.5" d="M0,-3.0v7 M-2.5,-0.5L0,-3.0L2.5,-0.5"/>
                </g>
        </g>
        <svg viewBox="0 0 15 15" width="100%" height="30px" preserveAspectRatio="xMaxYMin meet">
         <g id="arrow_out" transform="scale(0.3 0.3)">
          <a xlink:href="_gui_sprite_8h__dep__incl_org.svg" target="_base">
           <rect id="button" ry="5" rx="5" y="6" x="6" height="38" width="38"
                fill="#f2f5e9" fill-opacity="0.5" stroke="#606060" stroke-width="1.0"/>
           <path id="arrow"
             d="M 11.500037,31.436501 C 11.940474,20.09759 22.043105,11.32322 32.158766,21.979434 L 37.068811,17.246167 C 37.068811,17.246167 37.088388,32 37.088388,32 L 22.160133,31.978069 C 22.160133,31.978069 26.997745,27.140456 26.997745,27.140456 C 18.528582,18.264221 13.291696,25.230495 11.500037,31.436501 z"
             style="fill:#404040;"/>
          </a>
         </g>
        </svg>
</svg>
