<?xml version="1.0" encoding="UTF-8" standalone="no"?>
<!DOCTYPE svg PUBLIC "-//W3C//DTD SVG 1.1//EN"
 "http://www.w3.org/Graphics/SVG/1.1/DTD/svg11.dtd">
<!-- Generated by graphviz version 2.38.0 (20140413.2041)
 -->
<!-- Title: FountainParticleSystem::performParticleCalculations Pages: 1 -->
<svg width="306pt" height="104pt"
 viewBox="0.00 0.00 306.00 104.00" xmlns="http://www.w3.org/2000/svg" xmlns:xlink="http://www.w3.org/1999/xlink">
<g id="graph0" class="graph" transform="scale(1 1) rotate(0) translate(4 100)">
<title>FountainParticleSystem::performParticleCalculations</title>
<polygon fill="white" stroke="none" points="-4,4 -4,-100 302,-100 302,4 -4,4"/>
<!-- Node1 -->
<g id="node1" class="node"><title>Node1</title>
<g id="a_node1"><a xlink:title=" ">
<polygon fill="#bfbfbf" stroke="black" points="0,-33 0,-63 141,-63 141,-33 0,-33"/>
<text text-anchor="start" x="8" y="-51" font-family="Helvetica,sans-Serif" font-size="10.00">FountainParticleSystem</text>
<text text-anchor="middle" x="70.5" y="-40" font-family="Helvetica,sans-Serif" font-size="10.00">::performParticleCalculations</text>
</a>
</g>
</g>
<!-- Node2 -->
<g id="node2" class="node"><title>Node2</title>
<g id="a_node2"><a xlink:href="../../d4/d58/namespace_game_info.html#aa6186a79a90a3fcd2556c4282b20a077" target="_top" xlink:title=" ">
<polygon fill="white" stroke="black" points="177,-76.5 177,-95.5 298,-95.5 298,-76.5 177,-76.5"/>
<text text-anchor="middle" x="237.5" y="-83.5" font-family="Helvetica,sans-Serif" font-size="10.00">GameInfo::getDeltaTime</text>
</a>
</g>
</g>
<!-- Node1&#45;&gt;Node2 -->
<g id="edge1" class="edge"><title>Node1&#45;&gt;Node2</title>
<path fill="none" stroke="midnightblue" d="M136.712,-63.0186C152.821,-66.7285 169.85,-70.6504 185.192,-74.1836"/>
<polygon fill="midnightblue" stroke="midnightblue" points="184.473,-77.6096 195.003,-76.4432 186.044,-70.7881 184.473,-77.6096"/>
</g>
<!-- Node3 -->
<g id="node3" class="node"><title>Node3</title>
<g id="a_node3"><a xlink:href="../../db/d2b/class_settings.html#aeaee47228136bd4d848b5a30655a71da" target="_top" xlink:title=" ">
<polygon fill="white" stroke="black" points="186.5,-38.5 186.5,-57.5 288.5,-57.5 288.5,-38.5 186.5,-38.5"/>
<text text-anchor="middle" x="237.5" y="-45.5" font-family="Helvetica,sans-Serif" font-size="10.00">Settings::getGravity</text>
</a>
</g>
</g>
<!-- Node1&#45;&gt;Node3 -->
<g id="edge2" class="edge"><title>Node1&#45;&gt;Node3</title>
<path fill="none" stroke="midnightblue" d="M141.475,-48C153.041,-48 164.944,-48 176.245,-48"/>
<polygon fill="midnightblue" stroke="midnightblue" points="176.428,-51.5001 186.428,-48 176.428,-44.5001 176.428,-51.5001"/>
</g>
<!-- Node4 -->
<g id="node4" class="node"><title>Node4</title>
<g id="a_node4"><a xlink:href="../../db/d2b/class_settings.html#a126603102b24f583f19170d3e9540d83" target="_top" xlink:title=" ">
<polygon fill="white" stroke="black" points="190,-0.5 190,-19.5 285,-19.5 285,-0.5 190,-0.5"/>
<text text-anchor="middle" x="237.5" y="-7.5" font-family="Helvetica,sans-Serif" font-size="10.00">Settings::getWind</text>
</a>
</g>
</g>
<!-- Node1&#45;&gt;Node4 -->
<g id="edge3" class="edge"><title>Node1&#45;&gt;Node4</title>
<path fill="none" stroke="midnightblue" d="M136.712,-32.9814C152.821,-29.2715 169.85,-25.3496 185.192,-21.8164"/>
<polygon fill="midnightblue" stroke="midnightblue" points="186.044,-25.2119 195.003,-19.5568 184.473,-18.3904 186.044,-25.2119"/>
</g>
</g>
</svg>
