<?xml version="1.0" encoding="UTF-8" standalone="no"?>
<!DOCTYPE svg PUBLIC "-//W3C//DTD SVG 1.1//EN"
 "http://www.w3.org/Graphics/SVG/1.1/DTD/svg11.dtd">
<!-- Generated by graphviz version 2.38.0 (20140413.2041)
 -->
<!-- Title: Scene::isEntityActive Pages: 1 -->
<svg width="1082pt" height="88pt"
 viewBox="0.00 0.00 1082.00 88.00" xmlns="http://www.w3.org/2000/svg" xmlns:xlink="http://www.w3.org/1999/xlink">
<g id="graph0" class="graph" transform="scale(1 1) rotate(0) translate(4 84)">
<title>Scene::isEntityActive</title>
<polygon fill="white" stroke="none" points="-4,4 -4,-84 1078,-84 1078,4 -4,4"/>
<!-- Node1 -->
<g id="node1" class="node"><title>Node1</title>
<g id="a_node1"><a xlink:title=" ">
<polygon fill="#bfbfbf" stroke="black" points="964,-30 964,-49 1074,-49 1074,-30 964,-30"/>
<text text-anchor="middle" x="1019" y="-37" font-family="Helvetica,sans-Serif" font-size="10.00">Scene::isEntityActive</text>
</a>
</g>
</g>
<!-- Node2 -->
<g id="node2" class="node"><title>Node2</title>
<g id="a_node2"><a xlink:href="../../d3/de8/class_fixed_updating_system.html#a6f6bb1695e03ef174e661643c3a0de27" target="_top" xlink:title=" ">
<polygon fill="white" stroke="black" points="803.5,-49.5 803.5,-79.5 920.5,-79.5 920.5,-49.5 803.5,-49.5"/>
<text text-anchor="start" x="811.5" y="-67.5" font-family="Helvetica,sans-Serif" font-size="10.00">FixedUpdatingSystem</text>
<text text-anchor="middle" x="862" y="-56.5" font-family="Helvetica,sans-Serif" font-size="10.00">::handleCollisionTrigger</text>
</a>
</g>
</g>
<!-- Node1&#45;&gt;Node2 -->
<g id="edge1" class="edge"><title>Node1&#45;&gt;Node2</title>
<path fill="none" stroke="midnightblue" d="M953.81,-49.8532C942.804,-51.6285 931.427,-53.4633 920.606,-55.2087"/>
<polygon fill="midnightblue" stroke="midnightblue" points="954.473,-53.2915 963.789,-48.2438 953.359,-46.3809 954.473,-53.2915"/>
</g>
<!-- Node9 -->
<g id="node9" class="node"><title>Node9</title>
<g id="a_node9"><a xlink:href="../../d8/d31/class_rendering_system.html#a167a571527b6f44e8c4bf45f383500be" target="_top" xlink:title=" ">
<polygon fill="white" stroke="black" points="796,-0.5 796,-30.5 928,-30.5 928,-0.5 796,-0.5"/>
<text text-anchor="start" x="804" y="-18.5" font-family="Helvetica,sans-Serif" font-size="10.00">RenderingSystem::prepare</text>
<text text-anchor="middle" x="862" y="-7.5" font-family="Helvetica,sans-Serif" font-size="10.00">Shader</text>
</a>
</g>
</g>
<!-- Node1&#45;&gt;Node9 -->
<g id="edge8" class="edge"><title>Node1&#45;&gt;Node9</title>
<path fill="none" stroke="midnightblue" d="M953.634,-29.5336C945.198,-28.2275 936.55,-26.8883 928.102,-25.5804"/>
<polygon fill="midnightblue" stroke="midnightblue" points="953.371,-33.0345 963.789,-31.106 954.442,-26.1169 953.371,-33.0345"/>
</g>
<!-- Node3 -->
<g id="node3" class="node"><title>Node3</title>
<g id="a_node3"><a xlink:href="../../d3/de8/class_fixed_updating_system.html#a097a3f7a12a5e2e8de83bbb3e8d4e725" target="_top" xlink:title=" ">
<polygon fill="white" stroke="black" points="637,-49.5 637,-79.5 760,-79.5 760,-49.5 637,-49.5"/>
<text text-anchor="start" x="645" y="-67.5" font-family="Helvetica,sans-Serif" font-size="10.00">FixedUpdatingSystem</text>
<text text-anchor="middle" x="698.5" y="-56.5" font-family="Helvetica,sans-Serif" font-size="10.00">::updateCollisionTriggers</text>
</a>
</g>
</g>
<!-- Node2&#45;&gt;Node3 -->
<g id="edge2" class="edge"><title>Node2&#45;&gt;Node3</title>
<path fill="none" stroke="midnightblue" d="M792.876,-64.5C782.031,-64.5 770.875,-64.5 760.216,-64.5"/>
<polygon fill="midnightblue" stroke="midnightblue" points="793.151,-68.0001 803.151,-64.5 793.151,-61.0001 793.151,-68.0001"/>
</g>
<!-- Node4 -->
<g id="node4" class="node"><title>Node4</title>
<g id="a_node4"><a xlink:href="../../d3/de8/class_fixed_updating_system.html#a3ed508813ba850baed19e86ef0429028" target="_top" xlink:title=" ">
<polygon fill="white" stroke="black" points="488,-49.5 488,-79.5 601,-79.5 601,-49.5 488,-49.5"/>
<text text-anchor="start" x="496" y="-67.5" font-family="Helvetica,sans-Serif" font-size="10.00">FixedUpdatingSystem</text>
<text text-anchor="middle" x="544.5" y="-56.5" font-family="Helvetica,sans-Serif" font-size="10.00">::fixedUpdate</text>
</a>
</g>
</g>
<!-- Node3&#45;&gt;Node4 -->
<g id="edge3" class="edge"><title>Node3&#45;&gt;Node4</title>
<path fill="none" stroke="midnightblue" d="M626.974,-64.5C618.383,-64.5 609.698,-64.5 601.362,-64.5"/>
<polygon fill="midnightblue" stroke="midnightblue" points="626.989,-68.0001 636.989,-64.5 626.989,-61.0001 626.989,-68.0001"/>
</g>
<!-- Node5 -->
<g id="node5" class="node"><title>Node5</title>
<g id="a_node5"><a xlink:href="../../dd/d1f/class_game.html#a157e87f9dc147a5842ee6bdc06c95c17" target="_top" xlink:title=" ">
<polygon fill="white" stroke="black" points="352,-55 352,-74 452,-74 452,-55 352,-55"/>
<text text-anchor="middle" x="402" y="-62" font-family="Helvetica,sans-Serif" font-size="10.00">Game::fixedUpdate</text>
</a>
</g>
</g>
<!-- Node4&#45;&gt;Node5 -->
<g id="edge4" class="edge"><title>Node4&#45;&gt;Node5</title>
<path fill="none" stroke="midnightblue" d="M477.898,-64.5C469.253,-64.5 460.514,-64.5 452.208,-64.5"/>
<polygon fill="midnightblue" stroke="midnightblue" points="477.971,-68.0001 487.971,-64.5 477.971,-61.0001 477.971,-68.0001"/>
</g>
<!-- Node6 -->
<g id="node6" class="node"><title>Node6</title>
<g id="a_node6"><a xlink:href="../../de/d6b/class_application.html#a95c827cb5cf08bd0c3cc7b07ed4b4249" target="_top" xlink:title=" ">
<polygon fill="white" stroke="black" points="194,-55 194,-74 316,-74 316,-55 194,-55"/>
<text text-anchor="middle" x="255" y="-62" font-family="Helvetica,sans-Serif" font-size="10.00">Application::fixedUpdate</text>
</a>
</g>
</g>
<!-- Node5&#45;&gt;Node6 -->
<g id="edge5" class="edge"><title>Node5&#45;&gt;Node6</title>
<path fill="none" stroke="midnightblue" d="M341.747,-64.5C333.287,-64.5 324.578,-64.5 316.102,-64.5"/>
<polygon fill="midnightblue" stroke="midnightblue" points="341.91,-68.0001 351.91,-64.5 341.91,-61.0001 341.91,-68.0001"/>
</g>
<!-- Node7 -->
<g id="node7" class="node"><title>Node7</title>
<g id="a_node7"><a xlink:href="../../de/d6b/class_application.html#a68965449404743bf1add056784d6cf81" target="_top" xlink:title=" ">
<polygon fill="white" stroke="black" points="74,-55 74,-74 158,-74 158,-55 74,-55"/>
<text text-anchor="middle" x="116" y="-62" font-family="Helvetica,sans-Serif" font-size="10.00">Application::run</text>
</a>
</g>
</g>
<!-- Node6&#45;&gt;Node7 -->
<g id="edge6" class="edge"><title>Node6&#45;&gt;Node7</title>
<path fill="none" stroke="midnightblue" d="M183.669,-64.5C174.931,-64.5 166.234,-64.5 158.145,-64.5"/>
<polygon fill="midnightblue" stroke="midnightblue" points="183.91,-68.0001 193.91,-64.5 183.91,-61.0001 183.91,-68.0001"/>
</g>
<!-- Node8 -->
<g id="node8" class="node"><title>Node8</title>
<g id="a_node8"><a xlink:href="../../d5/d12/_main_8cpp.html#a0ddf1224851353fc92bfbff6f499fa97" target="_top" xlink:title=" ">
<polygon fill="white" stroke="black" points="0,-55 0,-74 38,-74 38,-55 0,-55"/>
<text text-anchor="middle" x="19" y="-62" font-family="Helvetica,sans-Serif" font-size="10.00">main</text>
</a>
</g>
</g>
<!-- Node7&#45;&gt;Node8 -->
<g id="edge7" class="edge"><title>Node7&#45;&gt;Node8</title>
<path fill="none" stroke="midnightblue" d="M63.6206,-64.5C54.5384,-64.5 45.6466,-64.5 38.2853,-64.5"/>
<polygon fill="midnightblue" stroke="midnightblue" points="63.8842,-68.0001 73.8841,-64.5 63.8841,-61.0001 63.8842,-68.0001"/>
</g>
</g>
</svg>
