<?xml version="1.0" encoding="UTF-8" standalone="no"?>
<!DOCTYPE svg PUBLIC "-//W3C//DTD SVG 1.1//EN"
 "http://www.w3.org/Graphics/SVG/1.1/DTD/svg11.dtd">
<!-- Generated by graphviz version 2.38.0 (20140413.2041)
 -->
<!-- Title: Scene::setEntityActive Pages: 1 -->
<svg width="1073pt" height="39pt"
 viewBox="0.00 0.00 1073.00 39.00" xmlns="http://www.w3.org/2000/svg" xmlns:xlink="http://www.w3.org/1999/xlink">
<g id="graph0" class="graph" transform="scale(1 1) rotate(0) translate(4 35)">
<title>Scene::setEntityActive</title>
<polygon fill="white" stroke="none" points="-4,4 -4,-35 1069,-35 1069,4 -4,4"/>
<!-- Node1 -->
<g id="node1" class="node"><title>Node1</title>
<g id="a_node1"><a xlink:title=" ">
<polygon fill="#bfbfbf" stroke="black" points="949,-6 949,-25 1065,-25 1065,-6 949,-6"/>
<text text-anchor="middle" x="1007" y="-13" font-family="Helvetica,sans-Serif" font-size="10.00">Scene::setEntityActive</text>
</a>
</g>
</g>
<!-- Node2 -->
<g id="node2" class="node"><title>Node2</title>
<g id="a_node2"><a xlink:href="../../d3/de8/class_fixed_updating_system.html#a6f6bb1695e03ef174e661643c3a0de27" target="_top" xlink:title=" ">
<polygon fill="white" stroke="black" points="796,-0.5 796,-30.5 913,-30.5 913,-0.5 796,-0.5"/>
<text text-anchor="start" x="804" y="-18.5" font-family="Helvetica,sans-Serif" font-size="10.00">FixedUpdatingSystem</text>
<text text-anchor="middle" x="854.5" y="-7.5" font-family="Helvetica,sans-Serif" font-size="10.00">::handleCollisionTrigger</text>
</a>
</g>
</g>
<!-- Node1&#45;&gt;Node2 -->
<g id="edge1" class="edge"><title>Node1&#45;&gt;Node2</title>
<path fill="none" stroke="midnightblue" d="M938.465,-15.5C930.019,-15.5 921.442,-15.5 913.166,-15.5"/>
<polygon fill="midnightblue" stroke="midnightblue" points="938.673,-19.0001 948.673,-15.5 938.673,-12.0001 938.673,-19.0001"/>
</g>
<!-- Node3 -->
<g id="node3" class="node"><title>Node3</title>
<g id="a_node3"><a xlink:href="../../d3/de8/class_fixed_updating_system.html#a097a3f7a12a5e2e8de83bbb3e8d4e725" target="_top" xlink:title=" ">
<polygon fill="white" stroke="black" points="637,-0.5 637,-30.5 760,-30.5 760,-0.5 637,-0.5"/>
<text text-anchor="start" x="645" y="-18.5" font-family="Helvetica,sans-Serif" font-size="10.00">FixedUpdatingSystem</text>
<text text-anchor="middle" x="698.5" y="-7.5" font-family="Helvetica,sans-Serif" font-size="10.00">::updateCollisionTriggers</text>
</a>
</g>
</g>
<!-- Node2&#45;&gt;Node3 -->
<g id="edge2" class="edge"><title>Node2&#45;&gt;Node3</title>
<path fill="none" stroke="midnightblue" d="M785.524,-15.5C777.084,-15.5 768.498,-15.5 760.178,-15.5"/>
<polygon fill="midnightblue" stroke="midnightblue" points="785.718,-19.0001 795.718,-15.5 785.718,-12.0001 785.718,-19.0001"/>
</g>
<!-- Node4 -->
<g id="node4" class="node"><title>Node4</title>
<g id="a_node4"><a xlink:href="../../d3/de8/class_fixed_updating_system.html#a3ed508813ba850baed19e86ef0429028" target="_top" xlink:title=" ">
<polygon fill="white" stroke="black" points="488,-0.5 488,-30.5 601,-30.5 601,-0.5 488,-0.5"/>
<text text-anchor="start" x="496" y="-18.5" font-family="Helvetica,sans-Serif" font-size="10.00">FixedUpdatingSystem</text>
<text text-anchor="middle" x="544.5" y="-7.5" font-family="Helvetica,sans-Serif" font-size="10.00">::fixedUpdate</text>
</a>
</g>
</g>
<!-- Node3&#45;&gt;Node4 -->
<g id="edge3" class="edge"><title>Node3&#45;&gt;Node4</title>
<path fill="none" stroke="midnightblue" d="M626.974,-15.5C618.383,-15.5 609.698,-15.5 601.362,-15.5"/>
<polygon fill="midnightblue" stroke="midnightblue" points="626.989,-19.0001 636.989,-15.5 626.989,-12.0001 626.989,-19.0001"/>
</g>
<!-- Node5 -->
<g id="node5" class="node"><title>Node5</title>
<g id="a_node5"><a xlink:href="../../dd/d1f/class_game.html#a157e87f9dc147a5842ee6bdc06c95c17" target="_top" xlink:title=" ">
<polygon fill="white" stroke="black" points="352,-6 352,-25 452,-25 452,-6 352,-6"/>
<text text-anchor="middle" x="402" y="-13" font-family="Helvetica,sans-Serif" font-size="10.00">Game::fixedUpdate</text>
</a>
</g>
</g>
<!-- Node4&#45;&gt;Node5 -->
<g id="edge4" class="edge"><title>Node4&#45;&gt;Node5</title>
<path fill="none" stroke="midnightblue" d="M477.898,-15.5C469.253,-15.5 460.514,-15.5 452.208,-15.5"/>
<polygon fill="midnightblue" stroke="midnightblue" points="477.971,-19.0001 487.971,-15.5 477.971,-12.0001 477.971,-19.0001"/>
</g>
<!-- Node6 -->
<g id="node6" class="node"><title>Node6</title>
<g id="a_node6"><a xlink:href="../../de/d6b/class_application.html#a95c827cb5cf08bd0c3cc7b07ed4b4249" target="_top" xlink:title=" ">
<polygon fill="white" stroke="black" points="194,-6 194,-25 316,-25 316,-6 194,-6"/>
<text text-anchor="middle" x="255" y="-13" font-family="Helvetica,sans-Serif" font-size="10.00">Application::fixedUpdate</text>
</a>
</g>
</g>
<!-- Node5&#45;&gt;Node6 -->
<g id="edge5" class="edge"><title>Node5&#45;&gt;Node6</title>
<path fill="none" stroke="midnightblue" d="M341.747,-15.5C333.287,-15.5 324.578,-15.5 316.102,-15.5"/>
<polygon fill="midnightblue" stroke="midnightblue" points="341.91,-19.0001 351.91,-15.5 341.91,-12.0001 341.91,-19.0001"/>
</g>
<!-- Node7 -->
<g id="node7" class="node"><title>Node7</title>
<g id="a_node7"><a xlink:href="../../de/d6b/class_application.html#a68965449404743bf1add056784d6cf81" target="_top" xlink:title=" ">
<polygon fill="white" stroke="black" points="74,-6 74,-25 158,-25 158,-6 74,-6"/>
<text text-anchor="middle" x="116" y="-13" font-family="Helvetica,sans-Serif" font-size="10.00">Application::run</text>
</a>
</g>
</g>
<!-- Node6&#45;&gt;Node7 -->
<g id="edge6" class="edge"><title>Node6&#45;&gt;Node7</title>
<path fill="none" stroke="midnightblue" d="M183.669,-15.5C174.931,-15.5 166.234,-15.5 158.145,-15.5"/>
<polygon fill="midnightblue" stroke="midnightblue" points="183.91,-19.0001 193.91,-15.5 183.91,-12.0001 183.91,-19.0001"/>
</g>
<!-- Node8 -->
<g id="node8" class="node"><title>Node8</title>
<g id="a_node8"><a xlink:href="../../d5/d12/_main_8cpp.html#a0ddf1224851353fc92bfbff6f499fa97" target="_top" xlink:title=" ">
<polygon fill="white" stroke="black" points="0,-6 0,-25 38,-25 38,-6 0,-6"/>
<text text-anchor="middle" x="19" y="-13" font-family="Helvetica,sans-Serif" font-size="10.00">main</text>
</a>
</g>
</g>
<!-- Node7&#45;&gt;Node8 -->
<g id="edge7" class="edge"><title>Node7&#45;&gt;Node8</title>
<path fill="none" stroke="midnightblue" d="M63.6206,-15.5C54.5384,-15.5 45.6466,-15.5 38.2853,-15.5"/>
<polygon fill="midnightblue" stroke="midnightblue" points="63.8842,-19.0001 73.8841,-15.5 63.8841,-12.0001 63.8842,-19.0001"/>
</g>
</g>
</svg>
