<?xml version="1.0" encoding="UTF-8" standalone="no"?>
<!DOCTYPE svg PUBLIC "-//W3C//DTD SVG 1.1//EN"
 "http://www.w3.org/Graphics/SVG/1.1/DTD/svg11.dtd">
<!-- Generated by graphviz version 2.38.0 (20140413.2041)
 -->
<!-- Title: Scene::addComponent Pages: 1 -->
<svg width="296pt" height="256pt"
 viewBox="0.00 0.00 296.00 256.00" xmlns="http://www.w3.org/2000/svg" xmlns:xlink="http://www.w3.org/1999/xlink">
<g id="graph0" class="graph" transform="scale(1 1) rotate(0) translate(4 252)">
<title>Scene::addComponent</title>
<polygon fill="white" stroke="none" points="-4,4 -4,-252 292,-252 292,4 -4,4"/>
<!-- Node1 -->
<g id="node1" class="node"><title>Node1</title>
<g id="a_node1"><a xlink:title=" ">
<polygon fill="#bfbfbf" stroke="black" points="172,-114.5 172,-133.5 288,-133.5 288,-114.5 172,-114.5"/>
<text text-anchor="middle" x="230" y="-121.5" font-family="Helvetica,sans-Serif" font-size="10.00">Scene::addComponent</text>
</a>
</g>
</g>
<!-- Node2 -->
<g id="node2" class="node"><title>Node2</title>
<g id="a_node2"><a xlink:href="../../d1/d45/class_light_test.html#acfa774548a0298d8240d5d73d20fe676" target="_top" xlink:title=" ">
<polygon fill="white" stroke="black" points="19,-228.5 19,-247.5 117,-247.5 117,-228.5 19,-228.5"/>
<text text-anchor="middle" x="68" y="-235.5" font-family="Helvetica,sans-Serif" font-size="10.00">LightTest::initialize</text>
</a>
</g>
</g>
<!-- Node1&#45;&gt;Node2 -->
<g id="edge1" class="edge"><title>Node1&#45;&gt;Node2</title>
<path fill="none" stroke="midnightblue" d="M216.165,-141.938C199.894,-163.38 169.855,-198.882 136,-219 129.556,-222.829 122.303,-225.918 115.012,-228.401"/>
<polygon fill="midnightblue" stroke="midnightblue" points="219.13,-143.815 222.266,-133.695 213.503,-139.65 219.13,-143.815"/>
</g>
<!-- Node3 -->
<g id="node3" class="node"><title>Node3</title>
<g id="a_node3"><a xlink:href="../../d7/dbc/class_particle_test.html#a2c80205ed7aa29e3cb9062ad803f4485" target="_top" xlink:title=" ">
<polygon fill="white" stroke="black" points="13,-190.5 13,-209.5 123,-209.5 123,-190.5 13,-190.5"/>
<text text-anchor="middle" x="68" y="-197.5" font-family="Helvetica,sans-Serif" font-size="10.00">ParticleTest::initialize</text>
</a>
</g>
</g>
<!-- Node1&#45;&gt;Node3 -->
<g id="edge2" class="edge"><title>Node1&#45;&gt;Node3</title>
<path fill="none" stroke="midnightblue" d="M207.644,-139.434C189.367,-152.056 161.966,-169.619 136,-181 127.695,-184.64 118.505,-187.778 109.662,-190.396"/>
<polygon fill="midnightblue" stroke="midnightblue" points="209.904,-142.124 216.076,-133.513 205.881,-136.395 209.904,-142.124"/>
</g>
<!-- Node4 -->
<g id="node4" class="node"><title>Node4</title>
<g id="a_node4"><a xlink:href="../../d8/d53/class_player.html#a74539e4ea62aea94ea420052bac78292" target="_top" xlink:title=" ">
<polygon fill="white" stroke="black" points="25,-152.5 25,-171.5 111,-171.5 111,-152.5 25,-152.5"/>
<text text-anchor="middle" x="68" y="-159.5" font-family="Helvetica,sans-Serif" font-size="10.00">Player::initialize</text>
</a>
</g>
</g>
<!-- Node1&#45;&gt;Node4 -->
<g id="edge3" class="edge"><title>Node1&#45;&gt;Node4</title>
<path fill="none" stroke="midnightblue" d="M178.608,-135.968C156.187,-141.293 130.153,-147.476 109.084,-152.48"/>
<polygon fill="midnightblue" stroke="midnightblue" points="179.705,-139.305 188.625,-133.589 178.087,-132.495 179.705,-139.305"/>
</g>
<!-- Node5 -->
<g id="node5" class="node"><title>Node5</title>
<g id="a_node5"><a xlink:href="../../db/dd3/class_player_test_object.html#aac17d3bdbe3a909a7a873551fe90b6bb" target="_top" xlink:title=" ">
<polygon fill="white" stroke="black" points="1.5,-114.5 1.5,-133.5 134.5,-133.5 134.5,-114.5 1.5,-114.5"/>
<text text-anchor="middle" x="68" y="-121.5" font-family="Helvetica,sans-Serif" font-size="10.00">PlayerTestObject::initialize</text>
</a>
</g>
</g>
<!-- Node1&#45;&gt;Node5 -->
<g id="edge4" class="edge"><title>Node1&#45;&gt;Node5</title>
<path fill="none" stroke="midnightblue" d="M161.4,-124C152.532,-124 143.456,-124 134.621,-124"/>
<polygon fill="midnightblue" stroke="midnightblue" points="161.688,-127.5 171.688,-124 161.688,-120.5 161.688,-127.5"/>
</g>
<!-- Node6 -->
<g id="node6" class="node"><title>Node6</title>
<g id="a_node6"><a xlink:href="../../da/d1b/class_enemy_test_object.html#a360c36ab9698fba8c384a6aa7816a7a2" target="_top" xlink:title=" ">
<polygon fill="white" stroke="black" points="0,-76.5 0,-95.5 136,-95.5 136,-76.5 0,-76.5"/>
<text text-anchor="middle" x="68" y="-83.5" font-family="Helvetica,sans-Serif" font-size="10.00">EnemyTestObject::initialize</text>
</a>
</g>
</g>
<!-- Node1&#45;&gt;Node6 -->
<g id="edge5" class="edge"><title>Node1&#45;&gt;Node6</title>
<path fill="none" stroke="midnightblue" d="M178.608,-112.032C156.187,-106.707 130.153,-100.524 109.084,-95.5201"/>
<polygon fill="midnightblue" stroke="midnightblue" points="178.087,-115.505 188.625,-114.411 179.705,-108.695 178.087,-115.505"/>
</g>
<!-- Node7 -->
<g id="node7" class="node"><title>Node7</title>
<g id="a_node7"><a xlink:href="../../de/d20/class_cube_trigger.html#acd67037d7ab9aca5a6880824644f1cea" target="_top" xlink:title=" ">
<polygon fill="white" stroke="black" points="13,-38.5 13,-57.5 123,-57.5 123,-38.5 13,-38.5"/>
<text text-anchor="middle" x="68" y="-45.5" font-family="Helvetica,sans-Serif" font-size="10.00">CubeTrigger::initialize</text>
</a>
</g>
</g>
<!-- Node1&#45;&gt;Node7 -->
<g id="edge6" class="edge"><title>Node1&#45;&gt;Node7</title>
<path fill="none" stroke="midnightblue" d="M207.644,-108.566C189.367,-95.9439 161.966,-78.381 136,-67 127.695,-63.3597 118.505,-60.2217 109.662,-57.604"/>
<polygon fill="midnightblue" stroke="midnightblue" points="205.881,-111.605 216.076,-114.487 209.904,-105.876 205.881,-111.605"/>
</g>
<!-- Node8 -->
<g id="node8" class="node"><title>Node8</title>
<g id="a_node8"><a xlink:href="../../da/d3c/class_floor_object.html#a5f324e5913659265a3ac615c8888c524" target="_top" xlink:title=" ">
<polygon fill="white" stroke="black" points="14,-0.5 14,-19.5 122,-19.5 122,-0.5 14,-0.5"/>
<text text-anchor="middle" x="68" y="-7.5" font-family="Helvetica,sans-Serif" font-size="10.00">FloorObject::initialize</text>
</a>
</g>
</g>
<!-- Node1&#45;&gt;Node8 -->
<g id="edge7" class="edge"><title>Node1&#45;&gt;Node8</title>
<path fill="none" stroke="midnightblue" d="M216.165,-106.062C199.894,-84.6202 169.855,-49.1181 136,-29 129.556,-25.1705 122.303,-22.0815 115.012,-19.5989"/>
<polygon fill="midnightblue" stroke="midnightblue" points="213.503,-108.35 222.266,-114.305 219.13,-104.185 213.503,-108.35"/>
</g>
</g>
</svg>
