<?xml version="1.0" encoding="UTF-8" standalone="no"?>
<!DOCTYPE svg PUBLIC "-//W3C//DTD SVG 1.1//EN"
 "http://www.w3.org/Graphics/SVG/1.1/DTD/svg11.dtd">
<!-- Generated by graphviz version 2.38.0 (20140413.2041)
 -->
<!-- Title: Scene::getAllComponentsOfType Pages: 1 -->
<!--zoomable 189 -->
<svg id="main" version="1.1" xmlns="http://www.w3.org/2000/svg" xmlns:xlink="http://www.w3.org/1999/xlink" xml:space="preserve" onload="init(evt)">
<style type="text/css"><![CDATA[
.edge:hover path { stroke: red; }
.edge:hover polygon { stroke: red; fill: red; }
]]></style>
<script type="text/javascript"><![CDATA[
var edges = document.getElementsByTagName('g');
if (edges && edges.length) {
  for (var i=0;i<edges.length;i++) {
    if (edges[i].id.substr(0,4)=='edge') {
      edges[i].setAttribute('class','edge');
    }
  }
}
]]></script>
        <defs>
                <circle id="rim" cx="0" cy="0" r="7"/>
                <circle id="rim2" cx="0" cy="0" r="3.5"/>
                <g id="zoomPlus">
                        <use xlink:href="#rim" fill="#404040">
                                <set attributeName="fill" to="#808080" begin="zoomplus.mouseover" end="zoomplus.mouseout"/>
                        </use>
                        <path d="M-4,0h8M0,-4v8" fill="none" stroke="white" stroke-width="1.5" pointer-events="none"/>
                </g>
                <g id="zoomMin">
                        <use xlink:href="#rim" fill="#404040">
                                <set attributeName="fill" to="#808080" begin="zoomminus.mouseover" end="zoomminus.mouseout"/>
                        </use>
                        <path d="M-4,0h8" fill="none" stroke="white" stroke-width="1.5" pointer-events="none"/>
                </g>
                <g id="dirArrow">
                        <path fill="none" stroke="white" stroke-width="1.5" d="M0,-3.0v7 M-2.5,-0.5L0,-3.0L2.5,-0.5"/>
                </g>
               <g id="resetDef">
                       <use xlink:href="#rim2" fill="#404040">
                               <set attributeName="fill" to="#808080" begin="reset.mouseover" end="reset.mouseout"/>
                       </use>
               </g>
        </defs>

<script type="text/javascript">
var viewWidth = 1203;
var viewHeight = 189;
var sectionId = 'dynsection-6';
</script>
<script xlink:href="../../svgpan.js"/>
<svg id="graph" class="graph">
<g id="viewport">
<title>Scene::getAllComponentsOfType</title>
<polygon fill="white" stroke="none" points="-4,4 -4,-185 1199,-185 1199,4 -4,4"/>
<!-- Node1 -->
<g id="node1" class="node"><title>Node1</title>
<g id="a_node1"><a xlink:title=" ">
<polygon fill="#bfbfbf" stroke="black" points="1034,-74 1034,-93 1195,-93 1195,-74 1034,-74"/>
<text text-anchor="middle" x="1114.5" y="-81" font-family="Helvetica,sans-Serif" font-size="10.00">Scene::getAllComponentsOfType</text>
</a>
</g>
</g>
<!-- Node2 -->
<g id="node2" class="node"><title>Node2</title>
<g id="a_node2"><a xlink:href="../../d8/d31/class_rendering_system.html#a322fb5e18e4b8db722ca2fdcb7e754ea" target="_top" xlink:title=" ">
<polygon fill="white" stroke="black" points="652.5,-150.5 652.5,-180.5 787.5,-180.5 787.5,-150.5 652.5,-150.5"/>
<text text-anchor="start" x="660.5" y="-168.5" font-family="Helvetica,sans-Serif" font-size="10.00">RenderingSystem::initialize</text>
<text text-anchor="middle" x="720" y="-157.5" font-family="Helvetica,sans-Serif" font-size="10.00">Lights</text>
</a>
</g>
</g>
<!-- Node1&#45;&gt;Node2 -->
<g id="edge1" class="edge"><title>Node1&#45;&gt;Node2</title>
<path fill="none" stroke="midnightblue" d="M1087.49,-98.081C1064.64,-110.18 1030.12,-126.767 998,-135.5 927.751,-154.599 844.364,-161.61 787.565,-164.145"/>
<polygon fill="midnightblue" stroke="midnightblue" points="1089.39,-101.034 1096.53,-93.2064 1086.06,-94.8734 1089.39,-101.034"/>
</g>
<!-- Node3 -->
<g id="node3" class="node"><title>Node3</title>
<g id="a_node3"><a xlink:href="../../d8/d31/class_rendering_system.html#ae6a25f6b28ebe40f08916d9eadc95ac2" target="_top" xlink:title=" ">
<polygon fill="white" stroke="black" points="488,-74 488,-93 615,-93 615,-74 488,-74"/>
<text text-anchor="middle" x="551.5" y="-81" font-family="Helvetica,sans-Serif" font-size="10.00">RenderingSystem::render</text>
</a>
</g>
</g>
<!-- Node1&#45;&gt;Node3 -->
<g id="edge7" class="edge"><title>Node1&#45;&gt;Node3</title>
<path fill="none" stroke="midnightblue" d="M1056.45,-94.7773C1037.89,-97.9379 1017.14,-100.936 998,-102.5 844.29,-115.058 804.523,-117.172 651,-102.5 631.583,-100.644 610.302,-96.7757 592.505,-93.0106"/>
<polygon fill="midnightblue" stroke="midnightblue" points="1057.27,-98.1874 1066.51,-93.0127 1056.06,-91.2927 1057.27,-98.1874"/>
</g>
<!-- Node8 -->
<g id="node8" class="node"><title>Node8</title>
<g id="a_node8"><a xlink:href="../../d8/d31/class_rendering_system.html#ad47afdc3d5267073f53695fcd483ee89" target="_top" xlink:title=" ">
<polygon fill="white" stroke="black" points="825,-74 825,-93 998,-93 998,-74 825,-74"/>
<text text-anchor="middle" x="911.5" y="-81" font-family="Helvetica,sans-Serif" font-size="10.00">RenderingSystem::renderDebugging</text>
</a>
</g>
</g>
<!-- Node1&#45;&gt;Node8 -->
<g id="edge8" class="edge"><title>Node1&#45;&gt;Node8</title>
<path fill="none" stroke="midnightblue" d="M1023.52,-83.5C1015.06,-83.5 1006.5,-83.5 998.081,-83.5"/>
<polygon fill="midnightblue" stroke="midnightblue" points="1023.77,-87.0001 1033.77,-83.5 1023.77,-80.0001 1023.77,-87.0001"/>
</g>
<!-- Node10 -->
<g id="node10" class="node"><title>Node10</title>
<g id="a_node10"><a xlink:href="../../d8/d31/class_rendering_system.html#ad5115644b3d0a1df6446a610c683a31e" target="_top" xlink:title=" ">
<polygon fill="white" stroke="black" points="833.5,-36 833.5,-55 989.5,-55 989.5,-36 833.5,-36"/>
<text text-anchor="middle" x="911.5" y="-43" font-family="Helvetica,sans-Serif" font-size="10.00">RenderingSystem::renderOthers</text>
</a>
</g>
</g>
<!-- Node1&#45;&gt;Node10 -->
<g id="edge11" class="edge"><title>Node1&#45;&gt;Node10</title>
<path fill="none" stroke="midnightblue" d="M1053.1,-72.0819C1024.34,-66.6448 990.344,-60.2168 962.982,-55.0439"/>
<polygon fill="midnightblue" stroke="midnightblue" points="1052.56,-75.5414 1063.04,-73.96 1053.86,-68.6632 1052.56,-75.5414"/>
</g>
<!-- Node11 -->
<g id="node11" class="node"><title>Node11</title>
<g id="a_node11"><a xlink:href="../../d3/de8/class_fixed_updating_system.html#a7086592e0a53a3a3f8c7533f042a4266" target="_top" xlink:title=" ">
<polygon fill="white" stroke="black" points="663.5,-0.5 663.5,-30.5 776.5,-30.5 776.5,-0.5 663.5,-0.5"/>
<text text-anchor="start" x="671.5" y="-18.5" font-family="Helvetica,sans-Serif" font-size="10.00">FixedUpdatingSystem</text>
<text text-anchor="middle" x="720" y="-7.5" font-family="Helvetica,sans-Serif" font-size="10.00">::updateCollision</text>
</a>
</g>
</g>
<!-- Node1&#45;&gt;Node11 -->
<g id="edge13" class="edge"><title>Node1&#45;&gt;Node11</title>
<path fill="none" stroke="midnightblue" d="M1090.44,-68.4876C1067.9,-54.7121 1032.09,-35.1716 998,-26.5 923.138,-7.4591 833.265,-7.96993 776.63,-11.0009"/>
<polygon fill="midnightblue" stroke="midnightblue" points="1088.63,-71.4813 1098.97,-73.8097 1092.34,-65.544 1088.63,-71.4813"/>
</g>
<!-- Node2&#45;&gt;Node3 -->
<g id="edge2" class="edge"><title>Node2&#45;&gt;Node3</title>
<path fill="none" stroke="midnightblue" d="M674.164,-146.254C666.397,-142.768 658.432,-139.096 651,-135.5 622.104,-121.52 589.266,-103.806 569.748,-93.0784"/>
<polygon fill="midnightblue" stroke="midnightblue" points="672.931,-149.536 683.491,-150.396 675.772,-143.139 672.931,-149.536"/>
</g>
<!-- Node4 -->
<g id="node4" class="node"><title>Node4</title>
<g id="a_node4"><a xlink:href="../../dd/d1f/class_game.html#a15ddd769261d923827a3cdf41499c843" target="_top" xlink:title=" ">
<polygon fill="white" stroke="black" points="364,-72 364,-91 440,-91 440,-72 364,-72"/>
<text text-anchor="middle" x="402" y="-79" font-family="Helvetica,sans-Serif" font-size="10.00">Game::render</text>
</a>
</g>
</g>
<!-- Node3&#45;&gt;Node4 -->
<g id="edge3" class="edge"><title>Node3&#45;&gt;Node4</title>
<path fill="none" stroke="midnightblue" d="M477.929,-82.516C464.781,-82.3377 451.582,-82.1587 440.006,-82.0018"/>
<polygon fill="midnightblue" stroke="midnightblue" points="477.9,-86.0158 487.947,-82.6518 477.995,-79.0165 477.9,-86.0158"/>
</g>
<!-- Node5 -->
<g id="node5" class="node"><title>Node5</title>
<g id="a_node5"><a xlink:href="../../de/d6b/class_application.html#a9ac99d97ee1cc814298a2f2388bde835" target="_top" xlink:title=" ">
<polygon fill="white" stroke="black" points="206,-67 206,-86 304,-86 304,-67 206,-67"/>
<text text-anchor="middle" x="255" y="-74" font-family="Helvetica,sans-Serif" font-size="10.00">Application::render</text>
</a>
</g>
</g>
<!-- Node4&#45;&gt;Node5 -->
<g id="edge4" class="edge"><title>Node4&#45;&gt;Node5</title>
<path fill="none" stroke="midnightblue" d="M353.551,-79.8638C337.715,-79.3178 320.06,-78.709 304.17,-78.161"/>
<polygon fill="midnightblue" stroke="midnightblue" points="353.544,-83.3656 363.659,-80.2124 353.785,-76.3697 353.544,-83.3656"/>
</g>
<!-- Node6 -->
<g id="node6" class="node"><title>Node6</title>
<g id="a_node6"><a xlink:href="../../de/d6b/class_application.html#a68965449404743bf1add056784d6cf81" target="_top" xlink:title=" ">
<polygon fill="white" stroke="black" points="74,-46 74,-65 158,-65 158,-46 74,-46"/>
<text text-anchor="middle" x="116" y="-53" font-family="Helvetica,sans-Serif" font-size="10.00">Application::run</text>
</a>
</g>
</g>
<!-- Node5&#45;&gt;Node6 -->
<g id="edge5" class="edge"><title>Node5&#45;&gt;Node6</title>
<path fill="none" stroke="midnightblue" d="M195.682,-67.5607C183.021,-65.6201 169.887,-63.6067 158.06,-61.7938"/>
<polygon fill="midnightblue" stroke="midnightblue" points="195.284,-71.0405 205.699,-69.0962 196.345,-64.1214 195.284,-71.0405"/>
</g>
<!-- Node7 -->
<g id="node7" class="node"><title>Node7</title>
<g id="a_node7"><a xlink:href="../../d5/d12/_main_8cpp.html#a0ddf1224851353fc92bfbff6f499fa97" target="_top" xlink:title=" ">
<polygon fill="white" stroke="black" points="0,-46 0,-65 38,-65 38,-46 0,-46"/>
<text text-anchor="middle" x="19" y="-53" font-family="Helvetica,sans-Serif" font-size="10.00">main</text>
</a>
</g>
</g>
<!-- Node6&#45;&gt;Node7 -->
<g id="edge6" class="edge"><title>Node6&#45;&gt;Node7</title>
<path fill="none" stroke="midnightblue" d="M63.6206,-55.5C54.5384,-55.5 45.6466,-55.5 38.2853,-55.5"/>
<polygon fill="midnightblue" stroke="midnightblue" points="63.8842,-59.0001 73.8841,-55.5 63.8841,-52.0001 63.8842,-59.0001"/>
</g>
<!-- Node9 -->
<g id="node9" class="node"><title>Node9</title>
<g id="a_node9"><a xlink:href="../../d8/d31/class_rendering_system.html#a9f1ec48fdfa79ddc55421b6014fdb9c6" target="_top" xlink:title=" ">
<polygon fill="white" stroke="black" points="651,-74 651,-93 789,-93 789,-74 651,-74"/>
<text text-anchor="middle" x="720" y="-81" font-family="Helvetica,sans-Serif" font-size="10.00">RenderingSystem::renderAll</text>
</a>
</g>
</g>
<!-- Node8&#45;&gt;Node9 -->
<g id="edge9" class="edge"><title>Node8&#45;&gt;Node9</title>
<path fill="none" stroke="midnightblue" d="M814.772,-83.5C806.136,-83.5 797.51,-83.5 789.183,-83.5"/>
<polygon fill="midnightblue" stroke="midnightblue" points="814.898,-87.0001 824.898,-83.5 814.898,-80.0001 814.898,-87.0001"/>
</g>
<!-- Node9&#45;&gt;Node3 -->
<g id="edge10" class="edge"><title>Node9&#45;&gt;Node3</title>
<path fill="none" stroke="midnightblue" d="M640.795,-83.5C632.227,-83.5 623.588,-83.5 615.242,-83.5"/>
<polygon fill="midnightblue" stroke="midnightblue" points="640.798,-87.0001 650.798,-83.5 640.798,-80.0001 640.798,-87.0001"/>
</g>
<!-- Node10&#45;&gt;Node9 -->
<g id="edge12" class="edge"><title>Node10&#45;&gt;Node9</title>
<path fill="none" stroke="midnightblue" d="M852.605,-57.1095C825.654,-62.514 793.99,-68.8635 768.475,-73.9799"/>
<polygon fill="midnightblue" stroke="midnightblue" points="853.565,-60.4869 862.681,-55.089 852.188,-53.6235 853.565,-60.4869"/>
</g>
<!-- Node12 -->
<g id="node12" class="node"><title>Node12</title>
<g id="a_node12"><a xlink:href="../../d3/de8/class_fixed_updating_system.html#a3ed508813ba850baed19e86ef0429028" target="_top" xlink:title=" ">
<polygon fill="white" stroke="black" points="495,-8.5 495,-38.5 608,-38.5 608,-8.5 495,-8.5"/>
<text text-anchor="start" x="503" y="-26.5" font-family="Helvetica,sans-Serif" font-size="10.00">FixedUpdatingSystem</text>
<text text-anchor="middle" x="551.5" y="-15.5" font-family="Helvetica,sans-Serif" font-size="10.00">::fixedUpdate</text>
</a>
</g>
</g>
<!-- Node11&#45;&gt;Node12 -->
<g id="edge14" class="edge"><title>Node11&#45;&gt;Node12</title>
<path fill="none" stroke="midnightblue" d="M652.987,-18.6718C638.176,-19.3834 622.603,-20.1317 608.258,-20.821"/>
<polygon fill="midnightblue" stroke="midnightblue" points="653.274,-22.1621 663.095,-18.1861 652.938,-15.1702 653.274,-22.1621"/>
</g>
<!-- Node13 -->
<g id="node13" class="node"><title>Node13</title>
<g id="a_node13"><a xlink:href="../../dd/d1f/class_game.html#a157e87f9dc147a5842ee6bdc06c95c17" target="_top" xlink:title=" ">
<polygon fill="white" stroke="black" points="352,-25 352,-44 452,-44 452,-25 352,-25"/>
<text text-anchor="middle" x="402" y="-32" font-family="Helvetica,sans-Serif" font-size="10.00">Game::fixedUpdate</text>
</a>
</g>
</g>
<!-- Node12&#45;&gt;Node13 -->
<g id="edge15" class="edge"><title>Node12&#45;&gt;Node13</title>
<path fill="none" stroke="midnightblue" d="M484.746,-28.4037C473.764,-29.2227 462.542,-30.0596 452.071,-30.8405"/>
<polygon fill="midnightblue" stroke="midnightblue" points="485.025,-31.8927 494.737,-27.6586 484.504,-24.9121 485.025,-31.8927"/>
</g>
<!-- Node14 -->
<g id="node14" class="node"><title>Node14</title>
<g id="a_node14"><a xlink:href="../../de/d6b/class_application.html#a95c827cb5cf08bd0c3cc7b07ed4b4249" target="_top" xlink:title=" ">
<polygon fill="white" stroke="black" points="194,-26 194,-45 316,-45 316,-26 194,-26"/>
<text text-anchor="middle" x="255" y="-33" font-family="Helvetica,sans-Serif" font-size="10.00">Application::fixedUpdate</text>
</a>
</g>
</g>
<!-- Node13&#45;&gt;Node14 -->
<g id="edge16" class="edge"><title>Node13&#45;&gt;Node14</title>
<path fill="none" stroke="midnightblue" d="M341.747,-34.9086C333.287,-34.967 324.578,-35.027 316.102,-35.0855"/>
<polygon fill="midnightblue" stroke="midnightblue" points="341.934,-38.4075 351.91,-34.8386 341.886,-31.4077 341.934,-38.4075"/>
</g>
<!-- Node14&#45;&gt;Node6 -->
<g id="edge17" class="edge"><title>Node14&#45;&gt;Node6</title>
<path fill="none" stroke="midnightblue" d="M183.954,-45.7257C175.121,-47.0152 166.322,-48.2997 158.145,-49.4934"/>
<polygon fill="midnightblue" stroke="midnightblue" points="184.52,-49.1802 193.91,-44.2723 183.509,-42.2536 184.52,-49.1802"/>
</g>
</g>
</svg>
        <g id="navigator" transform="translate(0 0)" fill="#404254">
                <rect fill="#f2f5e9" fill-opacity="0.5" stroke="#606060" stroke-width=".5" x="0" y="0" width="60" height="60"/>
                <use id="zoomplus" xlink:href="#zoomPlus" x="17" y="9" onmousedown="handleZoom(evt,'in')"/>
                <use id="zoomminus" xlink:href="#zoomMin" x="42" y="9" onmousedown="handleZoom(evt,'out')"/>
                <use id="reset" xlink:href="#resetDef" x="30" y="36" onmousedown="handleReset()"/>
                <g id="arrowUp" xlink:href="#dirArrow" transform="translate(30 24)" onmousedown="handlePan(0,-1)">
                  <use xlink:href="#rim" fill="#404040">
                        <set attributeName="fill" to="#808080" begin="arrowUp.mouseover" end="arrowUp.mouseout"/>
                  </use>
                  <path fill="none" stroke="white" stroke-width="1.5" d="M0,-3.0v7 M-2.5,-0.5L0,-3.0L2.5,-0.5"/>
                </g>
                <g id="arrowRight" xlink:href="#dirArrow" transform="rotate(90) translate(36 -43)" onmousedown="handlePan(1,0)">
                  <use xlink:href="#rim" fill="#404040">
                        <set attributeName="fill" to="#808080" begin="arrowRight.mouseover" end="arrowRight.mouseout"/>
                  </use>
                  <path fill="none" stroke="white" stroke-width="1.5" d="M0,-3.0v7 M-2.5,-0.5L0,-3.0L2.5,-0.5"/>
                </g>
                <g id="arrowDown" xlink:href="#dirArrow" transform="rotate(180) translate(-30 -48)" onmousedown="handlePan(0,1)">
                  <use xlink:href="#rim" fill="#404040">
                        <set attributeName="fill" to="#808080" begin="arrowDown.mouseover" end="arrowDown.mouseout"/>
                  </use>
                  <path fill="none" stroke="white" stroke-width="1.5" d="M0,-3.0v7 M-2.5,-0.5L0,-3.0L2.5,-0.5"/>
                </g>
                <g id="arrowLeft" xlink:href="#dirArrow" transform="rotate(270) translate(-36 17)" onmousedown="handlePan(-1,0)">
                  <use xlink:href="#rim" fill="#404040">
                        <set attributeName="fill" to="#808080" begin="arrowLeft.mouseover" end="arrowLeft.mouseout"/>
                  </use>
                  <path fill="none" stroke="white" stroke-width="1.5" d="M0,-3.0v7 M-2.5,-0.5L0,-3.0L2.5,-0.5"/>
                </g>
        </g>
        <svg viewBox="0 0 15 15" width="100%" height="30px" preserveAspectRatio="xMaxYMin meet">
         <g id="arrow_out" transform="scale(0.3 0.3)">
          <a xlink:href="class_scene_ab267a4bad0eebc4fdc2ed4a57a2d16e2_icgraph_org.svg" target="_base">
           <rect id="button" ry="5" rx="5" y="6" x="6" height="38" width="38"
                fill="#f2f5e9" fill-opacity="0.5" stroke="#606060" stroke-width="1.0"/>
           <path id="arrow"
             d="M 11.500037,31.436501 C 11.940474,20.09759 22.043105,11.32322 32.158766,21.979434 L 37.068811,17.246167 C 37.068811,17.246167 37.088388,32 37.088388,32 L 22.160133,31.978069 C 22.160133,31.978069 26.997745,27.140456 26.997745,27.140456 C 18.528582,18.264221 13.291696,25.230495 11.500037,31.436501 z"
             style="fill:#404040;"/>
          </a>
         </g>
        </svg>
</svg>
