<?xml version="1.0" encoding="UTF-8" standalone="no"?>
<!DOCTYPE svg PUBLIC "-//W3C//DTD SVG 1.1//EN"
 "http://www.w3.org/Graphics/SVG/1.1/DTD/svg11.dtd">
<!-- Generated by graphviz version 2.38.0 (20140413.2041)
 -->
<!-- Title: Scene::generateEntity Pages: 1 -->
<svg width="293pt" height="256pt"
 viewBox="0.00 0.00 293.00 256.00" xmlns="http://www.w3.org/2000/svg" xmlns:xlink="http://www.w3.org/1999/xlink">
<g id="graph0" class="graph" transform="scale(1 1) rotate(0) translate(4 252)">
<title>Scene::generateEntity</title>
<polygon fill="white" stroke="none" points="-4,4 -4,-252 289,-252 289,4 -4,4"/>
<!-- Node1 -->
<g id="node1" class="node"><title>Node1</title>
<g id="a_node1"><a xlink:title=" ">
<polygon fill="#bfbfbf" stroke="black" points="172,-114.5 172,-133.5 285,-133.5 285,-114.5 172,-114.5"/>
<text text-anchor="middle" x="228.5" y="-121.5" font-family="Helvetica,sans-Serif" font-size="10.00">Scene::generateEntity</text>
</a>
</g>
</g>
<!-- Node2 -->
<g id="node2" class="node"><title>Node2</title>
<g id="a_node2"><a xlink:href="../../d1/d45/class_light_test.html#acfa774548a0298d8240d5d73d20fe676" target="_top" xlink:title=" ">
<polygon fill="white" stroke="black" points="19,-228.5 19,-247.5 117,-247.5 117,-228.5 19,-228.5"/>
<text text-anchor="middle" x="68" y="-235.5" font-family="Helvetica,sans-Serif" font-size="10.00">LightTest::initialize</text>
</a>
</g>
</g>
<!-- Node1&#45;&gt;Node2 -->
<g id="edge1" class="edge"><title>Node1&#45;&gt;Node2</title>
<path fill="none" stroke="midnightblue" d="M214.938,-141.945C198.996,-163.394 169.507,-198.904 136,-219 129.571,-222.856 122.327,-225.958 115.038,-228.446"/>
<polygon fill="midnightblue" stroke="midnightblue" points="217.879,-143.85 220.913,-133.699 212.211,-139.743 217.879,-143.85"/>
</g>
<!-- Node3 -->
<g id="node3" class="node"><title>Node3</title>
<g id="a_node3"><a xlink:href="../../d7/dbc/class_particle_test.html#a2c80205ed7aa29e3cb9062ad803f4485" target="_top" xlink:title=" ">
<polygon fill="white" stroke="black" points="13,-190.5 13,-209.5 123,-209.5 123,-190.5 13,-190.5"/>
<text text-anchor="middle" x="68" y="-197.5" font-family="Helvetica,sans-Serif" font-size="10.00">ParticleTest::initialize</text>
</a>
</g>
</g>
<!-- Node1&#45;&gt;Node3 -->
<g id="edge2" class="edge"><title>Node1&#45;&gt;Node3</title>
<path fill="none" stroke="midnightblue" d="M206.28,-139.628C188.321,-152.25 161.504,-169.711 136,-181 127.708,-184.67 118.524,-187.821 109.682,-190.441"/>
<polygon fill="midnightblue" stroke="midnightblue" points="208.713,-142.191 214.811,-133.527 204.641,-136.497 208.713,-142.191"/>
</g>
<!-- Node4 -->
<g id="node4" class="node"><title>Node4</title>
<g id="a_node4"><a xlink:href="../../d8/d53/class_player.html#a74539e4ea62aea94ea420052bac78292" target="_top" xlink:title=" ">
<polygon fill="white" stroke="black" points="25,-152.5 25,-171.5 111,-171.5 111,-152.5 25,-152.5"/>
<text text-anchor="middle" x="68" y="-159.5" font-family="Helvetica,sans-Serif" font-size="10.00">Player::initialize</text>
</a>
</g>
</g>
<!-- Node1&#45;&gt;Node4 -->
<g id="edge3" class="edge"><title>Node1&#45;&gt;Node4</title>
<path fill="none" stroke="midnightblue" d="M177.581,-135.968C155.37,-141.293 129.579,-147.476 108.709,-152.48"/>
<polygon fill="midnightblue" stroke="midnightblue" points="178.595,-139.324 187.504,-133.589 176.963,-132.517 178.595,-139.324"/>
</g>
<!-- Node5 -->
<g id="node5" class="node"><title>Node5</title>
<g id="a_node5"><a xlink:href="../../db/dd3/class_player_test_object.html#aac17d3bdbe3a909a7a873551fe90b6bb" target="_top" xlink:title=" ">
<polygon fill="white" stroke="black" points="1.5,-114.5 1.5,-133.5 134.5,-133.5 134.5,-114.5 1.5,-114.5"/>
<text text-anchor="middle" x="68" y="-121.5" font-family="Helvetica,sans-Serif" font-size="10.00">PlayerTestObject::initialize</text>
</a>
</g>
</g>
<!-- Node1&#45;&gt;Node5 -->
<g id="edge4" class="edge"><title>Node1&#45;&gt;Node5</title>
<path fill="none" stroke="midnightblue" d="M161.385,-124C152.556,-124 143.503,-124 134.682,-124"/>
<polygon fill="midnightblue" stroke="midnightblue" points="161.619,-127.5 171.619,-124 161.619,-120.5 161.619,-127.5"/>
</g>
<!-- Node6 -->
<g id="node6" class="node"><title>Node6</title>
<g id="a_node6"><a xlink:href="../../da/d1b/class_enemy_test_object.html#a360c36ab9698fba8c384a6aa7816a7a2" target="_top" xlink:title=" ">
<polygon fill="white" stroke="black" points="0,-76.5 0,-95.5 136,-95.5 136,-76.5 0,-76.5"/>
<text text-anchor="middle" x="68" y="-83.5" font-family="Helvetica,sans-Serif" font-size="10.00">EnemyTestObject::initialize</text>
</a>
</g>
</g>
<!-- Node1&#45;&gt;Node6 -->
<g id="edge5" class="edge"><title>Node1&#45;&gt;Node6</title>
<path fill="none" stroke="midnightblue" d="M177.581,-112.032C155.37,-106.707 129.579,-100.524 108.709,-95.5201"/>
<polygon fill="midnightblue" stroke="midnightblue" points="176.963,-115.483 187.504,-114.411 178.595,-108.676 176.963,-115.483"/>
</g>
<!-- Node7 -->
<g id="node7" class="node"><title>Node7</title>
<g id="a_node7"><a xlink:href="../../de/d20/class_cube_trigger.html#acd67037d7ab9aca5a6880824644f1cea" target="_top" xlink:title=" ">
<polygon fill="white" stroke="black" points="13,-38.5 13,-57.5 123,-57.5 123,-38.5 13,-38.5"/>
<text text-anchor="middle" x="68" y="-45.5" font-family="Helvetica,sans-Serif" font-size="10.00">CubeTrigger::initialize</text>
</a>
</g>
</g>
<!-- Node1&#45;&gt;Node7 -->
<g id="edge6" class="edge"><title>Node1&#45;&gt;Node7</title>
<path fill="none" stroke="midnightblue" d="M206.28,-108.372C188.321,-95.7505 161.504,-78.2893 136,-67 127.708,-63.3296 118.524,-60.179 109.682,-57.5587"/>
<polygon fill="midnightblue" stroke="midnightblue" points="204.641,-111.503 214.811,-114.473 208.713,-105.809 204.641,-111.503"/>
</g>
<!-- Node8 -->
<g id="node8" class="node"><title>Node8</title>
<g id="a_node8"><a xlink:href="../../da/d3c/class_floor_object.html#a5f324e5913659265a3ac615c8888c524" target="_top" xlink:title=" ">
<polygon fill="white" stroke="black" points="14,-0.5 14,-19.5 122,-19.5 122,-0.5 14,-0.5"/>
<text text-anchor="middle" x="68" y="-7.5" font-family="Helvetica,sans-Serif" font-size="10.00">FloorObject::initialize</text>
</a>
</g>
</g>
<!-- Node1&#45;&gt;Node8 -->
<g id="edge7" class="edge"><title>Node1&#45;&gt;Node8</title>
<path fill="none" stroke="midnightblue" d="M214.938,-106.055C198.996,-84.6057 169.507,-49.0963 136,-29 129.571,-25.1444 122.327,-22.0419 115.038,-19.5539"/>
<polygon fill="midnightblue" stroke="midnightblue" points="212.211,-108.257 220.913,-114.301 217.879,-104.15 212.211,-108.257"/>
</g>
</g>
</svg>
