<?xml version="1.0" encoding="UTF-8" standalone="no"?>
<!DOCTYPE svg PUBLIC "-//W3C//DTD SVG 1.1//EN"
 "http://www.w3.org/Graphics/SVG/1.1/DTD/svg11.dtd">
<!-- Generated by graphviz version 2.38.0 (20140413.2041)
 -->
<!-- Title: Scene::loopEntities Pages: 1 -->
<svg width="1134pt" height="176pt"
 viewBox="0.00 0.00 1134.00 176.23" xmlns="http://www.w3.org/2000/svg" xmlns:xlink="http://www.w3.org/1999/xlink">
<g id="graph0" class="graph" transform="scale(1 1) rotate(0) translate(4 172.226)">
<title>Scene::loopEntities</title>
<polygon fill="white" stroke="none" points="-4,4 -4,-172.226 1130,-172.226 1130,4 -4,4"/>
<!-- Node1 -->
<g id="node1" class="node"><title>Node1</title>
<g id="a_node1"><a xlink:title=" ">
<polygon fill="#bfbfbf" stroke="black" points="1025,-76.5 1025,-95.5 1126,-95.5 1126,-76.5 1025,-76.5"/>
<text text-anchor="middle" x="1075.5" y="-83.5" font-family="Helvetica,sans-Serif" font-size="10.00">Scene::loopEntities</text>
</a>
</g>
</g>
<!-- Node2 -->
<g id="node2" class="node"><title>Node2</title>
<g id="a_node2"><a xlink:href="../../d3/de8/class_fixed_updating_system.html#a3ed508813ba850baed19e86ef0429028" target="_top" xlink:title=" ">
<polygon fill="white" stroke="black" points="669.5,-115 669.5,-145 782.5,-145 782.5,-115 669.5,-115"/>
<text text-anchor="start" x="677.5" y="-133" font-family="Helvetica,sans-Serif" font-size="10.00">FixedUpdatingSystem</text>
<text text-anchor="middle" x="726" y="-122" font-family="Helvetica,sans-Serif" font-size="10.00">::fixedUpdate</text>
</a>
</g>
</g>
<!-- Node1&#45;&gt;Node2 -->
<g id="edge1" class="edge"><title>Node1&#45;&gt;Node2</title>
<path fill="none" stroke="midnightblue" d="M1059.79,-103.322C1044.21,-120.209 1017.9,-144.792 989,-155 915.325,-181.02 823.176,-161.124 770.105,-145.044"/>
<polygon fill="midnightblue" stroke="midnightblue" points="1062.5,-105.541 1066.54,-95.747 1057.28,-100.883 1062.5,-105.541"/>
</g>
<!-- Node7 -->
<g id="node7" class="node"><title>Node7</title>
<g id="a_node7"><a xlink:href="../../d8/d31/class_rendering_system.html#a04ef0a772570ed732cbccf8b4f153455" target="_top" xlink:title=" ">
<polygon fill="white" stroke="black" points="658.5,-76.5 658.5,-95.5 793.5,-95.5 793.5,-76.5 658.5,-76.5"/>
<text text-anchor="middle" x="726" y="-83.5" font-family="Helvetica,sans-Serif" font-size="10.00">RenderingSystem::initialize</text>
</a>
</g>
</g>
<!-- Node1&#45;&gt;Node7 -->
<g id="edge6" class="edge"><title>Node1&#45;&gt;Node7</title>
<path fill="none" stroke="midnightblue" d="M1014.39,-86C952.858,-86 857.466,-86 793.659,-86"/>
<polygon fill="midnightblue" stroke="midnightblue" points="1014.71,-89.5001 1024.71,-86 1014.71,-82.5001 1014.71,-89.5001"/>
</g>
<!-- Node10 -->
<g id="node10" class="node"><title>Node10</title>
<g id="a_node10"><a xlink:href="../../d8/d31/class_rendering_system.html#ae0ffc1b2dfc242b496ba42101ed718cb" target="_top" xlink:title=" ">
<polygon fill="white" stroke="black" points="831,-38.5 831,-57.5 989,-57.5 989,-38.5 831,-38.5"/>
<text text-anchor="middle" x="910" y="-45.5" font-family="Helvetica,sans-Serif" font-size="10.00">RenderingSystem::renderModels</text>
</a>
</g>
</g>
<!-- Node1&#45;&gt;Node10 -->
<g id="edge11" class="edge"><title>Node1&#45;&gt;Node10</title>
<path fill="none" stroke="midnightblue" d="M1023.32,-74.1039C1000.33,-68.7626 973.587,-62.5463 951.961,-57.5201"/>
<polygon fill="midnightblue" stroke="midnightblue" points="1022.71,-77.5562 1033.24,-76.411 1024.29,-70.738 1022.71,-77.5562"/>
</g>
<!-- Node15 -->
<g id="node15" class="node"><title>Node15</title>
<g id="a_node15"><a xlink:href="../../d8/d31/class_rendering_system.html#ad5115644b3d0a1df6446a610c683a31e" target="_top" xlink:title=" ">
<polygon fill="white" stroke="black" points="832,-0.5 832,-19.5 988,-19.5 988,-0.5 832,-0.5"/>
<text text-anchor="middle" x="910" y="-7.5" font-family="Helvetica,sans-Serif" font-size="10.00">RenderingSystem::renderOthers</text>
</a>
</g>
</g>
<!-- Node1&#45;&gt;Node15 -->
<g id="edge17" class="edge"><title>Node1&#45;&gt;Node15</title>
<path fill="none" stroke="midnightblue" d="M1055.23,-70.2734C1038.61,-57.4437 1013.48,-39.7429 989,-29 980.321,-25.192 970.749,-22.0664 961.372,-19.5294"/>
<polygon fill="midnightblue" stroke="midnightblue" points="1053.07,-73.0335 1063.09,-76.4757 1057.41,-67.5362 1053.07,-73.0335"/>
</g>
<!-- Node16 -->
<g id="node16" class="node"><title>Node16</title>
<g id="a_node16"><a xlink:href="../../d3/de8/class_fixed_updating_system.html#a137e7d0c5f7e54609c674fbc0557f338" target="_top" xlink:title=" ">
<polygon fill="white" stroke="black" points="853.5,-115 853.5,-145 966.5,-145 966.5,-115 853.5,-115"/>
<text text-anchor="start" x="861.5" y="-133" font-family="Helvetica,sans-Serif" font-size="10.00">FixedUpdatingSystem</text>
<text text-anchor="middle" x="910" y="-122" font-family="Helvetica,sans-Serif" font-size="10.00">::updateGUI</text>
</a>
</g>
</g>
<!-- Node1&#45;&gt;Node16 -->
<g id="edge19" class="edge"><title>Node1&#45;&gt;Node16</title>
<path fill="none" stroke="midnightblue" d="M1029.24,-98.1808C1009.87,-103.394 987.054,-109.533 966.662,-115.021"/>
<polygon fill="midnightblue" stroke="midnightblue" points="1030.28,-101.526 1039.02,-95.5473 1028.46,-94.7663 1030.28,-101.526"/>
</g>
<!-- Node3 -->
<g id="node3" class="node"><title>Node3</title>
<g id="a_node3"><a xlink:href="../../dd/d1f/class_game.html#a157e87f9dc147a5842ee6bdc06c95c17" target="_top" xlink:title=" ">
<polygon fill="white" stroke="black" points="507.5,-114.5 507.5,-133.5 607.5,-133.5 607.5,-114.5 507.5,-114.5"/>
<text text-anchor="middle" x="557.5" y="-121.5" font-family="Helvetica,sans-Serif" font-size="10.00">Game::fixedUpdate</text>
</a>
</g>
</g>
<!-- Node2&#45;&gt;Node3 -->
<g id="edge2" class="edge"><title>Node2&#45;&gt;Node3</title>
<path fill="none" stroke="midnightblue" d="M658.635,-127.608C641.588,-126.994 623.555,-126.344 607.559,-125.768"/>
<polygon fill="midnightblue" stroke="midnightblue" points="658.975,-131.123 669.095,-127.985 659.227,-124.127 658.975,-131.123"/>
</g>
<!-- Node4 -->
<g id="node4" class="node"><title>Node4</title>
<g id="a_node4"><a xlink:href="../../de/d6b/class_application.html#a95c827cb5cf08bd0c3cc7b07ed4b4249" target="_top" xlink:title=" ">
<polygon fill="white" stroke="black" points="194,-114.5 194,-133.5 316,-133.5 316,-114.5 194,-114.5"/>
<text text-anchor="middle" x="255" y="-121.5" font-family="Helvetica,sans-Serif" font-size="10.00">Application::fixedUpdate</text>
</a>
</g>
</g>
<!-- Node3&#45;&gt;Node4 -->
<g id="edge3" class="edge"><title>Node3&#45;&gt;Node4</title>
<path fill="none" stroke="midnightblue" d="M497.07,-124C444.706,-124 368.786,-124 316.194,-124"/>
<polygon fill="midnightblue" stroke="midnightblue" points="497.215,-127.5 507.215,-124 497.215,-120.5 497.215,-127.5"/>
</g>
<!-- Node5 -->
<g id="node5" class="node"><title>Node5</title>
<g id="a_node5"><a xlink:href="../../de/d6b/class_application.html#a68965449404743bf1add056784d6cf81" target="_top" xlink:title=" ">
<polygon fill="white" stroke="black" points="74,-76.5 74,-95.5 158,-95.5 158,-76.5 74,-76.5"/>
<text text-anchor="middle" x="116" y="-83.5" font-family="Helvetica,sans-Serif" font-size="10.00">Application::run</text>
</a>
</g>
</g>
<!-- Node4&#45;&gt;Node5 -->
<g id="edge4" class="edge"><title>Node4&#45;&gt;Node5</title>
<path fill="none" stroke="midnightblue" d="M209.589,-111.682C190.766,-106.461 169.162,-100.468 151.56,-95.5859"/>
<polygon fill="midnightblue" stroke="midnightblue" points="208.857,-115.111 219.429,-114.411 210.728,-108.365 208.857,-115.111"/>
</g>
<!-- Node6 -->
<g id="node6" class="node"><title>Node6</title>
<g id="a_node6"><a xlink:href="../../d5/d12/_main_8cpp.html#a0ddf1224851353fc92bfbff6f499fa97" target="_top" xlink:title=" ">
<polygon fill="white" stroke="black" points="0,-76.5 0,-95.5 38,-95.5 38,-76.5 0,-76.5"/>
<text text-anchor="middle" x="19" y="-83.5" font-family="Helvetica,sans-Serif" font-size="10.00">main</text>
</a>
</g>
</g>
<!-- Node5&#45;&gt;Node6 -->
<g id="edge5" class="edge"><title>Node5&#45;&gt;Node6</title>
<path fill="none" stroke="midnightblue" d="M63.6206,-86C54.5384,-86 45.6466,-86 38.2853,-86"/>
<polygon fill="midnightblue" stroke="midnightblue" points="63.8842,-89.5001 73.8841,-86 63.8841,-82.5001 63.8842,-89.5001"/>
</g>
<!-- Node7&#45;&gt;Node3 -->
<g id="edge7" class="edge"><title>Node7&#45;&gt;Node3</title>
<path fill="none" stroke="midnightblue" d="M673.191,-97.8243C649.717,-103.182 622.335,-109.431 600.213,-114.48"/>
<polygon fill="midnightblue" stroke="midnightblue" points="674.015,-101.226 682.985,-95.589 672.457,-94.4019 674.015,-101.226"/>
</g>
<!-- Node8 -->
<g id="node8" class="node"><title>Node8</title>
<g id="a_node8"><a xlink:href="../../dd/d1f/class_game.html#a8986a201a654418cefe34ec28af1a22c" target="_top" xlink:title=" ">
<polygon fill="white" stroke="black" points="515.5,-76.5 515.5,-95.5 599.5,-95.5 599.5,-76.5 515.5,-76.5"/>
<text text-anchor="middle" x="557.5" y="-83.5" font-family="Helvetica,sans-Serif" font-size="10.00">Game::initialize</text>
</a>
</g>
</g>
<!-- Node7&#45;&gt;Node8 -->
<g id="edge8" class="edge"><title>Node7&#45;&gt;Node8</title>
<path fill="none" stroke="midnightblue" d="M647.978,-86C631.393,-86 614.476,-86 599.881,-86"/>
<polygon fill="midnightblue" stroke="midnightblue" points="648.237,-89.5001 658.237,-86 648.237,-82.5001 648.237,-89.5001"/>
</g>
<!-- Node9 -->
<g id="node9" class="node"><title>Node9</title>
<g id="a_node9"><a xlink:href="../../de/d6b/class_application.html#af431bce25717b04a78d4d0940ed6a92c" target="_top" xlink:title=" ">
<polygon fill="white" stroke="black" points="352,-76.5 352,-95.5 458,-95.5 458,-76.5 352,-76.5"/>
<text text-anchor="middle" x="405" y="-83.5" font-family="Helvetica,sans-Serif" font-size="10.00">Application::initialize</text>
</a>
</g>
</g>
<!-- Node8&#45;&gt;Node9 -->
<g id="edge9" class="edge"><title>Node8&#45;&gt;Node9</title>
<path fill="none" stroke="midnightblue" d="M505.136,-86C489.963,-86 473.344,-86 458.123,-86"/>
<polygon fill="midnightblue" stroke="midnightblue" points="505.375,-89.5001 515.375,-86 505.375,-82.5001 505.375,-89.5001"/>
</g>
<!-- Node9&#45;&gt;Node5 -->
<g id="edge10" class="edge"><title>Node9&#45;&gt;Node5</title>
<path fill="none" stroke="midnightblue" d="M341.609,-86C286.023,-86 206.262,-86 158.258,-86"/>
<polygon fill="midnightblue" stroke="midnightblue" points="341.694,-89.5001 351.693,-86 341.693,-82.5001 341.694,-89.5001"/>
</g>
<!-- Node11 -->
<g id="node11" class="node"><title>Node11</title>
<g id="a_node11"><a xlink:href="../../d8/d31/class_rendering_system.html#a9f1ec48fdfa79ddc55421b6014fdb9c6" target="_top" xlink:title=" ">
<polygon fill="white" stroke="black" points="657,-38.5 657,-57.5 795,-57.5 795,-38.5 657,-38.5"/>
<text text-anchor="middle" x="726" y="-45.5" font-family="Helvetica,sans-Serif" font-size="10.00">RenderingSystem::renderAll</text>
</a>
</g>
</g>
<!-- Node10&#45;&gt;Node11 -->
<g id="edge12" class="edge"><title>Node10&#45;&gt;Node11</title>
<path fill="none" stroke="midnightblue" d="M820.709,-48C812.12,-48 803.498,-48 795.15,-48"/>
<polygon fill="midnightblue" stroke="midnightblue" points="820.759,-51.5001 830.759,-48 820.759,-44.5001 820.759,-51.5001"/>
</g>
<!-- Node12 -->
<g id="node12" class="node"><title>Node12</title>
<g id="a_node12"><a xlink:href="../../d8/d31/class_rendering_system.html#ae6a25f6b28ebe40f08916d9eadc95ac2" target="_top" xlink:title=" ">
<polygon fill="white" stroke="black" points="494,-38.5 494,-57.5 621,-57.5 621,-38.5 494,-38.5"/>
<text text-anchor="middle" x="557.5" y="-45.5" font-family="Helvetica,sans-Serif" font-size="10.00">RenderingSystem::render</text>
</a>
</g>
</g>
<!-- Node11&#45;&gt;Node12 -->
<g id="edge13" class="edge"><title>Node11&#45;&gt;Node12</title>
<path fill="none" stroke="midnightblue" d="M646.795,-48C638.227,-48 629.588,-48 621.242,-48"/>
<polygon fill="midnightblue" stroke="midnightblue" points="646.798,-51.5001 656.798,-48 646.798,-44.5001 646.798,-51.5001"/>
</g>
<!-- Node13 -->
<g id="node13" class="node"><title>Node13</title>
<g id="a_node13"><a xlink:href="../../dd/d1f/class_game.html#a15ddd769261d923827a3cdf41499c843" target="_top" xlink:title=" ">
<polygon fill="white" stroke="black" points="367,-38.5 367,-57.5 443,-57.5 443,-38.5 367,-38.5"/>
<text text-anchor="middle" x="405" y="-45.5" font-family="Helvetica,sans-Serif" font-size="10.00">Game::render</text>
</a>
</g>
</g>
<!-- Node12&#45;&gt;Node13 -->
<g id="edge14" class="edge"><title>Node12&#45;&gt;Node13</title>
<path fill="none" stroke="midnightblue" d="M483.778,-48C469.697,-48 455.498,-48 443.155,-48"/>
<polygon fill="midnightblue" stroke="midnightblue" points="483.982,-51.5001 493.982,-48 483.982,-44.5001 483.982,-51.5001"/>
</g>
<!-- Node14 -->
<g id="node14" class="node"><title>Node14</title>
<g id="a_node14"><a xlink:href="../../de/d6b/class_application.html#a9ac99d97ee1cc814298a2f2388bde835" target="_top" xlink:title=" ">
<polygon fill="white" stroke="black" points="206,-38.5 206,-57.5 304,-57.5 304,-38.5 206,-38.5"/>
<text text-anchor="middle" x="255" y="-45.5" font-family="Helvetica,sans-Serif" font-size="10.00">Application::render</text>
</a>
</g>
</g>
<!-- Node13&#45;&gt;Node14 -->
<g id="edge15" class="edge"><title>Node13&#45;&gt;Node14</title>
<path fill="none" stroke="midnightblue" d="M356.553,-48C339.839,-48 321.042,-48 304.262,-48"/>
<polygon fill="midnightblue" stroke="midnightblue" points="356.653,-51.5001 366.653,-48 356.653,-44.5001 356.653,-51.5001"/>
</g>
<!-- Node14&#45;&gt;Node5 -->
<g id="edge16" class="edge"><title>Node14&#45;&gt;Node5</title>
<path fill="none" stroke="midnightblue" d="M209.589,-60.3183C190.766,-65.5393 169.162,-71.5316 151.56,-76.4141"/>
<polygon fill="midnightblue" stroke="midnightblue" points="210.728,-63.6346 219.429,-57.589 208.857,-56.8892 210.728,-63.6346"/>
</g>
<!-- Node15&#45;&gt;Node11 -->
<g id="edge18" class="edge"><title>Node15&#45;&gt;Node11</title>
<path fill="none" stroke="midnightblue" d="M853.054,-21.681C827.244,-27.0699 796.993,-33.3861 772.596,-38.4799"/>
<polygon fill="midnightblue" stroke="midnightblue" points="854,-25.059 863.074,-19.589 852.569,-18.2068 854,-25.059"/>
</g>
<!-- Node16&#45;&gt;Node2 -->
<g id="edge20" class="edge"><title>Node16&#45;&gt;Node2</title>
<path fill="none" stroke="midnightblue" d="M843.193,-130C823.319,-130 801.705,-130 782.568,-130"/>
<polygon fill="midnightblue" stroke="midnightblue" points="843.405,-133.5 853.405,-130 843.405,-126.5 843.405,-133.5"/>
</g>
</g>
</svg>
