<?xml version="1.0" encoding="UTF-8" standalone="no"?>
<!DOCTYPE svg PUBLIC "-//W3C//DTD SVG 1.1//EN"
 "http://www.w3.org/Graphics/SVG/1.1/DTD/svg11.dtd">
<!-- Generated by graphviz version 2.38.0 (20140413.2041)
 -->
<!-- Title: Scene::getFirstActiveComponentOfType Pages: 1 -->
<svg width="1210pt" height="331pt"
 viewBox="0.00 0.00 1210.00 330.50" xmlns="http://www.w3.org/2000/svg" xmlns:xlink="http://www.w3.org/1999/xlink">
<g id="graph0" class="graph" transform="scale(1 1) rotate(0) translate(4 326.5)">
<title>Scene::getFirstActiveComponentOfType</title>
<polygon fill="white" stroke="none" points="-4,4 -4,-326.5 1206,-326.5 1206,4 -4,4"/>
<!-- Node1 -->
<g id="node1" class="node"><title>Node1</title>
<g id="a_node1"><a xlink:title=" ">
<polygon fill="#bfbfbf" stroke="black" points="1043,-131 1043,-161 1202,-161 1202,-131 1043,-131"/>
<text text-anchor="start" x="1051" y="-149" font-family="Helvetica,sans-Serif" font-size="10.00">Scene::getFirstActiveComponent</text>
<text text-anchor="middle" x="1122.5" y="-138" font-family="Helvetica,sans-Serif" font-size="10.00">OfType</text>
</a>
</g>
</g>
<!-- Node2 -->
<g id="node2" class="node"><title>Node2</title>
<g id="a_node2"><a xlink:href="../../d3/de8/class_fixed_updating_system.html#a8f07c76b37a898f91221740f42c72598" target="_top" xlink:title=" ">
<polygon fill="white" stroke="black" points="863.5,-194 863.5,-224 994.5,-224 994.5,-194 863.5,-194"/>
<text text-anchor="start" x="871.5" y="-212" font-family="Helvetica,sans-Serif" font-size="10.00">FixedUpdatingSystem</text>
<text text-anchor="middle" x="929" y="-201" font-family="Helvetica,sans-Serif" font-size="10.00">::handleBackEndMessage</text>
</a>
</g>
</g>
<!-- Node1&#45;&gt;Node2 -->
<g id="edge1" class="edge"><title>Node1&#45;&gt;Node2</title>
<path fill="none" stroke="midnightblue" d="M1065.79,-164.328C1037.21,-173.728 1002.84,-185.037 975.826,-193.924"/>
<polygon fill="midnightblue" stroke="midnightblue" points="1067.23,-167.54 1075.63,-161.09 1065.04,-160.89 1067.23,-167.54"/>
</g>
<!-- Node8 -->
<g id="node8" class="node"><title>Node8</title>
<g id="a_node8"><a xlink:href="../../d3/de8/class_fixed_updating_system.html#ae6dd11a60942e140a62f8358bb69d4ba" target="_top" xlink:title=" ">
<polygon fill="white" stroke="black" points="679.5,-164 679.5,-194 792.5,-194 792.5,-164 679.5,-164"/>
<text text-anchor="start" x="687.5" y="-182" font-family="Helvetica,sans-Serif" font-size="10.00">FixedUpdatingSystem</text>
<text text-anchor="middle" x="736" y="-171" font-family="Helvetica,sans-Serif" font-size="10.00">::initialize</text>
</a>
</g>
</g>
<!-- Node1&#45;&gt;Node8 -->
<g id="edge7" class="edge"><title>Node1&#45;&gt;Node8</title>
<path fill="none" stroke="midnightblue" d="M1032.52,-153.637C958.498,-159.99 855.433,-168.835 792.626,-174.226"/>
<polygon fill="midnightblue" stroke="midnightblue" points="1033.1,-157.1 1042.76,-152.758 1032.5,-150.126 1033.1,-157.1"/>
</g>
<!-- Node11 -->
<g id="node11" class="node"><title>Node11</title>
<g id="a_node11"><a xlink:href="../../d8/d31/class_rendering_system.html#a322fb5e18e4b8db722ca2fdcb7e754ea" target="_top" xlink:title=" ">
<polygon fill="white" stroke="black" points="668.5,-115 668.5,-145 803.5,-145 803.5,-115 668.5,-115"/>
<text text-anchor="start" x="676.5" y="-133" font-family="Helvetica,sans-Serif" font-size="10.00">RenderingSystem::initialize</text>
<text text-anchor="middle" x="736" y="-122" font-family="Helvetica,sans-Serif" font-size="10.00">Lights</text>
</a>
</g>
</g>
<!-- Node1&#45;&gt;Node11 -->
<g id="edge12" class="edge"><title>Node1&#45;&gt;Node11</title>
<path fill="none" stroke="midnightblue" d="M1032.66,-142.303C962.855,-139.398 867.159,-135.416 803.773,-132.779"/>
<polygon fill="midnightblue" stroke="midnightblue" points="1032.63,-145.805 1042.76,-142.724 1032.92,-138.811 1032.63,-145.805"/>
</g>
<!-- Node12 -->
<g id="node12" class="node"><title>Node12</title>
<g id="a_node12"><a xlink:href="../../d8/d31/class_rendering_system.html#ae6a25f6b28ebe40f08916d9eadc95ac2" target="_top" xlink:title=" ">
<polygon fill="white" stroke="black" points="494,-88.5 494,-107.5 621,-107.5 621,-88.5 494,-88.5"/>
<text text-anchor="middle" x="557.5" y="-95.5" font-family="Helvetica,sans-Serif" font-size="10.00">RenderingSystem::render</text>
</a>
</g>
</g>
<!-- Node1&#45;&gt;Node12 -->
<g id="edge17" class="edge"><title>Node1&#45;&gt;Node12</title>
<path fill="none" stroke="midnightblue" d="M1032.7,-131.595C971.65,-122.313 888.629,-110.913 815,-105 748.948,-99.6958 673.055,-98.1923 621.058,-97.8635"/>
<polygon fill="midnightblue" stroke="midnightblue" points="1032.27,-135.07 1042.68,-133.124 1033.33,-128.15 1032.27,-135.07"/>
</g>
<!-- Node15 -->
<g id="node15" class="node"><title>Node15</title>
<g id="a_node15"><a xlink:href="../../d8/d31/class_rendering_system.html#ad5115644b3d0a1df6446a610c683a31e" target="_top" xlink:title=" ">
<polygon fill="white" stroke="black" points="851,-38.5 851,-57.5 1007,-57.5 1007,-38.5 851,-38.5"/>
<text text-anchor="middle" x="929" y="-45.5" font-family="Helvetica,sans-Serif" font-size="10.00">RenderingSystem::renderOthers</text>
</a>
</g>
</g>
<!-- Node1&#45;&gt;Node15 -->
<g id="edge18" class="edge"><title>Node1&#45;&gt;Node15</title>
<path fill="none" stroke="midnightblue" d="M1093.43,-124.758C1070.98,-108.562 1038.22,-86.6211 1007,-72 994.7,-66.2399 980.666,-61.3992 967.978,-57.6082"/>
<polygon fill="midnightblue" stroke="midnightblue" points="1091.65,-127.797 1101.79,-130.874 1095.78,-122.146 1091.65,-127.797"/>
</g>
<!-- Node17 -->
<g id="node17" class="node"><title>Node17</title>
<g id="a_node17"><a xlink:href="../../d2/d54/class_updating_system.html#a127ad554750e7e7582a1904abfb265aa" target="_top" xlink:title=" ">
<polygon fill="white" stroke="black" points="867,-0.5 867,-19.5 991,-19.5 991,-0.5 867,-0.5"/>
<text text-anchor="middle" x="929" y="-7.5" font-family="Helvetica,sans-Serif" font-size="10.00">UpdatingSystem::update</text>
</a>
</g>
</g>
<!-- Node1&#45;&gt;Node17 -->
<g id="edge21" class="edge"><title>Node1&#45;&gt;Node17</title>
<path fill="none" stroke="midnightblue" d="M1104.91,-122.429C1084.82,-95.6756 1048.46,-52.6867 1007,-29 1000.19,-25.1067 992.588,-22.0052 984.894,-19.536"/>
<polygon fill="midnightblue" stroke="midnightblue" points="1102.34,-124.845 1111.09,-130.829 1107.98,-120.699 1102.34,-124.845"/>
</g>
<!-- Node20 -->
<g id="node20" class="node"><title>Node20</title>
<g id="a_node20"><a xlink:href="../../d3/de8/class_fixed_updating_system.html#a7086592e0a53a3a3f8c7533f042a4266" target="_top" xlink:title=" ">
<polygon fill="white" stroke="black" points="872.5,-292 872.5,-322 985.5,-322 985.5,-292 872.5,-292"/>
<text text-anchor="start" x="880.5" y="-310" font-family="Helvetica,sans-Serif" font-size="10.00">FixedUpdatingSystem</text>
<text text-anchor="middle" x="929" y="-299" font-family="Helvetica,sans-Serif" font-size="10.00">::updateCollision</text>
</a>
</g>
</g>
<!-- Node1&#45;&gt;Node20 -->
<g id="edge25" class="edge"><title>Node1&#45;&gt;Node20</title>
<path fill="none" stroke="midnightblue" d="M1107.59,-169.95C1088.64,-200.532 1051.87,-253.064 1007,-283 1000.48,-287.352 993.124,-290.949 985.615,-293.912"/>
<polygon fill="midnightblue" stroke="midnightblue" points="1110.7,-171.578 1112.89,-161.213 1104.71,-167.948 1110.7,-171.578"/>
</g>
<!-- Node22 -->
<g id="node22" class="node"><title>Node22</title>
<g id="a_node22"><a xlink:href="../../d3/de8/class_fixed_updating_system.html#a137e7d0c5f7e54609c674fbc0557f338" target="_top" xlink:title=" ">
<polygon fill="white" stroke="black" points="872.5,-243 872.5,-273 985.5,-273 985.5,-243 872.5,-243"/>
<text text-anchor="start" x="880.5" y="-261" font-family="Helvetica,sans-Serif" font-size="10.00">FixedUpdatingSystem</text>
<text text-anchor="middle" x="929" y="-250" font-family="Helvetica,sans-Serif" font-size="10.00">::updateGUI</text>
</a>
</g>
</g>
<!-- Node1&#45;&gt;Node22 -->
<g id="edge28" class="edge"><title>Node1&#45;&gt;Node22</title>
<path fill="none" stroke="midnightblue" d="M1097.71,-167.913C1075.62,-187.29 1041.09,-215.174 1007,-233 999.901,-236.713 992.146,-240.011 984.379,-242.896"/>
<polygon fill="midnightblue" stroke="midnightblue" points="1100.12,-170.455 1105.27,-161.194 1095.47,-165.226 1100.12,-170.455"/>
</g>
<!-- Node3 -->
<g id="node3" class="node"><title>Node3</title>
<g id="a_node3"><a xlink:href="../../dd/d1f/class_game.html#a5eb682ebf3aa9ac5b2d6d63ade9ddcc0" target="_top" xlink:title=" ">
<polygon fill="white" stroke="black" points="657,-213.5 657,-232.5 815,-232.5 815,-213.5 657,-213.5"/>
<text text-anchor="middle" x="736" y="-220.5" font-family="Helvetica,sans-Serif" font-size="10.00">Game::readBackendEventQueue</text>
</a>
</g>
</g>
<!-- Node2&#45;&gt;Node3 -->
<g id="edge2" class="edge"><title>Node2&#45;&gt;Node3</title>
<path fill="none" stroke="midnightblue" d="M853.026,-214.495C840.592,-215.407 827.671,-216.354 815.161,-217.271"/>
<polygon fill="midnightblue" stroke="midnightblue" points="853.619,-217.962 863.336,-213.74 853.107,-210.98 853.619,-217.962"/>
</g>
<!-- Node4 -->
<g id="node4" class="node"><title>Node4</title>
<g id="a_node4"><a xlink:href="../../dd/d1f/class_game.html#a157e87f9dc147a5842ee6bdc06c95c17" target="_top" xlink:title=" ">
<polygon fill="white" stroke="black" points="507.5,-191.5 507.5,-210.5 607.5,-210.5 607.5,-191.5 507.5,-191.5"/>
<text text-anchor="middle" x="557.5" y="-198.5" font-family="Helvetica,sans-Serif" font-size="10.00">Game::fixedUpdate</text>
</a>
</g>
</g>
<!-- Node3&#45;&gt;Node4 -->
<g id="edge3" class="edge"><title>Node3&#45;&gt;Node4</title>
<path fill="none" stroke="midnightblue" d="M648.462,-212.213C634.482,-210.471 620.445,-208.721 607.754,-207.139"/>
<polygon fill="midnightblue" stroke="midnightblue" points="648.255,-215.715 658.611,-213.478 649.121,-208.768 648.255,-215.715"/>
</g>
<!-- Node5 -->
<g id="node5" class="node"><title>Node5</title>
<g id="a_node5"><a xlink:href="../../de/d6b/class_application.html#a95c827cb5cf08bd0c3cc7b07ed4b4249" target="_top" xlink:title=" ">
<polygon fill="white" stroke="black" points="194,-170.5 194,-189.5 316,-189.5 316,-170.5 194,-170.5"/>
<text text-anchor="middle" x="255" y="-177.5" font-family="Helvetica,sans-Serif" font-size="10.00">Application::fixedUpdate</text>
</a>
</g>
</g>
<!-- Node4&#45;&gt;Node5 -->
<g id="edge4" class="edge"><title>Node4&#45;&gt;Node5</title>
<path fill="none" stroke="midnightblue" d="M497.07,-196.847C444.706,-193.187 368.786,-187.882 316.194,-184.207"/>
<polygon fill="midnightblue" stroke="midnightblue" points="496.995,-200.35 507.215,-197.556 497.483,-193.367 496.995,-200.35"/>
</g>
<!-- Node6 -->
<g id="node6" class="node"><title>Node6</title>
<g id="a_node6"><a xlink:href="../../de/d6b/class_application.html#a68965449404743bf1add056784d6cf81" target="_top" xlink:title=" ">
<polygon fill="white" stroke="black" points="74,-109.5 74,-128.5 158,-128.5 158,-109.5 74,-109.5"/>
<text text-anchor="middle" x="116" y="-116.5" font-family="Helvetica,sans-Serif" font-size="10.00">Application::run</text>
</a>
</g>
</g>
<!-- Node5&#45;&gt;Node6 -->
<g id="edge5" class="edge"><title>Node5&#45;&gt;Node6</title>
<path fill="none" stroke="midnightblue" d="M223.293,-166.328C197.576,-154.877 161.514,-138.82 138.708,-128.666"/>
<polygon fill="midnightblue" stroke="midnightblue" points="222.035,-169.599 232.594,-170.469 224.882,-163.204 222.035,-169.599"/>
</g>
<!-- Node7 -->
<g id="node7" class="node"><title>Node7</title>
<g id="a_node7"><a xlink:href="../../d5/d12/_main_8cpp.html#a0ddf1224851353fc92bfbff6f499fa97" target="_top" xlink:title=" ">
<polygon fill="white" stroke="black" points="0,-109.5 0,-128.5 38,-128.5 38,-109.5 0,-109.5"/>
<text text-anchor="middle" x="19" y="-116.5" font-family="Helvetica,sans-Serif" font-size="10.00">main</text>
</a>
</g>
</g>
<!-- Node6&#45;&gt;Node7 -->
<g id="edge6" class="edge"><title>Node6&#45;&gt;Node7</title>
<path fill="none" stroke="midnightblue" d="M63.6206,-119C54.5384,-119 45.6466,-119 38.2853,-119"/>
<polygon fill="midnightblue" stroke="midnightblue" points="63.8842,-122.5 73.8841,-119 63.8841,-115.5 63.8842,-122.5"/>
</g>
<!-- Node8&#45;&gt;Node4 -->
<g id="edge8" class="edge"><title>Node8&#45;&gt;Node4</title>
<path fill="none" stroke="midnightblue" d="M669.024,-187.224C648.708,-189.756 626.708,-192.498 607.724,-194.864"/>
<polygon fill="midnightblue" stroke="midnightblue" points="669.664,-190.671 679.154,-185.961 668.798,-183.725 669.664,-190.671"/>
</g>
<!-- Node9 -->
<g id="node9" class="node"><title>Node9</title>
<g id="a_node9"><a xlink:href="../../dd/d1f/class_game.html#a8986a201a654418cefe34ec28af1a22c" target="_top" xlink:title=" ">
<polygon fill="white" stroke="black" points="515.5,-145.5 515.5,-164.5 599.5,-164.5 599.5,-145.5 515.5,-145.5"/>
<text text-anchor="middle" x="557.5" y="-152.5" font-family="Helvetica,sans-Serif" font-size="10.00">Game::initialize</text>
</a>
</g>
</g>
<!-- Node8&#45;&gt;Node9 -->
<g id="edge9" class="edge"><title>Node8&#45;&gt;Node9</title>
<path fill="none" stroke="midnightblue" d="M669.005,-170.026C645.765,-166.866 620.322,-163.406 599.714,-160.604"/>
<polygon fill="midnightblue" stroke="midnightblue" points="668.774,-173.527 679.154,-171.406 669.717,-166.591 668.774,-173.527"/>
</g>
<!-- Node10 -->
<g id="node10" class="node"><title>Node10</title>
<g id="a_node10"><a xlink:href="../../de/d6b/class_application.html#af431bce25717b04a78d4d0940ed6a92c" target="_top" xlink:title=" ">
<polygon fill="white" stroke="black" points="352,-128.5 352,-147.5 458,-147.5 458,-128.5 352,-128.5"/>
<text text-anchor="middle" x="405" y="-135.5" font-family="Helvetica,sans-Serif" font-size="10.00">Application::initialize</text>
</a>
</g>
</g>
<!-- Node9&#45;&gt;Node10 -->
<g id="edge10" class="edge"><title>Node9&#45;&gt;Node10</title>
<path fill="none" stroke="midnightblue" d="M505.136,-149.198C489.963,-147.484 473.344,-145.607 458.123,-143.888"/>
<polygon fill="midnightblue" stroke="midnightblue" points="505.046,-152.71 515.375,-150.355 505.831,-145.754 505.046,-152.71"/>
</g>
<!-- Node10&#45;&gt;Node6 -->
<g id="edge11" class="edge"><title>Node10&#45;&gt;Node6</title>
<path fill="none" stroke="midnightblue" d="M341.609,-133.87C286.023,-130.19 206.262,-124.909 158.258,-121.731"/>
<polygon fill="midnightblue" stroke="midnightblue" points="341.484,-137.369 351.693,-134.537 341.947,-130.384 341.484,-137.369"/>
</g>
<!-- Node11&#45;&gt;Node12 -->
<g id="edge13" class="edge"><title>Node11&#45;&gt;Node12</title>
<path fill="none" stroke="midnightblue" d="M658.402,-116.113C642.411,-113.213 625.899,-110.22 611.019,-107.522"/>
<polygon fill="midnightblue" stroke="midnightblue" points="657.809,-119.562 668.273,-117.902 659.058,-112.674 657.809,-119.562"/>
</g>
<!-- Node13 -->
<g id="node13" class="node"><title>Node13</title>
<g id="a_node13"><a xlink:href="../../dd/d1f/class_game.html#a15ddd769261d923827a3cdf41499c843" target="_top" xlink:title=" ">
<polygon fill="white" stroke="black" points="367,-90.5 367,-109.5 443,-109.5 443,-90.5 367,-90.5"/>
<text text-anchor="middle" x="405" y="-97.5" font-family="Helvetica,sans-Serif" font-size="10.00">Game::render</text>
</a>
</g>
</g>
<!-- Node12&#45;&gt;Node13 -->
<g id="edge14" class="edge"><title>Node12&#45;&gt;Node13</title>
<path fill="none" stroke="midnightblue" d="M483.778,-98.9664C469.697,-99.1535 455.498,-99.3422 443.155,-99.5062"/>
<polygon fill="midnightblue" stroke="midnightblue" points="484.029,-102.463 493.982,-98.8308 483.936,-95.4641 484.029,-102.463"/>
</g>
<!-- Node14 -->
<g id="node14" class="node"><title>Node14</title>
<g id="a_node14"><a xlink:href="../../de/d6b/class_application.html#a9ac99d97ee1cc814298a2f2388bde835" target="_top" xlink:title=" ">
<polygon fill="white" stroke="black" points="206,-90.5 206,-109.5 304,-109.5 304,-90.5 206,-90.5"/>
<text text-anchor="middle" x="255" y="-97.5" font-family="Helvetica,sans-Serif" font-size="10.00">Application::render</text>
</a>
</g>
</g>
<!-- Node13&#45;&gt;Node14 -->
<g id="edge15" class="edge"><title>Node13&#45;&gt;Node14</title>
<path fill="none" stroke="midnightblue" d="M356.553,-100C339.839,-100 321.042,-100 304.262,-100"/>
<polygon fill="midnightblue" stroke="midnightblue" points="356.653,-103.5 366.653,-100 356.653,-96.5001 356.653,-103.5"/>
</g>
<!-- Node14&#45;&gt;Node6 -->
<g id="edge16" class="edge"><title>Node14&#45;&gt;Node6</title>
<path fill="none" stroke="midnightblue" d="M195.682,-108.088C183.021,-109.844 169.887,-111.665 158.06,-113.306"/>
<polygon fill="midnightblue" stroke="midnightblue" points="196.275,-111.539 205.699,-106.699 195.313,-104.606 196.275,-111.539"/>
</g>
<!-- Node16 -->
<g id="node16" class="node"><title>Node16</title>
<g id="a_node16"><a xlink:href="../../d8/d31/class_rendering_system.html#a9f1ec48fdfa79ddc55421b6014fdb9c6" target="_top" xlink:title=" ">
<polygon fill="white" stroke="black" points="667,-38.5 667,-57.5 805,-57.5 805,-38.5 667,-38.5"/>
<text text-anchor="middle" x="736" y="-45.5" font-family="Helvetica,sans-Serif" font-size="10.00">RenderingSystem::renderAll</text>
</a>
</g>
</g>
<!-- Node15&#45;&gt;Node16 -->
<g id="edge19" class="edge"><title>Node15&#45;&gt;Node16</title>
<path fill="none" stroke="midnightblue" d="M840.51,-48C828.658,-48 816.641,-48 805.195,-48"/>
<polygon fill="midnightblue" stroke="midnightblue" points="840.864,-51.5001 850.864,-48 840.864,-44.5001 840.864,-51.5001"/>
</g>
<!-- Node16&#45;&gt;Node12 -->
<g id="edge20" class="edge"><title>Node16&#45;&gt;Node12</title>
<path fill="none" stroke="midnightblue" d="M691.411,-60.3481C660.805,-69.0185 620.466,-80.446 592.289,-88.4281"/>
<polygon fill="midnightblue" stroke="midnightblue" points="692.719,-63.6155 701.386,-57.5223 690.811,-56.8805 692.719,-63.6155"/>
</g>
<!-- Node18 -->
<g id="node18" class="node"><title>Node18</title>
<g id="a_node18"><a xlink:href="../../dd/d1f/class_game.html#a79df6376b332d63c9eca0dcee30305c3" target="_top" xlink:title=" ">
<polygon fill="white" stroke="black" points="518.5,-9.5 518.5,-28.5 596.5,-28.5 596.5,-9.5 518.5,-9.5"/>
<text text-anchor="middle" x="557.5" y="-16.5" font-family="Helvetica,sans-Serif" font-size="10.00">Game::update</text>
</a>
</g>
</g>
<!-- Node17&#45;&gt;Node18 -->
<g id="edge22" class="edge"><title>Node17&#45;&gt;Node18</title>
<path fill="none" stroke="midnightblue" d="M856.806,-11.7341C779.212,-13.6241 657.96,-16.5774 596.686,-18.0699"/>
<polygon fill="midnightblue" stroke="midnightblue" points="857.073,-15.2287 866.985,-11.4862 856.902,-8.2308 857.073,-15.2287"/>
</g>
<!-- Node19 -->
<g id="node19" class="node"><title>Node19</title>
<g id="a_node19"><a xlink:href="../../de/d6b/class_application.html#a051023103d00b96b1e5e7437fd8e2e7c" target="_top" xlink:title=" ">
<polygon fill="white" stroke="black" points="355,-33.5 355,-52.5 455,-52.5 455,-33.5 355,-33.5"/>
<text text-anchor="middle" x="405" y="-40.5" font-family="Helvetica,sans-Serif" font-size="10.00">Application::update</text>
</a>
</g>
</g>
<!-- Node18&#45;&gt;Node19 -->
<g id="edge23" class="edge"><title>Node18&#45;&gt;Node19</title>
<path fill="none" stroke="midnightblue" d="M507.915,-26.7478C491.018,-29.4424 472.06,-32.4655 455.12,-35.1669"/>
<polygon fill="midnightblue" stroke="midnightblue" points="508.809,-30.1495 518.133,-25.1183 507.707,-23.2369 508.809,-30.1495"/>
</g>
<!-- Node19&#45;&gt;Node6 -->
<g id="edge24" class="edge"><title>Node19&#45;&gt;Node6</title>
<path fill="none" stroke="midnightblue" d="M344.719,-49.2384C302.043,-54.8041 243.511,-64.6625 194,-81 171.916,-88.2873 148.154,-100.804 132.959,-109.471"/>
<polygon fill="midnightblue" stroke="midnightblue" points="345.182,-52.7078 354.664,-47.9814 344.304,-45.763 345.182,-52.7078"/>
</g>
<!-- Node21 -->
<g id="node21" class="node"><title>Node21</title>
<g id="a_node21"><a xlink:href="../../d3/de8/class_fixed_updating_system.html#a3ed508813ba850baed19e86ef0429028" target="_top" xlink:title=" ">
<polygon fill="white" stroke="black" points="679.5,-252 679.5,-282 792.5,-282 792.5,-252 679.5,-252"/>
<text text-anchor="start" x="687.5" y="-270" font-family="Helvetica,sans-Serif" font-size="10.00">FixedUpdatingSystem</text>
<text text-anchor="middle" x="736" y="-259" font-family="Helvetica,sans-Serif" font-size="10.00">::fixedUpdate</text>
</a>
</g>
</g>
<!-- Node20&#45;&gt;Node21 -->
<g id="edge26" class="edge"><title>Node20&#45;&gt;Node21</title>
<path fill="none" stroke="midnightblue" d="M862.582,-293.3C839.825,-288.534 814.53,-283.237 792.64,-278.652"/>
<polygon fill="midnightblue" stroke="midnightblue" points="861.993,-296.752 872.498,-295.377 863.428,-289.901 861.993,-296.752"/>
</g>
<!-- Node21&#45;&gt;Node4 -->
<g id="edge27" class="edge"><title>Node21&#45;&gt;Node4</title>
<path fill="none" stroke="midnightblue" d="M676.196,-248.739C669.692,-246.545 663.188,-244.275 657,-242 630.227,-232.157 600.02,-219.319 580.199,-210.652"/>
<polygon fill="midnightblue" stroke="midnightblue" points="675.093,-252.061 685.687,-251.889 677.298,-245.417 675.093,-252.061"/>
</g>
<!-- Node22&#45;&gt;Node21 -->
<g id="edge29" class="edge"><title>Node22&#45;&gt;Node21</title>
<path fill="none" stroke="midnightblue" d="M862.275,-261.097C839.598,-262.166 814.432,-263.351 792.64,-264.378"/>
<polygon fill="midnightblue" stroke="midnightblue" points="862.674,-264.582 872.498,-260.615 862.345,-257.59 862.674,-264.582"/>
</g>
</g>
</svg>
