<?xml version="1.0" encoding="UTF-8" standalone="no"?>
<!DOCTYPE svg PUBLIC "-//W3C//DTD SVG 1.1//EN"
 "http://www.w3.org/Graphics/SVG/1.1/DTD/svg11.dtd">
<!-- Generated by graphviz version 2.38.0 (20140413.2041)
 -->
<!-- Title: Scene::getComponent Pages: 1 -->
<!--zoomable 401 -->
<svg id="main" version="1.1" xmlns="http://www.w3.org/2000/svg" xmlns:xlink="http://www.w3.org/1999/xlink" xml:space="preserve" onload="init(evt)">
<style type="text/css"><![CDATA[
.edge:hover path { stroke: red; }
.edge:hover polygon { stroke: red; fill: red; }
]]></style>
<script type="text/javascript"><![CDATA[
var edges = document.getElementsByTagName('g');
if (edges && edges.length) {
  for (var i=0;i<edges.length;i++) {
    if (edges[i].id.substr(0,4)=='edge') {
      edges[i].setAttribute('class','edge');
    }
  }
}
]]></script>
        <defs>
                <circle id="rim" cx="0" cy="0" r="7"/>
                <circle id="rim2" cx="0" cy="0" r="3.5"/>
                <g id="zoomPlus">
                        <use xlink:href="#rim" fill="#404040">
                                <set attributeName="fill" to="#808080" begin="zoomplus.mouseover" end="zoomplus.mouseout"/>
                        </use>
                        <path d="M-4,0h8M0,-4v8" fill="none" stroke="white" stroke-width="1.5" pointer-events="none"/>
                </g>
                <g id="zoomMin">
                        <use xlink:href="#rim" fill="#404040">
                                <set attributeName="fill" to="#808080" begin="zoomminus.mouseover" end="zoomminus.mouseout"/>
                        </use>
                        <path d="M-4,0h8" fill="none" stroke="white" stroke-width="1.5" pointer-events="none"/>
                </g>
                <g id="dirArrow">
                        <path fill="none" stroke="white" stroke-width="1.5" d="M0,-3.0v7 M-2.5,-0.5L0,-3.0L2.5,-0.5"/>
                </g>
               <g id="resetDef">
                       <use xlink:href="#rim2" fill="#404040">
                               <set attributeName="fill" to="#808080" begin="reset.mouseover" end="reset.mouseout"/>
                       </use>
               </g>
        </defs>

<script type="text/javascript">
var viewWidth = 1347;
var viewHeight = 401;
var sectionId = 'dynsection-9';
</script>
<script xlink:href="../../svgpan.js"/>
<svg id="graph" class="graph">
<g id="viewport">
<title>Scene::getComponent</title>
<polygon fill="white" stroke="none" points="-4,4 -4,-396.956 1343,-396.956 1343,4 -4,4"/>
<!-- Node1 -->
<g id="node1" class="node"><title>Node1</title>
<g id="a_node1"><a xlink:title=" ">
<polygon fill="#bfbfbf" stroke="black" points="1226,-181.503 1226,-200.503 1339,-200.503 1339,-181.503 1226,-181.503"/>
<text text-anchor="middle" x="1282.5" y="-188.503" font-family="Helvetica,sans-Serif" font-size="10.00">Scene::getComponent</text>
</a>
</g>
</g>
<!-- Node2 -->
<g id="node2" class="node"><title>Node2</title>
<g id="a_node2"><a xlink:href="../../d3/de8/class_fixed_updating_system.html#a3ed508813ba850baed19e86ef0429028" target="_top" xlink:title=" ">
<polygon fill="white" stroke="black" points="853.5,-176.003 853.5,-206.003 966.5,-206.003 966.5,-176.003 853.5,-176.003"/>
<text text-anchor="start" x="861.5" y="-194.003" font-family="Helvetica,sans-Serif" font-size="10.00">FixedUpdatingSystem</text>
<text text-anchor="middle" x="910" y="-183.003" font-family="Helvetica,sans-Serif" font-size="10.00">::fixedUpdate</text>
</a>
</g>
</g>
<!-- Node1&#45;&gt;Node2 -->
<g id="edge1" class="edge"><title>Node1&#45;&gt;Node2</title>
<path fill="none" stroke="midnightblue" d="M1276.17,-210.571C1265.89,-244.017 1239.78,-311.252 1190,-339.003 1125.95,-374.709 1083.69,-382.975 1025,-339.003 979.416,-304.848 1028.76,-256.789 989,-216.003 982.846,-209.69 975.097,-204.968 966.888,-201.438"/>
<polygon fill="midnightblue" stroke="midnightblue" points="1279.63,-211.209 1279.07,-200.629 1272.91,-209.253 1279.63,-211.209"/>
</g>
<!-- Node7 -->
<g id="node7" class="node"><title>Node7</title>
<g id="a_node7"><a xlink:href="../../d8/d31/class_rendering_system.html#a04ef0a772570ed732cbccf8b4f153455" target="_top" xlink:title=" ">
<polygon fill="white" stroke="black" points="842.5,-225.503 842.5,-244.503 977.5,-244.503 977.5,-225.503 842.5,-225.503"/>
<text text-anchor="middle" x="910" y="-232.503" font-family="Helvetica,sans-Serif" font-size="10.00">RenderingSystem::initialize</text>
</a>
</g>
</g>
<!-- Node1&#45;&gt;Node7 -->
<g id="edge6" class="edge"><title>Node1&#45;&gt;Node7</title>
<path fill="none" stroke="midnightblue" d="M1278.14,-210.415C1270.39,-248.47 1247.34,-332.19 1190,-367.003 1127.32,-405.063 1091.68,-397.521 1025,-367.003 968.006,-340.918 928.646,-270.712 915.667,-244.793"/>
<polygon fill="midnightblue" stroke="midnightblue" points="1281.58,-211.049 1280.01,-200.572 1274.71,-209.745 1281.58,-211.049"/>
</g>
<!-- Node10 -->
<g id="node10" class="node"><title>Node10</title>
<g id="a_node10"><a xlink:href="../../d8/d31/class_rendering_system.html#aed2bdaa38a47cecb67c4bc10cd7cce6f" target="_top" xlink:title=" ">
<polygon fill="white" stroke="black" points="1040,-299.003 1040,-329.003 1175,-329.003 1175,-299.003 1040,-299.003"/>
<text text-anchor="start" x="1048" y="-317.003" font-family="Helvetica,sans-Serif" font-size="10.00">RenderingSystem::initialize</text>
<text text-anchor="middle" x="1107.5" y="-306.003" font-family="Helvetica,sans-Serif" font-size="10.00">Models</text>
</a>
</g>
</g>
<!-- Node1&#45;&gt;Node10 -->
<g id="edge11" class="edge"><title>Node1&#45;&gt;Node10</title>
<path fill="none" stroke="midnightblue" d="M1269.53,-209.024C1253.84,-231.264 1224.25,-268.739 1190,-290.003 1184.49,-293.426 1178.46,-296.381 1172.26,-298.928"/>
<polygon fill="midnightblue" stroke="midnightblue" points="1272.42,-211.004 1275.2,-200.781 1266.65,-207.037 1272.42,-211.004"/>
</g>
<!-- Node11 -->
<g id="node11" class="node"><title>Node11</title>
<g id="a_node11"><a xlink:href="../../d8/d31/class_rendering_system.html#a167a571527b6f44e8c4bf45f383500be" target="_top" xlink:title=" ">
<polygon fill="white" stroke="black" points="1041.5,-250.003 1041.5,-280.003 1173.5,-280.003 1173.5,-250.003 1041.5,-250.003"/>
<text text-anchor="start" x="1049.5" y="-268.003" font-family="Helvetica,sans-Serif" font-size="10.00">RenderingSystem::prepare</text>
<text text-anchor="middle" x="1107.5" y="-257.003" font-family="Helvetica,sans-Serif" font-size="10.00">Shader</text>
</a>
</g>
</g>
<!-- Node1&#45;&gt;Node11 -->
<g id="edge12" class="edge"><title>Node1&#45;&gt;Node11</title>
<path fill="none" stroke="midnightblue" d="M1257.76,-205.816C1239.68,-216.632 1213.92,-231.079 1190,-241.003 1182.23,-244.225 1173.89,-247.201 1165.6,-249.883"/>
<polygon fill="midnightblue" stroke="midnightblue" points="1259.72,-208.716 1266.46,-200.534 1256.09,-202.732 1259.72,-208.716"/>
</g>
<!-- Node12 -->
<g id="node12" class="node"><title>Node12</title>
<g id="a_node12"><a xlink:href="../../d8/d31/class_rendering_system.html#ae0ffc1b2dfc242b496ba42101ed718cb" target="_top" xlink:title=" ">
<polygon fill="white" stroke="black" points="831,-113.503 831,-132.503 989,-132.503 989,-113.503 831,-113.503"/>
<text text-anchor="middle" x="910" y="-120.503" font-family="Helvetica,sans-Serif" font-size="10.00">RenderingSystem::renderModels</text>
</a>
</g>
</g>
<!-- Node1&#45;&gt;Node12 -->
<g id="edge13" class="edge"><title>Node1&#45;&gt;Node12</title>
<path fill="none" stroke="midnightblue" d="M1259.51,-175.772C1241.66,-164.281 1215.37,-149.292 1190,-142.003 1124.09,-123.063 1045.98,-119.239 989.189,-119.617"/>
<polygon fill="midnightblue" stroke="midnightblue" points="1257.76,-178.808 1268.03,-181.403 1261.62,-172.969 1257.76,-178.808"/>
</g>
<!-- Node17 -->
<g id="node17" class="node"><title>Node17</title>
<g id="a_node17"><a xlink:href="../../d8/d31/class_rendering_system.html#ad5115644b3d0a1df6446a610c683a31e" target="_top" xlink:title=" ">
<polygon fill="white" stroke="black" points="832,-75.5029 832,-94.5029 988,-94.5029 988,-75.5029 832,-75.5029"/>
<text text-anchor="middle" x="910" y="-82.5029" font-family="Helvetica,sans-Serif" font-size="10.00">RenderingSystem::renderOthers</text>
</a>
</g>
</g>
<!-- Node1&#45;&gt;Node17 -->
<g id="edge19" class="edge"><title>Node1&#45;&gt;Node17</title>
<path fill="none" stroke="midnightblue" d="M1266.54,-173.939C1249.83,-156.147 1221.02,-129.07 1190,-116.003 1125.66,-88.9036 1045.97,-82.4256 988.246,-81.976"/>
<polygon fill="midnightblue" stroke="midnightblue" points="1264,-176.352 1273.33,-181.377 1269.17,-171.632 1264,-176.352"/>
</g>
<!-- Node18 -->
<g id="node18" class="node"><title>Node18</title>
<g id="a_node18"><a xlink:href="../../d8/d31/class_rendering_system.html#a488d5dcc3e1f3c63dedee53bc022a6af" target="_top" xlink:title=" ">
<polygon fill="white" stroke="black" points="1025,-37.5029 1025,-56.5029 1190,-56.5029 1190,-37.5029 1025,-37.5029"/>
<text text-anchor="middle" x="1107.5" y="-44.5029" font-family="Helvetica,sans-Serif" font-size="10.00">RenderingSystem::renderParticles</text>
</a>
</g>
</g>
<!-- Node1&#45;&gt;Node18 -->
<g id="edge21" class="edge"><title>Node1&#45;&gt;Node18</title>
<path fill="none" stroke="midnightblue" d="M1272.16,-172.233C1258.01,-145.73 1228.65,-97.6103 1190,-71.0029 1180.89,-64.7304 1170.12,-60.0732 1159.45,-56.6233"/>
<polygon fill="midnightblue" stroke="midnightblue" points="1269.12,-173.972 1276.82,-181.243 1275.33,-170.753 1269.12,-173.972"/>
</g>
<!-- Node19 -->
<g id="node19" class="node"><title>Node19</title>
<g id="a_node19"><a xlink:href="../../d2/d54/class_updating_system.html#a127ad554750e7e7582a1904abfb265aa" target="_top" xlink:title=" ">
<polygon fill="white" stroke="black" points="848,-18.5029 848,-37.5029 972,-37.5029 972,-18.5029 848,-18.5029"/>
<text text-anchor="middle" x="910" y="-25.5029" font-family="Helvetica,sans-Serif" font-size="10.00">UpdatingSystem::update</text>
</a>
</g>
</g>
<!-- Node1&#45;&gt;Node19 -->
<g id="edge23" class="edge"><title>Node1&#45;&gt;Node19</title>
<path fill="none" stroke="midnightblue" d="M1277.3,-171.507C1268.39,-135.529 1243.81,-59.5031 1190,-28.0029 1111,18.2487 996.575,-3.79304 942.094,-18.4986"/>
<polygon fill="midnightblue" stroke="midnightblue" points="1273.9,-172.348 1279.58,-181.293 1280.72,-170.76 1273.9,-172.348"/>
</g>
<!-- Node22 -->
<g id="node22" class="node"><title>Node22</title>
<g id="a_node22"><a xlink:href="../../d3/de8/class_fixed_updating_system.html#a7086592e0a53a3a3f8c7533f042a4266" target="_top" xlink:title=" ">
<polygon fill="white" stroke="black" points="1051,-201.003 1051,-231.003 1164,-231.003 1164,-201.003 1051,-201.003"/>
<text text-anchor="start" x="1059" y="-219.003" font-family="Helvetica,sans-Serif" font-size="10.00">FixedUpdatingSystem</text>
<text text-anchor="middle" x="1107.5" y="-208.003" font-family="Helvetica,sans-Serif" font-size="10.00">::updateCollision</text>
</a>
</g>
</g>
<!-- Node1&#45;&gt;Node22 -->
<g id="edge27" class="edge"><title>Node1&#45;&gt;Node22</title>
<path fill="none" stroke="midnightblue" d="M1215.91,-200.481C1198.83,-202.949 1180.59,-205.585 1164.09,-207.97"/>
<polygon fill="midnightblue" stroke="midnightblue" points="1216.41,-203.945 1225.81,-199.051 1215.41,-197.017 1216.41,-203.945"/>
</g>
<!-- Node23 -->
<g id="node23" class="node"><title>Node23</title>
<g id="a_node23"><a xlink:href="../../d3/de8/class_fixed_updating_system.html#a137e7d0c5f7e54609c674fbc0557f338" target="_top" xlink:title=" ">
<polygon fill="white" stroke="black" points="1051,-152.003 1051,-182.003 1164,-182.003 1164,-152.003 1051,-152.003"/>
<text text-anchor="start" x="1059" y="-170.003" font-family="Helvetica,sans-Serif" font-size="10.00">FixedUpdatingSystem</text>
<text text-anchor="middle" x="1107.5" y="-159.003" font-family="Helvetica,sans-Serif" font-size="10.00">::updateGUI</text>
</a>
</g>
</g>
<!-- Node1&#45;&gt;Node23 -->
<g id="edge29" class="edge"><title>Node1&#45;&gt;Node23</title>
<path fill="none" stroke="midnightblue" d="M1215.43,-181.837C1198.49,-179.487 1180.44,-176.983 1164.09,-174.714"/>
<polygon fill="midnightblue" stroke="midnightblue" points="1215.42,-185.37 1225.81,-183.277 1216.39,-178.436 1215.42,-185.37"/>
</g>
<!-- Node3 -->
<g id="node3" class="node"><title>Node3</title>
<g id="a_node3"><a xlink:href="../../dd/d1f/class_game.html#a157e87f9dc147a5842ee6bdc06c95c17" target="_top" xlink:title=" ">
<polygon fill="white" stroke="black" points="676,-181.503 676,-200.503 776,-200.503 776,-181.503 676,-181.503"/>
<text text-anchor="middle" x="726" y="-188.503" font-family="Helvetica,sans-Serif" font-size="10.00">Game::fixedUpdate</text>
</a>
</g>
</g>
<!-- Node2&#45;&gt;Node3 -->
<g id="edge2" class="edge"><title>Node2&#45;&gt;Node3</title>
<path fill="none" stroke="midnightblue" d="M843.379,-191.003C821.175,-191.003 796.781,-191.003 776.087,-191.003"/>
<polygon fill="midnightblue" stroke="midnightblue" points="843.405,-194.503 853.405,-191.003 843.405,-187.503 843.405,-194.503"/>
</g>
<!-- Node4 -->
<g id="node4" class="node"><title>Node4</title>
<g id="a_node4"><a xlink:href="../../de/d6b/class_application.html#a95c827cb5cf08bd0c3cc7b07ed4b4249" target="_top" xlink:title=" ">
<polygon fill="white" stroke="black" points="336,-166.503 336,-185.503 458,-185.503 458,-166.503 336,-166.503"/>
<text text-anchor="middle" x="397" y="-173.503" font-family="Helvetica,sans-Serif" font-size="10.00">Application::fixedUpdate</text>
</a>
</g>
</g>
<!-- Node3&#45;&gt;Node4 -->
<g id="edge3" class="edge"><title>Node3&#45;&gt;Node4</title>
<path fill="none" stroke="midnightblue" d="M665.434,-188.27C606.572,-185.57 517.012,-181.462 458,-178.755"/>
<polygon fill="midnightblue" stroke="midnightblue" points="665.541,-191.779 675.691,-188.741 665.862,-184.786 665.541,-191.779"/>
</g>
<!-- Node5 -->
<g id="node5" class="node"><title>Node5</title>
<g id="a_node5"><a xlink:href="../../de/d6b/class_application.html#a68965449404743bf1add056784d6cf81" target="_top" xlink:title=" ">
<polygon fill="white" stroke="black" points="74,-134.503 74,-153.503 158,-153.503 158,-134.503 74,-134.503"/>
<text text-anchor="middle" x="116" y="-141.503" font-family="Helvetica,sans-Serif" font-size="10.00">Application::run</text>
</a>
</g>
</g>
<!-- Node4&#45;&gt;Node5 -->
<g id="edge4" class="edge"><title>Node4&#45;&gt;Node5</title>
<path fill="none" stroke="midnightblue" d="M325.811,-167.953C272.913,-161.885 202.19,-153.774 158.128,-148.72"/>
<polygon fill="midnightblue" stroke="midnightblue" points="325.471,-171.436 335.805,-169.099 326.269,-164.482 325.471,-171.436"/>
</g>
<!-- Node6 -->
<g id="node6" class="node"><title>Node6</title>
<g id="a_node6"><a xlink:href="../../d5/d12/_main_8cpp.html#a0ddf1224851353fc92bfbff6f499fa97" target="_top" xlink:title=" ">
<polygon fill="white" stroke="black" points="0,-134.503 0,-153.503 38,-153.503 38,-134.503 0,-134.503"/>
<text text-anchor="middle" x="19" y="-141.503" font-family="Helvetica,sans-Serif" font-size="10.00">main</text>
</a>
</g>
</g>
<!-- Node5&#45;&gt;Node6 -->
<g id="edge5" class="edge"><title>Node5&#45;&gt;Node6</title>
<path fill="none" stroke="midnightblue" d="M63.6206,-144.003C54.5384,-144.003 45.6466,-144.003 38.2853,-144.003"/>
<polygon fill="midnightblue" stroke="midnightblue" points="63.8842,-147.503 73.8841,-144.003 63.8841,-140.503 63.8842,-147.503"/>
</g>
<!-- Node7&#45;&gt;Node3 -->
<g id="edge7" class="edge"><title>Node7&#45;&gt;Node3</title>
<path fill="none" stroke="midnightblue" d="M859.492,-223.034C830.238,-215.961 793.705,-207.129 766.414,-200.532"/>
<polygon fill="midnightblue" stroke="midnightblue" points="858.966,-226.508 869.509,-225.456 860.611,-219.704 858.966,-226.508"/>
</g>
<!-- Node8 -->
<g id="node8" class="node"><title>Node8</title>
<g id="a_node8"><a xlink:href="../../dd/d1f/class_game.html#a8986a201a654418cefe34ec28af1a22c" target="_top" xlink:title=" ">
<polygon fill="white" stroke="black" points="515.5,-221.503 515.5,-240.503 599.5,-240.503 599.5,-221.503 515.5,-221.503"/>
<text text-anchor="middle" x="557.5" y="-228.503" font-family="Helvetica,sans-Serif" font-size="10.00">Game::initialize</text>
</a>
</g>
</g>
<!-- Node7&#45;&gt;Node8 -->
<g id="edge8" class="edge"><title>Node7&#45;&gt;Node8</title>
<path fill="none" stroke="midnightblue" d="M831.941,-234.123C760.43,-233.307 656.712,-232.124 599.77,-231.474"/>
<polygon fill="midnightblue" stroke="midnightblue" points="832.209,-237.627 842.249,-234.241 832.289,-230.627 832.209,-237.627"/>
</g>
<!-- Node9 -->
<g id="node9" class="node"><title>Node9</title>
<g id="a_node9"><a xlink:href="../../de/d6b/class_application.html#af431bce25717b04a78d4d0940ed6a92c" target="_top" xlink:title=" ">
<polygon fill="white" stroke="black" points="194,-196.503 194,-215.503 300,-215.503 300,-196.503 194,-196.503"/>
<text text-anchor="middle" x="247" y="-203.503" font-family="Helvetica,sans-Serif" font-size="10.00">Application::initialize</text>
</a>
</g>
</g>
<!-- Node8&#45;&gt;Node9 -->
<g id="edge9" class="edge"><title>Node8&#45;&gt;Node9</title>
<path fill="none" stroke="midnightblue" d="M505.015,-226.831C448.18,-222.225 357.196,-214.852 300.112,-210.226"/>
<polygon fill="midnightblue" stroke="midnightblue" points="504.964,-230.338 515.214,-227.657 505.53,-223.361 504.964,-230.338"/>
</g>
<!-- Node9&#45;&gt;Node5 -->
<g id="edge10" class="edge"><title>Node9&#45;&gt;Node5</title>
<path fill="none" stroke="midnightblue" d="M217.006,-192.068C192.671,-180.372 158.54,-163.968 137.109,-153.667"/>
<polygon fill="midnightblue" stroke="midnightblue" points="215.597,-195.274 226.126,-196.451 218.63,-188.965 215.597,-195.274"/>
</g>
<!-- Node13 -->
<g id="node13" class="node"><title>Node13</title>
<g id="a_node13"><a xlink:href="../../d8/d31/class_rendering_system.html#a9f1ec48fdfa79ddc55421b6014fdb9c6" target="_top" xlink:title=" ">
<polygon fill="white" stroke="black" points="657,-113.503 657,-132.503 795,-132.503 795,-113.503 657,-113.503"/>
<text text-anchor="middle" x="726" y="-120.503" font-family="Helvetica,sans-Serif" font-size="10.00">RenderingSystem::renderAll</text>
</a>
</g>
</g>
<!-- Node12&#45;&gt;Node13 -->
<g id="edge14" class="edge"><title>Node12&#45;&gt;Node13</title>
<path fill="none" stroke="midnightblue" d="M820.709,-123.003C812.12,-123.003 803.498,-123.003 795.15,-123.003"/>
<polygon fill="midnightblue" stroke="midnightblue" points="820.759,-126.503 830.759,-123.003 820.759,-119.503 820.759,-126.503"/>
</g>
<!-- Node14 -->
<g id="node14" class="node"><title>Node14</title>
<g id="a_node14"><a xlink:href="../../d8/d31/class_rendering_system.html#ae6a25f6b28ebe40f08916d9eadc95ac2" target="_top" xlink:title=" ">
<polygon fill="white" stroke="black" points="494,-113.503 494,-132.503 621,-132.503 621,-113.503 494,-113.503"/>
<text text-anchor="middle" x="557.5" y="-120.503" font-family="Helvetica,sans-Serif" font-size="10.00">RenderingSystem::render</text>
</a>
</g>
</g>
<!-- Node13&#45;&gt;Node14 -->
<g id="edge15" class="edge"><title>Node13&#45;&gt;Node14</title>
<path fill="none" stroke="midnightblue" d="M646.795,-123.003C638.227,-123.003 629.588,-123.003 621.242,-123.003"/>
<polygon fill="midnightblue" stroke="midnightblue" points="646.798,-126.503 656.798,-123.003 646.798,-119.503 646.798,-126.503"/>
</g>
<!-- Node15 -->
<g id="node15" class="node"><title>Node15</title>
<g id="a_node15"><a xlink:href="../../dd/d1f/class_game.html#a15ddd769261d923827a3cdf41499c843" target="_top" xlink:title=" ">
<polygon fill="white" stroke="black" points="359,-113.503 359,-132.503 435,-132.503 435,-113.503 359,-113.503"/>
<text text-anchor="middle" x="397" y="-120.503" font-family="Helvetica,sans-Serif" font-size="10.00">Game::render</text>
</a>
</g>
</g>
<!-- Node14&#45;&gt;Node15 -->
<g id="edge16" class="edge"><title>Node14&#45;&gt;Node15</title>
<path fill="none" stroke="midnightblue" d="M483.492,-123.003C466.725,-123.003 449.582,-123.003 435.092,-123.003"/>
<polygon fill="midnightblue" stroke="midnightblue" points="483.857,-126.503 493.857,-123.003 483.857,-119.503 483.857,-126.503"/>
</g>
<!-- Node16 -->
<g id="node16" class="node"><title>Node16</title>
<g id="a_node16"><a xlink:href="../../de/d6b/class_application.html#a9ac99d97ee1cc814298a2f2388bde835" target="_top" xlink:title=" ">
<polygon fill="white" stroke="black" points="198,-114.503 198,-133.503 296,-133.503 296,-114.503 198,-114.503"/>
<text text-anchor="middle" x="247" y="-121.503" font-family="Helvetica,sans-Serif" font-size="10.00">Application::render</text>
</a>
</g>
</g>
<!-- Node15&#45;&gt;Node16 -->
<g id="edge17" class="edge"><title>Node15&#45;&gt;Node16</title>
<path fill="none" stroke="midnightblue" d="M348.553,-123.323C331.839,-123.436 313.042,-123.563 296.262,-123.677"/>
<polygon fill="midnightblue" stroke="midnightblue" points="348.677,-126.823 358.653,-123.255 348.63,-119.823 348.677,-126.823"/>
</g>
<!-- Node16&#45;&gt;Node5 -->
<g id="edge18" class="edge"><title>Node16&#45;&gt;Node5</title>
<path fill="none" stroke="midnightblue" d="M188.043,-132.988C178.014,-134.543 167.771,-136.131 158.299,-137.6"/>
<polygon fill="midnightblue" stroke="midnightblue" points="188.619,-136.441 197.965,-131.45 187.547,-129.524 188.619,-136.441"/>
</g>
<!-- Node17&#45;&gt;Node13 -->
<g id="edge20" class="edge"><title>Node17&#45;&gt;Node13</title>
<path fill="none" stroke="midnightblue" d="M853.054,-96.6839C827.244,-102.073 796.993,-108.389 772.596,-113.483"/>
<polygon fill="midnightblue" stroke="midnightblue" points="854,-100.062 863.074,-94.5919 852.569,-93.2097 854,-100.062"/>
</g>
<!-- Node18&#45;&gt;Node17 -->
<g id="edge22" class="edge"><title>Node18&#45;&gt;Node17</title>
<path fill="none" stroke="midnightblue" d="M1047.39,-58.4923C1019.5,-63.9142 986.598,-70.3087 960.101,-75.459"/>
<polygon fill="midnightblue" stroke="midnightblue" points="1048.27,-61.8866 1057.42,-56.5428 1046.94,-55.0152 1048.27,-61.8866"/>
</g>
<!-- Node20 -->
<g id="node20" class="node"><title>Node20</title>
<g id="a_node20"><a xlink:href="../../dd/d1f/class_game.html#a79df6376b332d63c9eca0dcee30305c3" target="_top" xlink:title=" ">
<polygon fill="white" stroke="black" points="687,-37.5029 687,-56.5029 765,-56.5029 765,-37.5029 687,-37.5029"/>
<text text-anchor="middle" x="726" y="-44.5029" font-family="Helvetica,sans-Serif" font-size="10.00">Game::update</text>
</a>
</g>
</g>
<!-- Node19&#45;&gt;Node20 -->
<g id="edge24" class="edge"><title>Node19&#45;&gt;Node20</title>
<path fill="none" stroke="midnightblue" d="M837.791,-35.4368C813.024,-38.0224 786.201,-40.8225 765.152,-43.0199"/>
<polygon fill="midnightblue" stroke="midnightblue" points="838.308,-38.9019 847.89,-34.3824 837.581,-31.9398 838.308,-38.9019"/>
</g>
<!-- Node21 -->
<g id="node21" class="node"><title>Node21</title>
<g id="a_node21"><a xlink:href="../../de/d6b/class_application.html#a051023103d00b96b1e5e7437fd8e2e7c" target="_top" xlink:title=" ">
<polygon fill="white" stroke="black" points="507.5,-56.5029 507.5,-75.5029 607.5,-75.5029 607.5,-56.5029 507.5,-56.5029"/>
<text text-anchor="middle" x="557.5" y="-63.5029" font-family="Helvetica,sans-Serif" font-size="10.00">Application::update</text>
</a>
</g>
</g>
<!-- Node20&#45;&gt;Node21 -->
<g id="edge25" class="edge"><title>Node20&#45;&gt;Node21</title>
<path fill="none" stroke="midnightblue" d="M676.799,-52.5032C655.065,-54.9834 629.432,-57.9085 607.593,-60.4007"/>
<polygon fill="midnightblue" stroke="midnightblue" points="677.263,-55.9732 686.802,-51.3618 676.469,-49.0183 677.263,-55.9732"/>
</g>
<!-- Node21&#45;&gt;Node5 -->
<g id="edge26" class="edge"><title>Node21&#45;&gt;Node5</title>
<path fill="none" stroke="midnightblue" d="M496.971,-65.8874C424.078,-67.2185 297.543,-74.3295 194,-105.003 171.155,-111.77 146.985,-125.176 131.948,-134.363"/>
<polygon fill="midnightblue" stroke="midnightblue" points="497.382,-69.3817 507.327,-65.7309 497.276,-62.3825 497.382,-69.3817"/>
</g>
<!-- Node22&#45;&gt;Node2 -->
<g id="edge28" class="edge"><title>Node22&#45;&gt;Node2</title>
<path fill="none" stroke="midnightblue" d="M1040.66,-207.584C1016.7,-204.519 989.852,-201.086 966.835,-198.143"/>
<polygon fill="midnightblue" stroke="midnightblue" points="1040.38,-211.076 1050.74,-208.872 1041.26,-204.132 1040.38,-211.076"/>
</g>
<!-- Node23&#45;&gt;Node2 -->
<g id="edge30" class="edge"><title>Node23&#45;&gt;Node2</title>
<path fill="none" stroke="midnightblue" d="M1040.66,-175.085C1016.7,-178.027 989.852,-181.323 966.835,-184.148"/>
<polygon fill="midnightblue" stroke="midnightblue" points="1041.24,-178.541 1050.74,-173.848 1040.39,-171.593 1041.24,-178.541"/>
</g>
</g>
</svg>
        <g id="navigator" transform="translate(0 0)" fill="#404254">
                <rect fill="#f2f5e9" fill-opacity="0.5" stroke="#606060" stroke-width=".5" x="0" y="0" width="60" height="60"/>
                <use id="zoomplus" xlink:href="#zoomPlus" x="17" y="9" onmousedown="handleZoom(evt,'in')"/>
                <use id="zoomminus" xlink:href="#zoomMin" x="42" y="9" onmousedown="handleZoom(evt,'out')"/>
                <use id="reset" xlink:href="#resetDef" x="30" y="36" onmousedown="handleReset()"/>
                <g id="arrowUp" xlink:href="#dirArrow" transform="translate(30 24)" onmousedown="handlePan(0,-1)">
                  <use xlink:href="#rim" fill="#404040">
                        <set attributeName="fill" to="#808080" begin="arrowUp.mouseover" end="arrowUp.mouseout"/>
                  </use>
                  <path fill="none" stroke="white" stroke-width="1.5" d="M0,-3.0v7 M-2.5,-0.5L0,-3.0L2.5,-0.5"/>
                </g>
                <g id="arrowRight" xlink:href="#dirArrow" transform="rotate(90) translate(36 -43)" onmousedown="handlePan(1,0)">
                  <use xlink:href="#rim" fill="#404040">
                        <set attributeName="fill" to="#808080" begin="arrowRight.mouseover" end="arrowRight.mouseout"/>
                  </use>
                  <path fill="none" stroke="white" stroke-width="1.5" d="M0,-3.0v7 M-2.5,-0.5L0,-3.0L2.5,-0.5"/>
                </g>
                <g id="arrowDown" xlink:href="#dirArrow" transform="rotate(180) translate(-30 -48)" onmousedown="handlePan(0,1)">
                  <use xlink:href="#rim" fill="#404040">
                        <set attributeName="fill" to="#808080" begin="arrowDown.mouseover" end="arrowDown.mouseout"/>
                  </use>
                  <path fill="none" stroke="white" stroke-width="1.5" d="M0,-3.0v7 M-2.5,-0.5L0,-3.0L2.5,-0.5"/>
                </g>
                <g id="arrowLeft" xlink:href="#dirArrow" transform="rotate(270) translate(-36 17)" onmousedown="handlePan(-1,0)">
                  <use xlink:href="#rim" fill="#404040">
                        <set attributeName="fill" to="#808080" begin="arrowLeft.mouseover" end="arrowLeft.mouseout"/>
                  </use>
                  <path fill="none" stroke="white" stroke-width="1.5" d="M0,-3.0v7 M-2.5,-0.5L0,-3.0L2.5,-0.5"/>
                </g>
        </g>
        <svg viewBox="0 0 15 15" width="100%" height="30px" preserveAspectRatio="xMaxYMin meet">
         <g id="arrow_out" transform="scale(0.3 0.3)">
          <a xlink:href="class_scene_a65d6f6cd75b250c657d5d4a267c4b245_icgraph_org.svg" target="_base">
           <rect id="button" ry="5" rx="5" y="6" x="6" height="38" width="38"
                fill="#f2f5e9" fill-opacity="0.5" stroke="#606060" stroke-width="1.0"/>
           <path id="arrow"
             d="M 11.500037,31.436501 C 11.940474,20.09759 22.043105,11.32322 32.158766,21.979434 L 37.068811,17.246167 C 37.068811,17.246167 37.088388,32 37.088388,32 L 22.160133,31.978069 C 22.160133,31.978069 26.997745,27.140456 26.997745,27.140456 C 18.528582,18.264221 13.291696,25.230495 11.500037,31.436501 z"
             style="fill:#404040;"/>
          </a>
         </g>
        </svg>
</svg>
