<?xml version="1.0" encoding="UTF-8" standalone="no"?>
<!DOCTYPE svg PUBLIC "-//W3C//DTD SVG 1.1//EN"
 "http://www.w3.org/Graphics/SVG/1.1/DTD/svg11.dtd">
<!-- Generated by graphviz version 2.38.0 (20140413.2041)
 -->
<!-- Title: CubeTrigger Pages: 1 -->
<!--zoomable 312 -->
<svg id="main" version="1.1" xmlns="http://www.w3.org/2000/svg" xmlns:xlink="http://www.w3.org/1999/xlink" xml:space="preserve" onload="init(evt)">
<style type="text/css"><![CDATA[
.edge:hover path { stroke: red; }
.edge:hover polygon { stroke: red; fill: red; }
]]></style>
<script type="text/javascript"><![CDATA[
var edges = document.getElementsByTagName('g');
if (edges && edges.length) {
  for (var i=0;i<edges.length;i++) {
    if (edges[i].id.substr(0,4)=='edge') {
      edges[i].setAttribute('class','edge');
    }
  }
}
]]></script>
        <defs>
                <circle id="rim" cx="0" cy="0" r="7"/>
                <circle id="rim2" cx="0" cy="0" r="3.5"/>
                <g id="zoomPlus">
                        <use xlink:href="#rim" fill="#404040">
                                <set attributeName="fill" to="#808080" begin="zoomplus.mouseover" end="zoomplus.mouseout"/>
                        </use>
                        <path d="M-4,0h8M0,-4v8" fill="none" stroke="white" stroke-width="1.5" pointer-events="none"/>
                </g>
                <g id="zoomMin">
                        <use xlink:href="#rim" fill="#404040">
                                <set attributeName="fill" to="#808080" begin="zoomminus.mouseover" end="zoomminus.mouseout"/>
                        </use>
                        <path d="M-4,0h8" fill="none" stroke="white" stroke-width="1.5" pointer-events="none"/>
                </g>
                <g id="dirArrow">
                        <path fill="none" stroke="white" stroke-width="1.5" d="M0,-3.0v7 M-2.5,-0.5L0,-3.0L2.5,-0.5"/>
                </g>
               <g id="resetDef">
                       <use xlink:href="#rim2" fill="#404040">
                               <set attributeName="fill" to="#808080" begin="reset.mouseover" end="reset.mouseout"/>
                       </use>
               </g>
        </defs>

<script type="text/javascript">
var viewWidth = 837;
var viewHeight = 312;
var sectionId = 'dynsection-1';
</script>
<script xlink:href="../../svgpan.js"/>
<svg id="graph" class="graph">
<g id="viewport">
<title>CubeTrigger</title>
<polygon fill="white" stroke="none" points="-4,4 -4,-308 833,-308 833,4 -4,4"/>
<!-- Node1 -->
<g id="node1" class="node"><title>Node1</title>
<g id="a_node1"><a xlink:title=" ">
<polygon fill="#bfbfbf" stroke="black" points="761,-170.5 761,-189.5 829,-189.5 829,-170.5 761,-170.5"/>
<text text-anchor="middle" x="795" y="-177.5" font-family="Helvetica,sans-Serif" font-size="10.00">CubeTrigger</text>
</a>
</g>
</g>
<!-- Node2 -->
<g id="node2" class="node"><title>Node2</title>
<g id="a_node2"><a xlink:href="../../d3/d43/class_entity_wrapper.html" target="_top" xlink:title=" ">
<polygon fill="white" stroke="black" points="583,-246.5 583,-265.5 662,-265.5 662,-246.5 583,-246.5"/>
<text text-anchor="middle" x="622.5" y="-253.5" font-family="Helvetica,sans-Serif" font-size="10.00">EntityWrapper</text>
</a>
</g>
</g>
<!-- Node2&#45;&gt;Node1 -->
<g id="edge1" class="edge"><title>Node2&#45;&gt;Node1</title>
<path fill="none" stroke="midnightblue" d="M672.134,-246.952C694.533,-241.6 720.969,-233.556 743,-222 759.252,-213.476 775.111,-199.2 784.72,-189.693"/>
<polygon fill="midnightblue" stroke="midnightblue" points="671.129,-243.591 662.156,-249.224 672.684,-250.416 671.129,-243.591"/>
</g>
<!-- Node3 -->
<g id="node3" class="node"><title>Node3</title>
<g id="a_node3"><a xlink:href="../../d1/d51/class_shader.html" target="_top" xlink:title=" ">
<polygon fill="white" stroke="black" points="599,-208.5 599,-227.5 646,-227.5 646,-208.5 599,-208.5"/>
<text text-anchor="middle" x="622.5" y="-215.5" font-family="Helvetica,sans-Serif" font-size="10.00">Shader</text>
</a>
</g>
</g>
<!-- Node3&#45;&gt;Node1 -->
<g id="edge2" class="edge"><title>Node3&#45;&gt;Node1</title>
<path fill="none" stroke="#9a32cd" stroke-dasharray="5,2" d="M656.1,-212.088C680.2,-207.564 713.766,-200.939 743,-194 748.807,-192.622 754.953,-191.041 760.891,-189.449"/>
<polygon fill="#9a32cd" stroke="#9a32cd" points="655.259,-208.684 646.067,-213.953 656.538,-215.567 655.259,-208.684"/>
<text text-anchor="middle" x="711.5" y="-210" font-family="Helvetica,sans-Serif" font-size="10.00"> shader</text>
</g>
<!-- Node4 -->
<g id="node4" class="node"><title>Node4</title>
<g id="a_node4"><a xlink:href="../../d2/d00/class_component.html" target="_top" xlink:title=" ">
<polygon fill="white" stroke="black" points="362,-246.5 362,-265.5 477,-265.5 477,-246.5 362,-246.5"/>
<text text-anchor="middle" x="419.5" y="-253.5" font-family="Helvetica,sans-Serif" font-size="10.00">Component&lt; Shader &gt;</text>
</a>
</g>
</g>
<!-- Node4&#45;&gt;Node3 -->
<g id="edge3" class="edge"><title>Node4&#45;&gt;Node3</title>
<path fill="none" stroke="midnightblue" d="M486.976,-246.866C511.589,-243.105 539.663,-238.365 565,-233 576.219,-230.624 588.543,-227.423 598.809,-224.588"/>
<polygon fill="midnightblue" stroke="midnightblue" points="486.384,-243.416 477.016,-248.365 487.425,-250.338 486.384,-243.416"/>
</g>
<!-- Node5 -->
<g id="node5" class="node"><title>Node5</title>
<g id="a_node5"><a xlink:href="../../d5/d79/class_component_interface.html" target="_top" xlink:title=" ">
<polygon fill="white" stroke="black" points="0,-153.5 0,-172.5 103,-172.5 103,-153.5 0,-153.5"/>
<text text-anchor="middle" x="51.5" y="-160.5" font-family="Helvetica,sans-Serif" font-size="10.00">ComponentInterface</text>
</a>
</g>
</g>
<!-- Node5&#45;&gt;Node4 -->
<g id="edge4" class="edge"><title>Node5&#45;&gt;Node4</title>
<path fill="none" stroke="midnightblue" d="M66.4207,-180.693C82.0954,-199.143 109.405,-227.132 140,-240 211.986,-270.278 303.782,-268.76 361.871,-263.49"/>
<polygon fill="midnightblue" stroke="midnightblue" points="68.9373,-178.243 59.882,-172.743 63.5308,-182.689 68.9373,-178.243"/>
</g>
<!-- Node6 -->
<g id="node6" class="node"><title>Node6</title>
<g id="a_node6"><a xlink:href="../../d2/d00/class_component.html" target="_top" xlink:title=" ">
<polygon fill="white" stroke="black" points="140,-153.5 140,-172.5 229,-172.5 229,-153.5 140,-153.5"/>
<text text-anchor="middle" x="184.5" y="-160.5" font-family="Helvetica,sans-Serif" font-size="10.00">Component&lt; T &gt;</text>
</a>
</g>
</g>
<!-- Node5&#45;&gt;Node6 -->
<g id="edge6" class="edge"><title>Node5&#45;&gt;Node6</title>
<path fill="none" stroke="midnightblue" d="M113.194,-163C122.17,-163 131.266,-163 139.805,-163"/>
<polygon fill="midnightblue" stroke="midnightblue" points="113.148,-159.5 103.148,-163 113.148,-166.5 113.148,-159.5"/>
</g>
<!-- Node10 -->
<g id="node10" class="node"><title>Node10</title>
<g id="a_node10"><a xlink:href="../../d2/d00/class_component.html" target="_top" xlink:title=" ">
<polygon fill="white" stroke="black" points="360,-170.5 360,-189.5 479,-189.5 479,-170.5 360,-170.5"/>
<text text-anchor="middle" x="419.5" y="-177.5" font-family="Helvetica,sans-Serif" font-size="10.00">Component&lt; Material &gt;</text>
</a>
</g>
</g>
<!-- Node5&#45;&gt;Node10 -->
<g id="edge11" class="edge"><title>Node5&#45;&gt;Node10</title>
<path fill="none" stroke="midnightblue" d="M74.8968,-177.996C123.82,-208.714 242.75,-272.159 329,-226 341.716,-219.195 335.273,-207.395 347,-199 352.431,-195.112 358.606,-192.02 364.998,-189.561"/>
<polygon fill="midnightblue" stroke="midnightblue" points="76.6438,-174.959 66.3375,-172.503 72.863,-180.85 76.6438,-174.959"/>
</g>
<!-- Node12 -->
<g id="node12" class="node"><title>Node12</title>
<g id="a_node12"><a xlink:href="../../d2/d00/class_component.html" target="_top" xlink:title=" ">
<polygon fill="white" stroke="black" points="347,-132.5 347,-151.5 492,-151.5 492,-132.5 347,-132.5"/>
<text text-anchor="middle" x="419.5" y="-139.5" font-family="Helvetica,sans-Serif" font-size="10.00">Component&lt; CollisionMesh &gt;</text>
</a>
</g>
</g>
<!-- Node5&#45;&gt;Node12 -->
<g id="edge15" class="edge"><title>Node5&#45;&gt;Node12</title>
<path fill="none" stroke="midnightblue" d="M81.2671,-149.073C118.487,-131.899 185.825,-103.673 247,-93 282.902,-86.7361 297.286,-75.0439 329,-93 342.531,-100.661 334.575,-113.651 347,-123 352.132,-126.861 357.986,-129.939 364.086,-132.392"/>
<polygon fill="midnightblue" stroke="midnightblue" points="79.6108,-145.984 72.0364,-153.392 82.5773,-152.324 79.6108,-145.984"/>
</g>
<!-- Node15 -->
<g id="node15" class="node"><title>Node15</title>
<g id="a_node15"><a xlink:href="../../d2/d00/class_component.html" target="_top" xlink:title=" ">
<polygon fill="white" stroke="black" points="364.5,-53.5 364.5,-72.5 474.5,-72.5 474.5,-53.5 364.5,-53.5"/>
<text text-anchor="middle" x="419.5" y="-60.5" font-family="Helvetica,sans-Serif" font-size="10.00">Component&lt; Model &gt;</text>
</a>
</g>
</g>
<!-- Node5&#45;&gt;Node15 -->
<g id="edge20" class="edge"><title>Node5&#45;&gt;Node15</title>
<path fill="none" stroke="midnightblue" d="M68.1272,-145.89C84.3514,-129.34 111.332,-105.047 140,-93 213.301,-62.1967 306.572,-58.5027 364.405,-59.8549"/>
<polygon fill="midnightblue" stroke="midnightblue" points="65.4277,-143.65 61.0664,-153.305 70.4971,-148.477 65.4277,-143.65"/>
</g>
<!-- Node6&#45;&gt;Node4 -->
<g id="edge5" class="edge"><title>Node6&#45;&gt;Node4</title>
<path fill="none" stroke="orange" stroke-dasharray="5,2" d="M213.052,-177.375C244.729,-193.486 298.597,-219.622 347,-237 356.792,-240.515 367.545,-243.708 377.671,-246.431"/>
<polygon fill="orange" stroke="orange" points="214.46,-174.164 203.964,-172.717 211.267,-180.393 214.46,-174.164"/>
<text text-anchor="middle" x="288" y="-233" font-family="Helvetica,sans-Serif" font-size="10.00"> &lt; Shader &gt;</text>
</g>
<!-- Node6&#45;&gt;Node10 -->
<g id="edge12" class="edge"><title>Node6&#45;&gt;Node10</title>
<path fill="none" stroke="orange" stroke-dasharray="5,2" d="M239.367,-166.93C275.391,-169.559 322.785,-173.017 359.775,-175.715"/>
<polygon fill="orange" stroke="orange" points="239.28,-163.415 229.052,-166.178 238.771,-170.396 239.28,-163.415"/>
<text text-anchor="middle" x="288" y="-176" font-family="Helvetica,sans-Serif" font-size="10.00"> &lt; Material &gt;</text>
</g>
<!-- Node6&#45;&gt;Node12 -->
<g id="edge16" class="edge"><title>Node6&#45;&gt;Node12</title>
<path fill="none" stroke="orange" stroke-dasharray="5,2" d="M239.235,-153.007C241.856,-152.64 244.455,-152.301 247,-152 279.729,-148.133 316.156,-145.741 346.992,-144.271"/>
<polygon fill="orange" stroke="orange" points="238.443,-149.587 229.08,-154.546 239.492,-156.508 238.443,-149.587"/>
<text text-anchor="middle" x="288" y="-155" font-family="Helvetica,sans-Serif" font-size="10.00"> &lt; CollisionMesh &gt;</text>
</g>
<!-- Node6&#45;&gt;Node15 -->
<g id="edge21" class="edge"><title>Node6&#45;&gt;Node15</title>
<path fill="none" stroke="orange" stroke-dasharray="5,2" d="M211.542,-148.508C222.414,-142.594 235.23,-135.797 247,-130 290.721,-108.465 301.399,-102.2 347,-85 359.03,-80.4624 372.449,-76.1443 384.383,-72.5544"/>
<polygon fill="orange" stroke="orange" points="209.651,-145.554 202.565,-153.431 213.016,-151.692 209.651,-145.554"/>
<text text-anchor="middle" x="288" y="-133" font-family="Helvetica,sans-Serif" font-size="10.00"> &lt; Model &gt;</text>
</g>
<!-- Node7 -->
<g id="node7" class="node"><title>Node7</title>
<g id="a_node7"><a xlink:title=" ">
<polygon fill="white" stroke="#bfbfbf" points="375.5,-208.5 375.5,-227.5 463.5,-227.5 463.5,-208.5 375.5,-208.5"/>
<text text-anchor="middle" x="419.5" y="-215.5" font-family="Helvetica,sans-Serif" font-size="10.00">SHADER_TYPE</text>
</a>
</g>
</g>
<!-- Node7&#45;&gt;Node3 -->
<g id="edge7" class="edge"><title>Node7&#45;&gt;Node3</title>
<path fill="none" stroke="#9a32cd" stroke-dasharray="5,2" d="M473.689,-218C514.532,-218 568.882,-218 598.997,-218"/>
<polygon fill="#9a32cd" stroke="#9a32cd" points="473.62,-214.5 463.62,-218 473.62,-221.5 473.62,-214.5"/>
<text text-anchor="middle" x="537.5" y="-221" font-family="Helvetica,sans-Serif" font-size="10.00"> shaderType</text>
</g>
<!-- Node8 -->
<g id="node8" class="node"><title>Node8</title>
<g id="a_node8"><a xlink:title=" ">
<polygon fill="white" stroke="#bfbfbf" points="375.5,-284.5 375.5,-303.5 463.5,-303.5 463.5,-284.5 375.5,-284.5"/>
<text text-anchor="middle" x="419.5" y="-291.5" font-family="Helvetica,sans-Serif" font-size="10.00">SHADER_TASK</text>
</a>
</g>
</g>
<!-- Node8&#45;&gt;Node3 -->
<g id="edge8" class="edge"><title>Node8&#45;&gt;Node3</title>
<path fill="none" stroke="#9a32cd" stroke-dasharray="5,2" d="M467.809,-281.842C475.902,-279.644 484.209,-277.314 492,-275 524.74,-265.277 534.855,-267.053 565,-251 573.945,-246.236 574.412,-242.381 583,-237 588.432,-233.596 594.559,-230.335 600.301,-227.505"/>
<polygon fill="#9a32cd" stroke="#9a32cd" points="466.846,-278.477 458.093,-284.447 468.659,-285.238 466.846,-278.477"/>
<text text-anchor="middle" x="537.5" y="-272" font-family="Helvetica,sans-Serif" font-size="10.00"> currentTask</text>
</g>
<!-- Node9 -->
<g id="node9" class="node"><title>Node9</title>
<g id="a_node9"><a xlink:href="../../d3/d0a/struct_material.html" target="_top" xlink:title=" ">
<polygon fill="white" stroke="black" points="597,-170.5 597,-189.5 648,-189.5 648,-170.5 597,-170.5"/>
<text text-anchor="middle" x="622.5" y="-177.5" font-family="Helvetica,sans-Serif" font-size="10.00">Material</text>
</a>
</g>
</g>
<!-- Node9&#45;&gt;Node1 -->
<g id="edge9" class="edge"><title>Node9&#45;&gt;Node1</title>
<path fill="none" stroke="#9a32cd" stroke-dasharray="5,2" d="M658.333,-180C688.382,-180 731.474,-180 760.982,-180"/>
<polygon fill="#9a32cd" stroke="#9a32cd" points="658.292,-176.5 648.292,-180 658.292,-183.5 658.292,-176.5"/>
<text text-anchor="middle" x="711.5" y="-183" font-family="Helvetica,sans-Serif" font-size="10.00"> material</text>
</g>
<!-- Node10&#45;&gt;Node9 -->
<g id="edge10" class="edge"><title>Node10&#45;&gt;Node9</title>
<path fill="none" stroke="midnightblue" d="M489.484,-180C526.697,-180 570.325,-180 596.93,-180"/>
<polygon fill="midnightblue" stroke="midnightblue" points="489.178,-176.5 479.178,-180 489.178,-183.5 489.178,-176.5"/>
</g>
<!-- Node11 -->
<g id="node11" class="node"><title>Node11</title>
<g id="a_node11"><a xlink:href="../../d4/daa/class_collision_mesh.html" target="_top" xlink:title=" ">
<polygon fill="white" stroke="black" points="584,-132.5 584,-151.5 661,-151.5 661,-132.5 584,-132.5"/>
<text text-anchor="middle" x="622.5" y="-139.5" font-family="Helvetica,sans-Serif" font-size="10.00">CollisionMesh</text>
</a>
</g>
</g>
<!-- Node11&#45;&gt;Node1 -->
<g id="edge13" class="edge"><title>Node11&#45;&gt;Node1</title>
<path fill="none" stroke="#9a32cd" stroke-dasharray="5,2" d="M671.188,-150.095C693.16,-154.102 719.515,-159.3 743,-165 749.637,-166.611 756.698,-168.544 763.384,-170.478"/>
<polygon fill="#9a32cd" stroke="#9a32cd" points="671.568,-146.608 661.107,-148.284 670.33,-153.497 671.568,-146.608"/>
<text text-anchor="middle" x="711.5" y="-168" font-family="Helvetica,sans-Serif" font-size="10.00"> collisionMesh</text>
</g>
<!-- Node12&#45;&gt;Node11 -->
<g id="edge14" class="edge"><title>Node12&#45;&gt;Node11</title>
<path fill="none" stroke="midnightblue" d="M502.514,-142C530.763,-142 561.032,-142 583.97,-142"/>
<polygon fill="midnightblue" stroke="midnightblue" points="502.214,-138.5 492.214,-142 502.214,-145.5 502.214,-138.5"/>
</g>
<!-- Node13 -->
<g id="node13" class="node"><title>Node13</title>
<g id="a_node13"><a xlink:href="../../dc/d34/struct_collision_tag.html" target="_top" xlink:title=" ">
<polygon fill="white" stroke="black" points="385,-94.5 385,-113.5 454,-113.5 454,-94.5 385,-94.5"/>
<text text-anchor="middle" x="419.5" y="-101.5" font-family="Helvetica,sans-Serif" font-size="10.00">CollisionTag</text>
</a>
</g>
</g>
<!-- Node13&#45;&gt;Node11 -->
<g id="edge17" class="edge"><title>Node13&#45;&gt;Node11</title>
<path fill="none" stroke="#9a32cd" stroke-dasharray="5,2" d="M464.389,-109.803C493.141,-113.894 531.468,-119.899 565,-127 572.446,-128.577 580.379,-130.517 587.874,-132.473"/>
<polygon fill="#9a32cd" stroke="#9a32cd" points="464.645,-106.304 454.256,-108.383 463.673,-113.237 464.645,-106.304"/>
<text text-anchor="middle" x="537.5" y="-130" font-family="Helvetica,sans-Serif" font-size="10.00"> thisTag</text>
</g>
<!-- Node14 -->
<g id="node14" class="node"><title>Node14</title>
<g id="a_node14"><a xlink:href="../../d3/d96/class__3_d_m_1_1_model.html" target="_top" xlink:title=" ">
<polygon fill="white" stroke="black" points="585.5,-53.5 585.5,-72.5 659.5,-72.5 659.5,-53.5 585.5,-53.5"/>
<text text-anchor="middle" x="622.5" y="-60.5" font-family="Helvetica,sans-Serif" font-size="10.00">_3DM::Model</text>
</a>
</g>
</g>
<!-- Node14&#45;&gt;Node1 -->
<g id="edge18" class="edge"><title>Node14&#45;&gt;Node1</title>
<path fill="none" stroke="#9a32cd" stroke-dasharray="5,2" d="M649.901,-77.468C674.656,-91.4158 712.345,-113.644 743,-136 757.928,-146.887 773.856,-161.096 783.864,-170.379"/>
<polygon fill="#9a32cd" stroke="#9a32cd" points="651.525,-74.3664 641.088,-72.5448 648.111,-80.4774 651.525,-74.3664"/>
<text text-anchor="middle" x="711.5" y="-139" font-family="Helvetica,sans-Serif" font-size="10.00"> model</text>
</g>
<!-- Node15&#45;&gt;Node14 -->
<g id="edge19" class="edge"><title>Node15&#45;&gt;Node14</title>
<path fill="none" stroke="midnightblue" d="M484.74,-63C518.019,-63 557.424,-63 585.367,-63"/>
<polygon fill="midnightblue" stroke="midnightblue" points="484.629,-59.5001 474.629,-63 484.629,-66.5001 484.629,-59.5001"/>
</g>
<!-- Node16 -->
<g id="node16" class="node"><title>Node16</title>
<g id="a_node16"><a xlink:href="../../d1/d75/class_model_base.html" target="_top" xlink:title=" ">
<polygon fill="white" stroke="black" points="387,-9.5 387,-28.5 452,-28.5 452,-9.5 387,-9.5"/>
<text text-anchor="middle" x="419.5" y="-16.5" font-family="Helvetica,sans-Serif" font-size="10.00">ModelBase</text>
</a>
</g>
</g>
<!-- Node16&#45;&gt;Node14 -->
<g id="edge22" class="edge"><title>Node16&#45;&gt;Node14</title>
<path fill="none" stroke="midnightblue" d="M462.158,-28.1191C498.524,-36.08 550.76,-47.5146 585.385,-55.0942"/>
<polygon fill="midnightblue" stroke="midnightblue" points="462.866,-24.6914 452.349,-25.9719 461.369,-31.5295 462.866,-24.6914"/>
</g>
<!-- Node17 -->
<g id="node17" class="node"><title>Node17</title>
<g id="a_node17"><a xlink:href="../../dd/d69/struct_transform.html" target="_top" xlink:title=" ">
<polygon fill="white" stroke="black" points="155,-0.5 155,-19.5 214,-19.5 214,-0.5 155,-0.5"/>
<text text-anchor="middle" x="184.5" y="-7.5" font-family="Helvetica,sans-Serif" font-size="10.00">Transform</text>
</a>
</g>
</g>
<!-- Node17&#45;&gt;Node16 -->
<g id="edge23" class="edge"><title>Node17&#45;&gt;Node16</title>
<path fill="none" stroke="#9a32cd" stroke-dasharray="5,2" d="M224.145,-11.4927C269.659,-13.2508 344.407,-16.1381 386.713,-17.7722"/>
<polygon fill="#9a32cd" stroke="#9a32cd" points="224.198,-7.99226 214.07,-11.1036 223.928,-14.987 224.198,-7.99226"/>
<text text-anchor="middle" x="288" y="-19" font-family="Helvetica,sans-Serif" font-size="10.00"> transform</text>
</g>
</g>
</svg>
        <g id="navigator" transform="translate(0 0)" fill="#404254">
                <rect fill="#f2f5e9" fill-opacity="0.5" stroke="#606060" stroke-width=".5" x="0" y="0" width="60" height="60"/>
                <use id="zoomplus" xlink:href="#zoomPlus" x="17" y="9" onmousedown="handleZoom(evt,'in')"/>
                <use id="zoomminus" xlink:href="#zoomMin" x="42" y="9" onmousedown="handleZoom(evt,'out')"/>
                <use id="reset" xlink:href="#resetDef" x="30" y="36" onmousedown="handleReset()"/>
                <g id="arrowUp" xlink:href="#dirArrow" transform="translate(30 24)" onmousedown="handlePan(0,-1)">
                  <use xlink:href="#rim" fill="#404040">
                        <set attributeName="fill" to="#808080" begin="arrowUp.mouseover" end="arrowUp.mouseout"/>
                  </use>
                  <path fill="none" stroke="white" stroke-width="1.5" d="M0,-3.0v7 M-2.5,-0.5L0,-3.0L2.5,-0.5"/>
                </g>
                <g id="arrowRight" xlink:href="#dirArrow" transform="rotate(90) translate(36 -43)" onmousedown="handlePan(1,0)">
                  <use xlink:href="#rim" fill="#404040">
                        <set attributeName="fill" to="#808080" begin="arrowRight.mouseover" end="arrowRight.mouseout"/>
                  </use>
                  <path fill="none" stroke="white" stroke-width="1.5" d="M0,-3.0v7 M-2.5,-0.5L0,-3.0L2.5,-0.5"/>
                </g>
                <g id="arrowDown" xlink:href="#dirArrow" transform="rotate(180) translate(-30 -48)" onmousedown="handlePan(0,1)">
                  <use xlink:href="#rim" fill="#404040">
                        <set attributeName="fill" to="#808080" begin="arrowDown.mouseover" end="arrowDown.mouseout"/>
                  </use>
                  <path fill="none" stroke="white" stroke-width="1.5" d="M0,-3.0v7 M-2.5,-0.5L0,-3.0L2.5,-0.5"/>
                </g>
                <g id="arrowLeft" xlink:href="#dirArrow" transform="rotate(270) translate(-36 17)" onmousedown="handlePan(-1,0)">
                  <use xlink:href="#rim" fill="#404040">
                        <set attributeName="fill" to="#808080" begin="arrowLeft.mouseover" end="arrowLeft.mouseout"/>
                  </use>
                  <path fill="none" stroke="white" stroke-width="1.5" d="M0,-3.0v7 M-2.5,-0.5L0,-3.0L2.5,-0.5"/>
                </g>
        </g>
        <svg viewBox="0 0 15 15" width="100%" height="30px" preserveAspectRatio="xMaxYMin meet">
         <g id="arrow_out" transform="scale(0.3 0.3)">
          <a xlink:href="class_cube_trigger__coll__graph_org.svg" target="_base">
           <rect id="button" ry="5" rx="5" y="6" x="6" height="38" width="38"
                fill="#f2f5e9" fill-opacity="0.5" stroke="#606060" stroke-width="1.0"/>
           <path id="arrow"
             d="M 11.500037,31.436501 C 11.940474,20.09759 22.043105,11.32322 32.158766,21.979434 L 37.068811,17.246167 C 37.068811,17.246167 37.088388,32 37.088388,32 L 22.160133,31.978069 C 22.160133,31.978069 26.997745,27.140456 26.997745,27.140456 C 18.528582,18.264221 13.291696,25.230495 11.500037,31.436501 z"
             style="fill:#404040;"/>
          </a>
         </g>
        </svg>
</svg>
