<?xml version="1.0" encoding="UTF-8" standalone="no"?>
<!DOCTYPE svg PUBLIC "-//W3C//DTD SVG 1.1//EN"
 "http://www.w3.org/Graphics/SVG/1.1/DTD/svg11.dtd">
<!-- Generated by graphviz version 2.38.0 (20140413.2041)
 -->
<!-- Title: src/DirectionalLightShadowMap.cpp Pages: 1 -->
<svg width="1764pt" height="375pt"
 viewBox="0.00 0.00 1764.00 375.00" xmlns="http://www.w3.org/2000/svg" xmlns:xlink="http://www.w3.org/1999/xlink">
<g id="graph0" class="graph" transform="scale(1 1) rotate(0) translate(4 371)">
<title>src/DirectionalLightShadowMap.cpp</title>
<polygon fill="white" stroke="none" points="-4,4 -4,-371 1760,-371 1760,4 -4,4"/>
<!-- Node1 -->
<g id="node1" class="node"><title>Node1</title>
<g id="a_node1"><a xlink:title=" ">
<polygon fill="#bfbfbf" stroke="black" points="972,-336.5 972,-366.5 1106,-366.5 1106,-336.5 972,-336.5"/>
<text text-anchor="start" x="980" y="-354.5" font-family="Helvetica,sans-Serif" font-size="10.00">src/DirectionalLightShadow</text>
<text text-anchor="middle" x="1039" y="-343.5" font-family="Helvetica,sans-Serif" font-size="10.00">Map.cpp</text>
</a>
</g>
</g>
<!-- Node2 -->
<g id="node2" class="node"><title>Node2</title>
<g id="a_node2"><a xlink:href="../../d7/d14/_directional_light_shadow_map_8h.html" target="_top" xlink:title=" ">
<polygon fill="white" stroke="black" points="966.5,-280.5 966.5,-299.5 1111.5,-299.5 1111.5,-280.5 966.5,-280.5"/>
<text text-anchor="middle" x="1039" y="-287.5" font-family="Helvetica,sans-Serif" font-size="10.00">DirectionalLightShadowMap.h</text>
</a>
</g>
</g>
<!-- Node1&#45;&gt;Node2 -->
<g id="edge1" class="edge"><title>Node1&#45;&gt;Node2</title>
<path fill="none" stroke="midnightblue" d="M1039,-336.399C1039,-328.466 1039,-318.458 1039,-309.858"/>
<polygon fill="midnightblue" stroke="midnightblue" points="1042.5,-309.658 1039,-299.658 1035.5,-309.658 1042.5,-309.658"/>
</g>
<!-- Node3 -->
<g id="node3" class="node"><title>Node3</title>
<g id="a_node3"><a xlink:href="../../d5/d91/_camera_8h.html" target="_top" xlink:title=" ">
<polygon fill="white" stroke="black" points="935.5,-112.5 935.5,-131.5 994.5,-131.5 994.5,-112.5 935.5,-112.5"/>
<text text-anchor="middle" x="965" y="-119.5" font-family="Helvetica,sans-Serif" font-size="10.00">Camera.h</text>
</a>
</g>
</g>
<!-- Node2&#45;&gt;Node3 -->
<g id="edge2" class="edge"><title>Node2&#45;&gt;Node3</title>
<path fill="none" stroke="midnightblue" d="M1035.02,-280.075C1023.32,-253.832 988.87,-176.545 973.076,-141.117"/>
<polygon fill="midnightblue" stroke="midnightblue" points="976.088,-139.277 968.82,-131.568 969.694,-142.127 976.088,-139.277"/>
</g>
<!-- Node12 -->
<g id="node12" class="node"><title>Node12</title>
<g id="a_node12"><a xlink:title=" ">
<polygon fill="white" stroke="#bfbfbf" points="1475.5,-56.5 1475.5,-75.5 1618.5,-75.5 1618.5,-56.5 1475.5,-56.5"/>
<text text-anchor="middle" x="1547" y="-63.5" font-family="Helvetica,sans-Serif" font-size="10.00">glm/gtc/matrix_transform.hpp</text>
</a>
</g>
</g>
<!-- Node2&#45;&gt;Node12 -->
<g id="edge69" class="edge"><title>Node2&#45;&gt;Node12</title>
<path fill="none" stroke="midnightblue" d="M1111.73,-286.965C1211.21,-281.392 1392.67,-261.078 1527,-188 1562,-168.96 1579.74,-167.909 1597,-132 1606.19,-112.877 1587.74,-93.9918 1570.71,-81.5473"/>
<polygon fill="midnightblue" stroke="midnightblue" points="1572.32,-78.4096 1562.09,-75.6597 1568.37,-84.19 1572.32,-78.4096"/>
</g>
<!-- Node13 -->
<g id="node13" class="node"><title>Node13</title>
<g id="a_node13"><a xlink:title=" ">
<polygon fill="white" stroke="#bfbfbf" points="841,-56.5 841,-75.5 947,-75.5 947,-56.5 841,-56.5"/>
<text text-anchor="middle" x="894" y="-63.5" font-family="Helvetica,sans-Serif" font-size="10.00">glm/gtc/type_ptr.hpp</text>
</a>
</g>
</g>
<!-- Node2&#45;&gt;Node13 -->
<g id="edge70" class="edge"><title>Node2&#45;&gt;Node13</title>
<path fill="none" stroke="midnightblue" d="M1032.1,-280.497C1013.58,-257.466 961.781,-191.601 926,-132 916.805,-116.683 907.963,-98.3544 901.912,-85.0704"/>
<polygon fill="midnightblue" stroke="midnightblue" points="904.98,-83.3552 897.705,-75.6524 898.588,-86.2104 904.98,-83.3552"/>
</g>
<!-- Node14 -->
<g id="node14" class="node"><title>Node14</title>
<g id="a_node14"><a xlink:title=" ">
<polygon fill="white" stroke="#bfbfbf" points="1348,-56.5 1348,-75.5 1408,-75.5 1408,-56.5 1348,-56.5"/>
<text text-anchor="middle" x="1378" y="-63.5" font-family="Helvetica,sans-Serif" font-size="10.00">GL/glew.h</text>
</a>
</g>
</g>
<!-- Node2&#45;&gt;Node14 -->
<g id="edge67" class="edge"><title>Node2&#45;&gt;Node14</title>
<path fill="none" stroke="midnightblue" d="M1100.28,-280.47C1229.29,-261.128 1521.78,-209.515 1580,-132 1585.34,-124.892 1585.56,-118.935 1580,-112 1569.9,-99.399 1474.33,-82.2993 1418.34,-73.2369"/>
<polygon fill="midnightblue" stroke="midnightblue" points="1418.81,-69.7666 1408.38,-71.6412 1417.7,-76.6786 1418.81,-69.7666"/>
</g>
<!-- Node15 -->
<g id="node15" class="node"><title>Node15</title>
<g id="a_node15"><a xlink:href="../../d0/d4b/_debug_8h.html" target="_top" xlink:title=" ">
<polygon fill="white" stroke="black" points="1012.5,-112.5 1012.5,-131.5 1065.5,-131.5 1065.5,-112.5 1012.5,-112.5"/>
<text text-anchor="middle" x="1039" y="-119.5" font-family="Helvetica,sans-Serif" font-size="10.00">Debug.h</text>
</a>
</g>
</g>
<!-- Node2&#45;&gt;Node15 -->
<g id="edge14" class="edge"><title>Node2&#45;&gt;Node15</title>
<path fill="none" stroke="midnightblue" d="M1039,-280.075C1039,-253.945 1039,-177.211 1039,-141.577"/>
<polygon fill="midnightblue" stroke="midnightblue" points="1042.5,-141.568 1039,-131.568 1035.5,-141.568 1042.5,-141.568"/>
</g>
<!-- Node16 -->
<g id="node16" class="node"><title>Node16</title>
<g id="a_node16"><a xlink:href="../../d7/d26/_helping_hand_8h.html" target="_top" xlink:title=" ">
<polygon fill="white" stroke="black" points="0,-112.5 0,-131.5 80,-131.5 80,-112.5 0,-112.5"/>
<text text-anchor="middle" x="40" y="-119.5" font-family="Helvetica,sans-Serif" font-size="10.00">HelpingHand.h</text>
</a>
</g>
</g>
<!-- Node2&#45;&gt;Node16 -->
<g id="edge15" class="edge"><title>Node2&#45;&gt;Node16</title>
<path fill="none" stroke="midnightblue" d="M966.344,-281.573C833.948,-267.472 544.843,-234.066 304,-188 223.809,-172.662 131.461,-148.377 79.9932,-134.237"/>
<polygon fill="midnightblue" stroke="midnightblue" points="80.8312,-130.838 70.2603,-131.55 78.9683,-137.585 80.8312,-130.838"/>
</g>
<!-- Node20 -->
<g id="node20" class="node"><title>Node20</title>
<g id="a_node20"><a xlink:href="../../db/dcf/_locator_8h.html" target="_top" xlink:title=" ">
<polygon fill="white" stroke="black" points="739.5,-224.5 739.5,-243.5 796.5,-243.5 796.5,-224.5 739.5,-224.5"/>
<text text-anchor="middle" x="768" y="-231.5" font-family="Helvetica,sans-Serif" font-size="10.00">Locator.h</text>
</a>
</g>
</g>
<!-- Node2&#45;&gt;Node20 -->
<g id="edge21" class="edge"><title>Node2&#45;&gt;Node20</title>
<path fill="none" stroke="midnightblue" d="M996.059,-280.444C943.947,-270.06 856.848,-252.704 806.718,-242.715"/>
<polygon fill="midnightblue" stroke="midnightblue" points="807.098,-239.222 796.607,-240.7 805.73,-246.087 807.098,-239.222"/>
</g>
<!-- Node24 -->
<g id="node24" class="node"><title>Node24</title>
<g id="a_node24"><a xlink:href="../../d8/d34/_shader_8h.html" target="_top" xlink:title=" ">
<polygon fill="white" stroke="black" points="1162,-168.5 1162,-187.5 1218,-187.5 1218,-168.5 1162,-168.5"/>
<text text-anchor="middle" x="1190" y="-175.5" font-family="Helvetica,sans-Serif" font-size="10.00">Shader.h</text>
</a>
</g>
</g>
<!-- Node2&#45;&gt;Node24 -->
<g id="edge66" class="edge"><title>Node2&#45;&gt;Node24</title>
<path fill="none" stroke="midnightblue" d="M1050.85,-280.368C1076.65,-261.573 1138.15,-216.768 1170.05,-193.533"/>
<polygon fill="midnightblue" stroke="midnightblue" points="1172.18,-196.309 1178.21,-187.591 1168.06,-190.651 1172.18,-196.309"/>
</g>
<!-- Node39 -->
<g id="node39" class="node"><title>Node39</title>
<g id="a_node39"><a xlink:title=" ">
<polygon fill="white" stroke="#bfbfbf" points="1686,-224.5 1686,-243.5 1756,-243.5 1756,-224.5 1686,-224.5"/>
<text text-anchor="middle" x="1721" y="-231.5" font-family="Helvetica,sans-Serif" font-size="10.00">glm/glm.hpp</text>
</a>
</g>
</g>
<!-- Node2&#45;&gt;Node39 -->
<g id="edge68" class="edge"><title>Node2&#45;&gt;Node39</title>
<path fill="none" stroke="midnightblue" d="M1111.88,-286.442C1229.92,-281.71 1470.08,-269.641 1672,-244 1673.25,-243.841 1674.53,-243.67 1675.81,-243.49"/>
<polygon fill="midnightblue" stroke="midnightblue" points="1676.39,-246.941 1685.74,-241.957 1675.33,-240.023 1676.39,-246.941"/>
</g>
<!-- Node4 -->
<g id="node4" class="node"><title>Node4</title>
<g id="a_node4"><a xlink:href="../../dc/d20/_component_8h.html" target="_top" xlink:title=" ">
<polygon fill="white" stroke="black" points="1218,-56.5 1218,-75.5 1292,-75.5 1292,-56.5 1218,-56.5"/>
<text text-anchor="middle" x="1255" y="-63.5" font-family="Helvetica,sans-Serif" font-size="10.00">Component.h</text>
</a>
</g>
</g>
<!-- Node3&#45;&gt;Node4 -->
<g id="edge3" class="edge"><title>Node3&#45;&gt;Node4</title>
<path fill="none" stroke="midnightblue" d="M994.836,-113.767C997.591,-113.15 1000.34,-112.551 1003,-112 1074.04,-97.2567 1156.95,-83.017 1207.71,-74.6343"/>
<polygon fill="midnightblue" stroke="midnightblue" points="1208.43,-78.0633 1217.73,-72.987 1207.29,-71.1561 1208.43,-78.0633"/>
</g>
<!-- Node6 -->
<g id="node6" class="node"><title>Node6</title>
<g id="a_node6"><a xlink:href="../../de/d50/_game_info_8h.html" target="_top" xlink:title=" ">
<polygon fill="white" stroke="black" points="603,-56.5 603,-75.5 669,-75.5 669,-56.5 603,-56.5"/>
<text text-anchor="middle" x="636" y="-63.5" font-family="Helvetica,sans-Serif" font-size="10.00">GameInfo.h</text>
</a>
</g>
</g>
<!-- Node3&#45;&gt;Node6 -->
<g id="edge5" class="edge"><title>Node3&#45;&gt;Node6</title>
<path fill="none" stroke="midnightblue" d="M935.159,-116.879C884.584,-109.774 778.598,-94.3653 679.329,-76.1673"/>
<polygon fill="midnightblue" stroke="midnightblue" points="679.906,-72.7148 669.437,-74.3402 678.635,-79.5983 679.906,-72.7148"/>
</g>
<!-- Node11 -->
<g id="node11" class="node"><title>Node11</title>
<g id="a_node11"><a xlink:href="../../d9/db9/_unique_vectors_8h.html" target="_top" xlink:title=" ">
<polygon fill="white" stroke="black" points="965.5,-56.5 965.5,-75.5 1054.5,-75.5 1054.5,-56.5 965.5,-56.5"/>
<text text-anchor="middle" x="1010" y="-63.5" font-family="Helvetica,sans-Serif" font-size="10.00">UniqueVectors.h</text>
</a>
</g>
</g>
<!-- Node3&#45;&gt;Node11 -->
<g id="edge10" class="edge"><title>Node3&#45;&gt;Node11</title>
<path fill="none" stroke="midnightblue" d="M972.431,-112.083C978.853,-104.377 988.306,-93.0333 996.122,-83.6531"/>
<polygon fill="midnightblue" stroke="midnightblue" points="998.994,-85.674 1002.71,-75.7511 993.617,-81.1927 998.994,-85.674"/>
</g>
<!-- Node3&#45;&gt;Node12 -->
<g id="edge11" class="edge"><title>Node3&#45;&gt;Node12</title>
<path fill="none" stroke="midnightblue" d="M994.787,-113.499C997.553,-112.938 1000.32,-112.425 1003,-112 1047.34,-104.956 1324.14,-83.6812 1464.94,-73.1048"/>
<polygon fill="midnightblue" stroke="midnightblue" points="1465.54,-76.5698 1475.25,-72.3313 1465.01,-69.5894 1465.54,-76.5698"/>
</g>
<!-- Node3&#45;&gt;Node13 -->
<g id="edge12" class="edge"><title>Node3&#45;&gt;Node13</title>
<path fill="none" stroke="midnightblue" d="M953.593,-112.324C942.891,-104.185 926.659,-91.8395 913.837,-82.0874"/>
<polygon fill="midnightblue" stroke="midnightblue" points="915.693,-79.1018 905.615,-75.8339 911.456,-84.6734 915.693,-79.1018"/>
</g>
<!-- Node3&#45;&gt;Node14 -->
<g id="edge13" class="edge"><title>Node3&#45;&gt;Node14</title>
<path fill="none" stroke="midnightblue" d="M994.804,-113.605C997.567,-113.021 1000.33,-112.475 1003,-112 1019.34,-109.095 1244.35,-82.6423 1337.78,-71.7023"/>
<polygon fill="midnightblue" stroke="midnightblue" points="1338.45,-75.1478 1347.98,-70.5088 1337.64,-68.1952 1338.45,-75.1478"/>
</g>
<!-- Node5 -->
<g id="node5" class="node"><title>Node5</title>
<g id="a_node5"><a xlink:title=" ">
<polygon fill="white" stroke="#bfbfbf" points="1230.5,-0.5 1230.5,-19.5 1279.5,-19.5 1279.5,-0.5 1230.5,-0.5"/>
<text text-anchor="middle" x="1255" y="-7.5" font-family="Helvetica,sans-Serif" font-size="10.00">stdint.h</text>
</a>
</g>
</g>
<!-- Node4&#45;&gt;Node5 -->
<g id="edge4" class="edge"><title>Node4&#45;&gt;Node5</title>
<path fill="none" stroke="midnightblue" d="M1255,-56.083C1255,-49.0059 1255,-38.8611 1255,-29.9865"/>
<polygon fill="midnightblue" stroke="midnightblue" points="1258.5,-29.751 1255,-19.7511 1251.5,-29.7511 1258.5,-29.751"/>
</g>
<!-- Node7 -->
<g id="node7" class="node"><title>Node7</title>
<g id="a_node7"><a xlink:title=" ">
<polygon fill="white" stroke="#bfbfbf" points="215.5,-0.5 215.5,-19.5 342.5,-19.5 342.5,-0.5 215.5,-0.5"/>
<text text-anchor="middle" x="279" y="-7.5" font-family="Helvetica,sans-Serif" font-size="10.00">LinearMath/btTransform.h</text>
</a>
</g>
</g>
<!-- Node6&#45;&gt;Node7 -->
<g id="edge6" class="edge"><title>Node6&#45;&gt;Node7</title>
<path fill="none" stroke="midnightblue" d="M602.57,-57.6184C599.677,-57.0457 596.79,-56.4975 594,-56 511.662,-41.3149 416.539,-28.2602 352.552,-20.0438"/>
<polygon fill="midnightblue" stroke="midnightblue" points="352.92,-16.5624 342.557,-18.7671 352.033,-23.506 352.92,-16.5624"/>
</g>
<!-- Node8 -->
<g id="node8" class="node"><title>Node8</title>
<g id="a_node8"><a xlink:title=" ">
<polygon fill="white" stroke="#bfbfbf" points="1061,-0.5 1061,-19.5 1135,-19.5 1135,-0.5 1061,-0.5"/>
<text text-anchor="middle" x="1098" y="-7.5" font-family="Helvetica,sans-Serif" font-size="10.00">glm/vec3.hpp</text>
</a>
</g>
</g>
<!-- Node6&#45;&gt;Node8 -->
<g id="edge7" class="edge"><title>Node6&#45;&gt;Node8</title>
<path fill="none" stroke="midnightblue" d="M669.411,-57.5116C672.309,-56.962 675.202,-56.4484 678,-56 812.439,-34.454 972.789,-20.491 1050.75,-14.4448"/>
<polygon fill="midnightblue" stroke="midnightblue" points="1051.04,-17.9329 1060.75,-13.6783 1050.51,-10.9534 1051.04,-17.9329"/>
</g>
<!-- Node9 -->
<g id="node9" class="node"><title>Node9</title>
<g id="a_node9"><a xlink:title=" ">
<polygon fill="white" stroke="#bfbfbf" points="599,-0.5 599,-19.5 673,-19.5 673,-0.5 599,-0.5"/>
<text text-anchor="middle" x="636" y="-7.5" font-family="Helvetica,sans-Serif" font-size="10.00">glm/vec4.hpp</text>
</a>
</g>
</g>
<!-- Node6&#45;&gt;Node9 -->
<g id="edge8" class="edge"><title>Node6&#45;&gt;Node9</title>
<path fill="none" stroke="midnightblue" d="M636,-56.083C636,-49.0059 636,-38.8611 636,-29.9865"/>
<polygon fill="midnightblue" stroke="midnightblue" points="639.5,-29.751 636,-19.7511 632.5,-29.7511 639.5,-29.751"/>
</g>
<!-- Node10 -->
<g id="node10" class="node"><title>Node10</title>
<g id="a_node10"><a xlink:title=" ">
<polygon fill="white" stroke="#bfbfbf" points="1298.5,-0.5 1298.5,-19.5 1339.5,-19.5 1339.5,-0.5 1298.5,-0.5"/>
<text text-anchor="middle" x="1319" y="-7.5" font-family="Helvetica,sans-Serif" font-size="10.00">string</text>
</a>
</g>
</g>
<!-- Node6&#45;&gt;Node10 -->
<g id="edge9" class="edge"><title>Node6&#45;&gt;Node10</title>
<path fill="none" stroke="midnightblue" d="M669.39,-57.3659C672.292,-56.848 675.192,-56.3815 678,-56 947.111,-19.442 1020.37,-66.1482 1288,-20 1288.21,-19.9631 1288.43,-19.9253 1288.64,-19.8865"/>
<polygon fill="midnightblue" stroke="midnightblue" points="1289.5,-23.2821 1298.47,-17.6548 1287.95,-16.4558 1289.5,-23.2821"/>
</g>
<!-- Node16&#45;&gt;Node7 -->
<g id="edge16" class="edge"><title>Node16&#45;&gt;Node7</title>
<path fill="none" stroke="midnightblue" d="M39.8762,-112.4C40.1717,-98.4129 42.9116,-70.8112 59,-56 80.1284,-36.5489 149.804,-24.5819 205.15,-17.9271"/>
<polygon fill="midnightblue" stroke="midnightblue" points="205.774,-21.3782 215.302,-16.7457 204.965,-14.4251 205.774,-21.3782"/>
</g>
<!-- Node16&#45;&gt;Node8 -->
<g id="edge19" class="edge"><title>Node16&#45;&gt;Node8</title>
<path fill="none" stroke="midnightblue" d="M69.4957,-112.384C127.543,-95.4846 252.747,-59.3364 273,-56 424.348,-31.0671 898.606,-16.3864 1050.61,-12.2295"/>
<polygon fill="midnightblue" stroke="midnightblue" points="1051.09,-15.7179 1060.99,-11.9483 1050.9,-8.72047 1051.09,-15.7179"/>
</g>
<!-- Node17 -->
<g id="node17" class="node"><title>Node17</title>
<g id="a_node17"><a xlink:title=" ">
<polygon fill="white" stroke="#bfbfbf" points="315,-56.5 315,-75.5 371,-75.5 371,-56.5 315,-56.5"/>
<text text-anchor="middle" x="343" y="-63.5" font-family="Helvetica,sans-Serif" font-size="10.00">algorithm</text>
</a>
</g>
</g>
<!-- Node16&#45;&gt;Node17 -->
<g id="edge17" class="edge"><title>Node16&#45;&gt;Node17</title>
<path fill="none" stroke="midnightblue" d="M80.2361,-113.829C138.885,-103.377 247.114,-84.0885 304.668,-73.8314"/>
<polygon fill="midnightblue" stroke="midnightblue" points="305.571,-77.2258 314.802,-72.0255 304.343,-70.3344 305.571,-77.2258"/>
</g>
<!-- Node18 -->
<g id="node18" class="node"><title>Node18</title>
<g id="a_node18"><a xlink:title=" ">
<polygon fill="white" stroke="#bfbfbf" points="68,-56.5 68,-75.5 184,-75.5 184,-56.5 68,-56.5"/>
<text text-anchor="middle" x="126" y="-63.5" font-family="Helvetica,sans-Serif" font-size="10.00">glm/gtc/quaternion.hpp</text>
</a>
</g>
</g>
<!-- Node16&#45;&gt;Node18 -->
<g id="edge18" class="edge"><title>Node16&#45;&gt;Node18</title>
<path fill="none" stroke="midnightblue" d="M53.8174,-112.324C67.233,-103.9 87.8241,-90.9709 103.586,-81.0741"/>
<polygon fill="midnightblue" stroke="midnightblue" points="105.609,-83.9364 112.217,-75.6545 101.887,-78.0081 105.609,-83.9364"/>
</g>
<!-- Node19 -->
<g id="node19" class="node"><title>Node19</title>
<g id="a_node19"><a xlink:title=" ">
<polygon fill="white" stroke="#bfbfbf" points="389,-56.5 389,-75.5 431,-75.5 431,-56.5 389,-56.5"/>
<text text-anchor="middle" x="410" y="-63.5" font-family="Helvetica,sans-Serif" font-size="10.00">vector</text>
</a>
</g>
</g>
<!-- Node16&#45;&gt;Node19 -->
<g id="edge20" class="edge"><title>Node16&#45;&gt;Node19</title>
<path fill="none" stroke="midnightblue" d="M80.2316,-116.494C153.776,-108.128 308.151,-89.9387 378.979,-75.8615"/>
<polygon fill="midnightblue" stroke="midnightblue" points="379.727,-79.281 388.804,-73.8161 378.3,-72.428 379.727,-79.281"/>
</g>
<!-- Node21 -->
<g id="node21" class="node"><title>Node21</title>
<g id="a_node21"><a xlink:href="../../d2/d94/_input_8h.html" target="_top" xlink:title=" ">
<polygon fill="white" stroke="black" points="800,-112.5 800,-131.5 846,-131.5 846,-112.5 800,-112.5"/>
<text text-anchor="middle" x="823" y="-119.5" font-family="Helvetica,sans-Serif" font-size="10.00">Input.h</text>
</a>
</g>
</g>
<!-- Node20&#45;&gt;Node21 -->
<g id="edge22" class="edge"><title>Node20&#45;&gt;Node21</title>
<path fill="none" stroke="midnightblue" d="M772.316,-224.368C781.312,-206.376 802.225,-164.55 814.187,-140.627"/>
<polygon fill="midnightblue" stroke="midnightblue" points="817.363,-142.101 818.704,-131.591 811.102,-138.97 817.363,-142.101"/>
</g>
<!-- Node20&#45;&gt;Node24 -->
<g id="edge27" class="edge"><title>Node20&#45;&gt;Node24</title>
<path fill="none" stroke="midnightblue" d="M796.674,-229.331C870.681,-219.861 1068.15,-194.592 1151.76,-183.894"/>
<polygon fill="midnightblue" stroke="midnightblue" points="1152.37,-187.344 1161.84,-182.603 1151.48,-180.401 1152.37,-187.344"/>
</g>
<!-- Node31 -->
<g id="node31" class="node"><title>Node31</title>
<g id="a_node31"><a xlink:href="../../d5/db0/_sound_8h.html" target="_top" xlink:title=" ">
<polygon fill="white" stroke="black" points="508.5,-168.5 508.5,-187.5 561.5,-187.5 561.5,-168.5 508.5,-168.5"/>
<text text-anchor="middle" x="535" y="-175.5" font-family="Helvetica,sans-Serif" font-size="10.00">Sound.h</text>
</a>
</g>
</g>
<!-- Node20&#45;&gt;Node31 -->
<g id="edge46" class="edge"><title>Node20&#45;&gt;Node31</title>
<path fill="none" stroke="midnightblue" d="M739.43,-226.379C697.177,-216.586 618.032,-198.244 571.589,-187.48"/>
<polygon fill="midnightblue" stroke="midnightblue" points="572.175,-184.023 561.643,-185.175 570.594,-190.842 572.175,-184.023"/>
</g>
<!-- Node35 -->
<g id="node35" class="node"><title>Node35</title>
<g id="a_node35"><a xlink:href="../../de/dbf/_texture_8h.html" target="_top" xlink:title=" ">
<polygon fill="white" stroke="black" points="313.5,-168.5 313.5,-187.5 370.5,-187.5 370.5,-168.5 313.5,-168.5"/>
<text text-anchor="middle" x="342" y="-175.5" font-family="Helvetica,sans-Serif" font-size="10.00">Texture.h</text>
</a>
</g>
</g>
<!-- Node20&#45;&gt;Node35 -->
<g id="edge57" class="edge"><title>Node20&#45;&gt;Node35</title>
<path fill="none" stroke="midnightblue" d="M739.387,-229.373C664.979,-219.941 465.333,-194.634 380.736,-183.91"/>
<polygon fill="midnightblue" stroke="midnightblue" points="381.129,-180.432 370.768,-182.647 380.248,-187.376 381.129,-180.432"/>
</g>
<!-- Node21&#45;&gt;Node6 -->
<g id="edge23" class="edge"><title>Node21&#45;&gt;Node6</title>
<path fill="none" stroke="midnightblue" d="M799.694,-114.27C768.507,-105.264 712.767,-89.1679 675.095,-78.2895"/>
<polygon fill="midnightblue" stroke="midnightblue" points="676.038,-74.9187 665.459,-75.5069 674.095,-81.6439 676.038,-74.9187"/>
</g>
<!-- Node21&#45;&gt;Node11 -->
<g id="edge24" class="edge"><title>Node21&#45;&gt;Node11</title>
<path fill="none" stroke="midnightblue" d="M846.306,-114.27C877.493,-105.264 933.233,-89.1679 970.905,-78.2895"/>
<polygon fill="midnightblue" stroke="midnightblue" points="971.905,-81.6439 980.541,-75.5069 969.962,-74.9187 971.905,-81.6439"/>
</g>
<!-- Node22 -->
<g id="node22" class="node"><title>Node22</title>
<g id="a_node22"><a xlink:title=" ">
<polygon fill="white" stroke="#bfbfbf" points="687,-56.5 687,-75.5 761,-75.5 761,-56.5 687,-56.5"/>
<text text-anchor="middle" x="724" y="-63.5" font-family="Helvetica,sans-Serif" font-size="10.00">glm/vec2.hpp</text>
</a>
</g>
</g>
<!-- Node21&#45;&gt;Node22 -->
<g id="edge25" class="edge"><title>Node21&#45;&gt;Node22</title>
<path fill="none" stroke="midnightblue" d="M807.094,-112.324C791.362,-103.743 767.058,-90.486 748.791,-80.5224"/>
<polygon fill="midnightblue" stroke="midnightblue" points="750.322,-77.3704 739.867,-75.6545 746.97,-83.5157 750.322,-77.3704"/>
</g>
<!-- Node23 -->
<g id="node23" class="node"><title>Node23</title>
<g id="a_node23"><a xlink:title=" ">
<polygon fill="white" stroke="#bfbfbf" points="779,-56.5 779,-75.5 823,-75.5 823,-56.5 779,-56.5"/>
<text text-anchor="middle" x="801" y="-63.5" font-family="Helvetica,sans-Serif" font-size="10.00">SDL.h</text>
</a>
</g>
</g>
<!-- Node21&#45;&gt;Node23 -->
<g id="edge26" class="edge"><title>Node21&#45;&gt;Node23</title>
<path fill="none" stroke="midnightblue" d="M819.367,-112.083C816.388,-104.77 812.074,-94.1814 808.375,-85.1034"/>
<polygon fill="midnightblue" stroke="midnightblue" points="811.58,-83.6914 804.565,-75.7511 805.097,-86.3326 811.58,-83.6914"/>
</g>
<!-- Node24&#45;&gt;Node4 -->
<g id="edge28" class="edge"><title>Node24&#45;&gt;Node4</title>
<path fill="none" stroke="midnightblue" d="M1198.75,-168.33C1207.09,-159.703 1219.59,-145.795 1228,-132 1237.03,-117.181 1244.35,-98.7977 1249.08,-85.3664"/>
<polygon fill="midnightblue" stroke="midnightblue" points="1252.42,-86.4134 1252.3,-75.8192 1245.79,-84.177 1252.42,-86.4134"/>
</g>
<!-- Node24&#45;&gt;Node8 -->
<g id="edge42" class="edge"><title>Node24&#45;&gt;Node8</title>
<path fill="none" stroke="midnightblue" d="M1180.2,-168.315C1171.3,-159.889 1158.44,-146.309 1151,-132 1134.94,-101.11 1147.02,-87.4113 1132,-56 1127.05,-45.6409 1119.5,-35.33 1112.77,-27.1967"/>
<polygon fill="midnightblue" stroke="midnightblue" points="1115.39,-24.8732 1106.2,-19.5985 1110.09,-29.4519 1115.39,-24.8732"/>
</g>
<!-- Node24&#45;&gt;Node10 -->
<g id="edge44" class="edge"><title>Node24&#45;&gt;Node10</title>
<path fill="none" stroke="midnightblue" d="M1218.27,-176.42C1297.03,-174.387 1517.28,-165.753 1580,-132 1608.61,-116.601 1615.89,-106.533 1627,-76 1630.04,-67.6473 1632.81,-62.7244 1627,-56 1591.37,-14.7821 1420.77,-10.5776 1349.94,-10.6501"/>
<polygon fill="midnightblue" stroke="midnightblue" points="1349.83,-7.15042 1339.85,-10.6907 1349.86,-14.1504 1349.83,-7.15042"/>
</g>
<!-- Node24&#45;&gt;Node14 -->
<g id="edge39" class="edge"><title>Node24&#45;&gt;Node14</title>
<path fill="none" stroke="midnightblue" d="M1218.11,-175.718C1301.02,-171.654 1540.15,-157.776 1563,-132 1568.9,-125.349 1568.49,-118.989 1563,-112 1545.31,-89.496 1466.89,-76.8457 1418,-71.016"/>
<polygon fill="midnightblue" stroke="midnightblue" points="1418.39,-67.5369 1408.05,-69.8744 1417.59,-74.4913 1418.39,-67.5369"/>
</g>
<!-- Node24&#45;&gt;Node15 -->
<g id="edge29" class="edge"><title>Node24&#45;&gt;Node15</title>
<path fill="none" stroke="midnightblue" d="M1166.07,-168.444C1140.78,-159.399 1100.7,-145.064 1072.32,-134.916"/>
<polygon fill="midnightblue" stroke="midnightblue" points="1073.41,-131.588 1062.81,-131.516 1071.05,-138.179 1073.41,-131.588"/>
</g>
<!-- Node24&#45;&gt;Node17 -->
<g id="edge40" class="edge"><title>Node24&#45;&gt;Node17</title>
<path fill="none" stroke="midnightblue" d="M1161.79,-176.323C1064.51,-173.73 743.672,-162.978 646,-132 629.289,-126.7 628.511,-117.893 612,-112 516.702,-77.9855 484.303,-95.2231 381.103,-76.0331"/>
<polygon fill="midnightblue" stroke="midnightblue" points="381.709,-72.5855 371.227,-74.1267 380.382,-79.4586 381.709,-72.5855"/>
</g>
<!-- Node24&#45;&gt;Node19 -->
<g id="edge45" class="edge"><title>Node24&#45;&gt;Node19</title>
<path fill="none" stroke="midnightblue" d="M1161.9,-175.752C1070.06,-171.472 779.453,-156.302 689,-132 668.645,-126.531 666.11,-118.313 646,-112 560.355,-85.1139 532.357,-96.5347 441.148,-76.0077"/>
<polygon fill="midnightblue" stroke="midnightblue" points="441.753,-72.5554 431.221,-73.7053 440.172,-79.3744 441.753,-72.5554"/>
</g>
<!-- Node25 -->
<g id="node25" class="node"><title>Node25</title>
<g id="a_node25"><a xlink:href="../../d5/d31/_lights_8h.html" target="_top" xlink:title=" ">
<polygon fill="white" stroke="black" points="1072.5,-56.5 1072.5,-75.5 1123.5,-75.5 1123.5,-56.5 1072.5,-56.5"/>
<text text-anchor="middle" x="1098" y="-63.5" font-family="Helvetica,sans-Serif" font-size="10.00">Lights.h</text>
</a>
</g>
</g>
<!-- Node24&#45;&gt;Node25 -->
<g id="edge30" class="edge"><title>Node24&#45;&gt;Node25</title>
<path fill="none" stroke="midnightblue" d="M1168.14,-168.36C1152.1,-160.964 1130.94,-148.829 1118,-132 1107.67,-118.557 1102.63,-99.7413 1100.2,-85.8113"/>
<polygon fill="midnightblue" stroke="midnightblue" points="1103.66,-85.277 1098.76,-75.8831 1096.74,-86.282 1103.66,-85.277"/>
</g>
<!-- Node26 -->
<g id="node26" class="node"><title>Node26</title>
<g id="a_node26"><a xlink:href="../../d3/d09/_material_8h.html" target="_top" xlink:title=" ">
<polygon fill="white" stroke="black" points="1160.5,-112.5 1160.5,-131.5 1219.5,-131.5 1219.5,-112.5 1160.5,-112.5"/>
<text text-anchor="middle" x="1190" y="-119.5" font-family="Helvetica,sans-Serif" font-size="10.00">Material.h</text>
</a>
</g>
</g>
<!-- Node24&#45;&gt;Node26 -->
<g id="edge32" class="edge"><title>Node24&#45;&gt;Node26</title>
<path fill="none" stroke="midnightblue" d="M1190,-168.083C1190,-161.006 1190,-150.861 1190,-141.986"/>
<polygon fill="midnightblue" stroke="midnightblue" points="1193.5,-141.751 1190,-131.751 1186.5,-141.751 1193.5,-141.751"/>
</g>
<!-- Node27 -->
<g id="node27" class="node"><title>Node27</title>
<g id="a_node27"><a xlink:href="../../d4/d4a/_settings_8h.html" target="_top" xlink:title=" ">
<polygon fill="white" stroke="black" points="1355.5,-112.5 1355.5,-131.5 1416.5,-131.5 1416.5,-112.5 1355.5,-112.5"/>
<text text-anchor="middle" x="1386" y="-119.5" font-family="Helvetica,sans-Serif" font-size="10.00">Settings.h</text>
</a>
</g>
</g>
<!-- Node24&#45;&gt;Node27 -->
<g id="edge35" class="edge"><title>Node24&#45;&gt;Node27</title>
<path fill="none" stroke="midnightblue" d="M1218.08,-169.263C1251.51,-160.054 1307.58,-144.606 1345.64,-134.119"/>
<polygon fill="midnightblue" stroke="midnightblue" points="1346.68,-137.464 1355.39,-131.434 1344.82,-130.716 1346.68,-137.464"/>
</g>
<!-- Node28 -->
<g id="node28" class="node"><title>Node28</title>
<g id="a_node28"><a xlink:href="../../d2/d06/_shaders_8h.html" target="_top" xlink:title=" ">
<polygon fill="white" stroke="black" points="1276.5,-112.5 1276.5,-131.5 1337.5,-131.5 1337.5,-112.5 1276.5,-112.5"/>
<text text-anchor="middle" x="1307" y="-119.5" font-family="Helvetica,sans-Serif" font-size="10.00">Shaders.h</text>
</a>
</g>
</g>
<!-- Node24&#45;&gt;Node28 -->
<g id="edge36" class="edge"><title>Node24&#45;&gt;Node28</title>
<path fill="none" stroke="midnightblue" d="M1208.54,-168.444C1227.62,-159.636 1257.57,-145.812 1279.44,-135.722"/>
<polygon fill="midnightblue" stroke="midnightblue" points="1280.93,-138.885 1288.55,-131.516 1278,-132.529 1280.93,-138.885"/>
</g>
<!-- Node29 -->
<g id="node29" class="node"><title>Node29</title>
<g id="a_node29"><a xlink:title=" ">
<polygon fill="white" stroke="#bfbfbf" points="1434.5,-112.5 1434.5,-131.5 1483.5,-131.5 1483.5,-112.5 1434.5,-112.5"/>
<text text-anchor="middle" x="1459" y="-119.5" font-family="Helvetica,sans-Serif" font-size="10.00">fstream</text>
</a>
</g>
</g>
<!-- Node24&#45;&gt;Node29 -->
<g id="edge41" class="edge"><title>Node24&#45;&gt;Node29</title>
<path fill="none" stroke="midnightblue" d="M1218.35,-172.228C1260.91,-164.922 1344.05,-150.102 1424.39,-132.009"/>
<polygon fill="midnightblue" stroke="midnightblue" points="1425.19,-135.416 1434.17,-129.787 1423.64,-128.59 1425.19,-135.416"/>
</g>
<!-- Node30 -->
<g id="node30" class="node"><title>Node30</title>
<g id="a_node30"><a xlink:title=" ">
<polygon fill="white" stroke="#bfbfbf" points="1502,-112.5 1502,-131.5 1554,-131.5 1554,-112.5 1502,-112.5"/>
<text text-anchor="middle" x="1528" y="-119.5" font-family="Helvetica,sans-Serif" font-size="10.00">sstream</text>
</a>
</g>
</g>
<!-- Node24&#45;&gt;Node30 -->
<g id="edge43" class="edge"><title>Node24&#45;&gt;Node30</title>
<path fill="none" stroke="midnightblue" d="M1218.05,-173.744C1269.97,-167.52 1384.7,-152.842 1491.72,-131.866"/>
<polygon fill="midnightblue" stroke="midnightblue" points="1492.59,-135.261 1501.72,-129.883 1491.23,-128.395 1492.59,-135.261"/>
</g>
<!-- Node25&#45;&gt;Node8 -->
<g id="edge31" class="edge"><title>Node25&#45;&gt;Node8</title>
<path fill="none" stroke="midnightblue" d="M1098,-56.083C1098,-49.0059 1098,-38.8611 1098,-29.9865"/>
<polygon fill="midnightblue" stroke="midnightblue" points="1101.5,-29.751 1098,-19.7511 1094.5,-29.7511 1101.5,-29.751"/>
</g>
<!-- Node26&#45;&gt;Node4 -->
<g id="edge33" class="edge"><title>Node26&#45;&gt;Node4</title>
<path fill="none" stroke="midnightblue" d="M1200.44,-112.324C1210.15,-104.263 1224.82,-92.0765 1236.5,-82.3695"/>
<polygon fill="midnightblue" stroke="midnightblue" points="1238.91,-84.9163 1244.37,-75.8339 1234.44,-79.532 1238.91,-84.9163"/>
</g>
<!-- Node26&#45;&gt;Node8 -->
<g id="edge34" class="edge"><title>Node26&#45;&gt;Node8</title>
<path fill="none" stroke="midnightblue" d="M1188.55,-112.148C1185.99,-98.7745 1179.59,-73.1613 1166,-56 1155.43,-42.6563 1139.79,-31.9195 1126.17,-24.2846"/>
<polygon fill="midnightblue" stroke="midnightblue" points="1127.62,-21.0954 1117.15,-19.5007 1124.34,-27.2791 1127.62,-21.0954"/>
</g>
<!-- Node28&#45;&gt;Node10 -->
<g id="edge38" class="edge"><title>Node28&#45;&gt;Node10</title>
<path fill="none" stroke="midnightblue" d="M1307.94,-112.368C1309.88,-94.617 1314.35,-53.6664 1316.97,-29.5974"/>
<polygon fill="midnightblue" stroke="midnightblue" points="1320.46,-29.912 1318.06,-19.5914 1313.5,-29.1528 1320.46,-29.912"/>
</g>
<!-- Node28&#45;&gt;Node14 -->
<g id="edge37" class="edge"><title>Node28&#45;&gt;Node14</title>
<path fill="none" stroke="midnightblue" d="M1318.41,-112.324C1329.11,-104.185 1345.34,-91.8395 1358.16,-82.0874"/>
<polygon fill="midnightblue" stroke="midnightblue" points="1360.54,-84.6734 1366.39,-75.8339 1356.31,-79.1018 1360.54,-84.6734"/>
</g>
<!-- Node31&#45;&gt;Node16 -->
<g id="edge53" class="edge"><title>Node31&#45;&gt;Node16</title>
<path fill="none" stroke="midnightblue" d="M508.387,-174.097C429.272,-165.466 194.585,-139.864 90.585,-128.518"/>
<polygon fill="midnightblue" stroke="midnightblue" points="90.6645,-125.006 80.3439,-127.401 89.9053,-131.965 90.6645,-125.006"/>
</g>
<!-- Node31&#45;&gt;Node17 -->
<g id="edge55" class="edge"><title>Node31&#45;&gt;Node17</title>
<path fill="none" stroke="midnightblue" d="M519.934,-168.368C486.706,-149.332 406.91,-103.615 366.826,-80.6505"/>
<polygon fill="midnightblue" stroke="midnightblue" points="368.413,-77.5257 357.996,-75.5914 364.933,-83.5995 368.413,-77.5257"/>
</g>
<!-- Node31&#45;&gt;Node19 -->
<g id="edge56" class="edge"><title>Node31&#45;&gt;Node19</title>
<path fill="none" stroke="midnightblue" d="M525.191,-168.368C504.107,-149.814 454.219,-105.913 427.543,-82.4376"/>
<polygon fill="midnightblue" stroke="midnightblue" points="429.582,-79.5702 419.763,-75.5914 424.958,-84.8252 429.582,-79.5702"/>
</g>
<!-- Node32 -->
<g id="node32" class="node"><title>Node32</title>
<g id="a_node32"><a xlink:href="../../d3/da2/_debug_drawer_8h.html" target="_top" xlink:title=" ">
<polygon fill="white" stroke="black" points="698.5,-112.5 698.5,-131.5 781.5,-131.5 781.5,-112.5 698.5,-112.5"/>
<text text-anchor="middle" x="740" y="-119.5" font-family="Helvetica,sans-Serif" font-size="10.00">DebugDrawer.h</text>
</a>
</g>
</g>
<!-- Node31&#45;&gt;Node32 -->
<g id="edge47" class="edge"><title>Node31&#45;&gt;Node32</title>
<path fill="none" stroke="midnightblue" d="M561.8,-169.94C596.318,-160.848 656.714,-144.939 697.519,-134.19"/>
<polygon fill="midnightblue" stroke="midnightblue" points="698.664,-137.508 707.443,-131.576 696.881,-130.739 698.664,-137.508"/>
</g>
<!-- Node34 -->
<g id="node34" class="node"><title>Node34</title>
<g id="a_node34"><a xlink:title=" ">
<polygon fill="white" stroke="#bfbfbf" points="530.5,-112.5 530.5,-131.5 603.5,-131.5 603.5,-112.5 530.5,-112.5"/>
<text text-anchor="middle" x="567" y="-119.5" font-family="Helvetica,sans-Serif" font-size="10.00">SDL_mixer.h</text>
</a>
</g>
</g>
<!-- Node31&#45;&gt;Node34 -->
<g id="edge54" class="edge"><title>Node31&#45;&gt;Node34</title>
<path fill="none" stroke="midnightblue" d="M540.284,-168.083C544.711,-160.613 551.163,-149.724 556.618,-140.52"/>
<polygon fill="midnightblue" stroke="midnightblue" points="559.727,-142.138 561.814,-131.751 553.705,-138.57 559.727,-142.138"/>
</g>
<!-- Node32&#45;&gt;Node6 -->
<g id="edge48" class="edge"><title>Node32&#45;&gt;Node6</title>
<path fill="none" stroke="midnightblue" d="M723.291,-112.324C706.688,-103.703 680.998,-90.3643 661.78,-80.3855"/>
<polygon fill="midnightblue" stroke="midnightblue" points="663.156,-77.1565 652.668,-75.6545 659.93,-83.3689 663.156,-77.1565"/>
</g>
<!-- Node32&#45;&gt;Node13 -->
<g id="edge51" class="edge"><title>Node32&#45;&gt;Node13</title>
<path fill="none" stroke="midnightblue" d="M764.402,-112.444C790.197,-103.399 831.077,-89.064 860.018,-78.9158"/>
<polygon fill="midnightblue" stroke="midnightblue" points="861.434,-82.1283 869.712,-75.5164 859.118,-75.5226 861.434,-82.1283"/>
</g>
<!-- Node32&#45;&gt;Node19 -->
<g id="edge52" class="edge"><title>Node32&#45;&gt;Node19</title>
<path fill="none" stroke="midnightblue" d="M698.42,-114.256C693.56,-113.486 688.671,-112.72 684,-112 578.835,-95.7918 548.749,-99.5658 441.162,-75.9871"/>
<polygon fill="midnightblue" stroke="midnightblue" points="441.726,-72.5271 431.205,-73.7762 440.208,-79.3607 441.726,-72.5271"/>
</g>
<!-- Node32&#45;&gt;Node20 -->
<g id="edge49" class="edge"><title>Node32&#45;&gt;Node20</title>
<path fill="none" stroke="midnightblue" d="M742.187,-131.591C746.717,-149.388 757.214,-190.625 763.335,-214.674"/>
<polygon fill="midnightblue" stroke="midnightblue" points="759.944,-215.541 765.803,-224.368 766.728,-213.814 759.944,-215.541"/>
</g>
<!-- Node33 -->
<g id="node33" class="node"><title>Node33</title>
<g id="a_node33"><a xlink:title=" ">
<polygon fill="white" stroke="#bfbfbf" points="449,-56.5 449,-75.5 585,-75.5 585,-56.5 449,-56.5"/>
<text text-anchor="middle" x="517" y="-63.5" font-family="Helvetica,sans-Serif" font-size="10.00">LinearMath/btIDebugDraw.h</text>
</a>
</g>
</g>
<!-- Node32&#45;&gt;Node33 -->
<g id="edge50" class="edge"><title>Node32&#45;&gt;Node33</title>
<path fill="none" stroke="midnightblue" d="M704.665,-112.444C666.089,-103.102 604.215,-88.1194 562.147,-77.9326"/>
<polygon fill="midnightblue" stroke="midnightblue" points="562.713,-74.4683 552.17,-75.5164 561.065,-81.2717 562.713,-74.4683"/>
</g>
<!-- Node35&#45;&gt;Node10 -->
<g id="edge63" class="edge"><title>Node35&#45;&gt;Node10</title>
<path fill="none" stroke="midnightblue" d="M350.4,-168.228C361.627,-155.392 378.915,-130.96 368,-112 352.102,-84.3854 321.898,-103.615 306,-76 301.565,-68.2965 299.831,-62.3995 306,-56 343.889,-16.6967 1234.1,-28.6759 1288,-20 1288.21,-19.9655 1288.43,-19.93 1288.64,-19.8935"/>
<polygon fill="midnightblue" stroke="midnightblue" points="1289.47,-23.2947 1298.48,-17.7207 1287.96,-16.4594 1289.47,-23.2947"/>
</g>
<!-- Node35&#45;&gt;Node14 -->
<g id="edge58" class="edge"><title>Node35&#45;&gt;Node14</title>
<path fill="none" stroke="midnightblue" d="M359.773,-168.49C391.36,-153.838 459.724,-124.244 521,-112 861.308,-43.9998 955.109,-104.162 1301,-76 1312.93,-75.0286 1325.87,-73.6457 1337.67,-72.2546"/>
<polygon fill="midnightblue" stroke="midnightblue" points="1338.19,-75.7174 1347.69,-71.0401 1337.35,-68.7682 1338.19,-75.7174"/>
</g>
<!-- Node35&#45;&gt;Node15 -->
<g id="edge64" class="edge"><title>Node35&#45;&gt;Node15</title>
<path fill="none" stroke="midnightblue" d="M370.545,-175.356C484.535,-168.752 905.233,-143.991 1002.19,-131.656"/>
<polygon fill="midnightblue" stroke="midnightblue" points="1002.96,-135.082 1012.37,-130.215 1001.98,-128.151 1002.96,-135.082"/>
</g>
<!-- Node35&#45;&gt;Node16 -->
<g id="edge65" class="edge"><title>Node35&#45;&gt;Node16</title>
<path fill="none" stroke="midnightblue" d="M313.316,-171.871C262.061,-162.706 154.152,-143.411 90.3252,-131.999"/>
<polygon fill="midnightblue" stroke="midnightblue" points="90.5526,-128.484 80.0926,-130.169 89.3204,-135.374 90.5526,-128.484"/>
</g>
<!-- Node35&#45;&gt;Node17 -->
<g id="edge61" class="edge"><title>Node35&#45;&gt;Node17</title>
<path fill="none" stroke="midnightblue" d="M313.149,-175.326C260.05,-171.578 150.144,-160.489 127,-132 121.395,-125.101 121.392,-118.897 127,-112 138.171,-98.2621 245.883,-80.8942 304.854,-72.3064"/>
<polygon fill="midnightblue" stroke="midnightblue" points="305.519,-75.7469 314.918,-70.8572 304.521,-68.8184 305.519,-75.7469"/>
</g>
<!-- Node36 -->
<g id="node36" class="node"><title>Node36</title>
<g id="a_node36"><a xlink:title=" ">
<polygon fill="white" stroke="#bfbfbf" points="136.5,-112.5 136.5,-131.5 211.5,-131.5 211.5,-112.5 136.5,-112.5"/>
<text text-anchor="middle" x="174" y="-119.5" font-family="Helvetica,sans-Serif" font-size="10.00">SDL_image.h</text>
</a>
</g>
</g>
<!-- Node35&#45;&gt;Node36 -->
<g id="edge59" class="edge"><title>Node35&#45;&gt;Node36</title>
<path fill="none" stroke="midnightblue" d="M315.38,-168.444C286.994,-159.32 241.863,-144.813 210.247,-134.651"/>
<polygon fill="midnightblue" stroke="midnightblue" points="211.087,-131.244 200.496,-131.516 208.945,-137.909 211.087,-131.244"/>
</g>
<!-- Node37 -->
<g id="node37" class="node"><title>Node37</title>
<g id="a_node37"><a xlink:title=" ">
<polygon fill="white" stroke="#bfbfbf" points="229.5,-112.5 229.5,-131.5 306.5,-131.5 306.5,-112.5 229.5,-112.5"/>
<text text-anchor="middle" x="268" y="-119.5" font-family="Helvetica,sans-Serif" font-size="10.00">SDL_opengl.h</text>
</a>
</g>
</g>
<!-- Node35&#45;&gt;Node37 -->
<g id="edge60" class="edge"><title>Node35&#45;&gt;Node37</title>
<path fill="none" stroke="midnightblue" d="M330.111,-168.324C318.85,-160.107 301.713,-147.602 288.291,-137.807"/>
<polygon fill="midnightblue" stroke="midnightblue" points="290.247,-134.901 280.106,-131.834 286.12,-140.556 290.247,-134.901"/>
</g>
<!-- Node38 -->
<g id="node38" class="node"><title>Node38</title>
<g id="a_node38"><a xlink:title=" ">
<polygon fill="white" stroke="#bfbfbf" points="324.5,-112.5 324.5,-131.5 359.5,-131.5 359.5,-112.5 324.5,-112.5"/>
<text text-anchor="middle" x="342" y="-119.5" font-family="Helvetica,sans-Serif" font-size="10.00">map</text>
</a>
</g>
</g>
<!-- Node35&#45;&gt;Node38 -->
<g id="edge62" class="edge"><title>Node35&#45;&gt;Node38</title>
<path fill="none" stroke="midnightblue" d="M342,-168.083C342,-161.006 342,-150.861 342,-141.986"/>
<polygon fill="midnightblue" stroke="midnightblue" points="345.5,-141.751 342,-131.751 338.5,-141.751 345.5,-141.751"/>
</g>
</g>
</svg>
