<?xml version="1.0" encoding="UTF-8" standalone="no"?>
<!DOCTYPE svg PUBLIC "-//W3C//DTD SVG 1.1//EN"
 "http://www.w3.org/Graphics/SVG/1.1/DTD/svg11.dtd">
<!-- Generated by graphviz version 2.38.0 (20140413.2041)
 -->
<!-- Title: PointLightShadowMap Pages: 1 -->
<svg width="336pt" height="286pt"
 viewBox="0.00 0.00 335.50 286.00" xmlns="http://www.w3.org/2000/svg" xmlns:xlink="http://www.w3.org/1999/xlink">
<g id="graph0" class="graph" transform="scale(1 1) rotate(0) translate(4 282)">
<title>PointLightShadowMap</title>
<polygon fill="white" stroke="none" points="-4,4 -4,-282 331.5,-282 331.5,4 -4,4"/>
<!-- Node1 -->
<g id="node1" class="node"><title>Node1</title>
<g id="a_node1"><a xlink:title=" ">
<polygon fill="#bfbfbf" stroke="black" points="121,-0.5 121,-19.5 234,-19.5 234,-0.5 121,-0.5"/>
<text text-anchor="middle" x="177.5" y="-7.5" font-family="Helvetica,sans-Serif" font-size="10.00">PointLightShadowMap</text>
</a>
</g>
</g>
<!-- Node2 -->
<g id="node2" class="node"><title>Node2</title>
<g id="a_node2"><a xlink:href="../../d1/d51/class_shader.html" target="_top" xlink:title=" ">
<polygon fill="white" stroke="black" points="154,-67.5 154,-86.5 201,-86.5 201,-67.5 154,-67.5"/>
<text text-anchor="middle" x="177.5" y="-74.5" font-family="Helvetica,sans-Serif" font-size="10.00">Shader</text>
</a>
</g>
</g>
<!-- Node2&#45;&gt;Node1 -->
<g id="edge1" class="edge"><title>Node2&#45;&gt;Node1</title>
<path fill="none" stroke="#9a32cd" stroke-dasharray="5,2" d="M177.5,-57.037C177.5,-44.6703 177.5,-29.1198 177.5,-19.6273"/>
<polygon fill="#9a32cd" stroke="#9a32cd" points="174,-57.2338 177.5,-67.2338 181,-57.2338 174,-57.2338"/>
<text text-anchor="middle" x="216" y="-41" font-family="Helvetica,sans-Serif" font-size="10.00"> depthMapShader</text>
</g>
<!-- Node3 -->
<g id="node3" class="node"><title>Node3</title>
<g id="a_node3"><a xlink:href="../../d2/d00/class_component.html" target="_top" xlink:title=" ">
<polygon fill="white" stroke="black" points="0,-134.5 0,-153.5 115,-153.5 115,-134.5 0,-134.5"/>
<text text-anchor="middle" x="57.5" y="-141.5" font-family="Helvetica,sans-Serif" font-size="10.00">Component&lt; Shader &gt;</text>
</a>
</g>
</g>
<!-- Node3&#45;&gt;Node2 -->
<g id="edge2" class="edge"><title>Node3&#45;&gt;Node2</title>
<path fill="none" stroke="midnightblue" d="M82.4995,-129.459C106.289,-116.573 141.366,-97.5727 161.573,-86.6273"/>
<polygon fill="midnightblue" stroke="midnightblue" points="80.8097,-126.393 73.6837,-134.234 84.1437,-132.548 80.8097,-126.393"/>
</g>
<!-- Node4 -->
<g id="node4" class="node"><title>Node4</title>
<g id="a_node4"><a xlink:href="../../d5/d79/class_component_interface.html" target="_top" xlink:title=" ">
<polygon fill="white" stroke="black" points="14,-258.5 14,-277.5 117,-277.5 117,-258.5 14,-258.5"/>
<text text-anchor="middle" x="65.5" y="-265.5" font-family="Helvetica,sans-Serif" font-size="10.00">ComponentInterface</text>
</a>
</g>
</g>
<!-- Node4&#45;&gt;Node3 -->
<g id="edge3" class="edge"><title>Node4&#45;&gt;Node3</title>
<path fill="none" stroke="midnightblue" d="M63.1478,-248.087C62.1924,-239.788 61.1602,-229.923 60.5,-221 58.707,-196.77 57.9417,-168.109 57.653,-153.904"/>
<polygon fill="midnightblue" stroke="midnightblue" points="59.6945,-248.686 64.3611,-258.198 66.6446,-247.852 59.6945,-248.686"/>
</g>
<!-- Node5 -->
<g id="node5" class="node"><title>Node5</title>
<g id="a_node5"><a xlink:href="../../d2/d00/class_component.html" target="_top" xlink:title=" ">
<polygon fill="white" stroke="black" points="70,-201.5 70,-220.5 159,-220.5 159,-201.5 70,-201.5"/>
<text text-anchor="middle" x="114.5" y="-208.5" font-family="Helvetica,sans-Serif" font-size="10.00">Component&lt; T &gt;</text>
</a>
</g>
</g>
<!-- Node4&#45;&gt;Node5 -->
<g id="edge5" class="edge"><title>Node4&#45;&gt;Node5</title>
<path fill="none" stroke="midnightblue" d="M79.9077,-250.828C88.682,-240.979 99.549,-228.782 106.736,-220.715"/>
<polygon fill="midnightblue" stroke="midnightblue" points="77.195,-248.611 73.1563,-258.406 82.4217,-253.268 77.195,-248.611"/>
</g>
<!-- Node5&#45;&gt;Node3 -->
<g id="edge4" class="edge"><title>Node5&#45;&gt;Node3</title>
<path fill="none" stroke="orange" stroke-dasharray="5,2" d="M100.149,-193.635C89.0015,-180.923 73.9842,-163.798 65.0655,-153.627"/>
<polygon fill="orange" stroke="orange" points="97.5879,-196.023 106.813,-201.234 102.851,-191.408 97.5879,-196.023"/>
<text text-anchor="middle" x="115.5" y="-175" font-family="Helvetica,sans-Serif" font-size="10.00"> &lt; Shader &gt;</text>
</g>
<!-- Node6 -->
<g id="node6" class="node"><title>Node6</title>
<g id="a_node6"><a xlink:title=" ">
<polygon fill="white" stroke="#bfbfbf" points="133.5,-134.5 133.5,-153.5 221.5,-153.5 221.5,-134.5 133.5,-134.5"/>
<text text-anchor="middle" x="177.5" y="-141.5" font-family="Helvetica,sans-Serif" font-size="10.00">SHADER_TYPE</text>
</a>
</g>
</g>
<!-- Node6&#45;&gt;Node2 -->
<g id="edge6" class="edge"><title>Node6&#45;&gt;Node2</title>
<path fill="none" stroke="#9a32cd" stroke-dasharray="5,2" d="M177.5,-124.037C177.5,-111.67 177.5,-96.1198 177.5,-86.6273"/>
<polygon fill="#9a32cd" stroke="#9a32cd" points="174,-124.234 177.5,-134.234 181,-124.234 174,-124.234"/>
<text text-anchor="middle" x="204.5" y="-108" font-family="Helvetica,sans-Serif" font-size="10.00"> shaderType</text>
</g>
<!-- Node7 -->
<g id="node7" class="node"><title>Node7</title>
<g id="a_node7"><a xlink:title=" ">
<polygon fill="white" stroke="#bfbfbf" points="239.5,-134.5 239.5,-153.5 327.5,-153.5 327.5,-134.5 239.5,-134.5"/>
<text text-anchor="middle" x="283.5" y="-141.5" font-family="Helvetica,sans-Serif" font-size="10.00">SHADER_TASK</text>
</a>
</g>
</g>
<!-- Node7&#45;&gt;Node2 -->
<g id="edge7" class="edge"><title>Node7&#45;&gt;Node2</title>
<path fill="none" stroke="#9a32cd" stroke-dasharray="5,2" d="M266.385,-127.841C257.531,-120.425 246.332,-111.681 235.5,-105 223.967,-97.8866 210.254,-91.4211 199.058,-86.6016"/>
<polygon fill="#9a32cd" stroke="#9a32cd" points="264.199,-130.576 274.067,-134.433 268.758,-125.264 264.199,-130.576"/>
<text text-anchor="middle" x="279" y="-108" font-family="Helvetica,sans-Serif" font-size="10.00"> currentTask</text>
</g>
</g>
</svg>
