<?xml version="1.0" encoding="UTF-8" standalone="no"?>
<!DOCTYPE svg PUBLIC "-//W3C//DTD SVG 1.1//EN"
 "http://www.w3.org/Graphics/SVG/1.1/DTD/svg11.dtd">
<!-- Generated by graphviz version 2.38.0 (20140413.2041)
 -->
<!-- Title: PlayerControllerSystem::executeRayTesting Pages: 1 -->
<!--zoomable 456 -->
<svg id="main" version="1.1" xmlns="http://www.w3.org/2000/svg" xmlns:xlink="http://www.w3.org/1999/xlink" xml:space="preserve" onload="init(evt)">
<style type="text/css"><![CDATA[
.edge:hover path { stroke: red; }
.edge:hover polygon { stroke: red; fill: red; }
]]></style>
<script type="text/javascript"><![CDATA[
var edges = document.getElementsByTagName('g');
if (edges && edges.length) {
  for (var i=0;i<edges.length;i++) {
    if (edges[i].id.substr(0,4)=='edge') {
      edges[i].setAttribute('class','edge');
    }
  }
}
]]></script>
        <defs>
                <circle id="rim" cx="0" cy="0" r="7"/>
                <circle id="rim2" cx="0" cy="0" r="3.5"/>
                <g id="zoomPlus">
                        <use xlink:href="#rim" fill="#404040">
                                <set attributeName="fill" to="#808080" begin="zoomplus.mouseover" end="zoomplus.mouseout"/>
                        </use>
                        <path d="M-4,0h8M0,-4v8" fill="none" stroke="white" stroke-width="1.5" pointer-events="none"/>
                </g>
                <g id="zoomMin">
                        <use xlink:href="#rim" fill="#404040">
                                <set attributeName="fill" to="#808080" begin="zoomminus.mouseover" end="zoomminus.mouseout"/>
                        </use>
                        <path d="M-4,0h8" fill="none" stroke="white" stroke-width="1.5" pointer-events="none"/>
                </g>
                <g id="dirArrow">
                        <path fill="none" stroke="white" stroke-width="1.5" d="M0,-3.0v7 M-2.5,-0.5L0,-3.0L2.5,-0.5"/>
                </g>
               <g id="resetDef">
                       <use xlink:href="#rim2" fill="#404040">
                               <set attributeName="fill" to="#808080" begin="reset.mouseover" end="reset.mouseout"/>
                       </use>
               </g>
        </defs>

<script type="text/javascript">
var viewWidth = 666;
var viewHeight = 456;
var sectionId = 'dynsection-6';
</script>
<script xlink:href="../../svgpan.js"/>
<svg id="graph" class="graph">
<g id="viewport">
<title>PlayerControllerSystem::executeRayTesting</title>
<polygon fill="white" stroke="none" points="-4,4 -4,-451.5 662,-451.5 662,4 -4,4"/>
<!-- Node1 -->
<g id="node1" class="node"><title>Node1</title>
<g id="a_node1"><a xlink:title=" ">
<polygon fill="#bfbfbf" stroke="black" points="0,-197 0,-227 119,-227 119,-197 0,-197"/>
<text text-anchor="start" x="8" y="-215" font-family="Helvetica,sans-Serif" font-size="10.00">PlayerControllerSystem</text>
<text text-anchor="middle" x="59.5" y="-204" font-family="Helvetica,sans-Serif" font-size="10.00">::executeRayTesting</text>
</a>
</g>
</g>
<!-- Node2 -->
<g id="node2" class="node"><title>Node2</title>
<g id="a_node2"><a xlink:href="../../d5/d50/class_player_controller_system.html#a1a9ee3e7d38a5f5582d499a6af1aab21" target="_top" xlink:title=" ">
<polygon fill="white" stroke="black" points="155.5,-417 155.5,-447 298.5,-447 298.5,-417 155.5,-417"/>
<text text-anchor="start" x="163.5" y="-435" font-family="Helvetica,sans-Serif" font-size="10.00">PlayerControllerSystem</text>
<text text-anchor="middle" x="227" y="-424" font-family="Helvetica,sans-Serif" font-size="10.00">::getCurrentSlopeSpeedIndex</text>
</a>
</g>
</g>
<!-- Node1&#45;&gt;Node2 -->
<g id="edge1" class="edge"><title>Node1&#45;&gt;Node2</title>
<path fill="none" stroke="midnightblue" d="M63.6504,-227.072C71.9948,-263.319 98.0433,-356.126 155,-407 156.742,-408.556 158.587,-410.017 160.512,-411.388"/>
<polygon fill="midnightblue" stroke="midnightblue" points="159.041,-414.592 169.394,-416.842 162.704,-408.627 159.041,-414.592"/>
</g>
<!-- Node3 -->
<g id="node3" class="node"><title>Node3</title>
<g id="a_node3"><a xlink:href="../../d3/dbc/class_ray_caster.html#ab40a61c642c4bd5e6c6931803c3269eb" target="_top" xlink:title=" ">
<polygon fill="white" stroke="black" points="164.5,-378.5 164.5,-397.5 289.5,-397.5 289.5,-378.5 164.5,-378.5"/>
<text text-anchor="middle" x="227" y="-385.5" font-family="Helvetica,sans-Serif" font-size="10.00">RayCaster::getHitNormal</text>
</a>
</g>
</g>
<!-- Node1&#45;&gt;Node3 -->
<g id="edge2" class="edge"><title>Node1&#45;&gt;Node3</title>
<path fill="none" stroke="midnightblue" d="M65.2656,-227.168C75.9585,-258.655 104.927,-331.31 155,-369 157.518,-370.896 160.212,-372.602 163.023,-374.139"/>
<polygon fill="midnightblue" stroke="midnightblue" points="161.792,-377.427 172.333,-378.491 164.756,-371.085 161.792,-377.427"/>
</g>
<!-- Node4 -->
<g id="node4" class="node"><title>Node4</title>
<g id="a_node4"><a xlink:href="../../d5/d50/class_player_controller_system.html#a8398781371121f01743869a9ef9dd26e" target="_top" xlink:title=" ">
<polygon fill="white" stroke="black" points="155,-329 155,-359 299,-359 299,-329 155,-329"/>
<text text-anchor="start" x="163" y="-347" font-family="Helvetica,sans-Serif" font-size="10.00">PlayerControllerSystem</text>
<text text-anchor="middle" x="227" y="-336" font-family="Helvetica,sans-Serif" font-size="10.00">::getLowestRayHitForAllRays</text>
</a>
</g>
</g>
<!-- Node1&#45;&gt;Node4 -->
<g id="edge3" class="edge"><title>Node1&#45;&gt;Node4</title>
<path fill="none" stroke="midnightblue" d="M71.1351,-227.034C87.1585,-248.758 119.426,-289.048 155,-314 160.52,-317.872 166.619,-321.382 172.853,-324.523"/>
<polygon fill="midnightblue" stroke="midnightblue" points="171.496,-327.753 182.033,-328.859 174.486,-321.423 171.496,-327.753"/>
</g>
<!-- Node10 -->
<g id="node10" class="node"><title>Node10</title>
<g id="a_node10"><a xlink:href="../../d3/dbc/class_ray_caster.html#a85220b230435f4132f72a1ae9304b632" target="_top" xlink:title=" ">
<polygon fill="white" stroke="black" points="541.5,-291.5 541.5,-310.5 627.5,-310.5 627.5,-291.5 541.5,-291.5"/>
<text text-anchor="middle" x="584.5" y="-298.5" font-family="Helvetica,sans-Serif" font-size="10.00">RayCaster::size</text>
</a>
</g>
</g>
<!-- Node1&#45;&gt;Node10 -->
<g id="edge22" class="edge"><title>Node1&#45;&gt;Node10</title>
<path fill="none" stroke="midnightblue" d="M75.2213,-227.134C92.5369,-243.8 123.002,-269.729 155,-281 283.999,-326.437 448.431,-316.977 531.074,-307.999"/>
<polygon fill="midnightblue" stroke="midnightblue" points="531.676,-311.454 541.22,-306.854 530.891,-304.498 531.676,-311.454"/>
</g>
<!-- Node11 -->
<g id="node11" class="node"><title>Node11</title>
<g id="a_node11"><a xlink:href="../../d5/d50/class_player_controller_system.html#a9147a308a6d46d7f932294d5ec7bb6c3" target="_top" xlink:title=" ">
<polygon fill="white" stroke="black" points="167.5,-241 167.5,-271 286.5,-271 286.5,-241 167.5,-241"/>
<text text-anchor="start" x="175.5" y="-259" font-family="Helvetica,sans-Serif" font-size="10.00">PlayerControllerSystem</text>
<text text-anchor="middle" x="227" y="-248" font-family="Helvetica,sans-Serif" font-size="10.00">::getSlopeSpeed</text>
</a>
</g>
</g>
<!-- Node1&#45;&gt;Node11 -->
<g id="edge10" class="edge"><title>Node1&#45;&gt;Node11</title>
<path fill="none" stroke="midnightblue" d="M116.993,-227.019C130.764,-230.68 145.617,-234.629 159.795,-238.399"/>
<polygon fill="midnightblue" stroke="midnightblue" points="158.917,-241.787 169.481,-240.974 160.716,-235.022 158.917,-241.787"/>
</g>
<!-- Node12 -->
<g id="node12" class="node"><title>Node12</title>
<g id="a_node12"><a xlink:href="../../d4/daa/class_collision_mesh.html#ade31943d65b275017a002515e1b2af3c" target="_top" xlink:title=" ">
<polygon fill="white" stroke="black" points="335,-196.5 335,-215.5 475,-215.5 475,-196.5 335,-196.5"/>
<text text-anchor="middle" x="405" y="-203.5" font-family="Helvetica,sans-Serif" font-size="10.00">CollisionMesh::getVelocitybt</text>
</a>
</g>
</g>
<!-- Node1&#45;&gt;Node12 -->
<g id="edge11" class="edge"><title>Node1&#45;&gt;Node12</title>
<path fill="none" stroke="midnightblue" d="M119.159,-210.975C175.791,-209.986 261.953,-208.481 324.683,-207.385"/>
<polygon fill="midnightblue" stroke="midnightblue" points="324.996,-210.881 334.933,-207.206 324.873,-203.882 324.996,-210.881"/>
</g>
<!-- Node13 -->
<g id="node13" class="node"><title>Node13</title>
<g id="a_node13"><a xlink:href="../../d5/d44/class_physics_world.html#a61ba42a9ee27640c61acf2e1e85dc78f" target="_top" xlink:title=" ">
<polygon fill="white" stroke="black" points="166,-164.5 166,-183.5 288,-183.5 288,-164.5 166,-164.5"/>
<text text-anchor="middle" x="227" y="-171.5" font-family="Helvetica,sans-Serif" font-size="10.00">PhysicsWorld::getWorld</text>
</a>
</g>
</g>
<!-- Node1&#45;&gt;Node13 -->
<g id="edge12" class="edge"><title>Node1&#45;&gt;Node13</title>
<path fill="none" stroke="midnightblue" d="M119.315,-198.496C137.334,-194.358 157.009,-189.841 174.5,-185.825"/>
<polygon fill="midnightblue" stroke="midnightblue" points="175.555,-189.174 184.518,-183.525 173.988,-182.351 175.555,-189.174"/>
</g>
<!-- Node14 -->
<g id="node14" class="node"><title>Node14</title>
<g id="a_node14"><a xlink:href="../../d5/d50/class_player_controller_system.html#a4ee740fcbaa4e826d5d2ef49e0c54c7f" target="_top" xlink:title=" ">
<polygon fill="white" stroke="black" points="167.5,-115 167.5,-145 286.5,-145 286.5,-115 167.5,-115"/>
<text text-anchor="start" x="175.5" y="-133" font-family="Helvetica,sans-Serif" font-size="10.00">PlayerControllerSystem</text>
<text text-anchor="middle" x="227" y="-122" font-family="Helvetica,sans-Serif" font-size="10.00">::handleRayHit</text>
</a>
</g>
</g>
<!-- Node1&#45;&gt;Node14 -->
<g id="edge13" class="edge"><title>Node1&#45;&gt;Node14</title>
<path fill="none" stroke="midnightblue" d="M82.6939,-196.832C101.403,-184.488 129.179,-167.177 155,-155 159.61,-152.826 164.463,-150.734 169.378,-148.75"/>
<polygon fill="midnightblue" stroke="midnightblue" points="170.801,-151.952 178.859,-145.074 168.27,-145.426 170.801,-151.952"/>
</g>
<!-- Node16 -->
<g id="node16" class="node"><title>Node16</title>
<g id="a_node16"><a xlink:href="../../d7/dd1/namespacehh.html#ad5fffa12ef6d4badda8b6db66b21f4fb" target="_top" xlink:title=" ">
<polygon fill="white" stroke="black" points="543.5,-76.5 543.5,-95.5 625.5,-95.5 625.5,-76.5 543.5,-76.5"/>
<text text-anchor="middle" x="584.5" y="-83.5" font-family="Helvetica,sans-Serif" font-size="10.00">hh::toGlmVec3</text>
</a>
</g>
</g>
<!-- Node1&#45;&gt;Node16 -->
<g id="edge23" class="edge"><title>Node1&#45;&gt;Node16</title>
<path fill="none" stroke="midnightblue" d="M65.5501,-196.761C76.4176,-166.734 105.16,-100.456 155,-73 283.988,-1.94295 469.567,-48.4942 547.2,-73.3006"/>
<polygon fill="midnightblue" stroke="midnightblue" points="546.397,-76.7201 556.989,-76.4978 548.57,-70.066 546.397,-76.7201"/>
</g>
<!-- Node17 -->
<g id="node17" class="node"><title>Node17</title>
<g id="a_node17"><a xlink:href="../../d4/daa/class_collision_mesh.html#a094cbf7841a6b6badc1e19f048819ebe" target="_top" xlink:title=" ">
<polygon fill="white" stroke="black" points="339,-76.5 339,-95.5 471,-95.5 471,-76.5 339,-76.5"/>
<text text-anchor="middle" x="405" y="-83.5" font-family="Helvetica,sans-Serif" font-size="10.00">CollisionMesh::setVelocity</text>
</a>
</g>
</g>
<!-- Node1&#45;&gt;Node17 -->
<g id="edge21" class="edge"><title>Node1&#45;&gt;Node17</title>
<path fill="none" stroke="midnightblue" d="M68.5756,-196.981C82.5443,-172.716 113.73,-125.538 155,-105 208.764,-78.2451 277.245,-74.8806 328.777,-77.4273"/>
<polygon fill="midnightblue" stroke="midnightblue" points="328.663,-80.9265 338.848,-78.0103 329.067,-73.9382 328.663,-80.9265"/>
</g>
<!-- Node20 -->
<g id="node20" class="node"><title>Node20</title>
<g id="a_node20"><a xlink:href="../../d3/dbc/class_ray_caster.html#abef1bda7c02b3cb13617706bf18faea9" target="_top" xlink:title=" ">
<polygon fill="white" stroke="black" points="176.5,-0.5 176.5,-19.5 277.5,-19.5 277.5,-0.5 176.5,-0.5"/>
<text text-anchor="middle" x="227" y="-7.5" font-family="Helvetica,sans-Serif" font-size="10.00">RayCaster::rayTest</text>
</a>
</g>
</g>
<!-- Node1&#45;&gt;Node20 -->
<g id="edge20" class="edge"><title>Node1&#45;&gt;Node20</title>
<path fill="none" stroke="midnightblue" d="M64.3613,-196.934C73.8545,-162.883 101.543,-79.4254 155,-34 159.88,-29.8531 165.508,-26.4136 171.416,-23.5628"/>
<polygon fill="midnightblue" stroke="midnightblue" points="173.027,-26.6812 180.863,-19.5505 170.291,-20.2382 173.027,-26.6812"/>
</g>
<!-- Node5 -->
<g id="node5" class="node"><title>Node5</title>
<g id="a_node5"><a xlink:href="../../d3/dbc/class_ray_caster.html#a43455e12a824e4945575324cfd7b2709" target="_top" xlink:title=" ">
<polygon fill="white" stroke="black" points="340.5,-417 340.5,-447 469.5,-447 469.5,-417 340.5,-417"/>
<text text-anchor="start" x="348.5" y="-435" font-family="Helvetica,sans-Serif" font-size="10.00">RayCaster::getHitFraction</text>
<text text-anchor="middle" x="405" y="-424" font-family="Helvetica,sans-Serif" font-size="10.00">RaySpace</text>
</a>
</g>
</g>
<!-- Node4&#45;&gt;Node5 -->
<g id="edge4" class="edge"><title>Node4&#45;&gt;Node5</title>
<path fill="none" stroke="midnightblue" d="M280.17,-359.118C286.742,-361.95 293.189,-365.23 299,-369 318.517,-381.662 315.54,-394.25 335,-407 338.057,-409.003 341.296,-410.871 344.637,-412.61"/>
<polygon fill="midnightblue" stroke="midnightblue" points="343.132,-415.769 353.665,-416.911 346.142,-409.45 343.132,-415.769"/>
</g>
<!-- Node6 -->
<g id="node6" class="node"><title>Node6</title>
<g id="a_node6"><a xlink:href="../../d3/dbc/class_ray_caster.html#a5edbf39fa4e279c529222aa22291f22d" target="_top" xlink:title=" ">
<polygon fill="white" stroke="black" points="349.5,-378.5 349.5,-397.5 460.5,-397.5 460.5,-378.5 349.5,-378.5"/>
<text text-anchor="middle" x="405" y="-385.5" font-family="Helvetica,sans-Serif" font-size="10.00">RayCaster::getLength</text>
</a>
</g>
</g>
<!-- Node4&#45;&gt;Node6 -->
<g id="edge5" class="edge"><title>Node4&#45;&gt;Node6</title>
<path fill="none" stroke="midnightblue" d="M288.077,-359.019C310.242,-364.56 335.043,-370.761 356,-376"/>
<polygon fill="midnightblue" stroke="midnightblue" points="355.4,-379.458 365.95,-378.488 357.098,-372.667 355.4,-379.458"/>
</g>
<!-- Node7 -->
<g id="node7" class="node"><title>Node7</title>
<g id="a_node7"><a xlink:href="../../d5/d50/class_player_controller_system.html#a88fff320bc972582a23d69ae512eabe1" target="_top" xlink:title=" ">
<polygon fill="white" stroke="black" points="345.5,-329 345.5,-359 464.5,-359 464.5,-329 345.5,-329"/>
<text text-anchor="start" x="353.5" y="-347" font-family="Helvetica,sans-Serif" font-size="10.00">PlayerControllerSystem</text>
<text text-anchor="middle" x="405" y="-336" font-family="Helvetica,sans-Serif" font-size="10.00">::getLowestRayHitIndex</text>
</a>
</g>
</g>
<!-- Node4&#45;&gt;Node7 -->
<g id="edge6" class="edge"><title>Node4&#45;&gt;Node7</title>
<path fill="none" stroke="midnightblue" d="M299.079,-344C310.959,-344 323.266,-344 335.09,-344"/>
<polygon fill="midnightblue" stroke="midnightblue" points="335.334,-347.5 345.334,-344 335.334,-340.5 335.334,-347.5"/>
</g>
<!-- Node8 -->
<g id="node8" class="node"><title>Node8</title>
<g id="a_node8"><a xlink:href="../../d3/dbc/class_ray_caster.html#a45c26b33e25a86d40d13ac887c0a78ca" target="_top" xlink:title=" ">
<polygon fill="white" stroke="black" points="511,-332.5 511,-351.5 658,-351.5 658,-332.5 511,-332.5"/>
<text text-anchor="middle" x="584.5" y="-339.5" font-family="Helvetica,sans-Serif" font-size="10.00">RayCaster::getCollisionObject</text>
</a>
</g>
</g>
<!-- Node7&#45;&gt;Node8 -->
<g id="edge7" class="edge"><title>Node7&#45;&gt;Node8</title>
<path fill="none" stroke="midnightblue" d="M464.612,-343.34C476.13,-343.21 488.417,-343.071 500.558,-342.935"/>
<polygon fill="midnightblue" stroke="midnightblue" points="500.742,-346.433 510.702,-342.82 500.663,-339.433 500.742,-346.433"/>
</g>
<!-- Node9 -->
<g id="node9" class="node"><title>Node9</title>
<g id="a_node9"><a xlink:href="../../d3/dbc/class_ray_caster.html#a65d444adaed1585db97b1c6361d54265" target="_top" xlink:title=" ">
<polygon fill="white" stroke="black" points="520,-370.5 520,-389.5 649,-389.5 649,-370.5 520,-370.5"/>
<text text-anchor="middle" x="584.5" y="-377.5" font-family="Helvetica,sans-Serif" font-size="10.00">RayCaster::getHitFraction</text>
</a>
</g>
</g>
<!-- Node7&#45;&gt;Node9 -->
<g id="edge8" class="edge"><title>Node7&#45;&gt;Node9</title>
<path fill="none" stroke="midnightblue" d="M464.612,-355.888C484.567,-359.935 506.829,-364.45 526.644,-368.469"/>
<polygon fill="midnightblue" stroke="midnightblue" points="525.959,-371.901 536.455,-370.458 527.35,-365.04 525.959,-371.901"/>
</g>
<!-- Node7&#45;&gt;Node10 -->
<g id="edge9" class="edge"><title>Node7&#45;&gt;Node10</title>
<path fill="none" stroke="midnightblue" d="M464.612,-329.801C487.19,-324.331 512.721,-318.146 534.32,-312.914"/>
<polygon fill="midnightblue" stroke="midnightblue" points="535.364,-316.262 544.259,-310.506 533.716,-309.459 535.364,-316.262"/>
</g>
<!-- Node14&#45;&gt;Node12 -->
<g id="edge16" class="edge"><title>Node14&#45;&gt;Node12</title>
<path fill="none" stroke="midnightblue" d="M276.91,-145.132C284.461,-148.061 292.052,-151.365 299,-155 316.488,-164.149 317.554,-171.772 335,-181 343.61,-185.554 353.23,-189.618 362.49,-193.078"/>
<polygon fill="midnightblue" stroke="midnightblue" points="361.357,-196.39 371.952,-196.46 363.714,-189.798 361.357,-196.39"/>
</g>
<!-- Node15 -->
<g id="node15" class="node"><title>Node15</title>
<g id="a_node15"><a xlink:href="../../d4/daa/class_collision_mesh.html#aa9ad0053cdd4fd6e991b343e174e543f" target="_top" xlink:title=" ">
<polygon fill="white" stroke="black" points="339,-114.5 339,-133.5 471,-133.5 471,-114.5 339,-114.5"/>
<text text-anchor="middle" x="405" y="-121.5" font-family="Helvetica,sans-Serif" font-size="10.00">CollisionMesh::getPosition</text>
</a>
</g>
</g>
<!-- Node14&#45;&gt;Node15 -->
<g id="edge14" class="edge"><title>Node14&#45;&gt;Node15</title>
<path fill="none" stroke="midnightblue" d="M286.605,-128.002C300.124,-127.541 314.688,-127.045 328.803,-126.564"/>
<polygon fill="midnightblue" stroke="midnightblue" points="329.105,-130.055 338.98,-126.217 328.866,-123.059 329.105,-130.055"/>
</g>
<!-- Node14&#45;&gt;Node17 -->
<g id="edge17" class="edge"><title>Node14&#45;&gt;Node17</title>
<path fill="none" stroke="midnightblue" d="M286.605,-115.349C309.136,-109.716 334.572,-103.357 355.992,-98.002"/>
<polygon fill="midnightblue" stroke="midnightblue" points="356.987,-101.361 365.839,-95.5401 355.289,-94.5701 356.987,-101.361"/>
</g>
<!-- Node18 -->
<g id="node18" class="node"><title>Node18</title>
<g id="a_node18"><a xlink:href="../../d4/daa/class_collision_mesh.html#ae1579dc2df203d65a3ec2a9761748100" target="_top" xlink:title=" ">
<polygon fill="white" stroke="black" points="344.5,-152.5 344.5,-171.5 465.5,-171.5 465.5,-152.5 344.5,-152.5"/>
<text text-anchor="middle" x="405" y="-159.5" font-family="Helvetica,sans-Serif" font-size="10.00">CollisionMesh::translate</text>
</a>
</g>
</g>
<!-- Node14&#45;&gt;Node18 -->
<g id="edge18" class="edge"><title>Node14&#45;&gt;Node18</title>
<path fill="none" stroke="midnightblue" d="M286.605,-140.656C304.16,-143.847 323.477,-147.359 341.285,-150.597"/>
<polygon fill="midnightblue" stroke="midnightblue" points="341.105,-154.122 351.57,-152.467 342.358,-147.235 341.105,-154.122"/>
</g>
<!-- Node15&#45;&gt;Node16 -->
<g id="edge15" class="edge"><title>Node15&#45;&gt;Node16</title>
<path fill="none" stroke="midnightblue" d="M450.791,-114.411C475.905,-109.034 507.303,-102.313 533.252,-96.7572"/>
<polygon fill="midnightblue" stroke="midnightblue" points="534.225,-100.128 543.271,-94.6124 532.76,-93.2834 534.225,-100.128"/>
</g>
<!-- Node19 -->
<g id="node19" class="node"><title>Node19</title>
<g id="a_node19"><a xlink:href="../../d7/dd1/namespacehh.html#aa0102ec32d9d665ebdda89fa4c03c5b6" target="_top" xlink:title=" ">
<polygon fill="white" stroke="black" points="547.5,-152.5 547.5,-171.5 621.5,-171.5 621.5,-152.5 547.5,-152.5"/>
<text text-anchor="middle" x="584.5" y="-159.5" font-family="Helvetica,sans-Serif" font-size="10.00">hh::toBtVec3</text>
</a>
</g>
</g>
<!-- Node18&#45;&gt;Node19 -->
<g id="edge19" class="edge"><title>Node18&#45;&gt;Node19</title>
<path fill="none" stroke="midnightblue" d="M465.599,-162C488.987,-162 515.413,-162 537.311,-162"/>
<polygon fill="midnightblue" stroke="midnightblue" points="537.344,-165.5 547.344,-162 537.344,-158.5 537.344,-165.5"/>
</g>
</g>
</svg>
        <g id="navigator" transform="translate(0 0)" fill="#404254">
                <rect fill="#f2f5e9" fill-opacity="0.5" stroke="#606060" stroke-width=".5" x="0" y="0" width="60" height="60"/>
                <use id="zoomplus" xlink:href="#zoomPlus" x="17" y="9" onmousedown="handleZoom(evt,'in')"/>
                <use id="zoomminus" xlink:href="#zoomMin" x="42" y="9" onmousedown="handleZoom(evt,'out')"/>
                <use id="reset" xlink:href="#resetDef" x="30" y="36" onmousedown="handleReset()"/>
                <g id="arrowUp" xlink:href="#dirArrow" transform="translate(30 24)" onmousedown="handlePan(0,-1)">
                  <use xlink:href="#rim" fill="#404040">
                        <set attributeName="fill" to="#808080" begin="arrowUp.mouseover" end="arrowUp.mouseout"/>
                  </use>
                  <path fill="none" stroke="white" stroke-width="1.5" d="M0,-3.0v7 M-2.5,-0.5L0,-3.0L2.5,-0.5"/>
                </g>
                <g id="arrowRight" xlink:href="#dirArrow" transform="rotate(90) translate(36 -43)" onmousedown="handlePan(1,0)">
                  <use xlink:href="#rim" fill="#404040">
                        <set attributeName="fill" to="#808080" begin="arrowRight.mouseover" end="arrowRight.mouseout"/>
                  </use>
                  <path fill="none" stroke="white" stroke-width="1.5" d="M0,-3.0v7 M-2.5,-0.5L0,-3.0L2.5,-0.5"/>
                </g>
                <g id="arrowDown" xlink:href="#dirArrow" transform="rotate(180) translate(-30 -48)" onmousedown="handlePan(0,1)">
                  <use xlink:href="#rim" fill="#404040">
                        <set attributeName="fill" to="#808080" begin="arrowDown.mouseover" end="arrowDown.mouseout"/>
                  </use>
                  <path fill="none" stroke="white" stroke-width="1.5" d="M0,-3.0v7 M-2.5,-0.5L0,-3.0L2.5,-0.5"/>
                </g>
                <g id="arrowLeft" xlink:href="#dirArrow" transform="rotate(270) translate(-36 17)" onmousedown="handlePan(-1,0)">
                  <use xlink:href="#rim" fill="#404040">
                        <set attributeName="fill" to="#808080" begin="arrowLeft.mouseover" end="arrowLeft.mouseout"/>
                  </use>
                  <path fill="none" stroke="white" stroke-width="1.5" d="M0,-3.0v7 M-2.5,-0.5L0,-3.0L2.5,-0.5"/>
                </g>
        </g>
        <svg viewBox="0 0 15 15" width="100%" height="30px" preserveAspectRatio="xMaxYMin meet">
         <g id="arrow_out" transform="scale(0.3 0.3)">
          <a xlink:href="class_player_controller_system_a919d9d772a6059cf4213c42c584ffcf3_cgraph_org.svg" target="_base">
           <rect id="button" ry="5" rx="5" y="6" x="6" height="38" width="38"
                fill="#f2f5e9" fill-opacity="0.5" stroke="#606060" stroke-width="1.0"/>
           <path id="arrow"
             d="M 11.500037,31.436501 C 11.940474,20.09759 22.043105,11.32322 32.158766,21.979434 L 37.068811,17.246167 C 37.068811,17.246167 37.088388,32 37.088388,32 L 22.160133,31.978069 C 22.160133,31.978069 26.997745,27.140456 26.997745,27.140456 C 18.528582,18.264221 13.291696,25.230495 11.500037,31.436501 z"
             style="fill:#404040;"/>
          </a>
         </g>
        </svg>
</svg>
