<?xml version="1.0" encoding="UTF-8" standalone="no"?>
<!DOCTYPE svg PUBLIC "-//W3C//DTD SVG 1.1//EN"
 "http://www.w3.org/Graphics/SVG/1.1/DTD/svg11.dtd">
<!-- Generated by graphviz version 2.38.0 (20140413.2041)
 -->
<!-- Title: PlayerControllerSystem::handleRayHit Pages: 1 -->
<svg width="421pt" height="142pt"
 viewBox="0.00 0.00 421.00 142.00" xmlns="http://www.w3.org/2000/svg" xmlns:xlink="http://www.w3.org/1999/xlink">
<g id="graph0" class="graph" transform="scale(1 1) rotate(0) translate(4 138)">
<title>PlayerControllerSystem::handleRayHit</title>
<polygon fill="white" stroke="none" points="-4,4 -4,-138 417,-138 417,4 -4,4"/>
<!-- Node1 -->
<g id="node1" class="node"><title>Node1</title>
<g id="a_node1"><a xlink:title=" ">
<polygon fill="#bfbfbf" stroke="black" points="0,-52 0,-82 119,-82 119,-52 0,-52"/>
<text text-anchor="start" x="8" y="-70" font-family="Helvetica,sans-Serif" font-size="10.00">PlayerControllerSystem</text>
<text text-anchor="middle" x="59.5" y="-59" font-family="Helvetica,sans-Serif" font-size="10.00">::handleRayHit</text>
</a>
</g>
</g>
<!-- Node2 -->
<g id="node2" class="node"><title>Node2</title>
<g id="a_node2"><a xlink:href="../../d4/daa/class_collision_mesh.html#aa9ad0053cdd4fd6e991b343e174e543f" target="_top" xlink:title=" ">
<polygon fill="white" stroke="black" points="159,-114.5 159,-133.5 291,-133.5 291,-114.5 159,-114.5"/>
<text text-anchor="middle" x="225" y="-121.5" font-family="Helvetica,sans-Serif" font-size="10.00">CollisionMesh::getPosition</text>
</a>
</g>
</g>
<!-- Node1&#45;&gt;Node2 -->
<g id="edge1" class="edge"><title>Node1&#45;&gt;Node2</title>
<path fill="none" stroke="midnightblue" d="M95.1512,-82.0334C112.874,-89.4403 134.895,-98.214 155,-105 161.88,-107.322 169.214,-109.574 176.437,-111.667"/>
<polygon fill="midnightblue" stroke="midnightblue" points="175.589,-115.064 186.164,-114.414 177.491,-108.328 175.589,-115.064"/>
</g>
<!-- Node4 -->
<g id="node4" class="node"><title>Node4</title>
<g id="a_node4"><a xlink:href="../../d4/daa/class_collision_mesh.html#ade31943d65b275017a002515e1b2af3c" target="_top" xlink:title=" ">
<polygon fill="white" stroke="black" points="155,-76.5 155,-95.5 295,-95.5 295,-76.5 155,-76.5"/>
<text text-anchor="middle" x="225" y="-83.5" font-family="Helvetica,sans-Serif" font-size="10.00">CollisionMesh::getVelocitybt</text>
</a>
</g>
</g>
<!-- Node1&#45;&gt;Node4 -->
<g id="edge3" class="edge"><title>Node1&#45;&gt;Node4</title>
<path fill="none" stroke="midnightblue" d="M119.065,-73.8058C127.43,-74.7777 136.147,-75.7907 144.825,-76.7992"/>
<polygon fill="midnightblue" stroke="midnightblue" points="144.634,-80.3005 154.971,-77.9783 145.442,-73.3473 144.634,-80.3005"/>
</g>
<!-- Node5 -->
<g id="node5" class="node"><title>Node5</title>
<g id="a_node5"><a xlink:href="../../d4/daa/class_collision_mesh.html#a094cbf7841a6b6badc1e19f048819ebe" target="_top" xlink:title=" ">
<polygon fill="white" stroke="black" points="159,-38.5 159,-57.5 291,-57.5 291,-38.5 159,-38.5"/>
<text text-anchor="middle" x="225" y="-45.5" font-family="Helvetica,sans-Serif" font-size="10.00">CollisionMesh::setVelocity</text>
</a>
</g>
</g>
<!-- Node1&#45;&gt;Node5 -->
<g id="edge4" class="edge"><title>Node1&#45;&gt;Node5</title>
<path fill="none" stroke="midnightblue" d="M119.065,-60.1942C128.755,-59.0682 138.919,-57.8871 148.947,-56.7217"/>
<polygon fill="midnightblue" stroke="midnightblue" points="149.379,-60.1952 158.908,-55.5642 148.571,-53.242 149.379,-60.1952"/>
</g>
<!-- Node6 -->
<g id="node6" class="node"><title>Node6</title>
<g id="a_node6"><a xlink:href="../../d4/daa/class_collision_mesh.html#ae1579dc2df203d65a3ec2a9761748100" target="_top" xlink:title=" ">
<polygon fill="white" stroke="black" points="164.5,-0.5 164.5,-19.5 285.5,-19.5 285.5,-0.5 164.5,-0.5"/>
<text text-anchor="middle" x="225" y="-7.5" font-family="Helvetica,sans-Serif" font-size="10.00">CollisionMesh::translate</text>
</a>
</g>
</g>
<!-- Node1&#45;&gt;Node6 -->
<g id="edge5" class="edge"><title>Node1&#45;&gt;Node6</title>
<path fill="none" stroke="midnightblue" d="M95.1512,-51.9666C112.874,-44.5597 134.895,-35.786 155,-29 161.88,-26.678 169.214,-24.426 176.437,-22.3331"/>
<polygon fill="midnightblue" stroke="midnightblue" points="177.491,-25.6722 186.164,-19.5861 175.589,-18.9357 177.491,-25.6722"/>
</g>
<!-- Node3 -->
<g id="node3" class="node"><title>Node3</title>
<g id="a_node3"><a xlink:href="../../d7/dd1/namespacehh.html#ad5fffa12ef6d4badda8b6db66b21f4fb" target="_top" xlink:title=" ">
<polygon fill="white" stroke="black" points="331,-114.5 331,-133.5 413,-133.5 413,-114.5 331,-114.5"/>
<text text-anchor="middle" x="372" y="-121.5" font-family="Helvetica,sans-Serif" font-size="10.00">hh::toGlmVec3</text>
</a>
</g>
</g>
<!-- Node2&#45;&gt;Node3 -->
<g id="edge2" class="edge"><title>Node2&#45;&gt;Node3</title>
<path fill="none" stroke="midnightblue" d="M291.289,-124C301.225,-124 311.344,-124 320.889,-124"/>
<polygon fill="midnightblue" stroke="midnightblue" points="320.985,-127.5 330.985,-124 320.985,-120.5 320.985,-127.5"/>
</g>
<!-- Node7 -->
<g id="node7" class="node"><title>Node7</title>
<g id="a_node7"><a xlink:href="../../d7/dd1/namespacehh.html#aa0102ec32d9d665ebdda89fa4c03c5b6" target="_top" xlink:title=" ">
<polygon fill="white" stroke="black" points="335,-0.5 335,-19.5 409,-19.5 409,-0.5 335,-0.5"/>
<text text-anchor="middle" x="372" y="-7.5" font-family="Helvetica,sans-Serif" font-size="10.00">hh::toBtVec3</text>
</a>
</g>
</g>
<!-- Node6&#45;&gt;Node7 -->
<g id="edge6" class="edge"><title>Node6&#45;&gt;Node7</title>
<path fill="none" stroke="midnightblue" d="M285.814,-10C298.857,-10 312.465,-10 324.878,-10"/>
<polygon fill="midnightblue" stroke="midnightblue" points="324.986,-13.5001 334.986,-10 324.986,-6.5001 324.986,-13.5001"/>
</g>
</g>
</svg>
