<?xml version="1.0" encoding="UTF-8" standalone="no"?>
<!DOCTYPE svg PUBLIC "-//W3C//DTD SVG 1.1//EN"
 "http://www.w3.org/Graphics/SVG/1.1/DTD/svg11.dtd">
<!-- Generated by graphviz version 2.38.0 (20140413.2041)
 -->
<!-- Title: PlayerControllerSystem::applyForces Pages: 1 -->
<svg width="427pt" height="154pt"
 viewBox="0.00 0.00 427.00 154.00" xmlns="http://www.w3.org/2000/svg" xmlns:xlink="http://www.w3.org/1999/xlink">
<g id="graph0" class="graph" transform="scale(1 1) rotate(0) translate(4 150)">
<title>PlayerControllerSystem::applyForces</title>
<polygon fill="white" stroke="none" points="-4,4 -4,-150 423,-150 423,4 -4,4"/>
<!-- Node1 -->
<g id="node1" class="node"><title>Node1</title>
<g id="a_node1"><a xlink:title=" ">
<polygon fill="#bfbfbf" stroke="black" points="0,-55 0,-85 119,-85 119,-55 0,-55"/>
<text text-anchor="start" x="8" y="-73" font-family="Helvetica,sans-Serif" font-size="10.00">PlayerControllerSystem</text>
<text text-anchor="middle" x="59.5" y="-62" font-family="Helvetica,sans-Serif" font-size="10.00">::applyForces</text>
</a>
</g>
</g>
<!-- Node2 -->
<g id="node2" class="node"><title>Node2</title>
<g id="a_node2"><a xlink:href="../../d4/daa/class_collision_mesh.html#a0e21a154dd220688c7c70aa207f26e37" target="_top" xlink:title=" ">
<polygon fill="white" stroke="black" points="165,-126.5 165,-145.5 299,-145.5 299,-126.5 165,-126.5"/>
<text text-anchor="middle" x="232" y="-133.5" font-family="Helvetica,sans-Serif" font-size="10.00">CollisionMesh::addVelocity</text>
</a>
</g>
</g>
<!-- Node1&#45;&gt;Node2 -->
<g id="edge1" class="edge"><title>Node1&#45;&gt;Node2</title>
<path fill="none" stroke="midnightblue" d="M87.1021,-85.1759C105.668,-95.2779 131.275,-108.252 155,-117 161.755,-119.491 168.966,-121.764 176.156,-123.803"/>
<polygon fill="midnightblue" stroke="midnightblue" points="175.336,-127.207 185.903,-126.437 177.162,-120.449 175.336,-127.207"/>
</g>
<!-- Node3 -->
<g id="node3" class="node"><title>Node3</title>
<g id="a_node3"><a xlink:href="../../d4/daa/class_collision_mesh.html#a7d1dde3a566093848fdd3e75278655ec" target="_top" xlink:title=" ">
<polygon fill="white" stroke="black" points="163.5,-77 163.5,-107 300.5,-107 300.5,-77 163.5,-77"/>
<text text-anchor="start" x="171.5" y="-95" font-family="Helvetica,sans-Serif" font-size="10.00">CollisionMesh::applyCentral</text>
<text text-anchor="middle" x="232" y="-84" font-family="Helvetica,sans-Serif" font-size="10.00">Impulse</text>
</a>
</g>
</g>
<!-- Node1&#45;&gt;Node3 -->
<g id="edge2" class="edge"><title>Node1&#45;&gt;Node3</title>
<path fill="none" stroke="midnightblue" d="M119.176,-77.5712C130.203,-78.9939 141.888,-80.5017 153.387,-81.9854"/>
<polygon fill="midnightblue" stroke="midnightblue" points="153.057,-85.4718 163.423,-83.2803 153.953,-78.5293 153.057,-85.4718"/>
</g>
<!-- Node5 -->
<g id="node5" class="node"><title>Node5</title>
<g id="a_node5"><a xlink:href="../../dc/dde/class_player_controller.html#aaa087c1eb7cf124acaaa62b9ca879e7d" target="_top" xlink:title=" ">
<polygon fill="white" stroke="black" points="155,-38.5 155,-57.5 309,-57.5 309,-38.5 155,-38.5"/>
<text text-anchor="middle" x="232" y="-45.5" font-family="Helvetica,sans-Serif" font-size="10.00">PlayerController::getResistance</text>
</a>
</g>
</g>
<!-- Node1&#45;&gt;Node5 -->
<g id="edge4" class="edge"><title>Node1&#45;&gt;Node5</title>
<path fill="none" stroke="midnightblue" d="M119.176,-62.4288C128.16,-61.2696 137.582,-60.0539 146.983,-58.8408"/>
<polygon fill="midnightblue" stroke="midnightblue" points="147.686,-62.2793 157.156,-57.5283 146.79,-55.3369 147.686,-62.2793"/>
</g>
<!-- Node6 -->
<g id="node6" class="node"><title>Node6</title>
<g id="a_node6"><a xlink:href="../../d4/daa/class_collision_mesh.html#ade31943d65b275017a002515e1b2af3c" target="_top" xlink:title=" ">
<polygon fill="white" stroke="black" points="162,-0.5 162,-19.5 302,-19.5 302,-0.5 162,-0.5"/>
<text text-anchor="middle" x="232" y="-7.5" font-family="Helvetica,sans-Serif" font-size="10.00">CollisionMesh::getVelocitybt</text>
</a>
</g>
</g>
<!-- Node1&#45;&gt;Node6 -->
<g id="edge5" class="edge"><title>Node1&#45;&gt;Node6</title>
<path fill="none" stroke="midnightblue" d="M91.9199,-54.8198C110.067,-46.4464 133.492,-36.2989 155,-29 162.335,-26.5108 170.168,-24.1887 177.914,-22.0827"/>
<polygon fill="midnightblue" stroke="midnightblue" points="178.85,-25.4557 187.636,-19.5342 177.075,-18.6845 178.85,-25.4557"/>
</g>
<!-- Node4 -->
<g id="node4" class="node"><title>Node4</title>
<g id="a_node4"><a xlink:href="../../d7/dd1/namespacehh.html#aa0102ec32d9d665ebdda89fa4c03c5b6" target="_top" xlink:title=" ">
<polygon fill="white" stroke="black" points="345,-82.5 345,-101.5 419,-101.5 419,-82.5 345,-82.5"/>
<text text-anchor="middle" x="382" y="-89.5" font-family="Helvetica,sans-Serif" font-size="10.00">hh::toBtVec3</text>
</a>
</g>
</g>
<!-- Node3&#45;&gt;Node4 -->
<g id="edge3" class="edge"><title>Node3&#45;&gt;Node4</title>
<path fill="none" stroke="midnightblue" d="M300.504,-92C312.058,-92 323.826,-92 334.668,-92"/>
<polygon fill="midnightblue" stroke="midnightblue" points="334.742,-95.5001 344.742,-92 334.742,-88.5001 334.742,-95.5001"/>
</g>
</g>
</svg>
