<?xml version="1.0" encoding="UTF-8" standalone="no"?>
<!DOCTYPE svg PUBLIC "-//W3C//DTD SVG 1.1//EN"
 "http://www.w3.org/Graphics/SVG/1.1/DTD/svg11.dtd">
<!-- Generated by graphviz version 2.38.0 (20140413.2041)
 -->
<!-- Title: PlayerCameraHandlingSystem::setThirdPersonCameraTargetPosition Pages: 1 -->
<svg width="360pt" height="78pt"
 viewBox="0.00 0.00 360.00 77.50" xmlns="http://www.w3.org/2000/svg" xmlns:xlink="http://www.w3.org/1999/xlink">
<g id="graph0" class="graph" transform="scale(1 1) rotate(0) translate(4 73.5)">
<title>PlayerCameraHandlingSystem::setThirdPersonCameraTargetPosition</title>
<polygon fill="white" stroke="none" points="-4,4 -4,-73.5 356,-73.5 356,4 -4,4"/>
<!-- Node1 -->
<g id="node1" class="node"><title>Node1</title>
<g id="a_node1"><a xlink:title=" ">
<polygon fill="#bfbfbf" stroke="black" points="0,-17 0,-47 184,-47 184,-17 0,-17"/>
<text text-anchor="start" x="8" y="-35" font-family="Helvetica,sans-Serif" font-size="10.00">PlayerCameraHandlingSystem</text>
<text text-anchor="middle" x="92" y="-24" font-family="Helvetica,sans-Serif" font-size="10.00">::setThirdPersonCameraTargetPosition</text>
</a>
</g>
</g>
<!-- Node2 -->
<g id="node2" class="node"><title>Node2</title>
<g id="a_node2"><a xlink:href="../../d4/df7/class_player_camera_handler.html#a02eb98ad960e5b71b0b17189426c0f1d" target="_top" xlink:title=" ">
<polygon fill="white" stroke="black" points="225,-39 225,-69 347,-69 347,-39 225,-39"/>
<text text-anchor="start" x="233" y="-57" font-family="Helvetica,sans-Serif" font-size="10.00">PlayerCameraHandler</text>
<text text-anchor="middle" x="286" y="-46" font-family="Helvetica,sans-Serif" font-size="10.00">::getCameraTargetOffset</text>
</a>
</g>
</g>
<!-- Node1&#45;&gt;Node2 -->
<g id="edge1" class="edge"><title>Node1&#45;&gt;Node2</title>
<path fill="none" stroke="midnightblue" d="M184.221,-42.4523C194.489,-43.629 204.832,-44.814 214.775,-45.9534"/>
<polygon fill="midnightblue" stroke="midnightblue" points="214.64,-49.4607 224.974,-47.122 215.437,-42.5062 214.64,-49.4607"/>
</g>
<!-- Node3 -->
<g id="node3" class="node"><title>Node3</title>
<g id="a_node3"><a xlink:href="../../da/dbb/class_camera.html#a4bd1cfe2d720f762d3c983370421c029" target="_top" xlink:title=" ">
<polygon fill="white" stroke="black" points="220,-0.5 220,-19.5 352,-19.5 352,-0.5 220,-0.5"/>
<text text-anchor="middle" x="286" y="-7.5" font-family="Helvetica,sans-Serif" font-size="10.00">Camera::setTargetPosition</text>
</a>
</g>
</g>
<!-- Node1&#45;&gt;Node3 -->
<g id="edge2" class="edge"><title>Node1&#45;&gt;Node3</title>
<path fill="none" stroke="midnightblue" d="M184.221,-21.5477C192.75,-20.5703 201.33,-19.5872 209.691,-18.6292"/>
<polygon fill="midnightblue" stroke="midnightblue" points="210.225,-22.091 219.761,-17.4753 209.428,-15.1365 210.225,-22.091"/>
</g>
</g>
</svg>
