<?xml version="1.0" encoding="UTF-8" standalone="no"?>
<!DOCTYPE svg PUBLIC "-//W3C//DTD SVG 1.1//EN"
 "http://www.w3.org/Graphics/SVG/1.1/DTD/svg11.dtd">
<!-- Generated by graphviz version 2.38.0 (20140413.2041)
 -->
<!-- Title: src/GlobalInformation.h Pages: 1 -->
<svg width="532pt" height="476pt"
 viewBox="0.00 0.00 532.00 476.00" xmlns="http://www.w3.org/2000/svg" xmlns:xlink="http://www.w3.org/1999/xlink">
<g id="graph0" class="graph" transform="scale(1 1) rotate(0) translate(4 472)">
<title>src/GlobalInformation.h</title>
<polygon fill="white" stroke="none" points="-4,4 -4,-472 528,-472 528,4 -4,4"/>
<!-- Node1 -->
<g id="node1" class="node"><title>Node1</title>
<g id="a_node1"><a xlink:title=" ">
<polygon fill="#bfbfbf" stroke="black" points="180,-448.5 180,-467.5 296,-467.5 296,-448.5 180,-448.5"/>
<text text-anchor="middle" x="238" y="-455.5" font-family="Helvetica,sans-Serif" font-size="10.00">src/GlobalInformation.h</text>
</a>
</g>
</g>
<!-- Node2 -->
<g id="node2" class="node"><title>Node2</title>
<g id="a_node2"><a xlink:href="../../da/d03/_entity_tests_8h.html" target="_top" xlink:title=" ">
<polygon fill="white" stroke="black" points="124.5,-392.5 124.5,-411.5 215.5,-411.5 215.5,-392.5 124.5,-392.5"/>
<text text-anchor="middle" x="170" y="-399.5" font-family="Helvetica,sans-Serif" font-size="10.00">src/EntityTests.h</text>
</a>
</g>
</g>
<!-- Node1&#45;&gt;Node2 -->
<g id="edge1" class="edge"><title>Node1&#45;&gt;Node2</title>
<path fill="none" stroke="midnightblue" d="M219.238,-442.101C207,-432.382 191.441,-420.027 181.124,-411.834"/>
<polygon fill="midnightblue" stroke="midnightblue" points="217.067,-444.846 227.075,-448.324 221.42,-439.364 217.067,-444.846"/>
</g>
<!-- Node10 -->
<g id="node10" class="node"><title>Node10</title>
<g id="a_node10"><a xlink:href="../../db/d81/_fixed_updating_system_8h.html" target="_top" xlink:title=" ">
<polygon fill="white" stroke="black" points="19.5,-224.5 19.5,-243.5 156.5,-243.5 156.5,-224.5 19.5,-224.5"/>
<text text-anchor="middle" x="88" y="-231.5" font-family="Helvetica,sans-Serif" font-size="10.00">src/FixedUpdatingSystem.h</text>
</a>
</g>
</g>
<!-- Node1&#45;&gt;Node10 -->
<g id="edge9" class="edge"><title>Node1&#45;&gt;Node10</title>
<path fill="none" stroke="midnightblue" d="M185.687,-445.704C141.196,-432.765 81.3741,-406.48 61,-356 44.8082,-315.882 70.6873,-264.169 82.5546,-243.8"/>
<polygon fill="midnightblue" stroke="midnightblue" points="184.924,-449.124 195.495,-448.415 186.789,-442.377 184.924,-449.124"/>
</g>
<!-- Node12 -->
<g id="node12" class="node"><title>Node12</title>
<g id="a_node12"><a xlink:href="../../df/d4c/_enemy_controller_system_8h.html" target="_top" xlink:title=" ">
<polygon fill="white" stroke="black" points="233.5,-392.5 233.5,-411.5 380.5,-411.5 380.5,-392.5 233.5,-392.5"/>
<text text-anchor="middle" x="307" y="-399.5" font-family="Helvetica,sans-Serif" font-size="10.00">src/EnemyControllerSystem.h</text>
</a>
</g>
</g>
<!-- Node1&#45;&gt;Node12 -->
<g id="edge12" class="edge"><title>Node1&#45;&gt;Node12</title>
<path fill="none" stroke="midnightblue" d="M257.038,-442.101C269.456,-432.382 285.243,-420.027 295.712,-411.834"/>
<polygon fill="midnightblue" stroke="midnightblue" points="254.804,-439.405 249.086,-448.324 259.118,-444.917 254.804,-439.405"/>
</g>
<!-- Node17 -->
<g id="node17" class="node"><title>Node17</title>
<g id="a_node17"><a xlink:href="../../db/dc0/_updating_system_8h.html" target="_top" xlink:title=" ">
<polygon fill="white" stroke="black" points="385.5,-224.5 385.5,-243.5 498.5,-243.5 498.5,-224.5 385.5,-224.5"/>
<text text-anchor="middle" x="442" y="-231.5" font-family="Helvetica,sans-Serif" font-size="10.00">src/UpdatingSystem.h</text>
</a>
</g>
</g>
<!-- Node1&#45;&gt;Node17 -->
<g id="edge23" class="edge"><title>Node1&#45;&gt;Node17</title>
<path fill="none" stroke="midnightblue" d="M306.327,-453.717C371.974,-446.418 467.431,-423.938 511,-356 537.239,-315.084 479.738,-263.826 453.82,-243.69"/>
<polygon fill="midnightblue" stroke="midnightblue" points="305.653,-450.267 296.059,-454.763 306.362,-457.231 305.653,-450.267"/>
</g>
<!-- Node3 -->
<g id="node3" class="node"><title>Node3</title>
<g id="a_node3"><a xlink:href="../../d9/dcd/_game_8h.html" target="_top" xlink:title=" ">
<polygon fill="white" stroke="black" points="166,-168.5 166,-187.5 234,-187.5 234,-168.5 166,-168.5"/>
<text text-anchor="middle" x="200" y="-175.5" font-family="Helvetica,sans-Serif" font-size="10.00">src/Game.h</text>
</a>
</g>
</g>
<!-- Node2&#45;&gt;Node3 -->
<g id="edge2" class="edge"><title>Node2&#45;&gt;Node3</title>
<path fill="none" stroke="midnightblue" d="M174.562,-382.559C176.447,-374.451 178.531,-364.791 180,-356 190.756,-291.641 197.368,-213.131 199.36,-187.519"/>
<polygon fill="midnightblue" stroke="midnightblue" points="171.124,-381.885 172.19,-392.426 177.93,-383.521 171.124,-381.885"/>
</g>
<!-- Node9 -->
<g id="node9" class="node"><title>Node9</title>
<g id="a_node9"><a xlink:href="../../de/d4c/_entity_tests_8cpp.html" target="_top" xlink:title=" ">
<polygon fill="white" stroke="black" points="70.5,-336.5 70.5,-355.5 171.5,-355.5 171.5,-336.5 70.5,-336.5"/>
<text text-anchor="middle" x="121" y="-343.5" font-family="Helvetica,sans-Serif" font-size="10.00">src/EntityTests.cpp</text>
</a>
</g>
</g>
<!-- Node2&#45;&gt;Node9 -->
<g id="edge8" class="edge"><title>Node2&#45;&gt;Node9</title>
<path fill="none" stroke="midnightblue" d="M154.966,-384.431C146.378,-374.967 135.957,-363.483 128.941,-355.751"/>
<polygon fill="midnightblue" stroke="midnightblue" points="152.597,-387.029 161.909,-392.083 157.781,-382.325 152.597,-387.029"/>
</g>
<!-- Node4 -->
<g id="node4" class="node"><title>Node4</title>
<g id="a_node4"><a xlink:href="../../d9/da3/_application_8h.html" target="_top" xlink:title=" ">
<polygon fill="white" stroke="black" points="104.5,-112.5 104.5,-131.5 193.5,-131.5 193.5,-112.5 104.5,-112.5"/>
<text text-anchor="middle" x="149" y="-119.5" font-family="Helvetica,sans-Serif" font-size="10.00">src/Application.h</text>
</a>
</g>
</g>
<!-- Node3&#45;&gt;Node4 -->
<g id="edge3" class="edge"><title>Node3&#45;&gt;Node4</title>
<path fill="none" stroke="midnightblue" d="M184.622,-160.718C175.633,-151.2 164.641,-139.561 157.265,-131.751"/>
<polygon fill="midnightblue" stroke="midnightblue" points="182.168,-163.216 191.578,-168.083 187.257,-158.41 182.168,-163.216"/>
</g>
<!-- Node8 -->
<g id="node8" class="node"><title>Node8</title>
<g id="a_node8"><a xlink:href="../../d7/db5/_game_8cpp.html" target="_top" xlink:title=" ">
<polygon fill="white" stroke="black" points="212,-112.5 212,-131.5 290,-131.5 290,-112.5 212,-112.5"/>
<text text-anchor="middle" x="251" y="-119.5" font-family="Helvetica,sans-Serif" font-size="10.00">src/Game.cpp</text>
</a>
</g>
</g>
<!-- Node3&#45;&gt;Node8 -->
<g id="edge7" class="edge"><title>Node3&#45;&gt;Node8</title>
<path fill="none" stroke="midnightblue" d="M215.378,-160.718C224.367,-151.2 235.359,-139.561 242.735,-131.751"/>
<polygon fill="midnightblue" stroke="midnightblue" points="212.743,-158.41 208.422,-168.083 217.832,-163.216 212.743,-158.41"/>
</g>
<!-- Node5 -->
<g id="node5" class="node"><title>Node5</title>
<g id="a_node5"><a xlink:href="../../d0/d42/_application_8cpp.html" target="_top" xlink:title=" ">
<polygon fill="white" stroke="black" points="50,-56.5 50,-75.5 150,-75.5 150,-56.5 50,-56.5"/>
<text text-anchor="middle" x="100" y="-63.5" font-family="Helvetica,sans-Serif" font-size="10.00">src/Application.cpp</text>
</a>
</g>
</g>
<!-- Node4&#45;&gt;Node5 -->
<g id="edge4" class="edge"><title>Node4&#45;&gt;Node5</title>
<path fill="none" stroke="midnightblue" d="M133.966,-104.431C125.378,-94.9673 114.957,-83.4827 107.941,-75.7511"/>
<polygon fill="midnightblue" stroke="midnightblue" points="131.597,-107.029 140.909,-112.083 136.781,-102.325 131.597,-107.029"/>
</g>
<!-- Node6 -->
<g id="node6" class="node"><title>Node6</title>
<g id="a_node6"><a xlink:href="../../d4/dbf/main_8h.html" target="_top" xlink:title=" ">
<polygon fill="white" stroke="black" points="168,-56.5 168,-75.5 230,-75.5 230,-56.5 168,-56.5"/>
<text text-anchor="middle" x="199" y="-63.5" font-family="Helvetica,sans-Serif" font-size="10.00">src/main.h</text>
</a>
</g>
</g>
<!-- Node4&#45;&gt;Node6 -->
<g id="edge5" class="edge"><title>Node4&#45;&gt;Node6</title>
<path fill="none" stroke="midnightblue" d="M164.076,-104.718C172.889,-95.1997 183.666,-83.5608 190.897,-75.7511"/>
<polygon fill="midnightblue" stroke="midnightblue" points="161.482,-102.367 157.256,-112.083 166.619,-107.123 161.482,-102.367"/>
</g>
<!-- Node7 -->
<g id="node7" class="node"><title>Node7</title>
<g id="a_node7"><a xlink:href="../../d5/d12/_main_8cpp.html" target="_top" xlink:title=" ">
<polygon fill="white" stroke="black" points="162.5,-0.5 162.5,-19.5 235.5,-19.5 235.5,-0.5 162.5,-0.5"/>
<text text-anchor="middle" x="199" y="-7.5" font-family="Helvetica,sans-Serif" font-size="10.00">src/Main.cpp</text>
</a>
</g>
</g>
<!-- Node6&#45;&gt;Node7 -->
<g id="edge6" class="edge"><title>Node6&#45;&gt;Node7</title>
<path fill="none" stroke="midnightblue" d="M199,-45.8045C199,-36.9102 199,-26.7798 199,-19.7511"/>
<polygon fill="midnightblue" stroke="midnightblue" points="195.5,-46.083 199,-56.083 202.5,-46.083 195.5,-46.083"/>
</g>
<!-- Node10&#45;&gt;Node3 -->
<g id="edge10" class="edge"><title>Node10&#45;&gt;Node3</title>
<path fill="none" stroke="midnightblue" d="M115.249,-219.862C136.016,-209.849 164.023,-196.346 182.05,-187.655"/>
<polygon fill="midnightblue" stroke="midnightblue" points="113.482,-216.828 105.995,-224.324 116.523,-223.134 113.482,-216.828"/>
</g>
<!-- Node11 -->
<g id="node11" class="node"><title>Node11</title>
<g id="a_node11"><a xlink:href="../../d0/d56/_fixed_updating_system_8cpp.html" target="_top" xlink:title=" ">
<polygon fill="white" stroke="black" points="0,-168.5 0,-187.5 148,-187.5 148,-168.5 0,-168.5"/>
<text text-anchor="middle" x="74" y="-175.5" font-family="Helvetica,sans-Serif" font-size="10.00">src/FixedUpdatingSystem.cpp</text>
</a>
</g>
</g>
<!-- Node10&#45;&gt;Node11 -->
<g id="edge11" class="edge"><title>Node10&#45;&gt;Node11</title>
<path fill="none" stroke="midnightblue" d="M83.1766,-214.396C80.8346,-205.362 78.1316,-194.936 76.2688,-187.751"/>
<polygon fill="midnightblue" stroke="midnightblue" points="79.7905,-215.281 85.6882,-224.083 86.5665,-213.525 79.7905,-215.281"/>
</g>
<!-- Node13 -->
<g id="node13" class="node"><title>Node13</title>
<g id="a_node13"><a xlink:href="../../d8/dc4/_sub_systems_8h.html" target="_top" xlink:title=" ">
<polygon fill="white" stroke="black" points="228,-336.5 228,-355.5 326,-355.5 326,-336.5 228,-336.5"/>
<text text-anchor="middle" x="277" y="-343.5" font-family="Helvetica,sans-Serif" font-size="10.00">src/SubSystems.h</text>
</a>
</g>
</g>
<!-- Node12&#45;&gt;Node13 -->
<g id="edge13" class="edge"><title>Node12&#45;&gt;Node13</title>
<path fill="none" stroke="midnightblue" d="M297.153,-383.275C292.025,-374.045 285.984,-363.17 281.862,-355.751"/>
<polygon fill="midnightblue" stroke="midnightblue" points="294.13,-385.041 302.046,-392.083 300.249,-381.642 294.13,-385.041"/>
</g>
<!-- Node19 -->
<g id="node19" class="node"><title>Node19</title>
<g id="a_node19"><a xlink:href="../../da/d2a/_enemy_controller_system_8cpp.html" target="_top" xlink:title=" ">
<polygon fill="white" stroke="black" points="344,-336.5 344,-355.5 502,-355.5 502,-336.5 344,-336.5"/>
<text text-anchor="middle" x="423" y="-343.5" font-family="Helvetica,sans-Serif" font-size="10.00">src/EnemyControllerSystem.cpp</text>
</a>
</g>
</g>
<!-- Node12&#45;&gt;Node19 -->
<g id="edge22" class="edge"><title>Node12&#45;&gt;Node19</title>
<path fill="none" stroke="midnightblue" d="M334.72,-388.096C356.392,-378.007 385.902,-364.27 404.705,-355.516"/>
<polygon fill="midnightblue" stroke="midnightblue" points="332.969,-385.05 325.381,-392.444 335.923,-391.396 332.969,-385.05"/>
</g>
<!-- Node14 -->
<g id="node14" class="node"><title>Node14</title>
<g id="a_node14"><a xlink:href="../../dc/d18/_system_base_8h.html" target="_top" xlink:title=" ">
<polygon fill="white" stroke="black" points="234,-280.5 234,-299.5 332,-299.5 332,-280.5 234,-280.5"/>
<text text-anchor="middle" x="283" y="-287.5" font-family="Helvetica,sans-Serif" font-size="10.00">src/SystemBase.h</text>
</a>
</g>
</g>
<!-- Node13&#45;&gt;Node14 -->
<g id="edge14" class="edge"><title>Node13&#45;&gt;Node14</title>
<path fill="none" stroke="midnightblue" d="M279.1,-326.101C280.096,-317.136 281.238,-306.858 282.028,-299.751"/>
<polygon fill="midnightblue" stroke="midnightblue" points="275.617,-325.758 277.991,-336.083 282.574,-326.531 275.617,-325.758"/>
</g>
<!-- Node14&#45;&gt;Node10 -->
<g id="edge15" class="edge"><title>Node14&#45;&gt;Node10</title>
<path fill="none" stroke="midnightblue" d="M242.19,-277.699C205.387,-267.507 152.071,-252.743 118.754,-243.516"/>
<polygon fill="midnightblue" stroke="midnightblue" points="241.53,-281.148 252.102,-280.444 243.398,-274.402 241.53,-281.148"/>
</g>
<!-- Node15 -->
<g id="node15" class="node"><title>Node15</title>
<g id="a_node15"><a xlink:href="../../da/d66/_rendering_system_8h.html" target="_top" xlink:title=" ">
<polygon fill="white" stroke="black" points="228.5,-224.5 228.5,-243.5 347.5,-243.5 347.5,-224.5 228.5,-224.5"/>
<text text-anchor="middle" x="288" y="-231.5" font-family="Helvetica,sans-Serif" font-size="10.00">src/RenderingSystem.h</text>
</a>
</g>
</g>
<!-- Node14&#45;&gt;Node15 -->
<g id="edge16" class="edge"><title>Node14&#45;&gt;Node15</title>
<path fill="none" stroke="midnightblue" d="M284.75,-270.101C285.58,-261.136 286.532,-250.858 287.19,-243.751"/>
<polygon fill="midnightblue" stroke="midnightblue" points="281.263,-269.803 283.826,-280.083 288.233,-270.448 281.263,-269.803"/>
</g>
<!-- Node14&#45;&gt;Node17 -->
<g id="edge19" class="edge"><title>Node14&#45;&gt;Node17</title>
<path fill="none" stroke="midnightblue" d="M317.827,-277.172C347.766,-267.004 390.221,-252.585 416.924,-243.516"/>
<polygon fill="midnightblue" stroke="midnightblue" points="316.537,-273.914 308.194,-280.444 318.788,-280.542 316.537,-273.914"/>
</g>
<!-- Node15&#45;&gt;Node3 -->
<g id="edge17" class="edge"><title>Node15&#45;&gt;Node3</title>
<path fill="none" stroke="midnightblue" d="M265.023,-218.901C248.887,-208.999 227.819,-196.071 214.104,-187.655"/>
<polygon fill="midnightblue" stroke="midnightblue" points="263.507,-222.077 273.861,-224.324 267.169,-216.111 263.507,-222.077"/>
</g>
<!-- Node16 -->
<g id="node16" class="node"><title>Node16</title>
<g id="a_node16"><a xlink:href="../../d2/db8/_rendering_system_8cpp.html" target="_top" xlink:title=" ">
<polygon fill="white" stroke="black" points="252.5,-168.5 252.5,-187.5 381.5,-187.5 381.5,-168.5 252.5,-168.5"/>
<text text-anchor="middle" x="317" y="-175.5" font-family="Helvetica,sans-Serif" font-size="10.00">src/RenderingSystem.cpp</text>
</a>
</g>
</g>
<!-- Node15&#45;&gt;Node16 -->
<g id="edge18" class="edge"><title>Node15&#45;&gt;Node16</title>
<path fill="none" stroke="midnightblue" d="M297.676,-214.983C302.598,-205.817 308.358,-195.092 312.3,-187.751"/>
<polygon fill="midnightblue" stroke="midnightblue" points="294.437,-213.617 292.789,-224.083 300.604,-216.929 294.437,-213.617"/>
</g>
<!-- Node17&#45;&gt;Node3 -->
<g id="edge20" class="edge"><title>Node17&#45;&gt;Node3</title>
<path fill="none" stroke="midnightblue" d="M393.669,-222.215C346.494,-211.689 275.911,-195.939 234.253,-186.643"/>
<polygon fill="midnightblue" stroke="midnightblue" points="393.132,-225.682 403.654,-224.444 394.657,-218.85 393.132,-225.682"/>
</g>
<!-- Node18 -->
<g id="node18" class="node"><title>Node18</title>
<g id="a_node18"><a xlink:href="../../d7/d1d/_updating_system_8cpp.html" target="_top" xlink:title=" ">
<polygon fill="white" stroke="black" points="400,-168.5 400,-187.5 524,-187.5 524,-168.5 400,-168.5"/>
<text text-anchor="middle" x="462" y="-175.5" font-family="Helvetica,sans-Serif" font-size="10.00">src/UpdatingSystem.cpp</text>
</a>
</g>
</g>
<!-- Node17&#45;&gt;Node18 -->
<g id="edge21" class="edge"><title>Node17&#45;&gt;Node18</title>
<path fill="none" stroke="midnightblue" d="M448.782,-214.69C452.152,-205.589 456.069,-195.014 458.759,-187.751"/>
<polygon fill="midnightblue" stroke="midnightblue" points="445.494,-213.49 445.303,-224.083 452.058,-215.921 445.494,-213.49"/>
</g>
</g>
</svg>
