<?xml version="1.0" encoding="UTF-8" standalone="no"?>
<!DOCTYPE svg PUBLIC "-//W3C//DTD SVG 1.1//EN"
 "http://www.w3.org/Graphics/SVG/1.1/DTD/svg11.dtd">
<!-- Generated by graphviz version 2.38.0 (20140413.2041)
 -->
<!-- Title: src/3DM_Info.h Pages: 1 -->
<!--zoomable 756 -->
<svg id="main" version="1.1" xmlns="http://www.w3.org/2000/svg" xmlns:xlink="http://www.w3.org/1999/xlink" xml:space="preserve" onload="init(evt)">
<style type="text/css"><![CDATA[
.edge:hover path { stroke: red; }
.edge:hover polygon { stroke: red; fill: red; }
]]></style>
<script type="text/javascript"><![CDATA[
var edges = document.getElementsByTagName('g');
if (edges && edges.length) {
  for (var i=0;i<edges.length;i++) {
    if (edges[i].id.substr(0,4)=='edge') {
      edges[i].setAttribute('class','edge');
    }
  }
}
]]></script>
        <defs>
                <circle id="rim" cx="0" cy="0" r="7"/>
                <circle id="rim2" cx="0" cy="0" r="3.5"/>
                <g id="zoomPlus">
                        <use xlink:href="#rim" fill="#404040">
                                <set attributeName="fill" to="#808080" begin="zoomplus.mouseover" end="zoomplus.mouseout"/>
                        </use>
                        <path d="M-4,0h8M0,-4v8" fill="none" stroke="white" stroke-width="1.5" pointer-events="none"/>
                </g>
                <g id="zoomMin">
                        <use xlink:href="#rim" fill="#404040">
                                <set attributeName="fill" to="#808080" begin="zoomminus.mouseover" end="zoomminus.mouseout"/>
                        </use>
                        <path d="M-4,0h8" fill="none" stroke="white" stroke-width="1.5" pointer-events="none"/>
                </g>
                <g id="dirArrow">
                        <path fill="none" stroke="white" stroke-width="1.5" d="M0,-3.0v7 M-2.5,-0.5L0,-3.0L2.5,-0.5"/>
                </g>
               <g id="resetDef">
                       <use xlink:href="#rim2" fill="#404040">
                               <set attributeName="fill" to="#808080" begin="reset.mouseover" end="reset.mouseout"/>
                       </use>
               </g>
        </defs>

<script type="text/javascript">
var viewWidth = 1120;
var viewHeight = 756;
var sectionId = 'dynsection-1';
</script>
<script xlink:href="../../svgpan.js"/>
<svg id="graph" class="graph">
<g id="viewport">
<title>src/3DM_Info.h</title>
<polygon fill="white" stroke="none" points="-4,4 -4,-752 1115.84,-752 1115.84,4 -4,4"/>
<!-- Node1 -->
<g id="node1" class="node"><title>Node1</title>
<g id="a_node1"><a xlink:title=" ">
<polygon fill="#bfbfbf" stroke="black" points="709,-728.5 709,-747.5 791,-747.5 791,-728.5 709,-728.5"/>
<text text-anchor="middle" x="750" y="-735.5" font-family="Helvetica,sans-Serif" font-size="10.00">src/3DM_Info.h</text>
</a>
</g>
</g>
<!-- Node2 -->
<g id="node2" class="node"><title>Node2</title>
<g id="a_node2"><a xlink:href="../../db/de6/_animated_model_8h.html" target="_top" xlink:title=" ">
<polygon fill="white" stroke="black" points="695.5,-672.5 695.5,-691.5 804.5,-691.5 804.5,-672.5 695.5,-672.5"/>
<text text-anchor="middle" x="750" y="-679.5" font-family="Helvetica,sans-Serif" font-size="10.00">src/AnimatedModel.h</text>
</a>
</g>
</g>
<!-- Node1&#45;&gt;Node2 -->
<g id="edge1" class="edge"><title>Node1&#45;&gt;Node2</title>
<path fill="none" stroke="midnightblue" d="M750,-717.805C750,-708.91 750,-698.78 750,-691.751"/>
<polygon fill="midnightblue" stroke="midnightblue" points="746.5,-718.083 750,-728.083 753.5,-718.083 746.5,-718.083"/>
</g>
<!-- Node5 -->
<g id="node5" class="node"><title>Node5</title>
<g id="a_node5"><a xlink:href="../../da/ded/_model_8h.html" target="_top" xlink:title=" ">
<polygon fill="white" stroke="black" points="504,-560.5 504,-579.5 572,-579.5 572,-560.5 504,-560.5"/>
<text text-anchor="middle" x="538" y="-567.5" font-family="Helvetica,sans-Serif" font-size="10.00">src/Model.h</text>
</a>
</g>
</g>
<!-- Node1&#45;&gt;Node5 -->
<g id="edge61" class="edge"><title>Node1&#45;&gt;Node5</title>
<path fill="none" stroke="midnightblue" d="M722.198,-724.039C687.711,-707.078 628.304,-674.888 586,-636 567.204,-618.721 550.873,-593.158 543.002,-579.822"/>
<polygon fill="midnightblue" stroke="midnightblue" points="720.704,-727.205 731.23,-728.413 723.755,-720.904 720.704,-727.205"/>
</g>
<!-- Node40 -->
<g id="node40" class="node"><title>Node40</title>
<g id="a_node40"><a xlink:href="../../d4/dcd/_unidentified_model_8h.html" target="_top" xlink:title=" ">
<polygon fill="white" stroke="black" points="823,-672.5 823,-691.5 941,-691.5 941,-672.5 823,-672.5"/>
<text text-anchor="middle" x="882" y="-679.5" font-family="Helvetica,sans-Serif" font-size="10.00">src/UnidentifiedModel.h</text>
</a>
</g>
</g>
<!-- Node1&#45;&gt;Node40 -->
<g id="edge62" class="edge"><title>Node1&#45;&gt;Node40</title>
<path fill="none" stroke="midnightblue" d="M780.219,-724.638C804.99,-714.504 839.4,-700.427 861.182,-691.516"/>
<polygon fill="midnightblue" stroke="midnightblue" points="778.846,-721.418 770.916,-728.444 781.497,-727.897 778.846,-721.418"/>
</g>
<!-- Node3 -->
<g id="node3" class="node"><title>Node3</title>
<g id="a_node3"><a xlink:href="../../d8/de6/_animated_model_8cpp.html" target="_top" xlink:title=" ">
<polygon fill="white" stroke="black" points="854.5,-616.5 854.5,-635.5 973.5,-635.5 973.5,-616.5 854.5,-616.5"/>
<text text-anchor="middle" x="914" y="-623.5" font-family="Helvetica,sans-Serif" font-size="10.00">src/AnimatedModel.cpp</text>
</a>
</g>
</g>
<!-- Node2&#45;&gt;Node3 -->
<g id="edge2" class="edge"><title>Node2&#45;&gt;Node3</title>
<path fill="none" stroke="midnightblue" d="M785.52,-669.304C816.422,-659.129 860.473,-644.625 888.135,-635.516"/>
<polygon fill="midnightblue" stroke="midnightblue" points="784.39,-665.992 775.986,-672.444 786.579,-672.64 784.39,-665.992"/>
</g>
<!-- Node4 -->
<g id="node4" class="node"><title>Node4</title>
<g id="a_node4"><a xlink:href="../../d3/dfd/_model_serialization_8h.html" target="_top" xlink:title=" ">
<polygon fill="white" stroke="black" points="595.5,-616.5 595.5,-635.5 716.5,-635.5 716.5,-616.5 595.5,-616.5"/>
<text text-anchor="middle" x="656" y="-623.5" font-family="Helvetica,sans-Serif" font-size="10.00">src/ModelSerialization.h</text>
</a>
</g>
</g>
<!-- Node2&#45;&gt;Node4 -->
<g id="edge3" class="edge"><title>Node2&#45;&gt;Node4</title>
<path fill="none" stroke="midnightblue" d="M720.732,-667.59C702.025,-657.605 679.078,-644.267 665.955,-635.655"/>
<polygon fill="midnightblue" stroke="midnightblue" points="719.299,-670.79 729.782,-672.324 722.544,-664.587 719.299,-670.79"/>
</g>
<!-- Node6 -->
<g id="node6" class="node"><title>Node6</title>
<g id="a_node6"><a xlink:href="../../d6/df5/_collision_mesh_8h.html" target="_top" xlink:title=" ">
<polygon fill="white" stroke="black" points="542,-504.5 542,-523.5 644,-523.5 644,-504.5 542,-504.5"/>
<text text-anchor="middle" x="593" y="-511.5" font-family="Helvetica,sans-Serif" font-size="10.00">src/CollisionMesh.h</text>
</a>
</g>
</g>
<!-- Node2&#45;&gt;Node6 -->
<g id="edge59" class="edge"><title>Node2&#45;&gt;Node6</title>
<path fill="none" stroke="midnightblue" d="M752.409,-662.413C754.699,-636.339 754.744,-588.869 730,-560 708.738,-535.195 673.553,-523.985 644.164,-518.956"/>
<polygon fill="midnightblue" stroke="midnightblue" points="748.918,-662.133 751.317,-672.452 755.877,-662.889 748.918,-662.133"/>
</g>
<!-- Node7 -->
<g id="node7" class="node"><title>Node7</title>
<g id="a_node7"><a xlink:href="../../d5/dbd/_bone_collision_mesh_8h.html" target="_top" xlink:title=" ">
<polygon fill="white" stroke="black" points="816.5,-448.5 816.5,-467.5 941.5,-467.5 941.5,-448.5 816.5,-448.5"/>
<text text-anchor="middle" x="879" y="-455.5" font-family="Helvetica,sans-Serif" font-size="10.00">src/BoneCollisionMesh.h</text>
</a>
</g>
</g>
<!-- Node2&#45;&gt;Node7 -->
<g id="edge58" class="edge"><title>Node2&#45;&gt;Node7</title>
<path fill="none" stroke="midnightblue" d="M771.169,-666.229C781.496,-658.208 793.493,-647.573 802,-636 844.078,-578.758 869.27,-494.938 876.687,-467.816"/>
<polygon fill="midnightblue" stroke="midnightblue" points="768.928,-663.535 763.001,-672.316 773.111,-669.148 768.928,-663.535"/>
</g>
<!-- Node16 -->
<g id="node16" class="node"><title>Node16</title>
<g id="a_node16"><a xlink:href="../../d9/d43/_bone_collision_mesh_system_8h.html" target="_top" xlink:title=" ">
<polygon fill="white" stroke="black" points="778,-392.5 778,-411.5 936,-411.5 936,-392.5 778,-392.5"/>
<text text-anchor="middle" x="857" y="-399.5" font-family="Helvetica,sans-Serif" font-size="10.00">src/BoneCollisionMeshSystem.h</text>
</a>
</g>
</g>
<!-- Node2&#45;&gt;Node16 -->
<g id="edge60" class="edge"><title>Node2&#45;&gt;Node16</title>
<path fill="none" stroke="midnightblue" d="M760.143,-663.429C771.4,-642.236 788,-605.187 788,-571 788,-571 788,-571 788,-513 788,-482.902 790.982,-473.482 807,-448 816.447,-432.971 832.303,-419.925 843.626,-411.805"/>
<polygon fill="midnightblue" stroke="midnightblue" points="757.053,-661.785 755.284,-672.231 763.181,-665.168 757.053,-661.785"/>
</g>
<!-- Node4&#45;&gt;Node2 -->
<g id="edge4" class="edge"><title>Node4&#45;&gt;Node2</title>
<path fill="none" stroke="midnightblue" d="M685.221,-640.386C703.921,-650.364 726.872,-663.703 740.012,-672.324"/>
<polygon fill="midnightblue" stroke="midnightblue" points="686.659,-637.188 676.175,-635.655 683.415,-643.39 686.659,-637.188"/>
</g>
<!-- Node4&#45;&gt;Node5 -->
<g id="edge5" class="edge"><title>Node4&#45;&gt;Node5</title>
<path fill="none" stroke="midnightblue" d="M622.895,-612.503C599.297,-602.38 568.962,-588.388 551.53,-579.516"/>
<polygon fill="midnightblue" stroke="midnightblue" points="621.64,-615.772 632.214,-616.444 624.367,-609.325 621.64,-615.772"/>
</g>
<!-- Node39 -->
<g id="node39" class="node"><title>Node39</title>
<g id="a_node39"><a xlink:href="../../d5/dbf/_model_serialization_8cpp.html" target="_top" xlink:title=" ">
<polygon fill="white" stroke="black" points="590.5,-560.5 590.5,-579.5 721.5,-579.5 721.5,-560.5 590.5,-560.5"/>
<text text-anchor="middle" x="656" y="-567.5" font-family="Helvetica,sans-Serif" font-size="10.00">src/ModelSerialization.cpp</text>
</a>
</g>
</g>
<!-- Node4&#45;&gt;Node39 -->
<g id="edge57" class="edge"><title>Node4&#45;&gt;Node39</title>
<path fill="none" stroke="midnightblue" d="M656,-605.805C656,-596.91 656,-586.78 656,-579.751"/>
<polygon fill="midnightblue" stroke="midnightblue" points="652.5,-606.083 656,-616.083 659.5,-606.083 652.5,-606.083"/>
</g>
<!-- Node5&#45;&gt;Node4 -->
<g id="edge6" class="edge"><title>Node5&#45;&gt;Node4</title>
<path fill="none" stroke="midnightblue" d="M571.282,-583.573C594.714,-593.63 624.72,-607.467 642.156,-616.324"/>
<polygon fill="midnightblue" stroke="midnightblue" points="572.595,-580.328 562.022,-579.655 569.867,-586.775 572.595,-580.328"/>
</g>
<!-- Node5&#45;&gt;Node6 -->
<g id="edge7" class="edge"><title>Node5&#45;&gt;Node6</title>
<path fill="none" stroke="midnightblue" d="M554.294,-553.002C564.041,-543.433 576.053,-531.639 584.087,-523.751"/>
<polygon fill="midnightblue" stroke="midnightblue" points="551.766,-550.58 547.082,-560.083 556.67,-555.575 551.766,-550.58"/>
</g>
<!-- Node21 -->
<g id="node21" class="node"><title>Node21</title>
<g id="a_node21"><a xlink:href="../../da/d66/_rendering_system_8h.html" target="_top" xlink:title=" ">
<polygon fill="white" stroke="black" points="275.5,-224.5 275.5,-243.5 394.5,-243.5 394.5,-224.5 275.5,-224.5"/>
<text text-anchor="middle" x="335" y="-231.5" font-family="Helvetica,sans-Serif" font-size="10.00">src/RenderingSystem.h</text>
</a>
</g>
</g>
<!-- Node5&#45;&gt;Node21 -->
<g id="edge55" class="edge"><title>Node5&#45;&gt;Node21</title>
<path fill="none" stroke="midnightblue" d="M493.65,-569.321C364.871,-569.071 0,-559.494 0,-459 0,-459 0,-459 0,-401 0,-362.577 25.281,-357.685 57,-336 131.396,-285.138 234.441,-256.545 291.89,-243.592"/>
<polygon fill="midnightblue" stroke="midnightblue" points="493.937,-572.821 503.938,-569.322 493.938,-565.821 493.937,-572.821"/>
</g>
<!-- Node38 -->
<g id="node38" class="node"><title>Node38</title>
<g id="a_node38"><a xlink:href="../../d2/d31/_model_8cpp.html" target="_top" xlink:title=" ">
<polygon fill="white" stroke="black" points="446,-504.5 446,-523.5 524,-523.5 524,-504.5 446,-504.5"/>
<text text-anchor="middle" x="485" y="-511.5" font-family="Helvetica,sans-Serif" font-size="10.00">src/Model.cpp</text>
</a>
</g>
</g>
<!-- Node5&#45;&gt;Node38 -->
<g id="edge56" class="edge"><title>Node5&#45;&gt;Node38</title>
<path fill="none" stroke="midnightblue" d="M522.019,-552.718C512.678,-543.2 501.254,-531.561 493.589,-523.751"/>
<polygon fill="midnightblue" stroke="midnightblue" points="519.746,-555.398 529.248,-560.083 524.741,-550.494 519.746,-555.398"/>
</g>
<!-- Node6&#45;&gt;Node7 -->
<g id="edge8" class="edge"><title>Node6&#45;&gt;Node7</title>
<path fill="none" stroke="midnightblue" d="M648.414,-502.537C702.466,-492.332 783.671,-476.999 833.894,-467.516"/>
<polygon fill="midnightblue" stroke="midnightblue" points="647.495,-499.149 638.318,-504.444 648.793,-506.027 647.495,-499.149"/>
</g>
<!-- Node8 -->
<g id="node8" class="node"><title>Node8</title>
<g id="a_node8"><a xlink:href="../../da/d03/_entity_tests_8h.html" target="_top" xlink:title=" ">
<polygon fill="white" stroke="black" points="823.5,-224.5 823.5,-243.5 914.5,-243.5 914.5,-224.5 823.5,-224.5"/>
<text text-anchor="middle" x="869" y="-231.5" font-family="Helvetica,sans-Serif" font-size="10.00">src/EntityTests.h</text>
</a>
</g>
</g>
<!-- Node6&#45;&gt;Node8 -->
<g id="edge31" class="edge"><title>Node6&#45;&gt;Node8</title>
<path fill="none" stroke="midnightblue" d="M654.282,-505.617C680.686,-499.511 710.02,-488.36 730,-468 751.17,-446.427 750,-433.225 750,-403 750,-403 750,-403 750,-345 750,-292.811 812.482,-258.499 846.896,-243.558"/>
<polygon fill="midnightblue" stroke="midnightblue" points="653.392,-502.227 644.331,-507.718 654.839,-509.076 653.392,-502.227"/>
</g>
<!-- Node23 -->
<g id="node23" class="node"><title>Node23</title>
<g id="a_node23"><a xlink:href="../../db/dc0/_updating_system_8h.html" target="_top" xlink:title=" ">
<polygon fill="white" stroke="black" points="144.5,-224.5 144.5,-243.5 257.5,-243.5 257.5,-224.5 144.5,-224.5"/>
<text text-anchor="middle" x="201" y="-231.5" font-family="Helvetica,sans-Serif" font-size="10.00">src/UpdatingSystem.h</text>
</a>
</g>
</g>
<!-- Node6&#45;&gt;Node23 -->
<g id="edge53" class="edge"><title>Node6&#45;&gt;Node23</title>
<path fill="none" stroke="midnightblue" d="M533.305,-502.726C389.938,-477.852 38,-415.515 38,-403 38,-403 38,-403 38,-345 38,-285.938 112.439,-256.467 160.708,-243.566"/>
<polygon fill="midnightblue" stroke="midnightblue" points="532.808,-506.192 543.259,-504.451 534.004,-499.295 532.808,-506.192"/>
</g>
<!-- Node27 -->
<g id="node27" class="node"><title>Node27</title>
<g id="a_node27"><a xlink:href="../../d7/d37/_physics_world_8h.html" target="_top" xlink:title=" ">
<polygon fill="white" stroke="black" points="488,-448.5 488,-467.5 590,-467.5 590,-448.5 488,-448.5"/>
<text text-anchor="middle" x="539" y="-455.5" font-family="Helvetica,sans-Serif" font-size="10.00">src/PhysicsWorld.h</text>
</a>
</g>
</g>
<!-- Node6&#45;&gt;Node27 -->
<g id="edge32" class="edge"><title>Node6&#45;&gt;Node27</title>
<path fill="none" stroke="midnightblue" d="M577.002,-497.002C567.433,-487.433 555.639,-475.639 547.751,-467.751"/>
<polygon fill="midnightblue" stroke="midnightblue" points="574.537,-499.487 584.083,-504.083 579.487,-494.537 574.537,-499.487"/>
</g>
<!-- Node32 -->
<g id="node32" class="node"><title>Node32</title>
<g id="a_node32"><a xlink:href="../../df/d4c/_enemy_controller_system_8h.html" target="_top" xlink:title=" ">
<polygon fill="white" stroke="black" points="204.5,-392.5 204.5,-411.5 351.5,-411.5 351.5,-392.5 204.5,-392.5"/>
<text text-anchor="middle" x="278" y="-399.5" font-family="Helvetica,sans-Serif" font-size="10.00">src/EnemyControllerSystem.h</text>
</a>
</g>
</g>
<!-- Node6&#45;&gt;Node32 -->
<g id="edge51" class="edge"><title>Node6&#45;&gt;Node32</title>
<path fill="none" stroke="midnightblue" d="M557.745,-501.251C530.907,-492.263 493.074,-479.5 460,-468 402.957,-448.165 336.153,-424.088 301.515,-411.54"/>
<polygon fill="midnightblue" stroke="midnightblue" points="556.866,-504.647 567.46,-504.5 559.086,-498.009 556.866,-504.647"/>
</g>
<!-- Node34 -->
<g id="node34" class="node"><title>Node34</title>
<g id="a_node34"><a xlink:href="../../d8/d3c/_player_controller_system_8h.html" target="_top" xlink:title=" ">
<polygon fill="white" stroke="black" points="370,-392.5 370,-411.5 514,-411.5 514,-392.5 370,-392.5"/>
<text text-anchor="middle" x="442" y="-399.5" font-family="Helvetica,sans-Serif" font-size="10.00">src/PlayerControllerSystem.h</text>
</a>
</g>
</g>
<!-- Node6&#45;&gt;Node34 -->
<g id="edge52" class="edge"><title>Node6&#45;&gt;Node34</title>
<path fill="none" stroke="midnightblue" d="M543.618,-501.503C521.948,-494.565 497.328,-483.901 479,-468 460.953,-452.342 449.735,-425.614 444.851,-411.817"/>
<polygon fill="midnightblue" stroke="midnightblue" points="542.748,-504.896 553.333,-504.433 544.77,-498.194 542.748,-504.896"/>
</g>
<!-- Node37 -->
<g id="node37" class="node"><title>Node37</title>
<g id="a_node37"><a xlink:href="../../d1/df8/_collision_mesh_8cpp.html" target="_top" xlink:title=" ">
<polygon fill="white" stroke="black" points="608.5,-448.5 608.5,-467.5 721.5,-467.5 721.5,-448.5 608.5,-448.5"/>
<text text-anchor="middle" x="665" y="-455.5" font-family="Helvetica,sans-Serif" font-size="10.00">src/CollisionMesh.cpp</text>
</a>
</g>
</g>
<!-- Node6&#45;&gt;Node37 -->
<g id="edge54" class="edge"><title>Node6&#45;&gt;Node37</title>
<path fill="none" stroke="midnightblue" d="M612.866,-498.101C625.823,-488.382 642.297,-476.027 653.221,-467.834"/>
<polygon fill="midnightblue" stroke="midnightblue" points="610.468,-495.524 604.568,-504.324 614.668,-501.124 610.468,-495.524"/>
</g>
<!-- Node7&#45;&gt;Node8 -->
<g id="edge9" class="edge"><title>Node7&#45;&gt;Node8</title>
<path fill="none" stroke="midnightblue" d="M951.625,-451.793C1008.04,-446.06 1079.66,-434.49 1098,-412 1163.33,-331.875 975.726,-266.211 899.558,-243.52"/>
<polygon fill="midnightblue" stroke="midnightblue" points="951.258,-448.312 941.644,-452.764 951.936,-455.28 951.258,-448.312"/>
</g>
<!-- Node7&#45;&gt;Node16 -->
<g id="edge17" class="edge"><title>Node7&#45;&gt;Node16</title>
<path fill="none" stroke="midnightblue" d="M871.54,-438.69C867.833,-429.589 863.524,-419.014 860.565,-411.751"/>
<polygon fill="midnightblue" stroke="midnightblue" points="868.353,-440.143 875.367,-448.083 874.835,-437.502 868.353,-440.143"/>
</g>
<!-- Node26 -->
<g id="node26" class="node"><title>Node26</title>
<g id="a_node26"><a xlink:href="../../de/de2/_bone_collision_mesh_8cpp.html" target="_top" xlink:title=" ">
<polygon fill="white" stroke="black" points="954.5,-392.5 954.5,-411.5 1089.5,-411.5 1089.5,-392.5 954.5,-392.5"/>
<text text-anchor="middle" x="1022" y="-399.5" font-family="Helvetica,sans-Serif" font-size="10.00">src/BoneCollisionMesh.cpp</text>
</a>
</g>
</g>
<!-- Node7&#45;&gt;Node26 -->
<g id="edge30" class="edge"><title>Node7&#45;&gt;Node26</title>
<path fill="none" stroke="midnightblue" d="M911.027,-444.906C937.912,-434.754 975.641,-420.506 999.447,-411.516"/>
<polygon fill="midnightblue" stroke="midnightblue" points="909.778,-441.636 901.659,-448.444 912.25,-448.185 909.778,-441.636"/>
</g>
<!-- Node9 -->
<g id="node9" class="node"><title>Node9</title>
<g id="a_node9"><a xlink:href="../../d9/dcd/_game_8h.html" target="_top" xlink:title=" ">
<polygon fill="white" stroke="black" points="420,-168.5 420,-187.5 488,-187.5 488,-168.5 420,-168.5"/>
<text text-anchor="middle" x="454" y="-175.5" font-family="Helvetica,sans-Serif" font-size="10.00">src/Game.h</text>
</a>
</g>
</g>
<!-- Node8&#45;&gt;Node9 -->
<g id="edge10" class="edge"><title>Node8&#45;&gt;Node9</title>
<path fill="none" stroke="midnightblue" d="M813.479,-224C671.852,-204.8 633.846,-210.042 497,-188 494.139,-187.539 491.179,-187.017 488.214,-186.461"/>
<polygon fill="midnightblue" stroke="midnightblue" points="813.025,-227.47 823.408,-225.362 813.976,-220.535 813.025,-227.47"/>
</g>
<!-- Node15 -->
<g id="node15" class="node"><title>Node15</title>
<g id="a_node15"><a xlink:href="../../de/d4c/_entity_tests_8cpp.html" target="_top" xlink:title=" ">
<polygon fill="white" stroke="black" points="818.5,-168.5 818.5,-187.5 919.5,-187.5 919.5,-168.5 818.5,-168.5"/>
<text text-anchor="middle" x="869" y="-175.5" font-family="Helvetica,sans-Serif" font-size="10.00">src/EntityTests.cpp</text>
</a>
</g>
</g>
<!-- Node8&#45;&gt;Node15 -->
<g id="edge16" class="edge"><title>Node8&#45;&gt;Node15</title>
<path fill="none" stroke="midnightblue" d="M869,-213.805C869,-204.91 869,-194.78 869,-187.751"/>
<polygon fill="midnightblue" stroke="midnightblue" points="865.5,-214.083 869,-224.083 872.5,-214.083 865.5,-214.083"/>
</g>
<!-- Node10 -->
<g id="node10" class="node"><title>Node10</title>
<g id="a_node10"><a xlink:href="../../d9/da3/_application_8h.html" target="_top" xlink:title=" ">
<polygon fill="white" stroke="black" points="358.5,-112.5 358.5,-131.5 447.5,-131.5 447.5,-112.5 358.5,-112.5"/>
<text text-anchor="middle" x="403" y="-119.5" font-family="Helvetica,sans-Serif" font-size="10.00">src/Application.h</text>
</a>
</g>
</g>
<!-- Node9&#45;&gt;Node10 -->
<g id="edge11" class="edge"><title>Node9&#45;&gt;Node10</title>
<path fill="none" stroke="midnightblue" d="M438.622,-160.718C429.633,-151.2 418.641,-139.561 411.265,-131.751"/>
<polygon fill="midnightblue" stroke="midnightblue" points="436.168,-163.216 445.578,-168.083 441.257,-158.41 436.168,-163.216"/>
</g>
<!-- Node14 -->
<g id="node14" class="node"><title>Node14</title>
<g id="a_node14"><a xlink:href="../../d7/db5/_game_8cpp.html" target="_top" xlink:title=" ">
<polygon fill="white" stroke="black" points="466,-112.5 466,-131.5 544,-131.5 544,-112.5 466,-112.5"/>
<text text-anchor="middle" x="505" y="-119.5" font-family="Helvetica,sans-Serif" font-size="10.00">src/Game.cpp</text>
</a>
</g>
</g>
<!-- Node9&#45;&gt;Node14 -->
<g id="edge15" class="edge"><title>Node9&#45;&gt;Node14</title>
<path fill="none" stroke="midnightblue" d="M469.378,-160.718C478.367,-151.2 489.359,-139.561 496.735,-131.751"/>
<polygon fill="midnightblue" stroke="midnightblue" points="466.743,-158.41 462.422,-168.083 471.832,-163.216 466.743,-158.41"/>
</g>
<!-- Node11 -->
<g id="node11" class="node"><title>Node11</title>
<g id="a_node11"><a xlink:href="../../d0/d42/_application_8cpp.html" target="_top" xlink:title=" ">
<polygon fill="white" stroke="black" points="304,-56.5 304,-75.5 404,-75.5 404,-56.5 304,-56.5"/>
<text text-anchor="middle" x="354" y="-63.5" font-family="Helvetica,sans-Serif" font-size="10.00">src/Application.cpp</text>
</a>
</g>
</g>
<!-- Node10&#45;&gt;Node11 -->
<g id="edge12" class="edge"><title>Node10&#45;&gt;Node11</title>
<path fill="none" stroke="midnightblue" d="M387.966,-104.431C379.378,-94.9673 368.957,-83.4827 361.941,-75.7511"/>
<polygon fill="midnightblue" stroke="midnightblue" points="385.597,-107.029 394.909,-112.083 390.781,-102.325 385.597,-107.029"/>
</g>
<!-- Node12 -->
<g id="node12" class="node"><title>Node12</title>
<g id="a_node12"><a xlink:href="../../d4/dbf/main_8h.html" target="_top" xlink:title=" ">
<polygon fill="white" stroke="black" points="422,-56.5 422,-75.5 484,-75.5 484,-56.5 422,-56.5"/>
<text text-anchor="middle" x="453" y="-63.5" font-family="Helvetica,sans-Serif" font-size="10.00">src/main.h</text>
</a>
</g>
</g>
<!-- Node10&#45;&gt;Node12 -->
<g id="edge13" class="edge"><title>Node10&#45;&gt;Node12</title>
<path fill="none" stroke="midnightblue" d="M418.076,-104.718C426.889,-95.1997 437.666,-83.5608 444.897,-75.7511"/>
<polygon fill="midnightblue" stroke="midnightblue" points="415.482,-102.367 411.256,-112.083 420.619,-107.123 415.482,-102.367"/>
</g>
<!-- Node13 -->
<g id="node13" class="node"><title>Node13</title>
<g id="a_node13"><a xlink:href="../../d5/d12/_main_8cpp.html" target="_top" xlink:title=" ">
<polygon fill="white" stroke="black" points="416.5,-0.5 416.5,-19.5 489.5,-19.5 489.5,-0.5 416.5,-0.5"/>
<text text-anchor="middle" x="453" y="-7.5" font-family="Helvetica,sans-Serif" font-size="10.00">src/Main.cpp</text>
</a>
</g>
</g>
<!-- Node12&#45;&gt;Node13 -->
<g id="edge14" class="edge"><title>Node12&#45;&gt;Node13</title>
<path fill="none" stroke="midnightblue" d="M453,-45.8045C453,-36.9102 453,-26.7798 453,-19.7511"/>
<polygon fill="midnightblue" stroke="midnightblue" points="449.5,-46.083 453,-56.083 456.5,-46.083 449.5,-46.083"/>
</g>
<!-- Node17 -->
<g id="node17" class="node"><title>Node17</title>
<g id="a_node17"><a xlink:href="../../d8/dc4/_sub_systems_8h.html" target="_top" xlink:title=" ">
<polygon fill="white" stroke="black" points="416,-336.5 416,-355.5 514,-355.5 514,-336.5 416,-336.5"/>
<text text-anchor="middle" x="465" y="-343.5" font-family="Helvetica,sans-Serif" font-size="10.00">src/SubSystems.h</text>
</a>
</g>
</g>
<!-- Node16&#45;&gt;Node17 -->
<g id="edge18" class="edge"><title>Node16&#45;&gt;Node17</title>
<path fill="none" stroke="midnightblue" d="M784.564,-391.022C705.847,-380.178 582.227,-363.149 514.115,-353.766"/>
<polygon fill="midnightblue" stroke="midnightblue" points="784.502,-394.546 794.886,-392.444 785.458,-387.612 784.502,-394.546"/>
</g>
<!-- Node25 -->
<g id="node25" class="node"><title>Node25</title>
<g id="a_node25"><a xlink:href="../../d9/d9b/_bone_collision_mesh_system_8cpp.html" target="_top" xlink:title=" ">
<polygon fill="white" stroke="black" points="778.5,-336.5 778.5,-355.5 947.5,-355.5 947.5,-336.5 778.5,-336.5"/>
<text text-anchor="middle" x="863" y="-343.5" font-family="Helvetica,sans-Serif" font-size="10.00">src/BoneCollisionMeshSystem.cpp</text>
</a>
</g>
</g>
<!-- Node16&#45;&gt;Node25 -->
<g id="edge29" class="edge"><title>Node16&#45;&gt;Node25</title>
<path fill="none" stroke="midnightblue" d="M859.1,-382.101C860.096,-373.136 861.238,-362.858 862.028,-355.751"/>
<polygon fill="midnightblue" stroke="midnightblue" points="855.617,-381.758 857.991,-392.083 862.574,-382.531 855.617,-381.758"/>
</g>
<!-- Node18 -->
<g id="node18" class="node"><title>Node18</title>
<g id="a_node18"><a xlink:href="../../dc/d18/_system_base_8h.html" target="_top" xlink:title=" ">
<polygon fill="white" stroke="black" points="316,-280.5 316,-299.5 414,-299.5 414,-280.5 316,-280.5"/>
<text text-anchor="middle" x="365" y="-287.5" font-family="Helvetica,sans-Serif" font-size="10.00">src/SystemBase.h</text>
</a>
</g>
</g>
<!-- Node17&#45;&gt;Node18 -->
<g id="edge19" class="edge"><title>Node17&#45;&gt;Node18</title>
<path fill="none" stroke="midnightblue" d="M439.912,-331.453C421.451,-321.483 396.903,-308.228 381.027,-299.655"/>
<polygon fill="midnightblue" stroke="midnightblue" points="438.471,-334.652 448.933,-336.324 441.797,-328.493 438.471,-334.652"/>
</g>
<!-- Node19 -->
<g id="node19" class="node"><title>Node19</title>
<g id="a_node19"><a xlink:href="../../db/d81/_fixed_updating_system_8h.html" target="_top" xlink:title=" ">
<polygon fill="white" stroke="black" points="511.5,-224.5 511.5,-243.5 648.5,-243.5 648.5,-224.5 511.5,-224.5"/>
<text text-anchor="middle" x="580" y="-231.5" font-family="Helvetica,sans-Serif" font-size="10.00">src/FixedUpdatingSystem.h</text>
</a>
</g>
</g>
<!-- Node18&#45;&gt;Node19 -->
<g id="edge20" class="edge"><title>Node18&#45;&gt;Node19</title>
<path fill="none" stroke="midnightblue" d="M408.96,-277.959C449.567,-267.76 509.043,-252.822 546.092,-243.516"/>
<polygon fill="midnightblue" stroke="midnightblue" points="407.914,-274.613 399.067,-280.444 409.619,-281.402 407.914,-274.613"/>
</g>
<!-- Node18&#45;&gt;Node21 -->
<g id="edge23" class="edge"><title>Node18&#45;&gt;Node21</title>
<path fill="none" stroke="midnightblue" d="M355.153,-271.275C350.025,-262.045 343.984,-251.17 339.862,-243.751"/>
<polygon fill="midnightblue" stroke="midnightblue" points="352.13,-273.041 360.046,-280.083 358.249,-269.642 352.13,-273.041"/>
</g>
<!-- Node18&#45;&gt;Node23 -->
<g id="edge26" class="edge"><title>Node18&#45;&gt;Node23</title>
<path fill="none" stroke="midnightblue" d="M329.48,-277.304C298.578,-267.129 254.527,-252.625 226.865,-243.516"/>
<polygon fill="midnightblue" stroke="midnightblue" points="328.421,-280.64 339.014,-280.444 330.61,-273.992 328.421,-280.64"/>
</g>
<!-- Node19&#45;&gt;Node9 -->
<g id="edge21" class="edge"><title>Node19&#45;&gt;Node9</title>
<path fill="none" stroke="midnightblue" d="M550.84,-220.503C527.219,-210.38 494.572,-196.388 473.872,-187.516"/>
<polygon fill="midnightblue" stroke="midnightblue" points="549.465,-223.721 560.035,-224.444 552.222,-217.287 549.465,-223.721"/>
</g>
<!-- Node20 -->
<g id="node20" class="node"><title>Node20</title>
<g id="a_node20"><a xlink:href="../../d0/d56/_fixed_updating_system_8cpp.html" target="_top" xlink:title=" ">
<polygon fill="white" stroke="black" points="506,-168.5 506,-187.5 654,-187.5 654,-168.5 506,-168.5"/>
<text text-anchor="middle" x="580" y="-175.5" font-family="Helvetica,sans-Serif" font-size="10.00">src/FixedUpdatingSystem.cpp</text>
</a>
</g>
</g>
<!-- Node19&#45;&gt;Node20 -->
<g id="edge22" class="edge"><title>Node19&#45;&gt;Node20</title>
<path fill="none" stroke="midnightblue" d="M580,-213.805C580,-204.91 580,-194.78 580,-187.751"/>
<polygon fill="midnightblue" stroke="midnightblue" points="576.5,-214.083 580,-224.083 583.5,-214.083 576.5,-214.083"/>
</g>
<!-- Node21&#45;&gt;Node9 -->
<g id="edge24" class="edge"><title>Node21&#45;&gt;Node9</title>
<path fill="none" stroke="midnightblue" d="M363.137,-220.232C385.396,-210.131 415.856,-196.309 435.232,-187.516"/>
<polygon fill="midnightblue" stroke="midnightblue" points="361.516,-217.124 353.856,-224.444 364.409,-223.498 361.516,-217.124"/>
</g>
<!-- Node22 -->
<g id="node22" class="node"><title>Node22</title>
<g id="a_node22"><a xlink:href="../../d2/db8/_rendering_system_8cpp.html" target="_top" xlink:title=" ">
<polygon fill="white" stroke="black" points="271.5,-168.5 271.5,-187.5 400.5,-187.5 400.5,-168.5 271.5,-168.5"/>
<text text-anchor="middle" x="336" y="-175.5" font-family="Helvetica,sans-Serif" font-size="10.00">src/RenderingSystem.cpp</text>
</a>
</g>
</g>
<!-- Node21&#45;&gt;Node22 -->
<g id="edge25" class="edge"><title>Node21&#45;&gt;Node22</title>
<path fill="none" stroke="midnightblue" d="M335.355,-213.805C335.52,-204.91 335.708,-194.78 335.838,-187.751"/>
<polygon fill="midnightblue" stroke="midnightblue" points="331.851,-214.02 335.165,-224.083 338.85,-214.15 331.851,-214.02"/>
</g>
<!-- Node23&#45;&gt;Node9 -->
<g id="edge27" class="edge"><title>Node23&#45;&gt;Node9</title>
<path fill="none" stroke="midnightblue" d="M251.026,-222.323C300.948,-211.667 376.307,-195.583 419.779,-186.304"/>
<polygon fill="midnightblue" stroke="midnightblue" points="250.138,-218.933 241.089,-224.444 251.599,-225.779 250.138,-218.933"/>
</g>
<!-- Node24 -->
<g id="node24" class="node"><title>Node24</title>
<g id="a_node24"><a xlink:href="../../d7/d1d/_updating_system_8cpp.html" target="_top" xlink:title=" ">
<polygon fill="white" stroke="black" points="129,-168.5 129,-187.5 253,-187.5 253,-168.5 129,-168.5"/>
<text text-anchor="middle" x="191" y="-175.5" font-family="Helvetica,sans-Serif" font-size="10.00">src/UpdatingSystem.cpp</text>
</a>
</g>
</g>
<!-- Node23&#45;&gt;Node24 -->
<g id="edge28" class="edge"><title>Node23&#45;&gt;Node24</title>
<path fill="none" stroke="midnightblue" d="M197.5,-214.101C195.84,-205.136 193.937,-194.858 192.621,-187.751"/>
<polygon fill="midnightblue" stroke="midnightblue" points="194.086,-214.888 199.349,-224.083 200.969,-213.613 194.086,-214.888"/>
</g>
<!-- Node28 -->
<g id="node28" class="node"><title>Node28</title>
<g id="a_node28"><a xlink:href="../../d2/d07/_debugging_controller_8h.html" target="_top" xlink:title=" ">
<polygon fill="white" stroke="black" points="594,-280.5 594,-299.5 722,-299.5 722,-280.5 594,-280.5"/>
<text text-anchor="middle" x="658" y="-287.5" font-family="Helvetica,sans-Serif" font-size="10.00">src/DebuggingController.h</text>
</a>
</g>
</g>
<!-- Node27&#45;&gt;Node28 -->
<g id="edge33" class="edge"><title>Node27&#45;&gt;Node28</title>
<path fill="none" stroke="midnightblue" d="M600.262,-446.675C637.758,-438.967 680.656,-427.161 692,-412 718.668,-376.359 681.244,-320.685 664.94,-299.537"/>
<polygon fill="midnightblue" stroke="midnightblue" points="599.492,-443.26 590.366,-448.643 600.857,-450.126 599.492,-443.26"/>
</g>
<!-- Node30 -->
<g id="node30" class="node"><title>Node30</title>
<g id="a_node30"><a xlink:href="../../de/d56/_scene_8h.html" target="_top" xlink:title=" ">
<polygon fill="white" stroke="black" points="462.5,-280.5 462.5,-299.5 531.5,-299.5 531.5,-280.5 462.5,-280.5"/>
<text text-anchor="middle" x="497" y="-287.5" font-family="Helvetica,sans-Serif" font-size="10.00">src/Scene.h</text>
</a>
</g>
</g>
<!-- Node27&#45;&gt;Node30 -->
<g id="edge38" class="edge"><title>Node27&#45;&gt;Node30</title>
<path fill="none" stroke="midnightblue" d="M538.762,-437.923C537.948,-413.632 534.781,-370.654 523,-336 518.412,-322.503 509.583,-308.525 503.496,-299.801"/>
<polygon fill="midnightblue" stroke="midnightblue" points="535.27,-438.312 539,-448.229 542.268,-438.15 535.27,-438.312"/>
</g>
<!-- Node27&#45;&gt;Node32 -->
<g id="edge44" class="edge"><title>Node27&#45;&gt;Node32</title>
<path fill="none" stroke="midnightblue" d="M487.813,-446.41C438.487,-436.204 364.805,-420.96 319.163,-411.516"/>
<polygon fill="midnightblue" stroke="midnightblue" points="487.142,-449.845 497.644,-448.444 488.56,-442.99 487.142,-449.845"/>
</g>
<!-- Node27&#45;&gt;Node34 -->
<g id="edge47" class="edge"><title>Node27&#45;&gt;Node34</title>
<path fill="none" stroke="midnightblue" d="M514.665,-443.453C496.757,-433.483 472.946,-420.228 457.546,-411.655"/>
<polygon fill="midnightblue" stroke="midnightblue" points="512.975,-446.518 523.415,-448.324 516.38,-440.402 512.975,-446.518"/>
</g>
<!-- Node36 -->
<g id="node36" class="node"><title>Node36</title>
<g id="a_node36"><a xlink:href="../../d9/de2/_physics_world_8cpp.html" target="_top" xlink:title=" ">
<polygon fill="white" stroke="black" points="570.5,-392.5 570.5,-411.5 683.5,-411.5 683.5,-392.5 570.5,-392.5"/>
<text text-anchor="middle" x="627" y="-399.5" font-family="Helvetica,sans-Serif" font-size="10.00">src/PhysicsWorld.cpp</text>
</a>
</g>
</g>
<!-- Node27&#45;&gt;Node36 -->
<g id="edge50" class="edge"><title>Node27&#45;&gt;Node36</title>
<path fill="none" stroke="midnightblue" d="M561.977,-442.901C578.113,-432.999 599.181,-420.071 612.896,-411.655"/>
<polygon fill="midnightblue" stroke="midnightblue" points="559.831,-440.111 553.139,-448.324 563.493,-446.077 559.831,-440.111"/>
</g>
<!-- Node28&#45;&gt;Node8 -->
<g id="edge34" class="edge"><title>Node28&#45;&gt;Node8</title>
<path fill="none" stroke="midnightblue" d="M701.142,-277.959C740.994,-267.76 799.363,-252.822 835.723,-243.516"/>
<polygon fill="midnightblue" stroke="midnightblue" points="700.254,-274.573 691.434,-280.444 701.989,-281.355 700.254,-274.573"/>
</g>
<!-- Node28&#45;&gt;Node19 -->
<g id="edge35" class="edge"><title>Node28&#45;&gt;Node19</title>
<path fill="none" stroke="midnightblue" d="M637.232,-274.622C622.983,-264.757 604.544,-251.992 592.501,-243.655"/>
<polygon fill="midnightblue" stroke="midnightblue" points="635.254,-277.51 645.468,-280.324 639.238,-271.754 635.254,-277.51"/>
</g>
<!-- Node28&#45;&gt;Node21 -->
<g id="edge36" class="edge"><title>Node28&#45;&gt;Node21</title>
<path fill="none" stroke="midnightblue" d="M596.933,-278.791C535.9,-268.587 443.133,-253.078 385.941,-243.516"/>
<polygon fill="midnightblue" stroke="midnightblue" points="596.379,-282.247 606.82,-280.444 597.534,-275.342 596.379,-282.247"/>
</g>
<!-- Node29 -->
<g id="node29" class="node"><title>Node29</title>
<g id="a_node29"><a xlink:href="../../d8/d1e/_debugging_controller_8cpp.html" target="_top" xlink:title=" ">
<polygon fill="white" stroke="black" points="666.5,-224.5 666.5,-243.5 805.5,-243.5 805.5,-224.5 666.5,-224.5"/>
<text text-anchor="middle" x="736" y="-231.5" font-family="Helvetica,sans-Serif" font-size="10.00">src/DebuggingController.cpp</text>
</a>
</g>
</g>
<!-- Node28&#45;&gt;Node29 -->
<g id="edge37" class="edge"><title>Node28&#45;&gt;Node29</title>
<path fill="none" stroke="midnightblue" d="M678.768,-274.622C693.017,-264.757 711.456,-251.992 723.499,-243.655"/>
<polygon fill="midnightblue" stroke="midnightblue" points="676.762,-271.754 670.532,-280.324 680.746,-277.51 676.762,-271.754"/>
</g>
<!-- Node30&#45;&gt;Node8 -->
<g id="edge39" class="edge"><title>Node30&#45;&gt;Node8</title>
<path fill="none" stroke="midnightblue" d="M541.875,-282.935C603.336,-274.558 717.125,-258.8 814,-244 817.061,-243.532 820.216,-243.041 823.393,-242.539"/>
<polygon fill="midnightblue" stroke="midnightblue" points="541.184,-279.496 531.747,-284.313 542.128,-286.432 541.184,-279.496"/>
</g>
<!-- Node30&#45;&gt;Node19 -->
<g id="edge40" class="edge"><title>Node30&#45;&gt;Node19</title>
<path fill="none" stroke="midnightblue" d="M519.099,-274.622C534.262,-264.757 553.883,-251.992 566.698,-243.655"/>
<polygon fill="midnightblue" stroke="midnightblue" points="516.809,-271.937 510.335,-280.324 520.626,-277.804 516.809,-271.937"/>
</g>
<!-- Node30&#45;&gt;Node21 -->
<g id="edge41" class="edge"><title>Node30&#45;&gt;Node21</title>
<path fill="none" stroke="midnightblue" d="M461.516,-277.172C431.012,-267.004 387.755,-252.585 360.549,-243.516"/>
<polygon fill="midnightblue" stroke="midnightblue" points="460.737,-280.602 471.331,-280.444 462.951,-273.961 460.737,-280.602"/>
</g>
<!-- Node30&#45;&gt;Node23 -->
<g id="edge42" class="edge"><title>Node30&#45;&gt;Node23</title>
<path fill="none" stroke="midnightblue" d="M452.296,-280.844C397.13,-270.78 303.77,-253.749 247.701,-243.52"/>
<polygon fill="midnightblue" stroke="midnightblue" points="452,-284.348 462.466,-282.7 453.256,-277.462 452,-284.348"/>
</g>
<!-- Node31 -->
<g id="node31" class="node"><title>Node31</title>
<g id="a_node31"><a xlink:href="../../d9/d44/_scene_8cpp.html" target="_top" xlink:title=" ">
<polygon fill="white" stroke="black" points="413,-224.5 413,-243.5 493,-243.5 493,-224.5 413,-224.5"/>
<text text-anchor="middle" x="453" y="-231.5" font-family="Helvetica,sans-Serif" font-size="10.00">src/Scene.cpp</text>
</a>
</g>
</g>
<!-- Node30&#45;&gt;Node31 -->
<g id="edge43" class="edge"><title>Node30&#45;&gt;Node31</title>
<path fill="none" stroke="midnightblue" d="M483.265,-272.144C475.599,-262.736 466.367,-251.405 460.131,-243.751"/>
<polygon fill="midnightblue" stroke="midnightblue" points="480.704,-274.541 489.734,-280.083 486.131,-270.12 480.704,-274.541"/>
</g>
<!-- Node32&#45;&gt;Node17 -->
<g id="edge45" class="edge"><title>Node32&#45;&gt;Node17</title>
<path fill="none" stroke="midnightblue" d="M317.59,-389.568C352.866,-379.381 403.694,-364.703 435.508,-355.516"/>
<polygon fill="midnightblue" stroke="midnightblue" points="316.267,-386.307 307.631,-392.444 318.209,-393.032 316.267,-386.307"/>
</g>
<!-- Node33 -->
<g id="node33" class="node"><title>Node33</title>
<g id="a_node33"><a xlink:href="../../da/d2a/_enemy_controller_system_8cpp.html" target="_top" xlink:title=" ">
<polygon fill="white" stroke="black" points="66,-336.5 66,-355.5 224,-355.5 224,-336.5 66,-336.5"/>
<text text-anchor="middle" x="145" y="-343.5" font-family="Helvetica,sans-Serif" font-size="10.00">src/EnemyControllerSystem.cpp</text>
</a>
</g>
</g>
<!-- Node32&#45;&gt;Node33 -->
<g id="edge46" class="edge"><title>Node32&#45;&gt;Node33</title>
<path fill="none" stroke="midnightblue" d="M247.552,-388.638C222.593,-378.504 187.923,-364.427 165.976,-355.516"/>
<polygon fill="midnightblue" stroke="midnightblue" points="246.344,-391.924 256.926,-392.444 248.977,-385.439 246.344,-391.924"/>
</g>
<!-- Node34&#45;&gt;Node17 -->
<g id="edge48" class="edge"><title>Node34&#45;&gt;Node17</title>
<path fill="none" stroke="midnightblue" d="M449.799,-382.69C453.675,-373.589 458.179,-363.014 461.273,-355.751"/>
<polygon fill="midnightblue" stroke="midnightblue" points="446.497,-381.511 445.798,-392.083 452.937,-384.254 446.497,-381.511"/>
</g>
<!-- Node35 -->
<g id="node35" class="node"><title>Node35</title>
<g id="a_node35"><a xlink:href="../../df/d12/_player_controller_system_8cpp.html" target="_top" xlink:title=" ">
<polygon fill="white" stroke="black" points="242.5,-336.5 242.5,-355.5 397.5,-355.5 397.5,-336.5 242.5,-336.5"/>
<text text-anchor="middle" x="320" y="-343.5" font-family="Helvetica,sans-Serif" font-size="10.00">src/PlayerControllerSystem.cpp</text>
</a>
</g>
</g>
<!-- Node34&#45;&gt;Node35 -->
<g id="edge49" class="edge"><title>Node34&#45;&gt;Node35</title>
<path fill="none" stroke="midnightblue" d="M413.461,-388.368C390.614,-378.255 359.195,-364.349 339.241,-355.516"/>
<polygon fill="midnightblue" stroke="midnightblue" points="412.108,-391.597 422.669,-392.444 414.941,-385.196 412.108,-391.597"/>
</g>
</g>
</svg>
        <g id="navigator" transform="translate(0 0)" fill="#404254">
                <rect fill="#f2f5e9" fill-opacity="0.5" stroke="#606060" stroke-width=".5" x="0" y="0" width="60" height="60"/>
                <use id="zoomplus" xlink:href="#zoomPlus" x="17" y="9" onmousedown="handleZoom(evt,'in')"/>
                <use id="zoomminus" xlink:href="#zoomMin" x="42" y="9" onmousedown="handleZoom(evt,'out')"/>
                <use id="reset" xlink:href="#resetDef" x="30" y="36" onmousedown="handleReset()"/>
                <g id="arrowUp" xlink:href="#dirArrow" transform="translate(30 24)" onmousedown="handlePan(0,-1)">
                  <use xlink:href="#rim" fill="#404040">
                        <set attributeName="fill" to="#808080" begin="arrowUp.mouseover" end="arrowUp.mouseout"/>
                  </use>
                  <path fill="none" stroke="white" stroke-width="1.5" d="M0,-3.0v7 M-2.5,-0.5L0,-3.0L2.5,-0.5"/>
                </g>
                <g id="arrowRight" xlink:href="#dirArrow" transform="rotate(90) translate(36 -43)" onmousedown="handlePan(1,0)">
                  <use xlink:href="#rim" fill="#404040">
                        <set attributeName="fill" to="#808080" begin="arrowRight.mouseover" end="arrowRight.mouseout"/>
                  </use>
                  <path fill="none" stroke="white" stroke-width="1.5" d="M0,-3.0v7 M-2.5,-0.5L0,-3.0L2.5,-0.5"/>
                </g>
                <g id="arrowDown" xlink:href="#dirArrow" transform="rotate(180) translate(-30 -48)" onmousedown="handlePan(0,1)">
                  <use xlink:href="#rim" fill="#404040">
                        <set attributeName="fill" to="#808080" begin="arrowDown.mouseover" end="arrowDown.mouseout"/>
                  </use>
                  <path fill="none" stroke="white" stroke-width="1.5" d="M0,-3.0v7 M-2.5,-0.5L0,-3.0L2.5,-0.5"/>
                </g>
                <g id="arrowLeft" xlink:href="#dirArrow" transform="rotate(270) translate(-36 17)" onmousedown="handlePan(-1,0)">
                  <use xlink:href="#rim" fill="#404040">
                        <set attributeName="fill" to="#808080" begin="arrowLeft.mouseover" end="arrowLeft.mouseout"/>
                  </use>
                  <path fill="none" stroke="white" stroke-width="1.5" d="M0,-3.0v7 M-2.5,-0.5L0,-3.0L2.5,-0.5"/>
                </g>
        </g>
        <svg viewBox="0 0 15 15" width="100%" height="30px" preserveAspectRatio="xMaxYMin meet">
         <g id="arrow_out" transform="scale(0.3 0.3)">
          <a xlink:href="3_d_m___info_8h__dep__incl_org.svg" target="_base">
           <rect id="button" ry="5" rx="5" y="6" x="6" height="38" width="38"
                fill="#f2f5e9" fill-opacity="0.5" stroke="#606060" stroke-width="1.0"/>
           <path id="arrow"
             d="M 11.500037,31.436501 C 11.940474,20.09759 22.043105,11.32322 32.158766,21.979434 L 37.068811,17.246167 C 37.068811,17.246167 37.088388,32 37.088388,32 L 22.160133,31.978069 C 22.160133,31.978069 26.997745,27.140456 26.997745,27.140456 C 18.528582,18.264221 13.291696,25.230495 11.500037,31.436501 z"
             style="fill:#404040;"/>
          </a>
         </g>
        </svg>
</svg>
