<?xml version="1.0" encoding="UTF-8" standalone="no"?>
<!DOCTYPE svg PUBLIC "-//W3C//DTD SVG 1.1//EN"
 "http://www.w3.org/Graphics/SVG/1.1/DTD/svg11.dtd">
<!-- Generated by graphviz version 2.38.0 (20140413.2041)
 -->
<!-- Title: UniqueVec3::UniqueVec3 Pages: 1 -->
<svg width="288pt" height="104pt"
 viewBox="0.00 0.00 288.00 104.00" xmlns="http://www.w3.org/2000/svg" xmlns:xlink="http://www.w3.org/1999/xlink">
<g id="graph0" class="graph" transform="scale(1 1) rotate(0) translate(4 100)">
<title>UniqueVec3::UniqueVec3</title>
<polygon fill="white" stroke="none" points="-4,4 -4,-100 284,-100 284,4 -4,4"/>
<!-- Node1 -->
<g id="node1" class="node"><title>Node1</title>
<g id="a_node1"><a xlink:title=" ">
<polygon fill="#bfbfbf" stroke="black" points="152,-38.5 152,-57.5 280,-57.5 280,-38.5 152,-38.5"/>
<text text-anchor="middle" x="216" y="-45.5" font-family="Helvetica,sans-Serif" font-size="10.00">UniqueVec3::UniqueVec3</text>
</a>
</g>
</g>
<!-- Node2 -->
<g id="node2" class="node"><title>Node2</title>
<g id="a_node2"><a xlink:href="../../d9/d35/class_unique_vec3.html#a72b15db4e4faaa0845202c0beea51c10" target="_top" xlink:title=" ">
<polygon fill="white" stroke="black" points="1,-76.5 1,-95.5 115,-95.5 115,-76.5 1,-76.5"/>
<text text-anchor="middle" x="58" y="-83.5" font-family="Helvetica,sans-Serif" font-size="10.00">UniqueVec3::operator*</text>
</a>
</g>
</g>
<!-- Node1&#45;&gt;Node2 -->
<g id="edge1" class="edge"><title>Node1&#45;&gt;Node2</title>
<path fill="none" stroke="midnightblue" d="M165.868,-59.968C144.007,-65.2931 118.624,-71.4762 98.0823,-76.4799"/>
<polygon fill="midnightblue" stroke="midnightblue" points="166.747,-63.3563 175.635,-57.589 165.09,-56.5552 166.747,-63.3563"/>
</g>
<!-- Node3 -->
<g id="node3" class="node"><title>Node3</title>
<g id="a_node3"><a xlink:href="../../d9/d35/class_unique_vec3.html#a6701e1de4571f52864826f96900e3533" target="_top" xlink:title=" ">
<polygon fill="white" stroke="black" points="0,-38.5 0,-57.5 116,-57.5 116,-38.5 0,-38.5"/>
<text text-anchor="middle" x="58" y="-45.5" font-family="Helvetica,sans-Serif" font-size="10.00">UniqueVec3::operator+</text>
</a>
</g>
</g>
<!-- Node1&#45;&gt;Node3 -->
<g id="edge2" class="edge"><title>Node1&#45;&gt;Node3</title>
<path fill="none" stroke="midnightblue" d="M141.921,-48C133.284,-48 124.566,-48 116.192,-48"/>
<polygon fill="midnightblue" stroke="midnightblue" points="141.999,-51.5001 151.998,-48 141.998,-44.5001 141.999,-51.5001"/>
</g>
<!-- Node4 -->
<g id="node4" class="node"><title>Node4</title>
<g id="a_node4"><a xlink:href="../../d9/d35/class_unique_vec3.html#a6b069d136a46c0abdc213bad5e9a2190" target="_top" xlink:title=" ">
<polygon fill="white" stroke="black" points="1.5,-0.5 1.5,-19.5 114.5,-19.5 114.5,-0.5 1.5,-0.5"/>
<text text-anchor="middle" x="58" y="-7.5" font-family="Helvetica,sans-Serif" font-size="10.00">UniqueVec3::operator&#45;</text>
</a>
</g>
</g>
<!-- Node1&#45;&gt;Node4 -->
<g id="edge3" class="edge"><title>Node1&#45;&gt;Node4</title>
<path fill="none" stroke="midnightblue" d="M165.868,-36.032C144.007,-30.7069 118.624,-24.5238 98.0823,-19.5201"/>
<polygon fill="midnightblue" stroke="midnightblue" points="165.09,-39.4448 175.635,-38.411 166.747,-32.6437 165.09,-39.4448"/>
</g>
</g>
</svg>
