<?xml version="1.0" encoding="UTF-8" standalone="no"?>
<!DOCTYPE svg PUBLIC "-//W3C//DTD SVG 1.1//EN"
 "http://www.w3.org/Graphics/SVG/1.1/DTD/svg11.dtd">
<!-- Generated by graphviz version 2.38.0 (20140413.2041)
 -->
<!-- Title: src/CameraSystem.h Pages: 1 -->
<!--zoomable 364 -->
<svg id="main" version="1.1" xmlns="http://www.w3.org/2000/svg" xmlns:xlink="http://www.w3.org/1999/xlink" xml:space="preserve" onload="init(evt)">
<style type="text/css"><![CDATA[
.edge:hover path { stroke: red; }
.edge:hover polygon { stroke: red; fill: red; }
]]></style>
<script type="text/javascript"><![CDATA[
var edges = document.getElementsByTagName('g');
if (edges && edges.length) {
  for (var i=0;i<edges.length;i++) {
    if (edges[i].id.substr(0,4)=='edge') {
      edges[i].setAttribute('class','edge');
    }
  }
}
]]></script>
        <defs>
                <circle id="rim" cx="0" cy="0" r="7"/>
                <circle id="rim2" cx="0" cy="0" r="3.5"/>
                <g id="zoomPlus">
                        <use xlink:href="#rim" fill="#404040">
                                <set attributeName="fill" to="#808080" begin="zoomplus.mouseover" end="zoomplus.mouseout"/>
                        </use>
                        <path d="M-4,0h8M0,-4v8" fill="none" stroke="white" stroke-width="1.5" pointer-events="none"/>
                </g>
                <g id="zoomMin">
                        <use xlink:href="#rim" fill="#404040">
                                <set attributeName="fill" to="#808080" begin="zoomminus.mouseover" end="zoomminus.mouseout"/>
                        </use>
                        <path d="M-4,0h8" fill="none" stroke="white" stroke-width="1.5" pointer-events="none"/>
                </g>
                <g id="dirArrow">
                        <path fill="none" stroke="white" stroke-width="1.5" d="M0,-3.0v7 M-2.5,-0.5L0,-3.0L2.5,-0.5"/>
                </g>
               <g id="resetDef">
                       <use xlink:href="#rim2" fill="#404040">
                               <set attributeName="fill" to="#808080" begin="reset.mouseover" end="reset.mouseout"/>
                       </use>
               </g>
        </defs>

<script type="text/javascript">
var viewWidth = 2194;
var viewHeight = 364;
var sectionId = 'dynsection-0';
</script>
<script xlink:href="../../svgpan.js"/>
<svg id="graph" class="graph">
<g id="viewport">
<title>src/CameraSystem.h</title>
<polygon fill="white" stroke="none" points="-4,4 -4,-360 2190.03,-360 2190.03,4 -4,4"/>
<!-- Node1 -->
<g id="node1" class="node"><title>Node1</title>
<g id="a_node1"><a xlink:title=" ">
<polygon fill="#bfbfbf" stroke="black" points="537.027,-336.5 537.027,-355.5 646.027,-355.5 646.027,-336.5 537.027,-336.5"/>
<text text-anchor="middle" x="591.527" y="-343.5" font-family="Helvetica,sans-Serif" font-size="10.00">src/CameraSystem.h</text>
</a>
</g>
</g>
<!-- Node2 -->
<g id="node2" class="node"><title>Node2</title>
<g id="a_node2"><a xlink:href="../../d5/d91/_camera_8h.html" target="_top" xlink:title=" ">
<polygon fill="white" stroke="black" points="286.027,-168.5 286.027,-187.5 345.027,-187.5 345.027,-168.5 286.027,-168.5"/>
<text text-anchor="middle" x="315.527" y="-175.5" font-family="Helvetica,sans-Serif" font-size="10.00">Camera.h</text>
</a>
</g>
</g>
<!-- Node1&#45;&gt;Node2 -->
<g id="edge1" class="edge"><title>Node1&#45;&gt;Node2</title>
<path fill="none" stroke="midnightblue" d="M572.936,-336.461C554.51,-327.822 525.629,-313.806 501.527,-300 439.806,-264.645 370.36,-217.345 336.439,-193.722"/>
<polygon fill="midnightblue" stroke="midnightblue" points="338.051,-190.579 327.85,-187.717 334.04,-196.316 338.051,-190.579"/>
</g>
<!-- Node3 -->
<g id="node3" class="node"><title>Node3</title>
<g id="a_node3"><a xlink:href="../../dc/d20/_component_8h.html" target="_top" xlink:title=" ">
<polygon fill="white" stroke="black" points="984.527,-56.5 984.527,-75.5 1058.53,-75.5 1058.53,-56.5 984.527,-56.5"/>
<text text-anchor="middle" x="1021.53" y="-63.5" font-family="Helvetica,sans-Serif" font-size="10.00">Component.h</text>
</a>
</g>
</g>
<!-- Node1&#45;&gt;Node3 -->
<g id="edge13" class="edge"><title>Node1&#45;&gt;Node3</title>
<path fill="none" stroke="midnightblue" d="M571.304,-336.495C556.756,-329.168 538.226,-317.063 529.527,-300 502.143,-246.287 363.12,-293.532 557.527,-112 587.571,-83.9458 862.146,-72.0784 974.22,-68.3745"/>
<polygon fill="midnightblue" stroke="midnightblue" points="974.346,-71.8723 984.228,-68.0512 974.12,-64.876 974.346,-71.8723"/>
</g>
<!-- Node5 -->
<g id="node5" class="node"><title>Node5</title>
<g id="a_node5"><a xlink:href="../../de/d50/_game_info_8h.html" target="_top" xlink:title=" ">
<polygon fill="white" stroke="black" points="282.527,-112.5 282.527,-131.5 348.527,-131.5 348.527,-112.5 282.527,-112.5"/>
<text text-anchor="middle" x="315.527" y="-119.5" font-family="Helvetica,sans-Serif" font-size="10.00">GameInfo.h</text>
</a>
</g>
</g>
<!-- Node1&#45;&gt;Node5 -->
<g id="edge14" class="edge"><title>Node1&#45;&gt;Node5</title>
<path fill="none" stroke="midnightblue" d="M583.954,-336.115C572.699,-323.137 550.613,-298.53 529.527,-280 463.538,-222.009 377.149,-163.318 337.343,-137.132"/>
<polygon fill="midnightblue" stroke="midnightblue" points="339.205,-134.168 328.92,-131.621 335.371,-140.025 339.205,-134.168"/>
</g>
<!-- Node10 -->
<g id="node10" class="node"><title>Node10</title>
<g id="a_node10"><a xlink:href="../../d9/db9/_unique_vectors_8h.html" target="_top" xlink:title=" ">
<polygon fill="white" stroke="black" points="175.027,-112.5 175.027,-131.5 264.027,-131.5 264.027,-112.5 175.027,-112.5"/>
<text text-anchor="middle" x="219.527" y="-119.5" font-family="Helvetica,sans-Serif" font-size="10.00">UniqueVectors.h</text>
</a>
</g>
</g>
<!-- Node1&#45;&gt;Node10 -->
<g id="edge66" class="edge"><title>Node1&#45;&gt;Node10</title>
<path fill="none" stroke="midnightblue" d="M588.42,-336.458C583.188,-323.039 571.498,-296.817 554.527,-280 471.47,-197.697 337.133,-153.055 266.45,-134.131"/>
<polygon fill="midnightblue" stroke="midnightblue" points="267.057,-130.672 256.497,-131.524 265.284,-137.444 267.057,-130.672"/>
</g>
<!-- Node11 -->
<g id="node11" class="node"><title>Node11</title>
<g id="a_node11"><a xlink:title=" ">
<polygon fill="white" stroke="#bfbfbf" points="14.0269,-112.5 14.0269,-131.5 157.027,-131.5 157.027,-112.5 14.0269,-112.5"/>
<text text-anchor="middle" x="85.5269" y="-119.5" font-family="Helvetica,sans-Serif" font-size="10.00">glm/gtc/matrix_transform.hpp</text>
</a>
</g>
</g>
<!-- Node1&#45;&gt;Node11 -->
<g id="edge67" class="edge"><title>Node1&#45;&gt;Node11</title>
<path fill="none" stroke="midnightblue" d="M591.759,-336.443C591.683,-323.004 589.694,-296.755 576.527,-280 507.995,-192.798 458.948,-202.456 353.527,-168 318.443,-156.533 226.13,-142.273 159.651,-132.917"/>
<polygon fill="midnightblue" stroke="midnightblue" points="160.016,-129.435 149.628,-131.517 159.047,-136.367 160.016,-129.435"/>
</g>
<!-- Node14 -->
<g id="node14" class="node"><title>Node14</title>
<g id="a_node14"><a xlink:href="../../d7/d26/_helping_hand_8h.html" target="_top" xlink:title=" ">
<polygon fill="white" stroke="black" points="814.527,-168.5 814.527,-187.5 894.527,-187.5 894.527,-168.5 814.527,-168.5"/>
<text text-anchor="middle" x="854.527" y="-175.5" font-family="Helvetica,sans-Serif" font-size="10.00">HelpingHand.h</text>
</a>
</g>
</g>
<!-- Node1&#45;&gt;Node14 -->
<g id="edge15" class="edge"><title>Node1&#45;&gt;Node14</title>
<path fill="none" stroke="midnightblue" d="M605.297,-336.309C648.17,-309.248 779.55,-226.324 832.282,-193.041"/>
<polygon fill="midnightblue" stroke="midnightblue" points="834.305,-195.902 840.894,-187.605 830.569,-189.983 834.305,-195.902"/>
</g>
<!-- Node18 -->
<g id="node18" class="node"><title>Node18</title>
<g id="a_node18"><a xlink:href="../../db/dcf/_locator_8h.html" target="_top" xlink:title=" ">
<polygon fill="white" stroke="black" points="963.027,-280.5 963.027,-299.5 1020.03,-299.5 1020.03,-280.5 963.027,-280.5"/>
<text text-anchor="middle" x="991.527" y="-287.5" font-family="Helvetica,sans-Serif" font-size="10.00">Locator.h</text>
</a>
</g>
</g>
<!-- Node1&#45;&gt;Node18 -->
<g id="edge21" class="edge"><title>Node1&#45;&gt;Node18</title>
<path fill="none" stroke="midnightblue" d="M646.307,-337.605C728.492,-326.51 881.661,-305.832 953.053,-296.194"/>
<polygon fill="midnightblue" stroke="midnightblue" points="953.532,-299.661 962.974,-294.855 952.596,-292.724 953.532,-299.661"/>
</g>
<!-- Node2&#45;&gt;Node3 -->
<g id="edge2" class="edge"><title>Node2&#45;&gt;Node3</title>
<path fill="none" stroke="midnightblue" d="M285.977,-177.395C215.52,-177.64 40.8148,-173.916 4.52694,-132 -1.29103,-125.28 -1.61796,-118.423 4.52694,-112 21.5093,-94.2496 776.513,-73.3785 974.434,-68.205"/>
<polygon fill="midnightblue" stroke="midnightblue" points="974.61,-71.7017 984.515,-67.9425 974.428,-64.7041 974.61,-71.7017"/>
</g>
<!-- Node2&#45;&gt;Node5 -->
<g id="edge4" class="edge"><title>Node2&#45;&gt;Node5</title>
<path fill="none" stroke="midnightblue" d="M315.527,-168.083C315.527,-161.006 315.527,-150.861 315.527,-141.986"/>
<polygon fill="midnightblue" stroke="midnightblue" points="319.027,-141.751 315.527,-131.751 312.027,-141.751 319.027,-141.751"/>
</g>
<!-- Node2&#45;&gt;Node10 -->
<g id="edge9" class="edge"><title>Node2&#45;&gt;Node10</title>
<path fill="none" stroke="midnightblue" d="M300.103,-168.324C284.987,-159.822 261.712,-146.729 244.056,-136.797"/>
<polygon fill="midnightblue" stroke="midnightblue" points="245.344,-133.507 234.913,-131.655 241.913,-139.608 245.344,-133.507"/>
</g>
<!-- Node2&#45;&gt;Node11 -->
<g id="edge10" class="edge"><title>Node2&#45;&gt;Node11</title>
<path fill="none" stroke="midnightblue" d="M285.929,-170.051C246.902,-160.888 177.811,-144.667 131.838,-133.873"/>
<polygon fill="midnightblue" stroke="midnightblue" points="132.362,-130.401 121.826,-131.522 130.762,-137.216 132.362,-130.401"/>
</g>
<!-- Node12 -->
<g id="node12" class="node"><title>Node12</title>
<g id="a_node12"><a xlink:title=" ">
<polygon fill="white" stroke="#bfbfbf" points="404.527,-112.5 404.527,-131.5 510.527,-131.5 510.527,-112.5 404.527,-112.5"/>
<text text-anchor="middle" x="457.527" y="-119.5" font-family="Helvetica,sans-Serif" font-size="10.00">glm/gtc/type_ptr.hpp</text>
</a>
</g>
</g>
<!-- Node2&#45;&gt;Node12 -->
<g id="edge11" class="edge"><title>Node2&#45;&gt;Node12</title>
<path fill="none" stroke="midnightblue" d="M338.027,-168.444C361.604,-159.478 398.849,-145.314 425.491,-135.183"/>
<polygon fill="midnightblue" stroke="midnightblue" points="427.029,-138.342 435.132,-131.516 424.541,-131.8 427.029,-138.342"/>
</g>
<!-- Node13 -->
<g id="node13" class="node"><title>Node13</title>
<g id="a_node13"><a xlink:title=" ">
<polygon fill="white" stroke="#bfbfbf" points="1571.53,-56.5 1571.53,-75.5 1631.53,-75.5 1631.53,-56.5 1571.53,-56.5"/>
<text text-anchor="middle" x="1601.53" y="-63.5" font-family="Helvetica,sans-Serif" font-size="10.00">GL/glew.h</text>
</a>
</g>
</g>
<!-- Node2&#45;&gt;Node13 -->
<g id="edge12" class="edge"><title>Node2&#45;&gt;Node13</title>
<path fill="none" stroke="midnightblue" d="M322.79,-168.169C335.638,-153.306 364.008,-123.767 395.527,-112 511.548,-68.6854 1385.95,-84.033 1509.53,-76 1526.47,-74.8984 1545.13,-73.1698 1561.19,-71.5206"/>
<polygon fill="midnightblue" stroke="midnightblue" points="1561.74,-74.9819 1571.32,-70.4558 1561.01,-68.0202 1561.74,-74.9819"/>
</g>
<!-- Node4 -->
<g id="node4" class="node"><title>Node4</title>
<g id="a_node4"><a xlink:title=" ">
<polygon fill="white" stroke="#bfbfbf" points="997.027,-0.5 997.027,-19.5 1046.03,-19.5 1046.03,-0.5 997.027,-0.5"/>
<text text-anchor="middle" x="1021.53" y="-7.5" font-family="Helvetica,sans-Serif" font-size="10.00">stdint.h</text>
</a>
</g>
</g>
<!-- Node3&#45;&gt;Node4 -->
<g id="edge3" class="edge"><title>Node3&#45;&gt;Node4</title>
<path fill="none" stroke="midnightblue" d="M1021.53,-56.083C1021.53,-49.0059 1021.53,-38.8611 1021.53,-29.9865"/>
<polygon fill="midnightblue" stroke="midnightblue" points="1025.03,-29.751 1021.53,-19.7511 1018.03,-29.7511 1025.03,-29.751"/>
</g>
<!-- Node6 -->
<g id="node6" class="node"><title>Node6</title>
<g id="a_node6"><a xlink:title=" ">
<polygon fill="white" stroke="#bfbfbf" points="519.027,-56.5 519.027,-75.5 646.027,-75.5 646.027,-56.5 519.027,-56.5"/>
<text text-anchor="middle" x="582.527" y="-63.5" font-family="Helvetica,sans-Serif" font-size="10.00">LinearMath/btTransform.h</text>
</a>
</g>
</g>
<!-- Node5&#45;&gt;Node6 -->
<g id="edge5" class="edge"><title>Node5&#45;&gt;Node6</title>
<path fill="none" stroke="midnightblue" d="M348.534,-114.324C394.017,-105.126 476.44,-88.4558 530.325,-77.5577"/>
<polygon fill="midnightblue" stroke="midnightblue" points="531.263,-80.939 540.37,-75.5261 529.875,-74.078 531.263,-80.939"/>
</g>
<!-- Node7 -->
<g id="node7" class="node"><title>Node7</title>
<g id="a_node7"><a xlink:title=" ">
<polygon fill="white" stroke="#bfbfbf" points="1249.53,-56.5 1249.53,-75.5 1323.53,-75.5 1323.53,-56.5 1249.53,-56.5"/>
<text text-anchor="middle" x="1286.53" y="-63.5" font-family="Helvetica,sans-Serif" font-size="10.00">glm/vec3.hpp</text>
</a>
</g>
</g>
<!-- Node5&#45;&gt;Node7 -->
<g id="edge6" class="edge"><title>Node5&#45;&gt;Node7</title>
<path fill="none" stroke="midnightblue" d="M348.56,-114.07C353.233,-113.267 357.99,-112.542 362.527,-112 449.794,-101.572 1063.35,-76.0777 1239.41,-68.9053"/>
<polygon fill="midnightblue" stroke="midnightblue" points="1239.55,-72.4025 1249.4,-68.4988 1239.27,-65.4083 1239.55,-72.4025"/>
</g>
<!-- Node8 -->
<g id="node8" class="node"><title>Node8</title>
<g id="a_node8"><a xlink:title=" ">
<polygon fill="white" stroke="#bfbfbf" points="278.527,-56.5 278.527,-75.5 352.527,-75.5 352.527,-56.5 278.527,-56.5"/>
<text text-anchor="middle" x="315.527" y="-63.5" font-family="Helvetica,sans-Serif" font-size="10.00">glm/vec4.hpp</text>
</a>
</g>
</g>
<!-- Node5&#45;&gt;Node8 -->
<g id="edge7" class="edge"><title>Node5&#45;&gt;Node8</title>
<path fill="none" stroke="midnightblue" d="M315.527,-112.083C315.527,-105.006 315.527,-94.8611 315.527,-85.9865"/>
<polygon fill="midnightblue" stroke="midnightblue" points="319.027,-85.751 315.527,-75.7511 312.027,-85.7511 319.027,-85.751"/>
</g>
<!-- Node9 -->
<g id="node9" class="node"><title>Node9</title>
<g id="a_node9"><a xlink:title=" ">
<polygon fill="white" stroke="#bfbfbf" points="1459.03,-56.5 1459.03,-75.5 1500.03,-75.5 1500.03,-56.5 1459.03,-56.5"/>
<text text-anchor="middle" x="1479.53" y="-63.5" font-family="Helvetica,sans-Serif" font-size="10.00">string</text>
</a>
</g>
</g>
<!-- Node5&#45;&gt;Node9 -->
<g id="edge8" class="edge"><title>Node5&#45;&gt;Node9</title>
<path fill="none" stroke="midnightblue" d="M348.554,-114.022C353.228,-113.226 357.987,-112.516 362.527,-112 791.176,-63.2913 901.639,-97.1832 1332.53,-76 1372.56,-74.032 1418.68,-71.0998 1448.42,-69.122"/>
<polygon fill="midnightblue" stroke="midnightblue" points="1448.86,-72.6009 1458.6,-68.44 1448.39,-65.6166 1448.86,-72.6009"/>
</g>
<!-- Node14&#45;&gt;Node6 -->
<g id="edge16" class="edge"><title>Node14&#45;&gt;Node6</title>
<path fill="none" stroke="midnightblue" d="M835.324,-168.444C815.168,-159.444 782.572,-144.832 754.527,-132 735.361,-123.231 731.057,-119.925 711.527,-112 680.87,-99.5595 645.324,-87.3164 619.318,-78.7488"/>
<polygon fill="midnightblue" stroke="midnightblue" points="620.092,-75.3197 609.499,-75.5394 617.917,-81.9732 620.092,-75.3197"/>
</g>
<!-- Node14&#45;&gt;Node7 -->
<g id="edge19" class="edge"><title>Node14&#45;&gt;Node7</title>
<path fill="none" stroke="midnightblue" d="M833.795,-168.3C807.612,-156.142 768.176,-133.175 787.527,-112 802.654,-95.4469 1117.27,-76.3587 1239.01,-69.5635"/>
<polygon fill="midnightblue" stroke="midnightblue" points="1239.36,-73.0495 1249.15,-69.001 1238.97,-66.0603 1239.36,-73.0495"/>
</g>
<!-- Node15 -->
<g id="node15" class="node"><title>Node15</title>
<g id="a_node15"><a xlink:title=" ">
<polygon fill="white" stroke="#bfbfbf" points="1144.53,-112.5 1144.53,-131.5 1200.53,-131.5 1200.53,-112.5 1144.53,-112.5"/>
<text text-anchor="middle" x="1172.53" y="-119.5" font-family="Helvetica,sans-Serif" font-size="10.00">algorithm</text>
</a>
</g>
</g>
<!-- Node14&#45;&gt;Node15 -->
<g id="edge17" class="edge"><title>Node14&#45;&gt;Node15</title>
<path fill="none" stroke="midnightblue" d="M894.726,-171.592C947.51,-164.264 1043.25,-150.199 1134.36,-132.106"/>
<polygon fill="midnightblue" stroke="midnightblue" points="1135.18,-135.511 1144.3,-130.112 1133.8,-128.648 1135.18,-135.511"/>
</g>
<!-- Node16 -->
<g id="node16" class="node"><title>Node16</title>
<g id="a_node16"><a xlink:title=" ">
<polygon fill="white" stroke="#bfbfbf" points="796.527,-112.5 796.527,-131.5 912.527,-131.5 912.527,-112.5 796.527,-112.5"/>
<text text-anchor="middle" x="854.527" y="-119.5" font-family="Helvetica,sans-Serif" font-size="10.00">glm/gtc/quaternion.hpp</text>
</a>
</g>
</g>
<!-- Node14&#45;&gt;Node16 -->
<g id="edge18" class="edge"><title>Node14&#45;&gt;Node16</title>
<path fill="none" stroke="midnightblue" d="M854.527,-168.083C854.527,-161.006 854.527,-150.861 854.527,-141.986"/>
<polygon fill="midnightblue" stroke="midnightblue" points="858.027,-141.751 854.527,-131.751 851.027,-141.751 858.027,-141.751"/>
</g>
<!-- Node17 -->
<g id="node17" class="node"><title>Node17</title>
<g id="a_node17"><a xlink:title=" ">
<polygon fill="white" stroke="#bfbfbf" points="930.527,-112.5 930.527,-131.5 972.527,-131.5 972.527,-112.5 930.527,-112.5"/>
<text text-anchor="middle" x="951.527" y="-119.5" font-family="Helvetica,sans-Serif" font-size="10.00">vector</text>
</a>
</g>
</g>
<!-- Node14&#45;&gt;Node17 -->
<g id="edge20" class="edge"><title>Node14&#45;&gt;Node17</title>
<path fill="none" stroke="midnightblue" d="M870.112,-168.324C885.526,-159.743 909.339,-146.486 927.237,-136.522"/>
<polygon fill="midnightblue" stroke="midnightblue" points="928.946,-139.577 935.981,-131.655 925.541,-133.461 928.946,-139.577"/>
</g>
<!-- Node19 -->
<g id="node19" class="node"><title>Node19</title>
<g id="a_node19"><a xlink:href="../../d2/d94/_input_8h.html" target="_top" xlink:title=" ">
<polygon fill="white" stroke="black" points="657.527,-168.5 657.527,-187.5 703.527,-187.5 703.527,-168.5 657.527,-168.5"/>
<text text-anchor="middle" x="680.527" y="-175.5" font-family="Helvetica,sans-Serif" font-size="10.00">Input.h</text>
</a>
</g>
</g>
<!-- Node18&#45;&gt;Node19 -->
<g id="edge22" class="edge"><title>Node18&#45;&gt;Node19</title>
<path fill="none" stroke="midnightblue" d="M967.382,-280.46C912.089,-260.903 776.224,-212.848 713.386,-190.622"/>
<polygon fill="midnightblue" stroke="midnightblue" points="714.191,-187.195 703.596,-187.16 711.857,-193.794 714.191,-187.195"/>
</g>
<!-- Node22 -->
<g id="node22" class="node"><title>Node22</title>
<g id="a_node22"><a xlink:href="../../d8/d34/_shader_8h.html" target="_top" xlink:title=" ">
<polygon fill="white" stroke="black" points="1397.53,-168.5 1397.53,-187.5 1453.53,-187.5 1453.53,-168.5 1397.53,-168.5"/>
<text text-anchor="middle" x="1425.53" y="-175.5" font-family="Helvetica,sans-Serif" font-size="10.00">Shader.h</text>
</a>
</g>
</g>
<!-- Node18&#45;&gt;Node22 -->
<g id="edge27" class="edge"><title>Node18&#45;&gt;Node22</title>
<path fill="none" stroke="midnightblue" d="M1020.34,-281.697C1096.29,-262.446 1302,-210.309 1387.48,-188.644"/>
<polygon fill="midnightblue" stroke="midnightblue" points="1388.46,-192.006 1397.29,-186.157 1386.74,-185.221 1388.46,-192.006"/>
</g>
<!-- Node30 -->
<g id="node30" class="node"><title>Node30</title>
<g id="a_node30"><a xlink:href="../../d5/db0/_sound_8h.html" target="_top" xlink:title=" ">
<polygon fill="white" stroke="black" points="938.027,-224.5 938.027,-243.5 991.027,-243.5 991.027,-224.5 938.027,-224.5"/>
<text text-anchor="middle" x="964.527" y="-231.5" font-family="Helvetica,sans-Serif" font-size="10.00">Sound.h</text>
</a>
</g>
</g>
<!-- Node18&#45;&gt;Node30 -->
<g id="edge46" class="edge"><title>Node18&#45;&gt;Node30</title>
<path fill="none" stroke="midnightblue" d="M987.068,-280.083C983.373,-272.691 978.004,-261.953 973.432,-252.811"/>
<polygon fill="midnightblue" stroke="midnightblue" points="976.505,-251.13 968.902,-243.751 970.244,-254.261 976.505,-251.13"/>
</g>
<!-- Node34 -->
<g id="node34" class="node"><title>Node34</title>
<g id="a_node34"><a xlink:href="../../de/dbf/_texture_8h.html" target="_top" xlink:title=" ">
<polygon fill="white" stroke="black" points="1868.03,-224.5 1868.03,-243.5 1925.03,-243.5 1925.03,-224.5 1868.03,-224.5"/>
<text text-anchor="middle" x="1896.53" y="-231.5" font-family="Helvetica,sans-Serif" font-size="10.00">Texture.h</text>
</a>
</g>
</g>
<!-- Node18&#45;&gt;Node34 -->
<g id="edge57" class="edge"><title>Node18&#45;&gt;Node34</title>
<path fill="none" stroke="midnightblue" d="M1020.11,-287.295C1152.44,-279.399 1705.63,-246.391 1857.7,-237.317"/>
<polygon fill="midnightblue" stroke="midnightblue" points="1858.17,-240.795 1867.94,-236.706 1857.75,-233.808 1858.17,-240.795"/>
</g>
<!-- Node19&#45;&gt;Node5 -->
<g id="edge23" class="edge"><title>Node19&#45;&gt;Node5</title>
<path fill="none" stroke="midnightblue" d="M657.514,-171.017C652.9,-169.926 648.073,-168.863 643.527,-168 589.863,-157.82 435.09,-137.952 358.919,-128.392"/>
<polygon fill="midnightblue" stroke="midnightblue" points="359.069,-124.884 348.712,-127.114 358.199,-131.83 359.069,-124.884"/>
</g>
<!-- Node19&#45;&gt;Node10 -->
<g id="edge24" class="edge"><title>Node19&#45;&gt;Node10</title>
<path fill="none" stroke="midnightblue" d="M657.143,-170.782C652.647,-169.738 647.959,-168.751 643.527,-168 483.808,-140.945 439.068,-153.094 274.274,-132.001"/>
<polygon fill="midnightblue" stroke="midnightblue" points="274.649,-128.52 264.281,-130.7 273.745,-135.462 274.649,-128.52"/>
</g>
<!-- Node20 -->
<g id="node20" class="node"><title>Node20</title>
<g id="a_node20"><a xlink:title=" ">
<polygon fill="white" stroke="#bfbfbf" points="566.527,-112.5 566.527,-131.5 640.527,-131.5 640.527,-112.5 566.527,-112.5"/>
<text text-anchor="middle" x="603.527" y="-119.5" font-family="Helvetica,sans-Serif" font-size="10.00">glm/vec2.hpp</text>
</a>
</g>
</g>
<!-- Node19&#45;&gt;Node20 -->
<g id="edge25" class="edge"><title>Node19&#45;&gt;Node20</title>
<path fill="none" stroke="midnightblue" d="M668.156,-168.324C656.368,-160.058 638.395,-147.453 624.391,-137.632"/>
<polygon fill="midnightblue" stroke="midnightblue" points="626.065,-134.531 615.868,-131.655 622.045,-140.262 626.065,-134.531"/>
</g>
<!-- Node21 -->
<g id="node21" class="node"><title>Node21</title>
<g id="a_node21"><a xlink:title=" ">
<polygon fill="white" stroke="#bfbfbf" points="658.527,-112.5 658.527,-131.5 702.527,-131.5 702.527,-112.5 658.527,-112.5"/>
<text text-anchor="middle" x="680.527" y="-119.5" font-family="Helvetica,sans-Serif" font-size="10.00">SDL.h</text>
</a>
</g>
</g>
<!-- Node19&#45;&gt;Node21 -->
<g id="edge26" class="edge"><title>Node19&#45;&gt;Node21</title>
<path fill="none" stroke="midnightblue" d="M680.527,-168.083C680.527,-161.006 680.527,-150.861 680.527,-141.986"/>
<polygon fill="midnightblue" stroke="midnightblue" points="684.027,-141.751 680.527,-131.751 677.027,-141.751 684.027,-141.751"/>
</g>
<!-- Node22&#45;&gt;Node3 -->
<g id="edge28" class="edge"><title>Node22&#45;&gt;Node3</title>
<path fill="none" stroke="midnightblue" d="M1397.46,-172.042C1361.84,-165.27 1298.87,-151.681 1247.53,-132 1229.71,-125.169 1227.39,-118.718 1209.53,-112 1162.96,-94.4862 1107.28,-82.1657 1068.65,-74.897"/>
<polygon fill="midnightblue" stroke="midnightblue" points="1069.2,-71.4381 1058.73,-73.0694 1067.93,-78.3224 1069.2,-71.4381"/>
</g>
<!-- Node22&#45;&gt;Node7 -->
<g id="edge42" class="edge"><title>Node22&#45;&gt;Node7</title>
<path fill="none" stroke="midnightblue" d="M1413.22,-168.244C1400.78,-159.325 1381.09,-144.996 1364.53,-132 1343.46,-115.477 1319.94,-95.6816 1304.29,-82.3119"/>
<polygon fill="midnightblue" stroke="midnightblue" points="1306.34,-79.4593 1296.47,-75.6071 1301.78,-84.7733 1306.34,-79.4593"/>
</g>
<!-- Node22&#45;&gt;Node9 -->
<g id="edge44" class="edge"><title>Node22&#45;&gt;Node9</title>
<path fill="none" stroke="midnightblue" d="M1429.76,-168.368C1438.6,-150.376 1459.13,-108.55 1470.87,-84.6267"/>
<polygon fill="midnightblue" stroke="midnightblue" points="1474.04,-86.1105 1475.31,-75.5914 1467.76,-83.0257 1474.04,-86.1105"/>
</g>
<!-- Node22&#45;&gt;Node13 -->
<g id="edge39" class="edge"><title>Node22&#45;&gt;Node13</title>
<path fill="none" stroke="midnightblue" d="M1435.53,-168.32C1450.96,-155.17 1481.81,-129.846 1510.53,-112 1530.32,-99.6984 1553.95,-88.0987 1572.16,-79.758"/>
<polygon fill="midnightblue" stroke="midnightblue" points="1573.73,-82.8915 1581.41,-75.5917 1570.85,-76.5097 1573.73,-82.8915"/>
</g>
<!-- Node22&#45;&gt;Node15 -->
<g id="edge40" class="edge"><title>Node22&#45;&gt;Node15</title>
<path fill="none" stroke="midnightblue" d="M1397.2,-170.967C1356.7,-162.341 1279.91,-145.977 1214.53,-132 1213.26,-131.728 1211.96,-131.452 1210.66,-131.172"/>
<polygon fill="midnightblue" stroke="midnightblue" points="1211.05,-127.678 1200.54,-129.007 1209.59,-134.523 1211.05,-127.678"/>
</g>
<!-- Node22&#45;&gt;Node17 -->
<g id="edge45" class="edge"><title>Node22&#45;&gt;Node17</title>
<path fill="none" stroke="midnightblue" d="M1397.46,-176.009C1328.36,-173.179 1144.49,-163.273 982.83,-131.897"/>
<polygon fill="midnightblue" stroke="midnightblue" points="983.195,-128.402 972.706,-129.898 981.839,-135.269 983.195,-128.402"/>
</g>
<!-- Node23 -->
<g id="node23" class="node"><title>Node23</title>
<g id="a_node23"><a xlink:href="../../d0/d4b/_debug_8h.html" target="_top" xlink:title=" ">
<polygon fill="white" stroke="black" points="1815.03,-112.5 1815.03,-131.5 1868.03,-131.5 1868.03,-112.5 1815.03,-112.5"/>
<text text-anchor="middle" x="1841.53" y="-119.5" font-family="Helvetica,sans-Serif" font-size="10.00">Debug.h</text>
</a>
</g>
</g>
<!-- Node22&#45;&gt;Node23 -->
<g id="edge29" class="edge"><title>Node22&#45;&gt;Node23</title>
<path fill="none" stroke="midnightblue" d="M1453.84,-174.886C1515.72,-170.001 1667.82,-156.563 1805.02,-131.862"/>
<polygon fill="midnightblue" stroke="midnightblue" points="1805.66,-135.303 1814.87,-130.064 1804.41,-128.417 1805.66,-135.303"/>
</g>
<!-- Node24 -->
<g id="node24" class="node"><title>Node24</title>
<g id="a_node24"><a xlink:href="../../d5/d31/_lights_8h.html" target="_top" xlink:title=" ">
<polygon fill="white" stroke="black" points="1373.03,-112.5 1373.03,-131.5 1424.03,-131.5 1424.03,-112.5 1373.03,-112.5"/>
<text text-anchor="middle" x="1398.53" y="-119.5" font-family="Helvetica,sans-Serif" font-size="10.00">Lights.h</text>
</a>
</g>
</g>
<!-- Node22&#45;&gt;Node24 -->
<g id="edge30" class="edge"><title>Node22&#45;&gt;Node24</title>
<path fill="none" stroke="midnightblue" d="M1421.07,-168.083C1417.37,-160.691 1412,-149.953 1407.43,-140.811"/>
<polygon fill="midnightblue" stroke="midnightblue" points="1410.51,-139.13 1402.9,-131.751 1404.24,-142.261 1410.51,-139.13"/>
</g>
<!-- Node25 -->
<g id="node25" class="node"><title>Node25</title>
<g id="a_node25"><a xlink:href="../../d3/d09/_material_8h.html" target="_top" xlink:title=" ">
<polygon fill="white" stroke="black" points="1257.03,-112.5 1257.03,-131.5 1316.03,-131.5 1316.03,-112.5 1257.03,-112.5"/>
<text text-anchor="middle" x="1286.53" y="-119.5" font-family="Helvetica,sans-Serif" font-size="10.00">Material.h</text>
</a>
</g>
</g>
<!-- Node22&#45;&gt;Node25 -->
<g id="edge32" class="edge"><title>Node22&#45;&gt;Node25</title>
<path fill="none" stroke="midnightblue" d="M1403.5,-168.444C1380.42,-159.478 1343.96,-145.314 1317.89,-135.183"/>
<polygon fill="midnightblue" stroke="midnightblue" points="1319.04,-131.875 1308.45,-131.516 1316.5,-138.4 1319.04,-131.875"/>
</g>
<!-- Node26 -->
<g id="node26" class="node"><title>Node26</title>
<g id="a_node26"><a xlink:href="../../d4/d4a/_settings_8h.html" target="_top" xlink:title=" ">
<polygon fill="white" stroke="black" points="1519.03,-112.5 1519.03,-131.5 1580.03,-131.5 1580.03,-112.5 1519.03,-112.5"/>
<text text-anchor="middle" x="1549.53" y="-119.5" font-family="Helvetica,sans-Serif" font-size="10.00">Settings.h</text>
</a>
</g>
</g>
<!-- Node22&#45;&gt;Node26 -->
<g id="edge35" class="edge"><title>Node22&#45;&gt;Node26</title>
<path fill="none" stroke="midnightblue" d="M1445.18,-168.444C1465.49,-159.596 1497.43,-145.687 1520.62,-135.586"/>
<polygon fill="midnightblue" stroke="midnightblue" points="1522.2,-138.718 1529.97,-131.516 1519.4,-132.3 1522.2,-138.718"/>
</g>
<!-- Node27 -->
<g id="node27" class="node"><title>Node27</title>
<g id="a_node27"><a xlink:href="../../d2/d06/_shaders_8h.html" target="_top" xlink:title=" ">
<polygon fill="white" stroke="black" points="1598.03,-112.5 1598.03,-131.5 1659.03,-131.5 1659.03,-112.5 1598.03,-112.5"/>
<text text-anchor="middle" x="1628.53" y="-119.5" font-family="Helvetica,sans-Serif" font-size="10.00">Shaders.h</text>
</a>
</g>
</g>
<!-- Node22&#45;&gt;Node27 -->
<g id="edge36" class="edge"><title>Node22&#45;&gt;Node27</title>
<path fill="none" stroke="midnightblue" d="M1453.75,-169.492C1488.63,-160.214 1548.22,-144.362 1587.98,-133.785"/>
<polygon fill="midnightblue" stroke="midnightblue" points="1589.12,-137.103 1597.89,-131.15 1587.32,-130.339 1589.12,-137.103"/>
</g>
<!-- Node28 -->
<g id="node28" class="node"><title>Node28</title>
<g id="a_node28"><a xlink:title=" ">
<polygon fill="white" stroke="#bfbfbf" points="1677.03,-112.5 1677.03,-131.5 1726.03,-131.5 1726.03,-112.5 1677.03,-112.5"/>
<text text-anchor="middle" x="1701.53" y="-119.5" font-family="Helvetica,sans-Serif" font-size="10.00">fstream</text>
</a>
</g>
</g>
<!-- Node22&#45;&gt;Node28 -->
<g id="edge41" class="edge"><title>Node22&#45;&gt;Node28</title>
<path fill="none" stroke="midnightblue" d="M1453.75,-172.557C1497.47,-165.504 1584.41,-150.812 1666.94,-132.229"/>
<polygon fill="midnightblue" stroke="midnightblue" points="1667.74,-135.636 1676.72,-130.004 1666.19,-128.81 1667.74,-135.636"/>
</g>
<!-- Node29 -->
<g id="node29" class="node"><title>Node29</title>
<g id="a_node29"><a xlink:title=" ">
<polygon fill="white" stroke="#bfbfbf" points="1744.53,-112.5 1744.53,-131.5 1796.53,-131.5 1796.53,-112.5 1744.53,-112.5"/>
<text text-anchor="middle" x="1770.53" y="-119.5" font-family="Helvetica,sans-Serif" font-size="10.00">sstream</text>
</a>
</g>
</g>
<!-- Node22&#45;&gt;Node29 -->
<g id="edge43" class="edge"><title>Node22&#45;&gt;Node29</title>
<path fill="none" stroke="midnightblue" d="M1453.91,-173.915C1507.07,-167.916 1625.41,-153.515 1734.38,-132.05"/>
<polygon fill="midnightblue" stroke="midnightblue" points="1735.1,-135.476 1744.22,-130.087 1733.73,-128.611 1735.1,-135.476"/>
</g>
<!-- Node24&#45;&gt;Node7 -->
<g id="edge31" class="edge"><title>Node24&#45;&gt;Node7</title>
<path fill="none" stroke="midnightblue" d="M1380.53,-112.324C1362.49,-103.625 1334.48,-90.1202 1313.72,-80.113"/>
<polygon fill="midnightblue" stroke="midnightblue" points="1315,-76.8449 1304.48,-75.6545 1311.96,-83.1502 1315,-76.8449"/>
</g>
<!-- Node25&#45;&gt;Node3 -->
<g id="edge33" class="edge"><title>Node25&#45;&gt;Node3</title>
<path fill="none" stroke="midnightblue" d="M1256.71,-114.896C1251.96,-113.927 1247.11,-112.935 1242.53,-112 1182.55,-99.7606 1113.42,-85.6894 1068.67,-76.5873"/>
<polygon fill="midnightblue" stroke="midnightblue" points="1069.17,-73.1175 1058.68,-74.5539 1067.78,-79.977 1069.17,-73.1175"/>
</g>
<!-- Node25&#45;&gt;Node7 -->
<g id="edge34" class="edge"><title>Node25&#45;&gt;Node7</title>
<path fill="none" stroke="midnightblue" d="M1286.53,-112.083C1286.53,-105.006 1286.53,-94.8611 1286.53,-85.9865"/>
<polygon fill="midnightblue" stroke="midnightblue" points="1290.03,-85.751 1286.53,-75.7511 1283.03,-85.7511 1290.03,-85.751"/>
</g>
<!-- Node27&#45;&gt;Node9 -->
<g id="edge38" class="edge"><title>Node27&#45;&gt;Node9</title>
<path fill="none" stroke="midnightblue" d="M1604.92,-112.444C1579.19,-103.12 1537.96,-88.1768 1509.85,-77.9911"/>
<polygon fill="midnightblue" stroke="midnightblue" points="1510.74,-74.5898 1500.15,-74.473 1508.36,-81.1709 1510.74,-74.5898"/>
</g>
<!-- Node27&#45;&gt;Node13 -->
<g id="edge37" class="edge"><title>Node27&#45;&gt;Node13</title>
<path fill="none" stroke="midnightblue" d="M1624.07,-112.083C1620.37,-104.691 1615,-93.9533 1610.43,-84.8111"/>
<polygon fill="midnightblue" stroke="midnightblue" points="1613.51,-83.1301 1605.9,-75.7511 1607.24,-86.2606 1613.51,-83.1301"/>
</g>
<!-- Node30&#45;&gt;Node14 -->
<g id="edge53" class="edge"><title>Node30&#45;&gt;Node14</title>
<path fill="none" stroke="midnightblue" d="M946.854,-224.324C929.133,-215.625 901.624,-202.12 881.239,-192.113"/>
<polygon fill="midnightblue" stroke="midnightblue" points="882.676,-188.919 872.156,-187.655 879.591,-195.203 882.676,-188.919"/>
</g>
<!-- Node30&#45;&gt;Node15 -->
<g id="edge55" class="edge"><title>Node30&#45;&gt;Node15</title>
<path fill="none" stroke="midnightblue" d="M979.547,-224.353C1001.69,-211.673 1044.49,-187.432 1081.53,-168 1102.73,-156.877 1127.05,-144.887 1145.22,-136.083"/>
<polygon fill="midnightblue" stroke="midnightblue" points="1147.13,-139.045 1154.61,-131.545 1144.09,-132.742 1147.13,-139.045"/>
</g>
<!-- Node30&#45;&gt;Node17 -->
<g id="edge56" class="edge"><title>Node30&#45;&gt;Node17</title>
<path fill="none" stroke="midnightblue" d="M958.422,-224.191C952.772,-215.46 944.772,-201.478 941.527,-188 937.769,-172.39 941.157,-154.316 944.974,-141.195"/>
<polygon fill="midnightblue" stroke="midnightblue" points="948.363,-142.094 948.134,-131.502 941.707,-139.925 948.363,-142.094"/>
</g>
<!-- Node31 -->
<g id="node31" class="node"><title>Node31</title>
<g id="a_node31"><a xlink:href="../../d3/da2/_debug_drawer_8h.html" target="_top" xlink:title=" ">
<polygon fill="white" stroke="black" points="951.027,-168.5 951.027,-187.5 1034.03,-187.5 1034.03,-168.5 951.027,-168.5"/>
<text text-anchor="middle" x="992.527" y="-175.5" font-family="Helvetica,sans-Serif" font-size="10.00">DebugDrawer.h</text>
</a>
</g>
</g>
<!-- Node30&#45;&gt;Node31 -->
<g id="edge47" class="edge"><title>Node30&#45;&gt;Node31</title>
<path fill="none" stroke="midnightblue" d="M969.151,-224.083C972.983,-216.691 978.551,-205.953 983.292,-196.811"/>
<polygon fill="midnightblue" stroke="midnightblue" points="986.493,-198.24 987.989,-187.751 980.279,-195.018 986.493,-198.24"/>
</g>
<!-- Node33 -->
<g id="node33" class="node"><title>Node33</title>
<g id="a_node33"><a xlink:title=" ">
<polygon fill="white" stroke="#bfbfbf" points="1091.03,-168.5 1091.03,-187.5 1164.03,-187.5 1164.03,-168.5 1091.03,-168.5"/>
<text text-anchor="middle" x="1127.53" y="-175.5" font-family="Helvetica,sans-Serif" font-size="10.00">SDL_mixer.h</text>
</a>
</g>
</g>
<!-- Node30&#45;&gt;Node33 -->
<g id="edge54" class="edge"><title>Node30&#45;&gt;Node33</title>
<path fill="none" stroke="midnightblue" d="M990.355,-224.444C1017.78,-215.359 1061.3,-200.939 1091.96,-190.783"/>
<polygon fill="midnightblue" stroke="midnightblue" points="1093.43,-193.984 1101.82,-187.516 1091.23,-187.339 1093.43,-193.984"/>
</g>
<!-- Node31&#45;&gt;Node5 -->
<g id="edge48" class="edge"><title>Node31&#45;&gt;Node5</title>
<path fill="none" stroke="midnightblue" d="M950.896,-172.529C935.965,-170.995 919,-169.33 903.527,-168 678.015,-148.612 620.926,-152.656 395.527,-132 383.578,-130.905 370.646,-129.532 358.735,-128.191"/>
<polygon fill="midnightblue" stroke="midnightblue" points="358.913,-124.689 348.58,-127.029 358.117,-131.643 358.913,-124.689"/>
</g>
<!-- Node31&#45;&gt;Node12 -->
<g id="edge51" class="edge"><title>Node31&#45;&gt;Node12</title>
<path fill="none" stroke="midnightblue" d="M950.872,-172.786C935.939,-171.275 918.979,-169.561 903.527,-168 767.18,-154.228 607.383,-138.11 520.909,-129.391"/>
<polygon fill="midnightblue" stroke="midnightblue" points="521.034,-125.886 510.734,-128.365 520.332,-132.85 521.034,-125.886"/>
</g>
<!-- Node31&#45;&gt;Node17 -->
<g id="edge52" class="edge"><title>Node31&#45;&gt;Node17</title>
<path fill="none" stroke="midnightblue" d="M985.757,-168.083C979.965,-160.455 971.468,-149.264 964.389,-139.941"/>
<polygon fill="midnightblue" stroke="midnightblue" points="967.006,-137.599 958.171,-131.751 961.431,-141.832 967.006,-137.599"/>
</g>
<!-- Node31&#45;&gt;Node18 -->
<g id="edge49" class="edge"><title>Node31&#45;&gt;Node18</title>
<path fill="none" stroke="midnightblue" d="M994.575,-187.821C997.224,-200.312 1001.3,-223.875 999.527,-244 998.751,-252.803 997.135,-262.464 995.558,-270.57"/>
<polygon fill="midnightblue" stroke="midnightblue" points="992.117,-269.931 993.514,-280.433 998.971,-271.352 992.117,-269.931"/>
</g>
<!-- Node32 -->
<g id="node32" class="node"><title>Node32</title>
<g id="a_node32"><a xlink:title=" ">
<polygon fill="white" stroke="#bfbfbf" points="990.527,-112.5 990.527,-131.5 1126.53,-131.5 1126.53,-112.5 990.527,-112.5"/>
<text text-anchor="middle" x="1058.53" y="-119.5" font-family="Helvetica,sans-Serif" font-size="10.00">LinearMath/btIDebugDraw.h</text>
</a>
</g>
</g>
<!-- Node31&#45;&gt;Node32 -->
<g id="edge50" class="edge"><title>Node31&#45;&gt;Node32</title>
<path fill="none" stroke="midnightblue" d="M1003.13,-168.324C1012.98,-160.263 1027.88,-148.077 1039.74,-138.369"/>
<polygon fill="midnightblue" stroke="midnightblue" points="1042.21,-140.875 1047.73,-131.834 1037.77,-135.457 1042.21,-140.875"/>
</g>
<!-- Node34&#45;&gt;Node9 -->
<g id="edge63" class="edge"><title>Node34&#45;&gt;Node9</title>
<path fill="none" stroke="midnightblue" d="M1898.26,-224.423C1902.19,-202.186 1909.16,-142.299 1877.53,-112 1875.86,-110.406 1603.75,-80.563 1510.48,-70.3752"/>
<polygon fill="midnightblue" stroke="midnightblue" points="1510.59,-66.8665 1500.26,-69.2604 1509.83,-73.8252 1510.59,-66.8665"/>
</g>
<!-- Node34&#45;&gt;Node13 -->
<g id="edge58" class="edge"><title>Node34&#45;&gt;Node13</title>
<path fill="none" stroke="midnightblue" d="M1901.35,-224.411C1912.85,-202.656 1938.89,-144.789 1910.53,-112 1876.23,-72.3497 1717.39,-66.9257 1641.77,-66.6438"/>
<polygon fill="midnightblue" stroke="midnightblue" points="1641.67,-63.1438 1631.67,-66.6351 1641.66,-70.1438 1641.67,-63.1438"/>
</g>
<!-- Node34&#45;&gt;Node14 -->
<g id="edge65" class="edge"><title>Node34&#45;&gt;Node14</title>
<path fill="none" stroke="midnightblue" d="M1867.98,-232.239C1752.26,-229.03 1306.9,-215.485 941.527,-188 929.698,-187.11 916.988,-185.925 905.035,-184.709"/>
<polygon fill="midnightblue" stroke="midnightblue" points="905.076,-181.194 894.767,-183.637 904.35,-188.156 905.076,-181.194"/>
</g>
<!-- Node34&#45;&gt;Node15 -->
<g id="edge61" class="edge"><title>Node34&#45;&gt;Node15</title>
<path fill="none" stroke="midnightblue" d="M1867.88,-232.503C1790.1,-230.715 1568.71,-222.715 1388.53,-188 1322.1,-175.201 1246.96,-150.076 1205.12,-135.089"/>
<polygon fill="midnightblue" stroke="midnightblue" points="1206.07,-131.71 1195.47,-131.601 1203.69,-138.293 1206.07,-131.71"/>
</g>
<!-- Node34&#45;&gt;Node23 -->
<g id="edge64" class="edge"><title>Node34&#45;&gt;Node23</title>
<path fill="none" stroke="midnightblue" d="M1892.21,-224.368C1883.21,-206.376 1862.3,-164.55 1850.34,-140.627"/>
<polygon fill="midnightblue" stroke="midnightblue" points="1853.43,-138.97 1845.82,-131.591 1847.16,-142.101 1853.43,-138.97"/>
</g>
<!-- Node35 -->
<g id="node35" class="node"><title>Node35</title>
<g id="a_node35"><a xlink:title=" ">
<polygon fill="white" stroke="#bfbfbf" points="1963.03,-168.5 1963.03,-187.5 2038.03,-187.5 2038.03,-168.5 1963.03,-168.5"/>
<text text-anchor="middle" x="2000.53" y="-175.5" font-family="Helvetica,sans-Serif" font-size="10.00">SDL_image.h</text>
</a>
</g>
</g>
<!-- Node34&#45;&gt;Node35 -->
<g id="edge59" class="edge"><title>Node34&#45;&gt;Node35</title>
<path fill="none" stroke="midnightblue" d="M1913.24,-224.324C1929.84,-215.703 1955.53,-202.364 1974.75,-192.386"/>
<polygon fill="midnightblue" stroke="midnightblue" points="1976.6,-195.369 1983.86,-187.655 1973.37,-189.156 1976.6,-195.369"/>
</g>
<!-- Node36 -->
<g id="node36" class="node"><title>Node36</title>
<g id="a_node36"><a xlink:title=" ">
<polygon fill="white" stroke="#bfbfbf" points="2056.03,-168.5 2056.03,-187.5 2133.03,-187.5 2133.03,-168.5 2056.03,-168.5"/>
<text text-anchor="middle" x="2094.53" y="-175.5" font-family="Helvetica,sans-Serif" font-size="10.00">SDL_opengl.h</text>
</a>
</g>
</g>
<!-- Node34&#45;&gt;Node36 -->
<g id="edge60" class="edge"><title>Node34&#45;&gt;Node36</title>
<path fill="none" stroke="midnightblue" d="M1925.32,-225.148C1958.99,-215.965 2014.99,-200.692 2053.27,-190.251"/>
<polygon fill="midnightblue" stroke="midnightblue" points="2054.36,-193.583 2063.08,-187.576 2052.51,-186.83 2054.36,-193.583"/>
</g>
<!-- Node37 -->
<g id="node37" class="node"><title>Node37</title>
<g id="a_node37"><a xlink:title=" ">
<polygon fill="white" stroke="#bfbfbf" points="2151.03,-168.5 2151.03,-187.5 2186.03,-187.5 2186.03,-168.5 2151.03,-168.5"/>
<text text-anchor="middle" x="2168.53" y="-175.5" font-family="Helvetica,sans-Serif" font-size="10.00">map</text>
</a>
</g>
</g>
<!-- Node34&#45;&gt;Node37 -->
<g id="edge62" class="edge"><title>Node34&#45;&gt;Node37</title>
<path fill="none" stroke="midnightblue" d="M1925.25,-229.196C1969.72,-222.996 2058,-209.452 2141.16,-188.047"/>
<polygon fill="midnightblue" stroke="midnightblue" points="2142.23,-191.386 2151.02,-185.467 2140.46,-184.614 2142.23,-191.386"/>
</g>
</g>
</svg>
        <g id="navigator" transform="translate(0 0)" fill="#404254">
                <rect fill="#f2f5e9" fill-opacity="0.5" stroke="#606060" stroke-width=".5" x="0" y="0" width="60" height="60"/>
                <use id="zoomplus" xlink:href="#zoomPlus" x="17" y="9" onmousedown="handleZoom(evt,'in')"/>
                <use id="zoomminus" xlink:href="#zoomMin" x="42" y="9" onmousedown="handleZoom(evt,'out')"/>
                <use id="reset" xlink:href="#resetDef" x="30" y="36" onmousedown="handleReset()"/>
                <g id="arrowUp" xlink:href="#dirArrow" transform="translate(30 24)" onmousedown="handlePan(0,-1)">
                  <use xlink:href="#rim" fill="#404040">
                        <set attributeName="fill" to="#808080" begin="arrowUp.mouseover" end="arrowUp.mouseout"/>
                  </use>
                  <path fill="none" stroke="white" stroke-width="1.5" d="M0,-3.0v7 M-2.5,-0.5L0,-3.0L2.5,-0.5"/>
                </g>
                <g id="arrowRight" xlink:href="#dirArrow" transform="rotate(90) translate(36 -43)" onmousedown="handlePan(1,0)">
                  <use xlink:href="#rim" fill="#404040">
                        <set attributeName="fill" to="#808080" begin="arrowRight.mouseover" end="arrowRight.mouseout"/>
                  </use>
                  <path fill="none" stroke="white" stroke-width="1.5" d="M0,-3.0v7 M-2.5,-0.5L0,-3.0L2.5,-0.5"/>
                </g>
                <g id="arrowDown" xlink:href="#dirArrow" transform="rotate(180) translate(-30 -48)" onmousedown="handlePan(0,1)">
                  <use xlink:href="#rim" fill="#404040">
                        <set attributeName="fill" to="#808080" begin="arrowDown.mouseover" end="arrowDown.mouseout"/>
                  </use>
                  <path fill="none" stroke="white" stroke-width="1.5" d="M0,-3.0v7 M-2.5,-0.5L0,-3.0L2.5,-0.5"/>
                </g>
                <g id="arrowLeft" xlink:href="#dirArrow" transform="rotate(270) translate(-36 17)" onmousedown="handlePan(-1,0)">
                  <use xlink:href="#rim" fill="#404040">
                        <set attributeName="fill" to="#808080" begin="arrowLeft.mouseover" end="arrowLeft.mouseout"/>
                  </use>
                  <path fill="none" stroke="white" stroke-width="1.5" d="M0,-3.0v7 M-2.5,-0.5L0,-3.0L2.5,-0.5"/>
                </g>
        </g>
        <svg viewBox="0 0 15 15" width="100%" height="30px" preserveAspectRatio="xMaxYMin meet">
         <g id="arrow_out" transform="scale(0.3 0.3)">
          <a xlink:href="_camera_system_8h__incl_org.svg" target="_base">
           <rect id="button" ry="5" rx="5" y="6" x="6" height="38" width="38"
                fill="#f2f5e9" fill-opacity="0.5" stroke="#606060" stroke-width="1.0"/>
           <path id="arrow"
             d="M 11.500037,31.436501 C 11.940474,20.09759 22.043105,11.32322 32.158766,21.979434 L 37.068811,17.246167 C 37.068811,17.246167 37.088388,32 37.088388,32 L 22.160133,31.978069 C 22.160133,31.978069 26.997745,27.140456 26.997745,27.140456 C 18.528582,18.264221 13.291696,25.230495 11.500037,31.436501 z"
             style="fill:#404040;"/>
          </a>
         </g>
        </svg>
</svg>
