<?xml version="1.0" encoding="UTF-8" standalone="no"?>
<!DOCTYPE svg PUBLIC "-//W3C//DTD SVG 1.1//EN"
 "http://www.w3.org/Graphics/SVG/1.1/DTD/svg11.dtd">
<!-- Generated by graphviz version 2.38.0 (20140413.2041)
 -->
<!-- Title: _3DM::AnimatedModel Pages: 1 -->
<svg width="358pt" height="219pt"
 viewBox="0.00 0.00 358.00 219.00" xmlns="http://www.w3.org/2000/svg" xmlns:xlink="http://www.w3.org/1999/xlink">
<g id="graph0" class="graph" transform="scale(1 1) rotate(0) translate(4 215)">
<title>_3DM::AnimatedModel</title>
<polygon fill="white" stroke="none" points="-4,4 -4,-215 354,-215 354,4 -4,4"/>
<!-- Node1 -->
<g id="node1" class="node"><title>Node1</title>
<g id="a_node1"><a xlink:title=" ">
<polygon fill="#bfbfbf" stroke="black" points="148.5,-0.5 148.5,-19.5 264.5,-19.5 264.5,-0.5 148.5,-0.5"/>
<text text-anchor="middle" x="206.5" y="-7.5" font-family="Helvetica,sans-Serif" font-size="10.00">_3DM::AnimatedModel</text>
</a>
</g>
</g>
<!-- Node2 -->
<g id="node2" class="node"><title>Node2</title>
<g id="a_node2"><a xlink:href="../../d2/d00/class_component.html" target="_top" xlink:title=" ">
<polygon fill="white" stroke="black" points="3.5,-67.5 3.5,-86.5 155.5,-86.5 155.5,-67.5 3.5,-67.5"/>
<text text-anchor="middle" x="79.5" y="-74.5" font-family="Helvetica,sans-Serif" font-size="10.00">Component&lt; AnimatedModel &gt;</text>
</a>
</g>
</g>
<!-- Node2&#45;&gt;Node1 -->
<g id="edge1" class="edge"><title>Node2&#45;&gt;Node1</title>
<path fill="none" stroke="midnightblue" d="M105.342,-62.7739C130.496,-49.8999 167.992,-30.7086 189.566,-19.6672"/>
<polygon fill="midnightblue" stroke="midnightblue" points="103.672,-59.6968 96.3646,-67.3685 106.861,-65.928 103.672,-59.6968"/>
</g>
<!-- Node3 -->
<g id="node3" class="node"><title>Node3</title>
<g id="a_node3"><a xlink:href="../../d5/d79/class_component_interface.html" target="_top" xlink:title=" ">
<polygon fill="white" stroke="black" points="0,-191.5 0,-210.5 103,-210.5 103,-191.5 0,-191.5"/>
<text text-anchor="middle" x="51.5" y="-198.5" font-family="Helvetica,sans-Serif" font-size="10.00">ComponentInterface</text>
</a>
</g>
</g>
<!-- Node3&#45;&gt;Node2 -->
<g id="edge2" class="edge"><title>Node3&#45;&gt;Node2</title>
<path fill="none" stroke="midnightblue" d="M46.7778,-181.366C44.1763,-167.968 42.2482,-149.59 46.5,-134 51.4883,-115.71 64.1413,-97.3082 72.2509,-86.8185"/>
<polygon fill="midnightblue" stroke="midnightblue" points="43.3974,-182.287 49.0006,-191.279 50.2278,-180.756 43.3974,-182.287"/>
</g>
<!-- Node4 -->
<g id="node4" class="node"><title>Node4</title>
<g id="a_node4"><a xlink:href="../../d2/d00/class_component.html" target="_top" xlink:title=" ">
<polygon fill="white" stroke="black" points="56,-134.5 56,-153.5 145,-153.5 145,-134.5 56,-134.5"/>
<text text-anchor="middle" x="100.5" y="-141.5" font-family="Helvetica,sans-Serif" font-size="10.00">Component&lt; T &gt;</text>
</a>
</g>
</g>
<!-- Node3&#45;&gt;Node4 -->
<g id="edge4" class="edge"><title>Node3&#45;&gt;Node4</title>
<path fill="none" stroke="midnightblue" d="M65.9077,-183.828C74.682,-173.979 85.549,-161.782 92.7358,-153.715"/>
<polygon fill="midnightblue" stroke="midnightblue" points="63.195,-181.611 59.1563,-191.406 68.4217,-186.268 63.195,-181.611"/>
</g>
<!-- Node4&#45;&gt;Node2 -->
<g id="edge3" class="edge"><title>Node4&#45;&gt;Node2</title>
<path fill="none" stroke="orange" stroke-dasharray="5,2" d="M94.4955,-124.415C90.4808,-111.988 85.3854,-96.2166 82.2873,-86.6273"/>
<polygon fill="orange" stroke="orange" points="91.263,-125.794 97.6678,-134.234 97.924,-123.642 91.263,-125.794"/>
<text text-anchor="middle" x="136" y="-108" font-family="Helvetica,sans-Serif" font-size="10.00"> &lt; AnimatedModel &gt;</text>
</g>
<!-- Node5 -->
<g id="node5" class="node"><title>Node5</title>
<g id="a_node5"><a xlink:href="../../d1/d75/class_model_base.html" target="_top" xlink:title=" ">
<polygon fill="white" stroke="black" points="174,-67.5 174,-86.5 239,-86.5 239,-67.5 174,-67.5"/>
<text text-anchor="middle" x="206.5" y="-74.5" font-family="Helvetica,sans-Serif" font-size="10.00">ModelBase</text>
</a>
</g>
</g>
<!-- Node5&#45;&gt;Node1 -->
<g id="edge5" class="edge"><title>Node5&#45;&gt;Node1</title>
<path fill="none" stroke="midnightblue" d="M206.5,-57.037C206.5,-44.6703 206.5,-29.1198 206.5,-19.6273"/>
<polygon fill="midnightblue" stroke="midnightblue" points="203,-57.2338 206.5,-67.2338 210,-57.2338 203,-57.2338"/>
</g>
<!-- Node6 -->
<g id="node6" class="node"><title>Node6</title>
<g id="a_node6"><a xlink:href="../../dd/d69/struct_transform.html" target="_top" xlink:title=" ">
<polygon fill="white" stroke="black" points="177,-134.5 177,-153.5 236,-153.5 236,-134.5 177,-134.5"/>
<text text-anchor="middle" x="206.5" y="-141.5" font-family="Helvetica,sans-Serif" font-size="10.00">Transform</text>
</a>
</g>
</g>
<!-- Node6&#45;&gt;Node5 -->
<g id="edge6" class="edge"><title>Node6&#45;&gt;Node5</title>
<path fill="none" stroke="#9a32cd" stroke-dasharray="5,2" d="M206.5,-124.037C206.5,-111.67 206.5,-96.1198 206.5,-86.6273"/>
<polygon fill="#9a32cd" stroke="#9a32cd" points="203,-124.234 206.5,-134.234 210,-124.234 203,-124.234"/>
<text text-anchor="middle" x="228.5" y="-108" font-family="Helvetica,sans-Serif" font-size="10.00"> transform</text>
</g>
<!-- Node7 -->
<g id="node7" class="node"><title>Node7</title>
<g id="a_node7"><a xlink:href="../../de/d98/struct__3_d_m_1_1_animation.html" target="_top" xlink:title=" ">
<polygon fill="white" stroke="black" points="257.5,-67.5 257.5,-86.5 349.5,-86.5 349.5,-67.5 257.5,-67.5"/>
<text text-anchor="middle" x="303.5" y="-74.5" font-family="Helvetica,sans-Serif" font-size="10.00">_3DM::Animation</text>
</a>
</g>
</g>
<!-- Node7&#45;&gt;Node1 -->
<g id="edge7" class="edge"><title>Node7&#45;&gt;Node1</title>
<path fill="none" stroke="#9a32cd" stroke-dasharray="5,2" d="M282.003,-61.5945C262.814,-48.7359 235.347,-30.3306 219.375,-19.6273"/>
<polygon fill="#9a32cd" stroke="#9a32cd" points="280.162,-64.5746 290.418,-67.2338 284.059,-58.7595 280.162,-64.5746"/>
<text text-anchor="middle" x="301" y="-41" font-family="Helvetica,sans-Serif" font-size="10.00"> modelsAnimation</text>
</g>
<!-- Node8 -->
<g id="node8" class="node"><title>Node8</title>
<g id="a_node8"><a xlink:href="../../dc/dce/struct__3_d_m_1_1_bone_node.html" target="_top" xlink:title=" ">
<polygon fill="white" stroke="black" points="257,-134.5 257,-153.5 350,-153.5 350,-134.5 257,-134.5"/>
<text text-anchor="middle" x="303.5" y="-141.5" font-family="Helvetica,sans-Serif" font-size="10.00">_3DM::BoneNode</text>
</a>
</g>
</g>
<!-- Node8&#45;&gt;Node7 -->
<g id="edge8" class="edge"><title>Node8&#45;&gt;Node7</title>
<path fill="none" stroke="#9a32cd" stroke-dasharray="5,2" d="M303.5,-124.037C303.5,-111.67 303.5,-96.1198 303.5,-86.6273"/>
<polygon fill="#9a32cd" stroke="#9a32cd" points="300,-124.234 303.5,-134.234 307,-124.234 300,-124.234"/>
<text text-anchor="middle" x="325" y="-108" font-family="Helvetica,sans-Serif" font-size="10.00"> rootBone</text>
</g>
</g>
</svg>
