<?xml version="1.0" encoding="UTF-8" standalone="no"?>
<!DOCTYPE svg PUBLIC "-//W3C//DTD SVG 1.1//EN"
 "http://www.w3.org/Graphics/SVG/1.1/DTD/svg11.dtd">
<!-- Generated by graphviz version 2.38.0 (20140413.2041)
 -->
<!-- Title: PlayerCameraHandler Pages: 1 -->
<svg width="246pt" height="209pt"
 viewBox="0.00 0.00 245.50 209.00" xmlns="http://www.w3.org/2000/svg" xmlns:xlink="http://www.w3.org/1999/xlink">
<g id="graph0" class="graph" transform="scale(1 1) rotate(0) translate(4 205)">
<title>PlayerCameraHandler</title>
<polygon fill="white" stroke="none" points="-4,4 -4,-205 241.5,-205 241.5,4 -4,4"/>
<!-- Node1 -->
<g id="node1" class="node"><title>Node1</title>
<g id="a_node1"><a xlink:title=" ">
<polygon fill="#bfbfbf" stroke="black" points="34,-0.5 34,-19.5 145,-19.5 145,-0.5 34,-0.5"/>
<text text-anchor="middle" x="89.5" y="-7.5" font-family="Helvetica,sans-Serif" font-size="10.00">PlayerCameraHandler</text>
</a>
</g>
</g>
<!-- Node2 -->
<g id="node2" class="node"><title>Node2</title>
<g id="a_node2"><a xlink:href="../../d2/d00/class_component.html" target="_top" xlink:title=" ">
<polygon fill="white" stroke="black" points="0,-57.5 0,-76.5 179,-76.5 179,-57.5 0,-57.5"/>
<text text-anchor="middle" x="89.5" y="-64.5" font-family="Helvetica,sans-Serif" font-size="10.00">Component&lt; PlayerCameraHandler &gt;</text>
</a>
</g>
</g>
<!-- Node2&#45;&gt;Node1 -->
<g id="edge1" class="edge"><title>Node2&#45;&gt;Node1</title>
<path fill="none" stroke="midnightblue" d="M89.5,-47.1166C89.5,-37.8173 89.5,-27.0557 89.5,-19.7149"/>
<polygon fill="midnightblue" stroke="midnightblue" points="86.0001,-47.4062 89.5,-57.4063 93.0001,-47.4063 86.0001,-47.4062"/>
</g>
<!-- Node3 -->
<g id="node3" class="node"><title>Node3</title>
<g id="a_node3"><a xlink:href="../../d5/d79/class_component_interface.html" target="_top" xlink:title=" ">
<polygon fill="white" stroke="black" points="46,-181.5 46,-200.5 149,-200.5 149,-181.5 46,-181.5"/>
<text text-anchor="middle" x="97.5" y="-188.5" font-family="Helvetica,sans-Serif" font-size="10.00">ComponentInterface</text>
</a>
</g>
</g>
<!-- Node3&#45;&gt;Node2 -->
<g id="edge2" class="edge"><title>Node3&#45;&gt;Node2</title>
<path fill="none" stroke="midnightblue" d="M95.1478,-171.087C94.1924,-162.788 93.1602,-152.923 92.5,-144 90.707,-119.77 89.9417,-91.1087 89.653,-76.9036"/>
<polygon fill="midnightblue" stroke="midnightblue" points="91.6945,-171.686 96.3611,-181.198 98.6446,-170.852 91.6945,-171.686"/>
</g>
<!-- Node4 -->
<g id="node4" class="node"><title>Node4</title>
<g id="a_node4"><a xlink:href="../../d2/d00/class_component.html" target="_top" xlink:title=" ">
<polygon fill="white" stroke="black" points="102,-124.5 102,-143.5 191,-143.5 191,-124.5 102,-124.5"/>
<text text-anchor="middle" x="146.5" y="-131.5" font-family="Helvetica,sans-Serif" font-size="10.00">Component&lt; T &gt;</text>
</a>
</g>
</g>
<!-- Node3&#45;&gt;Node4 -->
<g id="edge4" class="edge"><title>Node3&#45;&gt;Node4</title>
<path fill="none" stroke="midnightblue" d="M111.908,-173.828C120.682,-163.979 131.549,-151.782 138.736,-143.715"/>
<polygon fill="midnightblue" stroke="midnightblue" points="109.195,-171.611 105.156,-181.406 114.422,-176.268 109.195,-171.611"/>
</g>
<!-- Node4&#45;&gt;Node2 -->
<g id="edge3" class="edge"><title>Node4&#45;&gt;Node2</title>
<path fill="none" stroke="orange" stroke-dasharray="5,2" d="M132.149,-116.635C121.002,-103.923 105.984,-86.7978 97.0655,-76.6273"/>
<polygon fill="orange" stroke="orange" points="129.588,-119.023 138.813,-124.234 134.851,-114.408 129.588,-119.023"/>
<text text-anchor="middle" x="179.5" y="-98" font-family="Helvetica,sans-Serif" font-size="10.00"> &lt; PlayerCameraHandler &gt;</text>
</g>
</g>
</svg>
