<?xml version="1.0" encoding="UTF-8" standalone="no"?>
<!DOCTYPE svg PUBLIC "-//W3C//DTD SVG 1.1//EN"
 "http://www.w3.org/Graphics/SVG/1.1/DTD/svg11.dtd">
<!-- Generated by graphviz version 2.38.0 (20140413.2041)
 -->
<!-- Title: Locator&lt; T, U &gt; Pages: 1 -->
<svg width="533pt" height="225pt"
 viewBox="0.00 0.00 533.00 225.00" xmlns="http://www.w3.org/2000/svg" xmlns:xlink="http://www.w3.org/1999/xlink">
<g id="graph0" class="graph" transform="scale(1 1) rotate(0) translate(4 221)">
<title>Locator&lt; T, U &gt;</title>
<polygon fill="white" stroke="none" points="-4,4 -4,-221 529,-221 529,4 -4,4"/>
<!-- Node1 -->
<g id="node1" class="node"><title>Node1</title>
<g id="a_node1"><a xlink:title=" ">
<polygon fill="#bfbfbf" stroke="black" points="0,-99 0,-118 85,-118 85,-99 0,-99"/>
<text text-anchor="middle" x="42.5" y="-106" font-family="Helvetica,sans-Serif" font-size="10.00">Locator&lt; T, U &gt;</text>
</a>
</g>
</g>
<!-- Node2 -->
<g id="node2" class="node"><title>Node2</title>
<g id="a_node2"><a xlink:href="../../d2/d23/class_locator.html" target="_top" xlink:title=" ">
<polygon fill="white" stroke="black" points="279,-186.5 279,-216.5 404,-216.5 404,-186.5 279,-186.5"/>
<text text-anchor="start" x="287" y="-204.5" font-family="Helvetica,sans-Serif" font-size="10.00">Locator&lt; ShaderHandler,</text>
<text text-anchor="middle" x="341.5" y="-193.5" font-family="Helvetica,sans-Serif" font-size="10.00"> ShaderHandler &gt;</text>
</a>
</g>
</g>
<!-- Node1&#45;&gt;Node2 -->
<g id="edge1" class="edge"><title>Node1&#45;&gt;Node2</title>
<path fill="none" stroke="orange" stroke-dasharray="5,2" d="M58.4577,-125.829C69.5492,-137.515 85.6917,-152.254 103,-160.5 158.812,-187.089 229.312,-196.644 278.954,-199.97"/>
<polygon fill="orange" stroke="orange" points="60.9574,-123.376 51.6337,-118.344 55.7844,-128.092 60.9574,-123.376"/>
<text text-anchor="middle" x="180.5" y="-200.5" font-family="Helvetica,sans-Serif" font-size="10.00"> &lt; ShaderHandler, ShaderHandler &gt;</text>
</g>
<!-- Node4 -->
<g id="node4" class="node"><title>Node4</title>
<g id="a_node4"><a xlink:href="../../d2/d23/class_locator.html" target="_top" xlink:title=" ">
<polygon fill="white" stroke="black" points="280.5,-137.5 280.5,-167.5 402.5,-167.5 402.5,-137.5 280.5,-137.5"/>
<text text-anchor="start" x="288.5" y="-155.5" font-family="Helvetica,sans-Serif" font-size="10.00">Locator&lt; SoundHandler,</text>
<text text-anchor="middle" x="341.5" y="-144.5" font-family="Helvetica,sans-Serif" font-size="10.00"> SoundHandler &gt;</text>
</a>
</g>
</g>
<!-- Node1&#45;&gt;Node4 -->
<g id="edge3" class="edge"><title>Node1&#45;&gt;Node4</title>
<path fill="none" stroke="orange" stroke-dasharray="5,2" d="M88.2931,-120.43C93.2364,-121.556 98.212,-122.608 103,-123.5 162.825,-134.648 231.957,-142.534 280.151,-147.24"/>
<polygon fill="orange" stroke="orange" points="88.8004,-116.953 78.2617,-118.041 87.179,-123.762 88.8004,-116.953"/>
<text text-anchor="middle" x="180.5" y="-148.5" font-family="Helvetica,sans-Serif" font-size="10.00"> &lt; SoundHandler, SoundHandler &gt;</text>
</g>
<!-- Node6 -->
<g id="node6" class="node"><title>Node6</title>
<g id="a_node6"><a xlink:href="../../d2/d23/class_locator.html" target="_top" xlink:title=" ">
<polygon fill="white" stroke="black" points="276,-99 276,-118 407,-118 407,-99 276,-99"/>
<text text-anchor="middle" x="341.5" y="-106" font-family="Helvetica,sans-Serif" font-size="10.00">Locator&lt; Input, NullInput &gt;</text>
</a>
</g>
</g>
<!-- Node1&#45;&gt;Node6 -->
<g id="edge5" class="edge"><title>Node1&#45;&gt;Node6</title>
<path fill="none" stroke="orange" stroke-dasharray="5,2" d="M95.4144,-108.5C145.64,-108.5 221.901,-108.5 275.999,-108.5"/>
<polygon fill="orange" stroke="orange" points="95.1093,-105 85.1093,-108.5 95.1093,-112 95.1093,-105"/>
<text text-anchor="middle" x="180.5" y="-111.5" font-family="Helvetica,sans-Serif" font-size="10.00"> &lt; Input, NullInput &gt;</text>
</g>
<!-- Node8 -->
<g id="node8" class="node"><title>Node8</title>
<g id="a_node8"><a xlink:href="../../d2/d23/class_locator.html" target="_top" xlink:title=" ">
<polygon fill="white" stroke="black" points="281.5,-49.5 281.5,-79.5 401.5,-79.5 401.5,-49.5 281.5,-49.5"/>
<text text-anchor="start" x="289.5" y="-67.5" font-family="Helvetica,sans-Serif" font-size="10.00">Locator&lt; MusicHandler,</text>
<text text-anchor="middle" x="341.5" y="-56.5" font-family="Helvetica,sans-Serif" font-size="10.00"> MusicHandler &gt;</text>
</a>
</g>
</g>
<!-- Node1&#45;&gt;Node8 -->
<g id="edge7" class="edge"><title>Node1&#45;&gt;Node8</title>
<path fill="none" stroke="orange" stroke-dasharray="5,2" d="M88.2931,-96.5703C93.2364,-95.4442 98.212,-94.3922 103,-93.5 163.233,-82.276 232.901,-74.3587 281.135,-69.6637"/>
<polygon fill="orange" stroke="orange" points="87.179,-93.2376 78.2617,-98.9588 88.8004,-100.047 87.179,-93.2376"/>
<text text-anchor="middle" x="180.5" y="-96.5" font-family="Helvetica,sans-Serif" font-size="10.00"> &lt; MusicHandler, MusicHandler &gt;</text>
</g>
<!-- Node10 -->
<g id="node10" class="node"><title>Node10</title>
<g id="a_node10"><a xlink:href="../../d2/d23/class_locator.html" target="_top" xlink:title=" ">
<polygon fill="white" stroke="black" points="278.5,-0.5 278.5,-30.5 404.5,-30.5 404.5,-0.5 278.5,-0.5"/>
<text text-anchor="start" x="286.5" y="-18.5" font-family="Helvetica,sans-Serif" font-size="10.00">Locator&lt; TextureHandler,</text>
<text text-anchor="middle" x="341.5" y="-7.5" font-family="Helvetica,sans-Serif" font-size="10.00"> TextureHandler &gt;</text>
</a>
</g>
</g>
<!-- Node1&#45;&gt;Node10 -->
<g id="edge9" class="edge"><title>Node1&#45;&gt;Node10</title>
<path fill="none" stroke="orange" stroke-dasharray="5,2" d="M55.5831,-90.3327C66.2447,-75.8998 83.1519,-56.5293 103,-46.5 157.835,-18.7917 228.485,-12.7409 278.43,-12.578"/>
<polygon fill="orange" stroke="orange" points="52.6878,-88.3652 49.7813,-98.5536 58.407,-92.4015 52.6878,-88.3652"/>
<text text-anchor="start" x="122.5" y="-60.5" font-family="Helvetica,sans-Serif" font-size="10.00"> &lt; TextureHandler, Texture</text>
<text text-anchor="middle" x="180.5" y="-49.5" font-family="Helvetica,sans-Serif" font-size="10.00">Handler &gt;</text>
</g>
<!-- Node3 -->
<g id="node3" class="node"><title>Node3</title>
<g id="a_node3"><a xlink:href="../../d3/df6/class_shader_locator.html" target="_top" xlink:title=" ">
<polygon fill="white" stroke="black" points="444.5,-192 444.5,-211 524.5,-211 524.5,-192 444.5,-192"/>
<text text-anchor="middle" x="484.5" y="-199" font-family="Helvetica,sans-Serif" font-size="10.00">ShaderLocator</text>
</a>
</g>
</g>
<!-- Node2&#45;&gt;Node3 -->
<g id="edge2" class="edge"><title>Node2&#45;&gt;Node3</title>
<path fill="none" stroke="midnightblue" d="M414.605,-201.5C424.883,-201.5 435.116,-201.5 444.428,-201.5"/>
<polygon fill="midnightblue" stroke="midnightblue" points="414.345,-198 404.345,-201.5 414.345,-205 414.345,-198"/>
</g>
<!-- Node5 -->
<g id="node5" class="node"><title>Node5</title>
<g id="a_node5"><a xlink:href="../../d1/dfa/class_sound_locator.html" target="_top" xlink:title=" ">
<polygon fill="white" stroke="black" points="446,-143 446,-162 523,-162 523,-143 446,-143"/>
<text text-anchor="middle" x="484.5" y="-150" font-family="Helvetica,sans-Serif" font-size="10.00">SoundLocator</text>
</a>
</g>
</g>
<!-- Node4&#45;&gt;Node5 -->
<g id="edge4" class="edge"><title>Node4&#45;&gt;Node5</title>
<path fill="none" stroke="midnightblue" d="M412.74,-152.5C424.196,-152.5 435.662,-152.5 445.926,-152.5"/>
<polygon fill="midnightblue" stroke="midnightblue" points="412.706,-149 402.706,-152.5 412.706,-156 412.706,-149"/>
</g>
<!-- Node7 -->
<g id="node7" class="node"><title>Node7</title>
<g id="a_node7"><a xlink:href="../../dd/d9c/class_input_locator.html" target="_top" xlink:title=" ">
<polygon fill="white" stroke="black" points="449.5,-99 449.5,-118 519.5,-118 519.5,-99 449.5,-99"/>
<text text-anchor="middle" x="484.5" y="-106" font-family="Helvetica,sans-Serif" font-size="10.00">InputLocator</text>
</a>
</g>
</g>
<!-- Node6&#45;&gt;Node7 -->
<g id="edge6" class="edge"><title>Node6&#45;&gt;Node7</title>
<path fill="none" stroke="midnightblue" d="M417.425,-108.5C428.525,-108.5 439.477,-108.5 449.177,-108.5"/>
<polygon fill="midnightblue" stroke="midnightblue" points="417.223,-105 407.223,-108.5 417.223,-112 417.223,-105"/>
</g>
<!-- Node9 -->
<g id="node9" class="node"><title>Node9</title>
<g id="a_node9"><a xlink:href="../../d9/d62/class_music_locator.html" target="_top" xlink:title=" ">
<polygon fill="white" stroke="black" points="447,-55 447,-74 522,-74 522,-55 447,-55"/>
<text text-anchor="middle" x="484.5" y="-62" font-family="Helvetica,sans-Serif" font-size="10.00">MusicLocator</text>
</a>
</g>
</g>
<!-- Node8&#45;&gt;Node9 -->
<g id="edge8" class="edge"><title>Node8&#45;&gt;Node9</title>
<path fill="none" stroke="midnightblue" d="M411.936,-64.5C423.946,-64.5 435.997,-64.5 446.694,-64.5"/>
<polygon fill="midnightblue" stroke="midnightblue" points="411.888,-61.0001 401.888,-64.5 411.888,-68.0001 411.888,-61.0001"/>
</g>
<!-- Node11 -->
<g id="node11" class="node"><title>Node11</title>
<g id="a_node11"><a xlink:href="../../d5/d98/class_texture_locator.html" target="_top" xlink:title=" ">
<polygon fill="white" stroke="black" points="444,-6 444,-25 525,-25 525,-6 444,-6"/>
<text text-anchor="middle" x="484.5" y="-13" font-family="Helvetica,sans-Serif" font-size="10.00">TextureLocator</text>
</a>
</g>
</g>
<!-- Node10&#45;&gt;Node11 -->
<g id="edge10" class="edge"><title>Node10&#45;&gt;Node11</title>
<path fill="none" stroke="midnightblue" d="M414.759,-15.5C424.776,-15.5 434.747,-15.5 443.86,-15.5"/>
<polygon fill="midnightblue" stroke="midnightblue" points="414.755,-12.0001 404.755,-15.5 414.755,-19.0001 414.755,-12.0001"/>
</g>
</g>
</svg>
