<?xml version="1.0" encoding="UTF-8" standalone="no"?>
<!DOCTYPE svg PUBLIC "-//W3C//DTD SVG 1.1//EN"
 "http://www.w3.org/Graphics/SVG/1.1/DTD/svg11.dtd">
<!-- Generated by graphviz version 2.38.0 (20140413.2041)
 -->
<!-- Title: MusicHandler::addMusicWithoutChecking Pages: 1 -->
<svg width="328pt" height="66pt"
 viewBox="0.00 0.00 328.00 66.00" xmlns="http://www.w3.org/2000/svg" xmlns:xlink="http://www.w3.org/1999/xlink">
<g id="graph0" class="graph" transform="scale(1 1) rotate(0) translate(4 62)">
<title>MusicHandler::addMusicWithoutChecking</title>
<polygon fill="white" stroke="none" points="-4,4 -4,-62 324,-62 324,4 -4,4"/>
<!-- Node1 -->
<g id="node1" class="node"><title>Node1</title>
<g id="a_node1"><a xlink:title=" ">
<polygon fill="#bfbfbf" stroke="black" points="162,-14 162,-44 320,-44 320,-14 162,-14"/>
<text text-anchor="start" x="170" y="-32" font-family="Helvetica,sans-Serif" font-size="10.00">MusicHandler::addMusicWithout</text>
<text text-anchor="middle" x="241" y="-21" font-family="Helvetica,sans-Serif" font-size="10.00">Checking</text>
</a>
</g>
</g>
<!-- Node2 -->
<g id="node2" class="node"><title>Node2</title>
<g id="a_node2"><a xlink:href="../../d7/d5a/class_music_handler.html#ae6573945b0a508648f8e360f2380b92f" target="_top" xlink:title=" ">
<polygon fill="white" stroke="black" points="1,-38.5 1,-57.5 125,-57.5 125,-38.5 1,-38.5"/>
<text text-anchor="middle" x="63" y="-45.5" font-family="Helvetica,sans-Serif" font-size="10.00">MusicHandler::addMusic</text>
</a>
</g>
</g>
<!-- Node1&#45;&gt;Node2 -->
<g id="edge1" class="edge"><title>Node1&#45;&gt;Node2</title>
<path fill="none" stroke="midnightblue" d="M151.649,-38.5379C142.662,-39.5081 133.679,-40.4779 125.076,-41.4066"/>
<polygon fill="midnightblue" stroke="midnightblue" points="152.212,-41.9975 161.779,-37.4443 151.461,-35.0379 152.212,-41.9975"/>
</g>
<!-- Node3 -->
<g id="node3" class="node"><title>Node3</title>
<g id="a_node3"><a xlink:href="../../d7/d5a/class_music_handler.html#a078eebca6fb9f9ef1dbdc2481672bb41" target="_top" xlink:title=" ">
<polygon fill="white" stroke="black" points="0,-0.5 0,-19.5 126,-19.5 126,-0.5 0,-0.5"/>
<text text-anchor="middle" x="63" y="-7.5" font-family="Helvetica,sans-Serif" font-size="10.00">MusicHandler::playMusic</text>
</a>
</g>
</g>
<!-- Node1&#45;&gt;Node3 -->
<g id="edge2" class="edge"><title>Node1&#45;&gt;Node3</title>
<path fill="none" stroke="midnightblue" d="M151.671,-19.4645C143.045,-18.5333 134.424,-17.6026 126.138,-16.7081"/>
<polygon fill="midnightblue" stroke="midnightblue" points="151.461,-22.9621 161.779,-20.5557 152.212,-16.0025 151.461,-22.9621"/>
</g>
</g>
</svg>
