<?xml version="1.0" encoding="UTF-8" standalone="no"?>
<!DOCTYPE svg PUBLIC "-//W3C//DTD SVG 1.1//EN"
 "http://www.w3.org/Graphics/SVG/1.1/DTD/svg11.dtd">
<!-- Generated by graphviz version 2.38.0 (20140413.2041)
 -->
<!-- Title: MusicHandler::addMusicWithoutChecking Pages: 1 -->
<svg width="339pt" height="104pt"
 viewBox="0.00 0.00 339.00 104.00" xmlns="http://www.w3.org/2000/svg" xmlns:xlink="http://www.w3.org/1999/xlink">
<g id="graph0" class="graph" transform="scale(1 1) rotate(0) translate(4 100)">
<title>MusicHandler::addMusicWithoutChecking</title>
<polygon fill="white" stroke="none" points="-4,4 -4,-100 335,-100 335,4 -4,4"/>
<!-- Node1 -->
<g id="node1" class="node"><title>Node1</title>
<g id="a_node1"><a xlink:title=" ">
<polygon fill="#bfbfbf" stroke="black" points="0,-33 0,-63 158,-63 158,-33 0,-33"/>
<text text-anchor="start" x="8" y="-51" font-family="Helvetica,sans-Serif" font-size="10.00">MusicHandler::addMusicWithout</text>
<text text-anchor="middle" x="79" y="-40" font-family="Helvetica,sans-Serif" font-size="10.00">Checking</text>
</a>
</g>
</g>
<!-- Node2 -->
<g id="node2" class="node"><title>Node2</title>
<g id="a_node2"><a xlink:href="../../d7/d5a/class_music_handler.html#a8fb179d497cf7c71fb409f79d176bb7a" target="_top" xlink:title=" ">
<polygon fill="white" stroke="black" points="194,-76.5 194,-95.5 331,-95.5 331,-76.5 194,-76.5"/>
<text text-anchor="middle" x="262.5" y="-83.5" font-family="Helvetica,sans-Serif" font-size="10.00">MusicHandler::addThenSort</text>
</a>
</g>
</g>
<!-- Node1&#45;&gt;Node2 -->
<g id="edge1" class="edge"><title>Node1&#45;&gt;Node2</title>
<path fill="none" stroke="midnightblue" d="M151.734,-63.0186C169.873,-66.8165 189.075,-70.8366 206.259,-74.4344"/>
<polygon fill="midnightblue" stroke="midnightblue" points="205.616,-77.8755 216.121,-76.4991 207.05,-71.024 205.616,-77.8755"/>
</g>
<!-- Node3 -->
<g id="node3" class="node"><title>Node3</title>
<g id="a_node3"><a xlink:href="../../db/d96/class_music.html#a2c1d567a57064ef842a52544eea73a6e" target="_top" xlink:title=" ">
<polygon fill="white" stroke="black" points="220.5,-38.5 220.5,-57.5 304.5,-57.5 304.5,-38.5 220.5,-38.5"/>
<text text-anchor="middle" x="262.5" y="-45.5" font-family="Helvetica,sans-Serif" font-size="10.00">Music::initialize</text>
</a>
</g>
</g>
<!-- Node1&#45;&gt;Node3 -->
<g id="edge2" class="edge"><title>Node1&#45;&gt;Node3</title>
<path fill="none" stroke="midnightblue" d="M158.026,-48C175.523,-48 193.663,-48 209.776,-48"/>
<polygon fill="midnightblue" stroke="midnightblue" points="210.045,-51.5001 220.045,-48 210.045,-44.5001 210.045,-51.5001"/>
</g>
<!-- Node4 -->
<g id="node4" class="node"><title>Node4</title>
<g id="a_node4"><a xlink:href="../../db/d96/class_music.html#a4ae66210522ce88e30c4ac933ba2e8a4" target="_top" xlink:title=" ">
<polygon fill="white" stroke="black" points="212,-0.5 212,-19.5 313,-19.5 313,-0.5 212,-0.5"/>
<text text-anchor="middle" x="262.5" y="-7.5" font-family="Helvetica,sans-Serif" font-size="10.00">Music::isNullSound</text>
</a>
</g>
</g>
<!-- Node1&#45;&gt;Node4 -->
<g id="edge3" class="edge"><title>Node1&#45;&gt;Node4</title>
<path fill="none" stroke="midnightblue" d="M151.734,-32.9814C169.873,-29.1835 189.075,-25.1634 206.259,-21.5656"/>
<polygon fill="midnightblue" stroke="midnightblue" points="207.05,-24.976 216.121,-19.5009 205.616,-18.1245 207.05,-24.976"/>
</g>
</g>
</svg>
