<?xml version="1.0" encoding="UTF-8" standalone="no"?>
<!DOCTYPE svg PUBLIC "-//W3C//DTD SVG 1.1//EN"
 "http://www.w3.org/Graphics/SVG/1.1/DTD/svg11.dtd">
<!-- Generated by graphviz version 2.38.0 (20140413.2041)
 -->
<!-- Title: MusicHandler::addMusic Pages: 1 -->
<svg width="499pt" height="121pt"
 viewBox="0.00 0.00 499.00 120.50" xmlns="http://www.w3.org/2000/svg" xmlns:xlink="http://www.w3.org/1999/xlink">
<g id="graph0" class="graph" transform="scale(1 1) rotate(0) translate(4 116.5)">
<title>MusicHandler::addMusic</title>
<polygon fill="white" stroke="none" points="-4,4 -4,-116.5 495,-116.5 495,4 -4,4"/>
<!-- Node1 -->
<g id="node1" class="node"><title>Node1</title>
<g id="a_node1"><a xlink:title=" ">
<polygon fill="#bfbfbf" stroke="black" points="0,-30 0,-49 124,-49 124,-30 0,-30"/>
<text text-anchor="middle" x="62" y="-37" font-family="Helvetica,sans-Serif" font-size="10.00">MusicHandler::addMusic</text>
</a>
</g>
</g>
<!-- Node2 -->
<g id="node2" class="node"><title>Node2</title>
<g id="a_node2"><a xlink:href="../../d7/d5a/class_music_handler.html#a230b49be0c066ca08e7c4c032e4add2d" target="_top" xlink:title=" ">
<polygon fill="white" stroke="black" points="160,-49.5 160,-79.5 318,-79.5 318,-49.5 160,-49.5"/>
<text text-anchor="start" x="168" y="-67.5" font-family="Helvetica,sans-Serif" font-size="10.00">MusicHandler::addMusicWithout</text>
<text text-anchor="middle" x="239" y="-56.5" font-family="Helvetica,sans-Serif" font-size="10.00">Checking</text>
</a>
</g>
</g>
<!-- Node1&#45;&gt;Node2 -->
<g id="edge1" class="edge"><title>Node1&#45;&gt;Node2</title>
<path fill="none" stroke="midnightblue" d="M124.207,-48.2438C132.495,-49.4279 141.131,-50.6615 149.776,-51.8966"/>
<polygon fill="midnightblue" stroke="midnightblue" points="149.514,-55.3946 159.909,-53.3441 150.504,-48.465 149.514,-55.3946"/>
</g>
<!-- Node6 -->
<g id="node6" class="node"><title>Node6</title>
<g id="a_node6"><a xlink:href="../../d7/d5a/class_music_handler.html#a38582ffb172f45891267dcd41e2eb250" target="_top" xlink:title=" ">
<polygon fill="white" stroke="black" points="169.5,-0.5 169.5,-30.5 308.5,-30.5 308.5,-0.5 169.5,-0.5"/>
<text text-anchor="start" x="177.5" y="-18.5" font-family="Helvetica,sans-Serif" font-size="10.00">MusicHandler::binarySearch</text>
<text text-anchor="middle" x="239" y="-7.5" font-family="Helvetica,sans-Serif" font-size="10.00">Music</text>
</a>
</g>
</g>
<!-- Node1&#45;&gt;Node6 -->
<g id="edge5" class="edge"><title>Node1&#45;&gt;Node6</title>
<path fill="none" stroke="midnightblue" d="M124.207,-31.106C135.489,-29.5586 147.415,-27.9231 159.132,-26.3162"/>
<polygon fill="midnightblue" stroke="midnightblue" points="159.922,-29.7407 169.353,-24.9144 158.97,-22.8057 159.922,-29.7407"/>
</g>
<!-- Node3 -->
<g id="node3" class="node"><title>Node3</title>
<g id="a_node3"><a xlink:href="../../d7/d5a/class_music_handler.html#a8fb179d497cf7c71fb409f79d176bb7a" target="_top" xlink:title=" ">
<polygon fill="white" stroke="black" points="354,-93 354,-112 491,-112 491,-93 354,-93"/>
<text text-anchor="middle" x="422.5" y="-100" font-family="Helvetica,sans-Serif" font-size="10.00">MusicHandler::addThenSort</text>
</a>
</g>
</g>
<!-- Node2&#45;&gt;Node3 -->
<g id="edge2" class="edge"><title>Node2&#45;&gt;Node3</title>
<path fill="none" stroke="midnightblue" d="M311.734,-79.5186C329.873,-83.3165 349.075,-87.3366 366.259,-90.9344"/>
<polygon fill="midnightblue" stroke="midnightblue" points="365.616,-94.3755 376.121,-92.9991 367.05,-87.524 365.616,-94.3755"/>
</g>
<!-- Node4 -->
<g id="node4" class="node"><title>Node4</title>
<g id="a_node4"><a xlink:href="../../db/d96/class_music.html#a2c1d567a57064ef842a52544eea73a6e" target="_top" xlink:title=" ">
<polygon fill="white" stroke="black" points="380.5,-55 380.5,-74 464.5,-74 464.5,-55 380.5,-55"/>
<text text-anchor="middle" x="422.5" y="-62" font-family="Helvetica,sans-Serif" font-size="10.00">Music::initialize</text>
</a>
</g>
</g>
<!-- Node2&#45;&gt;Node4 -->
<g id="edge3" class="edge"><title>Node2&#45;&gt;Node4</title>
<path fill="none" stroke="midnightblue" d="M318.026,-64.5C335.523,-64.5 353.663,-64.5 369.776,-64.5"/>
<polygon fill="midnightblue" stroke="midnightblue" points="370.045,-68.0001 380.045,-64.5 370.045,-61.0001 370.045,-68.0001"/>
</g>
<!-- Node5 -->
<g id="node5" class="node"><title>Node5</title>
<g id="a_node5"><a xlink:href="../../db/d96/class_music.html#a4ae66210522ce88e30c4ac933ba2e8a4" target="_top" xlink:title=" ">
<polygon fill="white" stroke="black" points="372,-17 372,-36 473,-36 473,-17 372,-17"/>
<text text-anchor="middle" x="422.5" y="-24" font-family="Helvetica,sans-Serif" font-size="10.00">Music::isNullSound</text>
</a>
</g>
</g>
<!-- Node2&#45;&gt;Node5 -->
<g id="edge4" class="edge"><title>Node2&#45;&gt;Node5</title>
<path fill="none" stroke="midnightblue" d="M311.734,-49.4814C329.873,-45.6835 349.075,-41.6634 366.259,-38.0656"/>
<polygon fill="midnightblue" stroke="midnightblue" points="367.05,-41.476 376.121,-36.0009 365.616,-34.6245 367.05,-41.476"/>
</g>
</g>
</svg>
