<?xml version="1.0" encoding="UTF-8" standalone="no"?>
<!DOCTYPE svg PUBLIC "-//W3C//DTD SVG 1.1//EN"
 "http://www.w3.org/Graphics/SVG/1.1/DTD/svg11.dtd">
<!-- Generated by graphviz version 2.38.0 (20140413.2041)
 -->
<!-- Title: src/CollisionMesh.h Pages: 1 -->
<!--zoomable 532 -->
<svg id="main" version="1.1" xmlns="http://www.w3.org/2000/svg" xmlns:xlink="http://www.w3.org/1999/xlink" xml:space="preserve" onload="init(evt)">
<style type="text/css"><![CDATA[
.edge:hover path { stroke: red; }
.edge:hover polygon { stroke: red; fill: red; }
]]></style>
<script type="text/javascript"><![CDATA[
var edges = document.getElementsByTagName('g');
if (edges && edges.length) {
  for (var i=0;i<edges.length;i++) {
    if (edges[i].id.substr(0,4)=='edge') {
      edges[i].setAttribute('class','edge');
    }
  }
}
]]></script>
        <defs>
                <circle id="rim" cx="0" cy="0" r="7"/>
                <circle id="rim2" cx="0" cy="0" r="3.5"/>
                <g id="zoomPlus">
                        <use xlink:href="#rim" fill="#404040">
                                <set attributeName="fill" to="#808080" begin="zoomplus.mouseover" end="zoomplus.mouseout"/>
                        </use>
                        <path d="M-4,0h8M0,-4v8" fill="none" stroke="white" stroke-width="1.5" pointer-events="none"/>
                </g>
                <g id="zoomMin">
                        <use xlink:href="#rim" fill="#404040">
                                <set attributeName="fill" to="#808080" begin="zoomminus.mouseover" end="zoomminus.mouseout"/>
                        </use>
                        <path d="M-4,0h8" fill="none" stroke="white" stroke-width="1.5" pointer-events="none"/>
                </g>
                <g id="dirArrow">
                        <path fill="none" stroke="white" stroke-width="1.5" d="M0,-3.0v7 M-2.5,-0.5L0,-3.0L2.5,-0.5"/>
                </g>
               <g id="resetDef">
                       <use xlink:href="#rim2" fill="#404040">
                               <set attributeName="fill" to="#808080" begin="reset.mouseover" end="reset.mouseout"/>
                       </use>
               </g>
        </defs>

<script type="text/javascript">
var viewWidth = 1234;
var viewHeight = 532;
var sectionId = 'dynsection-1';
</script>
<script xlink:href="../../svgpan.js"/>
<svg id="graph" class="graph">
<g id="viewport">
<title>src/CollisionMesh.h</title>
<polygon fill="white" stroke="none" points="-4,4 -4,-528 1229.5,-528 1229.5,4 -4,4"/>
<!-- Node1 -->
<g id="node1" class="node"><title>Node1</title>
<g id="a_node1"><a xlink:title=" ">
<polygon fill="#bfbfbf" stroke="black" points="633,-504.5 633,-523.5 735,-523.5 735,-504.5 633,-504.5"/>
<text text-anchor="middle" x="684" y="-511.5" font-family="Helvetica,sans-Serif" font-size="10.00">src/CollisionMesh.h</text>
</a>
</g>
</g>
<!-- Node2 -->
<g id="node2" class="node"><title>Node2</title>
<g id="a_node2"><a xlink:href="../../d5/dbd/_bone_collision_mesh_8h.html" target="_top" xlink:title=" ">
<polygon fill="white" stroke="black" points="186.5,-448.5 186.5,-467.5 311.5,-467.5 311.5,-448.5 186.5,-448.5"/>
<text text-anchor="middle" x="249" y="-455.5" font-family="Helvetica,sans-Serif" font-size="10.00">src/BoneCollisionMesh.h</text>
</a>
</g>
</g>
<!-- Node1&#45;&gt;Node2 -->
<g id="edge1" class="edge"><title>Node1&#45;&gt;Node2</title>
<path fill="none" stroke="midnightblue" d="M622.854,-505.409C540.48,-495.184 394.638,-477.079 311.55,-466.765"/>
<polygon fill="midnightblue" stroke="midnightblue" points="622.466,-508.888 632.821,-506.647 623.328,-501.941 622.466,-508.888"/>
</g>
<!-- Node3 -->
<g id="node3" class="node"><title>Node3</title>
<g id="a_node3"><a xlink:href="../../da/d03/_entity_tests_8h.html" target="_top" xlink:title=" ">
<polygon fill="white" stroke="black" points="143.5,-224.5 143.5,-243.5 234.5,-243.5 234.5,-224.5 143.5,-224.5"/>
<text text-anchor="middle" x="189" y="-231.5" font-family="Helvetica,sans-Serif" font-size="10.00">src/EntityTests.h</text>
</a>
</g>
</g>
<!-- Node1&#45;&gt;Node3 -->
<g id="edge24" class="edge"><title>Node1&#45;&gt;Node3</title>
<path fill="none" stroke="midnightblue" d="M622.881,-512.519C526.858,-510.661 335.28,-502.493 177,-468 95.1184,-450.156 0,-486.803 0,-403 0,-403 0,-403 0,-345 0,-278.94 87.3133,-251.863 143.248,-241.295"/>
<polygon fill="midnightblue" stroke="midnightblue" points="622.93,-516.02 632.99,-512.698 623.054,-509.021 622.93,-516.02"/>
</g>
<!-- Node18 -->
<g id="node18" class="node"><title>Node18</title>
<g id="a_node18"><a xlink:href="../../db/dc0/_updating_system_8h.html" target="_top" xlink:title=" ">
<polygon fill="white" stroke="black" points="800.5,-224.5 800.5,-243.5 913.5,-243.5 913.5,-224.5 800.5,-224.5"/>
<text text-anchor="middle" x="857" y="-231.5" font-family="Helvetica,sans-Serif" font-size="10.00">src/UpdatingSystem.h</text>
</a>
</g>
</g>
<!-- Node1&#45;&gt;Node18 -->
<g id="edge46" class="edge"><title>Node1&#45;&gt;Node18</title>
<path fill="none" stroke="midnightblue" d="M745.216,-508.883C857.278,-499.654 1084,-472.406 1084,-403 1084,-403 1084,-403 1084,-345 1084,-269.457 980.932,-245.775 913.696,-238.363"/>
<polygon fill="midnightblue" stroke="midnightblue" points="744.755,-505.408 735.067,-509.695 745.314,-512.386 744.755,-505.408"/>
</g>
<!-- Node22 -->
<g id="node22" class="node"><title>Node22</title>
<g id="a_node22"><a xlink:href="../../d7/d37/_physics_world_8h.html" target="_top" xlink:title=" ">
<polygon fill="white" stroke="black" points="543,-448.5 543,-467.5 645,-467.5 645,-448.5 543,-448.5"/>
<text text-anchor="middle" x="594" y="-455.5" font-family="Helvetica,sans-Serif" font-size="10.00">src/PhysicsWorld.h</text>
</a>
</g>
</g>
<!-- Node1&#45;&gt;Node22 -->
<g id="edge25" class="edge"><title>Node1&#45;&gt;Node22</title>
<path fill="none" stroke="midnightblue" d="M660.962,-499.177C644.401,-489.241 622.582,-476.149 608.424,-467.655"/>
<polygon fill="midnightblue" stroke="midnightblue" points="659.164,-502.18 669.54,-504.324 662.766,-496.178 659.164,-502.18"/>
</g>
<!-- Node27 -->
<g id="node27" class="node"><title>Node27</title>
<g id="a_node27"><a xlink:href="../../df/d4c/_enemy_controller_system_8h.html" target="_top" xlink:title=" ">
<polygon fill="white" stroke="black" points="610.5,-392.5 610.5,-411.5 757.5,-411.5 757.5,-392.5 610.5,-392.5"/>
<text text-anchor="middle" x="684" y="-399.5" font-family="Helvetica,sans-Serif" font-size="10.00">src/EnemyControllerSystem.h</text>
</a>
</g>
</g>
<!-- Node1&#45;&gt;Node27 -->
<g id="edge44" class="edge"><title>Node1&#45;&gt;Node27</title>
<path fill="none" stroke="midnightblue" d="M684,-494.348C684,-470.254 684,-429.308 684,-411.591"/>
<polygon fill="midnightblue" stroke="midnightblue" points="680.5,-494.368 684,-504.368 687.5,-494.369 680.5,-494.368"/>
</g>
<!-- Node29 -->
<g id="node29" class="node"><title>Node29</title>
<g id="a_node29"><a xlink:href="../../d8/d3c/_player_controller_system_8h.html" target="_top" xlink:title=" ">
<polygon fill="white" stroke="black" points="776,-392.5 776,-411.5 920,-411.5 920,-392.5 776,-392.5"/>
<text text-anchor="middle" x="848" y="-399.5" font-family="Helvetica,sans-Serif" font-size="10.00">src/PlayerControllerSystem.h</text>
</a>
</g>
</g>
<!-- Node1&#45;&gt;Node29 -->
<g id="edge45" class="edge"><title>Node1&#45;&gt;Node29</title>
<path fill="none" stroke="midnightblue" d="M705.299,-498.714C739.857,-475.535 807.104,-430.43 835.191,-411.591"/>
<polygon fill="midnightblue" stroke="midnightblue" points="703.224,-495.891 696.869,-504.368 707.123,-501.705 703.224,-495.891"/>
</g>
<!-- Node32 -->
<g id="node32" class="node"><title>Node32</title>
<g id="a_node32"><a xlink:href="../../d1/df8/_collision_mesh_8cpp.html" target="_top" xlink:title=" ">
<polygon fill="white" stroke="black" points="1112.5,-448.5 1112.5,-467.5 1225.5,-467.5 1225.5,-448.5 1112.5,-448.5"/>
<text text-anchor="middle" x="1169" y="-455.5" font-family="Helvetica,sans-Serif" font-size="10.00">src/CollisionMesh.cpp</text>
</a>
</g>
</g>
<!-- Node1&#45;&gt;Node32 -->
<g id="edge47" class="edge"><title>Node1&#45;&gt;Node32</title>
<path fill="none" stroke="midnightblue" d="M745.017,-506.711C825.804,-498.306 972.679,-482.753 1098,-468 1102.69,-467.448 1107.55,-466.862 1112.43,-466.263"/>
<polygon fill="midnightblue" stroke="midnightblue" points="744.606,-503.235 735.021,-507.75 745.329,-510.198 744.606,-503.235"/>
</g>
<!-- Node2&#45;&gt;Node3 -->
<g id="edge2" class="edge"><title>Node2&#45;&gt;Node3</title>
<path fill="none" stroke="midnightblue" d="M233.025,-440.785C226.055,-432.764 218.47,-422.552 214,-412 188.338,-351.419 188.034,-269.79 188.687,-243.52"/>
<polygon fill="midnightblue" stroke="midnightblue" points="230.563,-443.279 239.907,-448.273 235.717,-438.542 230.563,-443.279"/>
</g>
<!-- Node11 -->
<g id="node11" class="node"><title>Node11</title>
<g id="a_node11"><a xlink:href="../../d9/d43/_bone_collision_mesh_system_8h.html" target="_top" xlink:title=" ">
<polygon fill="white" stroke="black" points="223,-392.5 223,-411.5 381,-411.5 381,-392.5 223,-392.5"/>
<text text-anchor="middle" x="302" y="-399.5" font-family="Helvetica,sans-Serif" font-size="10.00">src/BoneCollisionMeshSystem.h</text>
</a>
</g>
</g>
<!-- Node2&#45;&gt;Node11 -->
<g id="edge10" class="edge"><title>Node2&#45;&gt;Node11</title>
<path fill="none" stroke="midnightblue" d="M264.981,-440.718C274.322,-431.2 285.746,-419.561 293.411,-411.751"/>
<polygon fill="midnightblue" stroke="midnightblue" points="262.259,-438.494 257.752,-448.083 267.254,-443.398 262.259,-438.494"/>
</g>
<!-- Node21 -->
<g id="node21" class="node"><title>Node21</title>
<g id="a_node21"><a xlink:href="../../de/de2/_bone_collision_mesh_8cpp.html" target="_top" xlink:title=" ">
<polygon fill="white" stroke="black" points="28.5,-392.5 28.5,-411.5 163.5,-411.5 163.5,-392.5 28.5,-392.5"/>
<text text-anchor="middle" x="96" y="-399.5" font-family="Helvetica,sans-Serif" font-size="10.00">src/BoneCollisionMesh.cpp</text>
</a>
</g>
</g>
<!-- Node2&#45;&gt;Node21 -->
<g id="edge23" class="edge"><title>Node2&#45;&gt;Node21</title>
<path fill="none" stroke="midnightblue" d="M215.111,-445.039C186.323,-434.879 145.713,-420.546 120.13,-411.516"/>
<polygon fill="midnightblue" stroke="midnightblue" points="214.162,-448.416 224.757,-448.444 216.492,-441.815 214.162,-448.416"/>
</g>
<!-- Node4 -->
<g id="node4" class="node"><title>Node4</title>
<g id="a_node4"><a xlink:href="../../d9/dcd/_game_8h.html" target="_top" xlink:title=" ">
<polygon fill="white" stroke="black" points="572,-168.5 572,-187.5 640,-187.5 640,-168.5 572,-168.5"/>
<text text-anchor="middle" x="606" y="-175.5" font-family="Helvetica,sans-Serif" font-size="10.00">src/Game.h</text>
</a>
</g>
</g>
<!-- Node3&#45;&gt;Node4 -->
<g id="edge3" class="edge"><title>Node3&#45;&gt;Node4</title>
<path fill="none" stroke="midnightblue" d="M244.585,-223.845C386.459,-204.504 424.864,-210.176 563,-188 565.862,-187.541 568.821,-187.019 571.786,-186.465"/>
<polygon fill="midnightblue" stroke="midnightblue" points="244.066,-220.383 234.639,-225.218 245.024,-227.318 244.066,-220.383"/>
</g>
<!-- Node10 -->
<g id="node10" class="node"><title>Node10</title>
<g id="a_node10"><a xlink:href="../../de/d4c/_entity_tests_8cpp.html" target="_top" xlink:title=" ">
<polygon fill="white" stroke="black" points="138.5,-168.5 138.5,-187.5 239.5,-187.5 239.5,-168.5 138.5,-168.5"/>
<text text-anchor="middle" x="189" y="-175.5" font-family="Helvetica,sans-Serif" font-size="10.00">src/EntityTests.cpp</text>
</a>
</g>
</g>
<!-- Node3&#45;&gt;Node10 -->
<g id="edge9" class="edge"><title>Node3&#45;&gt;Node10</title>
<path fill="none" stroke="midnightblue" d="M189,-213.805C189,-204.91 189,-194.78 189,-187.751"/>
<polygon fill="midnightblue" stroke="midnightblue" points="185.5,-214.083 189,-224.083 192.5,-214.083 185.5,-214.083"/>
</g>
<!-- Node5 -->
<g id="node5" class="node"><title>Node5</title>
<g id="a_node5"><a xlink:href="../../d9/da3/_application_8h.html" target="_top" xlink:title=" ">
<polygon fill="white" stroke="black" points="510.5,-112.5 510.5,-131.5 599.5,-131.5 599.5,-112.5 510.5,-112.5"/>
<text text-anchor="middle" x="555" y="-119.5" font-family="Helvetica,sans-Serif" font-size="10.00">src/Application.h</text>
</a>
</g>
</g>
<!-- Node4&#45;&gt;Node5 -->
<g id="edge4" class="edge"><title>Node4&#45;&gt;Node5</title>
<path fill="none" stroke="midnightblue" d="M590.622,-160.718C581.633,-151.2 570.641,-139.561 563.265,-131.751"/>
<polygon fill="midnightblue" stroke="midnightblue" points="588.168,-163.216 597.578,-168.083 593.257,-158.41 588.168,-163.216"/>
</g>
<!-- Node9 -->
<g id="node9" class="node"><title>Node9</title>
<g id="a_node9"><a xlink:href="../../d7/db5/_game_8cpp.html" target="_top" xlink:title=" ">
<polygon fill="white" stroke="black" points="618,-112.5 618,-131.5 696,-131.5 696,-112.5 618,-112.5"/>
<text text-anchor="middle" x="657" y="-119.5" font-family="Helvetica,sans-Serif" font-size="10.00">src/Game.cpp</text>
</a>
</g>
</g>
<!-- Node4&#45;&gt;Node9 -->
<g id="edge8" class="edge"><title>Node4&#45;&gt;Node9</title>
<path fill="none" stroke="midnightblue" d="M621.378,-160.718C630.367,-151.2 641.359,-139.561 648.735,-131.751"/>
<polygon fill="midnightblue" stroke="midnightblue" points="618.743,-158.41 614.422,-168.083 623.832,-163.216 618.743,-158.41"/>
</g>
<!-- Node6 -->
<g id="node6" class="node"><title>Node6</title>
<g id="a_node6"><a xlink:href="../../d0/d42/_application_8cpp.html" target="_top" xlink:title=" ">
<polygon fill="white" stroke="black" points="456,-56.5 456,-75.5 556,-75.5 556,-56.5 456,-56.5"/>
<text text-anchor="middle" x="506" y="-63.5" font-family="Helvetica,sans-Serif" font-size="10.00">src/Application.cpp</text>
</a>
</g>
</g>
<!-- Node5&#45;&gt;Node6 -->
<g id="edge5" class="edge"><title>Node5&#45;&gt;Node6</title>
<path fill="none" stroke="midnightblue" d="M539.966,-104.431C531.378,-94.9673 520.957,-83.4827 513.941,-75.7511"/>
<polygon fill="midnightblue" stroke="midnightblue" points="537.597,-107.029 546.909,-112.083 542.781,-102.325 537.597,-107.029"/>
</g>
<!-- Node7 -->
<g id="node7" class="node"><title>Node7</title>
<g id="a_node7"><a xlink:href="../../d4/dbf/main_8h.html" target="_top" xlink:title=" ">
<polygon fill="white" stroke="black" points="574,-56.5 574,-75.5 636,-75.5 636,-56.5 574,-56.5"/>
<text text-anchor="middle" x="605" y="-63.5" font-family="Helvetica,sans-Serif" font-size="10.00">src/main.h</text>
</a>
</g>
</g>
<!-- Node5&#45;&gt;Node7 -->
<g id="edge6" class="edge"><title>Node5&#45;&gt;Node7</title>
<path fill="none" stroke="midnightblue" d="M570.076,-104.718C578.889,-95.1997 589.666,-83.5608 596.897,-75.7511"/>
<polygon fill="midnightblue" stroke="midnightblue" points="567.482,-102.367 563.256,-112.083 572.619,-107.123 567.482,-102.367"/>
</g>
<!-- Node8 -->
<g id="node8" class="node"><title>Node8</title>
<g id="a_node8"><a xlink:href="../../d5/d12/_main_8cpp.html" target="_top" xlink:title=" ">
<polygon fill="white" stroke="black" points="568.5,-0.5 568.5,-19.5 641.5,-19.5 641.5,-0.5 568.5,-0.5"/>
<text text-anchor="middle" x="605" y="-7.5" font-family="Helvetica,sans-Serif" font-size="10.00">src/Main.cpp</text>
</a>
</g>
</g>
<!-- Node7&#45;&gt;Node8 -->
<g id="edge7" class="edge"><title>Node7&#45;&gt;Node8</title>
<path fill="none" stroke="midnightblue" d="M605,-45.8045C605,-36.9102 605,-26.7798 605,-19.7511"/>
<polygon fill="midnightblue" stroke="midnightblue" points="601.5,-46.083 605,-56.083 608.5,-46.083 601.5,-46.083"/>
</g>
<!-- Node12 -->
<g id="node12" class="node"><title>Node12</title>
<g id="a_node12"><a xlink:href="../../d8/dc4/_sub_systems_8h.html" target="_top" xlink:title=" ">
<polygon fill="white" stroke="black" points="608,-336.5 608,-355.5 706,-355.5 706,-336.5 608,-336.5"/>
<text text-anchor="middle" x="657" y="-343.5" font-family="Helvetica,sans-Serif" font-size="10.00">src/SubSystems.h</text>
</a>
</g>
</g>
<!-- Node11&#45;&gt;Node12 -->
<g id="edge11" class="edge"><title>Node11&#45;&gt;Node12</title>
<path fill="none" stroke="midnightblue" d="M368.226,-390.926C437.779,-380.346 545.534,-363.955 607.872,-354.473"/>
<polygon fill="midnightblue" stroke="midnightblue" points="367.611,-387.479 358.251,-392.444 368.663,-394.4 367.611,-387.479"/>
</g>
<!-- Node20 -->
<g id="node20" class="node"><title>Node20</title>
<g id="a_node20"><a xlink:href="../../d9/d9b/_bone_collision_mesh_system_8cpp.html" target="_top" xlink:title=" ">
<polygon fill="white" stroke="black" points="217.5,-336.5 217.5,-355.5 386.5,-355.5 386.5,-336.5 217.5,-336.5"/>
<text text-anchor="middle" x="302" y="-343.5" font-family="Helvetica,sans-Serif" font-size="10.00">src/BoneCollisionMeshSystem.cpp</text>
</a>
</g>
</g>
<!-- Node11&#45;&gt;Node20 -->
<g id="edge22" class="edge"><title>Node11&#45;&gt;Node20</title>
<path fill="none" stroke="midnightblue" d="M302,-381.805C302,-372.91 302,-362.78 302,-355.751"/>
<polygon fill="midnightblue" stroke="midnightblue" points="298.5,-382.083 302,-392.083 305.5,-382.083 298.5,-382.083"/>
</g>
<!-- Node13 -->
<g id="node13" class="node"><title>Node13</title>
<g id="a_node13"><a xlink:href="../../dc/d18/_system_base_8h.html" target="_top" xlink:title=" ">
<polygon fill="white" stroke="black" points="653,-280.5 653,-299.5 751,-299.5 751,-280.5 653,-280.5"/>
<text text-anchor="middle" x="702" y="-287.5" font-family="Helvetica,sans-Serif" font-size="10.00">src/SystemBase.h</text>
</a>
</g>
</g>
<!-- Node12&#45;&gt;Node13 -->
<g id="edge12" class="edge"><title>Node12&#45;&gt;Node13</title>
<path fill="none" stroke="midnightblue" d="M671.047,-328.144C678.887,-318.736 688.329,-307.405 694.707,-299.751"/>
<polygon fill="midnightblue" stroke="midnightblue" points="668.144,-326.16 664.431,-336.083 673.521,-330.641 668.144,-326.16"/>
</g>
<!-- Node14 -->
<g id="node14" class="node"><title>Node14</title>
<g id="a_node14"><a xlink:href="../../db/d81/_fixed_updating_system_8h.html" target="_top" xlink:title=" ">
<polygon fill="white" stroke="black" points="508.5,-224.5 508.5,-243.5 645.5,-243.5 645.5,-224.5 508.5,-224.5"/>
<text text-anchor="middle" x="577" y="-231.5" font-family="Helvetica,sans-Serif" font-size="10.00">src/FixedUpdatingSystem.h</text>
</a>
</g>
</g>
<!-- Node13&#45;&gt;Node14 -->
<g id="edge13" class="edge"><title>Node13&#45;&gt;Node14</title>
<path fill="none" stroke="midnightblue" d="M672.759,-276.368C649.35,-266.255 617.159,-252.349 596.714,-243.516"/>
<polygon fill="midnightblue" stroke="midnightblue" points="671.625,-279.691 682.193,-280.444 674.401,-273.265 671.625,-279.691"/>
</g>
<!-- Node16 -->
<g id="node16" class="node"><title>Node16</title>
<g id="a_node16"><a xlink:href="../../da/d66/_rendering_system_8h.html" target="_top" xlink:title=" ">
<polygon fill="white" stroke="black" points="663.5,-224.5 663.5,-243.5 782.5,-243.5 782.5,-224.5 663.5,-224.5"/>
<text text-anchor="middle" x="723" y="-231.5" font-family="Helvetica,sans-Serif" font-size="10.00">src/RenderingSystem.h</text>
</a>
</g>
</g>
<!-- Node13&#45;&gt;Node16 -->
<g id="edge16" class="edge"><title>Node13&#45;&gt;Node16</title>
<path fill="none" stroke="midnightblue" d="M709.121,-270.69C712.66,-261.589 716.772,-251.014 719.597,-243.751"/>
<polygon fill="midnightblue" stroke="midnightblue" points="705.83,-269.494 705.468,-280.083 712.354,-272.032 705.83,-269.494"/>
</g>
<!-- Node13&#45;&gt;Node18 -->
<g id="edge19" class="edge"><title>Node13&#45;&gt;Node18</title>
<path fill="none" stroke="midnightblue" d="M736.332,-277.039C765.497,-266.879 806.637,-252.546 832.555,-243.516"/>
<polygon fill="midnightblue" stroke="midnightblue" points="734.852,-273.848 726.56,-280.444 737.155,-280.459 734.852,-273.848"/>
</g>
<!-- Node14&#45;&gt;Node4 -->
<g id="edge14" class="edge"><title>Node14&#45;&gt;Node4</title>
<path fill="none" stroke="midnightblue" d="M586.676,-214.983C591.598,-205.817 597.358,-195.092 601.3,-187.751"/>
<polygon fill="midnightblue" stroke="midnightblue" points="583.437,-213.617 581.789,-224.083 589.604,-216.929 583.437,-213.617"/>
</g>
<!-- Node15 -->
<g id="node15" class="node"><title>Node15</title>
<g id="a_node15"><a xlink:href="../../d0/d56/_fixed_updating_system_8cpp.html" target="_top" xlink:title=" ">
<polygon fill="white" stroke="black" points="406,-168.5 406,-187.5 554,-187.5 554,-168.5 406,-168.5"/>
<text text-anchor="middle" x="480" y="-175.5" font-family="Helvetica,sans-Serif" font-size="10.00">src/FixedUpdatingSystem.cpp</text>
</a>
</g>
</g>
<!-- Node14&#45;&gt;Node15 -->
<g id="edge15" class="edge"><title>Node14&#45;&gt;Node15</title>
<path fill="none" stroke="midnightblue" d="M552.665,-219.453C534.757,-209.483 510.946,-196.228 495.546,-187.655"/>
<polygon fill="midnightblue" stroke="midnightblue" points="550.975,-222.518 561.415,-224.324 554.38,-216.402 550.975,-222.518"/>
</g>
<!-- Node16&#45;&gt;Node4 -->
<g id="edge17" class="edge"><title>Node16&#45;&gt;Node4</title>
<path fill="none" stroke="midnightblue" d="M695.336,-220.232C673.451,-210.131 643.503,-196.309 624.452,-187.516"/>
<polygon fill="midnightblue" stroke="midnightblue" points="693.915,-223.431 704.461,-224.444 696.848,-217.075 693.915,-223.431"/>
</g>
<!-- Node17 -->
<g id="node17" class="node"><title>Node17</title>
<g id="a_node17"><a xlink:href="../../d2/db8/_rendering_system_8cpp.html" target="_top" xlink:title=" ">
<polygon fill="white" stroke="black" points="658.5,-168.5 658.5,-187.5 787.5,-187.5 787.5,-168.5 658.5,-168.5"/>
<text text-anchor="middle" x="723" y="-175.5" font-family="Helvetica,sans-Serif" font-size="10.00">src/RenderingSystem.cpp</text>
</a>
</g>
</g>
<!-- Node16&#45;&gt;Node17 -->
<g id="edge18" class="edge"><title>Node16&#45;&gt;Node17</title>
<path fill="none" stroke="midnightblue" d="M723,-213.805C723,-204.91 723,-194.78 723,-187.751"/>
<polygon fill="midnightblue" stroke="midnightblue" points="719.5,-214.083 723,-224.083 726.5,-214.083 719.5,-214.083"/>
</g>
<!-- Node18&#45;&gt;Node4 -->
<g id="edge20" class="edge"><title>Node18&#45;&gt;Node4</title>
<path fill="none" stroke="midnightblue" d="M807.399,-222.329C758.021,-211.706 683.539,-195.682 640.342,-186.388"/>
<polygon fill="midnightblue" stroke="midnightblue" points="806.716,-225.762 817.228,-224.444 808.188,-218.918 806.716,-225.762"/>
</g>
<!-- Node19 -->
<g id="node19" class="node"><title>Node19</title>
<g id="a_node19"><a xlink:href="../../d7/d1d/_updating_system_8cpp.html" target="_top" xlink:title=" ">
<polygon fill="white" stroke="black" points="806,-168.5 806,-187.5 930,-187.5 930,-168.5 806,-168.5"/>
<text text-anchor="middle" x="868" y="-175.5" font-family="Helvetica,sans-Serif" font-size="10.00">src/UpdatingSystem.cpp</text>
</a>
</g>
</g>
<!-- Node18&#45;&gt;Node19 -->
<g id="edge21" class="edge"><title>Node18&#45;&gt;Node19</title>
<path fill="none" stroke="midnightblue" d="M860.85,-214.101C862.676,-205.136 864.77,-194.858 866.217,-187.751"/>
<polygon fill="midnightblue" stroke="midnightblue" points="857.383,-213.586 858.816,-224.083 864.242,-214.983 857.383,-213.586"/>
</g>
<!-- Node23 -->
<g id="node23" class="node"><title>Node23</title>
<g id="a_node23"><a xlink:href="../../d2/d07/_debugging_controller_8h.html" target="_top" xlink:title=" ">
<polygon fill="white" stroke="black" points="351,-280.5 351,-299.5 479,-299.5 479,-280.5 351,-280.5"/>
<text text-anchor="middle" x="415" y="-287.5" font-family="Helvetica,sans-Serif" font-size="10.00">src/DebuggingController.h</text>
</a>
</g>
</g>
<!-- Node22&#45;&gt;Node23 -->
<g id="edge26" class="edge"><title>Node22&#45;&gt;Node23</title>
<path fill="none" stroke="midnightblue" d="M532.747,-455.958C497.802,-451.962 456.092,-440.815 431,-412 402.473,-379.241 409.374,-321.356 413.255,-299.593"/>
<polygon fill="midnightblue" stroke="midnightblue" points="532.584,-459.459 542.875,-456.943 533.261,-452.491 532.584,-459.459"/>
</g>
<!-- Node25 -->
<g id="node25" class="node"><title>Node25</title>
<g id="a_node25"><a xlink:href="../../de/d56/_scene_8h.html" target="_top" xlink:title=" ">
<polygon fill="white" stroke="black" points="544.5,-280.5 544.5,-299.5 613.5,-299.5 613.5,-280.5 544.5,-280.5"/>
<text text-anchor="middle" x="579" y="-287.5" font-family="Helvetica,sans-Serif" font-size="10.00">src/Scene.h</text>
</a>
</g>
</g>
<!-- Node22&#45;&gt;Node25 -->
<g id="edge31" class="edge"><title>Node22&#45;&gt;Node25</title>
<path fill="none" stroke="midnightblue" d="M592.277,-437.93C589.023,-401.92 582.093,-325.231 579.774,-299.568"/>
<polygon fill="midnightblue" stroke="midnightblue" points="588.808,-438.431 593.194,-448.075 595.779,-437.801 588.808,-438.431"/>
</g>
<!-- Node22&#45;&gt;Node27 -->
<g id="edge37" class="edge"><title>Node22&#45;&gt;Node27</title>
<path fill="none" stroke="midnightblue" d="M617.038,-443.177C633.599,-433.241 655.418,-420.149 669.576,-411.655"/>
<polygon fill="midnightblue" stroke="midnightblue" points="615.234,-440.178 608.46,-448.324 618.836,-446.18 615.234,-440.178"/>
</g>
<!-- Node22&#45;&gt;Node29 -->
<g id="edge40" class="edge"><title>Node22&#45;&gt;Node29</title>
<path fill="none" stroke="midnightblue" d="M644.115,-446.346C692.117,-436.141 763.615,-420.94 807.941,-411.516"/>
<polygon fill="midnightblue" stroke="midnightblue" points="643.301,-442.94 634.247,-448.444 644.756,-449.787 643.301,-442.94"/>
</g>
<!-- Node31 -->
<g id="node31" class="node"><title>Node31</title>
<g id="a_node31"><a xlink:href="../../d9/de2/_physics_world_8cpp.html" target="_top" xlink:title=" ">
<polygon fill="white" stroke="black" points="440.5,-392.5 440.5,-411.5 553.5,-411.5 553.5,-392.5 440.5,-392.5"/>
<text text-anchor="middle" x="497" y="-399.5" font-family="Helvetica,sans-Serif" font-size="10.00">src/PhysicsWorld.cpp</text>
</a>
</g>
</g>
<!-- Node22&#45;&gt;Node31 -->
<g id="edge43" class="edge"><title>Node22&#45;&gt;Node31</title>
<path fill="none" stroke="midnightblue" d="M569.665,-443.453C551.757,-433.483 527.946,-420.228 512.546,-411.655"/>
<polygon fill="midnightblue" stroke="midnightblue" points="567.975,-446.518 578.415,-448.324 571.38,-440.402 567.975,-446.518"/>
</g>
<!-- Node23&#45;&gt;Node3 -->
<g id="edge27" class="edge"><title>Node23&#45;&gt;Node3</title>
<path fill="none" stroke="midnightblue" d="M369.333,-278.088C326.636,-267.887 263.752,-252.861 224.643,-243.516"/>
<polygon fill="midnightblue" stroke="midnightblue" points="368.65,-281.524 379.19,-280.444 370.277,-274.715 368.65,-281.524"/>
</g>
<!-- Node23&#45;&gt;Node14 -->
<g id="edge28" class="edge"><title>Node23&#45;&gt;Node14</title>
<path fill="none" stroke="midnightblue" d="M450.484,-277.172C480.988,-267.004 524.245,-252.585 551.451,-243.516"/>
<polygon fill="midnightblue" stroke="midnightblue" points="449.049,-273.961 440.669,-280.444 451.263,-280.602 449.049,-273.961"/>
</g>
<!-- Node23&#45;&gt;Node16 -->
<g id="edge29" class="edge"><title>Node23&#45;&gt;Node16</title>
<path fill="none" stroke="midnightblue" d="M473.952,-278.664C532.159,-268.459 620.113,-253.039 674.425,-243.516"/>
<polygon fill="midnightblue" stroke="midnightblue" points="473.049,-275.269 463.804,-280.444 474.258,-282.164 473.049,-275.269"/>
</g>
<!-- Node24 -->
<g id="node24" class="node"><title>Node24</title>
<g id="a_node24"><a xlink:href="../../d8/d1e/_debugging_controller_8cpp.html" target="_top" xlink:title=" ">
<polygon fill="white" stroke="black" points="252.5,-224.5 252.5,-243.5 391.5,-243.5 391.5,-224.5 252.5,-224.5"/>
<text text-anchor="middle" x="322" y="-231.5" font-family="Helvetica,sans-Serif" font-size="10.00">src/DebuggingController.cpp</text>
</a>
</g>
</g>
<!-- Node23&#45;&gt;Node24 -->
<g id="edge30" class="edge"><title>Node23&#45;&gt;Node24</title>
<path fill="none" stroke="midnightblue" d="M391.194,-275.177C374.081,-265.241 351.535,-252.149 336.905,-243.655"/>
<polygon fill="midnightblue" stroke="midnightblue" points="389.653,-278.329 400.058,-280.324 393.168,-272.276 389.653,-278.329"/>
</g>
<!-- Node25&#45;&gt;Node3 -->
<g id="edge32" class="edge"><title>Node25&#45;&gt;Node3</title>
<path fill="none" stroke="midnightblue" d="M533.892,-283.425C469.339,-275.34 346.923,-259.615 243,-244 240.274,-243.59 237.473,-243.158 234.649,-242.714"/>
<polygon fill="midnightblue" stroke="midnightblue" points="533.765,-286.936 544.121,-284.702 534.632,-279.99 533.765,-286.936"/>
</g>
<!-- Node25&#45;&gt;Node14 -->
<g id="edge33" class="edge"><title>Node25&#45;&gt;Node14</title>
<path fill="none" stroke="midnightblue" d="M578.289,-269.805C577.96,-260.91 577.584,-250.78 577.324,-243.751"/>
<polygon fill="midnightblue" stroke="midnightblue" points="574.802,-270.219 578.67,-280.083 581.797,-269.96 574.802,-270.219"/>
</g>
<!-- Node25&#45;&gt;Node16 -->
<g id="edge34" class="edge"><title>Node25&#45;&gt;Node16</title>
<path fill="none" stroke="midnightblue" d="M611.251,-276.906C638.324,-266.754 676.317,-252.506 700.29,-243.516"/>
<polygon fill="midnightblue" stroke="midnightblue" points="609.952,-273.655 601.817,-280.444 612.409,-280.209 609.952,-273.655"/>
</g>
<!-- Node25&#45;&gt;Node18 -->
<g id="edge35" class="edge"><title>Node25&#45;&gt;Node18</title>
<path fill="none" stroke="midnightblue" d="M623.604,-280.336C675.731,-270.211 761.43,-253.564 813.205,-243.507"/>
<polygon fill="midnightblue" stroke="midnightblue" points="622.796,-276.927 613.647,-282.27 624.131,-283.799 622.796,-276.927"/>
</g>
<!-- Node26 -->
<g id="node26" class="node"><title>Node26</title>
<g id="a_node26"><a xlink:href="../../d9/d44/_scene_8cpp.html" target="_top" xlink:title=" ">
<polygon fill="white" stroke="black" points="410,-224.5 410,-243.5 490,-243.5 490,-224.5 410,-224.5"/>
<text text-anchor="middle" x="450" y="-231.5" font-family="Helvetica,sans-Serif" font-size="10.00">src/Scene.cpp</text>
</a>
</g>
</g>
<!-- Node25&#45;&gt;Node26 -->
<g id="edge36" class="edge"><title>Node25&#45;&gt;Node26</title>
<path fill="none" stroke="midnightblue" d="M549.146,-276.503C524.962,-266.38 491.538,-252.388 470.345,-243.516"/>
<polygon fill="midnightblue" stroke="midnightblue" points="547.984,-279.811 558.56,-280.444 550.687,-273.354 547.984,-279.811"/>
</g>
<!-- Node27&#45;&gt;Node12 -->
<g id="edge38" class="edge"><title>Node27&#45;&gt;Node12</title>
<path fill="none" stroke="midnightblue" d="M674.991,-382.983C670.408,-373.817 665.046,-363.092 661.376,-355.751"/>
<polygon fill="midnightblue" stroke="midnightblue" points="671.939,-384.704 679.541,-392.083 678.2,-381.573 671.939,-384.704"/>
</g>
<!-- Node28 -->
<g id="node28" class="node"><title>Node28</title>
<g id="a_node28"><a xlink:href="../../da/d2a/_enemy_controller_system_8cpp.html" target="_top" xlink:title=" ">
<polygon fill="white" stroke="black" points="724,-336.5 724,-355.5 882,-355.5 882,-336.5 724,-336.5"/>
<text text-anchor="middle" x="803" y="-343.5" font-family="Helvetica,sans-Serif" font-size="10.00">src/EnemyControllerSystem.cpp</text>
</a>
</g>
</g>
<!-- Node27&#45;&gt;Node28 -->
<g id="edge39" class="edge"><title>Node27&#45;&gt;Node28</title>
<path fill="none" stroke="midnightblue" d="M712.137,-388.232C734.396,-378.131 764.856,-364.309 784.232,-355.516"/>
<polygon fill="midnightblue" stroke="midnightblue" points="710.516,-385.124 702.856,-392.444 713.409,-391.498 710.516,-385.124"/>
</g>
<!-- Node29&#45;&gt;Node12 -->
<g id="edge41" class="edge"><title>Node29&#45;&gt;Node12</title>
<path fill="none" stroke="midnightblue" d="M808.027,-389.699C771.979,-379.507 719.757,-364.743 687.123,-355.516"/>
<polygon fill="midnightblue" stroke="midnightblue" points="807.16,-393.091 817.735,-392.444 809.065,-386.355 807.16,-393.091"/>
</g>
<!-- Node30 -->
<g id="node30" class="node"><title>Node30</title>
<g id="a_node30"><a xlink:href="../../df/d12/_player_controller_system_8cpp.html" target="_top" xlink:title=" ">
<polygon fill="white" stroke="black" points="900.5,-336.5 900.5,-355.5 1055.5,-355.5 1055.5,-336.5 900.5,-336.5"/>
<text text-anchor="middle" x="978" y="-343.5" font-family="Helvetica,sans-Serif" font-size="10.00">src/PlayerControllerSystem.cpp</text>
</a>
</g>
</g>
<!-- Node29&#45;&gt;Node30 -->
<g id="edge42" class="edge"><title>Node29&#45;&gt;Node30</title>
<path fill="none" stroke="midnightblue" d="M878.085,-388.503C902.457,-378.38 936.14,-364.388 957.497,-355.516"/>
<polygon fill="midnightblue" stroke="midnightblue" points="876.491,-385.375 868.599,-392.444 879.177,-391.84 876.491,-385.375"/>
</g>
</g>
</svg>
        <g id="navigator" transform="translate(0 0)" fill="#404254">
                <rect fill="#f2f5e9" fill-opacity="0.5" stroke="#606060" stroke-width=".5" x="0" y="0" width="60" height="60"/>
                <use id="zoomplus" xlink:href="#zoomPlus" x="17" y="9" onmousedown="handleZoom(evt,'in')"/>
                <use id="zoomminus" xlink:href="#zoomMin" x="42" y="9" onmousedown="handleZoom(evt,'out')"/>
                <use id="reset" xlink:href="#resetDef" x="30" y="36" onmousedown="handleReset()"/>
                <g id="arrowUp" xlink:href="#dirArrow" transform="translate(30 24)" onmousedown="handlePan(0,-1)">
                  <use xlink:href="#rim" fill="#404040">
                        <set attributeName="fill" to="#808080" begin="arrowUp.mouseover" end="arrowUp.mouseout"/>
                  </use>
                  <path fill="none" stroke="white" stroke-width="1.5" d="M0,-3.0v7 M-2.5,-0.5L0,-3.0L2.5,-0.5"/>
                </g>
                <g id="arrowRight" xlink:href="#dirArrow" transform="rotate(90) translate(36 -43)" onmousedown="handlePan(1,0)">
                  <use xlink:href="#rim" fill="#404040">
                        <set attributeName="fill" to="#808080" begin="arrowRight.mouseover" end="arrowRight.mouseout"/>
                  </use>
                  <path fill="none" stroke="white" stroke-width="1.5" d="M0,-3.0v7 M-2.5,-0.5L0,-3.0L2.5,-0.5"/>
                </g>
                <g id="arrowDown" xlink:href="#dirArrow" transform="rotate(180) translate(-30 -48)" onmousedown="handlePan(0,1)">
                  <use xlink:href="#rim" fill="#404040">
                        <set attributeName="fill" to="#808080" begin="arrowDown.mouseover" end="arrowDown.mouseout"/>
                  </use>
                  <path fill="none" stroke="white" stroke-width="1.5" d="M0,-3.0v7 M-2.5,-0.5L0,-3.0L2.5,-0.5"/>
                </g>
                <g id="arrowLeft" xlink:href="#dirArrow" transform="rotate(270) translate(-36 17)" onmousedown="handlePan(-1,0)">
                  <use xlink:href="#rim" fill="#404040">
                        <set attributeName="fill" to="#808080" begin="arrowLeft.mouseover" end="arrowLeft.mouseout"/>
                  </use>
                  <path fill="none" stroke="white" stroke-width="1.5" d="M0,-3.0v7 M-2.5,-0.5L0,-3.0L2.5,-0.5"/>
                </g>
        </g>
        <svg viewBox="0 0 15 15" width="100%" height="30px" preserveAspectRatio="xMaxYMin meet">
         <g id="arrow_out" transform="scale(0.3 0.3)">
          <a xlink:href="_collision_mesh_8h__dep__incl_org.svg" target="_base">
           <rect id="button" ry="5" rx="5" y="6" x="6" height="38" width="38"
                fill="#f2f5e9" fill-opacity="0.5" stroke="#606060" stroke-width="1.0"/>
           <path id="arrow"
             d="M 11.500037,31.436501 C 11.940474,20.09759 22.043105,11.32322 32.158766,21.979434 L 37.068811,17.246167 C 37.068811,17.246167 37.088388,32 37.088388,32 L 22.160133,31.978069 C 22.160133,31.978069 26.997745,27.140456 26.997745,27.140456 C 18.528582,18.264221 13.291696,25.230495 11.500037,31.436501 z"
             style="fill:#404040;"/>
          </a>
         </g>
        </svg>
</svg>
