<?xml version="1.0" encoding="UTF-8" standalone="no"?>
<!DOCTYPE svg PUBLIC "-//W3C//DTD SVG 1.1//EN"
 "http://www.w3.org/Graphics/SVG/1.1/DTD/svg11.dtd">
<!-- Generated by graphviz version 2.38.0 (20140413.2041)
 -->
<!-- Title: GuiBase Pages: 1 -->
<svg width="142pt" height="140pt"
 viewBox="0.00 0.00 141.50 140.00" xmlns="http://www.w3.org/2000/svg" xmlns:xlink="http://www.w3.org/1999/xlink">
<g id="graph0" class="graph" transform="scale(1 1) rotate(0) translate(4 136)">
<title>GuiBase</title>
<polygon fill="white" stroke="none" points="-4,4 -4,-136 137.5,-136 137.5,4 -4,4"/>
<!-- Node1 -->
<g id="node1" class="node"><title>Node1</title>
<g id="a_node1"><a xlink:title=" ">
<polygon fill="#bfbfbf" stroke="black" points="40,-112.5 40,-131.5 94,-131.5 94,-112.5 40,-112.5"/>
<text text-anchor="middle" x="67" y="-119.5" font-family="Helvetica,sans-Serif" font-size="10.00">GuiBase</text>
</a>
</g>
</g>
<!-- Node2 -->
<g id="node2" class="node"><title>Node2</title>
<g id="a_node2"><a xlink:href="../../d1/db9/class_gui_sprite.html" target="_top" xlink:title=" ">
<polygon fill="white" stroke="black" points="1.5,-56.5 1.5,-75.5 58.5,-75.5 58.5,-56.5 1.5,-56.5"/>
<text text-anchor="middle" x="30" y="-63.5" font-family="Helvetica,sans-Serif" font-size="10.00">GuiSprite</text>
</a>
</g>
</g>
<!-- Node1&#45;&gt;Node2 -->
<g id="edge1" class="edge"><title>Node1&#45;&gt;Node2</title>
<path fill="none" stroke="midnightblue" d="M55.0542,-103.566C48.6883,-94.2747 41.1332,-83.2484 35.9961,-75.7511"/>
<polygon fill="midnightblue" stroke="midnightblue" points="52.3506,-105.812 60.8902,-112.083 58.1251,-101.855 52.3506,-105.812"/>
</g>
<!-- Node4 -->
<g id="node4" class="node"><title>Node4</title>
<g id="a_node4"><a xlink:href="../../dd/df5/class_gui_string.html" target="_top" xlink:title=" ">
<polygon fill="white" stroke="black" points="76.5,-56.5 76.5,-75.5 133.5,-75.5 133.5,-56.5 76.5,-56.5"/>
<text text-anchor="middle" x="105" y="-63.5" font-family="Helvetica,sans-Serif" font-size="10.00">GuiString</text>
</a>
</g>
</g>
<!-- Node1&#45;&gt;Node4 -->
<g id="edge3" class="edge"><title>Node1&#45;&gt;Node4</title>
<path fill="none" stroke="midnightblue" d="M79.0647,-103.855C85.6447,-94.5048 93.511,-83.3265 98.8418,-75.7511"/>
<polygon fill="midnightblue" stroke="midnightblue" points="76.1676,-101.891 73.2749,-112.083 81.8922,-105.919 76.1676,-101.891"/>
</g>
<!-- Node3 -->
<g id="node3" class="node"><title>Node3</title>
<g id="a_node3"><a xlink:href="../../d6/d17/class_gui_button.html" target="_top" xlink:title=" ">
<polygon fill="white" stroke="black" points="0,-0.5 0,-19.5 60,-19.5 60,-0.5 0,-0.5"/>
<text text-anchor="middle" x="30" y="-7.5" font-family="Helvetica,sans-Serif" font-size="10.00">GuiButton</text>
</a>
</g>
</g>
<!-- Node2&#45;&gt;Node3 -->
<g id="edge2" class="edge"><title>Node2&#45;&gt;Node3</title>
<path fill="none" stroke="midnightblue" d="M30,-45.8045C30,-36.9102 30,-26.7798 30,-19.7511"/>
<polygon fill="midnightblue" stroke="midnightblue" points="26.5001,-46.083 30,-56.083 33.5001,-46.083 26.5001,-46.083"/>
</g>
</g>
</svg>
