<?xml version="1.0" encoding="UTF-8" standalone="no"?>
<!DOCTYPE svg PUBLIC "-//W3C//DTD SVG 1.1//EN"
 "http://www.w3.org/Graphics/SVG/1.1/DTD/svg11.dtd">
<!-- Generated by graphviz version 2.38.0 (20140413.2041)
 -->
<!-- Title: src/Particles.h Pages: 1 -->
<svg width="1644pt" height="364pt"
 viewBox="0.00 0.00 1644.18 364.00" xmlns="http://www.w3.org/2000/svg" xmlns:xlink="http://www.w3.org/1999/xlink">
<g id="graph0" class="graph" transform="scale(1 1) rotate(0) translate(4 360)">
<title>src/Particles.h</title>
<polygon fill="white" stroke="none" points="-4,4 -4,-360 1640.18,-360 1640.18,4 -4,4"/>
<!-- Node1 -->
<g id="node1" class="node"><title>Node1</title>
<g id="a_node1"><a xlink:title=" ">
<polygon fill="#bfbfbf" stroke="black" points="947.179,-336.5 947.179,-355.5 1027.18,-355.5 1027.18,-336.5 947.179,-336.5"/>
<text text-anchor="middle" x="987.179" y="-343.5" font-family="Helvetica,sans-Serif" font-size="10.00">src/Particles.h</text>
</a>
</g>
</g>
<!-- Node2 -->
<g id="node2" class="node"><title>Node2</title>
<g id="a_node2"><a xlink:href="../../dc/d20/_component_8h.html" target="_top" xlink:title=" ">
<polygon fill="white" stroke="black" points="81.179,-56.5 81.179,-75.5 155.179,-75.5 155.179,-56.5 81.179,-56.5"/>
<text text-anchor="middle" x="118.179" y="-63.5" font-family="Helvetica,sans-Serif" font-size="10.00">Component.h</text>
</a>
</g>
</g>
<!-- Node1&#45;&gt;Node2 -->
<g id="edge1" class="edge"><title>Node1&#45;&gt;Node2</title>
<path fill="none" stroke="midnightblue" d="M946.957,-344.816C761.766,-343.448 0.179047,-331.93 0.179047,-235 0.179047,-235 0.179047,-235 0.179047,-177 0.179047,-146.902 -0.537142,-134.741 19.179,-112 32.765,-96.3298 52.9205,-85.822 71.5058,-78.9315"/>
<polygon fill="midnightblue" stroke="midnightblue" points="72.7224,-82.2144 81.0385,-75.6498 70.4438,-75.5956 72.7224,-82.2144"/>
</g>
<!-- Node4 -->
<g id="node4" class="node"><title>Node4</title>
<g id="a_node4"><a xlink:href="../../db/dcf/_locator_8h.html" target="_top" xlink:title=" ">
<polygon fill="white" stroke="black" points="958.679,-280.5 958.679,-299.5 1015.68,-299.5 1015.68,-280.5 958.679,-280.5"/>
<text text-anchor="middle" x="987.179" y="-287.5" font-family="Helvetica,sans-Serif" font-size="10.00">Locator.h</text>
</a>
</g>
</g>
<!-- Node1&#45;&gt;Node4 -->
<g id="edge3" class="edge"><title>Node1&#45;&gt;Node4</title>
<path fill="none" stroke="midnightblue" d="M987.179,-336.083C987.179,-329.006 987.179,-318.861 987.179,-309.986"/>
<polygon fill="midnightblue" stroke="midnightblue" points="990.679,-309.751 987.179,-299.751 983.679,-309.751 990.679,-309.751"/>
</g>
<!-- Node14 -->
<g id="node14" class="node"><title>Node14</title>
<g id="a_node14"><a xlink:href="../../d8/d34/_shader_8h.html" target="_top" xlink:title=" ">
<polygon fill="white" stroke="black" points="325.179,-168.5 325.179,-187.5 381.179,-187.5 381.179,-168.5 325.179,-168.5"/>
<text text-anchor="middle" x="353.179" y="-175.5" font-family="Helvetica,sans-Serif" font-size="10.00">Shader.h</text>
</a>
</g>
</g>
<!-- Node1&#45;&gt;Node14 -->
<g id="edge58" class="edge"><title>Node1&#45;&gt;Node14</title>
<path fill="none" stroke="midnightblue" d="M946.761,-343.747C826.588,-339.741 477.103,-325.962 433.179,-300 393.562,-276.583 369.74,-224.941 359.35,-197.302"/>
<polygon fill="midnightblue" stroke="midnightblue" points="362.576,-195.928 355.917,-187.687 355.984,-198.281 362.576,-195.928"/>
</g>
<!-- Node18 -->
<g id="node18" class="node"><title>Node18</title>
<g id="a_node18"><a xlink:href="../../d4/d4a/_settings_8h.html" target="_top" xlink:title=" ">
<polygon fill="white" stroke="black" points="28.679,-112.5 28.679,-131.5 89.679,-131.5 89.679,-112.5 28.679,-112.5"/>
<text text-anchor="middle" x="59.179" y="-119.5" font-family="Helvetica,sans-Serif" font-size="10.00">Settings.h</text>
</a>
</g>
</g>
<!-- Node1&#45;&gt;Node18 -->
<g id="edge57" class="edge"><title>Node1&#45;&gt;Node18</title>
<path fill="none" stroke="midnightblue" d="M947.141,-343.94C833.113,-340.601 508.309,-328.76 406.179,-300 273.229,-262.561 131.553,-172.202 79.6956,-137.191"/>
<polygon fill="midnightblue" stroke="midnightblue" points="81.5832,-134.242 71.3475,-131.507 77.6435,-140.028 81.5832,-134.242"/>
</g>
<!-- Node21 -->
<g id="node21" class="node"><title>Node21</title>
<g id="a_node21"><a xlink:title=" ">
<polygon fill="white" stroke="#bfbfbf" points="734.179,-112.5 734.179,-131.5 790.179,-131.5 790.179,-112.5 734.179,-112.5"/>
<text text-anchor="middle" x="762.179" y="-119.5" font-family="Helvetica,sans-Serif" font-size="10.00">algorithm</text>
</a>
</g>
</g>
<!-- Node1&#45;&gt;Node21 -->
<g id="edge59" class="edge"><title>Node1&#45;&gt;Node21</title>
<path fill="none" stroke="midnightblue" d="M947.035,-338.351C843.112,-320.119 570.749,-265.482 533.179,-188 483.198,-84.9208 501.853,-179.254 724.179,-132 724.279,-131.979 724.378,-131.958 724.478,-131.936"/>
<polygon fill="midnightblue" stroke="midnightblue" points="724.984,-135.409 733.99,-129.83 723.47,-128.575 724.984,-135.409"/>
</g>
<!-- Node24 -->
<g id="node24" class="node"><title>Node24</title>
<g id="a_node24"><a xlink:title=" ">
<polygon fill="white" stroke="#bfbfbf" points="1199.18,-112.5 1199.18,-131.5 1241.18,-131.5 1241.18,-112.5 1199.18,-112.5"/>
<text text-anchor="middle" x="1220.18" y="-119.5" font-family="Helvetica,sans-Serif" font-size="10.00">vector</text>
</a>
</g>
</g>
<!-- Node1&#45;&gt;Node24 -->
<g id="edge63" class="edge"><title>Node1&#45;&gt;Node24</title>
<path fill="none" stroke="midnightblue" d="M1012.09,-336.459C1092.94,-308.499 1344.02,-219.694 1365.18,-188 1370.11,-180.607 1370.45,-175.157 1365.18,-168 1364.3,-166.809 1293.29,-145.14 1250.98,-132.313"/>
<polygon fill="midnightblue" stroke="midnightblue" points="1251.99,-128.963 1241.41,-129.414 1249.96,-135.663 1251.99,-128.963"/>
</g>
<!-- Node36 -->
<g id="node36" class="node"><title>Node36</title>
<g id="a_node36"><a xlink:title=" ">
<polygon fill="white" stroke="#bfbfbf" points="1203.68,-280.5 1203.68,-299.5 1346.68,-299.5 1346.68,-280.5 1203.68,-280.5"/>
<text text-anchor="middle" x="1275.18" y="-287.5" font-family="Helvetica,sans-Serif" font-size="10.00">glm/gtc/matrix_transform.hpp</text>
</a>
</g>
</g>
<!-- Node1&#45;&gt;Node36 -->
<g id="edge60" class="edge"><title>Node1&#45;&gt;Node36</title>
<path fill="none" stroke="midnightblue" d="M1027.22,-337.492C1077.28,-328.107 1163.21,-311.994 1219.61,-301.419"/>
<polygon fill="midnightblue" stroke="midnightblue" points="1220.6,-304.795 1229.78,-299.512 1219.31,-297.915 1220.6,-304.795"/>
</g>
<!-- Node37 -->
<g id="node37" class="node"><title>Node37</title>
<g id="a_node37"><a xlink:title=" ">
<polygon fill="white" stroke="#bfbfbf" points="1365.18,-280.5 1365.18,-299.5 1457.18,-299.5 1457.18,-280.5 1365.18,-280.5"/>
<text text-anchor="middle" x="1411.18" y="-287.5" font-family="Helvetica,sans-Serif" font-size="10.00">glm/gtx/norm.hpp</text>
</a>
</g>
</g>
<!-- Node1&#45;&gt;Node37 -->
<g id="edge61" class="edge"><title>Node1&#45;&gt;Node37</title>
<path fill="none" stroke="midnightblue" d="M1027.27,-340.599C1093.17,-333.254 1228.77,-317.684 1354.84,-299.996"/>
<polygon fill="midnightblue" stroke="midnightblue" points="1355.64,-303.416 1365.06,-298.554 1354.66,-296.485 1355.64,-303.416"/>
</g>
<!-- Node38 -->
<g id="node38" class="node"><title>Node38</title>
<g id="a_node38"><a xlink:title=" ">
<polygon fill="white" stroke="#bfbfbf" points="1475.18,-280.5 1475.18,-299.5 1561.18,-299.5 1561.18,-280.5 1475.18,-280.5"/>
<text text-anchor="middle" x="1518.18" y="-287.5" font-family="Helvetica,sans-Serif" font-size="10.00">glm/mat4x4.hpp</text>
</a>
</g>
</g>
<!-- Node1&#45;&gt;Node38 -->
<g id="edge62" class="edge"><title>Node1&#45;&gt;Node38</title>
<path fill="none" stroke="midnightblue" d="M1027.36,-342.286C1108.22,-336.594 1296.56,-322.182 1465.04,-300.055"/>
<polygon fill="midnightblue" stroke="midnightblue" points="1465.64,-303.507 1475.09,-298.723 1464.72,-296.568 1465.64,-303.507"/>
</g>
<!-- Node3 -->
<g id="node3" class="node"><title>Node3</title>
<g id="a_node3"><a xlink:title=" ">
<polygon fill="white" stroke="#bfbfbf" points="93.679,-0.5 93.679,-19.5 142.679,-19.5 142.679,-0.5 93.679,-0.5"/>
<text text-anchor="middle" x="118.179" y="-7.5" font-family="Helvetica,sans-Serif" font-size="10.00">stdint.h</text>
</a>
</g>
</g>
<!-- Node2&#45;&gt;Node3 -->
<g id="edge2" class="edge"><title>Node2&#45;&gt;Node3</title>
<path fill="none" stroke="midnightblue" d="M118.179,-56.083C118.179,-49.0059 118.179,-38.8611 118.179,-29.9865"/>
<polygon fill="midnightblue" stroke="midnightblue" points="121.679,-29.751 118.179,-19.7511 114.679,-29.7511 121.679,-29.751"/>
</g>
<!-- Node5 -->
<g id="node5" class="node"><title>Node5</title>
<g id="a_node5"><a xlink:href="../../d2/d94/_input_8h.html" target="_top" xlink:title=" ">
<polygon fill="white" stroke="black" points="964.179,-224.5 964.179,-243.5 1010.18,-243.5 1010.18,-224.5 964.179,-224.5"/>
<text text-anchor="middle" x="987.179" y="-231.5" font-family="Helvetica,sans-Serif" font-size="10.00">Input.h</text>
</a>
</g>
</g>
<!-- Node4&#45;&gt;Node5 -->
<g id="edge4" class="edge"><title>Node4&#45;&gt;Node5</title>
<path fill="none" stroke="midnightblue" d="M987.179,-280.083C987.179,-273.006 987.179,-262.861 987.179,-253.986"/>
<polygon fill="midnightblue" stroke="midnightblue" points="990.679,-253.751 987.179,-243.751 983.679,-253.751 990.679,-253.751"/>
</g>
<!-- Node4&#45;&gt;Node14 -->
<g id="edge13" class="edge"><title>Node4&#45;&gt;Node14</title>
<path fill="none" stroke="midnightblue" d="M958.631,-286.985C894.725,-282.184 735.462,-268.592 604.179,-244 527.556,-229.647 439.735,-204.967 390.932,-190.5"/>
<polygon fill="midnightblue" stroke="midnightblue" points="391.712,-187.08 381.129,-187.576 389.711,-193.788 391.712,-187.08"/>
</g>
<!-- Node25 -->
<g id="node25" class="node"><title>Node25</title>
<g id="a_node25"><a xlink:href="../../d5/db0/_sound_8h.html" target="_top" xlink:title=" ">
<polygon fill="white" stroke="black" points="1162.68,-224.5 1162.68,-243.5 1215.68,-243.5 1215.68,-224.5 1162.68,-224.5"/>
<text text-anchor="middle" x="1189.18" y="-231.5" font-family="Helvetica,sans-Serif" font-size="10.00">Sound.h</text>
</a>
</g>
</g>
<!-- Node4&#45;&gt;Node25 -->
<g id="edge32" class="edge"><title>Node4&#45;&gt;Node25</title>
<path fill="none" stroke="midnightblue" d="M1015.69,-281.378C1051.61,-271.776 1113.37,-255.266 1152.69,-244.753"/>
<polygon fill="midnightblue" stroke="midnightblue" points="1153.66,-248.117 1162.42,-242.153 1151.86,-241.355 1153.66,-248.117"/>
</g>
<!-- Node32 -->
<g id="node32" class="node"><title>Node32</title>
<g id="a_node32"><a xlink:href="../../de/dbf/_texture_8h.html" target="_top" xlink:title=" ">
<polygon fill="white" stroke="black" points="613.679,-224.5 613.679,-243.5 670.679,-243.5 670.679,-224.5 613.679,-224.5"/>
<text text-anchor="middle" x="642.179" y="-231.5" font-family="Helvetica,sans-Serif" font-size="10.00">Texture.h</text>
</a>
</g>
</g>
<!-- Node4&#45;&gt;Node32 -->
<g id="edge48" class="edge"><title>Node4&#45;&gt;Node32</title>
<path fill="none" stroke="midnightblue" d="M958.653,-284.535C896.922,-274.873 750.885,-252.015 680.895,-241.06"/>
<polygon fill="midnightblue" stroke="midnightblue" points="681.16,-237.559 670.739,-239.47 680.077,-244.475 681.16,-237.559"/>
</g>
<!-- Node6 -->
<g id="node6" class="node"><title>Node6</title>
<g id="a_node6"><a xlink:href="../../de/d50/_game_info_8h.html" target="_top" xlink:title=" ">
<polygon fill="white" stroke="black" points="1259.18,-112.5 1259.18,-131.5 1325.18,-131.5 1325.18,-112.5 1259.18,-112.5"/>
<text text-anchor="middle" x="1292.18" y="-119.5" font-family="Helvetica,sans-Serif" font-size="10.00">GameInfo.h</text>
</a>
</g>
</g>
<!-- Node5&#45;&gt;Node6 -->
<g id="edge5" class="edge"><title>Node5&#45;&gt;Node6</title>
<path fill="none" stroke="midnightblue" d="M1010.31,-232.587C1053.72,-230.962 1149.39,-223.299 1220.18,-188 1243.61,-176.315 1265.14,-154.847 1278.43,-139.789"/>
<polygon fill="midnightblue" stroke="midnightblue" points="1281.43,-141.666 1285.26,-131.787 1276.11,-137.123 1281.43,-141.666"/>
</g>
<!-- Node11 -->
<g id="node11" class="node"><title>Node11</title>
<g id="a_node11"><a xlink:href="../../d9/db9/_unique_vectors_8h.html" target="_top" xlink:title=" ">
<polygon fill="white" stroke="black" points="985.679,-168.5 985.679,-187.5 1074.68,-187.5 1074.68,-168.5 985.679,-168.5"/>
<text text-anchor="middle" x="1030.18" y="-175.5" font-family="Helvetica,sans-Serif" font-size="10.00">UniqueVectors.h</text>
</a>
</g>
</g>
<!-- Node5&#45;&gt;Node11 -->
<g id="edge10" class="edge"><title>Node5&#45;&gt;Node11</title>
<path fill="none" stroke="midnightblue" d="M994.28,-224.083C1000.42,-216.377 1009.45,-205.033 1016.92,-195.653"/>
<polygon fill="midnightblue" stroke="midnightblue" points="1019.72,-197.754 1023.21,-187.751 1014.24,-193.394 1019.72,-197.754"/>
</g>
<!-- Node12 -->
<g id="node12" class="node"><title>Node12</title>
<g id="a_node12"><a xlink:title=" ">
<polygon fill="white" stroke="#bfbfbf" points="831.179,-168.5 831.179,-187.5 905.179,-187.5 905.179,-168.5 831.179,-168.5"/>
<text text-anchor="middle" x="868.179" y="-175.5" font-family="Helvetica,sans-Serif" font-size="10.00">glm/vec2.hpp</text>
</a>
</g>
</g>
<!-- Node5&#45;&gt;Node12 -->
<g id="edge11" class="edge"><title>Node5&#45;&gt;Node12</title>
<path fill="none" stroke="midnightblue" d="M968.323,-224.444C948.913,-215.636 918.449,-201.812 896.215,-191.722"/>
<polygon fill="midnightblue" stroke="midnightblue" points="897.499,-188.462 886.947,-187.516 894.607,-194.836 897.499,-188.462"/>
</g>
<!-- Node13 -->
<g id="node13" class="node"><title>Node13</title>
<g id="a_node13"><a xlink:title=" ">
<polygon fill="white" stroke="#bfbfbf" points="923.179,-168.5 923.179,-187.5 967.179,-187.5 967.179,-168.5 923.179,-168.5"/>
<text text-anchor="middle" x="945.179" y="-175.5" font-family="Helvetica,sans-Serif" font-size="10.00">SDL.h</text>
</a>
</g>
</g>
<!-- Node5&#45;&gt;Node13 -->
<g id="edge12" class="edge"><title>Node5&#45;&gt;Node13</title>
<path fill="none" stroke="midnightblue" d="M980.244,-224.083C974.25,-216.377 965.427,-205.033 958.131,-195.653"/>
<polygon fill="midnightblue" stroke="midnightblue" points="960.888,-193.496 951.985,-187.751 955.362,-197.793 960.888,-193.496"/>
</g>
<!-- Node7 -->
<g id="node7" class="node"><title>Node7</title>
<g id="a_node7"><a xlink:title=" ">
<polygon fill="white" stroke="#bfbfbf" points="1108.68,-56.5 1108.68,-75.5 1235.68,-75.5 1235.68,-56.5 1108.68,-56.5"/>
<text text-anchor="middle" x="1172.18" y="-63.5" font-family="Helvetica,sans-Serif" font-size="10.00">LinearMath/btTransform.h</text>
</a>
</g>
</g>
<!-- Node6&#45;&gt;Node7 -->
<g id="edge6" class="edge"><title>Node6&#45;&gt;Node7</title>
<path fill="none" stroke="midnightblue" d="M1273.16,-112.444C1253.59,-103.636 1222.87,-89.8116 1200.45,-79.722"/>
<polygon fill="midnightblue" stroke="midnightblue" points="1201.66,-76.4284 1191.1,-75.5164 1198.79,-82.8119 1201.66,-76.4284"/>
</g>
<!-- Node8 -->
<g id="node8" class="node"><title>Node8</title>
<g id="a_node8"><a xlink:title=" ">
<polygon fill="white" stroke="#bfbfbf" points="559.179,-56.5 559.179,-75.5 633.179,-75.5 633.179,-56.5 559.179,-56.5"/>
<text text-anchor="middle" x="596.179" y="-63.5" font-family="Helvetica,sans-Serif" font-size="10.00">glm/vec3.hpp</text>
</a>
</g>
</g>
<!-- Node6&#45;&gt;Node8 -->
<g id="edge7" class="edge"><title>Node6&#45;&gt;Node8</title>
<path fill="none" stroke="midnightblue" d="M1258.79,-113.396C1255.88,-112.871 1252.99,-112.395 1250.18,-112 1235.17,-109.886 791.83,-80.1002 643.784,-70.1847"/>
<polygon fill="midnightblue" stroke="midnightblue" points="643.857,-66.6818 633.645,-69.5057 643.389,-73.6661 643.857,-66.6818"/>
</g>
<!-- Node9 -->
<g id="node9" class="node"><title>Node9</title>
<g id="a_node9"><a xlink:title=" ">
<polygon fill="white" stroke="#bfbfbf" points="1255.18,-56.5 1255.18,-75.5 1329.18,-75.5 1329.18,-56.5 1255.18,-56.5"/>
<text text-anchor="middle" x="1292.18" y="-63.5" font-family="Helvetica,sans-Serif" font-size="10.00">glm/vec4.hpp</text>
</a>
</g>
</g>
<!-- Node6&#45;&gt;Node9 -->
<g id="edge8" class="edge"><title>Node6&#45;&gt;Node9</title>
<path fill="none" stroke="midnightblue" d="M1292.18,-112.083C1292.18,-105.006 1292.18,-94.8611 1292.18,-85.9865"/>
<polygon fill="midnightblue" stroke="midnightblue" points="1295.68,-85.751 1292.18,-75.7511 1288.68,-85.7511 1295.68,-85.751"/>
</g>
<!-- Node10 -->
<g id="node10" class="node"><title>Node10</title>
<g id="a_node10"><a xlink:title=" ">
<polygon fill="white" stroke="#bfbfbf" points="743.679,-56.5 743.679,-75.5 784.679,-75.5 784.679,-56.5 743.679,-56.5"/>
<text text-anchor="middle" x="764.179" y="-63.5" font-family="Helvetica,sans-Serif" font-size="10.00">string</text>
</a>
</g>
</g>
<!-- Node6&#45;&gt;Node10 -->
<g id="edge9" class="edge"><title>Node6&#45;&gt;Node10</title>
<path fill="none" stroke="midnightblue" d="M1258.77,-113.468C1255.88,-112.928 1252.98,-112.428 1250.18,-112 1079.38,-85.8871 872.33,-72.8231 795.142,-68.5878"/>
<polygon fill="midnightblue" stroke="midnightblue" points="795.303,-65.0915 785.129,-68.0483 794.926,-72.0813 795.303,-65.0915"/>
</g>
<!-- Node14&#45;&gt;Node2 -->
<g id="edge14" class="edge"><title>Node14&#45;&gt;Node2</title>
<path fill="none" stroke="midnightblue" d="M324.901,-174.686C272.746,-169.857 164.258,-157.02 137.179,-132 124.506,-120.29 120.119,-100.643 118.682,-86.008"/>
<polygon fill="midnightblue" stroke="midnightblue" points="122.151,-85.3671 118.061,-75.5932 115.163,-85.7839 122.151,-85.3671"/>
</g>
<!-- Node14&#45;&gt;Node8 -->
<g id="edge28" class="edge"><title>Node14&#45;&gt;Node8</title>
<path fill="none" stroke="midnightblue" d="M381.388,-172.947C438.106,-164.566 561.795,-145.021 576.179,-132 589.153,-120.256 593.808,-100.322 595.428,-85.6182"/>
<polygon fill="midnightblue" stroke="midnightblue" points="598.92,-85.8458 596.163,-75.6162 591.939,-85.3328 598.92,-85.8458"/>
</g>
<!-- Node14&#45;&gt;Node10 -->
<g id="edge30" class="edge"><title>Node14&#45;&gt;Node10</title>
<path fill="none" stroke="midnightblue" d="M381.384,-173.561C427.234,-167.579 520.522,-153.776 597.179,-132 623.79,-124.441 694.019,-96.0165 734.423,-79.3641"/>
<polygon fill="midnightblue" stroke="midnightblue" points="735.862,-82.5566 743.768,-75.5034 733.189,-76.087 735.862,-82.5566"/>
</g>
<!-- Node15 -->
<g id="node15" class="node"><title>Node15</title>
<g id="a_node15"><a xlink:href="../../d0/d4b/_debug_8h.html" target="_top" xlink:title=" ">
<polygon fill="white" stroke="black" points="662.679,-112.5 662.679,-131.5 715.679,-131.5 715.679,-112.5 662.679,-112.5"/>
<text text-anchor="middle" x="689.179" y="-119.5" font-family="Helvetica,sans-Serif" font-size="10.00">Debug.h</text>
</a>
</g>
</g>
<!-- Node14&#45;&gt;Node15 -->
<g id="edge15" class="edge"><title>Node14&#45;&gt;Node15</title>
<path fill="none" stroke="midnightblue" d="M381.347,-173.322C433.953,-166.315 550.637,-150.126 648.179,-132 649.469,-131.76 650.78,-131.51 652.103,-131.251"/>
<polygon fill="midnightblue" stroke="midnightblue" points="653.23,-134.593 662.323,-129.156 651.824,-127.736 653.23,-134.593"/>
</g>
<!-- Node16 -->
<g id="node16" class="node"><title>Node16</title>
<g id="a_node16"><a xlink:href="../../d5/d31/_lights_8h.html" target="_top" xlink:title=" ">
<polygon fill="white" stroke="black" points="516.679,-112.5 516.679,-131.5 567.679,-131.5 567.679,-112.5 516.679,-112.5"/>
<text text-anchor="middle" x="542.179" y="-119.5" font-family="Helvetica,sans-Serif" font-size="10.00">Lights.h</text>
</a>
</g>
</g>
<!-- Node14&#45;&gt;Node16 -->
<g id="edge16" class="edge"><title>Node14&#45;&gt;Node16</title>
<path fill="none" stroke="midnightblue" d="M381.474,-168.916C414.89,-159.368 470.5,-143.48 506.75,-133.123"/>
<polygon fill="midnightblue" stroke="midnightblue" points="507.772,-136.471 516.426,-130.358 505.849,-129.74 507.772,-136.471"/>
</g>
<!-- Node17 -->
<g id="node17" class="node"><title>Node17</title>
<g id="a_node17"><a xlink:href="../../d3/d09/_material_8h.html" target="_top" xlink:title=" ">
<polygon fill="white" stroke="black" points="213.679,-112.5 213.679,-131.5 272.679,-131.5 272.679,-112.5 213.679,-112.5"/>
<text text-anchor="middle" x="243.179" y="-119.5" font-family="Helvetica,sans-Serif" font-size="10.00">Material.h</text>
</a>
</g>
</g>
<!-- Node14&#45;&gt;Node17 -->
<g id="edge18" class="edge"><title>Node14&#45;&gt;Node17</title>
<path fill="none" stroke="midnightblue" d="M335.506,-168.324C317.785,-159.625 290.276,-146.12 269.891,-136.113"/>
<polygon fill="midnightblue" stroke="midnightblue" points="271.328,-132.919 260.809,-131.655 268.243,-139.203 271.328,-132.919"/>
</g>
<!-- Node14&#45;&gt;Node18 -->
<g id="edge21" class="edge"><title>Node14&#45;&gt;Node18</title>
<path fill="none" stroke="midnightblue" d="M325.141,-172.108C279.01,-164.02 184.231,-147.237 104.179,-132 102.902,-131.757 101.606,-131.508 100.297,-131.256"/>
<polygon fill="midnightblue" stroke="midnightblue" points="100.635,-127.756 90.1495,-129.273 99.2924,-134.626 100.635,-127.756"/>
</g>
<!-- Node19 -->
<g id="node19" class="node"><title>Node19</title>
<g id="a_node19"><a xlink:href="../../d2/d06/_shaders_8h.html" target="_top" xlink:title=" ">
<polygon fill="white" stroke="black" points="437.679,-112.5 437.679,-131.5 498.679,-131.5 498.679,-112.5 437.679,-112.5"/>
<text text-anchor="middle" x="468.179" y="-119.5" font-family="Helvetica,sans-Serif" font-size="10.00">Shaders.h</text>
</a>
</g>
</g>
<!-- Node14&#45;&gt;Node19 -->
<g id="edge22" class="edge"><title>Node14&#45;&gt;Node19</title>
<path fill="none" stroke="midnightblue" d="M371.401,-168.444C390.075,-159.675 419.335,-145.935 440.796,-135.858"/>
<polygon fill="midnightblue" stroke="midnightblue" points="442.478,-138.935 450.042,-131.516 439.503,-132.599 442.478,-138.935"/>
</g>
<!-- Node20 -->
<g id="node20" class="node"><title>Node20</title>
<g id="a_node20"><a xlink:title=" ">
<polygon fill="white" stroke="#bfbfbf" points="379.179,-56.5 379.179,-75.5 439.179,-75.5 439.179,-56.5 379.179,-56.5"/>
<text text-anchor="middle" x="409.179" y="-63.5" font-family="Helvetica,sans-Serif" font-size="10.00">GL/glew.h</text>
</a>
</g>
</g>
<!-- Node14&#45;&gt;Node20 -->
<g id="edge25" class="edge"><title>Node14&#45;&gt;Node20</title>
<path fill="none" stroke="midnightblue" d="M343.025,-168.346C329.409,-155.657 308.246,-131.405 320.179,-112 331.019,-94.3724 351.136,-83.3959 369.506,-76.7022"/>
<polygon fill="midnightblue" stroke="midnightblue" points="370.787,-79.9648 379.177,-73.4945 368.583,-73.3208 370.787,-79.9648"/>
</g>
<!-- Node14&#45;&gt;Node21 -->
<g id="edge26" class="edge"><title>Node14&#45;&gt;Node21</title>
<path fill="none" stroke="midnightblue" d="M381.274,-173.776C461.934,-164.495 690.606,-137.992 724.179,-132 724.279,-131.982 724.379,-131.964 724.48,-131.946"/>
<polygon fill="midnightblue" stroke="midnightblue" points="724.911,-135.429 734.031,-130.037 723.538,-128.565 724.911,-135.429"/>
</g>
<!-- Node22 -->
<g id="node22" class="node"><title>Node22</title>
<g id="a_node22"><a xlink:title=" ">
<polygon fill="white" stroke="#bfbfbf" points="146.679,-112.5 146.679,-131.5 195.679,-131.5 195.679,-112.5 146.679,-112.5"/>
<text text-anchor="middle" x="171.179" y="-119.5" font-family="Helvetica,sans-Serif" font-size="10.00">fstream</text>
</a>
</g>
</g>
<!-- Node14&#45;&gt;Node22 -->
<g id="edge27" class="edge"><title>Node14&#45;&gt;Node22</title>
<path fill="none" stroke="midnightblue" d="M325.14,-168.681C292.923,-159.122 240.054,-143.435 205.429,-133.162"/>
<polygon fill="midnightblue" stroke="midnightblue" points="206.328,-129.778 195.746,-130.289 204.337,-136.489 206.328,-129.778"/>
</g>
<!-- Node23 -->
<g id="node23" class="node"><title>Node23</title>
<g id="a_node23"><a xlink:title=" ">
<polygon fill="white" stroke="#bfbfbf" points="329.179,-112.5 329.179,-131.5 381.179,-131.5 381.179,-112.5 329.179,-112.5"/>
<text text-anchor="middle" x="355.179" y="-119.5" font-family="Helvetica,sans-Serif" font-size="10.00">sstream</text>
</a>
</g>
</g>
<!-- Node14&#45;&gt;Node23 -->
<g id="edge29" class="edge"><title>Node14&#45;&gt;Node23</title>
<path fill="none" stroke="midnightblue" d="M353.509,-168.083C353.771,-161.006 354.147,-150.861 354.476,-141.986"/>
<polygon fill="midnightblue" stroke="midnightblue" points="357.982,-141.874 354.855,-131.751 350.987,-141.615 357.982,-141.874"/>
</g>
<!-- Node14&#45;&gt;Node24 -->
<g id="edge31" class="edge"><title>Node14&#45;&gt;Node24</title>
<path fill="none" stroke="midnightblue" d="M381.18,-175.549C513.643,-168.666 1074.2,-139.346 1152.18,-132 1164.25,-130.863 1177.48,-129.206 1189.03,-127.624"/>
<polygon fill="midnightblue" stroke="midnightblue" points="1189.68,-131.067 1199.09,-126.208 1188.7,-124.136 1189.68,-131.067"/>
</g>
<!-- Node16&#45;&gt;Node8 -->
<g id="edge17" class="edge"><title>Node16&#45;&gt;Node8</title>
<path fill="none" stroke="midnightblue" d="M551.096,-112.083C558.96,-104.22 570.61,-92.5688 580.098,-83.0813"/>
<polygon fill="midnightblue" stroke="midnightblue" points="582.832,-85.2971 587.428,-75.7511 577.882,-80.3473 582.832,-85.2971"/>
</g>
<!-- Node17&#45;&gt;Node2 -->
<g id="edge19" class="edge"><title>Node17&#45;&gt;Node2</title>
<path fill="none" stroke="midnightblue" d="M223.372,-112.444C202.892,-103.596 170.696,-89.6875 147.314,-79.5865"/>
<polygon fill="midnightblue" stroke="midnightblue" points="148.461,-76.2692 137.893,-75.5164 145.685,-82.6953 148.461,-76.2692"/>
</g>
<!-- Node17&#45;&gt;Node8 -->
<g id="edge20" class="edge"><title>Node17&#45;&gt;Node8</title>
<path fill="none" stroke="midnightblue" d="M272.971,-116.443C334.329,-107.056 475.216,-85.5043 549.062,-74.2078"/>
<polygon fill="midnightblue" stroke="midnightblue" points="549.666,-77.6562 559.021,-72.6842 548.607,-70.7367 549.666,-77.6562"/>
</g>
<!-- Node19&#45;&gt;Node10 -->
<g id="edge24" class="edge"><title>Node19&#45;&gt;Node10</title>
<path fill="none" stroke="midnightblue" d="M498.802,-113.77C501.63,-113.152 504.455,-112.552 507.179,-112 588.485,-95.5126 684.995,-79.5838 733.34,-71.853"/>
<polygon fill="midnightblue" stroke="midnightblue" points="734.129,-75.2715 743.455,-70.243 733.029,-68.3585 734.129,-75.2715"/>
</g>
<!-- Node19&#45;&gt;Node20 -->
<g id="edge23" class="edge"><title>Node19&#45;&gt;Node20</title>
<path fill="none" stroke="midnightblue" d="M458.7,-112.324C449.978,-104.341 436.836,-92.3128 426.281,-82.6529"/>
<polygon fill="midnightblue" stroke="midnightblue" points="428.571,-80.0036 418.831,-75.8339 423.845,-85.1674 428.571,-80.0036"/>
</g>
<!-- Node25&#45;&gt;Node21 -->
<g id="edge46" class="edge"><title>Node25&#45;&gt;Node21</title>
<path fill="none" stroke="midnightblue" d="M1176.65,-224.387C1153.1,-208.356 1102.82,-174.931 1083.18,-168 965.275,-126.399 927.411,-153.117 804.179,-132 802.939,-131.787 801.679,-131.564 800.409,-131.332"/>
<polygon fill="midnightblue" stroke="midnightblue" points="801.068,-127.894 790.584,-129.42 799.731,-134.765 801.068,-127.894"/>
</g>
<!-- Node25&#45;&gt;Node24 -->
<g id="edge47" class="edge"><title>Node25&#45;&gt;Node24</title>
<path fill="none" stroke="midnightblue" d="M1215.89,-229.395C1257.09,-223.226 1333.11,-209.218 1349.18,-188 1354.55,-180.915 1354.33,-175.247 1349.18,-168 1346.21,-163.824 1288.5,-144.791 1251.29,-132.855"/>
<polygon fill="midnightblue" stroke="midnightblue" points="1251.99,-129.404 1241.4,-129.695 1249.86,-136.072 1251.99,-129.404"/>
</g>
<!-- Node26 -->
<g id="node26" class="node"><title>Node26</title>
<g id="a_node26"><a xlink:href="../../d3/da2/_debug_drawer_8h.html" target="_top" xlink:title=" ">
<polygon fill="white" stroke="black" points="1435.68,-168.5 1435.68,-187.5 1518.68,-187.5 1518.68,-168.5 1435.68,-168.5"/>
<text text-anchor="middle" x="1477.18" y="-175.5" font-family="Helvetica,sans-Serif" font-size="10.00">DebugDrawer.h</text>
</a>
</g>
</g>
<!-- Node25&#45;&gt;Node26 -->
<g id="edge33" class="edge"><title>Node25&#45;&gt;Node26</title>
<path fill="none" stroke="midnightblue" d="M1215.76,-228.017C1263.38,-219.088 1364,-200.221 1425.59,-188.673"/>
<polygon fill="midnightblue" stroke="midnightblue" points="1426.31,-192.099 1435.49,-186.816 1425.02,-185.219 1426.31,-192.099"/>
</g>
<!-- Node29 -->
<g id="node29" class="node"><title>Node29</title>
<g id="a_node29"><a xlink:href="../../d7/d26/_helping_hand_8h.html" target="_top" xlink:title=" ">
<polygon fill="white" stroke="black" points="1131.18,-168.5 1131.18,-187.5 1211.18,-187.5 1211.18,-168.5 1131.18,-168.5"/>
<text text-anchor="middle" x="1171.18" y="-175.5" font-family="Helvetica,sans-Serif" font-size="10.00">HelpingHand.h</text>
</a>
</g>
</g>
<!-- Node25&#45;&gt;Node29 -->
<g id="edge39" class="edge"><title>Node25&#45;&gt;Node29</title>
<path fill="none" stroke="midnightblue" d="M1186.21,-224.083C1183.8,-216.849 1180.32,-206.409 1177.31,-197.397"/>
<polygon fill="midnightblue" stroke="midnightblue" points="1180.58,-196.131 1174.1,-187.751 1173.94,-198.345 1180.58,-196.131"/>
</g>
<!-- Node31 -->
<g id="node31" class="node"><title>Node31</title>
<g id="a_node31"><a xlink:title=" ">
<polygon fill="white" stroke="#bfbfbf" points="1267.68,-168.5 1267.68,-187.5 1340.68,-187.5 1340.68,-168.5 1267.68,-168.5"/>
<text text-anchor="middle" x="1304.18" y="-175.5" font-family="Helvetica,sans-Serif" font-size="10.00">SDL_mixer.h</text>
</a>
</g>
</g>
<!-- Node25&#45;&gt;Node31 -->
<g id="edge45" class="edge"><title>Node25&#45;&gt;Node31</title>
<path fill="none" stroke="midnightblue" d="M1207.4,-224.444C1226.07,-215.675 1255.34,-201.935 1276.8,-191.858"/>
<polygon fill="midnightblue" stroke="midnightblue" points="1278.48,-194.935 1286.04,-187.516 1275.5,-188.599 1278.48,-194.935"/>
</g>
<!-- Node26&#45;&gt;Node4 -->
<g id="edge35" class="edge"><title>Node26&#45;&gt;Node4</title>
<path fill="none" stroke="midnightblue" d="M1446.56,-187.54C1399.14,-200.615 1304.96,-225.974 1224.18,-244 1154.64,-259.519 1072.85,-274.286 1025.81,-282.446"/>
<polygon fill="midnightblue" stroke="midnightblue" points="1025.01,-279.032 1015.76,-284.181 1026.2,-285.93 1025.01,-279.032"/>
</g>
<!-- Node26&#45;&gt;Node6 -->
<g id="edge34" class="edge"><title>Node26&#45;&gt;Node6</title>
<path fill="none" stroke="midnightblue" d="M1447.87,-168.444C1416.34,-159.241 1366.05,-144.562 1331.19,-134.388"/>
<polygon fill="midnightblue" stroke="midnightblue" points="1331.94,-130.959 1321.36,-131.516 1329.97,-137.678 1331.94,-130.959"/>
</g>
<!-- Node26&#45;&gt;Node24 -->
<g id="edge38" class="edge"><title>Node26&#45;&gt;Node24</title>
<path fill="none" stroke="midnightblue" d="M1435.49,-169.972C1391.81,-162.334 1321.04,-149.188 1251.25,-132.084"/>
<polygon fill="midnightblue" stroke="midnightblue" points="1251.96,-128.655 1241.41,-129.645 1250.28,-135.449 1251.96,-128.655"/>
</g>
<!-- Node27 -->
<g id="node27" class="node"><title>Node27</title>
<g id="a_node27"><a xlink:title=" ">
<polygon fill="white" stroke="#bfbfbf" points="1376.18,-112.5 1376.18,-131.5 1512.18,-131.5 1512.18,-112.5 1376.18,-112.5"/>
<text text-anchor="middle" x="1444.18" y="-119.5" font-family="Helvetica,sans-Serif" font-size="10.00">LinearMath/btIDebugDraw.h</text>
</a>
</g>
</g>
<!-- Node26&#45;&gt;Node27 -->
<g id="edge36" class="edge"><title>Node26&#45;&gt;Node27</title>
<path fill="none" stroke="midnightblue" d="M1471.73,-168.083C1467.16,-160.613 1460.51,-149.724 1454.89,-140.52"/>
<polygon fill="midnightblue" stroke="midnightblue" points="1457.73,-138.459 1449.53,-131.751 1451.75,-142.109 1457.73,-138.459"/>
</g>
<!-- Node28 -->
<g id="node28" class="node"><title>Node28</title>
<g id="a_node28"><a xlink:title=" ">
<polygon fill="white" stroke="#bfbfbf" points="1530.18,-112.5 1530.18,-131.5 1636.18,-131.5 1636.18,-112.5 1530.18,-112.5"/>
<text text-anchor="middle" x="1583.18" y="-119.5" font-family="Helvetica,sans-Serif" font-size="10.00">glm/gtc/type_ptr.hpp</text>
</a>
</g>
</g>
<!-- Node26&#45;&gt;Node28 -->
<g id="edge37" class="edge"><title>Node26&#45;&gt;Node28</title>
<path fill="none" stroke="midnightblue" d="M1494.21,-168.324C1511.21,-159.664 1537.56,-146.242 1557.17,-136.249"/>
<polygon fill="midnightblue" stroke="midnightblue" points="1558.87,-139.312 1566.19,-131.655 1555.69,-133.075 1558.87,-139.312"/>
</g>
<!-- Node29&#45;&gt;Node7 -->
<g id="edge40" class="edge"><title>Node29&#45;&gt;Node7</title>
<path fill="none" stroke="midnightblue" d="M1171.26,-168.368C1171.42,-150.617 1171.79,-109.666 1172.01,-85.5974"/>
<polygon fill="midnightblue" stroke="midnightblue" points="1175.51,-85.6229 1172.1,-75.5914 1168.51,-85.5592 1175.51,-85.6229"/>
</g>
<!-- Node29&#45;&gt;Node8 -->
<g id="edge43" class="edge"><title>Node29&#45;&gt;Node8</title>
<path fill="none" stroke="midnightblue" d="M1130.75,-169.265C1027.25,-149.466 753.181,-97.0351 643.01,-75.959"/>
<polygon fill="midnightblue" stroke="midnightblue" points="643.661,-72.5201 633.182,-74.0787 642.346,-79.3955 643.661,-72.5201"/>
</g>
<!-- Node29&#45;&gt;Node21 -->
<g id="edge41" class="edge"><title>Node29&#45;&gt;Node21</title>
<path fill="none" stroke="midnightblue" d="M1131.11,-170.09C1126.42,-169.35 1121.7,-168.636 1117.18,-168 978.518,-148.483 942.356,-154.696 804.179,-132 802.937,-131.796 801.677,-131.58 800.405,-131.354"/>
<polygon fill="midnightblue" stroke="midnightblue" points="801.054,-127.915 790.575,-129.473 799.739,-134.79 801.054,-127.915"/>
</g>
<!-- Node29&#45;&gt;Node24 -->
<g id="edge44" class="edge"><title>Node29&#45;&gt;Node24</title>
<path fill="none" stroke="midnightblue" d="M1179.27,-168.083C1186.33,-160.298 1196.77,-148.801 1205.33,-139.367"/>
<polygon fill="midnightblue" stroke="midnightblue" points="1208.11,-141.509 1212.24,-131.751 1202.93,-136.805 1208.11,-141.509"/>
</g>
<!-- Node30 -->
<g id="node30" class="node"><title>Node30</title>
<g id="a_node30"><a xlink:title=" ">
<polygon fill="white" stroke="#bfbfbf" points="1027.18,-112.5 1027.18,-131.5 1143.18,-131.5 1143.18,-112.5 1027.18,-112.5"/>
<text text-anchor="middle" x="1085.18" y="-119.5" font-family="Helvetica,sans-Serif" font-size="10.00">glm/gtc/quaternion.hpp</text>
</a>
</g>
</g>
<!-- Node29&#45;&gt;Node30 -->
<g id="edge42" class="edge"><title>Node29&#45;&gt;Node30</title>
<path fill="none" stroke="midnightblue" d="M1157.36,-168.324C1143.95,-159.9 1123.35,-146.971 1107.59,-137.074"/>
<polygon fill="midnightblue" stroke="midnightblue" points="1109.29,-134.008 1098.96,-131.655 1105.57,-139.936 1109.29,-134.008"/>
</g>
<!-- Node32&#45;&gt;Node10 -->
<g id="edge54" class="edge"><title>Node32&#45;&gt;Node10</title>
<path fill="none" stroke="midnightblue" d="M670.909,-231.607C702.708,-228.51 753.394,-218.712 783.179,-188 807.21,-163.221 810.381,-144.65 799.179,-112 795.46,-101.161 787.946,-90.9216 780.83,-82.9566"/>
<polygon fill="midnightblue" stroke="midnightblue" points="783.18,-80.3498 773.735,-75.5497 778.125,-85.1922 783.18,-80.3498"/>
</g>
<!-- Node32&#45;&gt;Node15 -->
<g id="edge55" class="edge"><title>Node32&#45;&gt;Node15</title>
<path fill="none" stroke="midnightblue" d="M613.475,-229.841C566.025,-223.469 479.286,-206.286 509.179,-168 511.427,-165.121 600.874,-143.726 652.81,-131.502"/>
<polygon fill="midnightblue" stroke="midnightblue" points="653.726,-134.882 662.66,-129.188 652.124,-128.068 653.726,-134.882"/>
</g>
<!-- Node32&#45;&gt;Node20 -->
<g id="edge49" class="edge"><title>Node32&#45;&gt;Node20</title>
<path fill="none" stroke="midnightblue" d="M613.574,-227.225C583.817,-220.493 536.453,-207.707 499.179,-188 463.65,-169.215 450.662,-165.313 428.179,-132 418.827,-118.144 414.003,-99.6274 411.561,-85.9024"/>
<polygon fill="midnightblue" stroke="midnightblue" points="414.976,-85.0739 410.023,-75.7077 408.054,-86.1179 414.976,-85.0739"/>
</g>
<!-- Node32&#45;&gt;Node21 -->
<g id="edge52" class="edge"><title>Node32&#45;&gt;Node21</title>
<path fill="none" stroke="midnightblue" d="M613.47,-226.506C576.267,-216.779 518.782,-196.479 542.179,-168 594.523,-104.289 643.602,-149.505 724.179,-132 724.278,-131.978 724.378,-131.957 724.478,-131.935"/>
<polygon fill="midnightblue" stroke="midnightblue" points="724.993,-135.406 733.984,-129.801 723.46,-128.576 724.993,-135.406"/>
</g>
<!-- Node32&#45;&gt;Node29 -->
<g id="edge56" class="edge"><title>Node32&#45;&gt;Node29</title>
<path fill="none" stroke="midnightblue" d="M670.814,-230.08C741.066,-222.917 927.568,-203.897 1083.18,-188 1095.35,-186.756 1108.48,-185.415 1120.78,-184.157"/>
<polygon fill="midnightblue" stroke="midnightblue" points="1121.28,-187.623 1130.88,-183.124 1120.57,-180.66 1121.28,-187.623"/>
</g>
<!-- Node33 -->
<g id="node33" class="node"><title>Node33</title>
<g id="a_node33"><a xlink:title=" ">
<polygon fill="white" stroke="#bfbfbf" points="604.679,-168.5 604.679,-187.5 679.679,-187.5 679.679,-168.5 604.679,-168.5"/>
<text text-anchor="middle" x="642.179" y="-175.5" font-family="Helvetica,sans-Serif" font-size="10.00">SDL_image.h</text>
</a>
</g>
</g>
<!-- Node32&#45;&gt;Node33 -->
<g id="edge50" class="edge"><title>Node32&#45;&gt;Node33</title>
<path fill="none" stroke="midnightblue" d="M642.179,-224.083C642.179,-217.006 642.179,-206.861 642.179,-197.986"/>
<polygon fill="midnightblue" stroke="midnightblue" points="645.679,-197.751 642.179,-187.751 638.679,-197.751 645.679,-197.751"/>
</g>
<!-- Node34 -->
<g id="node34" class="node"><title>Node34</title>
<g id="a_node34"><a xlink:title=" ">
<polygon fill="white" stroke="#bfbfbf" points="697.679,-168.5 697.679,-187.5 774.679,-187.5 774.679,-168.5 697.679,-168.5"/>
<text text-anchor="middle" x="736.179" y="-175.5" font-family="Helvetica,sans-Serif" font-size="10.00">SDL_opengl.h</text>
</a>
</g>
</g>
<!-- Node32&#45;&gt;Node34 -->
<g id="edge51" class="edge"><title>Node32&#45;&gt;Node34</title>
<path fill="none" stroke="midnightblue" d="M657.282,-224.324C672.082,-215.822 694.873,-202.729 712.161,-192.797"/>
<polygon fill="midnightblue" stroke="midnightblue" points="714.186,-195.671 721.114,-187.655 710.699,-189.601 714.186,-195.671"/>
</g>
<!-- Node35 -->
<g id="node35" class="node"><title>Node35</title>
<g id="a_node35"><a xlink:title=" ">
<polygon fill="white" stroke="#bfbfbf" points="551.679,-168.5 551.679,-187.5 586.679,-187.5 586.679,-168.5 551.679,-168.5"/>
<text text-anchor="middle" x="569.179" y="-175.5" font-family="Helvetica,sans-Serif" font-size="10.00">map</text>
</a>
</g>
</g>
<!-- Node32&#45;&gt;Node35 -->
<g id="edge53" class="edge"><title>Node32&#45;&gt;Node35</title>
<path fill="none" stroke="midnightblue" d="M630.45,-224.324C619.342,-216.107 602.437,-203.602 589.196,-193.807"/>
<polygon fill="midnightblue" stroke="midnightblue" points="591.242,-190.967 581.121,-187.834 587.079,-196.595 591.242,-190.967"/>
</g>
</g>
</svg>
