<?xml version="1.0" encoding="UTF-8" standalone="no"?>
<!DOCTYPE svg PUBLIC "-//W3C//DTD SVG 1.1//EN"
 "http://www.w3.org/Graphics/SVG/1.1/DTD/svg11.dtd">
<!-- Generated by graphviz version 2.38.0 (20140413.2041)
 -->
<!-- Title: EntityWrapper Pages: 1 -->
<svg width="607pt" height="84pt"
 viewBox="0.00 0.00 607.00 84.00" xmlns="http://www.w3.org/2000/svg" xmlns:xlink="http://www.w3.org/1999/xlink">
<g id="graph0" class="graph" transform="scale(1 1) rotate(0) translate(4 80)">
<title>EntityWrapper</title>
<polygon fill="white" stroke="none" points="-4,4 -4,-80 603,-80 603,4 -4,4"/>
<!-- Node1 -->
<g id="node1" class="node"><title>Node1</title>
<g id="a_node1"><a xlink:title=" ">
<polygon fill="#bfbfbf" stroke="black" points="273.5,-56.5 273.5,-75.5 352.5,-75.5 352.5,-56.5 273.5,-56.5"/>
<text text-anchor="middle" x="313" y="-63.5" font-family="Helvetica,sans-Serif" font-size="10.00">EntityWrapper</text>
</a>
</g>
</g>
<!-- Node2 -->
<g id="node2" class="node"><title>Node2</title>
<g id="a_node2"><a xlink:href="../../de/d20/class_cube_trigger.html" target="_top" xlink:title=" ">
<polygon fill="white" stroke="black" points="0,-0.5 0,-19.5 68,-19.5 68,-0.5 0,-0.5"/>
<text text-anchor="middle" x="34" y="-7.5" font-family="Helvetica,sans-Serif" font-size="10.00">CubeTrigger</text>
</a>
</g>
</g>
<!-- Node1&#45;&gt;Node2 -->
<g id="edge1" class="edge"><title>Node1&#45;&gt;Node2</title>
<path fill="none" stroke="midnightblue" d="M263.208,-55.7737C215.411,-46.8536 141.206,-32.8396 77,-20 74.158,-19.4317 71.2123,-18.8338 68.2562,-18.2276"/>
<polygon fill="midnightblue" stroke="midnightblue" points="262.817,-59.2609 273.289,-57.6525 264.099,-52.3794 262.817,-59.2609"/>
</g>
<!-- Node3 -->
<g id="node3" class="node"><title>Node3</title>
<g id="a_node3"><a xlink:href="../../da/d1b/class_enemy_test_object.html" target="_top" xlink:title=" ">
<polygon fill="white" stroke="black" points="86.5,-0.5 86.5,-19.5 181.5,-19.5 181.5,-0.5 86.5,-0.5"/>
<text text-anchor="middle" x="134" y="-7.5" font-family="Helvetica,sans-Serif" font-size="10.00">EnemyTestObject</text>
</a>
</g>
</g>
<!-- Node1&#45;&gt;Node3 -->
<g id="edge2" class="edge"><title>Node1&#45;&gt;Node3</title>
<path fill="none" stroke="midnightblue" d="M274.669,-53.4363C240.92,-43.2551 192.553,-28.664 162.23,-19.5164"/>
<polygon fill="midnightblue" stroke="midnightblue" points="274.052,-56.9061 284.637,-56.4435 276.074,-50.2044 274.052,-56.9061"/>
</g>
<!-- Node4 -->
<g id="node4" class="node"><title>Node4</title>
<g id="a_node4"><a xlink:href="../../da/d3c/class_floor_object.html" target="_top" xlink:title=" ">
<polygon fill="white" stroke="black" points="199.5,-0.5 199.5,-19.5 266.5,-19.5 266.5,-0.5 199.5,-0.5"/>
<text text-anchor="middle" x="233" y="-7.5" font-family="Helvetica,sans-Serif" font-size="10.00">FloorObject</text>
</a>
</g>
</g>
<!-- Node1&#45;&gt;Node4 -->
<g id="edge3" class="edge"><title>Node1&#45;&gt;Node4</title>
<path fill="none" stroke="midnightblue" d="M291.699,-50.6221C277.085,-40.7574 258.173,-27.9919 245.821,-19.6545"/>
<polygon fill="midnightblue" stroke="midnightblue" points="289.9,-53.6302 300.147,-56.324 293.816,-47.8282 289.9,-53.6302"/>
</g>
<!-- Node5 -->
<g id="node5" class="node"><title>Node5</title>
<g id="a_node5"><a xlink:href="../../d1/d45/class_light_test.html" target="_top" xlink:title=" ">
<polygon fill="white" stroke="black" points="285,-0.5 285,-19.5 341,-19.5 341,-0.5 285,-0.5"/>
<text text-anchor="middle" x="313" y="-7.5" font-family="Helvetica,sans-Serif" font-size="10.00">LightTest</text>
</a>
</g>
</g>
<!-- Node1&#45;&gt;Node5 -->
<g id="edge4" class="edge"><title>Node1&#45;&gt;Node5</title>
<path fill="none" stroke="midnightblue" d="M313,-45.8045C313,-36.9102 313,-26.7798 313,-19.7511"/>
<polygon fill="midnightblue" stroke="midnightblue" points="309.5,-46.083 313,-56.083 316.5,-46.083 309.5,-46.083"/>
</g>
<!-- Node6 -->
<g id="node6" class="node"><title>Node6</title>
<g id="a_node6"><a xlink:href="../../d7/dbc/class_particle_test.html" target="_top" xlink:title=" ">
<polygon fill="white" stroke="black" points="359,-0.5 359,-19.5 427,-19.5 427,-0.5 359,-0.5"/>
<text text-anchor="middle" x="393" y="-7.5" font-family="Helvetica,sans-Serif" font-size="10.00">ParticleTest</text>
</a>
</g>
</g>
<!-- Node1&#45;&gt;Node6 -->
<g id="edge5" class="edge"><title>Node1&#45;&gt;Node6</title>
<path fill="none" stroke="midnightblue" d="M334.301,-50.6221C348.915,-40.7574 367.827,-27.9919 380.179,-19.6545"/>
<polygon fill="midnightblue" stroke="midnightblue" points="332.184,-47.8282 325.853,-56.324 336.1,-53.6302 332.184,-47.8282"/>
</g>
<!-- Node7 -->
<g id="node7" class="node"><title>Node7</title>
<g id="a_node7"><a xlink:href="../../d8/d53/class_player.html" target="_top" xlink:title=" ">
<polygon fill="white" stroke="black" points="445,-0.5 445,-19.5 489,-19.5 489,-0.5 445,-0.5"/>
<text text-anchor="middle" x="467" y="-7.5" font-family="Helvetica,sans-Serif" font-size="10.00">Player</text>
</a>
</g>
</g>
<!-- Node1&#45;&gt;Node7 -->
<g id="edge6" class="edge"><title>Node1&#45;&gt;Node7</title>
<path fill="none" stroke="midnightblue" d="M346.963,-53.0908C376.709,-42.6604 419.078,-27.8036 444.712,-18.8151"/>
<polygon fill="midnightblue" stroke="midnightblue" points="345.68,-49.8317 337.402,-56.4435 347.997,-56.4373 345.68,-49.8317"/>
</g>
<!-- Node8 -->
<g id="node8" class="node"><title>Node8</title>
<g id="a_node8"><a xlink:href="../../db/dd3/class_player_test_object.html" target="_top" xlink:title=" ">
<polygon fill="white" stroke="black" points="507,-0.5 507,-19.5 599,-19.5 599,-0.5 507,-0.5"/>
<text text-anchor="middle" x="553" y="-7.5" font-family="Helvetica,sans-Serif" font-size="10.00">PlayerTestObject</text>
</a>
</g>
</g>
<!-- Node1&#45;&gt;Node8 -->
<g id="edge7" class="edge"><title>Node1&#45;&gt;Node8</title>
<path fill="none" stroke="midnightblue" d="M360.923,-54.2172C406.274,-44.0134 473.442,-28.9006 515.149,-19.5164"/>
<polygon fill="midnightblue" stroke="midnightblue" points="360.016,-50.8337 351.029,-56.4435 361.553,-57.663 360.016,-50.8337"/>
</g>
</g>
</svg>
