<?xml version="1.0" encoding="UTF-8" standalone="no"?>
<!DOCTYPE svg PUBLIC "-//W3C//DTD SVG 1.1//EN"
 "http://www.w3.org/Graphics/SVG/1.1/DTD/svg11.dtd">
<!-- Generated by graphviz version 2.38.0 (20140413.2041)
 -->
<!-- Title: SystemBase::areVitalsNull Pages: 1 -->
<svg width="793pt" height="78pt"
 viewBox="0.00 0.00 793.00 77.50" xmlns="http://www.w3.org/2000/svg" xmlns:xlink="http://www.w3.org/1999/xlink">
<g id="graph0" class="graph" transform="scale(1 1) rotate(0) translate(4 73.5)">
<title>SystemBase::areVitalsNull</title>
<polygon fill="white" stroke="none" points="-4,4 -4,-73.5 789,-73.5 789,4 -4,4"/>
<!-- Node1 -->
<g id="node1" class="node"><title>Node1</title>
<g id="a_node1"><a xlink:title=" ">
<polygon fill="#bfbfbf" stroke="black" points="651,-22.5 651,-41.5 785,-41.5 785,-22.5 651,-22.5"/>
<text text-anchor="middle" x="718" y="-29.5" font-family="Helvetica,sans-Serif" font-size="10.00">SystemBase::areVitalsNull</text>
</a>
</g>
</g>
<!-- Node2 -->
<g id="node2" class="node"><title>Node2</title>
<g id="a_node2"><a xlink:href="../../d3/de8/class_fixed_updating_system.html#a3ed508813ba850baed19e86ef0429028" target="_top" xlink:title=" ">
<polygon fill="white" stroke="black" points="495,-39 495,-69 608,-69 608,-39 495,-39"/>
<text text-anchor="start" x="503" y="-57" font-family="Helvetica,sans-Serif" font-size="10.00">FixedUpdatingSystem</text>
<text text-anchor="middle" x="551.5" y="-46" font-family="Helvetica,sans-Serif" font-size="10.00">::fixedUpdate</text>
</a>
</g>
</g>
<!-- Node1&#45;&gt;Node2 -->
<g id="edge1" class="edge"><title>Node1&#45;&gt;Node2</title>
<path fill="none" stroke="midnightblue" d="M640.576,-42.2209C629.631,-43.6846 618.549,-45.1667 608.108,-46.5631"/>
<polygon fill="midnightblue" stroke="midnightblue" points="641.118,-45.6796 650.566,-40.8848 640.19,-38.7414 641.118,-45.6796"/>
</g>
<!-- Node7 -->
<g id="node7" class="node"><title>Node7</title>
<g id="a_node7"><a xlink:href="../../d8/d31/class_rendering_system.html#ae6a25f6b28ebe40f08916d9eadc95ac2" target="_top" xlink:title=" ">
<polygon fill="white" stroke="black" points="488,-0.5 488,-19.5 615,-19.5 615,-0.5 488,-0.5"/>
<text text-anchor="middle" x="551.5" y="-7.5" font-family="Helvetica,sans-Serif" font-size="10.00">RenderingSystem::render</text>
</a>
</g>
</g>
<!-- Node1&#45;&gt;Node7 -->
<g id="edge6" class="edge"><title>Node1&#45;&gt;Node7</title>
<path fill="none" stroke="midnightblue" d="M640.627,-21.786C632.108,-20.6467 623.506,-19.4962 615.186,-18.3836"/>
<polygon fill="midnightblue" stroke="midnightblue" points="640.19,-25.2586 650.566,-23.1152 641.118,-18.3204 640.19,-25.2586"/>
</g>
<!-- Node3 -->
<g id="node3" class="node"><title>Node3</title>
<g id="a_node3"><a xlink:href="../../dd/d1f/class_game.html#a157e87f9dc147a5842ee6bdc06c95c17" target="_top" xlink:title=" ">
<polygon fill="white" stroke="black" points="352,-43.5 352,-62.5 452,-62.5 452,-43.5 352,-43.5"/>
<text text-anchor="middle" x="402" y="-50.5" font-family="Helvetica,sans-Serif" font-size="10.00">Game::fixedUpdate</text>
</a>
</g>
</g>
<!-- Node2&#45;&gt;Node3 -->
<g id="edge2" class="edge"><title>Node2&#45;&gt;Node3</title>
<path fill="none" stroke="midnightblue" d="M484.41,-53.5519C473.535,-53.4782 462.435,-53.403 452.071,-53.3327"/>
<polygon fill="midnightblue" stroke="midnightblue" points="484.713,-57.054 494.737,-53.6219 484.761,-50.0541 484.713,-57.054"/>
</g>
<!-- Node4 -->
<g id="node4" class="node"><title>Node4</title>
<g id="a_node4"><a xlink:href="../../de/d6b/class_application.html#a95c827cb5cf08bd0c3cc7b07ed4b4249" target="_top" xlink:title=" ">
<polygon fill="white" stroke="black" points="194,-42.5 194,-61.5 316,-61.5 316,-42.5 194,-42.5"/>
<text text-anchor="middle" x="255" y="-49.5" font-family="Helvetica,sans-Serif" font-size="10.00">Application::fixedUpdate</text>
</a>
</g>
</g>
<!-- Node3&#45;&gt;Node4 -->
<g id="edge3" class="edge"><title>Node3&#45;&gt;Node4</title>
<path fill="none" stroke="midnightblue" d="M341.747,-52.5914C333.287,-52.533 324.578,-52.473 316.102,-52.4145"/>
<polygon fill="midnightblue" stroke="midnightblue" points="341.886,-56.0923 351.91,-52.6614 341.934,-49.0925 341.886,-56.0923"/>
</g>
<!-- Node5 -->
<g id="node5" class="node"><title>Node5</title>
<g id="a_node5"><a xlink:href="../../de/d6b/class_application.html#a68965449404743bf1add056784d6cf81" target="_top" xlink:title=" ">
<polygon fill="white" stroke="black" points="74,-22.5 74,-41.5 158,-41.5 158,-22.5 74,-22.5"/>
<text text-anchor="middle" x="116" y="-29.5" font-family="Helvetica,sans-Serif" font-size="10.00">Application::run</text>
</a>
</g>
</g>
<!-- Node4&#45;&gt;Node5 -->
<g id="edge4" class="edge"><title>Node4&#45;&gt;Node5</title>
<path fill="none" stroke="midnightblue" d="M183.954,-41.7743C175.121,-40.4848 166.322,-39.2003 158.145,-38.0066"/>
<polygon fill="midnightblue" stroke="midnightblue" points="183.509,-45.2464 193.91,-43.2277 184.52,-38.3198 183.509,-45.2464"/>
</g>
<!-- Node6 -->
<g id="node6" class="node"><title>Node6</title>
<g id="a_node6"><a xlink:href="../../d5/d12/_main_8cpp.html#a0ddf1224851353fc92bfbff6f499fa97" target="_top" xlink:title=" ">
<polygon fill="white" stroke="black" points="0,-22.5 0,-41.5 38,-41.5 38,-22.5 0,-22.5"/>
<text text-anchor="middle" x="19" y="-29.5" font-family="Helvetica,sans-Serif" font-size="10.00">main</text>
</a>
</g>
</g>
<!-- Node5&#45;&gt;Node6 -->
<g id="edge5" class="edge"><title>Node5&#45;&gt;Node6</title>
<path fill="none" stroke="midnightblue" d="M63.6206,-32C54.5384,-32 45.6466,-32 38.2853,-32"/>
<polygon fill="midnightblue" stroke="midnightblue" points="63.8842,-35.5001 73.8841,-32 63.8841,-28.5001 63.8842,-35.5001"/>
</g>
<!-- Node8 -->
<g id="node8" class="node"><title>Node8</title>
<g id="a_node8"><a xlink:href="../../dd/d1f/class_game.html#a15ddd769261d923827a3cdf41499c843" target="_top" xlink:title=" ">
<polygon fill="white" stroke="black" points="364,-3.5 364,-22.5 440,-22.5 440,-3.5 364,-3.5"/>
<text text-anchor="middle" x="402" y="-10.5" font-family="Helvetica,sans-Serif" font-size="10.00">Game::render</text>
</a>
</g>
</g>
<!-- Node7&#45;&gt;Node8 -->
<g id="edge7" class="edge"><title>Node7&#45;&gt;Node8</title>
<path fill="none" stroke="midnightblue" d="M477.929,-11.476C464.781,-11.7434 451.582,-12.0119 440.006,-12.2473"/>
<polygon fill="midnightblue" stroke="midnightblue" points="478.02,-14.975 487.947,-11.2723 477.878,-7.97644 478.02,-14.975"/>
</g>
<!-- Node9 -->
<g id="node9" class="node"><title>Node9</title>
<g id="a_node9"><a xlink:href="../../de/d6b/class_application.html#a9ac99d97ee1cc814298a2f2388bde835" target="_top" xlink:title=" ">
<polygon fill="white" stroke="black" points="206,-3.5 206,-22.5 304,-22.5 304,-3.5 206,-3.5"/>
<text text-anchor="middle" x="255" y="-10.5" font-family="Helvetica,sans-Serif" font-size="10.00">Application::render</text>
</a>
</g>
</g>
<!-- Node8&#45;&gt;Node9 -->
<g id="edge8" class="edge"><title>Node8&#45;&gt;Node9</title>
<path fill="none" stroke="midnightblue" d="M353.551,-13C337.715,-13 320.06,-13 304.17,-13"/>
<polygon fill="midnightblue" stroke="midnightblue" points="353.659,-16.5001 363.659,-13 353.659,-9.5001 353.659,-16.5001"/>
</g>
<!-- Node9&#45;&gt;Node5 -->
<g id="edge9" class="edge"><title>Node9&#45;&gt;Node5</title>
<path fill="none" stroke="midnightblue" d="M195.682,-21.088C183.021,-22.8437 169.887,-24.6653 158.06,-26.3056"/>
<polygon fill="midnightblue" stroke="midnightblue" points="196.275,-24.5393 205.699,-19.6987 195.313,-17.6057 196.275,-24.5393"/>
</g>
</g>
</svg>
