<?xml version="1.0" encoding="UTF-8" standalone="no"?>
<!DOCTYPE svg PUBLIC "-//W3C//DTD SVG 1.1//EN"
 "http://www.w3.org/Graphics/SVG/1.1/DTD/svg11.dtd">
<!-- Generated by graphviz version 2.38.0 (20140413.2041)
 -->
<!-- Title: BoneCollisionMesh Pages: 1 -->
<svg width="213pt" height="220pt"
 viewBox="0.00 0.00 213.00 220.00" xmlns="http://www.w3.org/2000/svg" xmlns:xlink="http://www.w3.org/1999/xlink">
<g id="graph0" class="graph" transform="scale(1 1) rotate(0) translate(4 216)">
<title>BoneCollisionMesh</title>
<polygon fill="white" stroke="none" points="-4,4 -4,-216 209,-216 209,4 -4,4"/>
<!-- Node1 -->
<g id="node1" class="node"><title>Node1</title>
<g id="a_node1"><a xlink:title=" ">
<polygon fill="#bfbfbf" stroke="black" points="17,-0.5 17,-19.5 117,-19.5 117,-0.5 17,-0.5"/>
<text text-anchor="middle" x="67" y="-7.5" font-family="Helvetica,sans-Serif" font-size="10.00">BoneCollisionMesh</text>
</a>
</g>
</g>
<!-- Node2 -->
<g id="node2" class="node"><title>Node2</title>
<g id="a_node2"><a xlink:href="../../d2/d00/class_component.html" target="_top" xlink:title=" ">
<polygon fill="white" stroke="black" points="0,-57.5 0,-87.5 134,-87.5 134,-57.5 0,-57.5"/>
<text text-anchor="start" x="8" y="-75.5" font-family="Helvetica,sans-Serif" font-size="10.00">Component&lt; BoneCollision</text>
<text text-anchor="middle" x="67" y="-64.5" font-family="Helvetica,sans-Serif" font-size="10.00">Mesh &gt;</text>
</a>
</g>
</g>
<!-- Node2&#45;&gt;Node1 -->
<g id="edge1" class="edge"><title>Node2&#45;&gt;Node1</title>
<path fill="none" stroke="midnightblue" d="M67,-47.3524C67,-37.5132 67,-26.7753 67,-19.5399"/>
<polygon fill="midnightblue" stroke="midnightblue" points="63.5001,-47.468 67,-57.468 70.5001,-47.4681 63.5001,-47.468"/>
</g>
<!-- Node3 -->
<g id="node3" class="node"><title>Node3</title>
<g id="a_node3"><a xlink:href="../../d5/d79/class_component_interface.html" target="_top" xlink:title=" ">
<polygon fill="white" stroke="black" points="23.5,-192.5 23.5,-211.5 126.5,-211.5 126.5,-192.5 23.5,-192.5"/>
<text text-anchor="middle" x="75" y="-199.5" font-family="Helvetica,sans-Serif" font-size="10.00">ComponentInterface</text>
</a>
</g>
</g>
<!-- Node3&#45;&gt;Node2 -->
<g id="edge2" class="edge"><title>Node3&#45;&gt;Node2</title>
<path fill="none" stroke="midnightblue" d="M72.6365,-182.088C71.679,-173.789 70.6484,-163.923 70,-155 68.2865,-131.417 67.5319,-103.92 67.2143,-87.6512"/>
<polygon fill="midnightblue" stroke="midnightblue" points="69.1834,-182.689 73.8541,-192.198 76.1332,-181.852 69.1834,-182.689"/>
</g>
<!-- Node4 -->
<g id="node4" class="node"><title>Node4</title>
<g id="a_node4"><a xlink:href="../../d2/d00/class_component.html" target="_top" xlink:title=" ">
<polygon fill="white" stroke="black" points="79.5,-135.5 79.5,-154.5 168.5,-154.5 168.5,-135.5 79.5,-135.5"/>
<text text-anchor="middle" x="124" y="-142.5" font-family="Helvetica,sans-Serif" font-size="10.00">Component&lt; T &gt;</text>
</a>
</g>
</g>
<!-- Node3&#45;&gt;Node4 -->
<g id="edge4" class="edge"><title>Node3&#45;&gt;Node4</title>
<path fill="none" stroke="midnightblue" d="M89.4077,-184.828C98.182,-174.979 109.049,-162.782 116.236,-154.715"/>
<polygon fill="midnightblue" stroke="midnightblue" points="86.695,-182.611 82.6563,-192.406 91.9217,-187.268 86.695,-182.611"/>
</g>
<!-- Node4&#45;&gt;Node2 -->
<g id="edge3" class="edge"><title>Node4&#45;&gt;Node2</title>
<path fill="none" stroke="orange" stroke-dasharray="5,2" d="M110.573,-127.393C100.782,-115.283 87.6586,-99.0514 78.3807,-87.5762"/>
<polygon fill="orange" stroke="orange" points="108.002,-129.78 117.011,-135.355 113.445,-125.378 108.002,-129.78"/>
<text text-anchor="middle" x="152.5" y="-109" font-family="Helvetica,sans-Serif" font-size="10.00"> &lt; BoneCollisionMesh &gt;</text>
</g>
</g>
</svg>
