<?xml version="1.0" encoding="UTF-8" standalone="no"?>
<!DOCTYPE svg PUBLIC "-//W3C//DTD SVG 1.1//EN"
 "http://www.w3.org/Graphics/SVG/1.1/DTD/svg11.dtd">
<!-- Generated by graphviz version 2.38.0 (20140413.2041)
 -->
<!-- Title: src/GuiButton.h Pages: 1 -->
<!--zoomable 532 -->
<svg id="main" version="1.1" xmlns="http://www.w3.org/2000/svg" xmlns:xlink="http://www.w3.org/1999/xlink" xml:space="preserve" onload="init(evt)">
<style type="text/css"><![CDATA[
.edge:hover path { stroke: red; }
.edge:hover polygon { stroke: red; fill: red; }
]]></style>
<script type="text/javascript"><![CDATA[
var edges = document.getElementsByTagName('g');
if (edges && edges.length) {
  for (var i=0;i<edges.length;i++) {
    if (edges[i].id.substr(0,4)=='edge') {
      edges[i].setAttribute('class','edge');
    }
  }
}
]]></script>
        <defs>
                <circle id="rim" cx="0" cy="0" r="7"/>
                <circle id="rim2" cx="0" cy="0" r="3.5"/>
                <g id="zoomPlus">
                        <use xlink:href="#rim" fill="#404040">
                                <set attributeName="fill" to="#808080" begin="zoomplus.mouseover" end="zoomplus.mouseout"/>
                        </use>
                        <path d="M-4,0h8M0,-4v8" fill="none" stroke="white" stroke-width="1.5" pointer-events="none"/>
                </g>
                <g id="zoomMin">
                        <use xlink:href="#rim" fill="#404040">
                                <set attributeName="fill" to="#808080" begin="zoomminus.mouseover" end="zoomminus.mouseout"/>
                        </use>
                        <path d="M-4,0h8" fill="none" stroke="white" stroke-width="1.5" pointer-events="none"/>
                </g>
                <g id="dirArrow">
                        <path fill="none" stroke="white" stroke-width="1.5" d="M0,-3.0v7 M-2.5,-0.5L0,-3.0L2.5,-0.5"/>
                </g>
               <g id="resetDef">
                       <use xlink:href="#rim2" fill="#404040">
                               <set attributeName="fill" to="#808080" begin="reset.mouseover" end="reset.mouseout"/>
                       </use>
               </g>
        </defs>

<script type="text/javascript">
var viewWidth = 534;
var viewHeight = 532;
var sectionId = 'dynsection-1';
</script>
<script xlink:href="../../svgpan.js"/>
<svg id="graph" class="graph">
<g id="viewport">
<title>src/GuiButton.h</title>
<polygon fill="white" stroke="none" points="-4,4 -4,-528 529.5,-528 529.5,4 -4,4"/>
<!-- Node1 -->
<g id="node1" class="node"><title>Node1</title>
<g id="a_node1"><a xlink:title=" ">
<polygon fill="#bfbfbf" stroke="black" points="300.5,-504.5 300.5,-523.5 385.5,-523.5 385.5,-504.5 300.5,-504.5"/>
<text text-anchor="middle" x="343" y="-511.5" font-family="Helvetica,sans-Serif" font-size="10.00">src/GuiButton.h</text>
</a>
</g>
</g>
<!-- Node2 -->
<g id="node2" class="node"><title>Node2</title>
<g id="a_node2"><a xlink:href="../../db/d30/_pause_menu_8h.html" target="_top" xlink:title=" ">
<polygon fill="white" stroke="black" points="296.5,-448.5 296.5,-467.5 389.5,-467.5 389.5,-448.5 296.5,-448.5"/>
<text text-anchor="middle" x="343" y="-455.5" font-family="Helvetica,sans-Serif" font-size="10.00">src/PauseMenu.h</text>
</a>
</g>
</g>
<!-- Node1&#45;&gt;Node2 -->
<g id="edge1" class="edge"><title>Node1&#45;&gt;Node2</title>
<path fill="none" stroke="midnightblue" d="M343,-493.805C343,-484.91 343,-474.78 343,-467.751"/>
<polygon fill="midnightblue" stroke="midnightblue" points="339.5,-494.083 343,-504.083 346.5,-494.083 339.5,-494.083"/>
</g>
<!-- Node14 -->
<g id="node14" class="node"><title>Node14</title>
<g id="a_node14"><a xlink:href="../../db/d81/_fixed_updating_system_8h.html" target="_top" xlink:title=" ">
<polygon fill="white" stroke="black" points="5.5,-224.5 5.5,-243.5 142.5,-243.5 142.5,-224.5 5.5,-224.5"/>
<text text-anchor="middle" x="74" y="-231.5" font-family="Helvetica,sans-Serif" font-size="10.00">src/FixedUpdatingSystem.h</text>
</a>
</g>
</g>
<!-- Node1&#45;&gt;Node14 -->
<g id="edge23" class="edge"><title>Node1&#45;&gt;Node14</title>
<path fill="none" stroke="midnightblue" d="M290.214,-509.299C225.125,-501.533 123,-477.482 123,-403 123,-403 123,-403 123,-345 123,-304.024 94.2771,-261.312 80.8132,-243.542"/>
<polygon fill="midnightblue" stroke="midnightblue" points="289.998,-512.796 300.321,-510.41 290.764,-505.838 289.998,-512.796"/>
</g>
<!-- Node16 -->
<g id="node16" class="node"><title>Node16</title>
<g id="a_node16"><a xlink:href="../../da/d66/_rendering_system_8h.html" target="_top" xlink:title=" ">
<polygon fill="white" stroke="black" points="396.5,-224.5 396.5,-243.5 515.5,-243.5 515.5,-224.5 396.5,-224.5"/>
<text text-anchor="middle" x="456" y="-231.5" font-family="Helvetica,sans-Serif" font-size="10.00">src/RenderingSystem.h</text>
</a>
</g>
</g>
<!-- Node1&#45;&gt;Node16 -->
<g id="edge24" class="edge"><title>Node1&#45;&gt;Node16</title>
<path fill="none" stroke="midnightblue" d="M378.041,-500.75C416.544,-484.787 473,-452.877 473,-403 473,-403 473,-403 473,-345 473,-306.932 462.933,-262.313 458.293,-243.769"/>
<polygon fill="midnightblue" stroke="midnightblue" points="376.686,-497.522 368.684,-504.466 379.27,-504.028 376.686,-497.522"/>
</g>
<!-- Node3 -->
<g id="node3" class="node"><title>Node3</title>
<g id="a_node3"><a xlink:href="../../da/d03/_entity_tests_8h.html" target="_top" xlink:title=" ">
<polygon fill="white" stroke="black" points="170.5,-392.5 170.5,-411.5 261.5,-411.5 261.5,-392.5 170.5,-392.5"/>
<text text-anchor="middle" x="216" y="-399.5" font-family="Helvetica,sans-Serif" font-size="10.00">src/EntityTests.h</text>
</a>
</g>
</g>
<!-- Node2&#45;&gt;Node3 -->
<g id="edge2" class="edge"><title>Node2&#45;&gt;Node3</title>
<path fill="none" stroke="midnightblue" d="M313.609,-444.503C289.8,-434.38 256.894,-420.388 236.029,-411.516"/>
<polygon fill="midnightblue" stroke="midnightblue" points="312.304,-447.751 322.876,-448.444 315.043,-441.31 312.304,-447.751"/>
</g>
<!-- Node11 -->
<g id="node11" class="node"><title>Node11</title>
<g id="a_node11"><a xlink:href="../../d8/dd5/_pause_menu_system_8h.html" target="_top" xlink:title=" ">
<polygon fill="white" stroke="black" points="279.5,-392.5 279.5,-411.5 406.5,-411.5 406.5,-392.5 279.5,-392.5"/>
<text text-anchor="middle" x="343" y="-399.5" font-family="Helvetica,sans-Serif" font-size="10.00">src/PauseMenuSystem.h</text>
</a>
</g>
</g>
<!-- Node2&#45;&gt;Node11 -->
<g id="edge10" class="edge"><title>Node2&#45;&gt;Node11</title>
<path fill="none" stroke="midnightblue" d="M343,-437.805C343,-428.91 343,-418.78 343,-411.751"/>
<polygon fill="midnightblue" stroke="midnightblue" points="339.5,-438.083 343,-448.083 346.5,-438.083 339.5,-438.083"/>
</g>
<!-- Node18 -->
<g id="node18" class="node"><title>Node18</title>
<g id="a_node18"><a xlink:href="../../db/dc0/_updating_system_8h.html" target="_top" xlink:title=" ">
<polygon fill="white" stroke="black" points="261.5,-224.5 261.5,-243.5 374.5,-243.5 374.5,-224.5 261.5,-224.5"/>
<text text-anchor="middle" x="318" y="-231.5" font-family="Helvetica,sans-Serif" font-size="10.00">src/UpdatingSystem.h</text>
</a>
</g>
</g>
<!-- Node2&#45;&gt;Node18 -->
<g id="edge22" class="edge"><title>Node2&#45;&gt;Node18</title>
<path fill="none" stroke="midnightblue" d="M377.543,-444.171C391.752,-437 406.781,-426.522 415,-412 431.639,-382.601 422.286,-369.191 416,-336 411.024,-309.726 411.334,-300.361 394,-280 379.686,-263.187 357.429,-251.05 340.693,-243.649"/>
<polygon fill="midnightblue" stroke="midnightblue" points="375.999,-441.029 368.403,-448.415 378.947,-447.378 375.999,-441.029"/>
</g>
<!-- Node4 -->
<g id="node4" class="node"><title>Node4</title>
<g id="a_node4"><a xlink:href="../../d9/dcd/_game_8h.html" target="_top" xlink:title=" ">
<polygon fill="white" stroke="black" points="167,-168.5 167,-187.5 235,-187.5 235,-168.5 167,-168.5"/>
<text text-anchor="middle" x="201" y="-175.5" font-family="Helvetica,sans-Serif" font-size="10.00">src/Game.h</text>
</a>
</g>
</g>
<!-- Node3&#45;&gt;Node4 -->
<g id="edge3" class="edge"><title>Node3&#45;&gt;Node4</title>
<path fill="none" stroke="midnightblue" d="M198.6,-384.819C191.367,-376.916 183.785,-366.791 180,-356 158.387,-294.387 186.668,-214.097 197.278,-187.773"/>
<polygon fill="midnightblue" stroke="midnightblue" points="196.333,-387.506 205.838,-392.185 201.326,-382.6 196.333,-387.506"/>
</g>
<!-- Node10 -->
<g id="node10" class="node"><title>Node10</title>
<g id="a_node10"><a xlink:href="../../de/d4c/_entity_tests_8cpp.html" target="_top" xlink:title=" ">
<polygon fill="white" stroke="black" points="189.5,-336.5 189.5,-355.5 290.5,-355.5 290.5,-336.5 189.5,-336.5"/>
<text text-anchor="middle" x="240" y="-343.5" font-family="Helvetica,sans-Serif" font-size="10.00">src/EntityTests.cpp</text>
</a>
</g>
</g>
<!-- Node3&#45;&gt;Node10 -->
<g id="edge9" class="edge"><title>Node3&#45;&gt;Node10</title>
<path fill="none" stroke="midnightblue" d="M224.138,-382.69C228.183,-373.589 232.883,-363.014 236.111,-355.751"/>
<polygon fill="midnightblue" stroke="midnightblue" points="220.826,-381.523 219.963,-392.083 227.223,-384.366 220.826,-381.523"/>
</g>
<!-- Node5 -->
<g id="node5" class="node"><title>Node5</title>
<g id="a_node5"><a xlink:href="../../d9/da3/_application_8h.html" target="_top" xlink:title=" ">
<polygon fill="white" stroke="black" points="105.5,-112.5 105.5,-131.5 194.5,-131.5 194.5,-112.5 105.5,-112.5"/>
<text text-anchor="middle" x="150" y="-119.5" font-family="Helvetica,sans-Serif" font-size="10.00">src/Application.h</text>
</a>
</g>
</g>
<!-- Node4&#45;&gt;Node5 -->
<g id="edge4" class="edge"><title>Node4&#45;&gt;Node5</title>
<path fill="none" stroke="midnightblue" d="M185.622,-160.718C176.633,-151.2 165.641,-139.561 158.265,-131.751"/>
<polygon fill="midnightblue" stroke="midnightblue" points="183.168,-163.216 192.578,-168.083 188.257,-158.41 183.168,-163.216"/>
</g>
<!-- Node9 -->
<g id="node9" class="node"><title>Node9</title>
<g id="a_node9"><a xlink:href="../../d7/db5/_game_8cpp.html" target="_top" xlink:title=" ">
<polygon fill="white" stroke="black" points="213,-112.5 213,-131.5 291,-131.5 291,-112.5 213,-112.5"/>
<text text-anchor="middle" x="252" y="-119.5" font-family="Helvetica,sans-Serif" font-size="10.00">src/Game.cpp</text>
</a>
</g>
</g>
<!-- Node4&#45;&gt;Node9 -->
<g id="edge8" class="edge"><title>Node4&#45;&gt;Node9</title>
<path fill="none" stroke="midnightblue" d="M216.378,-160.718C225.367,-151.2 236.359,-139.561 243.735,-131.751"/>
<polygon fill="midnightblue" stroke="midnightblue" points="213.743,-158.41 209.422,-168.083 218.832,-163.216 213.743,-158.41"/>
</g>
<!-- Node6 -->
<g id="node6" class="node"><title>Node6</title>
<g id="a_node6"><a xlink:href="../../d0/d42/_application_8cpp.html" target="_top" xlink:title=" ">
<polygon fill="white" stroke="black" points="51,-56.5 51,-75.5 151,-75.5 151,-56.5 51,-56.5"/>
<text text-anchor="middle" x="101" y="-63.5" font-family="Helvetica,sans-Serif" font-size="10.00">src/Application.cpp</text>
</a>
</g>
</g>
<!-- Node5&#45;&gt;Node6 -->
<g id="edge5" class="edge"><title>Node5&#45;&gt;Node6</title>
<path fill="none" stroke="midnightblue" d="M134.966,-104.431C126.378,-94.9673 115.957,-83.4827 108.941,-75.7511"/>
<polygon fill="midnightblue" stroke="midnightblue" points="132.597,-107.029 141.909,-112.083 137.781,-102.325 132.597,-107.029"/>
</g>
<!-- Node7 -->
<g id="node7" class="node"><title>Node7</title>
<g id="a_node7"><a xlink:href="../../d4/dbf/main_8h.html" target="_top" xlink:title=" ">
<polygon fill="white" stroke="black" points="169,-56.5 169,-75.5 231,-75.5 231,-56.5 169,-56.5"/>
<text text-anchor="middle" x="200" y="-63.5" font-family="Helvetica,sans-Serif" font-size="10.00">src/main.h</text>
</a>
</g>
</g>
<!-- Node5&#45;&gt;Node7 -->
<g id="edge6" class="edge"><title>Node5&#45;&gt;Node7</title>
<path fill="none" stroke="midnightblue" d="M165.076,-104.718C173.889,-95.1997 184.666,-83.5608 191.897,-75.7511"/>
<polygon fill="midnightblue" stroke="midnightblue" points="162.482,-102.367 158.256,-112.083 167.619,-107.123 162.482,-102.367"/>
</g>
<!-- Node8 -->
<g id="node8" class="node"><title>Node8</title>
<g id="a_node8"><a xlink:href="../../d5/d12/_main_8cpp.html" target="_top" xlink:title=" ">
<polygon fill="white" stroke="black" points="163.5,-0.5 163.5,-19.5 236.5,-19.5 236.5,-0.5 163.5,-0.5"/>
<text text-anchor="middle" x="200" y="-7.5" font-family="Helvetica,sans-Serif" font-size="10.00">src/Main.cpp</text>
</a>
</g>
</g>
<!-- Node7&#45;&gt;Node8 -->
<g id="edge7" class="edge"><title>Node7&#45;&gt;Node8</title>
<path fill="none" stroke="midnightblue" d="M200,-45.8045C200,-36.9102 200,-26.7798 200,-19.7511"/>
<polygon fill="midnightblue" stroke="midnightblue" points="196.5,-46.083 200,-56.083 203.5,-46.083 196.5,-46.083"/>
</g>
<!-- Node12 -->
<g id="node12" class="node"><title>Node12</title>
<g id="a_node12"><a xlink:href="../../d8/dc4/_sub_systems_8h.html" target="_top" xlink:title=" ">
<polygon fill="white" stroke="black" points="309,-336.5 309,-355.5 407,-355.5 407,-336.5 309,-336.5"/>
<text text-anchor="middle" x="358" y="-343.5" font-family="Helvetica,sans-Serif" font-size="10.00">src/SubSystems.h</text>
</a>
</g>
</g>
<!-- Node11&#45;&gt;Node12 -->
<g id="edge11" class="edge"><title>Node11&#45;&gt;Node12</title>
<path fill="none" stroke="midnightblue" d="M348.168,-382.396C350.677,-373.362 353.573,-362.936 355.569,-355.751"/>
<polygon fill="midnightblue" stroke="midnightblue" points="344.781,-381.511 345.477,-392.083 351.526,-383.385 344.781,-381.511"/>
</g>
<!-- Node13 -->
<g id="node13" class="node"><title>Node13</title>
<g id="a_node13"><a xlink:href="../../dc/d18/_system_base_8h.html" target="_top" xlink:title=" ">
<polygon fill="white" stroke="black" points="287,-280.5 287,-299.5 385,-299.5 385,-280.5 287,-280.5"/>
<text text-anchor="middle" x="336" y="-287.5" font-family="Helvetica,sans-Serif" font-size="10.00">src/SystemBase.h</text>
</a>
</g>
</g>
<!-- Node12&#45;&gt;Node13 -->
<g id="edge12" class="edge"><title>Node12&#45;&gt;Node13</title>
<path fill="none" stroke="midnightblue" d="M350.54,-326.69C346.833,-317.589 342.524,-307.014 339.565,-299.751"/>
<polygon fill="midnightblue" stroke="midnightblue" points="347.353,-328.143 354.367,-336.083 353.835,-325.502 347.353,-328.143"/>
</g>
<!-- Node13&#45;&gt;Node14 -->
<g id="edge13" class="edge"><title>Node13&#45;&gt;Node14</title>
<path fill="none" stroke="midnightblue" d="M284.617,-278.41C235.102,-268.204 161.138,-252.96 115.32,-243.516"/>
<polygon fill="midnightblue" stroke="midnightblue" points="283.985,-281.853 294.485,-280.444 285.398,-274.997 283.985,-281.853"/>
</g>
<!-- Node13&#45;&gt;Node16 -->
<g id="edge16" class="edge"><title>Node13&#45;&gt;Node16</title>
<path fill="none" stroke="midnightblue" d="M364.373,-276.232C386.82,-266.131 417.535,-252.309 437.075,-243.516"/>
<polygon fill="midnightblue" stroke="midnightblue" points="362.697,-273.148 355.014,-280.444 365.57,-279.532 362.697,-273.148"/>
</g>
<!-- Node13&#45;&gt;Node18 -->
<g id="edge19" class="edge"><title>Node13&#45;&gt;Node18</title>
<path fill="none" stroke="midnightblue" d="M329.799,-270.396C326.787,-261.362 323.312,-250.936 320.917,-243.751"/>
<polygon fill="midnightblue" stroke="midnightblue" points="326.545,-271.703 333.028,-280.083 333.186,-269.489 326.545,-271.703"/>
</g>
<!-- Node14&#45;&gt;Node4 -->
<g id="edge14" class="edge"><title>Node14&#45;&gt;Node4</title>
<path fill="none" stroke="midnightblue" d="M103.391,-220.503C127.2,-210.38 160.106,-196.388 180.971,-187.516"/>
<polygon fill="midnightblue" stroke="midnightblue" points="101.957,-217.31 94.1235,-224.444 104.696,-223.751 101.957,-217.31"/>
</g>
<!-- Node15 -->
<g id="node15" class="node"><title>Node15</title>
<g id="a_node15"><a xlink:href="../../d0/d56/_fixed_updating_system_8cpp.html" target="_top" xlink:title=" ">
<polygon fill="white" stroke="black" points="0,-168.5 0,-187.5 148,-187.5 148,-168.5 0,-168.5"/>
<text text-anchor="middle" x="74" y="-175.5" font-family="Helvetica,sans-Serif" font-size="10.00">src/FixedUpdatingSystem.cpp</text>
</a>
</g>
</g>
<!-- Node14&#45;&gt;Node15 -->
<g id="edge15" class="edge"><title>Node14&#45;&gt;Node15</title>
<path fill="none" stroke="midnightblue" d="M74,-213.805C74,-204.91 74,-194.78 74,-187.751"/>
<polygon fill="midnightblue" stroke="midnightblue" points="70.5001,-214.083 74,-224.083 77.5001,-214.083 70.5001,-214.083"/>
</g>
<!-- Node16&#45;&gt;Node4 -->
<g id="edge17" class="edge"><title>Node16&#45;&gt;Node4</title>
<path fill="none" stroke="midnightblue" d="M405.55,-222.316C355.081,-211.629 278.84,-195.484 235.096,-186.22"/>
<polygon fill="midnightblue" stroke="midnightblue" points="405.086,-225.796 415.594,-224.444 406.537,-218.948 405.086,-225.796"/>
</g>
<!-- Node17 -->
<g id="node17" class="node"><title>Node17</title>
<g id="a_node17"><a xlink:href="../../d2/db8/_rendering_system_8cpp.html" target="_top" xlink:title=" ">
<polygon fill="white" stroke="black" points="396.5,-168.5 396.5,-187.5 525.5,-187.5 525.5,-168.5 396.5,-168.5"/>
<text text-anchor="middle" x="461" y="-175.5" font-family="Helvetica,sans-Serif" font-size="10.00">src/RenderingSystem.cpp</text>
</a>
</g>
</g>
<!-- Node16&#45;&gt;Node17 -->
<g id="edge18" class="edge"><title>Node16&#45;&gt;Node17</title>
<path fill="none" stroke="midnightblue" d="M457.75,-214.101C458.58,-205.136 459.532,-194.858 460.19,-187.751"/>
<polygon fill="midnightblue" stroke="midnightblue" points="454.263,-213.803 456.826,-224.083 461.233,-214.448 454.263,-213.803"/>
</g>
<!-- Node18&#45;&gt;Node4 -->
<g id="edge20" class="edge"><title>Node18&#45;&gt;Node4</title>
<path fill="none" stroke="midnightblue" d="M290.336,-220.232C268.451,-210.131 238.503,-196.309 219.452,-187.516"/>
<polygon fill="midnightblue" stroke="midnightblue" points="288.915,-223.431 299.461,-224.444 291.848,-217.075 288.915,-223.431"/>
</g>
<!-- Node19 -->
<g id="node19" class="node"><title>Node19</title>
<g id="a_node19"><a xlink:href="../../d7/d1d/_updating_system_8cpp.html" target="_top" xlink:title=" ">
<polygon fill="white" stroke="black" points="254,-168.5 254,-187.5 378,-187.5 378,-168.5 254,-168.5"/>
<text text-anchor="middle" x="316" y="-175.5" font-family="Helvetica,sans-Serif" font-size="10.00">src/UpdatingSystem.cpp</text>
</a>
</g>
</g>
<!-- Node18&#45;&gt;Node19 -->
<g id="edge21" class="edge"><title>Node18&#45;&gt;Node19</title>
<path fill="none" stroke="midnightblue" d="M317.289,-213.805C316.96,-204.91 316.584,-194.78 316.324,-187.751"/>
<polygon fill="midnightblue" stroke="midnightblue" points="313.802,-214.219 317.67,-224.083 320.797,-213.96 313.802,-214.219"/>
</g>
</g>
</svg>
        <g id="navigator" transform="translate(0 0)" fill="#404254">
                <rect fill="#f2f5e9" fill-opacity="0.5" stroke="#606060" stroke-width=".5" x="0" y="0" width="60" height="60"/>
                <use id="zoomplus" xlink:href="#zoomPlus" x="17" y="9" onmousedown="handleZoom(evt,'in')"/>
                <use id="zoomminus" xlink:href="#zoomMin" x="42" y="9" onmousedown="handleZoom(evt,'out')"/>
                <use id="reset" xlink:href="#resetDef" x="30" y="36" onmousedown="handleReset()"/>
                <g id="arrowUp" xlink:href="#dirArrow" transform="translate(30 24)" onmousedown="handlePan(0,-1)">
                  <use xlink:href="#rim" fill="#404040">
                        <set attributeName="fill" to="#808080" begin="arrowUp.mouseover" end="arrowUp.mouseout"/>
                  </use>
                  <path fill="none" stroke="white" stroke-width="1.5" d="M0,-3.0v7 M-2.5,-0.5L0,-3.0L2.5,-0.5"/>
                </g>
                <g id="arrowRight" xlink:href="#dirArrow" transform="rotate(90) translate(36 -43)" onmousedown="handlePan(1,0)">
                  <use xlink:href="#rim" fill="#404040">
                        <set attributeName="fill" to="#808080" begin="arrowRight.mouseover" end="arrowRight.mouseout"/>
                  </use>
                  <path fill="none" stroke="white" stroke-width="1.5" d="M0,-3.0v7 M-2.5,-0.5L0,-3.0L2.5,-0.5"/>
                </g>
                <g id="arrowDown" xlink:href="#dirArrow" transform="rotate(180) translate(-30 -48)" onmousedown="handlePan(0,1)">
                  <use xlink:href="#rim" fill="#404040">
                        <set attributeName="fill" to="#808080" begin="arrowDown.mouseover" end="arrowDown.mouseout"/>
                  </use>
                  <path fill="none" stroke="white" stroke-width="1.5" d="M0,-3.0v7 M-2.5,-0.5L0,-3.0L2.5,-0.5"/>
                </g>
                <g id="arrowLeft" xlink:href="#dirArrow" transform="rotate(270) translate(-36 17)" onmousedown="handlePan(-1,0)">
                  <use xlink:href="#rim" fill="#404040">
                        <set attributeName="fill" to="#808080" begin="arrowLeft.mouseover" end="arrowLeft.mouseout"/>
                  </use>
                  <path fill="none" stroke="white" stroke-width="1.5" d="M0,-3.0v7 M-2.5,-0.5L0,-3.0L2.5,-0.5"/>
                </g>
        </g>
        <svg viewBox="0 0 15 15" width="100%" height="30px" preserveAspectRatio="xMaxYMin meet">
         <g id="arrow_out" transform="scale(0.3 0.3)">
          <a xlink:href="_gui_button_8h__dep__incl_org.svg" target="_base">
           <rect id="button" ry="5" rx="5" y="6" x="6" height="38" width="38"
                fill="#f2f5e9" fill-opacity="0.5" stroke="#606060" stroke-width="1.0"/>
           <path id="arrow"
             d="M 11.500037,31.436501 C 11.940474,20.09759 22.043105,11.32322 32.158766,21.979434 L 37.068811,17.246167 C 37.068811,17.246167 37.088388,32 37.088388,32 L 22.160133,31.978069 C 22.160133,31.978069 26.997745,27.140456 26.997745,27.140456 C 18.528582,18.264221 13.291696,25.230495 11.500037,31.436501 z"
             style="fill:#404040;"/>
          </a>
         </g>
        </svg>
</svg>
