<?xml version="1.0" encoding="UTF-8" standalone="no"?>
<!DOCTYPE svg PUBLIC "-//W3C//DTD SVG 1.1//EN"
 "http://www.w3.org/Graphics/SVG/1.1/DTD/svg11.dtd">
<!-- Generated by graphviz version 2.38.0 (20140413.2041)
 -->
<!-- Title: RenderingSystem Pages: 1 -->
<svg width="1519pt" height="540pt"
 viewBox="0.00 0.00 1519.00 540.30" xmlns="http://www.w3.org/2000/svg" xmlns:xlink="http://www.w3.org/1999/xlink">
<g id="graph0" class="graph" transform="scale(1 1) rotate(0) translate(4 536.296)">
<title>RenderingSystem</title>
<polygon fill="white" stroke="none" points="-4,4 -4,-536.296 1515,-536.296 1515,4 -4,4"/>
<!-- Node1 -->
<g id="node1" class="node"><title>Node1</title>
<g id="a_node1"><a xlink:title=" ">
<polygon fill="#bfbfbf" stroke="black" points="1417,-358.796 1417,-377.796 1511,-377.796 1511,-358.796 1417,-358.796"/>
<text text-anchor="middle" x="1464" y="-365.796" font-family="Helvetica,sans-Serif" font-size="10.00">RenderingSystem</text>
</a>
</g>
</g>
<!-- Node2 -->
<g id="node2" class="node"><title>Node2</title>
<g id="a_node2"><a xlink:href="../../d2/d15/class_system_base.html" target="_top" xlink:title=" ">
<polygon fill="white" stroke="black" points="1255,-358.796 1255,-377.796 1328,-377.796 1328,-358.796 1255,-358.796"/>
<text text-anchor="middle" x="1291.5" y="-365.796" font-family="Helvetica,sans-Serif" font-size="10.00">SystemBase</text>
</a>
</g>
</g>
<!-- Node2&#45;&gt;Node1 -->
<g id="edge1" class="edge"><title>Node2&#45;&gt;Node1</title>
<path fill="none" stroke="midnightblue" d="M1338.31,-368.296C1362.67,-368.296 1392.53,-368.296 1416.92,-368.296"/>
<polygon fill="midnightblue" stroke="midnightblue" points="1338.24,-364.796 1328.24,-368.296 1338.24,-371.796 1338.24,-364.796"/>
</g>
<!-- Node3 -->
<g id="node3" class="node"><title>Node3</title>
<g id="a_node3"><a xlink:href="../../d5/d44/class_physics_world.html" target="_top" xlink:title=" ">
<polygon fill="white" stroke="black" points="1072,-426.796 1072,-445.796 1149,-445.796 1149,-426.796 1072,-426.796"/>
<text text-anchor="middle" x="1110.5" y="-433.796" font-family="Helvetica,sans-Serif" font-size="10.00">PhysicsWorld</text>
</a>
</g>
</g>
<!-- Node3&#45;&gt;Node2 -->
<g id="edge2" class="edge"><title>Node3&#45;&gt;Node2</title>
<path fill="none" stroke="#9a32cd" stroke-dasharray="5,2" d="M1146.56,-422.976C1181.53,-409.693 1234.37,-389.618 1265.36,-377.845"/>
<polygon fill="#9a32cd" stroke="#9a32cd" points="1144.87,-419.874 1136.77,-426.697 1147.36,-426.418 1144.87,-419.874"/>
<text text-anchor="middle" x="1202" y="-418.296" font-family="Helvetica,sans-Serif" font-size="10.00"> physicsWorld</text>
</g>
<!-- Node4 -->
<g id="node4" class="node"><title>Node4</title>
<g id="a_node4"><a xlink:href="../../d1/da2/class_debug_drawer.html" target="_top" xlink:title=" ">
<polygon fill="white" stroke="black" points="789.5,-445.796 789.5,-464.796 863.5,-464.796 863.5,-445.796 789.5,-445.796"/>
<text text-anchor="middle" x="826.5" y="-452.796" font-family="Helvetica,sans-Serif" font-size="10.00">DebugDrawer</text>
</a>
</g>
</g>
<!-- Node4&#45;&gt;Node3 -->
<g id="edge3" class="edge"><title>Node4&#45;&gt;Node3</title>
<path fill="none" stroke="#9a32cd" stroke-dasharray="5,2" d="M873.731,-452.181C929.083,-448.451 1020.71,-442.278 1071.92,-438.828"/>
<polygon fill="#9a32cd" stroke="#9a32cd" points="873.244,-448.705 863.502,-452.87 873.715,-455.69 873.244,-448.705"/>
<text text-anchor="middle" x="986.5" y="-452.296" font-family="Helvetica,sans-Serif" font-size="10.00"> debugDrawer</text>
</g>
<!-- Node5 -->
<g id="node5" class="node"><title>Node5</title>
<g id="a_node5"><a xlink:title=" ">
<polygon fill="white" stroke="#bfbfbf" points="571,-428.796 571,-447.796 648,-447.796 648,-428.796 571,-428.796"/>
<text text-anchor="middle" x="609.5" y="-435.796" font-family="Helvetica,sans-Serif" font-size="10.00">btIDebugDraw</text>
</a>
</g>
</g>
<!-- Node5&#45;&gt;Node4 -->
<g id="edge4" class="edge"><title>Node5&#45;&gt;Node4</title>
<path fill="none" stroke="midnightblue" d="M658.657,-442.103C698.251,-445.234 753.485,-449.601 789.368,-452.439"/>
<polygon fill="midnightblue" stroke="midnightblue" points="658.688,-438.595 648.443,-441.296 658.136,-445.573 658.688,-438.595"/>
</g>
<!-- Node6 -->
<g id="node6" class="node"><title>Node6</title>
<g id="a_node6"><a xlink:href="../../d1/d51/class_shader.html" target="_top" xlink:title=" ">
<polygon fill="white" stroke="black" points="586,-474.796 586,-493.796 633,-493.796 633,-474.796 586,-474.796"/>
<text text-anchor="middle" x="609.5" y="-481.796" font-family="Helvetica,sans-Serif" font-size="10.00">Shader</text>
</a>
</g>
</g>
<!-- Node6&#45;&gt;Node1 -->
<g id="edge31" class="edge"><title>Node6&#45;&gt;Node1</title>
<path fill="none" stroke="#9a32cd" stroke-dasharray="5,2" d="M643.285,-487.513C685.412,-491.362 760.828,-497.296 825.5,-497.296 825.5,-497.296 825.5,-497.296 1292.5,-497.296 1371.56,-497.296 1437.09,-407.992 1456.88,-377.992"/>
<polygon fill="#9a32cd" stroke="#9a32cd" points="643.351,-484.004 633.069,-486.56 642.701,-490.974 643.351,-484.004"/>
<text text-anchor="middle" x="1110.5" y="-511.296" font-family="Helvetica,sans-Serif" font-size="10.00"> depthShader</text>
<text text-anchor="middle" x="1110.5" y="-500.296" font-family="Helvetica,sans-Serif" font-size="10.00">screenShader</text>
</g>
<!-- Node6&#45;&gt;Node4 -->
<g id="edge5" class="edge"><title>Node6&#45;&gt;Node4</title>
<path fill="none" stroke="#9a32cd" stroke-dasharray="5,2" d="M643.418,-478.617C656.086,-476.511 670.698,-474.18 684,-472.296 719.767,-467.23 760.761,-462.413 789.387,-459.208"/>
<polygon fill="#9a32cd" stroke="#9a32cd" points="642.587,-475.207 633.306,-480.317 643.748,-482.11 642.587,-475.207"/>
<text text-anchor="middle" x="709" y="-475.296" font-family="Helvetica,sans-Serif" font-size="10.00"> thisShader</text>
</g>
<!-- Node7 -->
<g id="node7" class="node"><title>Node7</title>
<g id="a_node7"><a xlink:href="../../d2/d00/class_component.html" target="_top" xlink:title=" ">
<polygon fill="white" stroke="black" points="339.5,-474.796 339.5,-493.796 454.5,-493.796 454.5,-474.796 339.5,-474.796"/>
<text text-anchor="middle" x="397" y="-481.796" font-family="Helvetica,sans-Serif" font-size="10.00">Component&lt; Shader &gt;</text>
</a>
</g>
</g>
<!-- Node7&#45;&gt;Node6 -->
<g id="edge6" class="edge"><title>Node7&#45;&gt;Node6</title>
<path fill="none" stroke="midnightblue" d="M464.762,-484.296C506.331,-484.296 557.19,-484.296 585.913,-484.296"/>
<polygon fill="midnightblue" stroke="midnightblue" points="464.687,-480.796 454.687,-484.296 464.687,-487.796 464.687,-480.796"/>
</g>
<!-- Node8 -->
<g id="node8" class="node"><title>Node8</title>
<g id="a_node8"><a xlink:href="../../d5/d79/class_component_interface.html" target="_top" xlink:title=" ">
<polygon fill="white" stroke="black" points="0,-432.796 0,-451.796 103,-451.796 103,-432.796 0,-432.796"/>
<text text-anchor="middle" x="51.5" y="-439.796" font-family="Helvetica,sans-Serif" font-size="10.00">ComponentInterface</text>
</a>
</g>
</g>
<!-- Node8&#45;&gt;Node7 -->
<g id="edge7" class="edge"><title>Node8&#45;&gt;Node7</title>
<path fill="none" stroke="midnightblue" d="M102.836,-453.98C114.967,-456.587 127.915,-459.197 140,-461.296 187.254,-469.502 199.256,-470.736 247,-475.296 277.441,-478.203 311.477,-480.342 339.325,-481.804"/>
<polygon fill="midnightblue" stroke="midnightblue" points="103.392,-450.519 92.8752,-451.802 101.897,-457.357 103.392,-450.519"/>
</g>
<!-- Node9 -->
<g id="node9" class="node"><title>Node9</title>
<g id="a_node9"><a xlink:href="../../d2/d00/class_component.html" target="_top" xlink:title=" ">
<polygon fill="white" stroke="black" points="140,-432.796 140,-451.796 229,-451.796 229,-432.796 140,-432.796"/>
<text text-anchor="middle" x="184.5" y="-439.796" font-family="Helvetica,sans-Serif" font-size="10.00">Component&lt; T &gt;</text>
</a>
</g>
</g>
<!-- Node8&#45;&gt;Node9 -->
<g id="edge9" class="edge"><title>Node8&#45;&gt;Node9</title>
<path fill="none" stroke="midnightblue" d="M113.194,-442.296C122.17,-442.296 131.266,-442.296 139.805,-442.296"/>
<polygon fill="midnightblue" stroke="midnightblue" points="113.148,-438.796 103.148,-442.296 113.148,-445.796 113.148,-438.796"/>
</g>
<!-- Node19 -->
<g id="node19" class="node"><title>Node19</title>
<g id="a_node19"><a xlink:href="../../d2/d00/class_component.html" target="_top" xlink:title=" ">
<polygon fill="white" stroke="black" points="332,-390.796 332,-409.796 462,-409.796 462,-390.796 332,-390.796"/>
<text text-anchor="middle" x="397" y="-397.796" font-family="Helvetica,sans-Serif" font-size="10.00">Component&lt; RayCaster &gt;</text>
</a>
</g>
</g>
<!-- Node8&#45;&gt;Node19 -->
<g id="edge20" class="edge"><title>Node8&#45;&gt;Node19</title>
<path fill="none" stroke="midnightblue" d="M101.327,-430.571C113.873,-427.868 127.39,-425.223 140,-423.296 204.953,-413.365 279.882,-407.249 331.822,-403.845"/>
<polygon fill="midnightblue" stroke="midnightblue" points="100.519,-427.165 91.5086,-432.739 102.028,-434 100.519,-427.165"/>
</g>
<!-- Node9&#45;&gt;Node7 -->
<g id="edge8" class="edge"><title>Node9&#45;&gt;Node7</title>
<path fill="none" stroke="orange" stroke-dasharray="5,2" d="M239.031,-450.604C262.157,-454.415 289.482,-459.213 314,-464.296 328.922,-467.389 345.253,-471.27 359.386,-474.788"/>
<polygon fill="orange" stroke="orange" points="239.495,-447.134 229.062,-448.98 238.369,-454.043 239.495,-447.134"/>
<text text-anchor="middle" x="280.5" y="-467.296" font-family="Helvetica,sans-Serif" font-size="10.00"> &lt; Shader &gt;</text>
</g>
<!-- Node9&#45;&gt;Node19 -->
<g id="edge21" class="edge"><title>Node9&#45;&gt;Node19</title>
<path fill="none" stroke="orange" stroke-dasharray="5,2" d="M239.212,-431.579C272.774,-424.882 315.619,-416.334 348.037,-409.865"/>
<polygon fill="orange" stroke="orange" points="238.238,-428.204 229.116,-433.593 239.607,-435.069 238.238,-428.204"/>
<text text-anchor="middle" x="280.5" y="-433.296" font-family="Helvetica,sans-Serif" font-size="10.00"> &lt; RayCaster &gt;</text>
</g>
<!-- Node10 -->
<g id="node10" class="node"><title>Node10</title>
<g id="a_node10"><a xlink:title=" ">
<polygon fill="white" stroke="#bfbfbf" points="353,-436.796 353,-455.796 441,-455.796 441,-436.796 353,-436.796"/>
<text text-anchor="middle" x="397" y="-443.796" font-family="Helvetica,sans-Serif" font-size="10.00">SHADER_TYPE</text>
</a>
</g>
</g>
<!-- Node10&#45;&gt;Node6 -->
<g id="edge10" class="edge"><title>Node10&#45;&gt;Node6</title>
<path fill="none" stroke="#9a32cd" stroke-dasharray="5,2" d="M451.416,-454.818C476.779,-458.978 507.491,-464.181 535,-469.296 552.029,-472.462 571.203,-476.387 585.696,-479.428"/>
<polygon fill="#9a32cd" stroke="#9a32cd" points="451.693,-451.317 441.26,-453.161 450.566,-458.226 451.693,-451.317"/>
<text text-anchor="middle" x="507.5" y="-472.296" font-family="Helvetica,sans-Serif" font-size="10.00"> shaderType</text>
</g>
<!-- Node11 -->
<g id="node11" class="node"><title>Node11</title>
<g id="a_node11"><a xlink:title=" ">
<polygon fill="white" stroke="#bfbfbf" points="353,-512.796 353,-531.796 441,-531.796 441,-512.796 353,-512.796"/>
<text text-anchor="middle" x="397" y="-519.796" font-family="Helvetica,sans-Serif" font-size="10.00">SHADER_TASK</text>
</a>
</g>
</g>
<!-- Node11&#45;&gt;Node6 -->
<g id="edge11" class="edge"><title>Node11&#45;&gt;Node6</title>
<path fill="none" stroke="#9a32cd" stroke-dasharray="5,2" d="M451.373,-513.134C476.726,-508.734 507.443,-503.334 535,-498.296 552.123,-495.165 571.458,-491.476 585.998,-488.671"/>
<polygon fill="#9a32cd" stroke="#9a32cd" points="450.477,-509.737 441.221,-514.892 451.672,-516.635 450.477,-509.737"/>
<text text-anchor="middle" x="507.5" y="-511.296" font-family="Helvetica,sans-Serif" font-size="10.00"> currentTask</text>
</g>
<!-- Node12 -->
<g id="node12" class="node"><title>Node12</title>
<g id="a_node12"><a xlink:href="../../d6/db5/class_scene.html" target="_top" xlink:title=" ">
<polygon fill="white" stroke="black" points="1088.5,-208.796 1088.5,-227.796 1132.5,-227.796 1132.5,-208.796 1088.5,-208.796"/>
<text text-anchor="middle" x="1110.5" y="-215.796" font-family="Helvetica,sans-Serif" font-size="10.00">Scene</text>
</a>
</g>
</g>
<!-- Node12&#45;&gt;Node2 -->
<g id="edge12" class="edge"><title>Node12&#45;&gt;Node2</title>
<path fill="none" stroke="#9a32cd" stroke-dasharray="5,2" d="M1142.62,-225.709C1171.29,-234.15 1212.94,-250.761 1237,-280.296 1257.02,-304.868 1235.39,-324.4 1255,-349.296 1257.94,-353.029 1261.83,-356.12 1265.94,-358.646"/>
<polygon fill="#9a32cd" stroke="#9a32cd" points="1143.27,-222.257 1132.69,-222.96 1141.4,-229.003 1143.27,-222.257"/>
<text text-anchor="middle" x="1202" y="-283.296" font-family="Helvetica,sans-Serif" font-size="10.00"> currentScene</text>
</g>
<!-- Node13 -->
<g id="node13" class="node"><title>Node13</title>
<g id="a_node13"><a xlink:href="../../db/d2b/class_settings.html" target="_top" xlink:title=" ">
<polygon fill="white" stroke="black" points="1084,-358.796 1084,-377.796 1137,-377.796 1137,-358.796 1084,-358.796"/>
<text text-anchor="middle" x="1110.5" y="-365.796" font-family="Helvetica,sans-Serif" font-size="10.00">Settings</text>
</a>
</g>
</g>
<!-- Node13&#45;&gt;Node2 -->
<g id="edge13" class="edge"><title>Node13&#45;&gt;Node2</title>
<path fill="none" stroke="#9a32cd" stroke-dasharray="5,2" d="M1147.16,-368.296C1178.36,-368.296 1223.46,-368.296 1254.7,-368.296"/>
<polygon fill="#9a32cd" stroke="#9a32cd" points="1147.15,-364.796 1137.15,-368.296 1147.15,-371.796 1147.15,-364.796"/>
<text text-anchor="middle" x="1202" y="-371.296" font-family="Helvetica,sans-Serif" font-size="10.00"> currentSettings</text>
</g>
<!-- Node14 -->
<g id="node14" class="node"><title>Node14</title>
<g id="a_node14"><a xlink:href="../../d7/db2/struct_sub_systems.html" target="_top" xlink:title=" ">
<polygon fill="white" stroke="black" points="1074,-246.796 1074,-265.796 1147,-265.796 1147,-246.796 1074,-246.796"/>
<text text-anchor="middle" x="1110.5" y="-253.796" font-family="Helvetica,sans-Serif" font-size="10.00">SubSystems</text>
</a>
</g>
</g>
<!-- Node14&#45;&gt;Node2 -->
<g id="edge14" class="edge"><title>Node14&#45;&gt;Node2</title>
<path fill="none" stroke="#9a32cd" stroke-dasharray="5,2" d="M1133.78,-271.563C1161.68,-290.494 1211.17,-323.424 1255,-349.296 1260.42,-352.494 1266.41,-355.791 1271.91,-358.723"/>
<polygon fill="#9a32cd" stroke="#9a32cd" points="1135.75,-268.669 1125.51,-265.935 1131.81,-274.456 1135.75,-268.669"/>
<text text-anchor="middle" x="1202" y="-341.296" font-family="Helvetica,sans-Serif" font-size="10.00"> systems</text>
</g>
<!-- Node15 -->
<g id="node15" class="node"><title>Node15</title>
<g id="a_node15"><a xlink:href="../../d3/dad/class_fountain_particle_system.html" target="_top" xlink:title=" ">
<polygon fill="white" stroke="black" points="766,-246.796 766,-265.796 887,-265.796 887,-246.796 766,-246.796"/>
<text text-anchor="middle" x="826.5" y="-253.796" font-family="Helvetica,sans-Serif" font-size="10.00">FountainParticleSystem</text>
</a>
</g>
</g>
<!-- Node15&#45;&gt;Node14 -->
<g id="edge15" class="edge"><title>Node15&#45;&gt;Node14</title>
<path fill="none" stroke="#9a32cd" stroke-dasharray="5,2" d="M897.512,-256.296C953.501,-256.296 1029.69,-256.296 1073.84,-256.296"/>
<polygon fill="#9a32cd" stroke="#9a32cd" points="897.305,-252.796 887.305,-256.296 897.305,-259.796 897.305,-252.796"/>
<text text-anchor="middle" x="986.5" y="-259.296" font-family="Helvetica,sans-Serif" font-size="10.00"> fountainParticleSystem</text>
</g>
<!-- Node16 -->
<g id="node16" class="node"><title>Node16</title>
<g id="a_node16"><a xlink:href="../../df/d86/class_default_particle_system.html" target="_top" xlink:title=" ">
<polygon fill="white" stroke="black" points="553,-275.796 553,-294.796 666,-294.796 666,-275.796 553,-275.796"/>
<text text-anchor="middle" x="609.5" y="-282.796" font-family="Helvetica,sans-Serif" font-size="10.00">DefaultParticleSystem</text>
</a>
</g>
</g>
<!-- Node16&#45;&gt;Node14 -->
<g id="edge30" class="edge"><title>Node16&#45;&gt;Node14</title>
<path fill="none" stroke="#9a32cd" stroke-dasharray="5,2" d="M676.312,-286.597C694.961,-286.757 715.281,-286.734 734,-286.296 876.339,-282.961 913.337,-293.333 1054,-271.296 1062.18,-270.013 1070.9,-267.986 1078.93,-265.831"/>
<polygon fill="#9a32cd" stroke="#9a32cd" points="676.18,-283.095 666.144,-286.491 676.106,-290.095 676.18,-283.095"/>
<text text-anchor="middle" x="826.5" y="-289.296" font-family="Helvetica,sans-Serif" font-size="10.00"> defaultParticleSystem</text>
</g>
<!-- Node16&#45;&gt;Node15 -->
<g id="edge16" class="edge"><title>Node16&#45;&gt;Node15</title>
<path fill="none" stroke="midnightblue" d="M676.061,-276.452C704.692,-272.591 738.028,-268.094 765.942,-264.329"/>
<polygon fill="midnightblue" stroke="midnightblue" points="675.59,-272.984 666.147,-277.79 676.526,-279.921 675.59,-272.984"/>
</g>
<!-- Node17 -->
<g id="node17" class="node"><title>Node17</title>
<g id="a_node17"><a xlink:href="../../da/d3f/class_enemy_controller_system.html" target="_top" xlink:title=" ">
<polygon fill="white" stroke="black" points="765.5,-407.796 765.5,-426.796 887.5,-426.796 887.5,-407.796 765.5,-407.796"/>
<text text-anchor="middle" x="826.5" y="-414.796" font-family="Helvetica,sans-Serif" font-size="10.00">EnemyControllerSystem</text>
</a>
</g>
</g>
<!-- Node17&#45;&gt;Node14 -->
<g id="edge17" class="edge"><title>Node17&#45;&gt;Node14</title>
<path fill="none" stroke="#9a32cd" stroke-dasharray="5,2" d="M897.789,-417.577C955,-416.427 1030.05,-411.338 1054,-393.296 1054.34,-393.037 1092.9,-297.476 1105.54,-266.127"/>
<polygon fill="#9a32cd" stroke="#9a32cd" points="897.633,-414.079 887.692,-417.744 897.749,-421.078 897.633,-414.079"/>
<text text-anchor="middle" x="986.5" y="-420.296" font-family="Helvetica,sans-Serif" font-size="10.00"> enemyControllerSystem</text>
</g>
<!-- Node18 -->
<g id="node18" class="node"><title>Node18</title>
<g id="a_node18"><a xlink:href="../../d3/dbc/class_ray_caster.html" target="_top" xlink:title=" ">
<polygon fill="white" stroke="black" points="578.5,-390.796 578.5,-409.796 640.5,-409.796 640.5,-390.796 578.5,-390.796"/>
<text text-anchor="middle" x="609.5" y="-397.796" font-family="Helvetica,sans-Serif" font-size="10.00">RayCaster</text>
</a>
</g>
</g>
<!-- Node18&#45;&gt;Node17 -->
<g id="edge18" class="edge"><title>Node18&#45;&gt;Node17</title>
<path fill="none" stroke="#9a32cd" stroke-dasharray="5,2" d="M651.224,-403.516C683.408,-406.06 728.814,-409.651 765.211,-412.528"/>
<polygon fill="#9a32cd" stroke="#9a32cd" points="651.093,-399.994 640.848,-402.695 650.541,-406.973 651.093,-399.994"/>
<text text-anchor="middle" x="709" y="-413.296" font-family="Helvetica,sans-Serif" font-size="10.00"> rayCast</text>
</g>
<!-- Node19&#45;&gt;Node18 -->
<g id="edge19" class="edge"><title>Node19&#45;&gt;Node18</title>
<path fill="none" stroke="midnightblue" d="M472.172,-400.296C508.764,-400.296 550.862,-400.296 578.48,-400.296"/>
<polygon fill="midnightblue" stroke="midnightblue" points="472.014,-396.796 462.014,-400.296 472.014,-403.796 472.014,-396.796"/>
</g>
<!-- Node20 -->
<g id="node20" class="node"><title>Node20</title>
<g id="a_node20"><a xlink:href="../../d3/d85/class_display_statistics_system.html" target="_top" xlink:title=" ">
<polygon fill="white" stroke="black" points="764.5,-208.796 764.5,-227.796 888.5,-227.796 888.5,-208.796 764.5,-208.796"/>
<text text-anchor="middle" x="826.5" y="-215.796" font-family="Helvetica,sans-Serif" font-size="10.00">DisplayStatisticsSystem</text>
</a>
</g>
</g>
<!-- Node20&#45;&gt;Node14 -->
<g id="edge22" class="edge"><title>Node20&#45;&gt;Node14</title>
<path fill="none" stroke="#9a32cd" stroke-dasharray="5,2" d="M899.126,-222.573C943.898,-225.986 1002.62,-231.808 1054,-241.296 1061.75,-242.727 1070.01,-244.704 1077.71,-246.753"/>
<polygon fill="#9a32cd" stroke="#9a32cd" points="899.158,-219.066 888.927,-221.819 898.641,-226.047 899.158,-219.066"/>
<text text-anchor="middle" x="986.5" y="-244.296" font-family="Helvetica,sans-Serif" font-size="10.00"> displayStatisticsSystem</text>
</g>
<!-- Node21 -->
<g id="node21" class="node"><title>Node21</title>
<g id="a_node21"><a xlink:href="../../d4/d4f/class_player_camera_handling_system.html" target="_top" xlink:title=" ">
<polygon fill="white" stroke="black" points="752,-170.796 752,-189.796 901,-189.796 901,-170.796 752,-170.796"/>
<text text-anchor="middle" x="826.5" y="-177.796" font-family="Helvetica,sans-Serif" font-size="10.00">PlayerCameraHandlingSystem</text>
</a>
</g>
</g>
<!-- Node21&#45;&gt;Node14 -->
<g id="edge23" class="edge"><title>Node21&#45;&gt;Node14</title>
<path fill="none" stroke="#9a32cd" stroke-dasharray="5,2" d="M911.267,-174.506C956.673,-175.235 1011.93,-182.723 1054,-209.296 1066.51,-217.197 1061.02,-227.383 1072,-237.296 1076.01,-240.914 1080.83,-244.028 1085.67,-246.627"/>
<polygon fill="#9a32cd" stroke="#9a32cd" points="911.163,-171.005 901.144,-174.451 911.125,-178.005 911.163,-171.005"/>
<text text-anchor="middle" x="986.5" y="-212.296" font-family="Helvetica,sans-Serif" font-size="10.00"> playerCameraHandlingSystem</text>
</g>
<!-- Node22 -->
<g id="node22" class="node"><title>Node22</title>
<g id="a_node22"><a xlink:href="../../d1/dce/class_sky_box_system.html" target="_top" xlink:title=" ">
<polygon fill="white" stroke="black" points="784,-132.796 784,-151.796 869,-151.796 869,-132.796 784,-132.796"/>
<text text-anchor="middle" x="826.5" y="-139.796" font-family="Helvetica,sans-Serif" font-size="10.00">SkyBoxSystem</text>
</a>
</g>
</g>
<!-- Node22&#45;&gt;Node14 -->
<g id="edge24" class="edge"><title>Node22&#45;&gt;Node14</title>
<path fill="none" stroke="#9a32cd" stroke-dasharray="5,2" d="M877.231,-130.917C927.86,-122.482 1005.59,-118.668 1054,-160.296 1080.65,-183.21 1050.29,-209.655 1072,-237.296 1074.98,-241.084 1078.91,-244.182 1083.11,-246.693"/>
<polygon fill="#9a32cd" stroke="#9a32cd" points="876.401,-127.51 867.172,-132.713 877.631,-134.401 876.401,-127.51"/>
<text text-anchor="middle" x="986.5" y="-163.296" font-family="Helvetica,sans-Serif" font-size="10.00"> skyBoxSystem</text>
</g>
<!-- Node23 -->
<g id="node23" class="node"><title>Node23</title>
<g id="a_node23"><a xlink:href="../../df/dd7/class_bone_collision_mesh_system.html" target="_top" xlink:title=" ">
<polygon fill="white" stroke="black" points="759.5,-94.7956 759.5,-113.796 893.5,-113.796 893.5,-94.7956 759.5,-94.7956"/>
<text text-anchor="middle" x="826.5" y="-101.796" font-family="Helvetica,sans-Serif" font-size="10.00">BoneCollisionMeshSystem</text>
</a>
</g>
</g>
<!-- Node23&#45;&gt;Node14 -->
<g id="edge25" class="edge"><title>Node23&#45;&gt;Node14</title>
<path fill="none" stroke="#9a32cd" stroke-dasharray="5,2" d="M903.809,-96.5489C960.806,-92.5697 1032.43,-91.9929 1054,-111.296 1096.16,-149.015 1039.05,-191.317 1072,-237.296 1074.72,-241.092 1078.43,-244.178 1082.45,-246.671"/>
<polygon fill="#9a32cd" stroke="#9a32cd" points="903.427,-93.0675 893.714,-97.2989 903.946,-100.048 903.427,-93.0675"/>
<text text-anchor="middle" x="986.5" y="-114.296" font-family="Helvetica,sans-Serif" font-size="10.00"> boneCollisionMeshSystem</text>
</g>
<!-- Node24 -->
<g id="node24" class="node"><title>Node24</title>
<g id="a_node24"><a xlink:href="../../d5/d50/class_player_controller_system.html" target="_top" xlink:title=" ">
<polygon fill="white" stroke="black" points="767,-56.7956 767,-75.7956 886,-75.7956 886,-56.7956 767,-56.7956"/>
<text text-anchor="middle" x="826.5" y="-63.7956" font-family="Helvetica,sans-Serif" font-size="10.00">PlayerControllerSystem</text>
</a>
</g>
</g>
<!-- Node24&#45;&gt;Node14 -->
<g id="edge26" class="edge"><title>Node24&#45;&gt;Node14</title>
<path fill="none" stroke="#9a32cd" stroke-dasharray="5,2" d="M870.319,-54.4188C921.209,-43.1755 1005.34,-34.1203 1054,-80.2956 1079.47,-104.468 1051.94,-208.471 1072,-237.296 1074.67,-241.129 1078.35,-244.234 1082.36,-246.734"/>
<polygon fill="#9a32cd" stroke="#9a32cd" points="869.241,-51.0764 860.297,-56.7564 870.831,-57.8934 869.241,-51.0764"/>
<text text-anchor="middle" x="986.5" y="-83.2956" font-family="Helvetica,sans-Serif" font-size="10.00"> playerControllerSystem</text>
</g>
<!-- Node25 -->
<g id="node25" class="node"><title>Node25</title>
<g id="a_node25"><a xlink:href="../../d7/dd6/class_pause_menu_system.html" target="_top" xlink:title=" ">
<polygon fill="white" stroke="black" points="775.5,-18.7956 775.5,-37.7956 877.5,-37.7956 877.5,-18.7956 775.5,-18.7956"/>
<text text-anchor="middle" x="826.5" y="-25.7956" font-family="Helvetica,sans-Serif" font-size="10.00">PauseMenuSystem</text>
</a>
</g>
</g>
<!-- Node25&#45;&gt;Node14 -->
<g id="edge27" class="edge"><title>Node25&#45;&gt;Node14</title>
<path fill="none" stroke="#9a32cd" stroke-dasharray="5,2" d="M863.297,-15.7503C913.017,-0.860143 1002.64,16.3992 1054,-31.2956 1087.67,-62.5659 1046.26,-199.227 1072,-237.296 1074.62,-241.165 1078.27,-244.287 1082.27,-246.794"/>
<polygon fill="#9a32cd" stroke="#9a32cd" points="862.117,-12.4517 853.614,-18.772 864.203,-19.1339 862.117,-12.4517"/>
<text text-anchor="middle" x="986.5" y="-34.2956" font-family="Helvetica,sans-Serif" font-size="10.00"> pauseMenuSystem</text>
</g>
<!-- Node26 -->
<g id="node26" class="node"><title>Node26</title>
<g id="a_node26"><a xlink:href="../../d4/df8/class_camera_system.html" target="_top" xlink:title=" ">
<polygon fill="white" stroke="black" points="784.5,-369.796 784.5,-388.796 868.5,-388.796 868.5,-369.796 784.5,-369.796"/>
<text text-anchor="middle" x="826.5" y="-376.796" font-family="Helvetica,sans-Serif" font-size="10.00">CameraSystem</text>
</a>
</g>
</g>
<!-- Node26&#45;&gt;Node14 -->
<g id="edge28" class="edge"><title>Node26&#45;&gt;Node14</title>
<path fill="none" stroke="#9a32cd" stroke-dasharray="5,2" d="M878.681,-379.763C936.489,-379.361 1026.15,-375.648 1054,-357.296 1087.25,-335.39 1102.34,-286.51 1107.42,-265.829"/>
<polygon fill="#9a32cd" stroke="#9a32cd" points="878.62,-376.263 868.633,-379.802 878.647,-383.263 878.62,-376.263"/>
<text text-anchor="middle" x="986.5" y="-382.296" font-family="Helvetica,sans-Serif" font-size="10.00"> cameraSystem</text>
</g>
<!-- Node27 -->
<g id="node27" class="node"><title>Node27</title>
<g id="a_node27"><a xlink:href="../../d7/d06/class_g_u_i_resizing_information.html" target="_top" xlink:title=" ">
<polygon fill="white" stroke="black" points="767.5,-331.796 767.5,-350.796 885.5,-350.796 885.5,-331.796 767.5,-331.796"/>
<text text-anchor="middle" x="826.5" y="-338.796" font-family="Helvetica,sans-Serif" font-size="10.00">GUIResizingInformation</text>
</a>
</g>
</g>
<!-- Node27&#45;&gt;Node14 -->
<g id="edge29" class="edge"><title>Node27&#45;&gt;Node14</title>
<path fill="none" stroke="#9a32cd" stroke-dasharray="5,2" d="M895.608,-345.922C942.512,-346.288 1004.97,-341.026 1054,-316.296 1076.81,-304.793 1094.98,-279.803 1103.76,-265.979"/>
<polygon fill="#9a32cd" stroke="#9a32cd" points="895.602,-342.422 885.546,-345.756 895.487,-349.421 895.602,-342.422"/>
<text text-anchor="middle" x="986.5" y="-349.296" font-family="Helvetica,sans-Serif" font-size="10.00"> guiResizingInfo</text>
</g>
<!-- Node28 -->
<g id="node28" class="node"><title>Node28</title>
<g id="a_node28"><a xlink:href="../../d3/df8/class_quad.html" target="_top" xlink:title=" ">
<polygon fill="white" stroke="black" points="1271.5,-320.796 1271.5,-339.796 1311.5,-339.796 1311.5,-320.796 1271.5,-320.796"/>
<text text-anchor="middle" x="1291.5" y="-327.796" font-family="Helvetica,sans-Serif" font-size="10.00">Quad</text>
</a>
</g>
</g>
<!-- Node28&#45;&gt;Node1 -->
<g id="edge32" class="edge"><title>Node28&#45;&gt;Node1</title>
<path fill="none" stroke="#9a32cd" stroke-dasharray="5,2" d="M1321.81,-331.441C1343.42,-332.803 1373.39,-335.783 1399,-342.296 1414.46,-346.227 1431.13,-353.091 1443.58,-358.78"/>
<polygon fill="#9a32cd" stroke="#9a32cd" points="1321.81,-327.935 1311.63,-330.879 1321.43,-334.925 1321.81,-327.935"/>
<text text-anchor="middle" x="1372.5" y="-356.296" font-family="Helvetica,sans-Serif" font-size="10.00"> depthQuad</text>
<text text-anchor="middle" x="1372.5" y="-345.296" font-family="Helvetica,sans-Serif" font-size="10.00">screenQuad</text>
</g>
</g>
</svg>
