<?xml version="1.0" encoding="UTF-8" standalone="no"?>
<!DOCTYPE svg PUBLIC "-//W3C//DTD SVG 1.1//EN"
 "http://www.w3.org/Graphics/SVG/1.1/DTD/svg11.dtd">
<!-- Generated by graphviz version 2.38.0 (20140413.2041)
 -->
<!-- Title: CollisionMesh Pages: 1 -->
<svg width="195pt" height="209pt"
 viewBox="0.00 0.00 194.50 209.00" xmlns="http://www.w3.org/2000/svg" xmlns:xlink="http://www.w3.org/1999/xlink">
<g id="graph0" class="graph" transform="scale(1 1) rotate(0) translate(4 205)">
<title>CollisionMesh</title>
<polygon fill="white" stroke="none" points="-4,4 -4,-205 190.5,-205 190.5,4 -4,4"/>
<!-- Node1 -->
<g id="node1" class="node"><title>Node1</title>
<g id="a_node1"><a xlink:title=" ">
<polygon fill="#bfbfbf" stroke="black" points="34,-0.5 34,-19.5 111,-19.5 111,-0.5 34,-0.5"/>
<text text-anchor="middle" x="72.5" y="-7.5" font-family="Helvetica,sans-Serif" font-size="10.00">CollisionMesh</text>
</a>
</g>
</g>
<!-- Node2 -->
<g id="node2" class="node"><title>Node2</title>
<g id="a_node2"><a xlink:href="../../d2/d00/class_component.html" target="_top" xlink:title=" ">
<polygon fill="white" stroke="black" points="0,-57.5 0,-76.5 145,-76.5 145,-57.5 0,-57.5"/>
<text text-anchor="middle" x="72.5" y="-64.5" font-family="Helvetica,sans-Serif" font-size="10.00">Component&lt; CollisionMesh &gt;</text>
</a>
</g>
</g>
<!-- Node2&#45;&gt;Node1 -->
<g id="edge1" class="edge"><title>Node2&#45;&gt;Node1</title>
<path fill="none" stroke="midnightblue" d="M72.5,-47.1166C72.5,-37.8173 72.5,-27.0557 72.5,-19.7149"/>
<polygon fill="midnightblue" stroke="midnightblue" points="69.0001,-47.4062 72.5,-57.4063 76.0001,-47.4063 69.0001,-47.4062"/>
</g>
<!-- Node3 -->
<g id="node3" class="node"><title>Node3</title>
<g id="a_node3"><a xlink:href="../../d5/d79/class_component_interface.html" target="_top" xlink:title=" ">
<polygon fill="white" stroke="black" points="29,-181.5 29,-200.5 132,-200.5 132,-181.5 29,-181.5"/>
<text text-anchor="middle" x="80.5" y="-188.5" font-family="Helvetica,sans-Serif" font-size="10.00">ComponentInterface</text>
</a>
</g>
</g>
<!-- Node3&#45;&gt;Node2 -->
<g id="edge2" class="edge"><title>Node3&#45;&gt;Node2</title>
<path fill="none" stroke="midnightblue" d="M78.1478,-171.087C77.1924,-162.788 76.1602,-152.923 75.5,-144 73.707,-119.77 72.9417,-91.1087 72.653,-76.9036"/>
<polygon fill="midnightblue" stroke="midnightblue" points="74.6945,-171.686 79.3611,-181.198 81.6446,-170.852 74.6945,-171.686"/>
</g>
<!-- Node4 -->
<g id="node4" class="node"><title>Node4</title>
<g id="a_node4"><a xlink:href="../../d2/d00/class_component.html" target="_top" xlink:title=" ">
<polygon fill="white" stroke="black" points="85,-124.5 85,-143.5 174,-143.5 174,-124.5 85,-124.5"/>
<text text-anchor="middle" x="129.5" y="-131.5" font-family="Helvetica,sans-Serif" font-size="10.00">Component&lt; T &gt;</text>
</a>
</g>
</g>
<!-- Node3&#45;&gt;Node4 -->
<g id="edge4" class="edge"><title>Node3&#45;&gt;Node4</title>
<path fill="none" stroke="midnightblue" d="M94.9077,-173.828C103.682,-163.979 114.549,-151.782 121.736,-143.715"/>
<polygon fill="midnightblue" stroke="midnightblue" points="92.195,-171.611 88.1563,-181.406 97.4217,-176.268 92.195,-171.611"/>
</g>
<!-- Node4&#45;&gt;Node2 -->
<g id="edge3" class="edge"><title>Node4&#45;&gt;Node2</title>
<path fill="none" stroke="orange" stroke-dasharray="5,2" d="M115.149,-116.635C104.002,-103.923 88.9842,-86.7978 80.0655,-76.6273"/>
<polygon fill="orange" stroke="orange" points="112.588,-119.023 121.813,-124.234 117.851,-114.408 112.588,-119.023"/>
<text text-anchor="middle" x="145.5" y="-98" font-family="Helvetica,sans-Serif" font-size="10.00"> &lt; CollisionMesh &gt;</text>
</g>
</g>
</svg>
