<?xml version="1.0" encoding="UTF-8" standalone="no"?>
<!DOCTYPE svg PUBLIC "-//W3C//DTD SVG 1.1//EN"
 "http://www.w3.org/Graphics/SVG/1.1/DTD/svg11.dtd">
<!-- Generated by graphviz version 2.38.0 (20140413.2041)
 -->
<!-- Title: src/GuiString.h Pages: 1 -->
<!--zoomable 364 -->
<svg id="main" version="1.1" xmlns="http://www.w3.org/2000/svg" xmlns:xlink="http://www.w3.org/1999/xlink" xml:space="preserve" onload="init(evt)">
<style type="text/css"><![CDATA[
.edge:hover path { stroke: red; }
.edge:hover polygon { stroke: red; fill: red; }
]]></style>
<script type="text/javascript"><![CDATA[
var edges = document.getElementsByTagName('g');
if (edges && edges.length) {
  for (var i=0;i<edges.length;i++) {
    if (edges[i].id.substr(0,4)=='edge') {
      edges[i].setAttribute('class','edge');
    }
  }
}
]]></script>
        <defs>
                <circle id="rim" cx="0" cy="0" r="7"/>
                <circle id="rim2" cx="0" cy="0" r="3.5"/>
                <g id="zoomPlus">
                        <use xlink:href="#rim" fill="#404040">
                                <set attributeName="fill" to="#808080" begin="zoomplus.mouseover" end="zoomplus.mouseout"/>
                        </use>
                        <path d="M-4,0h8M0,-4v8" fill="none" stroke="white" stroke-width="1.5" pointer-events="none"/>
                </g>
                <g id="zoomMin">
                        <use xlink:href="#rim" fill="#404040">
                                <set attributeName="fill" to="#808080" begin="zoomminus.mouseover" end="zoomminus.mouseout"/>
                        </use>
                        <path d="M-4,0h8" fill="none" stroke="white" stroke-width="1.5" pointer-events="none"/>
                </g>
                <g id="dirArrow">
                        <path fill="none" stroke="white" stroke-width="1.5" d="M0,-3.0v7 M-2.5,-0.5L0,-3.0L2.5,-0.5"/>
                </g>
               <g id="resetDef">
                       <use xlink:href="#rim2" fill="#404040">
                               <set attributeName="fill" to="#808080" begin="reset.mouseover" end="reset.mouseout"/>
                       </use>
               </g>
        </defs>

<script type="text/javascript">
var viewWidth = 1603;
var viewHeight = 364;
var sectionId = 'dynsection-0';
</script>
<script xlink:href="../../svgpan.js"/>
<svg id="graph" class="graph">
<g id="viewport">
<title>src/GuiString.h</title>
<polygon fill="white" stroke="none" points="-4,4 -4,-360 1598.72,-360 1598.72,4 -4,4"/>
<!-- Node1 -->
<g id="node1" class="node"><title>Node1</title>
<g id="a_node1"><a xlink:title=" ">
<polygon fill="#bfbfbf" stroke="black" points="1324.72,-336.5 1324.72,-355.5 1406.72,-355.5 1406.72,-336.5 1324.72,-336.5"/>
<text text-anchor="middle" x="1365.72" y="-343.5" font-family="Helvetica,sans-Serif" font-size="10.00">src/GuiString.h</text>
</a>
</g>
</g>
<!-- Node2 -->
<g id="node2" class="node"><title>Node2</title>
<g id="a_node2"><a xlink:href="../../db/db1/_gui_base_8h.html" target="_top" xlink:title=" ">
<polygon fill="white" stroke="black" points="223.717,-224.5 223.717,-243.5 285.717,-243.5 285.717,-224.5 223.717,-224.5"/>
<text text-anchor="middle" x="254.717" y="-231.5" font-family="Helvetica,sans-Serif" font-size="10.00">GuiBase.h</text>
</a>
</g>
</g>
<!-- Node1&#45;&gt;Node2 -->
<g id="edge1" class="edge"><title>Node1&#45;&gt;Node2</title>
<path fill="none" stroke="midnightblue" d="M1324.62,-342.808C1225.67,-337.354 966.386,-322.004 750.717,-300 581.52,-282.738 380.936,-253.849 295.995,-241.223"/>
<polygon fill="midnightblue" stroke="midnightblue" points="296.388,-237.743 285.981,-239.73 295.355,-244.667 296.388,-237.743"/>
</g>
<!-- Node13 -->
<g id="node13" class="node"><title>Node13</title>
<g id="a_node13"><a xlink:title=" ">
<polygon fill="white" stroke="#bfbfbf" points="566.217,-56.5 566.217,-75.5 607.217,-75.5 607.217,-56.5 566.217,-56.5"/>
<text text-anchor="middle" x="586.717" y="-63.5" font-family="Helvetica,sans-Serif" font-size="10.00">string</text>
</a>
</g>
</g>
<!-- Node1&#45;&gt;Node13 -->
<g id="edge61" class="edge"><title>Node1&#45;&gt;Node13</title>
<path fill="none" stroke="midnightblue" d="M1326.68,-336.438C1220.89,-312.452 921.083,-239.259 689.717,-132 659.107,-117.81 626.64,-96.0567 606.523,-81.6815"/>
<polygon fill="midnightblue" stroke="midnightblue" points="608.351,-78.6838 598.2,-75.6494 604.243,-84.3518 608.351,-78.6838"/>
</g>
<!-- Node17 -->
<g id="node17" class="node"><title>Node17</title>
<g id="a_node17"><a xlink:title=" ">
<polygon fill="white" stroke="#bfbfbf" points="1245.72,-56.5 1245.72,-75.5 1287.72,-75.5 1287.72,-56.5 1245.72,-56.5"/>
<text text-anchor="middle" x="1266.72" y="-63.5" font-family="Helvetica,sans-Serif" font-size="10.00">vector</text>
</a>
</g>
</g>
<!-- Node1&#45;&gt;Node17 -->
<g id="edge62" class="edge"><title>Node1&#45;&gt;Node17</title>
<path fill="none" stroke="midnightblue" d="M1400.57,-336.397C1421.77,-329.6 1448.08,-318.163 1465.72,-300 1487.51,-277.56 1492.72,-266.282 1492.72,-235 1492.72,-235 1492.72,-235 1492.72,-177 1492.72,-91.4053 1360.03,-72.3991 1298,-68.1906"/>
<polygon fill="midnightblue" stroke="midnightblue" points="1298.17,-64.6947 1287.98,-67.5987 1297.75,-71.6825 1298.17,-64.6947"/>
</g>
<!-- Node18 -->
<g id="node18" class="node"><title>Node18</title>
<g id="a_node18"><a xlink:href="../../d8/dc0/_gui_text_character_8h.html" target="_top" xlink:title=" ">
<polygon fill="white" stroke="black" points="1355.22,-280.5 1355.22,-299.5 1456.22,-299.5 1456.22,-280.5 1355.22,-280.5"/>
<text text-anchor="middle" x="1405.72" y="-287.5" font-family="Helvetica,sans-Serif" font-size="10.00">GuiTextCharacter.h</text>
</a>
</g>
</g>
<!-- Node1&#45;&gt;Node18 -->
<g id="edge23" class="edge"><title>Node1&#45;&gt;Node18</title>
<path fill="none" stroke="midnightblue" d="M1372.32,-336.083C1377.97,-328.455 1386.26,-317.264 1393.17,-307.941"/>
<polygon fill="midnightblue" stroke="midnightblue" points="1396.09,-309.87 1399.23,-299.751 1390.47,-305.703 1396.09,-309.87"/>
</g>
<!-- Node33 -->
<g id="node33" class="node"><title>Node33</title>
<g id="a_node33"><a xlink:href="../../d8/de2/_text_map_8h.html" target="_top" xlink:title=" ">
<polygon fill="white" stroke="black" points="1295.72,-224.5 1295.72,-243.5 1357.72,-243.5 1357.72,-224.5 1295.72,-224.5"/>
<text text-anchor="middle" x="1326.72" y="-231.5" font-family="Helvetica,sans-Serif" font-size="10.00">TextMap.h</text>
</a>
</g>
</g>
<!-- Node1&#45;&gt;Node33 -->
<g id="edge53" class="edge"><title>Node1&#45;&gt;Node33</title>
<path fill="none" stroke="midnightblue" d="M1361.81,-336.476C1357.78,-327.501 1351.41,-312.91 1346.72,-300 1341.04,-284.398 1335.56,-266.323 1331.78,-253.2"/>
<polygon fill="midnightblue" stroke="midnightblue" points="1335.13,-252.172 1329.04,-243.504 1328.39,-254.08 1335.13,-252.172"/>
</g>
<!-- Node35 -->
<g id="node35" class="node"><title>Node35</title>
<g id="a_node35"><a xlink:title=" ">
<polygon fill="white" stroke="#bfbfbf" points="1520.72,-280.5 1520.72,-299.5 1594.72,-299.5 1594.72,-280.5 1520.72,-280.5"/>
<text text-anchor="middle" x="1557.72" y="-287.5" font-family="Helvetica,sans-Serif" font-size="10.00">glm/vec2.hpp</text>
</a>
</g>
</g>
<!-- Node1&#45;&gt;Node35 -->
<g id="edge60" class="edge"><title>Node1&#45;&gt;Node35</title>
<path fill="none" stroke="midnightblue" d="M1396.14,-336.444C1429,-327.201 1481.5,-312.436 1517.69,-302.257"/>
<polygon fill="midnightblue" stroke="midnightblue" points="1518.76,-305.593 1527.44,-299.516 1516.86,-298.855 1518.76,-305.593"/>
</g>
<!-- Node3 -->
<g id="node3" class="node"><title>Node3</title>
<g id="a_node3"><a xlink:href="../../d8/d34/_shader_8h.html" target="_top" xlink:title=" ">
<polygon fill="white" stroke="black" points="226.717,-168.5 226.717,-187.5 282.717,-187.5 282.717,-168.5 226.717,-168.5"/>
<text text-anchor="middle" x="254.717" y="-175.5" font-family="Helvetica,sans-Serif" font-size="10.00">Shader.h</text>
</a>
</g>
</g>
<!-- Node2&#45;&gt;Node3 -->
<g id="edge2" class="edge"><title>Node2&#45;&gt;Node3</title>
<path fill="none" stroke="midnightblue" d="M254.717,-224.083C254.717,-217.006 254.717,-206.861 254.717,-197.986"/>
<polygon fill="midnightblue" stroke="midnightblue" points="258.217,-197.751 254.717,-187.751 251.217,-197.751 258.217,-197.751"/>
</g>
<!-- Node5 -->
<g id="node5" class="node"><title>Node5</title>
<g id="a_node5"><a xlink:title=" ">
<polygon fill="white" stroke="#bfbfbf" points="230.217,-0.5 230.217,-19.5 279.217,-19.5 279.217,-0.5 230.217,-0.5"/>
<text text-anchor="middle" x="254.717" y="-7.5" font-family="Helvetica,sans-Serif" font-size="10.00">stdint.h</text>
</a>
</g>
</g>
<!-- Node2&#45;&gt;Node5 -->
<g id="edge22" class="edge"><title>Node2&#45;&gt;Node5</title>
<path fill="none" stroke="midnightblue" d="M223.564,-230.461C146.729,-222.877 -42.029,-195.475 8.71673,-112 53.3269,-38.6182 162.987,-18.5521 219.613,-13.0651"/>
<polygon fill="midnightblue" stroke="midnightblue" points="220.209,-16.5267 229.869,-12.1755 219.604,-9.55284 220.209,-16.5267"/>
</g>
<!-- Node4 -->
<g id="node4" class="node"><title>Node4</title>
<g id="a_node4"><a xlink:href="../../dc/d20/_component_8h.html" target="_top" xlink:title=" ">
<polygon fill="white" stroke="black" points="217.717,-56.5 217.717,-75.5 291.717,-75.5 291.717,-56.5 217.717,-56.5"/>
<text text-anchor="middle" x="254.717" y="-63.5" font-family="Helvetica,sans-Serif" font-size="10.00">Component.h</text>
</a>
</g>
</g>
<!-- Node3&#45;&gt;Node4 -->
<g id="edge3" class="edge"><title>Node3&#45;&gt;Node4</title>
<path fill="none" stroke="midnightblue" d="M254.717,-168.368C254.717,-150.617 254.717,-109.666 254.717,-85.5974"/>
<polygon fill="midnightblue" stroke="midnightblue" points="258.217,-85.5914 254.717,-75.5914 251.217,-85.5915 258.217,-85.5914"/>
</g>
<!-- Node6 -->
<g id="node6" class="node"><title>Node6</title>
<g id="a_node6"><a xlink:href="../../d0/d4b/_debug_8h.html" target="_top" xlink:title=" ">
<polygon fill="white" stroke="black" points="556.217,-112.5 556.217,-131.5 609.217,-131.5 609.217,-112.5 556.217,-112.5"/>
<text text-anchor="middle" x="582.717" y="-119.5" font-family="Helvetica,sans-Serif" font-size="10.00">Debug.h</text>
</a>
</g>
</g>
<!-- Node3&#45;&gt;Node6 -->
<g id="edge5" class="edge"><title>Node3&#45;&gt;Node6</title>
<path fill="none" stroke="midnightblue" d="M282.936,-169.833C285.892,-169.173 288.86,-168.548 291.717,-168 400.943,-147.058 432.597,-153.511 545.929,-131.955"/>
<polygon fill="midnightblue" stroke="midnightblue" points="546.897,-135.332 556.05,-129.997 545.567,-128.46 546.897,-135.332"/>
</g>
<!-- Node7 -->
<g id="node7" class="node"><title>Node7</title>
<g id="a_node7"><a xlink:href="../../d5/d31/_lights_8h.html" target="_top" xlink:title=" ">
<polygon fill="white" stroke="black" points="98.2167,-112.5 98.2167,-131.5 149.217,-131.5 149.217,-112.5 98.2167,-112.5"/>
<text text-anchor="middle" x="123.717" y="-119.5" font-family="Helvetica,sans-Serif" font-size="10.00">Lights.h</text>
</a>
</g>
</g>
<!-- Node3&#45;&gt;Node7 -->
<g id="edge6" class="edge"><title>Node3&#45;&gt;Node7</title>
<path fill="none" stroke="midnightblue" d="M233.959,-168.444C212.4,-159.557 178.453,-145.563 153.923,-135.451"/>
<polygon fill="midnightblue" stroke="midnightblue" points="154.956,-132.092 144.377,-131.516 152.288,-138.563 154.956,-132.092"/>
</g>
<!-- Node8 -->
<g id="node8" class="node"><title>Node8</title>
<g id="a_node8"><a xlink:title=" ">
<polygon fill="white" stroke="#bfbfbf" points="125.717,-56.5 125.717,-75.5 199.717,-75.5 199.717,-56.5 125.717,-56.5"/>
<text text-anchor="middle" x="162.717" y="-63.5" font-family="Helvetica,sans-Serif" font-size="10.00">glm/vec3.hpp</text>
</a>
</g>
</g>
<!-- Node3&#45;&gt;Node8 -->
<g id="edge18" class="edge"><title>Node3&#45;&gt;Node8</title>
<path fill="none" stroke="midnightblue" d="M226.63,-175.954C169.906,-173.19 44.8399,-163.575 18.7167,-132 -11.1165,-95.9407 62.7869,-79.074 115.398,-71.8345"/>
<polygon fill="midnightblue" stroke="midnightblue" points="116.132,-75.2687 125.599,-70.5121 115.232,-68.3267 116.132,-75.2687"/>
</g>
<!-- Node9 -->
<g id="node9" class="node"><title>Node9</title>
<g id="a_node9"><a xlink:href="../../d3/d09/_material_8h.html" target="_top" xlink:title=" ">
<polygon fill="white" stroke="black" points="167.217,-112.5 167.217,-131.5 226.217,-131.5 226.217,-112.5 167.217,-112.5"/>
<text text-anchor="middle" x="196.717" y="-119.5" font-family="Helvetica,sans-Serif" font-size="10.00">Material.h</text>
</a>
</g>
</g>
<!-- Node3&#45;&gt;Node9 -->
<g id="edge8" class="edge"><title>Node3&#45;&gt;Node9</title>
<path fill="none" stroke="midnightblue" d="M245.398,-168.324C236.824,-160.341 223.905,-148.313 213.529,-138.653"/>
<polygon fill="midnightblue" stroke="midnightblue" points="215.909,-136.086 206.205,-131.834 211.139,-141.21 215.909,-136.086"/>
</g>
<!-- Node10 -->
<g id="node10" class="node"><title>Node10</title>
<g id="a_node10"><a xlink:href="../../d4/d4a/_settings_8h.html" target="_top" xlink:title=" ">
<polygon fill="white" stroke="black" points="321.217,-112.5 321.217,-131.5 382.217,-131.5 382.217,-112.5 321.217,-112.5"/>
<text text-anchor="middle" x="351.717" y="-119.5" font-family="Helvetica,sans-Serif" font-size="10.00">Settings.h</text>
</a>
</g>
</g>
<!-- Node3&#45;&gt;Node10 -->
<g id="edge11" class="edge"><title>Node3&#45;&gt;Node10</title>
<path fill="none" stroke="midnightblue" d="M270.301,-168.324C285.716,-159.743 309.529,-146.486 327.426,-136.522"/>
<polygon fill="midnightblue" stroke="midnightblue" points="329.136,-139.577 336.171,-131.655 325.731,-133.461 329.136,-139.577"/>
</g>
<!-- Node11 -->
<g id="node11" class="node"><title>Node11</title>
<g id="a_node11"><a xlink:href="../../d2/d06/_shaders_8h.html" target="_top" xlink:title=" ">
<polygon fill="white" stroke="black" points="477.217,-112.5 477.217,-131.5 538.217,-131.5 538.217,-112.5 477.217,-112.5"/>
<text text-anchor="middle" x="507.717" y="-119.5" font-family="Helvetica,sans-Serif" font-size="10.00">Shaders.h</text>
</a>
</g>
</g>
<!-- Node3&#45;&gt;Node11 -->
<g id="edge12" class="edge"><title>Node3&#45;&gt;Node11</title>
<path fill="none" stroke="midnightblue" d="M282.976,-170.024C285.924,-169.327 288.879,-168.64 291.717,-168 324.557,-160.587 414.138,-142.138 467.055,-131.303"/>
<polygon fill="midnightblue" stroke="midnightblue" points="468.026,-134.677 477.122,-129.243 466.623,-127.819 468.026,-134.677"/>
</g>
<!-- Node12 -->
<g id="node12" class="node"><title>Node12</title>
<g id="a_node12"><a xlink:title=" ">
<polygon fill="white" stroke="#bfbfbf" points="428.717,-56.5 428.717,-75.5 488.717,-75.5 488.717,-56.5 428.717,-56.5"/>
<text text-anchor="middle" x="458.717" y="-63.5" font-family="Helvetica,sans-Serif" font-size="10.00">GL/glew.h</text>
</a>
</g>
</g>
<!-- Node3&#45;&gt;Node12 -->
<g id="edge15" class="edge"><title>Node3&#45;&gt;Node12</title>
<path fill="none" stroke="midnightblue" d="M259.913,-168.478C268.806,-154.603 288.273,-127.158 311.717,-112 344.338,-90.9076 387.382,-79.2532 418.454,-73.123"/>
<polygon fill="midnightblue" stroke="midnightblue" points="419.31,-76.5236 428.499,-71.2501 418.027,-69.6422 419.31,-76.5236"/>
</g>
<!-- Node3&#45;&gt;Node13 -->
<g id="edge20" class="edge"><title>Node3&#45;&gt;Node13</title>
<path fill="none" stroke="midnightblue" d="M280.538,-168.462C307.895,-159.415 352.353,-144.708 390.717,-132 449.448,-112.545 518.067,-89.7808 556.552,-77.0107"/>
<polygon fill="midnightblue" stroke="midnightblue" points="557.73,-80.3075 566.119,-73.8361 555.525,-73.6637 557.73,-80.3075"/>
</g>
<!-- Node14 -->
<g id="node14" class="node"><title>Node14</title>
<g id="a_node14"><a xlink:title=" ">
<polygon fill="white" stroke="#bfbfbf" points="1005.72,-56.5 1005.72,-75.5 1061.72,-75.5 1061.72,-56.5 1005.72,-56.5"/>
<text text-anchor="middle" x="1033.72" y="-63.5" font-family="Helvetica,sans-Serif" font-size="10.00">algorithm</text>
</a>
</g>
</g>
<!-- Node3&#45;&gt;Node14 -->
<g id="edge16" class="edge"><title>Node3&#45;&gt;Node14</title>
<path fill="none" stroke="midnightblue" d="M282.893,-169.58C285.858,-168.969 288.839,-168.425 291.717,-168 437.247,-146.525 815.318,-184.555 952.717,-132 979.677,-121.688 1004.6,-98.8529 1019.48,-83.1909"/>
<polygon fill="midnightblue" stroke="midnightblue" points="1022.12,-85.4908 1026.31,-75.7588 1016.97,-80.7551 1022.12,-85.4908"/>
</g>
<!-- Node15 -->
<g id="node15" class="node"><title>Node15</title>
<g id="a_node15"><a xlink:title=" ">
<polygon fill="white" stroke="#bfbfbf" points="1317.22,-112.5 1317.22,-131.5 1366.22,-131.5 1366.22,-112.5 1317.22,-112.5"/>
<text text-anchor="middle" x="1341.72" y="-119.5" font-family="Helvetica,sans-Serif" font-size="10.00">fstream</text>
</a>
</g>
</g>
<!-- Node3&#45;&gt;Node15 -->
<g id="edge17" class="edge"><title>Node3&#45;&gt;Node15</title>
<path fill="none" stroke="midnightblue" d="M282.885,-169.524C285.851,-168.924 288.835,-168.397 291.717,-168 736.481,-106.685 859.766,-198.589 1307.03,-131.906"/>
<polygon fill="midnightblue" stroke="midnightblue" points="1307.62,-135.357 1316.98,-130.404 1306.57,-128.436 1307.62,-135.357"/>
</g>
<!-- Node16 -->
<g id="node16" class="node"><title>Node16</title>
<g id="a_node16"><a xlink:title=" ">
<polygon fill="white" stroke="#bfbfbf" points="27.7167,-112.5 27.7167,-131.5 79.7167,-131.5 79.7167,-112.5 27.7167,-112.5"/>
<text text-anchor="middle" x="53.7167" y="-119.5" font-family="Helvetica,sans-Serif" font-size="10.00">sstream</text>
</a>
</g>
</g>
<!-- Node3&#45;&gt;Node16 -->
<g id="edge19" class="edge"><title>Node3&#45;&gt;Node16</title>
<path fill="none" stroke="midnightblue" d="M226.345,-169.378C190.507,-159.75 128.807,-143.174 89.6948,-132.666"/>
<polygon fill="midnightblue" stroke="midnightblue" points="90.5919,-129.283 80.0262,-130.068 88.7757,-136.043 90.5919,-129.283"/>
</g>
<!-- Node3&#45;&gt;Node17 -->
<g id="edge21" class="edge"><title>Node3&#45;&gt;Node17</title>
<path fill="none" stroke="midnightblue" d="M282.892,-169.572C285.857,-168.963 288.839,-168.421 291.717,-168 596.884,-123.358 679.563,-176.737 984.717,-132 1021.83,-126.559 1030.19,-120.562 1066.72,-112 1126.52,-97.9811 1196.58,-82.4129 1235.89,-73.7552"/>
<polygon fill="midnightblue" stroke="midnightblue" points="1236.65,-77.1721 1245.67,-71.6058 1235.15,-70.3355 1236.65,-77.1721"/>
</g>
<!-- Node4&#45;&gt;Node5 -->
<g id="edge4" class="edge"><title>Node4&#45;&gt;Node5</title>
<path fill="none" stroke="midnightblue" d="M254.717,-56.083C254.717,-49.0059 254.717,-38.8611 254.717,-29.9865"/>
<polygon fill="midnightblue" stroke="midnightblue" points="258.217,-29.751 254.717,-19.7511 251.217,-29.7511 258.217,-29.751"/>
</g>
<!-- Node7&#45;&gt;Node8 -->
<g id="edge7" class="edge"><title>Node7&#45;&gt;Node8</title>
<path fill="none" stroke="midnightblue" d="M130.157,-112.083C135.666,-104.455 143.748,-93.2645 150.482,-83.9408"/>
<polygon fill="midnightblue" stroke="midnightblue" points="153.379,-85.9071 156.397,-75.7511 147.704,-81.8087 153.379,-85.9071"/>
</g>
<!-- Node9&#45;&gt;Node4 -->
<g id="edge9" class="edge"><title>Node9&#45;&gt;Node4</title>
<path fill="none" stroke="midnightblue" d="M206.035,-112.324C214.609,-104.341 227.529,-92.3128 237.904,-82.6529"/>
<polygon fill="midnightblue" stroke="midnightblue" points="240.294,-85.2098 245.228,-75.8339 235.525,-80.0865 240.294,-85.2098"/>
</g>
<!-- Node9&#45;&gt;Node8 -->
<g id="edge10" class="edge"><title>Node9&#45;&gt;Node8</title>
<path fill="none" stroke="midnightblue" d="M191.102,-112.083C186.349,-104.534 179.399,-93.4948 173.565,-84.2298"/>
<polygon fill="midnightblue" stroke="midnightblue" points="176.517,-82.3486 168.227,-75.7511 170.593,-86.0783 176.517,-82.3486"/>
</g>
<!-- Node11&#45;&gt;Node12 -->
<g id="edge13" class="edge"><title>Node11&#45;&gt;Node12</title>
<path fill="none" stroke="midnightblue" d="M499.625,-112.083C492.561,-104.298 482.129,-92.8015 473.568,-83.3665"/>
<polygon fill="midnightblue" stroke="midnightblue" points="475.969,-80.8047 466.658,-75.7511 470.785,-85.5087 475.969,-80.8047"/>
</g>
<!-- Node11&#45;&gt;Node13 -->
<g id="edge14" class="edge"><title>Node11&#45;&gt;Node13</title>
<path fill="none" stroke="midnightblue" d="M520.409,-112.324C532.618,-103.979 551.295,-91.2122 565.72,-81.3524"/>
<polygon fill="midnightblue" stroke="midnightblue" points="567.775,-84.1871 574.056,-75.6545 563.825,-78.4082 567.775,-84.1871"/>
</g>
<!-- Node19 -->
<g id="node19" class="node"><title>Node19</title>
<g id="a_node19"><a xlink:href="../../d3/d67/_glyph_8h.html" target="_top" xlink:title=" ">
<polygon fill="white" stroke="black" points="1414.72,-168.5 1414.72,-187.5 1464.72,-187.5 1464.72,-168.5 1414.72,-168.5"/>
<text text-anchor="middle" x="1439.72" y="-175.5" font-family="Helvetica,sans-Serif" font-size="10.00">Glyph.h</text>
</a>
</g>
</g>
<!-- Node18&#45;&gt;Node19 -->
<g id="edge24" class="edge"><title>Node18&#45;&gt;Node19</title>
<path fill="none" stroke="midnightblue" d="M1408.38,-280.368C1413.9,-262.537 1426.64,-221.295 1434.07,-197.272"/>
<polygon fill="midnightblue" stroke="midnightblue" points="1437.45,-198.179 1437.06,-187.591 1430.76,-196.112 1437.45,-198.179"/>
</g>
<!-- Node20 -->
<g id="node20" class="node"><title>Node20</title>
<g id="a_node20"><a xlink:href="../../db/dc0/_quad_8h.html" target="_top" xlink:title=" ">
<polygon fill="white" stroke="black" points="578.717,-224.5 578.717,-243.5 626.717,-243.5 626.717,-224.5 578.717,-224.5"/>
<text text-anchor="middle" x="602.717" y="-231.5" font-family="Helvetica,sans-Serif" font-size="10.00">Quad.h</text>
</a>
</g>
</g>
<!-- Node18&#45;&gt;Node20 -->
<g id="edge26" class="edge"><title>Node18&#45;&gt;Node20</title>
<path fill="none" stroke="midnightblue" d="M1355.18,-285.602C1205.08,-275.507 764.417,-245.874 637.369,-237.33"/>
<polygon fill="midnightblue" stroke="midnightblue" points="637.287,-233.817 627.074,-236.638 636.817,-240.801 637.287,-233.817"/>
</g>
<!-- Node19&#45;&gt;Node5 -->
<g id="edge25" class="edge"><title>Node19&#45;&gt;Node5</title>
<path fill="none" stroke="midnightblue" d="M1437.56,-168.363C1433.8,-154.814 1424.83,-128.417 1408.72,-112 1369.73,-72.2823 1350.59,-69.9523 1296.72,-56 1197.61,-30.335 460.437,-14.8972 289.872,-11.646"/>
<polygon fill="midnightblue" stroke="midnightblue" points="289.756,-8.14324 279.692,-11.4536 289.624,-15.142 289.756,-8.14324"/>
</g>
<!-- Node20&#45;&gt;Node3 -->
<g id="edge32" class="edge"><title>Node20&#45;&gt;Node3</title>
<path fill="none" stroke="midnightblue" d="M578.39,-230.277C527.354,-224.396 405.207,-209.434 293.062,-188.105"/>
<polygon fill="midnightblue" stroke="midnightblue" points="293.419,-184.61 282.938,-186.157 292.096,-191.484 293.419,-184.61"/>
</g>
<!-- Node20&#45;&gt;Node11 -->
<g id="edge33" class="edge"><title>Node20&#45;&gt;Node11</title>
<path fill="none" stroke="midnightblue" d="M601.991,-224.087C600.486,-210.633 595.967,-184.917 582.717,-168 571.733,-153.977 555.068,-143.357 540.234,-135.965"/>
<polygon fill="midnightblue" stroke="midnightblue" points="541.37,-132.633 530.829,-131.571 538.407,-138.975 541.37,-132.633"/>
</g>
<!-- Node20&#45;&gt;Node12 -->
<g id="edge50" class="edge"><title>Node20&#45;&gt;Node12</title>
<path fill="none" stroke="midnightblue" d="M578.499,-233.779C544.254,-233.398 482.635,-226.942 453.717,-188 431.342,-157.87 442.6,-110.929 451.468,-85.2698"/>
<polygon fill="midnightblue" stroke="midnightblue" points="454.826,-86.28 455.016,-75.6868 448.261,-83.849 454.826,-86.28"/>
</g>
<!-- Node21 -->
<g id="node21" class="node"><title>Node21</title>
<g id="a_node21"><a xlink:href="../../de/d50/_game_info_8h.html" target="_top" xlink:title=" ">
<polygon fill="white" stroke="black" points="741.717,-112.5 741.717,-131.5 807.717,-131.5 807.717,-112.5 741.717,-112.5"/>
<text text-anchor="middle" x="774.717" y="-119.5" font-family="Helvetica,sans-Serif" font-size="10.00">GameInfo.h</text>
</a>
</g>
</g>
<!-- Node20&#45;&gt;Node21 -->
<g id="edge27" class="edge"><title>Node20&#45;&gt;Node21</title>
<path fill="none" stroke="midnightblue" d="M608.343,-224.232C617.555,-210.503 637.111,-183.864 659.717,-168 681.5,-152.712 709.197,-141.67 731.951,-134.35"/>
<polygon fill="midnightblue" stroke="midnightblue" points="733.169,-137.637 741.692,-131.344 731.105,-130.949 733.169,-137.637"/>
</g>
<!-- Node24 -->
<g id="node24" class="node"><title>Node24</title>
<g id="a_node24"><a xlink:href="../../de/dbf/_texture_8h.html" target="_top" xlink:title=" ">
<polygon fill="white" stroke="black" points="947.217,-168.5 947.217,-187.5 1004.22,-187.5 1004.22,-168.5 947.217,-168.5"/>
<text text-anchor="middle" x="975.717" y="-175.5" font-family="Helvetica,sans-Serif" font-size="10.00">Texture.h</text>
</a>
</g>
</g>
<!-- Node20&#45;&gt;Node24 -->
<g id="edge34" class="edge"><title>Node20&#45;&gt;Node24</title>
<path fill="none" stroke="midnightblue" d="M626.903,-229.499C689.964,-220.369 859.839,-195.776 936.836,-184.629"/>
<polygon fill="midnightblue" stroke="midnightblue" points="937.668,-188.045 947.063,-183.148 936.665,-181.117 937.668,-188.045"/>
</g>
<!-- Node30 -->
<g id="node30" class="node"><title>Node30</title>
<g id="a_node30"><a xlink:href="../../db/d56/_transform_8h.html" target="_top" xlink:title=" ">
<polygon fill="white" stroke="black" points="668.717,-168.5 668.717,-187.5 736.717,-187.5 736.717,-168.5 668.717,-168.5"/>
<text text-anchor="middle" x="702.717" y="-175.5" font-family="Helvetica,sans-Serif" font-size="10.00">Transform.h</text>
</a>
</g>
</g>
<!-- Node20&#45;&gt;Node30 -->
<g id="edge48" class="edge"><title>Node20&#45;&gt;Node30</title>
<path fill="none" stroke="midnightblue" d="M618.783,-224.324C634.675,-215.743 659.224,-202.486 677.675,-192.522"/>
<polygon fill="midnightblue" stroke="midnightblue" points="679.554,-195.486 686.69,-187.655 676.228,-189.326 679.554,-195.486"/>
</g>
<!-- Node31 -->
<g id="node31" class="node"><title>Node31</title>
<g id="a_node31"><a xlink:title=" ">
<polygon fill="white" stroke="#bfbfbf" points="300.717,-168.5 300.717,-187.5 406.717,-187.5 406.717,-168.5 300.717,-168.5"/>
<text text-anchor="middle" x="353.717" y="-175.5" font-family="Helvetica,sans-Serif" font-size="10.00">glm/gtc/type_ptr.hpp</text>
</a>
</g>
</g>
<!-- Node20&#45;&gt;Node31 -->
<g id="edge51" class="edge"><title>Node20&#45;&gt;Node31</title>
<path fill="none" stroke="midnightblue" d="M578.388,-227.724C537.921,-218.948 456.005,-201.183 403.062,-189.701"/>
<polygon fill="midnightblue" stroke="midnightblue" points="403.721,-186.263 393.206,-187.564 402.237,-193.104 403.721,-186.263"/>
</g>
<!-- Node32 -->
<g id="node32" class="node"><title>Node32</title>
<g id="a_node32"><a xlink:title=" ">
<polygon fill="white" stroke="#bfbfbf" points="463.217,-168.5 463.217,-187.5 574.217,-187.5 574.217,-168.5 463.217,-168.5"/>
<text text-anchor="middle" x="518.717" y="-175.5" font-family="Helvetica,sans-Serif" font-size="10.00">glm/gtx/transform.hpp</text>
</a>
</g>
</g>
<!-- Node20&#45;&gt;Node32 -->
<g id="edge52" class="edge"><title>Node20&#45;&gt;Node32</title>
<path fill="none" stroke="midnightblue" d="M589.221,-224.324C576.117,-215.9 556.005,-202.971 540.61,-193.074"/>
<polygon fill="midnightblue" stroke="midnightblue" points="542.484,-190.118 532.179,-187.655 538.698,-196.006 542.484,-190.118"/>
</g>
<!-- Node21&#45;&gt;Node8 -->
<g id="edge29" class="edge"><title>Node21&#45;&gt;Node8</title>
<path fill="none" stroke="midnightblue" d="M741.349,-118.849C639.22,-112.189 330.989,-91.4969 209.913,-75.9777"/>
<polygon fill="midnightblue" stroke="midnightblue" points="210.187,-72.4834 199.813,-74.6344 209.264,-79.4223 210.187,-72.4834"/>
</g>
<!-- Node21&#45;&gt;Node13 -->
<g id="edge31" class="edge"><title>Node21&#45;&gt;Node13</title>
<path fill="none" stroke="midnightblue" d="M744.391,-112.499C714.484,-104.085 667.228,-90.7113 617.089,-76.0788"/>
<polygon fill="midnightblue" stroke="midnightblue" points="617.943,-72.6821 607.362,-73.235 615.978,-79.4008 617.943,-72.6821"/>
</g>
<!-- Node22 -->
<g id="node22" class="node"><title>Node22</title>
<g id="a_node22"><a xlink:title=" ">
<polygon fill="white" stroke="#bfbfbf" points="718.217,-56.5 718.217,-75.5 845.217,-75.5 845.217,-56.5 718.217,-56.5"/>
<text text-anchor="middle" x="781.717" y="-63.5" font-family="Helvetica,sans-Serif" font-size="10.00">LinearMath/btTransform.h</text>
</a>
</g>
</g>
<!-- Node21&#45;&gt;Node22 -->
<g id="edge28" class="edge"><title>Node21&#45;&gt;Node22</title>
<path fill="none" stroke="midnightblue" d="M775.873,-112.083C776.8,-104.927 778.134,-94.6353 779.294,-85.6911"/>
<polygon fill="midnightblue" stroke="midnightblue" points="782.768,-86.1181 780.582,-75.7511 775.826,-85.2181 782.768,-86.1181"/>
</g>
<!-- Node23 -->
<g id="node23" class="node"><title>Node23</title>
<g id="a_node23"><a xlink:title=" ">
<polygon fill="white" stroke="#bfbfbf" points="625.717,-56.5 625.717,-75.5 699.717,-75.5 699.717,-56.5 625.717,-56.5"/>
<text text-anchor="middle" x="662.717" y="-63.5" font-family="Helvetica,sans-Serif" font-size="10.00">glm/vec4.hpp</text>
</a>
</g>
</g>
<!-- Node21&#45;&gt;Node23 -->
<g id="edge30" class="edge"><title>Node21&#45;&gt;Node23</title>
<path fill="none" stroke="midnightblue" d="M756.722,-112.324C738.679,-103.625 710.67,-90.1202 689.914,-80.113"/>
<polygon fill="midnightblue" stroke="midnightblue" points="691.195,-76.8449 680.667,-75.6545 688.154,-83.1502 691.195,-76.8449"/>
</g>
<!-- Node24&#45;&gt;Node6 -->
<g id="edge41" class="edge"><title>Node24&#45;&gt;Node6</title>
<path fill="none" stroke="midnightblue" d="M946.842,-174.188C886.554,-168.123 742.999,-152.674 623.717,-132 622.424,-131.776 621.111,-131.539 619.786,-131.292"/>
<polygon fill="midnightblue" stroke="midnightblue" points="620.047,-127.775 609.556,-129.25 618.677,-134.64 620.047,-127.775"/>
</g>
<!-- Node24&#45;&gt;Node12 -->
<g id="edge35" class="edge"><title>Node24&#45;&gt;Node12</title>
<path fill="none" stroke="midnightblue" d="M947.08,-173.83C894.773,-167.757 780.437,-153.181 685.717,-132 654.974,-125.125 647.984,-120.734 617.717,-112 577.3,-100.337 531.019,-87.2715 498.851,-78.2362"/>
<polygon fill="midnightblue" stroke="midnightblue" points="499.502,-74.7838 488.929,-75.4512 497.611,-81.5233 499.502,-74.7838"/>
</g>
<!-- Node24&#45;&gt;Node13 -->
<g id="edge40" class="edge"><title>Node24&#45;&gt;Node13</title>
<path fill="none" stroke="midnightblue" d="M947.085,-174.068C901.055,-168.83 808.121,-156.09 732.717,-132 712.639,-125.586 708.931,-120.664 689.717,-112 664.992,-100.851 636.754,-88.5435 616.105,-79.622"/>
<polygon fill="midnightblue" stroke="midnightblue" points="617.478,-76.4027 606.91,-75.6561 614.706,-82.8303 617.478,-76.4027"/>
</g>
<!-- Node24&#45;&gt;Node14 -->
<g id="edge38" class="edge"><title>Node24&#45;&gt;Node14</title>
<path fill="none" stroke="midnightblue" d="M980.268,-168.368C989.755,-150.376 1011.81,-108.55 1024.42,-84.6267"/>
<polygon fill="midnightblue" stroke="midnightblue" points="1027.62,-86.0696 1029.19,-75.5914 1021.43,-82.8047 1027.62,-86.0696"/>
</g>
<!-- Node25 -->
<g id="node25" class="node"><title>Node25</title>
<g id="a_node25"><a xlink:title=" ">
<polygon fill="white" stroke="#bfbfbf" points="1076.22,-112.5 1076.22,-131.5 1151.22,-131.5 1151.22,-112.5 1076.22,-112.5"/>
<text text-anchor="middle" x="1113.72" y="-119.5" font-family="Helvetica,sans-Serif" font-size="10.00">SDL_image.h</text>
</a>
</g>
</g>
<!-- Node24&#45;&gt;Node25 -->
<g id="edge36" class="edge"><title>Node24&#45;&gt;Node25</title>
<path fill="none" stroke="midnightblue" d="M997.583,-168.444C1020.5,-159.478 1056.69,-145.314 1082.58,-135.183"/>
<polygon fill="midnightblue" stroke="midnightblue" points="1083.92,-138.42 1091.95,-131.516 1081.36,-131.901 1083.92,-138.42"/>
</g>
<!-- Node26 -->
<g id="node26" class="node"><title>Node26</title>
<g id="a_node26"><a xlink:title=" ">
<polygon fill="white" stroke="#bfbfbf" points="1169.22,-112.5 1169.22,-131.5 1246.22,-131.5 1246.22,-112.5 1169.22,-112.5"/>
<text text-anchor="middle" x="1207.72" y="-119.5" font-family="Helvetica,sans-Serif" font-size="10.00">SDL_opengl.h</text>
</a>
</g>
</g>
<!-- Node24&#45;&gt;Node26 -->
<g id="edge37" class="edge"><title>Node24&#45;&gt;Node26</title>
<path fill="none" stroke="midnightblue" d="M1004.63,-170.27C1043.9,-161.13 1114.54,-144.687 1161.29,-133.807"/>
<polygon fill="midnightblue" stroke="midnightblue" points="1162.22,-137.183 1171.17,-131.507 1160.64,-130.365 1162.22,-137.183"/>
</g>
<!-- Node27 -->
<g id="node27" class="node"><title>Node27</title>
<g id="a_node27"><a xlink:title=" ">
<polygon fill="white" stroke="#bfbfbf" points="1264.22,-112.5 1264.22,-131.5 1299.22,-131.5 1299.22,-112.5 1264.22,-112.5"/>
<text text-anchor="middle" x="1281.72" y="-119.5" font-family="Helvetica,sans-Serif" font-size="10.00">map</text>
</a>
</g>
</g>
<!-- Node24&#45;&gt;Node27 -->
<g id="edge39" class="edge"><title>Node24&#45;&gt;Node27</title>
<path fill="none" stroke="midnightblue" d="M1004.27,-174.073C1053.59,-168.662 1158,-155.651 1254.07,-132.077"/>
<polygon fill="midnightblue" stroke="midnightblue" points="1255.08,-135.432 1263.94,-129.611 1253.39,-128.641 1255.08,-135.432"/>
</g>
<!-- Node28 -->
<g id="node28" class="node"><title>Node28</title>
<g id="a_node28"><a xlink:href="../../d7/d26/_helping_hand_8h.html" target="_top" xlink:title=" ">
<polygon fill="white" stroke="black" points="863.717,-112.5 863.717,-131.5 943.717,-131.5 943.717,-112.5 863.717,-112.5"/>
<text text-anchor="middle" x="903.717" y="-119.5" font-family="Helvetica,sans-Serif" font-size="10.00">HelpingHand.h</text>
</a>
</g>
</g>
<!-- Node24&#45;&gt;Node28 -->
<g id="edge42" class="edge"><title>Node24&#45;&gt;Node28</title>
<path fill="none" stroke="midnightblue" d="M964.149,-168.324C953.297,-160.185 936.836,-147.839 923.833,-138.087"/>
<polygon fill="midnightblue" stroke="midnightblue" points="925.595,-135.034 915.495,-131.834 921.395,-140.634 925.595,-135.034"/>
</g>
<!-- Node28&#45;&gt;Node8 -->
<g id="edge46" class="edge"><title>Node28&#45;&gt;Node8</title>
<path fill="none" stroke="midnightblue" d="M863.469,-116.464C848.769,-114.906 832.003,-113.243 816.717,-112 550.205,-90.3353 478.991,-109.583 209.873,-75.9699"/>
<polygon fill="midnightblue" stroke="midnightblue" points="210.164,-72.4789 199.805,-74.6993 209.288,-79.4239 210.164,-72.4789"/>
</g>
<!-- Node28&#45;&gt;Node14 -->
<g id="edge44" class="edge"><title>Node28&#45;&gt;Node14</title>
<path fill="none" stroke="midnightblue" d="M924.316,-112.444C945.71,-103.557 979.398,-89.5632 1003.74,-79.4514"/>
<polygon fill="midnightblue" stroke="midnightblue" points="1005.32,-82.5848 1013.21,-75.5164 1002.64,-76.1203 1005.32,-82.5848"/>
</g>
<!-- Node28&#45;&gt;Node17 -->
<g id="edge47" class="edge"><title>Node28&#45;&gt;Node17</title>
<path fill="none" stroke="midnightblue" d="M943.951,-115.015C1016.87,-104.168 1169.39,-81.4785 1235.28,-71.676"/>
<polygon fill="midnightblue" stroke="midnightblue" points="1236.08,-75.0964 1245.45,-70.163 1235.05,-68.1726 1236.08,-75.0964"/>
</g>
<!-- Node28&#45;&gt;Node22 -->
<g id="edge43" class="edge"><title>Node28&#45;&gt;Node22</title>
<path fill="none" stroke="midnightblue" d="M884.385,-112.444C864.397,-103.596 832.974,-89.6875 810.153,-79.5865"/>
<polygon fill="midnightblue" stroke="midnightblue" points="811.518,-76.3635 800.958,-75.5164 808.685,-82.7645 811.518,-76.3635"/>
</g>
<!-- Node29 -->
<g id="node29" class="node"><title>Node29</title>
<g id="a_node29"><a xlink:title=" ">
<polygon fill="white" stroke="#bfbfbf" points="863.717,-56.5 863.717,-75.5 979.717,-75.5 979.717,-56.5 863.717,-56.5"/>
<text text-anchor="middle" x="921.717" y="-63.5" font-family="Helvetica,sans-Serif" font-size="10.00">glm/gtc/quaternion.hpp</text>
</a>
</g>
</g>
<!-- Node28&#45;&gt;Node29 -->
<g id="edge45" class="edge"><title>Node28&#45;&gt;Node29</title>
<path fill="none" stroke="midnightblue" d="M906.689,-112.083C909.101,-104.849 912.58,-94.4087 915.584,-85.3968"/>
<polygon fill="midnightblue" stroke="midnightblue" points="918.958,-86.3447 918.8,-75.7511 912.317,-84.1311 918.958,-86.3447"/>
</g>
<!-- Node30&#45;&gt;Node29 -->
<g id="edge49" class="edge"><title>Node30&#45;&gt;Node29</title>
<path fill="none" stroke="midnightblue" d="M728.184,-168.421C751.666,-160.169 787.24,-146.793 816.717,-132 847.262,-116.67 880.481,-95.2284 901.199,-81.2304"/>
<polygon fill="midnightblue" stroke="midnightblue" points="903.238,-84.076 909.526,-75.549 899.293,-78.2936 903.238,-84.076"/>
</g>
<!-- Node33&#45;&gt;Node17 -->
<g id="edge59" class="edge"><title>Node33&#45;&gt;Node17</title>
<path fill="none" stroke="midnightblue" d="M1337.87,-224.38C1362.93,-203.963 1419.41,-151.409 1391.72,-112 1370.69,-82.0846 1327.77,-71.9633 1298.14,-68.5928"/>
<polygon fill="midnightblue" stroke="midnightblue" points="1298.17,-65.0804 1287.88,-67.6323 1297.51,-72.0499 1298.17,-65.0804"/>
</g>
<!-- Node33&#45;&gt;Node19 -->
<g id="edge54" class="edge"><title>Node33&#45;&gt;Node19</title>
<path fill="none" stroke="midnightblue" d="M1344.62,-224.444C1362.97,-215.675 1391.72,-201.935 1412.81,-191.858"/>
<polygon fill="midnightblue" stroke="midnightblue" points="1414.38,-194.986 1421.9,-187.516 1411.36,-188.67 1414.38,-194.986"/>
</g>
<!-- Node33&#45;&gt;Node24 -->
<g id="edge58" class="edge"><title>Node33&#45;&gt;Node24</title>
<path fill="none" stroke="midnightblue" d="M1295.57,-228.208C1231.41,-218.338 1084.69,-195.765 1014.51,-184.968"/>
<polygon fill="midnightblue" stroke="midnightblue" points="1014.74,-181.463 1004.32,-183.401 1013.68,-188.381 1014.74,-181.463"/>
</g>
<!-- Node34 -->
<g id="node34" class="node"><title>Node34</title>
<g id="a_node34"><a xlink:href="../../d7/dcf/_serialization_8h.html" target="_top" xlink:title=" ">
<polygon fill="white" stroke="black" points="1280.72,-168.5 1280.72,-187.5 1358.72,-187.5 1358.72,-168.5 1280.72,-168.5"/>
<text text-anchor="middle" x="1319.72" y="-175.5" font-family="Helvetica,sans-Serif" font-size="10.00">Serialization.h</text>
</a>
</g>
</g>
<!-- Node33&#45;&gt;Node34 -->
<g id="edge55" class="edge"><title>Node33&#45;&gt;Node34</title>
<path fill="none" stroke="midnightblue" d="M1325.56,-224.083C1324.63,-216.927 1323.3,-206.635 1322.14,-197.691"/>
<polygon fill="midnightblue" stroke="midnightblue" points="1325.61,-197.218 1320.85,-187.751 1318.67,-198.118 1325.61,-197.218"/>
</g>
<!-- Node34&#45;&gt;Node14 -->
<g id="edge56" class="edge"><title>Node34&#45;&gt;Node14</title>
<path fill="none" stroke="midnightblue" d="M1336.64,-168.336C1358.91,-155.837 1393.3,-132.045 1375.72,-112 1355.91,-89.417 1157.09,-74.5918 1072.01,-69.2353"/>
<polygon fill="midnightblue" stroke="midnightblue" points="1072.18,-65.739 1061.98,-68.6146 1071.75,-72.7256 1072.18,-65.739"/>
</g>
<!-- Node34&#45;&gt;Node15 -->
<g id="edge57" class="edge"><title>Node34&#45;&gt;Node15</title>
<path fill="none" stroke="midnightblue" d="M1323.35,-168.083C1326.33,-160.77 1330.64,-150.181 1334.34,-141.103"/>
<polygon fill="midnightblue" stroke="midnightblue" points="1337.62,-142.333 1338.15,-131.751 1331.14,-139.691 1337.62,-142.333"/>
</g>
</g>
</svg>
        <g id="navigator" transform="translate(0 0)" fill="#404254">
                <rect fill="#f2f5e9" fill-opacity="0.5" stroke="#606060" stroke-width=".5" x="0" y="0" width="60" height="60"/>
                <use id="zoomplus" xlink:href="#zoomPlus" x="17" y="9" onmousedown="handleZoom(evt,'in')"/>
                <use id="zoomminus" xlink:href="#zoomMin" x="42" y="9" onmousedown="handleZoom(evt,'out')"/>
                <use id="reset" xlink:href="#resetDef" x="30" y="36" onmousedown="handleReset()"/>
                <g id="arrowUp" xlink:href="#dirArrow" transform="translate(30 24)" onmousedown="handlePan(0,-1)">
                  <use xlink:href="#rim" fill="#404040">
                        <set attributeName="fill" to="#808080" begin="arrowUp.mouseover" end="arrowUp.mouseout"/>
                  </use>
                  <path fill="none" stroke="white" stroke-width="1.5" d="M0,-3.0v7 M-2.5,-0.5L0,-3.0L2.5,-0.5"/>
                </g>
                <g id="arrowRight" xlink:href="#dirArrow" transform="rotate(90) translate(36 -43)" onmousedown="handlePan(1,0)">
                  <use xlink:href="#rim" fill="#404040">
                        <set attributeName="fill" to="#808080" begin="arrowRight.mouseover" end="arrowRight.mouseout"/>
                  </use>
                  <path fill="none" stroke="white" stroke-width="1.5" d="M0,-3.0v7 M-2.5,-0.5L0,-3.0L2.5,-0.5"/>
                </g>
                <g id="arrowDown" xlink:href="#dirArrow" transform="rotate(180) translate(-30 -48)" onmousedown="handlePan(0,1)">
                  <use xlink:href="#rim" fill="#404040">
                        <set attributeName="fill" to="#808080" begin="arrowDown.mouseover" end="arrowDown.mouseout"/>
                  </use>
                  <path fill="none" stroke="white" stroke-width="1.5" d="M0,-3.0v7 M-2.5,-0.5L0,-3.0L2.5,-0.5"/>
                </g>
                <g id="arrowLeft" xlink:href="#dirArrow" transform="rotate(270) translate(-36 17)" onmousedown="handlePan(-1,0)">
                  <use xlink:href="#rim" fill="#404040">
                        <set attributeName="fill" to="#808080" begin="arrowLeft.mouseover" end="arrowLeft.mouseout"/>
                  </use>
                  <path fill="none" stroke="white" stroke-width="1.5" d="M0,-3.0v7 M-2.5,-0.5L0,-3.0L2.5,-0.5"/>
                </g>
        </g>
        <svg viewBox="0 0 15 15" width="100%" height="30px" preserveAspectRatio="xMaxYMin meet">
         <g id="arrow_out" transform="scale(0.3 0.3)">
          <a xlink:href="_gui_string_8h__incl_org.svg" target="_base">
           <rect id="button" ry="5" rx="5" y="6" x="6" height="38" width="38"
                fill="#f2f5e9" fill-opacity="0.5" stroke="#606060" stroke-width="1.0"/>
           <path id="arrow"
             d="M 11.500037,31.436501 C 11.940474,20.09759 22.043105,11.32322 32.158766,21.979434 L 37.068811,17.246167 C 37.068811,17.246167 37.088388,32 37.088388,32 L 22.160133,31.978069 C 22.160133,31.978069 26.997745,27.140456 26.997745,27.140456 C 18.528582,18.264221 13.291696,25.230495 11.500037,31.436501 z"
             style="fill:#404040;"/>
          </a>
         </g>
        </svg>
</svg>
