<?xml version="1.0" encoding="UTF-8" standalone="no"?>
<!DOCTYPE svg PUBLIC "-//W3C//DTD SVG 1.1//EN"
 "http://www.w3.org/Graphics/SVG/1.1/DTD/svg11.dtd">
<!-- Generated by graphviz version 2.38.0 (20140413.2041)
 -->
<!-- Title: TextureHandler::binarySearchTextures Pages: 1 -->
<svg width="507pt" height="116pt"
 viewBox="0.00 0.00 507.00 115.50" xmlns="http://www.w3.org/2000/svg" xmlns:xlink="http://www.w3.org/1999/xlink">
<g id="graph0" class="graph" transform="scale(1 1) rotate(0) translate(4 111.5)">
<title>TextureHandler::binarySearchTextures</title>
<polygon fill="white" stroke="none" points="-4,4 -4,-111.5 503,-111.5 503,4 -4,4"/>
<!-- Node1 -->
<g id="node1" class="node"><title>Node1</title>
<g id="a_node1"><a xlink:title=" ">
<polygon fill="#bfbfbf" stroke="black" points="354,-44.5 354,-74.5 499,-74.5 499,-44.5 354,-44.5"/>
<text text-anchor="start" x="362" y="-62.5" font-family="Helvetica,sans-Serif" font-size="10.00">TextureHandler::binarySearch</text>
<text text-anchor="middle" x="426.5" y="-51.5" font-family="Helvetica,sans-Serif" font-size="10.00">Textures</text>
</a>
</g>
</g>
<!-- Node2 -->
<g id="node2" class="node"><title>Node2</title>
<g id="a_node2"><a xlink:href="../../d7/d13/class_texture_handler.html#a85fb7e3ae43c7a58a288e7285b9e58bf" target="_top" xlink:title=" ">
<polygon fill="white" stroke="black" points="184,-50 184,-69 318,-69 318,-50 184,-50"/>
<text text-anchor="middle" x="251" y="-57" font-family="Helvetica,sans-Serif" font-size="10.00">TextureHandler::getTexture</text>
</a>
</g>
</g>
<!-- Node1&#45;&gt;Node2 -->
<g id="edge1" class="edge"><title>Node1&#45;&gt;Node2</title>
<path fill="none" stroke="midnightblue" d="M343.855,-59.5C335.229,-59.5 326.535,-59.5 318.117,-59.5"/>
<polygon fill="midnightblue" stroke="midnightblue" points="343.929,-63.0001 353.929,-59.5 343.929,-56.0001 343.929,-63.0001"/>
</g>
<!-- Node3 -->
<g id="node3" class="node"><title>Node3</title>
<g id="a_node3"><a xlink:href="../../d8/d53/class_player.html#a74539e4ea62aea94ea420052bac78292" target="_top" xlink:title=" ">
<polygon fill="white" stroke="black" points="31,-88 31,-107 117,-107 117,-88 31,-88"/>
<text text-anchor="middle" x="74" y="-95" font-family="Helvetica,sans-Serif" font-size="10.00">Player::initialize</text>
</a>
</g>
</g>
<!-- Node2&#45;&gt;Node3 -->
<g id="edge2" class="edge"><title>Node2&#45;&gt;Node3</title>
<path fill="none" stroke="midnightblue" d="M195.98,-71.23C170.571,-76.7475 140.725,-83.2284 117.035,-88.3724"/>
<polygon fill="midnightblue" stroke="midnightblue" points="196.811,-74.6314 205.84,-69.089 195.325,-67.7908 196.811,-74.6314"/>
</g>
<!-- Node4 -->
<g id="node4" class="node"><title>Node4</title>
<g id="a_node4"><a xlink:href="../../d3/d96/class__3_d_m_1_1_model.html#a4e709f9f65b099c0744e0fc21adeeb5d" target="_top" xlink:title=" ">
<polygon fill="white" stroke="black" points="0,-50 0,-69 148,-69 148,-50 0,-50"/>
<text text-anchor="middle" x="74" y="-57" font-family="Helvetica,sans-Serif" font-size="10.00">_3DM::Model::initializeTexture</text>
</a>
</g>
</g>
<!-- Node2&#45;&gt;Node4 -->
<g id="edge3" class="edge"><title>Node2&#45;&gt;Node4</title>
<path fill="none" stroke="midnightblue" d="M173.655,-59.5C165.231,-59.5 156.666,-59.5 148.281,-59.5"/>
<polygon fill="midnightblue" stroke="midnightblue" points="173.84,-63.0001 183.84,-59.5 173.84,-56.0001 173.84,-63.0001"/>
</g>
<!-- Node5 -->
<g id="node5" class="node"><title>Node5</title>
<g id="a_node5"><a xlink:href="../../de/d92/class__3_d_m_1_1_animated_model.html#a45567581e2a85fd3e8358d43028ec8a7" target="_top" xlink:title=" ">
<polygon fill="white" stroke="black" points="16,-0.5 16,-30.5 132,-30.5 132,-0.5 16,-0.5"/>
<text text-anchor="start" x="24" y="-18.5" font-family="Helvetica,sans-Serif" font-size="10.00">_3DM::AnimatedModel</text>
<text text-anchor="middle" x="74" y="-7.5" font-family="Helvetica,sans-Serif" font-size="10.00">::initializeTexture</text>
</a>
</g>
</g>
<!-- Node2&#45;&gt;Node5 -->
<g id="edge4" class="edge"><title>Node2&#45;&gt;Node5</title>
<path fill="none" stroke="midnightblue" d="M202.098,-47.4561C180.492,-42.0237 154.804,-35.565 132.196,-29.8806"/>
<polygon fill="midnightblue" stroke="midnightblue" points="201.476,-50.9085 212.028,-49.9527 203.183,-44.1198 201.476,-50.9085"/>
</g>
</g>
</svg>
