<?xml version="1.0" encoding="UTF-8" standalone="no"?>
<!DOCTYPE svg PUBLIC "-//W3C//DTD SVG 1.1//EN"
 "http://www.w3.org/Graphics/SVG/1.1/DTD/svg11.dtd">
<!-- Generated by graphviz version 2.38.0 (20140413.2041)
 -->
<!-- Title: TextureHandler::getTexture Pages: 1 -->
<svg width="823pt" height="137pt"
 viewBox="0.00 0.00 823.00 137.00" xmlns="http://www.w3.org/2000/svg" xmlns:xlink="http://www.w3.org/1999/xlink">
<g id="graph0" class="graph" transform="scale(1 1) rotate(0) translate(4 133)">
<title>TextureHandler::getTexture</title>
<polygon fill="white" stroke="none" points="-4,4 -4,-133 819,-133 819,4 -4,4"/>
<!-- Node1 -->
<g id="node1" class="node"><title>Node1</title>
<g id="a_node1"><a xlink:title=" ">
<polygon fill="#bfbfbf" stroke="black" points="0,-33 0,-52 134,-52 134,-33 0,-33"/>
<text text-anchor="middle" x="67" y="-40" font-family="Helvetica,sans-Serif" font-size="10.00">TextureHandler::getTexture</text>
</a>
</g>
</g>
<!-- Node2 -->
<g id="node2" class="node"><title>Node2</title>
<g id="a_node2"><a xlink:href="../../d7/d13/class_texture_handler.html#a7b2135a42ef0d0d83fcfe8cf8d61828e" target="_top" xlink:title=" ">
<polygon fill="white" stroke="black" points="170,-55 170,-74 325,-74 325,-55 170,-55"/>
<text text-anchor="middle" x="247.5" y="-62" font-family="Helvetica,sans-Serif" font-size="10.00">TextureHandler::addNewTexture</text>
</a>
</g>
</g>
<!-- Node1&#45;&gt;Node2 -->
<g id="edge1" class="edge"><title>Node1&#45;&gt;Node2</title>
<path fill="none" stroke="midnightblue" d="M134.213,-50.6607C142.557,-51.6891 151.189,-52.7529 159.789,-53.8129"/>
<polygon fill="midnightblue" stroke="midnightblue" points="159.499,-57.3035 169.852,-55.0531 160.355,-50.3561 159.499,-57.3035"/>
</g>
<!-- Node8 -->
<g id="node8" class="node"><title>Node8</title>
<g id="a_node8"><a xlink:href="../../d7/d13/class_texture_handler.html#a3a76dad8ed61e8776536fd2cb59bab10" target="_top" xlink:title=" ">
<polygon fill="white" stroke="black" points="175,-5.5 175,-35.5 320,-35.5 320,-5.5 175,-5.5"/>
<text text-anchor="start" x="183" y="-23.5" font-family="Helvetica,sans-Serif" font-size="10.00">TextureHandler::binarySearch</text>
<text text-anchor="middle" x="247.5" y="-12.5" font-family="Helvetica,sans-Serif" font-size="10.00">Textures</text>
</a>
</g>
</g>
<!-- Node1&#45;&gt;Node8 -->
<g id="edge7" class="edge"><title>Node1&#45;&gt;Node8</title>
<path fill="none" stroke="midnightblue" d="M134.213,-34.3393C144.11,-33.1195 154.413,-31.8497 164.587,-30.5957"/>
<polygon fill="midnightblue" stroke="midnightblue" points="165.203,-34.0464 174.699,-29.3494 164.346,-27.099 165.203,-34.0464"/>
</g>
<!-- Node3 -->
<g id="node3" class="node"><title>Node3</title>
<g id="a_node3"><a xlink:href="../../d7/d13/class_texture_handler.html#a11178629a8ef637496caabd5ddbae66d" target="_top" xlink:title=" ">
<polygon fill="white" stroke="black" points="361,-55 361,-74 505,-74 505,-55 361,-55"/>
<text text-anchor="middle" x="433" y="-62" font-family="Helvetica,sans-Serif" font-size="10.00">TextureHandler::parseTexture</text>
</a>
</g>
</g>
<!-- Node2&#45;&gt;Node3 -->
<g id="edge2" class="edge"><title>Node2&#45;&gt;Node3</title>
<path fill="none" stroke="midnightblue" d="M325.257,-64.5C333.636,-64.5 342.186,-64.5 350.618,-64.5"/>
<polygon fill="midnightblue" stroke="midnightblue" points="350.824,-68.0001 360.824,-64.5 350.824,-61.0001 350.824,-68.0001"/>
</g>
<!-- Node4 -->
<g id="node4" class="node"><title>Node4</title>
<g id="a_node4"><a xlink:href="../../d7/d13/class_texture_handler.html#ac16e35d1c6ff692b412cec898f0eae42" target="_top" xlink:title=" ">
<polygon fill="white" stroke="black" points="545.5,-98.5 545.5,-128.5 679.5,-128.5 679.5,-98.5 545.5,-98.5"/>
<text text-anchor="start" x="553.5" y="-116.5" font-family="Helvetica,sans-Serif" font-size="10.00">TextureHandler::getSurface</text>
<text text-anchor="middle" x="612.5" y="-105.5" font-family="Helvetica,sans-Serif" font-size="10.00">Format</text>
</a>
</g>
</g>
<!-- Node3&#45;&gt;Node4 -->
<g id="edge3" class="edge"><title>Node3&#45;&gt;Node4</title>
<path fill="none" stroke="midnightblue" d="M468.645,-74.064C490.921,-80.2134 520.55,-88.3928 547.049,-95.7078"/>
<polygon fill="midnightblue" stroke="midnightblue" points="546.459,-99.1757 557.029,-98.463 548.321,-92.4281 546.459,-99.1757"/>
</g>
<!-- Node5 -->
<g id="node5" class="node"><title>Node5</title>
<g id="a_node5"><a xlink:href="../../d7/d13/class_texture_handler.html#a49d75156d87a0d0666693dbae6a6c5a4" target="_top" xlink:title=" ">
<polygon fill="white" stroke="black" points="546,-49.5 546,-79.5 679,-79.5 679,-49.5 546,-49.5"/>
<text text-anchor="start" x="554" y="-67.5" font-family="Helvetica,sans-Serif" font-size="10.00">TextureHandler::teximage2</text>
<text text-anchor="middle" x="612.5" y="-56.5" font-family="Helvetica,sans-Serif" font-size="10.00">DFillerTexture</text>
</a>
</g>
</g>
<!-- Node3&#45;&gt;Node5 -->
<g id="edge4" class="edge"><title>Node3&#45;&gt;Node5</title>
<path fill="none" stroke="midnightblue" d="M505.173,-64.5C515.228,-64.5 525.596,-64.5 535.734,-64.5"/>
<polygon fill="midnightblue" stroke="midnightblue" points="535.774,-68.0001 545.774,-64.5 535.774,-61.0001 535.774,-68.0001"/>
</g>
<!-- Node6 -->
<g id="node6" class="node"><title>Node6</title>
<g id="a_node6"><a xlink:href="../../d7/d13/class_texture_handler.html#a6420e706aa78904c657f5f95165ec207" target="_top" xlink:title=" ">
<polygon fill="white" stroke="black" points="541,-0.5 541,-30.5 684,-30.5 684,-0.5 541,-0.5"/>
<text text-anchor="start" x="549" y="-18.5" font-family="Helvetica,sans-Serif" font-size="10.00">TextureHandler::verifySurface</text>
<text text-anchor="middle" x="612.5" y="-7.5" font-family="Helvetica,sans-Serif" font-size="10.00">Dimensions</text>
</a>
</g>
</g>
<!-- Node3&#45;&gt;Node6 -->
<g id="edge5" class="edge"><title>Node3&#45;&gt;Node6</title>
<path fill="none" stroke="midnightblue" d="M468.645,-54.936C490.921,-48.7866 520.55,-40.6072 547.049,-33.2922"/>
<polygon fill="midnightblue" stroke="midnightblue" points="548.321,-36.5719 557.029,-30.537 546.459,-29.8243 548.321,-36.5719"/>
</g>
<!-- Node7 -->
<g id="node7" class="node"><title>Node7</title>
<g id="a_node7"><a xlink:href="../../d7/dd1/namespacehh.html#ac873cd925e3e7e68b6975dac4182baa7" target="_top" xlink:title=" ">
<polygon fill="white" stroke="black" points="720,-6 720,-25 815,-25 815,-6 720,-6"/>
<text text-anchor="middle" x="767.5" y="-13" font-family="Helvetica,sans-Serif" font-size="10.00">hh::isPowerOfTwo</text>
</a>
</g>
</g>
<!-- Node6&#45;&gt;Node7 -->
<g id="edge6" class="edge"><title>Node6&#45;&gt;Node7</title>
<path fill="none" stroke="midnightblue" d="M684.178,-15.5C692.656,-15.5 701.23,-15.5 709.481,-15.5"/>
<polygon fill="midnightblue" stroke="midnightblue" points="709.726,-19.0001 719.726,-15.5 709.726,-12.0001 709.726,-19.0001"/>
</g>
</g>
</svg>
