<?xml version="1.0" encoding="UTF-8" standalone="no"?>
<!DOCTYPE svg PUBLIC "-//W3C//DTD SVG 1.1//EN"
 "http://www.w3.org/Graphics/SVG/1.1/DTD/svg11.dtd">
<!-- Generated by graphviz version 2.38.0 (20140413.2041)
 -->
<!-- Title: TextureHandler::addNewTexture Pages: 1 -->
<svg width="653pt" height="137pt"
 viewBox="0.00 0.00 653.00 137.00" xmlns="http://www.w3.org/2000/svg" xmlns:xlink="http://www.w3.org/1999/xlink">
<g id="graph0" class="graph" transform="scale(1 1) rotate(0) translate(4 133)">
<title>TextureHandler::addNewTexture</title>
<polygon fill="white" stroke="none" points="-4,4 -4,-133 649,-133 649,4 -4,4"/>
<!-- Node1 -->
<g id="node1" class="node"><title>Node1</title>
<g id="a_node1"><a xlink:title=" ">
<polygon fill="#bfbfbf" stroke="black" points="0,-55 0,-74 155,-74 155,-55 0,-55"/>
<text text-anchor="middle" x="77.5" y="-62" font-family="Helvetica,sans-Serif" font-size="10.00">TextureHandler::addNewTexture</text>
</a>
</g>
</g>
<!-- Node2 -->
<g id="node2" class="node"><title>Node2</title>
<g id="a_node2"><a xlink:href="../../d7/d13/class_texture_handler.html#a11178629a8ef637496caabd5ddbae66d" target="_top" xlink:title=" ">
<polygon fill="white" stroke="black" points="191,-55 191,-74 335,-74 335,-55 191,-55"/>
<text text-anchor="middle" x="263" y="-62" font-family="Helvetica,sans-Serif" font-size="10.00">TextureHandler::parseTexture</text>
</a>
</g>
</g>
<!-- Node1&#45;&gt;Node2 -->
<g id="edge1" class="edge"><title>Node1&#45;&gt;Node2</title>
<path fill="none" stroke="midnightblue" d="M155.257,-64.5C163.636,-64.5 172.186,-64.5 180.618,-64.5"/>
<polygon fill="midnightblue" stroke="midnightblue" points="180.824,-68.0001 190.824,-64.5 180.824,-61.0001 180.824,-68.0001"/>
</g>
<!-- Node3 -->
<g id="node3" class="node"><title>Node3</title>
<g id="a_node3"><a xlink:href="../../d7/d13/class_texture_handler.html#ac16e35d1c6ff692b412cec898f0eae42" target="_top" xlink:title=" ">
<polygon fill="white" stroke="black" points="375.5,-98.5 375.5,-128.5 509.5,-128.5 509.5,-98.5 375.5,-98.5"/>
<text text-anchor="start" x="383.5" y="-116.5" font-family="Helvetica,sans-Serif" font-size="10.00">TextureHandler::getSurface</text>
<text text-anchor="middle" x="442.5" y="-105.5" font-family="Helvetica,sans-Serif" font-size="10.00">Format</text>
</a>
</g>
</g>
<!-- Node2&#45;&gt;Node3 -->
<g id="edge2" class="edge"><title>Node2&#45;&gt;Node3</title>
<path fill="none" stroke="midnightblue" d="M298.645,-74.064C320.921,-80.2134 350.55,-88.3928 377.049,-95.7078"/>
<polygon fill="midnightblue" stroke="midnightblue" points="376.459,-99.1757 387.029,-98.463 378.321,-92.4281 376.459,-99.1757"/>
</g>
<!-- Node4 -->
<g id="node4" class="node"><title>Node4</title>
<g id="a_node4"><a xlink:href="../../d7/d13/class_texture_handler.html#a49d75156d87a0d0666693dbae6a6c5a4" target="_top" xlink:title=" ">
<polygon fill="white" stroke="black" points="376,-49.5 376,-79.5 509,-79.5 509,-49.5 376,-49.5"/>
<text text-anchor="start" x="384" y="-67.5" font-family="Helvetica,sans-Serif" font-size="10.00">TextureHandler::teximage2</text>
<text text-anchor="middle" x="442.5" y="-56.5" font-family="Helvetica,sans-Serif" font-size="10.00">DFillerTexture</text>
</a>
</g>
</g>
<!-- Node2&#45;&gt;Node4 -->
<g id="edge3" class="edge"><title>Node2&#45;&gt;Node4</title>
<path fill="none" stroke="midnightblue" d="M335.173,-64.5C345.228,-64.5 355.596,-64.5 365.734,-64.5"/>
<polygon fill="midnightblue" stroke="midnightblue" points="365.774,-68.0001 375.774,-64.5 365.774,-61.0001 365.774,-68.0001"/>
</g>
<!-- Node5 -->
<g id="node5" class="node"><title>Node5</title>
<g id="a_node5"><a xlink:href="../../d7/d13/class_texture_handler.html#a6420e706aa78904c657f5f95165ec207" target="_top" xlink:title=" ">
<polygon fill="white" stroke="black" points="371,-0.5 371,-30.5 514,-30.5 514,-0.5 371,-0.5"/>
<text text-anchor="start" x="379" y="-18.5" font-family="Helvetica,sans-Serif" font-size="10.00">TextureHandler::verifySurface</text>
<text text-anchor="middle" x="442.5" y="-7.5" font-family="Helvetica,sans-Serif" font-size="10.00">Dimensions</text>
</a>
</g>
</g>
<!-- Node2&#45;&gt;Node5 -->
<g id="edge4" class="edge"><title>Node2&#45;&gt;Node5</title>
<path fill="none" stroke="midnightblue" d="M298.645,-54.936C320.921,-48.7866 350.55,-40.6072 377.049,-33.2922"/>
<polygon fill="midnightblue" stroke="midnightblue" points="378.321,-36.5719 387.029,-30.537 376.459,-29.8243 378.321,-36.5719"/>
</g>
<!-- Node6 -->
<g id="node6" class="node"><title>Node6</title>
<g id="a_node6"><a xlink:href="../../d7/dd1/namespacehh.html#ac873cd925e3e7e68b6975dac4182baa7" target="_top" xlink:title=" ">
<polygon fill="white" stroke="black" points="550,-6 550,-25 645,-25 645,-6 550,-6"/>
<text text-anchor="middle" x="597.5" y="-13" font-family="Helvetica,sans-Serif" font-size="10.00">hh::isPowerOfTwo</text>
</a>
</g>
</g>
<!-- Node5&#45;&gt;Node6 -->
<g id="edge5" class="edge"><title>Node5&#45;&gt;Node6</title>
<path fill="none" stroke="midnightblue" d="M514.178,-15.5C522.656,-15.5 531.23,-15.5 539.481,-15.5"/>
<polygon fill="midnightblue" stroke="midnightblue" points="539.726,-19.0001 549.726,-15.5 539.726,-12.0001 539.726,-19.0001"/>
</g>
</g>
</svg>
