<?xml version="1.0" encoding="UTF-8" standalone="no"?>
<!DOCTYPE svg PUBLIC "-//W3C//DTD SVG 1.1//EN"
 "http://www.w3.org/Graphics/SVG/1.1/DTD/svg11.dtd">
<!-- Generated by graphviz version 2.38.0 (20140413.2041)
 -->
<!-- Title: PauseMenuSystem::render Pages: 1 -->
<!--zoomable 515 -->
<svg id="main" version="1.1" xmlns="http://www.w3.org/2000/svg" xmlns:xlink="http://www.w3.org/1999/xlink" xml:space="preserve" onload="init(evt)">
<style type="text/css"><![CDATA[
.edge:hover path { stroke: red; }
.edge:hover polygon { stroke: red; fill: red; }
]]></style>
<script type="text/javascript"><![CDATA[
var edges = document.getElementsByTagName('g');
if (edges && edges.length) {
  for (var i=0;i<edges.length;i++) {
    if (edges[i].id.substr(0,4)=='edge') {
      edges[i].setAttribute('class','edge');
    }
  }
}
]]></script>
        <defs>
                <circle id="rim" cx="0" cy="0" r="7"/>
                <circle id="rim2" cx="0" cy="0" r="3.5"/>
                <g id="zoomPlus">
                        <use xlink:href="#rim" fill="#404040">
                                <set attributeName="fill" to="#808080" begin="zoomplus.mouseover" end="zoomplus.mouseout"/>
                        </use>
                        <path d="M-4,0h8M0,-4v8" fill="none" stroke="white" stroke-width="1.5" pointer-events="none"/>
                </g>
                <g id="zoomMin">
                        <use xlink:href="#rim" fill="#404040">
                                <set attributeName="fill" to="#808080" begin="zoomminus.mouseover" end="zoomminus.mouseout"/>
                        </use>
                        <path d="M-4,0h8" fill="none" stroke="white" stroke-width="1.5" pointer-events="none"/>
                </g>
                <g id="dirArrow">
                        <path fill="none" stroke="white" stroke-width="1.5" d="M0,-3.0v7 M-2.5,-0.5L0,-3.0L2.5,-0.5"/>
                </g>
               <g id="resetDef">
                       <use xlink:href="#rim2" fill="#404040">
                               <set attributeName="fill" to="#808080" begin="reset.mouseover" end="reset.mouseout"/>
                       </use>
               </g>
        </defs>

<script type="text/javascript">
var viewWidth = 834;
var viewHeight = 515;
var sectionId = 'dynsection-0';
</script>
<script xlink:href="../../svgpan.js"/>
<svg id="graph" class="graph">
<g id="viewport">
<title>PauseMenuSystem::render</title>
<polygon fill="white" stroke="none" points="-4,4 -4,-511 830,-511 830,4 -4,4"/>
<!-- Node1 -->
<g id="node1" class="node"><title>Node1</title>
<g id="a_node1"><a xlink:title=" ">
<polygon fill="#bfbfbf" stroke="black" points="0,-373.5 0,-392.5 135,-392.5 135,-373.5 0,-373.5"/>
<text text-anchor="middle" x="67.5" y="-380.5" font-family="Helvetica,sans-Serif" font-size="10.00">PauseMenuSystem::render</text>
</a>
</g>
</g>
<!-- Node2 -->
<g id="node2" class="node"><title>Node2</title>
<g id="a_node2"><a xlink:href="../../dd/df5/class_gui_string.html#a4a48d0bce9e5e949d5a0e31c00d879c6" target="_top" xlink:title=" ">
<polygon fill="white" stroke="black" points="175,-487.5 175,-506.5 312,-506.5 312,-487.5 175,-487.5"/>
<text text-anchor="middle" x="243.5" y="-494.5" font-family="Helvetica,sans-Serif" font-size="10.00">GuiString::getWidthOfString</text>
</a>
</g>
</g>
<!-- Node1&#45;&gt;Node2 -->
<g id="edge1" class="edge"><title>Node1&#45;&gt;Node2</title>
<path fill="none" stroke="midnightblue" d="M76.8703,-392.527C93.2443,-410.626 131.386,-450.203 171,-473 178.504,-477.319 186.902,-481.008 195.232,-484.104"/>
<polygon fill="midnightblue" stroke="midnightblue" points="194.326,-487.494 204.92,-487.469 196.622,-480.882 194.326,-487.494"/>
</g>
<!-- Node3 -->
<g id="node3" class="node"><title>Node3</title>
<g id="a_node3"><a xlink:href="../../d4/d58/namespace_game_info.html#a344c7e16ac06ee1f8458a249aac36e8e" target="_top" xlink:title=" ">
<polygon fill="white" stroke="black" points="504,-468.5 504,-487.5 644,-487.5 644,-468.5 504,-468.5"/>
<text text-anchor="middle" x="574" y="-475.5" font-family="Helvetica,sans-Serif" font-size="10.00">GameInfo::getWindowHeight</text>
</a>
</g>
</g>
<!-- Node1&#45;&gt;Node3 -->
<g id="edge2" class="edge"><title>Node1&#45;&gt;Node3</title>
<path fill="none" stroke="midnightblue" d="M88.0404,-392.507C108.309,-401.962 141.156,-416.156 171,-424 280.836,-452.868 411.825,-466.795 493.725,-473.149"/>
<polygon fill="midnightblue" stroke="midnightblue" points="493.476,-476.64 503.712,-473.905 494.004,-469.66 493.476,-476.64"/>
</g>
<!-- Node5 -->
<g id="node5" class="node"><title>Node5</title>
<g id="a_node5"><a xlink:href="../../d4/d58/namespace_game_info.html#a7cf2306eb3025a60a9e2da52eefba71e" target="_top" xlink:title=" ">
<polygon fill="white" stroke="black" points="505.5,-430.5 505.5,-449.5 642.5,-449.5 642.5,-430.5 505.5,-430.5"/>
<text text-anchor="middle" x="574" y="-437.5" font-family="Helvetica,sans-Serif" font-size="10.00">GameInfo::getWindowWidth</text>
</a>
</g>
</g>
<!-- Node1&#45;&gt;Node5 -->
<g id="edge4" class="edge"><title>Node1&#45;&gt;Node5</title>
<path fill="none" stroke="midnightblue" d="M115.046,-392.534C132.535,-395.877 152.628,-399.434 171,-402 283.189,-417.669 413.915,-428.697 495.078,-434.7"/>
<polygon fill="midnightblue" stroke="midnightblue" points="494.985,-438.203 505.214,-435.443 495.497,-431.222 494.985,-438.203"/>
</g>
<!-- Node7 -->
<g id="node7" class="node"><title>Node7</title>
<g id="a_node7"><a xlink:href="../../dd/df5/class_gui_string.html#ad0f15cbdb97efa9caa42cf9f3a6b4314" target="_top" xlink:title=" ">
<polygon fill="white" stroke="black" points="198.5,-335.5 198.5,-354.5 288.5,-354.5 288.5,-335.5 198.5,-335.5"/>
<text text-anchor="middle" x="243.5" y="-342.5" font-family="Helvetica,sans-Serif" font-size="10.00">GuiString::render</text>
</a>
</g>
</g>
<!-- Node1&#45;&gt;Node7 -->
<g id="edge6" class="edge"><title>Node1&#45;&gt;Node7</title>
<path fill="none" stroke="midnightblue" d="M112.408,-373.411C135.679,-368.329 164.454,-362.045 189.019,-356.68"/>
<polygon fill="midnightblue" stroke="midnightblue" points="189.885,-360.073 198.908,-354.52 188.392,-353.234 189.885,-360.073"/>
</g>
<!-- Node13 -->
<g id="node13" class="node"><title>Node13</title>
<g id="a_node13"><a xlink:href="../../d1/db9/class_gui_sprite.html#ad8d743c3e3889fba893f29796717114f" target="_top" xlink:title=" ">
<polygon fill="white" stroke="black" points="198.5,-373.5 198.5,-392.5 288.5,-392.5 288.5,-373.5 198.5,-373.5"/>
<text text-anchor="middle" x="243.5" y="-380.5" font-family="Helvetica,sans-Serif" font-size="10.00">GuiSprite::render</text>
</a>
</g>
</g>
<!-- Node1&#45;&gt;Node13 -->
<g id="edge12" class="edge"><title>Node1&#45;&gt;Node13</title>
<path fill="none" stroke="midnightblue" d="M135.275,-383C152.815,-383 171.516,-383 188.307,-383"/>
<polygon fill="midnightblue" stroke="midnightblue" points="188.487,-386.5 198.487,-383 188.487,-379.5 188.487,-386.5"/>
</g>
<!-- Node23 -->
<g id="node23" class="node"><title>Node23</title>
<g id="a_node23"><a xlink:href="../../dd/df5/class_gui_string.html#abb299aeb3be7a0533709ef30be6ec668" target="_top" xlink:title=" ">
<polygon fill="white" stroke="black" points="187.5,-297.5 187.5,-316.5 299.5,-316.5 299.5,-297.5 187.5,-297.5"/>
<text text-anchor="middle" x="243.5" y="-304.5" font-family="Helvetica,sans-Serif" font-size="10.00">GuiString::setPosition</text>
</a>
</g>
</g>
<!-- Node1&#45;&gt;Node23 -->
<g id="edge25" class="edge"><title>Node1&#45;&gt;Node23</title>
<path fill="none" stroke="midnightblue" d="M82.867,-373.497C102.192,-361.076 137.957,-339.337 171,-326 176.94,-323.602 183.28,-321.418 189.638,-319.454"/>
<polygon fill="midnightblue" stroke="midnightblue" points="190.969,-322.712 199.589,-316.552 189.009,-315.992 190.969,-322.712"/>
</g>
<!-- Node24 -->
<g id="node24" class="node"><title>Node24</title>
<g id="a_node24"><a xlink:href="../../dd/df5/class_gui_string.html#a6274f2963a0184d296da9286cbcf222c" target="_top" xlink:title=" ">
<polygon fill="white" stroke="black" points="171,-259.5 171,-278.5 316,-278.5 316,-259.5 171,-259.5"/>
<text text-anchor="middle" x="243.5" y="-266.5" font-family="Helvetica,sans-Serif" font-size="10.00">GuiString::setVerticalPadding</text>
</a>
</g>
</g>
<!-- Node1&#45;&gt;Node24 -->
<g id="edge26" class="edge"><title>Node1&#45;&gt;Node24</title>
<path fill="none" stroke="midnightblue" d="M76.1273,-373.278C91.7796,-354.001 129.561,-310.832 171,-288 175.141,-285.718 179.57,-283.7 184.118,-281.916"/>
<polygon fill="midnightblue" stroke="midnightblue" points="185.305,-285.209 193.566,-278.576 182.972,-278.609 185.305,-285.209"/>
</g>
<!-- Node4 -->
<g id="node4" class="node"><title>Node4</title>
<g id="a_node4"><a xlink:href="../../de/d6b/class_application.html#a0398d40c89d52bb8d6ac6ac466c5d30c" target="_top" xlink:title=" ">
<polygon fill="white" stroke="black" points="681,-468 681,-498 826,-498 826,-468 681,-468"/>
<text text-anchor="start" x="689" y="-486" font-family="Helvetica,sans-Serif" font-size="10.00">Application::getGameWindow</text>
<text text-anchor="middle" x="753.5" y="-475" font-family="Helvetica,sans-Serif" font-size="10.00">Height</text>
</a>
</g>
</g>
<!-- Node3&#45;&gt;Node4 -->
<g id="edge3" class="edge"><title>Node3&#45;&gt;Node4</title>
<path fill="none" stroke="midnightblue" d="M644.134,-479.947C652.904,-480.194 661.943,-480.449 670.885,-480.701"/>
<polygon fill="midnightblue" stroke="midnightblue" points="670.825,-484.201 680.919,-480.984 671.022,-477.203 670.825,-484.201"/>
</g>
<!-- Node6 -->
<g id="node6" class="node"><title>Node6</title>
<g id="a_node6"><a xlink:href="../../de/d6b/class_application.html#aad8864ec1fa58ee23db7b111876d09a5" target="_top" xlink:title=" ">
<polygon fill="white" stroke="black" points="681,-419 681,-449 826,-449 826,-419 681,-419"/>
<text text-anchor="start" x="689" y="-437" font-family="Helvetica,sans-Serif" font-size="10.00">Application::getGameWindow</text>
<text text-anchor="middle" x="753.5" y="-426" font-family="Helvetica,sans-Serif" font-size="10.00">Width</text>
</a>
</g>
</g>
<!-- Node5&#45;&gt;Node6 -->
<g id="edge5" class="edge"><title>Node5&#45;&gt;Node6</title>
<path fill="none" stroke="midnightblue" d="M642.611,-437.715C651.821,-437.403 661.353,-437.081 670.778,-436.762"/>
<polygon fill="midnightblue" stroke="midnightblue" points="671.067,-440.255 680.943,-436.419 670.831,-433.259 671.067,-440.255"/>
</g>
<!-- Node8 -->
<g id="node8" class="node"><title>Node8</title>
<g id="a_node8"><a xlink:href="../../dd/df5/class_gui_string.html#a2de41389b7f44064a13193fc8d8f7822" target="_top" xlink:title=" ">
<polygon fill="white" stroke="black" points="352,-82.5 352,-101.5 467,-101.5 467,-82.5 352,-82.5"/>
<text text-anchor="middle" x="409.5" y="-89.5" font-family="Helvetica,sans-Serif" font-size="10.00">GuiString::mainRender</text>
</a>
</g>
</g>
<!-- Node7&#45;&gt;Node8 -->
<g id="edge7" class="edge"><title>Node7&#45;&gt;Node8</title>
<path fill="none" stroke="midnightblue" d="M288.531,-340.091C298.462,-337.246 308.323,-332.83 316,-326 381.593,-267.649 401.206,-156.704 406.608,-111.701"/>
<polygon fill="midnightblue" stroke="midnightblue" points="410.088,-112.074 407.694,-101.753 403.129,-111.314 410.088,-112.074"/>
</g>
<!-- Node9 -->
<g id="node9" class="node"><title>Node9</title>
<g id="a_node9"><a xlink:href="../../db/d74/class_text_map.html#aa255b018cda98630ea032d99431e5c08" target="_top" xlink:title=" ">
<polygon fill="white" stroke="black" points="524.5,-0.5 524.5,-19.5 623.5,-19.5 623.5,-0.5 524.5,-0.5"/>
<text text-anchor="middle" x="574" y="-7.5" font-family="Helvetica,sans-Serif" font-size="10.00">TextMap::getGlyph</text>
</a>
</g>
</g>
<!-- Node8&#45;&gt;Node9 -->
<g id="edge8" class="edge"><title>Node8&#45;&gt;Node9</title>
<path fill="none" stroke="midnightblue" d="M421.997,-82.2777C438.772,-68.5511 471.408,-43.5453 503,-29 508.076,-26.663 513.495,-24.5654 518.986,-22.6943"/>
<polygon fill="midnightblue" stroke="midnightblue" points="520.407,-25.9161 528.89,-19.5682 518.3,-19.2407 520.407,-25.9161"/>
</g>
<!-- Node10 -->
<g id="node10" class="node"><title>Node10</title>
<g id="a_node10"><a xlink:href="../../db/db4/struct_glyph.html#acde78c0f1f504ded10a319581b7ff8cf" target="_top" xlink:title=" ">
<polygon fill="white" stroke="black" points="529.5,-126.5 529.5,-145.5 618.5,-145.5 618.5,-126.5 529.5,-126.5"/>
<text text-anchor="middle" x="574" y="-133.5" font-family="Helvetica,sans-Serif" font-size="10.00">Glyph::getHeight</text>
</a>
</g>
</g>
<!-- Node8&#45;&gt;Node10 -->
<g id="edge9" class="edge"><title>Node8&#45;&gt;Node10</title>
<path fill="none" stroke="midnightblue" d="M445.76,-101.547C469.823,-108.063 501.909,-116.751 527.841,-123.772"/>
<polygon fill="midnightblue" stroke="midnightblue" points="527.242,-127.236 537.809,-126.471 529.071,-120.479 527.242,-127.236"/>
</g>
<!-- Node11 -->
<g id="node11" class="node"><title>Node11</title>
<g id="a_node11"><a xlink:href="../../db/d74/class_text_map.html#a51dea925ea75100dd8221e9415959baf" target="_top" xlink:title=" ">
<polygon fill="white" stroke="black" points="503,-77 503,-107 645,-107 645,-77 503,-77"/>
<text text-anchor="start" x="511" y="-95" font-family="Helvetica,sans-Serif" font-size="10.00">TextMap::getMaxPixelHeight</text>
<text text-anchor="middle" x="574" y="-84" font-family="Helvetica,sans-Serif" font-size="10.00">OfAllGlyphs</text>
</a>
</g>
</g>
<!-- Node8&#45;&gt;Node11 -->
<g id="edge10" class="edge"><title>Node8&#45;&gt;Node11</title>
<path fill="none" stroke="midnightblue" d="M467.335,-92C475.557,-92 484.148,-92 492.724,-92"/>
<polygon fill="midnightblue" stroke="midnightblue" points="492.763,-95.5001 502.762,-92 492.762,-88.5001 492.763,-95.5001"/>
</g>
<!-- Node12 -->
<g id="node12" class="node"><title>Node12</title>
<g id="a_node12"><a xlink:href="../../db/db4/struct_glyph.html#a838940af793d410d6208d71a8691c24c" target="_top" xlink:title=" ">
<polygon fill="white" stroke="black" points="530.5,-38.5 530.5,-57.5 617.5,-57.5 617.5,-38.5 530.5,-38.5"/>
<text text-anchor="middle" x="574" y="-45.5" font-family="Helvetica,sans-Serif" font-size="10.00">Glyph::getWidth</text>
</a>
</g>
</g>
<!-- Node8&#45;&gt;Node12 -->
<g id="edge11" class="edge"><title>Node8&#45;&gt;Node12</title>
<path fill="none" stroke="midnightblue" d="M445.76,-82.4527C469.823,-75.9373 501.909,-67.2492 527.841,-60.2278"/>
<polygon fill="midnightblue" stroke="midnightblue" points="529.071,-63.5207 537.809,-57.5287 527.242,-56.764 529.071,-63.5207"/>
</g>
<!-- Node14 -->
<g id="node14" class="node"><title>Node14</title>
<g id="a_node14"><a xlink:href="../../d3/df8/class_quad.html#a424c01ecd59971dc51e39bc19fbda551" target="_top" xlink:title=" ">
<polygon fill="white" stroke="black" points="367,-335.5 367,-354.5 452,-354.5 452,-335.5 367,-335.5"/>
<text text-anchor="middle" x="409.5" y="-342.5" font-family="Helvetica,sans-Serif" font-size="10.00">Quad::render3D</text>
</a>
</g>
</g>
<!-- Node13&#45;&gt;Node14 -->
<g id="edge13" class="edge"><title>Node13&#45;&gt;Node14</title>
<path fill="none" stroke="midnightblue" d="M285.884,-373.411C307.623,-368.374 334.457,-362.156 357.475,-356.823"/>
<polygon fill="midnightblue" stroke="midnightblue" points="358.462,-360.187 367.413,-354.52 356.881,-353.368 358.462,-360.187"/>
</g>
<!-- Node14&#45;&gt;Node3 -->
<g id="edge21" class="edge"><title>Node14&#45;&gt;Node3</title>
<path fill="none" stroke="midnightblue" d="M415.529,-354.655C427.529,-376.713 460.067,-431.05 503,-459 506.14,-461.044 509.495,-462.869 512.973,-464.5"/>
<polygon fill="midnightblue" stroke="midnightblue" points="511.825,-467.812 522.404,-468.375 514.485,-461.337 511.825,-467.812"/>
</g>
<!-- Node14&#45;&gt;Node5 -->
<g id="edge22" class="edge"><title>Node14&#45;&gt;Node5</title>
<path fill="none" stroke="midnightblue" d="M419.51,-354.703C435.025,-370.839 468.461,-403.176 503,-421 507.501,-423.323 512.315,-425.384 517.233,-427.21"/>
<polygon fill="midnightblue" stroke="midnightblue" points="516.17,-430.545 526.764,-430.436 518.414,-423.915 516.17,-430.545"/>
</g>
<!-- Node15 -->
<g id="node15" class="node"><title>Node15</title>
<g id="a_node15"><a xlink:href="../../d7/da2/namespace_shaders.html#a137768343963ec1e71572a39e29892e6" target="_top" xlink:title=" ">
<polygon fill="white" stroke="black" points="687.5,-278.5 687.5,-297.5 819.5,-297.5 819.5,-278.5 687.5,-278.5"/>
<text text-anchor="middle" x="753.5" y="-285.5" font-family="Helvetica,sans-Serif" font-size="10.00">Shaders::getAttribLocation</text>
</a>
</g>
</g>
<!-- Node14&#45;&gt;Node15 -->
<g id="edge14" class="edge"><title>Node14&#45;&gt;Node15</title>
<path fill="none" stroke="midnightblue" d="M418.133,-335.378C432.531,-318.103 465.626,-282.384 503,-269 574.167,-243.513 663.863,-261.454 714.017,-275.559"/>
<polygon fill="midnightblue" stroke="midnightblue" points="713.221,-278.973 723.801,-278.405 715.176,-272.251 713.221,-278.973"/>
</g>
<!-- Node16 -->
<g id="node16" class="node"><title>Node16</title>
<g id="a_node16"><a xlink:href="../../d2/d7f/class_texture.html#a0eaebfd0e00f88d19a64ed05ea634539" target="_top" xlink:title=" ">
<polygon fill="white" stroke="black" points="526,-164.5 526,-183.5 622,-183.5 622,-164.5 526,-164.5"/>
<text text-anchor="middle" x="574" y="-171.5" font-family="Helvetica,sans-Serif" font-size="10.00">Texture::getHeight</text>
</a>
</g>
</g>
<!-- Node14&#45;&gt;Node16 -->
<g id="edge15" class="edge"><title>Node14&#45;&gt;Node16</title>
<path fill="none" stroke="midnightblue" d="M413.49,-335.434C422.397,-308.555 451.392,-231.793 503,-193 507.11,-189.911 511.689,-187.324 516.484,-185.157"/>
<polygon fill="midnightblue" stroke="midnightblue" points="517.855,-188.379 525.902,-181.487 515.314,-181.857 517.855,-188.379"/>
</g>
<!-- Node17 -->
<g id="node17" class="node"><title>Node17</title>
<g id="a_node17"><a xlink:href="../../d1/d51/class_shader.html#a240b7ecb19883fa340489840733eae6d" target="_top" xlink:title=" ">
<polygon fill="white" stroke="black" points="517.5,-392.5 517.5,-411.5 630.5,-411.5 630.5,-392.5 517.5,-392.5"/>
<text text-anchor="middle" x="574" y="-399.5" font-family="Helvetica,sans-Serif" font-size="10.00">Shader::getProgramID</text>
</a>
</g>
</g>
<!-- Node14&#45;&gt;Node17 -->
<g id="edge16" class="edge"><title>Node14&#45;&gt;Node17</title>
<path fill="none" stroke="midnightblue" d="M431.523,-354.517C450.088,-362.708 478.013,-374.513 503,-383 509.886,-385.339 517.227,-387.589 524.468,-389.672"/>
<polygon fill="midnightblue" stroke="midnightblue" points="523.655,-393.079 534.228,-392.401 525.54,-386.337 523.655,-393.079"/>
</g>
<!-- Node18 -->
<g id="node18" class="node"><title>Node18</title>
<g id="a_node18"><a xlink:href="../../d2/d7f/class_texture.html#a922a73acbaee522dd96d971b630da0fa" target="_top" xlink:title=" ">
<polygon fill="white" stroke="black" points="513.5,-354.5 513.5,-373.5 634.5,-373.5 634.5,-354.5 513.5,-354.5"/>
<text text-anchor="middle" x="574" y="-361.5" font-family="Helvetica,sans-Serif" font-size="10.00">Texture::getTextureData</text>
</a>
</g>
</g>
<!-- Node14&#45;&gt;Node18 -->
<g id="edge17" class="edge"><title>Node14&#45;&gt;Node18</title>
<path fill="none" stroke="midnightblue" d="M452.348,-349.893C467.834,-351.704 485.84,-353.809 503.143,-355.832"/>
<polygon fill="midnightblue" stroke="midnightblue" points="502.886,-359.326 513.225,-357.011 503.699,-352.373 502.886,-359.326"/>
</g>
<!-- Node19 -->
<g id="node19" class="node"><title>Node19</title>
<g id="a_node19"><a xlink:href="../../d7/da2/namespace_shaders.html#aaa649eb98b860170946f582b8e93c12d" target="_top" xlink:title=" ">
<polygon fill="white" stroke="black" points="503,-202.5 503,-221.5 645,-221.5 645,-202.5 503,-202.5"/>
<text text-anchor="middle" x="574" y="-209.5" font-family="Helvetica,sans-Serif" font-size="10.00">Shaders::getUniformLocation</text>
</a>
</g>
</g>
<!-- Node14&#45;&gt;Node19 -->
<g id="edge18" class="edge"><title>Node14&#45;&gt;Node19</title>
<path fill="none" stroke="midnightblue" d="M416.147,-335.335C428.937,-314.26 462.2,-263.835 503,-236 509.202,-231.769 516.22,-228.219 523.358,-225.26"/>
<polygon fill="midnightblue" stroke="midnightblue" points="524.982,-228.388 533.101,-221.582 522.51,-221.839 524.982,-228.388"/>
</g>
<!-- Node21 -->
<g id="node21" class="node"><title>Node21</title>
<g id="a_node21"><a xlink:href="../../d2/d7f/class_texture.html#a4d8e86e7df22179e8f3af9392020608c" target="_top" xlink:title=" ">
<polygon fill="white" stroke="black" points="527,-278.5 527,-297.5 621,-297.5 621,-278.5 527,-278.5"/>
<text text-anchor="middle" x="574" y="-285.5" font-family="Helvetica,sans-Serif" font-size="10.00">Texture::getWidth</text>
</a>
</g>
</g>
<!-- Node14&#45;&gt;Node21 -->
<g id="edge20" class="edge"><title>Node14&#45;&gt;Node21</title>
<path fill="none" stroke="midnightblue" d="M431.523,-335.483C450.088,-327.292 478.013,-315.487 503,-307 509.886,-304.661 517.227,-302.411 524.468,-300.328"/>
<polygon fill="midnightblue" stroke="midnightblue" points="525.54,-303.663 534.228,-297.599 523.655,-296.921 525.54,-303.663"/>
</g>
<!-- Node22 -->
<g id="node22" class="node"><title>Node22</title>
<g id="a_node22"><a xlink:href="../../d3/df8/class_quad.html#ab6f9562308559b344d2e0d1e1cf3a0cf" target="_top" xlink:title=" ">
<polygon fill="white" stroke="black" points="544.5,-316.5 544.5,-335.5 603.5,-335.5 603.5,-316.5 544.5,-316.5"/>
<text text-anchor="middle" x="574" y="-323.5" font-family="Helvetica,sans-Serif" font-size="10.00">Quad::init</text>
</a>
</g>
</g>
<!-- Node14&#45;&gt;Node22 -->
<g id="edge23" class="edge"><title>Node14&#45;&gt;Node22</title>
<path fill="none" stroke="midnightblue" d="M452.348,-340.107C477.527,-337.163 509.366,-333.44 534.015,-330.558"/>
<polygon fill="midnightblue" stroke="midnightblue" points="534.572,-334.017 544.098,-329.379 533.759,-327.064 534.572,-334.017"/>
</g>
<!-- Node20 -->
<g id="node20" class="node"><title>Node20</title>
<g id="a_node20"><a xlink:href="../../d7/da2/namespace_shaders.html#a25a80e81a8051ed31ecab4ed167b0be8" target="_top" xlink:title=" ">
<polygon fill="white" stroke="black" points="688,-202.5 688,-221.5 819,-221.5 819,-202.5 688,-202.5"/>
<text text-anchor="middle" x="753.5" y="-209.5" font-family="Helvetica,sans-Serif" font-size="10.00">Shaders::getUniformName</text>
</a>
</g>
</g>
<!-- Node19&#45;&gt;Node20 -->
<g id="edge19" class="edge"><title>Node19&#45;&gt;Node20</title>
<path fill="none" stroke="midnightblue" d="M645.153,-212C655.801,-212 666.823,-212 677.567,-212"/>
<polygon fill="midnightblue" stroke="midnightblue" points="677.763,-215.5 687.763,-212 677.763,-208.5 677.763,-215.5"/>
</g>
<!-- Node22&#45;&gt;Node15 -->
<g id="edge24" class="edge"><title>Node22&#45;&gt;Node15</title>
<path fill="none" stroke="midnightblue" d="M603.518,-319.895C628.986,-314.442 666.982,-306.308 698.227,-299.619"/>
<polygon fill="midnightblue" stroke="midnightblue" points="699.064,-303.019 708.11,-297.503 697.599,-296.174 699.064,-303.019"/>
</g>
</g>
</svg>
        <g id="navigator" transform="translate(0 0)" fill="#404254">
                <rect fill="#f2f5e9" fill-opacity="0.5" stroke="#606060" stroke-width=".5" x="0" y="0" width="60" height="60"/>
                <use id="zoomplus" xlink:href="#zoomPlus" x="17" y="9" onmousedown="handleZoom(evt,'in')"/>
                <use id="zoomminus" xlink:href="#zoomMin" x="42" y="9" onmousedown="handleZoom(evt,'out')"/>
                <use id="reset" xlink:href="#resetDef" x="30" y="36" onmousedown="handleReset()"/>
                <g id="arrowUp" xlink:href="#dirArrow" transform="translate(30 24)" onmousedown="handlePan(0,-1)">
                  <use xlink:href="#rim" fill="#404040">
                        <set attributeName="fill" to="#808080" begin="arrowUp.mouseover" end="arrowUp.mouseout"/>
                  </use>
                  <path fill="none" stroke="white" stroke-width="1.5" d="M0,-3.0v7 M-2.5,-0.5L0,-3.0L2.5,-0.5"/>
                </g>
                <g id="arrowRight" xlink:href="#dirArrow" transform="rotate(90) translate(36 -43)" onmousedown="handlePan(1,0)">
                  <use xlink:href="#rim" fill="#404040">
                        <set attributeName="fill" to="#808080" begin="arrowRight.mouseover" end="arrowRight.mouseout"/>
                  </use>
                  <path fill="none" stroke="white" stroke-width="1.5" d="M0,-3.0v7 M-2.5,-0.5L0,-3.0L2.5,-0.5"/>
                </g>
                <g id="arrowDown" xlink:href="#dirArrow" transform="rotate(180) translate(-30 -48)" onmousedown="handlePan(0,1)">
                  <use xlink:href="#rim" fill="#404040">
                        <set attributeName="fill" to="#808080" begin="arrowDown.mouseover" end="arrowDown.mouseout"/>
                  </use>
                  <path fill="none" stroke="white" stroke-width="1.5" d="M0,-3.0v7 M-2.5,-0.5L0,-3.0L2.5,-0.5"/>
                </g>
                <g id="arrowLeft" xlink:href="#dirArrow" transform="rotate(270) translate(-36 17)" onmousedown="handlePan(-1,0)">
                  <use xlink:href="#rim" fill="#404040">
                        <set attributeName="fill" to="#808080" begin="arrowLeft.mouseover" end="arrowLeft.mouseout"/>
                  </use>
                  <path fill="none" stroke="white" stroke-width="1.5" d="M0,-3.0v7 M-2.5,-0.5L0,-3.0L2.5,-0.5"/>
                </g>
        </g>
        <svg viewBox="0 0 15 15" width="100%" height="30px" preserveAspectRatio="xMaxYMin meet">
         <g id="arrow_out" transform="scale(0.3 0.3)">
          <a xlink:href="class_pause_menu_system_a275e625e495889f598a67bdffb2ffd4f_cgraph_org.svg" target="_base">
           <rect id="button" ry="5" rx="5" y="6" x="6" height="38" width="38"
                fill="#f2f5e9" fill-opacity="0.5" stroke="#606060" stroke-width="1.0"/>
           <path id="arrow"
             d="M 11.500037,31.436501 C 11.940474,20.09759 22.043105,11.32322 32.158766,21.979434 L 37.068811,17.246167 C 37.068811,17.246167 37.088388,32 37.088388,32 L 22.160133,31.978069 C 22.160133,31.978069 26.997745,27.140456 26.997745,27.140456 C 18.528582,18.264221 13.291696,25.230495 11.500037,31.436501 z"
             style="fill:#404040;"/>
          </a>
         </g>
        </svg>
</svg>
