<?xml version="1.0" encoding="UTF-8" standalone="no"?>
<!DOCTYPE svg PUBLIC "-//W3C//DTD SVG 1.1//EN"
 "http://www.w3.org/Graphics/SVG/1.1/DTD/svg11.dtd">
<!-- Generated by graphviz version 2.38.0 (20140413.2041)
 -->
<!-- Title: PauseMenuSystem::update Pages: 1 -->
<!--zoomable 355 -->
<svg id="main" version="1.1" xmlns="http://www.w3.org/2000/svg" xmlns:xlink="http://www.w3.org/1999/xlink" xml:space="preserve" onload="init(evt)">
<style type="text/css"><![CDATA[
.edge:hover path { stroke: red; }
.edge:hover polygon { stroke: red; fill: red; }
]]></style>
<script type="text/javascript"><![CDATA[
var edges = document.getElementsByTagName('g');
if (edges && edges.length) {
  for (var i=0;i<edges.length;i++) {
    if (edges[i].id.substr(0,4)=='edge') {
      edges[i].setAttribute('class','edge');
    }
  }
}
]]></script>
        <defs>
                <circle id="rim" cx="0" cy="0" r="7"/>
                <circle id="rim2" cx="0" cy="0" r="3.5"/>
                <g id="zoomPlus">
                        <use xlink:href="#rim" fill="#404040">
                                <set attributeName="fill" to="#808080" begin="zoomplus.mouseover" end="zoomplus.mouseout"/>
                        </use>
                        <path d="M-4,0h8M0,-4v8" fill="none" stroke="white" stroke-width="1.5" pointer-events="none"/>
                </g>
                <g id="zoomMin">
                        <use xlink:href="#rim" fill="#404040">
                                <set attributeName="fill" to="#808080" begin="zoomminus.mouseover" end="zoomminus.mouseout"/>
                        </use>
                        <path d="M-4,0h8" fill="none" stroke="white" stroke-width="1.5" pointer-events="none"/>
                </g>
                <g id="dirArrow">
                        <path fill="none" stroke="white" stroke-width="1.5" d="M0,-3.0v7 M-2.5,-0.5L0,-3.0L2.5,-0.5"/>
                </g>
               <g id="resetDef">
                       <use xlink:href="#rim2" fill="#404040">
                               <set attributeName="fill" to="#808080" begin="reset.mouseover" end="reset.mouseout"/>
                       </use>
               </g>
        </defs>

<script type="text/javascript">
var viewWidth = 872;
var viewHeight = 355;
var sectionId = 'dynsection-2';
</script>
<script xlink:href="../../svgpan.js"/>
<svg id="graph" class="graph">
<g id="viewport">
<title>PauseMenuSystem::update</title>
<polygon fill="white" stroke="none" points="-4,4 -4,-351 868,-351 868,4 -4,4"/>
<!-- Node1 -->
<g id="node1" class="node"><title>Node1</title>
<g id="a_node1"><a xlink:title=" ">
<polygon fill="#bfbfbf" stroke="black" points="0,-191 0,-210 137,-210 137,-191 0,-191"/>
<text text-anchor="middle" x="68.5" y="-198" font-family="Helvetica,sans-Serif" font-size="10.00">PauseMenuSystem::update</text>
</a>
</g>
</g>
<!-- Node2 -->
<g id="node2" class="node"><title>Node2</title>
<g id="a_node2"><a xlink:href="../../d9/dd8/class_user_controls.html#ab577475a2b33671f1f5697fbe0e0cc49" target="_top" xlink:title=" ">
<polygon fill="white" stroke="black" points="184.5,-316.5 184.5,-346.5 322.5,-346.5 322.5,-316.5 184.5,-316.5"/>
<text text-anchor="start" x="192.5" y="-334.5" font-family="Helvetica,sans-Serif" font-size="10.00">UserControls::getGuiControl</text>
<text text-anchor="middle" x="253.5" y="-323.5" font-family="Helvetica,sans-Serif" font-size="10.00">PauseMenuKey</text>
</a>
</g>
</g>
<!-- Node1&#45;&gt;Node2 -->
<g id="edge1" class="edge"><title>Node1&#45;&gt;Node2</title>
<path fill="none" stroke="midnightblue" d="M76.0776,-210.069C90.9048,-230.92 129.089,-280.723 173,-307.5 175.77,-309.189 178.666,-310.766 181.647,-312.239"/>
<polygon fill="midnightblue" stroke="midnightblue" points="180.238,-315.443 190.795,-316.348 183.107,-309.058 180.238,-315.443"/>
</g>
<!-- Node3 -->
<g id="node3" class="node"><title>Node3</title>
<g id="a_node3"><a xlink:href="../../d7/d06/class_g_u_i_resizing_information.html#aa8fb79fc71098f1cf2ce4fac2d5c79ac" target="_top" xlink:title=" ">
<polygon fill="white" stroke="black" points="194.5,-267.5 194.5,-297.5 312.5,-297.5 312.5,-267.5 194.5,-267.5"/>
<text text-anchor="start" x="202.5" y="-285.5" font-family="Helvetica,sans-Serif" font-size="10.00">GUIResizingInformation</text>
<text text-anchor="middle" x="253.5" y="-274.5" font-family="Helvetica,sans-Serif" font-size="10.00">::getWidthUnit</text>
</a>
</g>
</g>
<!-- Node1&#45;&gt;Node3 -->
<g id="edge2" class="edge"><title>Node1&#45;&gt;Node3</title>
<path fill="none" stroke="midnightblue" d="M84.794,-210.19C104.575,-222.422 140.369,-243.548 173,-257.5 178.369,-259.796 184.021,-261.989 189.734,-264.055"/>
<polygon fill="midnightblue" stroke="midnightblue" points="188.77,-267.425 199.365,-267.407 191.072,-260.814 188.77,-267.425"/>
</g>
<!-- Node4 -->
<g id="node4" class="node"><title>Node4</title>
<g id="a_node4"><a xlink:href="../../d4/d7b/class_input.html#a2aaf873636cedf13e51a424eb6ea802b" target="_top" xlink:title=" ">
<polygon fill="white" stroke="black" points="194,-229 194,-248 313,-248 313,-229 194,-229"/>
<text text-anchor="middle" x="253.5" y="-236" font-family="Helvetica,sans-Serif" font-size="10.00">Input::keyPressedOnce</text>
</a>
</g>
</g>
<!-- Node1&#45;&gt;Node4 -->
<g id="edge3" class="edge"><title>Node1&#45;&gt;Node4</title>
<path fill="none" stroke="midnightblue" d="M115.679,-210.089C140.263,-215.194 170.686,-221.511 196.597,-226.892"/>
<polygon fill="midnightblue" stroke="midnightblue" points="196.151,-230.374 206.653,-228.98 197.574,-223.52 196.151,-230.374"/>
</g>
<!-- Node5 -->
<g id="node5" class="node"><title>Node5</title>
<g id="a_node5"><a xlink:href="../../d6/d17/class_gui_button.html#aa019fa7e0fbe4a380899cb9ddb418317" target="_top" xlink:title=" ">
<polygon fill="white" stroke="black" points="173,-191 173,-210 334,-210 334,-191 173,-191"/>
<text text-anchor="middle" x="253.5" y="-198" font-family="Helvetica,sans-Serif" font-size="10.00">GuiButton::onButtonClickedOnce</text>
</a>
</g>
</g>
<!-- Node1&#45;&gt;Node5 -->
<g id="edge4" class="edge"><title>Node1&#45;&gt;Node5</title>
<path fill="none" stroke="midnightblue" d="M137.123,-200.5C145.465,-200.5 154.092,-200.5 162.7,-200.5"/>
<polygon fill="midnightblue" stroke="midnightblue" points="162.776,-204 172.776,-200.5 162.776,-197 162.776,-204"/>
</g>
<!-- Node6 -->
<g id="node6" class="node"><title>Node6</title>
<g id="a_node6"><a xlink:href="../../d1/db9/class_gui_sprite.html#a6ec7ef9580657e062cea7f5ce8bcb515" target="_top" xlink:title=" ">
<polygon fill="white" stroke="black" points="203,-153 203,-172 304,-172 304,-153 203,-153"/>
<text text-anchor="middle" x="253.5" y="-160" font-family="Helvetica,sans-Serif" font-size="10.00">GuiSprite::setScale</text>
</a>
</g>
</g>
<!-- Node1&#45;&gt;Node6 -->
<g id="edge5" class="edge"><title>Node1&#45;&gt;Node6</title>
<path fill="none" stroke="midnightblue" d="M115.679,-190.911C140.263,-185.806 170.686,-179.489 196.597,-174.108"/>
<polygon fill="midnightblue" stroke="midnightblue" points="197.574,-177.48 206.653,-172.02 196.151,-170.626 197.574,-177.48"/>
</g>
<!-- Node7 -->
<g id="node7" class="node"><title>Node7</title>
<g id="a_node7"><a xlink:href="../../dd/df5/class_gui_string.html#a964f40eb765b7ad9827284b65ac2c9fc" target="_top" xlink:title=" ">
<polygon fill="white" stroke="black" points="203,-115 203,-134 304,-134 304,-115 203,-115"/>
<text text-anchor="middle" x="253.5" y="-122" font-family="Helvetica,sans-Serif" font-size="10.00">GuiString::setScale</text>
</a>
</g>
</g>
<!-- Node1&#45;&gt;Node7 -->
<g id="edge6" class="edge"><title>Node1&#45;&gt;Node7</title>
<path fill="none" stroke="midnightblue" d="M83.972,-190.881C103.446,-178.33 139.518,-156.448 173,-143.5 179.643,-140.931 186.736,-138.639 193.849,-136.615"/>
<polygon fill="midnightblue" stroke="midnightblue" points="194.768,-139.992 203.519,-134.018 192.953,-133.231 194.768,-139.992"/>
</g>
<!-- Node8 -->
<g id="node8" class="node"><title>Node8</title>
<g id="a_node8"><a xlink:href="../../d6/d17/class_gui_button.html#acfb469dd9337dc5ebf70e32037b02851" target="_top" xlink:title=" ">
<polygon fill="white" stroke="black" points="206,-77 206,-96 301,-96 301,-77 206,-77"/>
<text text-anchor="middle" x="253.5" y="-84" font-family="Helvetica,sans-Serif" font-size="10.00">GuiButton::update</text>
</a>
</g>
</g>
<!-- Node1&#45;&gt;Node8 -->
<g id="edge7" class="edge"><title>Node1&#45;&gt;Node8</title>
<path fill="none" stroke="midnightblue" d="M76.9349,-190.989C92.5434,-171.706 130.788,-127.939 173,-105.5 180.127,-101.712 188.011,-98.6686 195.964,-96.227"/>
<polygon fill="midnightblue" stroke="midnightblue" points="196.953,-99.5847 205.653,-93.5372 195.081,-92.8398 196.953,-99.5847"/>
</g>
<!-- Node9 -->
<g id="node9" class="node"><title>Node9</title>
<g id="a_node9"><a xlink:href="../../d4/d7b/class_input.html#a8e3bbc45ca89de6dc03cd870d0909345" target="_top" xlink:title=" ">
<polygon fill="white" stroke="black" points="381,-137 381,-156 496,-156 496,-137 381,-137"/>
<text text-anchor="middle" x="438.5" y="-144" font-family="Helvetica,sans-Serif" font-size="10.00">Input::getMouseButton</text>
</a>
</g>
</g>
<!-- Node8&#45;&gt;Node9 -->
<g id="edge8" class="edge"><title>Node8&#45;&gt;Node9</title>
<path fill="none" stroke="midnightblue" d="M301.1,-95.0527C312.1,-97.7743 323.638,-101.222 334,-105.5 351.332,-112.656 352.814,-120 370,-127.5 375.361,-129.839 381.087,-131.97 386.853,-133.888"/>
<polygon fill="midnightblue" stroke="midnightblue" points="385.947,-137.271 396.536,-136.913 388.035,-130.59 385.947,-137.271"/>
</g>
<!-- Node10 -->
<g id="node10" class="node"><title>Node10</title>
<g id="a_node10"><a xlink:href="../../d4/d7b/class_input.html#aa10d2871226e0b497010dfca43fe278b" target="_top" xlink:title=" ">
<polygon fill="white" stroke="black" points="377.5,-99 377.5,-118 499.5,-118 499.5,-99 377.5,-99"/>
<text text-anchor="middle" x="438.5" y="-106" font-family="Helvetica,sans-Serif" font-size="10.00">Input::getMousePosition</text>
</a>
</g>
</g>
<!-- Node8&#45;&gt;Node10 -->
<g id="edge9" class="edge"><title>Node8&#45;&gt;Node10</title>
<path fill="none" stroke="midnightblue" d="M301.152,-92.1085C321.263,-94.5262 345.214,-97.4055 367.39,-100.071"/>
<polygon fill="midnightblue" stroke="midnightblue" points="367.087,-103.56 377.433,-101.279 367.923,-96.6102 367.087,-103.56"/>
</g>
<!-- Node11 -->
<g id="node11" class="node"><title>Node11</title>
<g id="a_node11"><a xlink:href="../../d6/d17/class_gui_button.html#a571aa197ec582b526b5d6e2639bad843" target="_top" xlink:title=" ">
<polygon fill="white" stroke="black" points="370,-49.5 370,-79.5 507,-79.5 507,-49.5 370,-49.5"/>
<text text-anchor="start" x="378" y="-67.5" font-family="Helvetica,sans-Serif" font-size="10.00">GuiButton::mouseCoordsTo</text>
<text text-anchor="middle" x="438.5" y="-56.5" font-family="Helvetica,sans-Serif" font-size="10.00">ScreenCoords</text>
</a>
</g>
</g>
<!-- Node8&#45;&gt;Node11 -->
<g id="edge10" class="edge"><title>Node8&#45;&gt;Node11</title>
<path fill="none" stroke="midnightblue" d="M301.152,-80.8915C318.998,-78.7461 339.869,-76.2371 359.839,-73.8363"/>
<polygon fill="midnightblue" stroke="midnightblue" points="360.354,-77.2997 369.864,-72.6311 359.518,-70.3498 360.354,-77.2997"/>
</g>
<!-- Node16 -->
<g id="node16" class="node"><title>Node16</title>
<g id="a_node16"><a xlink:href="../../d6/d17/class_gui_button.html#a72312192b57055be324335dd1ed88a3d" target="_top" xlink:title=" ">
<polygon fill="white" stroke="black" points="374.5,-0.5 374.5,-30.5 502.5,-30.5 502.5,-0.5 374.5,-0.5"/>
<text text-anchor="start" x="382.5" y="-18.5" font-family="Helvetica,sans-Serif" font-size="10.00">GuiButton::mouseIsInside</text>
<text text-anchor="middle" x="438.5" y="-7.5" font-family="Helvetica,sans-Serif" font-size="10.00">Button</text>
</a>
</g>
</g>
<!-- Node8&#45;&gt;Node16 -->
<g id="edge15" class="edge"><title>Node8&#45;&gt;Node16</title>
<path fill="none" stroke="midnightblue" d="M277.883,-76.9939C301.169,-67.5731 337.965,-52.8095 370,-40.5 375.455,-38.4038 381.17,-36.2392 386.867,-34.1011"/>
<polygon fill="midnightblue" stroke="midnightblue" points="388.247,-37.3221 396.39,-30.5446 385.798,-30.7645 388.247,-37.3221"/>
</g>
<!-- Node12 -->
<g id="node12" class="node"><title>Node12</title>
<g id="a_node12"><a xlink:href="../../d4/d58/namespace_game_info.html#a344c7e16ac06ee1f8458a249aac36e8e" target="_top" xlink:title=" ">
<polygon fill="white" stroke="black" points="543,-75 543,-94 683,-94 683,-75 543,-75"/>
<text text-anchor="middle" x="613" y="-82" font-family="Helvetica,sans-Serif" font-size="10.00">GameInfo::getWindowHeight</text>
</a>
</g>
</g>
<!-- Node11&#45;&gt;Node12 -->
<g id="edge11" class="edge"><title>Node11&#45;&gt;Node12</title>
<path fill="none" stroke="midnightblue" d="M507.181,-72.3471C515.594,-73.3225 524.254,-74.3265 532.82,-75.3197"/>
<polygon fill="midnightblue" stroke="midnightblue" points="532.476,-78.8031 542.812,-76.4782 533.282,-71.8497 532.476,-78.8031"/>
</g>
<!-- Node14 -->
<g id="node14" class="node"><title>Node14</title>
<g id="a_node14"><a xlink:href="../../d4/d58/namespace_game_info.html#a7cf2306eb3025a60a9e2da52eefba71e" target="_top" xlink:title=" ">
<polygon fill="white" stroke="black" points="544.5,-34 544.5,-53 681.5,-53 681.5,-34 544.5,-34"/>
<text text-anchor="middle" x="613" y="-41" font-family="Helvetica,sans-Serif" font-size="10.00">GameInfo::getWindowWidth</text>
</a>
</g>
</g>
<!-- Node11&#45;&gt;Node14 -->
<g id="edge13" class="edge"><title>Node11&#45;&gt;Node14</title>
<path fill="none" stroke="midnightblue" d="M507.181,-56.2605C516.028,-55.1835 525.148,-54.0732 534.146,-52.9779"/>
<polygon fill="midnightblue" stroke="midnightblue" points="534.727,-56.4331 544.231,-51.7502 533.881,-49.4844 534.727,-56.4331"/>
</g>
<!-- Node13 -->
<g id="node13" class="node"><title>Node13</title>
<g id="a_node13"><a xlink:href="../../de/d6b/class_application.html#a0398d40c89d52bb8d6ac6ac466c5d30c" target="_top" xlink:title=" ">
<polygon fill="white" stroke="black" points="719,-72.5 719,-102.5 864,-102.5 864,-72.5 719,-72.5"/>
<text text-anchor="start" x="727" y="-90.5" font-family="Helvetica,sans-Serif" font-size="10.00">Application::getGameWindow</text>
<text text-anchor="middle" x="791.5" y="-79.5" font-family="Helvetica,sans-Serif" font-size="10.00">Height</text>
</a>
</g>
</g>
<!-- Node12&#45;&gt;Node13 -->
<g id="edge12" class="edge"><title>Node12&#45;&gt;Node13</title>
<path fill="none" stroke="midnightblue" d="M683.251,-85.6771C691.559,-85.8183 700.103,-85.9635 708.568,-86.1074"/>
<polygon fill="midnightblue" stroke="midnightblue" points="708.777,-89.6113 718.835,-86.2819 708.896,-82.6124 708.777,-89.6113"/>
</g>
<!-- Node15 -->
<g id="node15" class="node"><title>Node15</title>
<g id="a_node15"><a xlink:href="../../de/d6b/class_application.html#aad8864ec1fa58ee23db7b111876d09a5" target="_top" xlink:title=" ">
<polygon fill="white" stroke="black" points="719,-23.5 719,-53.5 864,-53.5 864,-23.5 719,-23.5"/>
<text text-anchor="start" x="727" y="-41.5" font-family="Helvetica,sans-Serif" font-size="10.00">Application::getGameWindow</text>
<text text-anchor="middle" x="791.5" y="-30.5" font-family="Helvetica,sans-Serif" font-size="10.00">Width</text>
</a>
</g>
</g>
<!-- Node14&#45;&gt;Node15 -->
<g id="edge14" class="edge"><title>Node14&#45;&gt;Node15</title>
<path fill="none" stroke="midnightblue" d="M681.735,-41.5812C690.564,-41.3311 699.683,-41.0727 708.711,-40.817"/>
<polygon fill="midnightblue" stroke="midnightblue" points="708.949,-44.3117 718.846,-40.5299 708.751,-37.3145 708.949,-44.3117"/>
</g>
</g>
</svg>
        <g id="navigator" transform="translate(0 0)" fill="#404254">
                <rect fill="#f2f5e9" fill-opacity="0.5" stroke="#606060" stroke-width=".5" x="0" y="0" width="60" height="60"/>
                <use id="zoomplus" xlink:href="#zoomPlus" x="17" y="9" onmousedown="handleZoom(evt,'in')"/>
                <use id="zoomminus" xlink:href="#zoomMin" x="42" y="9" onmousedown="handleZoom(evt,'out')"/>
                <use id="reset" xlink:href="#resetDef" x="30" y="36" onmousedown="handleReset()"/>
                <g id="arrowUp" xlink:href="#dirArrow" transform="translate(30 24)" onmousedown="handlePan(0,-1)">
                  <use xlink:href="#rim" fill="#404040">
                        <set attributeName="fill" to="#808080" begin="arrowUp.mouseover" end="arrowUp.mouseout"/>
                  </use>
                  <path fill="none" stroke="white" stroke-width="1.5" d="M0,-3.0v7 M-2.5,-0.5L0,-3.0L2.5,-0.5"/>
                </g>
                <g id="arrowRight" xlink:href="#dirArrow" transform="rotate(90) translate(36 -43)" onmousedown="handlePan(1,0)">
                  <use xlink:href="#rim" fill="#404040">
                        <set attributeName="fill" to="#808080" begin="arrowRight.mouseover" end="arrowRight.mouseout"/>
                  </use>
                  <path fill="none" stroke="white" stroke-width="1.5" d="M0,-3.0v7 M-2.5,-0.5L0,-3.0L2.5,-0.5"/>
                </g>
                <g id="arrowDown" xlink:href="#dirArrow" transform="rotate(180) translate(-30 -48)" onmousedown="handlePan(0,1)">
                  <use xlink:href="#rim" fill="#404040">
                        <set attributeName="fill" to="#808080" begin="arrowDown.mouseover" end="arrowDown.mouseout"/>
                  </use>
                  <path fill="none" stroke="white" stroke-width="1.5" d="M0,-3.0v7 M-2.5,-0.5L0,-3.0L2.5,-0.5"/>
                </g>
                <g id="arrowLeft" xlink:href="#dirArrow" transform="rotate(270) translate(-36 17)" onmousedown="handlePan(-1,0)">
                  <use xlink:href="#rim" fill="#404040">
                        <set attributeName="fill" to="#808080" begin="arrowLeft.mouseover" end="arrowLeft.mouseout"/>
                  </use>
                  <path fill="none" stroke="white" stroke-width="1.5" d="M0,-3.0v7 M-2.5,-0.5L0,-3.0L2.5,-0.5"/>
                </g>
        </g>
        <svg viewBox="0 0 15 15" width="100%" height="30px" preserveAspectRatio="xMaxYMin meet">
         <g id="arrow_out" transform="scale(0.3 0.3)">
          <a xlink:href="class_pause_menu_system_a7c17c731da14866fbbfb186f50b7824e_cgraph_org.svg" target="_base">
           <rect id="button" ry="5" rx="5" y="6" x="6" height="38" width="38"
                fill="#f2f5e9" fill-opacity="0.5" stroke="#606060" stroke-width="1.0"/>
           <path id="arrow"
             d="M 11.500037,31.436501 C 11.940474,20.09759 22.043105,11.32322 32.158766,21.979434 L 37.068811,17.246167 C 37.068811,17.246167 37.088388,32 37.088388,32 L 22.160133,31.978069 C 22.160133,31.978069 26.997745,27.140456 26.997745,27.140456 C 18.528582,18.264221 13.291696,25.230495 11.500037,31.436501 z"
             style="fill:#404040;"/>
          </a>
         </g>
        </svg>
</svg>
