<?xml version="1.0" encoding="UTF-8" standalone="no"?>
<!DOCTYPE svg PUBLIC "-//W3C//DTD SVG 1.1//EN"
 "http://www.w3.org/Graphics/SVG/1.1/DTD/svg11.dtd">
<!-- Generated by graphviz version 2.38.0 (20140413.2041)
 -->
<!-- Title: DirectionalLightShadowMap::updateDepthMapResolution Pages: 1 -->
<svg width="935pt" height="88pt"
 viewBox="0.00 0.00 935.00 88.00" xmlns="http://www.w3.org/2000/svg" xmlns:xlink="http://www.w3.org/1999/xlink">
<g id="graph0" class="graph" transform="scale(1 1) rotate(0) translate(4 84)">
<title>DirectionalLightShadowMap::updateDepthMapResolution</title>
<polygon fill="white" stroke="none" points="-4,4 -4,-84 931,-84 931,4 -4,4"/>
<!-- Node1 -->
<g id="node1" class="node"><title>Node1</title>
<g id="a_node1"><a xlink:title=" ">
<polygon fill="#bfbfbf" stroke="black" points="785,-24.5 785,-54.5 927,-54.5 927,-24.5 785,-24.5"/>
<text text-anchor="start" x="793" y="-42.5" font-family="Helvetica,sans-Serif" font-size="10.00">DirectionalLightShadowMap</text>
<text text-anchor="middle" x="856" y="-31.5" font-family="Helvetica,sans-Serif" font-size="10.00">::updateDepthMapResolution</text>
</a>
</g>
</g>
<!-- Node2 -->
<g id="node2" class="node"><title>Node2</title>
<g id="a_node2"><a xlink:href="../../dc/d22/class_directional_light_shadow_map.html#a03e2c232a0bc4595be80e4031be543aa" target="_top" xlink:title=" ">
<polygon fill="white" stroke="black" points="612,-49.5 612,-79.5 749,-79.5 749,-49.5 612,-49.5"/>
<text text-anchor="start" x="620" y="-67.5" font-family="Helvetica,sans-Serif" font-size="10.00">DirectionalLightShadowMap</text>
<text text-anchor="middle" x="680.5" y="-56.5" font-family="Helvetica,sans-Serif" font-size="10.00">::initialize</text>
</a>
</g>
</g>
<!-- Node1&#45;&gt;Node2 -->
<g id="edge1" class="edge"><title>Node1&#45;&gt;Node2</title>
<path fill="none" stroke="midnightblue" d="M774.851,-51.0489C766.212,-52.2937 757.485,-53.5511 749.016,-54.7714"/>
<polygon fill="midnightblue" stroke="midnightblue" points="775.532,-54.4869 784.931,-49.5964 774.534,-47.5585 775.532,-54.4869"/>
</g>
<!-- Node8 -->
<g id="node8" class="node"><title>Node8</title>
<g id="a_node8"><a xlink:href="../../dc/d22/class_directional_light_shadow_map.html#a6481c33b803ddadee78e18db75b9ee02" target="_top" xlink:title=" ">
<polygon fill="white" stroke="black" points="612,-0.5 612,-30.5 749,-30.5 749,-0.5 612,-0.5"/>
<text text-anchor="start" x="620" y="-18.5" font-family="Helvetica,sans-Serif" font-size="10.00">DirectionalLightShadowMap</text>
<text text-anchor="middle" x="680.5" y="-7.5" font-family="Helvetica,sans-Serif" font-size="10.00">::setDepthMapResolution</text>
</a>
</g>
</g>
<!-- Node1&#45;&gt;Node8 -->
<g id="edge7" class="edge"><title>Node1&#45;&gt;Node8</title>
<path fill="none" stroke="midnightblue" d="M774.851,-28.4131C766.212,-27.2181 757.485,-26.0109 749.016,-24.8394"/>
<polygon fill="midnightblue" stroke="midnightblue" points="774.546,-31.9041 784.931,-29.8075 775.505,-24.9702 774.546,-31.9041"/>
</g>
<!-- Node3 -->
<g id="node3" class="node"><title>Node3</title>
<g id="a_node3"><a xlink:href="../../dd/d1f/class_game.html#a0cd419405f5790feab89322cbb3f18ce" target="_top" xlink:title=" ">
<polygon fill="white" stroke="black" points="456,-55 456,-74 576,-74 576,-55 456,-55"/>
<text text-anchor="middle" x="516" y="-62" font-family="Helvetica,sans-Serif" font-size="10.00">Game::initializeShaders</text>
</a>
</g>
</g>
<!-- Node2&#45;&gt;Node3 -->
<g id="edge2" class="edge"><title>Node2&#45;&gt;Node3</title>
<path fill="none" stroke="midnightblue" d="M601.844,-64.5C593.154,-64.5 584.408,-64.5 576.006,-64.5"/>
<polygon fill="midnightblue" stroke="midnightblue" points="601.997,-68.0001 611.997,-64.5 601.997,-61.0001 601.997,-68.0001"/>
</g>
<!-- Node4 -->
<g id="node4" class="node"><title>Node4</title>
<g id="a_node4"><a xlink:href="../../dd/d1f/class_game.html#a8986a201a654418cefe34ec28af1a22c" target="_top" xlink:title=" ">
<polygon fill="white" stroke="black" points="336,-55 336,-74 420,-74 420,-55 336,-55"/>
<text text-anchor="middle" x="378" y="-62" font-family="Helvetica,sans-Serif" font-size="10.00">Game::initialize</text>
</a>
</g>
</g>
<!-- Node3&#45;&gt;Node4 -->
<g id="edge3" class="edge"><title>Node3&#45;&gt;Node4</title>
<path fill="none" stroke="midnightblue" d="M445.544,-64.5C436.838,-64.5 428.164,-64.5 420.093,-64.5"/>
<polygon fill="midnightblue" stroke="midnightblue" points="445.744,-68.0001 455.744,-64.5 445.744,-61.0001 445.744,-68.0001"/>
</g>
<!-- Node5 -->
<g id="node5" class="node"><title>Node5</title>
<g id="a_node5"><a xlink:href="../../de/d6b/class_application.html#af431bce25717b04a78d4d0940ed6a92c" target="_top" xlink:title=" ">
<polygon fill="white" stroke="black" points="194,-55 194,-74 300,-74 300,-55 194,-55"/>
<text text-anchor="middle" x="247" y="-62" font-family="Helvetica,sans-Serif" font-size="10.00">Application::initialize</text>
</a>
</g>
</g>
<!-- Node4&#45;&gt;Node5 -->
<g id="edge4" class="edge"><title>Node4&#45;&gt;Node5</title>
<path fill="none" stroke="midnightblue" d="M325.743,-64.5C317.313,-64.5 308.567,-64.5 300.116,-64.5"/>
<polygon fill="midnightblue" stroke="midnightblue" points="325.829,-68.0001 335.829,-64.5 325.829,-61.0001 325.829,-68.0001"/>
</g>
<!-- Node6 -->
<g id="node6" class="node"><title>Node6</title>
<g id="a_node6"><a xlink:href="../../de/d6b/class_application.html#a68965449404743bf1add056784d6cf81" target="_top" xlink:title=" ">
<polygon fill="white" stroke="black" points="74,-55 74,-74 158,-74 158,-55 74,-55"/>
<text text-anchor="middle" x="116" y="-62" font-family="Helvetica,sans-Serif" font-size="10.00">Application::run</text>
</a>
</g>
</g>
<!-- Node5&#45;&gt;Node6 -->
<g id="edge5" class="edge"><title>Node5&#45;&gt;Node6</title>
<path fill="none" stroke="midnightblue" d="M183.772,-64.5C175.088,-64.5 166.349,-64.5 158.186,-64.5"/>
<polygon fill="midnightblue" stroke="midnightblue" points="183.903,-68.0001 193.903,-64.5 183.903,-61.0001 183.903,-68.0001"/>
</g>
<!-- Node7 -->
<g id="node7" class="node"><title>Node7</title>
<g id="a_node7"><a xlink:href="../../d5/d12/_main_8cpp.html#a0ddf1224851353fc92bfbff6f499fa97" target="_top" xlink:title=" ">
<polygon fill="white" stroke="black" points="0,-55 0,-74 38,-74 38,-55 0,-55"/>
<text text-anchor="middle" x="19" y="-62" font-family="Helvetica,sans-Serif" font-size="10.00">main</text>
</a>
</g>
</g>
<!-- Node6&#45;&gt;Node7 -->
<g id="edge6" class="edge"><title>Node6&#45;&gt;Node7</title>
<path fill="none" stroke="midnightblue" d="M63.6206,-64.5C54.5384,-64.5 45.6466,-64.5 38.2853,-64.5"/>
<polygon fill="midnightblue" stroke="midnightblue" points="63.8842,-68.0001 73.8841,-64.5 63.8841,-61.0001 63.8842,-68.0001"/>
</g>
</g>
</svg>
