<?xml version="1.0" encoding="UTF-8" standalone="no"?>
<!DOCTYPE svg PUBLIC "-//W3C//DTD SVG 1.1//EN"
 "http://www.w3.org/Graphics/SVG/1.1/DTD/svg11.dtd">
<!-- Generated by graphviz version 2.38.0 (20140413.2041)
 -->
<!-- Title: DirectionalLightShadowMap::updateDepthMap Pages: 1 -->
<svg width="490pt" height="119pt"
 viewBox="0.00 0.00 490.00 118.61" xmlns="http://www.w3.org/2000/svg" xmlns:xlink="http://www.w3.org/1999/xlink">
<g id="graph0" class="graph" transform="scale(1 1) rotate(0) translate(4 114.607)">
<title>DirectionalLightShadowMap::updateDepthMap</title>
<polygon fill="white" stroke="none" points="-4,4 -4,-114.607 486,-114.607 486,4 -4,4"/>
<!-- Node1 -->
<g id="node1" class="node"><title>Node1</title>
<g id="a_node1"><a xlink:title=" ">
<polygon fill="#bfbfbf" stroke="black" points="0,-52 0,-82 137,-82 137,-52 0,-52"/>
<text text-anchor="start" x="8" y="-70" font-family="Helvetica,sans-Serif" font-size="10.00">DirectionalLightShadowMap</text>
<text text-anchor="middle" x="68.5" y="-59" font-family="Helvetica,sans-Serif" font-size="10.00">::updateDepthMap</text>
</a>
</g>
</g>
<!-- Node2 -->
<g id="node2" class="node"><title>Node2</title>
<g id="a_node2"><a xlink:href="../../d1/d51/class_shader.html#a240b7ecb19883fa340489840733eae6d" target="_top" xlink:title=" ">
<polygon fill="white" stroke="black" points="360,-76.5 360,-95.5 473,-95.5 473,-76.5 360,-76.5"/>
<text text-anchor="middle" x="416.5" y="-83.5" font-family="Helvetica,sans-Serif" font-size="10.00">Shader::getProgramID</text>
</a>
</g>
</g>
<!-- Node1&#45;&gt;Node2 -->
<g id="edge1" class="edge"><title>Node1&#45;&gt;Node2</title>
<path fill="none" stroke="midnightblue" d="M101.773,-82.1929C121.788,-90.7634 148.312,-100.611 173,-105 238.406,-116.627 314.998,-106.79 364.33,-97.478"/>
<polygon fill="midnightblue" stroke="midnightblue" points="365.286,-100.858 374.43,-95.5067 363.945,-93.9873 365.286,-100.858"/>
</g>
<!-- Node3 -->
<g id="node3" class="node"><title>Node3</title>
<g id="a_node3"><a xlink:href="../../da/dbb/class_camera.html#a011e13699ee70d277ceadd9a4e99f3dd" target="_top" xlink:title=" ">
<polygon fill="white" stroke="black" points="178,-76.5 178,-95.5 310,-95.5 310,-76.5 178,-76.5"/>
<text text-anchor="middle" x="244" y="-83.5" font-family="Helvetica,sans-Serif" font-size="10.00">Camera::getTargetPosition</text>
</a>
</g>
</g>
<!-- Node1&#45;&gt;Node3 -->
<g id="edge2" class="edge"><title>Node1&#45;&gt;Node3</title>
<path fill="none" stroke="midnightblue" d="M137.076,-74.4003C147.138,-75.5022 157.563,-76.6437 167.77,-77.7616"/>
<polygon fill="midnightblue" stroke="midnightblue" points="167.562,-81.2597 177.884,-78.8691 168.324,-74.3013 167.562,-81.2597"/>
</g>
<!-- Node4 -->
<g id="node4" class="node"><title>Node4</title>
<g id="a_node4"><a xlink:href="../../d7/da2/namespace_shaders.html#aaa649eb98b860170946f582b8e93c12d" target="_top" xlink:title=" ">
<polygon fill="white" stroke="black" points="173,-0.5 173,-19.5 315,-19.5 315,-0.5 173,-0.5"/>
<text text-anchor="middle" x="244" y="-7.5" font-family="Helvetica,sans-Serif" font-size="10.00">Shaders::getUniformLocation</text>
</a>
</g>
</g>
<!-- Node1&#45;&gt;Node4 -->
<g id="edge3" class="edge"><title>Node1&#45;&gt;Node4</title>
<path fill="none" stroke="midnightblue" d="M108.052,-51.9408C127.406,-44.6125 151.297,-35.9153 173,-29 180.258,-26.6874 187.994,-24.4069 195.578,-22.2723"/>
<polygon fill="midnightblue" stroke="midnightblue" points="196.698,-25.5942 205.406,-19.5599 194.835,-18.8465 196.698,-25.5942"/>
</g>
<!-- Node6 -->
<g id="node6" class="node"><title>Node6</title>
<g id="a_node6"><a xlink:href="../../d1/d51/class_shader.html#a78dd190177e9d0062d150da522ab3125" target="_top" xlink:title=" ">
<polygon fill="white" stroke="black" points="191,-38.5 191,-57.5 297,-57.5 297,-38.5 191,-38.5"/>
<text text-anchor="middle" x="244" y="-45.5" font-family="Helvetica,sans-Serif" font-size="10.00">Shader::useProgram</text>
</a>
</g>
</g>
<!-- Node1&#45;&gt;Node6 -->
<g id="edge5" class="edge"><title>Node1&#45;&gt;Node6</title>
<path fill="none" stroke="midnightblue" d="M137.076,-59.5997C151.471,-58.0234 166.606,-56.3659 180.788,-54.8128"/>
<polygon fill="midnightblue" stroke="midnightblue" points="181.363,-58.2709 190.922,-53.703 180.601,-51.3125 181.363,-58.2709"/>
</g>
<!-- Node5 -->
<g id="node5" class="node"><title>Node5</title>
<g id="a_node5"><a xlink:href="../../d7/da2/namespace_shaders.html#a25a80e81a8051ed31ecab4ed167b0be8" target="_top" xlink:title=" ">
<polygon fill="white" stroke="black" points="351,-0.5 351,-19.5 482,-19.5 482,-0.5 351,-0.5"/>
<text text-anchor="middle" x="416.5" y="-7.5" font-family="Helvetica,sans-Serif" font-size="10.00">Shaders::getUniformName</text>
</a>
</g>
</g>
<!-- Node4&#45;&gt;Node5 -->
<g id="edge4" class="edge"><title>Node4&#45;&gt;Node5</title>
<path fill="none" stroke="midnightblue" d="M315.333,-10C323.681,-10 332.225,-10 340.633,-10"/>
<polygon fill="midnightblue" stroke="midnightblue" points="340.798,-13.5001 350.798,-10 340.798,-6.5001 340.798,-13.5001"/>
</g>
<!-- Node6&#45;&gt;Node2 -->
<g id="edge6" class="edge"><title>Node6&#45;&gt;Node2</title>
<path fill="none" stroke="midnightblue" d="M288.024,-57.589C310.726,-62.6487 338.773,-68.8996 362.774,-74.2488"/>
<polygon fill="midnightblue" stroke="midnightblue" points="362.263,-77.7207 372.785,-76.4799 363.786,-70.8883 362.263,-77.7207"/>
</g>
</g>
</svg>
