<?xml version="1.0" encoding="UTF-8" standalone="no"?>
<!DOCTYPE svg PUBLIC "-//W3C//DTD SVG 1.1//EN"
 "http://www.w3.org/Graphics/SVG/1.1/DTD/svg11.dtd">
<!-- Generated by graphviz version 2.38.0 (20140413.2041)
 -->
<!-- Title: PauseMenu::initialize Pages: 1 -->
<svg width="431pt" height="135pt"
 viewBox="0.00 0.00 431.00 134.50" xmlns="http://www.w3.org/2000/svg" xmlns:xlink="http://www.w3.org/1999/xlink">
<g id="graph0" class="graph" transform="scale(1 1) rotate(0) translate(4 130.5)">
<title>PauseMenu::initialize</title>
<polygon fill="white" stroke="none" points="-4,4 -4,-130.5 427,-130.5 427,4 -4,4"/>
<!-- Node1 -->
<g id="node1" class="node"><title>Node1</title>
<g id="a_node1"><a xlink:title=" ">
<polygon fill="#bfbfbf" stroke="black" points="0,-57.5 0,-76.5 110,-76.5 110,-57.5 0,-57.5"/>
<text text-anchor="middle" x="55" y="-64.5" font-family="Helvetica,sans-Serif" font-size="10.00">PauseMenu::initialize</text>
</a>
</g>
</g>
<!-- Node2 -->
<g id="node2" class="node"><title>Node2</title>
<g id="a_node2"><a xlink:href="../../d2/d23/class_locator.html#a310ebd51e96b6341e25471b651afaf34" target="_top" xlink:title=" ">
<polygon fill="white" stroke="black" points="146,-96 146,-126 291,-126 291,-96 146,-96"/>
<text text-anchor="start" x="154" y="-114" font-family="Helvetica,sans-Serif" font-size="10.00">Locator&lt; TextureHandler,</text>
<text text-anchor="middle" x="218.5" y="-103" font-family="Helvetica,sans-Serif" font-size="10.00"> TextureHandler &gt;::getService</text>
</a>
</g>
</g>
<!-- Node1&#45;&gt;Node2 -->
<g id="edge1" class="edge"><title>Node1&#45;&gt;Node2</title>
<path fill="none" stroke="midnightblue" d="M91.0431,-76.5473C108.983,-81.4349 131.41,-87.5451 152.376,-93.2571"/>
<polygon fill="midnightblue" stroke="midnightblue" points="151.635,-96.6828 162.203,-95.9346 153.475,-89.929 151.635,-96.6828"/>
</g>
<!-- Node3 -->
<g id="node3" class="node"><title>Node3</title>
<g id="a_node3"><a xlink:href="../../dd/df5/class_gui_string.html#a092c979f8a66d3226f191b63f32f7e81" target="_top" xlink:title=" ">
<polygon fill="white" stroke="black" points="169.5,-57.5 169.5,-76.5 267.5,-76.5 267.5,-57.5 169.5,-57.5"/>
<text text-anchor="middle" x="218.5" y="-64.5" font-family="Helvetica,sans-Serif" font-size="10.00">GuiString::initialize</text>
</a>
</g>
</g>
<!-- Node1&#45;&gt;Node3 -->
<g id="edge2" class="edge"><title>Node1&#45;&gt;Node3</title>
<path fill="none" stroke="midnightblue" d="M110.226,-67C125.937,-67 143.154,-67 159.108,-67"/>
<polygon fill="midnightblue" stroke="midnightblue" points="159.38,-70.5001 169.38,-67 159.38,-63.5001 159.38,-70.5001"/>
</g>
<!-- Node4 -->
<g id="node4" class="node"><title>Node4</title>
<g id="a_node4"><a xlink:href="../../d1/db9/class_gui_sprite.html#a50b84e21fcb306c538ed057bd0eea717" target="_top" xlink:title=" ">
<polygon fill="white" stroke="black" points="169.5,-19.5 169.5,-38.5 267.5,-38.5 267.5,-19.5 169.5,-19.5"/>
<text text-anchor="middle" x="218.5" y="-26.5" font-family="Helvetica,sans-Serif" font-size="10.00">GuiSprite::initialize</text>
</a>
</g>
</g>
<!-- Node1&#45;&gt;Node4 -->
<g id="edge3" class="edge"><title>Node1&#45;&gt;Node4</title>
<path fill="none" stroke="midnightblue" d="M96.7533,-57.411C118.161,-52.3739 144.586,-46.1562 167.253,-40.8229"/>
<polygon fill="midnightblue" stroke="midnightblue" points="168.107,-44.2175 177.04,-38.5201 166.504,-37.4036 168.107,-44.2175"/>
</g>
<!-- Node5 -->
<g id="node5" class="node"><title>Node5</title>
<g id="a_node5"><a xlink:href="../../d2/d7f/class_texture.html#a0eaebfd0e00f88d19a64ed05ea634539" target="_top" xlink:title=" ">
<polygon fill="white" stroke="black" points="327,-38.5 327,-57.5 423,-57.5 423,-38.5 327,-38.5"/>
<text text-anchor="middle" x="375" y="-45.5" font-family="Helvetica,sans-Serif" font-size="10.00">Texture::getHeight</text>
</a>
</g>
</g>
<!-- Node4&#45;&gt;Node5 -->
<g id="edge4" class="edge"><title>Node4&#45;&gt;Node5</title>
<path fill="none" stroke="midnightblue" d="M267.538,-34.9076C283.015,-36.811 300.328,-38.94 316.42,-40.919"/>
<polygon fill="midnightblue" stroke="midnightblue" points="316.435,-44.4471 326.787,-42.1939 317.289,-37.4994 316.435,-44.4471"/>
</g>
<!-- Node6 -->
<g id="node6" class="node"><title>Node6</title>
<g id="a_node6"><a xlink:href="../../d2/d7f/class_texture.html#a4d8e86e7df22179e8f3af9392020608c" target="_top" xlink:title=" ">
<polygon fill="white" stroke="black" points="328,-0.5 328,-19.5 422,-19.5 422,-0.5 328,-0.5"/>
<text text-anchor="middle" x="375" y="-7.5" font-family="Helvetica,sans-Serif" font-size="10.00">Texture::getWidth</text>
</a>
</g>
</g>
<!-- Node4&#45;&gt;Node6 -->
<g id="edge5" class="edge"><title>Node4&#45;&gt;Node6</title>
<path fill="none" stroke="midnightblue" d="M267.538,-23.0924C283.456,-21.1348 301.315,-18.9386 317.792,-16.9123"/>
<polygon fill="midnightblue" stroke="midnightblue" points="318.345,-20.3708 327.843,-15.6763 317.49,-13.4231 318.345,-20.3708"/>
</g>
</g>
</svg>
