<?xml version="1.0" encoding="UTF-8" standalone="no"?>
<!DOCTYPE svg PUBLIC "-//W3C//DTD SVG 1.1//EN"
 "http://www.w3.org/Graphics/SVG/1.1/DTD/svg11.dtd">
<!-- Generated by graphviz version 2.38.0 (20140413.2041)
 -->
<!-- Title: Settings::getLightsPerEntity Pages: 1 -->
<!--zoomable 172 -->
<svg id="main" version="1.1" xmlns="http://www.w3.org/2000/svg" xmlns:xlink="http://www.w3.org/1999/xlink" xml:space="preserve" onload="init(evt)">
<style type="text/css"><![CDATA[
.edge:hover path { stroke: red; }
.edge:hover polygon { stroke: red; fill: red; }
]]></style>
<script type="text/javascript"><![CDATA[
var edges = document.getElementsByTagName('g');
if (edges && edges.length) {
  for (var i=0;i<edges.length;i++) {
    if (edges[i].id.substr(0,4)=='edge') {
      edges[i].setAttribute('class','edge');
    }
  }
}
]]></script>
        <defs>
                <circle id="rim" cx="0" cy="0" r="7"/>
                <circle id="rim2" cx="0" cy="0" r="3.5"/>
                <g id="zoomPlus">
                        <use xlink:href="#rim" fill="#404040">
                                <set attributeName="fill" to="#808080" begin="zoomplus.mouseover" end="zoomplus.mouseout"/>
                        </use>
                        <path d="M-4,0h8M0,-4v8" fill="none" stroke="white" stroke-width="1.5" pointer-events="none"/>
                </g>
                <g id="zoomMin">
                        <use xlink:href="#rim" fill="#404040">
                                <set attributeName="fill" to="#808080" begin="zoomminus.mouseover" end="zoomminus.mouseout"/>
                        </use>
                        <path d="M-4,0h8" fill="none" stroke="white" stroke-width="1.5" pointer-events="none"/>
                </g>
                <g id="dirArrow">
                        <path fill="none" stroke="white" stroke-width="1.5" d="M0,-3.0v7 M-2.5,-0.5L0,-3.0L2.5,-0.5"/>
                </g>
               <g id="resetDef">
                       <use xlink:href="#rim2" fill="#404040">
                               <set attributeName="fill" to="#808080" begin="reset.mouseover" end="reset.mouseout"/>
                       </use>
               </g>
        </defs>

<script type="text/javascript">
var viewWidth = 1085;
var viewHeight = 172;
var sectionId = 'dynsection-1';
</script>
<script xlink:href="../../svgpan.js"/>
<svg id="graph" class="graph">
<g id="viewport">
<title>Settings::getLightsPerEntity</title>
<polygon fill="white" stroke="none" points="-4,4 -4,-168 1081,-168 1081,4 -4,4"/>
<!-- Node1 -->
<g id="node1" class="node"><title>Node1</title>
<g id="a_node1"><a xlink:title=" ">
<polygon fill="#bfbfbf" stroke="black" points="938,-68.5 938,-87.5 1077,-87.5 1077,-68.5 938,-68.5"/>
<text text-anchor="middle" x="1007.5" y="-75.5" font-family="Helvetica,sans-Serif" font-size="10.00">Settings::getLightsPerEntity</text>
</a>
</g>
</g>
<!-- Node2 -->
<g id="node2" class="node"><title>Node2</title>
<g id="a_node2"><a xlink:href="../../d1/d45/class_light_test.html#acfa774548a0298d8240d5d73d20fe676" target="_top" xlink:title=" ">
<polygon fill="white" stroke="black" points="789,-144.5 789,-163.5 887,-163.5 887,-144.5 789,-144.5"/>
<text text-anchor="middle" x="838" y="-151.5" font-family="Helvetica,sans-Serif" font-size="10.00">LightTest::initialize</text>
</a>
</g>
</g>
<!-- Node1&#45;&gt;Node2 -->
<g id="edge1" class="edge"><title>Node1&#45;&gt;Node2</title>
<path fill="none" stroke="midnightblue" d="M982.666,-92.8514C961.928,-105.317 930.768,-122.968 902,-135 893.568,-138.526 884.254,-141.704 875.433,-144.407"/>
<polygon fill="midnightblue" stroke="midnightblue" points="984.691,-95.7159 991.414,-87.5275 981.052,-89.7361 984.691,-95.7159"/>
</g>
<!-- Node3 -->
<g id="node3" class="node"><title>Node3</title>
<g id="a_node3"><a xlink:href="../../d1/d51/class_shader.html#ac54f6756d191e870421d73671d696a9a" target="_top" xlink:title=" ">
<polygon fill="white" stroke="black" points="607.5,-54.5 607.5,-73.5 733.5,-73.5 733.5,-54.5 607.5,-54.5"/>
<text text-anchor="middle" x="670.5" y="-61.5" font-family="Helvetica,sans-Serif" font-size="10.00">Shader::recompileShader</text>
</a>
</g>
</g>
<!-- Node1&#45;&gt;Node3 -->
<g id="edge2" class="edge"><title>Node1&#45;&gt;Node3</title>
<path fill="none" stroke="midnightblue" d="M927.826,-74.7121C868.523,-72.2338 788.319,-68.882 733.517,-66.5918"/>
<polygon fill="midnightblue" stroke="midnightblue" points="927.762,-78.2124 937.899,-75.1331 928.054,-71.2185 927.762,-78.2124"/>
</g>
<!-- Node4 -->
<g id="node4" class="node"><title>Node4</title>
<g id="a_node4"><a xlink:href="../../d1/d51/class_shader.html#a7b948b15c4dd01dda8fccead170a16f9" target="_top" xlink:title=" ">
<polygon fill="white" stroke="black" points="783,-106.5 783,-125.5 893,-125.5 893,-106.5 783,-106.5"/>
<text text-anchor="middle" x="838" y="-113.5" font-family="Helvetica,sans-Serif" font-size="10.00">Shader::setPointLight</text>
</a>
</g>
</g>
<!-- Node1&#45;&gt;Node4 -->
<g id="edge3" class="edge"><title>Node1&#45;&gt;Node4</title>
<path fill="none" stroke="midnightblue" d="M954.38,-89.8243C930.765,-95.1816 903.218,-101.431 880.963,-106.48"/>
<polygon fill="midnightblue" stroke="midnightblue" points="955.255,-93.2148 964.233,-87.589 953.706,-86.3883 955.255,-93.2148"/>
</g>
<!-- Node11 -->
<g id="node11" class="node"><title>Node11</title>
<g id="a_node11"><a xlink:href="../../d1/d51/class_shader.html#af076aa6265cb875e0395d816b92d8637" target="_top" xlink:title=" ">
<polygon fill="white" stroke="black" points="628.5,-0.5 628.5,-19.5 712.5,-19.5 712.5,-0.5 628.5,-0.5"/>
<text text-anchor="middle" x="670.5" y="-7.5" font-family="Helvetica,sans-Serif" font-size="10.00">Shader::Shader</text>
</a>
</g>
</g>
<!-- Node1&#45;&gt;Node11 -->
<g id="edge10" class="edge"><title>Node1&#45;&gt;Node11</title>
<path fill="none" stroke="midnightblue" d="M985.028,-62.4843C964.737,-48.7788 932.886,-29.6651 902,-21 837.775,-2.9818 759.589,-3.74825 712.77,-6.48647"/>
<polygon fill="midnightblue" stroke="midnightblue" points="983.277,-65.5295 993.492,-68.3438 987.262,-59.7741 983.277,-65.5295"/>
</g>
<!-- Node12 -->
<g id="node12" class="node"><title>Node12</title>
<g id="a_node12"><a xlink:href="../../d1/d51/class_shader.html#a5092f138c9979b3f23ede89ea0c4bc54" target="_top" xlink:title=" ">
<polygon fill="white" stroke="black" points="774,-30.5 774,-49.5 902,-49.5 902,-30.5 774,-30.5"/>
<text text-anchor="middle" x="838" y="-37.5" font-family="Helvetica,sans-Serif" font-size="10.00">Shader::updateTagValues</text>
</a>
</g>
</g>
<!-- Node1&#45;&gt;Node12 -->
<g id="edge11" class="edge"><title>Node1&#45;&gt;Node12</title>
<path fill="none" stroke="midnightblue" d="M954.38,-66.1757C930.765,-60.8184 903.218,-54.5689 880.963,-49.5201"/>
<polygon fill="midnightblue" stroke="midnightblue" points="953.706,-69.6117 964.233,-68.411 955.255,-62.7852 953.706,-69.6117"/>
</g>
<!-- Node5 -->
<g id="node5" class="node"><title>Node5</title>
<g id="a_node5"><a xlink:href="../../d8/d31/class_rendering_system.html#a322fb5e18e4b8db722ca2fdcb7e754ea" target="_top" xlink:title=" ">
<polygon fill="white" stroke="black" points="603,-101 603,-131 738,-131 738,-101 603,-101"/>
<text text-anchor="start" x="611" y="-119" font-family="Helvetica,sans-Serif" font-size="10.00">RenderingSystem::initialize</text>
<text text-anchor="middle" x="670.5" y="-108" font-family="Helvetica,sans-Serif" font-size="10.00">Lights</text>
</a>
</g>
</g>
<!-- Node4&#45;&gt;Node5 -->
<g id="edge4" class="edge"><title>Node4&#45;&gt;Node5</title>
<path fill="none" stroke="midnightblue" d="M772.614,-116C761.338,-116 749.583,-116 738.245,-116"/>
<polygon fill="midnightblue" stroke="midnightblue" points="772.809,-119.5 782.809,-116 772.809,-112.5 772.809,-119.5"/>
</g>
<!-- Node6 -->
<g id="node6" class="node"><title>Node6</title>
<g id="a_node6"><a xlink:href="../../d8/d31/class_rendering_system.html#ae6a25f6b28ebe40f08916d9eadc95ac2" target="_top" xlink:title=" ">
<polygon fill="white" stroke="black" points="440,-106.5 440,-125.5 567,-125.5 567,-106.5 440,-106.5"/>
<text text-anchor="middle" x="503.5" y="-113.5" font-family="Helvetica,sans-Serif" font-size="10.00">RenderingSystem::render</text>
</a>
</g>
</g>
<!-- Node5&#45;&gt;Node6 -->
<g id="edge5" class="edge"><title>Node5&#45;&gt;Node6</title>
<path fill="none" stroke="midnightblue" d="M592.818,-116C584.208,-116 575.513,-116 567.111,-116"/>
<polygon fill="midnightblue" stroke="midnightblue" points="592.864,-119.5 602.864,-116 592.864,-112.5 592.864,-119.5"/>
</g>
<!-- Node7 -->
<g id="node7" class="node"><title>Node7</title>
<g id="a_node7"><a xlink:href="../../dd/d1f/class_game.html#a15ddd769261d923827a3cdf41499c843" target="_top" xlink:title=" ">
<polygon fill="white" stroke="black" points="328,-106.5 328,-125.5 404,-125.5 404,-106.5 328,-106.5"/>
<text text-anchor="middle" x="366" y="-113.5" font-family="Helvetica,sans-Serif" font-size="10.00">Game::render</text>
</a>
</g>
</g>
<!-- Node6&#45;&gt;Node7 -->
<g id="edge6" class="edge"><title>Node6&#45;&gt;Node7</title>
<path fill="none" stroke="midnightblue" d="M429.877,-116C421.008,-116 412.25,-116 404.216,-116"/>
<polygon fill="midnightblue" stroke="midnightblue" points="429.906,-119.5 439.906,-116 429.906,-112.5 429.906,-119.5"/>
</g>
<!-- Node8 -->
<g id="node8" class="node"><title>Node8</title>
<g id="a_node8"><a xlink:href="../../de/d6b/class_application.html#a9ac99d97ee1cc814298a2f2388bde835" target="_top" xlink:title=" ">
<polygon fill="white" stroke="black" points="194,-106.5 194,-125.5 292,-125.5 292,-106.5 194,-106.5"/>
<text text-anchor="middle" x="243" y="-113.5" font-family="Helvetica,sans-Serif" font-size="10.00">Application::render</text>
</a>
</g>
</g>
<!-- Node7&#45;&gt;Node8 -->
<g id="edge7" class="edge"><title>Node7&#45;&gt;Node8</title>
<path fill="none" stroke="midnightblue" d="M317.684,-116C309.282,-116 300.524,-116 292.101,-116"/>
<polygon fill="midnightblue" stroke="midnightblue" points="317.709,-119.5 327.709,-116 317.709,-112.5 317.709,-119.5"/>
</g>
<!-- Node9 -->
<g id="node9" class="node"><title>Node9</title>
<g id="a_node9"><a xlink:href="../../de/d6b/class_application.html#a68965449404743bf1add056784d6cf81" target="_top" xlink:title=" ">
<polygon fill="white" stroke="black" points="74,-106.5 74,-125.5 158,-125.5 158,-106.5 74,-106.5"/>
<text text-anchor="middle" x="116" y="-113.5" font-family="Helvetica,sans-Serif" font-size="10.00">Application::run</text>
</a>
</g>
</g>
<!-- Node8&#45;&gt;Node9 -->
<g id="edge8" class="edge"><title>Node8&#45;&gt;Node9</title>
<path fill="none" stroke="midnightblue" d="M183.411,-116C174.926,-116 166.343,-116 158.294,-116"/>
<polygon fill="midnightblue" stroke="midnightblue" points="183.672,-119.5 193.672,-116 183.672,-112.5 183.672,-119.5"/>
</g>
<!-- Node10 -->
<g id="node10" class="node"><title>Node10</title>
<g id="a_node10"><a xlink:href="../../d5/d12/_main_8cpp.html#a0ddf1224851353fc92bfbff6f499fa97" target="_top" xlink:title=" ">
<polygon fill="white" stroke="black" points="0,-106.5 0,-125.5 38,-125.5 38,-106.5 0,-106.5"/>
<text text-anchor="middle" x="19" y="-113.5" font-family="Helvetica,sans-Serif" font-size="10.00">main</text>
</a>
</g>
</g>
<!-- Node9&#45;&gt;Node10 -->
<g id="edge9" class="edge"><title>Node9&#45;&gt;Node10</title>
<path fill="none" stroke="midnightblue" d="M63.6206,-116C54.5384,-116 45.6466,-116 38.2853,-116"/>
<polygon fill="midnightblue" stroke="midnightblue" points="63.8842,-119.5 73.8841,-116 63.8841,-112.5 63.8842,-119.5"/>
</g>
<!-- Node12&#45;&gt;Node3 -->
<g id="edge12" class="edge"><title>Node12&#45;&gt;Node3</title>
<path fill="none" stroke="midnightblue" d="M763.914,-50.5986C753.781,-52.0681 743.451,-53.566 733.545,-55.0026"/>
<polygon fill="midnightblue" stroke="midnightblue" points="764.565,-54.0408 773.959,-49.1418 763.561,-47.1133 764.565,-54.0408"/>
</g>
<!-- Node12&#45;&gt;Node11 -->
<g id="edge13" class="edge"><title>Node12&#45;&gt;Node11</title>
<path fill="none" stroke="midnightblue" d="M774.212,-28.6184C753.568,-24.8764 731.162,-20.8149 712.56,-17.443"/>
<polygon fill="midnightblue" stroke="midnightblue" points="773.716,-32.0855 784.18,-30.4253 774.964,-25.1977 773.716,-32.0855"/>
</g>
</g>
</svg>
        <g id="navigator" transform="translate(0 0)" fill="#404254">
                <rect fill="#f2f5e9" fill-opacity="0.5" stroke="#606060" stroke-width=".5" x="0" y="0" width="60" height="60"/>
                <use id="zoomplus" xlink:href="#zoomPlus" x="17" y="9" onmousedown="handleZoom(evt,'in')"/>
                <use id="zoomminus" xlink:href="#zoomMin" x="42" y="9" onmousedown="handleZoom(evt,'out')"/>
                <use id="reset" xlink:href="#resetDef" x="30" y="36" onmousedown="handleReset()"/>
                <g id="arrowUp" xlink:href="#dirArrow" transform="translate(30 24)" onmousedown="handlePan(0,-1)">
                  <use xlink:href="#rim" fill="#404040">
                        <set attributeName="fill" to="#808080" begin="arrowUp.mouseover" end="arrowUp.mouseout"/>
                  </use>
                  <path fill="none" stroke="white" stroke-width="1.5" d="M0,-3.0v7 M-2.5,-0.5L0,-3.0L2.5,-0.5"/>
                </g>
                <g id="arrowRight" xlink:href="#dirArrow" transform="rotate(90) translate(36 -43)" onmousedown="handlePan(1,0)">
                  <use xlink:href="#rim" fill="#404040">
                        <set attributeName="fill" to="#808080" begin="arrowRight.mouseover" end="arrowRight.mouseout"/>
                  </use>
                  <path fill="none" stroke="white" stroke-width="1.5" d="M0,-3.0v7 M-2.5,-0.5L0,-3.0L2.5,-0.5"/>
                </g>
                <g id="arrowDown" xlink:href="#dirArrow" transform="rotate(180) translate(-30 -48)" onmousedown="handlePan(0,1)">
                  <use xlink:href="#rim" fill="#404040">
                        <set attributeName="fill" to="#808080" begin="arrowDown.mouseover" end="arrowDown.mouseout"/>
                  </use>
                  <path fill="none" stroke="white" stroke-width="1.5" d="M0,-3.0v7 M-2.5,-0.5L0,-3.0L2.5,-0.5"/>
                </g>
                <g id="arrowLeft" xlink:href="#dirArrow" transform="rotate(270) translate(-36 17)" onmousedown="handlePan(-1,0)">
                  <use xlink:href="#rim" fill="#404040">
                        <set attributeName="fill" to="#808080" begin="arrowLeft.mouseover" end="arrowLeft.mouseout"/>
                  </use>
                  <path fill="none" stroke="white" stroke-width="1.5" d="M0,-3.0v7 M-2.5,-0.5L0,-3.0L2.5,-0.5"/>
                </g>
        </g>
        <svg viewBox="0 0 15 15" width="100%" height="30px" preserveAspectRatio="xMaxYMin meet">
         <g id="arrow_out" transform="scale(0.3 0.3)">
          <a xlink:href="class_settings_ac25f3a418000ad7512363abe4d786c00_icgraph_org.svg" target="_base">
           <rect id="button" ry="5" rx="5" y="6" x="6" height="38" width="38"
                fill="#f2f5e9" fill-opacity="0.5" stroke="#606060" stroke-width="1.0"/>
           <path id="arrow"
             d="M 11.500037,31.436501 C 11.940474,20.09759 22.043105,11.32322 32.158766,21.979434 L 37.068811,17.246167 C 37.068811,17.246167 37.088388,32 37.088388,32 L 22.160133,31.978069 C 22.160133,31.978069 26.997745,27.140456 26.997745,27.140456 C 18.528582,18.264221 13.291696,25.230495 11.500037,31.436501 z"
             style="fill:#404040;"/>
          </a>
         </g>
        </svg>
</svg>
