<?xml version="1.0" encoding="UTF-8" standalone="no"?>
<!DOCTYPE svg PUBLIC "-//W3C//DTD SVG 1.1//EN"
 "http://www.w3.org/Graphics/SVG/1.1/DTD/svg11.dtd">
<!-- Generated by graphviz version 2.38.0 (20140413.2041)
 -->
<!-- Title: Settings::getShadowIntensity Pages: 1 -->
<svg width="477pt" height="66pt"
 viewBox="0.00 0.00 477.00 66.00" xmlns="http://www.w3.org/2000/svg" xmlns:xlink="http://www.w3.org/1999/xlink">
<g id="graph0" class="graph" transform="scale(1 1) rotate(0) translate(4 62)">
<title>Settings::getShadowIntensity</title>
<polygon fill="white" stroke="none" points="-4,4 -4,-62 473,-62 473,4 -4,4"/>
<!-- Node1 -->
<g id="node1" class="node"><title>Node1</title>
<g id="a_node1"><a xlink:title=" ">
<polygon fill="#bfbfbf" stroke="black" points="326,-19.5 326,-38.5 469,-38.5 469,-19.5 326,-19.5"/>
<text text-anchor="middle" x="397.5" y="-26.5" font-family="Helvetica,sans-Serif" font-size="10.00">Settings::getShadowIntensity</text>
</a>
</g>
</g>
<!-- Node2 -->
<g id="node2" class="node"><title>Node2</title>
<g id="a_node2"><a xlink:href="../../d1/d51/class_shader.html#a5092f138c9979b3f23ede89ea0c4bc54" target="_top" xlink:title=" ">
<polygon fill="white" stroke="black" points="162,-19.5 162,-38.5 290,-38.5 290,-19.5 162,-19.5"/>
<text text-anchor="middle" x="226" y="-26.5" font-family="Helvetica,sans-Serif" font-size="10.00">Shader::updateTagValues</text>
</a>
</g>
</g>
<!-- Node1&#45;&gt;Node2 -->
<g id="edge1" class="edge"><title>Node1&#45;&gt;Node2</title>
<path fill="none" stroke="midnightblue" d="M315.582,-29C307.011,-29 298.387,-29 290.063,-29"/>
<polygon fill="midnightblue" stroke="midnightblue" points="315.599,-32.5001 325.599,-29 315.599,-25.5001 315.599,-32.5001"/>
</g>
<!-- Node3 -->
<g id="node3" class="node"><title>Node3</title>
<g id="a_node3"><a xlink:href="../../d1/d51/class_shader.html#ac54f6756d191e870421d73671d696a9a" target="_top" xlink:title=" ">
<polygon fill="white" stroke="black" points="0,-38.5 0,-57.5 126,-57.5 126,-38.5 0,-38.5"/>
<text text-anchor="middle" x="63" y="-45.5" font-family="Helvetica,sans-Serif" font-size="10.00">Shader::recompileShader</text>
</a>
</g>
</g>
<!-- Node2&#45;&gt;Node3 -->
<g id="edge2" class="edge"><title>Node2&#45;&gt;Node3</title>
<path fill="none" stroke="midnightblue" d="M151.846,-37.6331C143.277,-38.6443 134.596,-39.6688 126.196,-40.6602"/>
<polygon fill="midnightblue" stroke="midnightblue" points="152.31,-41.1027 161.831,-36.4548 151.489,-34.151 152.31,-41.1027"/>
</g>
<!-- Node4 -->
<g id="node4" class="node"><title>Node4</title>
<g id="a_node4"><a xlink:href="../../d1/d51/class_shader.html#af076aa6265cb875e0395d816b92d8637" target="_top" xlink:title=" ">
<polygon fill="white" stroke="black" points="21,-0.5 21,-19.5 105,-19.5 105,-0.5 21,-0.5"/>
<text text-anchor="middle" x="63" y="-7.5" font-family="Helvetica,sans-Serif" font-size="10.00">Shader::Shader</text>
</a>
</g>
</g>
<!-- Node2&#45;&gt;Node4 -->
<g id="edge3" class="edge"><title>Node2&#45;&gt;Node4</title>
<path fill="none" stroke="midnightblue" d="M151.468,-20.3223C135.579,-18.4472 119.324,-16.529 105.207,-14.8629"/>
<polygon fill="midnightblue" stroke="midnightblue" points="151.489,-23.849 161.831,-21.5452 152.31,-16.8973 151.489,-23.849"/>
</g>
</g>
</svg>
