<?xml version="1.0" encoding="UTF-8" standalone="no"?>
<!DOCTYPE svg PUBLIC "-//W3C//DTD SVG 1.1//EN"
 "http://www.w3.org/Graphics/SVG/1.1/DTD/svg11.dtd">
<!-- Generated by graphviz version 2.38.0 (20140413.2041)
 -->
<!-- Title: GameInfo::getWindowWidth Pages: 1 -->
<svg width="1712pt" height="608pt"
 viewBox="0.00 0.00 1712.00 607.80" xmlns="http://www.w3.org/2000/svg" xmlns:xlink="http://www.w3.org/1999/xlink">
<g id="graph0" class="graph" transform="scale(1 1) rotate(0) translate(4 603.803)">
<title>GameInfo::getWindowWidth</title>
<polygon fill="white" stroke="none" points="-4,4 -4,-603.803 1708,-603.803 1708,4 -4,4"/>
<!-- Node1 -->
<g id="node1" class="node"><title>Node1</title>
<g id="a_node1"><a xlink:title=" ">
<polygon fill="#bfbfbf" stroke="black" points="1567,-306.155 1567,-325.155 1704,-325.155 1704,-306.155 1567,-306.155"/>
<text text-anchor="middle" x="1635.5" y="-313.155" font-family="Helvetica,sans-Serif" font-size="10.00">GameInfo::getWindowWidth</text>
</a>
</g>
</g>
<!-- Node2 -->
<g id="node2" class="node"><title>Node2</title>
<g id="a_node2"><a xlink:href="../../d3/de8/class_fixed_updating_system.html#a3ed508813ba850baed19e86ef0429028" target="_top" xlink:title=" ">
<polygon fill="white" stroke="black" points="1039.5,-177.655 1039.5,-207.655 1152.5,-207.655 1152.5,-177.655 1039.5,-177.655"/>
<text text-anchor="start" x="1047.5" y="-195.655" font-family="Helvetica,sans-Serif" font-size="10.00">FixedUpdatingSystem</text>
<text text-anchor="middle" x="1096" y="-184.655" font-family="Helvetica,sans-Serif" font-size="10.00">::fixedUpdate</text>
</a>
</g>
</g>
<!-- Node1&#45;&gt;Node2 -->
<g id="edge1" class="edge"><title>Node1&#45;&gt;Node2</title>
<path fill="none" stroke="midnightblue" d="M1621.68,-298.063C1604.08,-275.463 1570.14,-237.075 1531,-219.655 1405.13,-163.631 1238.16,-173.763 1152.66,-184.199"/>
<polygon fill="midnightblue" stroke="midnightblue" points="1618.97,-300.283 1627.8,-306.143 1624.55,-296.058 1618.97,-300.283"/>
</g>
<!-- Node7 -->
<g id="node7" class="node"><title>Node7</title>
<g id="a_node7"><a xlink:href="../../d7/d06/class_g_u_i_resizing_information.html#acde3cf6247093ac58b8621d24df7bcbb" target="_top" xlink:title=" ">
<polygon fill="white" stroke="black" points="1395.5,-524.655 1395.5,-554.655 1513.5,-554.655 1513.5,-524.655 1395.5,-524.655"/>
<text text-anchor="start" x="1403.5" y="-542.655" font-family="Helvetica,sans-Serif" font-size="10.00">GUIResizingInformation</text>
<text text-anchor="middle" x="1454.5" y="-531.655" font-family="Helvetica,sans-Serif" font-size="10.00">::getLeftScreenPosition</text>
</a>
</g>
</g>
<!-- Node1&#45;&gt;Node7 -->
<g id="edge6" class="edge"><title>Node1&#45;&gt;Node7</title>
<path fill="none" stroke="midnightblue" d="M1629.77,-334.853C1619.07,-374.323 1589.26,-465.033 1531,-514.655 1525.85,-519.042 1519.9,-522.665 1513.66,-525.657"/>
<polygon fill="midnightblue" stroke="midnightblue" points="1633.16,-335.714 1632.29,-325.155 1626.39,-333.953 1633.16,-335.714"/>
</g>
<!-- Node9 -->
<g id="node9" class="node"><title>Node9</title>
<g id="a_node9"><a xlink:href="../../d4/d7b/class_input.html#a971adcc605a1101f162e2be7a5c16a5e" target="_top" xlink:title=" ">
<polygon fill="white" stroke="black" points="1222,-574.155 1222,-593.155 1331,-593.155 1331,-574.155 1222,-574.155"/>
<text text-anchor="middle" x="1276.5" y="-581.155" font-family="Helvetica,sans-Serif" font-size="10.00">Input::getMouseDelta</text>
</a>
</g>
</g>
<!-- Node1&#45;&gt;Node9 -->
<g id="edge8" class="edge"><title>Node1&#45;&gt;Node9</title>
<path fill="none" stroke="midnightblue" d="M1632.97,-335.187C1628.06,-383.32 1608.12,-507.77 1531,-563.655 1469.87,-607.952 1377.3,-601.995 1322.57,-593.155"/>
<polygon fill="midnightblue" stroke="midnightblue" points="1636.46,-335.433 1633.89,-325.157 1629.49,-334.798 1636.46,-335.433"/>
</g>
<!-- Node14 -->
<g id="node14" class="node"><title>Node14</title>
<g id="a_node14"><a xlink:href="../../d7/d06/class_g_u_i_resizing_information.html#abeb1127861b264bed4f03c1d7abe762f" target="_top" xlink:title=" ">
<polygon fill="white" stroke="black" points="1392,-426.655 1392,-456.655 1517,-456.655 1517,-426.655 1392,-426.655"/>
<text text-anchor="start" x="1400" y="-444.655" font-family="Helvetica,sans-Serif" font-size="10.00">GUIResizingInformation</text>
<text text-anchor="middle" x="1454.5" y="-433.655" font-family="Helvetica,sans-Serif" font-size="10.00">::getRightScreenPosition</text>
</a>
</g>
</g>
<!-- Node1&#45;&gt;Node14 -->
<g id="edge14" class="edge"><title>Node1&#45;&gt;Node14</title>
<path fill="none" stroke="midnightblue" d="M1619.66,-332.881C1600.82,-353.857 1566.5,-389.251 1531,-411.655 1521.94,-417.376 1511.6,-422.345 1501.54,-426.503"/>
<polygon fill="midnightblue" stroke="midnightblue" points="1622.31,-335.167 1626.3,-325.354 1617.06,-330.533 1622.31,-335.167"/>
</g>
<!-- Node15 -->
<g id="node15" class="node"><title>Node15</title>
<g id="a_node15"><a xlink:href="../../d3/de8/class_fixed_updating_system.html#a8f07c76b37a898f91221740f42c72598" target="_top" xlink:title=" ">
<polygon fill="white" stroke="black" points="1211,-212.655 1211,-242.655 1342,-242.655 1342,-212.655 1211,-212.655"/>
<text text-anchor="start" x="1219" y="-230.655" font-family="Helvetica,sans-Serif" font-size="10.00">FixedUpdatingSystem</text>
<text text-anchor="middle" x="1276.5" y="-219.655" font-family="Helvetica,sans-Serif" font-size="10.00">::handleBackEndMessage</text>
</a>
</g>
</g>
<!-- Node1&#45;&gt;Node15 -->
<g id="edge15" class="edge"><title>Node1&#45;&gt;Node15</title>
<path fill="none" stroke="midnightblue" d="M1616.27,-299.189C1596.75,-282.653 1564.09,-258.04 1531,-246.655 1469.34,-225.438 1394.41,-222.383 1342.07,-223.593"/>
<polygon fill="midnightblue" stroke="midnightblue" points="1614.19,-302.016 1624.04,-305.931 1618.78,-296.731 1614.19,-302.016"/>
</g>
<!-- Node17 -->
<g id="node17" class="node"><title>Node17</title>
<g id="a_node17"><a xlink:href="../../de/d6b/class_application.html#ac849576fa6b5ad689bf274d1c63ab821" target="_top" xlink:title=" ">
<polygon fill="white" stroke="black" points="840.5,-352.155 840.5,-371.155 965.5,-371.155 965.5,-352.155 840.5,-352.155"/>
<text text-anchor="middle" x="903" y="-359.155" font-family="Helvetica,sans-Serif" font-size="10.00">Application::initializeSDL</text>
</a>
</g>
</g>
<!-- Node1&#45;&gt;Node17 -->
<g id="edge18" class="edge"><title>Node1&#45;&gt;Node17</title>
<path fill="none" stroke="midnightblue" d="M1605.11,-329.318C1584.78,-338.047 1556.84,-348.638 1531,-353.655 1327.15,-393.24 1078.98,-378.276 965.706,-368.076"/>
<polygon fill="midnightblue" stroke="midnightblue" points="1606.69,-332.446 1614.44,-325.215 1603.87,-326.038 1606.69,-332.446"/>
</g>
<!-- Node19 -->
<g id="node19" class="node"><title>Node19</title>
<g id="a_node19"><a xlink:href="../../dd/d1f/class_game.html#a0cd419405f5790feab89322cbb3f18ce" target="_top" xlink:title=" ">
<polygon fill="white" stroke="black" points="1036,-331.155 1036,-350.155 1156,-350.155 1156,-331.155 1036,-331.155"/>
<text text-anchor="middle" x="1096" y="-338.155" font-family="Helvetica,sans-Serif" font-size="10.00">Game::initializeShaders</text>
</a>
</g>
</g>
<!-- Node1&#45;&gt;Node19 -->
<g id="edge21" class="edge"><title>Node1&#45;&gt;Node19</title>
<path fill="none" stroke="midnightblue" d="M1580.92,-327.125C1564.93,-330.104 1547.32,-332.951 1531,-334.655 1397.59,-348.579 1239.88,-346.041 1156.16,-343.201"/>
<polygon fill="midnightblue" stroke="midnightblue" points="1582,-330.482 1591.16,-325.16 1580.68,-323.608 1582,-330.482"/>
</g>
<!-- Node21 -->
<g id="node21" class="node"><title>Node21</title>
<g id="a_node21"><a xlink:href="../../d6/d17/class_gui_button.html#a571aa197ec582b526b5d6e2639bad843" target="_top" xlink:title=" ">
<polygon fill="white" stroke="black" points="1386,-475.655 1386,-505.655 1523,-505.655 1523,-475.655 1386,-475.655"/>
<text text-anchor="start" x="1394" y="-493.655" font-family="Helvetica,sans-Serif" font-size="10.00">GuiButton::mouseCoordsTo</text>
<text text-anchor="middle" x="1454.5" y="-482.655" font-family="Helvetica,sans-Serif" font-size="10.00">ScreenCoords</text>
</a>
</g>
</g>
<!-- Node1&#45;&gt;Node21 -->
<g id="edge24" class="edge"><title>Node1&#45;&gt;Node21</title>
<path fill="none" stroke="midnightblue" d="M1626.28,-334.801C1611.7,-366.571 1578.31,-430.189 1531,-465.655 1525.92,-469.465 1520.22,-472.712 1514.3,-475.477"/>
<polygon fill="midnightblue" stroke="midnightblue" points="1629.63,-335.893 1630.5,-325.334 1623.24,-333.044 1629.63,-335.893"/>
</g>
<!-- Node24 -->
<g id="node24" class="node"><title>Node24</title>
<g id="a_node24"><a xlink:href="../../d4/df8/class_camera_system.html#a47d9e3f5277b873769028e15ccd4aa43" target="_top" xlink:title=" ">
<polygon fill="white" stroke="black" points="1378,-306.155 1378,-325.155 1531,-325.155 1531,-306.155 1378,-306.155"/>
<text text-anchor="middle" x="1454.5" y="-313.155" font-family="Helvetica,sans-Serif" font-size="10.00">CameraSystem::refreshCamera</text>
</a>
</g>
</g>
<!-- Node1&#45;&gt;Node24 -->
<g id="edge28" class="edge"><title>Node1&#45;&gt;Node24</title>
<path fill="none" stroke="midnightblue" d="M1556.59,-315.655C1548.11,-315.655 1539.5,-315.655 1531.06,-315.655"/>
<polygon fill="midnightblue" stroke="midnightblue" points="1556.83,-319.155 1566.83,-315.655 1556.83,-312.155 1556.83,-319.155"/>
</g>
<!-- Node27 -->
<g id="node27" class="node"><title>Node27</title>
<g id="a_node27"><a xlink:href="../../d8/d31/class_rendering_system.html#ae6a25f6b28ebe40f08916d9eadc95ac2" target="_top" xlink:title=" ">
<polygon fill="white" stroke="black" points="488,-78.1548 488,-97.1548 615,-97.1548 615,-78.1548 488,-78.1548"/>
<text text-anchor="middle" x="551.5" y="-85.1548" font-family="Helvetica,sans-Serif" font-size="10.00">RenderingSystem::render</text>
</a>
</g>
</g>
<!-- Node1&#45;&gt;Node27 -->
<g id="edge34" class="edge"><title>Node1&#45;&gt;Node27</title>
<path fill="none" stroke="midnightblue" d="M1626.26,-296.766C1611.84,-266.201 1578.93,-206.519 1531,-178.655 1432.78,-121.549 1391.12,-145.655 1277.5,-145.655 1277.5,-145.655 1277.5,-145.655 902,-145.655 785.137,-145.655 649.223,-113.706 586.91,-97.2323"/>
<polygon fill="midnightblue" stroke="midnightblue" points="1623.11,-298.28 1630.44,-305.927 1629.48,-295.376 1623.11,-298.28"/>
</g>
<!-- Node30 -->
<g id="node30" class="node"><title>Node30</title>
<g id="a_node30"><a xlink:href="../../d7/dd6/class_pause_menu_system.html#a275e625e495889f598a67bdffb2ffd4f" target="_top" xlink:title=" ">
<polygon fill="white" stroke="black" points="1028.5,-22.1548 1028.5,-41.1548 1163.5,-41.1548 1163.5,-22.1548 1028.5,-22.1548"/>
<text text-anchor="middle" x="1096" y="-29.1548" font-family="Helvetica,sans-Serif" font-size="10.00">PauseMenuSystem::render</text>
</a>
</g>
</g>
<!-- Node1&#45;&gt;Node30 -->
<g id="edge38" class="edge"><title>Node1&#45;&gt;Node30</title>
<path fill="none" stroke="midnightblue" d="M1631.95,-296.012C1624.87,-249.6 1600.68,-132.36 1531,-69.6548 1417.85,32.1629 1214.39,-2.61967 1132.54,-22.1544"/>
<polygon fill="midnightblue" stroke="midnightblue" points="1628.49,-296.57 1633.37,-305.978 1635.42,-295.584 1628.49,-296.57"/>
</g>
<!-- Node33 -->
<g id="node33" class="node"><title>Node33</title>
<g id="a_node33"><a xlink:href="../../d3/df8/class_quad.html#a424c01ecd59971dc51e39bc19fbda551" target="_top" xlink:title=" ">
<polygon fill="white" stroke="black" points="1412,-79.1548 1412,-98.1548 1497,-98.1548 1497,-79.1548 1412,-79.1548"/>
<text text-anchor="middle" x="1454.5" y="-86.1548" font-family="Helvetica,sans-Serif" font-size="10.00">Quad::render3D</text>
</a>
</g>
</g>
<!-- Node1&#45;&gt;Node33 -->
<g id="edge42" class="edge"><title>Node1&#45;&gt;Node33</title>
<path fill="none" stroke="midnightblue" d="M1627.66,-296.33C1614.08,-260.203 1580.66,-181.579 1531,-131.655 1516.32,-116.896 1495.53,-105.554 1479.48,-98.2333"/>
<polygon fill="midnightblue" stroke="midnightblue" points="1624.51,-297.911 1631.23,-306.099 1631.08,-295.505 1624.51,-297.911"/>
</g>
<!-- Node36 -->
<g id="node36" class="node"><title>Node36</title>
<g id="a_node36"><a xlink:href="../../d7/d06/class_g_u_i_resizing_information.html#ae82679de84809831c862391c4bafffa1" target="_top" xlink:title=" ">
<polygon fill="white" stroke="black" points="1395.5,-256.655 1395.5,-286.655 1513.5,-286.655 1513.5,-256.655 1395.5,-256.655"/>
<text text-anchor="start" x="1403.5" y="-274.655" font-family="Helvetica,sans-Serif" font-size="10.00">GUIResizingInformation</text>
<text text-anchor="middle" x="1454.5" y="-263.655" font-family="Helvetica,sans-Serif" font-size="10.00">::updateInformation</text>
</a>
</g>
</g>
<!-- Node1&#45;&gt;Node36 -->
<g id="edge47" class="edge"><title>Node1&#45;&gt;Node36</title>
<path fill="none" stroke="midnightblue" d="M1585.76,-303.674C1563.5,-298.201 1536.95,-291.677 1513.66,-285.95"/>
<polygon fill="midnightblue" stroke="midnightblue" points="1585.11,-307.119 1595.66,-306.107 1586.78,-300.322 1585.11,-307.119"/>
</g>
<!-- Node3 -->
<g id="node3" class="node"><title>Node3</title>
<g id="a_node3"><a xlink:href="../../dd/d1f/class_game.html#a157e87f9dc147a5842ee6bdc06c95c17" target="_top" xlink:title=" ">
<polygon fill="white" stroke="black" points="853,-241.155 853,-260.155 953,-260.155 953,-241.155 853,-241.155"/>
<text text-anchor="middle" x="903" y="-248.155" font-family="Helvetica,sans-Serif" font-size="10.00">Game::fixedUpdate</text>
</a>
</g>
</g>
<!-- Node2&#45;&gt;Node3 -->
<g id="edge2" class="edge"><title>Node2&#45;&gt;Node3</title>
<path fill="none" stroke="midnightblue" d="M1035.72,-210.655C1002.6,-220.715 962.64,-232.848 935.485,-241.094"/>
<polygon fill="midnightblue" stroke="midnightblue" points="1036.76,-213.997 1045.32,-207.742 1034.73,-207.299 1036.76,-213.997"/>
</g>
<!-- Node4 -->
<g id="node4" class="node"><title>Node4</title>
<g id="a_node4"><a xlink:href="../../de/d6b/class_application.html#a95c827cb5cf08bd0c3cc7b07ed4b4249" target="_top" xlink:title=" ">
<polygon fill="white" stroke="black" points="330,-244.155 330,-263.155 452,-263.155 452,-244.155 330,-244.155"/>
<text text-anchor="middle" x="391" y="-251.155" font-family="Helvetica,sans-Serif" font-size="10.00">Application::fixedUpdate</text>
</a>
</g>
</g>
<!-- Node3&#45;&gt;Node4 -->
<g id="edge3" class="edge"><title>Node3&#45;&gt;Node4</title>
<path fill="none" stroke="midnightblue" d="M842.619,-251.004C744.792,-251.58 550.794,-252.721 452.341,-253.3"/>
<polygon fill="midnightblue" stroke="midnightblue" points="842.656,-254.504 852.636,-250.945 842.615,-247.504 842.656,-254.504"/>
</g>
<!-- Node5 -->
<g id="node5" class="node"><title>Node5</title>
<g id="a_node5"><a xlink:href="../../de/d6b/class_application.html#a68965449404743bf1add056784d6cf81" target="_top" xlink:title=" ">
<polygon fill="white" stroke="black" points="74,-266.155 74,-285.155 158,-285.155 158,-266.155 74,-266.155"/>
<text text-anchor="middle" x="116" y="-273.155" font-family="Helvetica,sans-Serif" font-size="10.00">Application::run</text>
</a>
</g>
</g>
<!-- Node4&#45;&gt;Node5 -->
<g id="edge4" class="edge"><title>Node4&#45;&gt;Node5</title>
<path fill="none" stroke="midnightblue" d="M319.733,-259.317C268.483,-263.447 200.792,-268.902 158.067,-272.345"/>
<polygon fill="midnightblue" stroke="midnightblue" points="320.065,-262.802 329.751,-258.51 319.502,-255.825 320.065,-262.802"/>
</g>
<!-- Node6 -->
<g id="node6" class="node"><title>Node6</title>
<g id="a_node6"><a xlink:href="../../d5/d12/_main_8cpp.html#a0ddf1224851353fc92bfbff6f499fa97" target="_top" xlink:title=" ">
<polygon fill="white" stroke="black" points="0,-266.155 0,-285.155 38,-285.155 38,-266.155 0,-266.155"/>
<text text-anchor="middle" x="19" y="-273.155" font-family="Helvetica,sans-Serif" font-size="10.00">main</text>
</a>
</g>
</g>
<!-- Node5&#45;&gt;Node6 -->
<g id="edge5" class="edge"><title>Node5&#45;&gt;Node6</title>
<path fill="none" stroke="midnightblue" d="M63.6206,-275.655C54.5384,-275.655 45.6466,-275.655 38.2853,-275.655"/>
<polygon fill="midnightblue" stroke="midnightblue" points="63.8842,-279.155 73.8841,-275.655 63.8841,-272.155 63.8842,-279.155"/>
</g>
<!-- Node8 -->
<g id="node8" class="node"><title>Node8</title>
<g id="a_node8"><a xlink:href="../../d3/d85/class_display_statistics_system.html#ab92f45efc6e36221000ff94041020a04" target="_top" xlink:title=" ">
<polygon fill="white" stroke="black" points="1214.5,-524.655 1214.5,-554.655 1338.5,-554.655 1338.5,-524.655 1214.5,-524.655"/>
<text text-anchor="start" x="1222.5" y="-542.655" font-family="Helvetica,sans-Serif" font-size="10.00">DisplayStatisticsSystem</text>
<text text-anchor="middle" x="1276.5" y="-531.655" font-family="Helvetica,sans-Serif" font-size="10.00">::fixedUpdate</text>
</a>
</g>
</g>
<!-- Node7&#45;&gt;Node8 -->
<g id="edge7" class="edge"><title>Node7&#45;&gt;Node8</title>
<path fill="none" stroke="midnightblue" d="M1384.95,-539.655C1369.66,-539.655 1353.54,-539.655 1338.58,-539.655"/>
<polygon fill="midnightblue" stroke="midnightblue" points="1385.38,-543.155 1395.38,-539.655 1385.38,-536.155 1385.38,-543.155"/>
</g>
<!-- Node10 -->
<g id="node10" class="node"><title>Node10</title>
<g id="a_node10"><a xlink:href="../../d4/df8/class_camera_system.html#a9bb59c07839a3bf41290e49f367d8fd6" target="_top" xlink:title=" ">
<polygon fill="white" stroke="black" points="1036.5,-546.155 1036.5,-565.155 1155.5,-565.155 1155.5,-546.155 1036.5,-546.155"/>
<text text-anchor="middle" x="1096" y="-553.155" font-family="Helvetica,sans-Serif" font-size="10.00">CameraSystem::update</text>
</a>
</g>
</g>
<!-- Node9&#45;&gt;Node10 -->
<g id="edge9" class="edge"><title>Node9&#45;&gt;Node10</title>
<path fill="none" stroke="midnightblue" d="M1211.92,-573.681C1193.53,-570.797 1173.56,-567.664 1155.5,-564.832"/>
<polygon fill="midnightblue" stroke="midnightblue" points="1211.52,-577.162 1221.94,-575.254 1212.61,-570.246 1211.52,-577.162"/>
</g>
<!-- Node11 -->
<g id="node11" class="node"><title>Node11</title>
<g id="a_node11"><a xlink:href="../../d2/d54/class_updating_system.html#a127ad554750e7e7582a1904abfb265aa" target="_top" xlink:title=" ">
<polygon fill="white" stroke="black" points="841,-481.155 841,-500.155 965,-500.155 965,-481.155 841,-481.155"/>
<text text-anchor="middle" x="903" y="-488.155" font-family="Helvetica,sans-Serif" font-size="10.00">UpdatingSystem::update</text>
</a>
</g>
</g>
<!-- Node10&#45;&gt;Node11 -->
<g id="edge10" class="edge"><title>Node10&#45;&gt;Node11</title>
<path fill="none" stroke="midnightblue" d="M1056.93,-542.7C1020.06,-530.15 965.004,-511.415 931.987,-500.179"/>
<polygon fill="midnightblue" stroke="midnightblue" points="1056.22,-546.155 1066.82,-546.064 1058.48,-539.529 1056.22,-546.155"/>
</g>
<!-- Node12 -->
<g id="node12" class="node"><title>Node12</title>
<g id="a_node12"><a xlink:href="../../dd/d1f/class_game.html#a79df6376b332d63c9eca0dcee30305c3" target="_top" xlink:title=" ">
<polygon fill="white" stroke="black" points="512.5,-399.155 512.5,-418.155 590.5,-418.155 590.5,-399.155 512.5,-399.155"/>
<text text-anchor="middle" x="551.5" y="-406.155" font-family="Helvetica,sans-Serif" font-size="10.00">Game::update</text>
</a>
</g>
</g>
<!-- Node11&#45;&gt;Node12 -->
<g id="edge11" class="edge"><title>Node11&#45;&gt;Node12</title>
<path fill="none" stroke="midnightblue" d="M851.206,-478.737C780.462,-462.139 653.854,-432.435 590.621,-417.599"/>
<polygon fill="midnightblue" stroke="midnightblue" points="850.689,-482.211 861.224,-481.088 852.288,-475.396 850.689,-482.211"/>
</g>
<!-- Node13 -->
<g id="node13" class="node"><title>Node13</title>
<g id="a_node13"><a xlink:href="../../de/d6b/class_application.html#a051023103d00b96b1e5e7437fd8e2e7c" target="_top" xlink:title=" ">
<polygon fill="white" stroke="black" points="194,-334.155 194,-353.155 294,-353.155 294,-334.155 194,-334.155"/>
<text text-anchor="middle" x="244" y="-341.155" font-family="Helvetica,sans-Serif" font-size="10.00">Application::update</text>
</a>
</g>
</g>
<!-- Node12&#45;&gt;Node13 -->
<g id="edge12" class="edge"><title>Node12&#45;&gt;Node13</title>
<path fill="none" stroke="midnightblue" d="M502.36,-398.412C444.029,-386.001 346.53,-365.257 289.762,-353.179"/>
<polygon fill="midnightblue" stroke="midnightblue" points="501.916,-401.896 512.426,-400.554 503.373,-395.049 501.916,-401.896"/>
</g>
<!-- Node13&#45;&gt;Node5 -->
<g id="edge13" class="edge"><title>Node13&#45;&gt;Node5</title>
<path fill="none" stroke="midnightblue" d="M216.394,-329.296C191.801,-316.024 155.947,-296.674 134.695,-285.204"/>
<polygon fill="midnightblue" stroke="midnightblue" points="214.752,-332.387 225.215,-334.056 218.077,-326.227 214.752,-332.387"/>
</g>
<!-- Node16 -->
<g id="node16" class="node"><title>Node16</title>
<g id="a_node16"><a xlink:href="../../dd/d1f/class_game.html#a5eb682ebf3aa9ac5b2d6d63ade9ddcc0" target="_top" xlink:title=" ">
<polygon fill="white" stroke="black" points="1017,-232.155 1017,-251.155 1175,-251.155 1175,-232.155 1017,-232.155"/>
<text text-anchor="middle" x="1096" y="-239.155" font-family="Helvetica,sans-Serif" font-size="10.00">Game::readBackendEventQueue</text>
</a>
</g>
</g>
<!-- Node15&#45;&gt;Node16 -->
<g id="edge16" class="edge"><title>Node15&#45;&gt;Node16</title>
<path fill="none" stroke="midnightblue" d="M1200.64,-233.526C1192.22,-234.187 1183.62,-234.861 1175.16,-235.525"/>
<polygon fill="midnightblue" stroke="midnightblue" points="1201.11,-237 1210.81,-232.729 1200.56,-230.022 1201.11,-237"/>
</g>
<!-- Node16&#45;&gt;Node3 -->
<g id="edge17" class="edge"><title>Node16&#45;&gt;Node3</title>
<path fill="none" stroke="midnightblue" d="M1006.6,-245.82C988.205,-246.687 969.46,-247.57 953.111,-248.341"/>
<polygon fill="midnightblue" stroke="midnightblue" points="1006.94,-249.308 1016.76,-245.341 1006.61,-242.316 1006.94,-249.308"/>
</g>
<!-- Node18 -->
<g id="node18" class="node"><title>Node18</title>
<g id="a_node18"><a xlink:href="../../de/d6b/class_application.html#af431bce25717b04a78d4d0940ed6a92c" target="_top" xlink:title=" ">
<polygon fill="white" stroke="black" points="667,-296.155 667,-315.155 773,-315.155 773,-296.155 667,-296.155"/>
<text text-anchor="middle" x="720" y="-303.155" font-family="Helvetica,sans-Serif" font-size="10.00">Application::initialize</text>
</a>
</g>
</g>
<!-- Node17&#45;&gt;Node18 -->
<g id="edge19" class="edge"><title>Node17&#45;&gt;Node18</title>
<path fill="none" stroke="midnightblue" d="M861.028,-348.978C827.834,-338.708 781.794,-324.464 751.709,-315.156"/>
<polygon fill="midnightblue" stroke="midnightblue" points="860.297,-352.416 870.885,-352.028 862.366,-345.729 860.297,-352.416"/>
</g>
<!-- Node18&#45;&gt;Node5 -->
<g id="edge20" class="edge"><title>Node18&#45;&gt;Node5</title>
<path fill="none" stroke="midnightblue" d="M656.778,-302.622C558.484,-297.82 361.248,-288.14 194,-279.655 182.369,-279.065 169.751,-278.414 158.159,-277.811"/>
<polygon fill="midnightblue" stroke="midnightblue" points="656.678,-306.121 666.837,-303.113 657.019,-299.13 656.678,-306.121"/>
</g>
<!-- Node20 -->
<g id="node20" class="node"><title>Node20</title>
<g id="a_node20"><a xlink:href="../../dd/d1f/class_game.html#a8986a201a654418cefe34ec28af1a22c" target="_top" xlink:title=" ">
<polygon fill="white" stroke="black" points="861,-296.155 861,-315.155 945,-315.155 945,-296.155 861,-296.155"/>
<text text-anchor="middle" x="903" y="-303.155" font-family="Helvetica,sans-Serif" font-size="10.00">Game::initialize</text>
</a>
</g>
</g>
<!-- Node19&#45;&gt;Node20 -->
<g id="edge22" class="edge"><title>Node19&#45;&gt;Node20</title>
<path fill="none" stroke="midnightblue" d="M1033.07,-329.307C1004.22,-324.02 970.692,-317.876 945.037,-313.175"/>
<polygon fill="midnightblue" stroke="midnightblue" points="1032.59,-332.777 1043.06,-331.137 1033.86,-325.892 1032.59,-332.777"/>
</g>
<!-- Node20&#45;&gt;Node18 -->
<g id="edge23" class="edge"><title>Node20&#45;&gt;Node18</title>
<path fill="none" stroke="midnightblue" d="M850.849,-305.655C826.598,-305.655 797.667,-305.655 773.275,-305.655"/>
<polygon fill="midnightblue" stroke="midnightblue" points="850.928,-309.155 860.928,-305.655 850.928,-302.155 850.928,-309.155"/>
</g>
<!-- Node22 -->
<g id="node22" class="node"><title>Node22</title>
<g id="a_node22"><a xlink:href="../../d6/d17/class_gui_button.html#acfb469dd9337dc5ebf70e32037b02851" target="_top" xlink:title=" ">
<polygon fill="white" stroke="black" points="1229,-481.155 1229,-500.155 1324,-500.155 1324,-481.155 1229,-481.155"/>
<text text-anchor="middle" x="1276.5" y="-488.155" font-family="Helvetica,sans-Serif" font-size="10.00">GuiButton::update</text>
</a>
</g>
</g>
<!-- Node21&#45;&gt;Node22 -->
<g id="edge25" class="edge"><title>Node21&#45;&gt;Node22</title>
<path fill="none" stroke="midnightblue" d="M1375.69,-490.655C1358.1,-490.655 1339.96,-490.655 1324.14,-490.655"/>
<polygon fill="midnightblue" stroke="midnightblue" points="1375.96,-494.155 1385.96,-490.655 1375.96,-487.155 1375.96,-494.155"/>
</g>
<!-- Node23 -->
<g id="node23" class="node"><title>Node23</title>
<g id="a_node23"><a xlink:href="../../d7/dd6/class_pause_menu_system.html#a7c17c731da14866fbbfb186f50b7824e" target="_top" xlink:title=" ">
<polygon fill="white" stroke="black" points="1027.5,-481.155 1027.5,-500.155 1164.5,-500.155 1164.5,-481.155 1027.5,-481.155"/>
<text text-anchor="middle" x="1096" y="-488.155" font-family="Helvetica,sans-Serif" font-size="10.00">PauseMenuSystem::update</text>
</a>
</g>
</g>
<!-- Node22&#45;&gt;Node23 -->
<g id="edge26" class="edge"><title>Node22&#45;&gt;Node23</title>
<path fill="none" stroke="midnightblue" d="M1218.25,-490.655C1201.21,-490.655 1182.38,-490.655 1164.73,-490.655"/>
<polygon fill="midnightblue" stroke="midnightblue" points="1218.6,-494.155 1228.6,-490.655 1218.6,-487.155 1218.6,-494.155"/>
</g>
<!-- Node23&#45;&gt;Node11 -->
<g id="edge27" class="edge"><title>Node23&#45;&gt;Node11</title>
<path fill="none" stroke="midnightblue" d="M1017.28,-490.655C999.912,-490.655 981.732,-490.655 965.147,-490.655"/>
<polygon fill="midnightblue" stroke="midnightblue" points="1017.39,-494.155 1027.39,-490.655 1017.39,-487.155 1017.39,-494.155"/>
</g>
<!-- Node24&#45;&gt;Node15 -->
<g id="edge29" class="edge"><title>Node24&#45;&gt;Node15</title>
<path fill="none" stroke="midnightblue" d="M1397.66,-303.15C1390.92,-300.974 1384.22,-298.484 1378,-295.655 1346.94,-281.524 1314.94,-258.047 1295.63,-242.711"/>
<polygon fill="midnightblue" stroke="midnightblue" points="1396.94,-306.588 1407.53,-306.114 1398.96,-299.884 1396.94,-306.588"/>
</g>
<!-- Node25 -->
<g id="node25" class="node"><title>Node25</title>
<g id="a_node25"><a xlink:href="../../d4/df8/class_camera_system.html#a4a7557f88f628a55314d3529519a28aa" target="_top" xlink:title=" ">
<polygon fill="white" stroke="black" points="1214,-300.655 1214,-330.655 1339,-330.655 1339,-300.655 1214,-300.655"/>
<text text-anchor="start" x="1222" y="-318.655" font-family="Helvetica,sans-Serif" font-size="10.00">CameraSystem::initialize</text>
<text text-anchor="middle" x="1276.5" y="-307.655" font-family="Helvetica,sans-Serif" font-size="10.00">Camera</text>
</a>
</g>
</g>
<!-- Node24&#45;&gt;Node25 -->
<g id="edge30" class="edge"><title>Node24&#45;&gt;Node25</title>
<path fill="none" stroke="midnightblue" d="M1367.77,-315.655C1358.08,-315.655 1348.35,-315.655 1339.05,-315.655"/>
<polygon fill="midnightblue" stroke="midnightblue" points="1367.84,-319.155 1377.84,-315.655 1367.84,-312.155 1367.84,-319.155"/>
</g>
<!-- Node26 -->
<g id="node26" class="node"><title>Node26</title>
<g id="a_node26"><a xlink:href="../../d3/de8/class_fixed_updating_system.html#ae6dd11a60942e140a62f8358bb69d4ba" target="_top" xlink:title=" ">
<polygon fill="white" stroke="black" points="1039.5,-272.655 1039.5,-302.655 1152.5,-302.655 1152.5,-272.655 1039.5,-272.655"/>
<text text-anchor="start" x="1047.5" y="-290.655" font-family="Helvetica,sans-Serif" font-size="10.00">FixedUpdatingSystem</text>
<text text-anchor="middle" x="1096" y="-279.655" font-family="Helvetica,sans-Serif" font-size="10.00">::initialize</text>
</a>
</g>
</g>
<!-- Node25&#45;&gt;Node26 -->
<g id="edge31" class="edge"><title>Node25&#45;&gt;Node26</title>
<path fill="none" stroke="midnightblue" d="M1203.91,-304.424C1186.86,-301.75 1168.92,-298.936 1152.7,-296.392"/>
<polygon fill="midnightblue" stroke="midnightblue" points="1203.4,-307.888 1213.82,-305.98 1204.48,-300.972 1203.4,-307.888"/>
</g>
<!-- Node26&#45;&gt;Node3 -->
<g id="edge32" class="edge"><title>Node26&#45;&gt;Node3</title>
<path fill="none" stroke="midnightblue" d="M1029.36,-274.939C1004.37,-270.098 976.342,-264.669 953.137,-260.173"/>
<polygon fill="midnightblue" stroke="midnightblue" points="1029.02,-278.437 1039.5,-276.903 1030.35,-271.565 1029.02,-278.437"/>
</g>
<!-- Node26&#45;&gt;Node20 -->
<g id="edge33" class="edge"><title>Node26&#45;&gt;Node20</title>
<path fill="none" stroke="midnightblue" d="M1029.38,-293.839C1001.4,-296.475 969.619,-299.471 945.052,-301.786"/>
<polygon fill="midnightblue" stroke="midnightblue" points="1029.87,-297.308 1039.5,-292.885 1029.21,-290.339 1029.87,-297.308"/>
</g>
<!-- Node28 -->
<g id="node28" class="node"><title>Node28</title>
<g id="a_node28"><a xlink:href="../../dd/d1f/class_game.html#a15ddd769261d923827a3cdf41499c843" target="_top" xlink:title=" ">
<polygon fill="white" stroke="black" points="353,-112.155 353,-131.155 429,-131.155 429,-112.155 353,-112.155"/>
<text text-anchor="middle" x="391" y="-119.155" font-family="Helvetica,sans-Serif" font-size="10.00">Game::render</text>
</a>
</g>
</g>
<!-- Node27&#45;&gt;Node28 -->
<g id="edge35" class="edge"><title>Node27&#45;&gt;Node28</title>
<path fill="none" stroke="midnightblue" d="M496.002,-99.3453C473.901,-104.086 448.945,-109.44 429.02,-113.714"/>
<polygon fill="midnightblue" stroke="midnightblue" points="496.884,-102.736 505.927,-97.2162 495.415,-95.8915 496.884,-102.736"/>
</g>
<!-- Node29 -->
<g id="node29" class="node"><title>Node29</title>
<g id="a_node29"><a xlink:href="../../de/d6b/class_application.html#a9ac99d97ee1cc814298a2f2388bde835" target="_top" xlink:title=" ">
<polygon fill="white" stroke="black" points="195,-141.155 195,-160.155 293,-160.155 293,-141.155 195,-141.155"/>
<text text-anchor="middle" x="244" y="-148.155" font-family="Helvetica,sans-Serif" font-size="10.00">Application::render</text>
</a>
</g>
</g>
<!-- Node28&#45;&gt;Node29 -->
<g id="edge36" class="edge"><title>Node28&#45;&gt;Node29</title>
<path fill="none" stroke="midnightblue" d="M342.455,-131.164C326.465,-134.362 308.629,-137.929 292.632,-141.128"/>
<polygon fill="midnightblue" stroke="midnightblue" points="343.54,-134.516 352.659,-129.123 342.167,-127.652 343.54,-134.516"/>
</g>
<!-- Node29&#45;&gt;Node5 -->
<g id="edge37" class="edge"><title>Node29&#45;&gt;Node5</title>
<path fill="none" stroke="midnightblue" d="M225.953,-167.567C199.208,-194.099 148.236,-244.666 126.841,-265.892"/>
<polygon fill="midnightblue" stroke="midnightblue" points="228.479,-169.991 233.113,-160.463 223.549,-165.021 228.479,-169.991"/>
</g>
<!-- Node31 -->
<g id="node31" class="node"><title>Node31</title>
<g id="a_node31"><a xlink:href="../../d8/d31/class_rendering_system.html#ad5115644b3d0a1df6446a610c683a31e" target="_top" xlink:title=" ">
<polygon fill="white" stroke="black" points="825,-22.1548 825,-41.1548 981,-41.1548 981,-22.1548 825,-22.1548"/>
<text text-anchor="middle" x="903" y="-29.1548" font-family="Helvetica,sans-Serif" font-size="10.00">RenderingSystem::renderOthers</text>
</a>
</g>
</g>
<!-- Node30&#45;&gt;Node31 -->
<g id="edge39" class="edge"><title>Node30&#45;&gt;Node31</title>
<path fill="none" stroke="midnightblue" d="M1018.29,-31.6548C1006.04,-31.6548 993.363,-31.6548 981.103,-31.6548"/>
<polygon fill="midnightblue" stroke="midnightblue" points="1018.47,-35.1549 1028.47,-31.6548 1018.47,-28.1549 1018.47,-35.1549"/>
</g>
<!-- Node32 -->
<g id="node32" class="node"><title>Node32</title>
<g id="a_node32"><a xlink:href="../../d8/d31/class_rendering_system.html#a9f1ec48fdfa79ddc55421b6014fdb9c6" target="_top" xlink:title=" ">
<polygon fill="white" stroke="black" points="651,-22.1548 651,-41.1548 789,-41.1548 789,-22.1548 651,-22.1548"/>
<text text-anchor="middle" x="720" y="-29.1548" font-family="Helvetica,sans-Serif" font-size="10.00">RenderingSystem::renderAll</text>
</a>
</g>
</g>
<!-- Node31&#45;&gt;Node32 -->
<g id="edge40" class="edge"><title>Node31&#45;&gt;Node32</title>
<path fill="none" stroke="midnightblue" d="M814.854,-31.6548C806.198,-31.6548 797.5,-31.6548 789.08,-31.6548"/>
<polygon fill="midnightblue" stroke="midnightblue" points="814.977,-35.1549 824.977,-31.6548 814.977,-28.1549 814.977,-35.1549"/>
</g>
<!-- Node32&#45;&gt;Node27 -->
<g id="edge41" class="edge"><title>Node32&#45;&gt;Node27</title>
<path fill="none" stroke="midnightblue" d="M680.518,-44.5978C650.046,-54.8464 608.185,-68.9258 580.749,-78.1537"/>
<polygon fill="midnightblue" stroke="midnightblue" points="682.015,-47.7869 690.378,-41.2815 679.784,-41.1521 682.015,-47.7869"/>
</g>
<!-- Node33&#45;&gt;Node27 -->
<g id="edge44" class="edge"><title>Node33&#45;&gt;Node27</title>
<path fill="none" stroke="midnightblue" d="M1401.61,-84.1536C1332.25,-78.5351 1205.48,-69.6548 1097,-69.6548 1097,-69.6548 1097,-69.6548 902,-69.6548 801.598,-69.6548 685.187,-77.155 615.27,-82.4726"/>
<polygon fill="midnightblue" stroke="midnightblue" points="1401.57,-87.6623 1411.83,-84.9914 1402.15,-80.6857 1401.57,-87.6623"/>
</g>
<!-- Node34 -->
<g id="node34" class="node"><title>Node34</title>
<g id="a_node34"><a xlink:href="../../dd/d84/class_gui_text_character.html#a807cfea698c6d8741d95e251230a5427" target="_top" xlink:title=" ">
<polygon fill="white" stroke="black" points="1214,-98.1548 1214,-117.155 1339,-117.155 1339,-98.1548 1214,-98.1548"/>
<text text-anchor="middle" x="1276.5" y="-105.155" font-family="Helvetica,sans-Serif" font-size="10.00">GuiTextCharacter::render</text>
</a>
</g>
</g>
<!-- Node33&#45;&gt;Node34 -->
<g id="edge43" class="edge"><title>Node33&#45;&gt;Node34</title>
<path fill="none" stroke="midnightblue" d="M1401.83,-94.2328C1382.22,-96.3495 1359.7,-98.7813 1339.25,-100.988"/>
<polygon fill="midnightblue" stroke="midnightblue" points="1402.22,-97.7107 1411.79,-93.1575 1401.47,-90.7511 1402.22,-97.7107"/>
</g>
<!-- Node35 -->
<g id="node35" class="node"><title>Node35</title>
<g id="a_node35"><a xlink:href="../../d1/db9/class_gui_sprite.html#ad8d743c3e3889fba893f29796717114f" target="_top" xlink:title=" ">
<polygon fill="white" stroke="black" points="1231.5,-22.1548 1231.5,-41.1548 1321.5,-41.1548 1321.5,-22.1548 1231.5,-22.1548"/>
<text text-anchor="middle" x="1276.5" y="-29.1548" font-family="Helvetica,sans-Serif" font-size="10.00">GuiSprite::render</text>
</a>
</g>
</g>
<!-- Node33&#45;&gt;Node35 -->
<g id="edge45" class="edge"><title>Node33&#45;&gt;Node35</title>
<path fill="none" stroke="midnightblue" d="M1414.42,-75.999C1381.98,-65.4918 1336.53,-50.7731 1307.05,-41.2264"/>
<polygon fill="midnightblue" stroke="midnightblue" points="1413.45,-79.3629 1424.04,-79.1143 1415.61,-72.7034 1413.45,-79.3629"/>
</g>
<!-- Node35&#45;&gt;Node30 -->
<g id="edge46" class="edge"><title>Node35&#45;&gt;Node30</title>
<path fill="none" stroke="midnightblue" d="M1221.25,-31.6548C1203.07,-31.6548 1182.58,-31.6548 1163.57,-31.6548"/>
<polygon fill="midnightblue" stroke="midnightblue" points="1221.38,-35.1549 1231.38,-31.6548 1221.38,-28.1549 1221.38,-35.1549"/>
</g>
<!-- Node36&#45;&gt;Node15 -->
<g id="edge48" class="edge"><title>Node36&#45;&gt;Node15</title>
<path fill="none" stroke="midnightblue" d="M1385.67,-254.698C1369.86,-250.744 1353.12,-246.561 1337.67,-242.696"/>
<polygon fill="midnightblue" stroke="midnightblue" points="1384.83,-258.096 1395.38,-257.126 1386.53,-251.305 1384.83,-258.096"/>
</g>
<!-- Node36&#45;&gt;Node26 -->
<g id="edge49" class="edge"><title>Node36&#45;&gt;Node26</title>
<path fill="none" stroke="midnightblue" d="M1385.31,-274.715C1317.75,-277.747 1215.53,-282.335 1152.7,-285.155"/>
<polygon fill="midnightblue" stroke="midnightblue" points="1385.6,-278.206 1395.43,-274.261 1385.28,-271.213 1385.6,-278.206"/>
</g>
</g>
</svg>
