<?xml version="1.0" encoding="UTF-8" standalone="no"?>
<!DOCTYPE svg PUBLIC "-//W3C//DTD SVG 1.1//EN"
 "http://www.w3.org/Graphics/SVG/1.1/DTD/svg11.dtd">
<!-- Generated by graphviz version 2.38.0 (20140413.2041)
 -->
<!-- Title: ComponentInterface Pages: 1 -->
<svg width="721pt" height="1291pt"
 viewBox="0.00 0.00 721.00 1290.94" xmlns="http://www.w3.org/2000/svg" xmlns:xlink="http://www.w3.org/1999/xlink">
<g id="graph0" class="graph" transform="scale(1 1) rotate(0) translate(4 1286.94)">
<title>ComponentInterface</title>
<polygon fill="white" stroke="none" points="-4,4 -4,-1286.94 717,-1286.94 717,4 -4,4"/>
<!-- Node1 -->
<g id="node1" class="node"><title>Node1</title>
<g id="a_node1"><a xlink:title=" ">
<polygon fill="#bfbfbf" stroke="black" points="0,-651.414 0,-670.414 103,-670.414 103,-651.414 0,-651.414"/>
<text text-anchor="middle" x="51.5" y="-658.414" font-family="Helvetica,sans-Serif" font-size="10.00">ComponentInterface</text>
</a>
</g>
</g>
<!-- Node2 -->
<g id="node2" class="node"><title>Node2</title>
<g id="a_node2"><a xlink:href="../../d2/d00/class_component.html" target="_top" xlink:title=" ">
<polygon fill="white" stroke="black" points="140,-651.414 140,-670.414 229,-670.414 229,-651.414 140,-651.414"/>
<text text-anchor="middle" x="184.5" y="-658.414" font-family="Helvetica,sans-Serif" font-size="10.00">Component&lt; T &gt;</text>
</a>
</g>
</g>
<!-- Node1&#45;&gt;Node2 -->
<g id="edge1" class="edge"><title>Node1&#45;&gt;Node2</title>
<path fill="none" stroke="midnightblue" d="M113.194,-660.914C122.17,-660.914 131.266,-660.914 139.805,-660.914"/>
<polygon fill="midnightblue" stroke="midnightblue" points="113.148,-657.414 103.148,-660.914 113.148,-664.414 113.148,-657.414"/>
</g>
<!-- Node3 -->
<g id="node3" class="node"><title>Node3</title>
<g id="a_node3"><a xlink:href="../../d2/d00/class_component.html" target="_top" xlink:title=" ">
<polygon fill="white" stroke="black" points="398,-916.414 398,-935.414 543,-935.414 543,-916.414 398,-916.414"/>
<text text-anchor="middle" x="470.5" y="-923.414" font-family="Helvetica,sans-Serif" font-size="10.00">Component&lt; CollisionMesh &gt;</text>
</a>
</g>
</g>
<!-- Node1&#45;&gt;Node3 -->
<g id="edge49" class="edge"><title>Node1&#45;&gt;Node3</title>
<path fill="none" stroke="midnightblue" d="M56.8406,-680.579C71.2066,-739.891 123.503,-915.653 247,-959.914 318.364,-985.491 409.344,-952.777 449.227,-935.431"/>
<polygon fill="midnightblue" stroke="midnightblue" points="60.2009,-679.576 54.5268,-670.629 53.3828,-681.162 60.2009,-679.576"/>
</g>
<!-- Node5 -->
<g id="node5" class="node"><title>Node5</title>
<g id="a_node5"><a xlink:href="../../d2/d00/class_component.html" target="_top" xlink:title=" ">
<polygon fill="white" stroke="black" points="396,-1101.41 396,-1120.41 545,-1120.41 545,-1101.41 396,-1101.41"/>
<text text-anchor="middle" x="470.5" y="-1108.41" font-family="Helvetica,sans-Serif" font-size="10.00">Component&lt; SimpleMaterial &gt;</text>
</a>
</g>
</g>
<!-- Node1&#45;&gt;Node5 -->
<g id="edge65" class="edge"><title>Node1&#45;&gt;Node5</title>
<path fill="none" stroke="midnightblue" d="M52.7459,-680.815C54.3349,-740.222 65.4133,-919.721 140,-1041.91 173.133,-1096.2 187.55,-1114.33 247,-1136.91 316.077,-1163.15 405.18,-1136.12 446.533,-1120.44"/>
<polygon fill="midnightblue" stroke="midnightblue" points="56.2406,-680.515 52.5386,-670.588 49.242,-680.657 56.2406,-680.515"/>
</g>
<!-- Node7 -->
<g id="node7" class="node"><title>Node7</title>
<g id="a_node7"><a xlink:href="../../d2/d00/class_component.html" target="_top" xlink:title=" ">
<polygon fill="white" stroke="black" points="413,-868.414 413,-887.414 528,-887.414 528,-868.414 413,-868.414"/>
<text text-anchor="middle" x="470.5" y="-875.414" font-family="Helvetica,sans-Serif" font-size="10.00">Component&lt; Shader &gt;</text>
</a>
</g>
</g>
<!-- Node1&#45;&gt;Node7 -->
<g id="edge64" class="edge"><title>Node1&#45;&gt;Node7</title>
<path fill="none" stroke="midnightblue" d="M59.5195,-679.82C79.4286,-730.012 141.732,-865.216 247,-900.914 315.222,-924.049 401.401,-901.58 443.693,-887.45"/>
<polygon fill="midnightblue" stroke="midnightblue" points="62.7767,-678.538 55.9144,-670.466 56.245,-681.056 62.7767,-678.538"/>
</g>
<!-- Node9 -->
<g id="node9" class="node"><title>Node9</title>
<g id="a_node9"><a xlink:href="../../d2/d00/class_component.html" target="_top" xlink:title=" ">
<polygon fill="white" stroke="black" points="381,-685.414 381,-704.414 560,-704.414 560,-685.414 381,-685.414"/>
<text text-anchor="middle" x="470.5" y="-692.414" font-family="Helvetica,sans-Serif" font-size="10.00">Component&lt; PlayerCameraHandler &gt;</text>
</a>
</g>
</g>
<!-- Node1&#45;&gt;Node9 -->
<g id="edge60" class="edge"><title>Node1&#45;&gt;Node9</title>
<path fill="none" stroke="midnightblue" d="M83.8477,-674.454C121.679,-689.993 187.62,-714.537 247,-723.914 297.925,-731.956 311.899,-730.747 363,-723.914 390.541,-720.231 421.05,-711.417 442.329,-704.465"/>
<polygon fill="midnightblue" stroke="midnightblue" points="84.981,-671.135 74.404,-670.522 82.29,-677.597 84.981,-671.135"/>
</g>
<!-- Node11 -->
<g id="node11" class="node"><title>Node11</title>
<g id="a_node11"><a xlink:href="../../d2/d00/class_component.html" target="_top" xlink:title=" ">
<polygon fill="white" stroke="black" points="402.5,-1203.41 402.5,-1222.41 538.5,-1222.41 538.5,-1203.41 402.5,-1203.41"/>
<text text-anchor="middle" x="470.5" y="-1210.41" font-family="Helvetica,sans-Serif" font-size="10.00">Component&lt; PauseMenu &gt;</text>
</a>
</g>
</g>
<!-- Node1&#45;&gt;Node11 -->
<g id="edge59" class="edge"><title>Node1&#45;&gt;Node11</title>
<path fill="none" stroke="midnightblue" d="M54.1564,-680.849C61.2448,-762.804 90.9189,-1073.38 140,-1156.91 172.669,-1212.51 186.894,-1231.55 247,-1254.91 295.052,-1273.59 314.524,-1272.46 363,-1254.91 372.792,-1251.37 371.838,-1244.86 381,-1239.91 394.85,-1232.43 411.065,-1226.72 425.805,-1222.52"/>
<polygon fill="midnightblue" stroke="midnightblue" points="57.6087,-680.138 53.2748,-670.47 50.6338,-680.73 57.6087,-680.138"/>
</g>
<!-- Node13 -->
<g id="node13" class="node"><title>Node13</title>
<g id="a_node13"><a xlink:href="../../d2/d00/class_component.html" target="_top" xlink:title=" ">
<polygon fill="white" stroke="black" points="405.5,-749.414 405.5,-768.414 535.5,-768.414 535.5,-749.414 405.5,-749.414"/>
<text text-anchor="middle" x="470.5" y="-756.414" font-family="Helvetica,sans-Serif" font-size="10.00">Component&lt; RayCaster &gt;</text>
</a>
</g>
</g>
<!-- Node1&#45;&gt;Node13 -->
<g id="edge63" class="edge"><title>Node1&#45;&gt;Node13</title>
<path fill="none" stroke="midnightblue" d="M70.464,-677.65C102.756,-706.388 174.071,-763.862 247,-782.914 315.04,-800.689 398.093,-781.331 440.918,-768.464"/>
<polygon fill="midnightblue" stroke="midnightblue" points="72.5307,-674.8 62.7686,-670.683 67.8323,-679.989 72.5307,-674.8"/>
</g>
<!-- Node15 -->
<g id="node15" class="node"><title>Node15</title>
<g id="a_node15"><a xlink:href="../../d2/d00/class_component.html" target="_top" xlink:title=" ">
<polygon fill="white" stroke="black" points="394.5,-1249.41 394.5,-1268.41 546.5,-1268.41 546.5,-1249.41 394.5,-1249.41"/>
<text text-anchor="middle" x="470.5" y="-1256.41" font-family="Helvetica,sans-Serif" font-size="10.00">Component&lt; AnimatedModel &gt;</text>
</a>
</g>
</g>
<!-- Node1&#45;&gt;Node15 -->
<g id="edge46" class="edge"><title>Node1&#45;&gt;Node15</title>
<path fill="none" stroke="midnightblue" d="M53.2191,-680.708C56.7858,-769.201 75.0922,-1128.07 140,-1215.91 206.424,-1305.81 361.042,-1284.26 432.309,-1268.47"/>
<polygon fill="midnightblue" stroke="midnightblue" points="56.7072,-680.33 52.8249,-670.472 49.7124,-680.6 56.7072,-680.33"/>
</g>
<!-- Node17 -->
<g id="node17" class="node"><title>Node17</title>
<g id="a_node17"><a xlink:href="../../d2/d00/class_component.html" target="_top" xlink:title=" ">
<polygon fill="white" stroke="black" points="409.5,-1155.41 409.5,-1174.41 531.5,-1174.41 531.5,-1155.41 409.5,-1155.41"/>
<text text-anchor="middle" x="470.5" y="-1162.41" font-family="Helvetica,sans-Serif" font-size="10.00">Component&lt; Particles &gt;</text>
</a>
</g>
</g>
<!-- Node1&#45;&gt;Node17 -->
<g id="edge58" class="edge"><title>Node1&#45;&gt;Node17</title>
<path fill="none" stroke="midnightblue" d="M51.9092,-680.788C50.8707,-745.851 54.6709,-956.46 140,-1098.91 172.984,-1153.98 187.114,-1172.81 247,-1195.91 295.1,-1214.47 311.961,-1203.19 363,-1195.91 391.406,-1191.86 422.823,-1182.03 444.124,-1174.51"/>
<polygon fill="midnightblue" stroke="midnightblue" points="55.4104,-680.764 52.1319,-670.689 48.4121,-680.609 55.4104,-680.764"/>
</g>
<!-- Node19 -->
<g id="node19" class="node"><title>Node19</title>
<g id="a_node19"><a xlink:href="../../d2/d00/class_component.html" target="_top" xlink:title=" ">
<polygon fill="white" stroke="black" points="406.5,-795.414 406.5,-814.414 534.5,-814.414 534.5,-795.414 406.5,-795.414"/>
<text text-anchor="middle" x="470.5" y="-802.414" font-family="Helvetica,sans-Serif" font-size="10.00">Component&lt; PointLight &gt;</text>
</a>
</g>
</g>
<!-- Node1&#45;&gt;Node19 -->
<g id="edge62" class="edge"><title>Node1&#45;&gt;Node19</title>
<path fill="none" stroke="midnightblue" d="M63.6948,-679.262C89.7043,-719.691 158.776,-814.995 247,-841.914 319.287,-863.97 409.042,-831.74 448.841,-814.541"/>
<polygon fill="midnightblue" stroke="midnightblue" points="66.5702,-677.26 58.282,-670.66 60.6456,-680.988 66.5702,-677.26"/>
</g>
<!-- Node21 -->
<g id="node21" class="node"><title>Node21</title>
<g id="a_node21"><a xlink:href="../../d2/d00/class_component.html" target="_top" xlink:title=" ">
<polygon fill="white" stroke="black" points="391,-991.414 391,-1010.41 550,-1010.41 550,-991.414 391,-991.414"/>
<text text-anchor="middle" x="470.5" y="-998.414" font-family="Helvetica,sans-Serif" font-size="10.00">Component&lt; GlobalInformation &gt;</text>
</a>
</g>
</g>
<!-- Node1&#45;&gt;Node21 -->
<g id="edge55" class="edge"><title>Node1&#45;&gt;Node21</title>
<path fill="none" stroke="midnightblue" d="M54.7586,-680.538C63.7201,-747.562 103.602,-966.182 247,-1018.91 313.563,-1043.39 398.66,-1023.68 441.779,-1010.44"/>
<polygon fill="midnightblue" stroke="midnightblue" points="58.2157,-679.976 53.4997,-670.489 51.27,-680.846 58.2157,-679.976"/>
</g>
<!-- Node23 -->
<g id="node23" class="node"><title>Node23</title>
<g id="a_node23"><a xlink:href="../../d2/d00/class_component.html" target="_top" xlink:title=" ">
<polygon fill="white" stroke="black" points="385,-100.414 385,-119.414 556,-119.414 556,-100.414 385,-100.414"/>
<text text-anchor="middle" x="470.5" y="-107.414" font-family="Helvetica,sans-Serif" font-size="10.00">Component&lt; DebuggingController &gt;</text>
</a>
</g>
</g>
<!-- Node1&#45;&gt;Node23 -->
<g id="edge50" class="edge"><title>Node1&#45;&gt;Node23</title>
<path fill="none" stroke="midnightblue" d="M52.9096,-640.998C55.1474,-551.229 68.5863,-184.969 140,-100.914 205.248,-24.1167 264.645,-37.9747 363,-59.9139 397.888,-67.6961 434.845,-88.2036 454.739,-100.402"/>
<polygon fill="midnightblue" stroke="midnightblue" points="49.4068,-641.084 52.676,-651.161 56.405,-641.245 49.4068,-641.084"/>
</g>
<!-- Node25 -->
<g id="node25" class="node"><title>Node25</title>
<g id="a_node25"><a xlink:href="../../d2/d00/class_component.html" target="_top" xlink:title=" ">
<polygon fill="white" stroke="black" points="395,-616.414 395,-635.414 546,-635.414 546,-616.414 395,-616.414"/>
<text text-anchor="middle" x="470.5" y="-623.414" font-family="Helvetica,sans-Serif" font-size="10.00">Component&lt; DirectionalLight &gt;</text>
</a>
</g>
</g>
<!-- Node1&#45;&gt;Node25 -->
<g id="edge51" class="edge"><title>Node1&#45;&gt;Node25</title>
<path fill="none" stroke="midnightblue" d="M81.2671,-646.987C118.487,-629.813 185.825,-601.587 247,-590.914 297.788,-582.053 312.093,-582.763 363,-590.914 392.98,-595.714 425.969,-607.661 447.168,-616.262"/>
<polygon fill="midnightblue" stroke="midnightblue" points="79.6108,-643.897 72.0364,-651.306 82.5773,-650.238 79.6108,-643.897"/>
</g>
<!-- Node27 -->
<g id="node27" class="node"><title>Node27</title>
<g id="a_node27"><a xlink:href="../../d2/d00/class_component.html" target="_top" xlink:title=" ">
<polygon fill="white" stroke="black" points="411.5,-341.414 411.5,-360.414 529.5,-360.414 529.5,-341.414 411.5,-341.414"/>
<text text-anchor="middle" x="470.5" y="-348.414" font-family="Helvetica,sans-Serif" font-size="10.00">Component&lt; Camera &gt;</text>
</a>
</g>
</g>
<!-- Node1&#45;&gt;Node27 -->
<g id="edge48" class="edge"><title>Node1&#45;&gt;Node27</title>
<path fill="none" stroke="midnightblue" d="M52.3593,-641.221C53.015,-586.918 62.0493,-433.108 140,-342.914 206.232,-266.28 275.219,-245.378 363,-295.914 376.807,-303.863 368.363,-317.212 381,-326.914 389.839,-333.7 400.461,-338.57 411.23,-342.063"/>
<polygon fill="midnightblue" stroke="midnightblue" points="48.8594,-641.228 52.3248,-651.24 55.8593,-641.252 48.8594,-641.228"/>
</g>
<!-- Node29 -->
<g id="node29" class="node"><title>Node29</title>
<g id="a_node29"><a xlink:href="../../d2/d00/class_component.html" target="_top" xlink:title=" ">
<polygon fill="white" stroke="black" points="411,-473.414 411,-492.414 530,-492.414 530,-473.414 411,-473.414"/>
<text text-anchor="middle" x="470.5" y="-480.414" font-family="Helvetica,sans-Serif" font-size="10.00">Component&lt; Material &gt;</text>
</a>
</g>
</g>
<!-- Node1&#45;&gt;Node29 -->
<g id="edge56" class="edge"><title>Node1&#45;&gt;Node29</title>
<path fill="none" stroke="midnightblue" d="M61.8774,-642.207C75.947,-615.57 104.675,-566.352 140,-533.914 180.32,-496.889 194.086,-486.937 247,-472.914 307.551,-456.866 380.568,-465.134 426.025,-473.368"/>
<polygon fill="midnightblue" stroke="midnightblue" points="58.6975,-640.737 57.2197,-651.229 64.9174,-643.949 58.6975,-640.737"/>
</g>
<!-- Node31 -->
<g id="node31" class="node"><title>Node31</title>
<g id="a_node31"><a xlink:href="../../d2/d00/class_component.html" target="_top" xlink:title=" ">
<polygon fill="white" stroke="black" points="415.5,-161.414 415.5,-180.414 525.5,-180.414 525.5,-161.414 415.5,-161.414"/>
<text text-anchor="middle" x="470.5" y="-168.414" font-family="Helvetica,sans-Serif" font-size="10.00">Component&lt; Model &gt;</text>
</a>
</g>
</g>
<!-- Node1&#45;&gt;Node31 -->
<g id="edge57" class="edge"><title>Node1&#45;&gt;Node31</title>
<path fill="none" stroke="midnightblue" d="M53.4727,-641C57.9034,-557.877 78.6767,-239.423 140,-163.914 203.741,-85.4279 265.124,-93.5516 363,-118.914 371.859,-121.21 372.862,-124.728 381,-128.914 403.685,-140.583 430.17,-152.997 448.214,-161.277"/>
<polygon fill="midnightblue" stroke="midnightblue" points="49.9707,-640.951 52.9535,-651.117 56.9615,-641.31 49.9707,-640.951"/>
</g>
<!-- Node33 -->
<g id="node33" class="node"><title>Node33</title>
<g id="a_node33"><a xlink:href="../../d2/d00/class_component.html" target="_top" xlink:title=" ">
<polygon fill="white" stroke="black" points="391.5,-34.4139 391.5,-53.4139 549.5,-53.4139 549.5,-34.4139 391.5,-34.4139"/>
<text text-anchor="middle" x="470.5" y="-41.4139" font-family="Helvetica,sans-Serif" font-size="10.00">Component&lt; DisplayStatistics &gt;</text>
</a>
</g>
</g>
<!-- Node1&#45;&gt;Node33 -->
<g id="edge52" class="edge"><title>Node1&#45;&gt;Node33</title>
<path fill="none" stroke="midnightblue" d="M53.7175,-641.332C60.2043,-540.2 92.2077,-80.2319 140,-40.9139 229.903,33.0477 385.086,-12.4738 444.954,-34.2553"/>
<polygon fill="midnightblue" stroke="midnightblue" points="50.2202,-641.18 53.0818,-651.381 57.2062,-641.622 50.2202,-641.18"/>
</g>
<!-- Node35 -->
<g id="node35" class="node"><title>Node35</title>
<g id="a_node35"><a xlink:href="../../d2/d00/class_component.html" target="_top" xlink:title=" ">
<polygon fill="white" stroke="black" points="394,-516.414 394,-535.414 547,-535.414 547,-516.414 394,-516.414"/>
<text text-anchor="middle" x="470.5" y="-523.414" font-family="Helvetica,sans-Serif" font-size="10.00">Component&lt; PlayerController &gt;</text>
</a>
</g>
</g>
<!-- Node1&#45;&gt;Node35 -->
<g id="edge61" class="edge"><title>Node1&#45;&gt;Node35</title>
<path fill="none" stroke="midnightblue" d="M69.337,-644.085C100.853,-613.992 172.343,-552.21 247,-531.914 294.637,-518.964 350.138,-517.444 393.791,-519.172"/>
<polygon fill="midnightblue" stroke="midnightblue" points="66.6031,-641.861 61.8719,-651.341 71.4821,-646.881 66.6031,-641.861"/>
</g>
<!-- Node37 -->
<g id="node37" class="node"><title>Node37</title>
<g id="a_node37"><a xlink:href="../../d2/d00/class_component.html" target="_top" xlink:title=" ">
<polygon fill="white" stroke="black" points="400.5,-1055.41 400.5,-1074.41 540.5,-1074.41 540.5,-1055.41 400.5,-1055.41"/>
<text text-anchor="middle" x="470.5" y="-1062.41" font-family="Helvetica,sans-Serif" font-size="10.00">Component&lt; UserControls &gt;</text>
</a>
</g>
</g>
<!-- Node1&#45;&gt;Node37 -->
<g id="edge67" class="edge"><title>Node1&#45;&gt;Node37</title>
<path fill="none" stroke="midnightblue" d="M53.7897,-680.602C58.0748,-733.817 75.4739,-883.407 140,-985.914 173.411,-1038.99 188.195,-1056.11 247,-1077.91 311.579,-1101.86 393.923,-1086.22 438.106,-1074.47"/>
<polygon fill="midnightblue" stroke="midnightblue" points="57.2709,-680.216 53.0448,-670.501 50.2899,-680.731 57.2709,-680.216"/>
</g>
<!-- Node39 -->
<g id="node39" class="node"><title>Node39</title>
<g id="a_node39"><a xlink:href="../../d2/d00/class_component.html" target="_top" xlink:title=" ">
<polygon fill="white" stroke="black" points="394.5,-298.414 394.5,-317.414 546.5,-317.414 546.5,-298.414 394.5,-298.414"/>
<text text-anchor="middle" x="470.5" y="-305.414" font-family="Helvetica,sans-Serif" font-size="10.00">Component&lt; EntityTransform &gt;</text>
</a>
</g>
</g>
<!-- Node1&#45;&gt;Node39 -->
<g id="edge54" class="edge"><title>Node1&#45;&gt;Node39</title>
<path fill="none" stroke="midnightblue" d="M54.4389,-640.909C61.7354,-569.53 89.7204,-328.644 140,-272.914 173.625,-235.643 318.323,-214.029 363,-236.914 375.186,-243.156 370.644,-252.958 381,-261.914 399.729,-278.112 425.149,-290.567 443.94,-298.406"/>
<polygon fill="midnightblue" stroke="midnightblue" points="50.923,-640.895 53.4124,-651.193 57.8884,-641.59 50.923,-640.895"/>
</g>
<!-- Node41 -->
<g id="node41" class="node"><title>Node41</title>
<g id="a_node41"><a xlink:href="../../d2/d00/class_component.html" target="_top" xlink:title=" ">
<polygon fill="white" stroke="black" points="392.5,-426.414 392.5,-445.414 548.5,-445.414 548.5,-426.414 392.5,-426.414"/>
<text text-anchor="middle" x="470.5" y="-433.414" font-family="Helvetica,sans-Serif" font-size="10.00">Component&lt; EnemyController &gt;</text>
</a>
</g>
</g>
<!-- Node1&#45;&gt;Node41 -->
<g id="edge53" class="edge"><title>Node1&#45;&gt;Node41</title>
<path fill="none" stroke="midnightblue" d="M57.4311,-641.356C67.491,-604.798 93.4569,-525.258 140,-474.914 177.16,-434.719 194.086,-427.937 247,-413.914 296.835,-400.706 311.712,-408.672 363,-413.914 386.478,-416.314 412.419,-421.615 432.822,-426.412"/>
<polygon fill="midnightblue" stroke="midnightblue" points="53.9898,-640.679 54.8145,-651.242 60.7567,-642.47 53.9898,-640.679"/>
</g>
<!-- Node43 -->
<g id="node43" class="node"><title>Node43</title>
<g id="a_node43"><a xlink:href="../../d2/d00/class_component.html" target="_top" xlink:title=" ">
<polygon fill="white" stroke="black" points="403.5,-222.914 403.5,-252.914 537.5,-252.914 537.5,-222.914 403.5,-222.914"/>
<text text-anchor="start" x="411.5" y="-240.914" font-family="Helvetica,sans-Serif" font-size="10.00">Component&lt; BoneCollision</text>
<text text-anchor="middle" x="470.5" y="-229.914" font-family="Helvetica,sans-Serif" font-size="10.00">Mesh &gt;</text>
</a>
</g>
</g>
<!-- Node1&#45;&gt;Node43 -->
<g id="edge47" class="edge"><title>Node1&#45;&gt;Node43</title>
<path fill="none" stroke="midnightblue" d="M54.1334,-640.983C60.6902,-565.368 87.3186,-297.245 140,-232.914 204.676,-153.936 265.299,-148.332 363,-177.914 372.202,-180.7 372.766,-184.95 381,-189.914 400.311,-201.555 422.632,-213.652 440.026,-222.79"/>
<polygon fill="midnightblue" stroke="midnightblue" points="50.6073,-641.146 53.2526,-651.405 57.5824,-641.735 50.6073,-641.146"/>
</g>
<!-- Node45 -->
<g id="node45" class="node"><title>Node45</title>
<g id="a_node45"><a xlink:href="../../d2/d00/class_component.html" target="_top" xlink:title=" ">
<polygon fill="white" stroke="black" points="411,-385.414 411,-404.414 530,-404.414 530,-385.414 411,-385.414"/>
<text text-anchor="middle" x="470.5" y="-392.414" font-family="Helvetica,sans-Serif" font-size="10.00">Component&lt; SkyBox &gt;</text>
</a>
</g>
</g>
<!-- Node1&#45;&gt;Node45 -->
<g id="edge66" class="edge"><title>Node1&#45;&gt;Node45</title>
<path fill="none" stroke="midnightblue" d="M54.8457,-641.174C61.0875,-596.333 81.7983,-485.317 140,-415.914 206.025,-337.182 266.385,-319.934 363,-354.914 372.792,-358.459 371.787,-365.059 381,-369.914 393.571,-376.539 408.097,-381.579 421.701,-385.336"/>
<polygon fill="midnightblue" stroke="midnightblue" points="51.3466,-640.941 53.5294,-651.309 58.2883,-641.843 51.3466,-640.941"/>
</g>
<!-- Node2&#45;&gt;Node3 -->
<g id="edge2" class="edge"><title>Node2&#45;&gt;Node3</title>
<path fill="none" stroke="orange" stroke-dasharray="5,2" d="M185.389,-680.837C186.287,-721.79 194.338,-815.856 247,-866.914 269.774,-888.995 349.864,-906.378 407.428,-916.399"/>
<polygon fill="orange" stroke="orange" points="188.888,-680.741 185.294,-670.775 181.888,-680.807 188.888,-680.741"/>
<text text-anchor="middle" x="305" y="-910.914" font-family="Helvetica,sans-Serif" font-size="10.00"> &lt; CollisionMesh &gt;</text>
</g>
<!-- Node2&#45;&gt;Node5 -->
<g id="edge4" class="edge"><title>Node2&#45;&gt;Node5</title>
<path fill="none" stroke="orange" stroke-dasharray="5,2" d="M185.985,-680.655C188.112,-751.096 198.799,-988.82 247,-1043.91 269.147,-1069.23 356.845,-1089.99 415.301,-1101.39"/>
<polygon fill="orange" stroke="orange" points="189.48,-680.406 185.705,-670.507 182.483,-680.6 189.48,-680.406"/>
<text text-anchor="middle" x="305" y="-1091.91" font-family="Helvetica,sans-Serif" font-size="10.00"> &lt; SimpleMaterial &gt;</text>
</g>
<!-- Node2&#45;&gt;Node7 -->
<g id="edge6" class="edge"><title>Node2&#45;&gt;Node7</title>
<path fill="none" stroke="orange" stroke-dasharray="5,2" d="M188.517,-680.627C194.294,-711.661 209.817,-771.873 247,-805.914 273.428,-830.108 369.178,-855.166 426.1,-868.396"/>
<polygon fill="orange" stroke="orange" points="191.941,-679.885 186.808,-670.616 185.041,-681.063 191.941,-679.885"/>
<text text-anchor="middle" x="305" y="-854.914" font-family="Helvetica,sans-Serif" font-size="10.00"> &lt; Shader &gt;</text>
</g>
<!-- Node2&#45;&gt;Node9 -->
<g id="edge8" class="edge"><title>Node2&#45;&gt;Node9</title>
<path fill="none" stroke="orange" stroke-dasharray="5,2" d="M239.404,-665.702C274.627,-668.997 321.603,-673.708 363,-678.914 378.119,-680.815 394.406,-683.127 409.584,-685.396"/>
<polygon fill="orange" stroke="orange" points="239.614,-662.206 229.333,-664.768 238.967,-669.176 239.614,-662.206"/>
<text text-anchor="middle" x="305" y="-681.914" font-family="Helvetica,sans-Serif" font-size="10.00"> &lt; PlayerCameraHandler &gt;</text>
</g>
<!-- Node2&#45;&gt;Node11 -->
<g id="edge10" class="edge"><title>Node2&#45;&gt;Node11</title>
<path fill="none" stroke="orange" stroke-dasharray="5,2" d="M185.058,-680.557C183.599,-763.928 182.248,-1087.53 247,-1159.91 267.485,-1182.81 344.508,-1197.39 402.23,-1205.35"/>
<polygon fill="orange" stroke="orange" points="188.56,-680.506 185.258,-670.438 181.561,-680.367 188.56,-680.506"/>
<text text-anchor="middle" x="305" y="-1200.91" font-family="Helvetica,sans-Serif" font-size="10.00"> &lt; PauseMenu &gt;</text>
</g>
<!-- Node2&#45;&gt;Node13 -->
<g id="edge12" class="edge"><title>Node2&#45;&gt;Node13</title>
<path fill="none" stroke="orange" stroke-dasharray="5,2" d="M213.124,-674.948C223.594,-679.999 235.712,-685.527 247,-689.914 311.273,-714.892 388.628,-737.205 433.13,-749.324"/>
<polygon fill="orange" stroke="orange" points="214.563,-671.756 204.044,-670.491 211.479,-678.039 214.563,-671.756"/>
<text text-anchor="middle" x="305" y="-731.914" font-family="Helvetica,sans-Serif" font-size="10.00"> &lt; RayCaster &gt;</text>
</g>
<!-- Node2&#45;&gt;Node15 -->
<g id="edge14" class="edge"><title>Node2&#45;&gt;Node15</title>
<path fill="none" stroke="orange" stroke-dasharray="5,2" d="M186.347,-680.728C190.541,-774.715 210.373,-1172.72 247,-1212.91 283.596,-1253.08 345.23,-1263.34 394.361,-1264.25"/>
<polygon fill="orange" stroke="orange" points="189.838,-680.44 185.903,-670.603 182.844,-680.746 189.838,-680.44"/>
<text text-anchor="middle" x="305" y="-1264.91" font-family="Helvetica,sans-Serif" font-size="10.00"> &lt; AnimatedModel &gt;</text>
</g>
<!-- Node2&#45;&gt;Node17 -->
<g id="edge16" class="edge"><title>Node2&#45;&gt;Node17</title>
<path fill="none" stroke="orange" stroke-dasharray="5,2" d="M185.477,-680.665C185.791,-757.944 190.842,-1038.71 247,-1102.91 268.285,-1127.25 351.034,-1145.53 409.371,-1155.72"/>
<polygon fill="orange" stroke="orange" points="188.977,-680.423 185.46,-670.429 181.977,-680.435 188.977,-680.423"/>
<text text-anchor="middle" x="305" y="-1147.91" font-family="Helvetica,sans-Serif" font-size="10.00"> &lt; Particles &gt;</text>
</g>
<!-- Node2&#45;&gt;Node19 -->
<g id="edge18" class="edge"><title>Node2&#45;&gt;Node19</title>
<path fill="none" stroke="orange" stroke-dasharray="5,2" d="M194.608,-679.663C204.789,-698.658 223.041,-727.511 247,-743.914 294.592,-776.497 359.044,-791.725 406.329,-798.813"/>
<polygon fill="orange" stroke="orange" points="197.591,-677.809 189.914,-670.507 191.361,-681.002 197.591,-677.809"/>
<text text-anchor="middle" x="305" y="-793.914" font-family="Helvetica,sans-Serif" font-size="10.00"> &lt; PointLight &gt;</text>
</g>
<!-- Node2&#45;&gt;Node21 -->
<g id="edge20" class="edge"><title>Node2&#45;&gt;Node21</title>
<path fill="none" stroke="orange" stroke-dasharray="5,2" d="M187.689,-680.76C194.092,-735.447 214.418,-886.658 247,-922.914 260.099,-937.49 378.106,-973.906 436.739,-991.33"/>
<polygon fill="orange" stroke="orange" points="191.145,-680.171 186.534,-670.632 184.19,-680.964 191.145,-680.171"/>
<text text-anchor="middle" x="305" y="-970.914" font-family="Helvetica,sans-Serif" font-size="10.00"> &lt; GlobalInformation &gt;</text>
</g>
<!-- Node2&#45;&gt;Node23 -->
<g id="edge22" class="edge"><title>Node2&#45;&gt;Node23</title>
<path fill="none" stroke="orange" stroke-dasharray="5,2" d="M186.548,-641.043C191.436,-551.744 213.196,-190.336 247,-153.914 281.488,-116.755 337.565,-105.843 384.792,-104.177"/>
<polygon fill="orange" stroke="orange" points="183.046,-640.993 186.003,-651.167 190.035,-641.37 183.046,-640.993"/>
<text text-anchor="middle" x="305" y="-156.914" font-family="Helvetica,sans-Serif" font-size="10.00"> &lt; DebuggingController &gt;</text>
</g>
<!-- Node2&#45;&gt;Node25 -->
<g id="edge24" class="edge"><title>Node2&#45;&gt;Node25</title>
<path fill="none" stroke="orange" stroke-dasharray="5,2" d="M239.278,-652.952C241.888,-652.594 244.472,-652.246 247,-651.914 296.163,-645.446 351.546,-638.971 394.759,-634.101"/>
<polygon fill="orange" stroke="orange" points="238.574,-649.516 229.154,-654.366 239.542,-656.449 238.574,-649.516"/>
<text text-anchor="middle" x="305" y="-654.914" font-family="Helvetica,sans-Serif" font-size="10.00"> &lt; DirectionalLight &gt;</text>
</g>
<!-- Node2&#45;&gt;Node27 -->
<g id="edge26" class="edge"><title>Node2&#45;&gt;Node27</title>
<path fill="none" stroke="orange" stroke-dasharray="5,2" d="M186.957,-641.246C191.653,-583.535 208.389,-416.475 247,-380.914 290.723,-340.645 361.311,-337.707 411.241,-341.913"/>
<polygon fill="orange" stroke="orange" points="183.464,-641.017 186.175,-651.259 190.443,-641.562 183.464,-641.017"/>
<text text-anchor="middle" x="305" y="-383.914" font-family="Helvetica,sans-Serif" font-size="10.00"> &lt; Camera &gt;</text>
</g>
<!-- Node2&#45;&gt;Node29 -->
<g id="edge28" class="edge"><title>Node2&#45;&gt;Node29</title>
<path fill="none" stroke="orange" stroke-dasharray="5,2" d="M191.983,-641.608C200.848,-617.997 218.931,-578.295 247,-554.914 274.764,-531.787 371.489,-506.012 427.853,-492.452"/>
<polygon fill="orange" stroke="orange" points="188.622,-640.613 188.556,-651.208 195.214,-642.967 188.622,-640.613"/>
<text text-anchor="middle" x="305" y="-557.914" font-family="Helvetica,sans-Serif" font-size="10.00"> &lt; Material &gt;</text>
</g>
<!-- Node2&#45;&gt;Node31 -->
<g id="edge30" class="edge"><title>Node2&#45;&gt;Node31</title>
<path fill="none" stroke="orange" stroke-dasharray="5,2" d="M185.337,-640.96C185.124,-562.903 188.456,-279.47 247,-216.914 289.586,-171.409 364.36,-164.552 415.368,-165.971"/>
<polygon fill="orange" stroke="orange" points="181.839,-641.318 185.391,-651.3 188.839,-641.281 181.839,-641.318"/>
<text text-anchor="middle" x="305" y="-219.914" font-family="Helvetica,sans-Serif" font-size="10.00"> &lt; Model &gt;</text>
</g>
<!-- Node2&#45;&gt;Node33 -->
<g id="edge32" class="edge"><title>Node2&#45;&gt;Node33</title>
<path fill="none" stroke="orange" stroke-dasharray="5,2" d="M186.266,-641.366C190.18,-546.023 209.237,-132.685 247,-90.9139 282.744,-51.3767 342.664,-40.4686 391.323,-38.9898"/>
<polygon fill="orange" stroke="orange" points="182.769,-641.238 185.864,-651.37 189.763,-641.519 182.769,-641.238"/>
<text text-anchor="middle" x="305" y="-93.9139" font-family="Helvetica,sans-Serif" font-size="10.00"> &lt; DisplayStatistics &gt;</text>
</g>
<!-- Node2&#45;&gt;Node35 -->
<g id="edge34" class="edge"><title>Node2&#45;&gt;Node35</title>
<path fill="none" stroke="orange" stroke-dasharray="5,2" d="M208.304,-645.747C219.702,-638.446 233.839,-629.804 247,-622.914 316.626,-586.463 402.893,-551.641 444.602,-535.42"/>
<polygon fill="orange" stroke="orange" points="206.302,-642.873 199.822,-651.255 210.115,-648.744 206.302,-642.873"/>
<text text-anchor="middle" x="305" y="-625.914" font-family="Helvetica,sans-Serif" font-size="10.00"> &lt; PlayerController &gt;</text>
</g>
<!-- Node2&#45;&gt;Node37 -->
<g id="edge36" class="edge"><title>Node2&#45;&gt;Node37</title>
<path fill="none" stroke="orange" stroke-dasharray="5,2" d="M186.761,-680.584C191.149,-743.206 207.675,-936.529 247,-982.914 259.879,-998.105 380.408,-1037.18 438.492,-1055.35"/>
<polygon fill="orange" stroke="orange" points="190.245,-680.219 186.081,-670.477 183.261,-680.69 190.245,-680.219"/>
<text text-anchor="middle" x="305" y="-1031.91" font-family="Helvetica,sans-Serif" font-size="10.00"> &lt; UserControls &gt;</text>
</g>
<!-- Node2&#45;&gt;Node39 -->
<g id="edge38" class="edge"><title>Node2&#45;&gt;Node39</title>
<path fill="none" stroke="orange" stroke-dasharray="5,2" d="M186.096,-641.246C188.508,-576.021 199.825,-368.557 247,-325.914 297.025,-280.695 381.837,-288.63 431.037,-298.353"/>
<polygon fill="orange" stroke="orange" points="182.593,-641.277 185.752,-651.39 189.589,-641.515 182.593,-641.277"/>
<text text-anchor="middle" x="305" y="-328.914" font-family="Helvetica,sans-Serif" font-size="10.00"> &lt; EntityTransform &gt;</text>
</g>
<!-- Node2&#45;&gt;Node41 -->
<g id="edge40" class="edge"><title>Node2&#45;&gt;Node41</title>
<path fill="none" stroke="orange" stroke-dasharray="5,2" d="M187.064,-641.097C190.898,-606.275 203.881,-534.096 247,-494.914 270.735,-473.346 352.167,-455.631 409.619,-445.416"/>
<polygon fill="orange" stroke="orange" points="183.549,-641.085 186.084,-651.372 190.518,-641.75 183.549,-641.085"/>
<text text-anchor="middle" x="305" y="-497.914" font-family="Helvetica,sans-Serif" font-size="10.00"> &lt; EnemyController &gt;</text>
</g>
<!-- Node2&#45;&gt;Node43 -->
<g id="edge42" class="edge"><title>Node2&#45;&gt;Node43</title>
<path fill="none" stroke="orange" stroke-dasharray="5,2" d="M185.744,-640.86C187.043,-569.333 195.255,-328.219 247,-275.914 287.101,-235.38 353.493,-228.646 403.337,-230.386"/>
<polygon fill="orange" stroke="orange" points="182.239,-641.114 185.585,-651.167 189.239,-641.222 182.239,-641.114"/>
<text text-anchor="middle" x="305" y="-278.914" font-family="Helvetica,sans-Serif" font-size="10.00"> &lt; BoneCollisionMesh &gt;</text>
</g>
<!-- Node2&#45;&gt;Node45 -->
<g id="edge44" class="edge"><title>Node2&#45;&gt;Node45</title>
<path fill="none" stroke="orange" stroke-dasharray="5,2" d="M184.711,-641.19C184.138,-598.041 189.253,-494.823 247,-440.914 290.827,-399.999 361.05,-391.454 410.872,-391.263"/>
<polygon fill="orange" stroke="orange" points="181.213,-641.333 184.967,-651.241 188.211,-641.155 181.213,-641.333"/>
<text text-anchor="middle" x="305" y="-443.914" font-family="Helvetica,sans-Serif" font-size="10.00"> &lt; SkyBox &gt;</text>
</g>
<!-- Node4 -->
<g id="node4" class="node"><title>Node4</title>
<g id="a_node4"><a xlink:href="../../d4/daa/class_collision_mesh.html" target="_top" xlink:title=" ">
<polygon fill="white" stroke="black" points="616.5,-916.414 616.5,-935.414 693.5,-935.414 693.5,-916.414 616.5,-916.414"/>
<text text-anchor="middle" x="655" y="-923.414" font-family="Helvetica,sans-Serif" font-size="10.00">CollisionMesh</text>
</a>
</g>
</g>
<!-- Node3&#45;&gt;Node4 -->
<g id="edge3" class="edge"><title>Node3&#45;&gt;Node4</title>
<path fill="none" stroke="midnightblue" d="M553.183,-925.914C575.274,-925.914 598.121,-925.914 616.468,-925.914"/>
<polygon fill="midnightblue" stroke="midnightblue" points="553.105,-922.414 543.105,-925.914 553.105,-929.414 553.105,-922.414"/>
</g>
<!-- Node6 -->
<g id="node6" class="node"><title>Node6</title>
<g id="a_node6"><a xlink:href="../../d7/d84/struct_simple_material.html" target="_top" xlink:title=" ">
<polygon fill="white" stroke="black" points="614.5,-1101.41 614.5,-1120.41 695.5,-1120.41 695.5,-1101.41 614.5,-1101.41"/>
<text text-anchor="middle" x="655" y="-1108.41" font-family="Helvetica,sans-Serif" font-size="10.00">SimpleMaterial</text>
</a>
</g>
</g>
<!-- Node5&#45;&gt;Node6 -->
<g id="edge5" class="edge"><title>Node5&#45;&gt;Node6</title>
<path fill="none" stroke="midnightblue" d="M555.257,-1110.91C575.857,-1110.91 596.969,-1110.91 614.357,-1110.91"/>
<polygon fill="midnightblue" stroke="midnightblue" points="555.204,-1107.41 545.204,-1110.91 555.204,-1114.41 555.204,-1107.41"/>
</g>
<!-- Node8 -->
<g id="node8" class="node"><title>Node8</title>
<g id="a_node8"><a xlink:href="../../d1/d51/class_shader.html" target="_top" xlink:title=" ">
<polygon fill="white" stroke="black" points="631.5,-868.414 631.5,-887.414 678.5,-887.414 678.5,-868.414 631.5,-868.414"/>
<text text-anchor="middle" x="655" y="-875.414" font-family="Helvetica,sans-Serif" font-size="10.00">Shader</text>
</a>
</g>
</g>
<!-- Node7&#45;&gt;Node8 -->
<g id="edge7" class="edge"><title>Node7&#45;&gt;Node8</title>
<path fill="none" stroke="midnightblue" d="M538.622,-877.914C571.134,-877.914 608.05,-877.914 631.18,-877.914"/>
<polygon fill="midnightblue" stroke="midnightblue" points="538.244,-874.414 528.244,-877.914 538.244,-881.414 538.244,-874.414"/>
</g>
<!-- Node10 -->
<g id="node10" class="node"><title>Node10</title>
<g id="a_node10"><a xlink:href="../../d4/df7/class_player_camera_handler.html" target="_top" xlink:title=" ">
<polygon fill="white" stroke="black" points="599.5,-685.414 599.5,-704.414 710.5,-704.414 710.5,-685.414 599.5,-685.414"/>
<text text-anchor="middle" x="655" y="-692.414" font-family="Helvetica,sans-Serif" font-size="10.00">PlayerCameraHandler</text>
</a>
</g>
</g>
<!-- Node9&#45;&gt;Node10 -->
<g id="edge9" class="edge"><title>Node9&#45;&gt;Node10</title>
<path fill="none" stroke="midnightblue" d="M570.154,-694.914C580.209,-694.914 590.143,-694.914 599.464,-694.914"/>
<polygon fill="midnightblue" stroke="midnightblue" points="570.077,-691.414 560.077,-694.914 570.077,-698.414 570.077,-691.414"/>
</g>
<!-- Node12 -->
<g id="node12" class="node"><title>Node12</title>
<g id="a_node12"><a xlink:href="../../d4/de5/class_pause_menu.html" target="_top" xlink:title=" ">
<polygon fill="white" stroke="black" points="621,-1203.41 621,-1222.41 689,-1222.41 689,-1203.41 621,-1203.41"/>
<text text-anchor="middle" x="655" y="-1210.41" font-family="Helvetica,sans-Serif" font-size="10.00">PauseMenu</text>
</a>
</g>
</g>
<!-- Node11&#45;&gt;Node12 -->
<g id="edge11" class="edge"><title>Node11&#45;&gt;Node12</title>
<path fill="none" stroke="midnightblue" d="M548.992,-1212.91C574.192,-1212.91 600.824,-1212.91 620.962,-1212.91"/>
<polygon fill="midnightblue" stroke="midnightblue" points="548.679,-1209.41 538.679,-1212.91 548.679,-1216.41 548.679,-1209.41"/>
</g>
<!-- Node14 -->
<g id="node14" class="node"><title>Node14</title>
<g id="a_node14"><a xlink:href="../../d3/dbc/class_ray_caster.html" target="_top" xlink:title=" ">
<polygon fill="white" stroke="black" points="624,-749.414 624,-768.414 686,-768.414 686,-749.414 624,-749.414"/>
<text text-anchor="middle" x="655" y="-756.414" font-family="Helvetica,sans-Serif" font-size="10.00">RayCaster</text>
</a>
</g>
</g>
<!-- Node13&#45;&gt;Node14 -->
<g id="edge13" class="edge"><title>Node13&#45;&gt;Node14</title>
<path fill="none" stroke="midnightblue" d="M545.923,-758.914C573.214,-758.914 602.585,-758.914 623.811,-758.914"/>
<polygon fill="midnightblue" stroke="midnightblue" points="545.586,-755.414 535.586,-758.914 545.586,-762.414 545.586,-755.414"/>
</g>
<!-- Node16 -->
<g id="node16" class="node"><title>Node16</title>
<g id="a_node16"><a xlink:href="../../de/d92/class__3_d_m_1_1_animated_model.html" target="_top" xlink:title=" ">
<polygon fill="white" stroke="black" points="597,-1249.41 597,-1268.41 713,-1268.41 713,-1249.41 597,-1249.41"/>
<text text-anchor="middle" x="655" y="-1256.41" font-family="Helvetica,sans-Serif" font-size="10.00">_3DM::AnimatedModel</text>
</a>
</g>
</g>
<!-- Node15&#45;&gt;Node16 -->
<g id="edge15" class="edge"><title>Node15&#45;&gt;Node16</title>
<path fill="none" stroke="midnightblue" d="M556.838,-1258.91C570.402,-1258.91 584.141,-1258.91 596.85,-1258.91"/>
<polygon fill="midnightblue" stroke="midnightblue" points="556.52,-1255.41 546.52,-1258.91 556.52,-1262.41 556.52,-1255.41"/>
</g>
<!-- Node18 -->
<g id="node18" class="node"><title>Node18</title>
<g id="a_node18"><a xlink:href="../../d0/d67/class_particles.html" target="_top" xlink:title=" ">
<polygon fill="white" stroke="black" points="627.5,-1155.41 627.5,-1174.41 682.5,-1174.41 682.5,-1155.41 627.5,-1155.41"/>
<text text-anchor="middle" x="655" y="-1162.41" font-family="Helvetica,sans-Serif" font-size="10.00">Particles</text>
</a>
</g>
</g>
<!-- Node17&#45;&gt;Node18 -->
<g id="edge17" class="edge"><title>Node17&#45;&gt;Node18</title>
<path fill="none" stroke="midnightblue" d="M541.551,-1164.91C571.585,-1164.91 604.863,-1164.91 627.368,-1164.91"/>
<polygon fill="midnightblue" stroke="midnightblue" points="541.51,-1161.41 531.51,-1164.91 541.51,-1168.41 541.51,-1161.41"/>
</g>
<!-- Node20 -->
<g id="node20" class="node"><title>Node20</title>
<g id="a_node20"><a xlink:href="../../dc/d1f/struct_point_light.html" target="_top" xlink:title=" ">
<polygon fill="white" stroke="black" points="625,-795.414 625,-814.414 685,-814.414 685,-795.414 625,-795.414"/>
<text text-anchor="middle" x="655" y="-802.414" font-family="Helvetica,sans-Serif" font-size="10.00">PointLight</text>
</a>
</g>
</g>
<!-- Node19&#45;&gt;Node20 -->
<g id="edge19" class="edge"><title>Node19&#45;&gt;Node20</title>
<path fill="none" stroke="midnightblue" d="M544.785,-804.914C572.88,-804.914 603.34,-804.914 624.937,-804.914"/>
<polygon fill="midnightblue" stroke="midnightblue" points="544.562,-801.414 534.562,-804.914 544.562,-808.414 544.562,-801.414"/>
</g>
<!-- Node22 -->
<g id="node22" class="node"><title>Node22</title>
<g id="a_node22"><a xlink:href="../../df/de8/class_global_information.html" target="_top" xlink:title=" ">
<polygon fill="white" stroke="black" points="609,-991.414 609,-1010.41 701,-1010.41 701,-991.414 609,-991.414"/>
<text text-anchor="middle" x="655" y="-998.414" font-family="Helvetica,sans-Serif" font-size="10.00">GlobalInformation</text>
</a>
</g>
</g>
<!-- Node21&#45;&gt;Node22 -->
<g id="edge21" class="edge"><title>Node21&#45;&gt;Node22</title>
<path fill="none" stroke="midnightblue" d="M560.62,-1000.91C577.374,-1000.91 594.225,-1000.91 608.91,-1000.91"/>
<polygon fill="midnightblue" stroke="midnightblue" points="560.221,-997.414 550.221,-1000.91 560.221,-1004.41 560.221,-997.414"/>
</g>
<!-- Node24 -->
<g id="node24" class="node"><title>Node24</title>
<g id="a_node24"><a xlink:href="../../d1/dee/class_debugging_controller.html" target="_top" xlink:title=" ">
<polygon fill="white" stroke="black" points="603,-100.414 603,-119.414 707,-119.414 707,-100.414 603,-100.414"/>
<text text-anchor="middle" x="655" y="-107.414" font-family="Helvetica,sans-Serif" font-size="10.00">DebuggingController</text>
</a>
</g>
</g>
<!-- Node23&#45;&gt;Node24 -->
<g id="edge23" class="edge"><title>Node23&#45;&gt;Node24</title>
<path fill="none" stroke="midnightblue" d="M566.18,-109.914C578.783,-109.914 591.298,-109.914 602.763,-109.914"/>
<polygon fill="midnightblue" stroke="midnightblue" points="566.072,-106.414 556.072,-109.914 566.072,-113.414 566.072,-106.414"/>
</g>
<!-- Node26 -->
<g id="node26" class="node"><title>Node26</title>
<g id="a_node26"><a xlink:href="../../de/db5/struct_directional_light.html" target="_top" xlink:title=" ">
<polygon fill="white" stroke="black" points="613.5,-616.414 613.5,-635.414 696.5,-635.414 696.5,-616.414 613.5,-616.414"/>
<text text-anchor="middle" x="655" y="-623.414" font-family="Helvetica,sans-Serif" font-size="10.00">DirectionalLight</text>
</a>
</g>
</g>
<!-- Node25&#45;&gt;Node26 -->
<g id="edge25" class="edge"><title>Node25&#45;&gt;Node26</title>
<path fill="none" stroke="midnightblue" d="M556.273,-625.914C576.141,-625.914 596.421,-625.914 613.319,-625.914"/>
<polygon fill="midnightblue" stroke="midnightblue" points="556.256,-622.414 546.256,-625.914 556.256,-629.414 556.256,-622.414"/>
</g>
<!-- Node28 -->
<g id="node28" class="node"><title>Node28</title>
<g id="a_node28"><a xlink:href="../../da/dbb/class_camera.html" target="_top" xlink:title=" ">
<polygon fill="white" stroke="black" points="630,-341.414 630,-360.414 680,-360.414 680,-341.414 630,-341.414"/>
<text text-anchor="middle" x="655" y="-348.414" font-family="Helvetica,sans-Serif" font-size="10.00">Camera</text>
</a>
</g>
</g>
<!-- Node27&#45;&gt;Node28 -->
<g id="edge27" class="edge"><title>Node27&#45;&gt;Node28</title>
<path fill="none" stroke="midnightblue" d="M539.827,-350.914C571.362,-350.914 606.804,-350.914 629.715,-350.914"/>
<polygon fill="midnightblue" stroke="midnightblue" points="539.746,-347.414 529.746,-350.914 539.746,-354.414 539.746,-347.414"/>
</g>
<!-- Node30 -->
<g id="node30" class="node"><title>Node30</title>
<g id="a_node30"><a xlink:href="../../d3/d0a/struct_material.html" target="_top" xlink:title=" ">
<polygon fill="white" stroke="black" points="629.5,-473.414 629.5,-492.414 680.5,-492.414 680.5,-473.414 629.5,-473.414"/>
<text text-anchor="middle" x="655" y="-480.414" font-family="Helvetica,sans-Serif" font-size="10.00">Material</text>
</a>
</g>
</g>
<!-- Node29&#45;&gt;Node30 -->
<g id="edge29" class="edge"><title>Node29&#45;&gt;Node30</title>
<path fill="none" stroke="midnightblue" d="M540.251,-482.914C571.528,-482.914 606.567,-482.914 629.384,-482.914"/>
<polygon fill="midnightblue" stroke="midnightblue" points="540.249,-479.414 530.249,-482.914 540.249,-486.414 540.249,-479.414"/>
</g>
<!-- Node32 -->
<g id="node32" class="node"><title>Node32</title>
<g id="a_node32"><a xlink:href="../../d3/d96/class__3_d_m_1_1_model.html" target="_top" xlink:title=" ">
<polygon fill="white" stroke="black" points="618,-161.414 618,-180.414 692,-180.414 692,-161.414 618,-161.414"/>
<text text-anchor="middle" x="655" y="-168.414" font-family="Helvetica,sans-Serif" font-size="10.00">_3DM::Model</text>
</a>
</g>
</g>
<!-- Node31&#45;&gt;Node32 -->
<g id="edge31" class="edge"><title>Node31&#45;&gt;Node32</title>
<path fill="none" stroke="midnightblue" d="M536.087,-170.914C563.538,-170.914 594.518,-170.914 617.832,-170.914"/>
<polygon fill="midnightblue" stroke="midnightblue" points="535.762,-167.414 525.762,-170.914 535.762,-174.414 535.762,-167.414"/>
</g>
<!-- Node34 -->
<g id="node34" class="node"><title>Node34</title>
<g id="a_node34"><a xlink:href="../../dc/d84/class_display_statistics.html" target="_top" xlink:title=" ">
<polygon fill="white" stroke="black" points="610,-34.4139 610,-53.4139 700,-53.4139 700,-34.4139 610,-34.4139"/>
<text text-anchor="middle" x="655" y="-41.4139" font-family="Helvetica,sans-Serif" font-size="10.00">DisplayStatistics</text>
</a>
</g>
</g>
<!-- Node33&#45;&gt;Node34 -->
<g id="edge33" class="edge"><title>Node33&#45;&gt;Node34</title>
<path fill="none" stroke="midnightblue" d="M559.887,-43.9139C577.265,-43.9139 594.781,-43.9139 609.911,-43.9139"/>
<polygon fill="midnightblue" stroke="midnightblue" points="559.691,-40.414 549.691,-43.9139 559.691,-47.414 559.691,-40.414"/>
</g>
<!-- Node36 -->
<g id="node36" class="node"><title>Node36</title>
<g id="a_node36"><a xlink:href="../../dc/dde/class_player_controller.html" target="_top" xlink:title=" ">
<polygon fill="white" stroke="black" points="612,-516.414 612,-535.414 698,-535.414 698,-516.414 612,-516.414"/>
<text text-anchor="middle" x="655" y="-523.414" font-family="Helvetica,sans-Serif" font-size="10.00">PlayerController</text>
</a>
</g>
</g>
<!-- Node35&#45;&gt;Node36 -->
<g id="edge35" class="edge"><title>Node35&#45;&gt;Node36</title>
<path fill="none" stroke="midnightblue" d="M557.245,-525.914C576.253,-525.914 595.58,-525.914 611.912,-525.914"/>
<polygon fill="midnightblue" stroke="midnightblue" points="557.047,-522.414 547.047,-525.914 557.047,-529.414 557.047,-522.414"/>
</g>
<!-- Node38 -->
<g id="node38" class="node"><title>Node38</title>
<g id="a_node38"><a xlink:href="../../d9/dd8/class_user_controls.html" target="_top" xlink:title=" ">
<polygon fill="white" stroke="black" points="618.5,-1055.41 618.5,-1074.41 691.5,-1074.41 691.5,-1055.41 618.5,-1055.41"/>
<text text-anchor="middle" x="655" y="-1062.41" font-family="Helvetica,sans-Serif" font-size="10.00">UserControls</text>
</a>
</g>
</g>
<!-- Node37&#45;&gt;Node38 -->
<g id="edge37" class="edge"><title>Node37&#45;&gt;Node38</title>
<path fill="none" stroke="midnightblue" d="M550.767,-1064.91C574.324,-1064.91 598.966,-1064.91 618.264,-1064.91"/>
<polygon fill="midnightblue" stroke="midnightblue" points="550.756,-1061.41 540.756,-1064.91 550.756,-1068.41 550.756,-1061.41"/>
</g>
<!-- Node40 -->
<g id="node40" class="node"><title>Node40</title>
<g id="a_node40"><a xlink:href="../../d9/dd8/class_entity_transform.html" target="_top" xlink:title=" ">
<polygon fill="white" stroke="black" points="612.5,-298.414 612.5,-317.414 697.5,-317.414 697.5,-298.414 612.5,-298.414"/>
<text text-anchor="middle" x="655" y="-305.414" font-family="Helvetica,sans-Serif" font-size="10.00">EntityTransform</text>
</a>
</g>
</g>
<!-- Node39&#45;&gt;Node40 -->
<g id="edge39" class="edge"><title>Node39&#45;&gt;Node40</title>
<path fill="none" stroke="midnightblue" d="M556.617,-307.914C576.025,-307.914 595.806,-307.914 612.424,-307.914"/>
<polygon fill="midnightblue" stroke="midnightblue" points="556.52,-304.414 546.52,-307.914 556.52,-311.414 556.52,-304.414"/>
</g>
<!-- Node42 -->
<g id="node42" class="node"><title>Node42</title>
<g id="a_node42"><a xlink:href="../../dc/d01/class_enemy_controller.html" target="_top" xlink:title=" ">
<polygon fill="white" stroke="black" points="610.5,-426.414 610.5,-445.414 699.5,-445.414 699.5,-426.414 610.5,-426.414"/>
<text text-anchor="middle" x="655" y="-433.414" font-family="Helvetica,sans-Serif" font-size="10.00">EnemyController</text>
</a>
</g>
</g>
<!-- Node41&#45;&gt;Node42 -->
<g id="edge41" class="edge"><title>Node41&#45;&gt;Node42</title>
<path fill="none" stroke="midnightblue" d="M559.085,-435.914C576.91,-435.914 594.922,-435.914 610.394,-435.914"/>
<polygon fill="midnightblue" stroke="midnightblue" points="558.632,-432.414 548.632,-435.914 558.632,-439.414 558.632,-432.414"/>
</g>
<!-- Node44 -->
<g id="node44" class="node"><title>Node44</title>
<g id="a_node44"><a xlink:href="../../d6/d9c/class_bone_collision_mesh.html" target="_top" xlink:title=" ">
<polygon fill="white" stroke="black" points="605,-228.414 605,-247.414 705,-247.414 705,-228.414 605,-228.414"/>
<text text-anchor="middle" x="655" y="-235.414" font-family="Helvetica,sans-Serif" font-size="10.00">BoneCollisionMesh</text>
</a>
</g>
</g>
<!-- Node43&#45;&gt;Node44 -->
<g id="edge43" class="edge"><title>Node43&#45;&gt;Node44</title>
<path fill="none" stroke="midnightblue" d="M547.671,-237.914C567.043,-237.914 587.348,-237.914 604.961,-237.914"/>
<polygon fill="midnightblue" stroke="midnightblue" points="547.645,-234.414 537.645,-237.914 547.645,-241.414 547.645,-234.414"/>
</g>
<!-- Node46 -->
<g id="node46" class="node"><title>Node46</title>
<g id="a_node46"><a xlink:href="../../de/dda/class_sky_box.html" target="_top" xlink:title=" ">
<polygon fill="white" stroke="black" points="629.5,-385.414 629.5,-404.414 680.5,-404.414 680.5,-385.414 629.5,-385.414"/>
<text text-anchor="middle" x="655" y="-392.414" font-family="Helvetica,sans-Serif" font-size="10.00">SkyBox</text>
</a>
</g>
</g>
<!-- Node45&#45;&gt;Node46 -->
<g id="edge45" class="edge"><title>Node45&#45;&gt;Node46</title>
<path fill="none" stroke="midnightblue" d="M540.251,-394.914C571.528,-394.914 606.567,-394.914 629.384,-394.914"/>
<polygon fill="midnightblue" stroke="midnightblue" points="540.249,-391.414 530.249,-394.914 540.249,-398.414 540.249,-391.414"/>
</g>
</g>
</svg>
