<?xml version="1.0" encoding="UTF-8" standalone="no"?>
<!DOCTYPE svg PUBLIC "-//W3C//DTD SVG 1.1//EN"
 "http://www.w3.org/Graphics/SVG/1.1/DTD/svg11.dtd">
<!-- Generated by graphviz version 2.38.0 (20140413.2041)
 -->
<!-- Title: GUIResizingInformation::updateInformation Pages: 1 -->
<svg width="483pt" height="88pt"
 viewBox="0.00 0.00 483.00 88.00" xmlns="http://www.w3.org/2000/svg" xmlns:xlink="http://www.w3.org/1999/xlink">
<g id="graph0" class="graph" transform="scale(1 1) rotate(0) translate(4 84)">
<title>GUIResizingInformation::updateInformation</title>
<polygon fill="white" stroke="none" points="-4,4 -4,-84 479,-84 479,4 -4,4"/>
<!-- Node1 -->
<g id="node1" class="node"><title>Node1</title>
<g id="a_node1"><a xlink:title=" ">
<polygon fill="#bfbfbf" stroke="black" points="0,-25.5 0,-55.5 118,-55.5 118,-25.5 0,-25.5"/>
<text text-anchor="start" x="8" y="-43.5" font-family="Helvetica,sans-Serif" font-size="10.00">GUIResizingInformation</text>
<text text-anchor="middle" x="59" y="-32.5" font-family="Helvetica,sans-Serif" font-size="10.00">::updateInformation</text>
</a>
</g>
</g>
<!-- Node2 -->
<g id="node2" class="node"><title>Node2</title>
<g id="a_node2"><a xlink:href="../../d4/d58/namespace_game_info.html#a344c7e16ac06ee1f8458a249aac36e8e" target="_top" xlink:title=" ">
<polygon fill="white" stroke="black" points="154,-52 154,-71 294,-71 294,-52 154,-52"/>
<text text-anchor="middle" x="224" y="-59" font-family="Helvetica,sans-Serif" font-size="10.00">GameInfo::getWindowHeight</text>
</a>
</g>
</g>
<!-- Node1&#45;&gt;Node2 -->
<g id="edge1" class="edge"><title>Node1&#45;&gt;Node2</title>
<path fill="none" stroke="midnightblue" d="M118.386,-48.0222C126.659,-49.088 135.278,-50.1985 143.863,-51.3044"/>
<polygon fill="midnightblue" stroke="midnightblue" points="143.536,-54.7911 153.901,-52.5977 144.43,-47.8485 143.536,-54.7911"/>
</g>
<!-- Node4 -->
<g id="node4" class="node"><title>Node4</title>
<g id="a_node4"><a xlink:href="../../d4/d58/namespace_game_info.html#a7cf2306eb3025a60a9e2da52eefba71e" target="_top" xlink:title=" ">
<polygon fill="white" stroke="black" points="155.5,-11 155.5,-30 292.5,-30 292.5,-11 155.5,-11"/>
<text text-anchor="middle" x="224" y="-18" font-family="Helvetica,sans-Serif" font-size="10.00">GameInfo::getWindowWidth</text>
</a>
</g>
</g>
<!-- Node1&#45;&gt;Node4 -->
<g id="edge3" class="edge"><title>Node1&#45;&gt;Node4</title>
<path fill="none" stroke="midnightblue" d="M118.386,-33.336C127.081,-32.2692 136.158,-31.1554 145.175,-30.049"/>
<polygon fill="midnightblue" stroke="midnightblue" points="145.808,-33.4978 155.307,-28.8059 144.955,-26.5499 145.808,-33.4978"/>
</g>
<!-- Node3 -->
<g id="node3" class="node"><title>Node3</title>
<g id="a_node3"><a xlink:href="../../de/d6b/class_application.html#a0398d40c89d52bb8d6ac6ac466c5d30c" target="_top" xlink:title=" ">
<polygon fill="white" stroke="black" points="330,-49.5 330,-79.5 475,-79.5 475,-49.5 330,-49.5"/>
<text text-anchor="start" x="338" y="-67.5" font-family="Helvetica,sans-Serif" font-size="10.00">Application::getGameWindow</text>
<text text-anchor="middle" x="402.5" y="-56.5" font-family="Helvetica,sans-Serif" font-size="10.00">Height</text>
</a>
</g>
</g>
<!-- Node2&#45;&gt;Node3 -->
<g id="edge2" class="edge"><title>Node2&#45;&gt;Node3</title>
<path fill="none" stroke="midnightblue" d="M294.251,-62.6771C302.559,-62.8183 311.103,-62.9635 319.568,-63.1074"/>
<polygon fill="midnightblue" stroke="midnightblue" points="319.777,-66.6113 329.835,-63.2819 319.896,-59.6124 319.777,-66.6113"/>
</g>
<!-- Node5 -->
<g id="node5" class="node"><title>Node5</title>
<g id="a_node5"><a xlink:href="../../de/d6b/class_application.html#aad8864ec1fa58ee23db7b111876d09a5" target="_top" xlink:title=" ">
<polygon fill="white" stroke="black" points="330,-0.5 330,-30.5 475,-30.5 475,-0.5 330,-0.5"/>
<text text-anchor="start" x="338" y="-18.5" font-family="Helvetica,sans-Serif" font-size="10.00">Application::getGameWindow</text>
<text text-anchor="middle" x="402.5" y="-7.5" font-family="Helvetica,sans-Serif" font-size="10.00">Width</text>
</a>
</g>
</g>
<!-- Node4&#45;&gt;Node5 -->
<g id="edge4" class="edge"><title>Node4&#45;&gt;Node5</title>
<path fill="none" stroke="midnightblue" d="M292.735,-18.5812C301.564,-18.3311 310.683,-18.0727 319.711,-17.817"/>
<polygon fill="midnightblue" stroke="midnightblue" points="319.949,-21.3117 329.846,-17.5299 319.751,-14.3145 319.949,-21.3117"/>
</g>
</g>
</svg>
