<?xml version="1.0" encoding="UTF-8" standalone="no"?>
<!DOCTYPE svg PUBLIC "-//W3C//DTD SVG 1.1//EN"
 "http://www.w3.org/Graphics/SVG/1.1/DTD/svg11.dtd">
<!-- Generated by graphviz version 2.38.0 (20140413.2041)
 -->
<!-- Title: GUIResizingInformation::updateInformation Pages: 1 -->
<svg width="975pt" height="83pt"
 viewBox="0.00 0.00 975.00 83.00" xmlns="http://www.w3.org/2000/svg" xmlns:xlink="http://www.w3.org/1999/xlink">
<g id="graph0" class="graph" transform="scale(1 1) rotate(0) translate(4 79)">
<title>GUIResizingInformation::updateInformation</title>
<polygon fill="white" stroke="none" points="-4,4 -4,-79 971,-79 971,4 -4,4"/>
<!-- Node1 -->
<g id="node1" class="node"><title>Node1</title>
<g id="a_node1"><a xlink:title=" ">
<polygon fill="#bfbfbf" stroke="black" points="849,-22.5 849,-52.5 967,-52.5 967,-22.5 849,-22.5"/>
<text text-anchor="start" x="857" y="-40.5" font-family="Helvetica,sans-Serif" font-size="10.00">GUIResizingInformation</text>
<text text-anchor="middle" x="908" y="-29.5" font-family="Helvetica,sans-Serif" font-size="10.00">::updateInformation</text>
</a>
</g>
</g>
<!-- Node2 -->
<g id="node2" class="node"><title>Node2</title>
<g id="a_node2"><a xlink:href="../../d3/de8/class_fixed_updating_system.html#a8f07c76b37a898f91221740f42c72598" target="_top" xlink:title=" ">
<polygon fill="white" stroke="black" points="682,-44.5 682,-74.5 813,-74.5 813,-44.5 682,-44.5"/>
<text text-anchor="start" x="690" y="-62.5" font-family="Helvetica,sans-Serif" font-size="10.00">FixedUpdatingSystem</text>
<text text-anchor="middle" x="747.5" y="-51.5" font-family="Helvetica,sans-Serif" font-size="10.00">::handleBackEndMessage</text>
</a>
</g>
</g>
<!-- Node1&#45;&gt;Node2 -->
<g id="edge1" class="edge"><title>Node1&#45;&gt;Node2</title>
<path fill="none" stroke="midnightblue" d="M838.909,-46.9511C830.324,-48.1428 821.56,-49.3592 813.032,-50.5428"/>
<polygon fill="midnightblue" stroke="midnightblue" points="839.457,-50.4087 848.88,-45.5671 838.494,-43.4752 839.457,-50.4087"/>
</g>
<!-- Node8 -->
<g id="node8" class="node"><title>Node8</title>
<g id="a_node8"><a xlink:href="../../d3/de8/class_fixed_updating_system.html#ae6dd11a60942e140a62f8358bb69d4ba" target="_top" xlink:title=" ">
<polygon fill="white" stroke="black" points="510.5,-0.5 510.5,-30.5 623.5,-30.5 623.5,-0.5 510.5,-0.5"/>
<text text-anchor="start" x="518.5" y="-18.5" font-family="Helvetica,sans-Serif" font-size="10.00">FixedUpdatingSystem</text>
<text text-anchor="middle" x="567" y="-7.5" font-family="Helvetica,sans-Serif" font-size="10.00">::initialize</text>
</a>
</g>
</g>
<!-- Node1&#45;&gt;Node8 -->
<g id="edge7" class="edge"><title>Node1&#45;&gt;Node8</title>
<path fill="none" stroke="midnightblue" d="M838.439,-33.0506C775.149,-28.9433 682.325,-22.9194 623.55,-19.105"/>
<polygon fill="midnightblue" stroke="midnightblue" points="838.518,-36.563 848.724,-33.7181 838.972,-29.5777 838.518,-36.563"/>
</g>
<!-- Node3 -->
<g id="node3" class="node"><title>Node3</title>
<g id="a_node3"><a xlink:href="../../dd/d1f/class_game.html#a5eb682ebf3aa9ac5b2d6d63ade9ddcc0" target="_top" xlink:title=" ">
<polygon fill="white" stroke="black" points="488,-50 488,-69 646,-69 646,-50 488,-50"/>
<text text-anchor="middle" x="567" y="-57" font-family="Helvetica,sans-Serif" font-size="10.00">Game::readBackendEventQueue</text>
</a>
</g>
</g>
<!-- Node2&#45;&gt;Node3 -->
<g id="edge2" class="edge"><title>Node2&#45;&gt;Node3</title>
<path fill="none" stroke="midnightblue" d="M671.64,-59.5C663.217,-59.5 654.619,-59.5 646.157,-59.5"/>
<polygon fill="midnightblue" stroke="midnightblue" points="671.805,-63.0001 681.805,-59.5 671.805,-56.0001 671.805,-63.0001"/>
</g>
<!-- Node4 -->
<g id="node4" class="node"><title>Node4</title>
<g id="a_node4"><a xlink:href="../../dd/d1f/class_game.html#a157e87f9dc147a5842ee6bdc06c95c17" target="_top" xlink:title=" ">
<polygon fill="white" stroke="black" points="352,-44 352,-63 452,-63 452,-44 352,-44"/>
<text text-anchor="middle" x="402" y="-51" font-family="Helvetica,sans-Serif" font-size="10.00">Game::fixedUpdate</text>
</a>
</g>
</g>
<!-- Node3&#45;&gt;Node4 -->
<g id="edge3" class="edge"><title>Node3&#45;&gt;Node4</title>
<path fill="none" stroke="midnightblue" d="M477.639,-56.2475C468.969,-55.9283 460.403,-55.613 452.337,-55.3161"/>
<polygon fill="midnightblue" stroke="midnightblue" points="477.72,-59.7527 487.842,-56.623 477.977,-52.7574 477.72,-59.7527"/>
</g>
<!-- Node5 -->
<g id="node5" class="node"><title>Node5</title>
<g id="a_node5"><a xlink:href="../../de/d6b/class_application.html#a95c827cb5cf08bd0c3cc7b07ed4b4249" target="_top" xlink:title=" ">
<polygon fill="white" stroke="black" points="194,-44 194,-63 316,-63 316,-44 194,-44"/>
<text text-anchor="middle" x="255" y="-51" font-family="Helvetica,sans-Serif" font-size="10.00">Application::fixedUpdate</text>
</a>
</g>
</g>
<!-- Node4&#45;&gt;Node5 -->
<g id="edge4" class="edge"><title>Node4&#45;&gt;Node5</title>
<path fill="none" stroke="midnightblue" d="M341.747,-53.5C333.287,-53.5 324.578,-53.5 316.102,-53.5"/>
<polygon fill="midnightblue" stroke="midnightblue" points="341.91,-57.0001 351.91,-53.5 341.91,-50.0001 341.91,-57.0001"/>
</g>
<!-- Node6 -->
<g id="node6" class="node"><title>Node6</title>
<g id="a_node6"><a xlink:href="../../de/d6b/class_application.html#a68965449404743bf1add056784d6cf81" target="_top" xlink:title=" ">
<polygon fill="white" stroke="black" points="74,-25 74,-44 158,-44 158,-25 74,-25"/>
<text text-anchor="middle" x="116" y="-32" font-family="Helvetica,sans-Serif" font-size="10.00">Application::run</text>
</a>
</g>
</g>
<!-- Node5&#45;&gt;Node6 -->
<g id="edge5" class="edge"><title>Node5&#45;&gt;Node6</title>
<path fill="none" stroke="midnightblue" d="M183.954,-43.7855C175.121,-42.5605 166.322,-41.3402 158.145,-40.2063"/>
<polygon fill="midnightblue" stroke="midnightblue" points="183.524,-47.2593 193.91,-45.1663 184.485,-40.3257 183.524,-47.2593"/>
</g>
<!-- Node7 -->
<g id="node7" class="node"><title>Node7</title>
<g id="a_node7"><a xlink:href="../../d5/d12/_main_8cpp.html#a0ddf1224851353fc92bfbff6f499fa97" target="_top" xlink:title=" ">
<polygon fill="white" stroke="black" points="0,-25 0,-44 38,-44 38,-25 0,-25"/>
<text text-anchor="middle" x="19" y="-32" font-family="Helvetica,sans-Serif" font-size="10.00">main</text>
</a>
</g>
</g>
<!-- Node6&#45;&gt;Node7 -->
<g id="edge6" class="edge"><title>Node6&#45;&gt;Node7</title>
<path fill="none" stroke="midnightblue" d="M63.6206,-34.5C54.5384,-34.5 45.6466,-34.5 38.2853,-34.5"/>
<polygon fill="midnightblue" stroke="midnightblue" points="63.8842,-38.0001 73.8841,-34.5 63.8841,-31.0001 63.8842,-38.0001"/>
</g>
<!-- Node8&#45;&gt;Node4 -->
<g id="edge8" class="edge"><title>Node8&#45;&gt;Node4</title>
<path fill="none" stroke="midnightblue" d="M500.51,-30.7676C481.416,-35.219 461.101,-39.955 443.984,-43.9455"/>
<polygon fill="midnightblue" stroke="midnightblue" points="501.416,-34.1502 510.361,-28.4712 499.827,-27.333 501.416,-34.1502"/>
</g>
<!-- Node9 -->
<g id="node9" class="node"><title>Node9</title>
<g id="a_node9"><a xlink:href="../../dd/d1f/class_game.html#a8986a201a654418cefe34ec28af1a22c" target="_top" xlink:title=" ">
<polygon fill="white" stroke="black" points="360,-6 360,-25 444,-25 444,-6 360,-6"/>
<text text-anchor="middle" x="402" y="-13" font-family="Helvetica,sans-Serif" font-size="10.00">Game::initialize</text>
</a>
</g>
</g>
<!-- Node8&#45;&gt;Node9 -->
<g id="edge9" class="edge"><title>Node8&#45;&gt;Node9</title>
<path fill="none" stroke="midnightblue" d="M500.291,-15.5C481.355,-15.5 461.237,-15.5 444.24,-15.5"/>
<polygon fill="midnightblue" stroke="midnightblue" points="500.361,-19.0001 510.361,-15.5 500.361,-12.0001 500.361,-19.0001"/>
</g>
<!-- Node10 -->
<g id="node10" class="node"><title>Node10</title>
<g id="a_node10"><a xlink:href="../../de/d6b/class_application.html#af431bce25717b04a78d4d0940ed6a92c" target="_top" xlink:title=" ">
<polygon fill="white" stroke="black" points="202,-6 202,-25 308,-25 308,-6 202,-6"/>
<text text-anchor="middle" x="255" y="-13" font-family="Helvetica,sans-Serif" font-size="10.00">Application::initialize</text>
</a>
</g>
</g>
<!-- Node9&#45;&gt;Node10 -->
<g id="edge10" class="edge"><title>Node9&#45;&gt;Node10</title>
<path fill="none" stroke="midnightblue" d="M349.76,-15.5C336.263,-15.5 321.688,-15.5 308.143,-15.5"/>
<polygon fill="midnightblue" stroke="midnightblue" points="349.837,-19.0001 359.837,-15.5 349.837,-12.0001 349.837,-19.0001"/>
</g>
<!-- Node10&#45;&gt;Node6 -->
<g id="edge11" class="edge"><title>Node10&#45;&gt;Node6</title>
<path fill="none" stroke="midnightblue" d="M191.581,-24.1567C180.331,-25.7169 168.861,-27.3076 158.396,-28.7589"/>
<polygon fill="midnightblue" stroke="midnightblue" points="192.391,-27.5779 201.815,-22.7373 191.429,-20.6443 192.391,-27.5779"/>
</g>
</g>
</svg>
