<?xml version="1.0" encoding="UTF-8" standalone="no"?>
<!DOCTYPE svg PUBLIC "-//W3C//DTD SVG 1.1//EN"
 "http://www.w3.org/Graphics/SVG/1.1/DTD/svg11.dtd">
<!-- Generated by graphviz version 2.38.0 (20140413.2041)
 -->
<!-- Title: Game Pages: 1 -->
<svg width="1911pt" height="619pt"
 viewBox="0.00 0.00 1911.00 619.03" xmlns="http://www.w3.org/2000/svg" xmlns:xlink="http://www.w3.org/1999/xlink">
<g id="graph0" class="graph" transform="scale(1 1) rotate(0) translate(4 615.027)">
<title>Game</title>
<polygon fill="white" stroke="none" points="-4,4 -4,-615.027 1907,-615.027 1907,4 -4,4"/>
<!-- Node1 -->
<g id="node1" class="node"><title>Node1</title>
<g id="a_node1"><a xlink:title=" ">
<polygon fill="#bfbfbf" stroke="black" points="1860,-279.027 1860,-298.027 1903,-298.027 1903,-279.027 1860,-279.027"/>
<text text-anchor="middle" x="1881.5" y="-286.027" font-family="Helvetica,sans-Serif" font-size="10.00">Game</text>
</a>
</g>
</g>
<!-- Node2 -->
<g id="node2" class="node"><title>Node2</title>
<g id="a_node2"><a xlink:href="../../d5/d44/class_physics_world.html" target="_top" xlink:title=" ">
<polygon fill="white" stroke="black" points="1123,-434.027 1123,-453.027 1200,-453.027 1200,-434.027 1123,-434.027"/>
<text text-anchor="middle" x="1161.5" y="-441.027" font-family="Helvetica,sans-Serif" font-size="10.00">PhysicsWorld</text>
</a>
</g>
</g>
<!-- Node2&#45;&gt;Node1 -->
<g id="edge1" class="edge"><title>Node2&#45;&gt;Node1</title>
<path fill="none" stroke="#9a32cd" stroke-dasharray="5,2" d="M1210.42,-449.22C1348.59,-464.573 1744.09,-500.741 1842,-424.527 1862.43,-408.625 1875.34,-326.547 1879.24,-298.182"/>
<polygon fill="#9a32cd" stroke="#9a32cd" points="1210.49,-445.705 1200.16,-448.065 1209.71,-452.662 1210.49,-445.705"/>
<text text-anchor="middle" x="1490" y="-474.527" font-family="Helvetica,sans-Serif" font-size="10.00"> physicsWorld</text>
</g>
<!-- Node12 -->
<g id="node12" class="node"><title>Node12</title>
<g id="a_node12"><a xlink:href="../../d2/d15/class_system_base.html" target="_top" xlink:title=" ">
<polygon fill="white" stroke="black" points="1326,-297.027 1326,-316.027 1399,-316.027 1399,-297.027 1326,-297.027"/>
<text text-anchor="middle" x="1362.5" y="-304.027" font-family="Helvetica,sans-Serif" font-size="10.00">SystemBase</text>
</a>
</g>
</g>
<!-- Node2&#45;&gt;Node12 -->
<g id="edge13" class="edge"><title>Node2&#45;&gt;Node12</title>
<path fill="none" stroke="#9a32cd" stroke-dasharray="5,2" d="M1184.81,-428.169C1226.14,-399.716 1313.5,-339.574 1347.52,-316.15"/>
<polygon fill="#9a32cd" stroke="#9a32cd" points="1182.75,-425.34 1176.49,-433.894 1186.71,-431.106 1182.75,-425.34"/>
<text text-anchor="middle" x="1253" y="-406.527" font-family="Helvetica,sans-Serif" font-size="10.00"> physicsWorld</text>
</g>
<!-- Node3 -->
<g id="node3" class="node"><title>Node3</title>
<g id="a_node3"><a xlink:href="../../d1/da2/class_debug_drawer.html" target="_top" xlink:title=" ">
<polygon fill="white" stroke="black" points="840.5,-442.027 840.5,-461.027 914.5,-461.027 914.5,-442.027 840.5,-442.027"/>
<text text-anchor="middle" x="877.5" y="-449.027" font-family="Helvetica,sans-Serif" font-size="10.00">DebugDrawer</text>
</a>
</g>
</g>
<!-- Node3&#45;&gt;Node2 -->
<g id="edge2" class="edge"><title>Node3&#45;&gt;Node2</title>
<path fill="none" stroke="#9a32cd" stroke-dasharray="5,2" d="M924.731,-450.216C980.083,-448.645 1071.71,-446.046 1122.92,-444.593"/>
<polygon fill="#9a32cd" stroke="#9a32cd" points="924.399,-446.724 914.502,-450.506 924.597,-453.721 924.399,-446.724"/>
<text text-anchor="middle" x="1037.5" y="-452.527" font-family="Helvetica,sans-Serif" font-size="10.00"> debugDrawer</text>
</g>
<!-- Node4 -->
<g id="node4" class="node"><title>Node4</title>
<g id="a_node4"><a xlink:title=" ">
<polygon fill="white" stroke="#bfbfbf" points="583,-421.027 583,-440.027 660,-440.027 660,-421.027 583,-421.027"/>
<text text-anchor="middle" x="621.5" y="-428.027" font-family="Helvetica,sans-Serif" font-size="10.00">btIDebugDraw</text>
</a>
</g>
</g>
<!-- Node4&#45;&gt;Node3 -->
<g id="edge3" class="edge"><title>Node4&#45;&gt;Node3</title>
<path fill="none" stroke="midnightblue" d="M670.359,-434.484C719.708,-438.564 795.564,-444.836 840.189,-448.525"/>
<polygon fill="midnightblue" stroke="midnightblue" points="670.507,-430.984 660.252,-433.648 669.93,-437.961 670.507,-430.984"/>
</g>
<!-- Node5 -->
<g id="node5" class="node"><title>Node5</title>
<g id="a_node5"><a xlink:href="../../d1/d51/class_shader.html" target="_top" xlink:title=" ">
<polygon fill="white" stroke="black" points="598,-491.027 598,-510.027 645,-510.027 645,-491.027 598,-491.027"/>
<text text-anchor="middle" x="621.5" y="-498.027" font-family="Helvetica,sans-Serif" font-size="10.00">Shader</text>
</a>
</g>
</g>
<!-- Node5&#45;&gt;Node3 -->
<g id="edge4" class="edge"><title>Node5&#45;&gt;Node3</title>
<path fill="none" stroke="#9a32cd" stroke-dasharray="5,2" d="M649.623,-486.455C666.065,-478.604 687.719,-469.442 708,-464.527 752.769,-453.678 806.001,-451.246 840.478,-450.988"/>
<polygon fill="#9a32cd" stroke="#9a32cd" points="648.031,-483.337 640.595,-490.884 651.114,-489.622 648.031,-483.337"/>
<text text-anchor="middle" x="746.5" y="-467.527" font-family="Helvetica,sans-Serif" font-size="10.00"> thisShader</text>
</g>
<!-- Node29 -->
<g id="node29" class="node"><title>Node29</title>
<g id="a_node29"><a xlink:href="../../d8/d31/class_rendering_system.html" target="_top" xlink:title=" ">
<polygon fill="white" stroke="black" points="1597.5,-393.027 1597.5,-412.027 1691.5,-412.027 1691.5,-393.027 1597.5,-393.027"/>
<text text-anchor="middle" x="1644.5" y="-400.027" font-family="Helvetica,sans-Serif" font-size="10.00">RenderingSystem</text>
</a>
</g>
</g>
<!-- Node5&#45;&gt;Node29 -->
<g id="edge35" class="edge"><title>Node5&#45;&gt;Node29</title>
<path fill="none" stroke="#9a32cd" stroke-dasharray="5,2" d="M655.445,-498.189C703.863,-494.959 797.097,-489.527 876.5,-489.527 876.5,-489.527 876.5,-489.527 1363.5,-489.527 1443.52,-489.527 1467.91,-503.193 1543,-475.527 1581.04,-461.51 1617.41,-428.711 1634.05,-412.276"/>
<polygon fill="#9a32cd" stroke="#9a32cd" points="654.994,-494.711 645.254,-498.88 655.468,-501.695 654.994,-494.711"/>
<text text-anchor="middle" x="1161.5" y="-503.527" font-family="Helvetica,sans-Serif" font-size="10.00"> depthShader</text>
<text text-anchor="middle" x="1161.5" y="-492.527" font-family="Helvetica,sans-Serif" font-size="10.00">screenShader</text>
</g>
<!-- Node34 -->
<g id="node34" class="node"><title>Node34</title>
<g id="a_node34"><a xlink:href="../../dc/d22/class_directional_light_shadow_map.html" target="_top" xlink:title=" ">
<polygon fill="white" stroke="black" points="809,-577.027 809,-596.027 946,-596.027 946,-577.027 809,-577.027"/>
<text text-anchor="middle" x="877.5" y="-584.027" font-family="Helvetica,sans-Serif" font-size="10.00">DirectionalLightShadowMap</text>
</a>
</g>
</g>
<!-- Node5&#45;&gt;Node34 -->
<g id="edge43" class="edge"><title>Node5&#45;&gt;Node34</title>
<path fill="none" stroke="#9a32cd" stroke-dasharray="5,2" d="M650.254,-514.52C666.762,-522.505 688.27,-532.326 708,-539.527 750.651,-555.095 800.952,-568.509 835.422,-576.975"/>
<polygon fill="#9a32cd" stroke="#9a32cd" points="651.683,-511.323 641.163,-510.064 648.602,-517.608 651.683,-511.323"/>
<text text-anchor="middle" x="746.5" y="-566.527" font-family="Helvetica,sans-Serif" font-size="10.00"> depthMapShader</text>
</g>
<!-- Node40 -->
<g id="node40" class="node"><title>Node40</title>
<g id="a_node40"><a xlink:href="../../d1/d18/class_point_light_shadow_map.html" target="_top" xlink:title=" ">
<polygon fill="white" stroke="black" points="981,-524.027 981,-543.027 1094,-543.027 1094,-524.027 981,-524.027"/>
<text text-anchor="middle" x="1037.5" y="-531.027" font-family="Helvetica,sans-Serif" font-size="10.00">PointLightShadowMap</text>
</a>
</g>
</g>
<!-- Node5&#45;&gt;Node40 -->
<g id="edge52" class="edge"><title>Node5&#45;&gt;Node40</title>
<path fill="none" stroke="#9a32cd" stroke-dasharray="5,2" d="M655.122,-503.127C725.63,-508.748 892.925,-522.083 980.64,-529.075"/>
<polygon fill="#9a32cd" stroke="#9a32cd" points="655.299,-499.631 645.052,-502.325 654.743,-506.608 655.299,-499.631"/>
<text text-anchor="middle" x="746.5" y="-516.527" font-family="Helvetica,sans-Serif" font-size="10.00"> depthMapShader</text>
</g>
<!-- Node6 -->
<g id="node6" class="node"><title>Node6</title>
<g id="a_node6"><a xlink:href="../../d2/d00/class_component.html" target="_top" xlink:title=" ">
<polygon fill="white" stroke="black" points="339.5,-453.027 339.5,-472.027 454.5,-472.027 454.5,-453.027 339.5,-453.027"/>
<text text-anchor="middle" x="397" y="-460.027" font-family="Helvetica,sans-Serif" font-size="10.00">Component&lt; Shader &gt;</text>
</a>
</g>
</g>
<!-- Node6&#45;&gt;Node5 -->
<g id="edge5" class="edge"><title>Node6&#45;&gt;Node5</title>
<path fill="none" stroke="midnightblue" d="M463.93,-473.787C509.309,-481.537 566.822,-491.36 597.971,-496.679"/>
<polygon fill="midnightblue" stroke="midnightblue" points="464.305,-470.301 453.859,-472.067 463.127,-477.201 464.305,-470.301"/>
</g>
<!-- Node7 -->
<g id="node7" class="node"><title>Node7</title>
<g id="a_node7"><a xlink:href="../../d5/d79/class_component_interface.html" target="_top" xlink:title=" ">
<polygon fill="white" stroke="black" points="0,-419.027 0,-438.027 103,-438.027 103,-419.027 0,-419.027"/>
<text text-anchor="middle" x="51.5" y="-426.027" font-family="Helvetica,sans-Serif" font-size="10.00">ComponentInterface</text>
</a>
</g>
</g>
<!-- Node7&#45;&gt;Node6 -->
<g id="edge6" class="edge"><title>Node7&#45;&gt;Node6</title>
<path fill="none" stroke="midnightblue" d="M102.836,-440.211C114.967,-442.818 127.915,-445.428 140,-447.527 187.254,-455.734 199.151,-458.249 247,-461.527 277.454,-463.614 311.49,-463.989 339.336,-463.788"/>
<polygon fill="midnightblue" stroke="midnightblue" points="103.392,-436.75 92.8752,-438.034 101.897,-443.589 103.392,-436.75"/>
</g>
<!-- Node8 -->
<g id="node8" class="node"><title>Node8</title>
<g id="a_node8"><a xlink:href="../../d2/d00/class_component.html" target="_top" xlink:title=" ">
<polygon fill="white" stroke="black" points="140,-419.027 140,-438.027 229,-438.027 229,-419.027 140,-419.027"/>
<text text-anchor="middle" x="184.5" y="-426.027" font-family="Helvetica,sans-Serif" font-size="10.00">Component&lt; T &gt;</text>
</a>
</g>
</g>
<!-- Node7&#45;&gt;Node8 -->
<g id="edge8" class="edge"><title>Node7&#45;&gt;Node8</title>
<path fill="none" stroke="midnightblue" d="M113.194,-428.527C122.17,-428.527 131.266,-428.527 139.805,-428.527"/>
<polygon fill="midnightblue" stroke="midnightblue" points="113.148,-425.027 103.148,-428.527 113.148,-432.027 113.148,-425.027"/>
</g>
<!-- Node20 -->
<g id="node20" class="node"><title>Node20</title>
<g id="a_node20"><a xlink:href="../../d2/d00/class_component.html" target="_top" xlink:title=" ">
<polygon fill="white" stroke="black" points="332,-383.027 332,-402.027 462,-402.027 462,-383.027 332,-383.027"/>
<text text-anchor="middle" x="397" y="-390.027" font-family="Helvetica,sans-Serif" font-size="10.00">Component&lt; RayCaster &gt;</text>
</a>
</g>
</g>
<!-- Node7&#45;&gt;Node20 -->
<g id="edge22" class="edge"><title>Node7&#45;&gt;Node20</title>
<path fill="none" stroke="midnightblue" d="M100.574,-416.755C113.323,-414 127.125,-411.342 140,-409.527 204.946,-400.37 279.876,-396.123 331.818,-394.167"/>
<polygon fill="midnightblue" stroke="midnightblue" points="99.614,-413.383 90.6129,-418.971 101.134,-420.216 99.614,-413.383"/>
</g>
<!-- Node8&#45;&gt;Node6 -->
<g id="edge7" class="edge"><title>Node8&#45;&gt;Node6</title>
<path fill="none" stroke="orange" stroke-dasharray="5,2" d="M239.179,-437.197C269.789,-442.141 308.129,-448.334 339.237,-453.359"/>
<polygon fill="orange" stroke="orange" points="239.546,-433.711 229.116,-435.572 238.43,-440.622 239.546,-433.711"/>
<text text-anchor="middle" x="280.5" y="-452.527" font-family="Helvetica,sans-Serif" font-size="10.00"> &lt; Shader &gt;</text>
</g>
<!-- Node8&#45;&gt;Node20 -->
<g id="edge23" class="edge"><title>Node8&#45;&gt;Node20</title>
<path fill="none" stroke="orange" stroke-dasharray="5,2" d="M239.296,-419.327C270.273,-414.029 309.136,-407.383 340.41,-402.034"/>
<polygon fill="orange" stroke="orange" points="238.383,-415.932 229.116,-421.068 239.563,-422.832 238.383,-415.932"/>
<text text-anchor="middle" x="280.5" y="-421.527" font-family="Helvetica,sans-Serif" font-size="10.00"> &lt; RayCaster &gt;</text>
</g>
<!-- Node9 -->
<g id="node9" class="node"><title>Node9</title>
<g id="a_node9"><a xlink:title=" ">
<polygon fill="white" stroke="#bfbfbf" points="353,-529.027 353,-548.027 441,-548.027 441,-529.027 353,-529.027"/>
<text text-anchor="middle" x="397" y="-536.027" font-family="Helvetica,sans-Serif" font-size="10.00">SHADER_TYPE</text>
</a>
</g>
</g>
<!-- Node9&#45;&gt;Node5 -->
<g id="edge9" class="edge"><title>Node9&#45;&gt;Node5</title>
<path fill="none" stroke="#9a32cd" stroke-dasharray="5,2" d="M451.355,-529.663C476.705,-525.428 507.423,-520.261 535,-515.527 556.24,-511.881 580.429,-507.628 597.645,-504.584"/>
<polygon fill="#9a32cd" stroke="#9a32cd" points="450.493,-526.258 441.206,-531.357 451.645,-533.163 450.493,-526.258"/>
<text text-anchor="middle" x="507.5" y="-527.527" font-family="Helvetica,sans-Serif" font-size="10.00"> shaderType</text>
</g>
<!-- Node10 -->
<g id="node10" class="node"><title>Node10</title>
<g id="a_node10"><a xlink:title=" ">
<polygon fill="white" stroke="#bfbfbf" points="353,-491.027 353,-510.027 441,-510.027 441,-491.027 353,-491.027"/>
<text text-anchor="middle" x="397" y="-498.027" font-family="Helvetica,sans-Serif" font-size="10.00">SHADER_TASK</text>
</a>
</g>
</g>
<!-- Node10&#45;&gt;Node5 -->
<g id="edge10" class="edge"><title>Node10&#45;&gt;Node5</title>
<path fill="none" stroke="#9a32cd" stroke-dasharray="5,2" d="M451.421,-500.527C498.149,-500.527 563.73,-500.527 597.856,-500.527"/>
<polygon fill="#9a32cd" stroke="#9a32cd" points="451.164,-497.027 441.164,-500.527 451.164,-504.027 451.164,-497.027"/>
<text text-anchor="middle" x="507.5" y="-503.527" font-family="Helvetica,sans-Serif" font-size="10.00"> currentTask</text>
</g>
<!-- Node11 -->
<g id="node11" class="node"><title>Node11</title>
<g id="a_node11"><a xlink:href="../../d3/de8/class_fixed_updating_system.html" target="_top" xlink:title=" ">
<polygon fill="white" stroke="black" points="1588,-317.027 1588,-336.027 1701,-336.027 1701,-317.027 1588,-317.027"/>
<text text-anchor="middle" x="1644.5" y="-324.027" font-family="Helvetica,sans-Serif" font-size="10.00">FixedUpdatingSystem</text>
</a>
</g>
</g>
<!-- Node11&#45;&gt;Node1 -->
<g id="edge11" class="edge"><title>Node11&#45;&gt;Node1</title>
<path fill="none" stroke="#9a32cd" stroke-dasharray="5,2" d="M1711.2,-322.256C1749.7,-318.825 1799.05,-312.818 1842,-302.527 1847.95,-301.102 1854.24,-299.054 1859.98,-296.963"/>
<polygon fill="#9a32cd" stroke="#9a32cd" points="1710.82,-318.776 1701.15,-323.115 1711.41,-325.75 1710.82,-318.776"/>
<text text-anchor="middle" x="1794" y="-322.527" font-family="Helvetica,sans-Serif" font-size="10.00"> fixedUpdatingSystem</text>
</g>
<!-- Node12&#45;&gt;Node11 -->
<g id="edge12" class="edge"><title>Node12&#45;&gt;Node11</title>
<path fill="none" stroke="midnightblue" d="M1409.22,-309.793C1458.09,-313.284 1535.6,-318.82 1587.95,-322.559"/>
<polygon fill="midnightblue" stroke="midnightblue" points="1409.47,-306.302 1399.25,-309.08 1408.97,-313.284 1409.47,-306.302"/>
</g>
<!-- Node12&#45;&gt;Node29 -->
<g id="edge34" class="edge"><title>Node12&#45;&gt;Node29</title>
<path fill="none" stroke="midnightblue" d="M1409.44,-314.874C1454.24,-323.308 1519.02,-336.367 1543,-345.527 1575.98,-358.127 1611.11,-380.343 1629.85,-392.998"/>
<polygon fill="midnightblue" stroke="midnightblue" points="1409.83,-311.388 1399.36,-312.991 1408.55,-318.269 1409.83,-311.388"/>
</g>
<!-- Node37 -->
<g id="node37" class="node"><title>Node37</title>
<g id="a_node37"><a xlink:href="../../d2/d54/class_updating_system.html" target="_top" xlink:title=" ">
<polygon fill="white" stroke="black" points="1600,-279.027 1600,-298.027 1689,-298.027 1689,-279.027 1600,-279.027"/>
<text text-anchor="middle" x="1644.5" y="-286.027" font-family="Helvetica,sans-Serif" font-size="10.00">UpdatingSystem</text>
</a>
</g>
</g>
<!-- Node12&#45;&gt;Node37 -->
<g id="edge48" class="edge"><title>Node12&#45;&gt;Node37</title>
<path fill="none" stroke="midnightblue" d="M1409.37,-298.834C1418.5,-297.537 1428.04,-296.347 1437,-295.527 1493.08,-290.397 1558.04,-288.926 1599.9,-288.556"/>
<polygon fill="midnightblue" stroke="midnightblue" points="1408.67,-295.4 1399.29,-300.33 1409.69,-302.324 1408.67,-295.4"/>
</g>
<!-- Node13 -->
<g id="node13" class="node"><title>Node13</title>
<g id="a_node13"><a xlink:href="../../d6/db5/class_scene.html" target="_top" xlink:title=" ">
<polygon fill="white" stroke="black" points="1139.5,-241.027 1139.5,-260.027 1183.5,-260.027 1183.5,-241.027 1139.5,-241.027"/>
<text text-anchor="middle" x="1161.5" y="-248.027" font-family="Helvetica,sans-Serif" font-size="10.00">Scene</text>
</a>
</g>
</g>
<!-- Node13&#45;&gt;Node1 -->
<g id="edge40" class="edge"><title>Node13&#45;&gt;Node1</title>
<path fill="none" stroke="#9a32cd" stroke-dasharray="5,2" d="M1193.67,-250.587C1279.2,-250.964 1524.68,-253.479 1728,-269.527 1775.34,-273.264 1830.58,-280.99 1859.84,-285.351"/>
<polygon fill="#9a32cd" stroke="#9a32cd" points="1193.61,-247.087 1183.59,-250.549 1193.58,-254.087 1193.61,-247.087"/>
<text text-anchor="middle" x="1490" y="-262.527" font-family="Helvetica,sans-Serif" font-size="10.00"> scene</text>
</g>
<!-- Node13&#45;&gt;Node12 -->
<g id="edge14" class="edge"><title>Node13&#45;&gt;Node12</title>
<path fill="none" stroke="#9a32cd" stroke-dasharray="5,2" d="M1193.78,-257.895C1219.26,-264.044 1256.12,-273.268 1288,-282.527 1303.21,-286.945 1320.02,-292.389 1333.71,-296.975"/>
<polygon fill="#9a32cd" stroke="#9a32cd" points="1194.47,-254.463 1183.93,-255.537 1192.84,-261.27 1194.47,-254.463"/>
<text text-anchor="middle" x="1253" y="-285.527" font-family="Helvetica,sans-Serif" font-size="10.00"> currentScene</text>
</g>
<!-- Node14 -->
<g id="node14" class="node"><title>Node14</title>
<g id="a_node14"><a xlink:href="../../db/d2b/class_settings.html" target="_top" xlink:title=" ">
<polygon fill="white" stroke="black" points="1135,-193.027 1135,-212.027 1188,-212.027 1188,-193.027 1135,-193.027"/>
<text text-anchor="middle" x="1161.5" y="-200.027" font-family="Helvetica,sans-Serif" font-size="10.00">Settings</text>
</a>
</g>
</g>
<!-- Node14&#45;&gt;Node1 -->
<g id="edge44" class="edge"><title>Node14&#45;&gt;Node1</title>
<path fill="none" stroke="#9a32cd" stroke-dasharray="5,2" d="M1198.28,-205.932C1287.64,-214.436 1527.77,-237.307 1728,-256.527 1778.67,-261.391 1793.34,-252.593 1842,-267.527 1850.44,-270.118 1859.14,-274.673 1866.13,-278.88"/>
<polygon fill="#9a32cd" stroke="#9a32cd" points="1198.43,-202.43 1188.15,-204.967 1197.77,-209.399 1198.43,-202.43"/>
<text text-anchor="middle" x="1490" y="-242.527" font-family="Helvetica,sans-Serif" font-size="10.00"> settings</text>
</g>
<!-- Node14&#45;&gt;Node12 -->
<g id="edge15" class="edge"><title>Node14&#45;&gt;Node12</title>
<path fill="none" stroke="#9a32cd" stroke-dasharray="5,2" d="M1197.76,-212.587C1223.63,-220.704 1259.12,-233.413 1288,-249.527 1312.54,-263.219 1337.67,-284.631 1351.26,-296.943"/>
<polygon fill="#9a32cd" stroke="#9a32cd" points="1198.59,-209.182 1188.01,-209.6 1196.54,-215.875 1198.59,-209.182"/>
<text text-anchor="middle" x="1253" y="-252.527" font-family="Helvetica,sans-Serif" font-size="10.00"> currentSettings</text>
</g>
<!-- Node15 -->
<g id="node15" class="node"><title>Node15</title>
<g id="a_node15"><a xlink:href="../../d7/db2/struct_sub_systems.html" target="_top" xlink:title=" ">
<polygon fill="white" stroke="black" points="1125,-279.027 1125,-298.027 1198,-298.027 1198,-279.027 1125,-279.027"/>
<text text-anchor="middle" x="1161.5" y="-286.027" font-family="Helvetica,sans-Serif" font-size="10.00">SubSystems</text>
</a>
</g>
</g>
<!-- Node15&#45;&gt;Node1 -->
<g id="edge45" class="edge"><title>Node15&#45;&gt;Node1</title>
<path fill="none" stroke="#9a32cd" stroke-dasharray="5,2" d="M1186.71,-303.159C1196.16,-308.214 1207.28,-313.391 1218,-316.527 1255.73,-327.565 1266.84,-321.99 1306,-325.527 1493,-342.421 1540.45,-354.555 1728,-345.527 1778.84,-343.08 1796.97,-358.261 1842,-334.527 1857.48,-326.37 1869.22,-309.108 1875.47,-298.205"/>
<polygon fill="#9a32cd" stroke="#9a32cd" points="1188.33,-300.056 1177.89,-298.225 1184.91,-306.164 1188.33,-300.056"/>
<text text-anchor="middle" x="1490" y="-350.527" font-family="Helvetica,sans-Serif" font-size="10.00"> subSystems</text>
</g>
<!-- Node15&#45;&gt;Node12 -->
<g id="edge16" class="edge"><title>Node15&#45;&gt;Node12</title>
<path fill="none" stroke="#9a32cd" stroke-dasharray="5,2" d="M1208.52,-294.508C1211.73,-294.87 1214.91,-295.214 1218,-295.527 1254.67,-299.243 1296.72,-302.328 1325.78,-304.276"/>
<polygon fill="#9a32cd" stroke="#9a32cd" points="1208.64,-290.997 1198.3,-293.303 1207.82,-297.949 1208.64,-290.997"/>
<text text-anchor="middle" x="1253" y="-304.527" font-family="Helvetica,sans-Serif" font-size="10.00"> systems</text>
</g>
<!-- Node16 -->
<g id="node16" class="node"><title>Node16</title>
<g id="a_node16"><a xlink:href="../../d3/dad/class_fountain_particle_system.html" target="_top" xlink:title=" ">
<polygon fill="white" stroke="black" points="817,-328.027 817,-347.027 938,-347.027 938,-328.027 817,-328.027"/>
<text text-anchor="middle" x="877.5" y="-335.027" font-family="Helvetica,sans-Serif" font-size="10.00">FountainParticleSystem</text>
</a>
</g>
</g>
<!-- Node16&#45;&gt;Node15 -->
<g id="edge17" class="edge"><title>Node16&#45;&gt;Node15</title>
<path fill="none" stroke="#9a32cd" stroke-dasharray="5,2" d="M948.468,-334.53C993.703,-331.366 1053.53,-324.867 1105,-311.527 1117.42,-308.309 1130.72,-302.873 1141.18,-298.095"/>
<polygon fill="#9a32cd" stroke="#9a32cd" points="948.211,-331.04 938.465,-335.193 948.674,-338.024 948.211,-331.04"/>
<text text-anchor="middle" x="1037.5" y="-336.527" font-family="Helvetica,sans-Serif" font-size="10.00"> fountainParticleSystem</text>
</g>
<!-- Node17 -->
<g id="node17" class="node"><title>Node17</title>
<g id="a_node17"><a xlink:href="../../df/d86/class_default_particle_system.html" target="_top" xlink:title=" ">
<polygon fill="white" stroke="black" points="565,-106.027 565,-125.027 678,-125.027 678,-106.027 565,-106.027"/>
<text text-anchor="middle" x="621.5" y="-113.027" font-family="Helvetica,sans-Serif" font-size="10.00">DefaultParticleSystem</text>
</a>
</g>
</g>
<!-- Node17&#45;&gt;Node15 -->
<g id="edge32" class="edge"><title>Node17&#45;&gt;Node15</title>
<path fill="none" stroke="#9a32cd" stroke-dasharray="5,2" d="M647.136,-100.738C726.525,-55.1597 977.849,72.5596 1105,-55.5271 1138.62,-89.3962 1096.33,-229.948 1123,-269.527 1125.53,-273.28 1129.03,-276.329 1132.89,-278.796"/>
<polygon fill="#9a32cd" stroke="#9a32cd" points="645.209,-97.8101 638.327,-105.866 648.73,-103.86 645.209,-97.8101"/>
<text text-anchor="middle" x="877.5" y="-31.5271" font-family="Helvetica,sans-Serif" font-size="10.00"> defaultParticleSystem</text>
</g>
<!-- Node17&#45;&gt;Node16 -->
<g id="edge18" class="edge"><title>Node17&#45;&gt;Node16</title>
<path fill="none" stroke="midnightblue" d="M633.591,-134.188C658.514,-174.433 723.069,-269.688 803,-318.527 809.298,-322.375 816.358,-325.449 823.545,-327.903"/>
<polygon fill="midnightblue" stroke="midnightblue" points="636.438,-132.134 628.249,-125.412 630.459,-135.774 636.438,-132.134"/>
</g>
<!-- Node18 -->
<g id="node18" class="node"><title>Node18</title>
<g id="a_node18"><a xlink:href="../../da/d3f/class_enemy_controller_system.html" target="_top" xlink:title=" ">
<polygon fill="white" stroke="black" points="816.5,-404.027 816.5,-423.027 938.5,-423.027 938.5,-404.027 816.5,-404.027"/>
<text text-anchor="middle" x="877.5" y="-411.027" font-family="Helvetica,sans-Serif" font-size="10.00">EnemyControllerSystem</text>
</a>
</g>
</g>
<!-- Node18&#45;&gt;Node15 -->
<g id="edge19" class="edge"><title>Node18&#45;&gt;Node15</title>
<path fill="none" stroke="#9a32cd" stroke-dasharray="5,2" d="M949.143,-420.89C996.922,-422.308 1059.39,-416.876 1105,-386.527 1137.23,-365.082 1152.81,-318.186 1158.21,-298.037"/>
<polygon fill="#9a32cd" stroke="#9a32cd" points="949.009,-417.382 938.875,-420.475 948.726,-424.377 949.009,-417.382"/>
<text text-anchor="middle" x="1037.5" y="-424.527" font-family="Helvetica,sans-Serif" font-size="10.00"> enemyControllerSystem</text>
</g>
<!-- Node19 -->
<g id="node19" class="node"><title>Node19</title>
<g id="a_node19"><a xlink:href="../../d3/dbc/class_ray_caster.html" target="_top" xlink:title=" ">
<polygon fill="white" stroke="black" points="590.5,-383.027 590.5,-402.027 652.5,-402.027 652.5,-383.027 590.5,-383.027"/>
<text text-anchor="middle" x="621.5" y="-390.027" font-family="Helvetica,sans-Serif" font-size="10.00">RayCaster</text>
</a>
</g>
</g>
<!-- Node19&#45;&gt;Node18 -->
<g id="edge20" class="edge"><title>Node19&#45;&gt;Node18</title>
<path fill="none" stroke="#9a32cd" stroke-dasharray="5,2" d="M662.618,-395.844C703.987,-399.264 768.98,-404.638 816.471,-408.564"/>
<polygon fill="#9a32cd" stroke="#9a32cd" points="662.889,-392.355 652.635,-395.019 662.312,-399.331 662.889,-392.355"/>
<text text-anchor="middle" x="746.5" y="-408.527" font-family="Helvetica,sans-Serif" font-size="10.00"> rayCast</text>
</g>
<!-- Node20&#45;&gt;Node19 -->
<g id="edge21" class="edge"><title>Node20&#45;&gt;Node19</title>
<path fill="none" stroke="midnightblue" d="M472.146,-392.527C512.509,-392.527 560.232,-392.527 590.433,-392.527"/>
<polygon fill="midnightblue" stroke="midnightblue" points="472.058,-389.027 462.058,-392.527 472.058,-396.027 472.058,-389.027"/>
</g>
<!-- Node21 -->
<g id="node21" class="node"><title>Node21</title>
<g id="a_node21"><a xlink:href="../../d3/d85/class_display_statistics_system.html" target="_top" xlink:title=" ">
<polygon fill="white" stroke="black" points="815.5,-366.027 815.5,-385.027 939.5,-385.027 939.5,-366.027 815.5,-366.027"/>
<text text-anchor="middle" x="877.5" y="-373.027" font-family="Helvetica,sans-Serif" font-size="10.00">DisplayStatisticsSystem</text>
</a>
</g>
</g>
<!-- Node21&#45;&gt;Node15 -->
<g id="edge24" class="edge"><title>Node21&#45;&gt;Node15</title>
<path fill="none" stroke="#9a32cd" stroke-dasharray="5,2" d="M949.85,-372.374C1005.86,-368.918 1078.64,-361.968 1105,-348.527 1127.75,-336.926 1145.95,-311.976 1154.75,-298.184"/>
<polygon fill="#9a32cd" stroke="#9a32cd" points="949.378,-368.896 939.601,-372.98 949.791,-375.884 949.378,-368.896"/>
<text text-anchor="middle" x="1037.5" y="-374.527" font-family="Helvetica,sans-Serif" font-size="10.00"> displayStatisticsSystem</text>
</g>
<!-- Node22 -->
<g id="node22" class="node"><title>Node22</title>
<g id="a_node22"><a xlink:href="../../d4/d4f/class_player_camera_handling_system.html" target="_top" xlink:title=" ">
<polygon fill="white" stroke="black" points="803,-290.027 803,-309.027 952,-309.027 952,-290.027 803,-290.027"/>
<text text-anchor="middle" x="877.5" y="-297.027" font-family="Helvetica,sans-Serif" font-size="10.00">PlayerCameraHandlingSystem</text>
</a>
</g>
</g>
<!-- Node22&#45;&gt;Node15 -->
<g id="edge25" class="edge"><title>Node22&#45;&gt;Node15</title>
<path fill="none" stroke="#9a32cd" stroke-dasharray="5,2" d="M962.522,-296.25C1016.71,-294.136 1084.39,-291.496 1124.94,-289.914"/>
<polygon fill="#9a32cd" stroke="#9a32cd" points="962.08,-292.764 952.224,-296.651 962.353,-299.759 962.08,-292.764"/>
<text text-anchor="middle" x="1037.5" y="-299.527" font-family="Helvetica,sans-Serif" font-size="10.00"> playerCameraHandlingSystem</text>
</g>
<!-- Node23 -->
<g id="node23" class="node"><title>Node23</title>
<g id="a_node23"><a xlink:href="../../d1/dce/class_sky_box_system.html" target="_top" xlink:title=" ">
<polygon fill="white" stroke="black" points="835,-252.027 835,-271.027 920,-271.027 920,-252.027 835,-252.027"/>
<text text-anchor="middle" x="877.5" y="-259.027" font-family="Helvetica,sans-Serif" font-size="10.00">SkyBoxSystem</text>
</a>
</g>
</g>
<!-- Node23&#45;&gt;Node15 -->
<g id="edge26" class="edge"><title>Node23&#45;&gt;Node15</title>
<path fill="none" stroke="#9a32cd" stroke-dasharray="5,2" d="M930.056,-262.787C976.108,-264.424 1045.32,-268.145 1105,-276.527 1111.44,-277.432 1118.25,-278.668 1124.81,-280.004"/>
<polygon fill="#9a32cd" stroke="#9a32cd" points="930.13,-259.288 920.018,-262.451 929.895,-266.284 930.13,-259.288"/>
<text text-anchor="middle" x="1037.5" y="-279.527" font-family="Helvetica,sans-Serif" font-size="10.00"> skyBoxSystem</text>
</g>
<!-- Node24 -->
<g id="node24" class="node"><title>Node24</title>
<g id="a_node24"><a xlink:href="../../df/dd7/class_bone_collision_mesh_system.html" target="_top" xlink:title=" ">
<polygon fill="white" stroke="black" points="810.5,-214.027 810.5,-233.027 944.5,-233.027 944.5,-214.027 810.5,-214.027"/>
<text text-anchor="middle" x="877.5" y="-221.027" font-family="Helvetica,sans-Serif" font-size="10.00">BoneCollisionMeshSystem</text>
</a>
</g>
</g>
<!-- Node24&#45;&gt;Node15 -->
<g id="edge27" class="edge"><title>Node24&#45;&gt;Node15</title>
<path fill="none" stroke="#9a32cd" stroke-dasharray="5,2" d="M954.766,-219.899C1000.55,-220.73 1058.69,-227.265 1105,-250.527 1115.39,-255.749 1113.67,-262.574 1123,-269.527 1127.68,-273.017 1133.1,-276.181 1138.33,-278.883"/>
<polygon fill="#9a32cd" stroke="#9a32cd" points="954.633,-216.397 944.601,-219.803 954.567,-223.397 954.633,-216.397"/>
<text text-anchor="middle" x="1037.5" y="-253.527" font-family="Helvetica,sans-Serif" font-size="10.00"> boneCollisionMeshSystem</text>
</g>
<!-- Node25 -->
<g id="node25" class="node"><title>Node25</title>
<g id="a_node25"><a xlink:href="../../d5/d50/class_player_controller_system.html" target="_top" xlink:title=" ">
<polygon fill="white" stroke="black" points="818,-176.027 818,-195.027 937,-195.027 937,-176.027 818,-176.027"/>
<text text-anchor="middle" x="877.5" y="-183.027" font-family="Helvetica,sans-Serif" font-size="10.00">PlayerControllerSystem</text>
</a>
</g>
</g>
<!-- Node25&#45;&gt;Node15 -->
<g id="edge28" class="edge"><title>Node25&#45;&gt;Node15</title>
<path fill="none" stroke="#9a32cd" stroke-dasharray="5,2" d="M934.156,-174.543C984.508,-167.994 1057.8,-167.371 1105,-206.527 1127.41,-225.119 1104.46,-247.069 1123,-269.527 1126.07,-273.242 1130.04,-276.304 1134.26,-278.803"/>
<polygon fill="#9a32cd" stroke="#9a32cd" points="933.501,-171.101 924.091,-175.97 934.484,-178.031 933.501,-171.101"/>
<text text-anchor="middle" x="1037.5" y="-209.527" font-family="Helvetica,sans-Serif" font-size="10.00"> playerControllerSystem</text>
</g>
<!-- Node26 -->
<g id="node26" class="node"><title>Node26</title>
<g id="a_node26"><a xlink:href="../../d7/dd6/class_pause_menu_system.html" target="_top" xlink:title=" ">
<polygon fill="white" stroke="black" points="826.5,-138.027 826.5,-157.027 928.5,-157.027 928.5,-138.027 826.5,-138.027"/>
<text text-anchor="middle" x="877.5" y="-145.027" font-family="Helvetica,sans-Serif" font-size="10.00">PauseMenuSystem</text>
</a>
</g>
</g>
<!-- Node26&#45;&gt;Node15 -->
<g id="edge29" class="edge"><title>Node26&#45;&gt;Node15</title>
<path fill="none" stroke="#9a32cd" stroke-dasharray="5,2" d="M938.796,-141.659C997.509,-137.36 1081.27,-135.448 1105,-156.527 1143.02,-190.3 1093.04,-228.431 1123,-269.527 1125.75,-273.302 1129.47,-276.376 1133.5,-278.865"/>
<polygon fill="#9a32cd" stroke="#9a32cd" points="938.209,-138.194 928.509,-142.455 938.749,-145.173 938.209,-138.194"/>
<text text-anchor="middle" x="1037.5" y="-159.527" font-family="Helvetica,sans-Serif" font-size="10.00"> pauseMenuSystem</text>
</g>
<!-- Node27 -->
<g id="node27" class="node"><title>Node27</title>
<g id="a_node27"><a xlink:href="../../d4/df8/class_camera_system.html" target="_top" xlink:title=" ">
<polygon fill="white" stroke="black" points="835.5,-100.027 835.5,-119.027 919.5,-119.027 919.5,-100.027 835.5,-100.027"/>
<text text-anchor="middle" x="877.5" y="-107.027" font-family="Helvetica,sans-Serif" font-size="10.00">CameraSystem</text>
</a>
</g>
</g>
<!-- Node27&#45;&gt;Node15 -->
<g id="edge30" class="edge"><title>Node27&#45;&gt;Node15</title>
<path fill="none" stroke="#9a32cd" stroke-dasharray="5,2" d="M922.118,-97.7684C973.047,-86.9443 1056.48,-78.7128 1105,-124.527 1152.22,-169.11 1085.66,-216.399 1123,-269.527 1125.69,-273.349 1129.37,-276.447 1133.39,-278.944"/>
<polygon fill="#9a32cd" stroke="#9a32cd" points="921.065,-94.4175 912.076,-100.026 922.6,-101.247 921.065,-94.4175"/>
<text text-anchor="middle" x="1037.5" y="-127.527" font-family="Helvetica,sans-Serif" font-size="10.00"> cameraSystem</text>
</g>
<!-- Node28 -->
<g id="node28" class="node"><title>Node28</title>
<g id="a_node28"><a xlink:href="../../d7/d06/class_g_u_i_resizing_information.html" target="_top" xlink:title=" ">
<polygon fill="white" stroke="black" points="818.5,-62.0271 818.5,-81.0271 936.5,-81.0271 936.5,-62.0271 818.5,-62.0271"/>
<text text-anchor="middle" x="877.5" y="-69.0271" font-family="Helvetica,sans-Serif" font-size="10.00">GUIResizingInformation</text>
</a>
</g>
</g>
<!-- Node28&#45;&gt;Node15 -->
<g id="edge31" class="edge"><title>Node28&#45;&gt;Node15</title>
<path fill="none" stroke="#9a32cd" stroke-dasharray="5,2" d="M946.856,-62.815C1005.07,-57.0737 1082.73,-53.9431 1105,-74.5271 1136.96,-104.063 1098.54,-233.535 1123,-269.527 1125.63,-273.39 1129.28,-276.509 1133.29,-279.015"/>
<polygon fill="#9a32cd" stroke="#9a32cd" points="946.185,-59.3656 936.596,-63.8728 946.903,-66.3287 946.185,-59.3656"/>
<text text-anchor="middle" x="1037.5" y="-77.5271" font-family="Helvetica,sans-Serif" font-size="10.00"> guiResizingInfo</text>
</g>
<!-- Node29&#45;&gt;Node1 -->
<g id="edge33" class="edge"><title>Node29&#45;&gt;Node1</title>
<path fill="none" stroke="#9a32cd" stroke-dasharray="5,2" d="M1701.78,-409.778C1744.37,-412.177 1802.14,-408.458 1842,-378.527 1868.5,-358.629 1876.97,-316.825 1879.5,-298.033"/>
<polygon fill="#9a32cd" stroke="#9a32cd" points="1701.79,-406.271 1691.57,-409.071 1701.31,-413.254 1701.79,-406.271"/>
<text text-anchor="middle" x="1794" y="-412.527" font-family="Helvetica,sans-Serif" font-size="10.00"> renderingSystem</text>
</g>
<!-- Node30 -->
<g id="node30" class="node"><title>Node30</title>
<g id="a_node30"><a xlink:href="../../d3/df8/class_quad.html" target="_top" xlink:title=" ">
<polygon fill="white" stroke="black" points="1342.5,-393.027 1342.5,-412.027 1382.5,-412.027 1382.5,-393.027 1342.5,-393.027"/>
<text text-anchor="middle" x="1362.5" y="-400.027" font-family="Helvetica,sans-Serif" font-size="10.00">Quad</text>
</a>
</g>
</g>
<!-- Node30&#45;&gt;Node29 -->
<g id="edge36" class="edge"><title>Node30&#45;&gt;Node29</title>
<path fill="none" stroke="#9a32cd" stroke-dasharray="5,2" d="M1392.92,-402.527C1441.62,-402.527 1539.39,-402.527 1597.35,-402.527"/>
<polygon fill="#9a32cd" stroke="#9a32cd" points="1392.75,-399.027 1382.75,-402.527 1392.75,-406.027 1392.75,-399.027"/>
<text text-anchor="middle" x="1490" y="-416.527" font-family="Helvetica,sans-Serif" font-size="10.00"> depthQuad</text>
<text text-anchor="middle" x="1490" y="-405.527" font-family="Helvetica,sans-Serif" font-size="10.00">screenQuad</text>
</g>
<!-- Node31 -->
<g id="node31" class="node"><title>Node31</title>
<g id="a_node31"><a xlink:href="../../dd/db8/class_render_texture.html" target="_top" xlink:title=" ">
<polygon fill="white" stroke="black" points="1604.5,-165.027 1604.5,-184.027 1684.5,-184.027 1684.5,-165.027 1604.5,-165.027"/>
<text text-anchor="middle" x="1644.5" y="-172.027" font-family="Helvetica,sans-Serif" font-size="10.00">RenderTexture</text>
</a>
</g>
</g>
<!-- Node31&#45;&gt;Node1 -->
<g id="edge37" class="edge"><title>Node31&#45;&gt;Node1</title>
<path fill="none" stroke="#9a32cd" stroke-dasharray="5,2" d="M1694.72,-164.077C1737.78,-157.874 1799.87,-156.398 1842,-187.527 1871.88,-209.607 1878.57,-257.951 1880.07,-278.723"/>
<polygon fill="#9a32cd" stroke="#9a32cd" points="1694.08,-160.634 1684.75,-165.646 1695.17,-167.549 1694.08,-160.634"/>
<text text-anchor="middle" x="1794" y="-190.527" font-family="Helvetica,sans-Serif" font-size="10.00"> renderTexture</text>
</g>
<!-- Node32 -->
<g id="node32" class="node"><title>Node32</title>
<g id="a_node32"><a xlink:href="../../d6/dc9/class_messenger.html" target="_top" xlink:title=" ">
<polygon fill="white" stroke="black" points="1561,-127.027 1561,-146.027 1728,-146.027 1728,-127.027 1561,-127.027"/>
<text text-anchor="middle" x="1644.5" y="-134.027" font-family="Helvetica,sans-Serif" font-size="10.00">Messenger&lt; BackEndMessages &gt;</text>
</a>
</g>
</g>
<!-- Node32&#45;&gt;Node1 -->
<g id="edge38" class="edge"><title>Node32&#45;&gt;Node1</title>
<path fill="none" stroke="#9a32cd" stroke-dasharray="5,2" d="M1691.11,-124.958C1734.72,-116.802 1799.9,-112.59 1842,-146.527 1863.08,-163.519 1875.65,-249.75 1879.35,-278.891"/>
<polygon fill="#9a32cd" stroke="#9a32cd" points="1690.18,-121.576 1681.06,-126.978 1691.56,-128.439 1690.18,-121.576"/>
<text text-anchor="middle" x="1794" y="-149.527" font-family="Helvetica,sans-Serif" font-size="10.00"> backEndMessages</text>
</g>
<!-- Node33 -->
<g id="node33" class="node"><title>Node33</title>
<g id="a_node33"><a xlink:href="../../d6/dc9/class_messenger.html" target="_top" xlink:title=" ">
<polygon fill="white" stroke="black" points="1318.5,-127.027 1318.5,-146.027 1406.5,-146.027 1406.5,-127.027 1318.5,-127.027"/>
<text text-anchor="middle" x="1362.5" y="-134.027" font-family="Helvetica,sans-Serif" font-size="10.00">Messenger&lt; T &gt;</text>
</a>
</g>
</g>
<!-- Node33&#45;&gt;Node32 -->
<g id="edge39" class="edge"><title>Node33&#45;&gt;Node32</title>
<path fill="none" stroke="orange" stroke-dasharray="5,2" d="M1416.88,-136.527C1457.55,-136.527 1514.3,-136.527 1560.83,-136.527"/>
<polygon fill="orange" stroke="orange" points="1416.64,-133.027 1406.64,-136.527 1416.64,-140.027 1416.64,-133.027"/>
<text text-anchor="middle" x="1490" y="-139.527" font-family="Helvetica,sans-Serif" font-size="10.00"> &lt; BackEndMessages &gt;</text>
</g>
<!-- Node34&#45;&gt;Node1 -->
<g id="edge41" class="edge"><title>Node34&#45;&gt;Node1</title>
<path fill="none" stroke="#9a32cd" stroke-dasharray="5,2" d="M956.332,-586.527C1012.96,-586.527 1091.48,-586.527 1160.5,-586.527 1160.5,-586.527 1160.5,-586.527 1645.5,-586.527 1665.27,-586.527 1833.73,-515.876 1842,-505.527 1868.27,-472.641 1877.82,-336.018 1879.99,-298.243"/>
<polygon fill="#9a32cd" stroke="#9a32cd" points="956.02,-583.027 946.02,-586.527 956.02,-590.027 956.02,-583.027"/>
<text text-anchor="middle" x="1362.5" y="-589.527" font-family="Helvetica,sans-Serif" font-size="10.00"> directionalLightDepthMap</text>
</g>
<!-- Node35 -->
<g id="node35" class="node"><title>Node35</title>
<g id="a_node35"><a xlink:href="../../d2/dee/struct_directional_light_shadow_map_1_1_orthographic_bounds.html" target="_top" xlink:title=" ">
<polygon fill="white" stroke="black" points="553,-580.527 553,-610.527 690,-610.527 690,-580.527 553,-580.527"/>
<text text-anchor="start" x="561" y="-598.527" font-family="Helvetica,sans-Serif" font-size="10.00">DirectionalLightShadowMap</text>
<text text-anchor="middle" x="621.5" y="-587.527" font-family="Helvetica,sans-Serif" font-size="10.00">::OrthographicBounds</text>
</a>
</g>
</g>
<!-- Node35&#45;&gt;Node34 -->
<g id="edge42" class="edge"><title>Node35&#45;&gt;Node34</title>
<path fill="none" stroke="#9a32cd" stroke-dasharray="5,2" d="M700.33,-592.769C735.039,-591.54 775.542,-590.104 808.955,-588.92"/>
<polygon fill="#9a32cd" stroke="#9a32cd" points="700.103,-589.275 690.234,-593.127 700.351,-596.271 700.103,-589.275"/>
<text text-anchor="middle" x="746.5" y="-595.527" font-family="Helvetica,sans-Serif" font-size="10.00"> bounds</text>
</g>
<!-- Node36 -->
<g id="node36" class="node"><title>Node36</title>
<g id="a_node36"><a xlink:href="../../db/d74/class_text_map.html" target="_top" xlink:title=" ">
<polygon fill="white" stroke="black" points="1617.5,-89.0271 1617.5,-108.027 1671.5,-108.027 1671.5,-89.0271 1617.5,-89.0271"/>
<text text-anchor="middle" x="1644.5" y="-96.0271" font-family="Helvetica,sans-Serif" font-size="10.00">TextMap</text>
</a>
</g>
</g>
<!-- Node36&#45;&gt;Node1 -->
<g id="edge46" class="edge"><title>Node36&#45;&gt;Node1</title>
<path fill="none" stroke="#9a32cd" stroke-dasharray="5,2" d="M1681.97,-94.4866C1732.06,-89.7786 1818.62,-84.9299 1842,-104.527 1869.14,-127.272 1877.93,-243.665 1879.98,-278.601"/>
<polygon fill="#9a32cd" stroke="#9a32cd" points="1681.48,-91.0178 1671.87,-95.4803 1682.16,-97.9842 1681.48,-91.0178"/>
<text text-anchor="middle" x="1794" y="-107.527" font-family="Helvetica,sans-Serif" font-size="10.00"> map</text>
</g>
<!-- Node37&#45;&gt;Node1 -->
<g id="edge47" class="edge"><title>Node37&#45;&gt;Node1</title>
<path fill="none" stroke="#9a32cd" stroke-dasharray="5,2" d="M1699.35,-288.527C1750.36,-288.527 1824.29,-288.527 1859.86,-288.527"/>
<polygon fill="#9a32cd" stroke="#9a32cd" points="1699.15,-285.027 1689.15,-288.527 1699.15,-292.027 1699.15,-285.027"/>
<text text-anchor="middle" x="1794" y="-291.527" font-family="Helvetica,sans-Serif" font-size="10.00"> updatingSystem</text>
</g>
<!-- Node38 -->
<g id="node38" class="node"><title>Node38</title>
<g id="a_node38"><a xlink:href="../../d6/d2c/class_time.html" target="_top" xlink:title=" ">
<polygon fill="white" stroke="black" points="1625.5,-51.0271 1625.5,-70.0271 1663.5,-70.0271 1663.5,-51.0271 1625.5,-51.0271"/>
<text text-anchor="middle" x="1644.5" y="-58.0271" font-family="Helvetica,sans-Serif" font-size="10.00">Time</text>
</a>
</g>
</g>
<!-- Node38&#45;&gt;Node1 -->
<g id="edge49" class="edge"><title>Node38&#45;&gt;Node1</title>
<path fill="none" stroke="#9a32cd" stroke-dasharray="5,2" d="M1673.63,-53.1167C1715.89,-43.8372 1795.75,-33.7965 1842,-75.5271 1872.76,-103.281 1879.09,-241.246 1880.26,-278.976"/>
<polygon fill="#9a32cd" stroke="#9a32cd" points="1672.68,-49.7445 1663.73,-55.4275 1674.27,-56.561 1672.68,-49.7445"/>
<text text-anchor="middle" x="1794" y="-78.5271" font-family="Helvetica,sans-Serif" font-size="10.00"> currentTime</text>
</g>
<!-- Node39 -->
<g id="node39" class="node"><title>Node39</title>
<g id="a_node39"><a xlink:href="../../d7/dd6/struct_time_1_1_time_data.html" target="_top" xlink:title=" ">
<polygon fill="white" stroke="black" points="1320,-51.0271 1320,-70.0271 1405,-70.0271 1405,-51.0271 1320,-51.0271"/>
<text text-anchor="middle" x="1362.5" y="-58.0271" font-family="Helvetica,sans-Serif" font-size="10.00">Time::TimeData</text>
</a>
</g>
</g>
<!-- Node39&#45;&gt;Node38 -->
<g id="edge50" class="edge"><title>Node39&#45;&gt;Node38</title>
<path fill="none" stroke="#9a32cd" stroke-dasharray="5,2" d="M1415.34,-60.5271C1478.96,-60.5271 1583.51,-60.5271 1625.36,-60.5271"/>
<polygon fill="#9a32cd" stroke="#9a32cd" points="1415.12,-57.0272 1405.12,-60.5271 1415.12,-64.0272 1415.12,-57.0272"/>
<text text-anchor="middle" x="1490" y="-63.5271" font-family="Helvetica,sans-Serif" font-size="10.00"> timeData</text>
</g>
<!-- Node40&#45;&gt;Node1 -->
<g id="edge51" class="edge"><title>Node40&#45;&gt;Node1</title>
<path fill="none" stroke="#9a32cd" stroke-dasharray="5,2" d="M1104.38,-536.334C1146.57,-537.896 1202.5,-539.527 1252,-539.527 1252,-539.527 1252,-539.527 1645.5,-539.527 1740.48,-539.527 1781.05,-528.372 1842,-455.527 1882.09,-407.605 1882.32,-325.929 1881.1,-298.124"/>
<polygon fill="#9a32cd" stroke="#9a32cd" points="1104.36,-532.831 1094.23,-535.95 1104.09,-539.826 1104.36,-532.831"/>
<text text-anchor="middle" x="1362.5" y="-542.527" font-family="Helvetica,sans-Serif" font-size="10.00"> pointLightDepthMap</text>
</g>
</g>
</svg>
