<?xml version="1.0" encoding="UTF-8" standalone="no"?>
<!DOCTYPE svg PUBLIC "-//W3C//DTD SVG 1.1//EN"
 "http://www.w3.org/Graphics/SVG/1.1/DTD/svg11.dtd">
<!-- Generated by graphviz version 2.38.0 (20140413.2041)
 -->
<!-- Title: src/Camera.h Pages: 1 -->
<svg width="874pt" height="509pt"
 viewBox="0.00 0.00 874.37 509.00" xmlns="http://www.w3.org/2000/svg" xmlns:xlink="http://www.w3.org/1999/xlink">
<g id="graph0" class="graph" transform="scale(1 1) rotate(0) translate(4 505)">
<title>src/Camera.h</title>
<polygon fill="white" stroke="none" points="-4,4 -4,-505 870.366,-505 870.366,4 -4,4"/>
<!-- Node1 -->
<g id="node1" class="node"><title>Node1</title>
<g id="a_node1"><a xlink:title=" ">
<polygon fill="#bfbfbf" stroke="black" points="384.15,-481.5 384.15,-500.5 459.15,-500.5 459.15,-481.5 384.15,-481.5"/>
<text text-anchor="middle" x="421.65" y="-488.5" font-family="Helvetica,sans-Serif" font-size="10.00">src/Camera.h</text>
</a>
</g>
</g>
<!-- Node2 -->
<g id="node2" class="node"><title>Node2</title>
<g id="a_node2"><a xlink:href="../../da/d03/_entity_tests_8h.html" target="_top" xlink:title=" ">
<polygon fill="white" stroke="black" points="37.1502,-420 37.1502,-439 128.15,-439 128.15,-420 37.1502,-420"/>
<text text-anchor="middle" x="82.6502" y="-427" font-family="Helvetica,sans-Serif" font-size="10.00">src/EntityTests.h</text>
</a>
</g>
</g>
<!-- Node1&#45;&gt;Node2 -->
<g id="edge1" class="edge"><title>Node1&#45;&gt;Node2</title>
<path fill="none" stroke="midnightblue" d="M373.742,-482.974C318.935,-474.741 226.572,-460.271 147.65,-445 138.455,-443.221 128.572,-441.116 119.356,-439.07"/>
<polygon fill="midnightblue" stroke="midnightblue" points="373.449,-486.469 383.857,-484.486 374.484,-479.546 373.449,-486.469"/>
</g>
<!-- Node10 -->
<g id="node10" class="node"><title>Node10</title>
<g id="a_node10"><a xlink:href="../../db/d81/_fixed_updating_system_8h.html" target="_top" xlink:title=" ">
<polygon fill="white" stroke="black" points="84.1502,-230 84.1502,-249 221.15,-249 221.15,-230 84.1502,-230"/>
<text text-anchor="middle" x="152.65" y="-237" font-family="Helvetica,sans-Serif" font-size="10.00">src/FixedUpdatingSystem.h</text>
</a>
</g>
</g>
<!-- Node1&#45;&gt;Node10 -->
<g id="edge9" class="edge"><title>Node1&#45;&gt;Node10</title>
<path fill="none" stroke="midnightblue" d="M374.091,-486.328C316.439,-480.893 223.962,-468.69 199.65,-445 142.772,-389.577 148.682,-280.251 151.69,-249.016"/>
<polygon fill="midnightblue" stroke="midnightblue" points="373.801,-489.816 384.077,-487.235 374.434,-482.845 373.801,-489.816"/>
</g>
<!-- Node12 -->
<g id="node12" class="node"><title>Node12</title>
<g id="a_node12"><a xlink:href="../../d7/d14/_directional_light_shadow_map_8h.html" target="_top" xlink:title=" ">
<polygon fill="white" stroke="black" points="231.65,-291.5 231.65,-321.5 365.65,-321.5 365.65,-291.5 231.65,-291.5"/>
<text text-anchor="start" x="239.65" y="-309.5" font-family="Helvetica,sans-Serif" font-size="10.00">src/DirectionalLightShadow</text>
<text text-anchor="middle" x="298.65" y="-298.5" font-family="Helvetica,sans-Serif" font-size="10.00">Map.h</text>
</a>
</g>
</g>
<!-- Node1&#45;&gt;Node12 -->
<g id="edge12" class="edge"><title>Node1&#45;&gt;Node12</title>
<path fill="none" stroke="midnightblue" d="M373.962,-486.193C320.195,-480.795 237.755,-468.803 218.65,-445 194.447,-414.845 199.982,-391.861 218.65,-358 227.77,-341.459 244.84,-329.588 260.877,-321.53"/>
<polygon fill="midnightblue" stroke="midnightblue" points="373.687,-489.683 383.976,-487.156 374.357,-482.715 373.687,-489.683"/>
</g>
<!-- Node13 -->
<g id="node13" class="node"><title>Node13</title>
<g id="a_node13"><a xlink:href="../../da/d66/_rendering_system_8h.html" target="_top" xlink:title=" ">
<polygon fill="white" stroke="black" points="392.15,-230 392.15,-249 511.15,-249 511.15,-230 392.15,-230"/>
<text text-anchor="middle" x="451.65" y="-237" font-family="Helvetica,sans-Serif" font-size="10.00">src/RenderingSystem.h</text>
</a>
</g>
</g>
<!-- Node1&#45;&gt;Node13 -->
<g id="edge35" class="edge"><title>Node1&#45;&gt;Node13</title>
<path fill="none" stroke="midnightblue" d="M469.535,-488.058C571.044,-483.464 800.565,-470.36 824.65,-445 851.306,-416.933 851.59,-389.178 828.65,-358 807.751,-329.596 576.922,-270.95 487.109,-249.021"/>
<polygon fill="midnightblue" stroke="midnightblue" points="469.089,-484.575 459.254,-488.514 469.399,-491.568 469.089,-484.575"/>
</g>
<!-- Node16 -->
<g id="node16" class="node"><title>Node16</title>
<g id="a_node16"><a xlink:href="../../d8/d2d/_camera_system_8h.html" target="_top" xlink:title=" ">
<polygon fill="white" stroke="black" points="228.15,-420 228.15,-439 337.15,-439 337.15,-420 228.15,-420"/>
<text text-anchor="middle" x="282.65" y="-427" font-family="Helvetica,sans-Serif" font-size="10.00">src/CameraSystem.h</text>
</a>
</g>
</g>
<!-- Node1&#45;&gt;Node16 -->
<g id="edge18" class="edge"><title>Node1&#45;&gt;Node16</title>
<path fill="none" stroke="midnightblue" d="M392.401,-477.48C365.405,-465.924 326.046,-449.076 302.529,-439.009"/>
<polygon fill="midnightblue" stroke="midnightblue" points="391.164,-480.757 401.735,-481.475 393.919,-474.322 391.164,-480.757"/>
</g>
<!-- Node19 -->
<g id="node19" class="node"><title>Node19</title>
<g id="a_node19"><a xlink:href="../../db/dc0/_updating_system_8h.html" target="_top" xlink:title=" ">
<polygon fill="white" stroke="black" points="534.15,-230 534.15,-249 647.15,-249 647.15,-230 534.15,-230"/>
<text text-anchor="middle" x="590.65" y="-237" font-family="Helvetica,sans-Serif" font-size="10.00">src/UpdatingSystem.h</text>
</a>
</g>
</g>
<!-- Node1&#45;&gt;Node19 -->
<g id="edge36" class="edge"><title>Node1&#45;&gt;Node19</title>
<path fill="none" stroke="midnightblue" d="M469.519,-488.492C575.711,-484.653 823.644,-472.781 848.65,-445 874.519,-416.261 869.123,-390.802 848.65,-358 805.261,-288.481 709.176,-259.687 647.294,-248.052"/>
<polygon fill="midnightblue" stroke="midnightblue" points="469.266,-484.998 459.395,-488.849 469.512,-491.994 469.266,-484.998"/>
</g>
<!-- Node22 -->
<g id="node22" class="node"><title>Node22</title>
<g id="a_node22"><a xlink:href="../../df/d4c/_enemy_controller_system_8h.html" target="_top" xlink:title=" ">
<polygon fill="white" stroke="black" points="506.15,-420 506.15,-439 653.15,-439 653.15,-420 506.15,-420"/>
<text text-anchor="middle" x="579.65" y="-427" font-family="Helvetica,sans-Serif" font-size="10.00">src/EnemyControllerSystem.h</text>
</a>
</g>
</g>
<!-- Node1&#45;&gt;Node22 -->
<g id="edge27" class="edge"><title>Node1&#45;&gt;Node22</title>
<path fill="none" stroke="midnightblue" d="M453.694,-477.933C484.403,-466.368 529.971,-449.208 557.055,-439.009"/>
<polygon fill="midnightblue" stroke="midnightblue" points="452.413,-474.675 444.288,-481.475 454.88,-481.226 452.413,-474.675"/>
</g>
<!-- Node24 -->
<g id="node24" class="node"><title>Node24</title>
<g id="a_node24"><a xlink:href="../../db/de2/_player_camera_handling_system_8h.html" target="_top" xlink:title=" ">
<polygon fill="white" stroke="black" points="355.65,-414.5 355.65,-444.5 487.65,-444.5 487.65,-414.5 355.65,-414.5"/>
<text text-anchor="start" x="363.65" y="-432.5" font-family="Helvetica,sans-Serif" font-size="10.00">src/PlayerCameraHandling</text>
<text text-anchor="middle" x="421.65" y="-421.5" font-family="Helvetica,sans-Serif" font-size="10.00">System.h</text>
</a>
</g>
</g>
<!-- Node1&#45;&gt;Node24 -->
<g id="edge30" class="edge"><title>Node1&#45;&gt;Node24</title>
<path fill="none" stroke="midnightblue" d="M421.65,-471.235C421.65,-462.586 421.65,-452.497 421.65,-444.523"/>
<polygon fill="midnightblue" stroke="midnightblue" points="418.15,-471.475 421.65,-481.475 425.15,-471.475 418.15,-471.475"/>
</g>
<!-- Node25 -->
<g id="node25" class="node"><title>Node25</title>
<g id="a_node25"><a xlink:href="../../d8/d3c/_player_controller_system_8h.html" target="_top" xlink:title=" ">
<polygon fill="white" stroke="black" points="671.65,-420 671.65,-439 815.65,-439 815.65,-420 671.65,-420"/>
<text text-anchor="middle" x="743.65" y="-427" font-family="Helvetica,sans-Serif" font-size="10.00">src/PlayerControllerSystem.h</text>
</a>
</g>
</g>
<!-- Node1&#45;&gt;Node25 -->
<g id="edge32" class="edge"><title>Node1&#45;&gt;Node25</title>
<path fill="none" stroke="midnightblue" d="M469.417,-481.174C530.861,-469.82 636.871,-450.231 697.514,-439.025"/>
<polygon fill="midnightblue" stroke="midnightblue" points="468.415,-477.799 459.218,-483.058 469.687,-484.683 468.415,-477.799"/>
</g>
<!-- Node3 -->
<g id="node3" class="node"><title>Node3</title>
<g id="a_node3"><a xlink:href="../../d9/dcd/_game_8h.html" target="_top" xlink:title=" ">
<polygon fill="white" stroke="black" points="272.65,-168.5 272.65,-187.5 340.65,-187.5 340.65,-168.5 272.65,-168.5"/>
<text text-anchor="middle" x="306.65" y="-175.5" font-family="Helvetica,sans-Serif" font-size="10.00">src/Game.h</text>
</a>
</g>
</g>
<!-- Node2&#45;&gt;Node3 -->
<g id="edge2" class="edge"><title>Node2&#45;&gt;Node3</title>
<path fill="none" stroke="midnightblue" d="M57.2756,-414.51C44.3335,-405.856 29.8383,-393.445 22.6502,-378 -1.80101,-325.461 -28.5262,-310.22 74.6502,-224 89.6833,-211.438 211.428,-192.571 272.283,-183.8"/>
<polygon fill="midnightblue" stroke="midnightblue" points="55.5444,-417.555 65.8785,-419.891 59.2566,-411.62 55.5444,-417.555"/>
</g>
<!-- Node9 -->
<g id="node9" class="node"><title>Node9</title>
<g id="a_node9"><a xlink:href="../../de/d4c/_entity_tests_8cpp.html" target="_top" xlink:title=" ">
<polygon fill="white" stroke="black" points="32.1502,-358.5 32.1502,-377.5 133.15,-377.5 133.15,-358.5 32.1502,-358.5"/>
<text text-anchor="middle" x="82.6502" y="-365.5" font-family="Helvetica,sans-Serif" font-size="10.00">src/EntityTests.cpp</text>
</a>
</g>
</g>
<!-- Node2&#45;&gt;Node9 -->
<g id="edge8" class="edge"><title>Node2&#45;&gt;Node9</title>
<path fill="none" stroke="midnightblue" d="M82.6502,-409.817C82.6502,-398.996 82.6502,-385.898 82.6502,-377.509"/>
<polygon fill="midnightblue" stroke="midnightblue" points="79.1503,-409.975 82.6502,-419.975 86.1503,-409.975 79.1503,-409.975"/>
</g>
<!-- Node4 -->
<g id="node4" class="node"><title>Node4</title>
<g id="a_node4"><a xlink:href="../../d9/da3/_application_8h.html" target="_top" xlink:title=" ">
<polygon fill="white" stroke="black" points="211.15,-112.5 211.15,-131.5 300.15,-131.5 300.15,-112.5 211.15,-112.5"/>
<text text-anchor="middle" x="255.65" y="-119.5" font-family="Helvetica,sans-Serif" font-size="10.00">src/Application.h</text>
</a>
</g>
</g>
<!-- Node3&#45;&gt;Node4 -->
<g id="edge3" class="edge"><title>Node3&#45;&gt;Node4</title>
<path fill="none" stroke="midnightblue" d="M291.272,-160.718C282.283,-151.2 271.291,-139.561 263.915,-131.751"/>
<polygon fill="midnightblue" stroke="midnightblue" points="288.818,-163.216 298.229,-168.083 293.907,-158.41 288.818,-163.216"/>
</g>
<!-- Node8 -->
<g id="node8" class="node"><title>Node8</title>
<g id="a_node8"><a xlink:href="../../d7/db5/_game_8cpp.html" target="_top" xlink:title=" ">
<polygon fill="white" stroke="black" points="318.65,-112.5 318.65,-131.5 396.65,-131.5 396.65,-112.5 318.65,-112.5"/>
<text text-anchor="middle" x="357.65" y="-119.5" font-family="Helvetica,sans-Serif" font-size="10.00">src/Game.cpp</text>
</a>
</g>
</g>
<!-- Node3&#45;&gt;Node8 -->
<g id="edge7" class="edge"><title>Node3&#45;&gt;Node8</title>
<path fill="none" stroke="midnightblue" d="M322.028,-160.718C331.017,-151.2 342.009,-139.561 349.385,-131.751"/>
<polygon fill="midnightblue" stroke="midnightblue" points="319.393,-158.41 315.072,-168.083 324.483,-163.216 319.393,-158.41"/>
</g>
<!-- Node5 -->
<g id="node5" class="node"><title>Node5</title>
<g id="a_node5"><a xlink:href="../../d0/d42/_application_8cpp.html" target="_top" xlink:title=" ">
<polygon fill="white" stroke="black" points="156.65,-56.5 156.65,-75.5 256.65,-75.5 256.65,-56.5 156.65,-56.5"/>
<text text-anchor="middle" x="206.65" y="-63.5" font-family="Helvetica,sans-Serif" font-size="10.00">src/Application.cpp</text>
</a>
</g>
</g>
<!-- Node4&#45;&gt;Node5 -->
<g id="edge4" class="edge"><title>Node4&#45;&gt;Node5</title>
<path fill="none" stroke="midnightblue" d="M240.616,-104.431C232.028,-94.9673 221.607,-83.4827 214.591,-75.7511"/>
<polygon fill="midnightblue" stroke="midnightblue" points="238.247,-107.029 247.559,-112.083 243.431,-102.325 238.247,-107.029"/>
</g>
<!-- Node6 -->
<g id="node6" class="node"><title>Node6</title>
<g id="a_node6"><a xlink:href="../../d4/dbf/main_8h.html" target="_top" xlink:title=" ">
<polygon fill="white" stroke="black" points="274.65,-56.5 274.65,-75.5 336.65,-75.5 336.65,-56.5 274.65,-56.5"/>
<text text-anchor="middle" x="305.65" y="-63.5" font-family="Helvetica,sans-Serif" font-size="10.00">src/main.h</text>
</a>
</g>
</g>
<!-- Node4&#45;&gt;Node6 -->
<g id="edge5" class="edge"><title>Node4&#45;&gt;Node6</title>
<path fill="none" stroke="midnightblue" d="M270.727,-104.718C279.539,-95.1997 290.316,-83.5608 297.547,-75.7511"/>
<polygon fill="midnightblue" stroke="midnightblue" points="268.133,-102.367 263.907,-112.083 273.269,-107.123 268.133,-102.367"/>
</g>
<!-- Node7 -->
<g id="node7" class="node"><title>Node7</title>
<g id="a_node7"><a xlink:href="../../d5/d12/_main_8cpp.html" target="_top" xlink:title=" ">
<polygon fill="white" stroke="black" points="269.15,-0.5 269.15,-19.5 342.15,-19.5 342.15,-0.5 269.15,-0.5"/>
<text text-anchor="middle" x="305.65" y="-7.5" font-family="Helvetica,sans-Serif" font-size="10.00">src/Main.cpp</text>
</a>
</g>
</g>
<!-- Node6&#45;&gt;Node7 -->
<g id="edge6" class="edge"><title>Node6&#45;&gt;Node7</title>
<path fill="none" stroke="midnightblue" d="M305.65,-45.8045C305.65,-36.9102 305.65,-26.7798 305.65,-19.7511"/>
<polygon fill="midnightblue" stroke="midnightblue" points="302.15,-46.083 305.65,-56.083 309.15,-46.083 302.15,-46.083"/>
</g>
<!-- Node10&#45;&gt;Node3 -->
<g id="edge10" class="edge"><title>Node10&#45;&gt;Node3</title>
<path fill="none" stroke="midnightblue" d="M184.272,-226.282C214.199,-214.72 258.343,-197.664 284.627,-187.509"/>
<polygon fill="midnightblue" stroke="midnightblue" points="182.781,-223.106 174.715,-229.975 185.304,-229.636 182.781,-223.106"/>
</g>
<!-- Node11 -->
<g id="node11" class="node"><title>Node11</title>
<g id="a_node11"><a xlink:href="../../d0/d56/_fixed_updating_system_8cpp.html" target="_top" xlink:title=" ">
<polygon fill="white" stroke="black" points="78.6502,-168.5 78.6502,-187.5 226.65,-187.5 226.65,-168.5 78.6502,-168.5"/>
<text text-anchor="middle" x="152.65" y="-175.5" font-family="Helvetica,sans-Serif" font-size="10.00">src/FixedUpdatingSystem.cpp</text>
</a>
</g>
</g>
<!-- Node10&#45;&gt;Node11 -->
<g id="edge11" class="edge"><title>Node10&#45;&gt;Node11</title>
<path fill="none" stroke="midnightblue" d="M152.65,-219.817C152.65,-208.996 152.65,-195.898 152.65,-187.509"/>
<polygon fill="midnightblue" stroke="midnightblue" points="149.15,-219.975 152.65,-229.975 156.15,-219.975 149.15,-219.975"/>
</g>
<!-- Node12&#45;&gt;Node10 -->
<g id="edge13" class="edge"><title>Node12&#45;&gt;Node10</title>
<path fill="none" stroke="midnightblue" d="M257.759,-287.295C229.604,-274.76 193.49,-258.682 171.758,-249.007"/>
<polygon fill="midnightblue" stroke="midnightblue" points="256.411,-290.526 266.97,-291.396 259.258,-284.131 256.411,-290.526"/>
</g>
<!-- Node12&#45;&gt;Node13 -->
<g id="edge14" class="edge"><title>Node12&#45;&gt;Node13</title>
<path fill="none" stroke="midnightblue" d="M341.117,-287.458C370.678,-274.9 408.754,-258.724 431.626,-249.007"/>
<polygon fill="midnightblue" stroke="midnightblue" points="339.684,-284.264 331.849,-291.396 342.421,-290.707 339.684,-284.264"/>
</g>
<!-- Node15 -->
<g id="node15" class="node"><title>Node15</title>
<g id="a_node15"><a xlink:href="../../d1/db9/_directional_light_shadow_map_8cpp.html" target="_top" xlink:title=" ">
<polygon fill="white" stroke="black" points="239.65,-224.5 239.65,-254.5 373.65,-254.5 373.65,-224.5 239.65,-224.5"/>
<text text-anchor="start" x="247.65" y="-242.5" font-family="Helvetica,sans-Serif" font-size="10.00">src/DirectionalLightShadow</text>
<text text-anchor="middle" x="306.65" y="-231.5" font-family="Helvetica,sans-Serif" font-size="10.00">Map.cpp</text>
</a>
</g>
</g>
<!-- Node12&#45;&gt;Node15 -->
<g id="edge17" class="edge"><title>Node12&#45;&gt;Node15</title>
<path fill="none" stroke="midnightblue" d="M301.616,-281.403C302.728,-272.37 303.954,-262.408 304.918,-254.577"/>
<polygon fill="midnightblue" stroke="midnightblue" points="298.134,-281.043 300.386,-291.396 305.081,-281.898 298.134,-281.043"/>
</g>
<!-- Node13&#45;&gt;Node3 -->
<g id="edge15" class="edge"><title>Node13&#45;&gt;Node3</title>
<path fill="none" stroke="midnightblue" d="M421.508,-226.131C393.338,-214.572 352.027,-197.62 327.387,-187.509"/>
<polygon fill="midnightblue" stroke="midnightblue" points="420.295,-229.417 430.875,-229.975 422.952,-222.941 420.295,-229.417"/>
</g>
<!-- Node14 -->
<g id="node14" class="node"><title>Node14</title>
<g id="a_node14"><a xlink:href="../../d2/db8/_rendering_system_8cpp.html" target="_top" xlink:title=" ">
<polygon fill="white" stroke="black" points="384.15,-168.5 384.15,-187.5 513.15,-187.5 513.15,-168.5 384.15,-168.5"/>
<text text-anchor="middle" x="448.65" y="-175.5" font-family="Helvetica,sans-Serif" font-size="10.00">src/RenderingSystem.cpp</text>
</a>
</g>
</g>
<!-- Node13&#45;&gt;Node14 -->
<g id="edge16" class="edge"><title>Node13&#45;&gt;Node14</title>
<path fill="none" stroke="midnightblue" d="M450.708,-219.817C450.163,-208.996 449.502,-195.898 449.079,-187.509"/>
<polygon fill="midnightblue" stroke="midnightblue" points="447.221,-220.164 451.22,-229.975 454.212,-219.812 447.221,-220.164"/>
</g>
<!-- Node17 -->
<g id="node17" class="node"><title>Node17</title>
<g id="a_node17"><a xlink:href="../../d8/dc4/_sub_systems_8h.html" target="_top" xlink:title=" ">
<polygon fill="white" stroke="black" points="372.65,-358.5 372.65,-377.5 470.65,-377.5 470.65,-358.5 372.65,-358.5"/>
<text text-anchor="middle" x="421.65" y="-365.5" font-family="Helvetica,sans-Serif" font-size="10.00">src/SubSystems.h</text>
</a>
</g>
</g>
<!-- Node16&#45;&gt;Node17 -->
<g id="edge19" class="edge"><title>Node16&#45;&gt;Node17</title>
<path fill="none" stroke="midnightblue" d="M311.9,-415.98C338.895,-404.424 378.255,-387.576 401.772,-377.509"/>
<polygon fill="midnightblue" stroke="midnightblue" points="310.381,-412.822 302.565,-419.975 313.136,-419.257 310.381,-412.822"/>
</g>
<!-- Node21 -->
<g id="node21" class="node"><title>Node21</title>
<g id="a_node21"><a xlink:href="../../d8/d8a/_camera_system_8cpp.html" target="_top" xlink:title=" ">
<polygon fill="white" stroke="black" points="228.15,-358.5 228.15,-377.5 347.15,-377.5 347.15,-358.5 228.15,-358.5"/>
<text text-anchor="middle" x="287.65" y="-365.5" font-family="Helvetica,sans-Serif" font-size="10.00">src/CameraSystem.cpp</text>
</a>
</g>
</g>
<!-- Node16&#45;&gt;Node21 -->
<g id="edge26" class="edge"><title>Node16&#45;&gt;Node21</title>
<path fill="none" stroke="midnightblue" d="M284.22,-409.817C285.129,-398.996 286.23,-385.898 286.935,-377.509"/>
<polygon fill="midnightblue" stroke="midnightblue" points="280.716,-409.717 283.367,-419.975 287.692,-410.303 280.716,-409.717"/>
</g>
<!-- Node18 -->
<g id="node18" class="node"><title>Node18</title>
<g id="a_node18"><a xlink:href="../../dc/d18/_system_base_8h.html" target="_top" xlink:title=" ">
<polygon fill="white" stroke="black" points="388.65,-297 388.65,-316 486.65,-316 486.65,-297 388.65,-297"/>
<text text-anchor="middle" x="437.65" y="-304" font-family="Helvetica,sans-Serif" font-size="10.00">src/SystemBase.h</text>
</a>
</g>
</g>
<!-- Node17&#45;&gt;Node18 -->
<g id="edge20" class="edge"><title>Node17&#45;&gt;Node18</title>
<path fill="none" stroke="midnightblue" d="M426.583,-348.657C429.51,-337.772 433.082,-324.486 435.362,-316.009"/>
<polygon fill="midnightblue" stroke="midnightblue" points="423.16,-347.909 423.943,-358.475 429.919,-349.727 423.16,-347.909"/>
</g>
<!-- Node18&#45;&gt;Node10 -->
<g id="edge21" class="edge"><title>Node18&#45;&gt;Node10</title>
<path fill="none" stroke="midnightblue" d="M390.907,-294.728C385.427,-293.469 379.915,-292.205 374.65,-291 309.919,-276.188 234.54,-259.068 190.366,-249.049"/>
<polygon fill="midnightblue" stroke="midnightblue" points="390.146,-298.144 400.676,-296.974 391.715,-291.322 390.146,-298.144"/>
</g>
<!-- Node18&#45;&gt;Node13 -->
<g id="edge22" class="edge"><title>Node18&#45;&gt;Node13</title>
<path fill="none" stroke="midnightblue" d="M441.653,-286.915C444.33,-274.488 447.727,-258.717 449.792,-249.127"/>
<polygon fill="midnightblue" stroke="midnightblue" points="438.222,-286.221 439.538,-296.734 445.065,-287.695 438.222,-286.221"/>
</g>
<!-- Node18&#45;&gt;Node19 -->
<g id="edge23" class="edge"><title>Node18&#45;&gt;Node19</title>
<path fill="none" stroke="midnightblue" d="M467.195,-292.948C497.488,-280.079 543.801,-260.403 570.249,-249.167"/>
<polygon fill="midnightblue" stroke="midnightblue" points="465.803,-289.737 457.967,-296.869 468.54,-296.18 465.803,-289.737"/>
</g>
<!-- Node19&#45;&gt;Node3 -->
<g id="edge24" class="edge"><title>Node19&#45;&gt;Node3</title>
<path fill="none" stroke="midnightblue" d="M540.014,-227.891C482.625,-215.868 390.635,-196.595 341.026,-186.202"/>
<polygon fill="midnightblue" stroke="midnightblue" points="539.455,-231.35 549.96,-229.975 540.89,-224.499 539.455,-231.35"/>
</g>
<!-- Node20 -->
<g id="node20" class="node"><title>Node20</title>
<g id="a_node20"><a xlink:href="../../d7/d1d/_updating_system_8cpp.html" target="_top" xlink:title=" ">
<polygon fill="white" stroke="black" points="531.65,-168.5 531.65,-187.5 655.65,-187.5 655.65,-168.5 531.65,-168.5"/>
<text text-anchor="middle" x="593.65" y="-175.5" font-family="Helvetica,sans-Serif" font-size="10.00">src/UpdatingSystem.cpp</text>
</a>
</g>
</g>
<!-- Node19&#45;&gt;Node20 -->
<g id="edge25" class="edge"><title>Node19&#45;&gt;Node20</title>
<path fill="none" stroke="midnightblue" d="M591.592,-219.817C592.138,-208.996 592.798,-195.898 593.221,-187.509"/>
<polygon fill="midnightblue" stroke="midnightblue" points="588.088,-219.812 591.08,-229.975 595.079,-220.164 588.088,-219.812"/>
</g>
<!-- Node22&#45;&gt;Node17 -->
<g id="edge28" class="edge"><title>Node22&#45;&gt;Node17</title>
<path fill="none" stroke="midnightblue" d="M547.606,-416.433C516.897,-404.868 471.329,-387.708 444.246,-377.509"/>
<polygon fill="midnightblue" stroke="midnightblue" points="546.421,-419.726 557.013,-419.975 548.888,-413.175 546.421,-419.726"/>
</g>
<!-- Node23 -->
<g id="node23" class="node"><title>Node23</title>
<g id="a_node23"><a xlink:href="../../da/d2a/_enemy_controller_system_8cpp.html" target="_top" xlink:title=" ">
<polygon fill="white" stroke="black" points="488.65,-358.5 488.65,-377.5 646.65,-377.5 646.65,-358.5 488.65,-358.5"/>
<text text-anchor="middle" x="567.65" y="-365.5" font-family="Helvetica,sans-Serif" font-size="10.00">src/EnemyControllerSystem.cpp</text>
</a>
</g>
</g>
<!-- Node22&#45;&gt;Node23 -->
<g id="edge29" class="edge"><title>Node22&#45;&gt;Node23</title>
<path fill="none" stroke="midnightblue" d="M575.951,-410.157C573.756,-399.272 571.076,-385.986 569.366,-377.509"/>
<polygon fill="midnightblue" stroke="midnightblue" points="572.523,-410.864 577.931,-419.975 579.385,-409.48 572.523,-410.864"/>
</g>
<!-- Node24&#45;&gt;Node17 -->
<g id="edge31" class="edge"><title>Node24&#45;&gt;Node17</title>
<path fill="none" stroke="midnightblue" d="M421.65,-404.289C421.65,-394.857 421.65,-384.655 421.65,-377.658"/>
<polygon fill="midnightblue" stroke="midnightblue" points="418.15,-404.399 421.65,-414.399 425.15,-404.399 418.15,-404.399"/>
</g>
<!-- Node25&#45;&gt;Node17 -->
<g id="edge33" class="edge"><title>Node25&#45;&gt;Node17</title>
<path fill="none" stroke="midnightblue" d="M687.459,-418.117C625.101,-406.594 525.643,-388.216 467.699,-377.509"/>
<polygon fill="midnightblue" stroke="midnightblue" points="687.046,-421.6 697.515,-419.975 688.318,-414.716 687.046,-421.6"/>
</g>
<!-- Node26 -->
<g id="node26" class="node"><title>Node26</title>
<g id="a_node26"><a xlink:href="../../df/d12/_player_controller_system_8cpp.html" target="_top" xlink:title=" ">
<polygon fill="white" stroke="black" points="665.15,-358.5 665.15,-377.5 820.15,-377.5 820.15,-358.5 665.15,-358.5"/>
<text text-anchor="middle" x="742.65" y="-365.5" font-family="Helvetica,sans-Serif" font-size="10.00">src/PlayerControllerSystem.cpp</text>
</a>
</g>
</g>
<!-- Node25&#45;&gt;Node26 -->
<g id="edge34" class="edge"><title>Node25&#45;&gt;Node26</title>
<path fill="none" stroke="midnightblue" d="M743.336,-409.817C743.154,-398.996 742.934,-385.898 742.793,-377.509"/>
<polygon fill="midnightblue" stroke="midnightblue" points="739.839,-410.035 743.507,-419.975 746.838,-409.918 739.839,-410.035"/>
</g>
</g>
</svg>
