<?xml version="1.0" encoding="UTF-8" standalone="no"?>
<!DOCTYPE svg PUBLIC "-//W3C//DTD SVG 1.1//EN"
 "http://www.w3.org/Graphics/SVG/1.1/DTD/svg11.dtd">
<!-- Generated by graphviz version 2.38.0 (20140413.2041)
 -->
<!-- Title: src/Quad.h Pages: 1 -->
<svg width="1298pt" height="252pt"
 viewBox="0.00 0.00 1298.00 252.00" xmlns="http://www.w3.org/2000/svg" xmlns:xlink="http://www.w3.org/1999/xlink">
<g id="graph0" class="graph" transform="scale(1 1) rotate(0) translate(4 248)">
<title>src/Quad.h</title>
<polygon fill="white" stroke="none" points="-4,4 -4,-248 1294,-248 1294,4 -4,4"/>
<!-- Node1 -->
<g id="node1" class="node"><title>Node1</title>
<g id="a_node1"><a xlink:title=" ">
<polygon fill="#bfbfbf" stroke="black" points="663.5,-224.5 663.5,-243.5 728.5,-243.5 728.5,-224.5 663.5,-224.5"/>
<text text-anchor="middle" x="696" y="-231.5" font-family="Helvetica,sans-Serif" font-size="10.00">src/Quad.h</text>
</a>
</g>
</g>
<!-- Node2 -->
<g id="node2" class="node"><title>Node2</title>
<g id="a_node2"><a xlink:href="../../de/d50/_game_info_8h.html" target="_top" xlink:title=" ">
<polygon fill="white" stroke="black" points="612,-112.5 612,-131.5 678,-131.5 678,-112.5 612,-112.5"/>
<text text-anchor="middle" x="645" y="-119.5" font-family="Helvetica,sans-Serif" font-size="10.00">GameInfo.h</text>
</a>
</g>
</g>
<!-- Node1&#45;&gt;Node2 -->
<g id="edge1" class="edge"><title>Node1&#45;&gt;Node2</title>
<path fill="none" stroke="midnightblue" d="M691.998,-224.368C683.693,-206.456 664.437,-164.923 653.321,-140.948"/>
<polygon fill="midnightblue" stroke="midnightblue" points="656.365,-139.192 648.983,-131.591 650.014,-142.136 656.365,-139.192"/>
</g>
<!-- Node7 -->
<g id="node7" class="node"><title>Node7</title>
<g id="a_node7"><a xlink:href="../../d8/d34/_shader_8h.html" target="_top" xlink:title=" ">
<polygon fill="white" stroke="black" points="807,-168.5 807,-187.5 863,-187.5 863,-168.5 807,-168.5"/>
<text text-anchor="middle" x="835" y="-175.5" font-family="Helvetica,sans-Serif" font-size="10.00">Shader.h</text>
</a>
</g>
</g>
<!-- Node1&#45;&gt;Node7 -->
<g id="edge6" class="edge"><title>Node1&#45;&gt;Node7</title>
<path fill="none" stroke="midnightblue" d="M718.025,-224.444C741.104,-215.478 777.562,-201.314 803.641,-191.183"/>
<polygon fill="midnightblue" stroke="midnightblue" points="805.024,-194.4 813.078,-187.516 802.489,-187.875 805.024,-194.4"/>
</g>
<!-- Node14 -->
<g id="node14" class="node"><title>Node14</title>
<g id="a_node14"><a xlink:href="../../d2/d06/_shaders_8h.html" target="_top" xlink:title=" ">
<polygon fill="white" stroke="black" points="29.5,-112.5 29.5,-131.5 90.5,-131.5 90.5,-112.5 29.5,-112.5"/>
<text text-anchor="middle" x="60" y="-119.5" font-family="Helvetica,sans-Serif" font-size="10.00">Shaders.h</text>
</a>
</g>
</g>
<!-- Node1&#45;&gt;Node14 -->
<g id="edge26" class="edge"><title>Node1&#45;&gt;Node14</title>
<path fill="none" stroke="midnightblue" d="M663.279,-230.431C598.002,-225.006 447.112,-210.956 322,-188 242.004,-173.322 150.064,-148.674 99.136,-134.318"/>
<polygon fill="midnightblue" stroke="midnightblue" points="99.7871,-130.865 89.2116,-131.504 97.8776,-137.599 99.7871,-130.865"/>
</g>
<!-- Node15 -->
<g id="node15" class="node"><title>Node15</title>
<g id="a_node15"><a xlink:title=" ">
<polygon fill="white" stroke="#bfbfbf" points="0,-56.5 0,-75.5 60,-75.5 60,-56.5 0,-56.5"/>
<text text-anchor="middle" x="30" y="-63.5" font-family="Helvetica,sans-Serif" font-size="10.00">GL/glew.h</text>
</a>
</g>
</g>
<!-- Node1&#45;&gt;Node15 -->
<g id="edge43" class="edge"><title>Node1&#45;&gt;Node15</title>
<path fill="none" stroke="midnightblue" d="M663.329,-230.796C532.414,-221.623 50.8477,-184.489 10,-132 -0.825829,-118.089 7.77763,-98.2961 16.8304,-84.2134"/>
<polygon fill="midnightblue" stroke="midnightblue" points="19.7799,-86.103 22.6445,-75.9027 14.0442,-82.0902 19.7799,-86.103"/>
</g>
<!-- Node20 -->
<g id="node20" class="node"><title>Node20</title>
<g id="a_node20"><a xlink:href="../../de/dbf/_texture_8h.html" target="_top" xlink:title=" ">
<polygon fill="white" stroke="black" points="331.5,-168.5 331.5,-187.5 388.5,-187.5 388.5,-168.5 331.5,-168.5"/>
<text text-anchor="middle" x="360" y="-175.5" font-family="Helvetica,sans-Serif" font-size="10.00">Texture.h</text>
</a>
</g>
</g>
<!-- Node1&#45;&gt;Node20 -->
<g id="edge27" class="edge"><title>Node1&#45;&gt;Node20</title>
<path fill="none" stroke="midnightblue" d="M663.478,-227.773C601.258,-217.774 465.63,-195.976 398.8,-185.236"/>
<polygon fill="midnightblue" stroke="midnightblue" points="399.116,-181.742 388.687,-183.61 398.005,-188.653 399.116,-181.742"/>
</g>
<!-- Node26 -->
<g id="node26" class="node"><title>Node26</title>
<g id="a_node26"><a xlink:href="../../db/d56/_transform_8h.html" target="_top" xlink:title=" ">
<polygon fill="white" stroke="black" points="707,-168.5 707,-187.5 775,-187.5 775,-168.5 707,-168.5"/>
<text text-anchor="middle" x="741" y="-175.5" font-family="Helvetica,sans-Serif" font-size="10.00">Transform.h</text>
</a>
</g>
</g>
<!-- Node1&#45;&gt;Node26 -->
<g id="edge41" class="edge"><title>Node1&#45;&gt;Node26</title>
<path fill="none" stroke="midnightblue" d="M703.431,-224.083C709.853,-216.377 719.306,-205.033 727.122,-195.653"/>
<polygon fill="midnightblue" stroke="midnightblue" points="729.994,-197.674 733.707,-187.751 724.617,-193.193 729.994,-197.674"/>
</g>
<!-- Node27 -->
<g id="node27" class="node"><title>Node27</title>
<g id="a_node27"><a xlink:title=" ">
<polygon fill="white" stroke="#bfbfbf" points="881,-168.5 881,-187.5 987,-187.5 987,-168.5 881,-168.5"/>
<text text-anchor="middle" x="934" y="-175.5" font-family="Helvetica,sans-Serif" font-size="10.00">glm/gtc/type_ptr.hpp</text>
</a>
</g>
</g>
<!-- Node1&#45;&gt;Node27 -->
<g id="edge44" class="edge"><title>Node1&#45;&gt;Node27</title>
<path fill="none" stroke="midnightblue" d="M728.594,-225.605C769.394,-216.347 839.597,-200.419 886.407,-189.798"/>
<polygon fill="midnightblue" stroke="midnightblue" points="887.335,-193.177 896.313,-187.551 885.786,-186.35 887.335,-193.177"/>
</g>
<!-- Node28 -->
<g id="node28" class="node"><title>Node28</title>
<g id="a_node28"><a xlink:title=" ">
<polygon fill="white" stroke="#bfbfbf" points="1005.5,-168.5 1005.5,-187.5 1116.5,-187.5 1116.5,-168.5 1005.5,-168.5"/>
<text text-anchor="middle" x="1061" y="-175.5" font-family="Helvetica,sans-Serif" font-size="10.00">glm/gtx/transform.hpp</text>
</a>
</g>
</g>
<!-- Node1&#45;&gt;Node28 -->
<g id="edge45" class="edge"><title>Node1&#45;&gt;Node28</title>
<path fill="none" stroke="midnightblue" d="M728.713,-228.16C788.496,-219.316 916.458,-200.384 994.986,-188.767"/>
<polygon fill="midnightblue" stroke="midnightblue" points="995.873,-192.173 1005.25,-187.247 994.849,-185.249 995.873,-192.173"/>
</g>
<!-- Node3 -->
<g id="node3" class="node"><title>Node3</title>
<g id="a_node3"><a xlink:title=" ">
<polygon fill="white" stroke="#bfbfbf" points="590.5,-56.5 590.5,-75.5 717.5,-75.5 717.5,-56.5 590.5,-56.5"/>
<text text-anchor="middle" x="654" y="-63.5" font-family="Helvetica,sans-Serif" font-size="10.00">LinearMath/btTransform.h</text>
</a>
</g>
</g>
<!-- Node2&#45;&gt;Node3 -->
<g id="edge2" class="edge"><title>Node2&#45;&gt;Node3</title>
<path fill="none" stroke="midnightblue" d="M646.486,-112.083C647.679,-104.927 649.394,-94.6353 650.885,-85.6911"/>
<polygon fill="midnightblue" stroke="midnightblue" points="654.35,-86.1904 652.541,-75.7511 647.445,-85.0396 654.35,-86.1904"/>
</g>
<!-- Node4 -->
<g id="node4" class="node"><title>Node4</title>
<g id="a_node4"><a xlink:title=" ">
<polygon fill="white" stroke="#bfbfbf" points="1060,-56.5 1060,-75.5 1134,-75.5 1134,-56.5 1060,-56.5"/>
<text text-anchor="middle" x="1097" y="-63.5" font-family="Helvetica,sans-Serif" font-size="10.00">glm/vec3.hpp</text>
</a>
</g>
</g>
<!-- Node2&#45;&gt;Node4 -->
<g id="edge3" class="edge"><title>Node2&#45;&gt;Node4</title>
<path fill="none" stroke="midnightblue" d="M678.413,-113.519C681.31,-112.968 684.203,-112.452 687,-112 817.474,-90.9167 972.93,-76.8433 1049.52,-70.631"/>
<polygon fill="midnightblue" stroke="midnightblue" points="1050.11,-74.0954 1059.8,-69.8067 1049.55,-67.1178 1050.11,-74.0954"/>
</g>
<!-- Node5 -->
<g id="node5" class="node"><title>Node5</title>
<g id="a_node5"><a xlink:title=" ">
<polygon fill="white" stroke="#bfbfbf" points="498,-56.5 498,-75.5 572,-75.5 572,-56.5 498,-56.5"/>
<text text-anchor="middle" x="535" y="-63.5" font-family="Helvetica,sans-Serif" font-size="10.00">glm/vec4.hpp</text>
</a>
</g>
</g>
<!-- Node2&#45;&gt;Node5 -->
<g id="edge4" class="edge"><title>Node2&#45;&gt;Node5</title>
<path fill="none" stroke="midnightblue" d="M627.327,-112.324C609.606,-103.625 582.097,-90.1202 561.712,-80.113"/>
<polygon fill="midnightblue" stroke="midnightblue" points="563.149,-76.9195 552.63,-75.6545 560.064,-83.2031 563.149,-76.9195"/>
</g>
<!-- Node6 -->
<g id="node6" class="node"><title>Node6</title>
<g id="a_node6"><a xlink:title=" ">
<polygon fill="white" stroke="#bfbfbf" points="351.5,-56.5 351.5,-75.5 392.5,-75.5 392.5,-56.5 351.5,-56.5"/>
<text text-anchor="middle" x="372" y="-63.5" font-family="Helvetica,sans-Serif" font-size="10.00">string</text>
</a>
</g>
</g>
<!-- Node2&#45;&gt;Node6 -->
<g id="edge5" class="edge"><title>Node2&#45;&gt;Node6</title>
<path fill="none" stroke="midnightblue" d="M611.836,-114.653C567.109,-106.061 484.987,-90.1701 415,-76 410.994,-75.1888 406.78,-74.3229 402.622,-73.4606"/>
<polygon fill="midnightblue" stroke="midnightblue" points="403.053,-69.9751 392.548,-71.3581 401.622,-76.8275 403.053,-69.9751"/>
</g>
<!-- Node7&#45;&gt;Node4 -->
<g id="edge22" class="edge"><title>Node7&#45;&gt;Node4</title>
<path fill="none" stroke="midnightblue" d="M863.238,-169.929C866.191,-169.25 869.153,-168.594 872,-168 962.982,-149.006 1008.72,-193.961 1078,-132 1090.99,-120.383 1095.31,-100.429 1096.64,-85.6859"/>
<polygon fill="midnightblue" stroke="midnightblue" points="1100.14,-85.8233 1097.17,-75.652 1093.15,-85.4527 1100.14,-85.8233"/>
</g>
<!-- Node7&#45;&gt;Node6 -->
<g id="edge24" class="edge"><title>Node7&#45;&gt;Node6</title>
<path fill="none" stroke="midnightblue" d="M806.955,-171.971C799.498,-170.656 791.447,-169.255 784,-168 684.57,-151.238 655.653,-163.902 560,-132 541.895,-125.962 539.667,-119.22 522,-112 481.751,-95.5512 433.252,-82.0924 402.518,-74.3069"/>
<polygon fill="midnightblue" stroke="midnightblue" points="403.363,-70.9106 392.813,-71.888 401.67,-77.7028 403.363,-70.9106"/>
</g>
<!-- Node8 -->
<g id="node8" class="node"><title>Node8</title>
<g id="a_node8"><a xlink:href="../../dc/d20/_component_8h.html" target="_top" xlink:title=" ">
<polygon fill="white" stroke="black" points="1216,-56.5 1216,-75.5 1290,-75.5 1290,-56.5 1216,-56.5"/>
<text text-anchor="middle" x="1253" y="-63.5" font-family="Helvetica,sans-Serif" font-size="10.00">Component.h</text>
</a>
</g>
</g>
<!-- Node7&#45;&gt;Node8 -->
<g id="edge7" class="edge"><title>Node7&#45;&gt;Node8</title>
<path fill="none" stroke="midnightblue" d="M863.194,-169.691C866.155,-169.059 869.131,-168.479 872,-168 914.924,-160.838 1232.68,-164.155 1262,-132 1273.37,-119.537 1268.57,-99.7468 1262.51,-85.2746"/>
<polygon fill="midnightblue" stroke="midnightblue" points="1265.51,-83.4192 1258.09,-75.8571 1259.17,-86.3963 1265.51,-83.4192"/>
</g>
<!-- Node10 -->
<g id="node10" class="node"><title>Node10</title>
<g id="a_node10"><a xlink:href="../../d0/d4b/_debug_8h.html" target="_top" xlink:title=" ">
<polygon fill="white" stroke="black" points="426.5,-112.5 426.5,-131.5 479.5,-131.5 479.5,-112.5 426.5,-112.5"/>
<text text-anchor="middle" x="453" y="-119.5" font-family="Helvetica,sans-Serif" font-size="10.00">Debug.h</text>
</a>
</g>
</g>
<!-- Node7&#45;&gt;Node10 -->
<g id="edge9" class="edge"><title>Node7&#45;&gt;Node10</title>
<path fill="none" stroke="midnightblue" d="M806.984,-171.79C799.527,-170.476 791.469,-169.122 784,-168 655.563,-148.708 622.01,-153.947 494,-132 492.707,-131.778 491.393,-131.543 490.068,-131.298"/>
<polygon fill="midnightblue" stroke="midnightblue" points="490.327,-127.781 479.836,-129.264 488.962,-134.647 490.327,-127.781"/>
</g>
<!-- Node11 -->
<g id="node11" class="node"><title>Node11</title>
<g id="a_node11"><a xlink:href="../../d5/d31/_lights_8h.html" target="_top" xlink:title=" ">
<polygon fill="white" stroke="black" points="1125.5,-112.5 1125.5,-131.5 1176.5,-131.5 1176.5,-112.5 1125.5,-112.5"/>
<text text-anchor="middle" x="1151" y="-119.5" font-family="Helvetica,sans-Serif" font-size="10.00">Lights.h</text>
</a>
</g>
</g>
<!-- Node7&#45;&gt;Node11 -->
<g id="edge10" class="edge"><title>Node7&#45;&gt;Node11</title>
<path fill="none" stroke="midnightblue" d="M863.225,-169.86C866.18,-169.195 869.146,-168.561 872,-168 977.404,-147.285 1005.42,-151.803 1111,-132 1112.44,-131.729 1113.91,-131.444 1115.4,-131.148"/>
<polygon fill="midnightblue" stroke="midnightblue" points="1116.17,-134.562 1125.24,-129.083 1114.73,-127.712 1116.17,-134.562"/>
</g>
<!-- Node12 -->
<g id="node12" class="node"><title>Node12</title>
<g id="a_node12"><a xlink:href="../../d3/d09/_material_8h.html" target="_top" xlink:title=" ">
<polygon fill="white" stroke="black" points="1194.5,-112.5 1194.5,-131.5 1253.5,-131.5 1253.5,-112.5 1194.5,-112.5"/>
<text text-anchor="middle" x="1224" y="-119.5" font-family="Helvetica,sans-Serif" font-size="10.00">Material.h</text>
</a>
</g>
</g>
<!-- Node7&#45;&gt;Node12 -->
<g id="edge12" class="edge"><title>Node7&#45;&gt;Node12</title>
<path fill="none" stroke="midnightblue" d="M863.205,-169.757C866.164,-169.112 869.136,-168.511 872,-168 1006.62,-143.981 1045.21,-155.221 1184.08,-131.961"/>
<polygon fill="midnightblue" stroke="midnightblue" points="1184.99,-135.357 1194.26,-130.226 1183.81,-128.457 1184.99,-135.357"/>
</g>
<!-- Node13 -->
<g id="node13" class="node"><title>Node13</title>
<g id="a_node13"><a xlink:href="../../d4/d4a/_settings_8h.html" target="_top" xlink:title=" ">
<polygon fill="white" stroke="black" points="870.5,-112.5 870.5,-131.5 931.5,-131.5 931.5,-112.5 870.5,-112.5"/>
<text text-anchor="middle" x="901" y="-119.5" font-family="Helvetica,sans-Serif" font-size="10.00">Settings.h</text>
</a>
</g>
</g>
<!-- Node7&#45;&gt;Node13 -->
<g id="edge15" class="edge"><title>Node7&#45;&gt;Node13</title>
<path fill="none" stroke="midnightblue" d="M845.604,-168.324C855.456,-160.263 870.351,-148.077 882.215,-138.369"/>
<polygon fill="midnightblue" stroke="midnightblue" points="884.68,-140.875 890.203,-131.834 880.247,-135.457 884.68,-140.875"/>
</g>
<!-- Node7&#45;&gt;Node14 -->
<g id="edge16" class="edge"><title>Node7&#45;&gt;Node14</title>
<path fill="none" stroke="midnightblue" d="M806.765,-171.384C799.382,-170.089 791.414,-168.846 784,-168 484.354,-133.816 402.645,-173.565 100.484,-131.967"/>
<polygon fill="midnightblue" stroke="midnightblue" points="100.95,-128.498 90.5626,-130.583 99.9831,-135.431 100.95,-128.498"/>
</g>
<!-- Node7&#45;&gt;Node15 -->
<g id="edge19" class="edge"><title>Node7&#45;&gt;Node15</title>
<path fill="none" stroke="midnightblue" d="M806.974,-171.856C799.517,-170.542 791.461,-169.171 784,-168 667.882,-149.783 633.038,-170.547 522,-132 505.438,-126.25 504.67,-117.429 488,-112 410.748,-86.8418 167.182,-73.256 70.31,-68.7335"/>
<polygon fill="midnightblue" stroke="midnightblue" points="70.2004,-65.2249 60.0506,-68.263 69.8797,-72.2176 70.2004,-65.2249"/>
</g>
<!-- Node16 -->
<g id="node16" class="node"><title>Node16</title>
<g id="a_node16"><a xlink:title=" ">
<polygon fill="white" stroke="#bfbfbf" points="424,-56.5 424,-75.5 480,-75.5 480,-56.5 424,-56.5"/>
<text text-anchor="middle" x="452" y="-63.5" font-family="Helvetica,sans-Serif" font-size="10.00">algorithm</text>
</a>
</g>
</g>
<!-- Node7&#45;&gt;Node16 -->
<g id="edge20" class="edge"><title>Node7&#45;&gt;Node16</title>
<path fill="none" stroke="midnightblue" d="M806.774,-171.924C749.245,-161.52 622.222,-138.231 603,-132 582.95,-125.501 579.287,-120.499 560,-112 534.048,-100.564 504.28,-88.217 482.578,-79.3544"/>
<polygon fill="midnightblue" stroke="midnightblue" points="483.798,-76.0723 473.216,-75.5433 481.159,-82.5556 483.798,-76.0723"/>
</g>
<!-- Node17 -->
<g id="node17" class="node"><title>Node17</title>
<g id="a_node17"><a xlink:title=" ">
<polygon fill="white" stroke="#bfbfbf" points="949.5,-112.5 949.5,-131.5 998.5,-131.5 998.5,-112.5 949.5,-112.5"/>
<text text-anchor="middle" x="974" y="-119.5" font-family="Helvetica,sans-Serif" font-size="10.00">fstream</text>
</a>
</g>
</g>
<!-- Node7&#45;&gt;Node17 -->
<g id="edge21" class="edge"><title>Node7&#45;&gt;Node17</title>
<path fill="none" stroke="midnightblue" d="M857.025,-168.444C880.104,-159.478 916.562,-145.314 942.641,-135.183"/>
<polygon fill="midnightblue" stroke="midnightblue" points="944.024,-138.4 952.078,-131.516 941.489,-131.875 944.024,-138.4"/>
</g>
<!-- Node18 -->
<g id="node18" class="node"><title>Node18</title>
<g id="a_node18"><a xlink:title=" ">
<polygon fill="white" stroke="#bfbfbf" points="1017,-112.5 1017,-131.5 1069,-131.5 1069,-112.5 1017,-112.5"/>
<text text-anchor="middle" x="1043" y="-119.5" font-family="Helvetica,sans-Serif" font-size="10.00">sstream</text>
</a>
</g>
</g>
<!-- Node7&#45;&gt;Node18 -->
<g id="edge23" class="edge"><title>Node7&#45;&gt;Node18</title>
<path fill="none" stroke="midnightblue" d="M863.052,-169.717C900.262,-160.057 965.993,-142.992 1006.88,-132.378"/>
<polygon fill="midnightblue" stroke="midnightblue" points="1007.9,-135.728 1016.7,-129.827 1006.14,-128.952 1007.9,-135.728"/>
</g>
<!-- Node19 -->
<g id="node19" class="node"><title>Node19</title>
<g id="a_node19"><a xlink:title=" ">
<polygon fill="white" stroke="#bfbfbf" points="870,-56.5 870,-75.5 912,-75.5 912,-56.5 870,-56.5"/>
<text text-anchor="middle" x="891" y="-63.5" font-family="Helvetica,sans-Serif" font-size="10.00">vector</text>
</a>
</g>
</g>
<!-- Node7&#45;&gt;Node19 -->
<g id="edge25" class="edge"><title>Node7&#45;&gt;Node19</title>
<path fill="none" stroke="midnightblue" d="M837.821,-168.335C842.099,-155.631 850.815,-131.362 861,-112 866.082,-102.34 872.734,-92.1736 878.483,-83.953"/>
<polygon fill="midnightblue" stroke="midnightblue" points="881.47,-85.7939 884.458,-75.6291 875.784,-81.7119 881.47,-85.7939"/>
</g>
<!-- Node9 -->
<g id="node9" class="node"><title>Node9</title>
<g id="a_node9"><a xlink:title=" ">
<polygon fill="white" stroke="#bfbfbf" points="1228.5,-0.5 1228.5,-19.5 1277.5,-19.5 1277.5,-0.5 1228.5,-0.5"/>
<text text-anchor="middle" x="1253" y="-7.5" font-family="Helvetica,sans-Serif" font-size="10.00">stdint.h</text>
</a>
</g>
</g>
<!-- Node8&#45;&gt;Node9 -->
<g id="edge8" class="edge"><title>Node8&#45;&gt;Node9</title>
<path fill="none" stroke="midnightblue" d="M1253,-56.083C1253,-49.0059 1253,-38.8611 1253,-29.9865"/>
<polygon fill="midnightblue" stroke="midnightblue" points="1256.5,-29.751 1253,-19.7511 1249.5,-29.7511 1256.5,-29.751"/>
</g>
<!-- Node11&#45;&gt;Node4 -->
<g id="edge11" class="edge"><title>Node11&#45;&gt;Node4</title>
<path fill="none" stroke="midnightblue" d="M1142.08,-112.083C1134.22,-104.22 1122.57,-92.5688 1113.08,-83.0813"/>
<polygon fill="midnightblue" stroke="midnightblue" points="1115.3,-80.3473 1105.75,-75.7511 1110.35,-85.2971 1115.3,-80.3473"/>
</g>
<!-- Node12&#45;&gt;Node4 -->
<g id="edge14" class="edge"><title>Node12&#45;&gt;Node4</title>
<path fill="none" stroke="midnightblue" d="M1203.88,-112.444C1182.98,-103.557 1150.07,-89.5632 1126.28,-79.4514"/>
<polygon fill="midnightblue" stroke="midnightblue" points="1127.6,-76.2085 1117.03,-75.5164 1124.86,-82.6504 1127.6,-76.2085"/>
</g>
<!-- Node12&#45;&gt;Node8 -->
<g id="edge13" class="edge"><title>Node12&#45;&gt;Node8</title>
<path fill="none" stroke="midnightblue" d="M1228.79,-112.083C1232.76,-104.691 1238.53,-93.9533 1243.43,-84.8111"/>
<polygon fill="midnightblue" stroke="midnightblue" points="1246.65,-86.217 1248.3,-75.7511 1240.49,-82.9051 1246.65,-86.217"/>
</g>
<!-- Node14&#45;&gt;Node6 -->
<g id="edge18" class="edge"><title>Node14&#45;&gt;Node6</title>
<path fill="none" stroke="midnightblue" d="M90.6174,-113.741C93.4464,-113.129 96.2732,-112.539 99,-112 186.55,-94.7005 290.808,-78.81 341.413,-71.3946"/>
<polygon fill="midnightblue" stroke="midnightblue" points="341.981,-74.8488 351.372,-69.9434 340.971,-67.922 341.981,-74.8488"/>
</g>
<!-- Node14&#45;&gt;Node15 -->
<g id="edge17" class="edge"><title>Node14&#45;&gt;Node15</title>
<path fill="none" stroke="midnightblue" d="M55.0461,-112.083C50.8959,-104.613 44.8469,-93.7244 39.7333,-84.5199"/>
<polygon fill="midnightblue" stroke="midnightblue" points="42.7777,-82.7929 34.8617,-75.7511 36.6586,-86.1924 42.7777,-82.7929"/>
</g>
<!-- Node20&#45;&gt;Node6 -->
<g id="edge33" class="edge"><title>Node20&#45;&gt;Node6</title>
<path fill="none" stroke="midnightblue" d="M360.942,-168.368C362.878,-150.617 367.345,-109.666 369.971,-85.5974"/>
<polygon fill="midnightblue" stroke="midnightblue" points="373.458,-85.912 371.063,-75.5914 366.499,-85.1528 373.458,-85.912"/>
</g>
<!-- Node20&#45;&gt;Node10 -->
<g id="edge34" class="edge"><title>Node20&#45;&gt;Node10</title>
<path fill="none" stroke="midnightblue" d="M374.942,-168.324C389.585,-159.822 412.134,-146.729 429.238,-136.797"/>
<polygon fill="midnightblue" stroke="midnightblue" points="431.205,-139.703 438.095,-131.655 427.69,-133.649 431.205,-139.703"/>
</g>
<!-- Node20&#45;&gt;Node15 -->
<g id="edge28" class="edge"><title>Node20&#45;&gt;Node15</title>
<path fill="none" stroke="midnightblue" d="M331.34,-175.338C253.125,-170.512 40.4558,-155.342 20,-132 8.85812,-119.286 13.9496,-99.5358 20.2237,-85.1411"/>
<polygon fill="midnightblue" stroke="midnightblue" points="23.5497,-86.3058 24.7861,-75.7833 17.2577,-83.2381 23.5497,-86.3058"/>
</g>
<!-- Node20&#45;&gt;Node16 -->
<g id="edge31" class="edge"><title>Node20&#45;&gt;Node16</title>
<path fill="none" stroke="midnightblue" d="M367.219,-168.368C382.536,-150.055 418.505,-107.049 438.315,-83.3624"/>
<polygon fill="midnightblue" stroke="midnightblue" points="441.084,-85.5077 444.814,-75.5914 435.714,-81.0168 441.084,-85.5077"/>
</g>
<!-- Node21 -->
<g id="node21" class="node"><title>Node21</title>
<g id="a_node21"><a xlink:title=" ">
<polygon fill="white" stroke="#bfbfbf" points="108.5,-112.5 108.5,-131.5 183.5,-131.5 183.5,-112.5 108.5,-112.5"/>
<text text-anchor="middle" x="146" y="-119.5" font-family="Helvetica,sans-Serif" font-size="10.00">SDL_image.h</text>
</a>
</g>
</g>
<!-- Node20&#45;&gt;Node21 -->
<g id="edge29" class="edge"><title>Node20&#45;&gt;Node21</title>
<path fill="none" stroke="midnightblue" d="M331.139,-169.717C294.806,-160.549 232.042,-144.712 189.785,-134.049"/>
<polygon fill="midnightblue" stroke="midnightblue" points="190.594,-130.643 180.042,-131.59 188.882,-137.43 190.594,-130.643"/>
</g>
<!-- Node22 -->
<g id="node22" class="node"><title>Node22</title>
<g id="a_node22"><a xlink:title=" ">
<polygon fill="white" stroke="#bfbfbf" points="201.5,-112.5 201.5,-131.5 278.5,-131.5 278.5,-112.5 201.5,-112.5"/>
<text text-anchor="middle" x="240" y="-119.5" font-family="Helvetica,sans-Serif" font-size="10.00">SDL_opengl.h</text>
</a>
</g>
</g>
<!-- Node20&#45;&gt;Node22 -->
<g id="edge30" class="edge"><title>Node20&#45;&gt;Node22</title>
<path fill="none" stroke="midnightblue" d="M340.986,-168.444C321.412,-159.636 290.692,-145.812 268.271,-135.722"/>
<polygon fill="midnightblue" stroke="midnightblue" points="269.481,-132.428 258.925,-131.516 266.608,-138.812 269.481,-132.428"/>
</g>
<!-- Node23 -->
<g id="node23" class="node"><title>Node23</title>
<g id="a_node23"><a xlink:title=" ">
<polygon fill="white" stroke="#bfbfbf" points="296.5,-112.5 296.5,-131.5 331.5,-131.5 331.5,-112.5 296.5,-112.5"/>
<text text-anchor="middle" x="314" y="-119.5" font-family="Helvetica,sans-Serif" font-size="10.00">map</text>
</a>
</g>
</g>
<!-- Node20&#45;&gt;Node23 -->
<g id="edge32" class="edge"><title>Node20&#45;&gt;Node23</title>
<path fill="none" stroke="midnightblue" d="M352.404,-168.083C345.773,-160.298 335.979,-148.801 327.942,-139.367"/>
<polygon fill="midnightblue" stroke="midnightblue" points="330.604,-137.094 321.455,-131.751 325.275,-141.633 330.604,-137.094"/>
</g>
<!-- Node24 -->
<g id="node24" class="node"><title>Node24</title>
<g id="a_node24"><a xlink:href="../../d7/d26/_helping_hand_8h.html" target="_top" xlink:title=" ">
<polygon fill="white" stroke="black" points="696,-112.5 696,-131.5 776,-131.5 776,-112.5 696,-112.5"/>
<text text-anchor="middle" x="736" y="-119.5" font-family="Helvetica,sans-Serif" font-size="10.00">HelpingHand.h</text>
</a>
</g>
</g>
<!-- Node20&#45;&gt;Node24 -->
<g id="edge35" class="edge"><title>Node20&#45;&gt;Node24</title>
<path fill="none" stroke="midnightblue" d="M388.935,-173.461C444.425,-166.58 569.861,-150.566 685.803,-132.132"/>
<polygon fill="midnightblue" stroke="midnightblue" points="686.592,-135.55 695.914,-130.514 685.487,-128.638 686.592,-135.55"/>
</g>
<!-- Node24&#45;&gt;Node3 -->
<g id="edge36" class="edge"><title>Node24&#45;&gt;Node3</title>
<path fill="none" stroke="midnightblue" d="M722.825,-112.324C710.153,-103.979 690.767,-91.2122 675.794,-81.3524"/>
<polygon fill="midnightblue" stroke="midnightblue" points="677.419,-78.2313 667.142,-75.6545 673.569,-84.0776 677.419,-78.2313"/>
</g>
<!-- Node24&#45;&gt;Node4 -->
<g id="edge39" class="edge"><title>Node24&#45;&gt;Node4</title>
<path fill="none" stroke="midnightblue" d="M776.013,-115.015C843.114,-104.977 978.004,-84.7999 1049.69,-74.0763"/>
<polygon fill="midnightblue" stroke="midnightblue" points="1050.42,-77.5061 1059.8,-72.5651 1049.39,-70.5831 1050.42,-77.5061"/>
</g>
<!-- Node24&#45;&gt;Node16 -->
<g id="edge37" class="edge"><title>Node24&#45;&gt;Node16</title>
<path fill="none" stroke="midnightblue" d="M695.89,-113.627C692.882,-113.076 689.893,-112.529 687,-112 602.108,-96.4863 578.157,-94.6906 490.127,-76.1461"/>
<polygon fill="midnightblue" stroke="midnightblue" points="490.751,-72.7008 480.243,-74.0508 489.299,-79.5486 490.751,-72.7008"/>
</g>
<!-- Node24&#45;&gt;Node19 -->
<g id="edge40" class="edge"><title>Node24&#45;&gt;Node19</title>
<path fill="none" stroke="midnightblue" d="M760.56,-112.444C787.439,-103.079 830.591,-88.0456 859.835,-77.8574"/>
<polygon fill="midnightblue" stroke="midnightblue" points="861.258,-81.0682 869.55,-74.473 858.955,-74.4578 861.258,-81.0682"/>
</g>
<!-- Node25 -->
<g id="node25" class="node"><title>Node25</title>
<g id="a_node25"><a xlink:title=" ">
<polygon fill="white" stroke="#bfbfbf" points="736,-56.5 736,-75.5 852,-75.5 852,-56.5 736,-56.5"/>
<text text-anchor="middle" x="794" y="-63.5" font-family="Helvetica,sans-Serif" font-size="10.00">glm/gtc/quaternion.hpp</text>
</a>
</g>
</g>
<!-- Node24&#45;&gt;Node25 -->
<g id="edge38" class="edge"><title>Node24&#45;&gt;Node25</title>
<path fill="none" stroke="midnightblue" d="M745.319,-112.324C753.893,-104.341 766.812,-92.3128 777.188,-82.6529"/>
<polygon fill="midnightblue" stroke="midnightblue" points="779.578,-85.2098 784.512,-75.8339 774.808,-80.0865 779.578,-85.2098"/>
</g>
<!-- Node26&#45;&gt;Node25 -->
<g id="edge42" class="edge"><title>Node26&#45;&gt;Node25</title>
<path fill="none" stroke="midnightblue" d="M752.861,-168.457C763.174,-160.324 777.592,-147.108 785,-132 792.053,-117.616 794.073,-99.4207 794.461,-85.9421"/>
<polygon fill="midnightblue" stroke="midnightblue" points="797.961,-85.9225 794.478,-75.9166 790.961,-85.9106 797.961,-85.9225"/>
</g>
</g>
</svg>
