<?xml version="1.0" encoding="UTF-8" standalone="no"?>
<!DOCTYPE svg PUBLIC "-//W3C//DTD SVG 1.1//EN"
 "http://www.w3.org/Graphics/SVG/1.1/DTD/svg11.dtd">
<!-- Generated by graphviz version 2.38.0 (20140413.2041)
 -->
<!-- Title: Component&lt; T &gt; Pages: 1 -->
<svg width="721pt" height="859pt"
 viewBox="0.00 0.00 721.00 858.62" xmlns="http://www.w3.org/2000/svg" xmlns:xlink="http://www.w3.org/1999/xlink">
<g id="graph0" class="graph" transform="scale(1 1) rotate(0) translate(4 854.615)">
<title>Component&lt; T &gt;</title>
<polygon fill="white" stroke="none" points="-4,4 -4,-854.615 717,-854.615 717,4 -4,4"/>
<!-- Node1 -->
<g id="node1" class="node"><title>Node1</title>
<g id="a_node1"><a xlink:title=" ">
<polygon fill="#bfbfbf" stroke="black" points="140,-416.115 140,-435.115 229,-435.115 229,-416.115 140,-416.115"/>
<text text-anchor="middle" x="184.5" y="-423.115" font-family="Helvetica,sans-Serif" font-size="10.00">Component&lt; T &gt;</text>
</a>
</g>
</g>
<!-- Node3 -->
<g id="node3" class="node"><title>Node3</title>
<g id="a_node3"><a xlink:href="../../d2/d00/class_component.html" target="_top" xlink:title=" ">
<polygon fill="white" stroke="black" points="398,-816.115 398,-835.115 543,-835.115 543,-816.115 398,-816.115"/>
<text text-anchor="middle" x="470.5" y="-823.115" font-family="Helvetica,sans-Serif" font-size="10.00">Component&lt; CollisionMesh &gt;</text>
</a>
</g>
</g>
<!-- Node1&#45;&gt;Node3 -->
<g id="edge2" class="edge"><title>Node1&#45;&gt;Node3</title>
<path fill="none" stroke="orange" stroke-dasharray="5,2" d="M185.728,-445.254C186.974,-515.281 195.023,-751.207 247,-800.615 293.487,-844.804 372.48,-842.416 422.766,-835.135"/>
<polygon fill="orange" stroke="orange" points="189.226,-445.108 185.577,-435.161 182.227,-445.213 189.226,-445.108"/>
<text text-anchor="middle" x="305" y="-842.615" font-family="Helvetica,sans-Serif" font-size="10.00"> &lt; CollisionMesh &gt;</text>
</g>
<!-- Node5 -->
<g id="node5" class="node"><title>Node5</title>
<g id="a_node5"><a xlink:href="../../d2/d00/class_component.html" target="_top" xlink:title=" ">
<polygon fill="white" stroke="black" points="396,-778.115 396,-797.115 545,-797.115 545,-778.115 396,-778.115"/>
<text text-anchor="middle" x="470.5" y="-785.115" font-family="Helvetica,sans-Serif" font-size="10.00">Component&lt; SimpleMaterial &gt;</text>
</a>
</g>
</g>
<!-- Node1&#45;&gt;Node5 -->
<g id="edge4" class="edge"><title>Node1&#45;&gt;Node5</title>
<path fill="none" stroke="orange" stroke-dasharray="5,2" d="M186.128,-445.343C188.644,-510.775 200.249,-718.967 247,-762.615 268.097,-782.312 339.587,-787.569 395.908,-788.512"/>
<polygon fill="orange" stroke="orange" points="189.62,-445.037 185.768,-435.167 182.624,-445.285 189.62,-445.037"/>
<text text-anchor="middle" x="305" y="-790.615" font-family="Helvetica,sans-Serif" font-size="10.00"> &lt; SimpleMaterial &gt;</text>
</g>
<!-- Node7 -->
<g id="node7" class="node"><title>Node7</title>
<g id="a_node7"><a xlink:href="../../d2/d00/class_component.html" target="_top" xlink:title=" ">
<polygon fill="white" stroke="black" points="413,-740.115 413,-759.115 528,-759.115 528,-740.115 413,-740.115"/>
<text text-anchor="middle" x="470.5" y="-747.115" font-family="Helvetica,sans-Serif" font-size="10.00">Component&lt; Shader &gt;</text>
</a>
</g>
</g>
<!-- Node1&#45;&gt;Node7 -->
<g id="edge6" class="edge"><title>Node1&#45;&gt;Node7</title>
<path fill="none" stroke="orange" stroke-dasharray="5,2" d="M186.632,-445.449C190.518,-506.006 205.451,-686.683 247,-724.615 270.504,-746.073 354.976,-750.309 412.802,-750.575"/>
<polygon fill="orange" stroke="orange" points="190.115,-445.076 186.014,-435.308 183.128,-445.502 190.115,-445.076"/>
<text text-anchor="middle" x="305" y="-752.615" font-family="Helvetica,sans-Serif" font-size="10.00"> &lt; Shader &gt;</text>
</g>
<!-- Node9 -->
<g id="node9" class="node"><title>Node9</title>
<g id="a_node9"><a xlink:href="../../d2/d00/class_component.html" target="_top" xlink:title=" ">
<polygon fill="white" stroke="black" points="381,-702.115 381,-721.115 560,-721.115 560,-702.115 381,-702.115"/>
<text text-anchor="middle" x="470.5" y="-709.115" font-family="Helvetica,sans-Serif" font-size="10.00">Component&lt; PlayerCameraHandler &gt;</text>
</a>
</g>
</g>
<!-- Node1&#45;&gt;Node9 -->
<g id="edge8" class="edge"><title>Node1&#45;&gt;Node9</title>
<path fill="none" stroke="orange" stroke-dasharray="5,2" d="M187.268,-445.414C192.625,-500.616 210.586,-654.312 247,-686.615 266.665,-704.059 327.656,-710.049 380.817,-711.819"/>
<polygon fill="orange" stroke="orange" points="190.73,-444.839 186.314,-435.208 183.76,-445.49 190.73,-444.839"/>
<text text-anchor="middle" x="305" y="-714.615" font-family="Helvetica,sans-Serif" font-size="10.00"> &lt; PlayerCameraHandler &gt;</text>
</g>
<!-- Node11 -->
<g id="node11" class="node"><title>Node11</title>
<g id="a_node11"><a xlink:href="../../d2/d00/class_component.html" target="_top" xlink:title=" ">
<polygon fill="white" stroke="black" points="402.5,-664.115 402.5,-683.115 538.5,-683.115 538.5,-664.115 402.5,-664.115"/>
<text text-anchor="middle" x="470.5" y="-671.115" font-family="Helvetica,sans-Serif" font-size="10.00">Component&lt; PauseMenu &gt;</text>
</a>
</g>
</g>
<!-- Node1&#45;&gt;Node11 -->
<g id="edge10" class="edge"><title>Node1&#45;&gt;Node11</title>
<path fill="none" stroke="orange" stroke-dasharray="5,2" d="M188.12,-445.436C195.085,-494.929 215.692,-621.879 247,-648.615 269.724,-668.021 345.409,-673.135 402.243,-674.124"/>
<polygon fill="orange" stroke="orange" points="191.565,-444.798 186.742,-435.364 184.63,-445.746 191.565,-444.798"/>
<text text-anchor="middle" x="305" y="-676.615" font-family="Helvetica,sans-Serif" font-size="10.00"> &lt; PauseMenu &gt;</text>
</g>
<!-- Node13 -->
<g id="node13" class="node"><title>Node13</title>
<g id="a_node13"><a xlink:href="../../d2/d00/class_component.html" target="_top" xlink:title=" ">
<polygon fill="white" stroke="black" points="405.5,-626.115 405.5,-645.115 535.5,-645.115 535.5,-626.115 405.5,-626.115"/>
<text text-anchor="middle" x="470.5" y="-633.115" font-family="Helvetica,sans-Serif" font-size="10.00">Component&lt; RayCaster &gt;</text>
</a>
</g>
</g>
<!-- Node1&#45;&gt;Node13 -->
<g id="edge12" class="edge"><title>Node1&#45;&gt;Node13</title>
<path fill="none" stroke="orange" stroke-dasharray="5,2" d="M185.598,-445.677C186.974,-484.408 195.996,-569.296 247,-610.615 270.597,-629.731 348.277,-634.825 405.23,-635.893"/>
<polygon fill="orange" stroke="orange" points="189.088,-445.162 185.378,-435.238 182.09,-445.31 189.088,-445.162"/>
<text text-anchor="middle" x="305" y="-637.615" font-family="Helvetica,sans-Serif" font-size="10.00"> &lt; RayCaster &gt;</text>
</g>
<!-- Node15 -->
<g id="node15" class="node"><title>Node15</title>
<g id="a_node15"><a xlink:href="../../d2/d00/class_component.html" target="_top" xlink:title=" ">
<polygon fill="white" stroke="black" points="394.5,-588.115 394.5,-607.115 546.5,-607.115 546.5,-588.115 394.5,-588.115"/>
<text text-anchor="middle" x="470.5" y="-595.115" font-family="Helvetica,sans-Serif" font-size="10.00">Component&lt; AnimatedModel &gt;</text>
</a>
</g>
</g>
<!-- Node1&#45;&gt;Node15 -->
<g id="edge14" class="edge"><title>Node1&#45;&gt;Node15</title>
<path fill="none" stroke="orange" stroke-dasharray="5,2" d="M187.476,-445.156C191.877,-477.482 205.615,-541.594 247,-572.615 269.745,-589.664 339.119,-595.392 394.422,-597.171"/>
<polygon fill="orange" stroke="orange" points="190.943,-444.667 186.279,-435.154 183.993,-445.499 190.943,-444.667"/>
<text text-anchor="middle" x="305" y="-599.615" font-family="Helvetica,sans-Serif" font-size="10.00"> &lt; AnimatedModel &gt;</text>
</g>
<!-- Node17 -->
<g id="node17" class="node"><title>Node17</title>
<g id="a_node17"><a xlink:href="../../d2/d00/class_component.html" target="_top" xlink:title=" ">
<polygon fill="white" stroke="black" points="409.5,-550.115 409.5,-569.115 531.5,-569.115 531.5,-550.115 409.5,-550.115"/>
<text text-anchor="middle" x="470.5" y="-557.115" font-family="Helvetica,sans-Serif" font-size="10.00">Component&lt; Particles &gt;</text>
</a>
</g>
</g>
<!-- Node1&#45;&gt;Node17 -->
<g id="edge16" class="edge"><title>Node1&#45;&gt;Node17</title>
<path fill="none" stroke="orange" stroke-dasharray="5,2" d="M190.539,-445.106C198.176,-470.358 215.272,-513.624 247,-534.615 272.813,-551.694 352.612,-557.198 409.242,-558.92"/>
<polygon fill="orange" stroke="orange" points="193.832,-443.887 187.753,-435.21 187.094,-445.784 193.832,-443.887"/>
<text text-anchor="middle" x="305" y="-560.615" font-family="Helvetica,sans-Serif" font-size="10.00"> &lt; Particles &gt;</text>
</g>
<!-- Node19 -->
<g id="node19" class="node"><title>Node19</title>
<g id="a_node19"><a xlink:href="../../d2/d00/class_component.html" target="_top" xlink:title=" ">
<polygon fill="white" stroke="black" points="406.5,-512.115 406.5,-531.115 534.5,-531.115 534.5,-512.115 406.5,-512.115"/>
<text text-anchor="middle" x="470.5" y="-519.115" font-family="Helvetica,sans-Serif" font-size="10.00">Component&lt; PointLight &gt;</text>
</a>
</g>
</g>
<!-- Node1&#45;&gt;Node19 -->
<g id="edge18" class="edge"><title>Node1&#45;&gt;Node19</title>
<path fill="none" stroke="orange" stroke-dasharray="5,2" d="M197.588,-444.112C208.563,-459.264 226.186,-479.891 247,-490.615 296.405,-516.07 359.75,-522.792 406.207,-523.748"/>
<polygon fill="orange" stroke="orange" points="200.213,-441.755 191.645,-435.523 194.457,-445.738 200.213,-441.755"/>
<text text-anchor="middle" x="305" y="-524.615" font-family="Helvetica,sans-Serif" font-size="10.00"> &lt; PointLight &gt;</text>
</g>
<!-- Node21 -->
<g id="node21" class="node"><title>Node21</title>
<g id="a_node21"><a xlink:href="../../d2/d00/class_component.html" target="_top" xlink:title=" ">
<polygon fill="white" stroke="black" points="391,-474.115 391,-493.115 550,-493.115 550,-474.115 391,-474.115"/>
<text text-anchor="middle" x="470.5" y="-481.115" font-family="Helvetica,sans-Serif" font-size="10.00">Component&lt; GlobalInformation &gt;</text>
</a>
</g>
</g>
<!-- Node1&#45;&gt;Node21 -->
<g id="edge20" class="edge"><title>Node1&#45;&gt;Node21</title>
<path fill="none" stroke="orange" stroke-dasharray="5,2" d="M211.896,-439.692C222.535,-444.813 235.09,-450.182 247,-453.615 293.723,-467.083 347.745,-474.548 390.858,-478.664"/>
<polygon fill="orange" stroke="orange" points="213.249,-436.455 202.738,-435.12 210.122,-442.718 213.249,-436.455"/>
<text text-anchor="middle" x="305" y="-478.615" font-family="Helvetica,sans-Serif" font-size="10.00"> &lt; GlobalInformation &gt;</text>
</g>
<!-- Node23 -->
<g id="node23" class="node"><title>Node23</title>
<g id="a_node23"><a xlink:href="../../d2/d00/class_component.html" target="_top" xlink:title=" ">
<polygon fill="white" stroke="black" points="385,-436.115 385,-455.115 556,-455.115 556,-436.115 385,-436.115"/>
<text text-anchor="middle" x="470.5" y="-443.115" font-family="Helvetica,sans-Serif" font-size="10.00">Component&lt; DebuggingController &gt;</text>
</a>
</g>
</g>
<!-- Node1&#45;&gt;Node23 -->
<g id="edge22" class="edge"><title>Node1&#45;&gt;Node23</title>
<path fill="none" stroke="orange" stroke-dasharray="5,2" d="M239.317,-429.405C280.345,-432.294 337.629,-436.328 384.786,-439.649"/>
<polygon fill="orange" stroke="orange" points="239.474,-425.908 229.253,-428.696 238.982,-432.89 239.474,-425.908"/>
<text text-anchor="middle" x="305" y="-441.615" font-family="Helvetica,sans-Serif" font-size="10.00"> &lt; DebuggingController &gt;</text>
</g>
<!-- Node25 -->
<g id="node25" class="node"><title>Node25</title>
<g id="a_node25"><a xlink:href="../../d2/d00/class_component.html" target="_top" xlink:title=" ">
<polygon fill="white" stroke="black" points="395,-398.115 395,-417.115 546,-417.115 546,-398.115 395,-398.115"/>
<text text-anchor="middle" x="470.5" y="-405.115" font-family="Helvetica,sans-Serif" font-size="10.00">Component&lt; DirectionalLight &gt;</text>
</a>
</g>
</g>
<!-- Node1&#45;&gt;Node25 -->
<g id="edge24" class="edge"><title>Node1&#45;&gt;Node25</title>
<path fill="none" stroke="orange" stroke-dasharray="5,2" d="M231.557,-414.055C236.74,-413.075 241.966,-412.227 247,-411.615 295.996,-405.662 351.499,-404.655 394.814,-405.139"/>
<polygon fill="orange" stroke="orange" points="230.799,-410.638 221.704,-416.073 232.203,-417.495 230.799,-410.638"/>
<text text-anchor="middle" x="305" y="-414.615" font-family="Helvetica,sans-Serif" font-size="10.00"> &lt; DirectionalLight &gt;</text>
</g>
<!-- Node27 -->
<g id="node27" class="node"><title>Node27</title>
<g id="a_node27"><a xlink:href="../../d2/d00/class_component.html" target="_top" xlink:title=" ">
<polygon fill="white" stroke="black" points="411.5,-360.115 411.5,-379.115 529.5,-379.115 529.5,-360.115 411.5,-360.115"/>
<text text-anchor="middle" x="470.5" y="-367.115" font-family="Helvetica,sans-Serif" font-size="10.00">Component&lt; Camera &gt;</text>
</a>
</g>
</g>
<!-- Node1&#45;&gt;Node27 -->
<g id="edge26" class="edge"><title>Node1&#45;&gt;Node27</title>
<path fill="none" stroke="orange" stroke-dasharray="5,2" d="M206.799,-410.507C218.186,-403.222 232.764,-395.109 247,-390.615 301.021,-373.564 365.794,-369.131 411.484,-368.47"/>
<polygon fill="orange" stroke="orange" points="204.802,-407.631 198.417,-416.086 208.681,-413.458 204.802,-407.631"/>
<text text-anchor="middle" x="305" y="-393.615" font-family="Helvetica,sans-Serif" font-size="10.00"> &lt; Camera &gt;</text>
</g>
<!-- Node29 -->
<g id="node29" class="node"><title>Node29</title>
<g id="a_node29"><a xlink:href="../../d2/d00/class_component.html" target="_top" xlink:title=" ">
<polygon fill="white" stroke="black" points="411,-322.115 411,-341.115 530,-341.115 530,-322.115 411,-322.115"/>
<text text-anchor="middle" x="470.5" y="-329.115" font-family="Helvetica,sans-Serif" font-size="10.00">Component&lt; Material &gt;</text>
</a>
</g>
</g>
<!-- Node1&#45;&gt;Node29 -->
<g id="edge28" class="edge"><title>Node1&#45;&gt;Node29</title>
<path fill="none" stroke="orange" stroke-dasharray="5,2" d="M196.249,-407.358C206.911,-391.07 224.839,-368.078 247,-356.615 297.926,-330.274 364.032,-325.987 410.919,-327.086"/>
<polygon fill="orange" stroke="orange" points="193.158,-405.699 190.834,-416.035 199.097,-409.405 193.158,-405.699"/>
<text text-anchor="middle" x="305" y="-359.615" font-family="Helvetica,sans-Serif" font-size="10.00"> &lt; Material &gt;</text>
</g>
<!-- Node31 -->
<g id="node31" class="node"><title>Node31</title>
<g id="a_node31"><a xlink:href="../../d2/d00/class_component.html" target="_top" xlink:title=" ">
<polygon fill="white" stroke="black" points="415.5,-284.115 415.5,-303.115 525.5,-303.115 525.5,-284.115 415.5,-284.115"/>
<text text-anchor="middle" x="470.5" y="-291.115" font-family="Helvetica,sans-Serif" font-size="10.00">Component&lt; Model &gt;</text>
</a>
</g>
</g>
<!-- Node1&#45;&gt;Node31 -->
<g id="edge30" class="edge"><title>Node1&#45;&gt;Node31</title>
<path fill="none" stroke="orange" stroke-dasharray="5,2" d="M190.098,-406.23C197.366,-380.291 214.185,-335.074 247,-313.615 296.988,-280.926 367.352,-280.328 415.487,-285.042"/>
<polygon fill="orange" stroke="orange" points="186.676,-405.482 187.549,-416.041 193.451,-407.243 186.676,-405.482"/>
<text text-anchor="middle" x="305" y="-316.615" font-family="Helvetica,sans-Serif" font-size="10.00"> &lt; Model &gt;</text>
</g>
<!-- Node33 -->
<g id="node33" class="node"><title>Node33</title>
<g id="a_node33"><a xlink:href="../../d2/d00/class_component.html" target="_top" xlink:title=" ">
<polygon fill="white" stroke="black" points="391.5,-246.115 391.5,-265.115 549.5,-265.115 549.5,-246.115 391.5,-246.115"/>
<text text-anchor="middle" x="470.5" y="-253.115" font-family="Helvetica,sans-Serif" font-size="10.00">Component&lt; DisplayStatistics &gt;</text>
</a>
</g>
</g>
<!-- Node1&#45;&gt;Node33 -->
<g id="edge32" class="edge"><title>Node1&#45;&gt;Node33</title>
<path fill="none" stroke="orange" stroke-dasharray="5,2" d="M186.749,-405.481C190.085,-370.959 202.304,-301.061 247,-268.615 300.547,-229.745 381.834,-237.003 429.91,-246.107"/>
<polygon fill="orange" stroke="orange" points="183.238,-405.479 185.925,-415.727 190.216,-406.041 183.238,-405.479"/>
<text text-anchor="middle" x="305" y="-271.615" font-family="Helvetica,sans-Serif" font-size="10.00"> &lt; DisplayStatistics &gt;</text>
</g>
<!-- Node35 -->
<g id="node35" class="node"><title>Node35</title>
<g id="a_node35"><a xlink:href="../../d2/d00/class_component.html" target="_top" xlink:title=" ">
<polygon fill="white" stroke="black" points="394,-208.115 394,-227.115 547,-227.115 547,-208.115 394,-208.115"/>
<text text-anchor="middle" x="470.5" y="-215.115" font-family="Helvetica,sans-Serif" font-size="10.00">Component&lt; PlayerController &gt;</text>
</a>
</g>
</g>
<!-- Node1&#45;&gt;Node35 -->
<g id="edge34" class="edge"><title>Node1&#45;&gt;Node35</title>
<path fill="none" stroke="orange" stroke-dasharray="5,2" d="M184.696,-405.741C184.23,-364.192 189.758,-268.372 247,-224.615 269.414,-207.482 338.632,-207.614 393.977,-210.892"/>
<polygon fill="orange" stroke="orange" points="181.202,-406.023 184.948,-415.933 188.2,-405.849 181.202,-406.023"/>
<text text-anchor="middle" x="305" y="-227.615" font-family="Helvetica,sans-Serif" font-size="10.00"> &lt; PlayerController &gt;</text>
</g>
<!-- Node37 -->
<g id="node37" class="node"><title>Node37</title>
<g id="a_node37"><a xlink:href="../../d2/d00/class_component.html" target="_top" xlink:title=" ">
<polygon fill="white" stroke="black" points="400.5,-170.115 400.5,-189.115 540.5,-189.115 540.5,-170.115 400.5,-170.115"/>
<text text-anchor="middle" x="470.5" y="-177.115" font-family="Helvetica,sans-Serif" font-size="10.00">Component&lt; UserControls &gt;</text>
</a>
</g>
</g>
<!-- Node1&#45;&gt;Node37 -->
<g id="edge36" class="edge"><title>Node1&#45;&gt;Node37</title>
<path fill="none" stroke="orange" stroke-dasharray="5,2" d="M187.809,-406.02C194.214,-355.313 213.941,-221.842 247,-194.615 299.001,-151.788 383.102,-160.25 431.645,-170.064"/>
<polygon fill="orange" stroke="orange" points="184.326,-405.672 186.585,-416.023 191.274,-406.523 184.326,-405.672"/>
<text text-anchor="middle" x="305" y="-197.615" font-family="Helvetica,sans-Serif" font-size="10.00"> &lt; UserControls &gt;</text>
</g>
<!-- Node39 -->
<g id="node39" class="node"><title>Node39</title>
<g id="a_node39"><a xlink:href="../../d2/d00/class_component.html" target="_top" xlink:title=" ">
<polygon fill="white" stroke="black" points="394.5,-132.115 394.5,-151.115 546.5,-151.115 546.5,-132.115 394.5,-132.115"/>
<text text-anchor="middle" x="470.5" y="-139.115" font-family="Helvetica,sans-Serif" font-size="10.00">Component&lt; EntityTransform &gt;</text>
</a>
</g>
</g>
<!-- Node1&#45;&gt;Node39 -->
<g id="edge38" class="edge"><title>Node1&#45;&gt;Node39</title>
<path fill="none" stroke="orange" stroke-dasharray="5,2" d="M186.808,-405.891C191.09,-348.042 206.792,-180.801 247,-147.615 268.868,-129.566 338.779,-130.239 394.467,-134.099"/>
<polygon fill="orange" stroke="orange" points="183.313,-405.709 186.1,-415.93 190.295,-406.201 183.313,-405.709"/>
<text text-anchor="middle" x="305" y="-150.615" font-family="Helvetica,sans-Serif" font-size="10.00"> &lt; EntityTransform &gt;</text>
</g>
<!-- Node41 -->
<g id="node41" class="node"><title>Node41</title>
<g id="a_node41"><a xlink:href="../../d2/d00/class_component.html" target="_top" xlink:title=" ">
<polygon fill="white" stroke="black" points="392.5,-94.1152 392.5,-113.115 548.5,-113.115 548.5,-94.1152 392.5,-94.1152"/>
<text text-anchor="middle" x="470.5" y="-101.115" font-family="Helvetica,sans-Serif" font-size="10.00">Component&lt; EnemyController &gt;</text>
</a>
</g>
</g>
<!-- Node1&#45;&gt;Node41 -->
<g id="edge40" class="edge"><title>Node1&#45;&gt;Node41</title>
<path fill="none" stroke="orange" stroke-dasharray="5,2" d="M186.411,-405.899C189.707,-344.078 203.228,-155.873 247,-117.615 298.874,-72.2765 386.18,-83.2185 434.567,-94.0953"/>
<polygon fill="orange" stroke="orange" points="182.914,-405.744 185.909,-415.907 189.906,-406.095 182.914,-405.744"/>
<text text-anchor="middle" x="305" y="-120.615" font-family="Helvetica,sans-Serif" font-size="10.00"> &lt; EnemyController &gt;</text>
</g>
<!-- Node43 -->
<g id="node43" class="node"><title>Node43</title>
<g id="a_node43"><a xlink:href="../../d2/d00/class_component.html" target="_top" xlink:title=" ">
<polygon fill="white" stroke="black" points="403.5,-44.6152 403.5,-74.6152 537.5,-74.6152 537.5,-44.6152 403.5,-44.6152"/>
<text text-anchor="start" x="411.5" y="-62.6152" font-family="Helvetica,sans-Serif" font-size="10.00">Component&lt; BoneCollision</text>
<text text-anchor="middle" x="470.5" y="-51.6152" font-family="Helvetica,sans-Serif" font-size="10.00">Mesh &gt;</text>
</a>
</g>
</g>
<!-- Node1&#45;&gt;Node43 -->
<g id="edge42" class="edge"><title>Node1&#45;&gt;Node43</title>
<path fill="none" stroke="orange" stroke-dasharray="5,2" d="M185.813,-405.541C187.335,-337.06 196.177,-114.4 247,-69.6152 269.484,-49.8029 346.308,-50.3162 403.427,-53.805"/>
<polygon fill="orange" stroke="orange" points="182.308,-405.748 185.615,-415.814 189.307,-405.883 182.308,-405.748"/>
<text text-anchor="middle" x="305" y="-72.6152" font-family="Helvetica,sans-Serif" font-size="10.00"> &lt; BoneCollisionMesh &gt;</text>
</g>
<!-- Node45 -->
<g id="node45" class="node"><title>Node45</title>
<g id="a_node45"><a xlink:href="../../d2/d00/class_component.html" target="_top" xlink:title=" ">
<polygon fill="white" stroke="black" points="411,-6.11518 411,-25.1152 530,-25.1152 530,-6.11518 411,-6.11518"/>
<text text-anchor="middle" x="470.5" y="-13.1152" font-family="Helvetica,sans-Serif" font-size="10.00">Component&lt; SkyBox &gt;</text>
</a>
</g>
</g>
<!-- Node1&#45;&gt;Node45 -->
<g id="edge44" class="edge"><title>Node1&#45;&gt;Node45</title>
<path fill="none" stroke="orange" stroke-dasharray="5,2" d="M185.589,-405.75C186.354,-333.828 192.947,-88.5878 247,-37.6152 295.009,7.65783 377.374,2.50416 427.295,-6.0677"/>
<polygon fill="orange" stroke="orange" points="182.087,-406.06 185.508,-416.087 189.087,-406.114 182.087,-406.06"/>
<text text-anchor="middle" x="305" y="-40.6152" font-family="Helvetica,sans-Serif" font-size="10.00"> &lt; SkyBox &gt;</text>
</g>
<!-- Node2 -->
<g id="node2" class="node"><title>Node2</title>
<g id="a_node2"><a xlink:href="../../d5/d79/class_component_interface.html" target="_top" xlink:title=" ">
<polygon fill="white" stroke="black" points="0,-416.115 0,-435.115 103,-435.115 103,-416.115 0,-416.115"/>
<text text-anchor="middle" x="51.5" y="-423.115" font-family="Helvetica,sans-Serif" font-size="10.00">ComponentInterface</text>
</a>
</g>
</g>
<!-- Node2&#45;&gt;Node1 -->
<g id="edge1" class="edge"><title>Node2&#45;&gt;Node1</title>
<path fill="none" stroke="midnightblue" d="M113.194,-425.615C122.17,-425.615 131.266,-425.615 139.805,-425.615"/>
<polygon fill="midnightblue" stroke="midnightblue" points="113.148,-422.115 103.148,-425.615 113.148,-429.115 113.148,-422.115"/>
</g>
<!-- Node4 -->
<g id="node4" class="node"><title>Node4</title>
<g id="a_node4"><a xlink:href="../../d4/daa/class_collision_mesh.html" target="_top" xlink:title=" ">
<polygon fill="white" stroke="black" points="616.5,-816.115 616.5,-835.115 693.5,-835.115 693.5,-816.115 616.5,-816.115"/>
<text text-anchor="middle" x="655" y="-823.115" font-family="Helvetica,sans-Serif" font-size="10.00">CollisionMesh</text>
</a>
</g>
</g>
<!-- Node3&#45;&gt;Node4 -->
<g id="edge3" class="edge"><title>Node3&#45;&gt;Node4</title>
<path fill="none" stroke="midnightblue" d="M553.183,-825.615C575.274,-825.615 598.121,-825.615 616.468,-825.615"/>
<polygon fill="midnightblue" stroke="midnightblue" points="553.105,-822.115 543.105,-825.615 553.105,-829.115 553.105,-822.115"/>
</g>
<!-- Node6 -->
<g id="node6" class="node"><title>Node6</title>
<g id="a_node6"><a xlink:href="../../d7/d84/struct_simple_material.html" target="_top" xlink:title=" ">
<polygon fill="white" stroke="black" points="614.5,-778.115 614.5,-797.115 695.5,-797.115 695.5,-778.115 614.5,-778.115"/>
<text text-anchor="middle" x="655" y="-785.115" font-family="Helvetica,sans-Serif" font-size="10.00">SimpleMaterial</text>
</a>
</g>
</g>
<!-- Node5&#45;&gt;Node6 -->
<g id="edge5" class="edge"><title>Node5&#45;&gt;Node6</title>
<path fill="none" stroke="midnightblue" d="M555.257,-787.615C575.857,-787.615 596.969,-787.615 614.357,-787.615"/>
<polygon fill="midnightblue" stroke="midnightblue" points="555.204,-784.115 545.204,-787.615 555.204,-791.115 555.204,-784.115"/>
</g>
<!-- Node8 -->
<g id="node8" class="node"><title>Node8</title>
<g id="a_node8"><a xlink:href="../../d1/d51/class_shader.html" target="_top" xlink:title=" ">
<polygon fill="white" stroke="black" points="631.5,-740.115 631.5,-759.115 678.5,-759.115 678.5,-740.115 631.5,-740.115"/>
<text text-anchor="middle" x="655" y="-747.115" font-family="Helvetica,sans-Serif" font-size="10.00">Shader</text>
</a>
</g>
</g>
<!-- Node7&#45;&gt;Node8 -->
<g id="edge7" class="edge"><title>Node7&#45;&gt;Node8</title>
<path fill="none" stroke="midnightblue" d="M538.622,-749.615C571.134,-749.615 608.05,-749.615 631.18,-749.615"/>
<polygon fill="midnightblue" stroke="midnightblue" points="538.244,-746.115 528.244,-749.615 538.244,-753.115 538.244,-746.115"/>
</g>
<!-- Node10 -->
<g id="node10" class="node"><title>Node10</title>
<g id="a_node10"><a xlink:href="../../d4/df7/class_player_camera_handler.html" target="_top" xlink:title=" ">
<polygon fill="white" stroke="black" points="599.5,-702.115 599.5,-721.115 710.5,-721.115 710.5,-702.115 599.5,-702.115"/>
<text text-anchor="middle" x="655" y="-709.115" font-family="Helvetica,sans-Serif" font-size="10.00">PlayerCameraHandler</text>
</a>
</g>
</g>
<!-- Node9&#45;&gt;Node10 -->
<g id="edge9" class="edge"><title>Node9&#45;&gt;Node10</title>
<path fill="none" stroke="midnightblue" d="M570.154,-711.615C580.209,-711.615 590.143,-711.615 599.464,-711.615"/>
<polygon fill="midnightblue" stroke="midnightblue" points="570.077,-708.115 560.077,-711.615 570.077,-715.115 570.077,-708.115"/>
</g>
<!-- Node12 -->
<g id="node12" class="node"><title>Node12</title>
<g id="a_node12"><a xlink:href="../../d4/de5/class_pause_menu.html" target="_top" xlink:title=" ">
<polygon fill="white" stroke="black" points="621,-664.115 621,-683.115 689,-683.115 689,-664.115 621,-664.115"/>
<text text-anchor="middle" x="655" y="-671.115" font-family="Helvetica,sans-Serif" font-size="10.00">PauseMenu</text>
</a>
</g>
</g>
<!-- Node11&#45;&gt;Node12 -->
<g id="edge11" class="edge"><title>Node11&#45;&gt;Node12</title>
<path fill="none" stroke="midnightblue" d="M548.992,-673.615C574.192,-673.615 600.824,-673.615 620.962,-673.615"/>
<polygon fill="midnightblue" stroke="midnightblue" points="548.679,-670.115 538.679,-673.615 548.679,-677.115 548.679,-670.115"/>
</g>
<!-- Node14 -->
<g id="node14" class="node"><title>Node14</title>
<g id="a_node14"><a xlink:href="../../d3/dbc/class_ray_caster.html" target="_top" xlink:title=" ">
<polygon fill="white" stroke="black" points="624,-626.115 624,-645.115 686,-645.115 686,-626.115 624,-626.115"/>
<text text-anchor="middle" x="655" y="-633.115" font-family="Helvetica,sans-Serif" font-size="10.00">RayCaster</text>
</a>
</g>
</g>
<!-- Node13&#45;&gt;Node14 -->
<g id="edge13" class="edge"><title>Node13&#45;&gt;Node14</title>
<path fill="none" stroke="midnightblue" d="M545.923,-635.615C573.214,-635.615 602.585,-635.615 623.811,-635.615"/>
<polygon fill="midnightblue" stroke="midnightblue" points="545.586,-632.115 535.586,-635.615 545.586,-639.115 545.586,-632.115"/>
</g>
<!-- Node16 -->
<g id="node16" class="node"><title>Node16</title>
<g id="a_node16"><a xlink:href="../../de/d92/class__3_d_m_1_1_animated_model.html" target="_top" xlink:title=" ">
<polygon fill="white" stroke="black" points="597,-588.115 597,-607.115 713,-607.115 713,-588.115 597,-588.115"/>
<text text-anchor="middle" x="655" y="-595.115" font-family="Helvetica,sans-Serif" font-size="10.00">_3DM::AnimatedModel</text>
</a>
</g>
</g>
<!-- Node15&#45;&gt;Node16 -->
<g id="edge15" class="edge"><title>Node15&#45;&gt;Node16</title>
<path fill="none" stroke="midnightblue" d="M556.838,-597.615C570.402,-597.615 584.141,-597.615 596.85,-597.615"/>
<polygon fill="midnightblue" stroke="midnightblue" points="556.52,-594.115 546.52,-597.615 556.52,-601.115 556.52,-594.115"/>
</g>
<!-- Node18 -->
<g id="node18" class="node"><title>Node18</title>
<g id="a_node18"><a xlink:href="../../d0/d67/class_particles.html" target="_top" xlink:title=" ">
<polygon fill="white" stroke="black" points="627.5,-550.115 627.5,-569.115 682.5,-569.115 682.5,-550.115 627.5,-550.115"/>
<text text-anchor="middle" x="655" y="-557.115" font-family="Helvetica,sans-Serif" font-size="10.00">Particles</text>
</a>
</g>
</g>
<!-- Node17&#45;&gt;Node18 -->
<g id="edge17" class="edge"><title>Node17&#45;&gt;Node18</title>
<path fill="none" stroke="midnightblue" d="M541.551,-559.615C571.585,-559.615 604.863,-559.615 627.368,-559.615"/>
<polygon fill="midnightblue" stroke="midnightblue" points="541.51,-556.115 531.51,-559.615 541.51,-563.115 541.51,-556.115"/>
</g>
<!-- Node20 -->
<g id="node20" class="node"><title>Node20</title>
<g id="a_node20"><a xlink:href="../../dc/d1f/struct_point_light.html" target="_top" xlink:title=" ">
<polygon fill="white" stroke="black" points="625,-512.115 625,-531.115 685,-531.115 685,-512.115 625,-512.115"/>
<text text-anchor="middle" x="655" y="-519.115" font-family="Helvetica,sans-Serif" font-size="10.00">PointLight</text>
</a>
</g>
</g>
<!-- Node19&#45;&gt;Node20 -->
<g id="edge19" class="edge"><title>Node19&#45;&gt;Node20</title>
<path fill="none" stroke="midnightblue" d="M544.785,-521.615C572.88,-521.615 603.34,-521.615 624.937,-521.615"/>
<polygon fill="midnightblue" stroke="midnightblue" points="544.562,-518.115 534.562,-521.615 544.562,-525.115 544.562,-518.115"/>
</g>
<!-- Node22 -->
<g id="node22" class="node"><title>Node22</title>
<g id="a_node22"><a xlink:href="../../df/de8/class_global_information.html" target="_top" xlink:title=" ">
<polygon fill="white" stroke="black" points="609,-474.115 609,-493.115 701,-493.115 701,-474.115 609,-474.115"/>
<text text-anchor="middle" x="655" y="-481.115" font-family="Helvetica,sans-Serif" font-size="10.00">GlobalInformation</text>
</a>
</g>
</g>
<!-- Node21&#45;&gt;Node22 -->
<g id="edge21" class="edge"><title>Node21&#45;&gt;Node22</title>
<path fill="none" stroke="midnightblue" d="M560.62,-483.615C577.374,-483.615 594.225,-483.615 608.91,-483.615"/>
<polygon fill="midnightblue" stroke="midnightblue" points="560.221,-480.115 550.221,-483.615 560.221,-487.115 560.221,-480.115"/>
</g>
<!-- Node24 -->
<g id="node24" class="node"><title>Node24</title>
<g id="a_node24"><a xlink:href="../../d1/dee/class_debugging_controller.html" target="_top" xlink:title=" ">
<polygon fill="white" stroke="black" points="603,-436.115 603,-455.115 707,-455.115 707,-436.115 603,-436.115"/>
<text text-anchor="middle" x="655" y="-443.115" font-family="Helvetica,sans-Serif" font-size="10.00">DebuggingController</text>
</a>
</g>
</g>
<!-- Node23&#45;&gt;Node24 -->
<g id="edge23" class="edge"><title>Node23&#45;&gt;Node24</title>
<path fill="none" stroke="midnightblue" d="M566.18,-445.615C578.783,-445.615 591.298,-445.615 602.763,-445.615"/>
<polygon fill="midnightblue" stroke="midnightblue" points="566.072,-442.115 556.072,-445.615 566.072,-449.115 566.072,-442.115"/>
</g>
<!-- Node26 -->
<g id="node26" class="node"><title>Node26</title>
<g id="a_node26"><a xlink:href="../../de/db5/struct_directional_light.html" target="_top" xlink:title=" ">
<polygon fill="white" stroke="black" points="613.5,-398.115 613.5,-417.115 696.5,-417.115 696.5,-398.115 613.5,-398.115"/>
<text text-anchor="middle" x="655" y="-405.115" font-family="Helvetica,sans-Serif" font-size="10.00">DirectionalLight</text>
</a>
</g>
</g>
<!-- Node25&#45;&gt;Node26 -->
<g id="edge25" class="edge"><title>Node25&#45;&gt;Node26</title>
<path fill="none" stroke="midnightblue" d="M556.273,-407.615C576.141,-407.615 596.421,-407.615 613.319,-407.615"/>
<polygon fill="midnightblue" stroke="midnightblue" points="556.256,-404.115 546.256,-407.615 556.256,-411.115 556.256,-404.115"/>
</g>
<!-- Node28 -->
<g id="node28" class="node"><title>Node28</title>
<g id="a_node28"><a xlink:href="../../da/dbb/class_camera.html" target="_top" xlink:title=" ">
<polygon fill="white" stroke="black" points="630,-360.115 630,-379.115 680,-379.115 680,-360.115 630,-360.115"/>
<text text-anchor="middle" x="655" y="-367.115" font-family="Helvetica,sans-Serif" font-size="10.00">Camera</text>
</a>
</g>
</g>
<!-- Node27&#45;&gt;Node28 -->
<g id="edge27" class="edge"><title>Node27&#45;&gt;Node28</title>
<path fill="none" stroke="midnightblue" d="M539.827,-369.615C571.362,-369.615 606.804,-369.615 629.715,-369.615"/>
<polygon fill="midnightblue" stroke="midnightblue" points="539.746,-366.115 529.746,-369.615 539.746,-373.115 539.746,-366.115"/>
</g>
<!-- Node30 -->
<g id="node30" class="node"><title>Node30</title>
<g id="a_node30"><a xlink:href="../../d3/d0a/struct_material.html" target="_top" xlink:title=" ">
<polygon fill="white" stroke="black" points="629.5,-322.115 629.5,-341.115 680.5,-341.115 680.5,-322.115 629.5,-322.115"/>
<text text-anchor="middle" x="655" y="-329.115" font-family="Helvetica,sans-Serif" font-size="10.00">Material</text>
</a>
</g>
</g>
<!-- Node29&#45;&gt;Node30 -->
<g id="edge29" class="edge"><title>Node29&#45;&gt;Node30</title>
<path fill="none" stroke="midnightblue" d="M540.251,-331.615C571.528,-331.615 606.567,-331.615 629.384,-331.615"/>
<polygon fill="midnightblue" stroke="midnightblue" points="540.249,-328.115 530.249,-331.615 540.249,-335.115 540.249,-328.115"/>
</g>
<!-- Node32 -->
<g id="node32" class="node"><title>Node32</title>
<g id="a_node32"><a xlink:href="../../d3/d96/class__3_d_m_1_1_model.html" target="_top" xlink:title=" ">
<polygon fill="white" stroke="black" points="618,-284.115 618,-303.115 692,-303.115 692,-284.115 618,-284.115"/>
<text text-anchor="middle" x="655" y="-291.115" font-family="Helvetica,sans-Serif" font-size="10.00">_3DM::Model</text>
</a>
</g>
</g>
<!-- Node31&#45;&gt;Node32 -->
<g id="edge31" class="edge"><title>Node31&#45;&gt;Node32</title>
<path fill="none" stroke="midnightblue" d="M536.087,-293.615C563.538,-293.615 594.518,-293.615 617.832,-293.615"/>
<polygon fill="midnightblue" stroke="midnightblue" points="535.762,-290.115 525.762,-293.615 535.762,-297.115 535.762,-290.115"/>
</g>
<!-- Node34 -->
<g id="node34" class="node"><title>Node34</title>
<g id="a_node34"><a xlink:href="../../dc/d84/class_display_statistics.html" target="_top" xlink:title=" ">
<polygon fill="white" stroke="black" points="610,-246.115 610,-265.115 700,-265.115 700,-246.115 610,-246.115"/>
<text text-anchor="middle" x="655" y="-253.115" font-family="Helvetica,sans-Serif" font-size="10.00">DisplayStatistics</text>
</a>
</g>
</g>
<!-- Node33&#45;&gt;Node34 -->
<g id="edge33" class="edge"><title>Node33&#45;&gt;Node34</title>
<path fill="none" stroke="midnightblue" d="M559.887,-255.615C577.265,-255.615 594.781,-255.615 609.911,-255.615"/>
<polygon fill="midnightblue" stroke="midnightblue" points="559.691,-252.115 549.691,-255.615 559.691,-259.115 559.691,-252.115"/>
</g>
<!-- Node36 -->
<g id="node36" class="node"><title>Node36</title>
<g id="a_node36"><a xlink:href="../../dc/dde/class_player_controller.html" target="_top" xlink:title=" ">
<polygon fill="white" stroke="black" points="612,-208.115 612,-227.115 698,-227.115 698,-208.115 612,-208.115"/>
<text text-anchor="middle" x="655" y="-215.115" font-family="Helvetica,sans-Serif" font-size="10.00">PlayerController</text>
</a>
</g>
</g>
<!-- Node35&#45;&gt;Node36 -->
<g id="edge35" class="edge"><title>Node35&#45;&gt;Node36</title>
<path fill="none" stroke="midnightblue" d="M557.245,-217.615C576.253,-217.615 595.58,-217.615 611.912,-217.615"/>
<polygon fill="midnightblue" stroke="midnightblue" points="557.047,-214.115 547.047,-217.615 557.047,-221.115 557.047,-214.115"/>
</g>
<!-- Node38 -->
<g id="node38" class="node"><title>Node38</title>
<g id="a_node38"><a xlink:href="../../d9/dd8/class_user_controls.html" target="_top" xlink:title=" ">
<polygon fill="white" stroke="black" points="618.5,-170.115 618.5,-189.115 691.5,-189.115 691.5,-170.115 618.5,-170.115"/>
<text text-anchor="middle" x="655" y="-177.115" font-family="Helvetica,sans-Serif" font-size="10.00">UserControls</text>
</a>
</g>
</g>
<!-- Node37&#45;&gt;Node38 -->
<g id="edge37" class="edge"><title>Node37&#45;&gt;Node38</title>
<path fill="none" stroke="midnightblue" d="M550.767,-179.615C574.324,-179.615 598.966,-179.615 618.264,-179.615"/>
<polygon fill="midnightblue" stroke="midnightblue" points="550.756,-176.115 540.756,-179.615 550.756,-183.115 550.756,-176.115"/>
</g>
<!-- Node40 -->
<g id="node40" class="node"><title>Node40</title>
<g id="a_node40"><a xlink:href="../../d9/dd8/class_entity_transform.html" target="_top" xlink:title=" ">
<polygon fill="white" stroke="black" points="612.5,-132.115 612.5,-151.115 697.5,-151.115 697.5,-132.115 612.5,-132.115"/>
<text text-anchor="middle" x="655" y="-139.115" font-family="Helvetica,sans-Serif" font-size="10.00">EntityTransform</text>
</a>
</g>
</g>
<!-- Node39&#45;&gt;Node40 -->
<g id="edge39" class="edge"><title>Node39&#45;&gt;Node40</title>
<path fill="none" stroke="midnightblue" d="M556.617,-141.615C576.025,-141.615 595.806,-141.615 612.424,-141.615"/>
<polygon fill="midnightblue" stroke="midnightblue" points="556.52,-138.115 546.52,-141.615 556.52,-145.115 556.52,-138.115"/>
</g>
<!-- Node42 -->
<g id="node42" class="node"><title>Node42</title>
<g id="a_node42"><a xlink:href="../../dc/d01/class_enemy_controller.html" target="_top" xlink:title=" ">
<polygon fill="white" stroke="black" points="610.5,-94.1152 610.5,-113.115 699.5,-113.115 699.5,-94.1152 610.5,-94.1152"/>
<text text-anchor="middle" x="655" y="-101.115" font-family="Helvetica,sans-Serif" font-size="10.00">EnemyController</text>
</a>
</g>
</g>
<!-- Node41&#45;&gt;Node42 -->
<g id="edge41" class="edge"><title>Node41&#45;&gt;Node42</title>
<path fill="none" stroke="midnightblue" d="M559.085,-103.615C576.91,-103.615 594.922,-103.615 610.394,-103.615"/>
<polygon fill="midnightblue" stroke="midnightblue" points="558.632,-100.115 548.632,-103.615 558.632,-107.115 558.632,-100.115"/>
</g>
<!-- Node44 -->
<g id="node44" class="node"><title>Node44</title>
<g id="a_node44"><a xlink:href="../../d6/d9c/class_bone_collision_mesh.html" target="_top" xlink:title=" ">
<polygon fill="white" stroke="black" points="605,-50.1152 605,-69.1152 705,-69.1152 705,-50.1152 605,-50.1152"/>
<text text-anchor="middle" x="655" y="-57.1152" font-family="Helvetica,sans-Serif" font-size="10.00">BoneCollisionMesh</text>
</a>
</g>
</g>
<!-- Node43&#45;&gt;Node44 -->
<g id="edge43" class="edge"><title>Node43&#45;&gt;Node44</title>
<path fill="none" stroke="midnightblue" d="M547.671,-59.6152C567.043,-59.6152 587.348,-59.6152 604.961,-59.6152"/>
<polygon fill="midnightblue" stroke="midnightblue" points="547.645,-56.1153 537.645,-59.6152 547.645,-63.1153 547.645,-56.1153"/>
</g>
<!-- Node46 -->
<g id="node46" class="node"><title>Node46</title>
<g id="a_node46"><a xlink:href="../../de/dda/class_sky_box.html" target="_top" xlink:title=" ">
<polygon fill="white" stroke="black" points="629.5,-6.11518 629.5,-25.1152 680.5,-25.1152 680.5,-6.11518 629.5,-6.11518"/>
<text text-anchor="middle" x="655" y="-13.1152" font-family="Helvetica,sans-Serif" font-size="10.00">SkyBox</text>
</a>
</g>
</g>
<!-- Node45&#45;&gt;Node46 -->
<g id="edge45" class="edge"><title>Node45&#45;&gt;Node46</title>
<path fill="none" stroke="midnightblue" d="M540.251,-15.6152C571.528,-15.6152 606.567,-15.6152 629.384,-15.6152"/>
<polygon fill="midnightblue" stroke="midnightblue" points="540.249,-12.1153 530.249,-15.6152 540.249,-19.1153 540.249,-12.1153"/>
</g>
</g>
</svg>
