<?xml version="1.0" encoding="UTF-8" standalone="no"?>
<!DOCTYPE svg PUBLIC "-//W3C//DTD SVG 1.1//EN"
 "http://www.w3.org/Graphics/SVG/1.1/DTD/svg11.dtd">
<!-- Generated by graphviz version 2.38.0 (20140413.2041)
 -->
<!-- Title: MusicLocator Pages: 1 -->
<svg width="279pt" height="298pt"
 viewBox="0.00 0.00 279.00 298.00" xmlns="http://www.w3.org/2000/svg" xmlns:xlink="http://www.w3.org/1999/xlink">
<g id="graph0" class="graph" transform="scale(1 1) rotate(0) translate(4 294)">
<title>MusicLocator</title>
<polygon fill="white" stroke="none" points="-4,4 -4,-294 275,-294 275,4 -4,4"/>
<!-- Node1 -->
<g id="node1" class="node"><title>Node1</title>
<g id="a_node1"><a xlink:title=" ">
<polygon fill="#bfbfbf" stroke="black" points="63.5,-0.5 63.5,-19.5 138.5,-19.5 138.5,-0.5 63.5,-0.5"/>
<text text-anchor="middle" x="101" y="-7.5" font-family="Helvetica,sans-Serif" font-size="10.00">MusicLocator</text>
</a>
</g>
</g>
<!-- Node2 -->
<g id="node2" class="node"><title>Node2</title>
<g id="a_node2"><a xlink:href="../../d2/d23/class_locator.html" target="_top" xlink:title=" ">
<polygon fill="white" stroke="black" points="41,-57.5 41,-87.5 161,-87.5 161,-57.5 41,-57.5"/>
<text text-anchor="start" x="49" y="-75.5" font-family="Helvetica,sans-Serif" font-size="10.00">Locator&lt; MusicHandler,</text>
<text text-anchor="middle" x="101" y="-64.5" font-family="Helvetica,sans-Serif" font-size="10.00"> MusicHandler &gt;</text>
</a>
</g>
</g>
<!-- Node2&#45;&gt;Node1 -->
<g id="edge1" class="edge"><title>Node2&#45;&gt;Node1</title>
<path fill="none" stroke="midnightblue" d="M101,-47.3524C101,-37.5132 101,-26.7753 101,-19.5399"/>
<polygon fill="midnightblue" stroke="midnightblue" points="97.5001,-47.468 101,-57.468 104.5,-47.4681 97.5001,-47.468"/>
</g>
<!-- Node3 -->
<g id="node3" class="node"><title>Node3</title>
<g id="a_node3"><a xlink:href="../../d7/d5a/class_music_handler.html" target="_top" xlink:title=" ">
<polygon fill="white" stroke="black" points="0,-146.5 0,-165.5 76,-165.5 76,-146.5 0,-146.5"/>
<text text-anchor="middle" x="38" y="-153.5" font-family="Helvetica,sans-Serif" font-size="10.00">MusicHandler</text>
</a>
</g>
</g>
<!-- Node3&#45;&gt;Node2 -->
<g id="edge2" class="edge"><title>Node3&#45;&gt;Node2</title>
<path fill="none" stroke="#9a32cd" stroke-dasharray="5,2" d="M46.0875,-137.042C50.8792,-127.362 57.479,-115.492 65,-106 70.229,-99.4003 76.8661,-92.9975 83.0132,-87.6448"/>
<polygon fill="#9a32cd" stroke="#9a32cd" points="42.894,-135.608 41.7856,-146.144 49.2229,-138.599 42.894,-135.608"/>
<text text-anchor="middle" x="88.5" y="-120" font-family="Helvetica,sans-Serif" font-size="10.00"> service</text>
<text text-anchor="middle" x="88.5" y="-109" font-family="Helvetica,sans-Serif" font-size="10.00">nullService</text>
</g>
<!-- Node4 -->
<g id="node4" class="node"><title>Node4</title>
<g id="a_node4"><a xlink:href="../../db/d96/class_music.html" target="_top" xlink:title=" ">
<polygon fill="white" stroke="black" points="16.5,-213.5 16.5,-232.5 59.5,-232.5 59.5,-213.5 16.5,-213.5"/>
<text text-anchor="middle" x="38" y="-220.5" font-family="Helvetica,sans-Serif" font-size="10.00">Music</text>
</a>
</g>
</g>
<!-- Node4&#45;&gt;Node3 -->
<g id="edge3" class="edge"><title>Node4&#45;&gt;Node3</title>
<path fill="none" stroke="#9a32cd" stroke-dasharray="5,2" d="M38,-203.037C38,-190.67 38,-175.12 38,-165.627"/>
<polygon fill="#9a32cd" stroke="#9a32cd" points="34.5001,-203.234 38,-213.234 41.5001,-203.234 34.5001,-203.234"/>
<text text-anchor="middle" x="74.5" y="-187" font-family="Helvetica,sans-Serif" font-size="10.00"> currentlyPlaying</text>
</g>
<!-- Node5 -->
<g id="node5" class="node"><title>Node5</title>
<g id="a_node5"><a xlink:href="../../d2/d4a/class_audio.html" target="_top" xlink:title=" ">
<polygon fill="white" stroke="black" points="17.5,-270.5 17.5,-289.5 58.5,-289.5 58.5,-270.5 17.5,-270.5"/>
<text text-anchor="middle" x="38" y="-277.5" font-family="Helvetica,sans-Serif" font-size="10.00">Audio</text>
</a>
</g>
</g>
<!-- Node5&#45;&gt;Node4 -->
<g id="edge4" class="edge"><title>Node5&#45;&gt;Node4</title>
<path fill="none" stroke="midnightblue" d="M38,-260.117C38,-250.817 38,-240.056 38,-232.715"/>
<polygon fill="midnightblue" stroke="midnightblue" points="34.5001,-260.406 38,-270.406 41.5001,-260.406 34.5001,-260.406"/>
</g>
<!-- Node6 -->
<g id="node6" class="node"><title>Node6</title>
<g id="a_node6"><a xlink:href="../../d2/d23/class_locator.html" target="_top" xlink:title=" ">
<polygon fill="white" stroke="black" points="94.5,-146.5 94.5,-165.5 179.5,-165.5 179.5,-146.5 94.5,-146.5"/>
<text text-anchor="middle" x="137" y="-153.5" font-family="Helvetica,sans-Serif" font-size="10.00">Locator&lt; T, U &gt;</text>
</a>
</g>
</g>
<!-- Node6&#45;&gt;Node2 -->
<g id="edge5" class="edge"><title>Node6&#45;&gt;Node2</title>
<path fill="none" stroke="orange" stroke-dasharray="5,2" d="M129.091,-137.094C122.515,-122.208 113.286,-101.314 107.227,-87.5974"/>
<polygon fill="orange" stroke="orange" points="125.905,-138.545 133.147,-146.278 132.308,-135.717 125.905,-138.545"/>
<text text-anchor="middle" x="198" y="-114.5" font-family="Helvetica,sans-Serif" font-size="10.00"> &lt; MusicHandler, MusicHandler &gt;</text>
</g>
</g>
</svg>
