<?xml version="1.0" encoding="UTF-8" standalone="no"?>
<!DOCTYPE svg PUBLIC "-//W3C//DTD SVG 1.1//EN"
 "http://www.w3.org/Graphics/SVG/1.1/DTD/svg11.dtd">
<!-- Generated by graphviz version 2.38.0 (20140413.2041)
 -->
<!-- Title: MusicLocator Pages: 1 -->
<svg width="214pt" height="163pt"
 viewBox="0.00 0.00 214.00 163.00" xmlns="http://www.w3.org/2000/svg" xmlns:xlink="http://www.w3.org/1999/xlink">
<g id="graph0" class="graph" transform="scale(1 1) rotate(0) translate(4 159)">
<title>MusicLocator</title>
<polygon fill="white" stroke="none" points="-4,4 -4,-159 210,-159 210,4 -4,4"/>
<!-- Node1 -->
<g id="node1" class="node"><title>Node1</title>
<g id="a_node1"><a xlink:title=" ">
<polygon fill="#bfbfbf" stroke="black" points="22.5,-0.5 22.5,-19.5 97.5,-19.5 97.5,-0.5 22.5,-0.5"/>
<text text-anchor="middle" x="60" y="-7.5" font-family="Helvetica,sans-Serif" font-size="10.00">MusicLocator</text>
</a>
</g>
</g>
<!-- Node2 -->
<g id="node2" class="node"><title>Node2</title>
<g id="a_node2"><a xlink:href="../../d2/d23/class_locator.html" target="_top" xlink:title=" ">
<polygon fill="white" stroke="black" points="0,-57.5 0,-87.5 120,-87.5 120,-57.5 0,-57.5"/>
<text text-anchor="start" x="8" y="-75.5" font-family="Helvetica,sans-Serif" font-size="10.00">Locator&lt; MusicHandler,</text>
<text text-anchor="middle" x="60" y="-64.5" font-family="Helvetica,sans-Serif" font-size="10.00"> MusicHandler &gt;</text>
</a>
</g>
</g>
<!-- Node2&#45;&gt;Node1 -->
<g id="edge1" class="edge"><title>Node2&#45;&gt;Node1</title>
<path fill="none" stroke="midnightblue" d="M60,-47.3524C60,-37.5132 60,-26.7753 60,-19.5399"/>
<polygon fill="midnightblue" stroke="midnightblue" points="56.5001,-47.468 60,-57.468 63.5001,-47.4681 56.5001,-47.468"/>
</g>
<!-- Node3 -->
<g id="node3" class="node"><title>Node3</title>
<g id="a_node3"><a xlink:href="../../d2/d23/class_locator.html" target="_top" xlink:title=" ">
<polygon fill="white" stroke="black" points="17.5,-135.5 17.5,-154.5 102.5,-154.5 102.5,-135.5 17.5,-135.5"/>
<text text-anchor="middle" x="60" y="-142.5" font-family="Helvetica,sans-Serif" font-size="10.00">Locator&lt; T, U &gt;</text>
</a>
</g>
</g>
<!-- Node3&#45;&gt;Node2 -->
<g id="edge2" class="edge"><title>Node3&#45;&gt;Node2</title>
<path fill="none" stroke="orange" stroke-dasharray="5,2" d="M60,-125.236C60,-113.408 60,-98.3829 60,-87.5762"/>
<polygon fill="orange" stroke="orange" points="56.5001,-125.355 60,-135.355 63.5001,-125.355 56.5001,-125.355"/>
<text text-anchor="middle" x="133" y="-109" font-family="Helvetica,sans-Serif" font-size="10.00"> &lt; MusicHandler, MusicHandler &gt;</text>
</g>
</g>
</svg>
