<?xml version="1.0" encoding="UTF-8" standalone="no"?>
<!DOCTYPE svg PUBLIC "-//W3C//DTD SVG 1.1//EN"
 "http://www.w3.org/Graphics/SVG/1.1/DTD/svg11.dtd">
<!-- Generated by graphviz version 2.38.0 (20140413.2041)
 -->
<!-- Title: CollisionMesh Pages: 1 -->
<svg width="240pt" height="219pt"
 viewBox="0.00 0.00 240.00 219.00" xmlns="http://www.w3.org/2000/svg" xmlns:xlink="http://www.w3.org/1999/xlink">
<g id="graph0" class="graph" transform="scale(1 1) rotate(0) translate(4 215)">
<title>CollisionMesh</title>
<polygon fill="white" stroke="none" points="-4,4 -4,-215 236,-215 236,4 -4,4"/>
<!-- Node1 -->
<g id="node1" class="node"><title>Node1</title>
<g id="a_node1"><a xlink:title=" ">
<polygon fill="#bfbfbf" stroke="black" points="127,-0.5 127,-19.5 204,-19.5 204,-0.5 127,-0.5"/>
<text text-anchor="middle" x="165.5" y="-7.5" font-family="Helvetica,sans-Serif" font-size="10.00">CollisionMesh</text>
</a>
</g>
</g>
<!-- Node2 -->
<g id="node2" class="node"><title>Node2</title>
<g id="a_node2"><a xlink:href="../../d2/d00/class_component.html" target="_top" xlink:title=" ">
<polygon fill="white" stroke="black" points="0,-67.5 0,-86.5 145,-86.5 145,-67.5 0,-67.5"/>
<text text-anchor="middle" x="72.5" y="-74.5" font-family="Helvetica,sans-Serif" font-size="10.00">Component&lt; CollisionMesh &gt;</text>
</a>
</g>
</g>
<!-- Node2&#45;&gt;Node1 -->
<g id="edge1" class="edge"><title>Node2&#45;&gt;Node1</title>
<path fill="none" stroke="midnightblue" d="M93.3612,-61.4196C111.747,-48.5695 137.912,-30.2821 153.156,-19.6273"/>
<polygon fill="midnightblue" stroke="midnightblue" points="91.2338,-58.6363 85.0424,-67.2338 95.2439,-64.3738 91.2338,-58.6363"/>
</g>
<!-- Node3 -->
<g id="node3" class="node"><title>Node3</title>
<g id="a_node3"><a xlink:href="../../d5/d79/class_component_interface.html" target="_top" xlink:title=" ">
<polygon fill="white" stroke="black" points="29,-191.5 29,-210.5 132,-210.5 132,-191.5 29,-191.5"/>
<text text-anchor="middle" x="80.5" y="-198.5" font-family="Helvetica,sans-Serif" font-size="10.00">ComponentInterface</text>
</a>
</g>
</g>
<!-- Node3&#45;&gt;Node2 -->
<g id="edge2" class="edge"><title>Node3&#45;&gt;Node2</title>
<path fill="none" stroke="midnightblue" d="M78.1478,-181.087C77.1924,-172.788 76.1602,-162.923 75.5,-154 73.707,-129.77 72.9417,-101.109 72.653,-86.9036"/>
<polygon fill="midnightblue" stroke="midnightblue" points="74.6945,-181.686 79.3611,-191.198 81.6446,-180.852 74.6945,-181.686"/>
</g>
<!-- Node4 -->
<g id="node4" class="node"><title>Node4</title>
<g id="a_node4"><a xlink:href="../../d2/d00/class_component.html" target="_top" xlink:title=" ">
<polygon fill="white" stroke="black" points="85,-134.5 85,-153.5 174,-153.5 174,-134.5 85,-134.5"/>
<text text-anchor="middle" x="129.5" y="-141.5" font-family="Helvetica,sans-Serif" font-size="10.00">Component&lt; T &gt;</text>
</a>
</g>
</g>
<!-- Node3&#45;&gt;Node4 -->
<g id="edge4" class="edge"><title>Node3&#45;&gt;Node4</title>
<path fill="none" stroke="midnightblue" d="M94.9077,-183.828C103.682,-173.979 114.549,-161.782 121.736,-153.715"/>
<polygon fill="midnightblue" stroke="midnightblue" points="92.195,-181.611 88.1563,-191.406 97.4217,-186.268 92.195,-181.611"/>
</g>
<!-- Node4&#45;&gt;Node2 -->
<g id="edge3" class="edge"><title>Node4&#45;&gt;Node2</title>
<path fill="none" stroke="orange" stroke-dasharray="5,2" d="M115.149,-126.635C104.002,-113.923 88.9842,-96.7978 80.0655,-86.6273"/>
<polygon fill="orange" stroke="orange" points="112.588,-129.023 121.813,-134.234 117.851,-124.408 112.588,-129.023"/>
<text text-anchor="middle" x="145.5" y="-108" font-family="Helvetica,sans-Serif" font-size="10.00"> &lt; CollisionMesh &gt;</text>
</g>
<!-- Node5 -->
<g id="node5" class="node"><title>Node5</title>
<g id="a_node5"><a xlink:href="../../dc/d34/struct_collision_tag.html" target="_top" xlink:title=" ">
<polygon fill="white" stroke="black" points="163,-67.5 163,-86.5 232,-86.5 232,-67.5 163,-67.5"/>
<text text-anchor="middle" x="197.5" y="-74.5" font-family="Helvetica,sans-Serif" font-size="10.00">CollisionTag</text>
</a>
</g>
</g>
<!-- Node5&#45;&gt;Node1 -->
<g id="edge5" class="edge"><title>Node5&#45;&gt;Node1</title>
<path fill="none" stroke="#9a32cd" stroke-dasharray="5,2" d="M188.719,-58.1635C182.548,-45.6281 174.564,-29.4104 169.747,-19.6273"/>
<polygon fill="#9a32cd" stroke="#9a32cd" points="185.627,-59.808 193.184,-67.2338 191.908,-56.7162 185.627,-59.808"/>
<text text-anchor="middle" x="201" y="-41" font-family="Helvetica,sans-Serif" font-size="10.00"> thisTag</text>
</g>
</g>
</svg>
