<?xml version="1.0" encoding="UTF-8" standalone="no"?>
<!DOCTYPE svg PUBLIC "-//W3C//DTD SVG 1.1//EN"
 "http://www.w3.org/Graphics/SVG/1.1/DTD/svg11.dtd">
<!-- Generated by graphviz version 2.38.0 (20140413.2041)
 -->
<!-- Title: DirectionalLightShadowMap Pages: 1 -->
<svg width="337pt" height="297pt"
 viewBox="0.00 0.00 336.50 297.00" xmlns="http://www.w3.org/2000/svg" xmlns:xlink="http://www.w3.org/1999/xlink">
<g id="graph0" class="graph" transform="scale(1 1) rotate(0) translate(4 293)">
<title>DirectionalLightShadowMap</title>
<polygon fill="white" stroke="none" points="-4,4 -4,-293 332.5,-293 332.5,4 -4,4"/>
<!-- Node1 -->
<g id="node1" class="node"><title>Node1</title>
<g id="a_node1"><a xlink:title=" ">
<polygon fill="#bfbfbf" stroke="black" points="42,-0.5 42,-19.5 179,-19.5 179,-0.5 42,-0.5"/>
<text text-anchor="middle" x="110.5" y="-7.5" font-family="Helvetica,sans-Serif" font-size="10.00">DirectionalLightShadowMap</text>
</a>
</g>
</g>
<!-- Node2 -->
<g id="node2" class="node"><title>Node2</title>
<g id="a_node2"><a xlink:href="../../d2/dee/struct_directional_light_shadow_map_1_1_orthographic_bounds.html" target="_top" xlink:title=" ">
<polygon fill="white" stroke="black" points="0,-67.5 0,-97.5 137,-97.5 137,-67.5 0,-67.5"/>
<text text-anchor="start" x="8" y="-85.5" font-family="Helvetica,sans-Serif" font-size="10.00">DirectionalLightShadowMap</text>
<text text-anchor="middle" x="68.5" y="-74.5" font-family="Helvetica,sans-Serif" font-size="10.00">::OrthographicBounds</text>
</a>
</g>
</g>
<!-- Node2&#45;&gt;Node1 -->
<g id="edge1" class="edge"><title>Node2&#45;&gt;Node1</title>
<path fill="none" stroke="#9a32cd" stroke-dasharray="5,2" d="M82.1271,-58.6259C89.992,-45.4241 99.4373,-29.5696 105.202,-19.8932"/>
<polygon fill="#9a32cd" stroke="#9a32cd" points="79.1106,-56.8509 76.9993,-67.2333 85.1243,-60.4336 79.1106,-56.8509"/>
<text text-anchor="middle" x="111" y="-41" font-family="Helvetica,sans-Serif" font-size="10.00"> bounds</text>
</g>
<!-- Node3 -->
<g id="node3" class="node"><title>Node3</title>
<g id="a_node3"><a xlink:href="../../d1/d51/class_shader.html" target="_top" xlink:title=" ">
<polygon fill="white" stroke="black" points="155,-73 155,-92 202,-92 202,-73 155,-73"/>
<text text-anchor="middle" x="178.5" y="-80" font-family="Helvetica,sans-Serif" font-size="10.00">Shader</text>
</a>
</g>
</g>
<!-- Node3&#45;&gt;Node1 -->
<g id="edge2" class="edge"><title>Node3&#45;&gt;Node1</title>
<path fill="none" stroke="#9a32cd" stroke-dasharray="5,2" d="M162.871,-65.2962C149.195,-51.1172 129.851,-31.0626 118.906,-19.7154"/>
<polygon fill="#9a32cd" stroke="#9a32cd" points="160.7,-68.0876 170.162,-72.8553 165.739,-63.2279 160.7,-68.0876"/>
<text text-anchor="middle" x="186" y="-41" font-family="Helvetica,sans-Serif" font-size="10.00"> depthMapShader</text>
</g>
<!-- Node4 -->
<g id="node4" class="node"><title>Node4</title>
<g id="a_node4"><a xlink:href="../../d2/d00/class_component.html" target="_top" xlink:title=" ">
<polygon fill="white" stroke="black" points="1,-145.5 1,-164.5 116,-164.5 116,-145.5 1,-145.5"/>
<text text-anchor="middle" x="58.5" y="-152.5" font-family="Helvetica,sans-Serif" font-size="10.00">Component&lt; Shader &gt;</text>
</a>
</g>
</g>
<!-- Node4&#45;&gt;Node3 -->
<g id="edge3" class="edge"><title>Node4&#45;&gt;Node3</title>
<path fill="none" stroke="midnightblue" d="M82.1197,-140.123C106.341,-125.894 143.268,-104.199 163.665,-92.2154"/>
<polygon fill="midnightblue" stroke="midnightblue" points="80.0635,-137.272 73.2144,-145.355 83.6094,-143.308 80.0635,-137.272"/>
</g>
<!-- Node5 -->
<g id="node5" class="node"><title>Node5</title>
<g id="a_node5"><a xlink:href="../../d5/d79/class_component_interface.html" target="_top" xlink:title=" ">
<polygon fill="white" stroke="black" points="15,-269.5 15,-288.5 118,-288.5 118,-269.5 15,-269.5"/>
<text text-anchor="middle" x="66.5" y="-276.5" font-family="Helvetica,sans-Serif" font-size="10.00">ComponentInterface</text>
</a>
</g>
</g>
<!-- Node5&#45;&gt;Node4 -->
<g id="edge4" class="edge"><title>Node5&#45;&gt;Node4</title>
<path fill="none" stroke="midnightblue" d="M64.1478,-259.087C63.1924,-250.788 62.1602,-240.923 61.5,-232 59.707,-207.77 58.9417,-179.109 58.653,-164.904"/>
<polygon fill="midnightblue" stroke="midnightblue" points="60.6945,-259.686 65.3611,-269.198 67.6446,-258.852 60.6945,-259.686"/>
</g>
<!-- Node6 -->
<g id="node6" class="node"><title>Node6</title>
<g id="a_node6"><a xlink:href="../../d2/d00/class_component.html" target="_top" xlink:title=" ">
<polygon fill="white" stroke="black" points="71,-212.5 71,-231.5 160,-231.5 160,-212.5 71,-212.5"/>
<text text-anchor="middle" x="115.5" y="-219.5" font-family="Helvetica,sans-Serif" font-size="10.00">Component&lt; T &gt;</text>
</a>
</g>
</g>
<!-- Node5&#45;&gt;Node6 -->
<g id="edge6" class="edge"><title>Node5&#45;&gt;Node6</title>
<path fill="none" stroke="midnightblue" d="M80.9077,-261.828C89.682,-251.979 100.549,-239.782 107.736,-231.715"/>
<polygon fill="midnightblue" stroke="midnightblue" points="78.195,-259.611 74.1563,-269.406 83.4217,-264.268 78.195,-259.611"/>
</g>
<!-- Node6&#45;&gt;Node4 -->
<g id="edge5" class="edge"><title>Node6&#45;&gt;Node4</title>
<path fill="none" stroke="orange" stroke-dasharray="5,2" d="M101.149,-204.635C90.0015,-191.923 74.9842,-174.798 66.0655,-164.627"/>
<polygon fill="orange" stroke="orange" points="98.5879,-207.023 107.813,-212.234 103.851,-202.408 98.5879,-207.023"/>
<text text-anchor="middle" x="116.5" y="-186" font-family="Helvetica,sans-Serif" font-size="10.00"> &lt; Shader &gt;</text>
</g>
<!-- Node7 -->
<g id="node7" class="node"><title>Node7</title>
<g id="a_node7"><a xlink:title=" ">
<polygon fill="white" stroke="#bfbfbf" points="134.5,-145.5 134.5,-164.5 222.5,-164.5 222.5,-145.5 134.5,-145.5"/>
<text text-anchor="middle" x="178.5" y="-152.5" font-family="Helvetica,sans-Serif" font-size="10.00">SHADER_TYPE</text>
</a>
</g>
</g>
<!-- Node7&#45;&gt;Node3 -->
<g id="edge7" class="edge"><title>Node7&#45;&gt;Node3</title>
<path fill="none" stroke="#9a32cd" stroke-dasharray="5,2" d="M178.5,-134.942C178.5,-121.03 178.5,-102.82 178.5,-92.2154"/>
<polygon fill="#9a32cd" stroke="#9a32cd" points="175,-135.355 178.5,-145.355 182,-135.355 175,-135.355"/>
<text text-anchor="middle" x="205.5" y="-119" font-family="Helvetica,sans-Serif" font-size="10.00"> shaderType</text>
</g>
<!-- Node8 -->
<g id="node8" class="node"><title>Node8</title>
<g id="a_node8"><a xlink:title=" ">
<polygon fill="white" stroke="#bfbfbf" points="240.5,-145.5 240.5,-164.5 328.5,-164.5 328.5,-145.5 240.5,-145.5"/>
<text text-anchor="middle" x="284.5" y="-152.5" font-family="Helvetica,sans-Serif" font-size="10.00">SHADER_TASK</text>
</a>
</g>
</g>
<!-- Node8&#45;&gt;Node3 -->
<g id="edge8" class="edge"><title>Node8&#45;&gt;Node3</title>
<path fill="none" stroke="#9a32cd" stroke-dasharray="5,2" d="M266.826,-138.903C257.973,-131.631 246.939,-122.993 236.5,-116 223.17,-107.071 207.216,-98.2569 195.418,-92.0653"/>
<polygon fill="#9a32cd" stroke="#9a32cd" points="264.637,-141.635 274.555,-145.359 269.124,-136.262 264.637,-141.635"/>
<text text-anchor="middle" x="279" y="-119" font-family="Helvetica,sans-Serif" font-size="10.00"> currentTask</text>
</g>
</g>
</svg>
