<?xml version="1.0" encoding="UTF-8" standalone="no"?>
<!DOCTYPE svg PUBLIC "-//W3C//DTD SVG 1.1//EN"
 "http://www.w3.org/Graphics/SVG/1.1/DTD/svg11.dtd">
<!-- Generated by graphviz version 2.38.0 (20140413.2041)
 -->
<!-- Title: ShaderLocator Pages: 1 -->
<svg width="226pt" height="163pt"
 viewBox="0.00 0.00 225.50 163.00" xmlns="http://www.w3.org/2000/svg" xmlns:xlink="http://www.w3.org/1999/xlink">
<g id="graph0" class="graph" transform="scale(1 1) rotate(0) translate(4 159)">
<title>ShaderLocator</title>
<polygon fill="white" stroke="none" points="-4,4 -4,-159 221.5,-159 221.5,4 -4,4"/>
<!-- Node1 -->
<g id="node1" class="node"><title>Node1</title>
<g id="a_node1"><a xlink:title=" ">
<polygon fill="#bfbfbf" stroke="black" points="22.5,-0.5 22.5,-19.5 102.5,-19.5 102.5,-0.5 22.5,-0.5"/>
<text text-anchor="middle" x="62.5" y="-7.5" font-family="Helvetica,sans-Serif" font-size="10.00">ShaderLocator</text>
</a>
</g>
</g>
<!-- Node2 -->
<g id="node2" class="node"><title>Node2</title>
<g id="a_node2"><a xlink:href="../../d2/d23/class_locator.html" target="_top" xlink:title=" ">
<polygon fill="white" stroke="black" points="0,-57.5 0,-87.5 125,-87.5 125,-57.5 0,-57.5"/>
<text text-anchor="start" x="8" y="-75.5" font-family="Helvetica,sans-Serif" font-size="10.00">Locator&lt; ShaderHandler,</text>
<text text-anchor="middle" x="62.5" y="-64.5" font-family="Helvetica,sans-Serif" font-size="10.00"> ShaderHandler &gt;</text>
</a>
</g>
</g>
<!-- Node2&#45;&gt;Node1 -->
<g id="edge1" class="edge"><title>Node2&#45;&gt;Node1</title>
<path fill="none" stroke="midnightblue" d="M62.5,-47.3524C62.5,-37.5132 62.5,-26.7753 62.5,-19.5399"/>
<polygon fill="midnightblue" stroke="midnightblue" points="59.0001,-47.468 62.5,-57.468 66.0001,-47.4681 59.0001,-47.468"/>
</g>
<!-- Node3 -->
<g id="node3" class="node"><title>Node3</title>
<g id="a_node3"><a xlink:href="../../d2/d23/class_locator.html" target="_top" xlink:title=" ">
<polygon fill="white" stroke="black" points="20,-135.5 20,-154.5 105,-154.5 105,-135.5 20,-135.5"/>
<text text-anchor="middle" x="62.5" y="-142.5" font-family="Helvetica,sans-Serif" font-size="10.00">Locator&lt; T, U &gt;</text>
</a>
</g>
</g>
<!-- Node3&#45;&gt;Node2 -->
<g id="edge2" class="edge"><title>Node3&#45;&gt;Node2</title>
<path fill="none" stroke="orange" stroke-dasharray="5,2" d="M62.5,-125.236C62.5,-113.408 62.5,-98.3829 62.5,-87.5762"/>
<polygon fill="orange" stroke="orange" points="59.0001,-125.355 62.5,-135.355 66.0001,-125.355 59.0001,-125.355"/>
<text text-anchor="middle" x="140" y="-109" font-family="Helvetica,sans-Serif" font-size="10.00"> &lt; ShaderHandler, ShaderHandler &gt;</text>
</g>
</g>
</svg>
