<?xml version="1.0" encoding="UTF-8" standalone="no"?>
<!DOCTYPE svg PUBLIC "-//W3C//DTD SVG 1.1//EN"
 "http://www.w3.org/Graphics/SVG/1.1/DTD/svg11.dtd">
<!-- Generated by graphviz version 2.38.0 (20140413.2041)
 -->
<!-- Title: Camera::getForward Pages: 1 -->
<svg width="1219pt" height="98pt"
 viewBox="0.00 0.00 1219.00 97.56" xmlns="http://www.w3.org/2000/svg" xmlns:xlink="http://www.w3.org/1999/xlink">
<g id="graph0" class="graph" transform="scale(1 1) rotate(0) translate(4 93.5641)">
<title>Camera::getForward</title>
<polygon fill="white" stroke="none" points="-4,4 -4,-93.5641 1215,-93.5641 1215,4 -4,4"/>
<!-- Node1 -->
<g id="node1" class="node"><title>Node1</title>
<g id="a_node1"><a xlink:title=" ">
<polygon fill="#bfbfbf" stroke="black" points="1107,-50 1107,-69 1211,-69 1211,-50 1107,-50"/>
<text text-anchor="middle" x="1159" y="-57" font-family="Helvetica,sans-Serif" font-size="10.00">Camera::getForward</text>
</a>
</g>
</g>
<!-- Node2 -->
<g id="node2" class="node"><title>Node2</title>
<g id="a_node2"><a xlink:href="../../d5/d50/class_player_controller_system.html#a9d234f18033f0a3fca95bbcd49c28deb" target="_top" xlink:title=" ">
<polygon fill="white" stroke="black" points="797,-49.5 797,-79.5 916,-79.5 916,-49.5 797,-49.5"/>
<text text-anchor="start" x="805" y="-67.5" font-family="Helvetica,sans-Serif" font-size="10.00">PlayerControllerSystem</text>
<text text-anchor="middle" x="856.5" y="-56.5" font-family="Helvetica,sans-Serif" font-size="10.00">::fixedUpdate</text>
</a>
</g>
</g>
<!-- Node1&#45;&gt;Node2 -->
<g id="edge1" class="edge"><title>Node1&#45;&gt;Node2</title>
<path fill="none" stroke="midnightblue" d="M1122.05,-72.2774C1106.56,-77.1415 1088.11,-82.091 1071,-84.5 1018.63,-91.8755 1004.6,-90.0053 952,-84.5 940.325,-83.2781 927.969,-81.229 916.178,-78.8966"/>
<polygon fill="midnightblue" stroke="midnightblue" points="1123.34,-75.5412 1131.76,-69.1209 1121.17,-68.8842 1123.34,-75.5412"/>
</g>
<!-- Node9 -->
<g id="node9" class="node"><title>Node9</title>
<g id="a_node9"><a xlink:href="../../d5/d50/class_player_controller_system.html#a7ec2692dbe1204e5e27f4189e0bcd8ea" target="_top" xlink:title=" ">
<polygon fill="white" stroke="black" points="952,-44.5 952,-74.5 1071,-74.5 1071,-44.5 952,-44.5"/>
<text text-anchor="start" x="960" y="-62.5" font-family="Helvetica,sans-Serif" font-size="10.00">PlayerControllerSystem</text>
<text text-anchor="middle" x="1011.5" y="-51.5" font-family="Helvetica,sans-Serif" font-size="10.00">::getPlayerInput</text>
</a>
</g>
</g>
<!-- Node1&#45;&gt;Node9 -->
<g id="edge8" class="edge"><title>Node1&#45;&gt;Node9</title>
<path fill="none" stroke="midnightblue" d="M1096.53,-59.5C1088.08,-59.5 1079.43,-59.5 1071.03,-59.5"/>
<polygon fill="midnightblue" stroke="midnightblue" points="1096.7,-63.0001 1106.7,-59.5 1096.7,-56.0001 1096.7,-63.0001"/>
</g>
<!-- Node10 -->
<g id="node10" class="node"><title>Node10</title>
<g id="a_node10"><a xlink:href="../../d5/d50/class_player_controller_system.html#ae968cd78ae054ed5521f19c6d3793933" target="_top" xlink:title=" ">
<polygon fill="white" stroke="black" points="797,-0.5 797,-30.5 916,-30.5 916,-0.5 797,-0.5"/>
<text text-anchor="start" x="805" y="-18.5" font-family="Helvetica,sans-Serif" font-size="10.00">PlayerControllerSystem</text>
<text text-anchor="middle" x="856.5" y="-7.5" font-family="Helvetica,sans-Serif" font-size="10.00">::update</text>
</a>
</g>
</g>
<!-- Node1&#45;&gt;Node10 -->
<g id="edge10" class="edge"><title>Node1&#45;&gt;Node10</title>
<path fill="none" stroke="midnightblue" d="M1119.75,-46.7988C1104.71,-42.2559 1087.19,-37.5184 1071,-34.5 1019.24,-24.851 959.468,-20.0639 916.359,-17.7119"/>
<polygon fill="midnightblue" stroke="midnightblue" points="1119.14,-50.2721 1129.72,-49.8893 1121.21,-43.5858 1119.14,-50.2721"/>
</g>
<!-- Node3 -->
<g id="node3" class="node"><title>Node3</title>
<g id="a_node3"><a xlink:href="../../d3/de8/class_fixed_updating_system.html#a7086592e0a53a3a3f8c7533f042a4266" target="_top" xlink:title=" ">
<polygon fill="white" stroke="black" points="642.5,-48.5 642.5,-78.5 755.5,-78.5 755.5,-48.5 642.5,-48.5"/>
<text text-anchor="start" x="650.5" y="-66.5" font-family="Helvetica,sans-Serif" font-size="10.00">FixedUpdatingSystem</text>
<text text-anchor="middle" x="699" y="-55.5" font-family="Helvetica,sans-Serif" font-size="10.00">::updateCollision</text>
</a>
</g>
</g>
<!-- Node2&#45;&gt;Node3 -->
<g id="edge2" class="edge"><title>Node2&#45;&gt;Node3</title>
<path fill="none" stroke="midnightblue" d="M786.46,-64.056C776.111,-63.9895 765.554,-63.9216 755.534,-63.8571"/>
<polygon fill="midnightblue" stroke="midnightblue" points="786.69,-67.5575 796.712,-64.1219 786.735,-60.5576 786.69,-67.5575"/>
</g>
<!-- Node4 -->
<g id="node4" class="node"><title>Node4</title>
<g id="a_node4"><a xlink:href="../../d3/de8/class_fixed_updating_system.html#a3ed508813ba850baed19e86ef0429028" target="_top" xlink:title=" ">
<polygon fill="white" stroke="black" points="488,-47.5 488,-77.5 601,-77.5 601,-47.5 488,-47.5"/>
<text text-anchor="start" x="496" y="-65.5" font-family="Helvetica,sans-Serif" font-size="10.00">FixedUpdatingSystem</text>
<text text-anchor="middle" x="544.5" y="-54.5" font-family="Helvetica,sans-Serif" font-size="10.00">::fixedUpdate</text>
</a>
</g>
</g>
<!-- Node3&#45;&gt;Node4 -->
<g id="edge3" class="edge"><title>Node3&#45;&gt;Node4</title>
<path fill="none" stroke="midnightblue" d="M631.931,-63.0668C621.67,-62.9995 611.158,-62.9305 601.158,-62.865"/>
<polygon fill="midnightblue" stroke="midnightblue" points="632.058,-66.5676 642.081,-63.1333 632.104,-59.5677 632.058,-66.5676"/>
</g>
<!-- Node5 -->
<g id="node5" class="node"><title>Node5</title>
<g id="a_node5"><a xlink:href="../../dd/d1f/class_game.html#a157e87f9dc147a5842ee6bdc06c95c17" target="_top" xlink:title=" ">
<polygon fill="white" stroke="black" points="352,-52 352,-71 452,-71 452,-52 352,-52"/>
<text text-anchor="middle" x="402" y="-59" font-family="Helvetica,sans-Serif" font-size="10.00">Game::fixedUpdate</text>
</a>
</g>
</g>
<!-- Node4&#45;&gt;Node5 -->
<g id="edge4" class="edge"><title>Node4&#45;&gt;Node5</title>
<path fill="none" stroke="midnightblue" d="M477.898,-62.0331C469.253,-61.9716 460.514,-61.9094 452.208,-61.8502"/>
<polygon fill="midnightblue" stroke="midnightblue" points="477.946,-65.5334 487.971,-62.1048 477.996,-58.5336 477.946,-65.5334"/>
</g>
<!-- Node6 -->
<g id="node6" class="node"><title>Node6</title>
<g id="a_node6"><a xlink:href="../../de/d6b/class_application.html#a95c827cb5cf08bd0c3cc7b07ed4b4249" target="_top" xlink:title=" ">
<polygon fill="white" stroke="black" points="194,-50 194,-69 316,-69 316,-50 194,-50"/>
<text text-anchor="middle" x="255" y="-57" font-family="Helvetica,sans-Serif" font-size="10.00">Application::fixedUpdate</text>
</a>
</g>
</g>
<!-- Node5&#45;&gt;Node6 -->
<g id="edge5" class="edge"><title>Node5&#45;&gt;Node6</title>
<path fill="none" stroke="midnightblue" d="M341.747,-60.6827C333.287,-60.566 324.578,-60.4459 316.102,-60.329"/>
<polygon fill="midnightblue" stroke="midnightblue" points="341.862,-64.1845 351.91,-60.8229 341.959,-57.1852 341.862,-64.1845"/>
</g>
<!-- Node7 -->
<g id="node7" class="node"><title>Node7</title>
<g id="a_node7"><a xlink:href="../../de/d6b/class_application.html#a68965449404743bf1add056784d6cf81" target="_top" xlink:title=" ">
<polygon fill="white" stroke="black" points="74,-30 74,-49 158,-49 158,-30 74,-30"/>
<text text-anchor="middle" x="116" y="-37" font-family="Helvetica,sans-Serif" font-size="10.00">Application::run</text>
</a>
</g>
</g>
<!-- Node6&#45;&gt;Node7 -->
<g id="edge6" class="edge"><title>Node6&#45;&gt;Node7</title>
<path fill="none" stroke="midnightblue" d="M183.954,-49.2743C175.121,-47.9848 166.322,-46.7003 158.145,-45.5066"/>
<polygon fill="midnightblue" stroke="midnightblue" points="183.509,-52.7464 193.91,-50.7277 184.52,-45.8198 183.509,-52.7464"/>
</g>
<!-- Node8 -->
<g id="node8" class="node"><title>Node8</title>
<g id="a_node8"><a xlink:href="../../d5/d12/_main_8cpp.html#a0ddf1224851353fc92bfbff6f499fa97" target="_top" xlink:title=" ">
<polygon fill="white" stroke="black" points="0,-30 0,-49 38,-49 38,-30 0,-30"/>
<text text-anchor="middle" x="19" y="-37" font-family="Helvetica,sans-Serif" font-size="10.00">main</text>
</a>
</g>
</g>
<!-- Node7&#45;&gt;Node8 -->
<g id="edge7" class="edge"><title>Node7&#45;&gt;Node8</title>
<path fill="none" stroke="midnightblue" d="M63.6206,-39.5C54.5384,-39.5 45.6466,-39.5 38.2853,-39.5"/>
<polygon fill="midnightblue" stroke="midnightblue" points="63.8842,-43.0001 73.8841,-39.5 63.8841,-36.0001 63.8842,-43.0001"/>
</g>
<!-- Node9&#45;&gt;Node2 -->
<g id="edge9" class="edge"><title>Node9&#45;&gt;Node2</title>
<path fill="none" stroke="midnightblue" d="M941.787,-61.7455C933.197,-62.0262 924.475,-62.3113 916.059,-62.5863"/>
<polygon fill="midnightblue" stroke="midnightblue" points="941.903,-65.2437 951.784,-61.4188 941.675,-58.2474 941.903,-65.2437"/>
</g>
<!-- Node11 -->
<g id="node11" class="node"><title>Node11</title>
<g id="a_node11"><a xlink:href="../../d2/d54/class_updating_system.html#a127ad554750e7e7582a1904abfb265aa" target="_top" xlink:title=" ">
<polygon fill="white" stroke="black" points="637,-8 637,-27 761,-27 761,-8 637,-8"/>
<text text-anchor="middle" x="699" y="-15" font-family="Helvetica,sans-Serif" font-size="10.00">UpdatingSystem::update</text>
</a>
</g>
</g>
<!-- Node10&#45;&gt;Node11 -->
<g id="edge11" class="edge"><title>Node10&#45;&gt;Node11</title>
<path fill="none" stroke="midnightblue" d="M786.52,-16.3872C778.085,-16.4957 769.511,-16.606 761.201,-16.7128"/>
<polygon fill="midnightblue" stroke="midnightblue" points="786.758,-19.8845 796.712,-16.2561 786.668,-12.8851 786.758,-19.8845"/>
</g>
<!-- Node12 -->
<g id="node12" class="node"><title>Node12</title>
<g id="a_node12"><a xlink:href="../../dd/d1f/class_game.html#a79df6376b332d63c9eca0dcee30305c3" target="_top" xlink:title=" ">
<polygon fill="white" stroke="black" points="505.5,-8 505.5,-27 583.5,-27 583.5,-8 505.5,-8"/>
<text text-anchor="middle" x="544.5" y="-15" font-family="Helvetica,sans-Serif" font-size="10.00">Game::update</text>
</a>
</g>
</g>
<!-- Node11&#45;&gt;Node12 -->
<g id="edge12" class="edge"><title>Node11&#45;&gt;Node12</title>
<path fill="none" stroke="midnightblue" d="M626.689,-17.5C611.912,-17.5 596.888,-17.5 583.847,-17.5"/>
<polygon fill="midnightblue" stroke="midnightblue" points="626.851,-21.0001 636.851,-17.5 626.851,-14.0001 626.851,-21.0001"/>
</g>
<!-- Node13 -->
<g id="node13" class="node"><title>Node13</title>
<g id="a_node13"><a xlink:href="../../de/d6b/class_application.html#a051023103d00b96b1e5e7437fd8e2e7c" target="_top" xlink:title=" ">
<polygon fill="white" stroke="black" points="352,-11 352,-30 452,-30 452,-11 352,-11"/>
<text text-anchor="middle" x="402" y="-18" font-family="Helvetica,sans-Serif" font-size="10.00">Application::update</text>
</a>
</g>
</g>
<!-- Node12&#45;&gt;Node13 -->
<g id="edge13" class="edge"><title>Node12&#45;&gt;Node13</title>
<path fill="none" stroke="midnightblue" d="M495.145,-18.5325C481.255,-18.8291 466.095,-19.1528 452.157,-19.4504"/>
<polygon fill="midnightblue" stroke="midnightblue" points="495.556,-22.0246 505.479,-18.3118 495.406,-15.0262 495.556,-22.0246"/>
</g>
<!-- Node13&#45;&gt;Node7 -->
<g id="edge14" class="edge"><title>Node13&#45;&gt;Node7</title>
<path fill="none" stroke="midnightblue" d="M341.561,-24.4766C286.609,-28.1529 206.384,-33.5201 158.177,-36.7452"/>
<polygon fill="midnightblue" stroke="midnightblue" points="342.111,-27.9477 351.855,-23.7879 341.644,-20.9633 342.111,-27.9477"/>
</g>
</g>
</svg>
