<?xml version="1.0" encoding="UTF-8" standalone="no"?>
<!DOCTYPE svg PUBLIC "-//W3C//DTD SVG 1.1//EN"
 "http://www.w3.org/Graphics/SVG/1.1/DTD/svg11.dtd">
<!-- Generated by graphviz version 2.38.0 (20140413.2041)
 -->
<!-- Title: Camera::getViewMatrix Pages: 1 -->
<svg width="1510pt" height="212pt"
 viewBox="0.00 0.00 1510.00 211.92" xmlns="http://www.w3.org/2000/svg" xmlns:xlink="http://www.w3.org/1999/xlink">
<g id="graph0" class="graph" transform="scale(1 1) rotate(0) translate(4 207.918)">
<title>Camera::getViewMatrix</title>
<polygon fill="white" stroke="none" points="-4,4 -4,-207.918 1506,-207.918 1506,4 -4,4"/>
<!-- Node1 -->
<g id="node1" class="node"><title>Node1</title>
<g id="a_node1"><a xlink:title=" ">
<polygon fill="#bfbfbf" stroke="black" points="1384,-123 1384,-142 1502,-142 1502,-123 1384,-123"/>
<text text-anchor="middle" x="1443" y="-130" font-family="Helvetica,sans-Serif" font-size="10.00">Camera::getViewMatrix</text>
</a>
</g>
</g>
<!-- Node2 -->
<g id="node2" class="node"><title>Node2</title>
<g id="a_node2"><a xlink:href="../../d5/db4/class_cube_shape.html#ac5f14732b3bb793823e1abc5b028ad97" target="_top" xlink:title=" ">
<polygon fill="white" stroke="black" points="1217.5,-101 1217.5,-120 1317.5,-120 1317.5,-101 1217.5,-101"/>
<text text-anchor="middle" x="1267.5" y="-108" font-family="Helvetica,sans-Serif" font-size="10.00">CubeShape::render</text>
</a>
</g>
</g>
<!-- Node1&#45;&gt;Node2 -->
<g id="edge1" class="edge"><title>Node1&#45;&gt;Node2</title>
<path fill="none" stroke="midnightblue" d="M1373.78,-123.849C1355.03,-121.472 1335.07,-118.941 1317.63,-116.73"/>
<polygon fill="midnightblue" stroke="midnightblue" points="1373.38,-127.327 1383.74,-125.113 1374.26,-120.383 1373.38,-127.327"/>
</g>
<!-- Node11 -->
<g id="node11" class="node"><title>Node11</title>
<g id="a_node11"><a xlink:href="../../d8/d31/class_rendering_system.html#ad47afdc3d5267073f53695fcd483ee89" target="_top" xlink:title=" ">
<polygon fill="white" stroke="black" points="777,-178 777,-197 950,-197 950,-178 777,-178"/>
<text text-anchor="middle" x="863.5" y="-185" font-family="Helvetica,sans-Serif" font-size="10.00">RenderingSystem::renderDebugging</text>
</a>
</g>
</g>
<!-- Node1&#45;&gt;Node11 -->
<g id="edge10" class="edge"><title>Node1&#45;&gt;Node11</title>
<path fill="none" stroke="midnightblue" d="M1418.92,-147.361C1400.52,-158.299 1373.68,-172.3 1348,-178.5 1211.91,-211.35 1047.97,-205.224 950.203,-196.959"/>
<polygon fill="midnightblue" stroke="midnightblue" points="1420.76,-150.335 1427.47,-142.132 1417.11,-144.363 1420.76,-150.335"/>
</g>
<!-- Node12 -->
<g id="node12" class="node"><title>Node12</title>
<g id="a_node12"><a xlink:href="../../d8/d31/class_rendering_system.html#a05f635d7510f575548938326c6c1b550" target="_top" xlink:title=" ">
<polygon fill="white" stroke="black" points="1188.5,-38.5 1188.5,-68.5 1346.5,-68.5 1346.5,-38.5 1188.5,-38.5"/>
<text text-anchor="start" x="1196.5" y="-56.5" font-family="Helvetica,sans-Serif" font-size="10.00">RenderingSystem::supplyDefault</text>
<text text-anchor="middle" x="1267.5" y="-45.5" font-family="Helvetica,sans-Serif" font-size="10.00">ShaderUniforms</text>
</a>
</g>
</g>
<!-- Node1&#45;&gt;Node12 -->
<g id="edge12" class="edge"><title>Node1&#45;&gt;Node12</title>
<path fill="none" stroke="midnightblue" d="M1411.71,-118.71C1380.95,-104.703 1333.44,-83.069 1301.68,-68.6061"/>
<polygon fill="midnightblue" stroke="midnightblue" points="1410.52,-122.012 1421.07,-122.971 1413.42,-115.641 1410.52,-122.012"/>
</g>
<!-- Node15 -->
<g id="node15" class="node"><title>Node15</title>
<g id="a_node15"><a xlink:href="../../d8/d31/class_rendering_system.html#a9a564fd51aaea7d85eaf86b5101802ee" target="_top" xlink:title=" ">
<polygon fill="white" stroke="black" points="1187,-139.5 1187,-169.5 1348,-169.5 1348,-139.5 1187,-139.5"/>
<text text-anchor="start" x="1195" y="-157.5" font-family="Helvetica,sans-Serif" font-size="10.00">RenderingSystem::supplyParticle</text>
<text text-anchor="middle" x="1267.5" y="-146.5" font-family="Helvetica,sans-Serif" font-size="10.00">ShaderUniforms</text>
</a>
</g>
</g>
<!-- Node1&#45;&gt;Node15 -->
<g id="edge17" class="edge"><title>Node1&#45;&gt;Node15</title>
<path fill="none" stroke="midnightblue" d="M1373.68,-141.163C1365.31,-142.224 1356.7,-143.316 1348.18,-144.396"/>
<polygon fill="midnightblue" stroke="midnightblue" points="1374.26,-144.617 1383.74,-139.887 1373.38,-137.673 1374.26,-144.617"/>
</g>
<!-- Node3 -->
<g id="node3" class="node"><title>Node3</title>
<g id="a_node3"><a xlink:href="../../d1/dce/class_sky_box_system.html#a20cc449bcb48e9cc9067f5bb324f6238" target="_top" xlink:title=" ">
<polygon fill="white" stroke="black" points="1009.5,-110 1009.5,-129 1127.5,-129 1127.5,-110 1009.5,-110"/>
<text text-anchor="middle" x="1068.5" y="-117" font-family="Helvetica,sans-Serif" font-size="10.00">SkyBoxSystem::render</text>
</a>
</g>
</g>
<!-- Node2&#45;&gt;Node3 -->
<g id="edge2" class="edge"><title>Node2&#45;&gt;Node3</title>
<path fill="none" stroke="midnightblue" d="M1207.13,-113.213C1181.9,-114.365 1152.59,-115.704 1127.52,-116.849"/>
<polygon fill="midnightblue" stroke="midnightblue" points="1207.47,-116.701 1217.3,-112.748 1207.15,-109.708 1207.47,-116.701"/>
</g>
<!-- Node4 -->
<g id="node4" class="node"><title>Node4</title>
<g id="a_node4"><a xlink:href="../../d8/d31/class_rendering_system.html#ad5115644b3d0a1df6446a610c683a31e" target="_top" xlink:title=" ">
<polygon fill="white" stroke="black" points="785.5,-120 785.5,-139 941.5,-139 941.5,-120 785.5,-120"/>
<text text-anchor="middle" x="863.5" y="-127" font-family="Helvetica,sans-Serif" font-size="10.00">RenderingSystem::renderOthers</text>
</a>
</g>
</g>
<!-- Node3&#45;&gt;Node4 -->
<g id="edge3" class="edge"><title>Node3&#45;&gt;Node4</title>
<path fill="none" stroke="midnightblue" d="M999.236,-122.863C980.731,-123.774 960.568,-124.768 941.612,-125.701"/>
<polygon fill="midnightblue" stroke="midnightblue" points="999.513,-126.353 1009.33,-122.366 999.168,-119.362 999.513,-126.353"/>
</g>
<!-- Node5 -->
<g id="node5" class="node"><title>Node5</title>
<g id="a_node5"><a xlink:href="../../d8/d31/class_rendering_system.html#a9f1ec48fdfa79ddc55421b6014fdb9c6" target="_top" xlink:title=" ">
<polygon fill="white" stroke="black" points="603,-149 603,-168 741,-168 741,-149 603,-149"/>
<text text-anchor="middle" x="672" y="-156" font-family="Helvetica,sans-Serif" font-size="10.00">RenderingSystem::renderAll</text>
</a>
</g>
</g>
<!-- Node4&#45;&gt;Node5 -->
<g id="edge4" class="edge"><title>Node4&#45;&gt;Node5</title>
<path fill="none" stroke="midnightblue" d="M790.273,-140.553C772.177,-143.322 752.918,-146.27 735.349,-148.958"/>
<polygon fill="midnightblue" stroke="midnightblue" points="790.833,-144.008 800.188,-139.036 789.774,-137.089 790.833,-144.008"/>
</g>
<!-- Node6 -->
<g id="node6" class="node"><title>Node6</title>
<g id="a_node6"><a xlink:href="../../d8/d31/class_rendering_system.html#ae6a25f6b28ebe40f08916d9eadc95ac2" target="_top" xlink:title=" ">
<polygon fill="white" stroke="black" points="440,-149 440,-168 567,-168 567,-149 440,-149"/>
<text text-anchor="middle" x="503.5" y="-156" font-family="Helvetica,sans-Serif" font-size="10.00">RenderingSystem::render</text>
</a>
</g>
</g>
<!-- Node5&#45;&gt;Node6 -->
<g id="edge5" class="edge"><title>Node5&#45;&gt;Node6</title>
<path fill="none" stroke="midnightblue" d="M592.795,-158.5C584.227,-158.5 575.588,-158.5 567.242,-158.5"/>
<polygon fill="midnightblue" stroke="midnightblue" points="592.798,-162 602.798,-158.5 592.798,-155 592.798,-162"/>
</g>
<!-- Node7 -->
<g id="node7" class="node"><title>Node7</title>
<g id="a_node7"><a xlink:href="../../dd/d1f/class_game.html#a15ddd769261d923827a3cdf41499c843" target="_top" xlink:title=" ">
<polygon fill="white" stroke="black" points="328,-149 328,-168 404,-168 404,-149 328,-149"/>
<text text-anchor="middle" x="366" y="-156" font-family="Helvetica,sans-Serif" font-size="10.00">Game::render</text>
</a>
</g>
</g>
<!-- Node6&#45;&gt;Node7 -->
<g id="edge6" class="edge"><title>Node6&#45;&gt;Node7</title>
<path fill="none" stroke="midnightblue" d="M429.877,-158.5C421.008,-158.5 412.25,-158.5 404.216,-158.5"/>
<polygon fill="midnightblue" stroke="midnightblue" points="429.906,-162 439.906,-158.5 429.906,-155 429.906,-162"/>
</g>
<!-- Node8 -->
<g id="node8" class="node"><title>Node8</title>
<g id="a_node8"><a xlink:href="../../de/d6b/class_application.html#a9ac99d97ee1cc814298a2f2388bde835" target="_top" xlink:title=" ">
<polygon fill="white" stroke="black" points="194,-149 194,-168 292,-168 292,-149 194,-149"/>
<text text-anchor="middle" x="243" y="-156" font-family="Helvetica,sans-Serif" font-size="10.00">Application::render</text>
</a>
</g>
</g>
<!-- Node7&#45;&gt;Node8 -->
<g id="edge7" class="edge"><title>Node7&#45;&gt;Node8</title>
<path fill="none" stroke="midnightblue" d="M317.684,-158.5C309.282,-158.5 300.524,-158.5 292.101,-158.5"/>
<polygon fill="midnightblue" stroke="midnightblue" points="317.709,-162 327.709,-158.5 317.709,-155 317.709,-162"/>
</g>
<!-- Node9 -->
<g id="node9" class="node"><title>Node9</title>
<g id="a_node9"><a xlink:href="../../de/d6b/class_application.html#a68965449404743bf1add056784d6cf81" target="_top" xlink:title=" ">
<polygon fill="white" stroke="black" points="74,-149 74,-168 158,-168 158,-149 74,-149"/>
<text text-anchor="middle" x="116" y="-156" font-family="Helvetica,sans-Serif" font-size="10.00">Application::run</text>
</a>
</g>
</g>
<!-- Node8&#45;&gt;Node9 -->
<g id="edge8" class="edge"><title>Node8&#45;&gt;Node9</title>
<path fill="none" stroke="midnightblue" d="M183.411,-158.5C174.926,-158.5 166.343,-158.5 158.294,-158.5"/>
<polygon fill="midnightblue" stroke="midnightblue" points="183.672,-162 193.672,-158.5 183.672,-155 183.672,-162"/>
</g>
<!-- Node10 -->
<g id="node10" class="node"><title>Node10</title>
<g id="a_node10"><a xlink:href="../../d5/d12/_main_8cpp.html#a0ddf1224851353fc92bfbff6f499fa97" target="_top" xlink:title=" ">
<polygon fill="white" stroke="black" points="0,-149 0,-168 38,-168 38,-149 0,-149"/>
<text text-anchor="middle" x="19" y="-156" font-family="Helvetica,sans-Serif" font-size="10.00">main</text>
</a>
</g>
</g>
<!-- Node9&#45;&gt;Node10 -->
<g id="edge9" class="edge"><title>Node9&#45;&gt;Node10</title>
<path fill="none" stroke="midnightblue" d="M63.6206,-158.5C54.5384,-158.5 45.6466,-158.5 38.2853,-158.5"/>
<polygon fill="midnightblue" stroke="midnightblue" points="63.8842,-162 73.8841,-158.5 63.8841,-155 63.8842,-162"/>
</g>
<!-- Node11&#45;&gt;Node5 -->
<g id="edge11" class="edge"><title>Node11&#45;&gt;Node5</title>
<path fill="none" stroke="midnightblue" d="M790.273,-176.447C772.177,-173.678 752.918,-170.73 735.349,-168.042"/>
<polygon fill="midnightblue" stroke="midnightblue" points="789.774,-179.911 800.188,-177.964 790.833,-172.992 789.774,-179.911"/>
</g>
<!-- Node12&#45;&gt;Node4 -->
<g id="edge14" class="edge"><title>Node12&#45;&gt;Node4</title>
<path fill="none" stroke="midnightblue" d="M1178.12,-66.7249C1122.75,-75.4013 1050.01,-87.5149 986,-100.5 957.521,-106.278 925.566,-113.953 901.578,-119.955"/>
<polygon fill="midnightblue" stroke="midnightblue" points="1178.91,-70.1443 1188.25,-65.1454 1177.83,-63.2279 1178.91,-70.1443"/>
</g>
<!-- Node13 -->
<g id="node13" class="node"><title>Node13</title>
<g id="a_node13"><a xlink:href="../../d8/d31/class_rendering_system.html#a167a571527b6f44e8c4bf45f383500be" target="_top" xlink:title=" ">
<polygon fill="white" stroke="black" points="797.5,-0.5 797.5,-30.5 929.5,-30.5 929.5,-0.5 797.5,-0.5"/>
<text text-anchor="start" x="805.5" y="-18.5" font-family="Helvetica,sans-Serif" font-size="10.00">RenderingSystem::prepare</text>
<text text-anchor="middle" x="863.5" y="-7.5" font-family="Helvetica,sans-Serif" font-size="10.00">Shader</text>
</a>
</g>
</g>
<!-- Node12&#45;&gt;Node13 -->
<g id="edge13" class="edge"><title>Node12&#45;&gt;Node13</title>
<path fill="none" stroke="midnightblue" d="M1224,-34.4916C1202.58,-25.929 1175.91,-16.7905 1151,-12.5 1075.88,0.438218 988.025,-3.18913 929.606,-8.18522"/>
<polygon fill="midnightblue" stroke="midnightblue" points="1222.87,-37.811 1233.45,-38.3658 1225.53,-31.3342 1222.87,-37.811"/>
</g>
<!-- Node14 -->
<g id="node14" class="node"><title>Node14</title>
<g id="a_node14"><a xlink:href="../../d8/d31/class_rendering_system.html#a5174d014f3eaf6bbc2a3ac03a9029d76" target="_top" xlink:title=" ">
<polygon fill="white" stroke="black" points="999,-22.5 999,-52.5 1138,-52.5 1138,-22.5 999,-22.5"/>
<text text-anchor="start" x="1007" y="-40.5" font-family="Helvetica,sans-Serif" font-size="10.00">RenderingSystem::supplyLit</text>
<text text-anchor="middle" x="1068.5" y="-29.5" font-family="Helvetica,sans-Serif" font-size="10.00">ShaderUniforms</text>
</a>
</g>
</g>
<!-- Node12&#45;&gt;Node14 -->
<g id="edge15" class="edge"><title>Node12&#45;&gt;Node14</title>
<path fill="none" stroke="midnightblue" d="M1178.19,-46.3279C1164.82,-45.2414 1151.19,-44.1344 1138.3,-43.088"/>
<polygon fill="midnightblue" stroke="midnightblue" points="1178.11,-49.8323 1188.36,-47.1534 1178.67,-42.8553 1178.11,-49.8323"/>
</g>
<!-- Node14&#45;&gt;Node13 -->
<g id="edge16" class="edge"><title>Node14&#45;&gt;Node13</title>
<path fill="none" stroke="midnightblue" d="M988.696,-28.9597C969.189,-26.8457 948.504,-24.6039 929.725,-22.5688"/>
<polygon fill="midnightblue" stroke="midnightblue" points="988.455,-32.4539 998.773,-30.0518 989.209,-25.4947 988.455,-32.4539"/>
</g>
<!-- Node16 -->
<g id="node16" class="node"><title>Node16</title>
<g id="a_node16"><a xlink:href="../../d8/d31/class_rendering_system.html#a488d5dcc3e1f3c63dedee53bc022a6af" target="_top" xlink:title=" ">
<polygon fill="white" stroke="black" points="986,-148 986,-167 1151,-167 1151,-148 986,-148"/>
<text text-anchor="middle" x="1068.5" y="-155" font-family="Helvetica,sans-Serif" font-size="10.00">RenderingSystem::renderParticles</text>
</a>
</g>
</g>
<!-- Node15&#45;&gt;Node16 -->
<g id="edge18" class="edge"><title>Node15&#45;&gt;Node16</title>
<path fill="none" stroke="midnightblue" d="M1176.68,-155.868C1168.21,-155.997 1159.67,-156.127 1151.28,-156.255"/>
<polygon fill="midnightblue" stroke="midnightblue" points="1176.99,-159.364 1186.94,-155.712 1176.89,-152.364 1176.99,-159.364"/>
</g>
<!-- Node16&#45;&gt;Node4 -->
<g id="edge19" class="edge"><title>Node16&#45;&gt;Node4</title>
<path fill="none" stroke="midnightblue" d="M988.549,-146.61C970.44,-144.112 951.323,-141.476 933.664,-139.04"/>
<polygon fill="midnightblue" stroke="midnightblue" points="988.106,-150.082 998.49,-147.981 989.062,-143.148 988.106,-150.082"/>
</g>
</g>
</svg>
