<?xml version="1.0" encoding="UTF-8" standalone="no"?>
<!DOCTYPE svg PUBLIC "-//W3C//DTD SVG 1.1//EN"
 "http://www.w3.org/Graphics/SVG/1.1/DTD/svg11.dtd">
<!-- Generated by graphviz version 2.38.0 (20140413.2041)
 -->
<!-- Title: Camera::getProjectionMatrix Pages: 1 -->
<svg width="1523pt" height="192pt"
 viewBox="0.00 0.00 1523.00 192.00" xmlns="http://www.w3.org/2000/svg" xmlns:xlink="http://www.w3.org/1999/xlink">
<g id="graph0" class="graph" transform="scale(1 1) rotate(0) translate(4 188)">
<title>Camera::getProjectionMatrix</title>
<polygon fill="white" stroke="none" points="-4,4 -4,-188 1519,-188 1519,4 -4,4"/>
<!-- Node1 -->
<g id="node1" class="node"><title>Node1</title>
<g id="a_node1"><a xlink:title=" ">
<polygon fill="#bfbfbf" stroke="black" points="1375,-82.5 1375,-101.5 1515,-101.5 1515,-82.5 1375,-82.5"/>
<text text-anchor="middle" x="1445" y="-89.5" font-family="Helvetica,sans-Serif" font-size="10.00">Camera::getProjectionMatrix</text>
</a>
</g>
</g>
<!-- Node2 -->
<g id="node2" class="node"><title>Node2</title>
<g id="a_node2"><a xlink:href="../../d8/d31/class_rendering_system.html#ad47afdc3d5267073f53695fcd483ee89" target="_top" xlink:title=" ">
<polygon fill="white" stroke="black" points="969,-164.5 969,-183.5 1142,-183.5 1142,-164.5 969,-164.5"/>
<text text-anchor="middle" x="1055.5" y="-171.5" font-family="Helvetica,sans-Serif" font-size="10.00">RenderingSystem::renderDebugging</text>
</a>
</g>
</g>
<!-- Node1&#45;&gt;Node2 -->
<g id="edge1" class="edge"><title>Node1&#45;&gt;Node2</title>
<path fill="none" stroke="midnightblue" d="M1395.1,-104.014C1377.45,-108.252 1357.36,-112.964 1339,-117 1257.76,-134.862 1162.9,-153.563 1106.36,-164.481"/>
<polygon fill="midnightblue" stroke="midnightblue" points="1396.28,-107.33 1405.18,-101.582 1394.64,-100.526 1396.28,-107.33"/>
</g>
<!-- Node9 -->
<g id="node9" class="node"><title>Node9</title>
<g id="a_node9"><a xlink:href="../../d8/d31/class_rendering_system.html#a05f635d7510f575548938326c6c1b550" target="_top" xlink:title=" ">
<polygon fill="white" stroke="black" points="1179.5,-77 1179.5,-107 1337.5,-107 1337.5,-77 1179.5,-77"/>
<text text-anchor="start" x="1187.5" y="-95" font-family="Helvetica,sans-Serif" font-size="10.00">RenderingSystem::supplyDefault</text>
<text text-anchor="middle" x="1258.5" y="-84" font-family="Helvetica,sans-Serif" font-size="10.00">ShaderUniforms</text>
</a>
</g>
</g>
<!-- Node1&#45;&gt;Node9 -->
<g id="edge8" class="edge"><title>Node1&#45;&gt;Node9</title>
<path fill="none" stroke="midnightblue" d="M1364.77,-92C1355.83,-92 1346.72,-92 1337.79,-92"/>
<polygon fill="midnightblue" stroke="midnightblue" points="1364.77,-95.5001 1374.77,-92 1364.77,-88.5001 1364.77,-95.5001"/>
</g>
<!-- Node13 -->
<g id="node13" class="node"><title>Node13</title>
<g id="a_node13"><a xlink:href="../../d8/d31/class_rendering_system.html#a9a564fd51aaea7d85eaf86b5101802ee" target="_top" xlink:title=" ">
<polygon fill="white" stroke="black" points="1178,-12 1178,-42 1339,-42 1339,-12 1178,-12"/>
<text text-anchor="start" x="1186" y="-30" font-family="Helvetica,sans-Serif" font-size="10.00">RenderingSystem::supplyParticle</text>
<text text-anchor="middle" x="1258.5" y="-19" font-family="Helvetica,sans-Serif" font-size="10.00">ShaderUniforms</text>
</a>
</g>
</g>
<!-- Node1&#45;&gt;Node13 -->
<g id="edge14" class="edge"><title>Node1&#45;&gt;Node13</title>
<path fill="none" stroke="midnightblue" d="M1407.03,-78.9765C1376.78,-68.3191 1333.97,-53.2344 1302.24,-42.0591"/>
<polygon fill="midnightblue" stroke="midnightblue" points="1406.18,-82.3872 1416.78,-82.409 1408.51,-75.785 1406.18,-82.3872"/>
</g>
<!-- Node3 -->
<g id="node3" class="node"><title>Node3</title>
<g id="a_node3"><a xlink:href="../../d8/d31/class_rendering_system.html#a9f1ec48fdfa79ddc55421b6014fdb9c6" target="_top" xlink:title=" ">
<polygon fill="white" stroke="black" points="603,-96.5 603,-115.5 741,-115.5 741,-96.5 603,-96.5"/>
<text text-anchor="middle" x="672" y="-103.5" font-family="Helvetica,sans-Serif" font-size="10.00">RenderingSystem::renderAll</text>
</a>
</g>
</g>
<!-- Node2&#45;&gt;Node3 -->
<g id="edge2" class="edge"><title>Node2&#45;&gt;Node3</title>
<path fill="none" stroke="midnightblue" d="M958.726,-164.347C904.981,-158.067 836.889,-148.669 777,-136 751.261,-130.555 722.571,-122.094 701.855,-115.543"/>
<polygon fill="midnightblue" stroke="midnightblue" points="958.598,-167.856 968.933,-165.523 959.399,-160.902 958.598,-167.856"/>
</g>
<!-- Node4 -->
<g id="node4" class="node"><title>Node4</title>
<g id="a_node4"><a xlink:href="../../d8/d31/class_rendering_system.html#ae6a25f6b28ebe40f08916d9eadc95ac2" target="_top" xlink:title=" ">
<polygon fill="white" stroke="black" points="440,-96.5 440,-115.5 567,-115.5 567,-96.5 440,-96.5"/>
<text text-anchor="middle" x="503.5" y="-103.5" font-family="Helvetica,sans-Serif" font-size="10.00">RenderingSystem::render</text>
</a>
</g>
</g>
<!-- Node3&#45;&gt;Node4 -->
<g id="edge3" class="edge"><title>Node3&#45;&gt;Node4</title>
<path fill="none" stroke="midnightblue" d="M592.795,-106C584.227,-106 575.588,-106 567.242,-106"/>
<polygon fill="midnightblue" stroke="midnightblue" points="592.798,-109.5 602.798,-106 592.798,-102.5 592.798,-109.5"/>
</g>
<!-- Node5 -->
<g id="node5" class="node"><title>Node5</title>
<g id="a_node5"><a xlink:href="../../dd/d1f/class_game.html#a15ddd769261d923827a3cdf41499c843" target="_top" xlink:title=" ">
<polygon fill="white" stroke="black" points="328,-96.5 328,-115.5 404,-115.5 404,-96.5 328,-96.5"/>
<text text-anchor="middle" x="366" y="-103.5" font-family="Helvetica,sans-Serif" font-size="10.00">Game::render</text>
</a>
</g>
</g>
<!-- Node4&#45;&gt;Node5 -->
<g id="edge4" class="edge"><title>Node4&#45;&gt;Node5</title>
<path fill="none" stroke="midnightblue" d="M429.877,-106C421.008,-106 412.25,-106 404.216,-106"/>
<polygon fill="midnightblue" stroke="midnightblue" points="429.906,-109.5 439.906,-106 429.906,-102.5 429.906,-109.5"/>
</g>
<!-- Node6 -->
<g id="node6" class="node"><title>Node6</title>
<g id="a_node6"><a xlink:href="../../de/d6b/class_application.html#a9ac99d97ee1cc814298a2f2388bde835" target="_top" xlink:title=" ">
<polygon fill="white" stroke="black" points="194,-96.5 194,-115.5 292,-115.5 292,-96.5 194,-96.5"/>
<text text-anchor="middle" x="243" y="-103.5" font-family="Helvetica,sans-Serif" font-size="10.00">Application::render</text>
</a>
</g>
</g>
<!-- Node5&#45;&gt;Node6 -->
<g id="edge5" class="edge"><title>Node5&#45;&gt;Node6</title>
<path fill="none" stroke="midnightblue" d="M317.684,-106C309.282,-106 300.524,-106 292.101,-106"/>
<polygon fill="midnightblue" stroke="midnightblue" points="317.709,-109.5 327.709,-106 317.709,-102.5 317.709,-109.5"/>
</g>
<!-- Node7 -->
<g id="node7" class="node"><title>Node7</title>
<g id="a_node7"><a xlink:href="../../de/d6b/class_application.html#a68965449404743bf1add056784d6cf81" target="_top" xlink:title=" ">
<polygon fill="white" stroke="black" points="74,-96.5 74,-115.5 158,-115.5 158,-96.5 74,-96.5"/>
<text text-anchor="middle" x="116" y="-103.5" font-family="Helvetica,sans-Serif" font-size="10.00">Application::run</text>
</a>
</g>
</g>
<!-- Node6&#45;&gt;Node7 -->
<g id="edge6" class="edge"><title>Node6&#45;&gt;Node7</title>
<path fill="none" stroke="midnightblue" d="M183.411,-106C174.926,-106 166.343,-106 158.294,-106"/>
<polygon fill="midnightblue" stroke="midnightblue" points="183.672,-109.5 193.672,-106 183.672,-102.5 183.672,-109.5"/>
</g>
<!-- Node8 -->
<g id="node8" class="node"><title>Node8</title>
<g id="a_node8"><a xlink:href="../../d5/d12/_main_8cpp.html#a0ddf1224851353fc92bfbff6f499fa97" target="_top" xlink:title=" ">
<polygon fill="white" stroke="black" points="0,-96.5 0,-115.5 38,-115.5 38,-96.5 0,-96.5"/>
<text text-anchor="middle" x="19" y="-103.5" font-family="Helvetica,sans-Serif" font-size="10.00">main</text>
</a>
</g>
</g>
<!-- Node7&#45;&gt;Node8 -->
<g id="edge7" class="edge"><title>Node7&#45;&gt;Node8</title>
<path fill="none" stroke="midnightblue" d="M63.6206,-106C54.5384,-106 45.6466,-106 38.2853,-106"/>
<polygon fill="midnightblue" stroke="midnightblue" points="63.8842,-109.5 73.8841,-106 63.8841,-102.5 63.8842,-109.5"/>
</g>
<!-- Node10 -->
<g id="node10" class="node"><title>Node10</title>
<g id="a_node10"><a xlink:href="../../d8/d31/class_rendering_system.html#a167a571527b6f44e8c4bf45f383500be" target="_top" xlink:title=" ">
<polygon fill="white" stroke="black" points="789,-96 789,-126 921,-126 921,-96 789,-96"/>
<text text-anchor="start" x="797" y="-114" font-family="Helvetica,sans-Serif" font-size="10.00">RenderingSystem::prepare</text>
<text text-anchor="middle" x="855" y="-103" font-family="Helvetica,sans-Serif" font-size="10.00">Shader</text>
</a>
</g>
</g>
<!-- Node9&#45;&gt;Node10 -->
<g id="edge9" class="edge"><title>Node9&#45;&gt;Node10</title>
<path fill="none" stroke="midnightblue" d="M1189.67,-109.201C1174.11,-112.442 1157.56,-115.335 1142,-117 1066.57,-125.07 979.331,-121.373 921.231,-117.079"/>
<polygon fill="midnightblue" stroke="midnightblue" points="1190.69,-112.561 1199.73,-107.031 1189.21,-105.718 1190.69,-112.561"/>
</g>
<!-- Node11 -->
<g id="node11" class="node"><title>Node11</title>
<g id="a_node11"><a xlink:href="../../d8/d31/class_rendering_system.html#ad5115644b3d0a1df6446a610c683a31e" target="_top" xlink:title=" ">
<polygon fill="white" stroke="black" points="777,-38.5 777,-57.5 933,-57.5 933,-38.5 777,-38.5"/>
<text text-anchor="middle" x="855" y="-45.5" font-family="Helvetica,sans-Serif" font-size="10.00">RenderingSystem::renderOthers</text>
</a>
</g>
</g>
<!-- Node9&#45;&gt;Node11 -->
<g id="edge10" class="edge"><title>Node9&#45;&gt;Node11</title>
<path fill="none" stroke="midnightblue" d="M1186.13,-74.8413C1171.6,-71.8307 1156.36,-69.0201 1142,-67 1071.66,-57.1051 990.835,-52.3376 933.093,-50.0558"/>
<polygon fill="midnightblue" stroke="midnightblue" points="1185.55,-78.2963 1196.06,-76.9502 1187.01,-71.449 1185.55,-78.2963"/>
</g>
<!-- Node12 -->
<g id="node12" class="node"><title>Node12</title>
<g id="a_node12"><a xlink:href="../../d8/d31/class_rendering_system.html#a5174d014f3eaf6bbc2a3ac03a9029d76" target="_top" xlink:title=" ">
<polygon fill="white" stroke="black" points="986,-77 986,-107 1125,-107 1125,-77 986,-77"/>
<text text-anchor="start" x="994" y="-95" font-family="Helvetica,sans-Serif" font-size="10.00">RenderingSystem::supplyLit</text>
<text text-anchor="middle" x="1055.5" y="-84" font-family="Helvetica,sans-Serif" font-size="10.00">ShaderUniforms</text>
</a>
</g>
</g>
<!-- Node9&#45;&gt;Node12 -->
<g id="edge12" class="edge"><title>Node9&#45;&gt;Node12</title>
<path fill="none" stroke="midnightblue" d="M1169.08,-92C1154.34,-92 1139.25,-92 1125.1,-92"/>
<polygon fill="midnightblue" stroke="midnightblue" points="1169.21,-95.5001 1179.21,-92 1169.21,-88.5001 1169.21,-95.5001"/>
</g>
<!-- Node11&#45;&gt;Node3 -->
<g id="edge11" class="edge"><title>Node11&#45;&gt;Node3</title>
<path fill="none" stroke="midnightblue" d="M814.171,-60.7628C780.614,-71.5159 733.342,-86.664 702.933,-96.4083"/>
<polygon fill="midnightblue" stroke="midnightblue" points="815.657,-63.9622 824.112,-57.5775 813.52,-57.2961 815.657,-63.9622"/>
</g>
<!-- Node12&#45;&gt;Node10 -->
<g id="edge13" class="edge"><title>Node12&#45;&gt;Node10</title>
<path fill="none" stroke="midnightblue" d="M975.955,-99.5182C957.829,-101.253 938.738,-103.081 921.249,-104.754"/>
<polygon fill="midnightblue" stroke="midnightblue" points="976.289,-103.002 985.91,-98.5653 975.622,-96.0342 976.289,-103.002"/>
</g>
<!-- Node14 -->
<g id="node14" class="node"><title>Node14</title>
<g id="a_node14"><a xlink:href="../../d8/d31/class_rendering_system.html#a488d5dcc3e1f3c63dedee53bc022a6af" target="_top" xlink:title=" ">
<polygon fill="white" stroke="black" points="973,-0.5 973,-19.5 1138,-19.5 1138,-0.5 973,-0.5"/>
<text text-anchor="middle" x="1055.5" y="-7.5" font-family="Helvetica,sans-Serif" font-size="10.00">RenderingSystem::renderParticles</text>
</a>
</g>
</g>
<!-- Node13&#45;&gt;Node14 -->
<g id="edge15" class="edge"><title>Node13&#45;&gt;Node14</title>
<path fill="none" stroke="midnightblue" d="M1167.6,-19.3966C1157.78,-18.566 1147.82,-17.7238 1138.11,-16.9022"/>
<polygon fill="midnightblue" stroke="midnightblue" points="1167.51,-22.9014 1177.77,-20.2567 1168.1,-15.9263 1167.51,-22.9014"/>
</g>
<!-- Node14&#45;&gt;Node11 -->
<g id="edge16" class="edge"><title>Node14&#45;&gt;Node11</title>
<path fill="none" stroke="midnightblue" d="M994.483,-21.4894C966.16,-26.9114 932.758,-33.3058 905.854,-38.4561"/>
<polygon fill="midnightblue" stroke="midnightblue" points="995.503,-24.8578 1004.67,-19.54 994.187,-17.9827 995.503,-24.8578"/>
</g>
</g>
</svg>
