<?xml version="1.0" encoding="UTF-8" standalone="no"?>
<!DOCTYPE svg PUBLIC "-//W3C//DTD SVG 1.1//EN"
 "http://www.w3.org/Graphics/SVG/1.1/DTD/svg11.dtd">
<!-- Generated by graphviz version 2.38.0 (20140413.2041)
 -->
<!-- Title: Shader::setPointLight Pages: 1 -->
<svg width="294pt" height="104pt"
 viewBox="0.00 0.00 294.00 104.00" xmlns="http://www.w3.org/2000/svg" xmlns:xlink="http://www.w3.org/1999/xlink">
<g id="graph0" class="graph" transform="scale(1 1) rotate(0) translate(4 100)">
<title>Shader::setPointLight</title>
<polygon fill="white" stroke="none" points="-4,4 -4,-100 290,-100 290,4 -4,4"/>
<!-- Node1 -->
<g id="node1" class="node"><title>Node1</title>
<g id="a_node1"><a xlink:title=" ">
<polygon fill="#bfbfbf" stroke="black" points="0,-38.5 0,-57.5 110,-57.5 110,-38.5 0,-38.5"/>
<text text-anchor="middle" x="55" y="-45.5" font-family="Helvetica,sans-Serif" font-size="10.00">Shader::setPointLight</text>
</a>
</g>
</g>
<!-- Node2 -->
<g id="node2" class="node"><title>Node2</title>
<g id="a_node2"><a xlink:href="../../db/d2b/class_settings.html#ac25f3a418000ad7512363abe4d786c00" target="_top" xlink:title=" ">
<polygon fill="white" stroke="black" points="146.5,-76.5 146.5,-95.5 285.5,-95.5 285.5,-76.5 146.5,-76.5"/>
<text text-anchor="middle" x="216" y="-83.5" font-family="Helvetica,sans-Serif" font-size="10.00">Settings::getLightsPerEntity</text>
</a>
</g>
</g>
<!-- Node1&#45;&gt;Node2 -->
<g id="edge1" class="edge"><title>Node1&#45;&gt;Node2</title>
<path fill="none" stroke="midnightblue" d="M96.1224,-57.589C117.104,-62.6035 142.982,-68.7881 165.23,-74.1053"/>
<polygon fill="midnightblue" stroke="midnightblue" points="164.626,-77.5595 175.166,-76.4799 166.254,-70.7513 164.626,-77.5595"/>
</g>
<!-- Node3 -->
<g id="node3" class="node"><title>Node3</title>
<g id="a_node3"><a xlink:href="../../d1/d51/class_shader.html#af7b2edf38072fea1836082ab8c6cfbc8" target="_top" xlink:title=" ">
<polygon fill="white" stroke="black" points="155,-38.5 155,-57.5 277,-57.5 277,-38.5 155,-38.5"/>
<text text-anchor="middle" x="216" y="-45.5" font-family="Helvetica,sans-Serif" font-size="10.00">Shader::supply1fUniform</text>
</a>
</g>
</g>
<!-- Node1&#45;&gt;Node3 -->
<g id="edge2" class="edge"><title>Node1&#45;&gt;Node3</title>
<path fill="none" stroke="midnightblue" d="M110.274,-48C121.407,-48 133.276,-48 144.875,-48"/>
<polygon fill="midnightblue" stroke="midnightblue" points="144.974,-51.5001 154.974,-48 144.974,-44.5001 144.974,-51.5001"/>
</g>
<!-- Node4 -->
<g id="node4" class="node"><title>Node4</title>
<g id="a_node4"><a xlink:href="../../d1/d51/class_shader.html#a873f88df30cb970cd4dd96c261bb5f77" target="_top" xlink:title=" ">
<polygon fill="white" stroke="black" points="146,-0.5 146,-19.5 286,-19.5 286,-0.5 146,-0.5"/>
<text text-anchor="middle" x="216" y="-7.5" font-family="Helvetica,sans-Serif" font-size="10.00">Shader::supplyVec3fUniform</text>
</a>
</g>
</g>
<!-- Node1&#45;&gt;Node4 -->
<g id="edge3" class="edge"><title>Node1&#45;&gt;Node4</title>
<path fill="none" stroke="midnightblue" d="M96.1224,-38.411C117.104,-33.3965 142.982,-27.2119 165.23,-21.8947"/>
<polygon fill="midnightblue" stroke="midnightblue" points="166.254,-25.2487 175.166,-19.5201 164.626,-18.4405 166.254,-25.2487"/>
</g>
</g>
</svg>
