<?xml version="1.0" encoding="UTF-8" standalone="no"?>
<!DOCTYPE svg PUBLIC "-//W3C//DTD SVG 1.1//EN"
 "http://www.w3.org/Graphics/SVG/1.1/DTD/svg11.dtd">
<!-- Generated by graphviz version 2.38.0 (20140413.2041)
 -->
<!-- Title: Shader::getProgramID Pages: 1 -->
<!--zoomable 831 -->
<svg id="main" version="1.1" xmlns="http://www.w3.org/2000/svg" xmlns:xlink="http://www.w3.org/1999/xlink" xml:space="preserve" onload="init(evt)">
<style type="text/css"><![CDATA[
.edge:hover path { stroke: red; }
.edge:hover polygon { stroke: red; fill: red; }
]]></style>
<script type="text/javascript"><![CDATA[
var edges = document.getElementsByTagName('g');
if (edges && edges.length) {
  for (var i=0;i<edges.length;i++) {
    if (edges[i].id.substr(0,4)=='edge') {
      edges[i].setAttribute('class','edge');
    }
  }
}
]]></script>
        <defs>
                <circle id="rim" cx="0" cy="0" r="7"/>
                <circle id="rim2" cx="0" cy="0" r="3.5"/>
                <g id="zoomPlus">
                        <use xlink:href="#rim" fill="#404040">
                                <set attributeName="fill" to="#808080" begin="zoomplus.mouseover" end="zoomplus.mouseout"/>
                        </use>
                        <path d="M-4,0h8M0,-4v8" fill="none" stroke="white" stroke-width="1.5" pointer-events="none"/>
                </g>
                <g id="zoomMin">
                        <use xlink:href="#rim" fill="#404040">
                                <set attributeName="fill" to="#808080" begin="zoomminus.mouseover" end="zoomminus.mouseout"/>
                        </use>
                        <path d="M-4,0h8" fill="none" stroke="white" stroke-width="1.5" pointer-events="none"/>
                </g>
                <g id="dirArrow">
                        <path fill="none" stroke="white" stroke-width="1.5" d="M0,-3.0v7 M-2.5,-0.5L0,-3.0L2.5,-0.5"/>
                </g>
               <g id="resetDef">
                       <use xlink:href="#rim2" fill="#404040">
                               <set attributeName="fill" to="#808080" begin="reset.mouseover" end="reset.mouseout"/>
                       </use>
               </g>
        </defs>

<script type="text/javascript">
var viewWidth = 1736;
var viewHeight = 831;
var sectionId = 'dynsection-8';
</script>
<script xlink:href="../../svgpan.js"/>
<svg id="graph" class="graph">
<g id="viewport">
<title>Shader::getProgramID</title>
<polygon fill="white" stroke="none" points="-4,4 -4,-826.5 1732,-826.5 1732,4 -4,4"/>
<!-- Node1 -->
<g id="node1" class="node"><title>Node1</title>
<g id="a_node1"><a xlink:title=" ">
<polygon fill="#bfbfbf" stroke="black" points="1615,-471 1615,-490 1728,-490 1728,-471 1615,-471"/>
<text text-anchor="middle" x="1671.5" y="-478" font-family="Helvetica,sans-Serif" font-size="10.00">Shader::getProgramID</text>
</a>
</g>
</g>
<!-- Node2 -->
<g id="node2" class="node"><title>Node2</title>
<g id="a_node2"><a xlink:href="../../d6/d00/class_sphere_shape.html#a12e0ec92a832a5a7c73ca489c96ef248" target="_top" xlink:title=" ">
<polygon fill="white" stroke="black" points="1434,-803 1434,-822 1566,-822 1566,-803 1434,-803"/>
<text text-anchor="middle" x="1500" y="-810" font-family="Helvetica,sans-Serif" font-size="10.00">SphereShape::drawSphere</text>
</a>
</g>
</g>
<!-- Node1&#45;&gt;Node2 -->
<g id="edge1" class="edge"><title>Node1&#45;&gt;Node2</title>
<path fill="none" stroke="midnightblue" d="M1671.03,-500.281C1671.38,-555.377 1664.41,-711.889 1579,-793.5 1574.97,-797.352 1570.29,-800.463 1565.27,-802.972"/>
<polygon fill="midnightblue" stroke="midnightblue" points="1674.53,-500.07 1670.87,-490.126 1667.53,-500.18 1674.53,-500.07"/>
</g>
<!-- Node3 -->
<g id="node3" class="node"><title>Node3</title>
<g id="a_node3"><a xlink:href="../../dc/d22/class_directional_light_shadow_map.html#a7215d4fbf75ee37aecd032fea06babdc" target="_top" xlink:title=" ">
<polygon fill="white" stroke="black" points="1431.5,-753.5 1431.5,-783.5 1568.5,-783.5 1568.5,-753.5 1431.5,-753.5"/>
<text text-anchor="start" x="1439.5" y="-771.5" font-family="Helvetica,sans-Serif" font-size="10.00">DirectionalLightShadowMap</text>
<text text-anchor="middle" x="1500" y="-760.5" font-family="Helvetica,sans-Serif" font-size="10.00">::getDepthMapShader</text>
</a>
</g>
</g>
<!-- Node1&#45;&gt;Node3 -->
<g id="edge2" class="edge"><title>Node1&#45;&gt;Node3</title>
<path fill="none" stroke="midnightblue" d="M1669.43,-500.355C1665.73,-548.919 1649.48,-674.739 1579,-743.5 1575.03,-747.373 1570.46,-750.646 1565.56,-753.412"/>
<polygon fill="midnightblue" stroke="midnightblue" points="1672.93,-500.443 1670.1,-490.234 1665.94,-499.981 1672.93,-500.443"/>
</g>
<!-- Node9 -->
<g id="node9" class="node"><title>Node9</title>
<g id="a_node9"><a xlink:href="../../d1/d18/class_point_light_shadow_map.html#ac4549a568648ddeaf3c9030e206522f3" target="_top" xlink:title=" ">
<polygon fill="white" stroke="black" points="1443.5,-704.5 1443.5,-734.5 1556.5,-734.5 1556.5,-704.5 1443.5,-704.5"/>
<text text-anchor="start" x="1451.5" y="-722.5" font-family="Helvetica,sans-Serif" font-size="10.00">PointLightShadowMap</text>
<text text-anchor="middle" x="1500" y="-711.5" font-family="Helvetica,sans-Serif" font-size="10.00">::getDepthMapShader</text>
</a>
</g>
</g>
<!-- Node1&#45;&gt;Node9 -->
<g id="edge8" class="edge"><title>Node1&#45;&gt;Node9</title>
<path fill="none" stroke="midnightblue" d="M1667.09,-500.394C1659.07,-541.345 1635.28,-635.723 1579,-689.5 1572.6,-695.614 1564.82,-700.518 1556.69,-704.441"/>
<polygon fill="midnightblue" stroke="midnightblue" points="1670.57,-500.808 1668.95,-490.338 1663.69,-499.536 1670.57,-500.808"/>
</g>
<!-- Node10 -->
<g id="node10" class="node"><title>Node10</title>
<g id="a_node10"><a xlink:href="../../d8/d31/class_rendering_system.html#ae6a25f6b28ebe40f08916d9eadc95ac2" target="_top" xlink:title=" ">
<polygon fill="white" stroke="black" points="494,-506 494,-525 621,-525 621,-506 494,-506"/>
<text text-anchor="middle" x="557.5" y="-513" font-family="Helvetica,sans-Serif" font-size="10.00">RenderingSystem::render</text>
</a>
</g>
</g>
<!-- Node1&#45;&gt;Node10 -->
<g id="edge10" class="edge"><title>Node1&#45;&gt;Node10</title>
<path fill="none" stroke="midnightblue" d="M1664.9,-499.919C1654.19,-533.253 1627.45,-600.91 1579,-633.5 1476.95,-702.136 1428.48,-675.5 1305.5,-675.5 1305.5,-675.5 1305.5,-675.5 908,-675.5 795.173,-675.5 754.862,-693.651 657,-637.5 608.832,-609.863 574.883,-548.801 563.079,-525.135"/>
<polygon fill="midnightblue" stroke="midnightblue" points="1668.34,-500.618 1667.92,-490.031 1661.65,-498.569 1668.34,-500.618"/>
</g>
<!-- Node13 -->
<g id="node13" class="node"><title>Node13</title>
<g id="a_node13"><a xlink:href="../../d5/db4/class_cube_shape.html#ac5f14732b3bb793823e1abc5b028ad97" target="_top" xlink:title=" ">
<polygon fill="white" stroke="black" points="1254.5,-476 1254.5,-495 1354.5,-495 1354.5,-476 1254.5,-476"/>
<text text-anchor="middle" x="1304.5" y="-483" font-family="Helvetica,sans-Serif" font-size="10.00">CubeShape::render</text>
</a>
</g>
</g>
<!-- Node1&#45;&gt;Node13 -->
<g id="edge14" class="edge"><title>Node1&#45;&gt;Node13</title>
<path fill="none" stroke="midnightblue" d="M1645.54,-495.149C1627.68,-504.752 1602.7,-516.433 1579,-521.5 1510.33,-536.182 1489.52,-536.865 1421,-521.5 1403.73,-517.628 1401.69,-510.366 1385,-504.5 1374.69,-500.878 1363.39,-497.716 1352.63,-495.065"/>
<polygon fill="midnightblue" stroke="midnightblue" points="1647.63,-497.993 1654.68,-490.083 1644.24,-491.87 1647.63,-497.993"/>
</g>
<!-- Node17 -->
<g id="node17" class="node"><title>Node17</title>
<g id="a_node17"><a xlink:href="../../d3/df8/class_quad.html#ad5b31c8bb8ec0ed48b878a35b78df0e9" target="_top" xlink:title=" ">
<polygon fill="white" stroke="black" points="683.5,-609 683.5,-628 768.5,-628 768.5,-609 683.5,-609"/>
<text text-anchor="middle" x="726" y="-616" font-family="Helvetica,sans-Serif" font-size="10.00">Quad::render2D</text>
</a>
</g>
</g>
<!-- Node1&#45;&gt;Node17 -->
<g id="edge19" class="edge"><title>Node1&#45;&gt;Node17</title>
<path fill="none" stroke="midnightblue" d="M1661.71,-499.148C1648.07,-525.814 1619.14,-574.189 1579,-597.5 1472.77,-659.197 1428.35,-637.5 1305.5,-637.5 1305.5,-637.5 1305.5,-637.5 1104.5,-637.5 982.281,-637.5 838.084,-627.443 768.582,-621.963"/>
<polygon fill="midnightblue" stroke="midnightblue" points="1664.89,-500.604 1666.18,-490.088 1658.62,-497.507 1664.89,-500.604"/>
</g>
<!-- Node18 -->
<g id="node18" class="node"><title>Node18</title>
<g id="a_node18"><a xlink:href="../../d3/df8/class_quad.html#a424c01ecd59971dc51e39bc19fbda551" target="_top" xlink:title=" ">
<polygon fill="white" stroke="black" points="1457.5,-569 1457.5,-588 1542.5,-588 1542.5,-569 1457.5,-569"/>
<text text-anchor="middle" x="1500" y="-576" font-family="Helvetica,sans-Serif" font-size="10.00">Quad::render3D</text>
</a>
</g>
</g>
<!-- Node1&#45;&gt;Node18 -->
<g id="edge21" class="edge"><title>Node1&#45;&gt;Node18</title>
<path fill="none" stroke="midnightblue" d="M1653.67,-497.482C1636.33,-514.12 1607.83,-539.152 1579,-554.5 1567.62,-560.56 1554.47,-565.344 1542.26,-568.994"/>
<polygon fill="midnightblue" stroke="midnightblue" points="1656.55,-499.564 1661.24,-490.067 1651.65,-494.563 1656.55,-499.564"/>
</g>
<!-- Node22 -->
<g id="node22" class="node"><title>Node22</title>
<g id="a_node22"><a xlink:href="../../d3/d96/class__3_d_m_1_1_model.html#a3201f9fc54e6f0adbd0208e68e1579e0" target="_top" xlink:title=" ">
<polygon fill="white" stroke="black" points="1434.5,-493 1434.5,-512 1565.5,-512 1565.5,-493 1434.5,-493"/>
<text text-anchor="middle" x="1500" y="-500" font-family="Helvetica,sans-Serif" font-size="10.00">_3DM::Model::renderMesh</text>
</a>
</g>
</g>
<!-- Node1&#45;&gt;Node22 -->
<g id="edge27" class="edge"><title>Node1&#45;&gt;Node22</title>
<path fill="none" stroke="midnightblue" d="M1604.86,-489.02C1592.02,-490.686 1578.57,-492.432 1565.76,-494.095"/>
<polygon fill="midnightblue" stroke="midnightblue" points="1605.53,-492.462 1615,-487.704 1604.63,-485.52 1605.53,-492.462"/>
</g>
<!-- Node23 -->
<g id="node23" class="node"><title>Node23</title>
<g id="a_node23"><a xlink:href="../../de/d92/class__3_d_m_1_1_animated_model.html#a985a6d8bc17b99b9226c503e320c9115" target="_top" xlink:title=" ">
<polygon fill="white" stroke="black" points="1442,-443.5 1442,-473.5 1558,-473.5 1558,-443.5 1442,-443.5"/>
<text text-anchor="start" x="1450" y="-461.5" font-family="Helvetica,sans-Serif" font-size="10.00">_3DM::AnimatedModel</text>
<text text-anchor="middle" x="1500" y="-450.5" font-family="Helvetica,sans-Serif" font-size="10.00">::renderMesh</text>
</a>
</g>
</g>
<!-- Node1&#45;&gt;Node23 -->
<g id="edge28" class="edge"><title>Node1&#45;&gt;Node23</title>
<path fill="none" stroke="midnightblue" d="M1604.99,-471.997C1589.52,-469.989 1573.14,-467.864 1558.08,-465.908"/>
<polygon fill="midnightblue" stroke="midnightblue" points="1604.63,-475.48 1615,-473.296 1605.53,-468.538 1604.63,-475.48"/>
</g>
<!-- Node24 -->
<g id="node24" class="node"><title>Node24</title>
<g id="a_node24"><a xlink:href="../../df/d86/class_default_particle_system.html#a18751e09ab38a8aeb21ec011206efe01" target="_top" xlink:title=" ">
<polygon fill="white" stroke="black" points="1248,-426.5 1248,-456.5 1361,-456.5 1361,-426.5 1248,-426.5"/>
<text text-anchor="start" x="1256" y="-444.5" font-family="Helvetica,sans-Serif" font-size="10.00">DefaultParticleSystem</text>
<text text-anchor="middle" x="1304.5" y="-433.5" font-family="Helvetica,sans-Serif" font-size="10.00">::renderParticles</text>
</a>
</g>
</g>
<!-- Node1&#45;&gt;Node24 -->
<g id="edge29" class="edge"><title>Node1&#45;&gt;Node24</title>
<path fill="none" stroke="midnightblue" d="M1648.55,-465.427C1630.71,-454.146 1604.42,-439.648 1579,-433.5 1505.24,-415.664 1417.03,-423.203 1361.13,-431.394"/>
<polygon fill="midnightblue" stroke="midnightblue" points="1646.77,-468.444 1657.05,-470.972 1650.59,-462.58 1646.77,-468.444"/>
</g>
<!-- Node26 -->
<g id="node26" class="node"><title>Node26</title>
<g id="a_node26"><a xlink:href="../../d8/d31/class_rendering_system.html#a05f635d7510f575548938326c6c1b550" target="_top" xlink:title=" ">
<polygon fill="white" stroke="black" points="1421,-162.5 1421,-192.5 1579,-192.5 1579,-162.5 1421,-162.5"/>
<text text-anchor="start" x="1429" y="-180.5" font-family="Helvetica,sans-Serif" font-size="10.00">RenderingSystem::supplyDefault</text>
<text text-anchor="middle" x="1500" y="-169.5" font-family="Helvetica,sans-Serif" font-size="10.00">ShaderUniforms</text>
</a>
</g>
</g>
<!-- Node1&#45;&gt;Node26 -->
<g id="edge32" class="edge"><title>Node1&#45;&gt;Node26</title>
<path fill="none" stroke="midnightblue" d="M1667.82,-460.506C1660.79,-414.58 1638.07,-299.873 1579,-226.5 1567.47,-212.175 1550.56,-200.832 1535.43,-192.682"/>
<polygon fill="midnightblue" stroke="midnightblue" points="1664.39,-461.236 1669.29,-470.633 1671.32,-460.235 1664.39,-461.236"/>
</g>
<!-- Node28 -->
<g id="node28" class="node"><title>Node28</title>
<g id="a_node28"><a xlink:href="../../d8/d31/class_rendering_system.html#a5174d014f3eaf6bbc2a3ac03a9029d76" target="_top" xlink:title=" ">
<polygon fill="white" stroke="black" points="1235,-175.5 1235,-205.5 1374,-205.5 1374,-175.5 1235,-175.5"/>
<text text-anchor="start" x="1243" y="-193.5" font-family="Helvetica,sans-Serif" font-size="10.00">RenderingSystem::supplyLit</text>
<text text-anchor="middle" x="1304.5" y="-182.5" font-family="Helvetica,sans-Serif" font-size="10.00">ShaderUniforms</text>
</a>
</g>
</g>
<!-- Node1&#45;&gt;Node28 -->
<g id="edge37" class="edge"><title>Node1&#45;&gt;Node28</title>
<path fill="none" stroke="midnightblue" d="M1666.09,-461.005C1656.6,-423.244 1630.77,-339.616 1579,-291.5 1522,-238.516 1434.81,-212.744 1374.26,-200.609"/>
<polygon fill="midnightblue" stroke="midnightblue" points="1662.7,-461.861 1668.44,-470.769 1669.51,-460.228 1662.7,-461.861"/>
</g>
<!-- Node29 -->
<g id="node29" class="node"><title>Node29</title>
<g id="a_node29"><a xlink:href="../../d8/d31/class_rendering_system.html#a9a564fd51aaea7d85eaf86b5101802ee" target="_top" xlink:title=" ">
<polygon fill="white" stroke="black" points="1224,-377.5 1224,-407.5 1385,-407.5 1385,-377.5 1224,-377.5"/>
<text text-anchor="start" x="1232" y="-395.5" font-family="Helvetica,sans-Serif" font-size="10.00">RenderingSystem::supplyParticle</text>
<text text-anchor="middle" x="1304.5" y="-384.5" font-family="Helvetica,sans-Serif" font-size="10.00">ShaderUniforms</text>
</a>
</g>
</g>
<!-- Node1&#45;&gt;Node29 -->
<g id="edge38" class="edge"><title>Node1&#45;&gt;Node29</title>
<path fill="none" stroke="midnightblue" d="M1652.21,-464.31C1634.73,-449.863 1606.96,-429.493 1579,-419.5 1516.43,-397.142 1441.01,-391.119 1385.23,-390.275"/>
<polygon fill="midnightblue" stroke="midnightblue" points="1650.03,-467.053 1659.92,-470.855 1654.56,-461.716 1650.03,-467.053"/>
</g>
<!-- Node30 -->
<g id="node30" class="node"><title>Node30</title>
<g id="a_node30"><a xlink:href="../../dc/d22/class_directional_light_shadow_map.html#a8e8f3d1826214640802cdbf827434afd" target="_top" xlink:title=" ">
<polygon fill="white" stroke="black" points="1236,-49.5 1236,-79.5 1373,-79.5 1373,-49.5 1236,-49.5"/>
<text text-anchor="start" x="1244" y="-67.5" font-family="Helvetica,sans-Serif" font-size="10.00">DirectionalLightShadowMap</text>
<text text-anchor="middle" x="1304.5" y="-56.5" font-family="Helvetica,sans-Serif" font-size="10.00">::updateDepthMap</text>
</a>
</g>
</g>
<!-- Node1&#45;&gt;Node30 -->
<g id="edge40" class="edge"><title>Node1&#45;&gt;Node30</title>
<path fill="none" stroke="midnightblue" d="M1671.04,-460.853C1671.47,-404.696 1664.87,-241.806 1579,-152.5 1524.98,-96.3191 1435.02,-75.9359 1373.11,-68.581"/>
<polygon fill="midnightblue" stroke="midnightblue" points="1667.54,-460.824 1670.87,-470.881 1674.54,-460.94 1667.54,-460.824"/>
</g>
<!-- Node35 -->
<g id="node35" class="node"><title>Node35</title>
<g id="a_node35"><a xlink:href="../../d1/d18/class_point_light_shadow_map.html#af157b256b6eabd8626fa3875ed48872b" target="_top" xlink:title=" ">
<polygon fill="white" stroke="black" points="1248,-0.5 1248,-30.5 1361,-30.5 1361,-0.5 1248,-0.5"/>
<text text-anchor="start" x="1256" y="-18.5" font-family="Helvetica,sans-Serif" font-size="10.00">PointLightShadowMap</text>
<text text-anchor="middle" x="1304.5" y="-7.5" font-family="Helvetica,sans-Serif" font-size="10.00">::updateDepthMap</text>
</a>
</g>
</g>
<!-- Node1&#45;&gt;Node35 -->
<g id="edge46" class="edge"><title>Node1&#45;&gt;Node35</title>
<path fill="none" stroke="midnightblue" d="M1668.84,-460.738C1662.22,-386.981 1635.36,-129.182 1579,-73.5 1521.42,-16.6174 1422.81,-9.22953 1361.05,-10.992"/>
<polygon fill="midnightblue" stroke="midnightblue" points="1665.37,-461.278 1669.72,-470.936 1672.34,-460.669 1665.37,-461.278"/>
</g>
<!-- Node36 -->
<g id="node36" class="node"><title>Node36</title>
<g id="a_node36"><a xlink:href="../../d1/d51/class_shader.html#a78dd190177e9d0062d150da522ab3125" target="_top" xlink:title=" ">
<polygon fill="white" stroke="black" points="1447,-301 1447,-320 1553,-320 1553,-301 1447,-301"/>
<text text-anchor="middle" x="1500" y="-308" font-family="Helvetica,sans-Serif" font-size="10.00">Shader::useProgram</text>
</a>
</g>
</g>
<!-- Node1&#45;&gt;Node36 -->
<g id="edge48" class="edge"><title>Node1&#45;&gt;Node36</title>
<path fill="none" stroke="midnightblue" d="M1658.97,-462.105C1643.01,-437.542 1612.33,-393.53 1579,-362.5 1560.3,-345.09 1535.2,-329.477 1518.58,-320.004"/>
<polygon fill="midnightblue" stroke="midnightblue" points="1656.19,-464.246 1664.53,-470.783 1662.09,-460.473 1656.19,-464.246"/>
</g>
<!-- Node4 -->
<g id="node4" class="node"><title>Node4</title>
<g id="a_node4"><a xlink:href="../../dd/d1f/class_game.html#a0cd419405f5790feab89322cbb3f18ce" target="_top" xlink:title=" ">
<polygon fill="white" stroke="black" points="1244.5,-710 1244.5,-729 1364.5,-729 1364.5,-710 1244.5,-710"/>
<text text-anchor="middle" x="1304.5" y="-717" font-family="Helvetica,sans-Serif" font-size="10.00">Game::initializeShaders</text>
</a>
</g>
</g>
<!-- Node3&#45;&gt;Node4 -->
<g id="edge3" class="edge"><title>Node3&#45;&gt;Node4</title>
<path fill="none" stroke="midnightblue" d="M1429.87,-750.995C1400.64,-743.593 1367.74,-735.262 1343.13,-729.028"/>
<polygon fill="midnightblue" stroke="midnightblue" points="1429.08,-754.403 1439.63,-753.465 1430.79,-747.618 1429.08,-754.403"/>
</g>
<!-- Node5 -->
<g id="node5" class="node"><title>Node5</title>
<g id="a_node5"><a xlink:href="../../dd/d1f/class_game.html#a8986a201a654418cefe34ec28af1a22c" target="_top" xlink:title=" ">
<polygon fill="white" stroke="black" points="1063.5,-708 1063.5,-727 1147.5,-727 1147.5,-708 1063.5,-708"/>
<text text-anchor="middle" x="1105.5" y="-715" font-family="Helvetica,sans-Serif" font-size="10.00">Game::initialize</text>
</a>
</g>
</g>
<!-- Node4&#45;&gt;Node5 -->
<g id="edge4" class="edge"><title>Node4&#45;&gt;Node5</title>
<path fill="none" stroke="midnightblue" d="M1234.34,-718.798C1205.43,-718.504 1172.81,-718.173 1147.75,-717.919"/>
<polygon fill="midnightblue" stroke="midnightblue" points="1234.36,-722.298 1244.39,-718.9 1234.43,-715.298 1234.36,-722.298"/>
</g>
<!-- Node6 -->
<g id="node6" class="node"><title>Node6</title>
<g id="a_node6"><a xlink:href="../../de/d6b/class_application.html#af431bce25717b04a78d4d0940ed6a92c" target="_top" xlink:title=" ">
<polygon fill="white" stroke="black" points="352,-682 352,-701 458,-701 458,-682 352,-682"/>
<text text-anchor="middle" x="405" y="-689" font-family="Helvetica,sans-Serif" font-size="10.00">Application::initialize</text>
</a>
</g>
</g>
<!-- Node5&#45;&gt;Node6 -->
<g id="edge5" class="edge"><title>Node5&#45;&gt;Node6</title>
<path fill="none" stroke="midnightblue" d="M1053.03,-715.584C924.013,-710.782 587.867,-698.27 458.136,-693.441"/>
<polygon fill="midnightblue" stroke="midnightblue" points="1053.29,-719.096 1063.41,-715.971 1053.55,-712.101 1053.29,-719.096"/>
</g>
<!-- Node7 -->
<g id="node7" class="node"><title>Node7</title>
<g id="a_node7"><a xlink:href="../../de/d6b/class_application.html#a68965449404743bf1add056784d6cf81" target="_top" xlink:title=" ">
<polygon fill="white" stroke="black" points="74,-506 74,-525 158,-525 158,-506 74,-506"/>
<text text-anchor="middle" x="116" y="-513" font-family="Helvetica,sans-Serif" font-size="10.00">Application::run</text>
</a>
</g>
</g>
<!-- Node6&#45;&gt;Node7 -->
<g id="edge6" class="edge"><title>Node6&#45;&gt;Node7</title>
<path fill="none" stroke="midnightblue" d="M379.378,-676.401C321.918,-641.164 180.257,-554.292 132.79,-525.183"/>
<polygon fill="midnightblue" stroke="midnightblue" points="377.806,-679.543 388.161,-681.787 381.466,-673.575 377.806,-679.543"/>
</g>
<!-- Node8 -->
<g id="node8" class="node"><title>Node8</title>
<g id="a_node8"><a xlink:href="../../d5/d12/_main_8cpp.html#a0ddf1224851353fc92bfbff6f499fa97" target="_top" xlink:title=" ">
<polygon fill="white" stroke="black" points="0,-506 0,-525 38,-525 38,-506 0,-506"/>
<text text-anchor="middle" x="19" y="-513" font-family="Helvetica,sans-Serif" font-size="10.00">main</text>
</a>
</g>
</g>
<!-- Node7&#45;&gt;Node8 -->
<g id="edge7" class="edge"><title>Node7&#45;&gt;Node8</title>
<path fill="none" stroke="midnightblue" d="M63.6206,-515.5C54.5384,-515.5 45.6466,-515.5 38.2853,-515.5"/>
<polygon fill="midnightblue" stroke="midnightblue" points="63.8842,-519 73.8841,-515.5 63.8841,-512 63.8842,-519"/>
</g>
<!-- Node9&#45;&gt;Node4 -->
<g id="edge9" class="edge"><title>Node9&#45;&gt;Node4</title>
<path fill="none" stroke="midnightblue" d="M1433.25,-719.5C1410.97,-719.5 1386.24,-719.5 1364.52,-719.5"/>
<polygon fill="midnightblue" stroke="midnightblue" points="1433.29,-723 1443.29,-719.5 1433.29,-716 1433.29,-723"/>
</g>
<!-- Node11 -->
<g id="node11" class="node"><title>Node11</title>
<g id="a_node11"><a xlink:href="../../dd/d1f/class_game.html#a15ddd769261d923827a3cdf41499c843" target="_top" xlink:title=" ">
<polygon fill="white" stroke="black" points="367,-506 367,-525 443,-525 443,-506 367,-506"/>
<text text-anchor="middle" x="405" y="-513" font-family="Helvetica,sans-Serif" font-size="10.00">Game::render</text>
</a>
</g>
</g>
<!-- Node10&#45;&gt;Node11 -->
<g id="edge11" class="edge"><title>Node10&#45;&gt;Node11</title>
<path fill="none" stroke="midnightblue" d="M483.778,-515.5C469.697,-515.5 455.498,-515.5 443.155,-515.5"/>
<polygon fill="midnightblue" stroke="midnightblue" points="483.982,-519 493.982,-515.5 483.982,-512 483.982,-519"/>
</g>
<!-- Node12 -->
<g id="node12" class="node"><title>Node12</title>
<g id="a_node12"><a xlink:href="../../de/d6b/class_application.html#a9ac99d97ee1cc814298a2f2388bde835" target="_top" xlink:title=" ">
<polygon fill="white" stroke="black" points="206,-506 206,-525 304,-525 304,-506 206,-506"/>
<text text-anchor="middle" x="255" y="-513" font-family="Helvetica,sans-Serif" font-size="10.00">Application::render</text>
</a>
</g>
</g>
<!-- Node11&#45;&gt;Node12 -->
<g id="edge12" class="edge"><title>Node11&#45;&gt;Node12</title>
<path fill="none" stroke="midnightblue" d="M356.553,-515.5C339.839,-515.5 321.042,-515.5 304.262,-515.5"/>
<polygon fill="midnightblue" stroke="midnightblue" points="356.653,-519 366.653,-515.5 356.653,-512 356.653,-519"/>
</g>
<!-- Node12&#45;&gt;Node7 -->
<g id="edge13" class="edge"><title>Node12&#45;&gt;Node7</title>
<path fill="none" stroke="midnightblue" d="M195.682,-515.5C183.021,-515.5 169.887,-515.5 158.06,-515.5"/>
<polygon fill="midnightblue" stroke="midnightblue" points="195.699,-519 205.699,-515.5 195.699,-512 195.699,-519"/>
</g>
<!-- Node14 -->
<g id="node14" class="node"><title>Node14</title>
<g id="a_node14"><a xlink:href="../../d1/dce/class_sky_box_system.html#a20cc449bcb48e9cc9067f5bb324f6238" target="_top" xlink:title=" ">
<polygon fill="white" stroke="black" points="1046.5,-472 1046.5,-491 1164.5,-491 1164.5,-472 1046.5,-472"/>
<text text-anchor="middle" x="1105.5" y="-479" font-family="Helvetica,sans-Serif" font-size="10.00">SkyBoxSystem::render</text>
</a>
</g>
</g>
<!-- Node13&#45;&gt;Node14 -->
<g id="edge15" class="edge"><title>Node13&#45;&gt;Node14</title>
<path fill="none" stroke="midnightblue" d="M1244.13,-484.294C1218.9,-483.782 1189.59,-483.187 1164.52,-482.678"/>
<polygon fill="midnightblue" stroke="midnightblue" points="1244.23,-487.797 1254.3,-484.501 1244.37,-480.799 1244.23,-487.797"/>
</g>
<!-- Node15 -->
<g id="node15" class="node"><title>Node15</title>
<g id="a_node15"><a xlink:href="../../d8/d31/class_rendering_system.html#ad5115644b3d0a1df6446a610c683a31e" target="_top" xlink:title=" ">
<polygon fill="white" stroke="black" points="831,-452 831,-471 987,-471 987,-452 831,-452"/>
<text text-anchor="middle" x="909" y="-459" font-family="Helvetica,sans-Serif" font-size="10.00">RenderingSystem::renderOthers</text>
</a>
</g>
</g>
<!-- Node14&#45;&gt;Node15 -->
<g id="edge16" class="edge"><title>Node14&#45;&gt;Node15</title>
<path fill="none" stroke="midnightblue" d="M1036.19,-474.476C1020.36,-472.848 1003.41,-471.105 987.231,-469.441"/>
<polygon fill="midnightblue" stroke="midnightblue" points="1036.1,-477.985 1046.41,-475.526 1036.82,-471.022 1036.1,-477.985"/>
</g>
<!-- Node16 -->
<g id="node16" class="node"><title>Node16</title>
<g id="a_node16"><a xlink:href="../../d8/d31/class_rendering_system.html#a9f1ec48fdfa79ddc55421b6014fdb9c6" target="_top" xlink:title=" ">
<polygon fill="white" stroke="black" points="657,-483 657,-502 795,-502 795,-483 657,-483"/>
<text text-anchor="middle" x="726" y="-490" font-family="Helvetica,sans-Serif" font-size="10.00">RenderingSystem::renderAll</text>
</a>
</g>
</g>
<!-- Node15&#45;&gt;Node16 -->
<g id="edge17" class="edge"><title>Node15&#45;&gt;Node16</title>
<path fill="none" stroke="midnightblue" d="M842.17,-472.775C822.628,-476.122 801.424,-479.753 782.599,-482.978"/>
<polygon fill="midnightblue" stroke="midnightblue" points="842.952,-476.192 852.217,-471.054 841.77,-469.292 842.952,-476.192"/>
</g>
<!-- Node16&#45;&gt;Node10 -->
<g id="edge18" class="edge"><title>Node16&#45;&gt;Node10</title>
<path fill="none" stroke="midnightblue" d="M646.795,-503.303C638.227,-504.487 629.588,-505.68 621.242,-506.833"/>
<polygon fill="midnightblue" stroke="midnightblue" points="647.371,-506.757 656.798,-501.921 646.413,-499.823 647.371,-506.757"/>
</g>
<!-- Node17&#45;&gt;Node10 -->
<g id="edge20" class="edge"><title>Node17&#45;&gt;Node10</title>
<path fill="none" stroke="midnightblue" d="M701.1,-603.715C666.561,-582.348 603.63,-543.418 574.314,-525.283"/>
<polygon fill="midnightblue" stroke="midnightblue" points="699.289,-606.71 709.635,-608.995 702.972,-600.757 699.289,-606.71"/>
</g>
<!-- Node18&#45;&gt;Node10 -->
<g id="edge23" class="edge"><title>Node18&#45;&gt;Node10</title>
<path fill="none" stroke="midnightblue" d="M1447.37,-574.838C1372.35,-569.841 1228.8,-561.5 1106.5,-561.5 1106.5,-561.5 1106.5,-561.5 908,-561.5 797.227,-561.5 668.381,-538.505 602.394,-525.031"/>
<polygon fill="midnightblue" stroke="midnightblue" points="1447.28,-578.339 1457.49,-575.519 1447.75,-571.355 1447.28,-578.339"/>
</g>
<!-- Node19 -->
<g id="node19" class="node"><title>Node19</title>
<g id="a_node19"><a xlink:href="../../dd/d84/class_gui_text_character.html#a807cfea698c6d8741d95e251230a5427" target="_top" xlink:title=" ">
<polygon fill="white" stroke="black" points="1242,-590 1242,-609 1367,-609 1367,-590 1242,-590"/>
<text text-anchor="middle" x="1304.5" y="-597" font-family="Helvetica,sans-Serif" font-size="10.00">GuiTextCharacter::render</text>
</a>
</g>
</g>
<!-- Node18&#45;&gt;Node19 -->
<g id="edge22" class="edge"><title>Node18&#45;&gt;Node19</title>
<path fill="none" stroke="midnightblue" d="M1447.26,-584.115C1422.62,-586.789 1392.97,-590.008 1367.16,-592.808"/>
<polygon fill="midnightblue" stroke="midnightblue" points="1447.93,-587.564 1457.49,-583.005 1447.17,-580.604 1447.93,-587.564"/>
</g>
<!-- Node20 -->
<g id="node20" class="node"><title>Node20</title>
<g id="a_node20"><a xlink:href="../../d1/db9/class_gui_sprite.html#ad8d743c3e3889fba893f29796717114f" target="_top" xlink:title=" ">
<polygon fill="white" stroke="black" points="1259.5,-514 1259.5,-533 1349.5,-533 1349.5,-514 1259.5,-514"/>
<text text-anchor="middle" x="1304.5" y="-521" font-family="Helvetica,sans-Serif" font-size="10.00">GuiSprite::render</text>
</a>
</g>
</g>
<!-- Node18&#45;&gt;Node20 -->
<g id="edge24" class="edge"><title>Node18&#45;&gt;Node20</title>
<path fill="none" stroke="midnightblue" d="M1455.3,-566.078C1420.1,-556.074 1371.35,-542.216 1339.14,-533.063"/>
<polygon fill="midnightblue" stroke="midnightblue" points="1454.72,-569.552 1465.29,-568.92 1456.63,-562.819 1454.72,-569.552"/>
</g>
<!-- Node21 -->
<g id="node21" class="node"><title>Node21</title>
<g id="a_node21"><a xlink:href="../../d7/dd6/class_pause_menu_system.html#a275e625e495889f598a67bdffb2ffd4f" target="_top" xlink:title=" ">
<polygon fill="white" stroke="black" points="1038,-513 1038,-532 1173,-532 1173,-513 1038,-513"/>
<text text-anchor="middle" x="1105.5" y="-520" font-family="Helvetica,sans-Serif" font-size="10.00">PauseMenuSystem::render</text>
</a>
</g>
</g>
<!-- Node20&#45;&gt;Node21 -->
<g id="edge25" class="edge"><title>Node20&#45;&gt;Node21</title>
<path fill="none" stroke="midnightblue" d="M1249.14,-523.224C1225.59,-523.104 1197.79,-522.963 1173.02,-522.838"/>
<polygon fill="midnightblue" stroke="midnightblue" points="1249.27,-526.725 1259.29,-523.276 1249.31,-519.725 1249.27,-526.725"/>
</g>
<!-- Node21&#45;&gt;Node15 -->
<g id="edge26" class="edge"><title>Node21&#45;&gt;Node15</title>
<path fill="none" stroke="midnightblue" d="M1057.32,-510.354C1046.03,-507.286 1034.05,-503.895 1023,-500.5 993.043,-491.299 959.112,-479.384 936.317,-471.157"/>
<polygon fill="midnightblue" stroke="midnightblue" points="1056.45,-513.746 1067.02,-512.959 1058.27,-506.985 1056.45,-513.746"/>
</g>
<!-- Node25 -->
<g id="node25" class="node"><title>Node25</title>
<g id="a_node25"><a xlink:href="../../d8/d31/class_rendering_system.html#a488d5dcc3e1f3c63dedee53bc022a6af" target="_top" xlink:title=" ">
<polygon fill="white" stroke="black" points="1023,-432 1023,-451 1188,-451 1188,-432 1023,-432"/>
<text text-anchor="middle" x="1105.5" y="-439" font-family="Helvetica,sans-Serif" font-size="10.00">RenderingSystem::renderParticles</text>
</a>
</g>
</g>
<!-- Node24&#45;&gt;Node25 -->
<g id="edge30" class="edge"><title>Node24&#45;&gt;Node25</title>
<path fill="none" stroke="midnightblue" d="M1237.62,-441.5C1221.75,-441.5 1204.62,-441.5 1188.13,-441.5"/>
<polygon fill="midnightblue" stroke="midnightblue" points="1237.84,-445 1247.84,-441.5 1237.84,-438 1237.84,-445"/>
</g>
<!-- Node25&#45;&gt;Node15 -->
<g id="edge31" class="edge"><title>Node25&#45;&gt;Node15</title>
<path fill="none" stroke="midnightblue" d="M1012.8,-450.929C1004.2,-451.814 995.533,-452.705 987.082,-453.574"/>
<polygon fill="midnightblue" stroke="midnightblue" points="1013.27,-454.399 1022.86,-449.895 1012.55,-447.436 1013.27,-454.399"/>
</g>
<!-- Node26&#45;&gt;Node15 -->
<g id="edge34" class="edge"><title>Node26&#45;&gt;Node15</title>
<path fill="none" stroke="midnightblue" d="M1454.35,-158.781C1361.36,-123.115 1145.42,-58.076 1023,-165.5 949.846,-229.691 1030.71,-294.541 987,-381.5 971.764,-411.814 941.083,-438.259 923.395,-451.826"/>
<polygon fill="midnightblue" stroke="midnightblue" points="1453.16,-162.075 1463.75,-162.448 1455.71,-155.553 1453.16,-162.075"/>
</g>
<!-- Node27 -->
<g id="node27" class="node"><title>Node27</title>
<g id="a_node27"><a xlink:href="../../d8/d31/class_rendering_system.html#a167a571527b6f44e8c4bf45f383500be" target="_top" xlink:title=" ">
<polygon fill="white" stroke="black" points="1039.5,-175.5 1039.5,-205.5 1171.5,-205.5 1171.5,-175.5 1039.5,-175.5"/>
<text text-anchor="start" x="1047.5" y="-193.5" font-family="Helvetica,sans-Serif" font-size="10.00">RenderingSystem::prepare</text>
<text text-anchor="middle" x="1105.5" y="-182.5" font-family="Helvetica,sans-Serif" font-size="10.00">Shader</text>
</a>
</g>
</g>
<!-- Node26&#45;&gt;Node27 -->
<g id="edge33" class="edge"><title>Node26&#45;&gt;Node27</title>
<path fill="none" stroke="midnightblue" d="M1410.64,-167.006C1356.62,-162.237 1286.17,-158.959 1224,-165.5 1204.71,-167.529 1183.93,-171.384 1165.29,-175.469"/>
<polygon fill="midnightblue" stroke="midnightblue" points="1410.6,-170.517 1420.87,-167.945 1411.24,-163.546 1410.6,-170.517"/>
</g>
<!-- Node26&#45;&gt;Node28 -->
<g id="edge35" class="edge"><title>Node26&#45;&gt;Node28</title>
<path fill="none" stroke="midnightblue" d="M1410.66,-183.435C1398.45,-184.255 1386.06,-185.088 1374.28,-185.879"/>
<polygon fill="midnightblue" stroke="midnightblue" points="1411.11,-186.913 1420.85,-182.75 1410.64,-179.928 1411.11,-186.913"/>
</g>
<!-- Node28&#45;&gt;Node27 -->
<g id="edge36" class="edge"><title>Node28&#45;&gt;Node27</title>
<path fill="none" stroke="midnightblue" d="M1224.63,-190.5C1207.02,-190.5 1188.54,-190.5 1171.57,-190.5"/>
<polygon fill="midnightblue" stroke="midnightblue" points="1224.88,-194 1234.88,-190.5 1224.88,-187 1224.88,-194"/>
</g>
<!-- Node29&#45;&gt;Node25 -->
<g id="edge39" class="edge"><title>Node29&#45;&gt;Node25</title>
<path fill="none" stroke="midnightblue" d="M1233.12,-410.005C1203.37,-417.407 1169.87,-425.738 1144.81,-431.972"/>
<polygon fill="midnightblue" stroke="midnightblue" points="1234.2,-413.345 1243.05,-407.535 1232.51,-406.552 1234.2,-413.345"/>
</g>
<!-- Node31 -->
<g id="node31" class="node"><title>Node31</title>
<g id="a_node31"><a xlink:href="../../d3/de8/class_fixed_updating_system.html#a62f406cd3cb3d441e605ed1a5e888ec6" target="_top" xlink:title=" ">
<polygon fill="white" stroke="black" points="1049,-49.5 1049,-79.5 1162,-79.5 1162,-49.5 1049,-49.5"/>
<text text-anchor="start" x="1057" y="-67.5" font-family="Helvetica,sans-Serif" font-size="10.00">FixedUpdatingSystem</text>
<text text-anchor="middle" x="1105.5" y="-56.5" font-family="Helvetica,sans-Serif" font-size="10.00">::updateShadowMaps</text>
</a>
</g>
</g>
<!-- Node30&#45;&gt;Node31 -->
<g id="edge41" class="edge"><title>Node30&#45;&gt;Node31</title>
<path fill="none" stroke="midnightblue" d="M1225.97,-64.5C1204.66,-64.5 1181.98,-64.5 1162.17,-64.5"/>
<polygon fill="midnightblue" stroke="midnightblue" points="1225.98,-68.0001 1235.98,-64.5 1225.98,-61.0001 1225.98,-68.0001"/>
</g>
<!-- Node32 -->
<g id="node32" class="node"><title>Node32</title>
<g id="a_node32"><a xlink:href="../../d3/de8/class_fixed_updating_system.html#a3ed508813ba850baed19e86ef0429028" target="_top" xlink:title=" ">
<polygon fill="white" stroke="black" points="852.5,-131.5 852.5,-161.5 965.5,-161.5 965.5,-131.5 852.5,-131.5"/>
<text text-anchor="start" x="860.5" y="-149.5" font-family="Helvetica,sans-Serif" font-size="10.00">FixedUpdatingSystem</text>
<text text-anchor="middle" x="909" y="-138.5" font-family="Helvetica,sans-Serif" font-size="10.00">::fixedUpdate</text>
</a>
</g>
</g>
<!-- Node31&#45;&gt;Node32 -->
<g id="edge42" class="edge"><title>Node31&#45;&gt;Node32</title>
<path fill="none" stroke="midnightblue" d="M1051.98,-83.1412C1042.29,-86.7757 1032.3,-90.6551 1023,-94.5 994.86,-106.133 963.438,-120.726 940.886,-131.49"/>
<polygon fill="midnightblue" stroke="midnightblue" points="1053.38,-86.3574 1061.53,-79.5986 1050.94,-79.7942 1053.38,-86.3574"/>
</g>
<!-- Node33 -->
<g id="node33" class="node"><title>Node33</title>
<g id="a_node33"><a xlink:href="../../dd/d1f/class_game.html#a157e87f9dc147a5842ee6bdc06c95c17" target="_top" xlink:title=" ">
<polygon fill="white" stroke="black" points="676,-181 676,-200 776,-200 776,-181 676,-181"/>
<text text-anchor="middle" x="726" y="-188" font-family="Helvetica,sans-Serif" font-size="10.00">Game::fixedUpdate</text>
</a>
</g>
</g>
<!-- Node32&#45;&gt;Node33 -->
<g id="edge43" class="edge"><title>Node32&#45;&gt;Node33</title>
<path fill="none" stroke="midnightblue" d="M842.239,-162.486C816.753,-168.682 788.431,-175.566 766.243,-180.96"/>
<polygon fill="midnightblue" stroke="midnightblue" points="843.327,-165.824 852.217,-160.06 841.673,-159.022 843.327,-165.824"/>
</g>
<!-- Node34 -->
<g id="node34" class="node"><title>Node34</title>
<g id="a_node34"><a xlink:href="../../de/d6b/class_application.html#a95c827cb5cf08bd0c3cc7b07ed4b4249" target="_top" xlink:title=" ">
<polygon fill="white" stroke="black" points="194,-402 194,-421 316,-421 316,-402 194,-402"/>
<text text-anchor="middle" x="255" y="-409" font-family="Helvetica,sans-Serif" font-size="10.00">Application::fixedUpdate</text>
</a>
</g>
</g>
<!-- Node33&#45;&gt;Node34 -->
<g id="edge44" class="edge"><title>Node33&#45;&gt;Node34</title>
<path fill="none" stroke="midnightblue" d="M695.414,-204.441C607.699,-245.774 350.558,-366.943 276.297,-401.936"/>
<polygon fill="midnightblue" stroke="midnightblue" points="696.992,-207.567 704.546,-200.138 694.008,-201.235 696.992,-207.567"/>
</g>
<!-- Node34&#45;&gt;Node7 -->
<g id="edge45" class="edge"><title>Node34&#45;&gt;Node7</title>
<path fill="none" stroke="midnightblue" d="M233.189,-427.298C204.382,-449.166 153.241,-487.989 129.613,-505.926"/>
<polygon fill="midnightblue" stroke="midnightblue" points="235.508,-429.932 241.357,-421.098 231.276,-424.356 235.508,-429.932"/>
</g>
<!-- Node35&#45;&gt;Node31 -->
<g id="edge47" class="edge"><title>Node35&#45;&gt;Node31</title>
<path fill="none" stroke="midnightblue" d="M1237.87,-31.8243C1213.28,-37.9399 1185.61,-44.8231 1162.02,-50.6892"/>
<polygon fill="midnightblue" stroke="midnightblue" points="1238.98,-35.1553 1247.84,-29.345 1237.29,-28.3623 1238.98,-35.1553"/>
</g>
<!-- Node36&#45;&gt;Node10 -->
<g id="edge52" class="edge"><title>Node36&#45;&gt;Node10</title>
<path fill="none" stroke="midnightblue" d="M1436.73,-300.728C1359.48,-289.469 1223.62,-272.5 1106.5,-272.5 1106.5,-272.5 1106.5,-272.5 908,-272.5 741.351,-272.5 597.109,-461.047 565.104,-505.974"/>
<polygon fill="midnightblue" stroke="midnightblue" points="1436.38,-304.213 1446.78,-302.208 1437.4,-297.287 1436.38,-304.213"/>
</g>
<!-- Node36&#45;&gt;Node15 -->
<g id="edge53" class="edge"><title>Node36&#45;&gt;Node15</title>
<path fill="none" stroke="midnightblue" d="M1438.27,-321.952C1382.39,-332.759 1297.31,-349.891 1224,-367.5 1133.94,-389.132 1111.49,-395.155 1023,-422.5 993.059,-431.752 959.125,-443.659 936.325,-451.869"/>
<polygon fill="midnightblue" stroke="midnightblue" points="1439.2,-325.338 1448.36,-320.009 1437.87,-318.464 1439.2,-325.338"/>
</g>
<!-- Node36&#45;&gt;Node27 -->
<g id="edge51" class="edge"><title>Node36&#45;&gt;Node27</title>
<path fill="none" stroke="midnightblue" d="M1471.84,-296.348C1449.11,-284.937 1415.57,-269.099 1385,-258.5 1346.09,-245.009 1241.09,-220.542 1171.72,-204.928"/>
<polygon fill="midnightblue" stroke="midnightblue" points="1470.38,-299.531 1480.88,-300.939 1473.55,-293.29 1470.38,-299.531"/>
</g>
<!-- Node36&#45;&gt;Node29 -->
<g id="edge54" class="edge"><title>Node36&#45;&gt;Node29</title>
<path fill="none" stroke="midnightblue" d="M1469.83,-324.459C1446.94,-335.255 1414.17,-350.359 1385,-362.5 1372.74,-367.602 1359.28,-372.824 1346.97,-377.452"/>
<polygon fill="midnightblue" stroke="midnightblue" points="1471.46,-327.561 1479,-320.117 1468.46,-321.235 1471.46,-327.561"/>
</g>
<!-- Node36&#45;&gt;Node30 -->
<g id="edge55" class="edge"><title>Node36&#45;&gt;Node30</title>
<path fill="none" stroke="midnightblue" d="M1485.1,-292.812C1463.63,-265.496 1421.11,-211.402 1385,-165.5 1360.99,-134.983 1332.89,-99.2904 1317.36,-79.5561"/>
<polygon fill="midnightblue" stroke="midnightblue" points="1482.6,-295.298 1491.53,-300.998 1488.11,-290.973 1482.6,-295.298"/>
</g>
<!-- Node37 -->
<g id="node37" class="node"><title>Node37</title>
<g id="a_node37"><a xlink:href="../../d8/d31/class_rendering_system.html#a322fb5e18e4b8db722ca2fdcb7e754ea" target="_top" xlink:title=" ">
<polygon fill="white" stroke="black" points="841.5,-342.5 841.5,-372.5 976.5,-372.5 976.5,-342.5 841.5,-342.5"/>
<text text-anchor="start" x="849.5" y="-360.5" font-family="Helvetica,sans-Serif" font-size="10.00">RenderingSystem::initialize</text>
<text text-anchor="middle" x="909" y="-349.5" font-family="Helvetica,sans-Serif" font-size="10.00">Lights</text>
</a>
</g>
</g>
<!-- Node36&#45;&gt;Node37 -->
<g id="edge49" class="edge"><title>Node36&#45;&gt;Node37</title>
<path fill="none" stroke="midnightblue" d="M1436.48,-310.664C1345.24,-311.578 1170.42,-315.888 1023,-334.5 1007.51,-336.456 990.965,-339.355 975.451,-342.441"/>
<polygon fill="midnightblue" stroke="midnightblue" points="1436.68,-314.162 1446.65,-310.572 1436.62,-307.162 1436.68,-314.162"/>
</g>
<!-- Node37&#45;&gt;Node10 -->
<g id="edge50" class="edge"><title>Node37&#45;&gt;Node10</title>
<path fill="none" stroke="midnightblue" d="M865.601,-376.668C790.384,-410.671 636.208,-480.37 579.789,-505.876"/>
<polygon fill="midnightblue" stroke="midnightblue" points="867.134,-379.815 874.805,-372.507 864.251,-373.437 867.134,-379.815"/>
</g>
</g>
</svg>
        <g id="navigator" transform="translate(0 0)" fill="#404254">
                <rect fill="#f2f5e9" fill-opacity="0.5" stroke="#606060" stroke-width=".5" x="0" y="0" width="60" height="60"/>
                <use id="zoomplus" xlink:href="#zoomPlus" x="17" y="9" onmousedown="handleZoom(evt,'in')"/>
                <use id="zoomminus" xlink:href="#zoomMin" x="42" y="9" onmousedown="handleZoom(evt,'out')"/>
                <use id="reset" xlink:href="#resetDef" x="30" y="36" onmousedown="handleReset()"/>
                <g id="arrowUp" xlink:href="#dirArrow" transform="translate(30 24)" onmousedown="handlePan(0,-1)">
                  <use xlink:href="#rim" fill="#404040">
                        <set attributeName="fill" to="#808080" begin="arrowUp.mouseover" end="arrowUp.mouseout"/>
                  </use>
                  <path fill="none" stroke="white" stroke-width="1.5" d="M0,-3.0v7 M-2.5,-0.5L0,-3.0L2.5,-0.5"/>
                </g>
                <g id="arrowRight" xlink:href="#dirArrow" transform="rotate(90) translate(36 -43)" onmousedown="handlePan(1,0)">
                  <use xlink:href="#rim" fill="#404040">
                        <set attributeName="fill" to="#808080" begin="arrowRight.mouseover" end="arrowRight.mouseout"/>
                  </use>
                  <path fill="none" stroke="white" stroke-width="1.5" d="M0,-3.0v7 M-2.5,-0.5L0,-3.0L2.5,-0.5"/>
                </g>
                <g id="arrowDown" xlink:href="#dirArrow" transform="rotate(180) translate(-30 -48)" onmousedown="handlePan(0,1)">
                  <use xlink:href="#rim" fill="#404040">
                        <set attributeName="fill" to="#808080" begin="arrowDown.mouseover" end="arrowDown.mouseout"/>
                  </use>
                  <path fill="none" stroke="white" stroke-width="1.5" d="M0,-3.0v7 M-2.5,-0.5L0,-3.0L2.5,-0.5"/>
                </g>
                <g id="arrowLeft" xlink:href="#dirArrow" transform="rotate(270) translate(-36 17)" onmousedown="handlePan(-1,0)">
                  <use xlink:href="#rim" fill="#404040">
                        <set attributeName="fill" to="#808080" begin="arrowLeft.mouseover" end="arrowLeft.mouseout"/>
                  </use>
                  <path fill="none" stroke="white" stroke-width="1.5" d="M0,-3.0v7 M-2.5,-0.5L0,-3.0L2.5,-0.5"/>
                </g>
        </g>
        <svg viewBox="0 0 15 15" width="100%" height="30px" preserveAspectRatio="xMaxYMin meet">
         <g id="arrow_out" transform="scale(0.3 0.3)">
          <a xlink:href="class_shader_a240b7ecb19883fa340489840733eae6d_icgraph_org.svg" target="_base">
           <rect id="button" ry="5" rx="5" y="6" x="6" height="38" width="38"
                fill="#f2f5e9" fill-opacity="0.5" stroke="#606060" stroke-width="1.0"/>
           <path id="arrow"
             d="M 11.500037,31.436501 C 11.940474,20.09759 22.043105,11.32322 32.158766,21.979434 L 37.068811,17.246167 C 37.068811,17.246167 37.088388,32 37.088388,32 L 22.160133,31.978069 C 22.160133,31.978069 26.997745,27.140456 26.997745,27.140456 C 18.528582,18.264221 13.291696,25.230495 11.500037,31.436501 z"
             style="fill:#404040;"/>
          </a>
         </g>
        </svg>
</svg>
