<?xml version="1.0" encoding="UTF-8" standalone="no"?>
<!DOCTYPE svg PUBLIC "-//W3C//DTD SVG 1.1//EN"
 "http://www.w3.org/Graphics/SVG/1.1/DTD/svg11.dtd">
<!-- Generated by graphviz version 2.38.0 (20140413.2041)
 -->
<!-- Title: Shader::useProgram Pages: 1 -->
<svg width="1527pt" height="257pt"
 viewBox="0.00 0.00 1527.00 257.00" xmlns="http://www.w3.org/2000/svg" xmlns:xlink="http://www.w3.org/1999/xlink">
<g id="graph0" class="graph" transform="scale(1 1) rotate(0) translate(4 253)">
<title>Shader::useProgram</title>
<polygon fill="white" stroke="none" points="-4,4 -4,-253 1523,-253 1523,4 -4,4"/>
<!-- Node1 -->
<g id="node1" class="node"><title>Node1</title>
<g id="a_node1"><a xlink:title=" ">
<polygon fill="#bfbfbf" stroke="black" points="1413,-114 1413,-133 1519,-133 1519,-114 1413,-114"/>
<text text-anchor="middle" x="1466" y="-121" font-family="Helvetica,sans-Serif" font-size="10.00">Shader::useProgram</text>
</a>
</g>
</g>
<!-- Node2 -->
<g id="node2" class="node"><title>Node2</title>
<g id="a_node2"><a xlink:href="../../d8/d31/class_rendering_system.html#a322fb5e18e4b8db722ca2fdcb7e754ea" target="_top" xlink:title=" ">
<polygon fill="white" stroke="black" points="1030,-218.5 1030,-248.5 1165,-248.5 1165,-218.5 1030,-218.5"/>
<text text-anchor="start" x="1038" y="-236.5" font-family="Helvetica,sans-Serif" font-size="10.00">RenderingSystem::initialize</text>
<text text-anchor="middle" x="1097.5" y="-225.5" font-family="Helvetica,sans-Serif" font-size="10.00">Lights</text>
</a>
</g>
</g>
<!-- Node1&#45;&gt;Node2 -->
<g id="edge1" class="edge"><title>Node1&#45;&gt;Node2</title>
<path fill="none" stroke="midnightblue" d="M1451.51,-141.125C1435.86,-160.11 1408.19,-189.475 1377,-203.5 1309.36,-233.913 1223.48,-238.738 1165.09,-237.668"/>
<polygon fill="midnightblue" stroke="midnightblue" points="1454.31,-143.223 1457.82,-133.225 1448.84,-138.853 1454.31,-143.223"/>
</g>
<!-- Node3 -->
<g id="node3" class="node"><title>Node3</title>
<g id="a_node3"><a xlink:href="../../d8/d31/class_rendering_system.html#ae6a25f6b28ebe40f08916d9eadc95ac2" target="_top" xlink:title=" ">
<polygon fill="white" stroke="black" points="486,-158 486,-177 613,-177 613,-158 486,-158"/>
<text text-anchor="middle" x="549.5" y="-165" font-family="Helvetica,sans-Serif" font-size="10.00">RenderingSystem::render</text>
</a>
</g>
</g>
<!-- Node1&#45;&gt;Node3 -->
<g id="edge8" class="edge"><title>Node1&#45;&gt;Node3</title>
<path fill="none" stroke="midnightblue" d="M1442.41,-138.63C1425.25,-149.279 1400.65,-162.785 1377,-169.5 1257.62,-203.398 1222.6,-189.5 1098.5,-189.5 1098.5,-189.5 1098.5,-189.5 900,-189.5 799.533,-189.5 683.14,-180.333 613.245,-173.834"/>
<polygon fill="midnightblue" stroke="midnightblue" points="1444.58,-141.4 1451.13,-133.07 1440.82,-135.499 1444.58,-141.4"/>
</g>
<!-- Node8 -->
<g id="node8" class="node"><title>Node8</title>
<g id="a_node8"><a xlink:href="../../d8/d31/class_rendering_system.html#a167a571527b6f44e8c4bf45f383500be" target="_top" xlink:title=" ">
<polygon fill="white" stroke="black" points="1230.5,-130.5 1230.5,-160.5 1362.5,-160.5 1362.5,-130.5 1230.5,-130.5"/>
<text text-anchor="start" x="1238.5" y="-148.5" font-family="Helvetica,sans-Serif" font-size="10.00">RenderingSystem::prepare</text>
<text text-anchor="middle" x="1296.5" y="-137.5" font-family="Helvetica,sans-Serif" font-size="10.00">Shader</text>
</a>
</g>
</g>
<!-- Node1&#45;&gt;Node8 -->
<g id="edge7" class="edge"><title>Node1&#45;&gt;Node8</title>
<path fill="none" stroke="midnightblue" d="M1402.62,-131.693C1389.54,-133.411 1375.72,-135.226 1362.55,-136.956"/>
<polygon fill="midnightblue" stroke="midnightblue" points="1403.46,-135.113 1412.92,-130.34 1402.55,-128.172 1403.46,-135.113"/>
</g>
<!-- Node9 -->
<g id="node9" class="node"><title>Node9</title>
<g id="a_node9"><a xlink:href="../../d8/d31/class_rendering_system.html#ad5115644b3d0a1df6446a610c683a31e" target="_top" xlink:title=" ">
<polygon fill="white" stroke="black" points="823,-92 823,-111 979,-111 979,-92 823,-92"/>
<text text-anchor="middle" x="901" y="-99" font-family="Helvetica,sans-Serif" font-size="10.00">RenderingSystem::renderOthers</text>
</a>
</g>
</g>
<!-- Node1&#45;&gt;Node9 -->
<g id="edge9" class="edge"><title>Node1&#45;&gt;Node9</title>
<path fill="none" stroke="midnightblue" d="M1402.8,-121.069C1299.23,-117.022 1091.72,-108.914 979.055,-104.511"/>
<polygon fill="midnightblue" stroke="midnightblue" points="1402.66,-124.567 1412.79,-121.46 1402.94,-117.572 1402.66,-124.567"/>
</g>
<!-- Node11 -->
<g id="node11" class="node"><title>Node11</title>
<g id="a_node11"><a xlink:href="../../d8/d31/class_rendering_system.html#a9a564fd51aaea7d85eaf86b5101802ee" target="_top" xlink:title=" ">
<polygon fill="white" stroke="black" points="1216,-42.5 1216,-72.5 1377,-72.5 1377,-42.5 1216,-42.5"/>
<text text-anchor="start" x="1224" y="-60.5" font-family="Helvetica,sans-Serif" font-size="10.00">RenderingSystem::supplyParticle</text>
<text text-anchor="middle" x="1296.5" y="-49.5" font-family="Helvetica,sans-Serif" font-size="10.00">ShaderUniforms</text>
</a>
</g>
</g>
<!-- Node1&#45;&gt;Node11 -->
<g id="edge12" class="edge"><title>Node1&#45;&gt;Node11</title>
<path fill="none" stroke="midnightblue" d="M1432.64,-110.015C1416.05,-103.163 1395.49,-94.77 1377,-87.5 1364.37,-82.5343 1350.55,-77.2632 1338.03,-72.5475"/>
<polygon fill="midnightblue" stroke="midnightblue" points="1431.33,-113.26 1441.91,-113.851 1434.01,-106.792 1431.33,-113.26"/>
</g>
<!-- Node13 -->
<g id="node13" class="node"><title>Node13</title>
<g id="a_node13"><a xlink:href="../../dc/d22/class_directional_light_shadow_map.html#a8e8f3d1826214640802cdbf827434afd" target="_top" xlink:title=" ">
<polygon fill="white" stroke="black" points="1029,-0.5 1029,-30.5 1166,-30.5 1166,-0.5 1029,-0.5"/>
<text text-anchor="start" x="1037" y="-18.5" font-family="Helvetica,sans-Serif" font-size="10.00">DirectionalLightShadowMap</text>
<text text-anchor="middle" x="1097.5" y="-7.5" font-family="Helvetica,sans-Serif" font-size="10.00">::updateDepthMap</text>
</a>
</g>
</g>
<!-- Node1&#45;&gt;Node13 -->
<g id="edge15" class="edge"><title>Node1&#45;&gt;Node13</title>
<path fill="none" stroke="midnightblue" d="M1453.56,-105.163C1438.85,-83.4319 1411.08,-48.1955 1377,-32.5 1310.23,-1.75209 1224.76,-1.4838 1166.22,-6.36433"/>
<polygon fill="midnightblue" stroke="midnightblue" points="1450.81,-107.358 1459.21,-113.816 1456.67,-103.53 1450.81,-107.358"/>
</g>
<!-- Node2&#45;&gt;Node3 -->
<g id="edge2" class="edge"><title>Node2&#45;&gt;Node3</title>
<path fill="none" stroke="midnightblue" d="M1019.62,-234.909C929.75,-235.052 776.995,-230.603 649,-203.5 621.391,-197.654 591.106,-185.69 571.506,-177.159"/>
<polygon fill="midnightblue" stroke="midnightblue" points="1019.74,-238.408 1029.73,-234.873 1019.72,-231.409 1019.74,-238.408"/>
</g>
<!-- Node4 -->
<g id="node4" class="node"><title>Node4</title>
<g id="a_node4"><a xlink:href="../../dd/d1f/class_game.html#a15ddd769261d923827a3cdf41499c843" target="_top" xlink:title=" ">
<polygon fill="white" stroke="black" points="351,-145 351,-164 427,-164 427,-145 351,-145"/>
<text text-anchor="middle" x="389" y="-152" font-family="Helvetica,sans-Serif" font-size="10.00">Game::render</text>
</a>
</g>
</g>
<!-- Node3&#45;&gt;Node4 -->
<g id="edge3" class="edge"><title>Node3&#45;&gt;Node4</title>
<path fill="none" stroke="midnightblue" d="M475.492,-161.512C458.725,-160.137 441.582,-158.731 427.092,-157.542"/>
<polygon fill="midnightblue" stroke="midnightblue" points="475.604,-165.033 485.857,-162.362 476.176,-158.056 475.604,-165.033"/>
</g>
<!-- Node5 -->
<g id="node5" class="node"><title>Node5</title>
<g id="a_node5"><a xlink:href="../../de/d6b/class_application.html#a9ac99d97ee1cc814298a2f2388bde835" target="_top" xlink:title=" ">
<polygon fill="white" stroke="black" points="194,-143 194,-162 292,-162 292,-143 194,-143"/>
<text text-anchor="middle" x="243" y="-150" font-family="Helvetica,sans-Serif" font-size="10.00">Application::render</text>
</a>
</g>
</g>
<!-- Node4&#45;&gt;Node5 -->
<g id="edge4" class="edge"><title>Node4&#45;&gt;Node5</title>
<path fill="none" stroke="midnightblue" d="M340.479,-153.84C324.944,-153.624 307.683,-153.384 292.105,-153.168"/>
<polygon fill="midnightblue" stroke="midnightblue" points="340.869,-157.346 350.916,-153.985 340.966,-150.346 340.869,-157.346"/>
</g>
<!-- Node6 -->
<g id="node6" class="node"><title>Node6</title>
<g id="a_node6"><a xlink:href="../../de/d6b/class_application.html#a68965449404743bf1add056784d6cf81" target="_top" xlink:title=" ">
<polygon fill="white" stroke="black" points="74,-123 74,-142 158,-142 158,-123 74,-123"/>
<text text-anchor="middle" x="116" y="-130" font-family="Helvetica,sans-Serif" font-size="10.00">Application::run</text>
</a>
</g>
</g>
<!-- Node5&#45;&gt;Node6 -->
<g id="edge5" class="edge"><title>Node5&#45;&gt;Node6</title>
<path fill="none" stroke="midnightblue" d="M183.691,-143.171C175.114,-141.798 166.432,-140.409 158.294,-139.107"/>
<polygon fill="midnightblue" stroke="midnightblue" points="183.244,-146.644 193.672,-144.767 184.35,-139.731 183.244,-146.644"/>
</g>
<!-- Node7 -->
<g id="node7" class="node"><title>Node7</title>
<g id="a_node7"><a xlink:href="../../d5/d12/_main_8cpp.html#a0ddf1224851353fc92bfbff6f499fa97" target="_top" xlink:title=" ">
<polygon fill="white" stroke="black" points="0,-123 0,-142 38,-142 38,-123 0,-123"/>
<text text-anchor="middle" x="19" y="-130" font-family="Helvetica,sans-Serif" font-size="10.00">main</text>
</a>
</g>
</g>
<!-- Node6&#45;&gt;Node7 -->
<g id="edge6" class="edge"><title>Node6&#45;&gt;Node7</title>
<path fill="none" stroke="midnightblue" d="M63.6206,-132.5C54.5384,-132.5 45.6466,-132.5 38.2853,-132.5"/>
<polygon fill="midnightblue" stroke="midnightblue" points="63.8842,-136 73.8841,-132.5 63.8841,-129 63.8842,-136"/>
</g>
<!-- Node10 -->
<g id="node10" class="node"><title>Node10</title>
<g id="a_node10"><a xlink:href="../../d8/d31/class_rendering_system.html#a9f1ec48fdfa79ddc55421b6014fdb9c6" target="_top" xlink:title=" ">
<polygon fill="white" stroke="black" points="649,-114 649,-133 787,-133 787,-114 649,-114"/>
<text text-anchor="middle" x="718" y="-121" font-family="Helvetica,sans-Serif" font-size="10.00">RenderingSystem::renderAll</text>
</a>
</g>
</g>
<!-- Node9&#45;&gt;Node10 -->
<g id="edge10" class="edge"><title>Node9&#45;&gt;Node10</title>
<path fill="none" stroke="midnightblue" d="M812.854,-112.092C804.198,-113.145 795.5,-114.202 787.08,-115.225"/>
<polygon fill="midnightblue" stroke="midnightblue" points="813.473,-115.543 822.977,-110.862 812.628,-108.594 813.473,-115.543"/>
</g>
<!-- Node10&#45;&gt;Node3 -->
<g id="edge11" class="edge"><title>Node10&#45;&gt;Node3</title>
<path fill="none" stroke="midnightblue" d="M671.006,-135.655C644.363,-142.695 611.306,-151.431 586.558,-157.971"/>
<polygon fill="midnightblue" stroke="midnightblue" points="672.098,-138.986 680.872,-133.047 670.31,-132.219 672.098,-138.986"/>
</g>
<!-- Node12 -->
<g id="node12" class="node"><title>Node12</title>
<g id="a_node12"><a xlink:href="../../d8/d31/class_rendering_system.html#a488d5dcc3e1f3c63dedee53bc022a6af" target="_top" xlink:title=" ">
<polygon fill="white" stroke="black" points="1015,-51 1015,-70 1180,-70 1180,-51 1015,-51"/>
<text text-anchor="middle" x="1097.5" y="-58" font-family="Helvetica,sans-Serif" font-size="10.00">RenderingSystem::renderParticles</text>
</a>
</g>
</g>
<!-- Node11&#45;&gt;Node12 -->
<g id="edge13" class="edge"><title>Node11&#45;&gt;Node12</title>
<path fill="none" stroke="midnightblue" d="M1205.68,-58.8679C1197.21,-58.9967 1188.67,-59.1269 1180.28,-59.2546"/>
<polygon fill="midnightblue" stroke="midnightblue" points="1205.99,-62.3635 1215.94,-58.7116 1205.89,-55.3643 1205.99,-62.3635"/>
</g>
<!-- Node12&#45;&gt;Node9 -->
<g id="edge14" class="edge"><title>Node12&#45;&gt;Node9</title>
<path fill="none" stroke="midnightblue" d="M1041.55,-72.0825C1011.75,-78.366 975.351,-86.0379 947.203,-91.9714"/>
<polygon fill="midnightblue" stroke="midnightblue" points="1042.33,-75.4967 1051.39,-70.0093 1040.88,-68.6473 1042.33,-75.4967"/>
</g>
<!-- Node14 -->
<g id="node14" class="node"><title>Node14</title>
<g id="a_node14"><a xlink:href="../../d3/de8/class_fixed_updating_system.html#a62f406cd3cb3d441e605ed1a5e888ec6" target="_top" xlink:title=" ">
<polygon fill="white" stroke="black" points="844.5,-10.5 844.5,-40.5 957.5,-40.5 957.5,-10.5 844.5,-10.5"/>
<text text-anchor="start" x="852.5" y="-28.5" font-family="Helvetica,sans-Serif" font-size="10.00">FixedUpdatingSystem</text>
<text text-anchor="middle" x="901" y="-17.5" font-family="Helvetica,sans-Serif" font-size="10.00">::updateShadowMaps</text>
</a>
</g>
</g>
<!-- Node13&#45;&gt;Node14 -->
<g id="edge16" class="edge"><title>Node13&#45;&gt;Node14</title>
<path fill="none" stroke="midnightblue" d="M1018.53,-19.5087C998.142,-20.557 976.575,-21.6658 957.612,-22.6408"/>
<polygon fill="midnightblue" stroke="midnightblue" points="1018.94,-22.9924 1028.75,-18.9835 1018.58,-16.0016 1018.94,-22.9924"/>
</g>
<!-- Node15 -->
<g id="node15" class="node"><title>Node15</title>
<g id="a_node15"><a xlink:href="../../d3/de8/class_fixed_updating_system.html#a3ed508813ba850baed19e86ef0429028" target="_top" xlink:title=" ">
<polygon fill="white" stroke="black" points="661.5,-43.5 661.5,-73.5 774.5,-73.5 774.5,-43.5 661.5,-43.5"/>
<text text-anchor="start" x="669.5" y="-61.5" font-family="Helvetica,sans-Serif" font-size="10.00">FixedUpdatingSystem</text>
<text text-anchor="middle" x="718" y="-50.5" font-family="Helvetica,sans-Serif" font-size="10.00">::fixedUpdate</text>
</a>
</g>
</g>
<!-- Node14&#45;&gt;Node15 -->
<g id="edge17" class="edge"><title>Node14&#45;&gt;Node15</title>
<path fill="none" stroke="midnightblue" d="M834.17,-37.5021C814.628,-41.0651 793.424,-44.931 774.599,-48.3632"/>
<polygon fill="midnightblue" stroke="midnightblue" points="835.007,-40.9073 844.217,-35.6704 833.751,-34.0208 835.007,-40.9073"/>
</g>
<!-- Node16 -->
<g id="node16" class="node"><title>Node16</title>
<g id="a_node16"><a xlink:href="../../dd/d1f/class_game.html#a157e87f9dc147a5842ee6bdc06c95c17" target="_top" xlink:title=" ">
<polygon fill="white" stroke="black" points="499.5,-97 499.5,-116 599.5,-116 599.5,-97 499.5,-97"/>
<text text-anchor="middle" x="549.5" y="-104" font-family="Helvetica,sans-Serif" font-size="10.00">Game::fixedUpdate</text>
</a>
</g>
</g>
<!-- Node15&#45;&gt;Node16 -->
<g id="edge18" class="edge"><title>Node15&#45;&gt;Node16</title>
<path fill="none" stroke="midnightblue" d="M654.951,-76.3879C630.776,-83.3574 604.045,-91.0637 583.677,-96.9356"/>
<polygon fill="midnightblue" stroke="midnightblue" points="656.136,-79.689 664.775,-73.5558 654.197,-72.9629 656.136,-79.689"/>
</g>
<!-- Node17 -->
<g id="node17" class="node"><title>Node17</title>
<g id="a_node17"><a xlink:href="../../de/d6b/class_application.html#a95c827cb5cf08bd0c3cc7b07ed4b4249" target="_top" xlink:title=" ">
<polygon fill="white" stroke="black" points="328,-100 328,-119 450,-119 450,-100 328,-100"/>
<text text-anchor="middle" x="389" y="-107" font-family="Helvetica,sans-Serif" font-size="10.00">Application::fixedUpdate</text>
</a>
</g>
</g>
<!-- Node16&#45;&gt;Node17 -->
<g id="edge19" class="edge"><title>Node16&#45;&gt;Node17</title>
<path fill="none" stroke="midnightblue" d="M489.172,-107.623C476.413,-107.864 462.918,-108.12 450.129,-108.362"/>
<polygon fill="midnightblue" stroke="midnightblue" points="489.287,-111.121 499.218,-107.433 489.154,-104.123 489.287,-111.121"/>
</g>
<!-- Node17&#45;&gt;Node6 -->
<g id="edge20" class="edge"><title>Node17&#45;&gt;Node6</title>
<path fill="none" stroke="midnightblue" d="M317.623,-115.473C266.947,-119.774 200.326,-125.428 158.072,-129.014"/>
<polygon fill="midnightblue" stroke="midnightblue" points="318.188,-118.938 327.856,-114.604 317.596,-111.963 318.188,-118.938"/>
</g>
</g>
</svg>
