<?xml version="1.0" encoding="UTF-8" standalone="no"?>
<!DOCTYPE svg PUBLIC "-//W3C//DTD SVG 1.1//EN"
 "http://www.w3.org/Graphics/SVG/1.1/DTD/svg11.dtd">
<!-- Generated by graphviz version 2.38.0 (20140413.2041)
 -->
<!-- Title: Shader::getShaderTask Pages: 1 -->
<svg width="1113pt" height="66pt"
 viewBox="0.00 0.00 1113.00 66.00" xmlns="http://www.w3.org/2000/svg" xmlns:xlink="http://www.w3.org/1999/xlink">
<g id="graph0" class="graph" transform="scale(1 1) rotate(0) translate(4 62)">
<title>Shader::getShaderTask</title>
<polygon fill="white" stroke="none" points="-4,4 -4,-62 1109,-62 1109,4 -4,4"/>
<!-- Node1 -->
<g id="node1" class="node"><title>Node1</title>
<g id="a_node1"><a xlink:title=" ">
<polygon fill="#bfbfbf" stroke="black" points="986,-19.5 986,-38.5 1105,-38.5 1105,-19.5 986,-19.5"/>
<text text-anchor="middle" x="1045.5" y="-26.5" font-family="Helvetica,sans-Serif" font-size="10.00">Shader::getShaderTask</text>
</a>
</g>
</g>
<!-- Node2 -->
<g id="node2" class="node"><title>Node2</title>
<g id="a_node2"><a xlink:href="../../d8/d31/class_rendering_system.html#ad47afdc3d5267073f53695fcd483ee89" target="_top" xlink:title=" ">
<polygon fill="white" stroke="black" points="777,-38.5 777,-57.5 950,-57.5 950,-38.5 777,-38.5"/>
<text text-anchor="middle" x="863.5" y="-45.5" font-family="Helvetica,sans-Serif" font-size="10.00">RenderingSystem::renderDebugging</text>
</a>
</g>
</g>
<!-- Node1&#45;&gt;Node2 -->
<g id="edge1" class="edge"><title>Node1&#45;&gt;Node2</title>
<path fill="none" stroke="midnightblue" d="M975.523,-36.2809C967.173,-37.1623 958.567,-38.0707 950.015,-38.9734"/>
<polygon fill="midnightblue" stroke="midnightblue" points="975.984,-39.7518 985.561,-35.2213 975.249,-32.7905 975.984,-39.7518"/>
</g>
<!-- Node9 -->
<g id="node9" class="node"><title>Node9</title>
<g id="a_node9"><a xlink:href="../../d8/d31/class_rendering_system.html#ad5115644b3d0a1df6446a610c683a31e" target="_top" xlink:title=" ">
<polygon fill="white" stroke="black" points="785.5,-0.5 785.5,-19.5 941.5,-19.5 941.5,-0.5 785.5,-0.5"/>
<text text-anchor="middle" x="863.5" y="-7.5" font-family="Helvetica,sans-Serif" font-size="10.00">RenderingSystem::renderOthers</text>
</a>
</g>
</g>
<!-- Node1&#45;&gt;Node9 -->
<g id="edge8" class="edge"><title>Node1&#45;&gt;Node9</title>
<path fill="none" stroke="midnightblue" d="M975.516,-21.7184C964.417,-20.5468 952.866,-19.3275 941.591,-18.1374"/>
<polygon fill="midnightblue" stroke="midnightblue" points="975.249,-25.2095 985.561,-22.7787 975.984,-18.2482 975.249,-25.2095"/>
</g>
<!-- Node3 -->
<g id="node3" class="node"><title>Node3</title>
<g id="a_node3"><a xlink:href="../../d8/d31/class_rendering_system.html#a9f1ec48fdfa79ddc55421b6014fdb9c6" target="_top" xlink:title=" ">
<polygon fill="white" stroke="black" points="603,-19.5 603,-38.5 741,-38.5 741,-19.5 603,-19.5"/>
<text text-anchor="middle" x="672" y="-26.5" font-family="Helvetica,sans-Serif" font-size="10.00">RenderingSystem::renderAll</text>
</a>
</g>
</g>
<!-- Node2&#45;&gt;Node3 -->
<g id="edge2" class="edge"><title>Node2&#45;&gt;Node3</title>
<path fill="none" stroke="midnightblue" d="M766.772,-38.4019C758.136,-37.536 749.51,-36.6712 741.183,-35.8363"/>
<polygon fill="midnightblue" stroke="midnightblue" points="766.598,-41.902 776.898,-39.4172 767.297,-34.9369 766.598,-41.902"/>
</g>
<!-- Node4 -->
<g id="node4" class="node"><title>Node4</title>
<g id="a_node4"><a xlink:href="../../d8/d31/class_rendering_system.html#ae6a25f6b28ebe40f08916d9eadc95ac2" target="_top" xlink:title=" ">
<polygon fill="white" stroke="black" points="440,-19.5 440,-38.5 567,-38.5 567,-19.5 440,-19.5"/>
<text text-anchor="middle" x="503.5" y="-26.5" font-family="Helvetica,sans-Serif" font-size="10.00">RenderingSystem::render</text>
</a>
</g>
</g>
<!-- Node3&#45;&gt;Node4 -->
<g id="edge3" class="edge"><title>Node3&#45;&gt;Node4</title>
<path fill="none" stroke="midnightblue" d="M592.795,-29C584.227,-29 575.588,-29 567.242,-29"/>
<polygon fill="midnightblue" stroke="midnightblue" points="592.798,-32.5001 602.798,-29 592.798,-25.5001 592.798,-32.5001"/>
</g>
<!-- Node5 -->
<g id="node5" class="node"><title>Node5</title>
<g id="a_node5"><a xlink:href="../../dd/d1f/class_game.html#a15ddd769261d923827a3cdf41499c843" target="_top" xlink:title=" ">
<polygon fill="white" stroke="black" points="328,-19.5 328,-38.5 404,-38.5 404,-19.5 328,-19.5"/>
<text text-anchor="middle" x="366" y="-26.5" font-family="Helvetica,sans-Serif" font-size="10.00">Game::render</text>
</a>
</g>
</g>
<!-- Node4&#45;&gt;Node5 -->
<g id="edge4" class="edge"><title>Node4&#45;&gt;Node5</title>
<path fill="none" stroke="midnightblue" d="M429.877,-29C421.008,-29 412.25,-29 404.216,-29"/>
<polygon fill="midnightblue" stroke="midnightblue" points="429.906,-32.5001 439.906,-29 429.906,-25.5001 429.906,-32.5001"/>
</g>
<!-- Node6 -->
<g id="node6" class="node"><title>Node6</title>
<g id="a_node6"><a xlink:href="../../de/d6b/class_application.html#a9ac99d97ee1cc814298a2f2388bde835" target="_top" xlink:title=" ">
<polygon fill="white" stroke="black" points="194,-19.5 194,-38.5 292,-38.5 292,-19.5 194,-19.5"/>
<text text-anchor="middle" x="243" y="-26.5" font-family="Helvetica,sans-Serif" font-size="10.00">Application::render</text>
</a>
</g>
</g>
<!-- Node5&#45;&gt;Node6 -->
<g id="edge5" class="edge"><title>Node5&#45;&gt;Node6</title>
<path fill="none" stroke="midnightblue" d="M317.684,-29C309.282,-29 300.524,-29 292.101,-29"/>
<polygon fill="midnightblue" stroke="midnightblue" points="317.709,-32.5001 327.709,-29 317.709,-25.5001 317.709,-32.5001"/>
</g>
<!-- Node7 -->
<g id="node7" class="node"><title>Node7</title>
<g id="a_node7"><a xlink:href="../../de/d6b/class_application.html#a68965449404743bf1add056784d6cf81" target="_top" xlink:title=" ">
<polygon fill="white" stroke="black" points="74,-19.5 74,-38.5 158,-38.5 158,-19.5 74,-19.5"/>
<text text-anchor="middle" x="116" y="-26.5" font-family="Helvetica,sans-Serif" font-size="10.00">Application::run</text>
</a>
</g>
</g>
<!-- Node6&#45;&gt;Node7 -->
<g id="edge6" class="edge"><title>Node6&#45;&gt;Node7</title>
<path fill="none" stroke="midnightblue" d="M183.411,-29C174.926,-29 166.343,-29 158.294,-29"/>
<polygon fill="midnightblue" stroke="midnightblue" points="183.672,-32.5001 193.672,-29 183.672,-25.5001 183.672,-32.5001"/>
</g>
<!-- Node8 -->
<g id="node8" class="node"><title>Node8</title>
<g id="a_node8"><a xlink:href="../../d5/d12/_main_8cpp.html#a0ddf1224851353fc92bfbff6f499fa97" target="_top" xlink:title=" ">
<polygon fill="white" stroke="black" points="0,-19.5 0,-38.5 38,-38.5 38,-19.5 0,-19.5"/>
<text text-anchor="middle" x="19" y="-26.5" font-family="Helvetica,sans-Serif" font-size="10.00">main</text>
</a>
</g>
</g>
<!-- Node7&#45;&gt;Node8 -->
<g id="edge7" class="edge"><title>Node7&#45;&gt;Node8</title>
<path fill="none" stroke="midnightblue" d="M63.6206,-29C54.5384,-29 45.6466,-29 38.2853,-29"/>
<polygon fill="midnightblue" stroke="midnightblue" points="63.8842,-32.5001 73.8841,-29 63.8841,-25.5001 63.8842,-32.5001"/>
</g>
<!-- Node9&#45;&gt;Node3 -->
<g id="edge9" class="edge"><title>Node9&#45;&gt;Node3</title>
<path fill="none" stroke="midnightblue" d="M775.391,-18.7339C763.911,-19.8849 752.281,-21.051 741.18,-22.1641"/>
<polygon fill="midnightblue" stroke="midnightblue" points="775.822,-22.2083 785.423,-17.728 775.124,-15.2432 775.822,-22.2083"/>
</g>
</g>
</svg>
