<?xml version="1.0" encoding="UTF-8" standalone="no"?>
<!DOCTYPE svg PUBLIC "-//W3C//DTD SVG 1.1//EN"
 "http://www.w3.org/Graphics/SVG/1.1/DTD/svg11.dtd">
<!-- Generated by graphviz version 2.38.0 (20140413.2041)
 -->
<!-- Title: Shader::updateTagValues Pages: 1 -->
<svg width="315pt" height="154pt"
 viewBox="0.00 0.00 315.00 154.00" xmlns="http://www.w3.org/2000/svg" xmlns:xlink="http://www.w3.org/1999/xlink">
<g id="graph0" class="graph" transform="scale(1 1) rotate(0) translate(4 150)">
<title>Shader::updateTagValues</title>
<polygon fill="white" stroke="none" points="-4,4 -4,-150 311,-150 311,4 -4,4"/>
<!-- Node1 -->
<g id="node1" class="node"><title>Node1</title>
<g id="a_node1"><a xlink:title=" ">
<polygon fill="#bfbfbf" stroke="black" points="0,-60.5 0,-79.5 128,-79.5 128,-60.5 0,-60.5"/>
<text text-anchor="middle" x="64" y="-67.5" font-family="Helvetica,sans-Serif" font-size="10.00">Shader::updateTagValues</text>
</a>
</g>
</g>
<!-- Node2 -->
<g id="node2" class="node"><title>Node2</title>
<g id="a_node2"><a xlink:href="../../db/d2b/class_settings.html#ac25f3a418000ad7512363abe4d786c00" target="_top" xlink:title=" ">
<polygon fill="white" stroke="black" points="166,-126.5 166,-145.5 305,-145.5 305,-126.5 166,-126.5"/>
<text text-anchor="middle" x="235.5" y="-133.5" font-family="Helvetica,sans-Serif" font-size="10.00">Settings::getLightsPerEntity</text>
</a>
</g>
</g>
<!-- Node1&#45;&gt;Node2 -->
<g id="edge1" class="edge"><title>Node1&#45;&gt;Node2</title>
<path fill="none" stroke="midnightblue" d="M82.8247,-79.665C102.328,-89.9527 134.724,-106.206 164,-117 170.473,-119.387 177.379,-121.617 184.243,-123.65"/>
<polygon fill="midnightblue" stroke="midnightblue" points="183.637,-127.116 194.213,-126.482 185.55,-120.383 183.637,-127.116"/>
</g>
<!-- Node3 -->
<g id="node3" class="node"><title>Node3</title>
<g id="a_node3"><a xlink:href="../../db/d2b/class_settings.html#a00efac626c00aaa8d1805681367dc6ee" target="_top" xlink:title=" ">
<polygon fill="white" stroke="black" points="171.5,-77 171.5,-107 299.5,-107 299.5,-77 171.5,-77"/>
<text text-anchor="start" x="179.5" y="-95" font-family="Helvetica,sans-Serif" font-size="10.00">Settings::getShadowFilter</text>
<text text-anchor="middle" x="235.5" y="-84" font-family="Helvetica,sans-Serif" font-size="10.00">Amount</text>
</a>
</g>
</g>
<!-- Node1&#45;&gt;Node3 -->
<g id="edge2" class="edge"><title>Node1&#45;&gt;Node3</title>
<path fill="none" stroke="midnightblue" d="M128.116,-78.192C138.925,-79.595 150.238,-81.0633 161.284,-82.4971"/>
<polygon fill="midnightblue" stroke="midnightblue" points="160.964,-85.9848 171.332,-83.8012 161.865,-79.0431 160.964,-85.9848"/>
</g>
<!-- Node4 -->
<g id="node4" class="node"><title>Node4</title>
<g id="a_node4"><a xlink:href="../../db/d2b/class_settings.html#a98de2371d317c5c15382576aa7ab58a7" target="_top" xlink:title=" ">
<polygon fill="white" stroke="black" points="164,-38.5 164,-57.5 307,-57.5 307,-38.5 164,-38.5"/>
<text text-anchor="middle" x="235.5" y="-45.5" font-family="Helvetica,sans-Serif" font-size="10.00">Settings::getShadowIntensity</text>
</a>
</g>
</g>
<!-- Node1&#45;&gt;Node4 -->
<g id="edge3" class="edge"><title>Node1&#45;&gt;Node4</title>
<path fill="none" stroke="midnightblue" d="M128.116,-61.808C136.504,-60.7192 145.196,-59.5911 153.831,-58.4703"/>
<polygon fill="midnightblue" stroke="midnightblue" points="154.454,-61.9188 163.921,-57.1607 153.553,-54.9771 154.454,-61.9188"/>
</g>
<!-- Node5 -->
<g id="node5" class="node"><title>Node5</title>
<g id="a_node5"><a xlink:href="../../d1/d51/class_shader.html#a3da27ea9e54d71a16b2807f1397b606b" target="_top" xlink:title=" ">
<polygon fill="white" stroke="black" points="174,-0.5 174,-19.5 297,-19.5 297,-0.5 174,-0.5"/>
<text text-anchor="middle" x="235.5" y="-7.5" font-family="Helvetica,sans-Serif" font-size="10.00">Shader::updateTagValue</text>
</a>
</g>
</g>
<!-- Node1&#45;&gt;Node5 -->
<g id="edge4" class="edge"><title>Node1&#45;&gt;Node5</title>
<path fill="none" stroke="midnightblue" d="M85.9402,-60.3982C105.773,-51.5276 136.526,-38.3475 164,-29 170.93,-26.6421 178.322,-24.3811 185.613,-22.2933"/>
<polygon fill="midnightblue" stroke="midnightblue" points="186.745,-25.6116 195.442,-19.5608 184.87,-18.8673 186.745,-25.6116"/>
</g>
</g>
</svg>
