<?xml version="1.0" encoding="UTF-8" standalone="no"?>
<!DOCTYPE svg PUBLIC "-//W3C//DTD SVG 1.1//EN"
 "http://www.w3.org/Graphics/SVG/1.1/DTD/svg11.dtd">
<!-- Generated by graphviz version 2.38.0 (20140413.2041)
 -->
<!-- Title: Shader::Shader Pages: 1 -->
<svg width="435pt" height="233pt"
 viewBox="0.00 0.00 435.00 232.50" xmlns="http://www.w3.org/2000/svg" xmlns:xlink="http://www.w3.org/1999/xlink">
<g id="graph0" class="graph" transform="scale(1 1) rotate(0) translate(4 228.5)">
<title>Shader::Shader</title>
<polygon fill="white" stroke="none" points="-4,4 -4,-228.5 431,-228.5 431,4 -4,4"/>
<!-- Node1 -->
<g id="node1" class="node"><title>Node1</title>
<g id="a_node1"><a xlink:title=" ">
<polygon fill="#bfbfbf" stroke="black" points="0,-142.5 0,-161.5 84,-161.5 84,-142.5 0,-142.5"/>
<text text-anchor="middle" x="42" y="-149.5" font-family="Helvetica,sans-Serif" font-size="10.00">Shader::Shader</text>
</a>
</g>
</g>
<!-- Node2 -->
<g id="node2" class="node"><title>Node2</title>
<g id="a_node2"><a xlink:href="../../d1/d51/class_shader.html#a250ba90eabedc903f4a9fda2f5cd2ec4" target="_top" xlink:title=" ">
<polygon fill="white" stroke="black" points="125.5,-199.5 125.5,-218.5 242.5,-218.5 242.5,-199.5 125.5,-199.5"/>
<text text-anchor="middle" x="184" y="-206.5" font-family="Helvetica,sans-Serif" font-size="10.00">Shader::createProgram</text>
</a>
</g>
</g>
<!-- Node1&#45;&gt;Node2 -->
<g id="edge1" class="edge"><title>Node1&#45;&gt;Node2</title>
<path fill="none" stroke="midnightblue" d="M60.3623,-161.603C75.7279,-169.849 98.9211,-181.686 120,-190 125.789,-192.283 131.966,-194.455 138.105,-196.459"/>
<polygon fill="midnightblue" stroke="midnightblue" points="137.068,-199.802 147.658,-199.463 139.168,-193.124 137.068,-199.802"/>
</g>
<!-- Node4 -->
<g id="node4" class="node"><title>Node4</title>
<g id="a_node4"><a xlink:href="../../d1/d51/class_shader.html#a8ffd22fd79e623efa123557fb8476c22" target="_top" xlink:title=" ">
<polygon fill="white" stroke="black" points="139.5,-161.5 139.5,-180.5 228.5,-180.5 228.5,-161.5 139.5,-161.5"/>
<text text-anchor="middle" x="184" y="-168.5" font-family="Helvetica,sans-Serif" font-size="10.00">Shader::getCode</text>
</a>
</g>
</g>
<!-- Node1&#45;&gt;Node4 -->
<g id="edge3" class="edge"><title>Node1&#45;&gt;Node4</title>
<path fill="none" stroke="midnightblue" d="M84.2474,-157.598C98.2717,-159.501 114.16,-161.657 129.028,-163.675"/>
<polygon fill="midnightblue" stroke="midnightblue" points="128.743,-167.169 139.123,-165.045 129.685,-160.232 128.743,-167.169"/>
</g>
<!-- Node5 -->
<g id="node5" class="node"><title>Node5</title>
<g id="a_node5"><a xlink:href="../../db/d2b/class_settings.html#ac25f3a418000ad7512363abe4d786c00" target="_top" xlink:title=" ">
<polygon fill="white" stroke="black" points="286,-126.5 286,-145.5 425,-145.5 425,-126.5 286,-126.5"/>
<text text-anchor="middle" x="355.5" y="-133.5" font-family="Helvetica,sans-Serif" font-size="10.00">Settings::getLightsPerEntity</text>
</a>
</g>
</g>
<!-- Node1&#45;&gt;Node5 -->
<g id="edge4" class="edge"><title>Node1&#45;&gt;Node5</title>
<path fill="none" stroke="midnightblue" d="M84.0435,-149.892C132.713,-147.392 214.916,-143.17 275.949,-140.035"/>
<polygon fill="midnightblue" stroke="midnightblue" points="276.129,-143.53 285.936,-139.522 275.77,-136.539 276.129,-143.53"/>
</g>
<!-- Node6 -->
<g id="node6" class="node"><title>Node6</title>
<g id="a_node6"><a xlink:href="../../d1/d51/class_shader.html#a5092f138c9979b3f23ede89ea0c4bc54" target="_top" xlink:title=" ">
<polygon fill="white" stroke="black" points="120,-82.5 120,-101.5 248,-101.5 248,-82.5 120,-82.5"/>
<text text-anchor="middle" x="184" y="-89.5" font-family="Helvetica,sans-Serif" font-size="10.00">Shader::updateTagValues</text>
</a>
</g>
</g>
<!-- Node1&#45;&gt;Node6 -->
<g id="edge5" class="edge"><title>Node1&#45;&gt;Node6</title>
<path fill="none" stroke="midnightblue" d="M65.1834,-142.493C88.2917,-132.589 124.717,-116.978 150.951,-105.735"/>
<polygon fill="midnightblue" stroke="midnightblue" points="152.644,-108.818 160.457,-101.661 149.887,-102.384 152.644,-108.818"/>
</g>
<!-- Node3 -->
<g id="node3" class="node"><title>Node3</title>
<g id="a_node3"><a xlink:href="../../d1/d51/class_shader.html#ab647b515d5c0611f41b2da6632323b08" target="_top" xlink:title=" ">
<polygon fill="white" stroke="black" points="289,-194 289,-224 422,-224 422,-194 289,-194"/>
<text text-anchor="start" x="297" y="-212" font-family="Helvetica,sans-Serif" font-size="10.00">Shader::createAndCompile</text>
<text text-anchor="middle" x="355.5" y="-201" font-family="Helvetica,sans-Serif" font-size="10.00">Shader</text>
</a>
</g>
</g>
<!-- Node2&#45;&gt;Node3 -->
<g id="edge2" class="edge"><title>Node2&#45;&gt;Node3</title>
<path fill="none" stroke="midnightblue" d="M242.858,-209C254.397,-209 266.677,-209 278.713,-209"/>
<polygon fill="midnightblue" stroke="midnightblue" points="278.745,-212.5 288.745,-209 278.745,-205.5 278.745,-212.5"/>
</g>
<!-- Node6&#45;&gt;Node5 -->
<g id="edge6" class="edge"><title>Node6&#45;&gt;Node5</title>
<path fill="none" stroke="midnightblue" d="M221.779,-101.547C247.1,-108.12 280.94,-116.905 308.112,-123.958"/>
<polygon fill="midnightblue" stroke="midnightblue" points="307.234,-127.346 317.793,-126.471 308.993,-120.571 307.234,-127.346"/>
</g>
<!-- Node7 -->
<g id="node7" class="node"><title>Node7</title>
<g id="a_node7"><a xlink:href="../../db/d2b/class_settings.html#a00efac626c00aaa8d1805681367dc6ee" target="_top" xlink:title=" ">
<polygon fill="white" stroke="black" points="291.5,-77 291.5,-107 419.5,-107 419.5,-77 291.5,-77"/>
<text text-anchor="start" x="299.5" y="-95" font-family="Helvetica,sans-Serif" font-size="10.00">Settings::getShadowFilter</text>
<text text-anchor="middle" x="355.5" y="-84" font-family="Helvetica,sans-Serif" font-size="10.00">Amount</text>
</a>
</g>
</g>
<!-- Node6&#45;&gt;Node7 -->
<g id="edge7" class="edge"><title>Node6&#45;&gt;Node7</title>
<path fill="none" stroke="midnightblue" d="M248.116,-92C258.925,-92 270.238,-92 281.284,-92"/>
<polygon fill="midnightblue" stroke="midnightblue" points="281.332,-95.5001 291.332,-92 281.332,-88.5001 281.332,-95.5001"/>
</g>
<!-- Node8 -->
<g id="node8" class="node"><title>Node8</title>
<g id="a_node8"><a xlink:href="../../db/d2b/class_settings.html#a98de2371d317c5c15382576aa7ab58a7" target="_top" xlink:title=" ">
<polygon fill="white" stroke="black" points="284,-38.5 284,-57.5 427,-57.5 427,-38.5 284,-38.5"/>
<text text-anchor="middle" x="355.5" y="-45.5" font-family="Helvetica,sans-Serif" font-size="10.00">Settings::getShadowIntensity</text>
</a>
</g>
</g>
<!-- Node6&#45;&gt;Node8 -->
<g id="edge8" class="edge"><title>Node6&#45;&gt;Node8</title>
<path fill="none" stroke="midnightblue" d="M221.779,-82.4527C247.1,-75.8796 280.94,-67.0952 308.112,-60.0417"/>
<polygon fill="midnightblue" stroke="midnightblue" points="308.993,-63.4291 317.793,-57.5287 307.234,-56.6537 308.993,-63.4291"/>
</g>
<!-- Node9 -->
<g id="node9" class="node"><title>Node9</title>
<g id="a_node9"><a xlink:href="../../d1/d51/class_shader.html#a3da27ea9e54d71a16b2807f1397b606b" target="_top" xlink:title=" ">
<polygon fill="white" stroke="black" points="294,-0.5 294,-19.5 417,-19.5 417,-0.5 294,-0.5"/>
<text text-anchor="middle" x="355.5" y="-7.5" font-family="Helvetica,sans-Serif" font-size="10.00">Shader::updateTagValue</text>
</a>
</g>
</g>
<!-- Node6&#45;&gt;Node9 -->
<g id="edge9" class="edge"><title>Node6&#45;&gt;Node9</title>
<path fill="none" stroke="midnightblue" d="M197.424,-82.3204C215.523,-68.6457 250.628,-43.7027 284,-29 289.425,-26.6099 295.221,-24.459 301.07,-22.5396"/>
<polygon fill="midnightblue" stroke="midnightblue" points="302.373,-25.8011 310.91,-19.5267 300.324,-19.1078 302.373,-25.8011"/>
</g>
</g>
</svg>
