<?xml version="1.0" encoding="UTF-8" standalone="no"?>
<!DOCTYPE svg PUBLIC "-//W3C//DTD SVG 1.1//EN"
 "http://www.w3.org/Graphics/SVG/1.1/DTD/svg11.dtd">
<!-- Generated by graphviz version 2.38.0 (20140413.2041)
 -->
<!-- Title: Shader::createAndCompileShader Pages: 1 -->
<svg width="456pt" height="66pt"
 viewBox="0.00 0.00 456.00 66.00" xmlns="http://www.w3.org/2000/svg" xmlns:xlink="http://www.w3.org/1999/xlink">
<g id="graph0" class="graph" transform="scale(1 1) rotate(0) translate(4 62)">
<title>Shader::createAndCompileShader</title>
<polygon fill="white" stroke="none" points="-4,4 -4,-62 452,-62 452,4 -4,4"/>
<!-- Node1 -->
<g id="node1" class="node"><title>Node1</title>
<g id="a_node1"><a xlink:title=" ">
<polygon fill="#bfbfbf" stroke="black" points="315,-14 315,-44 448,-44 448,-14 315,-14"/>
<text text-anchor="start" x="323" y="-32" font-family="Helvetica,sans-Serif" font-size="10.00">Shader::createAndCompile</text>
<text text-anchor="middle" x="381.5" y="-21" font-family="Helvetica,sans-Serif" font-size="10.00">Shader</text>
</a>
</g>
</g>
<!-- Node2 -->
<g id="node2" class="node"><title>Node2</title>
<g id="a_node2"><a xlink:href="../../d1/d51/class_shader.html#a250ba90eabedc903f4a9fda2f5cd2ec4" target="_top" xlink:title=" ">
<polygon fill="white" stroke="black" points="162,-19.5 162,-38.5 279,-38.5 279,-19.5 162,-19.5"/>
<text text-anchor="middle" x="220.5" y="-26.5" font-family="Helvetica,sans-Serif" font-size="10.00">Shader::createProgram</text>
</a>
</g>
</g>
<!-- Node1&#45;&gt;Node2 -->
<g id="edge1" class="edge"><title>Node1&#45;&gt;Node2</title>
<path fill="none" stroke="midnightblue" d="M304.801,-29C296.144,-29 287.428,-29 279.062,-29"/>
<polygon fill="midnightblue" stroke="midnightblue" points="304.911,-32.5001 314.911,-29 304.911,-25.5001 304.911,-32.5001"/>
</g>
<!-- Node3 -->
<g id="node3" class="node"><title>Node3</title>
<g id="a_node3"><a xlink:href="../../d1/d51/class_shader.html#ac54f6756d191e870421d73671d696a9a" target="_top" xlink:title=" ">
<polygon fill="white" stroke="black" points="0,-38.5 0,-57.5 126,-57.5 126,-38.5 0,-38.5"/>
<text text-anchor="middle" x="63" y="-45.5" font-family="Helvetica,sans-Serif" font-size="10.00">Shader::recompileShader</text>
</a>
</g>
</g>
<!-- Node2&#45;&gt;Node3 -->
<g id="edge2" class="edge"><title>Node2&#45;&gt;Node3</title>
<path fill="none" stroke="midnightblue" d="M151.433,-37.3169C143.015,-38.3454 134.444,-39.3927 126.121,-40.4096"/>
<polygon fill="midnightblue" stroke="midnightblue" points="152.096,-40.762 161.598,-36.0749 151.247,-33.8137 152.096,-40.762"/>
</g>
<!-- Node4 -->
<g id="node4" class="node"><title>Node4</title>
<g id="a_node4"><a xlink:href="../../d1/d51/class_shader.html#af076aa6265cb875e0395d816b92d8637" target="_top" xlink:title=" ">
<polygon fill="white" stroke="black" points="21,-0.5 21,-19.5 105,-19.5 105,-0.5 21,-0.5"/>
<text text-anchor="middle" x="63" y="-7.5" font-family="Helvetica,sans-Serif" font-size="10.00">Shader::Shader</text>
</a>
</g>
</g>
<!-- Node2&#45;&gt;Node4 -->
<g id="edge3" class="edge"><title>Node2&#45;&gt;Node4</title>
<path fill="none" stroke="midnightblue" d="M151.412,-20.6806C135.755,-18.7675 119.567,-16.7896 105.441,-15.0636"/>
<polygon fill="midnightblue" stroke="midnightblue" points="151.247,-24.1863 161.598,-21.9251 152.096,-17.238 151.247,-24.1863"/>
</g>
</g>
</svg>
