<?xml version="1.0" encoding="UTF-8" standalone="no"?>
<!DOCTYPE svg PUBLIC "-//W3C//DTD SVG 1.1//EN"
 "http://www.w3.org/Graphics/SVG/1.1/DTD/svg11.dtd">
<!-- Generated by graphviz version 2.38.0 (20140413.2041)
 -->
<!-- Title: Shader::recompileShader Pages: 1 -->
<svg width="456pt" height="72pt"
 viewBox="0.00 0.00 456.00 71.50" xmlns="http://www.w3.org/2000/svg" xmlns:xlink="http://www.w3.org/1999/xlink">
<g id="graph0" class="graph" transform="scale(1 1) rotate(0) translate(4 67.5)">
<title>Shader::recompileShader</title>
<polygon fill="white" stroke="none" points="-4,4 -4,-67.5 452,-67.5 452,4 -4,4"/>
<!-- Node1 -->
<g id="node1" class="node"><title>Node1</title>
<g id="a_node1"><a xlink:title=" ">
<polygon fill="#bfbfbf" stroke="black" points="0,-19.5 0,-38.5 126,-38.5 126,-19.5 0,-19.5"/>
<text text-anchor="middle" x="63" y="-26.5" font-family="Helvetica,sans-Serif" font-size="10.00">Shader::recompileShader</text>
</a>
</g>
</g>
<!-- Node2 -->
<g id="node2" class="node"><title>Node2</title>
<g id="a_node2"><a xlink:href="../../d1/d51/class_shader.html#a250ba90eabedc903f4a9fda2f5cd2ec4" target="_top" xlink:title=" ">
<polygon fill="white" stroke="black" points="162,-38.5 162,-57.5 279,-57.5 279,-38.5 162,-38.5"/>
<text text-anchor="middle" x="220.5" y="-45.5" font-family="Helvetica,sans-Serif" font-size="10.00">Shader::createProgram</text>
</a>
</g>
</g>
<!-- Node1&#45;&gt;Node2 -->
<g id="edge1" class="edge"><title>Node1&#45;&gt;Node2</title>
<path fill="none" stroke="midnightblue" d="M126.352,-36.6185C134.702,-37.6388 143.298,-38.6892 151.735,-39.7201"/>
<polygon fill="midnightblue" stroke="midnightblue" points="151.57,-43.2258 161.92,-40.9645 152.419,-36.2774 151.57,-43.2258"/>
</g>
<!-- Node4 -->
<g id="node4" class="node"><title>Node4</title>
<g id="a_node4"><a xlink:href="../../d1/d51/class_shader.html#a8ffd22fd79e623efa123557fb8476c22" target="_top" xlink:title=" ">
<polygon fill="white" stroke="black" points="176,-0.5 176,-19.5 265,-19.5 265,-0.5 176,-0.5"/>
<text text-anchor="middle" x="220.5" y="-7.5" font-family="Helvetica,sans-Serif" font-size="10.00">Shader::getCode</text>
</a>
</g>
</g>
<!-- Node1&#45;&gt;Node4 -->
<g id="edge3" class="edge"><title>Node1&#45;&gt;Node4</title>
<path fill="none" stroke="midnightblue" d="M126.352,-21.3815C139.419,-19.7848 153.092,-18.1142 165.811,-16.5601"/>
<polygon fill="midnightblue" stroke="midnightblue" points="166.276,-20.0294 175.777,-15.3423 165.427,-13.0811 166.276,-20.0294"/>
</g>
<!-- Node3 -->
<g id="node3" class="node"><title>Node3</title>
<g id="a_node3"><a xlink:href="../../d1/d51/class_shader.html#ab647b515d5c0611f41b2da6632323b08" target="_top" xlink:title=" ">
<polygon fill="white" stroke="black" points="315,-33 315,-63 448,-63 448,-33 315,-33"/>
<text text-anchor="start" x="323" y="-51" font-family="Helvetica,sans-Serif" font-size="10.00">Shader::createAndCompile</text>
<text text-anchor="middle" x="381.5" y="-40" font-family="Helvetica,sans-Serif" font-size="10.00">Shader</text>
</a>
</g>
</g>
<!-- Node2&#45;&gt;Node3 -->
<g id="edge2" class="edge"><title>Node2&#45;&gt;Node3</title>
<path fill="none" stroke="midnightblue" d="M279.352,-48C287.649,-48 296.286,-48 304.863,-48"/>
<polygon fill="midnightblue" stroke="midnightblue" points="304.88,-51.5001 314.88,-48 304.88,-44.5001 304.88,-51.5001"/>
</g>
</g>
</svg>
