<?xml version="1.0" encoding="UTF-8" standalone="no"?>
<!DOCTYPE svg PUBLIC "-//W3C//DTD SVG 1.1//EN"
 "http://www.w3.org/Graphics/SVG/1.1/DTD/svg11.dtd">
<!-- Generated by graphviz version 2.38.0 (20140413.2041)
 -->
<!-- Title: RenderTexture::initialize Pages: 1 -->
<svg width="1140pt" height="78pt"
 viewBox="0.00 0.00 1140.00 77.50" xmlns="http://www.w3.org/2000/svg" xmlns:xlink="http://www.w3.org/1999/xlink">
<g id="graph0" class="graph" transform="scale(1 1) rotate(0) translate(4 73.5)">
<title>RenderTexture::initialize</title>
<polygon fill="white" stroke="none" points="-4,4 -4,-73.5 1136,-73.5 1136,4 -4,4"/>
<!-- Node1 -->
<g id="node1" class="node"><title>Node1</title>
<g id="a_node1"><a xlink:title=" ">
<polygon fill="#bfbfbf" stroke="black" points="1011,-28 1011,-47 1132,-47 1132,-28 1011,-28"/>
<text text-anchor="middle" x="1071.5" y="-35" font-family="Helvetica,sans-Serif" font-size="10.00">RenderTexture::initialize</text>
</a>
</g>
</g>
<!-- Node2 -->
<g id="node2" class="node"><title>Node2</title>
<g id="a_node2"><a xlink:href="../../dd/d1f/class_game.html#a0cd419405f5790feab89322cbb3f18ce" target="_top" xlink:title=" ">
<polygon fill="white" stroke="black" points="855,-48 855,-67 975,-67 975,-48 855,-48"/>
<text text-anchor="middle" x="915" y="-55" font-family="Helvetica,sans-Serif" font-size="10.00">Game::initializeShaders</text>
</a>
</g>
</g>
<!-- Node1&#45;&gt;Node2 -->
<g id="edge1" class="edge"><title>Node1&#45;&gt;Node2</title>
<path fill="none" stroke="midnightblue" d="M1000.77,-46.5265C992.184,-47.638 983.473,-48.7657 975.066,-49.8539"/>
<polygon fill="midnightblue" stroke="midnightblue" points="1001.3,-49.9874 1010.77,-45.2325 1000.4,-43.0454 1001.3,-49.9874"/>
</g>
<!-- Node7 -->
<g id="node7" class="node"><title>Node7</title>
<g id="a_node7"><a xlink:href="../../dd/db8/class_render_texture.html#abf24c86b77fa47a8c85093fa0a96a7d7" target="_top" xlink:title=" ">
<polygon fill="white" stroke="black" points="859,-9 859,-28 971,-28 971,-9 859,-9"/>
<text text-anchor="middle" x="915" y="-16" font-family="Helvetica,sans-Serif" font-size="10.00">RenderTexture::resize</text>
</a>
</g>
</g>
<!-- Node1&#45;&gt;Node7 -->
<g id="edge6" class="edge"><title>Node1&#45;&gt;Node7</title>
<path fill="none" stroke="midnightblue" d="M1000.54,-28.8964C990.642,-27.6793 980.584,-26.4424 971.023,-25.2666"/>
<polygon fill="midnightblue" stroke="midnightblue" points="1000.41,-32.4073 1010.77,-30.1541 1001.27,-25.4596 1000.41,-32.4073"/>
</g>
<!-- Node3 -->
<g id="node3" class="node"><title>Node3</title>
<g id="a_node3"><a xlink:href="../../dd/d1f/class_game.html#a8986a201a654418cefe34ec28af1a22c" target="_top" xlink:title=" ">
<polygon fill="white" stroke="black" points="711.5,-50 711.5,-69 795.5,-69 795.5,-50 711.5,-50"/>
<text text-anchor="middle" x="753.5" y="-57" font-family="Helvetica,sans-Serif" font-size="10.00">Game::initialize</text>
</a>
</g>
</g>
<!-- Node2&#45;&gt;Node3 -->
<g id="edge2" class="edge"><title>Node2&#45;&gt;Node3</title>
<path fill="none" stroke="midnightblue" d="M844.339,-58.3735C827.68,-58.5824 810.425,-58.7988 795.543,-58.9854"/>
<polygon fill="midnightblue" stroke="midnightblue" points="844.653,-61.8699 854.608,-58.2447 844.565,-54.8705 844.653,-61.8699"/>
</g>
<!-- Node4 -->
<g id="node4" class="node"><title>Node4</title>
<g id="a_node4"><a xlink:href="../../de/d6b/class_application.html#af431bce25717b04a78d4d0940ed6a92c" target="_top" xlink:title=" ">
<polygon fill="white" stroke="black" points="352,-48 352,-67 458,-67 458,-48 352,-48"/>
<text text-anchor="middle" x="405" y="-55" font-family="Helvetica,sans-Serif" font-size="10.00">Application::initialize</text>
</a>
</g>
</g>
<!-- Node3&#45;&gt;Node4 -->
<g id="edge3" class="edge"><title>Node3&#45;&gt;Node4</title>
<path fill="none" stroke="midnightblue" d="M701.332,-59.2047C636.051,-58.8279 523.75,-58.1797 458.049,-57.8004"/>
<polygon fill="midnightblue" stroke="midnightblue" points="701.371,-62.7048 711.391,-59.2627 701.412,-55.705 701.371,-62.7048"/>
</g>
<!-- Node5 -->
<g id="node5" class="node"><title>Node5</title>
<g id="a_node5"><a xlink:href="../../de/d6b/class_application.html#a68965449404743bf1add056784d6cf81" target="_top" xlink:title=" ">
<polygon fill="white" stroke="black" points="74,-28 74,-47 158,-47 158,-28 74,-28"/>
<text text-anchor="middle" x="116" y="-35" font-family="Helvetica,sans-Serif" font-size="10.00">Application::run</text>
</a>
</g>
</g>
<!-- Node4&#45;&gt;Node5 -->
<g id="edge4" class="edge"><title>Node4&#45;&gt;Node5</title>
<path fill="none" stroke="midnightblue" d="M341.609,-53.1522C286.023,-49.2786 206.262,-43.7203 158.258,-40.3752"/>
<polygon fill="midnightblue" stroke="midnightblue" points="341.474,-56.6512 351.693,-53.8549 341.961,-49.6681 341.474,-56.6512"/>
</g>
<!-- Node6 -->
<g id="node6" class="node"><title>Node6</title>
<g id="a_node6"><a xlink:href="../../d5/d12/_main_8cpp.html#a0ddf1224851353fc92bfbff6f499fa97" target="_top" xlink:title=" ">
<polygon fill="white" stroke="black" points="0,-28 0,-47 38,-47 38,-28 0,-28"/>
<text text-anchor="middle" x="19" y="-35" font-family="Helvetica,sans-Serif" font-size="10.00">main</text>
</a>
</g>
</g>
<!-- Node5&#45;&gt;Node6 -->
<g id="edge5" class="edge"><title>Node5&#45;&gt;Node6</title>
<path fill="none" stroke="midnightblue" d="M63.6206,-37.5C54.5384,-37.5 45.6466,-37.5 38.2853,-37.5"/>
<polygon fill="midnightblue" stroke="midnightblue" points="63.8842,-41.0001 73.8841,-37.5 63.8841,-34.0001 63.8842,-41.0001"/>
</g>
<!-- Node8 -->
<g id="node8" class="node"><title>Node8</title>
<g id="a_node8"><a xlink:href="../../d3/de8/class_fixed_updating_system.html#a8f07c76b37a898f91221740f42c72598" target="_top" xlink:title=" ">
<polygon fill="white" stroke="black" points="688,-0.5 688,-30.5 819,-30.5 819,-0.5 688,-0.5"/>
<text text-anchor="start" x="696" y="-18.5" font-family="Helvetica,sans-Serif" font-size="10.00">FixedUpdatingSystem</text>
<text text-anchor="middle" x="753.5" y="-7.5" font-family="Helvetica,sans-Serif" font-size="10.00">::handleBackEndMessage</text>
</a>
</g>
</g>
<!-- Node7&#45;&gt;Node8 -->
<g id="edge7" class="edge"><title>Node7&#45;&gt;Node8</title>
<path fill="none" stroke="midnightblue" d="M848.622,-17.2703C838.859,-17.0867 828.799,-16.8975 819.053,-16.7142"/>
<polygon fill="midnightblue" stroke="midnightblue" points="848.598,-20.7704 858.662,-17.4592 848.73,-13.7716 848.598,-20.7704"/>
</g>
<!-- Node9 -->
<g id="node9" class="node"><title>Node9</title>
<g id="a_node9"><a xlink:href="../../dd/d1f/class_game.html#a5eb682ebf3aa9ac5b2d6d63ade9ddcc0" target="_top" xlink:title=" ">
<polygon fill="white" stroke="black" points="494,-9 494,-28 652,-28 652,-9 494,-9"/>
<text text-anchor="middle" x="573" y="-16" font-family="Helvetica,sans-Serif" font-size="10.00">Game::readBackendEventQueue</text>
</a>
</g>
</g>
<!-- Node8&#45;&gt;Node9 -->
<g id="edge8" class="edge"><title>Node8&#45;&gt;Node9</title>
<path fill="none" stroke="midnightblue" d="M677.64,-16.7582C669.217,-16.8997 660.619,-17.0442 652.157,-17.1864"/>
<polygon fill="midnightblue" stroke="midnightblue" points="677.865,-20.255 687.805,-16.5873 677.748,-13.2559 677.865,-20.255"/>
</g>
<!-- Node10 -->
<g id="node10" class="node"><title>Node10</title>
<g id="a_node10"><a xlink:href="../../dd/d1f/class_game.html#a157e87f9dc147a5842ee6bdc06c95c17" target="_top" xlink:title=" ">
<polygon fill="white" stroke="black" points="355,-9 355,-28 455,-28 455,-9 355,-9"/>
<text text-anchor="middle" x="405" y="-16" font-family="Helvetica,sans-Serif" font-size="10.00">Game::fixedUpdate</text>
</a>
</g>
</g>
<!-- Node9&#45;&gt;Node10 -->
<g id="edge9" class="edge"><title>Node9&#45;&gt;Node10</title>
<path fill="none" stroke="midnightblue" d="M483.705,-18.5C473.971,-18.5 464.335,-18.5 455.335,-18.5"/>
<polygon fill="midnightblue" stroke="midnightblue" points="483.861,-22.0001 493.861,-18.5 483.861,-15.0001 483.861,-22.0001"/>
</g>
<!-- Node11 -->
<g id="node11" class="node"><title>Node11</title>
<g id="a_node11"><a xlink:href="../../de/d6b/class_application.html#a95c827cb5cf08bd0c3cc7b07ed4b4249" target="_top" xlink:title=" ">
<polygon fill="white" stroke="black" points="194,-9 194,-28 316,-28 316,-9 194,-9"/>
<text text-anchor="middle" x="255" y="-16" font-family="Helvetica,sans-Serif" font-size="10.00">Application::fixedUpdate</text>
</a>
</g>
</g>
<!-- Node10&#45;&gt;Node11 -->
<g id="edge10" class="edge"><title>Node10&#45;&gt;Node11</title>
<path fill="none" stroke="midnightblue" d="M344.678,-18.5C335.279,-18.5 325.55,-18.5 316.132,-18.5"/>
<polygon fill="midnightblue" stroke="midnightblue" points="344.718,-22.0001 354.718,-18.5 344.718,-15.0001 344.718,-22.0001"/>
</g>
<!-- Node11&#45;&gt;Node5 -->
<g id="edge11" class="edge"><title>Node11&#45;&gt;Node5</title>
<path fill="none" stroke="midnightblue" d="M183.954,-28.2145C175.121,-29.4395 166.322,-30.6598 158.145,-31.7937"/>
<polygon fill="midnightblue" stroke="midnightblue" points="184.485,-31.6743 193.91,-26.8337 183.524,-24.7407 184.485,-31.6743"/>
</g>
</g>
</svg>
