<?xml version="1.0" encoding="UTF-8" standalone="no"?>
<!DOCTYPE svg PUBLIC "-//W3C//DTD SVG 1.1//EN"
 "http://www.w3.org/Graphics/SVG/1.1/DTD/svg11.dtd">
<!-- Generated by graphviz version 2.38.0 (20140413.2041)
 -->
<!-- Title: src/PauseMenuSystem.h Pages: 1 -->
<svg width="1889pt" height="476pt"
 viewBox="0.00 0.00 1889.00 476.00" xmlns="http://www.w3.org/2000/svg" xmlns:xlink="http://www.w3.org/1999/xlink">
<g id="graph0" class="graph" transform="scale(1 1) rotate(0) translate(4 472)">
<title>src/PauseMenuSystem.h</title>
<polygon fill="white" stroke="none" points="-4,4 -4,-472 1885,-472 1885,4 -4,4"/>
<!-- Node1 -->
<g id="node1" class="node"><title>Node1</title>
<g id="a_node1"><a xlink:title=" ">
<polygon fill="#bfbfbf" stroke="black" points="254.5,-448.5 254.5,-467.5 381.5,-467.5 381.5,-448.5 254.5,-448.5"/>
<text text-anchor="middle" x="318" y="-455.5" font-family="Helvetica,sans-Serif" font-size="10.00">src/PauseMenuSystem.h</text>
</a>
</g>
</g>
<!-- Node2 -->
<g id="node2" class="node"><title>Node2</title>
<g id="a_node2"><a xlink:href="../../df/dec/_g_u_i_resizing_info_8h.html" target="_top" xlink:title=" ">
<polygon fill="white" stroke="black" points="271,-392.5 271,-411.5 365,-411.5 365,-392.5 271,-392.5"/>
<text text-anchor="middle" x="318" y="-399.5" font-family="Helvetica,sans-Serif" font-size="10.00">GUIResizingInfo.h</text>
</a>
</g>
</g>
<!-- Node1&#45;&gt;Node2 -->
<g id="edge1" class="edge"><title>Node1&#45;&gt;Node2</title>
<path fill="none" stroke="midnightblue" d="M318,-448.083C318,-441.006 318,-430.861 318,-421.986"/>
<polygon fill="midnightblue" stroke="midnightblue" points="321.5,-421.751 318,-411.751 314.5,-421.751 321.5,-421.751"/>
</g>
<!-- Node8 -->
<g id="node8" class="node"><title>Node8</title>
<g id="a_node8"><a xlink:href="../../db/d30/_pause_menu_8h.html" target="_top" xlink:title=" ">
<polygon fill="white" stroke="black" points="428.5,-392.5 428.5,-411.5 505.5,-411.5 505.5,-392.5 428.5,-392.5"/>
<text text-anchor="middle" x="467" y="-399.5" font-family="Helvetica,sans-Serif" font-size="10.00">PauseMenu.h</text>
</a>
</g>
</g>
<!-- Node1&#45;&gt;Node8 -->
<g id="edge7" class="edge"><title>Node1&#45;&gt;Node8</title>
<path fill="none" stroke="midnightblue" d="M341.609,-448.444C366.458,-439.438 405.774,-425.189 433.754,-415.049"/>
<polygon fill="midnightblue" stroke="midnightblue" points="435.292,-418.214 443.501,-411.516 432.907,-411.633 435.292,-418.214"/>
</g>
<!-- Node44 -->
<g id="node44" class="node"><title>Node44</title>
<g id="a_node44"><a xlink:href="../../d4/df9/_user_controls_8h.html" target="_top" xlink:title=" ">
<polygon fill="white" stroke="black" points="30.5,-392.5 30.5,-411.5 111.5,-411.5 111.5,-392.5 30.5,-392.5"/>
<text text-anchor="middle" x="71" y="-399.5" font-family="Helvetica,sans-Serif" font-size="10.00">UserControls.h</text>
</a>
</g>
</g>
<!-- Node1&#45;&gt;Node44 -->
<g id="edge77" class="edge"><title>Node1&#45;&gt;Node44</title>
<path fill="none" stroke="midnightblue" d="M278.862,-448.444C235.774,-439.023 166.441,-423.866 119.829,-413.675"/>
<polygon fill="midnightblue" stroke="midnightblue" points="120.472,-410.233 109.955,-411.516 118.976,-417.072 120.472,-410.233"/>
</g>
<!-- Node3 -->
<g id="node3" class="node"><title>Node3</title>
<g id="a_node3"><a xlink:href="../../de/d50/_game_info_8h.html" target="_top" xlink:title=" ">
<polygon fill="white" stroke="black" points="285,-168.5 285,-187.5 351,-187.5 351,-168.5 285,-168.5"/>
<text text-anchor="middle" x="318" y="-175.5" font-family="Helvetica,sans-Serif" font-size="10.00">GameInfo.h</text>
</a>
</g>
</g>
<!-- Node2&#45;&gt;Node3 -->
<g id="edge2" class="edge"><title>Node2&#45;&gt;Node3</title>
<path fill="none" stroke="midnightblue" d="M318,-392.297C318,-359.633 318,-243.866 318,-197.957"/>
<polygon fill="midnightblue" stroke="midnightblue" points="321.5,-197.884 318,-187.884 314.5,-197.884 321.5,-197.884"/>
</g>
<!-- Node4 -->
<g id="node4" class="node"><title>Node4</title>
<g id="a_node4"><a xlink:title=" ">
<polygon fill="white" stroke="#bfbfbf" points="526.5,-56.5 526.5,-75.5 653.5,-75.5 653.5,-56.5 526.5,-56.5"/>
<text text-anchor="middle" x="590" y="-63.5" font-family="Helvetica,sans-Serif" font-size="10.00">LinearMath/btTransform.h</text>
</a>
</g>
</g>
<!-- Node3&#45;&gt;Node4 -->
<g id="edge3" class="edge"><title>Node3&#45;&gt;Node4</title>
<path fill="none" stroke="midnightblue" d="M339.343,-168.368C387.31,-148.97 503.777,-101.87 559.419,-79.3673"/>
<polygon fill="midnightblue" stroke="midnightblue" points="560.797,-82.5853 568.756,-75.5914 558.173,-76.0959 560.797,-82.5853"/>
</g>
<!-- Node5 -->
<g id="node5" class="node"><title>Node5</title>
<g id="a_node5"><a xlink:title=" ">
<polygon fill="white" stroke="#bfbfbf" points="427,-56.5 427,-75.5 501,-75.5 501,-56.5 427,-56.5"/>
<text text-anchor="middle" x="464" y="-63.5" font-family="Helvetica,sans-Serif" font-size="10.00">glm/vec3.hpp</text>
</a>
</g>
</g>
<!-- Node3&#45;&gt;Node5 -->
<g id="edge4" class="edge"><title>Node3&#45;&gt;Node5</title>
<path fill="none" stroke="midnightblue" d="M316.87,-168.263C315.611,-154.575 315.299,-127.993 329,-112 350.71,-86.6571 387.094,-75.5299 416.623,-70.6724"/>
<polygon fill="midnightblue" stroke="midnightblue" points="417.353,-74.1031 426.746,-69.2026 416.347,-67.1758 417.353,-74.1031"/>
</g>
<!-- Node6 -->
<g id="node6" class="node"><title>Node6</title>
<g id="a_node6"><a xlink:title=" ">
<polygon fill="white" stroke="#bfbfbf" points="170,-112.5 170,-131.5 244,-131.5 244,-112.5 170,-112.5"/>
<text text-anchor="middle" x="207" y="-119.5" font-family="Helvetica,sans-Serif" font-size="10.00">glm/vec4.hpp</text>
</a>
</g>
</g>
<!-- Node3&#45;&gt;Node6 -->
<g id="edge5" class="edge"><title>Node3&#45;&gt;Node6</title>
<path fill="none" stroke="midnightblue" d="M300.166,-168.324C282.284,-159.625 254.525,-146.12 233.954,-136.113"/>
<polygon fill="midnightblue" stroke="midnightblue" points="235.313,-132.882 224.79,-131.655 232.251,-139.177 235.313,-132.882"/>
</g>
<!-- Node7 -->
<g id="node7" class="node"><title>Node7</title>
<g id="a_node7"><a xlink:title=" ">
<polygon fill="white" stroke="#bfbfbf" points="933.5,-56.5 933.5,-75.5 974.5,-75.5 974.5,-56.5 933.5,-56.5"/>
<text text-anchor="middle" x="954" y="-63.5" font-family="Helvetica,sans-Serif" font-size="10.00">string</text>
</a>
</g>
</g>
<!-- Node3&#45;&gt;Node7 -->
<g id="edge6" class="edge"><title>Node3&#45;&gt;Node7</title>
<path fill="none" stroke="midnightblue" d="M344.068,-168.46C387.933,-154.433 479.512,-126.615 559,-112 716.277,-83.0827 759.376,-102.962 917,-76 919.087,-75.643 921.231,-75.2344 923.386,-74.7927"/>
<polygon fill="midnightblue" stroke="midnightblue" points="924.371,-78.1588 933.362,-72.5546 922.838,-71.3285 924.371,-78.1588"/>
</g>
<!-- Node9 -->
<g id="node9" class="node"><title>Node9</title>
<g id="a_node9"><a xlink:href="../../dc/d20/_component_8h.html" target="_top" xlink:title=" ">
<polygon fill="white" stroke="black" points="273,-56.5 273,-75.5 347,-75.5 347,-56.5 273,-56.5"/>
<text text-anchor="middle" x="310" y="-63.5" font-family="Helvetica,sans-Serif" font-size="10.00">Component.h</text>
</a>
</g>
</g>
<!-- Node8&#45;&gt;Node9 -->
<g id="edge8" class="edge"><title>Node8&#45;&gt;Node9</title>
<path fill="none" stroke="midnightblue" d="M428.442,-396.239C342.353,-384.535 142,-350.866 142,-291 142,-291 142,-291 142,-177 142,-146.902 139.813,-133.377 161,-112 187.691,-85.0702 229.885,-74.1422 262.57,-69.765"/>
<polygon fill="midnightblue" stroke="midnightblue" points="263.292,-73.2043 272.815,-68.562 262.476,-66.252 263.292,-73.2043"/>
</g>
<!-- Node11 -->
<g id="node11" class="node"><title>Node11</title>
<g id="a_node11"><a xlink:href="../../d2/d74/_gui_button_8h.html" target="_top" xlink:title=" ">
<polygon fill="white" stroke="black" points="479,-336.5 479,-355.5 547,-355.5 547,-336.5 479,-336.5"/>
<text text-anchor="middle" x="513" y="-343.5" font-family="Helvetica,sans-Serif" font-size="10.00">GuiButton.h</text>
</a>
</g>
</g>
<!-- Node8&#45;&gt;Node11 -->
<g id="edge10" class="edge"><title>Node8&#45;&gt;Node11</title>
<path fill="none" stroke="midnightblue" d="M474.596,-392.083C481.227,-384.298 491.021,-372.801 499.058,-363.367"/>
<polygon fill="midnightblue" stroke="midnightblue" points="501.725,-365.633 505.545,-355.751 496.396,-361.094 501.725,-365.633"/>
</g>
<!-- Node39 -->
<g id="node39" class="node"><title>Node39</title>
<g id="a_node39"><a xlink:href="../../d4/d04/_gui_string_8h.html" target="_top" xlink:title=" ">
<polygon fill="white" stroke="black" points="1570.5,-336.5 1570.5,-355.5 1635.5,-355.5 1635.5,-336.5 1570.5,-336.5"/>
<text text-anchor="middle" x="1603" y="-343.5" font-family="Helvetica,sans-Serif" font-size="10.00">GuiString.h</text>
</a>
</g>
</g>
<!-- Node8&#45;&gt;Node39 -->
<g id="edge61" class="edge"><title>Node8&#45;&gt;Node39</title>
<path fill="none" stroke="midnightblue" d="M505.775,-399.157C678.774,-390.933 1379.56,-357.621 1560.3,-349.03"/>
<polygon fill="midnightblue" stroke="midnightblue" points="1560.65,-352.517 1570.48,-348.546 1560.32,-345.525 1560.65,-352.517"/>
</g>
<!-- Node10 -->
<g id="node10" class="node"><title>Node10</title>
<g id="a_node10"><a xlink:title=" ">
<polygon fill="white" stroke="#bfbfbf" points="1708.5,-0.5 1708.5,-19.5 1757.5,-19.5 1757.5,-0.5 1708.5,-0.5"/>
<text text-anchor="middle" x="1733" y="-7.5" font-family="Helvetica,sans-Serif" font-size="10.00">stdint.h</text>
</a>
</g>
</g>
<!-- Node9&#45;&gt;Node10 -->
<g id="edge9" class="edge"><title>Node9&#45;&gt;Node10</title>
<path fill="none" stroke="midnightblue" d="M347.454,-61.4252C368.222,-59.5572 394.522,-57.3792 418,-56 926.3,-26.1416 1546.38,-14.1632 1698.23,-11.5648"/>
<polygon fill="midnightblue" stroke="midnightblue" points="1698.4,-15.0625 1708.34,-11.3939 1698.29,-8.06346 1698.4,-15.0625"/>
</g>
<!-- Node12 -->
<g id="node12" class="node"><title>Node12</title>
<g id="a_node12"><a xlink:href="../../d1/d6c/_gui_sprite_8h.html" target="_top" xlink:title=" ">
<polygon fill="white" stroke="black" points="686.5,-280.5 686.5,-299.5 751.5,-299.5 751.5,-280.5 686.5,-280.5"/>
<text text-anchor="middle" x="719" y="-287.5" font-family="Helvetica,sans-Serif" font-size="10.00">GuiSprite.h</text>
</a>
</g>
</g>
<!-- Node11&#45;&gt;Node12 -->
<g id="edge11" class="edge"><title>Node11&#45;&gt;Node12</title>
<path fill="none" stroke="midnightblue" d="M545.641,-336.444C581.05,-327.162 637.709,-312.309 676.553,-302.127"/>
<polygon fill="midnightblue" stroke="midnightblue" points="677.726,-305.438 686.511,-299.516 675.951,-298.667 677.726,-305.438"/>
</g>
<!-- Node35 -->
<g id="node35" class="node"><title>Node35</title>
<g id="a_node35"><a xlink:href="../../d2/d94/_input_8h.html" target="_top" xlink:title=" ">
<polygon fill="white" stroke="black" points="490,-280.5 490,-299.5 536,-299.5 536,-280.5 490,-280.5"/>
<text text-anchor="middle" x="513" y="-287.5" font-family="Helvetica,sans-Serif" font-size="10.00">Input.h</text>
</a>
</g>
</g>
<!-- Node11&#45;&gt;Node35 -->
<g id="edge56" class="edge"><title>Node11&#45;&gt;Node35</title>
<path fill="none" stroke="midnightblue" d="M513,-336.083C513,-329.006 513,-318.861 513,-309.986"/>
<polygon fill="midnightblue" stroke="midnightblue" points="516.5,-309.751 513,-299.751 509.5,-309.751 516.5,-309.751"/>
</g>
<!-- Node13 -->
<g id="node13" class="node"><title>Node13</title>
<g id="a_node13"><a xlink:href="../../db/db1/_gui_base_8h.html" target="_top" xlink:title=" ">
<polygon fill="white" stroke="black" points="1151,-224.5 1151,-243.5 1213,-243.5 1213,-224.5 1151,-224.5"/>
<text text-anchor="middle" x="1182" y="-231.5" font-family="Helvetica,sans-Serif" font-size="10.00">GuiBase.h</text>
</a>
</g>
</g>
<!-- Node12&#45;&gt;Node13 -->
<g id="edge12" class="edge"><title>Node12&#45;&gt;Node13</title>
<path fill="none" stroke="midnightblue" d="M751.557,-285.203C833.81,-275.61 1049.87,-250.411 1140.77,-239.809"/>
<polygon fill="midnightblue" stroke="midnightblue" points="1141.18,-243.285 1150.7,-238.65 1140.36,-236.332 1141.18,-243.285"/>
</g>
<!-- Node25 -->
<g id="node25" class="node"><title>Node25</title>
<g id="a_node25"><a xlink:href="../../db/dc0/_quad_8h.html" target="_top" xlink:title=" ">
<polygon fill="white" stroke="black" points="695,-224.5 695,-243.5 743,-243.5 743,-224.5 695,-224.5"/>
<text text-anchor="middle" x="719" y="-231.5" font-family="Helvetica,sans-Serif" font-size="10.00">Quad.h</text>
</a>
</g>
</g>
<!-- Node12&#45;&gt;Node25 -->
<g id="edge33" class="edge"><title>Node12&#45;&gt;Node25</title>
<path fill="none" stroke="midnightblue" d="M719,-280.083C719,-273.006 719,-262.861 719,-253.986"/>
<polygon fill="midnightblue" stroke="midnightblue" points="722.5,-253.751 719,-243.751 715.5,-253.751 722.5,-253.751"/>
</g>
<!-- Node13&#45;&gt;Node10 -->
<g id="edge32" class="edge"><title>Node13&#45;&gt;Node10</title>
<path fill="none" stroke="midnightblue" d="M1213.03,-232.678C1321.95,-231.244 1682.16,-223.808 1718,-188 1760.32,-145.711 1747.11,-65.8658 1738.23,-29.6735"/>
<polygon fill="midnightblue" stroke="midnightblue" points="1741.5,-28.3431 1735.58,-19.5596 1734.73,-30.1206 1741.5,-28.3431"/>
</g>
<!-- Node14 -->
<g id="node14" class="node"><title>Node14</title>
<g id="a_node14"><a xlink:href="../../d8/d34/_shader_8h.html" target="_top" xlink:title=" ">
<polygon fill="white" stroke="black" points="792,-168.5 792,-187.5 848,-187.5 848,-168.5 792,-168.5"/>
<text text-anchor="middle" x="820" y="-175.5" font-family="Helvetica,sans-Serif" font-size="10.00">Shader.h</text>
</a>
</g>
</g>
<!-- Node13&#45;&gt;Node14 -->
<g id="edge13" class="edge"><title>Node13&#45;&gt;Node14</title>
<path fill="none" stroke="midnightblue" d="M1150.82,-228.349C1084.62,-218.474 930.197,-195.438 858.209,-184.7"/>
<polygon fill="midnightblue" stroke="midnightblue" points="858.613,-181.221 848.206,-183.208 857.58,-188.145 858.613,-181.221"/>
</g>
<!-- Node14&#45;&gt;Node5 -->
<g id="edge28" class="edge"><title>Node14&#45;&gt;Node5</title>
<path fill="none" stroke="midnightblue" d="M791.884,-176.06C742.863,-173.58 639.317,-164.583 559,-132 529.24,-119.927 499.408,-97.3974 481.321,-82.2968"/>
<polygon fill="midnightblue" stroke="midnightblue" points="483.313,-79.3954 473.437,-75.559 478.765,-84.7167 483.313,-79.3954"/>
</g>
<!-- Node14&#45;&gt;Node7 -->
<g id="edge30" class="edge"><title>Node14&#45;&gt;Node7</title>
<path fill="none" stroke="midnightblue" d="M848.275,-172.917C874.054,-167.743 911.455,-156.363 934,-132 945.643,-119.418 950.512,-100.201 952.547,-85.9212"/>
<polygon fill="midnightblue" stroke="midnightblue" points="956.051,-86.0669 953.645,-75.7489 949.092,-85.3151 956.051,-86.0669"/>
</g>
<!-- Node14&#45;&gt;Node9 -->
<g id="edge14" class="edge"><title>Node14&#45;&gt;Node9</title>
<path fill="none" stroke="midnightblue" d="M791.707,-174.837C688.528,-166.896 338.014,-139.423 329,-132 315.548,-120.922 311.304,-100.883 310.114,-85.9728"/>
<polygon fill="midnightblue" stroke="midnightblue" points="313.604,-85.6525 309.698,-75.8039 306.61,-85.9386 313.604,-85.6525"/>
</g>
<!-- Node15 -->
<g id="node15" class="node"><title>Node15</title>
<g id="a_node15"><a xlink:href="../../d0/d4b/_debug_8h.html" target="_top" xlink:title=" ">
<polygon fill="white" stroke="black" points="982.5,-112.5 982.5,-131.5 1035.5,-131.5 1035.5,-112.5 982.5,-112.5"/>
<text text-anchor="middle" x="1009" y="-119.5" font-family="Helvetica,sans-Serif" font-size="10.00">Debug.h</text>
</a>
</g>
</g>
<!-- Node14&#45;&gt;Node15 -->
<g id="edge15" class="edge"><title>Node14&#45;&gt;Node15</title>
<path fill="none" stroke="midnightblue" d="M848.295,-168.916C881.428,-159.449 936.382,-143.748 972.647,-133.386"/>
<polygon fill="midnightblue" stroke="midnightblue" points="973.693,-136.728 982.347,-130.615 971.77,-129.997 973.693,-136.728"/>
</g>
<!-- Node16 -->
<g id="node16" class="node"><title>Node16</title>
<g id="a_node16"><a xlink:href="../../d5/d31/_lights_8h.html" target="_top" xlink:title=" ">
<polygon fill="white" stroke="black" points="568.5,-112.5 568.5,-131.5 619.5,-131.5 619.5,-112.5 568.5,-112.5"/>
<text text-anchor="middle" x="594" y="-119.5" font-family="Helvetica,sans-Serif" font-size="10.00">Lights.h</text>
</a>
</g>
</g>
<!-- Node14&#45;&gt;Node16 -->
<g id="edge16" class="edge"><title>Node14&#45;&gt;Node16</title>
<path fill="none" stroke="midnightblue" d="M791.834,-170.27C750.778,-160.46 674.512,-142.237 629.614,-131.509"/>
<polygon fill="midnightblue" stroke="midnightblue" points="630.264,-128.066 619.724,-129.146 628.637,-134.875 630.264,-128.066"/>
</g>
<!-- Node17 -->
<g id="node17" class="node"><title>Node17</title>
<g id="a_node17"><a xlink:href="../../d3/d09/_material_8h.html" target="_top" xlink:title=" ">
<polygon fill="white" stroke="black" points="338.5,-112.5 338.5,-131.5 397.5,-131.5 397.5,-112.5 338.5,-112.5"/>
<text text-anchor="middle" x="368" y="-119.5" font-family="Helvetica,sans-Serif" font-size="10.00">Material.h</text>
</a>
</g>
</g>
<!-- Node14&#45;&gt;Node17 -->
<g id="edge18" class="edge"><title>Node14&#45;&gt;Node17</title>
<path fill="none" stroke="midnightblue" d="M791.725,-173.622C714.109,-164.349 497.559,-138.478 407.781,-127.753"/>
<polygon fill="midnightblue" stroke="midnightblue" points="408.074,-124.263 397.729,-126.552 407.243,-131.213 408.074,-124.263"/>
</g>
<!-- Node18 -->
<g id="node18" class="node"><title>Node18</title>
<g id="a_node18"><a xlink:href="../../d4/d4a/_settings_8h.html" target="_top" xlink:title=" ">
<polygon fill="white" stroke="black" points="714.5,-112.5 714.5,-131.5 775.5,-131.5 775.5,-112.5 714.5,-112.5"/>
<text text-anchor="middle" x="745" y="-119.5" font-family="Helvetica,sans-Serif" font-size="10.00">Settings.h</text>
</a>
</g>
</g>
<!-- Node14&#45;&gt;Node18 -->
<g id="edge21" class="edge"><title>Node14&#45;&gt;Node18</title>
<path fill="none" stroke="midnightblue" d="M807.95,-168.324C796.537,-160.107 779.169,-147.602 765.565,-137.807"/>
<polygon fill="midnightblue" stroke="midnightblue" points="767.43,-134.837 757.269,-131.834 763.34,-140.517 767.43,-134.837"/>
</g>
<!-- Node19 -->
<g id="node19" class="node"><title>Node19</title>
<g id="a_node19"><a xlink:href="../../d2/d06/_shaders_8h.html" target="_top" xlink:title=" ">
<polygon fill="white" stroke="black" points="864.5,-112.5 864.5,-131.5 925.5,-131.5 925.5,-112.5 864.5,-112.5"/>
<text text-anchor="middle" x="895" y="-119.5" font-family="Helvetica,sans-Serif" font-size="10.00">Shaders.h</text>
</a>
</g>
</g>
<!-- Node14&#45;&gt;Node19 -->
<g id="edge22" class="edge"><title>Node14&#45;&gt;Node19</title>
<path fill="none" stroke="midnightblue" d="M832.05,-168.324C843.463,-160.107 860.831,-147.602 874.435,-137.807"/>
<polygon fill="midnightblue" stroke="midnightblue" points="876.66,-140.517 882.731,-131.834 872.57,-134.837 876.66,-140.517"/>
</g>
<!-- Node20 -->
<g id="node20" class="node"><title>Node20</title>
<g id="a_node20"><a xlink:title=" ">
<polygon fill="white" stroke="#bfbfbf" points="848,-56.5 848,-75.5 908,-75.5 908,-56.5 848,-56.5"/>
<text text-anchor="middle" x="878" y="-63.5" font-family="Helvetica,sans-Serif" font-size="10.00">GL/glew.h</text>
</a>
</g>
</g>
<!-- Node14&#45;&gt;Node20 -->
<g id="edge25" class="edge"><title>Node14&#45;&gt;Node20</title>
<path fill="none" stroke="midnightblue" d="M791.702,-172.389C749.89,-164.357 679.189,-145.384 705,-112 713.219,-101.37 789.489,-84.5286 837.978,-74.7442"/>
<polygon fill="midnightblue" stroke="midnightblue" points="838.748,-78.1595 847.868,-72.7682 837.376,-71.2952 838.748,-78.1595"/>
</g>
<!-- Node21 -->
<g id="node21" class="node"><title>Node21</title>
<g id="a_node21"><a xlink:title=" ">
<polygon fill="white" stroke="#bfbfbf" points="1383,-56.5 1383,-75.5 1439,-75.5 1439,-56.5 1383,-56.5"/>
<text text-anchor="middle" x="1411" y="-63.5" font-family="Helvetica,sans-Serif" font-size="10.00">algorithm</text>
</a>
</g>
</g>
<!-- Node14&#45;&gt;Node21 -->
<g id="edge26" class="edge"><title>Node14&#45;&gt;Node21</title>
<path fill="none" stroke="midnightblue" d="M848.245,-174.062C904.595,-167.982 1034.86,-152.825 1143,-132 1179.41,-124.988 1187.97,-120.782 1224,-112 1275.45,-99.4578 1334.92,-85.1855 1372.73,-76.14"/>
<polygon fill="midnightblue" stroke="midnightblue" points="1373.88,-79.4631 1382.79,-73.7331 1372.25,-72.6551 1373.88,-79.4631"/>
</g>
<!-- Node22 -->
<g id="node22" class="node"><title>Node22</title>
<g id="a_node22"><a xlink:title=" ">
<polygon fill="white" stroke="#bfbfbf" points="1399.5,-112.5 1399.5,-131.5 1448.5,-131.5 1448.5,-112.5 1399.5,-112.5"/>
<text text-anchor="middle" x="1424" y="-119.5" font-family="Helvetica,sans-Serif" font-size="10.00">fstream</text>
</a>
</g>
</g>
<!-- Node14&#45;&gt;Node22 -->
<g id="edge27" class="edge"><title>Node14&#45;&gt;Node22</title>
<path fill="none" stroke="midnightblue" d="M848.158,-176.645C930.328,-175.216 1176.92,-168.144 1389.17,-132.028"/>
<polygon fill="midnightblue" stroke="midnightblue" points="1389.99,-135.438 1399.25,-130.286 1388.8,-128.54 1389.99,-135.438"/>
</g>
<!-- Node23 -->
<g id="node23" class="node"><title>Node23</title>
<g id="a_node23"><a xlink:title=" ">
<polygon fill="white" stroke="#bfbfbf" points="794,-112.5 794,-131.5 846,-131.5 846,-112.5 794,-112.5"/>
<text text-anchor="middle" x="820" y="-119.5" font-family="Helvetica,sans-Serif" font-size="10.00">sstream</text>
</a>
</g>
</g>
<!-- Node14&#45;&gt;Node23 -->
<g id="edge29" class="edge"><title>Node14&#45;&gt;Node23</title>
<path fill="none" stroke="midnightblue" d="M820,-168.083C820,-161.006 820,-150.861 820,-141.986"/>
<polygon fill="midnightblue" stroke="midnightblue" points="823.5,-141.751 820,-131.751 816.5,-141.751 823.5,-141.751"/>
</g>
<!-- Node24 -->
<g id="node24" class="node"><title>Node24</title>
<g id="a_node24"><a xlink:title=" ">
<polygon fill="white" stroke="#bfbfbf" points="1761,-56.5 1761,-75.5 1803,-75.5 1803,-56.5 1761,-56.5"/>
<text text-anchor="middle" x="1782" y="-63.5" font-family="Helvetica,sans-Serif" font-size="10.00">vector</text>
</a>
</g>
</g>
<!-- Node14&#45;&gt;Node24 -->
<g id="edge31" class="edge"><title>Node14&#45;&gt;Node24</title>
<path fill="none" stroke="midnightblue" d="M848.092,-174.479C910.993,-168.653 1067.86,-153.124 1198,-132 1241.45,-124.947 1251.46,-118.48 1295,-112 1465.85,-86.5737 1672.7,-73.1412 1750.44,-68.6968"/>
<polygon fill="midnightblue" stroke="midnightblue" points="1750.75,-72.1851 1760.54,-68.129 1750.36,-65.1961 1750.75,-72.1851"/>
</g>
<!-- Node16&#45;&gt;Node5 -->
<g id="edge17" class="edge"><title>Node16&#45;&gt;Node5</title>
<path fill="none" stroke="midnightblue" d="M573.401,-112.444C552.007,-103.557 518.319,-89.5632 493.976,-79.4514"/>
<polygon fill="midnightblue" stroke="midnightblue" points="495.08,-76.1203 484.503,-75.5164 492.395,-82.5848 495.08,-76.1203"/>
</g>
<!-- Node17&#45;&gt;Node5 -->
<g id="edge20" class="edge"><title>Node17&#45;&gt;Node5</title>
<path fill="none" stroke="midnightblue" d="M383.424,-112.324C398.54,-103.822 421.815,-90.7288 439.471,-80.7975"/>
<polygon fill="midnightblue" stroke="midnightblue" points="441.614,-83.6077 448.614,-75.6545 438.183,-77.5066 441.614,-83.6077"/>
</g>
<!-- Node17&#45;&gt;Node9 -->
<g id="edge19" class="edge"><title>Node17&#45;&gt;Node9</title>
<path fill="none" stroke="midnightblue" d="M358.681,-112.324C350.107,-104.341 337.188,-92.3128 326.812,-82.6529"/>
<polygon fill="midnightblue" stroke="midnightblue" points="329.192,-80.0865 319.488,-75.8339 324.422,-85.2098 329.192,-80.0865"/>
</g>
<!-- Node19&#45;&gt;Node7 -->
<g id="edge24" class="edge"><title>Node19&#45;&gt;Node7</title>
<path fill="none" stroke="midnightblue" d="M904.479,-112.324C913.201,-104.341 926.343,-92.3128 936.898,-82.6529"/>
<polygon fill="midnightblue" stroke="midnightblue" points="939.334,-85.1674 944.348,-75.8339 934.608,-80.0036 939.334,-85.1674"/>
</g>
<!-- Node19&#45;&gt;Node20 -->
<g id="edge23" class="edge"><title>Node19&#45;&gt;Node20</title>
<path fill="none" stroke="midnightblue" d="M892.193,-112.083C889.915,-104.849 886.629,-94.4087 883.792,-85.3968"/>
<polygon fill="midnightblue" stroke="midnightblue" points="887.096,-84.2385 880.755,-75.7511 880.419,-86.3406 887.096,-84.2385"/>
</g>
<!-- Node25&#45;&gt;Node3 -->
<g id="edge34" class="edge"><title>Node25&#45;&gt;Node3</title>
<path fill="none" stroke="midnightblue" d="M694.712,-227.877C687.723,-226.504 680.076,-225.097 673,-224 537.869,-203.043 499.941,-210.33 361.555,-188.116"/>
<polygon fill="midnightblue" stroke="midnightblue" points="361.848,-184.618 351.415,-186.465 360.723,-191.527 361.848,-184.618"/>
</g>
<!-- Node25&#45;&gt;Node14 -->
<g id="edge35" class="edge"><title>Node25&#45;&gt;Node14</title>
<path fill="none" stroke="midnightblue" d="M735.227,-224.324C751.351,-215.703 776.3,-202.364 794.964,-192.386"/>
<polygon fill="midnightblue" stroke="midnightblue" points="796.644,-195.456 803.813,-187.655 793.344,-189.283 796.644,-195.456"/>
</g>
<!-- Node25&#45;&gt;Node19 -->
<g id="edge36" class="edge"><title>Node25&#45;&gt;Node19</title>
<path fill="none" stroke="midnightblue" d="M743.183,-230.394C772.855,-226.102 823.354,-215.124 857,-188 872.068,-175.853 882.417,-156.014 888.466,-141.443"/>
<polygon fill="midnightblue" stroke="midnightblue" points="891.794,-142.54 892.117,-131.95 885.261,-140.028 891.794,-142.54"/>
</g>
<!-- Node25&#45;&gt;Node20 -->
<g id="edge53" class="edge"><title>Node25&#45;&gt;Node20</title>
<path fill="none" stroke="midnightblue" d="M716.576,-224.296C709.372,-198.048 689.014,-120.924 696,-112 704.799,-100.761 786.992,-83.7957 837.867,-74.2287"/>
<polygon fill="midnightblue" stroke="midnightblue" points="838.71,-77.6318 847.901,-72.361 837.43,-70.75 838.71,-77.6318"/>
</g>
<!-- Node26 -->
<g id="node26" class="node"><title>Node26</title>
<g id="a_node26"><a xlink:href="../../de/dbf/_texture_8h.html" target="_top" xlink:title=" ">
<polygon fill="white" stroke="black" points="1281.5,-168.5 1281.5,-187.5 1338.5,-187.5 1338.5,-168.5 1281.5,-168.5"/>
<text text-anchor="middle" x="1310" y="-175.5" font-family="Helvetica,sans-Serif" font-size="10.00">Texture.h</text>
</a>
</g>
</g>
<!-- Node25&#45;&gt;Node26 -->
<g id="edge37" class="edge"><title>Node25&#45;&gt;Node26</title>
<path fill="none" stroke="midnightblue" d="M743.27,-230.782C834.698,-222.429 1158.83,-192.812 1271.26,-182.54"/>
<polygon fill="midnightblue" stroke="midnightblue" points="1271.82,-186.003 1281.46,-181.607 1271.19,-179.032 1271.82,-186.003"/>
</g>
<!-- Node32 -->
<g id="node32" class="node"><title>Node32</title>
<g id="a_node32"><a xlink:href="../../db/d56/_transform_8h.html" target="_top" xlink:title=" ">
<polygon fill="white" stroke="black" points="623,-168.5 623,-187.5 691,-187.5 691,-168.5 623,-168.5"/>
<text text-anchor="middle" x="657" y="-175.5" font-family="Helvetica,sans-Serif" font-size="10.00">Transform.h</text>
</a>
</g>
</g>
<!-- Node25&#45;&gt;Node32 -->
<g id="edge51" class="edge"><title>Node25&#45;&gt;Node32</title>
<path fill="none" stroke="midnightblue" d="M709.039,-224.324C699.873,-216.341 686.063,-204.313 674.972,-194.653"/>
<polygon fill="midnightblue" stroke="midnightblue" points="676.982,-191.762 667.143,-187.834 672.385,-197.041 676.982,-191.762"/>
</g>
<!-- Node33 -->
<g id="node33" class="node"><title>Node33</title>
<g id="a_node33"><a xlink:title=" ">
<polygon fill="white" stroke="#bfbfbf" points="369,-168.5 369,-187.5 475,-187.5 475,-168.5 369,-168.5"/>
<text text-anchor="middle" x="422" y="-175.5" font-family="Helvetica,sans-Serif" font-size="10.00">glm/gtc/type_ptr.hpp</text>
</a>
</g>
</g>
<!-- Node25&#45;&gt;Node33 -->
<g id="edge54" class="edge"><title>Node25&#45;&gt;Node33</title>
<path fill="none" stroke="midnightblue" d="M694.663,-228.164C687.673,-226.795 680.038,-225.319 673,-224 607.459,-211.714 532.152,-198.307 481.259,-189.352"/>
<polygon fill="midnightblue" stroke="midnightblue" points="481.555,-185.85 471.1,-187.566 480.343,-192.745 481.555,-185.85"/>
</g>
<!-- Node34 -->
<g id="node34" class="node"><title>Node34</title>
<g id="a_node34"><a xlink:title=" ">
<polygon fill="white" stroke="#bfbfbf" points="493.5,-168.5 493.5,-187.5 604.5,-187.5 604.5,-168.5 493.5,-168.5"/>
<text text-anchor="middle" x="549" y="-175.5" font-family="Helvetica,sans-Serif" font-size="10.00">glm/gtx/transform.hpp</text>
</a>
</g>
</g>
<!-- Node25&#45;&gt;Node34 -->
<g id="edge55" class="edge"><title>Node25&#45;&gt;Node34</title>
<path fill="none" stroke="midnightblue" d="M694.643,-225.263C666.105,-216.198 618.536,-201.088 585.563,-190.614"/>
<polygon fill="midnightblue" stroke="midnightblue" points="586.426,-187.216 575.836,-187.524 584.307,-193.888 586.426,-187.216"/>
</g>
<!-- Node26&#45;&gt;Node7 -->
<g id="edge43" class="edge"><title>Node26&#45;&gt;Node7</title>
<path fill="none" stroke="midnightblue" d="M1295.25,-168.307C1271.12,-154.438 1221.32,-127.311 1176,-112 1109.57,-89.5569 1027.99,-76.5474 984.581,-70.7176"/>
<polygon fill="midnightblue" stroke="midnightblue" points="985.022,-67.2455 974.653,-69.4207 984.115,-74.1866 985.022,-67.2455"/>
</g>
<!-- Node26&#45;&gt;Node15 -->
<g id="edge44" class="edge"><title>Node26&#45;&gt;Node15</title>
<path fill="none" stroke="midnightblue" d="M1281.24,-172.856C1234.16,-165.914 1137.52,-150.998 1045.7,-132.005"/>
<polygon fill="midnightblue" stroke="midnightblue" points="1046.19,-128.532 1035.68,-129.913 1044.76,-135.384 1046.19,-128.532"/>
</g>
<!-- Node26&#45;&gt;Node20 -->
<g id="edge38" class="edge"><title>Node26&#45;&gt;Node20</title>
<path fill="none" stroke="midnightblue" d="M1281.32,-169.366C1253.7,-161.552 1211.06,-148.268 1176,-132 1160.44,-124.782 1159.09,-117.943 1143,-112 1050.47,-77.816 1021.08,-93.472 924,-76 922.078,-75.6541 920.112,-75.2939 918.127,-74.9252"/>
<polygon fill="midnightblue" stroke="midnightblue" points="918.64,-71.4601 908.163,-73.037 917.336,-78.3377 918.64,-71.4601"/>
</g>
<!-- Node26&#45;&gt;Node21 -->
<g id="edge41" class="edge"><title>Node26&#45;&gt;Node21</title>
<path fill="none" stroke="midnightblue" d="M1338.69,-177.123C1405.81,-176.736 1569.94,-171.667 1604,-132 1648.16,-80.5646 1517.9,-69.7143 1449.72,-67.508"/>
<polygon fill="midnightblue" stroke="midnightblue" points="1449.44,-63.9991 1439.35,-67.2232 1449.25,-70.9964 1449.44,-63.9991"/>
</g>
<!-- Node27 -->
<g id="node27" class="node"><title>Node27</title>
<g id="a_node27"><a xlink:title=" ">
<polygon fill="white" stroke="#bfbfbf" points="1519.5,-112.5 1519.5,-131.5 1594.5,-131.5 1594.5,-112.5 1519.5,-112.5"/>
<text text-anchor="middle" x="1557" y="-119.5" font-family="Helvetica,sans-Serif" font-size="10.00">SDL_image.h</text>
</a>
</g>
</g>
<!-- Node26&#45;&gt;Node27 -->
<g id="edge39" class="edge"><title>Node26&#45;&gt;Node27</title>
<path fill="none" stroke="midnightblue" d="M1338.82,-170.7C1380.61,-161.564 1458.54,-144.526 1509.06,-133.48"/>
<polygon fill="midnightblue" stroke="midnightblue" points="1510.07,-136.842 1519.1,-131.287 1508.58,-130.003 1510.07,-136.842"/>
</g>
<!-- Node28 -->
<g id="node28" class="node"><title>Node28</title>
<g id="a_node28"><a xlink:title=" ">
<polygon fill="white" stroke="#bfbfbf" points="1304.5,-112.5 1304.5,-131.5 1381.5,-131.5 1381.5,-112.5 1304.5,-112.5"/>
<text text-anchor="middle" x="1343" y="-119.5" font-family="Helvetica,sans-Serif" font-size="10.00">SDL_opengl.h</text>
</a>
</g>
</g>
<!-- Node26&#45;&gt;Node28 -->
<g id="edge40" class="edge"><title>Node26&#45;&gt;Node28</title>
<path fill="none" stroke="midnightblue" d="M1315.45,-168.083C1320.01,-160.613 1326.67,-149.724 1332.29,-140.52"/>
<polygon fill="midnightblue" stroke="midnightblue" points="1335.42,-142.109 1337.65,-131.751 1329.45,-138.459 1335.42,-142.109"/>
</g>
<!-- Node29 -->
<g id="node29" class="node"><title>Node29</title>
<g id="a_node29"><a xlink:title=" ">
<polygon fill="white" stroke="#bfbfbf" points="1466.5,-112.5 1466.5,-131.5 1501.5,-131.5 1501.5,-112.5 1466.5,-112.5"/>
<text text-anchor="middle" x="1484" y="-119.5" font-family="Helvetica,sans-Serif" font-size="10.00">map</text>
</a>
</g>
</g>
<!-- Node26&#45;&gt;Node29 -->
<g id="edge42" class="edge"><title>Node26&#45;&gt;Node29</title>
<path fill="none" stroke="midnightblue" d="M1338.75,-168.611C1366.72,-160.373 1410.63,-147.238 1456.83,-132.302"/>
<polygon fill="midnightblue" stroke="midnightblue" points="1457.98,-135.609 1466.41,-129.191 1455.82,-128.952 1457.98,-135.609"/>
</g>
<!-- Node30 -->
<g id="node30" class="node"><title>Node30</title>
<g id="a_node30"><a xlink:href="../../d7/d26/_helping_hand_8h.html" target="_top" xlink:title=" ">
<polygon fill="white" stroke="black" points="1054,-112.5 1054,-131.5 1134,-131.5 1134,-112.5 1054,-112.5"/>
<text text-anchor="middle" x="1094" y="-119.5" font-family="Helvetica,sans-Serif" font-size="10.00">HelpingHand.h</text>
</a>
</g>
</g>
<!-- Node26&#45;&gt;Node30 -->
<g id="edge45" class="edge"><title>Node26&#45;&gt;Node30</title>
<path fill="none" stroke="midnightblue" d="M1281.32,-169.829C1244.66,-160.666 1180.85,-144.712 1138.02,-134.005"/>
<polygon fill="midnightblue" stroke="midnightblue" points="1138.7,-130.567 1128.15,-131.537 1137,-137.358 1138.7,-130.567"/>
</g>
<!-- Node30&#45;&gt;Node4 -->
<g id="edge46" class="edge"><title>Node30&#45;&gt;Node4</title>
<path fill="none" stroke="midnightblue" d="M1053.93,-113.498C1050.57,-112.959 1047.23,-112.45 1044,-112 972.587,-102.05 773.118,-83.4915 663.86,-73.6022"/>
<polygon fill="midnightblue" stroke="midnightblue" points="664.172,-70.1163 653.897,-72.7019 663.542,-77.0879 664.172,-70.1163"/>
</g>
<!-- Node30&#45;&gt;Node5 -->
<g id="edge49" class="edge"><title>Node30&#45;&gt;Node5</title>
<path fill="none" stroke="midnightblue" d="M1053.94,-113.39C1050.59,-112.874 1047.24,-112.401 1044,-112 811.01,-83.1615 750.13,-103.686 517,-76 515.248,-75.7919 513.465,-75.5655 511.667,-75.3245"/>
<polygon fill="midnightblue" stroke="midnightblue" points="511.685,-71.7903 501.285,-73.8127 510.676,-78.7173 511.685,-71.7903"/>
</g>
<!-- Node30&#45;&gt;Node21 -->
<g id="edge47" class="edge"><title>Node30&#45;&gt;Node21</title>
<path fill="none" stroke="midnightblue" d="M1134.15,-114.161C1195.73,-103.671 1312.68,-83.7486 1372.96,-73.4794"/>
<polygon fill="midnightblue" stroke="midnightblue" points="1373.57,-76.9274 1382.84,-71.7977 1372.39,-70.0268 1373.57,-76.9274"/>
</g>
<!-- Node30&#45;&gt;Node24 -->
<g id="edge50" class="edge"><title>Node30&#45;&gt;Node24</title>
<path fill="none" stroke="midnightblue" d="M1134.22,-117.844C1259.11,-108.041 1638.59,-78.2557 1750.57,-69.4665"/>
<polygon fill="midnightblue" stroke="midnightblue" points="1751.16,-72.9317 1760.85,-68.6599 1750.61,-65.9532 1751.16,-72.9317"/>
</g>
<!-- Node31 -->
<g id="node31" class="node"><title>Node31</title>
<g id="a_node31"><a xlink:title=" ">
<polygon fill="white" stroke="#bfbfbf" points="700,-56.5 700,-75.5 816,-75.5 816,-56.5 700,-56.5"/>
<text text-anchor="middle" x="758" y="-63.5" font-family="Helvetica,sans-Serif" font-size="10.00">glm/gtc/quaternion.hpp</text>
</a>
</g>
</g>
<!-- Node30&#45;&gt;Node31 -->
<g id="edge48" class="edge"><title>Node30&#45;&gt;Node31</title>
<path fill="none" stroke="midnightblue" d="M1053.9,-113.701C1050.55,-113.117 1047.22,-112.543 1044,-112 968.956,-99.3438 882.636,-85.9173 824.63,-77.0588"/>
<polygon fill="midnightblue" stroke="midnightblue" points="824.909,-73.561 814.496,-75.5137 823.854,-80.4811 824.909,-73.561"/>
</g>
<!-- Node32&#45;&gt;Node31 -->
<g id="edge52" class="edge"><title>Node32&#45;&gt;Node31</title>
<path fill="none" stroke="midnightblue" d="M622.953,-168.829C586.776,-158.531 537.524,-138.874 559,-112 575.273,-91.6359 638.617,-79.8129 689.525,-73.4413"/>
<polygon fill="midnightblue" stroke="midnightblue" points="690.013,-76.908 699.524,-72.2388 689.177,-69.9581 690.013,-76.908"/>
</g>
<!-- Node35&#45;&gt;Node3 -->
<g id="edge57" class="edge"><title>Node35&#45;&gt;Node3</title>
<path fill="none" stroke="midnightblue" d="M519.484,-280.424C528.819,-266.958 543.513,-240.674 530,-224 483.369,-166.46 439.301,-200.971 361.221,-188.016"/>
<polygon fill="midnightblue" stroke="midnightblue" points="361.49,-184.505 351.013,-186.082 360.187,-191.382 361.49,-184.505"/>
</g>
<!-- Node36 -->
<g id="node36" class="node"><title>Node36</title>
<g id="a_node36"><a xlink:href="../../d9/db9/_unique_vectors_8h.html" target="_top" xlink:title=" ">
<polygon fill="white" stroke="black" points="432.5,-224.5 432.5,-243.5 521.5,-243.5 521.5,-224.5 432.5,-224.5"/>
<text text-anchor="middle" x="477" y="-231.5" font-family="Helvetica,sans-Serif" font-size="10.00">UniqueVectors.h</text>
</a>
</g>
</g>
<!-- Node35&#45;&gt;Node36 -->
<g id="edge58" class="edge"><title>Node35&#45;&gt;Node36</title>
<path fill="none" stroke="midnightblue" d="M507.055,-280.083C502.023,-272.534 494.663,-261.495 488.487,-252.23"/>
<polygon fill="midnightblue" stroke="midnightblue" points="491.293,-250.13 482.834,-243.751 485.469,-254.013 491.293,-250.13"/>
</g>
<!-- Node37 -->
<g id="node37" class="node"><title>Node37</title>
<g id="a_node37"><a xlink:title=" ">
<polygon fill="white" stroke="#bfbfbf" points="590,-224.5 590,-243.5 664,-243.5 664,-224.5 590,-224.5"/>
<text text-anchor="middle" x="627" y="-231.5" font-family="Helvetica,sans-Serif" font-size="10.00">glm/vec2.hpp</text>
</a>
</g>
</g>
<!-- Node35&#45;&gt;Node37 -->
<g id="edge59" class="edge"><title>Node35&#45;&gt;Node37</title>
<path fill="none" stroke="midnightblue" d="M531.064,-280.444C549.575,-271.675 578.581,-257.935 599.855,-247.858"/>
<polygon fill="midnightblue" stroke="midnightblue" points="601.482,-250.96 609.021,-243.516 598.485,-244.634 601.482,-250.96"/>
</g>
<!-- Node38 -->
<g id="node38" class="node"><title>Node38</title>
<g id="a_node38"><a xlink:title=" ">
<polygon fill="white" stroke="#bfbfbf" points="370,-224.5 370,-243.5 414,-243.5 414,-224.5 370,-224.5"/>
<text text-anchor="middle" x="392" y="-231.5" font-family="Helvetica,sans-Serif" font-size="10.00">SDL.h</text>
</a>
</g>
</g>
<!-- Node35&#45;&gt;Node38 -->
<g id="edge60" class="edge"><title>Node35&#45;&gt;Node38</title>
<path fill="none" stroke="midnightblue" d="M493.827,-280.444C474.091,-271.636 443.115,-257.812 420.507,-247.722"/>
<polygon fill="midnightblue" stroke="midnightblue" points="421.641,-244.396 411.083,-243.516 418.789,-250.788 421.641,-244.396"/>
</g>
<!-- Node39&#45;&gt;Node7 -->
<g id="edge75" class="edge"><title>Node39&#45;&gt;Node7</title>
<path fill="none" stroke="midnightblue" d="M1604.54,-336.286C1611.07,-297.987 1634.84,-145.05 1604,-112 1582.63,-89.0974 1111.45,-72.1333 984.996,-67.9815"/>
<polygon fill="midnightblue" stroke="midnightblue" points="984.946,-64.4781 974.837,-67.6513 984.718,-71.4745 984.946,-64.4781"/>
</g>
<!-- Node39&#45;&gt;Node13 -->
<g id="edge62" class="edge"><title>Node39&#45;&gt;Node13</title>
<path fill="none" stroke="midnightblue" d="M1570.32,-336.46C1494.46,-316.641 1306.6,-267.555 1223.11,-245.742"/>
<polygon fill="midnightblue" stroke="midnightblue" points="1223.79,-242.301 1213.23,-243.16 1222.02,-249.074 1223.79,-242.301"/>
</g>
<!-- Node39&#45;&gt;Node24 -->
<g id="edge76" class="edge"><title>Node39&#45;&gt;Node24</title>
<path fill="none" stroke="midnightblue" d="M1635.71,-339.225C1709.19,-325.321 1881,-287.229 1881,-235 1881,-235 1881,-235 1881,-177 1881,-133.183 1837.06,-98.9282 1807.73,-80.9413"/>
<polygon fill="midnightblue" stroke="midnightblue" points="1809.19,-77.7377 1798.79,-75.6816 1805.64,-83.7703 1809.19,-77.7377"/>
</g>
<!-- Node39&#45;&gt;Node37 -->
<g id="edge74" class="edge"><title>Node39&#45;&gt;Node37</title>
<path fill="none" stroke="midnightblue" d="M1570.38,-345.027C1415.38,-344.939 757.452,-342.071 677,-300 657.543,-289.825 643.383,-268.321 635.199,-252.829"/>
<polygon fill="midnightblue" stroke="midnightblue" points="638.255,-251.113 630.689,-243.697 631.979,-254.213 638.255,-251.113"/>
</g>
<!-- Node40 -->
<g id="node40" class="node"><title>Node40</title>
<g id="a_node40"><a xlink:href="../../d8/dc0/_gui_text_character_8h.html" target="_top" xlink:title=" ">
<polygon fill="white" stroke="black" points="1631.5,-280.5 1631.5,-299.5 1732.5,-299.5 1732.5,-280.5 1631.5,-280.5"/>
<text text-anchor="middle" x="1682" y="-287.5" font-family="Helvetica,sans-Serif" font-size="10.00">GuiTextCharacter.h</text>
</a>
</g>
</g>
<!-- Node39&#45;&gt;Node40 -->
<g id="edge63" class="edge"><title>Node39&#45;&gt;Node40</title>
<path fill="none" stroke="midnightblue" d="M1615.69,-336.324C1627.9,-327.979 1646.58,-315.212 1661,-305.352"/>
<polygon fill="midnightblue" stroke="midnightblue" points="1663.06,-308.187 1669.34,-299.655 1659.11,-302.408 1663.06,-308.187"/>
</g>
<!-- Node42 -->
<g id="node42" class="node"><title>Node42</title>
<g id="a_node42"><a xlink:href="../../d8/de2/_text_map_8h.html" target="_top" xlink:title=" ">
<polygon fill="white" stroke="black" points="1730,-224.5 1730,-243.5 1792,-243.5 1792,-224.5 1730,-224.5"/>
<text text-anchor="middle" x="1761" y="-231.5" font-family="Helvetica,sans-Serif" font-size="10.00">TextMap.h</text>
</a>
</g>
</g>
<!-- Node39&#45;&gt;Node42 -->
<g id="edge67" class="edge"><title>Node39&#45;&gt;Node42</title>
<path fill="none" stroke="midnightblue" d="M1635.64,-342.972C1667.08,-339.278 1713.89,-328.924 1742,-300 1753.9,-287.758 1758.41,-268.495 1760.09,-254.112"/>
<polygon fill="midnightblue" stroke="midnightblue" points="1763.6,-254.099 1760.91,-243.851 1756.62,-253.538 1763.6,-254.099"/>
</g>
<!-- Node40&#45;&gt;Node25 -->
<g id="edge66" class="edge"><title>Node40&#45;&gt;Node25</title>
<path fill="none" stroke="midnightblue" d="M1631.24,-286.154C1458.67,-276.477 897.286,-244.997 753.037,-236.909"/>
<polygon fill="midnightblue" stroke="midnightblue" points="753.184,-233.411 743.004,-236.346 752.792,-240.4 753.184,-233.411"/>
</g>
<!-- Node41 -->
<g id="node41" class="node"><title>Node41</title>
<g id="a_node41"><a xlink:href="../../d3/d67/_glyph_8h.html" target="_top" xlink:title=" ">
<polygon fill="white" stroke="black" points="1803,-168.5 1803,-187.5 1853,-187.5 1853,-168.5 1803,-168.5"/>
<text text-anchor="middle" x="1828" y="-175.5" font-family="Helvetica,sans-Serif" font-size="10.00">Glyph.h</text>
</a>
</g>
</g>
<!-- Node40&#45;&gt;Node41 -->
<g id="edge64" class="edge"><title>Node40&#45;&gt;Node41</title>
<path fill="none" stroke="midnightblue" d="M1729.18,-280.486C1753.25,-274.025 1781.48,-262.899 1801,-244 1813.87,-231.536 1820.86,-212.027 1824.47,-197.631"/>
<polygon fill="midnightblue" stroke="midnightblue" points="1827.9,-198.339 1826.63,-187.821 1821.06,-196.838 1827.9,-198.339"/>
</g>
<!-- Node41&#45;&gt;Node10 -->
<g id="edge65" class="edge"><title>Node41&#45;&gt;Node10</title>
<path fill="none" stroke="midnightblue" d="M1829.27,-168.49C1831.96,-147.406 1836.13,-91.8652 1812,-56 1801.49,-40.3829 1783.63,-29.5508 1767.55,-22.4346"/>
<polygon fill="midnightblue" stroke="midnightblue" points="1768.43,-19.0129 1757.85,-18.4744 1765.78,-25.4939 1768.43,-19.0129"/>
</g>
<!-- Node42&#45;&gt;Node24 -->
<g id="edge73" class="edge"><title>Node42&#45;&gt;Node24</title>
<path fill="none" stroke="midnightblue" d="M1762.13,-224.075C1765.43,-197.945 1775.14,-121.211 1779.65,-85.577"/>
<polygon fill="midnightblue" stroke="midnightblue" points="1783.13,-85.9283 1780.92,-75.5681 1776.19,-85.0497 1783.13,-85.9283"/>
</g>
<!-- Node42&#45;&gt;Node26 -->
<g id="edge72" class="edge"><title>Node42&#45;&gt;Node26</title>
<path fill="none" stroke="midnightblue" d="M1729.64,-229.246C1649.31,-219.627 1436.28,-194.12 1348.57,-183.618"/>
<polygon fill="midnightblue" stroke="midnightblue" points="1348.85,-180.127 1338.51,-182.413 1348.02,-187.078 1348.85,-180.127"/>
</g>
<!-- Node42&#45;&gt;Node41 -->
<g id="edge68" class="edge"><title>Node42&#45;&gt;Node41</title>
<path fill="none" stroke="midnightblue" d="M1771.76,-224.324C1781.77,-216.263 1796.89,-204.077 1808.93,-194.369"/>
<polygon fill="midnightblue" stroke="midnightblue" points="1811.45,-196.834 1817.04,-187.834 1807.06,-191.384 1811.45,-196.834"/>
</g>
<!-- Node43 -->
<g id="node43" class="node"><title>Node43</title>
<g id="a_node43"><a xlink:href="../../d7/dcf/_serialization_8h.html" target="_top" xlink:title=" ">
<polygon fill="white" stroke="black" points="1631,-168.5 1631,-187.5 1709,-187.5 1709,-168.5 1631,-168.5"/>
<text text-anchor="middle" x="1670" y="-175.5" font-family="Helvetica,sans-Serif" font-size="10.00">Serialization.h</text>
</a>
</g>
</g>
<!-- Node42&#45;&gt;Node43 -->
<g id="edge69" class="edge"><title>Node42&#45;&gt;Node43</title>
<path fill="none" stroke="midnightblue" d="M1746.38,-224.324C1732.05,-215.822 1709.99,-202.729 1693.25,-192.797"/>
<polygon fill="midnightblue" stroke="midnightblue" points="1694.97,-189.748 1684.58,-187.655 1691.4,-195.768 1694.97,-189.748"/>
</g>
<!-- Node43&#45;&gt;Node21 -->
<g id="edge70" class="edge"><title>Node43&#45;&gt;Node21</title>
<path fill="none" stroke="midnightblue" d="M1674.15,-168.244C1679.97,-154.531 1688.43,-127.915 1675,-112 1646.54,-78.2729 1515.1,-69.8211 1449.08,-67.7053"/>
<polygon fill="midnightblue" stroke="midnightblue" points="1449.16,-64.2064 1439.07,-67.4172 1448.96,-71.2035 1449.16,-64.2064"/>
</g>
<!-- Node43&#45;&gt;Node22 -->
<g id="edge71" class="edge"><title>Node43&#45;&gt;Node22</title>
<path fill="none" stroke="midnightblue" d="M1630.8,-169.285C1590.15,-161.15 1524.54,-147.647 1458.58,-132.046"/>
<polygon fill="midnightblue" stroke="midnightblue" points="1459.39,-128.64 1448.85,-129.729 1457.76,-135.45 1459.39,-128.64"/>
</g>
<!-- Node44&#45;&gt;Node9 -->
<g id="edge78" class="edge"><title>Node44&#45;&gt;Node9</title>
<path fill="none" stroke="midnightblue" d="M57.0822,-392.314C45.2999,-384.27 28.8066,-371.269 19,-356 2.73518,-330.675 0,-321.098 0,-291 0,-291 0,-291 0,-177 0,-121.918 176.029,-87.3879 262.794,-73.7137"/>
<polygon fill="midnightblue" stroke="midnightblue" points="263.567,-77.1359 272.915,-72.1495 262.497,-70.218 263.567,-77.1359"/>
</g>
<!-- Node45 -->
<g id="node45" class="node"><title>Node45</title>
<g id="a_node45"><a xlink:title=" ">
<polygon fill="white" stroke="#bfbfbf" points="28,-336.5 28,-355.5 114,-355.5 114,-336.5 28,-336.5"/>
<text text-anchor="middle" x="71" y="-343.5" font-family="Helvetica,sans-Serif" font-size="10.00">SDL_keycode.h</text>
</a>
</g>
</g>
<!-- Node44&#45;&gt;Node45 -->
<g id="edge79" class="edge"><title>Node44&#45;&gt;Node45</title>
<path fill="none" stroke="midnightblue" d="M71,-392.083C71,-385.006 71,-374.861 71,-365.986"/>
<polygon fill="midnightblue" stroke="midnightblue" points="74.5001,-365.751 71,-355.751 67.5001,-365.751 74.5001,-365.751"/>
</g>
</g>
</svg>
