<?xml version="1.0" encoding="UTF-8" standalone="no"?>
<!DOCTYPE svg PUBLIC "-//W3C//DTD SVG 1.1//EN"
 "http://www.w3.org/Graphics/SVG/1.1/DTD/svg11.dtd">
<!-- Generated by graphviz version 2.38.0 (20140413.2041)
 -->
<!-- Title: EntityWrapper::EntityVitals::checkForNulls Pages: 1 -->
<svg width="315pt" height="256pt"
 viewBox="0.00 0.00 315.00 256.00" xmlns="http://www.w3.org/2000/svg" xmlns:xlink="http://www.w3.org/1999/xlink">
<g id="graph0" class="graph" transform="scale(1 1) rotate(0) translate(4 252)">
<title>EntityWrapper::EntityVitals::checkForNulls</title>
<polygon fill="white" stroke="none" points="-4,4 -4,-252 311,-252 311,4 -4,4"/>
<!-- Node1 -->
<g id="node1" class="node"><title>Node1</title>
<g id="a_node1"><a xlink:title=" ">
<polygon fill="#bfbfbf" stroke="black" points="172,-109 172,-139 307,-139 307,-109 172,-109"/>
<text text-anchor="start" x="180" y="-127" font-family="Helvetica,sans-Serif" font-size="10.00">EntityWrapper::EntityVitals</text>
<text text-anchor="middle" x="239.5" y="-116" font-family="Helvetica,sans-Serif" font-size="10.00">::checkForNulls</text>
</a>
</g>
</g>
<!-- Node2 -->
<g id="node2" class="node"><title>Node2</title>
<g id="a_node2"><a xlink:href="../../d1/d45/class_light_test.html#acfa774548a0298d8240d5d73d20fe676" target="_top" xlink:title=" ">
<polygon fill="white" stroke="black" points="19,-228.5 19,-247.5 117,-247.5 117,-228.5 19,-228.5"/>
<text text-anchor="middle" x="68" y="-235.5" font-family="Helvetica,sans-Serif" font-size="10.00">LightTest::initialize</text>
</a>
</g>
</g>
<!-- Node1&#45;&gt;Node2 -->
<g id="edge1" class="edge"><title>Node1&#45;&gt;Node2</title>
<path fill="none" stroke="midnightblue" d="M219.572,-146.919C200.568,-168.502 169.387,-200.242 136,-219 129.148,-222.849 121.457,-225.969 113.793,-228.481"/>
<polygon fill="midnightblue" stroke="midnightblue" points="222.356,-149.05 226.238,-139.192 217.056,-144.477 222.356,-149.05"/>
</g>
<!-- Node3 -->
<g id="node3" class="node"><title>Node3</title>
<g id="a_node3"><a xlink:href="../../d7/dbc/class_particle_test.html#a2c80205ed7aa29e3cb9062ad803f4485" target="_top" xlink:title=" ">
<polygon fill="white" stroke="black" points="13,-190.5 13,-209.5 123,-209.5 123,-190.5 13,-190.5"/>
<text text-anchor="middle" x="68" y="-197.5" font-family="Helvetica,sans-Serif" font-size="10.00">ParticleTest::initialize</text>
</a>
</g>
</g>
<!-- Node1&#45;&gt;Node3 -->
<g id="edge2" class="edge"><title>Node1&#45;&gt;Node3</title>
<path fill="none" stroke="midnightblue" d="M206.265,-144.463C186.544,-156.331 160.478,-170.883 136,-181 127.284,-184.602 117.66,-187.773 108.49,-190.441"/>
<polygon fill="midnightblue" stroke="midnightblue" points="208.137,-147.421 214.851,-139.224 204.491,-141.445 208.137,-147.421"/>
</g>
<!-- Node4 -->
<g id="node4" class="node"><title>Node4</title>
<g id="a_node4"><a xlink:href="../../d8/d53/class_player.html#a74539e4ea62aea94ea420052bac78292" target="_top" xlink:title=" ">
<polygon fill="white" stroke="black" points="25,-152.5 25,-171.5 111,-171.5 111,-152.5 25,-152.5"/>
<text text-anchor="middle" x="68" y="-159.5" font-family="Helvetica,sans-Serif" font-size="10.00">Player::initialize</text>
</a>
</g>
</g>
<!-- Node1&#45;&gt;Node4 -->
<g id="edge3" class="edge"><title>Node1&#45;&gt;Node4</title>
<path fill="none" stroke="midnightblue" d="M161.855,-141.183C144.506,-145.072 126.699,-149.065 111.379,-152.499"/>
<polygon fill="midnightblue" stroke="midnightblue" points="163.003,-144.512 171.996,-138.91 161.472,-137.682 163.003,-144.512"/>
</g>
<!-- Node5 -->
<g id="node5" class="node"><title>Node5</title>
<g id="a_node5"><a xlink:href="../../db/dd3/class_player_test_object.html#aac17d3bdbe3a909a7a873551fe90b6bb" target="_top" xlink:title=" ">
<polygon fill="white" stroke="black" points="1.5,-114.5 1.5,-133.5 134.5,-133.5 134.5,-114.5 1.5,-114.5"/>
<text text-anchor="middle" x="68" y="-121.5" font-family="Helvetica,sans-Serif" font-size="10.00">PlayerTestObject::initialize</text>
</a>
</g>
</g>
<!-- Node1&#45;&gt;Node5 -->
<g id="edge4" class="edge"><title>Node1&#45;&gt;Node5</title>
<path fill="none" stroke="midnightblue" d="M161.855,-124C152.808,-124 143.636,-124 134.757,-124"/>
<polygon fill="midnightblue" stroke="midnightblue" points="161.996,-127.5 171.996,-124 161.996,-120.5 161.996,-127.5"/>
</g>
<!-- Node6 -->
<g id="node6" class="node"><title>Node6</title>
<g id="a_node6"><a xlink:href="../../da/d1b/class_enemy_test_object.html#a360c36ab9698fba8c384a6aa7816a7a2" target="_top" xlink:title=" ">
<polygon fill="white" stroke="black" points="0,-76.5 0,-95.5 136,-95.5 136,-76.5 0,-76.5"/>
<text text-anchor="middle" x="68" y="-83.5" font-family="Helvetica,sans-Serif" font-size="10.00">EnemyTestObject::initialize</text>
</a>
</g>
</g>
<!-- Node1&#45;&gt;Node6 -->
<g id="edge5" class="edge"><title>Node1&#45;&gt;Node6</title>
<path fill="none" stroke="midnightblue" d="M161.855,-106.817C144.506,-102.928 126.699,-98.9355 111.379,-95.5009"/>
<polygon fill="midnightblue" stroke="midnightblue" points="161.472,-110.318 171.996,-109.09 163.003,-103.488 161.472,-110.318"/>
</g>
<!-- Node7 -->
<g id="node7" class="node"><title>Node7</title>
<g id="a_node7"><a xlink:href="../../de/d20/class_cube_trigger.html#acd67037d7ab9aca5a6880824644f1cea" target="_top" xlink:title=" ">
<polygon fill="white" stroke="black" points="13,-38.5 13,-57.5 123,-57.5 123,-38.5 13,-38.5"/>
<text text-anchor="middle" x="68" y="-45.5" font-family="Helvetica,sans-Serif" font-size="10.00">CubeTrigger::initialize</text>
</a>
</g>
</g>
<!-- Node1&#45;&gt;Node7 -->
<g id="edge6" class="edge"><title>Node1&#45;&gt;Node7</title>
<path fill="none" stroke="midnightblue" d="M206.265,-103.537C186.544,-91.6689 160.478,-77.1167 136,-67 127.284,-63.3978 117.66,-60.2269 108.49,-57.5588"/>
<polygon fill="midnightblue" stroke="midnightblue" points="204.491,-106.555 214.851,-108.776 208.137,-100.579 204.491,-106.555"/>
</g>
<!-- Node8 -->
<g id="node8" class="node"><title>Node8</title>
<g id="a_node8"><a xlink:href="../../da/d3c/class_floor_object.html#a5f324e5913659265a3ac615c8888c524" target="_top" xlink:title=" ">
<polygon fill="white" stroke="black" points="14,-0.5 14,-19.5 122,-19.5 122,-0.5 14,-0.5"/>
<text text-anchor="middle" x="68" y="-7.5" font-family="Helvetica,sans-Serif" font-size="10.00">FloorObject::initialize</text>
</a>
</g>
</g>
<!-- Node1&#45;&gt;Node8 -->
<g id="edge7" class="edge"><title>Node1&#45;&gt;Node8</title>
<path fill="none" stroke="midnightblue" d="M219.572,-101.081C200.568,-79.4979 169.387,-47.758 136,-29 129.148,-25.1505 121.457,-22.031 113.793,-19.5189"/>
<polygon fill="midnightblue" stroke="midnightblue" points="217.056,-103.523 226.238,-108.808 222.356,-98.9502 217.056,-103.523"/>
</g>
</g>
</svg>
