<?xml version="1.0" encoding="UTF-8" standalone="no"?>
<!DOCTYPE svg PUBLIC "-//W3C//DTD SVG 1.1//EN"
 "http://www.w3.org/Graphics/SVG/1.1/DTD/svg11.dtd">
<!-- Generated by graphviz version 2.38.0 (20140413.2041)
 -->
<!-- Title: src/Texture.h Pages: 1 -->
<svg width="746pt" height="140pt"
 viewBox="0.00 0.00 746.00 140.00" xmlns="http://www.w3.org/2000/svg" xmlns:xlink="http://www.w3.org/1999/xlink">
<g id="graph0" class="graph" transform="scale(1 1) rotate(0) translate(4 136)">
<title>src/Texture.h</title>
<polygon fill="white" stroke="none" points="-4,4 -4,-136 742,-136 742,4 -4,4"/>
<!-- Node1 -->
<g id="node1" class="node"><title>Node1</title>
<g id="a_node1"><a xlink:title=" ">
<polygon fill="#bfbfbf" stroke="black" points="263,-112.5 263,-131.5 337,-131.5 337,-112.5 263,-112.5"/>
<text text-anchor="middle" x="300" y="-119.5" font-family="Helvetica,sans-Serif" font-size="10.00">src/Texture.h</text>
</a>
</g>
</g>
<!-- Node2 -->
<g id="node2" class="node"><title>Node2</title>
<g id="a_node2"><a xlink:title=" ">
<polygon fill="white" stroke="#bfbfbf" points="0,-56.5 0,-75.5 60,-75.5 60,-56.5 0,-56.5"/>
<text text-anchor="middle" x="30" y="-63.5" font-family="Helvetica,sans-Serif" font-size="10.00">GL/glew.h</text>
</a>
</g>
</g>
<!-- Node1&#45;&gt;Node2 -->
<g id="edge1" class="edge"><title>Node1&#45;&gt;Node2</title>
<path fill="none" stroke="midnightblue" d="M262.888,-114.071C217.37,-105.497 137.888,-90.2756 70,-76 69.8999,-75.9789 69.7996,-75.9578 69.6992,-75.9367"/>
<polygon fill="midnightblue" stroke="midnightblue" points="70.6341,-72.5579 60.1211,-73.8725 69.1593,-79.4008 70.6341,-72.5579"/>
</g>
<!-- Node3 -->
<g id="node3" class="node"><title>Node3</title>
<g id="a_node3"><a xlink:title=" ">
<polygon fill="white" stroke="#bfbfbf" points="78.5,-56.5 78.5,-75.5 153.5,-75.5 153.5,-56.5 78.5,-56.5"/>
<text text-anchor="middle" x="116" y="-63.5" font-family="Helvetica,sans-Serif" font-size="10.00">SDL_image.h</text>
</a>
</g>
</g>
<!-- Node1&#45;&gt;Node3 -->
<g id="edge2" class="edge"><title>Node1&#45;&gt;Node3</title>
<path fill="none" stroke="midnightblue" d="M270.845,-112.444C239.487,-103.241 189.469,-88.5617 154.803,-78.3879"/>
<polygon fill="midnightblue" stroke="midnightblue" points="155.6,-74.9742 145.019,-75.5164 153.629,-81.6909 155.6,-74.9742"/>
</g>
<!-- Node4 -->
<g id="node4" class="node"><title>Node4</title>
<g id="a_node4"><a xlink:title=" ">
<polygon fill="white" stroke="#bfbfbf" points="171.5,-56.5 171.5,-75.5 248.5,-75.5 248.5,-56.5 171.5,-56.5"/>
<text text-anchor="middle" x="210" y="-63.5" font-family="Helvetica,sans-Serif" font-size="10.00">SDL_opengl.h</text>
</a>
</g>
</g>
<!-- Node1&#45;&gt;Node4 -->
<g id="edge3" class="edge"><title>Node1&#45;&gt;Node4</title>
<path fill="none" stroke="midnightblue" d="M285.54,-112.324C271.5,-103.9 249.952,-90.9709 233.457,-81.0741"/>
<polygon fill="midnightblue" stroke="midnightblue" points="234.8,-77.7983 224.424,-75.6545 231.198,-83.8007 234.8,-77.7983"/>
</g>
<!-- Node5 -->
<g id="node5" class="node"><title>Node5</title>
<g id="a_node5"><a xlink:title=" ">
<polygon fill="white" stroke="#bfbfbf" points="249,-0.5 249,-19.5 305,-19.5 305,-0.5 249,-0.5"/>
<text text-anchor="middle" x="277" y="-7.5" font-family="Helvetica,sans-Serif" font-size="10.00">algorithm</text>
</a>
</g>
</g>
<!-- Node1&#45;&gt;Node5 -->
<g id="edge4" class="edge"><title>Node1&#45;&gt;Node5</title>
<path fill="none" stroke="midnightblue" d="M298.195,-112.368C294.484,-94.617 285.921,-53.6664 280.889,-29.5974"/>
<polygon fill="midnightblue" stroke="midnightblue" points="284.269,-28.6634 278.796,-19.5914 277.417,-30.0961 284.269,-28.6634"/>
</g>
<!-- Node6 -->
<g id="node6" class="node"><title>Node6</title>
<g id="a_node6"><a xlink:title=" ">
<polygon fill="white" stroke="#bfbfbf" points="305.5,-56.5 305.5,-75.5 340.5,-75.5 340.5,-56.5 305.5,-56.5"/>
<text text-anchor="middle" x="323" y="-63.5" font-family="Helvetica,sans-Serif" font-size="10.00">map</text>
</a>
</g>
</g>
<!-- Node1&#45;&gt;Node6 -->
<g id="edge5" class="edge"><title>Node1&#45;&gt;Node6</title>
<path fill="none" stroke="midnightblue" d="M303.798,-112.083C306.913,-104.77 311.423,-94.1814 315.289,-85.1034"/>
<polygon fill="midnightblue" stroke="midnightblue" points="318.574,-86.3229 319.273,-75.7511 312.134,-83.5798 318.574,-86.3229"/>
</g>
<!-- Node7 -->
<g id="node7" class="node"><title>Node7</title>
<g id="a_node7"><a xlink:title=" ">
<polygon fill="white" stroke="#bfbfbf" points="358.5,-56.5 358.5,-75.5 399.5,-75.5 399.5,-56.5 358.5,-56.5"/>
<text text-anchor="middle" x="379" y="-63.5" font-family="Helvetica,sans-Serif" font-size="10.00">string</text>
</a>
</g>
</g>
<!-- Node1&#45;&gt;Node7 -->
<g id="edge6" class="edge"><title>Node1&#45;&gt;Node7</title>
<path fill="none" stroke="midnightblue" d="M312.693,-112.324C324.901,-103.979 343.578,-91.2122 358.003,-81.3524"/>
<polygon fill="midnightblue" stroke="midnightblue" points="360.058,-84.1871 366.339,-75.6545 356.108,-78.4082 360.058,-84.1871"/>
</g>
<!-- Node8 -->
<g id="node8" class="node"><title>Node8</title>
<g id="a_node8"><a xlink:href="../../d0/d4b/_debug_8h.html" target="_top" xlink:title=" ">
<polygon fill="white" stroke="black" points="417.5,-56.5 417.5,-75.5 470.5,-75.5 470.5,-56.5 417.5,-56.5"/>
<text text-anchor="middle" x="444" y="-63.5" font-family="Helvetica,sans-Serif" font-size="10.00">Debug.h</text>
</a>
</g>
</g>
<!-- Node1&#45;&gt;Node8 -->
<g id="edge7" class="edge"><title>Node1&#45;&gt;Node8</title>
<path fill="none" stroke="midnightblue" d="M322.817,-112.444C346.832,-103.438 384.829,-89.1891 411.869,-79.049"/>
<polygon fill="midnightblue" stroke="midnightblue" points="413.155,-82.3049 421.29,-75.5164 410.697,-75.7506 413.155,-82.3049"/>
</g>
<!-- Node9 -->
<g id="node9" class="node"><title>Node9</title>
<g id="a_node9"><a xlink:href="../../d7/d26/_helping_hand_8h.html" target="_top" xlink:title=" ">
<polygon fill="white" stroke="black" points="489,-56.5 489,-75.5 569,-75.5 569,-56.5 489,-56.5"/>
<text text-anchor="middle" x="529" y="-63.5" font-family="Helvetica,sans-Serif" font-size="10.00">HelpingHand.h</text>
</a>
</g>
</g>
<!-- Node1&#45;&gt;Node9 -->
<g id="edge8" class="edge"><title>Node1&#45;&gt;Node9</title>
<path fill="none" stroke="midnightblue" d="M336.286,-112.444C375.983,-103.083 439.707,-88.0561 482.912,-77.868"/>
<polygon fill="midnightblue" stroke="midnightblue" points="483.954,-81.2182 492.884,-75.5164 482.348,-74.4051 483.954,-81.2182"/>
</g>
<!-- Node9&#45;&gt;Node5 -->
<g id="edge10" class="edge"><title>Node9&#45;&gt;Node5</title>
<path fill="none" stroke="midnightblue" d="M488.91,-56.7619C446.059,-47.9025 376.155,-33.2942 316,-20 315.669,-19.9269 315.337,-19.8533 315.003,-19.7793"/>
<polygon fill="midnightblue" stroke="midnightblue" points="315.629,-16.3328 305.105,-17.5514 314.092,-23.1619 315.629,-16.3328"/>
</g>
<!-- Node10 -->
<g id="node10" class="node"><title>Node10</title>
<g id="a_node10"><a xlink:title=" ">
<polygon fill="white" stroke="#bfbfbf" points="324.5,-0.5 324.5,-19.5 451.5,-19.5 451.5,-0.5 324.5,-0.5"/>
<text text-anchor="middle" x="388" y="-7.5" font-family="Helvetica,sans-Serif" font-size="10.00">LinearMath/btTransform.h</text>
</a>
</g>
</g>
<!-- Node9&#45;&gt;Node10 -->
<g id="edge9" class="edge"><title>Node9&#45;&gt;Node10</title>
<path fill="none" stroke="midnightblue" d="M506.658,-56.4435C483.247,-47.4776 446.264,-33.314 419.81,-23.1827"/>
<polygon fill="midnightblue" stroke="midnightblue" points="420.828,-19.8245 410.237,-19.5164 418.324,-26.3615 420.828,-19.8245"/>
</g>
<!-- Node11 -->
<g id="node11" class="node"><title>Node11</title>
<g id="a_node11"><a xlink:title=" ">
<polygon fill="white" stroke="#bfbfbf" points="470,-0.5 470,-19.5 586,-19.5 586,-0.5 470,-0.5"/>
<text text-anchor="middle" x="528" y="-7.5" font-family="Helvetica,sans-Serif" font-size="10.00">glm/gtc/quaternion.hpp</text>
</a>
</g>
</g>
<!-- Node9&#45;&gt;Node11 -->
<g id="edge11" class="edge"><title>Node9&#45;&gt;Node11</title>
<path fill="none" stroke="midnightblue" d="M528.835,-56.083C528.704,-49.0059 528.516,-38.8611 528.352,-29.9865"/>
<polygon fill="midnightblue" stroke="midnightblue" points="531.847,-29.6845 528.162,-19.7511 524.848,-29.8142 531.847,-29.6845"/>
</g>
<!-- Node12 -->
<g id="node12" class="node"><title>Node12</title>
<g id="a_node12"><a xlink:title=" ">
<polygon fill="white" stroke="#bfbfbf" points="604,-0.5 604,-19.5 678,-19.5 678,-0.5 604,-0.5"/>
<text text-anchor="middle" x="641" y="-7.5" font-family="Helvetica,sans-Serif" font-size="10.00">glm/vec3.hpp</text>
</a>
</g>
</g>
<!-- Node9&#45;&gt;Node12 -->
<g id="edge12" class="edge"><title>Node9&#45;&gt;Node12</title>
<path fill="none" stroke="midnightblue" d="M546.995,-56.324C565.038,-47.6247 593.047,-34.1202 613.803,-24.113"/>
<polygon fill="midnightblue" stroke="midnightblue" points="615.562,-27.1502 623.05,-19.6545 612.522,-20.8449 615.562,-27.1502"/>
</g>
<!-- Node13 -->
<g id="node13" class="node"><title>Node13</title>
<g id="a_node13"><a xlink:title=" ">
<polygon fill="white" stroke="#bfbfbf" points="696,-0.5 696,-19.5 738,-19.5 738,-0.5 696,-0.5"/>
<text text-anchor="middle" x="717" y="-7.5" font-family="Helvetica,sans-Serif" font-size="10.00">vector</text>
</a>
</g>
</g>
<!-- Node9&#45;&gt;Node13 -->
<g id="edge13" class="edge"><title>Node9&#45;&gt;Node13</title>
<path fill="none" stroke="midnightblue" d="M559.326,-56.4988C589.233,-48.0851 636.489,-34.7113 686.09,-20.2392"/>
<polygon fill="midnightblue" stroke="midnightblue" points="687.089,-23.5936 695.706,-17.4284 685.125,-16.8748 687.089,-23.5936"/>
</g>
</g>
</svg>
