<?xml version="1.0" encoding="UTF-8" standalone="no"?>
<!DOCTYPE svg PUBLIC "-//W3C//DTD SVG 1.1//EN"
 "http://www.w3.org/Graphics/SVG/1.1/DTD/svg11.dtd">
<!-- Generated by graphviz version 2.38.0 (20140413.2041)
 -->
<!-- Title: DisplayStatistics Pages: 1 -->
<svg width="416pt" height="219pt"
 viewBox="0.00 0.00 415.50 219.00" xmlns="http://www.w3.org/2000/svg" xmlns:xlink="http://www.w3.org/1999/xlink">
<g id="graph0" class="graph" transform="scale(1 1) rotate(0) translate(4 215)">
<title>DisplayStatistics</title>
<polygon fill="white" stroke="none" points="-4,4 -4,-215 411.5,-215 411.5,4 -4,4"/>
<!-- Node1 -->
<g id="node1" class="node"><title>Node1</title>
<g id="a_node1"><a xlink:title=" ">
<polygon fill="#bfbfbf" stroke="black" points="135.5,-0.5 135.5,-19.5 225.5,-19.5 225.5,-0.5 135.5,-0.5"/>
<text text-anchor="middle" x="180.5" y="-7.5" font-family="Helvetica,sans-Serif" font-size="10.00">DisplayStatistics</text>
</a>
</g>
</g>
<!-- Node2 -->
<g id="node2" class="node"><title>Node2</title>
<g id="a_node2"><a xlink:href="../../d2/d00/class_component.html" target="_top" xlink:title=" ">
<polygon fill="white" stroke="black" points="16.5,-67.5 16.5,-86.5 174.5,-86.5 174.5,-67.5 16.5,-67.5"/>
<text text-anchor="middle" x="95.5" y="-74.5" font-family="Helvetica,sans-Serif" font-size="10.00">Component&lt; DisplayStatistics &gt;</text>
</a>
</g>
</g>
<!-- Node2&#45;&gt;Node1 -->
<g id="edge1" class="edge"><title>Node2&#45;&gt;Node1</title>
<path fill="none" stroke="midnightblue" d="M115.027,-61.0678C131.805,-48.2376 155.412,-30.1853 169.218,-19.6273"/>
<polygon fill="midnightblue" stroke="midnightblue" points="112.781,-58.379 106.963,-67.2338 117.033,-63.9395 112.781,-58.379"/>
</g>
<!-- Node3 -->
<g id="node3" class="node"><title>Node3</title>
<g id="a_node3"><a xlink:href="../../d5/d79/class_component_interface.html" target="_top" xlink:title=" ">
<polygon fill="white" stroke="black" points="0,-191.5 0,-210.5 103,-210.5 103,-191.5 0,-191.5"/>
<text text-anchor="middle" x="51.5" y="-198.5" font-family="Helvetica,sans-Serif" font-size="10.00">ComponentInterface</text>
</a>
</g>
</g>
<!-- Node3&#45;&gt;Node2 -->
<g id="edge2" class="edge"><title>Node3&#45;&gt;Node2</title>
<path fill="none" stroke="midnightblue" d="M45.9053,-181.084C42.8856,-167.55 40.8163,-149.127 46.5,-134 53.9518,-114.167 71.9656,-96.7628 83.9506,-86.8148"/>
<polygon fill="midnightblue" stroke="midnightblue" points="42.6117,-182.326 48.516,-191.123 49.3863,-180.564 42.6117,-182.326"/>
</g>
<!-- Node4 -->
<g id="node4" class="node"><title>Node4</title>
<g id="a_node4"><a xlink:href="../../d2/d00/class_component.html" target="_top" xlink:title=" ">
<polygon fill="white" stroke="black" points="56,-134.5 56,-153.5 145,-153.5 145,-134.5 56,-134.5"/>
<text text-anchor="middle" x="100.5" y="-141.5" font-family="Helvetica,sans-Serif" font-size="10.00">Component&lt; T &gt;</text>
</a>
</g>
</g>
<!-- Node3&#45;&gt;Node4 -->
<g id="edge4" class="edge"><title>Node3&#45;&gt;Node4</title>
<path fill="none" stroke="midnightblue" d="M65.9077,-183.828C74.682,-173.979 85.549,-161.782 92.7358,-153.715"/>
<polygon fill="midnightblue" stroke="midnightblue" points="63.195,-181.611 59.1563,-191.406 68.4217,-186.268 63.195,-181.611"/>
</g>
<!-- Node4&#45;&gt;Node2 -->
<g id="edge3" class="edge"><title>Node4&#45;&gt;Node2</title>
<path fill="none" stroke="orange" stroke-dasharray="5,2" d="M97.3727,-123.859C97.0276,-121.224 96.7216,-118.549 96.5,-116 95.6314,-106.006 95.4418,-94.4837 95.431,-86.7709"/>
<polygon fill="orange" stroke="orange" points="93.9534,-124.66 98.8939,-134.032 100.876,-123.624 93.9534,-124.66"/>
<text text-anchor="middle" x="144" y="-108" font-family="Helvetica,sans-Serif" font-size="10.00"> &lt; DisplayStatistics &gt;</text>
</g>
<!-- Node5 -->
<g id="node5" class="node"><title>Node5</title>
<g id="a_node5"><a xlink:href="../../dd/df5/class_gui_string.html" target="_top" xlink:title=" ">
<polygon fill="white" stroke="black" points="210,-67.5 210,-86.5 267,-86.5 267,-67.5 210,-67.5"/>
<text text-anchor="middle" x="238.5" y="-74.5" font-family="Helvetica,sans-Serif" font-size="10.00">GuiString</text>
</a>
</g>
</g>
<!-- Node5&#45;&gt;Node1 -->
<g id="edge5" class="edge"><title>Node5&#45;&gt;Node1</title>
<path fill="none" stroke="#9a32cd" stroke-dasharray="5,2" d="M223.897,-59.6348C212.554,-46.9228 197.273,-29.7978 188.198,-19.6273"/>
<polygon fill="#9a32cd" stroke="#9a32cd" points="221.408,-62.1026 230.678,-67.2338 226.631,-57.4421 221.408,-62.1026"/>
<text text-anchor="middle" x="234.5" y="-41" font-family="Helvetica,sans-Serif" font-size="10.00"> guiString</text>
</g>
<!-- Node6 -->
<g id="node6" class="node"><title>Node6</title>
<g id="a_node6"><a xlink:href="../../d1/d39/class_gui_base.html" target="_top" xlink:title=" ">
<polygon fill="white" stroke="black" points="173.5,-134.5 173.5,-153.5 227.5,-153.5 227.5,-134.5 173.5,-134.5"/>
<text text-anchor="middle" x="200.5" y="-141.5" font-family="Helvetica,sans-Serif" font-size="10.00">GuiBase</text>
</a>
</g>
</g>
<!-- Node6&#45;&gt;Node5 -->
<g id="edge6" class="edge"><title>Node6&#45;&gt;Node5</title>
<path fill="none" stroke="midnightblue" d="M210.71,-125.535C218.068,-112.95 227.68,-96.5072 233.456,-86.6273"/>
<polygon fill="midnightblue" stroke="midnightblue" points="207.65,-123.834 205.625,-134.234 213.693,-127.367 207.65,-123.834"/>
</g>
<!-- Node7 -->
<g id="node7" class="node"><title>Node7</title>
<g id="a_node7"><a xlink:href="../../d2/d7f/class_texture.html" target="_top" xlink:title=" ">
<polygon fill="white" stroke="black" points="246,-134.5 246,-153.5 295,-153.5 295,-134.5 246,-134.5"/>
<text text-anchor="middle" x="270.5" y="-141.5" font-family="Helvetica,sans-Serif" font-size="10.00">Texture</text>
</a>
</g>
</g>
<!-- Node7&#45;&gt;Node5 -->
<g id="edge7" class="edge"><title>Node7&#45;&gt;Node5</title>
<path fill="none" stroke="#9a32cd" stroke-dasharray="5,2" d="M261.719,-125.163C255.548,-112.628 247.564,-96.4104 242.747,-86.6273"/>
<polygon fill="#9a32cd" stroke="#9a32cd" points="258.627,-126.808 266.184,-134.234 264.908,-123.716 258.627,-126.808"/>
<text text-anchor="middle" x="289.5" y="-108" font-family="Helvetica,sans-Serif" font-size="10.00"> currentTexture</text>
</g>
<!-- Node8 -->
<g id="node8" class="node"><title>Node8</title>
<g id="a_node8"><a xlink:href="../../db/d74/class_text_map.html" target="_top" xlink:title=" ">
<polygon fill="white" stroke="black" points="322.5,-134.5 322.5,-153.5 376.5,-153.5 376.5,-134.5 322.5,-134.5"/>
<text text-anchor="middle" x="349.5" y="-141.5" font-family="Helvetica,sans-Serif" font-size="10.00">TextMap</text>
</a>
</g>
</g>
<!-- Node8&#45;&gt;Node5 -->
<g id="edge8" class="edge"><title>Node8&#45;&gt;Node5</title>
<path fill="none" stroke="#9a32cd" stroke-dasharray="5,2" d="M342.258,-125.375C338.507,-118.158 333.274,-110.28 326.5,-105 309.359,-91.6385 285.594,-84.8535 267.081,-81.4284"/>
<polygon fill="#9a32cd" stroke="#9a32cd" points="339.098,-126.88 346.46,-134.499 345.456,-123.952 339.098,-126.88"/>
<text text-anchor="middle" x="372" y="-108" font-family="Helvetica,sans-Serif" font-size="10.00"> currentTextMap</text>
</g>
</g>
</svg>
