<?xml version="1.0" encoding="UTF-8" standalone="no"?>
<!DOCTYPE svg PUBLIC "-//W3C//DTD SVG 1.1//EN"
 "http://www.w3.org/Graphics/SVG/1.1/DTD/svg11.dtd">
<!-- Generated by graphviz version 2.38.0 (20140413.2041)
 -->
<!-- Title: RayCaster::size Pages: 1 -->
<svg width="1534pt" height="148pt"
 viewBox="0.00 0.00 1534.00 148.12" xmlns="http://www.w3.org/2000/svg" xmlns:xlink="http://www.w3.org/1999/xlink">
<g id="graph0" class="graph" transform="scale(1 1) rotate(0) translate(4 144.119)">
<title>RayCaster::size</title>
<polygon fill="white" stroke="none" points="-4,4 -4,-144.119 1530,-144.119 1530,4 -4,4"/>
<!-- Node1 -->
<g id="node1" class="node"><title>Node1</title>
<g id="a_node1"><a xlink:title=" ">
<polygon fill="#bfbfbf" stroke="black" points="1440,-60.6586 1440,-79.6586 1526,-79.6586 1526,-60.6586 1440,-60.6586"/>
<text text-anchor="middle" x="1483" y="-67.6586" font-family="Helvetica,sans-Serif" font-size="10.00">RayCaster::size</text>
</a>
</g>
</g>
<!-- Node2 -->
<g id="node2" class="node"><title>Node2</title>
<g id="a_node2"><a xlink:href="../../da/d3f/class_enemy_controller_system.html#ae94d4732176c8a2b834f76e7be6fe79d" target="_top" xlink:title=" ">
<polygon fill="white" stroke="black" points="944,-80.1586 944,-110.159 1066,-110.159 1066,-80.1586 944,-80.1586"/>
<text text-anchor="start" x="952" y="-98.1586" font-family="Helvetica,sans-Serif" font-size="10.00">EnemyControllerSystem</text>
<text text-anchor="middle" x="1005" y="-87.1586" font-family="Helvetica,sans-Serif" font-size="10.00">::executeRayTesting</text>
</a>
</g>
</g>
<!-- Node1&#45;&gt;Node2 -->
<g id="edge1" class="edge"><title>Node1&#45;&gt;Node2</title>
<path fill="none" stroke="midnightblue" d="M1462.91,-86.4818C1447.98,-98.1221 1426.1,-112.794 1404,-119.159 1275.02,-156.31 1235.22,-135.558 1102,-119.159 1087,-117.311 1070.96,-113.898 1056.38,-110.214"/>
<polygon fill="midnightblue" stroke="midnightblue" points="1465.28,-89.0718 1470.85,-80.0642 1460.88,-83.6273 1465.28,-89.0718"/>
</g>
<!-- Node10 -->
<g id="node10" class="node"><title>Node10</title>
<g id="a_node10"><a xlink:href="../../d5/d50/class_player_controller_system.html#a919d9d772a6059cf4213c42c584ffcf3" target="_top" xlink:title=" ">
<polygon fill="white" stroke="black" points="945.5,-31.1586 945.5,-61.1586 1064.5,-61.1586 1064.5,-31.1586 945.5,-31.1586"/>
<text text-anchor="start" x="953.5" y="-49.1586" font-family="Helvetica,sans-Serif" font-size="10.00">PlayerControllerSystem</text>
<text text-anchor="middle" x="1005" y="-38.1586" font-family="Helvetica,sans-Serif" font-size="10.00">::executeRayTesting</text>
</a>
</g>
</g>
<!-- Node1&#45;&gt;Node10 -->
<g id="edge9" class="edge"><title>Node1&#45;&gt;Node10</title>
<path fill="none" stroke="midnightblue" d="M1462.91,-53.8354C1447.98,-42.1951 1426.1,-27.5229 1404,-21.1586 1275.02,15.9926 1235.13,-4.10768 1102,-21.1586 1086.11,-23.1933 1069.1,-27.049 1053.87,-31.1341"/>
<polygon fill="midnightblue" stroke="midnightblue" points="1460.88,-56.6899 1470.85,-60.2529 1465.28,-51.2454 1460.88,-56.6899"/>
</g>
<!-- Node12 -->
<g id="node12" class="node"><title>Node12</title>
<g id="a_node12"><a xlink:href="../../d5/d50/class_player_controller_system.html#a88fff320bc972582a23d69ae512eabe1" target="_top" xlink:title=" ">
<polygon fill="white" stroke="black" points="1283.5,-31.1586 1283.5,-61.1586 1402.5,-61.1586 1402.5,-31.1586 1283.5,-31.1586"/>
<text text-anchor="start" x="1291.5" y="-49.1586" font-family="Helvetica,sans-Serif" font-size="10.00">PlayerControllerSystem</text>
<text text-anchor="middle" x="1343" y="-38.1586" font-family="Helvetica,sans-Serif" font-size="10.00">::getLowestRayHitIndex</text>
</a>
</g>
</g>
<!-- Node1&#45;&gt;Node12 -->
<g id="edge12" class="edge"><title>Node1&#45;&gt;Node12</title>
<path fill="none" stroke="midnightblue" d="M1429.98,-61.112C1421.06,-59.5608 1411.74,-57.9395 1402.66,-56.3607"/>
<polygon fill="midnightblue" stroke="midnightblue" points="1429.39,-64.5621 1439.85,-62.8274 1430.59,-57.6657 1429.39,-64.5621"/>
</g>
<!-- Node14 -->
<g id="node14" class="node"><title>Node14</title>
<g id="a_node14"><a xlink:href="../../da/d3f/class_enemy_controller_system.html#af6b83f414b09fb388f55f5649f0658a1" target="_top" xlink:title=" ">
<polygon fill="white" stroke="black" points="1282,-80.1586 1282,-110.159 1404,-110.159 1404,-80.1586 1282,-80.1586"/>
<text text-anchor="start" x="1290" y="-98.1586" font-family="Helvetica,sans-Serif" font-size="10.00">EnemyControllerSystem</text>
<text text-anchor="middle" x="1343" y="-87.1586" font-family="Helvetica,sans-Serif" font-size="10.00">::getLowestRayHitIndex</text>
</a>
</g>
</g>
<!-- Node1&#45;&gt;Node14 -->
<g id="edge15" class="edge"><title>Node1&#45;&gt;Node14</title>
<path fill="none" stroke="midnightblue" d="M1429.84,-79.6082C1421.46,-81.1259 1412.73,-82.7074 1404.18,-84.2557"/>
<polygon fill="midnightblue" stroke="midnightblue" points="1430.63,-83.0219 1439.85,-77.7953 1429.38,-76.134 1430.63,-83.0219"/>
</g>
<!-- Node3 -->
<g id="node3" class="node"><title>Node3</title>
<g id="a_node3"><a xlink:href="../../da/d3f/class_enemy_controller_system.html#a026087734b2ff96302e29522d87111f3" target="_top" xlink:title=" ">
<polygon fill="white" stroke="black" points="786,-80.1586 786,-110.159 908,-110.159 908,-80.1586 786,-80.1586"/>
<text text-anchor="start" x="794" y="-98.1586" font-family="Helvetica,sans-Serif" font-size="10.00">EnemyControllerSystem</text>
<text text-anchor="middle" x="847" y="-87.1586" font-family="Helvetica,sans-Serif" font-size="10.00">::update</text>
</a>
</g>
</g>
<!-- Node2&#45;&gt;Node3 -->
<g id="edge2" class="edge"><title>Node2&#45;&gt;Node3</title>
<path fill="none" stroke="midnightblue" d="M933.462,-95.1586C925.01,-95.1586 916.44,-95.1586 908.153,-95.1586"/>
<polygon fill="midnightblue" stroke="midnightblue" points="933.686,-98.6587 943.686,-95.1586 933.686,-91.6587 933.686,-98.6587"/>
</g>
<!-- Node4 -->
<g id="node4" class="node"><title>Node4</title>
<g id="a_node4"><a xlink:href="../../d3/de8/class_fixed_updating_system.html#a7086592e0a53a3a3f8c7533f042a4266" target="_top" xlink:title=" ">
<polygon fill="white" stroke="black" points="637,-55.1586 637,-85.1586 750,-85.1586 750,-55.1586 637,-55.1586"/>
<text text-anchor="start" x="645" y="-73.1586" font-family="Helvetica,sans-Serif" font-size="10.00">FixedUpdatingSystem</text>
<text text-anchor="middle" x="693.5" y="-62.1586" font-family="Helvetica,sans-Serif" font-size="10.00">::updateCollision</text>
</a>
</g>
</g>
<!-- Node3&#45;&gt;Node4 -->
<g id="edge3" class="edge"><title>Node3&#45;&gt;Node4</title>
<path fill="none" stroke="midnightblue" d="M775.706,-83.5589C767.143,-82.1459 758.487,-80.7176 750.179,-79.3465"/>
<polygon fill="midnightblue" stroke="midnightblue" points="775.251,-87.0312 785.688,-85.2061 776.391,-80.1246 775.251,-87.0312"/>
</g>
<!-- Node5 -->
<g id="node5" class="node"><title>Node5</title>
<g id="a_node5"><a xlink:href="../../d3/de8/class_fixed_updating_system.html#a3ed508813ba850baed19e86ef0429028" target="_top" xlink:title=" ">
<polygon fill="white" stroke="black" points="488,-55.1586 488,-85.1586 601,-85.1586 601,-55.1586 488,-55.1586"/>
<text text-anchor="start" x="496" y="-73.1586" font-family="Helvetica,sans-Serif" font-size="10.00">FixedUpdatingSystem</text>
<text text-anchor="middle" x="544.5" y="-62.1586" font-family="Helvetica,sans-Serif" font-size="10.00">::fixedUpdate</text>
</a>
</g>
</g>
<!-- Node4&#45;&gt;Node5 -->
<g id="edge4" class="edge"><title>Node4&#45;&gt;Node5</title>
<path fill="none" stroke="midnightblue" d="M626.922,-70.1586C618.319,-70.1586 609.57,-70.1586 601.153,-70.1586"/>
<polygon fill="midnightblue" stroke="midnightblue" points="626.926,-73.6587 636.926,-70.1586 626.926,-66.6587 626.926,-73.6587"/>
</g>
<!-- Node6 -->
<g id="node6" class="node"><title>Node6</title>
<g id="a_node6"><a xlink:href="../../dd/d1f/class_game.html#a157e87f9dc147a5842ee6bdc06c95c17" target="_top" xlink:title=" ">
<polygon fill="white" stroke="black" points="352,-60.6586 352,-79.6586 452,-79.6586 452,-60.6586 352,-60.6586"/>
<text text-anchor="middle" x="402" y="-67.6586" font-family="Helvetica,sans-Serif" font-size="10.00">Game::fixedUpdate</text>
</a>
</g>
</g>
<!-- Node5&#45;&gt;Node6 -->
<g id="edge5" class="edge"><title>Node5&#45;&gt;Node6</title>
<path fill="none" stroke="midnightblue" d="M477.898,-70.1586C469.253,-70.1586 460.514,-70.1586 452.208,-70.1586"/>
<polygon fill="midnightblue" stroke="midnightblue" points="477.971,-73.6587 487.971,-70.1586 477.971,-66.6587 477.971,-73.6587"/>
</g>
<!-- Node7 -->
<g id="node7" class="node"><title>Node7</title>
<g id="a_node7"><a xlink:href="../../de/d6b/class_application.html#a95c827cb5cf08bd0c3cc7b07ed4b4249" target="_top" xlink:title=" ">
<polygon fill="white" stroke="black" points="194,-60.6586 194,-79.6586 316,-79.6586 316,-60.6586 194,-60.6586"/>
<text text-anchor="middle" x="255" y="-67.6586" font-family="Helvetica,sans-Serif" font-size="10.00">Application::fixedUpdate</text>
</a>
</g>
</g>
<!-- Node6&#45;&gt;Node7 -->
<g id="edge6" class="edge"><title>Node6&#45;&gt;Node7</title>
<path fill="none" stroke="midnightblue" d="M341.747,-70.1586C333.287,-70.1586 324.578,-70.1586 316.102,-70.1586"/>
<polygon fill="midnightblue" stroke="midnightblue" points="341.91,-73.6587 351.91,-70.1586 341.91,-66.6587 341.91,-73.6587"/>
</g>
<!-- Node8 -->
<g id="node8" class="node"><title>Node8</title>
<g id="a_node8"><a xlink:href="../../de/d6b/class_application.html#a68965449404743bf1add056784d6cf81" target="_top" xlink:title=" ">
<polygon fill="white" stroke="black" points="74,-60.6586 74,-79.6586 158,-79.6586 158,-60.6586 74,-60.6586"/>
<text text-anchor="middle" x="116" y="-67.6586" font-family="Helvetica,sans-Serif" font-size="10.00">Application::run</text>
</a>
</g>
</g>
<!-- Node7&#45;&gt;Node8 -->
<g id="edge7" class="edge"><title>Node7&#45;&gt;Node8</title>
<path fill="none" stroke="midnightblue" d="M183.669,-70.1586C174.931,-70.1586 166.234,-70.1586 158.145,-70.1586"/>
<polygon fill="midnightblue" stroke="midnightblue" points="183.91,-73.6587 193.91,-70.1586 183.91,-66.6587 183.91,-73.6587"/>
</g>
<!-- Node9 -->
<g id="node9" class="node"><title>Node9</title>
<g id="a_node9"><a xlink:href="../../d5/d12/_main_8cpp.html#a0ddf1224851353fc92bfbff6f499fa97" target="_top" xlink:title=" ">
<polygon fill="white" stroke="black" points="0,-60.6586 0,-79.6586 38,-79.6586 38,-60.6586 0,-60.6586"/>
<text text-anchor="middle" x="19" y="-67.6586" font-family="Helvetica,sans-Serif" font-size="10.00">main</text>
</a>
</g>
</g>
<!-- Node8&#45;&gt;Node9 -->
<g id="edge8" class="edge"><title>Node8&#45;&gt;Node9</title>
<path fill="none" stroke="midnightblue" d="M63.6206,-70.1586C54.5384,-70.1586 45.6466,-70.1586 38.2853,-70.1586"/>
<polygon fill="midnightblue" stroke="midnightblue" points="63.8842,-73.6587 73.8841,-70.1586 63.8841,-66.6587 63.8842,-73.6587"/>
</g>
<!-- Node11 -->
<g id="node11" class="node"><title>Node11</title>
<g id="a_node11"><a xlink:href="../../d5/d50/class_player_controller_system.html#a9d234f18033f0a3fca95bbcd49c28deb" target="_top" xlink:title=" ">
<polygon fill="white" stroke="black" points="787.5,-31.1586 787.5,-61.1586 906.5,-61.1586 906.5,-31.1586 787.5,-31.1586"/>
<text text-anchor="start" x="795.5" y="-49.1586" font-family="Helvetica,sans-Serif" font-size="10.00">PlayerControllerSystem</text>
<text text-anchor="middle" x="847" y="-38.1586" font-family="Helvetica,sans-Serif" font-size="10.00">::fixedUpdate</text>
</a>
</g>
</g>
<!-- Node10&#45;&gt;Node11 -->
<g id="edge10" class="edge"><title>Node10&#45;&gt;Node11</title>
<path fill="none" stroke="midnightblue" d="M935.212,-46.1586C925.667,-46.1586 915.936,-46.1586 906.601,-46.1586"/>
<polygon fill="midnightblue" stroke="midnightblue" points="935.468,-49.6587 945.468,-46.1586 935.467,-42.6587 935.468,-49.6587"/>
</g>
<!-- Node11&#45;&gt;Node4 -->
<g id="edge11" class="edge"><title>Node11&#45;&gt;Node4</title>
<path fill="none" stroke="midnightblue" d="M777.341,-57.0352C768.334,-58.4621 759.192,-59.9103 750.43,-61.2983"/>
<polygon fill="midnightblue" stroke="midnightblue" points="778.097,-60.4592 787.426,-55.4376 777.002,-53.5455 778.097,-60.4592"/>
</g>
<!-- Node13 -->
<g id="node13" class="node"><title>Node13</title>
<g id="a_node13"><a xlink:href="../../d5/d50/class_player_controller_system.html#a8398781371121f01743869a9ef9dd26e" target="_top" xlink:title=" ">
<polygon fill="white" stroke="black" points="1102,-31.1586 1102,-61.1586 1246,-61.1586 1246,-31.1586 1102,-31.1586"/>
<text text-anchor="start" x="1110" y="-49.1586" font-family="Helvetica,sans-Serif" font-size="10.00">PlayerControllerSystem</text>
<text text-anchor="middle" x="1174" y="-38.1586" font-family="Helvetica,sans-Serif" font-size="10.00">::getLowestRayHitForAllRays</text>
</a>
</g>
</g>
<!-- Node12&#45;&gt;Node13 -->
<g id="edge13" class="edge"><title>Node12&#45;&gt;Node13</title>
<path fill="none" stroke="midnightblue" d="M1272.91,-46.1586C1264.1,-46.1586 1255.07,-46.1586 1246.23,-46.1586"/>
<polygon fill="midnightblue" stroke="midnightblue" points="1273.12,-49.6587 1283.12,-46.1586 1273.12,-42.6587 1273.12,-49.6587"/>
</g>
<!-- Node13&#45;&gt;Node10 -->
<g id="edge14" class="edge"><title>Node13&#45;&gt;Node10</title>
<path fill="none" stroke="midnightblue" d="M1091.53,-46.1586C1082.49,-46.1586 1073.42,-46.1586 1064.74,-46.1586"/>
<polygon fill="midnightblue" stroke="midnightblue" points="1091.69,-49.6587 1101.69,-46.1586 1091.69,-42.6587 1091.69,-49.6587"/>
</g>
<!-- Node15 -->
<g id="node15" class="node"><title>Node15</title>
<g id="a_node15"><a xlink:href="../../da/d3f/class_enemy_controller_system.html#aea2ed084167d7f1f9ac8926b036217d0" target="_top" xlink:title=" ">
<polygon fill="white" stroke="black" points="1102,-80.1586 1102,-110.159 1246,-110.159 1246,-80.1586 1102,-80.1586"/>
<text text-anchor="start" x="1110" y="-98.1586" font-family="Helvetica,sans-Serif" font-size="10.00">EnemyControllerSystem</text>
<text text-anchor="middle" x="1174" y="-87.1586" font-family="Helvetica,sans-Serif" font-size="10.00">::getLowestRayHitForAllRays</text>
</a>
</g>
</g>
<!-- Node14&#45;&gt;Node15 -->
<g id="edge16" class="edge"><title>Node14&#45;&gt;Node15</title>
<path fill="none" stroke="midnightblue" d="M1271.52,-95.1586C1263.08,-95.1586 1254.46,-95.1586 1246,-95.1586"/>
<polygon fill="midnightblue" stroke="midnightblue" points="1271.71,-98.6587 1281.71,-95.1586 1271.71,-91.6587 1271.71,-98.6587"/>
</g>
<!-- Node15&#45;&gt;Node2 -->
<g id="edge17" class="edge"><title>Node15&#45;&gt;Node2</title>
<path fill="none" stroke="midnightblue" d="M1091.61,-95.1586C1082.99,-95.1586 1074.35,-95.1586 1066.03,-95.1586"/>
<polygon fill="midnightblue" stroke="midnightblue" points="1091.69,-98.6587 1101.69,-95.1586 1091.69,-91.6587 1091.69,-98.6587"/>
</g>
</g>
</svg>
