<?xml version="1.0" encoding="UTF-8" standalone="no"?>
<!DOCTYPE svg PUBLIC "-//W3C//DTD SVG 1.1//EN"
 "http://www.w3.org/Graphics/SVG/1.1/DTD/svg11.dtd">
<!-- Generated by graphviz version 2.38.0 (20140413.2041)
 -->
<!-- Title: RayCaster::getHitFractionRaySpace Pages: 1 -->
<svg width="1419pt" height="88pt"
 viewBox="0.00 0.00 1419.00 88.00" xmlns="http://www.w3.org/2000/svg" xmlns:xlink="http://www.w3.org/1999/xlink">
<g id="graph0" class="graph" transform="scale(1 1) rotate(0) translate(4 84)">
<title>RayCaster::getHitFractionRaySpace</title>
<polygon fill="white" stroke="none" points="-4,4 -4,-84 1415,-84 1415,4 -4,4"/>
<!-- Node1 -->
<g id="node1" class="node"><title>Node1</title>
<g id="a_node1"><a xlink:title=" ">
<polygon fill="#bfbfbf" stroke="black" points="1282,-24.5 1282,-54.5 1411,-54.5 1411,-24.5 1282,-24.5"/>
<text text-anchor="start" x="1290" y="-42.5" font-family="Helvetica,sans-Serif" font-size="10.00">RayCaster::getHitFraction</text>
<text text-anchor="middle" x="1346.5" y="-31.5" font-family="Helvetica,sans-Serif" font-size="10.00">RaySpace</text>
</a>
</g>
</g>
<!-- Node2 -->
<g id="node2" class="node"><title>Node2</title>
<g id="a_node2"><a xlink:href="../../da/d3f/class_enemy_controller_system.html#aea2ed084167d7f1f9ac8926b036217d0" target="_top" xlink:title=" ">
<polygon fill="white" stroke="black" points="1102,-49.5 1102,-79.5 1246,-79.5 1246,-49.5 1102,-49.5"/>
<text text-anchor="start" x="1110" y="-67.5" font-family="Helvetica,sans-Serif" font-size="10.00">EnemyControllerSystem</text>
<text text-anchor="middle" x="1174" y="-56.5" font-family="Helvetica,sans-Serif" font-size="10.00">::getLowestRayHitForAllRays</text>
</a>
</g>
</g>
<!-- Node1&#45;&gt;Node2 -->
<g id="edge1" class="edge"><title>Node1&#45;&gt;Node2</title>
<path fill="none" stroke="midnightblue" d="M1271.41,-50.3632C1263.04,-51.5903 1254.53,-52.8389 1246.2,-54.0604"/>
<polygon fill="midnightblue" stroke="midnightblue" points="1272.14,-53.794 1281.53,-48.8802 1271.13,-46.8681 1272.14,-53.794"/>
</g>
<!-- Node11 -->
<g id="node11" class="node"><title>Node11</title>
<g id="a_node11"><a xlink:href="../../d5/d50/class_player_controller_system.html#a8398781371121f01743869a9ef9dd26e" target="_top" xlink:title=" ">
<polygon fill="white" stroke="black" points="1102,-0.5 1102,-30.5 1246,-30.5 1246,-0.5 1102,-0.5"/>
<text text-anchor="start" x="1110" y="-18.5" font-family="Helvetica,sans-Serif" font-size="10.00">PlayerControllerSystem</text>
<text text-anchor="middle" x="1174" y="-7.5" font-family="Helvetica,sans-Serif" font-size="10.00">::getLowestRayHitForAllRays</text>
</a>
</g>
</g>
<!-- Node1&#45;&gt;Node11 -->
<g id="edge10" class="edge"><title>Node1&#45;&gt;Node11</title>
<path fill="none" stroke="midnightblue" d="M1271.41,-29.0714C1263.04,-27.8933 1254.53,-26.6947 1246.2,-25.522"/>
<polygon fill="midnightblue" stroke="midnightblue" points="1271.14,-32.5669 1281.53,-30.495 1272.11,-25.6352 1271.14,-32.5669"/>
</g>
<!-- Node3 -->
<g id="node3" class="node"><title>Node3</title>
<g id="a_node3"><a xlink:href="../../da/d3f/class_enemy_controller_system.html#ae94d4732176c8a2b834f76e7be6fe79d" target="_top" xlink:title=" ">
<polygon fill="white" stroke="black" points="944,-49.5 944,-79.5 1066,-79.5 1066,-49.5 944,-49.5"/>
<text text-anchor="start" x="952" y="-67.5" font-family="Helvetica,sans-Serif" font-size="10.00">EnemyControllerSystem</text>
<text text-anchor="middle" x="1005" y="-56.5" font-family="Helvetica,sans-Serif" font-size="10.00">::executeRayTesting</text>
</a>
</g>
</g>
<!-- Node2&#45;&gt;Node3 -->
<g id="edge2" class="edge"><title>Node2&#45;&gt;Node3</title>
<path fill="none" stroke="midnightblue" d="M1091.61,-64.5C1082.99,-64.5 1074.35,-64.5 1066.03,-64.5"/>
<polygon fill="midnightblue" stroke="midnightblue" points="1091.69,-68.0001 1101.69,-64.5 1091.69,-61.0001 1091.69,-68.0001"/>
</g>
<!-- Node4 -->
<g id="node4" class="node"><title>Node4</title>
<g id="a_node4"><a xlink:href="../../da/d3f/class_enemy_controller_system.html#a026087734b2ff96302e29522d87111f3" target="_top" xlink:title=" ">
<polygon fill="white" stroke="black" points="786,-49.5 786,-79.5 908,-79.5 908,-49.5 786,-49.5"/>
<text text-anchor="start" x="794" y="-67.5" font-family="Helvetica,sans-Serif" font-size="10.00">EnemyControllerSystem</text>
<text text-anchor="middle" x="847" y="-56.5" font-family="Helvetica,sans-Serif" font-size="10.00">::update</text>
</a>
</g>
</g>
<!-- Node3&#45;&gt;Node4 -->
<g id="edge3" class="edge"><title>Node3&#45;&gt;Node4</title>
<path fill="none" stroke="midnightblue" d="M933.462,-64.5C925.01,-64.5 916.44,-64.5 908.153,-64.5"/>
<polygon fill="midnightblue" stroke="midnightblue" points="933.686,-68.0001 943.686,-64.5 933.686,-61.0001 933.686,-68.0001"/>
</g>
<!-- Node5 -->
<g id="node5" class="node"><title>Node5</title>
<g id="a_node5"><a xlink:href="../../d3/de8/class_fixed_updating_system.html#a7086592e0a53a3a3f8c7533f042a4266" target="_top" xlink:title=" ">
<polygon fill="white" stroke="black" points="637,-24.5 637,-54.5 750,-54.5 750,-24.5 637,-24.5"/>
<text text-anchor="start" x="645" y="-42.5" font-family="Helvetica,sans-Serif" font-size="10.00">FixedUpdatingSystem</text>
<text text-anchor="middle" x="693.5" y="-31.5" font-family="Helvetica,sans-Serif" font-size="10.00">::updateCollision</text>
</a>
</g>
</g>
<!-- Node4&#45;&gt;Node5 -->
<g id="edge4" class="edge"><title>Node4&#45;&gt;Node5</title>
<path fill="none" stroke="midnightblue" d="M775.706,-52.9003C767.143,-51.4873 758.487,-50.059 750.179,-48.6879"/>
<polygon fill="midnightblue" stroke="midnightblue" points="775.251,-56.3726 785.688,-54.5475 776.391,-49.466 775.251,-56.3726"/>
</g>
<!-- Node6 -->
<g id="node6" class="node"><title>Node6</title>
<g id="a_node6"><a xlink:href="../../d3/de8/class_fixed_updating_system.html#a3ed508813ba850baed19e86ef0429028" target="_top" xlink:title=" ">
<polygon fill="white" stroke="black" points="488,-24.5 488,-54.5 601,-54.5 601,-24.5 488,-24.5"/>
<text text-anchor="start" x="496" y="-42.5" font-family="Helvetica,sans-Serif" font-size="10.00">FixedUpdatingSystem</text>
<text text-anchor="middle" x="544.5" y="-31.5" font-family="Helvetica,sans-Serif" font-size="10.00">::fixedUpdate</text>
</a>
</g>
</g>
<!-- Node5&#45;&gt;Node6 -->
<g id="edge5" class="edge"><title>Node5&#45;&gt;Node6</title>
<path fill="none" stroke="midnightblue" d="M626.922,-39.5C618.319,-39.5 609.57,-39.5 601.153,-39.5"/>
<polygon fill="midnightblue" stroke="midnightblue" points="626.926,-43.0001 636.926,-39.5 626.926,-36.0001 626.926,-43.0001"/>
</g>
<!-- Node7 -->
<g id="node7" class="node"><title>Node7</title>
<g id="a_node7"><a xlink:href="../../dd/d1f/class_game.html#a157e87f9dc147a5842ee6bdc06c95c17" target="_top" xlink:title=" ">
<polygon fill="white" stroke="black" points="352,-30 352,-49 452,-49 452,-30 352,-30"/>
<text text-anchor="middle" x="402" y="-37" font-family="Helvetica,sans-Serif" font-size="10.00">Game::fixedUpdate</text>
</a>
</g>
</g>
<!-- Node6&#45;&gt;Node7 -->
<g id="edge6" class="edge"><title>Node6&#45;&gt;Node7</title>
<path fill="none" stroke="midnightblue" d="M477.898,-39.5C469.253,-39.5 460.514,-39.5 452.208,-39.5"/>
<polygon fill="midnightblue" stroke="midnightblue" points="477.971,-43.0001 487.971,-39.5 477.971,-36.0001 477.971,-43.0001"/>
</g>
<!-- Node8 -->
<g id="node8" class="node"><title>Node8</title>
<g id="a_node8"><a xlink:href="../../de/d6b/class_application.html#a95c827cb5cf08bd0c3cc7b07ed4b4249" target="_top" xlink:title=" ">
<polygon fill="white" stroke="black" points="194,-30 194,-49 316,-49 316,-30 194,-30"/>
<text text-anchor="middle" x="255" y="-37" font-family="Helvetica,sans-Serif" font-size="10.00">Application::fixedUpdate</text>
</a>
</g>
</g>
<!-- Node7&#45;&gt;Node8 -->
<g id="edge7" class="edge"><title>Node7&#45;&gt;Node8</title>
<path fill="none" stroke="midnightblue" d="M341.747,-39.5C333.287,-39.5 324.578,-39.5 316.102,-39.5"/>
<polygon fill="midnightblue" stroke="midnightblue" points="341.91,-43.0001 351.91,-39.5 341.91,-36.0001 341.91,-43.0001"/>
</g>
<!-- Node9 -->
<g id="node9" class="node"><title>Node9</title>
<g id="a_node9"><a xlink:href="../../de/d6b/class_application.html#a68965449404743bf1add056784d6cf81" target="_top" xlink:title=" ">
<polygon fill="white" stroke="black" points="74,-30 74,-49 158,-49 158,-30 74,-30"/>
<text text-anchor="middle" x="116" y="-37" font-family="Helvetica,sans-Serif" font-size="10.00">Application::run</text>
</a>
</g>
</g>
<!-- Node8&#45;&gt;Node9 -->
<g id="edge8" class="edge"><title>Node8&#45;&gt;Node9</title>
<path fill="none" stroke="midnightblue" d="M183.669,-39.5C174.931,-39.5 166.234,-39.5 158.145,-39.5"/>
<polygon fill="midnightblue" stroke="midnightblue" points="183.91,-43.0001 193.91,-39.5 183.91,-36.0001 183.91,-43.0001"/>
</g>
<!-- Node10 -->
<g id="node10" class="node"><title>Node10</title>
<g id="a_node10"><a xlink:href="../../d5/d12/_main_8cpp.html#a0ddf1224851353fc92bfbff6f499fa97" target="_top" xlink:title=" ">
<polygon fill="white" stroke="black" points="0,-30 0,-49 38,-49 38,-30 0,-30"/>
<text text-anchor="middle" x="19" y="-37" font-family="Helvetica,sans-Serif" font-size="10.00">main</text>
</a>
</g>
</g>
<!-- Node9&#45;&gt;Node10 -->
<g id="edge9" class="edge"><title>Node9&#45;&gt;Node10</title>
<path fill="none" stroke="midnightblue" d="M63.6206,-39.5C54.5384,-39.5 45.6466,-39.5 38.2853,-39.5"/>
<polygon fill="midnightblue" stroke="midnightblue" points="63.8842,-43.0001 73.8841,-39.5 63.8841,-36.0001 63.8842,-43.0001"/>
</g>
<!-- Node12 -->
<g id="node12" class="node"><title>Node12</title>
<g id="a_node12"><a xlink:href="../../d5/d50/class_player_controller_system.html#a919d9d772a6059cf4213c42c584ffcf3" target="_top" xlink:title=" ">
<polygon fill="white" stroke="black" points="945.5,-0.5 945.5,-30.5 1064.5,-30.5 1064.5,-0.5 945.5,-0.5"/>
<text text-anchor="start" x="953.5" y="-18.5" font-family="Helvetica,sans-Serif" font-size="10.00">PlayerControllerSystem</text>
<text text-anchor="middle" x="1005" y="-7.5" font-family="Helvetica,sans-Serif" font-size="10.00">::executeRayTesting</text>
</a>
</g>
</g>
<!-- Node11&#45;&gt;Node12 -->
<g id="edge11" class="edge"><title>Node11&#45;&gt;Node12</title>
<path fill="none" stroke="midnightblue" d="M1091.53,-15.5C1082.49,-15.5 1073.42,-15.5 1064.74,-15.5"/>
<polygon fill="midnightblue" stroke="midnightblue" points="1091.69,-19.0001 1101.69,-15.5 1091.69,-12.0001 1091.69,-19.0001"/>
</g>
<!-- Node13 -->
<g id="node13" class="node"><title>Node13</title>
<g id="a_node13"><a xlink:href="../../d5/d50/class_player_controller_system.html#a9d234f18033f0a3fca95bbcd49c28deb" target="_top" xlink:title=" ">
<polygon fill="white" stroke="black" points="787.5,-0.5 787.5,-30.5 906.5,-30.5 906.5,-0.5 787.5,-0.5"/>
<text text-anchor="start" x="795.5" y="-18.5" font-family="Helvetica,sans-Serif" font-size="10.00">PlayerControllerSystem</text>
<text text-anchor="middle" x="847" y="-7.5" font-family="Helvetica,sans-Serif" font-size="10.00">::fixedUpdate</text>
</a>
</g>
</g>
<!-- Node12&#45;&gt;Node13 -->
<g id="edge12" class="edge"><title>Node12&#45;&gt;Node13</title>
<path fill="none" stroke="midnightblue" d="M935.212,-15.5C925.667,-15.5 915.936,-15.5 906.601,-15.5"/>
<polygon fill="midnightblue" stroke="midnightblue" points="935.468,-19.0001 945.468,-15.5 935.467,-12.0001 935.468,-19.0001"/>
</g>
<!-- Node13&#45;&gt;Node5 -->
<g id="edge13" class="edge"><title>Node13&#45;&gt;Node5</title>
<path fill="none" stroke="midnightblue" d="M777.341,-26.3766C768.334,-27.8035 759.192,-29.2517 750.43,-30.6397"/>
<polygon fill="midnightblue" stroke="midnightblue" points="778.097,-29.8006 787.426,-24.779 777.002,-22.8869 778.097,-29.8006"/>
</g>
</g>
</svg>
