<?xml version="1.0" encoding="UTF-8" standalone="no"?>
<!DOCTYPE svg PUBLIC "-//W3C//DTD SVG 1.1//EN"
 "http://www.w3.org/Graphics/SVG/1.1/DTD/svg11.dtd">
<!-- Generated by graphviz version 2.38.0 (20140413.2041)
 -->
<!-- Title: RayCaster::rayTest Pages: 1 -->
<svg width="391pt" height="28pt"
 viewBox="0.00 0.00 391.00 28.00" xmlns="http://www.w3.org/2000/svg" xmlns:xlink="http://www.w3.org/1999/xlink">
<g id="graph0" class="graph" transform="scale(1 1) rotate(0) translate(4 24)">
<title>RayCaster::rayTest</title>
<polygon fill="white" stroke="none" points="-4,4 -4,-24 387,-24 387,4 -4,4"/>
<!-- Node1 -->
<g id="node1" class="node"><title>Node1</title>
<g id="a_node1"><a xlink:title=" ">
<polygon fill="#bfbfbf" stroke="black" points="0,-0.5 0,-19.5 101,-19.5 101,-0.5 0,-0.5"/>
<text text-anchor="middle" x="50.5" y="-7.5" font-family="Helvetica,sans-Serif" font-size="10.00">RayCaster::rayTest</text>
</a>
</g>
</g>
<!-- Node2 -->
<g id="node2" class="node"><title>Node2</title>
<g id="a_node2"><a xlink:href="../../d3/dbc/class_ray_caster.html#aca0a04a94ed2556ad220cc4c0571e2f0" target="_top" xlink:title=" ">
<polygon fill="white" stroke="black" points="137,-0.5 137,-19.5 265,-19.5 265,-0.5 137,-0.5"/>
<text text-anchor="middle" x="201" y="-7.5" font-family="Helvetica,sans-Serif" font-size="10.00">RayCaster::resetCallback</text>
</a>
</g>
</g>
<!-- Node1&#45;&gt;Node2 -->
<g id="edge1" class="edge"><title>Node1&#45;&gt;Node2</title>
<path fill="none" stroke="midnightblue" d="M101.361,-10C109.537,-10 118.157,-10 126.758,-10"/>
<polygon fill="midnightblue" stroke="midnightblue" points="126.82,-13.5001 136.82,-10 126.82,-6.5001 126.82,-13.5001"/>
</g>
<!-- Node3 -->
<g id="node3" class="node"><title>Node3</title>
<g id="a_node3"><a xlink:href="../../d7/dd1/namespacehh.html#ad5fffa12ef6d4badda8b6db66b21f4fb" target="_top" xlink:title=" ">
<polygon fill="white" stroke="black" points="301,-0.5 301,-19.5 383,-19.5 383,-0.5 301,-0.5"/>
<text text-anchor="middle" x="342" y="-7.5" font-family="Helvetica,sans-Serif" font-size="10.00">hh::toGlmVec3</text>
</a>
</g>
</g>
<!-- Node2&#45;&gt;Node3 -->
<g id="edge2" class="edge"><title>Node2&#45;&gt;Node3</title>
<path fill="none" stroke="midnightblue" d="M265.399,-10C273.856,-10 282.436,-10 290.63,-10"/>
<polygon fill="midnightblue" stroke="midnightblue" points="290.766,-13.5001 300.766,-10 290.766,-6.5001 290.766,-13.5001"/>
</g>
</g>
</svg>
