<?xml version="1.0" encoding="UTF-8" standalone="no"?>
<!DOCTYPE svg PUBLIC "-//W3C//DTD SVG 1.1//EN"
 "http://www.w3.org/Graphics/SVG/1.1/DTD/svg11.dtd">
<!-- Generated by graphviz version 2.38.0 (20140413.2041)
 -->
<!-- Title: src/DisplayStatistics.h Pages: 1 -->
<svg width="1630pt" height="420pt"
 viewBox="0.00 0.00 1629.50 420.00" xmlns="http://www.w3.org/2000/svg" xmlns:xlink="http://www.w3.org/1999/xlink">
<g id="graph0" class="graph" transform="scale(1 1) rotate(0) translate(4 416)">
<title>src/DisplayStatistics.h</title>
<polygon fill="white" stroke="none" points="-4,4 -4,-416 1625.5,-416 1625.5,4 -4,4"/>
<!-- Node1 -->
<g id="node1" class="node"><title>Node1</title>
<g id="a_node1"><a xlink:title=" ">
<polygon fill="#bfbfbf" stroke="black" points="1409.5,-392.5 1409.5,-411.5 1524.5,-411.5 1524.5,-392.5 1409.5,-392.5"/>
<text text-anchor="middle" x="1467" y="-399.5" font-family="Helvetica,sans-Serif" font-size="10.00">src/DisplayStatistics.h</text>
</a>
</g>
</g>
<!-- Node2 -->
<g id="node2" class="node"><title>Node2</title>
<g id="a_node2"><a xlink:href="../../dc/d20/_component_8h.html" target="_top" xlink:title=" ">
<polygon fill="white" stroke="black" points="116,-56.5 116,-75.5 190,-75.5 190,-56.5 116,-56.5"/>
<text text-anchor="middle" x="153" y="-63.5" font-family="Helvetica,sans-Serif" font-size="10.00">Component.h</text>
</a>
</g>
</g>
<!-- Node1&#45;&gt;Node2 -->
<g id="edge1" class="edge"><title>Node1&#45;&gt;Node2</title>
<path fill="none" stroke="midnightblue" d="M1409.27,-400.918C1195.29,-400.305 447.727,-395.333 213,-356 115.385,-339.642 0,-389.976 0,-291 0,-291 0,-291 0,-177 0,-123.205 63.1245,-93.1341 108.281,-78.5046"/>
<polygon fill="midnightblue" stroke="midnightblue" points="109.379,-81.8286 117.899,-75.5304 107.311,-75.1411 109.379,-81.8286"/>
</g>
<!-- Node4 -->
<g id="node4" class="node"><title>Node4</title>
<g id="a_node4"><a xlink:href="../../df/dec/_g_u_i_resizing_info_8h.html" target="_top" xlink:title=" ">
<polygon fill="white" stroke="black" points="1420,-280.5 1420,-299.5 1514,-299.5 1514,-280.5 1420,-280.5"/>
<text text-anchor="middle" x="1467" y="-287.5" font-family="Helvetica,sans-Serif" font-size="10.00">GUIResizingInfo.h</text>
</a>
</g>
</g>
<!-- Node1&#45;&gt;Node4 -->
<g id="edge3" class="edge"><title>Node1&#45;&gt;Node4</title>
<path fill="none" stroke="midnightblue" d="M1467,-392.368C1467,-374.617 1467,-333.666 1467,-309.597"/>
<polygon fill="midnightblue" stroke="midnightblue" points="1470.5,-309.591 1467,-299.591 1463.5,-309.591 1470.5,-309.591"/>
</g>
<!-- Node10 -->
<g id="node10" class="node"><title>Node10</title>
<g id="a_node10"><a xlink:href="../../d4/d04/_gui_string_8h.html" target="_top" xlink:title=" ">
<polygon fill="white" stroke="black" points="222.5,-336.5 222.5,-355.5 287.5,-355.5 287.5,-336.5 222.5,-336.5"/>
<text text-anchor="middle" x="255" y="-343.5" font-family="Helvetica,sans-Serif" font-size="10.00">GuiString.h</text>
</a>
</g>
</g>
<!-- Node1&#45;&gt;Node10 -->
<g id="edge9" class="edge"><title>Node1&#45;&gt;Node10</title>
<path fill="none" stroke="midnightblue" d="M1409.36,-398.432C1199.73,-389.092 480.626,-357.053 297.632,-348.899"/>
<polygon fill="midnightblue" stroke="midnightblue" points="297.735,-345.401 287.589,-348.452 297.423,-352.394 297.735,-345.401"/>
</g>
<!-- Node38 -->
<g id="node38" class="node"><title>Node38</title>
<g id="a_node38"><a xlink:href="../../d4/d8f/_l_time_8h.html" target="_top" xlink:title=" ">
<polygon fill="white" stroke="black" points="1524.5,-168.5 1524.5,-187.5 1575.5,-187.5 1575.5,-168.5 1524.5,-168.5"/>
<text text-anchor="middle" x="1550" y="-175.5" font-family="Helvetica,sans-Serif" font-size="10.00">LTime.h</text>
</a>
</g>
</g>
<!-- Node1&#45;&gt;Node38 -->
<g id="edge67" class="edge"><title>Node1&#45;&gt;Node38</title>
<path fill="none" stroke="midnightblue" d="M1472.83,-392.496C1484.15,-375.616 1509.19,-336.363 1523,-300 1536.26,-265.085 1543.95,-221.911 1547.53,-197.715"/>
<polygon fill="midnightblue" stroke="midnightblue" points="1551,-198.144 1548.92,-187.755 1544.07,-197.172 1551,-198.144"/>
</g>
<!-- Node40 -->
<g id="node40" class="node"><title>Node40</title>
<g id="a_node40"><a xlink:title=" ">
<polygon fill="white" stroke="#bfbfbf" points="1570.5,-336.5 1570.5,-355.5 1621.5,-355.5 1621.5,-336.5 1570.5,-336.5"/>
<text text-anchor="middle" x="1596" y="-343.5" font-family="Helvetica,sans-Serif" font-size="10.00">numeric</text>
</a>
</g>
</g>
<!-- Node1&#45;&gt;Node40 -->
<g id="edge71" class="edge"><title>Node1&#45;&gt;Node40</title>
<path fill="none" stroke="midnightblue" d="M1487.44,-392.444C1508.67,-383.557 1542.1,-369.563 1566.25,-359.451"/>
<polygon fill="midnightblue" stroke="midnightblue" points="1567.78,-362.606 1575.66,-355.516 1565.08,-356.149 1567.78,-362.606"/>
</g>
<!-- Node3 -->
<g id="node3" class="node"><title>Node3</title>
<g id="a_node3"><a xlink:title=" ">
<polygon fill="white" stroke="#bfbfbf" points="51.5,-0.5 51.5,-19.5 100.5,-19.5 100.5,-0.5 51.5,-0.5"/>
<text text-anchor="middle" x="76" y="-7.5" font-family="Helvetica,sans-Serif" font-size="10.00">stdint.h</text>
</a>
</g>
</g>
<!-- Node2&#45;&gt;Node3 -->
<g id="edge2" class="edge"><title>Node2&#45;&gt;Node3</title>
<path fill="none" stroke="midnightblue" d="M140.629,-56.324C128.842,-48.0577 110.868,-35.4527 96.8645,-25.6322"/>
<polygon fill="midnightblue" stroke="midnightblue" points="98.5376,-22.5307 88.3407,-19.6545 94.5184,-28.2619 98.5376,-22.5307"/>
</g>
<!-- Node5 -->
<g id="node5" class="node"><title>Node5</title>
<g id="a_node5"><a xlink:href="../../de/d50/_game_info_8h.html" target="_top" xlink:title=" ">
<polygon fill="white" stroke="black" points="1455,-112.5 1455,-131.5 1521,-131.5 1521,-112.5 1455,-112.5"/>
<text text-anchor="middle" x="1488" y="-119.5" font-family="Helvetica,sans-Serif" font-size="10.00">GameInfo.h</text>
</a>
</g>
</g>
<!-- Node4&#45;&gt;Node5 -->
<g id="edge4" class="edge"><title>Node4&#45;&gt;Node5</title>
<path fill="none" stroke="midnightblue" d="M1468.13,-280.075C1471.43,-253.945 1481.14,-177.211 1485.65,-141.577"/>
<polygon fill="midnightblue" stroke="midnightblue" points="1489.13,-141.928 1486.92,-131.568 1482.19,-141.05 1489.13,-141.928"/>
</g>
<!-- Node6 -->
<g id="node6" class="node"><title>Node6</title>
<g id="a_node6"><a xlink:title=" ">
<polygon fill="white" stroke="#bfbfbf" points="1092.5,-56.5 1092.5,-75.5 1219.5,-75.5 1219.5,-56.5 1092.5,-56.5"/>
<text text-anchor="middle" x="1156" y="-63.5" font-family="Helvetica,sans-Serif" font-size="10.00">LinearMath/btTransform.h</text>
</a>
</g>
</g>
<!-- Node5&#45;&gt;Node6 -->
<g id="edge5" class="edge"><title>Node5&#45;&gt;Node6</title>
<path fill="none" stroke="midnightblue" d="M1454.9,-114.522C1450.24,-113.65 1445.5,-112.786 1441,-112 1366.75,-99.0331 1281.33,-85.7633 1223.52,-77.0263"/>
<polygon fill="midnightblue" stroke="midnightblue" points="1223.82,-73.5325 1213.41,-75.5026 1222.78,-80.4543 1223.82,-73.5325"/>
</g>
<!-- Node7 -->
<g id="node7" class="node"><title>Node7</title>
<g id="a_node7"><a xlink:title=" ">
<polygon fill="white" stroke="#bfbfbf" points="654,-56.5 654,-75.5 728,-75.5 728,-56.5 654,-56.5"/>
<text text-anchor="middle" x="691" y="-63.5" font-family="Helvetica,sans-Serif" font-size="10.00">glm/vec3.hpp</text>
</a>
</g>
</g>
<!-- Node5&#45;&gt;Node7 -->
<g id="edge6" class="edge"><title>Node5&#45;&gt;Node7</title>
<path fill="none" stroke="midnightblue" d="M1454.77,-118.748C1329.47,-110.259 885.347,-80.1678 738.514,-70.2193"/>
<polygon fill="midnightblue" stroke="midnightblue" points="738.678,-66.7225 728.464,-69.5384 738.205,-73.7064 738.678,-66.7225"/>
</g>
<!-- Node8 -->
<g id="node8" class="node"><title>Node8</title>
<g id="a_node8"><a xlink:title=" ">
<polygon fill="white" stroke="#bfbfbf" points="1451,-56.5 1451,-75.5 1525,-75.5 1525,-56.5 1451,-56.5"/>
<text text-anchor="middle" x="1488" y="-63.5" font-family="Helvetica,sans-Serif" font-size="10.00">glm/vec4.hpp</text>
</a>
</g>
</g>
<!-- Node5&#45;&gt;Node8 -->
<g id="edge7" class="edge"><title>Node5&#45;&gt;Node8</title>
<path fill="none" stroke="midnightblue" d="M1488,-112.083C1488,-105.006 1488,-94.8611 1488,-85.9865"/>
<polygon fill="midnightblue" stroke="midnightblue" points="1491.5,-85.751 1488,-75.7511 1484.5,-85.7511 1491.5,-85.751"/>
</g>
<!-- Node9 -->
<g id="node9" class="node"><title>Node9</title>
<g id="a_node9"><a xlink:title=" ">
<polygon fill="white" stroke="#bfbfbf" points="1238.5,-56.5 1238.5,-75.5 1279.5,-75.5 1279.5,-56.5 1238.5,-56.5"/>
<text text-anchor="middle" x="1259" y="-63.5" font-family="Helvetica,sans-Serif" font-size="10.00">string</text>
</a>
</g>
</g>
<!-- Node5&#45;&gt;Node9 -->
<g id="edge8" class="edge"><title>Node5&#45;&gt;Node9</title>
<path fill="none" stroke="midnightblue" d="M1454.7,-113.148C1410.35,-102.69 1332.52,-84.3355 1289.58,-74.2118"/>
<polygon fill="midnightblue" stroke="midnightblue" points="1290.25,-70.7732 1279.71,-71.8846 1288.64,-77.5864 1290.25,-70.7732"/>
</g>
<!-- Node10&#45;&gt;Node9 -->
<g id="edge65" class="edge"><title>Node10&#45;&gt;Node9</title>
<path fill="none" stroke="midnightblue" d="M287.576,-344.994C474.183,-344.806 1403.35,-341.764 1523,-300 1568.91,-283.976 1611,-283.624 1611,-235 1611,-235 1611,-235 1611,-177 1611,-146.902 1614.82,-131.627 1592,-112 1569.24,-92.4251 1367.83,-75.2385 1289.75,-69.2529"/>
<polygon fill="midnightblue" stroke="midnightblue" points="1289.81,-65.7481 1279.58,-68.4835 1289.28,-72.7281 1289.81,-65.7481"/>
</g>
<!-- Node11 -->
<g id="node11" class="node"><title>Node11</title>
<g id="a_node11"><a xlink:href="../../db/db1/_gui_base_8h.html" target="_top" xlink:title=" ">
<polygon fill="white" stroke="black" points="66,-224.5 66,-243.5 128,-243.5 128,-224.5 66,-224.5"/>
<text text-anchor="middle" x="97" y="-231.5" font-family="Helvetica,sans-Serif" font-size="10.00">GuiBase.h</text>
</a>
</g>
</g>
<!-- Node10&#45;&gt;Node11 -->
<g id="edge10" class="edge"><title>Node10&#45;&gt;Node11</title>
<path fill="none" stroke="midnightblue" d="M222.36,-342.972C190.919,-339.278 144.106,-328.924 116,-300 104.104,-287.758 99.5905,-268.495 97.9115,-254.112"/>
<polygon fill="midnightblue" stroke="midnightblue" points="101.377,-253.538 97.0859,-243.851 94.3992,-254.099 101.377,-253.538"/>
</g>
<!-- Node22 -->
<g id="node22" class="node"><title>Node22</title>
<g id="a_node22"><a xlink:title=" ">
<polygon fill="white" stroke="#bfbfbf" points="233,-56.5 233,-75.5 275,-75.5 275,-56.5 233,-56.5"/>
<text text-anchor="middle" x="254" y="-63.5" font-family="Helvetica,sans-Serif" font-size="10.00">vector</text>
</a>
</g>
</g>
<!-- Node10&#45;&gt;Node22 -->
<g id="edge66" class="edge"><title>Node10&#45;&gt;Node22</title>
<path fill="none" stroke="midnightblue" d="M222.042,-343.104C161.337,-337.644 38,-316.518 38,-235 38,-235 38,-235 38,-177 38,-135.926 163.593,-93.5327 223.242,-75.7146"/>
<polygon fill="midnightblue" stroke="midnightblue" points="224.291,-79.0547 232.896,-72.874 222.314,-72.3394 224.291,-79.0547"/>
</g>
<!-- Node23 -->
<g id="node23" class="node"><title>Node23</title>
<g id="a_node23"><a xlink:href="../../d8/dc0/_gui_text_character_8h.html" target="_top" xlink:title=" ">
<polygon fill="white" stroke="black" points="125.5,-280.5 125.5,-299.5 226.5,-299.5 226.5,-280.5 125.5,-280.5"/>
<text text-anchor="middle" x="176" y="-287.5" font-family="Helvetica,sans-Serif" font-size="10.00">GuiTextCharacter.h</text>
</a>
</g>
</g>
<!-- Node10&#45;&gt;Node23 -->
<g id="edge31" class="edge"><title>Node10&#45;&gt;Node23</title>
<path fill="none" stroke="midnightblue" d="M242.307,-336.324C230.099,-327.979 211.422,-315.212 196.997,-305.352"/>
<polygon fill="midnightblue" stroke="midnightblue" points="198.892,-302.408 188.661,-299.655 194.942,-308.187 198.892,-302.408"/>
</g>
<!-- Node35 -->
<g id="node35" class="node"><title>Node35</title>
<g id="a_node35"><a xlink:href="../../d8/de2/_text_map_8h.html" target="_top" xlink:title=" ">
<polygon fill="white" stroke="black" points="184,-224.5 184,-243.5 246,-243.5 246,-224.5 184,-224.5"/>
<text text-anchor="middle" x="215" y="-231.5" font-family="Helvetica,sans-Serif" font-size="10.00">TextMap.h</text>
</a>
</g>
</g>
<!-- Node10&#45;&gt;Node35 -->
<g id="edge57" class="edge"><title>Node10&#45;&gt;Node35</title>
<path fill="none" stroke="midnightblue" d="M252.729,-336.477C249.314,-323.952 242.454,-299.902 235,-280 231.627,-270.993 227.356,-261.212 223.628,-253.077"/>
<polygon fill="midnightblue" stroke="midnightblue" points="226.712,-251.409 219.304,-243.834 220.371,-254.375 226.712,-251.409"/>
</g>
<!-- Node37 -->
<g id="node37" class="node"><title>Node37</title>
<g id="a_node37"><a xlink:title=" ">
<polygon fill="white" stroke="#bfbfbf" points="283,-280.5 283,-299.5 357,-299.5 357,-280.5 283,-280.5"/>
<text text-anchor="middle" x="320" y="-287.5" font-family="Helvetica,sans-Serif" font-size="10.00">glm/vec2.hpp</text>
</a>
</g>
</g>
<!-- Node10&#45;&gt;Node37 -->
<g id="edge64" class="edge"><title>Node10&#45;&gt;Node37</title>
<path fill="none" stroke="midnightblue" d="M265.443,-336.324C275.146,-328.263 289.815,-316.077 301.5,-306.369"/>
<polygon fill="midnightblue" stroke="midnightblue" points="303.911,-308.916 309.367,-299.834 299.438,-303.532 303.911,-308.916"/>
</g>
<!-- Node11&#45;&gt;Node3 -->
<g id="edge30" class="edge"><title>Node11&#45;&gt;Node3</title>
<path fill="none" stroke="midnightblue" d="M85.7344,-224.427C76.0337,-216.275 62.7207,-203.046 57,-188 36.179,-133.236 56.613,-62.5201 68.6199,-29.5072"/>
<polygon fill="midnightblue" stroke="midnightblue" points="72.0151,-30.4255 72.2969,-19.8344 65.4719,-27.9381 72.0151,-30.4255"/>
</g>
<!-- Node12 -->
<g id="node12" class="node"><title>Node12</title>
<g id="a_node12"><a xlink:href="../../d8/d34/_shader_8h.html" target="_top" xlink:title=" ">
<polygon fill="white" stroke="black" points="501,-168.5 501,-187.5 557,-187.5 557,-168.5 501,-168.5"/>
<text text-anchor="middle" x="529" y="-175.5" font-family="Helvetica,sans-Serif" font-size="10.00">Shader.h</text>
</a>
</g>
</g>
<!-- Node11&#45;&gt;Node12 -->
<g id="edge11" class="edge"><title>Node11&#45;&gt;Node12</title>
<path fill="none" stroke="midnightblue" d="M128.068,-229.116C205.42,-219.448 406.457,-194.318 490.835,-183.771"/>
<polygon fill="midnightblue" stroke="midnightblue" points="491.279,-187.242 500.767,-182.529 490.41,-180.297 491.279,-187.242"/>
</g>
<!-- Node12&#45;&gt;Node2 -->
<g id="edge12" class="edge"><title>Node12&#45;&gt;Node2</title>
<path fill="none" stroke="midnightblue" d="M500.732,-173.175C457.947,-166.967 374.474,-153.213 306,-132 260.18,-117.805 209.362,-94.6422 179.352,-80.1405"/>
<polygon fill="midnightblue" stroke="midnightblue" points="180.531,-76.8215 170.009,-75.58 177.461,-83.112 180.531,-76.8215"/>
</g>
<!-- Node12&#45;&gt;Node7 -->
<g id="edge26" class="edge"><title>Node12&#45;&gt;Node7</title>
<path fill="none" stroke="midnightblue" d="M529.071,-168.134C529.669,-154.271 532.861,-127.453 548,-112 573.037,-86.4444 612.417,-75.3588 643.517,-70.5719"/>
<polygon fill="midnightblue" stroke="midnightblue" points="644.281,-74.0002 653.715,-69.1782 643.333,-67.0647 644.281,-74.0002"/>
</g>
<!-- Node12&#45;&gt;Node9 -->
<g id="edge28" class="edge"><title>Node12&#45;&gt;Node9</title>
<path fill="none" stroke="midnightblue" d="M557.174,-177.409C624.875,-177.648 801.434,-173.849 941,-132 959.659,-126.405 961.441,-117.919 980,-112 1083.51,-78.9879 1117.87,-98.9241 1228.57,-75.7412"/>
<polygon fill="midnightblue" stroke="midnightblue" points="1229.42,-79.1395 1238.45,-73.6019 1227.93,-72.2981 1229.42,-79.1395"/>
</g>
<!-- Node13 -->
<g id="node13" class="node"><title>Node13</title>
<g id="a_node13"><a xlink:href="../../d0/d4b/_debug_8h.html" target="_top" xlink:title=" ">
<polygon fill="white" stroke="black" points="989.5,-112.5 989.5,-131.5 1042.5,-131.5 1042.5,-112.5 989.5,-112.5"/>
<text text-anchor="middle" x="1016" y="-119.5" font-family="Helvetica,sans-Serif" font-size="10.00">Debug.h</text>
</a>
</g>
</g>
<!-- Node12&#45;&gt;Node13 -->
<g id="edge13" class="edge"><title>Node12&#45;&gt;Node13</title>
<path fill="none" stroke="midnightblue" d="M557.065,-175.299C627.63,-170.778 818.033,-157.061 975,-132 976.295,-131.793 977.611,-131.571 978.938,-131.337"/>
<polygon fill="midnightblue" stroke="midnightblue" points="980.027,-134.691 989.178,-129.353 978.695,-127.819 980.027,-134.691"/>
</g>
<!-- Node14 -->
<g id="node14" class="node"><title>Node14</title>
<g id="a_node14"><a xlink:href="../../d5/d31/_lights_8h.html" target="_top" xlink:title=" ">
<polygon fill="white" stroke="black" points="665.5,-112.5 665.5,-131.5 716.5,-131.5 716.5,-112.5 665.5,-112.5"/>
<text text-anchor="middle" x="691" y="-119.5" font-family="Helvetica,sans-Serif" font-size="10.00">Lights.h</text>
</a>
</g>
</g>
<!-- Node12&#45;&gt;Node14 -->
<g id="edge14" class="edge"><title>Node12&#45;&gt;Node14</title>
<path fill="none" stroke="midnightblue" d="M554.669,-168.444C581.923,-159.359 625.184,-144.939 655.651,-134.783"/>
<polygon fill="midnightblue" stroke="midnightblue" points="657.071,-137.999 665.451,-131.516 654.857,-131.358 657.071,-137.999"/>
</g>
<!-- Node15 -->
<g id="node15" class="node"><title>Node15</title>
<g id="a_node15"><a xlink:href="../../d3/d09/_material_8h.html" target="_top" xlink:title=" ">
<polygon fill="white" stroke="black" points="362.5,-112.5 362.5,-131.5 421.5,-131.5 421.5,-112.5 362.5,-112.5"/>
<text text-anchor="middle" x="392" y="-119.5" font-family="Helvetica,sans-Serif" font-size="10.00">Material.h</text>
</a>
</g>
</g>
<!-- Node12&#45;&gt;Node15 -->
<g id="edge16" class="edge"><title>Node12&#45;&gt;Node15</title>
<path fill="none" stroke="midnightblue" d="M507.292,-168.444C484.645,-159.517 448.928,-145.439 423.248,-135.317"/>
<polygon fill="midnightblue" stroke="midnightblue" points="424.193,-131.927 413.606,-131.516 421.626,-138.44 424.193,-131.927"/>
</g>
<!-- Node16 -->
<g id="node16" class="node"><title>Node16</title>
<g id="a_node16"><a xlink:href="../../d4/d4a/_settings_8h.html" target="_top" xlink:title=" ">
<polygon fill="white" stroke="black" points="439.5,-112.5 439.5,-131.5 500.5,-131.5 500.5,-112.5 439.5,-112.5"/>
<text text-anchor="middle" x="470" y="-119.5" font-family="Helvetica,sans-Serif" font-size="10.00">Settings.h</text>
</a>
</g>
</g>
<!-- Node12&#45;&gt;Node16 -->
<g id="edge19" class="edge"><title>Node12&#45;&gt;Node16</title>
<path fill="none" stroke="midnightblue" d="M519.521,-168.324C510.799,-160.341 497.657,-148.313 487.102,-138.653"/>
<polygon fill="midnightblue" stroke="midnightblue" points="489.392,-136.004 479.652,-131.834 484.666,-141.167 489.392,-136.004"/>
</g>
<!-- Node17 -->
<g id="node17" class="node"><title>Node17</title>
<g id="a_node17"><a xlink:href="../../d2/d06/_shaders_8h.html" target="_top" xlink:title=" ">
<polygon fill="white" stroke="black" points="871.5,-112.5 871.5,-131.5 932.5,-131.5 932.5,-112.5 871.5,-112.5"/>
<text text-anchor="middle" x="902" y="-119.5" font-family="Helvetica,sans-Serif" font-size="10.00">Shaders.h</text>
</a>
</g>
</g>
<!-- Node12&#45;&gt;Node17 -->
<g id="edge20" class="edge"><title>Node12&#45;&gt;Node17</title>
<path fill="none" stroke="midnightblue" d="M557.168,-173.724C614.017,-166.982 746.475,-150.616 857,-132 858.282,-131.784 859.583,-131.559 860.895,-131.327"/>
<polygon fill="midnightblue" stroke="midnightblue" points="861.865,-134.707 871.061,-129.446 860.591,-127.824 861.865,-134.707"/>
</g>
<!-- Node18 -->
<g id="node18" class="node"><title>Node18</title>
<g id="a_node18"><a xlink:title=" ">
<polygon fill="white" stroke="#bfbfbf" points="874,-56.5 874,-75.5 934,-75.5 934,-56.5 874,-56.5"/>
<text text-anchor="middle" x="904" y="-63.5" font-family="Helvetica,sans-Serif" font-size="10.00">GL/glew.h</text>
</a>
</g>
</g>
<!-- Node12&#45;&gt;Node18 -->
<g id="edge23" class="edge"><title>Node12&#45;&gt;Node18</title>
<path fill="none" stroke="midnightblue" d="M557.193,-177.521C611.33,-177.502 732.573,-172.483 824,-132 849.68,-120.629 873.939,-98.7719 888.869,-83.5586"/>
<polygon fill="midnightblue" stroke="midnightblue" points="891.798,-85.5575 896.154,-75.8991 886.726,-80.7335 891.798,-85.5575"/>
</g>
<!-- Node19 -->
<g id="node19" class="node"><title>Node19</title>
<g id="a_node19"><a xlink:title=" ">
<polygon fill="white" stroke="#bfbfbf" points="443,-56.5 443,-75.5 499,-75.5 499,-56.5 443,-56.5"/>
<text text-anchor="middle" x="471" y="-63.5" font-family="Helvetica,sans-Serif" font-size="10.00">algorithm</text>
</a>
</g>
</g>
<!-- Node12&#45;&gt;Node19 -->
<g id="edge24" class="edge"><title>Node12&#45;&gt;Node19</title>
<path fill="none" stroke="midnightblue" d="M500.754,-173.943C455.747,-168.425 370.989,-155.167 353,-132 328.433,-100.361 389.553,-81.9628 432.703,-73.2502"/>
<polygon fill="midnightblue" stroke="midnightblue" points="433.518,-76.6579 442.681,-71.3397 432.202,-69.7828 433.518,-76.6579"/>
</g>
<!-- Node20 -->
<g id="node20" class="node"><title>Node20</title>
<g id="a_node20"><a xlink:title=" ">
<polygon fill="white" stroke="#bfbfbf" points="180.5,-112.5 180.5,-131.5 229.5,-131.5 229.5,-112.5 180.5,-112.5"/>
<text text-anchor="middle" x="205" y="-119.5" font-family="Helvetica,sans-Serif" font-size="10.00">fstream</text>
</a>
</g>
</g>
<!-- Node12&#45;&gt;Node20 -->
<g id="edge25" class="edge"><title>Node12&#45;&gt;Node20</title>
<path fill="none" stroke="midnightblue" d="M500.973,-173.24C449.754,-166.222 337.678,-150.181 244,-132 242.55,-131.719 241.073,-131.422 239.582,-131.115"/>
<polygon fill="midnightblue" stroke="midnightblue" points="240.216,-127.671 229.702,-128.976 238.735,-134.512 240.216,-127.671"/>
</g>
<!-- Node21 -->
<g id="node21" class="node"><title>Node21</title>
<g id="a_node21"><a xlink:title=" ">
<polygon fill="white" stroke="#bfbfbf" points="557,-112.5 557,-131.5 609,-131.5 609,-112.5 557,-112.5"/>
<text text-anchor="middle" x="583" y="-119.5" font-family="Helvetica,sans-Serif" font-size="10.00">sstream</text>
</a>
</g>
</g>
<!-- Node12&#45;&gt;Node21 -->
<g id="edge27" class="edge"><title>Node12&#45;&gt;Node21</title>
<path fill="none" stroke="midnightblue" d="M537.917,-168.083C545.78,-160.22 557.431,-148.569 566.919,-139.081"/>
<polygon fill="midnightblue" stroke="midnightblue" points="569.653,-141.297 574.249,-131.751 564.703,-136.347 569.653,-141.297"/>
</g>
<!-- Node12&#45;&gt;Node22 -->
<g id="edge29" class="edge"><title>Node12&#45;&gt;Node22</title>
<path fill="none" stroke="midnightblue" d="M500.934,-173.61C463.692,-168.356 396.53,-156.222 344,-132 316.023,-119.1 287.895,-96.9679 270.712,-82.1621"/>
<polygon fill="midnightblue" stroke="midnightblue" points="273.024,-79.5343 263.205,-75.5549 268.4,-84.789 273.024,-79.5343"/>
</g>
<!-- Node14&#45;&gt;Node7 -->
<g id="edge15" class="edge"><title>Node14&#45;&gt;Node7</title>
<path fill="none" stroke="midnightblue" d="M691,-112.083C691,-105.006 691,-94.8611 691,-85.9865"/>
<polygon fill="midnightblue" stroke="midnightblue" points="694.5,-85.751 691,-75.7511 687.5,-85.7511 694.5,-85.751"/>
</g>
<!-- Node15&#45;&gt;Node2 -->
<g id="edge17" class="edge"><title>Node15&#45;&gt;Node2</title>
<path fill="none" stroke="midnightblue" d="M362.214,-114.27C321.559,-105.084 248.258,-88.5228 200.112,-77.6446"/>
<polygon fill="midnightblue" stroke="midnightblue" points="200.767,-74.2043 190.241,-75.4143 199.224,-81.0322 200.767,-74.2043"/>
</g>
<!-- Node15&#45;&gt;Node7 -->
<g id="edge18" class="edge"><title>Node15&#45;&gt;Node7</title>
<path fill="none" stroke="midnightblue" d="M421.832,-113.751C424.589,-113.136 427.343,-112.543 430,-112 504.332,-96.8048 591.27,-82.5033 643.685,-74.2558"/>
<polygon fill="midnightblue" stroke="midnightblue" points="644.356,-77.6935 653.694,-72.6885 643.273,-70.7778 644.356,-77.6935"/>
</g>
<!-- Node17&#45;&gt;Node9 -->
<g id="edge22" class="edge"><title>Node17&#45;&gt;Node9</title>
<path fill="none" stroke="midnightblue" d="M932.933,-114.516C937.636,-113.616 942.44,-112.746 947,-112 1068.53,-92.1157 1103.63,-101.721 1228.51,-75.7512"/>
<polygon fill="midnightblue" stroke="midnightblue" points="1229.4,-79.1412 1238.46,-73.6479 1227.95,-72.2927 1229.4,-79.1412"/>
</g>
<!-- Node17&#45;&gt;Node18 -->
<g id="edge21" class="edge"><title>Node17&#45;&gt;Node18</title>
<path fill="none" stroke="midnightblue" d="M902.33,-112.083C902.592,-105.006 902.968,-94.8611 903.297,-85.9865"/>
<polygon fill="midnightblue" stroke="midnightblue" points="906.803,-85.8738 903.676,-75.7511 899.808,-85.6147 906.803,-85.8738"/>
</g>
<!-- Node24 -->
<g id="node24" class="node"><title>Node24</title>
<g id="a_node24"><a xlink:href="../../d3/d67/_glyph_8h.html" target="_top" xlink:title=" ">
<polygon fill="white" stroke="black" points="66,-168.5 66,-187.5 116,-187.5 116,-168.5 66,-168.5"/>
<text text-anchor="middle" x="91" y="-175.5" font-family="Helvetica,sans-Serif" font-size="10.00">Glyph.h</text>
</a>
</g>
</g>
<!-- Node23&#45;&gt;Node24 -->
<g id="edge32" class="edge"><title>Node23&#45;&gt;Node24</title>
<path fill="none" stroke="midnightblue" d="M171.611,-280.131C164.997,-267.173 151.68,-242.591 137,-224 128.625,-213.394 117.893,-202.763 108.903,-194.499"/>
<polygon fill="midnightblue" stroke="midnightblue" points="111.036,-191.711 101.253,-187.644 106.364,-196.924 111.036,-191.711"/>
</g>
<!-- Node25 -->
<g id="node25" class="node"><title>Node25</title>
<g id="a_node25"><a xlink:href="../../db/dc0/_quad_8h.html" target="_top" xlink:title=" ">
<polygon fill="white" stroke="black" points="1056,-224.5 1056,-243.5 1104,-243.5 1104,-224.5 1056,-224.5"/>
<text text-anchor="middle" x="1080" y="-231.5" font-family="Helvetica,sans-Serif" font-size="10.00">Quad.h</text>
</a>
</g>
</g>
<!-- Node23&#45;&gt;Node25 -->
<g id="edge34" class="edge"><title>Node23&#45;&gt;Node25</title>
<path fill="none" stroke="midnightblue" d="M226.583,-284.006C241.814,-282.596 258.58,-281.138 274,-280 572.595,-257.961 934.137,-241.367 1045.62,-236.478"/>
<polygon fill="midnightblue" stroke="midnightblue" points="1046.07,-239.962 1055.91,-236.029 1045.77,-232.969 1046.07,-239.962"/>
</g>
<!-- Node24&#45;&gt;Node3 -->
<g id="edge33" class="edge"><title>Node24&#45;&gt;Node3</title>
<path fill="none" stroke="midnightblue" d="M90.1935,-168.075C87.8324,-141.945 80.8985,-65.2106 77.6786,-29.577"/>
<polygon fill="midnightblue" stroke="midnightblue" points="81.1601,-29.2125 76.7742,-19.5681 74.1885,-29.8425 81.1601,-29.2125"/>
</g>
<!-- Node25&#45;&gt;Node5 -->
<g id="edge35" class="edge"><title>Node25&#45;&gt;Node5</title>
<path fill="none" stroke="midnightblue" d="M1104.06,-232.395C1174.96,-230.243 1381.65,-221.202 1439,-188 1457.86,-177.081 1471.78,-155.729 1479.87,-140.476"/>
<polygon fill="midnightblue" stroke="midnightblue" points="1483.01,-142.017 1484.33,-131.505 1476.74,-138.898 1483.01,-142.017"/>
</g>
<!-- Node25&#45;&gt;Node12 -->
<g id="edge36" class="edge"><title>Node25&#45;&gt;Node12</title>
<path fill="none" stroke="midnightblue" d="M1055.97,-230.645C969.46,-222.167 673.43,-193.155 567.272,-182.751"/>
<polygon fill="midnightblue" stroke="midnightblue" points="567.316,-179.238 557.022,-181.746 566.633,-186.205 567.316,-179.238"/>
</g>
<!-- Node25&#45;&gt;Node17 -->
<g id="edge37" class="edge"><title>Node25&#45;&gt;Node17</title>
<path fill="none" stroke="midnightblue" d="M1058.54,-224.456C1038.82,-216.227 1009.07,-202.867 985,-188 960.867,-173.092 935.534,-152.411 919.299,-138.411"/>
<polygon fill="midnightblue" stroke="midnightblue" points="921.526,-135.709 911.692,-131.765 916.92,-140.981 921.526,-135.709"/>
</g>
<!-- Node25&#45;&gt;Node18 -->
<g id="edge54" class="edge"><title>Node25&#45;&gt;Node18</title>
<path fill="none" stroke="midnightblue" d="M1079.78,-224.29C1079.93,-210.143 1082.47,-182.318 1099,-168 1186.05,-92.5928 1429.75,-196.963 1352,-112 1321.5,-78.6705 991.687,-82.6391 947,-76 946.236,-75.8865 945.465,-75.7679 944.69,-75.6448"/>
<polygon fill="midnightblue" stroke="midnightblue" points="944.914,-72.1304 934.458,-73.8371 943.696,-79.0236 944.914,-72.1304"/>
</g>
<!-- Node26 -->
<g id="node26" class="node"><title>Node26</title>
<g id="a_node26"><a xlink:href="../../de/dbf/_texture_8h.html" target="_top" xlink:title=" ">
<polygon fill="white" stroke="black" points="994.5,-168.5 994.5,-187.5 1051.5,-187.5 1051.5,-168.5 994.5,-168.5"/>
<text text-anchor="middle" x="1023" y="-175.5" font-family="Helvetica,sans-Serif" font-size="10.00">Texture.h</text>
</a>
</g>
</g>
<!-- Node25&#45;&gt;Node26 -->
<g id="edge38" class="edge"><title>Node25&#45;&gt;Node26</title>
<path fill="none" stroke="midnightblue" d="M1070.84,-224.324C1062.5,-216.42 1049.97,-204.548 1039.82,-194.938"/>
<polygon fill="midnightblue" stroke="midnightblue" points="1041.99,-192.171 1032.32,-187.834 1037.18,-197.252 1041.99,-192.171"/>
</g>
<!-- Node32 -->
<g id="node32" class="node"><title>Node32</title>
<g id="a_node32"><a xlink:href="../../db/d56/_transform_8h.html" target="_top" xlink:title=" ">
<polygon fill="white" stroke="black" points="1362,-168.5 1362,-187.5 1430,-187.5 1430,-168.5 1362,-168.5"/>
<text text-anchor="middle" x="1396" y="-175.5" font-family="Helvetica,sans-Serif" font-size="10.00">Transform.h</text>
</a>
</g>
</g>
<!-- Node25&#45;&gt;Node32 -->
<g id="edge52" class="edge"><title>Node25&#45;&gt;Node32</title>
<path fill="none" stroke="midnightblue" d="M1104.16,-229.374C1150.27,-222.379 1254.19,-206.246 1351.73,-188.174"/>
<polygon fill="midnightblue" stroke="midnightblue" points="1352.57,-191.578 1361.76,-186.305 1351.29,-184.697 1352.57,-191.578"/>
</g>
<!-- Node33 -->
<g id="node33" class="node"><title>Node33</title>
<g id="a_node33"><a xlink:title=" ">
<polygon fill="white" stroke="#bfbfbf" points="1108,-168.5 1108,-187.5 1214,-187.5 1214,-168.5 1108,-168.5"/>
<text text-anchor="middle" x="1161" y="-175.5" font-family="Helvetica,sans-Serif" font-size="10.00">glm/gtc/type_ptr.hpp</text>
</a>
</g>
</g>
<!-- Node25&#45;&gt;Node33 -->
<g id="edge55" class="edge"><title>Node25&#45;&gt;Node33</title>
<path fill="none" stroke="midnightblue" d="M1093.01,-224.324C1105.53,-215.979 1124.68,-203.212 1139.47,-193.352"/>
<polygon fill="midnightblue" stroke="midnightblue" points="1141.64,-196.114 1148.02,-187.655 1137.76,-190.289 1141.64,-196.114"/>
</g>
<!-- Node34 -->
<g id="node34" class="node"><title>Node34</title>
<g id="a_node34"><a xlink:title=" ">
<polygon fill="white" stroke="#bfbfbf" points="1232.5,-168.5 1232.5,-187.5 1343.5,-187.5 1343.5,-168.5 1232.5,-168.5"/>
<text text-anchor="middle" x="1288" y="-175.5" font-family="Helvetica,sans-Serif" font-size="10.00">glm/gtx/transform.hpp</text>
</a>
</g>
</g>
<!-- Node25&#45;&gt;Node34 -->
<g id="edge56" class="edge"><title>Node25&#45;&gt;Node34</title>
<path fill="none" stroke="midnightblue" d="M1104.27,-226.7C1138.79,-217.737 1202.62,-201.167 1245.2,-190.112"/>
<polygon fill="midnightblue" stroke="midnightblue" points="1246.2,-193.467 1255,-187.567 1244.44,-186.692 1246.2,-193.467"/>
</g>
<!-- Node26&#45;&gt;Node9 -->
<g id="edge44" class="edge"><title>Node26&#45;&gt;Node9</title>
<path fill="none" stroke="midnightblue" d="M1051.74,-172.72C1107.53,-164.173 1226.22,-144.723 1240,-132 1252.68,-120.296 1257.06,-100.648 1258.5,-86.0112"/>
<polygon fill="midnightblue" stroke="midnightblue" points="1262.02,-85.7852 1259.12,-75.5949 1255.03,-85.3693 1262.02,-85.7852"/>
</g>
<!-- Node26&#45;&gt;Node13 -->
<g id="edge45" class="edge"><title>Node26&#45;&gt;Node13</title>
<path fill="none" stroke="midnightblue" d="M1021.84,-168.083C1020.92,-160.927 1019.58,-150.635 1018.42,-141.691"/>
<polygon fill="midnightblue" stroke="midnightblue" points="1021.89,-141.218 1017.13,-131.751 1014.95,-142.118 1021.89,-141.218"/>
</g>
<!-- Node26&#45;&gt;Node18 -->
<g id="edge39" class="edge"><title>Node26&#45;&gt;Node18</title>
<path fill="none" stroke="midnightblue" d="M1051.63,-170.71C1056.41,-169.743 1061.34,-168.802 1066,-168 1185.06,-147.51 1413.35,-201.316 1332,-112 1303.07,-80.2368 989.483,-82.4112 947,-76 946.236,-75.8848 945.466,-75.7646 944.69,-75.64"/>
<polygon fill="midnightblue" stroke="midnightblue" points="944.919,-72.1258 934.461,-73.8196 943.693,-79.0175 944.919,-72.1258"/>
</g>
<!-- Node26&#45;&gt;Node19 -->
<g id="edge42" class="edge"><title>Node26&#45;&gt;Node19</title>
<path fill="none" stroke="midnightblue" d="M994.178,-176.968C931.28,-176.148 777.608,-170.05 656,-132 637.786,-126.301 635.647,-119.27 618,-112 581.86,-97.1121 538.964,-84.5315 508.867,-76.4905"/>
<polygon fill="midnightblue" stroke="midnightblue" points="509.741,-73.1013 499.179,-73.9407 507.959,-79.8708 509.741,-73.1013"/>
</g>
<!-- Node27 -->
<g id="node27" class="node"><title>Node27</title>
<g id="a_node27"><a xlink:title=" ">
<polygon fill="white" stroke="#bfbfbf" points="1060.5,-112.5 1060.5,-131.5 1135.5,-131.5 1135.5,-112.5 1060.5,-112.5"/>
<text text-anchor="middle" x="1098" y="-119.5" font-family="Helvetica,sans-Serif" font-size="10.00">SDL_image.h</text>
</a>
</g>
</g>
<!-- Node26&#45;&gt;Node27 -->
<g id="edge40" class="edge"><title>Node26&#45;&gt;Node27</title>
<path fill="none" stroke="midnightblue" d="M1035.05,-168.324C1046.46,-160.107 1063.83,-147.602 1077.43,-137.807"/>
<polygon fill="midnightblue" stroke="midnightblue" points="1079.66,-140.517 1085.73,-131.834 1075.57,-134.837 1079.66,-140.517"/>
</g>
<!-- Node28 -->
<g id="node28" class="node"><title>Node28</title>
<g id="a_node28"><a xlink:title=" ">
<polygon fill="white" stroke="#bfbfbf" points="1153.5,-112.5 1153.5,-131.5 1230.5,-131.5 1230.5,-112.5 1153.5,-112.5"/>
<text text-anchor="middle" x="1192" y="-119.5" font-family="Helvetica,sans-Serif" font-size="10.00">SDL_opengl.h</text>
</a>
</g>
</g>
<!-- Node26&#45;&gt;Node28 -->
<g id="edge41" class="edge"><title>Node26&#45;&gt;Node28</title>
<path fill="none" stroke="midnightblue" d="M1049.78,-168.444C1078.33,-159.32 1123.73,-144.813 1155.54,-134.651"/>
<polygon fill="midnightblue" stroke="midnightblue" points="1156.89,-137.894 1165.35,-131.516 1154.76,-131.226 1156.89,-137.894"/>
</g>
<!-- Node29 -->
<g id="node29" class="node"><title>Node29</title>
<g id="a_node29"><a xlink:title=" ">
<polygon fill="white" stroke="#bfbfbf" points="1287.5,-112.5 1287.5,-131.5 1322.5,-131.5 1322.5,-112.5 1287.5,-112.5"/>
<text text-anchor="middle" x="1305" y="-119.5" font-family="Helvetica,sans-Serif" font-size="10.00">map</text>
</a>
</g>
</g>
<!-- Node26&#45;&gt;Node29 -->
<g id="edge43" class="edge"><title>Node26&#45;&gt;Node29</title>
<path fill="none" stroke="midnightblue" d="M1051.65,-170.861C1056.44,-169.876 1061.36,-168.89 1066,-168 1157.71,-150.432 1181.94,-152.668 1273,-132 1274.48,-131.665 1275.99,-131.304 1277.51,-130.925"/>
<polygon fill="midnightblue" stroke="midnightblue" points="1278.71,-134.227 1287.48,-128.276 1276.91,-127.462 1278.71,-134.227"/>
</g>
<!-- Node30 -->
<g id="node30" class="node"><title>Node30</title>
<g id="a_node30"><a xlink:href="../../d7/d26/_helping_hand_8h.html" target="_top" xlink:title=" ">
<polygon fill="white" stroke="black" points="735,-112.5 735,-131.5 815,-131.5 815,-112.5 735,-112.5"/>
<text text-anchor="middle" x="775" y="-119.5" font-family="Helvetica,sans-Serif" font-size="10.00">HelpingHand.h</text>
</a>
</g>
</g>
<!-- Node26&#45;&gt;Node30 -->
<g id="edge46" class="edge"><title>Node26&#45;&gt;Node30</title>
<path fill="none" stroke="midnightblue" d="M994.066,-170.7C952.38,-161.623 874.871,-144.746 824.119,-133.695"/>
<polygon fill="midnightblue" stroke="midnightblue" points="824.859,-130.274 814.343,-131.567 823.37,-137.114 824.859,-130.274"/>
</g>
<!-- Node30&#45;&gt;Node6 -->
<g id="edge47" class="edge"><title>Node30&#45;&gt;Node6</title>
<path fill="none" stroke="midnightblue" d="M815.054,-115.323C879.363,-106.208 1006.48,-88.1923 1086.02,-76.9185"/>
<polygon fill="midnightblue" stroke="midnightblue" points="1086.55,-80.3789 1095.96,-75.5102 1085.56,-73.4482 1086.55,-80.3789"/>
</g>
<!-- Node30&#45;&gt;Node7 -->
<g id="edge50" class="edge"><title>Node30&#45;&gt;Node7</title>
<path fill="none" stroke="midnightblue" d="M761.504,-112.324C748.4,-103.9 728.288,-90.9709 712.893,-81.0741"/>
<polygon fill="midnightblue" stroke="midnightblue" points="714.767,-78.118 704.463,-75.6545 710.982,-84.0063 714.767,-78.118"/>
</g>
<!-- Node30&#45;&gt;Node19 -->
<g id="edge48" class="edge"><title>Node30&#45;&gt;Node19</title>
<path fill="none" stroke="midnightblue" d="M734.885,-113.769C731.541,-113.17 728.213,-112.574 725,-112 648.445,-98.3286 558.878,-82.4992 509.176,-73.7298"/>
<polygon fill="midnightblue" stroke="midnightblue" points="509.65,-70.2595 499.194,-71.969 508.434,-77.1531 509.65,-70.2595"/>
</g>
<!-- Node30&#45;&gt;Node22 -->
<g id="edge51" class="edge"><title>Node30&#45;&gt;Node22</title>
<path fill="none" stroke="midnightblue" d="M734.929,-113.486C731.576,-112.949 728.233,-112.445 725,-112 560.179,-89.3322 361.339,-74.3649 285.479,-69.1021"/>
<polygon fill="midnightblue" stroke="midnightblue" points="285.414,-65.5895 275.198,-68.3963 284.934,-72.5731 285.414,-65.5895"/>
</g>
<!-- Node31 -->
<g id="node31" class="node"><title>Node31</title>
<g id="a_node31"><a xlink:title=" ">
<polygon fill="white" stroke="#bfbfbf" points="956,-56.5 956,-75.5 1072,-75.5 1072,-56.5 956,-56.5"/>
<text text-anchor="middle" x="1014" y="-63.5" font-family="Helvetica,sans-Serif" font-size="10.00">glm/gtc/quaternion.hpp</text>
</a>
</g>
</g>
<!-- Node30&#45;&gt;Node31 -->
<g id="edge49" class="edge"><title>Node30&#45;&gt;Node31</title>
<path fill="none" stroke="midnightblue" d="M812.87,-112.444C854.476,-103.043 921.369,-87.9291 966.469,-77.7393"/>
<polygon fill="midnightblue" stroke="midnightblue" points="967.324,-81.1343 976.307,-75.5164 965.781,-74.3064 967.324,-81.1343"/>
</g>
<!-- Node32&#45;&gt;Node31 -->
<g id="edge53" class="edge"><title>Node32&#45;&gt;Node31</title>
<path fill="none" stroke="midnightblue" d="M1400.65,-168.162C1407.21,-154.338 1416.92,-127.571 1403,-112 1355.31,-58.6461 1154.04,-84.6281 1083,-76 1082.78,-75.9736 1082.56,-75.9471 1082.35,-75.9206"/>
<polygon fill="midnightblue" stroke="midnightblue" points="1082.69,-72.437 1072.34,-74.6833 1081.84,-79.3841 1082.69,-72.437"/>
</g>
<!-- Node35&#45;&gt;Node22 -->
<g id="edge63" class="edge"><title>Node35&#45;&gt;Node22</title>
<path fill="none" stroke="midnightblue" d="M199.217,-224.467C186.797,-216.769 170.395,-204.179 163,-188 148.958,-157.279 145.179,-140.694 163,-112 176.026,-91.0274 202.043,-79.5331 222.934,-73.4238"/>
<polygon fill="midnightblue" stroke="midnightblue" points="223.926,-76.7816 232.698,-70.8393 222.135,-70.0146 223.926,-76.7816"/>
</g>
<!-- Node35&#45;&gt;Node24 -->
<g id="edge58" class="edge"><title>Node35&#45;&gt;Node24</title>
<path fill="none" stroke="midnightblue" d="M195.352,-224.444C175.035,-215.596 143.097,-201.687 119.902,-191.586"/>
<polygon fill="midnightblue" stroke="midnightblue" points="121.122,-188.3 110.556,-187.516 118.327,-194.718 121.122,-188.3"/>
</g>
<!-- Node35&#45;&gt;Node26 -->
<g id="edge62" class="edge"><title>Node35&#45;&gt;Node26</title>
<path fill="none" stroke="midnightblue" d="M246.179,-230.916C372.387,-222.482 845.217,-190.882 984.292,-181.587"/>
<polygon fill="midnightblue" stroke="midnightblue" points="984.726,-185.066 994.47,-180.907 984.259,-178.081 984.726,-185.066"/>
</g>
<!-- Node36 -->
<g id="node36" class="node"><title>Node36</title>
<g id="a_node36"><a xlink:href="../../d7/dcf/_serialization_8h.html" target="_top" xlink:title=" ">
<polygon fill="white" stroke="black" points="172,-168.5 172,-187.5 250,-187.5 250,-168.5 172,-168.5"/>
<text text-anchor="middle" x="211" y="-175.5" font-family="Helvetica,sans-Serif" font-size="10.00">Serialization.h</text>
</a>
</g>
</g>
<!-- Node35&#45;&gt;Node36 -->
<g id="edge59" class="edge"><title>Node35&#45;&gt;Node36</title>
<path fill="none" stroke="midnightblue" d="M214.339,-224.083C213.815,-217.006 213.064,-206.861 212.406,-197.986"/>
<polygon fill="midnightblue" stroke="midnightblue" points="215.877,-197.465 211.648,-187.751 208.897,-197.982 215.877,-197.465"/>
</g>
<!-- Node36&#45;&gt;Node19 -->
<g id="edge60" class="edge"><title>Node36&#45;&gt;Node19</title>
<path fill="none" stroke="midnightblue" d="M198.961,-168.427C182.119,-155.417 155.263,-130.273 171,-112 187.884,-92.3949 355.613,-76.3729 432.66,-69.9849"/>
<polygon fill="midnightblue" stroke="midnightblue" points="433.223,-73.4507 442.905,-69.1481 432.653,-66.4739 433.223,-73.4507"/>
</g>
<!-- Node36&#45;&gt;Node20 -->
<g id="edge61" class="edge"><title>Node36&#45;&gt;Node20</title>
<path fill="none" stroke="midnightblue" d="M210.009,-168.083C209.214,-160.927 208.071,-150.635 207.077,-141.691"/>
<polygon fill="midnightblue" stroke="midnightblue" points="210.555,-141.303 205.972,-131.751 203.598,-142.076 210.555,-141.303"/>
</g>
<!-- Node38&#45;&gt;Node5 -->
<g id="edge69" class="edge"><title>Node38&#45;&gt;Node5</title>
<path fill="none" stroke="midnightblue" d="M1540.04,-168.324C1530.87,-160.341 1517.06,-148.313 1505.97,-138.653"/>
<polygon fill="midnightblue" stroke="midnightblue" points="1507.98,-135.762 1498.14,-131.834 1503.38,-141.041 1507.98,-135.762"/>
</g>
<!-- Node38&#45;&gt;Node13 -->
<g id="edge68" class="edge"><title>Node38&#45;&gt;Node13</title>
<path fill="none" stroke="midnightblue" d="M1524.36,-174.933C1433.65,-167.587 1129.65,-142.689 1052.66,-131.878"/>
<polygon fill="midnightblue" stroke="midnightblue" points="1053.07,-128.4 1042.66,-130.328 1052,-135.318 1053.07,-128.4"/>
</g>
<!-- Node39 -->
<g id="node39" class="node"><title>Node39</title>
<g id="a_node39"><a xlink:title=" ">
<polygon fill="white" stroke="#bfbfbf" points="1539,-112.5 1539,-131.5 1583,-131.5 1583,-112.5 1539,-112.5"/>
<text text-anchor="middle" x="1561" y="-119.5" font-family="Helvetica,sans-Serif" font-size="10.00">SDL.h</text>
</a>
</g>
</g>
<!-- Node38&#45;&gt;Node39 -->
<g id="edge70" class="edge"><title>Node38&#45;&gt;Node39</title>
<path fill="none" stroke="midnightblue" d="M1551.82,-168.083C1553.27,-160.927 1555.37,-150.635 1557.19,-141.691"/>
<polygon fill="midnightblue" stroke="midnightblue" points="1560.65,-142.248 1559.22,-131.751 1553.79,-140.851 1560.65,-142.248"/>
</g>
</g>
</svg>
