<?xml version="1.0" encoding="UTF-8" standalone="no"?>
<!DOCTYPE svg PUBLIC "-//W3C//DTD SVG 1.1//EN"
 "http://www.w3.org/Graphics/SVG/1.1/DTD/svg11.dtd">
<!-- Generated by graphviz version 2.38.0 (20140413.2041)
 -->
<!-- Title: src/DebugDrawer.cpp Pages: 1 -->
<svg width="1737pt" height="364pt"
 viewBox="0.00 0.00 1737.41 364.00" xmlns="http://www.w3.org/2000/svg" xmlns:xlink="http://www.w3.org/1999/xlink">
<g id="graph0" class="graph" transform="scale(1 1) rotate(0) translate(4 360)">
<title>src/DebugDrawer.cpp</title>
<polygon fill="white" stroke="none" points="-4,4 -4,-360 1733.41,-360 1733.41,4 -4,4"/>
<!-- Node1 -->
<g id="node1" class="node"><title>Node1</title>
<g id="a_node1"><a xlink:title=" ">
<polygon fill="#bfbfbf" stroke="black" points="1391.5,-336.5 1391.5,-355.5 1501.5,-355.5 1501.5,-336.5 1391.5,-336.5"/>
<text text-anchor="middle" x="1446.5" y="-343.5" font-family="Helvetica,sans-Serif" font-size="10.00">src/DebugDrawer.cpp</text>
</a>
</g>
</g>
<!-- Node2 -->
<g id="node2" class="node"><title>Node2</title>
<g id="a_node2"><a xlink:href="../../d3/da2/_debug_drawer_8h.html" target="_top" xlink:title=" ">
<polygon fill="white" stroke="black" points="1405,-280.5 1405,-299.5 1488,-299.5 1488,-280.5 1405,-280.5"/>
<text text-anchor="middle" x="1446.5" y="-287.5" font-family="Helvetica,sans-Serif" font-size="10.00">DebugDrawer.h</text>
</a>
</g>
</g>
<!-- Node1&#45;&gt;Node2 -->
<g id="edge1" class="edge"><title>Node1&#45;&gt;Node2</title>
<path fill="none" stroke="midnightblue" d="M1446.5,-336.083C1446.5,-329.006 1446.5,-318.861 1446.5,-309.986"/>
<polygon fill="midnightblue" stroke="midnightblue" points="1450,-309.751 1446.5,-299.751 1443,-309.751 1450,-309.751"/>
</g>
<!-- Node3 -->
<g id="node3" class="node"><title>Node3</title>
<g id="a_node3"><a xlink:href="../../de/d50/_game_info_8h.html" target="_top" xlink:title=" ">
<polygon fill="white" stroke="black" points="545.5,-112.5 545.5,-131.5 611.5,-131.5 611.5,-112.5 545.5,-112.5"/>
<text text-anchor="middle" x="578.5" y="-119.5" font-family="Helvetica,sans-Serif" font-size="10.00">GameInfo.h</text>
</a>
</g>
</g>
<!-- Node2&#45;&gt;Node3 -->
<g id="edge2" class="edge"><title>Node2&#45;&gt;Node3</title>
<path fill="none" stroke="midnightblue" d="M1404.9,-285.785C1297,-276.825 999.816,-248.179 759.5,-188 704.67,-174.27 643.206,-150.274 607.858,-135.594"/>
<polygon fill="midnightblue" stroke="midnightblue" points="608.761,-132.178 598.186,-131.538 606.054,-138.633 608.761,-132.178"/>
</g>
<!-- Node8 -->
<g id="node8" class="node"><title>Node8</title>
<g id="a_node8"><a xlink:href="../../db/dcf/_locator_8h.html" target="_top" xlink:title=" ">
<polygon fill="white" stroke="black" points="1306,-224.5 1306,-243.5 1363,-243.5 1363,-224.5 1306,-224.5"/>
<text text-anchor="middle" x="1334.5" y="-231.5" font-family="Helvetica,sans-Serif" font-size="10.00">Locator.h</text>
</a>
</g>
</g>
<!-- Node2&#45;&gt;Node8 -->
<g id="edge7" class="edge"><title>Node2&#45;&gt;Node8</title>
<path fill="none" stroke="midnightblue" d="M1428.51,-280.324C1410.46,-271.625 1382.45,-258.12 1361.7,-248.113"/>
<polygon fill="midnightblue" stroke="midnightblue" points="1362.98,-244.845 1352.45,-243.655 1359.94,-251.15 1362.98,-244.845"/>
</g>
<!-- Node25 -->
<g id="node25" class="node"><title>Node25</title>
<g id="a_node25"><a xlink:title=" ">
<polygon fill="white" stroke="#bfbfbf" points="1283.5,-56.5 1283.5,-75.5 1325.5,-75.5 1325.5,-56.5 1283.5,-56.5"/>
<text text-anchor="middle" x="1304.5" y="-63.5" font-family="Helvetica,sans-Serif" font-size="10.00">vector</text>
</a>
</g>
</g>
<!-- Node2&#45;&gt;Node25 -->
<g id="edge55" class="edge"><title>Node2&#45;&gt;Node25</title>
<path fill="none" stroke="midnightblue" d="M1488.1,-287.46C1551.68,-284.162 1668.5,-274.072 1695.5,-244 1734.77,-200.268 1742.66,-155.827 1703.5,-112 1679.06,-84.652 1425.17,-71.8573 1335.59,-68.1697"/>
<polygon fill="midnightblue" stroke="midnightblue" points="1335.63,-64.669 1325.5,-67.7648 1335.35,-71.6633 1335.63,-64.669"/>
</g>
<!-- Node34 -->
<g id="node34" class="node"><title>Node34</title>
<g id="a_node34"><a xlink:title=" ">
<polygon fill="white" stroke="#bfbfbf" points="1426.5,-224.5 1426.5,-243.5 1562.5,-243.5 1562.5,-224.5 1426.5,-224.5"/>
<text text-anchor="middle" x="1494.5" y="-231.5" font-family="Helvetica,sans-Serif" font-size="10.00">LinearMath/btIDebugDraw.h</text>
</a>
</g>
</g>
<!-- Node2&#45;&gt;Node34 -->
<g id="edge53" class="edge"><title>Node2&#45;&gt;Node34</title>
<path fill="none" stroke="midnightblue" d="M1454.43,-280.083C1461.35,-272.298 1471.57,-260.801 1479.95,-251.367"/>
<polygon fill="midnightblue" stroke="midnightblue" points="1482.69,-253.55 1486.72,-243.751 1477.46,-248.9 1482.69,-253.55"/>
</g>
<!-- Node35 -->
<g id="node35" class="node"><title>Node35</title>
<g id="a_node35"><a xlink:title=" ">
<polygon fill="white" stroke="#bfbfbf" points="1580.5,-224.5 1580.5,-243.5 1686.5,-243.5 1686.5,-224.5 1580.5,-224.5"/>
<text text-anchor="middle" x="1633.5" y="-231.5" font-family="Helvetica,sans-Serif" font-size="10.00">glm/gtc/type_ptr.hpp</text>
</a>
</g>
</g>
<!-- Node2&#45;&gt;Node35 -->
<g id="edge54" class="edge"><title>Node2&#45;&gt;Node35</title>
<path fill="none" stroke="midnightblue" d="M1476.13,-280.444C1508,-271.241 1558.83,-256.562 1594.06,-246.388"/>
<polygon fill="midnightblue" stroke="midnightblue" points="1595.37,-249.653 1604.01,-243.516 1593.43,-242.928 1595.37,-249.653"/>
</g>
<!-- Node4 -->
<g id="node4" class="node"><title>Node4</title>
<g id="a_node4"><a xlink:title=" ">
<polygon fill="white" stroke="#bfbfbf" points="568,-56.5 568,-75.5 695,-75.5 695,-56.5 568,-56.5"/>
<text text-anchor="middle" x="631.5" y="-63.5" font-family="Helvetica,sans-Serif" font-size="10.00">LinearMath/btTransform.h</text>
</a>
</g>
</g>
<!-- Node3&#45;&gt;Node4 -->
<g id="edge3" class="edge"><title>Node3&#45;&gt;Node4</title>
<path fill="none" stroke="midnightblue" d="M587.252,-112.083C594.97,-104.22 606.405,-92.5688 615.717,-83.0813"/>
<polygon fill="midnightblue" stroke="midnightblue" points="618.404,-85.3396 622.911,-75.7511 613.408,-80.4363 618.404,-85.3396"/>
</g>
<!-- Node5 -->
<g id="node5" class="node"><title>Node5</title>
<g id="a_node5"><a xlink:title=" ">
<polygon fill="white" stroke="#bfbfbf" points="713.5,-56.5 713.5,-75.5 787.5,-75.5 787.5,-56.5 713.5,-56.5"/>
<text text-anchor="middle" x="750.5" y="-63.5" font-family="Helvetica,sans-Serif" font-size="10.00">glm/vec3.hpp</text>
</a>
</g>
</g>
<!-- Node3&#45;&gt;Node5 -->
<g id="edge4" class="edge"><title>Node3&#45;&gt;Node5</title>
<path fill="none" stroke="midnightblue" d="M605.754,-112.444C634.941,-103.28 681.421,-88.6876 713.809,-78.5192"/>
<polygon fill="midnightblue" stroke="midnightblue" points="714.881,-81.8512 723.374,-75.5164 712.784,-75.1726 714.881,-81.8512"/>
</g>
<!-- Node6 -->
<g id="node6" class="node"><title>Node6</title>
<g id="a_node6"><a xlink:title=" ">
<polygon fill="white" stroke="#bfbfbf" points="475.5,-56.5 475.5,-75.5 549.5,-75.5 549.5,-56.5 475.5,-56.5"/>
<text text-anchor="middle" x="512.5" y="-63.5" font-family="Helvetica,sans-Serif" font-size="10.00">glm/vec4.hpp</text>
</a>
</g>
</g>
<!-- Node3&#45;&gt;Node6 -->
<g id="edge5" class="edge"><title>Node3&#45;&gt;Node6</title>
<path fill="none" stroke="midnightblue" d="M567.896,-112.324C558.044,-104.263 543.149,-92.0765 531.285,-82.3695"/>
<polygon fill="midnightblue" stroke="midnightblue" points="533.253,-79.4575 523.297,-75.8339 528.82,-84.8752 533.253,-79.4575"/>
</g>
<!-- Node7 -->
<g id="node7" class="node"><title>Node7</title>
<g id="a_node7"><a xlink:title=" ">
<polygon fill="white" stroke="#bfbfbf" points="338,-56.5 338,-75.5 379,-75.5 379,-56.5 338,-56.5"/>
<text text-anchor="middle" x="358.5" y="-63.5" font-family="Helvetica,sans-Serif" font-size="10.00">string</text>
</a>
</g>
</g>
<!-- Node3&#45;&gt;Node7 -->
<g id="edge6" class="edge"><title>Node3&#45;&gt;Node7</title>
<path fill="none" stroke="midnightblue" d="M545.401,-113.782C509.305,-105.774 449.631,-92.1383 388.869,-75.973"/>
<polygon fill="midnightblue" stroke="midnightblue" points="389.676,-72.566 379.111,-73.3574 387.864,-79.3273 389.676,-72.566"/>
</g>
<!-- Node9 -->
<g id="node9" class="node"><title>Node9</title>
<g id="a_node9"><a xlink:href="../../d2/d94/_input_8h.html" target="_top" xlink:title=" ">
<polygon fill="white" stroke="black" points="1311.5,-168.5 1311.5,-187.5 1357.5,-187.5 1357.5,-168.5 1311.5,-168.5"/>
<text text-anchor="middle" x="1334.5" y="-175.5" font-family="Helvetica,sans-Serif" font-size="10.00">Input.h</text>
</a>
</g>
</g>
<!-- Node8&#45;&gt;Node9 -->
<g id="edge8" class="edge"><title>Node8&#45;&gt;Node9</title>
<path fill="none" stroke="midnightblue" d="M1334.5,-224.083C1334.5,-217.006 1334.5,-206.861 1334.5,-197.986"/>
<polygon fill="midnightblue" stroke="midnightblue" points="1338,-197.751 1334.5,-187.751 1331,-197.751 1338,-197.751"/>
</g>
<!-- Node13 -->
<g id="node13" class="node"><title>Node13</title>
<g id="a_node13"><a xlink:href="../../d8/d34/_shader_8h.html" target="_top" xlink:title=" ">
<polygon fill="white" stroke="black" points="768.5,-168.5 768.5,-187.5 824.5,-187.5 824.5,-168.5 768.5,-168.5"/>
<text text-anchor="middle" x="796.5" y="-175.5" font-family="Helvetica,sans-Serif" font-size="10.00">Shader.h</text>
</a>
</g>
</g>
<!-- Node8&#45;&gt;Node13 -->
<g id="edge13" class="edge"><title>Node8&#45;&gt;Node13</title>
<path fill="none" stroke="midnightblue" d="M1305.95,-230.135C1215.84,-221.09 937.333,-193.136 834.854,-182.85"/>
<polygon fill="midnightblue" stroke="midnightblue" points="834.952,-179.342 824.652,-181.826 834.252,-186.307 834.952,-179.342"/>
</g>
<!-- Node26 -->
<g id="node26" class="node"><title>Node26</title>
<g id="a_node26"><a xlink:href="../../d5/db0/_sound_8h.html" target="_top" xlink:title=" ">
<polygon fill="white" stroke="black" points="1445,-168.5 1445,-187.5 1498,-187.5 1498,-168.5 1445,-168.5"/>
<text text-anchor="middle" x="1471.5" y="-175.5" font-family="Helvetica,sans-Serif" font-size="10.00">Sound.h</text>
</a>
</g>
</g>
<!-- Node8&#45;&gt;Node26 -->
<g id="edge33" class="edge"><title>Node8&#45;&gt;Node26</title>
<path fill="none" stroke="midnightblue" d="M1356.21,-224.444C1378.85,-215.517 1414.57,-201.439 1440.25,-191.317"/>
<polygon fill="midnightblue" stroke="midnightblue" points="1441.87,-194.44 1449.89,-187.516 1439.31,-187.927 1441.87,-194.44"/>
</g>
<!-- Node30 -->
<g id="node30" class="node"><title>Node30</title>
<g id="a_node30"><a xlink:href="../../de/dbf/_texture_8h.html" target="_top" xlink:title=" ">
<polygon fill="white" stroke="black" points="261,-168.5 261,-187.5 318,-187.5 318,-168.5 261,-168.5"/>
<text text-anchor="middle" x="289.5" y="-175.5" font-family="Helvetica,sans-Serif" font-size="10.00">Texture.h</text>
</a>
</g>
</g>
<!-- Node8&#45;&gt;Node30 -->
<g id="edge44" class="edge"><title>Node8&#45;&gt;Node30</title>
<path fill="none" stroke="midnightblue" d="M1305.73,-231.514C1159.3,-223.946 497.042,-189.725 328.577,-181.019"/>
<polygon fill="midnightblue" stroke="midnightblue" points="328.597,-177.516 318.43,-180.495 328.236,-184.506 328.597,-177.516"/>
</g>
<!-- Node9&#45;&gt;Node3 -->
<g id="edge9" class="edge"><title>Node9&#45;&gt;Node3</title>
<path fill="none" stroke="midnightblue" d="M1311.3,-176.742C1222.95,-175.506 899.018,-168.683 622.001,-131.831"/>
<polygon fill="midnightblue" stroke="midnightblue" points="622.131,-128.317 611.753,-130.451 621.196,-135.254 622.131,-128.317"/>
</g>
<!-- Node10 -->
<g id="node10" class="node"><title>Node10</title>
<g id="a_node10"><a xlink:href="../../d9/db9/_unique_vectors_8h.html" target="_top" xlink:title=" ">
<polygon fill="white" stroke="black" points="1437,-112.5 1437,-131.5 1526,-131.5 1526,-112.5 1437,-112.5"/>
<text text-anchor="middle" x="1481.5" y="-119.5" font-family="Helvetica,sans-Serif" font-size="10.00">UniqueVectors.h</text>
</a>
</g>
</g>
<!-- Node9&#45;&gt;Node10 -->
<g id="edge10" class="edge"><title>Node9&#45;&gt;Node10</title>
<path fill="none" stroke="midnightblue" d="M1357.79,-168.444C1382.31,-159.438 1421.1,-145.189 1448.7,-135.049"/>
<polygon fill="midnightblue" stroke="midnightblue" points="1450.14,-138.25 1458.32,-131.516 1447.72,-131.679 1450.14,-138.25"/>
</g>
<!-- Node11 -->
<g id="node11" class="node"><title>Node11</title>
<g id="a_node11"><a xlink:title=" ">
<polygon fill="white" stroke="#bfbfbf" points="1282.5,-112.5 1282.5,-131.5 1356.5,-131.5 1356.5,-112.5 1282.5,-112.5"/>
<text text-anchor="middle" x="1319.5" y="-119.5" font-family="Helvetica,sans-Serif" font-size="10.00">glm/vec2.hpp</text>
</a>
</g>
</g>
<!-- Node9&#45;&gt;Node11 -->
<g id="edge11" class="edge"><title>Node9&#45;&gt;Node11</title>
<path fill="none" stroke="midnightblue" d="M1332.02,-168.083C1330.01,-160.849 1327.11,-150.409 1324.61,-141.397"/>
<polygon fill="midnightblue" stroke="midnightblue" points="1327.98,-140.449 1321.93,-131.751 1321.24,-142.323 1327.98,-140.449"/>
</g>
<!-- Node12 -->
<g id="node12" class="node"><title>Node12</title>
<g id="a_node12"><a xlink:title=" ">
<polygon fill="white" stroke="#bfbfbf" points="1374.5,-112.5 1374.5,-131.5 1418.5,-131.5 1418.5,-112.5 1374.5,-112.5"/>
<text text-anchor="middle" x="1396.5" y="-119.5" font-family="Helvetica,sans-Serif" font-size="10.00">SDL.h</text>
</a>
</g>
</g>
<!-- Node9&#45;&gt;Node12 -->
<g id="edge12" class="edge"><title>Node9&#45;&gt;Node12</title>
<path fill="none" stroke="midnightblue" d="M1344.46,-168.324C1353.63,-160.341 1367.44,-148.313 1378.53,-138.653"/>
<polygon fill="midnightblue" stroke="midnightblue" points="1381.12,-141.041 1386.36,-131.834 1376.52,-135.762 1381.12,-141.041"/>
</g>
<!-- Node13&#45;&gt;Node5 -->
<g id="edge29" class="edge"><title>Node13&#45;&gt;Node5</title>
<path fill="none" stroke="midnightblue" d="M773.712,-168.471C758.174,-161.316 738.793,-149.435 729.5,-132 721.342,-116.694 729.359,-97.6624 737.732,-84.1572"/>
<polygon fill="midnightblue" stroke="midnightblue" points="740.68,-86.0461 743.392,-75.804 734.885,-82.1197 740.68,-86.0461"/>
</g>
<!-- Node13&#45;&gt;Node7 -->
<g id="edge31" class="edge"><title>Node13&#45;&gt;Node7</title>
<path fill="none" stroke="midnightblue" d="M768.35,-176.152C691.504,-173.449 479.792,-163.284 418.5,-132 397.204,-121.13 379.619,-99.4413 369.108,-84.1126"/>
<polygon fill="midnightblue" stroke="midnightblue" points="371.909,-81.9997 363.508,-75.5439 366.049,-85.8294 371.909,-81.9997"/>
</g>
<!-- Node14 -->
<g id="node14" class="node"><title>Node14</title>
<g id="a_node14"><a xlink:href="../../dc/d20/_component_8h.html" target="_top" xlink:title=" ">
<polygon fill="white" stroke="black" points="805.5,-56.5 805.5,-75.5 879.5,-75.5 879.5,-56.5 805.5,-56.5"/>
<text text-anchor="middle" x="842.5" y="-63.5" font-family="Helvetica,sans-Serif" font-size="10.00">Component.h</text>
</a>
</g>
</g>
<!-- Node13&#45;&gt;Node14 -->
<g id="edge14" class="edge"><title>Node13&#45;&gt;Node14</title>
<path fill="none" stroke="midnightblue" d="M800.11,-168.368C807.6,-150.456 824.968,-108.923 834.994,-84.9482"/>
<polygon fill="midnightblue" stroke="midnightblue" points="838.278,-86.1676 838.907,-75.5914 831.82,-83.4669 838.278,-86.1676"/>
</g>
<!-- Node16 -->
<g id="node16" class="node"><title>Node16</title>
<g id="a_node16"><a xlink:href="../../d0/d4b/_debug_8h.html" target="_top" xlink:title=" ">
<polygon fill="white" stroke="black" points="318,-112.5 318,-131.5 371,-131.5 371,-112.5 318,-112.5"/>
<text text-anchor="middle" x="344.5" y="-119.5" font-family="Helvetica,sans-Serif" font-size="10.00">Debug.h</text>
</a>
</g>
</g>
<!-- Node13&#45;&gt;Node16 -->
<g id="edge16" class="edge"><title>Node13&#45;&gt;Node16</title>
<path fill="none" stroke="midnightblue" d="M768.453,-174.971C701.761,-169.919 528.585,-155.468 385.5,-132 384.206,-131.788 382.89,-131.561 381.564,-131.322"/>
<polygon fill="midnightblue" stroke="midnightblue" points="381.813,-127.805 371.327,-129.32 380.469,-134.675 381.813,-127.805"/>
</g>
<!-- Node17 -->
<g id="node17" class="node"><title>Node17</title>
<g id="a_node17"><a xlink:href="../../d5/d31/_lights_8h.html" target="_top" xlink:title=" ">
<polygon fill="white" stroke="black" points="630,-112.5 630,-131.5 681,-131.5 681,-112.5 630,-112.5"/>
<text text-anchor="middle" x="655.5" y="-119.5" font-family="Helvetica,sans-Serif" font-size="10.00">Lights.h</text>
</a>
</g>
</g>
<!-- Node13&#45;&gt;Node17 -->
<g id="edge17" class="edge"><title>Node13&#45;&gt;Node17</title>
<path fill="none" stroke="midnightblue" d="M774.158,-168.444C750.747,-159.478 713.764,-145.314 687.31,-135.183"/>
<polygon fill="midnightblue" stroke="midnightblue" points="688.328,-131.824 677.737,-131.516 685.824,-138.361 688.328,-131.824"/>
</g>
<!-- Node18 -->
<g id="node18" class="node"><title>Node18</title>
<g id="a_node18"><a xlink:href="../../d3/d09/_material_8h.html" target="_top" xlink:title=" ">
<polygon fill="white" stroke="black" points="738,-112.5 738,-131.5 797,-131.5 797,-112.5 738,-112.5"/>
<text text-anchor="middle" x="767.5" y="-119.5" font-family="Helvetica,sans-Serif" font-size="10.00">Material.h</text>
</a>
</g>
</g>
<!-- Node13&#45;&gt;Node18 -->
<g id="edge19" class="edge"><title>Node13&#45;&gt;Node18</title>
<path fill="none" stroke="midnightblue" d="M791.711,-168.083C787.742,-160.691 781.975,-149.953 777.065,-140.811"/>
<polygon fill="midnightblue" stroke="midnightblue" points="780.014,-138.905 772.2,-131.751 773.847,-142.217 780.014,-138.905"/>
</g>
<!-- Node19 -->
<g id="node19" class="node"><title>Node19</title>
<g id="a_node19"><a xlink:href="../../d4/d4a/_settings_8h.html" target="_top" xlink:title=" ">
<polygon fill="white" stroke="black" points="990,-112.5 990,-131.5 1051,-131.5 1051,-112.5 990,-112.5"/>
<text text-anchor="middle" x="1020.5" y="-119.5" font-family="Helvetica,sans-Serif" font-size="10.00">Settings.h</text>
</a>
</g>
</g>
<!-- Node13&#45;&gt;Node19 -->
<g id="edge22" class="edge"><title>Node13&#45;&gt;Node19</title>
<path fill="none" stroke="midnightblue" d="M824.87,-170.161C864.079,-160.709 935.058,-143.598 979.883,-132.792"/>
<polygon fill="midnightblue" stroke="midnightblue" points="980.953,-136.134 989.855,-130.388 979.313,-129.329 980.953,-136.134"/>
</g>
<!-- Node20 -->
<g id="node20" class="node"><title>Node20</title>
<g id="a_node20"><a xlink:href="../../d2/d06/_shaders_8h.html" target="_top" xlink:title=" ">
<polygon fill="white" stroke="black" points="428,-112.5 428,-131.5 489,-131.5 489,-112.5 428,-112.5"/>
<text text-anchor="middle" x="458.5" y="-119.5" font-family="Helvetica,sans-Serif" font-size="10.00">Shaders.h</text>
</a>
</g>
</g>
<!-- Node13&#45;&gt;Node20 -->
<g id="edge23" class="edge"><title>Node13&#45;&gt;Node20</title>
<path fill="none" stroke="midnightblue" d="M768.146,-173.078C715.755,-165.735 600.298,-149.104 503.5,-132 502.22,-131.774 500.921,-131.54 499.609,-131.3"/>
<polygon fill="midnightblue" stroke="midnightblue" points="499.927,-127.798 489.451,-129.38 498.627,-134.677 499.927,-127.798"/>
</g>
<!-- Node21 -->
<g id="node21" class="node"><title>Node21</title>
<g id="a_node21"><a xlink:title=" ">
<polygon fill="white" stroke="#bfbfbf" points="397.5,-56.5 397.5,-75.5 457.5,-75.5 457.5,-56.5 397.5,-56.5"/>
<text text-anchor="middle" x="427.5" y="-63.5" font-family="Helvetica,sans-Serif" font-size="10.00">GL/glew.h</text>
</a>
</g>
</g>
<!-- Node13&#45;&gt;Node21 -->
<g id="edge26" class="edge"><title>Node13&#45;&gt;Node21</title>
<path fill="none" stroke="midnightblue" d="M768.307,-175.49C719.627,-172.153 617.266,-161.899 536.5,-132 518.664,-125.397 475.311,-98.1378 448.97,-81.0861"/>
<polygon fill="midnightblue" stroke="midnightblue" points="450.723,-78.051 440.432,-75.531 446.905,-83.9184 450.723,-78.051"/>
</g>
<!-- Node22 -->
<g id="node22" class="node"><title>Node22</title>
<g id="a_node22"><a xlink:title=" ">
<polygon fill="white" stroke="#bfbfbf" points="1137.5,-56.5 1137.5,-75.5 1193.5,-75.5 1193.5,-56.5 1137.5,-56.5"/>
<text text-anchor="middle" x="1165.5" y="-63.5" font-family="Helvetica,sans-Serif" font-size="10.00">algorithm</text>
</a>
</g>
</g>
<!-- Node13&#45;&gt;Node22 -->
<g id="edge27" class="edge"><title>Node13&#45;&gt;Node22</title>
<path fill="none" stroke="midnightblue" d="M824.536,-175.972C911.545,-172.495 1172.64,-159.81 1197.5,-132 1210.37,-117.601 1196.29,-97.0877 1182.95,-82.9769"/>
<polygon fill="midnightblue" stroke="midnightblue" points="1185.36,-80.4363 1175.8,-75.8758 1180.43,-85.4045 1185.36,-80.4363"/>
</g>
<!-- Node23 -->
<g id="node23" class="node"><title>Node23</title>
<g id="a_node23"><a xlink:title=" ">
<polygon fill="white" stroke="#bfbfbf" points="1069,-112.5 1069,-131.5 1118,-131.5 1118,-112.5 1069,-112.5"/>
<text text-anchor="middle" x="1093.5" y="-119.5" font-family="Helvetica,sans-Serif" font-size="10.00">fstream</text>
</a>
</g>
</g>
<!-- Node13&#45;&gt;Node23 -->
<g id="edge28" class="edge"><title>Node13&#45;&gt;Node23</title>
<path fill="none" stroke="midnightblue" d="M824.806,-173.1C871.62,-166.451 968.268,-151.887 1058.83,-132.213"/>
<polygon fill="midnightblue" stroke="midnightblue" points="1059.68,-135.609 1068.7,-130.042 1058.18,-128.772 1059.68,-135.609"/>
</g>
<!-- Node24 -->
<g id="node24" class="node"><title>Node24</title>
<g id="a_node24"><a xlink:title=" ">
<polygon fill="white" stroke="#bfbfbf" points="1136.5,-112.5 1136.5,-131.5 1188.5,-131.5 1188.5,-112.5 1136.5,-112.5"/>
<text text-anchor="middle" x="1162.5" y="-119.5" font-family="Helvetica,sans-Serif" font-size="10.00">sstream</text>
</a>
</g>
</g>
<!-- Node13&#45;&gt;Node24 -->
<g id="edge30" class="edge"><title>Node13&#45;&gt;Node24</title>
<path fill="none" stroke="midnightblue" d="M824.58,-174.299C880.306,-168.701 1008.95,-154.592 1126.33,-132.035"/>
<polygon fill="midnightblue" stroke="midnightblue" points="1127.06,-135.46 1136.2,-130.113 1125.72,-128.589 1127.06,-135.46"/>
</g>
<!-- Node13&#45;&gt;Node25 -->
<g id="edge32" class="edge"><title>Node13&#45;&gt;Node25</title>
<path fill="none" stroke="midnightblue" d="M824.549,-175.826C906.099,-172.121 1141.88,-159.276 1213.5,-132 1242.81,-120.836 1271.37,-97.8747 1288.45,-82.4528"/>
<polygon fill="midnightblue" stroke="midnightblue" points="1290.92,-84.9396 1295.87,-75.5725 1286.16,-79.8079 1290.92,-84.9396"/>
</g>
<!-- Node15 -->
<g id="node15" class="node"><title>Node15</title>
<g id="a_node15"><a xlink:title=" ">
<polygon fill="white" stroke="#bfbfbf" points="818,-0.5 818,-19.5 867,-19.5 867,-0.5 818,-0.5"/>
<text text-anchor="middle" x="842.5" y="-7.5" font-family="Helvetica,sans-Serif" font-size="10.00">stdint.h</text>
</a>
</g>
</g>
<!-- Node14&#45;&gt;Node15 -->
<g id="edge15" class="edge"><title>Node14&#45;&gt;Node15</title>
<path fill="none" stroke="midnightblue" d="M842.5,-56.083C842.5,-49.0059 842.5,-38.8611 842.5,-29.9865"/>
<polygon fill="midnightblue" stroke="midnightblue" points="846,-29.751 842.5,-19.7511 839,-29.7511 846,-29.751"/>
</g>
<!-- Node17&#45;&gt;Node5 -->
<g id="edge18" class="edge"><title>Node17&#45;&gt;Node5</title>
<path fill="none" stroke="midnightblue" d="M670.763,-112.324C685.721,-103.822 708.755,-90.7288 726.227,-80.7975"/>
<polygon fill="midnightblue" stroke="midnightblue" points="728.31,-83.639 735.274,-75.6545 724.851,-77.5534 728.31,-83.639"/>
</g>
<!-- Node18&#45;&gt;Node5 -->
<g id="edge21" class="edge"><title>Node18&#45;&gt;Node5</title>
<path fill="none" stroke="midnightblue" d="M764.693,-112.083C762.415,-104.849 759.129,-94.4087 756.292,-85.3968"/>
<polygon fill="midnightblue" stroke="midnightblue" points="759.596,-84.2385 753.255,-75.7511 752.919,-86.3406 759.596,-84.2385"/>
</g>
<!-- Node18&#45;&gt;Node14 -->
<g id="edge20" class="edge"><title>Node18&#45;&gt;Node14</title>
<path fill="none" stroke="midnightblue" d="M779.55,-112.324C790.963,-104.107 808.331,-91.6017 821.935,-81.8069"/>
<polygon fill="midnightblue" stroke="midnightblue" points="824.16,-84.5174 830.231,-75.8339 820.07,-78.8366 824.16,-84.5174"/>
</g>
<!-- Node20&#45;&gt;Node7 -->
<g id="edge25" class="edge"><title>Node20&#45;&gt;Node7</title>
<path fill="none" stroke="midnightblue" d="M442.433,-112.324C426.542,-103.743 401.993,-90.486 383.542,-80.5224"/>
<polygon fill="midnightblue" stroke="midnightblue" points="384.989,-77.3264 374.527,-75.6545 381.663,-83.4857 384.989,-77.3264"/>
</g>
<!-- Node20&#45;&gt;Node21 -->
<g id="edge24" class="edge"><title>Node20&#45;&gt;Node21</title>
<path fill="none" stroke="midnightblue" d="M453.381,-112.083C449.092,-104.613 442.842,-93.7244 437.558,-84.5199"/>
<polygon fill="midnightblue" stroke="midnightblue" points="440.538,-82.6811 432.524,-75.7511 434.467,-86.1662 440.538,-82.6811"/>
</g>
<!-- Node26&#45;&gt;Node2 -->
<g id="edge34" class="edge"><title>Node26&#45;&gt;Node2</title>
<path fill="none" stroke="midnightblue" d="M1454.87,-187.536C1442.01,-195.159 1425.16,-207.644 1417.5,-224 1409.85,-240.34 1420.36,-259.186 1430.8,-272.364"/>
<polygon fill="midnightblue" stroke="midnightblue" points="1428.3,-274.816 1437.47,-280.122 1433.61,-270.255 1428.3,-274.816"/>
</g>
<!-- Node26&#45;&gt;Node22 -->
<g id="edge42" class="edge"><title>Node26&#45;&gt;Node22</title>
<path fill="none" stroke="midnightblue" d="M1490.91,-168.451C1515.95,-156.284 1554.19,-133.102 1535.5,-112 1524.55,-99.6398 1295.8,-78.3788 1203.56,-70.271"/>
<polygon fill="midnightblue" stroke="midnightblue" points="1203.79,-66.7779 1193.53,-69.3935 1203.18,-73.7513 1203.79,-66.7779"/>
</g>
<!-- Node26&#45;&gt;Node25 -->
<g id="edge43" class="edge"><title>Node26&#45;&gt;Node25</title>
<path fill="none" stroke="midnightblue" d="M1498.29,-170.588C1534.52,-160.692 1592.03,-139.885 1568.5,-112 1539.02,-77.0681 1399.08,-69.2496 1335.76,-67.5019"/>
<polygon fill="midnightblue" stroke="midnightblue" points="1335.66,-63.9985 1325.57,-67.2555 1335.49,-70.9964 1335.66,-63.9985"/>
</g>
<!-- Node27 -->
<g id="node27" class="node"><title>Node27</title>
<g id="a_node27"><a xlink:href="../../d7/d26/_helping_hand_8h.html" target="_top" xlink:title=" ">
<polygon fill="white" stroke="black" points="853.5,-112.5 853.5,-131.5 933.5,-131.5 933.5,-112.5 853.5,-112.5"/>
<text text-anchor="middle" x="893.5" y="-119.5" font-family="Helvetica,sans-Serif" font-size="10.00">HelpingHand.h</text>
</a>
</g>
</g>
<!-- Node26&#45;&gt;Node27 -->
<g id="edge35" class="edge"><title>Node26&#45;&gt;Node27</title>
<path fill="none" stroke="midnightblue" d="M1444.93,-174.657C1371.3,-168.144 1158.36,-149.164 981.5,-132 969.319,-130.818 956.195,-129.5 943.895,-128.245"/>
<polygon fill="midnightblue" stroke="midnightblue" points="944.1,-124.747 933.795,-127.209 943.386,-131.711 944.1,-124.747"/>
</g>
<!-- Node29 -->
<g id="node29" class="node"><title>Node29</title>
<g id="a_node29"><a xlink:title=" ">
<polygon fill="white" stroke="#bfbfbf" points="1621,-112.5 1621,-131.5 1694,-131.5 1694,-112.5 1621,-112.5"/>
<text text-anchor="middle" x="1657.5" y="-119.5" font-family="Helvetica,sans-Serif" font-size="10.00">SDL_mixer.h</text>
</a>
</g>
</g>
<!-- Node26&#45;&gt;Node29 -->
<g id="edge41" class="edge"><title>Node26&#45;&gt;Node29</title>
<path fill="none" stroke="midnightblue" d="M1498.15,-169.263C1529.64,-160.12 1582.32,-144.827 1618.43,-134.344"/>
<polygon fill="midnightblue" stroke="midnightblue" points="1619.51,-137.674 1628.14,-131.524 1617.56,-130.951 1619.51,-137.674"/>
</g>
<!-- Node27&#45;&gt;Node4 -->
<g id="edge36" class="edge"><title>Node27&#45;&gt;Node4</title>
<path fill="none" stroke="midnightblue" d="M853.423,-112.74C807.692,-103.314 732.79,-87.8767 682.825,-77.5784"/>
<polygon fill="midnightblue" stroke="midnightblue" points="683.371,-74.1175 672.871,-75.5268 681.958,-80.9734 683.371,-74.1175"/>
</g>
<!-- Node27&#45;&gt;Node5 -->
<g id="edge39" class="edge"><title>Node27&#45;&gt;Node5</title>
<path fill="none" stroke="midnightblue" d="M870.841,-112.444C847.098,-103.478 809.591,-89.314 782.762,-79.1827"/>
<polygon fill="midnightblue" stroke="midnightblue" points="783.644,-75.7749 773.053,-75.5164 781.171,-82.3235 783.644,-75.7749"/>
</g>
<!-- Node27&#45;&gt;Node22 -->
<g id="edge37" class="edge"><title>Node27&#45;&gt;Node22</title>
<path fill="none" stroke="midnightblue" d="M933.635,-113.032C985.755,-102.685 1076.1,-84.7491 1127.27,-74.5902"/>
<polygon fill="midnightblue" stroke="midnightblue" points="1128.13,-77.9867 1137.26,-72.6064 1126.77,-71.1207 1128.13,-77.9867"/>
</g>
<!-- Node27&#45;&gt;Node25 -->
<g id="edge40" class="edge"><title>Node27&#45;&gt;Node25</title>
<path fill="none" stroke="midnightblue" d="M933.657,-115.724C1015.48,-104.974 1199.96,-80.7353 1273.44,-71.0807"/>
<polygon fill="midnightblue" stroke="midnightblue" points="1273.99,-74.5383 1283.45,-69.7654 1273.08,-67.598 1273.99,-74.5383"/>
</g>
<!-- Node28 -->
<g id="node28" class="node"><title>Node28</title>
<g id="a_node28"><a xlink:title=" ">
<polygon fill="white" stroke="#bfbfbf" points="897.5,-56.5 897.5,-75.5 1013.5,-75.5 1013.5,-56.5 897.5,-56.5"/>
<text text-anchor="middle" x="955.5" y="-63.5" font-family="Helvetica,sans-Serif" font-size="10.00">glm/gtc/quaternion.hpp</text>
</a>
</g>
</g>
<!-- Node27&#45;&gt;Node28 -->
<g id="edge38" class="edge"><title>Node27&#45;&gt;Node28</title>
<path fill="none" stroke="midnightblue" d="M903.461,-112.324C912.627,-104.341 926.437,-92.3128 937.528,-82.6529"/>
<polygon fill="midnightblue" stroke="midnightblue" points="940.115,-85.041 945.357,-75.8339 935.518,-79.7624 940.115,-85.041"/>
</g>
<!-- Node30&#45;&gt;Node7 -->
<g id="edge50" class="edge"><title>Node30&#45;&gt;Node7</title>
<path fill="none" stroke="midnightblue" d="M283.973,-168.371C276.363,-155.289 264.753,-130.052 275.5,-112 286.872,-92.8982 309.491,-81.4059 328.247,-74.8216"/>
<polygon fill="midnightblue" stroke="midnightblue" points="329.442,-78.1142 337.898,-71.7314 327.307,-71.4476 329.442,-78.1142"/>
</g>
<!-- Node30&#45;&gt;Node16 -->
<g id="edge51" class="edge"><title>Node30&#45;&gt;Node16</title>
<path fill="none" stroke="midnightblue" d="M298.582,-168.083C306.671,-160.141 318.695,-148.335 328.41,-138.797"/>
<polygon fill="midnightblue" stroke="midnightblue" points="330.903,-141.254 335.587,-131.751 325.999,-136.26 330.903,-141.254"/>
</g>
<!-- Node30&#45;&gt;Node21 -->
<g id="edge45" class="edge"><title>Node30&#45;&gt;Node21</title>
<path fill="none" stroke="midnightblue" d="M289.676,-168.235C290.418,-154.509 293.805,-127.875 308.5,-112 319.588,-100.022 357.535,-86.8761 387.634,-77.9028"/>
<polygon fill="midnightblue" stroke="midnightblue" points="388.871,-81.188 397.49,-75.0274 386.91,-74.4681 388.871,-81.188"/>
</g>
<!-- Node30&#45;&gt;Node22 -->
<g id="edge48" class="edge"><title>Node30&#45;&gt;Node22</title>
<path fill="none" stroke="midnightblue" d="M318.211,-176.555C428.17,-174.614 822.346,-165.425 942.5,-132 961.267,-126.779 963.248,-118.805 981.5,-112 1030.51,-93.7287 1089.64,-80.7912 1127.4,-73.6123"/>
<polygon fill="midnightblue" stroke="midnightblue" points="1128.27,-77.0112 1137.46,-71.7406 1126.99,-70.1293 1128.27,-77.0112"/>
</g>
<!-- Node30&#45;&gt;Node27 -->
<g id="edge52" class="edge"><title>Node30&#45;&gt;Node27</title>
<path fill="none" stroke="midnightblue" d="M318.098,-174.675C396.321,-168.28 620.392,-149.725 806.5,-132 818.308,-130.875 831.011,-129.599 842.963,-128.368"/>
<polygon fill="midnightblue" stroke="midnightblue" points="843.646,-131.816 853.231,-127.304 842.924,-124.854 843.646,-131.816"/>
</g>
<!-- Node31 -->
<g id="node31" class="node"><title>Node31</title>
<g id="a_node31"><a xlink:title=" ">
<polygon fill="white" stroke="#bfbfbf" points="0,-112.5 0,-131.5 75,-131.5 75,-112.5 0,-112.5"/>
<text text-anchor="middle" x="37.5" y="-119.5" font-family="Helvetica,sans-Serif" font-size="10.00">SDL_image.h</text>
</a>
</g>
</g>
<!-- Node30&#45;&gt;Node31 -->
<g id="edge46" class="edge"><title>Node30&#45;&gt;Node31</title>
<path fill="none" stroke="midnightblue" d="M260.592,-170.806C217.687,-161.612 136.67,-144.251 84.9762,-133.173"/>
<polygon fill="midnightblue" stroke="midnightblue" points="85.5597,-129.719 75.0483,-131.046 84.0929,-136.564 85.5597,-129.719"/>
</g>
<!-- Node32 -->
<g id="node32" class="node"><title>Node32</title>
<g id="a_node32"><a xlink:title=" ">
<polygon fill="white" stroke="#bfbfbf" points="93,-112.5 93,-131.5 170,-131.5 170,-112.5 93,-112.5"/>
<text text-anchor="middle" x="131.5" y="-119.5" font-family="Helvetica,sans-Serif" font-size="10.00">SDL_opengl.h</text>
</a>
</g>
</g>
<!-- Node30&#45;&gt;Node32 -->
<g id="edge47" class="edge"><title>Node30&#45;&gt;Node32</title>
<path fill="none" stroke="midnightblue" d="M264.464,-168.444C237.884,-159.359 195.691,-144.939 165.977,-134.783"/>
<polygon fill="midnightblue" stroke="midnightblue" points="167.013,-131.439 156.418,-131.516 164.749,-138.062 167.013,-131.439"/>
</g>
<!-- Node33 -->
<g id="node33" class="node"><title>Node33</title>
<g id="a_node33"><a xlink:title=" ">
<polygon fill="white" stroke="#bfbfbf" points="188,-112.5 188,-131.5 223,-131.5 223,-112.5 188,-112.5"/>
<text text-anchor="middle" x="205.5" y="-119.5" font-family="Helvetica,sans-Serif" font-size="10.00">map</text>
</a>
</g>
</g>
<!-- Node30&#45;&gt;Node33 -->
<g id="edge49" class="edge"><title>Node30&#45;&gt;Node33</title>
<path fill="none" stroke="midnightblue" d="M276.004,-168.324C262.9,-159.9 242.788,-146.971 227.393,-137.074"/>
<polygon fill="midnightblue" stroke="midnightblue" points="229.267,-134.118 218.963,-131.655 225.482,-140.006 229.267,-134.118"/>
</g>
</g>
</svg>
