<?xml version="1.0" encoding="UTF-8" standalone="no"?>
<!DOCTYPE svg PUBLIC "-//W3C//DTD SVG 1.1//EN"
 "http://www.w3.org/Graphics/SVG/1.1/DTD/svg11.dtd">
<!-- Generated by graphviz version 2.38.0 (20140413.2041)
 -->
<!-- Title: src/RenderTexture.cpp Pages: 1 -->
<!--zoomable 308 -->
<svg id="main" version="1.1" xmlns="http://www.w3.org/2000/svg" xmlns:xlink="http://www.w3.org/1999/xlink" xml:space="preserve" onload="init(evt)">
<style type="text/css"><![CDATA[
.edge:hover path { stroke: red; }
.edge:hover polygon { stroke: red; fill: red; }
]]></style>
<script type="text/javascript"><![CDATA[
var edges = document.getElementsByTagName('g');
if (edges && edges.length) {
  for (var i=0;i<edges.length;i++) {
    if (edges[i].id.substr(0,4)=='edge') {
      edges[i].setAttribute('class','edge');
    }
  }
}
]]></script>
        <defs>
                <circle id="rim" cx="0" cy="0" r="7"/>
                <circle id="rim2" cx="0" cy="0" r="3.5"/>
                <g id="zoomPlus">
                        <use xlink:href="#rim" fill="#404040">
                                <set attributeName="fill" to="#808080" begin="zoomplus.mouseover" end="zoomplus.mouseout"/>
                        </use>
                        <path d="M-4,0h8M0,-4v8" fill="none" stroke="white" stroke-width="1.5" pointer-events="none"/>
                </g>
                <g id="zoomMin">
                        <use xlink:href="#rim" fill="#404040">
                                <set attributeName="fill" to="#808080" begin="zoomminus.mouseover" end="zoomminus.mouseout"/>
                        </use>
                        <path d="M-4,0h8" fill="none" stroke="white" stroke-width="1.5" pointer-events="none"/>
                </g>
                <g id="dirArrow">
                        <path fill="none" stroke="white" stroke-width="1.5" d="M0,-3.0v7 M-2.5,-0.5L0,-3.0L2.5,-0.5"/>
                </g>
               <g id="resetDef">
                       <use xlink:href="#rim2" fill="#404040">
                               <set attributeName="fill" to="#808080" begin="reset.mouseover" end="reset.mouseout"/>
                       </use>
               </g>
        </defs>

<script type="text/javascript">
var viewWidth = 1667;
var viewHeight = 308;
var sectionId = 'dynsection-0';
</script>
<script xlink:href="../../svgpan.js"/>
<svg id="graph" class="graph">
<g id="viewport">
<title>src/RenderTexture.cpp</title>
<polygon fill="white" stroke="none" points="-4,4 -4,-304 1662.84,-304 1662.84,4 -4,4"/>
<!-- Node1 -->
<g id="node1" class="node"><title>Node1</title>
<g id="a_node1"><a xlink:title=" ">
<polygon fill="#bfbfbf" stroke="black" points="1217.34,-280.5 1217.34,-299.5 1332.34,-299.5 1332.34,-280.5 1217.34,-280.5"/>
<text text-anchor="middle" x="1274.84" y="-287.5" font-family="Helvetica,sans-Serif" font-size="10.00">src/RenderTexture.cpp</text>
</a>
</g>
</g>
<!-- Node2 -->
<g id="node2" class="node"><title>Node2</title>
<g id="a_node2"><a xlink:href="../../de/da5/_render_texture_8h.html" target="_top" xlink:title=" ">
<polygon fill="white" stroke="black" points="1230.84,-224.5 1230.84,-243.5 1318.84,-243.5 1318.84,-224.5 1230.84,-224.5"/>
<text text-anchor="middle" x="1274.84" y="-231.5" font-family="Helvetica,sans-Serif" font-size="10.00">RenderTexture.h</text>
</a>
</g>
</g>
<!-- Node1&#45;&gt;Node2 -->
<g id="edge1" class="edge"><title>Node1&#45;&gt;Node2</title>
<path fill="none" stroke="midnightblue" d="M1274.84,-280.083C1274.84,-273.006 1274.84,-262.861 1274.84,-253.986"/>
<polygon fill="midnightblue" stroke="midnightblue" points="1278.34,-253.751 1274.84,-243.751 1271.34,-253.751 1278.34,-253.751"/>
</g>
<!-- Node3 -->
<g id="node3" class="node"><title>Node3</title>
<g id="a_node3"><a xlink:href="../../de/d50/_game_info_8h.html" target="_top" xlink:title=" ">
<polygon fill="white" stroke="black" points="84.8395,-168.5 84.8395,-187.5 150.839,-187.5 150.839,-168.5 84.8395,-168.5"/>
<text text-anchor="middle" x="117.839" y="-175.5" font-family="Helvetica,sans-Serif" font-size="10.00">GameInfo.h</text>
</a>
</g>
</g>
<!-- Node2&#45;&gt;Node3 -->
<g id="edge2" class="edge"><title>Node2&#45;&gt;Node3</title>
<path fill="none" stroke="midnightblue" d="M1230.55,-230.933C1046.46,-222.341 342.987,-189.508 161.017,-181.015"/>
<polygon fill="midnightblue" stroke="midnightblue" points="161.169,-177.519 151.017,-180.548 160.842,-184.511 161.169,-177.519"/>
</g>
<!-- Node8 -->
<g id="node8" class="node"><title>Node8</title>
<g id="a_node8"><a xlink:href="../../d7/d26/_helping_hand_8h.html" target="_top" xlink:title=" ">
<polygon fill="white" stroke="black" points="399.839,-168.5 399.839,-187.5 479.839,-187.5 479.839,-168.5 399.839,-168.5"/>
<text text-anchor="middle" x="439.839" y="-175.5" font-family="Helvetica,sans-Serif" font-size="10.00">HelpingHand.h</text>
</a>
</g>
</g>
<!-- Node2&#45;&gt;Node8 -->
<g id="edge7" class="edge"><title>Node2&#45;&gt;Node8</title>
<path fill="none" stroke="midnightblue" d="M1230.83,-230.154C1088.6,-220.956 641.78,-192.06 490.494,-182.276"/>
<polygon fill="midnightblue" stroke="midnightblue" points="490.325,-178.758 480.12,-181.605 489.874,-185.743 490.325,-178.758"/>
</g>
<!-- Node12 -->
<g id="node12" class="node"><title>Node12</title>
<g id="a_node12"><a xlink:href="../../d8/d34/_shader_8h.html" target="_top" xlink:title=" ">
<polygon fill="white" stroke="black" points="881.839,-168.5 881.839,-187.5 937.839,-187.5 937.839,-168.5 881.839,-168.5"/>
<text text-anchor="middle" x="909.839" y="-175.5" font-family="Helvetica,sans-Serif" font-size="10.00">Shader.h</text>
</a>
</g>
</g>
<!-- Node2&#45;&gt;Node12 -->
<g id="edge13" class="edge"><title>Node2&#45;&gt;Node12</title>
<path fill="none" stroke="midnightblue" d="M1230.81,-226.486C1158.67,-215.814 1016.51,-194.781 948.222,-184.678"/>
<polygon fill="midnightblue" stroke="midnightblue" points="948.714,-181.213 938.309,-183.212 947.689,-188.138 948.714,-181.213"/>
</g>
<!-- Node20 -->
<g id="node20" class="node"><title>Node20</title>
<g id="a_node20"><a xlink:title=" ">
<polygon fill="white" stroke="#bfbfbf" points="1206.84,-56.5 1206.84,-75.5 1266.84,-75.5 1266.84,-56.5 1206.84,-56.5"/>
<text text-anchor="middle" x="1236.84" y="-63.5" font-family="Helvetica,sans-Serif" font-size="10.00">GL/glew.h</text>
</a>
</g>
</g>
<!-- Node2&#45;&gt;Node20 -->
<g id="edge33" class="edge"><title>Node2&#45;&gt;Node20</title>
<path fill="none" stroke="midnightblue" d="M1272.8,-224.075C1266.81,-197.945 1249.25,-121.211 1241.09,-85.577"/>
<polygon fill="midnightblue" stroke="midnightblue" points="1244.44,-84.5349 1238.8,-75.5681 1237.62,-86.097 1244.44,-84.5349"/>
</g>
<!-- Node23 -->
<g id="node23" class="node"><title>Node23</title>
<g id="a_node23"><a xlink:title=" ">
<polygon fill="white" stroke="#bfbfbf" points="1302.84,-168.5 1302.84,-187.5 1372.84,-187.5 1372.84,-168.5 1302.84,-168.5"/>
<text text-anchor="middle" x="1337.84" y="-175.5" font-family="Helvetica,sans-Serif" font-size="10.00">glm/glm.hpp</text>
</a>
</g>
</g>
<!-- Node2&#45;&gt;Node23 -->
<g id="edge34" class="edge"><title>Node2&#45;&gt;Node23</title>
<path fill="none" stroke="midnightblue" d="M1284.96,-224.324C1294.37,-216.263 1308.58,-204.077 1319.91,-194.369"/>
<polygon fill="midnightblue" stroke="midnightblue" points="1322.22,-196.999 1327.53,-187.834 1317.66,-191.684 1322.22,-196.999"/>
</g>
<!-- Node24 -->
<g id="node24" class="node"><title>Node24</title>
<g id="a_node24"><a xlink:title=" ">
<polygon fill="white" stroke="#bfbfbf" points="1391.34,-168.5 1391.34,-187.5 1534.34,-187.5 1534.34,-168.5 1391.34,-168.5"/>
<text text-anchor="middle" x="1462.84" y="-175.5" font-family="Helvetica,sans-Serif" font-size="10.00">glm/gtc/matrix_transform.hpp</text>
</a>
</g>
</g>
<!-- Node2&#45;&gt;Node24 -->
<g id="edge35" class="edge"><title>Node2&#45;&gt;Node24</title>
<path fill="none" stroke="midnightblue" d="M1304.63,-224.444C1336.67,-215.241 1387.77,-200.562 1423.19,-190.388"/>
<polygon fill="midnightblue" stroke="midnightblue" points="1424.54,-193.641 1433.19,-187.516 1422.61,-186.913 1424.54,-193.641"/>
</g>
<!-- Node25 -->
<g id="node25" class="node"><title>Node25</title>
<g id="a_node25"><a xlink:title=" ">
<polygon fill="white" stroke="#bfbfbf" points="1552.84,-168.5 1552.84,-187.5 1658.84,-187.5 1658.84,-168.5 1552.84,-168.5"/>
<text text-anchor="middle" x="1605.84" y="-175.5" font-family="Helvetica,sans-Serif" font-size="10.00">glm/gtc/type_ptr.hpp</text>
</a>
</g>
</g>
<!-- Node2&#45;&gt;Node25 -->
<g id="edge36" class="edge"><title>Node2&#45;&gt;Node25</title>
<path fill="none" stroke="midnightblue" d="M1319.14,-225.773C1376.83,-216.362 1478.01,-199.855 1543.45,-189.179"/>
<polygon fill="midnightblue" stroke="midnightblue" points="1544.32,-192.582 1553.63,-187.518 1543.2,-185.674 1544.32,-192.582"/>
</g>
<!-- Node4 -->
<g id="node4" class="node"><title>Node4</title>
<g id="a_node4"><a xlink:title=" ">
<polygon fill="white" stroke="#bfbfbf" points="146.339,-112.5 146.339,-131.5 273.339,-131.5 273.339,-112.5 146.339,-112.5"/>
<text text-anchor="middle" x="209.839" y="-119.5" font-family="Helvetica,sans-Serif" font-size="10.00">LinearMath/btTransform.h</text>
</a>
</g>
</g>
<!-- Node3&#45;&gt;Node4 -->
<g id="edge3" class="edge"><title>Node3&#45;&gt;Node4</title>
<path fill="none" stroke="midnightblue" d="M132.621,-168.324C147.107,-159.822 169.413,-146.729 186.333,-136.797"/>
<polygon fill="midnightblue" stroke="midnightblue" points="188.242,-139.735 195.095,-131.655 184.699,-133.698 188.242,-139.735"/>
</g>
<!-- Node5 -->
<g id="node5" class="node"><title>Node5</title>
<g id="a_node5"><a xlink:title=" ">
<polygon fill="white" stroke="#bfbfbf" points="586.839,-56.5 586.839,-75.5 660.839,-75.5 660.839,-56.5 586.839,-56.5"/>
<text text-anchor="middle" x="623.839" y="-63.5" font-family="Helvetica,sans-Serif" font-size="10.00">glm/vec3.hpp</text>
</a>
</g>
</g>
<!-- Node3&#45;&gt;Node5 -->
<g id="edge4" class="edge"><title>Node3&#45;&gt;Node5</title>
<path fill="none" stroke="midnightblue" d="M84.6091,-170.439C42.9338,-160.827 -19.9988,-140.867 6.83949,-112 45.372,-70.5549 438.653,-66.8511 576.453,-66.8363"/>
<polygon fill="midnightblue" stroke="midnightblue" points="576.689,-70.3364 586.691,-66.8421 576.693,-63.3364 576.689,-70.3364"/>
</g>
<!-- Node6 -->
<g id="node6" class="node"><title>Node6</title>
<g id="a_node6"><a xlink:title=" ">
<polygon fill="white" stroke="#bfbfbf" points="15.8395,-112.5 15.8395,-131.5 89.8395,-131.5 89.8395,-112.5 15.8395,-112.5"/>
<text text-anchor="middle" x="52.8395" y="-119.5" font-family="Helvetica,sans-Serif" font-size="10.00">glm/vec4.hpp</text>
</a>
</g>
</g>
<!-- Node3&#45;&gt;Node6 -->
<g id="edge5" class="edge"><title>Node3&#45;&gt;Node6</title>
<path fill="none" stroke="midnightblue" d="M107.396,-168.324C97.6932,-160.263 83.0242,-148.077 71.3398,-138.369"/>
<polygon fill="midnightblue" stroke="midnightblue" points="73.4014,-135.532 63.4729,-131.834 68.9282,-140.916 73.4014,-135.532"/>
</g>
<!-- Node7 -->
<g id="node7" class="node"><title>Node7</title>
<g id="a_node7"><a xlink:title=" ">
<polygon fill="white" stroke="#bfbfbf" points="1019.34,-56.5 1019.34,-75.5 1060.34,-75.5 1060.34,-56.5 1019.34,-56.5"/>
<text text-anchor="middle" x="1039.84" y="-63.5" font-family="Helvetica,sans-Serif" font-size="10.00">string</text>
</a>
</g>
</g>
<!-- Node3&#45;&gt;Node7 -->
<g id="edge6" class="edge"><title>Node3&#45;&gt;Node7</title>
<path fill="none" stroke="midnightblue" d="M117.464,-168.105C117.398,-153.692 119.631,-125.493 136.839,-112 173.029,-83.6243 918.001,-79.7066 963.839,-76 978.825,-74.7882 995.412,-72.8893 1009.26,-71.1474"/>
<polygon fill="midnightblue" stroke="midnightblue" points="1009.77,-74.6107 1019.24,-69.86 1008.87,-67.6682 1009.77,-74.6107"/>
</g>
<!-- Node8&#45;&gt;Node4 -->
<g id="edge8" class="edge"><title>Node8&#45;&gt;Node4</title>
<path fill="none" stroke="midnightblue" d="M403.395,-168.444C363.441,-159.063 299.253,-143.993 255.855,-133.804"/>
<polygon fill="midnightblue" stroke="midnightblue" points="256.648,-130.395 246.113,-131.516 255.048,-137.21 256.648,-130.395"/>
</g>
<!-- Node8&#45;&gt;Node5 -->
<g id="edge11" class="edge"><title>Node8&#45;&gt;Node5</title>
<path fill="none" stroke="midnightblue" d="M399.725,-170.182C355.755,-161.025 294.703,-142.305 320.839,-112 353.266,-74.4023 499.579,-67.7107 576.399,-66.8425"/>
<polygon fill="midnightblue" stroke="midnightblue" points="576.788,-70.3395 586.758,-66.756 576.729,-63.3397 576.788,-70.3395"/>
</g>
<!-- Node9 -->
<g id="node9" class="node"><title>Node9</title>
<g id="a_node9"><a xlink:title=" ">
<polygon fill="white" stroke="#bfbfbf" points="463.839,-112.5 463.839,-131.5 519.839,-131.5 519.839,-112.5 463.839,-112.5"/>
<text text-anchor="middle" x="491.839" y="-119.5" font-family="Helvetica,sans-Serif" font-size="10.00">algorithm</text>
</a>
</g>
</g>
<!-- Node8&#45;&gt;Node9 -->
<g id="edge9" class="edge"><title>Node8&#45;&gt;Node9</title>
<path fill="none" stroke="midnightblue" d="M448.426,-168.083C455.998,-160.22 467.218,-148.569 476.354,-139.081"/>
<polygon fill="midnightblue" stroke="midnightblue" points="478.997,-141.382 483.413,-131.751 473.955,-136.527 478.997,-141.382"/>
</g>
<!-- Node10 -->
<g id="node10" class="node"><title>Node10</title>
<g id="a_node10"><a xlink:title=" ">
<polygon fill="white" stroke="#bfbfbf" points="329.839,-112.5 329.839,-131.5 445.839,-131.5 445.839,-112.5 329.839,-112.5"/>
<text text-anchor="middle" x="387.839" y="-119.5" font-family="Helvetica,sans-Serif" font-size="10.00">glm/gtc/quaternion.hpp</text>
</a>
</g>
</g>
<!-- Node8&#45;&gt;Node10 -->
<g id="edge10" class="edge"><title>Node8&#45;&gt;Node10</title>
<path fill="none" stroke="midnightblue" d="M431.253,-168.083C423.681,-160.22 412.461,-148.569 403.325,-139.081"/>
<polygon fill="midnightblue" stroke="midnightblue" points="405.724,-136.527 396.266,-131.751 400.682,-141.382 405.724,-136.527"/>
</g>
<!-- Node11 -->
<g id="node11" class="node"><title>Node11</title>
<g id="a_node11"><a xlink:title=" ">
<polygon fill="white" stroke="#bfbfbf" points="537.839,-112.5 537.839,-131.5 579.839,-131.5 579.839,-112.5 537.839,-112.5"/>
<text text-anchor="middle" x="558.839" y="-119.5" font-family="Helvetica,sans-Serif" font-size="10.00">vector</text>
</a>
</g>
</g>
<!-- Node8&#45;&gt;Node11 -->
<g id="edge12" class="edge"><title>Node8&#45;&gt;Node11</title>
<path fill="none" stroke="midnightblue" d="M458.695,-168.444C478.106,-159.636 508.57,-145.812 530.804,-135.722"/>
<polygon fill="midnightblue" stroke="midnightblue" points="532.412,-138.836 540.072,-131.516 529.519,-132.462 532.412,-138.836"/>
</g>
<!-- Node12&#45;&gt;Node5 -->
<g id="edge29" class="edge"><title>Node12&#45;&gt;Node5</title>
<path fill="none" stroke="midnightblue" d="M895.258,-168.401C866.886,-151.712 806.125,-116.192 795.839,-112 754.996,-95.3519 706.159,-83.2686 670.978,-75.8412"/>
<polygon fill="midnightblue" stroke="midnightblue" points="671.481,-72.3712 660.98,-73.7778 670.066,-79.2268 671.481,-72.3712"/>
</g>
<!-- Node12&#45;&gt;Node7 -->
<g id="edge31" class="edge"><title>Node12&#45;&gt;Node7</title>
<path fill="none" stroke="midnightblue" d="M934.714,-168.366C953.6,-160.904 979.38,-148.683 997.839,-132 1012.6,-118.661 1024.33,-99.0088 1031.61,-84.8078"/>
<polygon fill="midnightblue" stroke="midnightblue" points="1034.86,-86.1218 1036.09,-75.599 1028.57,-83.0559 1034.86,-86.1218"/>
</g>
<!-- Node12&#45;&gt;Node9 -->
<g id="edge27" class="edge"><title>Node12&#45;&gt;Node9</title>
<path fill="none" stroke="midnightblue" d="M881.466,-174.831C819.499,-169.844 667.291,-156.226 530.301,-132.067"/>
<polygon fill="midnightblue" stroke="midnightblue" points="530.506,-128.549 520.046,-130.234 529.274,-135.439 530.506,-128.549"/>
</g>
<!-- Node12&#45;&gt;Node11 -->
<g id="edge32" class="edge"><title>Node12&#45;&gt;Node11</title>
<path fill="none" stroke="midnightblue" d="M881.676,-174.506C827.099,-169.364 703.054,-156.167 589.904,-131.942"/>
<polygon fill="midnightblue" stroke="midnightblue" points="590.556,-128.502 580.04,-129.795 589.067,-135.342 590.556,-128.502"/>
</g>
<!-- Node13 -->
<g id="node13" class="node"><title>Node13</title>
<g id="a_node13"><a xlink:href="../../dc/d20/_component_8h.html" target="_top" xlink:title=" ">
<polygon fill="white" stroke="black" points="880.839,-56.5 880.839,-75.5 954.839,-75.5 954.839,-56.5 880.839,-56.5"/>
<text text-anchor="middle" x="917.839" y="-63.5" font-family="Helvetica,sans-Serif" font-size="10.00">Component.h</text>
</a>
</g>
</g>
<!-- Node12&#45;&gt;Node13 -->
<g id="edge14" class="edge"><title>Node12&#45;&gt;Node13</title>
<path fill="none" stroke="midnightblue" d="M936.051,-168.414C952.689,-161.445 972.897,-149.809 982.839,-132 994.6,-110.935 969.805,-92.0824 947.527,-80.1748"/>
<polygon fill="midnightblue" stroke="midnightblue" points="949.069,-77.033 938.564,-75.6609 945.921,-83.2849 949.069,-77.033"/>
</g>
<!-- Node15 -->
<g id="node15" class="node"><title>Node15</title>
<g id="a_node15"><a xlink:href="../../d0/d4b/_debug_8h.html" target="_top" xlink:title=" ">
<polygon fill="white" stroke="black" points="920.339,-112.5 920.339,-131.5 973.339,-131.5 973.339,-112.5 920.339,-112.5"/>
<text text-anchor="middle" x="946.839" y="-119.5" font-family="Helvetica,sans-Serif" font-size="10.00">Debug.h</text>
</a>
</g>
</g>
<!-- Node12&#45;&gt;Node15 -->
<g id="edge16" class="edge"><title>Node12&#45;&gt;Node15</title>
<path fill="none" stroke="midnightblue" d="M915.949,-168.083C921.122,-160.534 928.686,-149.495 935.034,-140.23"/>
<polygon fill="midnightblue" stroke="midnightblue" points="938.078,-141.979 940.843,-131.751 932.304,-138.022 938.078,-141.979"/>
</g>
<!-- Node16 -->
<g id="node16" class="node"><title>Node16</title>
<g id="a_node16"><a xlink:href="../../d5/d31/_lights_8h.html" target="_top" xlink:title=" ">
<polygon fill="white" stroke="black" points="598.339,-112.5 598.339,-131.5 649.339,-131.5 649.339,-112.5 598.339,-112.5"/>
<text text-anchor="middle" x="623.839" y="-119.5" font-family="Helvetica,sans-Serif" font-size="10.00">Lights.h</text>
</a>
</g>
</g>
<!-- Node12&#45;&gt;Node16 -->
<g id="edge17" class="edge"><title>Node12&#45;&gt;Node16</title>
<path fill="none" stroke="midnightblue" d="M881.722,-172.752C836.741,-165.789 745.64,-151.008 659.356,-132.2"/>
<polygon fill="midnightblue" stroke="midnightblue" points="659.923,-128.741 649.404,-130.008 658.417,-135.577 659.923,-128.741"/>
</g>
<!-- Node17 -->
<g id="node17" class="node"><title>Node17</title>
<g id="a_node17"><a xlink:href="../../d3/d09/_material_8h.html" target="_top" xlink:title=" ">
<polygon fill="white" stroke="black" points="843.339,-112.5 843.339,-131.5 902.339,-131.5 902.339,-112.5 843.339,-112.5"/>
<text text-anchor="middle" x="872.839" y="-119.5" font-family="Helvetica,sans-Serif" font-size="10.00">Material.h</text>
</a>
</g>
</g>
<!-- Node12&#45;&gt;Node17 -->
<g id="edge19" class="edge"><title>Node12&#45;&gt;Node17</title>
<path fill="none" stroke="midnightblue" d="M903.73,-168.083C898.557,-160.534 890.993,-149.495 884.645,-140.23"/>
<polygon fill="midnightblue" stroke="midnightblue" points="887.375,-138.022 878.836,-131.751 881.601,-141.979 887.375,-138.022"/>
</g>
<!-- Node18 -->
<g id="node18" class="node"><title>Node18</title>
<g id="a_node18"><a xlink:href="../../d4/d4a/_settings_8h.html" target="_top" xlink:title=" ">
<polygon fill="white" stroke="black" points="1068.34,-112.5 1068.34,-131.5 1129.34,-131.5 1129.34,-112.5 1068.34,-112.5"/>
<text text-anchor="middle" x="1098.84" y="-119.5" font-family="Helvetica,sans-Serif" font-size="10.00">Settings.h</text>
</a>
</g>
</g>
<!-- Node12&#45;&gt;Node18 -->
<g id="edge22" class="edge"><title>Node12&#45;&gt;Node18</title>
<path fill="none" stroke="midnightblue" d="M938.135,-168.916C970.232,-159.745 1022.81,-144.723 1059.03,-134.373"/>
<polygon fill="midnightblue" stroke="midnightblue" points="1060.13,-137.699 1068.79,-131.587 1058.21,-130.968 1060.13,-137.699"/>
</g>
<!-- Node19 -->
<g id="node19" class="node"><title>Node19</title>
<g id="a_node19"><a xlink:href="../../d2/d06/_shaders_8h.html" target="_top" xlink:title=" ">
<polygon fill="white" stroke="black" points="1147.34,-112.5 1147.34,-131.5 1208.34,-131.5 1208.34,-112.5 1147.34,-112.5"/>
<text text-anchor="middle" x="1177.84" y="-119.5" font-family="Helvetica,sans-Serif" font-size="10.00">Shaders.h</text>
</a>
</g>
</g>
<!-- Node12&#45;&gt;Node19 -->
<g id="edge23" class="edge"><title>Node12&#45;&gt;Node19</title>
<path fill="none" stroke="midnightblue" d="M938.104,-171.754C979.628,-163.981 1059.8,-148.721 1137.28,-132.285"/>
<polygon fill="midnightblue" stroke="midnightblue" points="1138.15,-135.677 1147.2,-130.17 1136.69,-128.831 1138.15,-135.677"/>
</g>
<!-- Node12&#45;&gt;Node20 -->
<g id="edge26" class="edge"><title>Node12&#45;&gt;Node20</title>
<path fill="none" stroke="midnightblue" d="M937.902,-176.656C1005.78,-175.252 1176.3,-168.125 1217.84,-132 1230.99,-120.565 1235.28,-100.582 1236.56,-85.7829"/>
<polygon fill="midnightblue" stroke="midnightblue" points="1240.06,-85.8621 1237.06,-75.7034 1233.07,-85.521 1240.06,-85.8621"/>
</g>
<!-- Node21 -->
<g id="node21" class="node"><title>Node21</title>
<g id="a_node21"><a xlink:title=" ">
<polygon fill="white" stroke="#bfbfbf" points="667.339,-112.5 667.339,-131.5 716.339,-131.5 716.339,-112.5 667.339,-112.5"/>
<text text-anchor="middle" x="691.839" y="-119.5" font-family="Helvetica,sans-Serif" font-size="10.00">fstream</text>
</a>
</g>
</g>
<!-- Node12&#45;&gt;Node21 -->
<g id="edge28" class="edge"><title>Node12&#45;&gt;Node21</title>
<path fill="none" stroke="midnightblue" d="M881.743,-170.303C847.454,-162.092 787.465,-147.606 726.497,-132.132"/>
<polygon fill="midnightblue" stroke="midnightblue" points="727.262,-128.715 716.708,-129.641 725.536,-135.499 727.262,-128.715"/>
</g>
<!-- Node22 -->
<g id="node22" class="node"><title>Node22</title>
<g id="a_node22"><a xlink:title=" ">
<polygon fill="white" stroke="#bfbfbf" points="734.839,-112.5 734.839,-131.5 786.839,-131.5 786.839,-112.5 734.839,-112.5"/>
<text text-anchor="middle" x="760.839" y="-119.5" font-family="Helvetica,sans-Serif" font-size="10.00">sstream</text>
</a>
</g>
</g>
<!-- Node12&#45;&gt;Node22 -->
<g id="edge30" class="edge"><title>Node12&#45;&gt;Node22</title>
<path fill="none" stroke="midnightblue" d="M886.23,-168.444C861.382,-159.438 822.065,-145.189 794.086,-135.049"/>
<polygon fill="midnightblue" stroke="midnightblue" points="794.933,-131.633 784.339,-131.516 792.548,-138.214 794.933,-131.633"/>
</g>
<!-- Node14 -->
<g id="node14" class="node"><title>Node14</title>
<g id="a_node14"><a xlink:title=" ">
<polygon fill="white" stroke="#bfbfbf" points="893.339,-0.5 893.339,-19.5 942.339,-19.5 942.339,-0.5 893.339,-0.5"/>
<text text-anchor="middle" x="917.839" y="-7.5" font-family="Helvetica,sans-Serif" font-size="10.00">stdint.h</text>
</a>
</g>
</g>
<!-- Node13&#45;&gt;Node14 -->
<g id="edge15" class="edge"><title>Node13&#45;&gt;Node14</title>
<path fill="none" stroke="midnightblue" d="M917.839,-56.083C917.839,-49.0059 917.839,-38.8611 917.839,-29.9865"/>
<polygon fill="midnightblue" stroke="midnightblue" points="921.34,-29.751 917.839,-19.7511 914.34,-29.7511 921.34,-29.751"/>
</g>
<!-- Node16&#45;&gt;Node5 -->
<g id="edge18" class="edge"><title>Node16&#45;&gt;Node5</title>
<path fill="none" stroke="midnightblue" d="M623.839,-112.083C623.839,-105.006 623.839,-94.8611 623.839,-85.9865"/>
<polygon fill="midnightblue" stroke="midnightblue" points="627.34,-85.751 623.839,-75.7511 620.34,-85.7511 627.34,-85.751"/>
</g>
<!-- Node17&#45;&gt;Node5 -->
<g id="edge21" class="edge"><title>Node17&#45;&gt;Node5</title>
<path fill="none" stroke="midnightblue" d="M843.298,-114.593C800.754,-105.367 721.789,-88.242 671.087,-77.2464"/>
<polygon fill="midnightblue" stroke="midnightblue" points="671.546,-73.7646 661.031,-75.0657 670.062,-80.6056 671.546,-73.7646"/>
</g>
<!-- Node17&#45;&gt;Node13 -->
<g id="edge20" class="edge"><title>Node17&#45;&gt;Node13</title>
<path fill="none" stroke="midnightblue" d="M880.27,-112.083C886.692,-104.377 896.145,-93.0333 903.962,-83.6531"/>
<polygon fill="midnightblue" stroke="midnightblue" points="906.834,-85.674 910.547,-75.7511 901.456,-81.1927 906.834,-85.674"/>
</g>
<!-- Node19&#45;&gt;Node7 -->
<g id="edge25" class="edge"><title>Node19&#45;&gt;Node7</title>
<path fill="none" stroke="midnightblue" d="M1155.97,-112.444C1132.79,-103.372 1096.01,-88.98 1070.06,-78.8268"/>
<polygon fill="midnightblue" stroke="midnightblue" points="1071.29,-75.5477 1060.7,-75.1629 1068.74,-82.0664 1071.29,-75.5477"/>
</g>
<!-- Node19&#45;&gt;Node20 -->
<g id="edge24" class="edge"><title>Node19&#45;&gt;Node20</title>
<path fill="none" stroke="midnightblue" d="M1187.32,-112.324C1196.04,-104.341 1209.18,-92.3128 1219.74,-82.6529"/>
<polygon fill="midnightblue" stroke="midnightblue" points="1222.17,-85.1674 1227.19,-75.8339 1217.45,-80.0036 1222.17,-85.1674"/>
</g>
</g>
</svg>
        <g id="navigator" transform="translate(0 0)" fill="#404254">
                <rect fill="#f2f5e9" fill-opacity="0.5" stroke="#606060" stroke-width=".5" x="0" y="0" width="60" height="60"/>
                <use id="zoomplus" xlink:href="#zoomPlus" x="17" y="9" onmousedown="handleZoom(evt,'in')"/>
                <use id="zoomminus" xlink:href="#zoomMin" x="42" y="9" onmousedown="handleZoom(evt,'out')"/>
                <use id="reset" xlink:href="#resetDef" x="30" y="36" onmousedown="handleReset()"/>
                <g id="arrowUp" xlink:href="#dirArrow" transform="translate(30 24)" onmousedown="handlePan(0,-1)">
                  <use xlink:href="#rim" fill="#404040">
                        <set attributeName="fill" to="#808080" begin="arrowUp.mouseover" end="arrowUp.mouseout"/>
                  </use>
                  <path fill="none" stroke="white" stroke-width="1.5" d="M0,-3.0v7 M-2.5,-0.5L0,-3.0L2.5,-0.5"/>
                </g>
                <g id="arrowRight" xlink:href="#dirArrow" transform="rotate(90) translate(36 -43)" onmousedown="handlePan(1,0)">
                  <use xlink:href="#rim" fill="#404040">
                        <set attributeName="fill" to="#808080" begin="arrowRight.mouseover" end="arrowRight.mouseout"/>
                  </use>
                  <path fill="none" stroke="white" stroke-width="1.5" d="M0,-3.0v7 M-2.5,-0.5L0,-3.0L2.5,-0.5"/>
                </g>
                <g id="arrowDown" xlink:href="#dirArrow" transform="rotate(180) translate(-30 -48)" onmousedown="handlePan(0,1)">
                  <use xlink:href="#rim" fill="#404040">
                        <set attributeName="fill" to="#808080" begin="arrowDown.mouseover" end="arrowDown.mouseout"/>
                  </use>
                  <path fill="none" stroke="white" stroke-width="1.5" d="M0,-3.0v7 M-2.5,-0.5L0,-3.0L2.5,-0.5"/>
                </g>
                <g id="arrowLeft" xlink:href="#dirArrow" transform="rotate(270) translate(-36 17)" onmousedown="handlePan(-1,0)">
                  <use xlink:href="#rim" fill="#404040">
                        <set attributeName="fill" to="#808080" begin="arrowLeft.mouseover" end="arrowLeft.mouseout"/>
                  </use>
                  <path fill="none" stroke="white" stroke-width="1.5" d="M0,-3.0v7 M-2.5,-0.5L0,-3.0L2.5,-0.5"/>
                </g>
        </g>
        <svg viewBox="0 0 15 15" width="100%" height="30px" preserveAspectRatio="xMaxYMin meet">
         <g id="arrow_out" transform="scale(0.3 0.3)">
          <a xlink:href="_render_texture_8cpp__incl_org.svg" target="_base">
           <rect id="button" ry="5" rx="5" y="6" x="6" height="38" width="38"
                fill="#f2f5e9" fill-opacity="0.5" stroke="#606060" stroke-width="1.0"/>
           <path id="arrow"
             d="M 11.500037,31.436501 C 11.940474,20.09759 22.043105,11.32322 32.158766,21.979434 L 37.068811,17.246167 C 37.068811,17.246167 37.088388,32 37.088388,32 L 22.160133,31.978069 C 22.160133,31.978069 26.997745,27.140456 26.997745,27.140456 C 18.528582,18.264221 13.291696,25.230495 11.500037,31.436501 z"
             style="fill:#404040;"/>
          </a>
         </g>
        </svg>
</svg>
