<?xml version="1.0" encoding="UTF-8" standalone="no"?>
<!DOCTYPE svg PUBLIC "-//W3C//DTD SVG 1.1//EN"
 "http://www.w3.org/Graphics/SVG/1.1/DTD/svg11.dtd">
<!-- Generated by graphviz version 2.38.0 (20140413.2041)
 -->
<!-- Title: Input::getMousePosition Pages: 1 -->
<svg width="1038pt" height="28pt"
 viewBox="0.00 0.00 1038.00 28.00" xmlns="http://www.w3.org/2000/svg" xmlns:xlink="http://www.w3.org/1999/xlink">
<g id="graph0" class="graph" transform="scale(1 1) rotate(0) translate(4 24)">
<title>Input::getMousePosition</title>
<polygon fill="white" stroke="none" points="-4,4 -4,-24 1034,-24 1034,4 -4,4"/>
<!-- Node1 -->
<g id="node1" class="node"><title>Node1</title>
<g id="a_node1"><a xlink:title=" ">
<polygon fill="#bfbfbf" stroke="black" points="908,-0.5 908,-19.5 1030,-19.5 1030,-0.5 908,-0.5"/>
<text text-anchor="middle" x="969" y="-7.5" font-family="Helvetica,sans-Serif" font-size="10.00">Input::getMousePosition</text>
</a>
</g>
</g>
<!-- Node2 -->
<g id="node2" class="node"><title>Node2</title>
<g id="a_node2"><a xlink:href="../../d6/d17/class_gui_button.html#acfb469dd9337dc5ebf70e32037b02851" target="_top" xlink:title=" ">
<polygon fill="white" stroke="black" points="777,-0.5 777,-19.5 872,-19.5 872,-0.5 777,-0.5"/>
<text text-anchor="middle" x="824.5" y="-7.5" font-family="Helvetica,sans-Serif" font-size="10.00">GuiButton::update</text>
</a>
</g>
</g>
<!-- Node1&#45;&gt;Node2 -->
<g id="edge1" class="edge"><title>Node1&#45;&gt;Node2</title>
<path fill="none" stroke="midnightblue" d="M897.768,-10C889.033,-10 880.279,-10 872.029,-10"/>
<polygon fill="midnightblue" stroke="midnightblue" points="897.98,-13.5001 907.98,-10 897.98,-6.5001 897.98,-13.5001"/>
</g>
<!-- Node3 -->
<g id="node3" class="node"><title>Node3</title>
<g id="a_node3"><a xlink:href="../../d7/dd6/class_pause_menu_system.html#a7c17c731da14866fbbfb186f50b7824e" target="_top" xlink:title=" ">
<polygon fill="white" stroke="black" points="604,-0.5 604,-19.5 741,-19.5 741,-0.5 604,-0.5"/>
<text text-anchor="middle" x="672.5" y="-7.5" font-family="Helvetica,sans-Serif" font-size="10.00">PauseMenuSystem::update</text>
</a>
</g>
</g>
<!-- Node2&#45;&gt;Node3 -->
<g id="edge2" class="edge"><title>Node2&#45;&gt;Node3</title>
<path fill="none" stroke="midnightblue" d="M766.793,-10C758.38,-10 749.641,-10 741.033,-10"/>
<polygon fill="midnightblue" stroke="midnightblue" points="766.861,-13.5001 776.861,-10 766.861,-6.5001 766.861,-13.5001"/>
</g>
<!-- Node4 -->
<g id="node4" class="node"><title>Node4</title>
<g id="a_node4"><a xlink:href="../../d2/d54/class_updating_system.html#a127ad554750e7e7582a1904abfb265aa" target="_top" xlink:title=" ">
<polygon fill="white" stroke="black" points="444,-0.5 444,-19.5 568,-19.5 568,-0.5 444,-0.5"/>
<text text-anchor="middle" x="506" y="-7.5" font-family="Helvetica,sans-Serif" font-size="10.00">UpdatingSystem::update</text>
</a>
</g>
</g>
<!-- Node3&#45;&gt;Node4 -->
<g id="edge3" class="edge"><title>Node3&#45;&gt;Node4</title>
<path fill="none" stroke="midnightblue" d="M593.636,-10C585.069,-10 576.438,-10 568.117,-10"/>
<polygon fill="midnightblue" stroke="midnightblue" points="593.642,-13.5001 603.642,-10 593.642,-6.5001 593.642,-13.5001"/>
</g>
<!-- Node5 -->
<g id="node5" class="node"><title>Node5</title>
<g id="a_node5"><a xlink:href="../../dd/d1f/class_game.html#a79df6376b332d63c9eca0dcee30305c3" target="_top" xlink:title=" ">
<polygon fill="white" stroke="black" points="330,-0.5 330,-19.5 408,-19.5 408,-0.5 330,-0.5"/>
<text text-anchor="middle" x="369" y="-7.5" font-family="Helvetica,sans-Serif" font-size="10.00">Game::update</text>
</a>
</g>
</g>
<!-- Node4&#45;&gt;Node5 -->
<g id="edge4" class="edge"><title>Node4&#45;&gt;Node5</title>
<path fill="none" stroke="midnightblue" d="M433.548,-10C424.802,-10 416.145,-10 408.167,-10"/>
<polygon fill="midnightblue" stroke="midnightblue" points="433.82,-13.5001 443.82,-10 433.82,-6.5001 433.82,-13.5001"/>
</g>
<!-- Node6 -->
<g id="node6" class="node"><title>Node6</title>
<g id="a_node6"><a xlink:href="../../de/d6b/class_application.html#a051023103d00b96b1e5e7437fd8e2e7c" target="_top" xlink:title=" ">
<polygon fill="white" stroke="black" points="194,-0.5 194,-19.5 294,-19.5 294,-0.5 194,-0.5"/>
<text text-anchor="middle" x="244" y="-7.5" font-family="Helvetica,sans-Serif" font-size="10.00">Application::update</text>
</a>
</g>
</g>
<!-- Node5&#45;&gt;Node6 -->
<g id="edge5" class="edge"><title>Node5&#45;&gt;Node6</title>
<path fill="none" stroke="midnightblue" d="M319.71,-10C311.295,-10 302.535,-10 294.099,-10"/>
<polygon fill="midnightblue" stroke="midnightblue" points="319.756,-13.5001 329.756,-10 319.756,-6.5001 319.756,-13.5001"/>
</g>
<!-- Node7 -->
<g id="node7" class="node"><title>Node7</title>
<g id="a_node7"><a xlink:href="../../de/d6b/class_application.html#a68965449404743bf1add056784d6cf81" target="_top" xlink:title=" ">
<polygon fill="white" stroke="black" points="74,-0.5 74,-19.5 158,-19.5 158,-0.5 74,-0.5"/>
<text text-anchor="middle" x="116" y="-7.5" font-family="Helvetica,sans-Serif" font-size="10.00">Application::run</text>
</a>
</g>
</g>
<!-- Node6&#45;&gt;Node7 -->
<g id="edge6" class="edge"><title>Node6&#45;&gt;Node7</title>
<path fill="none" stroke="midnightblue" d="M183.89,-10C175.272,-10 166.556,-10 158.391,-10"/>
<polygon fill="midnightblue" stroke="midnightblue" points="183.924,-13.5001 193.924,-10 183.924,-6.5001 183.924,-13.5001"/>
</g>
<!-- Node8 -->
<g id="node8" class="node"><title>Node8</title>
<g id="a_node8"><a xlink:href="../../d5/d12/_main_8cpp.html#a0ddf1224851353fc92bfbff6f499fa97" target="_top" xlink:title=" ">
<polygon fill="white" stroke="black" points="0,-0.5 0,-19.5 38,-19.5 38,-0.5 0,-0.5"/>
<text text-anchor="middle" x="19" y="-7.5" font-family="Helvetica,sans-Serif" font-size="10.00">main</text>
</a>
</g>
</g>
<!-- Node7&#45;&gt;Node8 -->
<g id="edge7" class="edge"><title>Node7&#45;&gt;Node8</title>
<path fill="none" stroke="midnightblue" d="M63.6206,-10C54.5384,-10 45.6466,-10 38.2853,-10"/>
<polygon fill="midnightblue" stroke="midnightblue" points="63.8842,-13.5001 73.8841,-10 63.8841,-6.5001 63.8842,-13.5001"/>
</g>
</g>
</svg>
