<?xml version="1.0" encoding="UTF-8" standalone="no"?>
<!DOCTYPE svg PUBLIC "-//W3C//DTD SVG 1.1//EN"
 "http://www.w3.org/Graphics/SVG/1.1/DTD/svg11.dtd">
<!-- Generated by graphviz version 2.38.0 (20140413.2041)
 -->
<!-- Title: Input::keyPressedOnce Pages: 1 -->
<!--zoomable 195 -->
<svg id="main" version="1.1" xmlns="http://www.w3.org/2000/svg" xmlns:xlink="http://www.w3.org/1999/xlink" xml:space="preserve" onload="init(evt)">
<style type="text/css"><![CDATA[
.edge:hover path { stroke: red; }
.edge:hover polygon { stroke: red; fill: red; }
]]></style>
<script type="text/javascript"><![CDATA[
var edges = document.getElementsByTagName('g');
if (edges && edges.length) {
  for (var i=0;i<edges.length;i++) {
    if (edges[i].id.substr(0,4)=='edge') {
      edges[i].setAttribute('class','edge');
    }
  }
}
]]></script>
        <defs>
                <circle id="rim" cx="0" cy="0" r="7"/>
                <circle id="rim2" cx="0" cy="0" r="3.5"/>
                <g id="zoomPlus">
                        <use xlink:href="#rim" fill="#404040">
                                <set attributeName="fill" to="#808080" begin="zoomplus.mouseover" end="zoomplus.mouseout"/>
                        </use>
                        <path d="M-4,0h8M0,-4v8" fill="none" stroke="white" stroke-width="1.5" pointer-events="none"/>
                </g>
                <g id="zoomMin">
                        <use xlink:href="#rim" fill="#404040">
                                <set attributeName="fill" to="#808080" begin="zoomminus.mouseover" end="zoomminus.mouseout"/>
                        </use>
                        <path d="M-4,0h8" fill="none" stroke="white" stroke-width="1.5" pointer-events="none"/>
                </g>
                <g id="dirArrow">
                        <path fill="none" stroke="white" stroke-width="1.5" d="M0,-3.0v7 M-2.5,-0.5L0,-3.0L2.5,-0.5"/>
                </g>
               <g id="resetDef">
                       <use xlink:href="#rim2" fill="#404040">
                               <set attributeName="fill" to="#808080" begin="reset.mouseover" end="reset.mouseout"/>
                       </use>
               </g>
        </defs>

<script type="text/javascript">
var viewWidth = 1255;
var viewHeight = 195;
var sectionId = 'dynsection-9';
</script>
<script xlink:href="../../svgpan.js"/>
<svg id="graph" class="graph">
<g id="viewport">
<title>Input::keyPressedOnce</title>
<polygon fill="white" stroke="none" points="-4,4 -4,-191.382 1251,-191.382 1251,4 -4,4"/>
<!-- Node1 -->
<g id="node1" class="node"><title>Node1</title>
<g id="a_node1"><a xlink:title=" ">
<polygon fill="#bfbfbf" stroke="black" points="1128,-64.3818 1128,-83.3818 1247,-83.3818 1247,-64.3818 1128,-64.3818"/>
<text text-anchor="middle" x="1187.5" y="-71.3818" font-family="Helvetica,sans-Serif" font-size="10.00">Input::keyPressedOnce</text>
</a>
</g>
</g>
<!-- Node2 -->
<g id="node2" class="node"><title>Node2</title>
<g id="a_node2"><a xlink:href="../../d1/dee/class_debugging_controller.html#a1c6510b72176caf32ac44c7d81500c64" target="_top" xlink:title=" ">
<polygon fill="white" stroke="black" points="950.5,-156.882 950.5,-186.882 1087.5,-186.882 1087.5,-156.882 950.5,-156.882"/>
<text text-anchor="start" x="958.5" y="-174.882" font-family="Helvetica,sans-Serif" font-size="10.00">DebuggingController</text>
<text text-anchor="middle" x="1019" y="-163.882" font-family="Helvetica,sans-Serif" font-size="10.00">::controlPhysicsDebugDraw</text>
</a>
</g>
</g>
<!-- Node1&#45;&gt;Node2 -->
<g id="edge1" class="edge"><title>Node1&#45;&gt;Node2</title>
<path fill="none" stroke="midnightblue" d="M1169.14,-90.5058C1151.1,-107.006 1121.45,-132.059 1092,-147.882 1085.85,-151.187 1079.16,-154.152 1072.42,-156.777"/>
<polygon fill="midnightblue" stroke="midnightblue" points="1171.63,-92.9666 1176.56,-83.5903 1166.86,-87.8437 1171.63,-92.9666"/>
</g>
<!-- Node3 -->
<g id="node3" class="node"><title>Node3</title>
<g id="a_node3"><a xlink:href="../../d1/dee/class_debugging_controller.html#a62da624d004f69bb6a162d29a7738ef6" target="_top" xlink:title=" ">
<polygon fill="white" stroke="black" points="946,-107.882 946,-137.882 1092,-137.882 1092,-107.882 946,-107.882"/>
<text text-anchor="start" x="954" y="-125.882" font-family="Helvetica,sans-Serif" font-size="10.00">DebuggingController</text>
<text text-anchor="middle" x="1019" y="-114.882" font-family="Helvetica,sans-Serif" font-size="10.00">::controlWireframeDebugDraw</text>
</a>
</g>
</g>
<!-- Node1&#45;&gt;Node3 -->
<g id="edge2" class="edge"><title>Node1&#45;&gt;Node3</title>
<path fill="none" stroke="midnightblue" d="M1144.18,-86.3359C1121.94,-92.8811 1094.51,-100.953 1071.09,-107.845"/>
<polygon fill="midnightblue" stroke="midnightblue" points="1145.4,-89.6268 1154,-83.4459 1143.42,-82.9115 1145.4,-89.6268"/>
</g>
<!-- Node4 -->
<g id="node4" class="node"><title>Node4</title>
<g id="a_node4"><a xlink:href="../../d5/d50/class_player_controller_system.html#a7ec2692dbe1204e5e27f4189e0bcd8ea" target="_top" xlink:title=" ">
<polygon fill="white" stroke="black" points="959.5,-58.8818 959.5,-88.8818 1078.5,-88.8818 1078.5,-58.8818 959.5,-58.8818"/>
<text text-anchor="start" x="967.5" y="-76.8818" font-family="Helvetica,sans-Serif" font-size="10.00">PlayerControllerSystem</text>
<text text-anchor="middle" x="1019" y="-65.8818" font-family="Helvetica,sans-Serif" font-size="10.00">::getPlayerInput</text>
</a>
</g>
</g>
<!-- Node1&#45;&gt;Node4 -->
<g id="edge3" class="edge"><title>Node1&#45;&gt;Node4</title>
<path fill="none" stroke="midnightblue" d="M1117.58,-73.8818C1104.67,-73.8818 1091.29,-73.8818 1078.73,-73.8818"/>
<polygon fill="midnightblue" stroke="midnightblue" points="1117.8,-77.3819 1127.8,-73.8818 1117.8,-70.3819 1117.8,-77.3819"/>
</g>
<!-- Node12 -->
<g id="node12" class="node"><title>Node12</title>
<g id="a_node12"><a xlink:href="../../d7/dd6/class_pause_menu_system.html#a7c17c731da14866fbbfb186f50b7824e" target="_top" xlink:title=" ">
<polygon fill="white" stroke="black" points="950.5,-20.3818 950.5,-39.3818 1087.5,-39.3818 1087.5,-20.3818 950.5,-20.3818"/>
<text text-anchor="middle" x="1019" y="-27.3818" font-family="Helvetica,sans-Serif" font-size="10.00">PauseMenuSystem::update</text>
</a>
</g>
</g>
<!-- Node1&#45;&gt;Node12 -->
<g id="edge11" class="edge"><title>Node1&#45;&gt;Node12</title>
<path fill="none" stroke="midnightblue" d="M1140.74,-61.7703C1125.26,-57.6754 1107.88,-53.0782 1092,-48.8818 1080.38,-45.8105 1067.7,-42.4632 1056.26,-39.4458"/>
<polygon fill="midnightblue" stroke="midnightblue" points="1140.04,-65.205 1150.6,-64.3795 1141.83,-58.4379 1140.04,-65.205"/>
</g>
<!-- Node13 -->
<g id="node13" class="node"><title>Node13</title>
<g id="a_node13"><a xlink:href="../../d2/d54/class_updating_system.html#a127ad554750e7e7582a1904abfb265aa" target="_top" xlink:title=" ">
<polygon fill="white" stroke="black" points="786,-20.3818 786,-39.3818 910,-39.3818 910,-20.3818 786,-20.3818"/>
<text text-anchor="middle" x="848" y="-27.3818" font-family="Helvetica,sans-Serif" font-size="10.00">UpdatingSystem::update</text>
</a>
</g>
</g>
<!-- Node1&#45;&gt;Node13 -->
<g id="edge16" class="edge"><title>Node1&#45;&gt;Node13</title>
<path fill="none" stroke="midnightblue" d="M1168.71,-57.2589C1150.87,-41.8265 1121.84,-19.917 1092,-10.8818 1018.49,11.3747 927.07,-7.47833 880.085,-20.3363"/>
<polygon fill="midnightblue" stroke="midnightblue" points="1166.73,-60.1828 1176.52,-64.2297 1171.39,-54.9601 1166.73,-60.1828"/>
</g>
<!-- Node5 -->
<g id="node5" class="node"><title>Node5</title>
<g id="a_node5"><a xlink:href="../../d5/d50/class_player_controller_system.html#a9d234f18033f0a3fca95bbcd49c28deb" target="_top" xlink:title=" ">
<polygon fill="white" stroke="black" points="788.5,-58.8818 788.5,-88.8818 907.5,-88.8818 907.5,-58.8818 788.5,-58.8818"/>
<text text-anchor="start" x="796.5" y="-76.8818" font-family="Helvetica,sans-Serif" font-size="10.00">PlayerControllerSystem</text>
<text text-anchor="middle" x="848" y="-65.8818" font-family="Helvetica,sans-Serif" font-size="10.00">::fixedUpdate</text>
</a>
</g>
</g>
<!-- Node4&#45;&gt;Node5 -->
<g id="edge4" class="edge"><title>Node4&#45;&gt;Node5</title>
<path fill="none" stroke="midnightblue" d="M948.981,-73.8818C935.222,-73.8818 920.896,-73.8818 907.53,-73.8818"/>
<polygon fill="midnightblue" stroke="midnightblue" points="949.366,-77.3819 959.366,-73.8818 949.366,-70.3819 949.366,-77.3819"/>
</g>
<!-- Node6 -->
<g id="node6" class="node"><title>Node6</title>
<g id="a_node6"><a xlink:href="../../d3/de8/class_fixed_updating_system.html#a7086592e0a53a3a3f8c7533f042a4266" target="_top" xlink:title=" ">
<polygon fill="white" stroke="black" points="637,-58.8818 637,-88.8818 750,-88.8818 750,-58.8818 637,-58.8818"/>
<text text-anchor="start" x="645" y="-76.8818" font-family="Helvetica,sans-Serif" font-size="10.00">FixedUpdatingSystem</text>
<text text-anchor="middle" x="693.5" y="-65.8818" font-family="Helvetica,sans-Serif" font-size="10.00">::updateCollision</text>
</a>
</g>
</g>
<!-- Node5&#45;&gt;Node6 -->
<g id="edge5" class="edge"><title>Node5&#45;&gt;Node6</title>
<path fill="none" stroke="midnightblue" d="M778.319,-73.8818C768.876,-73.8818 759.277,-73.8818 750.109,-73.8818"/>
<polygon fill="midnightblue" stroke="midnightblue" points="778.476,-77.3819 788.476,-73.8818 778.476,-70.3819 778.476,-77.3819"/>
</g>
<!-- Node7 -->
<g id="node7" class="node"><title>Node7</title>
<g id="a_node7"><a xlink:href="../../d3/de8/class_fixed_updating_system.html#a3ed508813ba850baed19e86ef0429028" target="_top" xlink:title=" ">
<polygon fill="white" stroke="black" points="488,-58.8818 488,-88.8818 601,-88.8818 601,-58.8818 488,-58.8818"/>
<text text-anchor="start" x="496" y="-76.8818" font-family="Helvetica,sans-Serif" font-size="10.00">FixedUpdatingSystem</text>
<text text-anchor="middle" x="544.5" y="-65.8818" font-family="Helvetica,sans-Serif" font-size="10.00">::fixedUpdate</text>
</a>
</g>
</g>
<!-- Node6&#45;&gt;Node7 -->
<g id="edge6" class="edge"><title>Node6&#45;&gt;Node7</title>
<path fill="none" stroke="midnightblue" d="M626.922,-73.8818C618.319,-73.8818 609.57,-73.8818 601.153,-73.8818"/>
<polygon fill="midnightblue" stroke="midnightblue" points="626.926,-77.3819 636.926,-73.8818 626.926,-70.3819 626.926,-77.3819"/>
</g>
<!-- Node8 -->
<g id="node8" class="node"><title>Node8</title>
<g id="a_node8"><a xlink:href="../../dd/d1f/class_game.html#a157e87f9dc147a5842ee6bdc06c95c17" target="_top" xlink:title=" ">
<polygon fill="white" stroke="black" points="352,-63.3818 352,-82.3818 452,-82.3818 452,-63.3818 352,-63.3818"/>
<text text-anchor="middle" x="402" y="-70.3818" font-family="Helvetica,sans-Serif" font-size="10.00">Game::fixedUpdate</text>
</a>
</g>
</g>
<!-- Node7&#45;&gt;Node8 -->
<g id="edge7" class="edge"><title>Node7&#45;&gt;Node8</title>
<path fill="none" stroke="midnightblue" d="M477.898,-73.4149C469.253,-73.3534 460.514,-73.2912 452.208,-73.2321"/>
<polygon fill="midnightblue" stroke="midnightblue" points="477.946,-76.9153 487.971,-73.4866 477.996,-69.9154 477.946,-76.9153"/>
</g>
<!-- Node9 -->
<g id="node9" class="node"><title>Node9</title>
<g id="a_node9"><a xlink:href="../../de/d6b/class_application.html#a95c827cb5cf08bd0c3cc7b07ed4b4249" target="_top" xlink:title=" ">
<polygon fill="white" stroke="black" points="194,-62.3818 194,-81.3818 316,-81.3818 316,-62.3818 194,-62.3818"/>
<text text-anchor="middle" x="255" y="-69.3818" font-family="Helvetica,sans-Serif" font-size="10.00">Application::fixedUpdate</text>
</a>
</g>
</g>
<!-- Node8&#45;&gt;Node9 -->
<g id="edge8" class="edge"><title>Node8&#45;&gt;Node9</title>
<path fill="none" stroke="midnightblue" d="M341.747,-72.4732C333.287,-72.4149 324.578,-72.3548 316.102,-72.2963"/>
<polygon fill="midnightblue" stroke="midnightblue" points="341.886,-75.9741 351.91,-72.5433 341.934,-68.9743 341.886,-75.9741"/>
</g>
<!-- Node10 -->
<g id="node10" class="node"><title>Node10</title>
<g id="a_node10"><a xlink:href="../../de/d6b/class_application.html#a68965449404743bf1add056784d6cf81" target="_top" xlink:title=" ">
<polygon fill="white" stroke="black" points="74,-42.3818 74,-61.3818 158,-61.3818 158,-42.3818 74,-42.3818"/>
<text text-anchor="middle" x="116" y="-49.3818" font-family="Helvetica,sans-Serif" font-size="10.00">Application::run</text>
</a>
</g>
</g>
<!-- Node9&#45;&gt;Node10 -->
<g id="edge9" class="edge"><title>Node9&#45;&gt;Node10</title>
<path fill="none" stroke="midnightblue" d="M183.954,-61.6561C175.121,-60.3666 166.322,-59.0821 158.145,-57.8884"/>
<polygon fill="midnightblue" stroke="midnightblue" points="183.509,-65.1282 193.91,-63.1095 184.52,-58.2016 183.509,-65.1282"/>
</g>
<!-- Node11 -->
<g id="node11" class="node"><title>Node11</title>
<g id="a_node11"><a xlink:href="../../d5/d12/_main_8cpp.html#a0ddf1224851353fc92bfbff6f499fa97" target="_top" xlink:title=" ">
<polygon fill="white" stroke="black" points="0,-42.3818 0,-61.3818 38,-61.3818 38,-42.3818 0,-42.3818"/>
<text text-anchor="middle" x="19" y="-49.3818" font-family="Helvetica,sans-Serif" font-size="10.00">main</text>
</a>
</g>
</g>
<!-- Node10&#45;&gt;Node11 -->
<g id="edge10" class="edge"><title>Node10&#45;&gt;Node11</title>
<path fill="none" stroke="midnightblue" d="M63.6206,-51.8818C54.5384,-51.8818 45.6466,-51.8818 38.2853,-51.8818"/>
<polygon fill="midnightblue" stroke="midnightblue" points="63.8842,-55.3819 73.8841,-51.8818 63.8841,-48.3819 63.8842,-55.3819"/>
</g>
<!-- Node12&#45;&gt;Node13 -->
<g id="edge12" class="edge"><title>Node12&#45;&gt;Node13</title>
<path fill="none" stroke="midnightblue" d="M940.232,-29.8818C930.165,-29.8818 919.969,-29.8818 910.222,-29.8818"/>
<polygon fill="midnightblue" stroke="midnightblue" points="940.235,-33.3819 950.235,-29.8818 940.235,-26.3819 940.235,-33.3819"/>
</g>
<!-- Node14 -->
<g id="node14" class="node"><title>Node14</title>
<g id="a_node14"><a xlink:href="../../dd/d1f/class_game.html#a79df6376b332d63c9eca0dcee30305c3" target="_top" xlink:title=" ">
<polygon fill="white" stroke="black" points="505.5,-20.3818 505.5,-39.3818 583.5,-39.3818 583.5,-20.3818 505.5,-20.3818"/>
<text text-anchor="middle" x="544.5" y="-27.3818" font-family="Helvetica,sans-Serif" font-size="10.00">Game::update</text>
</a>
</g>
</g>
<!-- Node13&#45;&gt;Node14 -->
<g id="edge13" class="edge"><title>Node13&#45;&gt;Node14</title>
<path fill="none" stroke="midnightblue" d="M775.789,-29.8818C715.59,-29.8818 631.679,-29.8818 583.532,-29.8818"/>
<polygon fill="midnightblue" stroke="midnightblue" points="775.987,-33.3819 785.987,-29.8818 775.987,-26.3819 775.987,-33.3819"/>
</g>
<!-- Node15 -->
<g id="node15" class="node"><title>Node15</title>
<g id="a_node15"><a xlink:href="../../de/d6b/class_application.html#a051023103d00b96b1e5e7437fd8e2e7c" target="_top" xlink:title=" ">
<polygon fill="white" stroke="black" points="352,-23.3818 352,-42.3818 452,-42.3818 452,-23.3818 352,-23.3818"/>
<text text-anchor="middle" x="402" y="-30.3818" font-family="Helvetica,sans-Serif" font-size="10.00">Application::update</text>
</a>
</g>
</g>
<!-- Node14&#45;&gt;Node15 -->
<g id="edge14" class="edge"><title>Node14&#45;&gt;Node15</title>
<path fill="none" stroke="midnightblue" d="M495.145,-30.9143C481.255,-31.2109 466.095,-31.5346 452.157,-31.8322"/>
<polygon fill="midnightblue" stroke="midnightblue" points="495.556,-34.4065 505.479,-30.6937 495.406,-27.4081 495.556,-34.4065"/>
</g>
<!-- Node15&#45;&gt;Node10 -->
<g id="edge15" class="edge"><title>Node15&#45;&gt;Node10</title>
<path fill="none" stroke="midnightblue" d="M341.561,-36.8584C286.609,-40.5347 206.384,-45.902 158.177,-49.127"/>
<polygon fill="midnightblue" stroke="midnightblue" points="342.111,-40.3295 351.855,-36.1697 341.644,-33.3451 342.111,-40.3295"/>
</g>
</g>
</svg>
        <g id="navigator" transform="translate(0 0)" fill="#404254">
                <rect fill="#f2f5e9" fill-opacity="0.5" stroke="#606060" stroke-width=".5" x="0" y="0" width="60" height="60"/>
                <use id="zoomplus" xlink:href="#zoomPlus" x="17" y="9" onmousedown="handleZoom(evt,'in')"/>
                <use id="zoomminus" xlink:href="#zoomMin" x="42" y="9" onmousedown="handleZoom(evt,'out')"/>
                <use id="reset" xlink:href="#resetDef" x="30" y="36" onmousedown="handleReset()"/>
                <g id="arrowUp" xlink:href="#dirArrow" transform="translate(30 24)" onmousedown="handlePan(0,-1)">
                  <use xlink:href="#rim" fill="#404040">
                        <set attributeName="fill" to="#808080" begin="arrowUp.mouseover" end="arrowUp.mouseout"/>
                  </use>
                  <path fill="none" stroke="white" stroke-width="1.5" d="M0,-3.0v7 M-2.5,-0.5L0,-3.0L2.5,-0.5"/>
                </g>
                <g id="arrowRight" xlink:href="#dirArrow" transform="rotate(90) translate(36 -43)" onmousedown="handlePan(1,0)">
                  <use xlink:href="#rim" fill="#404040">
                        <set attributeName="fill" to="#808080" begin="arrowRight.mouseover" end="arrowRight.mouseout"/>
                  </use>
                  <path fill="none" stroke="white" stroke-width="1.5" d="M0,-3.0v7 M-2.5,-0.5L0,-3.0L2.5,-0.5"/>
                </g>
                <g id="arrowDown" xlink:href="#dirArrow" transform="rotate(180) translate(-30 -48)" onmousedown="handlePan(0,1)">
                  <use xlink:href="#rim" fill="#404040">
                        <set attributeName="fill" to="#808080" begin="arrowDown.mouseover" end="arrowDown.mouseout"/>
                  </use>
                  <path fill="none" stroke="white" stroke-width="1.5" d="M0,-3.0v7 M-2.5,-0.5L0,-3.0L2.5,-0.5"/>
                </g>
                <g id="arrowLeft" xlink:href="#dirArrow" transform="rotate(270) translate(-36 17)" onmousedown="handlePan(-1,0)">
                  <use xlink:href="#rim" fill="#404040">
                        <set attributeName="fill" to="#808080" begin="arrowLeft.mouseover" end="arrowLeft.mouseout"/>
                  </use>
                  <path fill="none" stroke="white" stroke-width="1.5" d="M0,-3.0v7 M-2.5,-0.5L0,-3.0L2.5,-0.5"/>
                </g>
        </g>
        <svg viewBox="0 0 15 15" width="100%" height="30px" preserveAspectRatio="xMaxYMin meet">
         <g id="arrow_out" transform="scale(0.3 0.3)">
          <a xlink:href="class_input_a2aaf873636cedf13e51a424eb6ea802b_icgraph_org.svg" target="_base">
           <rect id="button" ry="5" rx="5" y="6" x="6" height="38" width="38"
                fill="#f2f5e9" fill-opacity="0.5" stroke="#606060" stroke-width="1.0"/>
           <path id="arrow"
             d="M 11.500037,31.436501 C 11.940474,20.09759 22.043105,11.32322 32.158766,21.979434 L 37.068811,17.246167 C 37.068811,17.246167 37.088388,32 37.088388,32 L 22.160133,31.978069 C 22.160133,31.978069 26.997745,27.140456 26.997745,27.140456 C 18.528582,18.264221 13.291696,25.230495 11.500037,31.436501 z"
             style="fill:#404040;"/>
          </a>
         </g>
        </svg>
</svg>
