<?xml version="1.0" encoding="UTF-8" standalone="no"?>
<!DOCTYPE svg PUBLIC "-//W3C//DTD SVG 1.1//EN"
 "http://www.w3.org/Graphics/SVG/1.1/DTD/svg11.dtd">
<!-- Generated by graphviz version 2.38.0 (20140413.2041)
 -->
<!-- Title: Player Pages: 1 -->
<svg width="929pt" height="510pt"
 viewBox="0.00 0.00 929.00 510.00" xmlns="http://www.w3.org/2000/svg" xmlns:xlink="http://www.w3.org/1999/xlink">
<g id="graph0" class="graph" transform="scale(1 1) rotate(0) translate(4 506)">
<title>Player</title>
<polygon fill="white" stroke="none" points="-4,4 -4,-506 925,-506 925,4 -4,4"/>
<!-- Node1 -->
<g id="node1" class="node"><title>Node1</title>
<g id="a_node1"><a xlink:title=" ">
<polygon fill="#bfbfbf" stroke="black" points="877,-282.5 877,-301.5 921,-301.5 921,-282.5 877,-282.5"/>
<text text-anchor="middle" x="899" y="-289.5" font-family="Helvetica,sans-Serif" font-size="10.00">Player</text>
</a>
</g>
</g>
<!-- Node2 -->
<g id="node2" class="node"><title>Node2</title>
<g id="a_node2"><a xlink:href="../../d3/d43/class_entity_wrapper.html" target="_top" xlink:title=" ">
<polygon fill="white" stroke="black" points="695.5,-444.5 695.5,-463.5 774.5,-463.5 774.5,-444.5 695.5,-444.5"/>
<text text-anchor="middle" x="735" y="-451.5" font-family="Helvetica,sans-Serif" font-size="10.00">EntityWrapper</text>
</a>
</g>
</g>
<!-- Node2&#45;&gt;Node1 -->
<g id="edge1" class="edge"><title>Node2&#45;&gt;Node1</title>
<path fill="none" stroke="midnightblue" d="M774.06,-440.618C801.128,-429.333 836.535,-410.712 859,-384 880.439,-358.508 891.657,-319.504 895.926,-301.595"/>
<polygon fill="midnightblue" stroke="midnightblue" points="772.486,-437.478 764.504,-444.444 775.088,-443.976 772.486,-437.478"/>
</g>
<!-- Node3 -->
<g id="node3" class="node"><title>Node3</title>
<g id="a_node3"><a xlink:href="../../d1/d51/class_shader.html" target="_top" xlink:title=" ">
<polygon fill="white" stroke="black" points="711.5,-406.5 711.5,-425.5 758.5,-425.5 758.5,-406.5 711.5,-406.5"/>
<text text-anchor="middle" x="735" y="-413.5" font-family="Helvetica,sans-Serif" font-size="10.00">Shader</text>
</a>
</g>
</g>
<!-- Node3&#45;&gt;Node1 -->
<g id="edge2" class="edge"><title>Node3&#45;&gt;Node1</title>
<path fill="none" stroke="#9a32cd" stroke-dasharray="5,2" d="M757.754,-400.185C782.51,-382.083 824.042,-351.393 859,-324 868.376,-316.653 878.797,-308.081 886.506,-301.659"/>
<polygon fill="#9a32cd" stroke="#9a32cd" points="755.45,-397.533 749.435,-406.256 759.576,-403.188 755.45,-397.533"/>
<text text-anchor="middle" x="828.5" y="-372" font-family="Helvetica,sans-Serif" font-size="10.00"> textShader</text>
</g>
<!-- Node4 -->
<g id="node4" class="node"><title>Node4</title>
<g id="a_node4"><a xlink:href="../../d2/d00/class_component.html" target="_top" xlink:title=" ">
<polygon fill="white" stroke="black" points="451.5,-482.5 451.5,-501.5 566.5,-501.5 566.5,-482.5 451.5,-482.5"/>
<text text-anchor="middle" x="509" y="-489.5" font-family="Helvetica,sans-Serif" font-size="10.00">Component&lt; Shader &gt;</text>
</a>
</g>
</g>
<!-- Node4&#45;&gt;Node3 -->
<g id="edge3" class="edge"><title>Node4&#45;&gt;Node3</title>
<path fill="none" stroke="midnightblue" d="M576.725,-486.891C607.456,-482.183 643.367,-473.18 672,-456 682.541,-449.675 680.103,-442.291 690,-435 696.431,-430.262 704.227,-426.406 711.458,-423.436"/>
<polygon fill="midnightblue" stroke="midnightblue" points="575.934,-483.468 566.52,-488.329 576.911,-490.4 575.934,-483.468"/>
</g>
<!-- Node5 -->
<g id="node5" class="node"><title>Node5</title>
<g id="a_node5"><a xlink:href="../../d5/d79/class_component_interface.html" target="_top" xlink:title=" ">
<polygon fill="white" stroke="black" points="0,-360.5 0,-379.5 103,-379.5 103,-360.5 0,-360.5"/>
<text text-anchor="middle" x="51.5" y="-367.5" font-family="Helvetica,sans-Serif" font-size="10.00">ComponentInterface</text>
</a>
</g>
</g>
<!-- Node5&#45;&gt;Node4 -->
<g id="edge4" class="edge"><title>Node5&#45;&gt;Node4</title>
<path fill="none" stroke="midnightblue" d="M66.5081,-387.441C79.277,-402.281 99.3962,-423.173 121,-436 225.05,-497.779 371.827,-500.676 451.385,-496.737"/>
<polygon fill="midnightblue" stroke="midnightblue" points="68.9803,-384.941 59.8837,-379.51 63.6076,-389.428 68.9803,-384.941"/>
</g>
<!-- Node6 -->
<g id="node6" class="node"><title>Node6</title>
<g id="a_node6"><a xlink:href="../../d2/d00/class_component.html" target="_top" xlink:title=" ">
<polygon fill="white" stroke="black" points="210,-326.5 210,-345.5 299,-345.5 299,-326.5 210,-326.5"/>
<text text-anchor="middle" x="254.5" y="-333.5" font-family="Helvetica,sans-Serif" font-size="10.00">Component&lt; T &gt;</text>
</a>
</g>
</g>
<!-- Node5&#45;&gt;Node6 -->
<g id="edge6" class="edge"><title>Node5&#45;&gt;Node6</title>
<path fill="none" stroke="midnightblue" d="M113.117,-359.746C144.317,-354.469 181.639,-348.156 209.956,-343.366"/>
<polygon fill="midnightblue" stroke="midnightblue" points="112.497,-356.301 103.221,-361.42 113.664,-363.203 112.497,-356.301"/>
</g>
<!-- Node10 -->
<g id="node10" class="node"><title>Node10</title>
<g id="a_node10"><a xlink:href="../../d2/d00/class_component.html" target="_top" xlink:title=" ">
<polygon fill="white" stroke="black" points="439,-368.5 439,-387.5 579,-387.5 579,-368.5 439,-368.5"/>
<text text-anchor="middle" x="509" y="-375.5" font-family="Helvetica,sans-Serif" font-size="10.00">Component&lt; UserControls &gt;</text>
</a>
</g>
</g>
<!-- Node5&#45;&gt;Node10 -->
<g id="edge11" class="edge"><title>Node5&#45;&gt;Node10</title>
<path fill="none" stroke="midnightblue" d="M76.8192,-384.68C138.02,-419.536 301.409,-499.484 412,-432 426.932,-422.889 416.261,-407.826 430,-397 434.926,-393.118 440.531,-390.014 446.423,-387.534"/>
<polygon fill="midnightblue" stroke="midnightblue" points="78.3039,-381.495 67.8981,-379.502 74.7902,-387.549 78.3039,-381.495"/>
</g>
<!-- Node14 -->
<g id="node14" class="node"><title>Node14</title>
<g id="a_node14"><a xlink:href="../../d2/d00/class_component.html" target="_top" xlink:title=" ">
<polygon fill="white" stroke="black" points="450,-254.5 450,-273.5 568,-273.5 568,-254.5 450,-254.5"/>
<text text-anchor="middle" x="509" y="-261.5" font-family="Helvetica,sans-Serif" font-size="10.00">Component&lt; Camera &gt;</text>
</a>
</g>
</g>
<!-- Node5&#45;&gt;Node14 -->
<g id="edge17" class="edge"><title>Node5&#45;&gt;Node14</title>
<path fill="none" stroke="midnightblue" d="M113.184,-379.486C203.631,-392.171 367.905,-409.149 412,-373 443.546,-347.138 401.761,-312.437 430,-283 435.5,-277.267 442.417,-273.145 449.849,-270.201"/>
<polygon fill="midnightblue" stroke="midnightblue" points="113.461,-375.99 103.067,-378.042 112.472,-382.92 113.461,-375.99"/>
</g>
<!-- Node16 -->
<g id="node16" class="node"><title>Node16</title>
<g id="a_node16"><a xlink:href="../../d2/d00/class_component.html" target="_top" xlink:title=" ">
<polygon fill="white" stroke="black" points="430,-216.5 430,-235.5 588,-235.5 588,-216.5 430,-216.5"/>
<text text-anchor="middle" x="509" y="-223.5" font-family="Helvetica,sans-Serif" font-size="10.00">Component&lt; DisplayStatistics &gt;</text>
</a>
</g>
</g>
<!-- Node5&#45;&gt;Node16 -->
<g id="edge21" class="edge"><title>Node5&#45;&gt;Node16</title>
<path fill="none" stroke="midnightblue" d="M75.5034,-354.861C119.982,-326.484 221.8,-265.835 317,-240 353.26,-230.16 394.723,-226.279 429.732,-225.014"/>
<polygon fill="midnightblue" stroke="midnightblue" points="73.415,-352.043 66.9055,-360.402 77.2071,-357.927 73.415,-352.043"/>
</g>
<!-- Node22 -->
<g id="node22" class="node"><title>Node22</title>
<g id="a_node22"><a xlink:href="../../d2/d00/class_component.html" target="_top" xlink:title=" ">
<polygon fill="white" stroke="black" points="441,-178.5 441,-197.5 577,-197.5 577,-178.5 441,-178.5"/>
<text text-anchor="middle" x="509" y="-185.5" font-family="Helvetica,sans-Serif" font-size="10.00">Component&lt; PauseMenu &gt;</text>
</a>
</g>
</g>
<!-- Node5&#45;&gt;Node22 -->
<g id="edge29" class="edge"><title>Node5&#45;&gt;Node22</title>
<path fill="none" stroke="midnightblue" d="M63.8541,-351.918C76.1446,-333.479 97.2075,-304.963 121,-286 214.359,-211.592 357.291,-192.948 440.819,-188.712"/>
<polygon fill="midnightblue" stroke="midnightblue" points="60.9178,-350.013 58.4049,-360.306 66.7878,-353.827 60.9178,-350.013"/>
</g>
<!-- Node6&#45;&gt;Node4 -->
<g id="edge5" class="edge"><title>Node6&#45;&gt;Node4</title>
<path fill="none" stroke="orange" stroke-dasharray="5,2" d="M274.074,-352.249C311.656,-384.841 396.021,-456.491 430,-473 437.898,-476.837 446.632,-479.936 455.313,-482.429"/>
<polygon fill="orange" stroke="orange" points="276.234,-349.489 266.392,-345.565 271.639,-354.77 276.234,-349.489"/>
<text text-anchor="middle" x="364.5" y="-464" font-family="Helvetica,sans-Serif" font-size="10.00"> &lt; Shader &gt;</text>
</g>
<!-- Node6&#45;&gt;Node10 -->
<g id="edge12" class="edge"><title>Node6&#45;&gt;Node10</title>
<path fill="none" stroke="orange" stroke-dasharray="5,2" d="M309.133,-344.921C350.695,-351.834 408.165,-361.394 450.64,-368.459"/>
<polygon fill="orange" stroke="orange" points="309.633,-341.456 299.194,-343.268 308.484,-348.361 309.633,-341.456"/>
<text text-anchor="middle" x="364.5" y="-364" font-family="Helvetica,sans-Serif" font-size="10.00"> &lt; UserControls &gt;</text>
</g>
<!-- Node6&#45;&gt;Node14 -->
<g id="edge18" class="edge"><title>Node6&#45;&gt;Node14</title>
<path fill="none" stroke="orange" stroke-dasharray="5,2" d="M309.238,-329.296C347.439,-323.799 394.884,-315.267 412,-305 422.834,-298.501 419.31,-289.732 430,-283 436.133,-279.138 442.992,-276.061 450.031,-273.609"/>
<polygon fill="orange" stroke="orange" points="308.664,-325.842 299.247,-330.695 309.636,-332.774 308.664,-325.842"/>
<text text-anchor="middle" x="364.5" y="-330" font-family="Helvetica,sans-Serif" font-size="10.00"> &lt; Camera &gt;</text>
</g>
<!-- Node6&#45;&gt;Node16 -->
<g id="edge22" class="edge"><title>Node6&#45;&gt;Node16</title>
<path fill="none" stroke="orange" stroke-dasharray="5,2" d="M273.676,-319.99C285.323,-310.527 301.175,-299.053 317,-292 356.496,-274.396 376.103,-295.108 412,-271 423.668,-263.164 418.417,-252.96 430,-245 435.628,-241.132 441.96,-238.049 448.519,-235.591"/>
<polygon fill="orange" stroke="orange" points="271.41,-317.323 266,-326.433 275.91,-322.685 271.41,-317.323"/>
<text text-anchor="middle" x="364.5" y="-295" font-family="Helvetica,sans-Serif" font-size="10.00"> &lt; DisplayStatistics &gt;</text>
</g>
<!-- Node6&#45;&gt;Node22 -->
<g id="edge30" class="edge"><title>Node6&#45;&gt;Node22</title>
<path fill="none" stroke="orange" stroke-dasharray="5,2" d="M266.246,-317.766C277.19,-300.489 295.565,-274.758 317,-258 358.317,-225.698 415.97,-207.317 457.103,-197.576"/>
<polygon fill="orange" stroke="orange" points="263.205,-316.03 260.958,-326.384 269.171,-319.691 263.205,-316.03"/>
<text text-anchor="middle" x="364.5" y="-261" font-family="Helvetica,sans-Serif" font-size="10.00"> &lt; PauseMenu &gt;</text>
</g>
<!-- Node7 -->
<g id="node7" class="node"><title>Node7</title>
<g id="a_node7"><a xlink:title=" ">
<polygon fill="white" stroke="#bfbfbf" points="465,-444.5 465,-463.5 553,-463.5 553,-444.5 465,-444.5"/>
<text text-anchor="middle" x="509" y="-451.5" font-family="Helvetica,sans-Serif" font-size="10.00">SHADER_TYPE</text>
</a>
</g>
</g>
<!-- Node7&#45;&gt;Node3 -->
<g id="edge7" class="edge"><title>Node7&#45;&gt;Node3</title>
<path fill="none" stroke="#9a32cd" stroke-dasharray="5,2" d="M563.12,-447.769C594.847,-443.722 635.873,-437.918 672,-431 685.161,-428.48 699.732,-424.991 711.439,-422.012"/>
<polygon fill="#9a32cd" stroke="#9a32cd" points="562.649,-444.301 553.164,-449.02 563.522,-451.246 562.649,-444.301"/>
<text text-anchor="middle" x="639" y="-444" font-family="Helvetica,sans-Serif" font-size="10.00"> shaderType</text>
</g>
<!-- Node8 -->
<g id="node8" class="node"><title>Node8</title>
<g id="a_node8"><a xlink:title=" ">
<polygon fill="white" stroke="#bfbfbf" points="465,-406.5 465,-425.5 553,-425.5 553,-406.5 465,-406.5"/>
<text text-anchor="middle" x="509" y="-413.5" font-family="Helvetica,sans-Serif" font-size="10.00">SHADER_TASK</text>
</a>
</g>
</g>
<!-- Node8&#45;&gt;Node3 -->
<g id="edge8" class="edge"><title>Node8&#45;&gt;Node3</title>
<path fill="none" stroke="#9a32cd" stroke-dasharray="5,2" d="M563.243,-416C610.429,-416 677.027,-416 711.445,-416"/>
<polygon fill="#9a32cd" stroke="#9a32cd" points="563.189,-412.5 553.189,-416 563.189,-419.5 563.189,-412.5"/>
<text text-anchor="middle" x="639" y="-419" font-family="Helvetica,sans-Serif" font-size="10.00"> currentTask</text>
</g>
<!-- Node9 -->
<g id="node9" class="node"><title>Node9</title>
<g id="a_node9"><a xlink:href="../../d9/dd8/class_user_controls.html" target="_top" xlink:title=" ">
<polygon fill="white" stroke="black" points="698.5,-311.5 698.5,-330.5 771.5,-330.5 771.5,-311.5 698.5,-311.5"/>
<text text-anchor="middle" x="735" y="-318.5" font-family="Helvetica,sans-Serif" font-size="10.00">UserControls</text>
</a>
</g>
</g>
<!-- Node9&#45;&gt;Node1 -->
<g id="edge9" class="edge"><title>Node9&#45;&gt;Node1</title>
<path fill="none" stroke="#9a32cd" stroke-dasharray="5,2" d="M781.774,-312.806C813.003,-307.216 852.908,-300.072 876.906,-295.776"/>
<polygon fill="#9a32cd" stroke="#9a32cd" points="780.778,-309.428 771.552,-314.636 782.012,-316.319 780.778,-309.428"/>
<text text-anchor="middle" x="828.5" y="-312" font-family="Helvetica,sans-Serif" font-size="10.00"> userControls</text>
</g>
<!-- Node10&#45;&gt;Node9 -->
<g id="edge10" class="edge"><title>Node10&#45;&gt;Node9</title>
<path fill="none" stroke="midnightblue" d="M582.766,-366.641C610.928,-361.462 643.244,-354.555 672,-346 686.016,-341.83 701.255,-335.709 713.117,-330.567"/>
<polygon fill="midnightblue" stroke="midnightblue" points="581.816,-363.255 572.593,-368.47 583.055,-370.145 581.816,-363.255"/>
</g>
<!-- Node11 -->
<g id="node11" class="node"><title>Node11</title>
<g id="a_node11"><a xlink:href="../../d7/d9f/struct_user_controls_1_1_player_controls.html" target="_top" xlink:title=" ">
<polygon fill="white" stroke="black" points="437.5,-330.5 437.5,-349.5 580.5,-349.5 580.5,-330.5 437.5,-330.5"/>
<text text-anchor="middle" x="509" y="-337.5" font-family="Helvetica,sans-Serif" font-size="10.00">UserControls::PlayerControls</text>
</a>
</g>
</g>
<!-- Node11&#45;&gt;Node9 -->
<g id="edge13" class="edge"><title>Node11&#45;&gt;Node9</title>
<path fill="none" stroke="#9a32cd" stroke-dasharray="5,2" d="M590.811,-333.146C627.639,-330.022 669.355,-326.483 698.221,-324.035"/>
<polygon fill="#9a32cd" stroke="#9a32cd" points="590.236,-329.682 580.568,-334.014 590.828,-336.657 590.236,-329.682"/>
<text text-anchor="middle" x="639" y="-334" font-family="Helvetica,sans-Serif" font-size="10.00"> playerControls</text>
</g>
<!-- Node12 -->
<g id="node12" class="node"><title>Node12</title>
<g id="a_node12"><a xlink:href="../../d9/d06/struct_user_controls_1_1_gui_controls.html" target="_top" xlink:title=" ">
<polygon fill="white" stroke="black" points="444,-292.5 444,-311.5 574,-311.5 574,-292.5 444,-292.5"/>
<text text-anchor="middle" x="509" y="-299.5" font-family="Helvetica,sans-Serif" font-size="10.00">UserControls::GuiControls</text>
</a>
</g>
</g>
<!-- Node12&#45;&gt;Node9 -->
<g id="edge14" class="edge"><title>Node12&#45;&gt;Node9</title>
<path fill="none" stroke="#9a32cd" stroke-dasharray="5,2" d="M584.711,-304.518C612.205,-305.874 643.567,-307.926 672,-311 680.563,-311.926 689.746,-313.233 698.35,-314.597"/>
<polygon fill="#9a32cd" stroke="#9a32cd" points="584.531,-301.006 574.377,-304.032 584.201,-307.998 584.531,-301.006"/>
<text text-anchor="middle" x="639" y="-314" font-family="Helvetica,sans-Serif" font-size="10.00"> guiControls</text>
</g>
<!-- Node13 -->
<g id="node13" class="node"><title>Node13</title>
<g id="a_node13"><a xlink:href="../../da/dbb/class_camera.html" target="_top" xlink:title=" ">
<polygon fill="white" stroke="black" points="710,-254.5 710,-273.5 760,-273.5 760,-254.5 710,-254.5"/>
<text text-anchor="middle" x="735" y="-261.5" font-family="Helvetica,sans-Serif" font-size="10.00">Camera</text>
</a>
</g>
</g>
<!-- Node13&#45;&gt;Node1 -->
<g id="edge15" class="edge"><title>Node13&#45;&gt;Node1</title>
<path fill="none" stroke="#9a32cd" stroke-dasharray="5,2" d="M770.167,-268.015C794.943,-271.166 829.192,-276.015 859,-282 864.757,-283.156 870.934,-284.63 876.637,-286.089"/>
<polygon fill="#9a32cd" stroke="#9a32cd" points="770.526,-264.533 760.17,-266.771 769.661,-271.479 770.526,-264.533"/>
<text text-anchor="middle" x="828.5" y="-285" font-family="Helvetica,sans-Serif" font-size="10.00"> camera</text>
</g>
<!-- Node14&#45;&gt;Node13 -->
<g id="edge16" class="edge"><title>Node14&#45;&gt;Node13</title>
<path fill="none" stroke="midnightblue" d="M578.477,-264C623.083,-264 678.595,-264 709.788,-264"/>
<polygon fill="midnightblue" stroke="midnightblue" points="578.269,-260.5 568.269,-264 578.269,-267.5 578.269,-260.5"/>
</g>
<!-- Node15 -->
<g id="node15" class="node"><title>Node15</title>
<g id="a_node15"><a xlink:href="../../dc/d84/class_display_statistics.html" target="_top" xlink:title=" ">
<polygon fill="white" stroke="black" points="690,-216.5 690,-235.5 780,-235.5 780,-216.5 690,-216.5"/>
<text text-anchor="middle" x="735" y="-223.5" font-family="Helvetica,sans-Serif" font-size="10.00">DisplayStatistics</text>
</a>
</g>
</g>
<!-- Node15&#45;&gt;Node1 -->
<g id="edge19" class="edge"><title>Node15&#45;&gt;Node1</title>
<path fill="none" stroke="#9a32cd" stroke-dasharray="5,2" d="M790.046,-233.081C812.33,-237.521 837.836,-244.648 859,-256 871.343,-262.62 882.777,-274.07 890.031,-282.281"/>
<polygon fill="#9a32cd" stroke="#9a32cd" points="790.532,-229.611 780.06,-231.224 789.252,-236.493 790.532,-229.611"/>
<text text-anchor="middle" x="828.5" y="-259" font-family="Helvetica,sans-Serif" font-size="10.00"> statDisplayer</text>
</g>
<!-- Node16&#45;&gt;Node15 -->
<g id="edge20" class="edge"><title>Node16&#45;&gt;Node15</title>
<path fill="none" stroke="midnightblue" d="M598.137,-226C629.592,-226 663.681,-226 689.844,-226"/>
<polygon fill="midnightblue" stroke="midnightblue" points="598.03,-222.5 588.03,-226 598.03,-229.5 598.03,-222.5"/>
</g>
<!-- Node17 -->
<g id="node17" class="node"><title>Node17</title>
<g id="a_node17"><a xlink:href="../../dd/df5/class_gui_string.html" target="_top" xlink:title=" ">
<polygon fill="white" stroke="black" points="226,-118.5 226,-137.5 283,-137.5 283,-118.5 226,-118.5"/>
<text text-anchor="middle" x="254.5" y="-125.5" font-family="Helvetica,sans-Serif" font-size="10.00">GuiString</text>
</a>
</g>
</g>
<!-- Node17&#45;&gt;Node15 -->
<g id="edge23" class="edge"><title>Node17&#45;&gt;Node15</title>
<path fill="none" stroke="#9a32cd" stroke-dasharray="5,2" d="M293.121,-131.724C301.008,-132.49 309.276,-133.281 317,-134 437.396,-145.204 471.214,-126.669 588,-158 637.962,-171.404 691.959,-200.947 718.068,-216.303"/>
<polygon fill="#9a32cd" stroke="#9a32cd" points="293.341,-128.229 283.048,-130.741 292.661,-135.196 293.341,-128.229"/>
<text text-anchor="middle" x="509" y="-161" font-family="Helvetica,sans-Serif" font-size="10.00"> guiString</text>
</g>
<!-- Node21 -->
<g id="node21" class="node"><title>Node21</title>
<g id="a_node21"><a xlink:href="../../d4/de5/class_pause_menu.html" target="_top" xlink:title=" ">
<polygon fill="white" stroke="black" points="701,-102.5 701,-121.5 769,-121.5 769,-102.5 701,-102.5"/>
<text text-anchor="middle" x="735" y="-109.5" font-family="Helvetica,sans-Serif" font-size="10.00">PauseMenu</text>
</a>
</g>
</g>
<!-- Node17&#45;&gt;Node21 -->
<g id="edge36" class="edge"><title>Node17&#45;&gt;Node21</title>
<path fill="none" stroke="#9a32cd" stroke-dasharray="5,2" d="M293.613,-124.767C328.943,-121.916 382.98,-117.925 430,-116 528.357,-111.974 644.748,-111.691 700.696,-111.834"/>
<polygon fill="#9a32cd" stroke="#9a32cd" points="292.96,-121.309 283.278,-125.612 293.53,-128.286 292.96,-121.309"/>
<text text-anchor="middle" x="509" y="-119" font-family="Helvetica,sans-Serif" font-size="10.00"> str</text>
</g>
<!-- Node18 -->
<g id="node18" class="node"><title>Node18</title>
<g id="a_node18"><a xlink:href="../../d1/d39/class_gui_base.html" target="_top" xlink:title=" ">
<polygon fill="white" stroke="black" points="24.5,-48.5 24.5,-67.5 78.5,-67.5 78.5,-48.5 24.5,-48.5"/>
<text text-anchor="middle" x="51.5" y="-55.5" font-family="Helvetica,sans-Serif" font-size="10.00">GuiBase</text>
</a>
</g>
</g>
<!-- Node18&#45;&gt;Node17 -->
<g id="edge24" class="edge"><title>Node18&#45;&gt;Node17</title>
<path fill="none" stroke="midnightblue" d="M88.2643,-70.4552C127.657,-84.174 190.149,-105.938 225.927,-118.398"/>
<polygon fill="midnightblue" stroke="midnightblue" points="89.3721,-67.1349 78.7772,-67.1513 87.0698,-73.7455 89.3721,-67.1349"/>
</g>
<!-- Node24 -->
<g id="node24" class="node"><title>Node24</title>
<g id="a_node24"><a xlink:href="../../d1/db9/class_gui_sprite.html" target="_top" xlink:title=" ">
<polygon fill="white" stroke="black" points="226,-28.5 226,-47.5 283,-47.5 283,-28.5 226,-28.5"/>
<text text-anchor="middle" x="254.5" y="-35.5" font-family="Helvetica,sans-Serif" font-size="10.00">GuiSprite</text>
</a>
</g>
</g>
<!-- Node18&#45;&gt;Node24 -->
<g id="edge33" class="edge"><title>Node18&#45;&gt;Node24</title>
<path fill="none" stroke="midnightblue" d="M88.5643,-53.6104C99.0212,-52.3858 110.46,-51.0926 121,-50 157.185,-46.2491 198.998,-42.5714 225.818,-40.2966"/>
<polygon fill="midnightblue" stroke="midnightblue" points="88.0233,-50.1499 78.5045,-54.8021 88.8469,-57.1013 88.0233,-50.1499"/>
</g>
<!-- Node19 -->
<g id="node19" class="node"><title>Node19</title>
<g id="a_node19"><a xlink:href="../../d2/d7f/class_texture.html" target="_top" xlink:title=" ">
<polygon fill="white" stroke="black" points="27,-105.5 27,-124.5 76,-124.5 76,-105.5 27,-105.5"/>
<text text-anchor="middle" x="51.5" y="-112.5" font-family="Helvetica,sans-Serif" font-size="10.00">Texture</text>
</a>
</g>
</g>
<!-- Node19&#45;&gt;Node17 -->
<g id="edge25" class="edge"><title>Node19&#45;&gt;Node17</title>
<path fill="none" stroke="#9a32cd" stroke-dasharray="5,2" d="M86.4781,-117.198C125.709,-119.735 189.488,-123.86 225.829,-126.21"/>
<polygon fill="#9a32cd" stroke="#9a32cd" points="86.5517,-113.695 76.3467,-116.542 86.0999,-120.681 86.5517,-113.695"/>
<text text-anchor="middle" x="156.5" y="-127" font-family="Helvetica,sans-Serif" font-size="10.00"> currentTexture</text>
</g>
<!-- Node19&#45;&gt;Node24 -->
<g id="edge35" class="edge"><title>Node19&#45;&gt;Node24</title>
<path fill="none" stroke="#9a32cd" stroke-dasharray="5,2" d="M85.6951,-102.283C125.799,-86.9202 192.364,-61.4204 228.424,-47.6061"/>
<polygon fill="#9a32cd" stroke="#9a32cd" points="84.4328,-99.0189 76.3467,-105.865 86.937,-105.556 84.4328,-99.0189"/>
<text text-anchor="middle" x="156.5" y="-91" font-family="Helvetica,sans-Serif" font-size="10.00"> texture</text>
</g>
<!-- Node20 -->
<g id="node20" class="node"><title>Node20</title>
<g id="a_node20"><a xlink:href="../../db/d74/class_text_map.html" target="_top" xlink:title=" ">
<polygon fill="white" stroke="black" points="24.5,-152.5 24.5,-171.5 78.5,-171.5 78.5,-152.5 24.5,-152.5"/>
<text text-anchor="middle" x="51.5" y="-159.5" font-family="Helvetica,sans-Serif" font-size="10.00">TextMap</text>
</a>
</g>
</g>
<!-- Node20&#45;&gt;Node17 -->
<g id="edge26" class="edge"><title>Node20&#45;&gt;Node17</title>
<path fill="none" stroke="#9a32cd" stroke-dasharray="5,2" d="M88.9237,-156.134C117.085,-151.564 157.035,-145.009 192,-139 203.117,-137.089 215.352,-134.916 225.961,-133.008"/>
<polygon fill="#9a32cd" stroke="#9a32cd" points="88.0548,-152.729 78.7429,-157.782 89.1738,-159.639 88.0548,-152.729"/>
<text text-anchor="middle" x="156.5" y="-154" font-family="Helvetica,sans-Serif" font-size="10.00"> currentTextMap</text>
</g>
<!-- Node21&#45;&gt;Node1 -->
<g id="edge27" class="edge"><title>Node21&#45;&gt;Node1</title>
<path fill="none" stroke="#9a32cd" stroke-dasharray="5,2" d="M758.208,-127.656C784.621,-147.081 828.909,-182.277 859,-220 875.134,-240.226 888.04,-268.084 894.152,-282.5"/>
<polygon fill="#9a32cd" stroke="#9a32cd" points="760.133,-124.729 749.983,-121.693 756.024,-130.396 760.133,-124.729"/>
<text text-anchor="middle" x="828.5" y="-223" font-family="Helvetica,sans-Serif" font-size="10.00"> menu</text>
</g>
<!-- Node22&#45;&gt;Node21 -->
<g id="edge28" class="edge"><title>Node22&#45;&gt;Node21</title>
<path fill="none" stroke="midnightblue" d="M552.267,-175.363C563.881,-171.79 576.455,-167.83 588,-164 630.393,-149.936 679.197,-132.247 708.272,-121.547"/>
<polygon fill="midnightblue" stroke="midnightblue" points="550.899,-172.121 542.358,-178.389 552.944,-178.816 550.899,-172.121"/>
</g>
<!-- Node23 -->
<g id="node23" class="node"><title>Node23</title>
<g id="a_node23"><a xlink:href="../../d6/d17/class_gui_button.html" target="_top" xlink:title=" ">
<polygon fill="white" stroke="black" points="479,-40.5 479,-59.5 539,-59.5 539,-40.5 479,-40.5"/>
<text text-anchor="middle" x="509" y="-47.5" font-family="Helvetica,sans-Serif" font-size="10.00">GuiButton</text>
</a>
</g>
</g>
<!-- Node23&#45;&gt;Node21 -->
<g id="edge31" class="edge"><title>Node23&#45;&gt;Node21</title>
<path fill="none" stroke="#9a32cd" stroke-dasharray="5,2" d="M549.545,-51.4358C583.03,-53.6824 631.851,-59.4143 672,-74 690.511,-80.7249 709.485,-93.3646 721.483,-102.213"/>
<polygon fill="#9a32cd" stroke="#9a32cd" points="549.433,-47.923 539.242,-50.8221 549.016,-54.9106 549.433,-47.923"/>
<text text-anchor="middle" x="639" y="-77" font-family="Helvetica,sans-Serif" font-size="10.00"> resumeButton</text>
</g>
<!-- Node24&#45;&gt;Node23 -->
<g id="edge32" class="edge"><title>Node24&#45;&gt;Node23</title>
<path fill="none" stroke="midnightblue" d="M293.219,-39.7926C343.967,-42.2043 433.138,-46.4422 478.981,-48.6209"/>
<polygon fill="midnightblue" stroke="midnightblue" points="293.157,-36.2858 283.003,-39.3071 292.825,-43.2779 293.157,-36.2858"/>
</g>
<!-- Node25 -->
<g id="node25" class="node"><title>Node25</title>
<g id="a_node25"><a xlink:href="../../d3/df8/class_quad.html" target="_top" xlink:title=" ">
<polygon fill="white" stroke="black" points="31.5,-0.5 31.5,-19.5 71.5,-19.5 71.5,-0.5 31.5,-0.5"/>
<text text-anchor="middle" x="51.5" y="-7.5" font-family="Helvetica,sans-Serif" font-size="10.00">Quad</text>
</a>
</g>
</g>
<!-- Node25&#45;&gt;Node24 -->
<g id="edge34" class="edge"><title>Node25&#45;&gt;Node24</title>
<path fill="none" stroke="#9a32cd" stroke-dasharray="5,2" d="M81.9313,-13.9221C110.172,-17.706 154.015,-23.634 192,-29 203.112,-30.5698 215.346,-32.3495 225.955,-33.9094"/>
<polygon fill="#9a32cd" stroke="#9a32cd" points="82.2922,-10.4393 71.9164,-12.5825 81.3641,-17.3775 82.2922,-10.4393"/>
<text text-anchor="middle" x="156.5" y="-32" font-family="Helvetica,sans-Serif" font-size="10.00"> quad</text>
</g>
</g>
</svg>
