<?xml version="1.0" encoding="UTF-8" standalone="no"?>
<!DOCTYPE svg PUBLIC "-//W3C//DTD SVG 1.1//EN"
 "http://www.w3.org/Graphics/SVG/1.1/DTD/svg11.dtd">
<!-- Generated by graphviz version 2.38.0 (20140413.2041)
 -->
<!-- Title: PlayerController Pages: 1 -->
<svg width="208pt" height="209pt"
 viewBox="0.00 0.00 207.50 209.00" xmlns="http://www.w3.org/2000/svg" xmlns:xlink="http://www.w3.org/1999/xlink">
<g id="graph0" class="graph" transform="scale(1 1) rotate(0) translate(4 205)">
<title>PlayerController</title>
<polygon fill="white" stroke="none" points="-4,4 -4,-205 203.5,-205 203.5,4 -4,4"/>
<!-- Node1 -->
<g id="node1" class="node"><title>Node1</title>
<g id="a_node1"><a xlink:title=" ">
<polygon fill="#bfbfbf" stroke="black" points="33.5,-0.5 33.5,-19.5 119.5,-19.5 119.5,-0.5 33.5,-0.5"/>
<text text-anchor="middle" x="76.5" y="-7.5" font-family="Helvetica,sans-Serif" font-size="10.00">PlayerController</text>
</a>
</g>
</g>
<!-- Node2 -->
<g id="node2" class="node"><title>Node2</title>
<g id="a_node2"><a xlink:href="../../d2/d00/class_component.html" target="_top" xlink:title=" ">
<polygon fill="white" stroke="black" points="0,-57.5 0,-76.5 153,-76.5 153,-57.5 0,-57.5"/>
<text text-anchor="middle" x="76.5" y="-64.5" font-family="Helvetica,sans-Serif" font-size="10.00">Component&lt; PlayerController &gt;</text>
</a>
</g>
</g>
<!-- Node2&#45;&gt;Node1 -->
<g id="edge1" class="edge"><title>Node2&#45;&gt;Node1</title>
<path fill="none" stroke="midnightblue" d="M76.5,-47.1166C76.5,-37.8173 76.5,-27.0557 76.5,-19.7149"/>
<polygon fill="midnightblue" stroke="midnightblue" points="73.0001,-47.4062 76.5,-57.4063 80.0001,-47.4063 73.0001,-47.4062"/>
</g>
<!-- Node3 -->
<g id="node3" class="node"><title>Node3</title>
<g id="a_node3"><a xlink:href="../../d5/d79/class_component_interface.html" target="_top" xlink:title=" ">
<polygon fill="white" stroke="black" points="33,-181.5 33,-200.5 136,-200.5 136,-181.5 33,-181.5"/>
<text text-anchor="middle" x="84.5" y="-188.5" font-family="Helvetica,sans-Serif" font-size="10.00">ComponentInterface</text>
</a>
</g>
</g>
<!-- Node3&#45;&gt;Node2 -->
<g id="edge2" class="edge"><title>Node3&#45;&gt;Node2</title>
<path fill="none" stroke="midnightblue" d="M82.1478,-171.087C81.1924,-162.788 80.1602,-152.923 79.5,-144 77.707,-119.77 76.9417,-91.1087 76.653,-76.9036"/>
<polygon fill="midnightblue" stroke="midnightblue" points="78.6945,-171.686 83.3611,-181.198 85.6446,-170.852 78.6945,-171.686"/>
</g>
<!-- Node4 -->
<g id="node4" class="node"><title>Node4</title>
<g id="a_node4"><a xlink:href="../../d2/d00/class_component.html" target="_top" xlink:title=" ">
<polygon fill="white" stroke="black" points="89,-124.5 89,-143.5 178,-143.5 178,-124.5 89,-124.5"/>
<text text-anchor="middle" x="133.5" y="-131.5" font-family="Helvetica,sans-Serif" font-size="10.00">Component&lt; T &gt;</text>
</a>
</g>
</g>
<!-- Node3&#45;&gt;Node4 -->
<g id="edge4" class="edge"><title>Node3&#45;&gt;Node4</title>
<path fill="none" stroke="midnightblue" d="M98.9077,-173.828C107.682,-163.979 118.549,-151.782 125.736,-143.715"/>
<polygon fill="midnightblue" stroke="midnightblue" points="96.195,-171.611 92.1563,-181.406 101.422,-176.268 96.195,-171.611"/>
</g>
<!-- Node4&#45;&gt;Node2 -->
<g id="edge3" class="edge"><title>Node4&#45;&gt;Node2</title>
<path fill="none" stroke="orange" stroke-dasharray="5,2" d="M119.149,-116.635C108.002,-103.923 92.9842,-86.7978 84.0655,-76.6273"/>
<polygon fill="orange" stroke="orange" points="116.588,-119.023 125.813,-124.234 121.851,-114.408 116.588,-119.023"/>
<text text-anchor="middle" x="154" y="-98" font-family="Helvetica,sans-Serif" font-size="10.00"> &lt; PlayerController &gt;</text>
</g>
</g>
</svg>
