<?xml version="1.0" encoding="UTF-8" standalone="no"?>
<!DOCTYPE svg PUBLIC "-//W3C//DTD SVG 1.1//EN"
 "http://www.w3.org/Graphics/SVG/1.1/DTD/svg11.dtd">
<!-- Generated by graphviz version 2.38.0 (20140413.2041)
 -->
<!-- Title: _3DM::Model::amountOfMeshes Pages: 1 -->
<svg width="345pt" height="127pt"
 viewBox="0.00 0.00 345.00 126.50" xmlns="http://www.w3.org/2000/svg" xmlns:xlink="http://www.w3.org/1999/xlink">
<g id="graph0" class="graph" transform="scale(1 1) rotate(0) translate(4 122.5)">
<title>_3DM::Model::amountOfMeshes</title>
<polygon fill="white" stroke="none" points="-4,4 -4,-122.5 341,-122.5 341,4 -4,4"/>
<!-- Node1 -->
<g id="node1" class="node"><title>Node1</title>
<g id="a_node1"><a xlink:title=" ">
<polygon fill="#bfbfbf" stroke="black" points="180,-44.5 180,-63.5 337,-63.5 337,-44.5 180,-44.5"/>
<text text-anchor="middle" x="258.5" y="-51.5" font-family="Helvetica,sans-Serif" font-size="10.00">_3DM::Model::amountOfMeshes</text>
</a>
</g>
</g>
<!-- Node2 -->
<g id="node2" class="node"><title>Node2</title>
<g id="a_node2"><a xlink:href="../../d4/daa/class_collision_mesh.html#a63d414473980aae111084bacc5b5ac2f" target="_top" xlink:title=" ">
<polygon fill="white" stroke="black" points="0,-88 0,-118 144,-118 144,-88 0,-88"/>
<text text-anchor="start" x="8" y="-106" font-family="Helvetica,sans-Serif" font-size="10.00">CollisionMesh::createTriangle</text>
<text text-anchor="middle" x="72" y="-95" font-family="Helvetica,sans-Serif" font-size="10.00">MeshCollider</text>
</a>
</g>
</g>
<!-- Node1&#45;&gt;Node2 -->
<g id="edge1" class="edge"><title>Node1&#45;&gt;Node2</title>
<path fill="none" stroke="midnightblue" d="M211.603,-66.1896C186.784,-72.7808 155.919,-80.9782 129.619,-87.963"/>
<polygon fill="midnightblue" stroke="midnightblue" points="212.722,-69.5137 221.489,-63.564 210.925,-62.7482 212.722,-69.5137"/>
</g>
<!-- Node3 -->
<g id="node3" class="node"><title>Node3</title>
<g id="a_node3"><a xlink:href="../../d4/daa/class_collision_mesh.html#adff27d757ba82124af0fe51c225a6e9e" target="_top" xlink:title=" ">
<polygon fill="white" stroke="black" points="0,-39 0,-69 144,-69 144,-39 0,-39"/>
<text text-anchor="start" x="8" y="-57" font-family="Helvetica,sans-Serif" font-size="10.00">CollisionMesh::createTriangle</text>
<text text-anchor="middle" x="72" y="-46" font-family="Helvetica,sans-Serif" font-size="10.00">ModelCollider</text>
</a>
</g>
</g>
<!-- Node1&#45;&gt;Node3 -->
<g id="edge2" class="edge"><title>Node1&#45;&gt;Node3</title>
<path fill="none" stroke="midnightblue" d="M169.759,-54C161.179,-54 152.546,-54 144.159,-54"/>
<polygon fill="midnightblue" stroke="midnightblue" points="169.79,-57.5001 179.79,-54 169.79,-50.5001 169.79,-57.5001"/>
</g>
<!-- Node4 -->
<g id="node4" class="node"><title>Node4</title>
<g id="a_node4"><a xlink:href="../../da/d3c/class_floor_object.html#a5f324e5913659265a3ac615c8888c524" target="_top" xlink:title=" ">
<polygon fill="white" stroke="black" points="18,-0.5 18,-19.5 126,-19.5 126,-0.5 18,-0.5"/>
<text text-anchor="middle" x="72" y="-7.5" font-family="Helvetica,sans-Serif" font-size="10.00">FloorObject::initialize</text>
</a>
</g>
</g>
<!-- Node1&#45;&gt;Node4 -->
<g id="edge3" class="edge"><title>Node1&#45;&gt;Node4</title>
<path fill="none" stroke="midnightblue" d="M207.7,-42.1236C177.98,-35.0358 140.742,-26.1552 112.956,-19.5287"/>
<polygon fill="midnightblue" stroke="midnightblue" points="206.927,-45.5373 217.466,-44.4527 208.551,-38.7283 206.927,-45.5373"/>
</g>
</g>
</svg>
