<?xml version="1.0" encoding="UTF-8" standalone="no"?>
<!DOCTYPE svg PUBLIC "-//W3C//DTD SVG 1.1//EN"
 "http://www.w3.org/Graphics/SVG/1.1/DTD/svg11.dtd">
<!-- Generated by graphviz version 2.38.0 (20140413.2041)
 -->
<!-- Title: PhysicsWorld::initializeDebugDraw Pages: 1 -->
<svg width="309pt" height="66pt"
 viewBox="0.00 0.00 309.00 66.00" xmlns="http://www.w3.org/2000/svg" xmlns:xlink="http://www.w3.org/1999/xlink">
<g id="graph0" class="graph" transform="scale(1 1) rotate(0) translate(4 62)">
<title>PhysicsWorld::initializeDebugDraw</title>
<polygon fill="white" stroke="none" points="-4,4 -4,-62 305,-62 305,4 -4,4"/>
<!-- Node1 -->
<g id="node1" class="node"><title>Node1</title>
<g id="a_node1"><a xlink:title=" ">
<polygon fill="#bfbfbf" stroke="black" points="0,-14 0,-44 119,-44 119,-14 0,-14"/>
<text text-anchor="start" x="8" y="-32" font-family="Helvetica,sans-Serif" font-size="10.00">PhysicsWorld::initialize</text>
<text text-anchor="middle" x="59.5" y="-21" font-family="Helvetica,sans-Serif" font-size="10.00">DebugDraw</text>
</a>
</g>
</g>
<!-- Node2 -->
<g id="node2" class="node"><title>Node2</title>
<g id="a_node2"><a xlink:href="../../d1/da2/class_debug_drawer.html#a590663c66c9953dcebacbb399d749730" target="_top" xlink:title=" ">
<polygon fill="white" stroke="black" points="170,-38.5 170,-57.5 286,-57.5 286,-38.5 170,-38.5"/>
<text text-anchor="middle" x="228" y="-45.5" font-family="Helvetica,sans-Serif" font-size="10.00">DebugDrawer::initialize</text>
</a>
</g>
</g>
<!-- Node1&#45;&gt;Node2 -->
<g id="edge1" class="edge"><title>Node1&#45;&gt;Node2</title>
<path fill="none" stroke="midnightblue" d="M119.202,-35.6987C132.333,-37.1971 146.359,-38.7977 159.804,-40.332"/>
<polygon fill="midnightblue" stroke="midnightblue" points="159.615,-43.8331 169.948,-41.4895 160.409,-36.8782 159.615,-43.8331"/>
</g>
<!-- Node3 -->
<g id="node3" class="node"><title>Node3</title>
<g id="a_node3"><a xlink:href="../../d1/da2/class_debug_drawer.html#a61ad63653eddf7549c2e748ae6022aa6" target="_top" xlink:title=" ">
<polygon fill="white" stroke="black" points="155,-0.5 155,-19.5 301,-19.5 301,-0.5 155,-0.5"/>
<text text-anchor="middle" x="228" y="-7.5" font-family="Helvetica,sans-Serif" font-size="10.00">DebugDrawer::setDebugMode</text>
</a>
</g>
</g>
<!-- Node1&#45;&gt;Node3 -->
<g id="edge2" class="edge"><title>Node1&#45;&gt;Node3</title>
<path fill="none" stroke="midnightblue" d="M119.202,-22.3013C127.479,-21.3568 136.111,-20.3717 144.73,-19.3882"/>
<polygon fill="midnightblue" stroke="midnightblue" points="145.28,-22.8482 154.819,-18.2369 144.487,-15.8933 145.28,-22.8482"/>
</g>
</g>
</svg>
