<?xml version="1.0" encoding="UTF-8" standalone="no"?>
<!DOCTYPE svg PUBLIC "-//W3C//DTD SVG 1.1//EN"
 "http://www.w3.org/Graphics/SVG/1.1/DTD/svg11.dtd">
<!-- Generated by graphviz version 2.38.0 (20140413.2041)
 -->
<!-- Title: PhysicsWorld::debugDraw Pages: 1 -->
<svg width="1289pt" height="39pt"
 viewBox="0.00 0.00 1289.00 39.00" xmlns="http://www.w3.org/2000/svg" xmlns:xlink="http://www.w3.org/1999/xlink">
<g id="graph0" class="graph" transform="scale(1 1) rotate(0) translate(4 35)">
<title>PhysicsWorld::debugDraw</title>
<polygon fill="white" stroke="none" points="-4,4 -4,-35 1285,-35 1285,4 -4,4"/>
<!-- Node1 -->
<g id="node1" class="node"><title>Node1</title>
<g id="a_node1"><a xlink:title=" ">
<polygon fill="#bfbfbf" stroke="black" points="1150,-6 1150,-25 1281,-25 1281,-6 1150,-6"/>
<text text-anchor="middle" x="1215.5" y="-13" font-family="Helvetica,sans-Serif" font-size="10.00">PhysicsWorld::debugDraw</text>
</a>
</g>
</g>
<!-- Node2 -->
<g id="node2" class="node"><title>Node2</title>
<g id="a_node2"><a xlink:href="../../d1/dee/class_debugging_controller.html#af5bb093ed69faabd1e1e42a5dacf47da" target="_top" xlink:title=" ">
<polygon fill="white" stroke="black" points="986,-0.5 986,-30.5 1114,-30.5 1114,-0.5 986,-0.5"/>
<text text-anchor="start" x="994" y="-18.5" font-family="Helvetica,sans-Serif" font-size="10.00">DebuggingController</text>
<text text-anchor="middle" x="1050" y="-7.5" font-family="Helvetica,sans-Serif" font-size="10.00">::executeDebugRendering</text>
</a>
</g>
</g>
<!-- Node1&#45;&gt;Node2 -->
<g id="edge1" class="edge"><title>Node1&#45;&gt;Node2</title>
<path fill="none" stroke="midnightblue" d="M1139.84,-15.5C1131.23,-15.5 1122.52,-15.5 1114.08,-15.5"/>
<polygon fill="midnightblue" stroke="midnightblue" points="1139.88,-19.0001 1149.88,-15.5 1139.88,-12.0001 1139.88,-19.0001"/>
</g>
<!-- Node3 -->
<g id="node3" class="node"><title>Node3</title>
<g id="a_node3"><a xlink:href="../../d8/d31/class_rendering_system.html#ad47afdc3d5267073f53695fcd483ee89" target="_top" xlink:title=" ">
<polygon fill="white" stroke="black" points="777,-6 777,-25 950,-25 950,-6 777,-6"/>
<text text-anchor="middle" x="863.5" y="-13" font-family="Helvetica,sans-Serif" font-size="10.00">RenderingSystem::renderDebugging</text>
</a>
</g>
</g>
<!-- Node2&#45;&gt;Node3 -->
<g id="edge2" class="edge"><title>Node2&#45;&gt;Node3</title>
<path fill="none" stroke="midnightblue" d="M975.666,-15.5C967.282,-15.5 958.681,-15.5 950.156,-15.5"/>
<polygon fill="midnightblue" stroke="midnightblue" points="975.764,-19.0001 985.764,-15.5 975.764,-12.0001 975.764,-19.0001"/>
</g>
<!-- Node4 -->
<g id="node4" class="node"><title>Node4</title>
<g id="a_node4"><a xlink:href="../../d8/d31/class_rendering_system.html#a9f1ec48fdfa79ddc55421b6014fdb9c6" target="_top" xlink:title=" ">
<polygon fill="white" stroke="black" points="603,-6 603,-25 741,-25 741,-6 603,-6"/>
<text text-anchor="middle" x="672" y="-13" font-family="Helvetica,sans-Serif" font-size="10.00">RenderingSystem::renderAll</text>
</a>
</g>
</g>
<!-- Node3&#45;&gt;Node4 -->
<g id="edge3" class="edge"><title>Node3&#45;&gt;Node4</title>
<path fill="none" stroke="midnightblue" d="M766.772,-15.5C758.136,-15.5 749.51,-15.5 741.183,-15.5"/>
<polygon fill="midnightblue" stroke="midnightblue" points="766.898,-19.0001 776.898,-15.5 766.898,-12.0001 766.898,-19.0001"/>
</g>
<!-- Node5 -->
<g id="node5" class="node"><title>Node5</title>
<g id="a_node5"><a xlink:href="../../d8/d31/class_rendering_system.html#ae6a25f6b28ebe40f08916d9eadc95ac2" target="_top" xlink:title=" ">
<polygon fill="white" stroke="black" points="440,-6 440,-25 567,-25 567,-6 440,-6"/>
<text text-anchor="middle" x="503.5" y="-13" font-family="Helvetica,sans-Serif" font-size="10.00">RenderingSystem::render</text>
</a>
</g>
</g>
<!-- Node4&#45;&gt;Node5 -->
<g id="edge4" class="edge"><title>Node4&#45;&gt;Node5</title>
<path fill="none" stroke="midnightblue" d="M592.795,-15.5C584.227,-15.5 575.588,-15.5 567.242,-15.5"/>
<polygon fill="midnightblue" stroke="midnightblue" points="592.798,-19.0001 602.798,-15.5 592.798,-12.0001 592.798,-19.0001"/>
</g>
<!-- Node6 -->
<g id="node6" class="node"><title>Node6</title>
<g id="a_node6"><a xlink:href="../../dd/d1f/class_game.html#a15ddd769261d923827a3cdf41499c843" target="_top" xlink:title=" ">
<polygon fill="white" stroke="black" points="328,-6 328,-25 404,-25 404,-6 328,-6"/>
<text text-anchor="middle" x="366" y="-13" font-family="Helvetica,sans-Serif" font-size="10.00">Game::render</text>
</a>
</g>
</g>
<!-- Node5&#45;&gt;Node6 -->
<g id="edge5" class="edge"><title>Node5&#45;&gt;Node6</title>
<path fill="none" stroke="midnightblue" d="M429.877,-15.5C421.008,-15.5 412.25,-15.5 404.216,-15.5"/>
<polygon fill="midnightblue" stroke="midnightblue" points="429.906,-19.0001 439.906,-15.5 429.906,-12.0001 429.906,-19.0001"/>
</g>
<!-- Node7 -->
<g id="node7" class="node"><title>Node7</title>
<g id="a_node7"><a xlink:href="../../de/d6b/class_application.html#a9ac99d97ee1cc814298a2f2388bde835" target="_top" xlink:title=" ">
<polygon fill="white" stroke="black" points="194,-6 194,-25 292,-25 292,-6 194,-6"/>
<text text-anchor="middle" x="243" y="-13" font-family="Helvetica,sans-Serif" font-size="10.00">Application::render</text>
</a>
</g>
</g>
<!-- Node6&#45;&gt;Node7 -->
<g id="edge6" class="edge"><title>Node6&#45;&gt;Node7</title>
<path fill="none" stroke="midnightblue" d="M317.684,-15.5C309.282,-15.5 300.524,-15.5 292.101,-15.5"/>
<polygon fill="midnightblue" stroke="midnightblue" points="317.709,-19.0001 327.709,-15.5 317.709,-12.0001 317.709,-19.0001"/>
</g>
<!-- Node8 -->
<g id="node8" class="node"><title>Node8</title>
<g id="a_node8"><a xlink:href="../../de/d6b/class_application.html#a68965449404743bf1add056784d6cf81" target="_top" xlink:title=" ">
<polygon fill="white" stroke="black" points="74,-6 74,-25 158,-25 158,-6 74,-6"/>
<text text-anchor="middle" x="116" y="-13" font-family="Helvetica,sans-Serif" font-size="10.00">Application::run</text>
</a>
</g>
</g>
<!-- Node7&#45;&gt;Node8 -->
<g id="edge7" class="edge"><title>Node7&#45;&gt;Node8</title>
<path fill="none" stroke="midnightblue" d="M183.411,-15.5C174.926,-15.5 166.343,-15.5 158.294,-15.5"/>
<polygon fill="midnightblue" stroke="midnightblue" points="183.672,-19.0001 193.672,-15.5 183.672,-12.0001 183.672,-19.0001"/>
</g>
<!-- Node9 -->
<g id="node9" class="node"><title>Node9</title>
<g id="a_node9"><a xlink:href="../../d5/d12/_main_8cpp.html#a0ddf1224851353fc92bfbff6f499fa97" target="_top" xlink:title=" ">
<polygon fill="white" stroke="black" points="0,-6 0,-25 38,-25 38,-6 0,-6"/>
<text text-anchor="middle" x="19" y="-13" font-family="Helvetica,sans-Serif" font-size="10.00">main</text>
</a>
</g>
</g>
<!-- Node8&#45;&gt;Node9 -->
<g id="edge8" class="edge"><title>Node8&#45;&gt;Node9</title>
<path fill="none" stroke="midnightblue" d="M63.6206,-15.5C54.5384,-15.5 45.6466,-15.5 38.2853,-15.5"/>
<polygon fill="midnightblue" stroke="midnightblue" points="63.8842,-19.0001 73.8841,-15.5 63.8841,-12.0001 63.8842,-19.0001"/>
</g>
</g>
</svg>
