<?xml version="1.0" encoding="UTF-8" standalone="no"?>
<!DOCTYPE svg PUBLIC "-//W3C//DTD SVG 1.1//EN"
 "http://www.w3.org/Graphics/SVG/1.1/DTD/svg11.dtd">
<!-- Generated by graphviz version 2.38.0 (20140413.2041)
 -->
<!-- Title: SoundHandler::addSound Pages: 1 -->
<svg width="506pt" height="121pt"
 viewBox="0.00 0.00 506.00 120.50" xmlns="http://www.w3.org/2000/svg" xmlns:xlink="http://www.w3.org/1999/xlink">
<g id="graph0" class="graph" transform="scale(1 1) rotate(0) translate(4 116.5)">
<title>SoundHandler::addSound</title>
<polygon fill="white" stroke="none" points="-4,4 -4,-116.5 502,-116.5 502,4 -4,4"/>
<!-- Node1 -->
<g id="node1" class="node"><title>Node1</title>
<g id="a_node1"><a xlink:title=" ">
<polygon fill="#bfbfbf" stroke="black" points="0,-30 0,-49 127,-49 127,-30 0,-30"/>
<text text-anchor="middle" x="63.5" y="-37" font-family="Helvetica,sans-Serif" font-size="10.00">SoundHandler::addSound</text>
</a>
</g>
</g>
<!-- Node2 -->
<g id="node2" class="node"><title>Node2</title>
<g id="a_node2"><a xlink:href="../../d1/d8c/class_sound_handler.html#ad1474636f3c8f108ef37667e072ff757" target="_top" xlink:title=" ">
<polygon fill="white" stroke="black" points="163,-49.5 163,-79.5 324,-79.5 324,-49.5 163,-49.5"/>
<text text-anchor="start" x="171" y="-67.5" font-family="Helvetica,sans-Serif" font-size="10.00">SoundHandler::addSoundWithout</text>
<text text-anchor="middle" x="243.5" y="-56.5" font-family="Helvetica,sans-Serif" font-size="10.00">Checking</text>
</a>
</g>
</g>
<!-- Node1&#45;&gt;Node2 -->
<g id="edge1" class="edge"><title>Node1&#45;&gt;Node2</title>
<path fill="none" stroke="midnightblue" d="M127.006,-48.2789C135.449,-49.4647 144.241,-50.6996 153.04,-51.9354"/>
<polygon fill="midnightblue" stroke="midnightblue" points="152.569,-55.4035 162.958,-53.3284 153.542,-48.4715 152.569,-55.4035"/>
</g>
<!-- Node6 -->
<g id="node6" class="node"><title>Node6</title>
<g id="a_node6"><a xlink:href="../../d1/d8c/class_sound_handler.html#aa4720f35c896c7c602503ce642f78e2e" target="_top" xlink:title=" ">
<polygon fill="white" stroke="black" points="173.5,-0.5 173.5,-30.5 313.5,-30.5 313.5,-0.5 173.5,-0.5"/>
<text text-anchor="start" x="181.5" y="-18.5" font-family="Helvetica,sans-Serif" font-size="10.00">SoundHandler::binarySearch</text>
<text text-anchor="middle" x="243.5" y="-7.5" font-family="Helvetica,sans-Serif" font-size="10.00">Sounds</text>
</a>
</g>
</g>
<!-- Node1&#45;&gt;Node6 -->
<g id="edge5" class="edge"><title>Node1&#45;&gt;Node6</title>
<path fill="none" stroke="midnightblue" d="M127.006,-31.0722C138.745,-29.4894 151.161,-27.8154 163.328,-26.1748"/>
<polygon fill="midnightblue" stroke="midnightblue" points="164.028,-29.6123 173.471,-24.8073 163.093,-22.675 164.028,-29.6123"/>
</g>
<!-- Node3 -->
<g id="node3" class="node"><title>Node3</title>
<g id="a_node3"><a xlink:href="../../d1/d8c/class_sound_handler.html#a12edd3a7286ca1558a8512856f0d013f" target="_top" xlink:title=" ">
<polygon fill="white" stroke="black" points="360,-93 360,-112 498,-112 498,-93 360,-93"/>
<text text-anchor="middle" x="429" y="-100" font-family="Helvetica,sans-Serif" font-size="10.00">SoundHandler::addThenSort</text>
</a>
</g>
</g>
<!-- Node2&#45;&gt;Node3 -->
<g id="edge2" class="edge"><title>Node2&#45;&gt;Node3</title>
<path fill="none" stroke="midnightblue" d="M317.024,-79.5186C335.364,-83.3165 354.777,-87.3366 372.15,-90.9344"/>
<polygon fill="midnightblue" stroke="midnightblue" points="371.619,-94.3985 382.121,-92.9991 373.038,-87.5439 371.619,-94.3985"/>
</g>
<!-- Node4 -->
<g id="node4" class="node"><title>Node4</title>
<g id="a_node4"><a xlink:href="../../d0/d9e/class_sound.html#aed961c6de8e74716c10119a11ffc1bf3" target="_top" xlink:title=" ">
<polygon fill="white" stroke="black" points="386,-55 386,-74 472,-74 472,-55 386,-55"/>
<text text-anchor="middle" x="429" y="-62" font-family="Helvetica,sans-Serif" font-size="10.00">Sound::initialize</text>
</a>
</g>
</g>
<!-- Node2&#45;&gt;Node4 -->
<g id="edge3" class="edge"><title>Node2&#45;&gt;Node4</title>
<path fill="none" stroke="midnightblue" d="M324.185,-64.5C341.64,-64.5 359.689,-64.5 375.743,-64.5"/>
<polygon fill="midnightblue" stroke="midnightblue" points="375.979,-68.0001 385.979,-64.5 375.979,-61.0001 375.979,-68.0001"/>
</g>
<!-- Node5 -->
<g id="node5" class="node"><title>Node5</title>
<g id="a_node5"><a xlink:href="../../d0/d9e/class_sound.html#a14c5d4796c4345734a5f31f76b74042b" target="_top" xlink:title=" ">
<polygon fill="white" stroke="black" points="378,-17 378,-36 480,-36 480,-17 378,-17"/>
<text text-anchor="middle" x="429" y="-24" font-family="Helvetica,sans-Serif" font-size="10.00">Sound::isNullSound</text>
</a>
</g>
</g>
<!-- Node2&#45;&gt;Node5 -->
<g id="edge4" class="edge"><title>Node2&#45;&gt;Node5</title>
<path fill="none" stroke="midnightblue" d="M317.024,-49.4814C335.364,-45.6835 354.777,-41.6634 372.15,-38.0656"/>
<polygon fill="midnightblue" stroke="midnightblue" points="373.038,-41.4561 382.121,-36.0009 371.619,-34.6015 373.038,-41.4561"/>
</g>
</g>
</svg>
