<?xml version="1.0" encoding="UTF-8" standalone="no"?>
<!DOCTYPE svg PUBLIC "-//W3C//DTD SVG 1.1//EN"
 "http://www.w3.org/Graphics/SVG/1.1/DTD/svg11.dtd">
<!-- Generated by graphviz version 2.38.0 (20140413.2041)
 -->
<!-- Title: SoundHandler::addThenSort Pages: 1 -->
<svg width="508pt" height="66pt"
 viewBox="0.00 0.00 508.00 66.00" xmlns="http://www.w3.org/2000/svg" xmlns:xlink="http://www.w3.org/1999/xlink">
<g id="graph0" class="graph" transform="scale(1 1) rotate(0) translate(4 62)">
<title>SoundHandler::addThenSort</title>
<polygon fill="white" stroke="none" points="-4,4 -4,-62 504,-62 504,4 -4,4"/>
<!-- Node1 -->
<g id="node1" class="node"><title>Node1</title>
<g id="a_node1"><a xlink:title=" ">
<polygon fill="#bfbfbf" stroke="black" points="362,-19.5 362,-38.5 500,-38.5 500,-19.5 362,-19.5"/>
<text text-anchor="middle" x="431" y="-26.5" font-family="Helvetica,sans-Serif" font-size="10.00">SoundHandler::addThenSort</text>
</a>
</g>
</g>
<!-- Node2 -->
<g id="node2" class="node"><title>Node2</title>
<g id="a_node2"><a xlink:href="../../d1/d8c/class_sound_handler.html#ad1474636f3c8f108ef37667e072ff757" target="_top" xlink:title=" ">
<polygon fill="white" stroke="black" points="165,-14 165,-44 326,-44 326,-14 165,-14"/>
<text text-anchor="start" x="173" y="-32" font-family="Helvetica,sans-Serif" font-size="10.00">SoundHandler::addSoundWithout</text>
<text text-anchor="middle" x="245.5" y="-21" font-family="Helvetica,sans-Serif" font-size="10.00">Checking</text>
</a>
</g>
</g>
<!-- Node1&#45;&gt;Node2 -->
<g id="edge1" class="edge"><title>Node1&#45;&gt;Node2</title>
<path fill="none" stroke="midnightblue" d="M351.732,-29C343.29,-29 334.693,-29 326.234,-29"/>
<polygon fill="midnightblue" stroke="midnightblue" points="351.932,-32.5001 361.932,-29 351.932,-25.5001 351.932,-32.5001"/>
</g>
<!-- Node3 -->
<g id="node3" class="node"><title>Node3</title>
<g id="a_node3"><a xlink:href="../../d1/d8c/class_sound_handler.html#a5a2b27a382ba32d8c773d198417a82c9" target="_top" xlink:title=" ">
<polygon fill="white" stroke="black" points="1,-38.5 1,-57.5 128,-57.5 128,-38.5 1,-38.5"/>
<text text-anchor="middle" x="64.5" y="-45.5" font-family="Helvetica,sans-Serif" font-size="10.00">SoundHandler::addSound</text>
</a>
</g>
</g>
<!-- Node2&#45;&gt;Node3 -->
<g id="edge2" class="edge"><title>Node2&#45;&gt;Node3</title>
<path fill="none" stroke="midnightblue" d="M154.797,-38.5215C145.793,-39.4773 136.791,-40.4328 128.157,-41.3493"/>
<polygon fill="midnightblue" stroke="midnightblue" points="155.371,-41.9804 164.946,-37.4443 154.632,-35.0195 155.371,-41.9804"/>
</g>
<!-- Node4 -->
<g id="node4" class="node"><title>Node4</title>
<g id="a_node4"><a xlink:href="../../d1/d8c/class_sound_handler.html#aa5e890560c56af402db016b310f5a100" target="_top" xlink:title=" ">
<polygon fill="white" stroke="black" points="0,-0.5 0,-19.5 129,-19.5 129,-0.5 0,-0.5"/>
<text text-anchor="middle" x="64.5" y="-7.5" font-family="Helvetica,sans-Serif" font-size="10.00">SoundHandler::playSound</text>
</a>
</g>
</g>
<!-- Node2&#45;&gt;Node4 -->
<g id="edge3" class="edge"><title>Node2&#45;&gt;Node4</title>
<path fill="none" stroke="midnightblue" d="M154.824,-19.4813C146.186,-18.5644 137.55,-17.6478 129.239,-16.7656"/>
<polygon fill="midnightblue" stroke="midnightblue" points="154.632,-22.9805 164.946,-20.5557 155.371,-16.0196 154.632,-22.9805"/>
</g>
</g>
</svg>
