<?xml version="1.0" encoding="UTF-8" standalone="no"?>
<!DOCTYPE svg PUBLIC "-//W3C//DTD SVG 1.1//EN"
 "http://www.w3.org/Graphics/SVG/1.1/DTD/svg11.dtd">
<!-- Generated by graphviz version 2.38.0 (20140413.2041)
 -->
<!-- Title: SoundHandler::binarySearchSounds Pages: 1 -->
<svg width="313pt" height="66pt"
 viewBox="0.00 0.00 313.00 66.00" xmlns="http://www.w3.org/2000/svg" xmlns:xlink="http://www.w3.org/1999/xlink">
<g id="graph0" class="graph" transform="scale(1 1) rotate(0) translate(4 62)">
<title>SoundHandler::binarySearchSounds</title>
<polygon fill="white" stroke="none" points="-4,4 -4,-62 309,-62 309,4 -4,4"/>
<!-- Node1 -->
<g id="node1" class="node"><title>Node1</title>
<g id="a_node1"><a xlink:title=" ">
<polygon fill="#bfbfbf" stroke="black" points="165,-14 165,-44 305,-44 305,-14 165,-14"/>
<text text-anchor="start" x="173" y="-32" font-family="Helvetica,sans-Serif" font-size="10.00">SoundHandler::binarySearch</text>
<text text-anchor="middle" x="235" y="-21" font-family="Helvetica,sans-Serif" font-size="10.00">Sounds</text>
</a>
</g>
</g>
<!-- Node2 -->
<g id="node2" class="node"><title>Node2</title>
<g id="a_node2"><a xlink:href="../../d1/d8c/class_sound_handler.html#a5a2b27a382ba32d8c773d198417a82c9" target="_top" xlink:title=" ">
<polygon fill="white" stroke="black" points="1,-38.5 1,-57.5 128,-57.5 128,-38.5 1,-38.5"/>
<text text-anchor="middle" x="64.5" y="-45.5" font-family="Helvetica,sans-Serif" font-size="10.00">SoundHandler::addSound</text>
</a>
</g>
</g>
<!-- Node1&#45;&gt;Node2 -->
<g id="edge1" class="edge"><title>Node1&#45;&gt;Node2</title>
<path fill="none" stroke="midnightblue" d="M154.911,-37.918C145.946,-38.9289 136.903,-39.9487 128.189,-40.9312"/>
<polygon fill="midnightblue" stroke="midnightblue" points="155.434,-41.3814 164.978,-36.7828 154.649,-34.4255 155.434,-41.3814"/>
</g>
<!-- Node3 -->
<g id="node3" class="node"><title>Node3</title>
<g id="a_node3"><a xlink:href="../../d1/d8c/class_sound_handler.html#aa5e890560c56af402db016b310f5a100" target="_top" xlink:title=" ">
<polygon fill="white" stroke="black" points="0,-0.5 0,-19.5 129,-19.5 129,-0.5 0,-0.5"/>
<text text-anchor="middle" x="64.5" y="-7.5" font-family="Helvetica,sans-Serif" font-size="10.00">SoundHandler::playSound</text>
</a>
</g>
</g>
<!-- Node1&#45;&gt;Node3 -->
<g id="edge2" class="edge"><title>Node1&#45;&gt;Node3</title>
<path fill="none" stroke="midnightblue" d="M154.933,-20.0844C146.329,-19.1142 137.653,-18.1359 129.265,-17.1901"/>
<polygon fill="midnightblue" stroke="midnightblue" points="154.649,-23.5745 164.978,-21.2172 155.434,-16.6186 154.649,-23.5745"/>
</g>
</g>
</svg>
