<?xml version="1.0" encoding="UTF-8" standalone="no"?>
<!DOCTYPE svg PUBLIC "-//W3C//DTD SVG 1.1//EN"
 "http://www.w3.org/Graphics/SVG/1.1/DTD/svg11.dtd">
<!-- Generated by graphviz version 2.38.0 (20140413.2041)
 -->
<!-- Title: SoundHandler::playSound Pages: 1 -->
<svg width="508pt" height="121pt"
 viewBox="0.00 0.00 508.00 120.50" xmlns="http://www.w3.org/2000/svg" xmlns:xlink="http://www.w3.org/1999/xlink">
<g id="graph0" class="graph" transform="scale(1 1) rotate(0) translate(4 116.5)">
<title>SoundHandler::playSound</title>
<polygon fill="white" stroke="none" points="-4,4 -4,-116.5 504,-116.5 504,4 -4,4"/>
<!-- Node1 -->
<g id="node1" class="node"><title>Node1</title>
<g id="a_node1"><a xlink:title=" ">
<polygon fill="#bfbfbf" stroke="black" points="0,-30 0,-49 129,-49 129,-30 0,-30"/>
<text text-anchor="middle" x="64.5" y="-37" font-family="Helvetica,sans-Serif" font-size="10.00">SoundHandler::playSound</text>
</a>
</g>
</g>
<!-- Node2 -->
<g id="node2" class="node"><title>Node2</title>
<g id="a_node2"><a xlink:href="../../d1/d8c/class_sound_handler.html#ad1474636f3c8f108ef37667e072ff757" target="_top" xlink:title=" ">
<polygon fill="white" stroke="black" points="165,-49.5 165,-79.5 326,-79.5 326,-49.5 165,-49.5"/>
<text text-anchor="start" x="173" y="-67.5" font-family="Helvetica,sans-Serif" font-size="10.00">SoundHandler::addSoundWithout</text>
<text text-anchor="middle" x="245.5" y="-56.5" font-family="Helvetica,sans-Serif" font-size="10.00">Checking</text>
</a>
</g>
</g>
<!-- Node1&#45;&gt;Node2 -->
<g id="edge1" class="edge"><title>Node1&#45;&gt;Node2</title>
<path fill="none" stroke="midnightblue" d="M129.113,-48.3845C137.419,-49.5445 146.05,-50.75 154.685,-51.9561"/>
<polygon fill="midnightblue" stroke="midnightblue" points="154.417,-55.4525 164.805,-53.3694 155.385,-48.5197 154.417,-55.4525"/>
</g>
<!-- Node6 -->
<g id="node6" class="node"><title>Node6</title>
<g id="a_node6"><a xlink:href="../../d1/d8c/class_sound_handler.html#aa4720f35c896c7c602503ce642f78e2e" target="_top" xlink:title=" ">
<polygon fill="white" stroke="black" points="175.5,-0.5 175.5,-30.5 315.5,-30.5 315.5,-0.5 175.5,-0.5"/>
<text text-anchor="start" x="183.5" y="-18.5" font-family="Helvetica,sans-Serif" font-size="10.00">SoundHandler::binarySearch</text>
<text text-anchor="middle" x="245.5" y="-7.5" font-family="Helvetica,sans-Serif" font-size="10.00">Sounds</text>
</a>
</g>
</g>
<!-- Node1&#45;&gt;Node6 -->
<g id="edge5" class="edge"><title>Node1&#45;&gt;Node6</title>
<path fill="none" stroke="midnightblue" d="M129.113,-30.9709C140.81,-29.4026 153.153,-27.7476 165.243,-26.1266"/>
<polygon fill="midnightblue" stroke="midnightblue" points="165.874,-29.5735 175.32,-24.7755 164.943,-22.6356 165.874,-29.5735"/>
</g>
<!-- Node3 -->
<g id="node3" class="node"><title>Node3</title>
<g id="a_node3"><a xlink:href="../../d1/d8c/class_sound_handler.html#a12edd3a7286ca1558a8512856f0d013f" target="_top" xlink:title=" ">
<polygon fill="white" stroke="black" points="362,-93 362,-112 500,-112 500,-93 362,-93"/>
<text text-anchor="middle" x="431" y="-100" font-family="Helvetica,sans-Serif" font-size="10.00">SoundHandler::addThenSort</text>
</a>
</g>
</g>
<!-- Node2&#45;&gt;Node3 -->
<g id="edge2" class="edge"><title>Node2&#45;&gt;Node3</title>
<path fill="none" stroke="midnightblue" d="M319.024,-79.5186C337.364,-83.3165 356.777,-87.3366 374.15,-90.9344"/>
<polygon fill="midnightblue" stroke="midnightblue" points="373.619,-94.3985 384.121,-92.9991 375.038,-87.5439 373.619,-94.3985"/>
</g>
<!-- Node4 -->
<g id="node4" class="node"><title>Node4</title>
<g id="a_node4"><a xlink:href="../../d0/d9e/class_sound.html#aed961c6de8e74716c10119a11ffc1bf3" target="_top" xlink:title=" ">
<polygon fill="white" stroke="black" points="388,-55 388,-74 474,-74 474,-55 388,-55"/>
<text text-anchor="middle" x="431" y="-62" font-family="Helvetica,sans-Serif" font-size="10.00">Sound::initialize</text>
</a>
</g>
</g>
<!-- Node2&#45;&gt;Node4 -->
<g id="edge3" class="edge"><title>Node2&#45;&gt;Node4</title>
<path fill="none" stroke="midnightblue" d="M326.185,-64.5C343.64,-64.5 361.689,-64.5 377.743,-64.5"/>
<polygon fill="midnightblue" stroke="midnightblue" points="377.979,-68.0001 387.979,-64.5 377.979,-61.0001 377.979,-68.0001"/>
</g>
<!-- Node5 -->
<g id="node5" class="node"><title>Node5</title>
<g id="a_node5"><a xlink:href="../../d0/d9e/class_sound.html#a14c5d4796c4345734a5f31f76b74042b" target="_top" xlink:title=" ">
<polygon fill="white" stroke="black" points="380,-17 380,-36 482,-36 482,-17 380,-17"/>
<text text-anchor="middle" x="431" y="-24" font-family="Helvetica,sans-Serif" font-size="10.00">Sound::isNullSound</text>
</a>
</g>
</g>
<!-- Node2&#45;&gt;Node5 -->
<g id="edge4" class="edge"><title>Node2&#45;&gt;Node5</title>
<path fill="none" stroke="midnightblue" d="M319.024,-49.4814C337.364,-45.6835 356.777,-41.6634 374.15,-38.0656"/>
<polygon fill="midnightblue" stroke="midnightblue" points="375.038,-41.4561 384.121,-36.0009 373.619,-34.6015 375.038,-41.4561"/>
</g>
</g>
</svg>
