<?xml version="1.0" encoding="UTF-8" standalone="no"?>
<!DOCTYPE svg PUBLIC "-//W3C//DTD SVG 1.1//EN"
 "http://www.w3.org/Graphics/SVG/1.1/DTD/svg11.dtd">
<!-- Generated by graphviz version 2.38.0 (20140413.2041)
 -->
<!-- Title: src/GuiBase.h Pages: 1 -->
<!--zoomable 252 -->
<svg id="main" version="1.1" xmlns="http://www.w3.org/2000/svg" xmlns:xlink="http://www.w3.org/1999/xlink" xml:space="preserve" onload="init(evt)">
<style type="text/css"><![CDATA[
.edge:hover path { stroke: red; }
.edge:hover polygon { stroke: red; fill: red; }
]]></style>
<script type="text/javascript"><![CDATA[
var edges = document.getElementsByTagName('g');
if (edges && edges.length) {
  for (var i=0;i<edges.length;i++) {
    if (edges[i].id.substr(0,4)=='edge') {
      edges[i].setAttribute('class','edge');
    }
  }
}
]]></script>
        <defs>
                <circle id="rim" cx="0" cy="0" r="7"/>
                <circle id="rim2" cx="0" cy="0" r="3.5"/>
                <g id="zoomPlus">
                        <use xlink:href="#rim" fill="#404040">
                                <set attributeName="fill" to="#808080" begin="zoomplus.mouseover" end="zoomplus.mouseout"/>
                        </use>
                        <path d="M-4,0h8M0,-4v8" fill="none" stroke="white" stroke-width="1.5" pointer-events="none"/>
                </g>
                <g id="zoomMin">
                        <use xlink:href="#rim" fill="#404040">
                                <set attributeName="fill" to="#808080" begin="zoomminus.mouseover" end="zoomminus.mouseout"/>
                        </use>
                        <path d="M-4,0h8" fill="none" stroke="white" stroke-width="1.5" pointer-events="none"/>
                </g>
                <g id="dirArrow">
                        <path fill="none" stroke="white" stroke-width="1.5" d="M0,-3.0v7 M-2.5,-0.5L0,-3.0L2.5,-0.5"/>
                </g>
               <g id="resetDef">
                       <use xlink:href="#rim2" fill="#404040">
                               <set attributeName="fill" to="#808080" begin="reset.mouseover" end="reset.mouseout"/>
                       </use>
               </g>
        </defs>

<script type="text/javascript">
var viewWidth = 787;
var viewHeight = 252;
var sectionId = 'dynsection-0';
</script>
<script xlink:href="../../svgpan.js"/>
<svg id="graph" class="graph">
<g id="viewport">
<title>src/GuiBase.h</title>
<polygon fill="white" stroke="none" points="-4,4 -4,-248 783.054,-248 783.054,4 -4,4"/>
<!-- Node1 -->
<g id="node1" class="node"><title>Node1</title>
<g id="a_node1"><a xlink:title=" ">
<polygon fill="#bfbfbf" stroke="black" points="564.558,-224.5 564.558,-243.5 643.558,-243.5 643.558,-224.5 564.558,-224.5"/>
<text text-anchor="middle" x="604.058" y="-231.5" font-family="Helvetica,sans-Serif" font-size="10.00">src/GuiBase.h</text>
</a>
</g>
</g>
<!-- Node2 -->
<g id="node2" class="node"><title>Node2</title>
<g id="a_node2"><a xlink:href="../../d8/d34/_shader_8h.html" target="_top" xlink:title=" ">
<polygon fill="white" stroke="black" points="362.058,-168.5 362.058,-187.5 418.058,-187.5 418.058,-168.5 362.058,-168.5"/>
<text text-anchor="middle" x="390.058" y="-175.5" font-family="Helvetica,sans-Serif" font-size="10.00">Shader.h</text>
</a>
</g>
</g>
<!-- Node1&#45;&gt;Node2 -->
<g id="edge1" class="edge"><title>Node1&#45;&gt;Node2</title>
<path fill="none" stroke="midnightblue" d="M570.149,-224.444C531.47,-214.683 468.383,-198.764 428.07,-188.592"/>
<polygon fill="midnightblue" stroke="midnightblue" points="428.893,-185.19 418.341,-186.137 427.18,-191.977 428.893,-185.19"/>
</g>
<!-- Node4 -->
<g id="node4" class="node"><title>Node4</title>
<g id="a_node4"><a xlink:title=" ">
<polygon fill="white" stroke="#bfbfbf" points="427.558,-0.5 427.558,-19.5 476.558,-19.5 476.558,-0.5 427.558,-0.5"/>
<text text-anchor="middle" x="452.058" y="-7.5" font-family="Helvetica,sans-Serif" font-size="10.00">stdint.h</text>
</a>
</g>
</g>
<!-- Node1&#45;&gt;Node4 -->
<g id="edge21" class="edge"><title>Node1&#45;&gt;Node4</title>
<path fill="none" stroke="midnightblue" d="M637.576,-224.455C696.898,-207.694 810.488,-167.262 770.058,-112 735.921,-65.3408 561.681,-30.0388 486.578,-16.7508"/>
<polygon fill="midnightblue" stroke="midnightblue" points="487.116,-13.2918 476.664,-15.023 485.914,-20.1879 487.116,-13.2918"/>
</g>
<!-- Node3 -->
<g id="node3" class="node"><title>Node3</title>
<g id="a_node3"><a xlink:href="../../dc/d20/_component_8h.html" target="_top" xlink:title=" ">
<polygon fill="white" stroke="black" points="69.0576,-56.5 69.0576,-75.5 143.058,-75.5 143.058,-56.5 69.0576,-56.5"/>
<text text-anchor="middle" x="106.058" y="-63.5" font-family="Helvetica,sans-Serif" font-size="10.00">Component.h</text>
</a>
</g>
</g>
<!-- Node2&#45;&gt;Node3 -->
<g id="edge2" class="edge"><title>Node2&#45;&gt;Node3</title>
<path fill="none" stroke="midnightblue" d="M362.021,-175.824C277.53,-171.997 29.7038,-158.579 6.05763,-132 -15.0775,-108.244 25.1258,-89.5993 60.6843,-78.4823"/>
<polygon fill="midnightblue" stroke="midnightblue" points="61.9506,-81.7571 70.5356,-75.5483 59.9525,-75.0483 61.9506,-81.7571"/>
</g>
<!-- Node5 -->
<g id="node5" class="node"><title>Node5</title>
<g id="a_node5"><a xlink:href="../../d0/d4b/_debug_8h.html" target="_top" xlink:title=" ">
<polygon fill="white" stroke="black" points="15.5576,-112.5 15.5576,-131.5 68.5576,-131.5 68.5576,-112.5 15.5576,-112.5"/>
<text text-anchor="middle" x="42.0576" y="-119.5" font-family="Helvetica,sans-Serif" font-size="10.00">Debug.h</text>
</a>
</g>
</g>
<!-- Node2&#45;&gt;Node5 -->
<g id="edge4" class="edge"><title>Node2&#45;&gt;Node5</title>
<path fill="none" stroke="midnightblue" d="M361.825,-173.985C308.36,-168.053 188.522,-153.692 78.6597,-132.151"/>
<polygon fill="midnightblue" stroke="midnightblue" points="79.2321,-128.696 68.7418,-130.181 77.8683,-135.562 79.2321,-128.696"/>
</g>
<!-- Node6 -->
<g id="node6" class="node"><title>Node6</title>
<g id="a_node6"><a xlink:href="../../d5/d31/_lights_8h.html" target="_top" xlink:title=" ">
<polygon fill="white" stroke="black" points="163.558,-112.5 163.558,-131.5 214.558,-131.5 214.558,-112.5 163.558,-112.5"/>
<text text-anchor="middle" x="189.058" y="-119.5" font-family="Helvetica,sans-Serif" font-size="10.00">Lights.h</text>
</a>
</g>
</g>
<!-- Node2&#45;&gt;Node6 -->
<g id="edge5" class="edge"><title>Node2&#45;&gt;Node6</title>
<path fill="none" stroke="midnightblue" d="M361.686,-169.378C325.725,-159.717 263.726,-143.06 224.635,-132.558"/>
<polygon fill="midnightblue" stroke="midnightblue" points="225.305,-129.114 214.739,-129.9 223.489,-135.874 225.305,-129.114"/>
</g>
<!-- Node7 -->
<g id="node7" class="node"><title>Node7</title>
<g id="a_node7"><a xlink:title=" ">
<polygon fill="white" stroke="#bfbfbf" points="161.058,-56.5 161.058,-75.5 235.058,-75.5 235.058,-56.5 161.058,-56.5"/>
<text text-anchor="middle" x="198.058" y="-63.5" font-family="Helvetica,sans-Serif" font-size="10.00">glm/vec3.hpp</text>
</a>
</g>
</g>
<!-- Node2&#45;&gt;Node7 -->
<g id="edge17" class="edge"><title>Node2&#45;&gt;Node7</title>
<path fill="none" stroke="midnightblue" d="M361.96,-171.034C334.873,-164.413 293.479,-151.946 262.058,-132 241.685,-119.067 222.89,-98.5019 211.013,-83.9717"/>
<polygon fill="midnightblue" stroke="midnightblue" points="213.513,-81.491 204.559,-75.8267 208.026,-85.8382 213.513,-81.491"/>
</g>
<!-- Node8 -->
<g id="node8" class="node"><title>Node8</title>
<g id="a_node8"><a xlink:href="../../d3/d09/_material_8h.html" target="_top" xlink:title=" ">
<polygon fill="white" stroke="black" points="86.5576,-112.5 86.5576,-131.5 145.558,-131.5 145.558,-112.5 86.5576,-112.5"/>
<text text-anchor="middle" x="116.058" y="-119.5" font-family="Helvetica,sans-Serif" font-size="10.00">Material.h</text>
</a>
</g>
</g>
<!-- Node2&#45;&gt;Node8 -->
<g id="edge7" class="edge"><title>Node2&#45;&gt;Node8</title>
<path fill="none" stroke="midnightblue" d="M362.004,-172.065C319.526,-164.502 236.117,-149.306 156.14,-132.38"/>
<polygon fill="midnightblue" stroke="midnightblue" points="156.41,-128.859 145.9,-130.199 154.952,-135.706 156.41,-128.859"/>
</g>
<!-- Node9 -->
<g id="node9" class="node"><title>Node9</title>
<g id="a_node9"><a xlink:href="../../d4/d4a/_settings_8h.html" target="_top" xlink:title=" ">
<polygon fill="white" stroke="black" points="271.558,-112.5 271.558,-131.5 332.558,-131.5 332.558,-112.5 271.558,-112.5"/>
<text text-anchor="middle" x="302.058" y="-119.5" font-family="Helvetica,sans-Serif" font-size="10.00">Settings.h</text>
</a>
</g>
</g>
<!-- Node2&#45;&gt;Node9 -->
<g id="edge10" class="edge"><title>Node2&#45;&gt;Node9</title>
<path fill="none" stroke="midnightblue" d="M375.919,-168.324C362.191,-159.9 341.121,-146.971 324.993,-137.074"/>
<polygon fill="midnightblue" stroke="midnightblue" points="326.515,-133.902 316.161,-131.655 322.854,-139.868 326.515,-133.902"/>
</g>
<!-- Node10 -->
<g id="node10" class="node"><title>Node10</title>
<g id="a_node10"><a xlink:href="../../d2/d06/_shaders_8h.html" target="_top" xlink:title=" ">
<polygon fill="white" stroke="black" points="389.558,-112.5 389.558,-131.5 450.558,-131.5 450.558,-112.5 389.558,-112.5"/>
<text text-anchor="middle" x="420.058" y="-119.5" font-family="Helvetica,sans-Serif" font-size="10.00">Shaders.h</text>
</a>
</g>
</g>
<!-- Node2&#45;&gt;Node10 -->
<g id="edge11" class="edge"><title>Node2&#45;&gt;Node10</title>
<path fill="none" stroke="midnightblue" d="M395.012,-168.083C399.162,-160.613 405.211,-149.724 410.324,-140.52"/>
<polygon fill="midnightblue" stroke="midnightblue" points="413.399,-142.192 415.196,-131.751 407.28,-138.793 413.399,-142.192"/>
</g>
<!-- Node11 -->
<g id="node11" class="node"><title>Node11</title>
<g id="a_node11"><a xlink:title=" ">
<polygon fill="white" stroke="#bfbfbf" points="343.058,-56.5 343.058,-75.5 403.058,-75.5 403.058,-56.5 343.058,-56.5"/>
<text text-anchor="middle" x="373.058" y="-63.5" font-family="Helvetica,sans-Serif" font-size="10.00">GL/glew.h</text>
</a>
</g>
</g>
<!-- Node2&#45;&gt;Node11 -->
<g id="edge14" class="edge"><title>Node2&#45;&gt;Node11</title>
<path fill="none" stroke="midnightblue" d="M387.854,-168.429C385.607,-159.415 382.161,-144.793 380.058,-132 377.522,-116.581 375.689,-98.9479 374.537,-85.9409"/>
<polygon fill="midnightblue" stroke="midnightblue" points="378.016,-85.5485 373.698,-75.8736 371.04,-86.1296 378.016,-85.5485"/>
</g>
<!-- Node12 -->
<g id="node12" class="node"><title>Node12</title>
<g id="a_node12"><a xlink:title=" ">
<polygon fill="white" stroke="#bfbfbf" points="445.558,-56.5 445.558,-75.5 486.558,-75.5 486.558,-56.5 445.558,-56.5"/>
<text text-anchor="middle" x="466.058" y="-63.5" font-family="Helvetica,sans-Serif" font-size="10.00">string</text>
</a>
</g>
</g>
<!-- Node2&#45;&gt;Node12 -->
<g id="edge19" class="edge"><title>Node2&#45;&gt;Node12</title>
<path fill="none" stroke="midnightblue" d="M412.604,-168.476C428.373,-161.264 448.441,-149.312 459.058,-132 467.494,-118.242 468.718,-99.7154 468.14,-85.9611"/>
<polygon fill="midnightblue" stroke="midnightblue" points="471.61,-85.4394 467.348,-75.7395 464.631,-85.9799 471.61,-85.4394"/>
</g>
<!-- Node13 -->
<g id="node13" class="node"><title>Node13</title>
<g id="a_node13"><a xlink:title=" ">
<polygon fill="white" stroke="#bfbfbf" points="507.058,-112.5 507.058,-131.5 563.058,-131.5 563.058,-112.5 507.058,-112.5"/>
<text text-anchor="middle" x="535.058" y="-119.5" font-family="Helvetica,sans-Serif" font-size="10.00">algorithm</text>
</a>
</g>
</g>
<!-- Node2&#45;&gt;Node13 -->
<g id="edge15" class="edge"><title>Node2&#45;&gt;Node13</title>
<path fill="none" stroke="midnightblue" d="M413.033,-168.444C437.215,-159.438 475.476,-145.189 502.704,-135.049"/>
<polygon fill="midnightblue" stroke="midnightblue" points="504.04,-138.286 512.189,-131.516 501.597,-131.727 504.04,-138.286"/>
</g>
<!-- Node14 -->
<g id="node14" class="node"><title>Node14</title>
<g id="a_node14"><a xlink:title=" ">
<polygon fill="white" stroke="#bfbfbf" points="581.558,-112.5 581.558,-131.5 630.558,-131.5 630.558,-112.5 581.558,-112.5"/>
<text text-anchor="middle" x="606.058" y="-119.5" font-family="Helvetica,sans-Serif" font-size="10.00">fstream</text>
</a>
</g>
</g>
<!-- Node2&#45;&gt;Node14 -->
<g id="edge16" class="edge"><title>Node2&#45;&gt;Node14</title>
<path fill="none" stroke="midnightblue" d="M418.154,-170.204C452.121,-161.956 511.264,-147.488 571.828,-132.026"/>
<polygon fill="midnightblue" stroke="midnightblue" points="572.736,-135.407 581.556,-129.537 571.001,-128.625 572.736,-135.407"/>
</g>
<!-- Node15 -->
<g id="node15" class="node"><title>Node15</title>
<g id="a_node15"><a xlink:title=" ">
<polygon fill="white" stroke="#bfbfbf" points="649.058,-112.5 649.058,-131.5 701.058,-131.5 701.058,-112.5 649.058,-112.5"/>
<text text-anchor="middle" x="675.058" y="-119.5" font-family="Helvetica,sans-Serif" font-size="10.00">sstream</text>
</a>
</g>
</g>
<!-- Node2&#45;&gt;Node15 -->
<g id="edge18" class="edge"><title>Node2&#45;&gt;Node15</title>
<path fill="none" stroke="midnightblue" d="M418.31,-172.61C463.048,-165.509 553.123,-150.605 638.845,-132.141"/>
<polygon fill="midnightblue" stroke="midnightblue" points="639.706,-135.535 648.734,-129.99 638.219,-128.695 639.706,-135.535"/>
</g>
<!-- Node16 -->
<g id="node16" class="node"><title>Node16</title>
<g id="a_node16"><a xlink:title=" ">
<polygon fill="white" stroke="#bfbfbf" points="719.058,-112.5 719.058,-131.5 761.058,-131.5 761.058,-112.5 719.058,-112.5"/>
<text text-anchor="middle" x="740.058" y="-119.5" font-family="Helvetica,sans-Serif" font-size="10.00">vector</text>
</a>
</g>
</g>
<!-- Node2&#45;&gt;Node16 -->
<g id="edge20" class="edge"><title>Node2&#45;&gt;Node16</title>
<path fill="none" stroke="midnightblue" d="M418.133,-174.498C472.539,-169.342 596.198,-156.12 709.021,-131.937"/>
<polygon fill="midnightblue" stroke="midnightblue" points="709.831,-135.343 718.857,-129.794 708.341,-128.503 709.831,-135.343"/>
</g>
<!-- Node3&#45;&gt;Node4 -->
<g id="edge3" class="edge"><title>Node3&#45;&gt;Node4</title>
<path fill="none" stroke="midnightblue" d="M143.189,-57.5887C146.186,-57.035 149.171,-56.4987 152.058,-56 247.862,-39.4509 361.494,-23.3695 417.425,-15.6866"/>
<polygon fill="midnightblue" stroke="midnightblue" points="418.066,-19.1315 427.5,-14.3079 417.117,-12.1961 418.066,-19.1315"/>
</g>
<!-- Node6&#45;&gt;Node7 -->
<g id="edge6" class="edge"><title>Node6&#45;&gt;Node7</title>
<path fill="none" stroke="midnightblue" d="M190.544,-112.083C191.736,-104.927 193.452,-94.6353 194.942,-85.6911"/>
<polygon fill="midnightblue" stroke="midnightblue" points="198.407,-86.1904 196.599,-75.7511 191.503,-85.0396 198.407,-86.1904"/>
</g>
<!-- Node8&#45;&gt;Node3 -->
<g id="edge8" class="edge"><title>Node8&#45;&gt;Node3</title>
<path fill="none" stroke="midnightblue" d="M114.406,-112.083C113.081,-104.927 111.175,-94.6353 109.519,-85.6911"/>
<polygon fill="midnightblue" stroke="midnightblue" points="112.941,-84.9466 107.678,-75.7511 106.058,-86.2212 112.941,-84.9466"/>
</g>
<!-- Node8&#45;&gt;Node7 -->
<g id="edge9" class="edge"><title>Node8&#45;&gt;Node7</title>
<path fill="none" stroke="midnightblue" d="M129.232,-112.324C141.904,-103.979 161.291,-91.2122 176.263,-81.3524"/>
<polygon fill="midnightblue" stroke="midnightblue" points="178.489,-84.0776 184.916,-75.6545 174.639,-78.2313 178.489,-84.0776"/>
</g>
<!-- Node10&#45;&gt;Node11 -->
<g id="edge12" class="edge"><title>Node10&#45;&gt;Node11</title>
<path fill="none" stroke="midnightblue" d="M412.297,-112.083C405.521,-104.298 395.514,-92.8015 387.303,-83.3665"/>
<polygon fill="midnightblue" stroke="midnightblue" points="389.88,-80.9963 380.674,-75.7511 384.6,-85.592 389.88,-80.9963"/>
</g>
<!-- Node10&#45;&gt;Node12 -->
<g id="edge13" class="edge"><title>Node10&#45;&gt;Node12</title>
<path fill="none" stroke="midnightblue" d="M427.654,-112.083C434.285,-104.298 444.079,-92.8015 452.116,-83.3665"/>
<polygon fill="midnightblue" stroke="midnightblue" points="454.783,-85.6332 458.603,-75.7511 449.454,-81.0939 454.783,-85.6332"/>
</g>
</g>
</svg>
        <g id="navigator" transform="translate(0 0)" fill="#404254">
                <rect fill="#f2f5e9" fill-opacity="0.5" stroke="#606060" stroke-width=".5" x="0" y="0" width="60" height="60"/>
                <use id="zoomplus" xlink:href="#zoomPlus" x="17" y="9" onmousedown="handleZoom(evt,'in')"/>
                <use id="zoomminus" xlink:href="#zoomMin" x="42" y="9" onmousedown="handleZoom(evt,'out')"/>
                <use id="reset" xlink:href="#resetDef" x="30" y="36" onmousedown="handleReset()"/>
                <g id="arrowUp" xlink:href="#dirArrow" transform="translate(30 24)" onmousedown="handlePan(0,-1)">
                  <use xlink:href="#rim" fill="#404040">
                        <set attributeName="fill" to="#808080" begin="arrowUp.mouseover" end="arrowUp.mouseout"/>
                  </use>
                  <path fill="none" stroke="white" stroke-width="1.5" d="M0,-3.0v7 M-2.5,-0.5L0,-3.0L2.5,-0.5"/>
                </g>
                <g id="arrowRight" xlink:href="#dirArrow" transform="rotate(90) translate(36 -43)" onmousedown="handlePan(1,0)">
                  <use xlink:href="#rim" fill="#404040">
                        <set attributeName="fill" to="#808080" begin="arrowRight.mouseover" end="arrowRight.mouseout"/>
                  </use>
                  <path fill="none" stroke="white" stroke-width="1.5" d="M0,-3.0v7 M-2.5,-0.5L0,-3.0L2.5,-0.5"/>
                </g>
                <g id="arrowDown" xlink:href="#dirArrow" transform="rotate(180) translate(-30 -48)" onmousedown="handlePan(0,1)">
                  <use xlink:href="#rim" fill="#404040">
                        <set attributeName="fill" to="#808080" begin="arrowDown.mouseover" end="arrowDown.mouseout"/>
                  </use>
                  <path fill="none" stroke="white" stroke-width="1.5" d="M0,-3.0v7 M-2.5,-0.5L0,-3.0L2.5,-0.5"/>
                </g>
                <g id="arrowLeft" xlink:href="#dirArrow" transform="rotate(270) translate(-36 17)" onmousedown="handlePan(-1,0)">
                  <use xlink:href="#rim" fill="#404040">
                        <set attributeName="fill" to="#808080" begin="arrowLeft.mouseover" end="arrowLeft.mouseout"/>
                  </use>
                  <path fill="none" stroke="white" stroke-width="1.5" d="M0,-3.0v7 M-2.5,-0.5L0,-3.0L2.5,-0.5"/>
                </g>
        </g>
        <svg viewBox="0 0 15 15" width="100%" height="30px" preserveAspectRatio="xMaxYMin meet">
         <g id="arrow_out" transform="scale(0.3 0.3)">
          <a xlink:href="_gui_base_8h__incl_org.svg" target="_base">
           <rect id="button" ry="5" rx="5" y="6" x="6" height="38" width="38"
                fill="#f2f5e9" fill-opacity="0.5" stroke="#606060" stroke-width="1.0"/>
           <path id="arrow"
             d="M 11.500037,31.436501 C 11.940474,20.09759 22.043105,11.32322 32.158766,21.979434 L 37.068811,17.246167 C 37.068811,17.246167 37.088388,32 37.088388,32 L 22.160133,31.978069 C 22.160133,31.978069 26.997745,27.140456 26.997745,27.140456 C 18.528582,18.264221 13.291696,25.230495 11.500037,31.436501 z"
             style="fill:#404040;"/>
          </a>
         </g>
        </svg>
</svg>
