<?xml version="1.0" encoding="UTF-8" standalone="no"?>
<!DOCTYPE svg PUBLIC "-//W3C//DTD SVG 1.1//EN"
 "http://www.w3.org/Graphics/SVG/1.1/DTD/svg11.dtd">
<!-- Generated by graphviz version 2.38.0 (20140413.2041)
 -->
<!-- Title: hh::toBtVec3 Pages: 1 -->
<!--zoomable 351 -->
<svg id="main" version="1.1" xmlns="http://www.w3.org/2000/svg" xmlns:xlink="http://www.w3.org/1999/xlink" xml:space="preserve" onload="init(evt)">
<style type="text/css"><![CDATA[
.edge:hover path { stroke: red; }
.edge:hover polygon { stroke: red; fill: red; }
]]></style>
<script type="text/javascript"><![CDATA[
var edges = document.getElementsByTagName('g');
if (edges && edges.length) {
  for (var i=0;i<edges.length;i++) {
    if (edges[i].id.substr(0,4)=='edge') {
      edges[i].setAttribute('class','edge');
    }
  }
}
]]></script>
        <defs>
                <circle id="rim" cx="0" cy="0" r="7"/>
                <circle id="rim2" cx="0" cy="0" r="3.5"/>
                <g id="zoomPlus">
                        <use xlink:href="#rim" fill="#404040">
                                <set attributeName="fill" to="#808080" begin="zoomplus.mouseover" end="zoomplus.mouseout"/>
                        </use>
                        <path d="M-4,0h8M0,-4v8" fill="none" stroke="white" stroke-width="1.5" pointer-events="none"/>
                </g>
                <g id="zoomMin">
                        <use xlink:href="#rim" fill="#404040">
                                <set attributeName="fill" to="#808080" begin="zoomminus.mouseover" end="zoomminus.mouseout"/>
                        </use>
                        <path d="M-4,0h8" fill="none" stroke="white" stroke-width="1.5" pointer-events="none"/>
                </g>
                <g id="dirArrow">
                        <path fill="none" stroke="white" stroke-width="1.5" d="M0,-3.0v7 M-2.5,-0.5L0,-3.0L2.5,-0.5"/>
                </g>
               <g id="resetDef">
                       <use xlink:href="#rim2" fill="#404040">
                               <set attributeName="fill" to="#808080" begin="reset.mouseover" end="reset.mouseout"/>
                       </use>
               </g>
        </defs>

<script type="text/javascript">
var viewWidth = 1515;
var viewHeight = 351;
var sectionId = 'dynsection-7';
</script>
<script xlink:href="../../svgpan.js"/>
<svg id="graph" class="graph">
<g id="viewport">
<title>hh::toBtVec3</title>
<polygon fill="white" stroke="none" points="-4,4 -4,-347 1511,-347 1511,4 -4,4"/>
<!-- Node1 -->
<g id="node1" class="node"><title>Node1</title>
<g id="a_node1"><a xlink:title=" ">
<polygon fill="#bfbfbf" stroke="black" points="1433,-133.5 1433,-152.5 1507,-152.5 1507,-133.5 1433,-133.5"/>
<text text-anchor="middle" x="1470" y="-140.5" font-family="Helvetica,sans-Serif" font-size="10.00">hh::toBtVec3</text>
</a>
</g>
</g>
<!-- Node2 -->
<g id="node2" class="node"><title>Node2</title>
<g id="a_node2"><a xlink:href="../../d4/daa/class_collision_mesh.html#a7d1dde3a566093848fdd3e75278655ec" target="_top" xlink:title=" ">
<polygon fill="white" stroke="black" points="1260,-191 1260,-221 1397,-221 1397,-191 1260,-191"/>
<text text-anchor="start" x="1268" y="-209" font-family="Helvetica,sans-Serif" font-size="10.00">CollisionMesh::applyCentral</text>
<text text-anchor="middle" x="1328.5" y="-198" font-family="Helvetica,sans-Serif" font-size="10.00">Impulse</text>
</a>
</g>
</g>
<!-- Node1&#45;&gt;Node2 -->
<g id="edge1" class="edge"><title>Node1&#45;&gt;Node2</title>
<path fill="none" stroke="midnightblue" d="M1443.64,-157.428C1430.03,-164.905 1412.83,-173.927 1397,-181 1389.24,-184.466 1380.84,-187.855 1372.69,-190.963"/>
<polygon fill="midnightblue" stroke="midnightblue" points="1445.39,-160.458 1452.43,-152.54 1441.99,-154.34 1445.39,-160.458"/>
</g>
<!-- Node7 -->
<g id="node7" class="node"><title>Node7</title>
<g id="a_node7"><a xlink:href="../../dd/d1f/class_game.html#a157e87f9dc147a5842ee6bdc06c95c17" target="_top" xlink:title=" ">
<polygon fill="white" stroke="black" points="352,-299.5 352,-318.5 452,-318.5 452,-299.5 352,-299.5"/>
<text text-anchor="middle" x="402" y="-306.5" font-family="Helvetica,sans-Serif" font-size="10.00">Game::fixedUpdate</text>
</a>
</g>
</g>
<!-- Node1&#45;&gt;Node7 -->
<g id="edge16" class="edge"><title>Node1&#45;&gt;Node7</title>
<path fill="none" stroke="midnightblue" d="M1462.93,-162.548C1453.35,-190.226 1432.12,-240.619 1397,-269 1312.5,-337.297 1272.65,-343 1164,-343 1164,-343 1164,-343 692.5,-343 607.609,-343 509.665,-328.401 452.226,-318.336"/>
<polygon fill="midnightblue" stroke="midnightblue" points="1466.33,-163.425 1466.13,-152.832 1459.68,-161.233 1466.33,-163.425"/>
</g>
<!-- Node15 -->
<g id="node15" class="node"><title>Node15</title>
<g id="a_node15"><a xlink:href="../../d3/dbc/class_ray_caster.html#ac408c7f07993a8c5320a2cf6cd283eb5" target="_top" xlink:title=" ">
<polygon fill="white" stroke="black" points="1271.5,-152.5 1271.5,-171.5 1385.5,-171.5 1385.5,-152.5 1271.5,-152.5"/>
<text text-anchor="middle" x="1328.5" y="-159.5" font-family="Helvetica,sans-Serif" font-size="10.00">RayCaster::RayCaster</text>
</a>
</g>
</g>
<!-- Node1&#45;&gt;Node15 -->
<g id="edge17" class="edge"><title>Node1&#45;&gt;Node15</title>
<path fill="none" stroke="midnightblue" d="M1422.6,-149.319C1410.76,-150.933 1397.89,-152.685 1385.62,-154.357"/>
<polygon fill="midnightblue" stroke="midnightblue" points="1423.28,-152.76 1432.71,-147.942 1422.33,-145.824 1423.28,-152.76"/>
</g>
<!-- Node16 -->
<g id="node16" class="node"><title>Node16</title>
<g id="a_node16"><a xlink:href="../../d3/dbc/class_ray_caster.html#ae0763b84be6eac74f54a6e19f294cdd1" target="_top" xlink:title=" ">
<polygon fill="white" stroke="black" points="1278,-114.5 1278,-133.5 1379,-133.5 1379,-114.5 1278,-114.5"/>
<text text-anchor="middle" x="1328.5" y="-121.5" font-family="Helvetica,sans-Serif" font-size="10.00">RayCaster::rayTest</text>
</a>
</g>
</g>
<!-- Node1&#45;&gt;Node16 -->
<g id="edge18" class="edge"><title>Node1&#45;&gt;Node16</title>
<path fill="none" stroke="midnightblue" d="M1422.42,-136.656C1408.56,-134.768 1393.32,-132.692 1379.26,-130.777"/>
<polygon fill="midnightblue" stroke="midnightblue" points="1422.33,-140.176 1432.71,-138.058 1423.28,-133.24 1422.33,-140.176"/>
</g>
<!-- Node17 -->
<g id="node17" class="node"><title>Node17</title>
<g id="a_node17"><a xlink:href="../../d3/dbc/class_ray_caster.html#ad0f8cc1e8671269be4054cd1b6a411b1" target="_top" xlink:title=" ">
<polygon fill="white" stroke="black" points="1264.5,-76.5 1264.5,-95.5 1392.5,-95.5 1392.5,-76.5 1264.5,-76.5"/>
<text text-anchor="middle" x="1328.5" y="-83.5" font-family="Helvetica,sans-Serif" font-size="10.00">RayCaster::resetCallback</text>
</a>
</g>
</g>
<!-- Node1&#45;&gt;Node17 -->
<g id="edge19" class="edge"><title>Node1&#45;&gt;Node17</title>
<path fill="none" stroke="midnightblue" d="M1444.4,-128.353C1430.76,-120.666 1413.32,-111.517 1397,-105 1388.07,-101.433 1378.22,-98.2576 1368.87,-95.5725"/>
<polygon fill="midnightblue" stroke="midnightblue" points="1442.75,-131.443 1453.17,-133.391 1446.24,-125.374 1442.75,-131.443"/>
</g>
<!-- Node18 -->
<g id="node18" class="node"><title>Node18</title>
<g id="a_node18"><a xlink:href="../../d4/daa/class_collision_mesh.html#a3b82f99f7ccb080b7c64c5f54980f9b8" target="_top" xlink:title=" ">
<polygon fill="white" stroke="black" points="1267.5,-38.5 1267.5,-57.5 1389.5,-57.5 1389.5,-38.5 1267.5,-38.5"/>
<text text-anchor="middle" x="1328.5" y="-45.5" font-family="Helvetica,sans-Serif" font-size="10.00">CollisionMesh::setScale</text>
</a>
</g>
</g>
<!-- Node1&#45;&gt;Node18 -->
<g id="edge20" class="edge"><title>Node1&#45;&gt;Node18</title>
<path fill="none" stroke="midnightblue" d="M1456.54,-125.05C1443.59,-107.719 1421.77,-81.9649 1397,-67 1390.64,-63.1603 1383.48,-60.0716 1376.26,-57.5942"/>
<polygon fill="midnightblue" stroke="midnightblue" points="1453.77,-127.196 1462.47,-133.243 1459.44,-123.09 1453.77,-127.196"/>
</g>
<!-- Node19 -->
<g id="node19" class="node"><title>Node19</title>
<g id="a_node19"><a xlink:href="../../d4/daa/class_collision_mesh.html#a555dfd32445fef4e29e3cea557c9143f" target="_top" xlink:title=" ">
<polygon fill="white" stroke="black" points="1262.5,-0.5 1262.5,-19.5 1394.5,-19.5 1394.5,-0.5 1262.5,-0.5"/>
<text text-anchor="middle" x="1328.5" y="-7.5" font-family="Helvetica,sans-Serif" font-size="10.00">CollisionMesh::setVelocity</text>
</a>
</g>
</g>
<!-- Node1&#45;&gt;Node19 -->
<g id="edge21" class="edge"><title>Node1&#45;&gt;Node19</title>
<path fill="none" stroke="midnightblue" d="M1461.95,-123.722C1451.64,-98.2161 1430,-53.6171 1397,-29 1391.83,-25.1419 1385.9,-22.0669 1379.76,-19.6162"/>
<polygon fill="midnightblue" stroke="midnightblue" points="1458.81,-125.304 1465.68,-133.371 1465.34,-122.781 1458.81,-125.304"/>
</g>
<!-- Node20 -->
<g id="node20" class="node"><title>Node20</title>
<g id="a_node20"><a xlink:href="../../d4/daa/class_collision_mesh.html#ae1579dc2df203d65a3ec2a9761748100" target="_top" xlink:title=" ">
<polygon fill="white" stroke="black" points="1268,-240.5 1268,-259.5 1389,-259.5 1389,-240.5 1268,-240.5"/>
<text text-anchor="middle" x="1328.5" y="-247.5" font-family="Helvetica,sans-Serif" font-size="10.00">CollisionMesh::translate</text>
</a>
</g>
</g>
<!-- Node1&#45;&gt;Node20 -->
<g id="edge22" class="edge"><title>Node1&#45;&gt;Node20</title>
<path fill="none" stroke="midnightblue" d="M1458.69,-161.377C1446.51,-181.431 1424.39,-213.065 1397,-231 1391.09,-234.868 1384.4,-237.959 1377.57,-240.425"/>
<polygon fill="midnightblue" stroke="midnightblue" points="1461.82,-162.97 1463.86,-152.574 1455.78,-159.43 1461.82,-162.97"/>
</g>
<!-- Node3 -->
<g id="node3" class="node"><title>Node3</title>
<g id="a_node3"><a xlink:href="../../da/d3f/class_enemy_controller_system.html#a58e6668793c7bc6ff830ba407047c540" target="_top" xlink:title=" ">
<polygon fill="white" stroke="black" points="944,-186 944,-216 1066,-216 1066,-186 944,-186"/>
<text text-anchor="start" x="952" y="-204" font-family="Helvetica,sans-Serif" font-size="10.00">EnemyControllerSystem</text>
<text text-anchor="middle" x="1005" y="-193" font-family="Helvetica,sans-Serif" font-size="10.00">::applyForces</text>
</a>
</g>
</g>
<!-- Node2&#45;&gt;Node3 -->
<g id="edge2" class="edge"><title>Node2&#45;&gt;Node3</title>
<path fill="none" stroke="midnightblue" d="M1249.4,-204.785C1192.98,-203.908 1117.89,-202.74 1066.11,-201.935"/>
<polygon fill="midnightblue" stroke="midnightblue" points="1249.66,-208.29 1259.71,-204.946 1249.77,-201.291 1249.66,-208.29"/>
</g>
<!-- Node11 -->
<g id="node11" class="node"><title>Node11</title>
<g id="a_node11"><a xlink:href="../../d5/d50/class_player_controller_system.html#a4f3e2c164e2bc88b8179912eae184653" target="_top" xlink:title=" ">
<polygon fill="white" stroke="black" points="1103.5,-147 1103.5,-177 1222.5,-177 1222.5,-147 1103.5,-147"/>
<text text-anchor="start" x="1111.5" y="-165" font-family="Helvetica,sans-Serif" font-size="10.00">PlayerControllerSystem</text>
<text text-anchor="middle" x="1163" y="-154" font-family="Helvetica,sans-Serif" font-size="10.00">::applyForces</text>
</a>
</g>
</g>
<!-- Node2&#45;&gt;Node11 -->
<g id="edge10" class="edge"><title>Node2&#45;&gt;Node11</title>
<path fill="none" stroke="midnightblue" d="M1261.72,-188.297C1247.83,-184.561 1233.31,-180.653 1219.84,-177.026"/>
<polygon fill="midnightblue" stroke="midnightblue" points="1261.12,-191.762 1271.69,-190.981 1262.94,-185.002 1261.12,-191.762"/>
</g>
<!-- Node13 -->
<g id="node13" class="node"><title>Node13</title>
<g id="a_node13"><a xlink:href="../../d5/d50/class_player_controller_system.html#acf4ba00f5474af8aa904575b2655b44f" target="_top" xlink:title=" ">
<polygon fill="white" stroke="black" points="1103.5,-98 1103.5,-128 1222.5,-128 1222.5,-98 1103.5,-98"/>
<text text-anchor="start" x="1111.5" y="-116" font-family="Helvetica,sans-Serif" font-size="10.00">PlayerControllerSystem</text>
<text text-anchor="middle" x="1163" y="-105" font-family="Helvetica,sans-Serif" font-size="10.00">::performJump</text>
</a>
</g>
</g>
<!-- Node2&#45;&gt;Node13 -->
<g id="edge13" class="edge"><title>Node2&#45;&gt;Node13</title>
<path fill="none" stroke="midnightblue" d="M1268.35,-186.292C1265.45,-184.65 1262.64,-182.888 1260,-181 1239.43,-166.321 1244.37,-151.943 1224,-137 1219.39,-133.616 1214.23,-130.628 1208.93,-128.012"/>
<polygon fill="midnightblue" stroke="midnightblue" points="1266.8,-189.431 1277.3,-190.867 1269.99,-183.199 1266.8,-189.431"/>
</g>
<!-- Node4 -->
<g id="node4" class="node"><title>Node4</title>
<g id="a_node4"><a xlink:href="../../da/d3f/class_enemy_controller_system.html#a026087734b2ff96302e29522d87111f3" target="_top" xlink:title=" ">
<polygon fill="white" stroke="black" points="786,-238 786,-268 908,-268 908,-238 786,-238"/>
<text text-anchor="start" x="794" y="-256" font-family="Helvetica,sans-Serif" font-size="10.00">EnemyControllerSystem</text>
<text text-anchor="middle" x="847" y="-245" font-family="Helvetica,sans-Serif" font-size="10.00">::update</text>
</a>
</g>
</g>
<!-- Node3&#45;&gt;Node4 -->
<g id="edge3" class="edge"><title>Node3&#45;&gt;Node4</title>
<path fill="none" stroke="midnightblue" d="M949.183,-219.272C930.812,-225.396 910.553,-232.149 893.02,-237.993"/>
<polygon fill="midnightblue" stroke="midnightblue" points="950.498,-222.523 958.878,-216.041 948.285,-215.883 950.498,-222.523"/>
</g>
<!-- Node5 -->
<g id="node5" class="node"><title>Node5</title>
<g id="a_node5"><a xlink:href="../../d3/de8/class_fixed_updating_system.html#a7086592e0a53a3a3f8c7533f042a4266" target="_top" xlink:title=" ">
<polygon fill="white" stroke="black" points="637,-238 637,-268 750,-268 750,-238 637,-238"/>
<text text-anchor="start" x="645" y="-256" font-family="Helvetica,sans-Serif" font-size="10.00">FixedUpdatingSystem</text>
<text text-anchor="middle" x="693.5" y="-245" font-family="Helvetica,sans-Serif" font-size="10.00">::updateCollision</text>
</a>
</g>
</g>
<!-- Node4&#45;&gt;Node5 -->
<g id="edge4" class="edge"><title>Node4&#45;&gt;Node5</title>
<path fill="none" stroke="midnightblue" d="M775.426,-253C766.955,-253 758.397,-253 750.179,-253"/>
<polygon fill="midnightblue" stroke="midnightblue" points="775.688,-256.5 785.688,-253 775.688,-249.5 775.688,-256.5"/>
</g>
<!-- Node6 -->
<g id="node6" class="node"><title>Node6</title>
<g id="a_node6"><a xlink:href="../../d3/de8/class_fixed_updating_system.html#a3ed508813ba850baed19e86ef0429028" target="_top" xlink:title=" ">
<polygon fill="white" stroke="black" points="488,-261 488,-291 601,-291 601,-261 488,-261"/>
<text text-anchor="start" x="496" y="-279" font-family="Helvetica,sans-Serif" font-size="10.00">FixedUpdatingSystem</text>
<text text-anchor="middle" x="544.5" y="-268" font-family="Helvetica,sans-Serif" font-size="10.00">::fixedUpdate</text>
</a>
</g>
</g>
<!-- Node5&#45;&gt;Node6 -->
<g id="edge5" class="edge"><title>Node5&#45;&gt;Node6</title>
<path fill="none" stroke="midnightblue" d="M626.922,-263.26C618.319,-264.606 609.57,-265.975 601.153,-267.292"/>
<polygon fill="midnightblue" stroke="midnightblue" points="627.587,-266.699 636.926,-261.695 626.505,-259.783 627.587,-266.699"/>
</g>
<!-- Node6&#45;&gt;Node7 -->
<g id="edge6" class="edge"><title>Node6&#45;&gt;Node7</title>
<path fill="none" stroke="midnightblue" d="M478.205,-291.336C466.493,-294.087 454.597,-296.881 443.827,-299.411"/>
<polygon fill="midnightblue" stroke="midnightblue" points="479.036,-294.736 487.971,-289.042 477.435,-287.922 479.036,-294.736"/>
</g>
<!-- Node8 -->
<g id="node8" class="node"><title>Node8</title>
<g id="a_node8"><a xlink:href="../../de/d6b/class_application.html#a95c827cb5cf08bd0c3cc7b07ed4b4249" target="_top" xlink:title=" ">
<polygon fill="white" stroke="black" points="194,-299.5 194,-318.5 316,-318.5 316,-299.5 194,-299.5"/>
<text text-anchor="middle" x="255" y="-306.5" font-family="Helvetica,sans-Serif" font-size="10.00">Application::fixedUpdate</text>
</a>
</g>
</g>
<!-- Node7&#45;&gt;Node8 -->
<g id="edge7" class="edge"><title>Node7&#45;&gt;Node8</title>
<path fill="none" stroke="midnightblue" d="M341.747,-309C333.287,-309 324.578,-309 316.102,-309"/>
<polygon fill="midnightblue" stroke="midnightblue" points="341.91,-312.5 351.91,-309 341.91,-305.5 341.91,-312.5"/>
</g>
<!-- Node9 -->
<g id="node9" class="node"><title>Node9</title>
<g id="a_node9"><a xlink:href="../../de/d6b/class_application.html#a68965449404743bf1add056784d6cf81" target="_top" xlink:title=" ">
<polygon fill="white" stroke="black" points="74,-299.5 74,-318.5 158,-318.5 158,-299.5 74,-299.5"/>
<text text-anchor="middle" x="116" y="-306.5" font-family="Helvetica,sans-Serif" font-size="10.00">Application::run</text>
</a>
</g>
</g>
<!-- Node8&#45;&gt;Node9 -->
<g id="edge8" class="edge"><title>Node8&#45;&gt;Node9</title>
<path fill="none" stroke="midnightblue" d="M183.669,-309C174.931,-309 166.234,-309 158.145,-309"/>
<polygon fill="midnightblue" stroke="midnightblue" points="183.91,-312.5 193.91,-309 183.91,-305.5 183.91,-312.5"/>
</g>
<!-- Node10 -->
<g id="node10" class="node"><title>Node10</title>
<g id="a_node10"><a xlink:href="../../d5/d12/_main_8cpp.html#a0ddf1224851353fc92bfbff6f499fa97" target="_top" xlink:title=" ">
<polygon fill="white" stroke="black" points="0,-299.5 0,-318.5 38,-318.5 38,-299.5 0,-299.5"/>
<text text-anchor="middle" x="19" y="-306.5" font-family="Helvetica,sans-Serif" font-size="10.00">main</text>
</a>
</g>
</g>
<!-- Node9&#45;&gt;Node10 -->
<g id="edge9" class="edge"><title>Node9&#45;&gt;Node10</title>
<path fill="none" stroke="midnightblue" d="M63.6206,-309C54.5384,-309 45.6466,-309 38.2853,-309"/>
<polygon fill="midnightblue" stroke="midnightblue" points="63.8842,-312.5 73.8841,-309 63.8841,-305.5 63.8842,-312.5"/>
</g>
<!-- Node12 -->
<g id="node12" class="node"><title>Node12</title>
<g id="a_node12"><a xlink:href="../../d5/d50/class_player_controller_system.html#a9d234f18033f0a3fca95bbcd49c28deb" target="_top" xlink:title=" ">
<polygon fill="white" stroke="black" points="787.5,-165 787.5,-195 906.5,-195 906.5,-165 787.5,-165"/>
<text text-anchor="start" x="795.5" y="-183" font-family="Helvetica,sans-Serif" font-size="10.00">PlayerControllerSystem</text>
<text text-anchor="middle" x="847" y="-172" font-family="Helvetica,sans-Serif" font-size="10.00">::fixedUpdate</text>
</a>
</g>
</g>
<!-- Node11&#45;&gt;Node12 -->
<g id="edge11" class="edge"><title>Node11&#45;&gt;Node12</title>
<path fill="none" stroke="midnightblue" d="M1093.15,-165.947C1037.35,-169.146 959.553,-173.605 906.671,-176.637"/>
<polygon fill="midnightblue" stroke="midnightblue" points="1093.52,-169.431 1103.31,-165.365 1093.12,-162.443 1093.52,-169.431"/>
</g>
<!-- Node12&#45;&gt;Node5 -->
<g id="edge12" class="edge"><title>Node12&#45;&gt;Node5</title>
<path fill="none" stroke="midnightblue" d="M805.39,-199.568C780.416,-211.601 748.897,-226.789 725.851,-237.894"/>
<polygon fill="midnightblue" stroke="midnightblue" points="807.12,-202.62 814.609,-195.126 804.081,-196.313 807.12,-202.62"/>
</g>
<!-- Node14 -->
<g id="node14" class="node"><title>Node14</title>
<g id="a_node14"><a xlink:href="../../d5/d50/class_player_controller_system.html#a6b40aea168be07d1016a2602e38de00b" target="_top" xlink:title=" ">
<polygon fill="white" stroke="black" points="945.5,-98 945.5,-128 1064.5,-128 1064.5,-98 945.5,-98"/>
<text text-anchor="start" x="953.5" y="-116" font-family="Helvetica,sans-Serif" font-size="10.00">PlayerControllerSystem</text>
<text text-anchor="middle" x="1005" y="-105" font-family="Helvetica,sans-Serif" font-size="10.00">::performCommands</text>
</a>
</g>
</g>
<!-- Node13&#45;&gt;Node14 -->
<g id="edge14" class="edge"><title>Node13&#45;&gt;Node14</title>
<path fill="none" stroke="midnightblue" d="M1093.21,-113C1083.67,-113 1073.94,-113 1064.6,-113"/>
<polygon fill="midnightblue" stroke="midnightblue" points="1093.47,-116.5 1103.47,-113 1093.47,-109.5 1093.47,-116.5"/>
</g>
<!-- Node14&#45;&gt;Node12 -->
<g id="edge15" class="edge"><title>Node14&#45;&gt;Node12</title>
<path fill="none" stroke="midnightblue" d="M959.648,-132.048C935.405,-142.461 905.795,-155.178 883.162,-164.898"/>
<polygon fill="midnightblue" stroke="midnightblue" points="961.183,-135.198 968.991,-128.036 958.421,-128.767 961.183,-135.198"/>
</g>
<!-- Node21 -->
<g id="node21" class="node"><title>Node21</title>
<g id="a_node21"><a xlink:href="../../da/d3f/class_enemy_controller_system.html#a687331915aabd4381bc5f5433396e12b" target="_top" xlink:title=" ">
<polygon fill="white" stroke="black" points="1102,-284 1102,-314 1224,-314 1224,-284 1102,-284"/>
<text text-anchor="start" x="1110" y="-302" font-family="Helvetica,sans-Serif" font-size="10.00">EnemyControllerSystem</text>
<text text-anchor="middle" x="1163" y="-291" font-family="Helvetica,sans-Serif" font-size="10.00">::handleRayHit</text>
</a>
</g>
</g>
<!-- Node20&#45;&gt;Node21 -->
<g id="edge23" class="edge"><title>Node20&#45;&gt;Node21</title>
<path fill="none" stroke="midnightblue" d="M1285.94,-262.454C1264.1,-268.999 1237.17,-277.071 1214.17,-283.963"/>
<polygon fill="midnightblue" stroke="midnightblue" points="1287.01,-265.788 1295.59,-259.564 1285,-259.082 1287.01,-265.788"/>
</g>
<!-- Node23 -->
<g id="node23" class="node"><title>Node23</title>
<g id="a_node23"><a xlink:href="../../d5/d50/class_player_controller_system.html#a4ee740fcbaa4e826d5d2ef49e0c54c7f" target="_top" xlink:title=" ">
<polygon fill="white" stroke="black" points="1103.5,-235 1103.5,-265 1222.5,-265 1222.5,-235 1103.5,-235"/>
<text text-anchor="start" x="1111.5" y="-253" font-family="Helvetica,sans-Serif" font-size="10.00">PlayerControllerSystem</text>
<text text-anchor="middle" x="1163" y="-242" font-family="Helvetica,sans-Serif" font-size="10.00">::handleRayHit</text>
</a>
</g>
</g>
<!-- Node20&#45;&gt;Node23 -->
<g id="edge26" class="edge"><title>Node20&#45;&gt;Node23</title>
<path fill="none" stroke="midnightblue" d="M1257.44,-250C1245.82,-250 1233.88,-250 1222.58,-250"/>
<polygon fill="midnightblue" stroke="midnightblue" points="1257.55,-253.5 1267.55,-250 1257.55,-246.5 1257.55,-253.5"/>
</g>
<!-- Node22 -->
<g id="node22" class="node"><title>Node22</title>
<g id="a_node22"><a xlink:href="../../da/d3f/class_enemy_controller_system.html#ae94d4732176c8a2b834f76e7be6fe79d" target="_top" xlink:title=" ">
<polygon fill="white" stroke="black" points="944,-284 944,-314 1066,-314 1066,-284 944,-284"/>
<text text-anchor="start" x="952" y="-302" font-family="Helvetica,sans-Serif" font-size="10.00">EnemyControllerSystem</text>
<text text-anchor="middle" x="1005" y="-291" font-family="Helvetica,sans-Serif" font-size="10.00">::executeRayTesting</text>
</a>
</g>
</g>
<!-- Node21&#45;&gt;Node22 -->
<g id="edge24" class="edge"><title>Node21&#45;&gt;Node22</title>
<path fill="none" stroke="midnightblue" d="M1091.46,-299C1083.01,-299 1074.44,-299 1066.15,-299"/>
<polygon fill="midnightblue" stroke="midnightblue" points="1091.69,-302.5 1101.69,-299 1091.69,-295.5 1091.69,-302.5"/>
</g>
<!-- Node22&#45;&gt;Node4 -->
<g id="edge25" class="edge"><title>Node22&#45;&gt;Node4</title>
<path fill="none" stroke="midnightblue" d="M942.987,-281.009C928.408,-276.71 912.998,-272.166 898.928,-268.017"/>
<polygon fill="midnightblue" stroke="midnightblue" points="942.338,-284.467 952.92,-283.938 944.318,-277.752 942.338,-284.467"/>
</g>
<!-- Node24 -->
<g id="node24" class="node"><title>Node24</title>
<g id="a_node24"><a xlink:href="../../d5/d50/class_player_controller_system.html#a919d9d772a6059cf4213c42c584ffcf3" target="_top" xlink:title=" ">
<polygon fill="white" stroke="black" points="945.5,-235 945.5,-265 1064.5,-265 1064.5,-235 945.5,-235"/>
<text text-anchor="start" x="953.5" y="-253" font-family="Helvetica,sans-Serif" font-size="10.00">PlayerControllerSystem</text>
<text text-anchor="middle" x="1005" y="-242" font-family="Helvetica,sans-Serif" font-size="10.00">::executeRayTesting</text>
</a>
</g>
</g>
<!-- Node23&#45;&gt;Node24 -->
<g id="edge27" class="edge"><title>Node23&#45;&gt;Node24</title>
<path fill="none" stroke="midnightblue" d="M1093.21,-250C1083.67,-250 1073.94,-250 1064.6,-250"/>
<polygon fill="midnightblue" stroke="midnightblue" points="1093.47,-253.5 1103.47,-250 1093.47,-246.5 1093.47,-253.5"/>
</g>
<!-- Node24&#45;&gt;Node12 -->
<g id="edge28" class="edge"><title>Node24&#45;&gt;Node12</title>
<path fill="none" stroke="midnightblue" d="M955.783,-231.039C951.783,-229.368 947.814,-227.674 944,-226 921.663,-216.194 896.837,-204.27 878.028,-195.02"/>
<polygon fill="midnightblue" stroke="midnightblue" points="954.533,-234.31 965.112,-234.882 957.198,-227.837 954.533,-234.31"/>
</g>
</g>
</svg>
        <g id="navigator" transform="translate(0 0)" fill="#404254">
                <rect fill="#f2f5e9" fill-opacity="0.5" stroke="#606060" stroke-width=".5" x="0" y="0" width="60" height="60"/>
                <use id="zoomplus" xlink:href="#zoomPlus" x="17" y="9" onmousedown="handleZoom(evt,'in')"/>
                <use id="zoomminus" xlink:href="#zoomMin" x="42" y="9" onmousedown="handleZoom(evt,'out')"/>
                <use id="reset" xlink:href="#resetDef" x="30" y="36" onmousedown="handleReset()"/>
                <g id="arrowUp" xlink:href="#dirArrow" transform="translate(30 24)" onmousedown="handlePan(0,-1)">
                  <use xlink:href="#rim" fill="#404040">
                        <set attributeName="fill" to="#808080" begin="arrowUp.mouseover" end="arrowUp.mouseout"/>
                  </use>
                  <path fill="none" stroke="white" stroke-width="1.5" d="M0,-3.0v7 M-2.5,-0.5L0,-3.0L2.5,-0.5"/>
                </g>
                <g id="arrowRight" xlink:href="#dirArrow" transform="rotate(90) translate(36 -43)" onmousedown="handlePan(1,0)">
                  <use xlink:href="#rim" fill="#404040">
                        <set attributeName="fill" to="#808080" begin="arrowRight.mouseover" end="arrowRight.mouseout"/>
                  </use>
                  <path fill="none" stroke="white" stroke-width="1.5" d="M0,-3.0v7 M-2.5,-0.5L0,-3.0L2.5,-0.5"/>
                </g>
                <g id="arrowDown" xlink:href="#dirArrow" transform="rotate(180) translate(-30 -48)" onmousedown="handlePan(0,1)">
                  <use xlink:href="#rim" fill="#404040">
                        <set attributeName="fill" to="#808080" begin="arrowDown.mouseover" end="arrowDown.mouseout"/>
                  </use>
                  <path fill="none" stroke="white" stroke-width="1.5" d="M0,-3.0v7 M-2.5,-0.5L0,-3.0L2.5,-0.5"/>
                </g>
                <g id="arrowLeft" xlink:href="#dirArrow" transform="rotate(270) translate(-36 17)" onmousedown="handlePan(-1,0)">
                  <use xlink:href="#rim" fill="#404040">
                        <set attributeName="fill" to="#808080" begin="arrowLeft.mouseover" end="arrowLeft.mouseout"/>
                  </use>
                  <path fill="none" stroke="white" stroke-width="1.5" d="M0,-3.0v7 M-2.5,-0.5L0,-3.0L2.5,-0.5"/>
                </g>
        </g>
        <svg viewBox="0 0 15 15" width="100%" height="30px" preserveAspectRatio="xMaxYMin meet">
         <g id="arrow_out" transform="scale(0.3 0.3)">
          <a xlink:href="namespacehh_aa0102ec32d9d665ebdda89fa4c03c5b6_icgraph_org.svg" target="_base">
           <rect id="button" ry="5" rx="5" y="6" x="6" height="38" width="38"
                fill="#f2f5e9" fill-opacity="0.5" stroke="#606060" stroke-width="1.0"/>
           <path id="arrow"
             d="M 11.500037,31.436501 C 11.940474,20.09759 22.043105,11.32322 32.158766,21.979434 L 37.068811,17.246167 C 37.068811,17.246167 37.088388,32 37.088388,32 L 22.160133,31.978069 C 22.160133,31.978069 26.997745,27.140456 26.997745,27.140456 C 18.528582,18.264221 13.291696,25.230495 11.500037,31.436501 z"
             style="fill:#404040;"/>
          </a>
         </g>
        </svg>
</svg>
