<?xml version="1.0" encoding="UTF-8" standalone="no"?>
<!DOCTYPE svg PUBLIC "-//W3C//DTD SVG 1.1//EN"
 "http://www.w3.org/Graphics/SVG/1.1/DTD/svg11.dtd">
<!-- Generated by graphviz version 2.38.0 (20140413.2041)
 -->
<!-- Title: hh::toGlmVec3 Pages: 1 -->
<svg width="1554pt" height="336pt"
 viewBox="0.00 0.00 1554.00 335.84" xmlns="http://www.w3.org/2000/svg" xmlns:xlink="http://www.w3.org/1999/xlink">
<g id="graph0" class="graph" transform="scale(1 1) rotate(0) translate(4 331.838)">
<title>hh::toGlmVec3</title>
<polygon fill="white" stroke="none" points="-4,4 -4,-331.838 1550,-331.838 1550,4 -4,4"/>
<!-- Node1 -->
<g id="node1" class="node"><title>Node1</title>
<g id="a_node1"><a xlink:title=" ">
<polygon fill="#bfbfbf" stroke="black" points="1464,-114.5 1464,-133.5 1546,-133.5 1546,-114.5 1464,-114.5"/>
<text text-anchor="middle" x="1505" y="-121.5" font-family="Helvetica,sans-Serif" font-size="10.00">hh::toGlmVec3</text>
</a>
</g>
</g>
<!-- Node2 -->
<g id="node2" class="node"><title>Node2</title>
<g id="a_node2"><a xlink:href="../../da/d3f/class_enemy_controller_system.html#ae94d4732176c8a2b834f76e7be6fe79d" target="_top" xlink:title=" ">
<polygon fill="white" stroke="black" points="1301,-153 1301,-183 1423,-183 1423,-153 1301,-153"/>
<text text-anchor="start" x="1309" y="-171" font-family="Helvetica,sans-Serif" font-size="10.00">EnemyControllerSystem</text>
<text text-anchor="middle" x="1362" y="-160" font-family="Helvetica,sans-Serif" font-size="10.00">::executeRayTesting</text>
</a>
</g>
</g>
<!-- Node1&#45;&gt;Node2 -->
<g id="edge1" class="edge"><title>Node1&#45;&gt;Node2</title>
<path fill="none" stroke="midnightblue" d="M1463.63,-136.599C1447.3,-141.693 1428.32,-147.615 1411.28,-152.935"/>
<polygon fill="midnightblue" stroke="midnightblue" points="1464.9,-139.867 1473.41,-133.547 1462.82,-133.185 1464.9,-139.867"/>
</g>
<!-- Node10 -->
<g id="node10" class="node"><title>Node10</title>
<g id="a_node10"><a xlink:href="../../d5/d50/class_player_controller_system.html#a919d9d772a6059cf4213c42c584ffcf3" target="_top" xlink:title=" ">
<polygon fill="white" stroke="black" points="942.5,-284 942.5,-314 1061.5,-314 1061.5,-284 942.5,-284"/>
<text text-anchor="start" x="950.5" y="-302" font-family="Helvetica,sans-Serif" font-size="10.00">PlayerControllerSystem</text>
<text text-anchor="middle" x="1002" y="-291" font-family="Helvetica,sans-Serif" font-size="10.00">::executeRayTesting</text>
</a>
</g>
</g>
<!-- Node1&#45;&gt;Node10 -->
<g id="edge9" class="edge"><title>Node1&#45;&gt;Node10</title>
<path fill="none" stroke="midnightblue" d="M1494.27,-142.833C1481.57,-165.962 1457.45,-205.28 1428,-231 1364.51,-286.444 1341.85,-298.861 1260,-319 1193.29,-335.413 1114.18,-324.953 1061.53,-313.945"/>
<polygon fill="midnightblue" stroke="midnightblue" points="1497.51,-144.195 1499.14,-133.726 1491.34,-140.895 1497.51,-144.195"/>
</g>
<!-- Node12 -->
<g id="node12" class="node"><title>Node12</title>
<g id="a_node12"><a xlink:href="../../d4/daa/class_collision_mesh.html#aa9ad0053cdd4fd6e991b343e174e543f" target="_top" xlink:title=" ">
<polygon fill="white" stroke="black" points="1296,-202.5 1296,-221.5 1428,-221.5 1428,-202.5 1296,-202.5"/>
<text text-anchor="middle" x="1362" y="-209.5" font-family="Helvetica,sans-Serif" font-size="10.00">CollisionMesh::getPosition</text>
</a>
</g>
</g>
<!-- Node1&#45;&gt;Node12 -->
<g id="edge12" class="edge"><title>Node1&#45;&gt;Node12</title>
<path fill="none" stroke="midnightblue" d="M1488.7,-141.876C1474.45,-157.466 1451.87,-179.622 1428,-193 1421.23,-196.793 1413.63,-199.894 1406.08,-202.406"/>
<polygon fill="midnightblue" stroke="midnightblue" points="1491.68,-143.787 1495.71,-133.989 1486.45,-139.136 1491.68,-143.787"/>
</g>
<!-- Node17 -->
<g id="node17" class="node"><title>Node17</title>
<g id="a_node17"><a xlink:href="../../d4/daa/class_collision_mesh.html#ade7ded2bdc63a79d0b8c2bf5e3e89c0d" target="_top" xlink:title=" ">
<polygon fill="white" stroke="black" points="1301,-114.5 1301,-133.5 1423,-133.5 1423,-114.5 1301,-114.5"/>
<text text-anchor="middle" x="1362" y="-121.5" font-family="Helvetica,sans-Serif" font-size="10.00">CollisionMesh::getScale</text>
</a>
</g>
</g>
<!-- Node1&#45;&gt;Node17 -->
<g id="edge21" class="edge"><title>Node1&#45;&gt;Node17</title>
<path fill="none" stroke="midnightblue" d="M1453.86,-124C1443.92,-124 1433.38,-124 1423.14,-124"/>
<polygon fill="midnightblue" stroke="midnightblue" points="1453.97,-127.5 1463.97,-124 1453.97,-120.5 1453.97,-127.5"/>
</g>
<!-- Node18 -->
<g id="node18" class="node"><title>Node18</title>
<g id="a_node18"><a xlink:href="../../d4/daa/class_collision_mesh.html#a532f01d5ef667f723b8e7e9e9ca4e177" target="_top" xlink:title=" ">
<polygon fill="white" stroke="black" points="1099,-76.5 1099,-95.5 1260,-95.5 1260,-76.5 1099,-76.5"/>
<text text-anchor="middle" x="1179.5" y="-83.5" font-family="Helvetica,sans-Serif" font-size="10.00">CollisionMesh::getTransformation</text>
</a>
</g>
</g>
<!-- Node1&#45;&gt;Node18 -->
<g id="edge22" class="edge"><title>Node1&#45;&gt;Node18</title>
<path fill="none" stroke="midnightblue" d="M1460.99,-111.909C1450.28,-109.271 1438.78,-106.749 1428,-105 1372.27,-95.9613 1308.77,-91.1978 1260.04,-88.7011"/>
<polygon fill="midnightblue" stroke="midnightblue" points="1460.4,-115.372 1470.96,-114.452 1462.13,-108.589 1460.4,-115.372"/>
</g>
<!-- Node19 -->
<g id="node19" class="node"><title>Node19</title>
<g id="a_node19"><a xlink:href="../../d4/daa/class_collision_mesh.html#a7fcf3223acb244cc1414acecaa75e920" target="_top" xlink:title=" ">
<polygon fill="white" stroke="black" points="1296,-38.5 1296,-57.5 1428,-57.5 1428,-38.5 1296,-38.5"/>
<text text-anchor="middle" x="1362" y="-45.5" font-family="Helvetica,sans-Serif" font-size="10.00">CollisionMesh::getVelocity</text>
</a>
</g>
</g>
<!-- Node1&#45;&gt;Node19 -->
<g id="edge26" class="edge"><title>Node1&#45;&gt;Node19</title>
<path fill="none" stroke="midnightblue" d="M1483.98,-108.276C1469.13,-97.128 1448.07,-82.367 1428,-72 1417.21,-66.4232 1404.81,-61.5111 1393.76,-57.6073"/>
<polygon fill="midnightblue" stroke="midnightblue" points="1481.88,-111.075 1491.95,-114.362 1486.13,-105.511 1481.88,-111.075"/>
</g>
<!-- Node20 -->
<g id="node20" class="node"><title>Node20</title>
<g id="a_node20"><a xlink:href="../../d3/dbc/class_ray_caster.html#ad0f8cc1e8671269be4054cd1b6a411b1" target="_top" xlink:title=" ">
<polygon fill="white" stroke="black" points="1298,-0.5 1298,-19.5 1426,-19.5 1426,-0.5 1298,-0.5"/>
<text text-anchor="middle" x="1362" y="-7.5" font-family="Helvetica,sans-Serif" font-size="10.00">RayCaster::resetCallback</text>
</a>
</g>
</g>
<!-- Node1&#45;&gt;Node20 -->
<g id="edge27" class="edge"><title>Node1&#45;&gt;Node20</title>
<path fill="none" stroke="midnightblue" d="M1493.93,-105.464C1481.31,-83.9463 1457.67,-48.8779 1428,-29 1422.24,-25.1395 1415.68,-22.0492 1409,-19.5792"/>
<polygon fill="midnightblue" stroke="midnightblue" points="1490.96,-107.322 1498.94,-114.293 1497.05,-103.868 1490.96,-107.322"/>
</g>
<!-- Node3 -->
<g id="node3" class="node"><title>Node3</title>
<g id="a_node3"><a xlink:href="../../da/d3f/class_enemy_controller_system.html#a026087734b2ff96302e29522d87111f3" target="_top" xlink:title=" ">
<polygon fill="white" stroke="black" points="941,-137 941,-167 1063,-167 1063,-137 941,-137"/>
<text text-anchor="start" x="949" y="-155" font-family="Helvetica,sans-Serif" font-size="10.00">EnemyControllerSystem</text>
<text text-anchor="middle" x="1002" y="-144" font-family="Helvetica,sans-Serif" font-size="10.00">::update</text>
</a>
</g>
</g>
<!-- Node2&#45;&gt;Node3 -->
<g id="edge2" class="edge"><title>Node2&#45;&gt;Node3</title>
<path fill="none" stroke="midnightblue" d="M1298.06,-150.66C1285.55,-147.889 1272.43,-145.457 1260,-144 1192.94,-136.142 1115.41,-140.362 1063.19,-145.131"/>
<polygon fill="midnightblue" stroke="midnightblue" points="1297.42,-154.103 1307.95,-152.943 1298.99,-147.282 1297.42,-154.103"/>
</g>
<!-- Node4 -->
<g id="node4" class="node"><title>Node4</title>
<g id="a_node4"><a xlink:href="../../d3/de8/class_fixed_updating_system.html#a7086592e0a53a3a3f8c7533f042a4266" target="_top" xlink:title=" ">
<polygon fill="white" stroke="black" points="637,-137 637,-167 750,-167 750,-137 637,-137"/>
<text text-anchor="start" x="645" y="-155" font-family="Helvetica,sans-Serif" font-size="10.00">FixedUpdatingSystem</text>
<text text-anchor="middle" x="693.5" y="-144" font-family="Helvetica,sans-Serif" font-size="10.00">::updateCollision</text>
</a>
</g>
</g>
<!-- Node3&#45;&gt;Node4 -->
<g id="edge3" class="edge"><title>Node3&#45;&gt;Node4</title>
<path fill="none" stroke="midnightblue" d="M930.482,-152C875.7,-152 800.777,-152 750.166,-152"/>
<polygon fill="midnightblue" stroke="midnightblue" points="930.811,-155.5 940.811,-152 930.811,-148.5 930.811,-155.5"/>
</g>
<!-- Node5 -->
<g id="node5" class="node"><title>Node5</title>
<g id="a_node5"><a xlink:href="../../d3/de8/class_fixed_updating_system.html#a3ed508813ba850baed19e86ef0429028" target="_top" xlink:title=" ">
<polygon fill="white" stroke="black" points="488,-137 488,-167 601,-167 601,-137 488,-137"/>
<text text-anchor="start" x="496" y="-155" font-family="Helvetica,sans-Serif" font-size="10.00">FixedUpdatingSystem</text>
<text text-anchor="middle" x="544.5" y="-144" font-family="Helvetica,sans-Serif" font-size="10.00">::fixedUpdate</text>
</a>
</g>
</g>
<!-- Node4&#45;&gt;Node5 -->
<g id="edge4" class="edge"><title>Node4&#45;&gt;Node5</title>
<path fill="none" stroke="midnightblue" d="M626.922,-152C618.319,-152 609.57,-152 601.153,-152"/>
<polygon fill="midnightblue" stroke="midnightblue" points="626.926,-155.5 636.926,-152 626.926,-148.5 626.926,-155.5"/>
</g>
<!-- Node6 -->
<g id="node6" class="node"><title>Node6</title>
<g id="a_node6"><a xlink:href="../../dd/d1f/class_game.html#a157e87f9dc147a5842ee6bdc06c95c17" target="_top" xlink:title=" ">
<polygon fill="white" stroke="black" points="352,-142.5 352,-161.5 452,-161.5 452,-142.5 352,-142.5"/>
<text text-anchor="middle" x="402" y="-149.5" font-family="Helvetica,sans-Serif" font-size="10.00">Game::fixedUpdate</text>
</a>
</g>
</g>
<!-- Node5&#45;&gt;Node6 -->
<g id="edge5" class="edge"><title>Node5&#45;&gt;Node6</title>
<path fill="none" stroke="midnightblue" d="M477.898,-152C469.253,-152 460.514,-152 452.208,-152"/>
<polygon fill="midnightblue" stroke="midnightblue" points="477.971,-155.5 487.971,-152 477.971,-148.5 477.971,-155.5"/>
</g>
<!-- Node7 -->
<g id="node7" class="node"><title>Node7</title>
<g id="a_node7"><a xlink:href="../../de/d6b/class_application.html#a95c827cb5cf08bd0c3cc7b07ed4b4249" target="_top" xlink:title=" ">
<polygon fill="white" stroke="black" points="194,-142.5 194,-161.5 316,-161.5 316,-142.5 194,-142.5"/>
<text text-anchor="middle" x="255" y="-149.5" font-family="Helvetica,sans-Serif" font-size="10.00">Application::fixedUpdate</text>
</a>
</g>
</g>
<!-- Node6&#45;&gt;Node7 -->
<g id="edge6" class="edge"><title>Node6&#45;&gt;Node7</title>
<path fill="none" stroke="midnightblue" d="M341.747,-152C333.287,-152 324.578,-152 316.102,-152"/>
<polygon fill="midnightblue" stroke="midnightblue" points="341.91,-155.5 351.91,-152 341.91,-148.5 341.91,-155.5"/>
</g>
<!-- Node8 -->
<g id="node8" class="node"><title>Node8</title>
<g id="a_node8"><a xlink:href="../../de/d6b/class_application.html#a68965449404743bf1add056784d6cf81" target="_top" xlink:title=" ">
<polygon fill="white" stroke="black" points="74,-142.5 74,-161.5 158,-161.5 158,-142.5 74,-142.5"/>
<text text-anchor="middle" x="116" y="-149.5" font-family="Helvetica,sans-Serif" font-size="10.00">Application::run</text>
</a>
</g>
</g>
<!-- Node7&#45;&gt;Node8 -->
<g id="edge7" class="edge"><title>Node7&#45;&gt;Node8</title>
<path fill="none" stroke="midnightblue" d="M183.669,-152C174.931,-152 166.234,-152 158.145,-152"/>
<polygon fill="midnightblue" stroke="midnightblue" points="183.91,-155.5 193.91,-152 183.91,-148.5 183.91,-155.5"/>
</g>
<!-- Node9 -->
<g id="node9" class="node"><title>Node9</title>
<g id="a_node9"><a xlink:href="../../d5/d12/_main_8cpp.html#a0ddf1224851353fc92bfbff6f499fa97" target="_top" xlink:title=" ">
<polygon fill="white" stroke="black" points="0,-142.5 0,-161.5 38,-161.5 38,-142.5 0,-142.5"/>
<text text-anchor="middle" x="19" y="-149.5" font-family="Helvetica,sans-Serif" font-size="10.00">main</text>
</a>
</g>
</g>
<!-- Node8&#45;&gt;Node9 -->
<g id="edge8" class="edge"><title>Node8&#45;&gt;Node9</title>
<path fill="none" stroke="midnightblue" d="M63.6206,-152C54.5384,-152 45.6466,-152 38.2853,-152"/>
<polygon fill="midnightblue" stroke="midnightblue" points="63.8842,-155.5 73.8841,-152 63.8841,-148.5 63.8842,-155.5"/>
</g>
<!-- Node11 -->
<g id="node11" class="node"><title>Node11</title>
<g id="a_node11"><a xlink:href="../../d5/d50/class_player_controller_system.html#a9d234f18033f0a3fca95bbcd49c28deb" target="_top" xlink:title=" ">
<polygon fill="white" stroke="black" points="786,-186 786,-216 905,-216 905,-186 786,-186"/>
<text text-anchor="start" x="794" y="-204" font-family="Helvetica,sans-Serif" font-size="10.00">PlayerControllerSystem</text>
<text text-anchor="middle" x="845.5" y="-193" font-family="Helvetica,sans-Serif" font-size="10.00">::fixedUpdate</text>
</a>
</g>
</g>
<!-- Node10&#45;&gt;Node11 -->
<g id="edge10" class="edge"><title>Node10&#45;&gt;Node11</title>
<path fill="none" stroke="midnightblue" d="M949.786,-279.684C946.77,-278.187 943.82,-276.623 941,-275 911.384,-257.948 880.931,-232.374 862.867,-216.195"/>
<polygon fill="midnightblue" stroke="midnightblue" points="948.422,-282.909 958.964,-283.964 951.381,-276.565 948.422,-282.909"/>
</g>
<!-- Node11&#45;&gt;Node4 -->
<g id="edge11" class="edge"><title>Node11&#45;&gt;Node4</title>
<path fill="none" stroke="midnightblue" d="M788.605,-182.741C772.784,-177.573 755.748,-172.008 740.576,-167.052"/>
<polygon fill="midnightblue" stroke="midnightblue" points="787.679,-186.12 798.271,-185.899 789.852,-179.466 787.679,-186.12"/>
</g>
<!-- Node13 -->
<g id="node13" class="node"><title>Node13</title>
<g id="a_node13"><a xlink:href="../../da/d3f/class_enemy_controller_system.html#a0f9e26ee8264c2f916c83a329609c099" target="_top" xlink:title=" ">
<polygon fill="white" stroke="black" points="1118.5,-153 1118.5,-183 1240.5,-183 1240.5,-153 1118.5,-153"/>
<text text-anchor="start" x="1126.5" y="-171" font-family="Helvetica,sans-Serif" font-size="10.00">EnemyControllerSystem</text>
<text text-anchor="middle" x="1179.5" y="-160" font-family="Helvetica,sans-Serif" font-size="10.00">::applyNewTransform</text>
</a>
</g>
</g>
<!-- Node12&#45;&gt;Node13 -->
<g id="edge13" class="edge"><title>Node12&#45;&gt;Node13</title>
<path fill="none" stroke="midnightblue" d="M1312.03,-200.062C1289.99,-194.689 1263.76,-188.295 1240.54,-182.637"/>
<polygon fill="midnightblue" stroke="midnightblue" points="1311.29,-203.485 1321.83,-202.453 1312.95,-196.684 1311.29,-203.485"/>
</g>
<!-- Node14 -->
<g id="node14" class="node"><title>Node14</title>
<g id="a_node14"><a xlink:href="../../d5/d50/class_player_controller_system.html#a791c9e27b3bdb79b981a087516c19207" target="_top" xlink:title=" ">
<polygon fill="white" stroke="black" points="942.5,-186 942.5,-216 1061.5,-216 1061.5,-186 942.5,-186"/>
<text text-anchor="start" x="950.5" y="-204" font-family="Helvetica,sans-Serif" font-size="10.00">PlayerControllerSystem</text>
<text text-anchor="middle" x="1002" y="-193" font-family="Helvetica,sans-Serif" font-size="10.00">::applyNewTransform</text>
</a>
</g>
</g>
<!-- Node12&#45;&gt;Node14 -->
<g id="edge15" class="edge"><title>Node12&#45;&gt;Node14</title>
<path fill="none" stroke="midnightblue" d="M1285.71,-209.687C1218.93,-207.635 1122.75,-204.679 1061.57,-202.8"/>
<polygon fill="midnightblue" stroke="midnightblue" points="1285.65,-213.186 1295.75,-209.995 1285.87,-206.19 1285.65,-213.186"/>
</g>
<!-- Node15 -->
<g id="node15" class="node"><title>Node15</title>
<g id="a_node15"><a xlink:href="../../d5/d50/class_player_controller_system.html#a7ec2692dbe1204e5e27f4189e0bcd8ea" target="_top" xlink:title=" ">
<polygon fill="white" stroke="black" points="942.5,-235 942.5,-265 1061.5,-265 1061.5,-235 942.5,-235"/>
<text text-anchor="start" x="950.5" y="-253" font-family="Helvetica,sans-Serif" font-size="10.00">PlayerControllerSystem</text>
<text text-anchor="middle" x="1002" y="-242" font-family="Helvetica,sans-Serif" font-size="10.00">::getPlayerInput</text>
</a>
</g>
</g>
<!-- Node12&#45;&gt;Node15 -->
<g id="edge17" class="edge"><title>Node12&#45;&gt;Node15</title>
<path fill="none" stroke="midnightblue" d="M1285.71,-219.992C1218.93,-227.08 1122.75,-237.289 1061.57,-243.783"/>
<polygon fill="midnightblue" stroke="midnightblue" points="1286.18,-223.462 1295.75,-218.926 1285.44,-216.501 1286.18,-223.462"/>
</g>
<!-- Node16 -->
<g id="node16" class="node"><title>Node16</title>
<g id="a_node16"><a xlink:href="../../d5/d50/class_player_controller_system.html#a4ee740fcbaa4e826d5d2ef49e0c54c7f" target="_top" xlink:title=" ">
<polygon fill="white" stroke="black" points="1120,-279 1120,-309 1239,-309 1239,-279 1120,-279"/>
<text text-anchor="start" x="1128" y="-297" font-family="Helvetica,sans-Serif" font-size="10.00">PlayerControllerSystem</text>
<text text-anchor="middle" x="1179.5" y="-286" font-family="Helvetica,sans-Serif" font-size="10.00">::handleRayHit</text>
</a>
</g>
</g>
<!-- Node12&#45;&gt;Node16 -->
<g id="edge19" class="edge"><title>Node12&#45;&gt;Node16</title>
<path fill="none" stroke="midnightblue" d="M1334.89,-226.49C1314.73,-237.421 1285.98,-252.454 1260,-264 1248.27,-269.212 1235.33,-274.346 1223.36,-278.853"/>
<polygon fill="midnightblue" stroke="midnightblue" points="1336.68,-229.501 1343.78,-221.635 1333.33,-223.358 1336.68,-229.501"/>
</g>
<!-- Node13&#45;&gt;Node3 -->
<g id="edge14" class="edge"><title>Node13&#45;&gt;Node3</title>
<path fill="none" stroke="midnightblue" d="M1107.97,-161.57C1093.14,-160.218 1077.62,-158.803 1063.21,-157.489"/>
<polygon fill="midnightblue" stroke="midnightblue" points="1107.83,-165.071 1118.1,-162.494 1108.46,-158.1 1107.83,-165.071"/>
</g>
<!-- Node14&#45;&gt;Node11 -->
<g id="edge16" class="edge"><title>Node14&#45;&gt;Node11</title>
<path fill="none" stroke="midnightblue" d="M932.099,-201C923.116,-201 913.981,-201 905.187,-201"/>
<polygon fill="midnightblue" stroke="midnightblue" points="932.149,-204.5 942.149,-201 932.149,-197.5 932.149,-204.5"/>
</g>
<!-- Node15&#45;&gt;Node11 -->
<g id="edge18" class="edge"><title>Node15&#45;&gt;Node11</title>
<path fill="none" stroke="midnightblue" d="M943.428,-231.741C927.132,-226.573 909.585,-221.008 893.959,-216.052"/>
<polygon fill="midnightblue" stroke="midnightblue" points="942.794,-235.212 953.384,-234.899 944.91,-228.539 942.794,-235.212"/>
</g>
<!-- Node16&#45;&gt;Node10 -->
<g id="edge20" class="edge"><title>Node16&#45;&gt;Node10</title>
<path fill="none" stroke="midnightblue" d="M1109.37,-295.97C1093.62,-296.418 1077.04,-296.891 1061.77,-297.326"/>
<polygon fill="midnightblue" stroke="midnightblue" points="1109.68,-299.462 1119.57,-295.679 1109.48,-292.465 1109.68,-299.462"/>
</g>
<!-- Node18&#45;&gt;Node3 -->
<g id="edge24" class="edge"><title>Node18&#45;&gt;Node3</title>
<path fill="none" stroke="midnightblue" d="M1133.94,-98.4333C1122.46,-101.912 1110.2,-105.877 1099,-110 1077.32,-117.983 1053.52,-128.382 1035.05,-136.835"/>
<polygon fill="midnightblue" stroke="midnightblue" points="1135.18,-101.715 1143.77,-95.5096 1133.18,-95.0051 1135.18,-101.715"/>
</g>
<!-- Node18&#45;&gt;Node4 -->
<g id="edge25" class="edge"><title>Node18&#45;&gt;Node4</title>
<path fill="none" stroke="midnightblue" d="M1088.51,-83.7654C1043.95,-83.8029 989.458,-85.5655 941,-92 871.142,-101.276 792.317,-122.395 743.023,-136.929"/>
<polygon fill="midnightblue" stroke="midnightblue" points="1088.72,-87.2658 1098.73,-83.7867 1088.74,-80.2658 1088.72,-87.2658"/>
</g>
<!-- Node18&#45;&gt;Node11 -->
<g id="edge23" class="edge"><title>Node18&#45;&gt;Node11</title>
<path fill="none" stroke="midnightblue" d="M1088.78,-91.6127C1043.01,-96.9884 987.372,-107.492 941,-128 909.337,-142.003 878.77,-168.802 861.343,-185.743"/>
<polygon fill="midnightblue" stroke="midnightblue" points="1089.43,-95.0617 1098.99,-90.4789 1088.66,-88.1045 1089.43,-95.0617"/>
</g>
</g>
</svg>
