<?xml version="1.0" encoding="UTF-8" standalone="no"?>
<!DOCTYPE svg PUBLIC "-//W3C//DTD SVG 1.1//EN"
 "http://www.w3.org/Graphics/SVG/1.1/DTD/svg11.dtd">
<!-- Generated by graphviz version 2.38.0 (20140413.2041)
 -->
<!-- Title: hh::getRandomRange Pages: 1 -->
<svg width="275pt" height="78pt"
 viewBox="0.00 0.00 275.00 77.50" xmlns="http://www.w3.org/2000/svg" xmlns:xlink="http://www.w3.org/1999/xlink">
<g id="graph0" class="graph" transform="scale(1 1) rotate(0) translate(4 73.5)">
<title>hh::getRandomRange</title>
<polygon fill="white" stroke="none" points="-4,4 -4,-73.5 271,-73.5 271,4 -4,4"/>
<!-- Node1 -->
<g id="node1" class="node"><title>Node1</title>
<g id="a_node1"><a xlink:title=" ">
<polygon fill="#bfbfbf" stroke="black" points="157,-28 157,-47 267,-47 267,-28 157,-28"/>
<text text-anchor="middle" x="212" y="-35" font-family="Helvetica,sans-Serif" font-size="10.00">hh::getRandomRange</text>
</a>
</g>
</g>
<!-- Node2 -->
<g id="node2" class="node"><title>Node2</title>
<g id="a_node2"><a xlink:href="../../d1/d45/class_light_test.html#acfa774548a0298d8240d5d73d20fe676" target="_top" xlink:title=" ">
<polygon fill="white" stroke="black" points="11.5,-50 11.5,-69 109.5,-69 109.5,-50 11.5,-50"/>
<text text-anchor="middle" x="60.5" y="-57" font-family="Helvetica,sans-Serif" font-size="10.00">LightTest::initialize</text>
</a>
</g>
</g>
<!-- Node1&#45;&gt;Node2 -->
<g id="edge1" class="edge"><title>Node1&#45;&gt;Node2</title>
<path fill="none" stroke="midnightblue" d="M146.375,-47.01C134.057,-48.8228 121.365,-50.6905 109.671,-52.4113"/>
<polygon fill="midnightblue" stroke="midnightblue" points="147.22,-50.4234 156.604,-45.5047 146.201,-43.498 147.22,-50.4234"/>
</g>
<!-- Node3 -->
<g id="node3" class="node"><title>Node3</title>
<g id="a_node3"><a xlink:href="../../d3/dad/class_fountain_particle_system.html#a508aa844a9c0701fe66ab45b033a6e21" target="_top" xlink:title=" ">
<polygon fill="white" stroke="black" points="0,-0.5 0,-30.5 121,-30.5 121,-0.5 0,-0.5"/>
<text text-anchor="start" x="8" y="-18.5" font-family="Helvetica,sans-Serif" font-size="10.00">FountainParticleSystem</text>
<text text-anchor="middle" x="60.5" y="-7.5" font-family="Helvetica,sans-Serif" font-size="10.00">::setParticleToDefault</text>
</a>
</g>
</g>
<!-- Node1&#45;&gt;Node3 -->
<g id="edge2" class="edge"><title>Node1&#45;&gt;Node3</title>
<path fill="none" stroke="midnightblue" d="M146.467,-28.0035C138.061,-26.7666 129.48,-25.5037 121.159,-24.2792"/>
<polygon fill="midnightblue" stroke="midnightblue" points="146.201,-31.502 156.604,-29.4953 147.22,-24.5766 146.201,-31.502"/>
</g>
</g>
</svg>
