<?xml version="1.0" encoding="UTF-8" standalone="no"?>
<!DOCTYPE svg PUBLIC "-//W3C//DTD SVG 1.1//EN"
 "http://www.w3.org/Graphics/SVG/1.1/DTD/svg11.dtd">
<!-- Generated by graphviz version 2.38.0 (20140413.2041)
 -->
<!-- Title: hh::signedRadiansBetweenVectors Pages: 1 -->
<svg width="1255pt" height="88pt"
 viewBox="0.00 0.00 1255.00 88.00" xmlns="http://www.w3.org/2000/svg" xmlns:xlink="http://www.w3.org/1999/xlink">
<g id="graph0" class="graph" transform="scale(1 1) rotate(0) translate(4 84)">
<title>hh::signedRadiansBetweenVectors</title>
<polygon fill="white" stroke="none" points="-4,4 -4,-84 1251,-84 1251,4 -4,4"/>
<!-- Node1 -->
<g id="node1" class="node"><title>Node1</title>
<g id="a_node1"><a xlink:title=" ">
<polygon fill="#bfbfbf" stroke="black" points="1113,-24.5 1113,-54.5 1247,-54.5 1247,-24.5 1113,-24.5"/>
<text text-anchor="start" x="1121" y="-42.5" font-family="Helvetica,sans-Serif" font-size="10.00">hh::signedRadiansBetween</text>
<text text-anchor="middle" x="1180" y="-31.5" font-family="Helvetica,sans-Serif" font-size="10.00">Vectors</text>
</a>
</g>
</g>
<!-- Node2 -->
<g id="node2" class="node"><title>Node2</title>
<g id="a_node2"><a xlink:href="../../d5/d50/class_player_controller_system.html#a9b0be7cb86a889e07b30d9fa68a7aaa7" target="_top" xlink:title=" ">
<polygon fill="white" stroke="black" points="956.5,-49.5 956.5,-79.5 1075.5,-79.5 1075.5,-49.5 956.5,-49.5"/>
<text text-anchor="start" x="964.5" y="-67.5" font-family="Helvetica,sans-Serif" font-size="10.00">PlayerControllerSystem</text>
<text text-anchor="middle" x="1016" y="-56.5" font-family="Helvetica,sans-Serif" font-size="10.00">::applyNewRotation</text>
</a>
</g>
</g>
<!-- Node1&#45;&gt;Node2 -->
<g id="edge1" class="edge"><title>Node1&#45;&gt;Node2</title>
<path fill="none" stroke="midnightblue" d="M1102.53,-51.3015C1093.52,-52.6916 1084.44,-54.0933 1075.73,-55.4374"/>
<polygon fill="midnightblue" stroke="midnightblue" points="1103.29,-54.7249 1112.64,-49.7406 1102.22,-47.8068 1103.29,-54.7249"/>
</g>
<!-- Node9 -->
<g id="node9" class="node"><title>Node9</title>
<g id="a_node9"><a xlink:href="../../da/d3f/class_enemy_controller_system.html#a0f9e26ee8264c2f916c83a329609c099" target="_top" xlink:title=" ">
<polygon fill="white" stroke="black" points="955,-0.5 955,-30.5 1077,-30.5 1077,-0.5 955,-0.5"/>
<text text-anchor="start" x="963" y="-18.5" font-family="Helvetica,sans-Serif" font-size="10.00">EnemyControllerSystem</text>
<text text-anchor="middle" x="1016" y="-7.5" font-family="Helvetica,sans-Serif" font-size="10.00">::applyNewTransform</text>
</a>
</g>
</g>
<!-- Node1&#45;&gt;Node9 -->
<g id="edge8" class="edge"><title>Node1&#45;&gt;Node9</title>
<path fill="none" stroke="midnightblue" d="M1102.61,-28.1829C1094.02,-26.9099 1085.36,-25.6267 1077.01,-24.3908"/>
<polygon fill="midnightblue" stroke="midnightblue" points="1102.24,-31.6657 1112.64,-29.669 1103.26,-24.7413 1102.24,-31.6657"/>
</g>
<!-- Node3 -->
<g id="node3" class="node"><title>Node3</title>
<g id="a_node3"><a xlink:href="../../d5/d50/class_player_controller_system.html#ae968cd78ae054ed5521f19c6d3793933" target="_top" xlink:title=" ">
<polygon fill="white" stroke="black" points="798.5,-49.5 798.5,-79.5 917.5,-79.5 917.5,-49.5 798.5,-49.5"/>
<text text-anchor="start" x="806.5" y="-67.5" font-family="Helvetica,sans-Serif" font-size="10.00">PlayerControllerSystem</text>
<text text-anchor="middle" x="858" y="-56.5" font-family="Helvetica,sans-Serif" font-size="10.00">::update</text>
</a>
</g>
</g>
<!-- Node2&#45;&gt;Node3 -->
<g id="edge2" class="edge"><title>Node2&#45;&gt;Node3</title>
<path fill="none" stroke="midnightblue" d="M946.212,-64.5C936.667,-64.5 926.936,-64.5 917.601,-64.5"/>
<polygon fill="midnightblue" stroke="midnightblue" points="946.468,-68.0001 956.468,-64.5 946.467,-61.0001 946.468,-68.0001"/>
</g>
<!-- Node4 -->
<g id="node4" class="node"><title>Node4</title>
<g id="a_node4"><a xlink:href="../../d2/d54/class_updating_system.html#a127ad554750e7e7582a1904abfb265aa" target="_top" xlink:title=" ">
<polygon fill="white" stroke="black" points="637,-54 637,-73 761,-73 761,-54 637,-54"/>
<text text-anchor="middle" x="699" y="-61" font-family="Helvetica,sans-Serif" font-size="10.00">UpdatingSystem::update</text>
</a>
</g>
</g>
<!-- Node3&#45;&gt;Node4 -->
<g id="edge3" class="edge"><title>Node3&#45;&gt;Node4</title>
<path fill="none" stroke="midnightblue" d="M788.048,-64.0608C779.065,-64.0036 769.913,-63.9453 761.072,-63.889"/>
<polygon fill="midnightblue" stroke="midnightblue" points="788.07,-67.5609 798.092,-64.1248 788.115,-60.5611 788.07,-67.5609"/>
</g>
<!-- Node5 -->
<g id="node5" class="node"><title>Node5</title>
<g id="a_node5"><a xlink:href="../../dd/d1f/class_game.html#a79df6376b332d63c9eca0dcee30305c3" target="_top" xlink:title=" ">
<polygon fill="white" stroke="black" points="505.5,-53 505.5,-72 583.5,-72 583.5,-53 505.5,-53"/>
<text text-anchor="middle" x="544.5" y="-60" font-family="Helvetica,sans-Serif" font-size="10.00">Game::update</text>
</a>
</g>
</g>
<!-- Node4&#45;&gt;Node5 -->
<g id="edge4" class="edge"><title>Node4&#45;&gt;Node5</title>
<path fill="none" stroke="midnightblue" d="M626.689,-63.0324C611.912,-62.9355 596.888,-62.837 583.847,-62.7515"/>
<polygon fill="midnightblue" stroke="midnightblue" points="626.828,-66.5333 636.851,-63.099 626.874,-59.5334 626.828,-66.5333"/>
</g>
<!-- Node6 -->
<g id="node6" class="node"><title>Node6</title>
<g id="a_node6"><a xlink:href="../../de/d6b/class_application.html#a051023103d00b96b1e5e7437fd8e2e7c" target="_top" xlink:title=" ">
<polygon fill="white" stroke="black" points="205,-50 205,-69 305,-69 305,-50 205,-50"/>
<text text-anchor="middle" x="255" y="-57" font-family="Helvetica,sans-Serif" font-size="10.00">Application::update</text>
</a>
</g>
</g>
<!-- Node5&#45;&gt;Node6 -->
<g id="edge5" class="edge"><title>Node5&#45;&gt;Node6</title>
<path fill="none" stroke="midnightblue" d="M495.202,-61.996C442.418,-61.4452 358.306,-60.5675 305.177,-60.0132"/>
<polygon fill="midnightblue" stroke="midnightblue" points="495.286,-65.497 505.322,-62.1016 495.359,-58.4974 495.286,-65.497"/>
</g>
<!-- Node7 -->
<g id="node7" class="node"><title>Node7</title>
<g id="a_node7"><a xlink:href="../../de/d6b/class_application.html#a68965449404743bf1add056784d6cf81" target="_top" xlink:title=" ">
<polygon fill="white" stroke="black" points="74,-30 74,-49 158,-49 158,-30 74,-30"/>
<text text-anchor="middle" x="116" y="-37" font-family="Helvetica,sans-Serif" font-size="10.00">Application::run</text>
</a>
</g>
</g>
<!-- Node6&#45;&gt;Node7 -->
<g id="edge6" class="edge"><title>Node6&#45;&gt;Node7</title>
<path fill="none" stroke="midnightblue" d="M194.682,-50.8404C182.329,-49.0371 169.57,-47.1745 158.052,-45.493"/>
<polygon fill="midnightblue" stroke="midnightblue" points="194.526,-54.3547 204.927,-52.336 195.537,-47.4281 194.526,-54.3547"/>
</g>
<!-- Node8 -->
<g id="node8" class="node"><title>Node8</title>
<g id="a_node8"><a xlink:href="../../d5/d12/_main_8cpp.html#a0ddf1224851353fc92bfbff6f499fa97" target="_top" xlink:title=" ">
<polygon fill="white" stroke="black" points="0,-30 0,-49 38,-49 38,-30 0,-30"/>
<text text-anchor="middle" x="19" y="-37" font-family="Helvetica,sans-Serif" font-size="10.00">main</text>
</a>
</g>
</g>
<!-- Node7&#45;&gt;Node8 -->
<g id="edge7" class="edge"><title>Node7&#45;&gt;Node8</title>
<path fill="none" stroke="midnightblue" d="M63.6206,-39.5C54.5384,-39.5 45.6466,-39.5 38.2853,-39.5"/>
<polygon fill="midnightblue" stroke="midnightblue" points="63.8842,-43.0001 73.8841,-39.5 63.8841,-36.0001 63.8842,-43.0001"/>
</g>
<!-- Node10 -->
<g id="node10" class="node"><title>Node10</title>
<g id="a_node10"><a xlink:href="../../da/d3f/class_enemy_controller_system.html#a026087734b2ff96302e29522d87111f3" target="_top" xlink:title=" ">
<polygon fill="white" stroke="black" points="797,-0.5 797,-30.5 919,-30.5 919,-0.5 797,-0.5"/>
<text text-anchor="start" x="805" y="-18.5" font-family="Helvetica,sans-Serif" font-size="10.00">EnemyControllerSystem</text>
<text text-anchor="middle" x="858" y="-7.5" font-family="Helvetica,sans-Serif" font-size="10.00">::update</text>
</a>
</g>
</g>
<!-- Node9&#45;&gt;Node10 -->
<g id="edge9" class="edge"><title>Node9&#45;&gt;Node10</title>
<path fill="none" stroke="midnightblue" d="M944.462,-15.5C936.01,-15.5 927.44,-15.5 919.153,-15.5"/>
<polygon fill="midnightblue" stroke="midnightblue" points="944.686,-19.0001 954.686,-15.5 944.686,-12.0001 944.686,-19.0001"/>
</g>
<!-- Node11 -->
<g id="node11" class="node"><title>Node11</title>
<g id="a_node11"><a xlink:href="../../d3/de8/class_fixed_updating_system.html#a7086592e0a53a3a3f8c7533f042a4266" target="_top" xlink:title=" ">
<polygon fill="white" stroke="black" points="642.5,-2.5 642.5,-32.5 755.5,-32.5 755.5,-2.5 642.5,-2.5"/>
<text text-anchor="start" x="650.5" y="-20.5" font-family="Helvetica,sans-Serif" font-size="10.00">FixedUpdatingSystem</text>
<text text-anchor="middle" x="699" y="-9.5" font-family="Helvetica,sans-Serif" font-size="10.00">::updateCollision</text>
</a>
</g>
</g>
<!-- Node10&#45;&gt;Node11 -->
<g id="edge10" class="edge"><title>Node10&#45;&gt;Node11</title>
<path fill="none" stroke="midnightblue" d="M786.515,-16.3979C776.193,-16.5294 765.684,-16.6633 755.711,-16.7903"/>
<polygon fill="midnightblue" stroke="midnightblue" points="786.794,-19.8947 796.749,-16.2675 786.705,-12.8953 786.794,-19.8947"/>
</g>
<!-- Node12 -->
<g id="node12" class="node"><title>Node12</title>
<g id="a_node12"><a xlink:href="../../d3/de8/class_fixed_updating_system.html#a3ed508813ba850baed19e86ef0429028" target="_top" xlink:title=" ">
<polygon fill="white" stroke="black" points="488,-2.5 488,-32.5 601,-32.5 601,-2.5 488,-2.5"/>
<text text-anchor="start" x="496" y="-20.5" font-family="Helvetica,sans-Serif" font-size="10.00">FixedUpdatingSystem</text>
<text text-anchor="middle" x="544.5" y="-9.5" font-family="Helvetica,sans-Serif" font-size="10.00">::fixedUpdate</text>
</a>
</g>
</g>
<!-- Node11&#45;&gt;Node12 -->
<g id="edge11" class="edge"><title>Node11&#45;&gt;Node12</title>
<path fill="none" stroke="midnightblue" d="M631.931,-17.5C621.67,-17.5 611.158,-17.5 601.158,-17.5"/>
<polygon fill="midnightblue" stroke="midnightblue" points="632.081,-21.0001 642.081,-17.5 632.081,-14.0001 632.081,-21.0001"/>
</g>
<!-- Node13 -->
<g id="node13" class="node"><title>Node13</title>
<g id="a_node13"><a xlink:href="../../dd/d1f/class_game.html#a157e87f9dc147a5842ee6bdc06c95c17" target="_top" xlink:title=" ">
<polygon fill="white" stroke="black" points="352,-11 352,-30 452,-30 452,-11 352,-11"/>
<text text-anchor="middle" x="402" y="-18" font-family="Helvetica,sans-Serif" font-size="10.00">Game::fixedUpdate</text>
</a>
</g>
</g>
<!-- Node12&#45;&gt;Node13 -->
<g id="edge12" class="edge"><title>Node12&#45;&gt;Node13</title>
<path fill="none" stroke="midnightblue" d="M477.898,-18.9008C469.253,-19.0853 460.514,-19.2719 452.208,-19.4493"/>
<polygon fill="midnightblue" stroke="midnightblue" points="478.048,-22.3985 487.971,-18.6857 477.898,-15.4 478.048,-22.3985"/>
</g>
<!-- Node14 -->
<g id="node14" class="node"><title>Node14</title>
<g id="a_node14"><a xlink:href="../../de/d6b/class_application.html#a95c827cb5cf08bd0c3cc7b07ed4b4249" target="_top" xlink:title=" ">
<polygon fill="white" stroke="black" points="194,-11 194,-30 316,-30 316,-11 194,-11"/>
<text text-anchor="middle" x="255" y="-18" font-family="Helvetica,sans-Serif" font-size="10.00">Application::fixedUpdate</text>
</a>
</g>
</g>
<!-- Node13&#45;&gt;Node14 -->
<g id="edge13" class="edge"><title>Node13&#45;&gt;Node14</title>
<path fill="none" stroke="midnightblue" d="M341.747,-20.5C333.287,-20.5 324.578,-20.5 316.102,-20.5"/>
<polygon fill="midnightblue" stroke="midnightblue" points="341.91,-24.0001 351.91,-20.5 341.91,-17.0001 341.91,-24.0001"/>
</g>
<!-- Node14&#45;&gt;Node7 -->
<g id="edge14" class="edge"><title>Node14&#45;&gt;Node7</title>
<path fill="none" stroke="midnightblue" d="M183.954,-30.2145C175.121,-31.4395 166.322,-32.6598 158.145,-33.7937"/>
<polygon fill="midnightblue" stroke="midnightblue" points="184.485,-33.6743 193.91,-28.8337 183.524,-26.7407 184.485,-33.6743"/>
</g>
</g>
</svg>
