<?xml version="1.0" encoding="UTF-8" standalone="no"?>
<!DOCTYPE svg PUBLIC "-//W3C//DTD SVG 1.1//EN"
 "http://www.w3.org/Graphics/SVG/1.1/DTD/svg11.dtd">
<!-- Generated by graphviz version 2.38.0 (20140413.2041)
 -->
<!-- Title: hh::lerp Pages: 1 -->
<svg width="209pt" height="88pt"
 viewBox="0.00 0.00 209.00 88.00" xmlns="http://www.w3.org/2000/svg" xmlns:xlink="http://www.w3.org/1999/xlink">
<g id="graph0" class="graph" transform="scale(1 1) rotate(0) translate(4 84)">
<title>hh::lerp</title>
<polygon fill="white" stroke="none" points="-4,4 -4,-84 205,-84 205,4 -4,4"/>
<!-- Node1 -->
<g id="node1" class="node"><title>Node1</title>
<g id="a_node1"><a xlink:title=" ">
<polygon fill="#bfbfbf" stroke="black" points="152,-30 152,-49 201,-49 201,-30 152,-30"/>
<text text-anchor="middle" x="176.5" y="-37" font-family="Helvetica,sans-Serif" font-size="10.00">hh::lerp</text>
</a>
</g>
</g>
<!-- Node2 -->
<g id="node2" class="node"><title>Node2</title>
<g id="a_node2"><a xlink:href="../../de/d92/class__3_d_m_1_1_animated_model.html#a40ae934da5e2a122ada60e840c6e5618" target="_top" xlink:title=" ">
<polygon fill="white" stroke="black" points="0,-49.5 0,-79.5 116,-79.5 116,-49.5 0,-49.5"/>
<text text-anchor="start" x="8" y="-67.5" font-family="Helvetica,sans-Serif" font-size="10.00">_3DM::AnimatedModel</text>
<text text-anchor="middle" x="58" y="-56.5" font-family="Helvetica,sans-Serif" font-size="10.00">::blendBoneTree</text>
</a>
</g>
</g>
<!-- Node1&#45;&gt;Node2 -->
<g id="edge1" class="edge"><title>Node1&#45;&gt;Node2</title>
<path fill="none" stroke="midnightblue" d="M142.139,-46.659C134.03,-48.3991 125.129,-50.3093 116.258,-52.2129"/>
<polygon fill="midnightblue" stroke="midnightblue" points="142.881,-50.0795 151.924,-44.5591 141.413,-43.2353 142.881,-50.0795"/>
</g>
<!-- Node3 -->
<g id="node3" class="node"><title>Node3</title>
<g id="a_node3"><a xlink:href="../../de/d92/class__3_d_m_1_1_animated_model.html#a97c67d019f8ad48f816065aa424c28f6" target="_top" xlink:title=" ">
<polygon fill="white" stroke="black" points="0,-0.5 0,-30.5 116,-30.5 116,-0.5 0,-0.5"/>
<text text-anchor="start" x="8" y="-18.5" font-family="Helvetica,sans-Serif" font-size="10.00">_3DM::AnimatedModel</text>
<text text-anchor="middle" x="58" y="-7.5" font-family="Helvetica,sans-Serif" font-size="10.00">::updateBoneTree</text>
</a>
</g>
</g>
<!-- Node1&#45;&gt;Node3 -->
<g id="edge2" class="edge"><title>Node1&#45;&gt;Node3</title>
<path fill="none" stroke="midnightblue" d="M141.868,-32.5716C133.832,-30.9161 125.03,-29.1028 116.258,-27.2957"/>
<polygon fill="midnightblue" stroke="midnightblue" points="141.424,-36.0535 151.924,-34.6432 142.836,-29.1974 141.424,-36.0535"/>
</g>
</g>
</svg>
