<?xml version="1.0" encoding="UTF-8" standalone="no"?>
<!DOCTYPE svg PUBLIC "-//W3C//DTD SVG 1.1//EN"
 "http://www.w3.org/Graphics/SVG/1.1/DTD/svg11.dtd">
<!-- Generated by graphviz version 2.38.0 (20140413.2041)
 -->
<!-- Title: CameraSystem::initializeCamera Pages: 1 -->
<svg width="679pt" height="88pt"
 viewBox="0.00 0.00 679.00 88.00" xmlns="http://www.w3.org/2000/svg" xmlns:xlink="http://www.w3.org/1999/xlink">
<g id="graph0" class="graph" transform="scale(1 1) rotate(0) translate(4 84)">
<title>CameraSystem::initializeCamera</title>
<polygon fill="white" stroke="none" points="-4,4 -4,-84 675,-84 675,4 -4,4"/>
<!-- Node1 -->
<g id="node1" class="node"><title>Node1</title>
<g id="a_node1"><a xlink:title=" ">
<polygon fill="#bfbfbf" stroke="black" points="0,-25.5 0,-55.5 125,-55.5 125,-25.5 0,-25.5"/>
<text text-anchor="start" x="8" y="-43.5" font-family="Helvetica,sans-Serif" font-size="10.00">CameraSystem::initialize</text>
<text text-anchor="middle" x="62.5" y="-32.5" font-family="Helvetica,sans-Serif" font-size="10.00">Camera</text>
</a>
</g>
</g>
<!-- Node2 -->
<g id="node2" class="node"><title>Node2</title>
<g id="a_node2"><a xlink:href="../../d4/df8/class_camera_system.html#a47d9e3f5277b873769028e15ccd4aa43" target="_top" xlink:title=" ">
<polygon fill="white" stroke="black" points="161,-31 161,-50 314,-50 314,-31 161,-31"/>
<text text-anchor="middle" x="237.5" y="-38" font-family="Helvetica,sans-Serif" font-size="10.00">CameraSystem::refreshCamera</text>
</a>
</g>
</g>
<!-- Node1&#45;&gt;Node2 -->
<g id="edge1" class="edge"><title>Node1&#45;&gt;Node2</title>
<path fill="none" stroke="midnightblue" d="M125.468,-40.5C133.602,-40.5 142.051,-40.5 150.494,-40.5"/>
<polygon fill="midnightblue" stroke="midnightblue" points="150.767,-44.0001 160.767,-40.5 150.767,-37.0001 150.767,-44.0001"/>
</g>
<!-- Node3 -->
<g id="node3" class="node"><title>Node3</title>
<g id="a_node3"><a xlink:href="../../d4/d58/namespace_game_info.html#a344c7e16ac06ee1f8458a249aac36e8e" target="_top" xlink:title=" ">
<polygon fill="white" stroke="black" points="350,-52 350,-71 490,-71 490,-52 350,-52"/>
<text text-anchor="middle" x="420" y="-59" font-family="Helvetica,sans-Serif" font-size="10.00">GameInfo::getWindowHeight</text>
</a>
</g>
</g>
<!-- Node2&#45;&gt;Node3 -->
<g id="edge2" class="edge"><title>Node2&#45;&gt;Node3</title>
<path fill="none" stroke="midnightblue" d="M314.002,-49.2842C322.543,-50.2778 331.264,-51.2925 339.85,-52.2914"/>
<polygon fill="midnightblue" stroke="midnightblue" points="339.51,-55.7753 349.847,-53.4545 340.319,-48.8222 339.51,-55.7753"/>
</g>
<!-- Node5 -->
<g id="node5" class="node"><title>Node5</title>
<g id="a_node5"><a xlink:href="../../d4/d58/namespace_game_info.html#a7cf2306eb3025a60a9e2da52eefba71e" target="_top" xlink:title=" ">
<polygon fill="white" stroke="black" points="351.5,-11 351.5,-30 488.5,-30 488.5,-11 351.5,-11"/>
<text text-anchor="middle" x="420" y="-18" font-family="Helvetica,sans-Serif" font-size="10.00">GameInfo::getWindowWidth</text>
</a>
</g>
</g>
<!-- Node2&#45;&gt;Node5 -->
<g id="edge4" class="edge"><title>Node2&#45;&gt;Node5</title>
<path fill="none" stroke="midnightblue" d="M314.002,-32.1341C322.987,-31.1386 332.171,-30.1209 341.187,-29.1219"/>
<polygon fill="midnightblue" stroke="midnightblue" points="341.721,-32.5843 351.275,-28.0042 340.95,-25.6268 341.721,-32.5843"/>
</g>
<!-- Node4 -->
<g id="node4" class="node"><title>Node4</title>
<g id="a_node4"><a xlink:href="../../de/d6b/class_application.html#a0398d40c89d52bb8d6ac6ac466c5d30c" target="_top" xlink:title=" ">
<polygon fill="white" stroke="black" points="526,-49.5 526,-79.5 671,-79.5 671,-49.5 526,-49.5"/>
<text text-anchor="start" x="534" y="-67.5" font-family="Helvetica,sans-Serif" font-size="10.00">Application::getGameWindow</text>
<text text-anchor="middle" x="598.5" y="-56.5" font-family="Helvetica,sans-Serif" font-size="10.00">Height</text>
</a>
</g>
</g>
<!-- Node3&#45;&gt;Node4 -->
<g id="edge3" class="edge"><title>Node3&#45;&gt;Node4</title>
<path fill="none" stroke="midnightblue" d="M490.251,-62.6771C498.559,-62.8183 507.103,-62.9635 515.568,-63.1074"/>
<polygon fill="midnightblue" stroke="midnightblue" points="515.777,-66.6113 525.835,-63.2819 515.896,-59.6124 515.777,-66.6113"/>
</g>
<!-- Node6 -->
<g id="node6" class="node"><title>Node6</title>
<g id="a_node6"><a xlink:href="../../de/d6b/class_application.html#aad8864ec1fa58ee23db7b111876d09a5" target="_top" xlink:title=" ">
<polygon fill="white" stroke="black" points="526,-0.5 526,-30.5 671,-30.5 671,-0.5 526,-0.5"/>
<text text-anchor="start" x="534" y="-18.5" font-family="Helvetica,sans-Serif" font-size="10.00">Application::getGameWindow</text>
<text text-anchor="middle" x="598.5" y="-7.5" font-family="Helvetica,sans-Serif" font-size="10.00">Width</text>
</a>
</g>
</g>
<!-- Node5&#45;&gt;Node6 -->
<g id="edge5" class="edge"><title>Node5&#45;&gt;Node6</title>
<path fill="none" stroke="midnightblue" d="M488.735,-18.5812C497.564,-18.3311 506.683,-18.0727 515.711,-17.817"/>
<polygon fill="midnightblue" stroke="midnightblue" points="515.949,-21.3117 525.846,-17.5299 515.751,-14.3145 515.949,-21.3117"/>
</g>
</g>
</svg>
