<?xml version="1.0" encoding="UTF-8" standalone="no"?>
<!DOCTYPE svg PUBLIC "-//W3C//DTD SVG 1.1//EN"
 "http://www.w3.org/Graphics/SVG/1.1/DTD/svg11.dtd">
<!-- Generated by graphviz version 2.38.0 (20140413.2041)
 -->
<!-- Title: CameraSystem::refreshCamera Pages: 1 -->
<svg width="1010pt" height="88pt"
 viewBox="0.00 0.00 1010.00 88.00" xmlns="http://www.w3.org/2000/svg" xmlns:xlink="http://www.w3.org/1999/xlink">
<g id="graph0" class="graph" transform="scale(1 1) rotate(0) translate(4 84)">
<title>CameraSystem::refreshCamera</title>
<polygon fill="white" stroke="none" points="-4,4 -4,-84 1006,-84 1006,4 -4,4"/>
<!-- Node1 -->
<g id="node1" class="node"><title>Node1</title>
<g id="a_node1"><a xlink:title=" ">
<polygon fill="#bfbfbf" stroke="black" points="849,-30 849,-49 1002,-49 1002,-30 849,-30"/>
<text text-anchor="middle" x="925.5" y="-37" font-family="Helvetica,sans-Serif" font-size="10.00">CameraSystem::refreshCamera</text>
</a>
</g>
</g>
<!-- Node2 -->
<g id="node2" class="node"><title>Node2</title>
<g id="a_node2"><a xlink:href="../../d3/de8/class_fixed_updating_system.html#a8f07c76b37a898f91221740f42c72598" target="_top" xlink:title=" ">
<polygon fill="white" stroke="black" points="682,-49.5 682,-79.5 813,-79.5 813,-49.5 682,-49.5"/>
<text text-anchor="start" x="690" y="-67.5" font-family="Helvetica,sans-Serif" font-size="10.00">FixedUpdatingSystem</text>
<text text-anchor="middle" x="747.5" y="-56.5" font-family="Helvetica,sans-Serif" font-size="10.00">::handleBackEndMessage</text>
</a>
</g>
</g>
<!-- Node1&#45;&gt;Node2 -->
<g id="edge1" class="edge"><title>Node1&#45;&gt;Node2</title>
<path fill="none" stroke="midnightblue" d="M847.451,-50.4445C835.964,-52.0762 824.224,-53.7438 813.031,-55.3337"/>
<polygon fill="midnightblue" stroke="midnightblue" points="848.052,-53.8944 857.46,-49.0227 847.067,-46.964 848.052,-53.8944"/>
</g>
<!-- Node8 -->
<g id="node8" class="node"><title>Node8</title>
<g id="a_node8"><a xlink:href="../../d4/df8/class_camera_system.html#a4a7557f88f628a55314d3529519a28aa" target="_top" xlink:title=" ">
<polygon fill="white" stroke="black" points="685,-0.5 685,-30.5 810,-30.5 810,-0.5 685,-0.5"/>
<text text-anchor="start" x="693" y="-18.5" font-family="Helvetica,sans-Serif" font-size="10.00">CameraSystem::initialize</text>
<text text-anchor="middle" x="747.5" y="-7.5" font-family="Helvetica,sans-Serif" font-size="10.00">Camera</text>
</a>
</g>
</g>
<!-- Node1&#45;&gt;Node8 -->
<g id="edge7" class="edge"><title>Node1&#45;&gt;Node8</title>
<path fill="none" stroke="midnightblue" d="M844.618,-28.607C833.082,-27.034 821.359,-25.4353 810.25,-23.9204"/>
<polygon fill="midnightblue" stroke="midnightblue" points="844.306,-32.0968 854.687,-29.9801 845.252,-25.161 844.306,-32.0968"/>
</g>
<!-- Node3 -->
<g id="node3" class="node"><title>Node3</title>
<g id="a_node3"><a xlink:href="../../dd/d1f/class_game.html#a5eb682ebf3aa9ac5b2d6d63ade9ddcc0" target="_top" xlink:title=" ">
<polygon fill="white" stroke="black" points="488,-53 488,-72 646,-72 646,-53 488,-53"/>
<text text-anchor="middle" x="567" y="-60" font-family="Helvetica,sans-Serif" font-size="10.00">Game::readBackendEventQueue</text>
</a>
</g>
</g>
<!-- Node2&#45;&gt;Node3 -->
<g id="edge2" class="edge"><title>Node2&#45;&gt;Node3</title>
<path fill="none" stroke="midnightblue" d="M671.64,-63.6612C663.217,-63.5669 654.619,-63.4705 646.157,-63.3757"/>
<polygon fill="midnightblue" stroke="midnightblue" points="671.766,-67.1628 681.805,-63.7751 671.845,-60.1632 671.766,-67.1628"/>
</g>
<!-- Node4 -->
<g id="node4" class="node"><title>Node4</title>
<g id="a_node4"><a xlink:href="../../dd/d1f/class_game.html#a157e87f9dc147a5842ee6bdc06c95c17" target="_top" xlink:title=" ">
<polygon fill="white" stroke="black" points="352,-46 352,-65 452,-65 452,-46 352,-46"/>
<text text-anchor="middle" x="402" y="-53" font-family="Helvetica,sans-Serif" font-size="10.00">Game::fixedUpdate</text>
</a>
</g>
</g>
<!-- Node3&#45;&gt;Node4 -->
<g id="edge3" class="edge"><title>Node3&#45;&gt;Node4</title>
<path fill="none" stroke="midnightblue" d="M477.639,-58.7054C468.969,-58.333 460.403,-57.9652 452.337,-57.6188"/>
<polygon fill="midnightblue" stroke="midnightblue" points="477.701,-62.2111 487.842,-59.1435 478.001,-55.2176 477.701,-62.2111"/>
</g>
<!-- Node5 -->
<g id="node5" class="node"><title>Node5</title>
<g id="a_node5"><a xlink:href="../../de/d6b/class_application.html#a95c827cb5cf08bd0c3cc7b07ed4b4249" target="_top" xlink:title=" ">
<polygon fill="white" stroke="black" points="194,-46 194,-65 316,-65 316,-46 194,-46"/>
<text text-anchor="middle" x="255" y="-53" font-family="Helvetica,sans-Serif" font-size="10.00">Application::fixedUpdate</text>
</a>
</g>
</g>
<!-- Node4&#45;&gt;Node5 -->
<g id="edge4" class="edge"><title>Node4&#45;&gt;Node5</title>
<path fill="none" stroke="midnightblue" d="M341.747,-55.5C333.287,-55.5 324.578,-55.5 316.102,-55.5"/>
<polygon fill="midnightblue" stroke="midnightblue" points="341.91,-59.0001 351.91,-55.5 341.91,-52.0001 341.91,-59.0001"/>
</g>
<!-- Node6 -->
<g id="node6" class="node"><title>Node6</title>
<g id="a_node6"><a xlink:href="../../de/d6b/class_application.html#a68965449404743bf1add056784d6cf81" target="_top" xlink:title=" ">
<polygon fill="white" stroke="black" points="74,-27 74,-46 158,-46 158,-27 74,-27"/>
<text text-anchor="middle" x="116" y="-34" font-family="Helvetica,sans-Serif" font-size="10.00">Application::run</text>
</a>
</g>
</g>
<!-- Node5&#45;&gt;Node6 -->
<g id="edge5" class="edge"><title>Node5&#45;&gt;Node6</title>
<path fill="none" stroke="midnightblue" d="M183.954,-45.7855C175.121,-44.5605 166.322,-43.3402 158.145,-42.2063"/>
<polygon fill="midnightblue" stroke="midnightblue" points="183.524,-49.2593 193.91,-47.1663 184.485,-42.3257 183.524,-49.2593"/>
</g>
<!-- Node7 -->
<g id="node7" class="node"><title>Node7</title>
<g id="a_node7"><a xlink:href="../../d5/d12/_main_8cpp.html#a0ddf1224851353fc92bfbff6f499fa97" target="_top" xlink:title=" ">
<polygon fill="white" stroke="black" points="0,-27 0,-46 38,-46 38,-27 0,-27"/>
<text text-anchor="middle" x="19" y="-34" font-family="Helvetica,sans-Serif" font-size="10.00">main</text>
</a>
</g>
</g>
<!-- Node6&#45;&gt;Node7 -->
<g id="edge6" class="edge"><title>Node6&#45;&gt;Node7</title>
<path fill="none" stroke="midnightblue" d="M63.6206,-36.5C54.5384,-36.5 45.6466,-36.5 38.2853,-36.5"/>
<polygon fill="midnightblue" stroke="midnightblue" points="63.8842,-40.0001 73.8841,-36.5 63.8841,-33.0001 63.8842,-40.0001"/>
</g>
<!-- Node9 -->
<g id="node9" class="node"><title>Node9</title>
<g id="a_node9"><a xlink:href="../../d3/de8/class_fixed_updating_system.html#ae6dd11a60942e140a62f8358bb69d4ba" target="_top" xlink:title=" ">
<polygon fill="white" stroke="black" points="510.5,-2.5 510.5,-32.5 623.5,-32.5 623.5,-2.5 510.5,-2.5"/>
<text text-anchor="start" x="518.5" y="-20.5" font-family="Helvetica,sans-Serif" font-size="10.00">FixedUpdatingSystem</text>
<text text-anchor="middle" x="567" y="-9.5" font-family="Helvetica,sans-Serif" font-size="10.00">::initialize</text>
</a>
</g>
</g>
<!-- Node8&#45;&gt;Node9 -->
<g id="edge8" class="edge"><title>Node8&#45;&gt;Node9</title>
<path fill="none" stroke="midnightblue" d="M674.428,-16.3075C657.524,-16.4969 639.765,-16.6959 623.703,-16.8759"/>
<polygon fill="midnightblue" stroke="midnightblue" points="674.86,-19.803 684.82,-16.1911 674.782,-12.8034 674.86,-19.803"/>
</g>
<!-- Node9&#45;&gt;Node4 -->
<g id="edge9" class="edge"><title>Node9&#45;&gt;Node4</title>
<path fill="none" stroke="midnightblue" d="M500.51,-32.7676C481.416,-37.219 461.101,-41.955 443.984,-45.9455"/>
<polygon fill="midnightblue" stroke="midnightblue" points="501.416,-36.1502 510.361,-30.4712 499.827,-29.333 501.416,-36.1502"/>
</g>
<!-- Node10 -->
<g id="node10" class="node"><title>Node10</title>
<g id="a_node10"><a xlink:href="../../dd/d1f/class_game.html#a8986a201a654418cefe34ec28af1a22c" target="_top" xlink:title=" ">
<polygon fill="white" stroke="black" points="360,-8 360,-27 444,-27 444,-8 360,-8"/>
<text text-anchor="middle" x="402" y="-15" font-family="Helvetica,sans-Serif" font-size="10.00">Game::initialize</text>
</a>
</g>
</g>
<!-- Node9&#45;&gt;Node10 -->
<g id="edge10" class="edge"><title>Node9&#45;&gt;Node10</title>
<path fill="none" stroke="midnightblue" d="M500.291,-17.5C481.355,-17.5 461.237,-17.5 444.24,-17.5"/>
<polygon fill="midnightblue" stroke="midnightblue" points="500.361,-21.0001 510.361,-17.5 500.361,-14.0001 500.361,-21.0001"/>
</g>
<!-- Node11 -->
<g id="node11" class="node"><title>Node11</title>
<g id="a_node11"><a xlink:href="../../de/d6b/class_application.html#af431bce25717b04a78d4d0940ed6a92c" target="_top" xlink:title=" ">
<polygon fill="white" stroke="black" points="202,-8 202,-27 308,-27 308,-8 202,-8"/>
<text text-anchor="middle" x="255" y="-15" font-family="Helvetica,sans-Serif" font-size="10.00">Application::initialize</text>
</a>
</g>
</g>
<!-- Node10&#45;&gt;Node11 -->
<g id="edge11" class="edge"><title>Node10&#45;&gt;Node11</title>
<path fill="none" stroke="midnightblue" d="M349.76,-17.5C336.263,-17.5 321.688,-17.5 308.143,-17.5"/>
<polygon fill="midnightblue" stroke="midnightblue" points="349.837,-21.0001 359.837,-17.5 349.837,-14.0001 349.837,-21.0001"/>
</g>
<!-- Node11&#45;&gt;Node6 -->
<g id="edge12" class="edge"><title>Node11&#45;&gt;Node6</title>
<path fill="none" stroke="midnightblue" d="M191.581,-26.1567C180.331,-27.7169 168.861,-29.3076 158.396,-30.7589"/>
<polygon fill="midnightblue" stroke="midnightblue" points="192.391,-29.5779 201.815,-24.7373 191.429,-22.6443 192.391,-29.5779"/>
</g>
</g>
</svg>
