<?xml version="1.0" encoding="UTF-8" standalone="no"?>
<!DOCTYPE svg PUBLIC "-//W3C//DTD SVG 1.1//EN"
 "http://www.w3.org/Graphics/SVG/1.1/DTD/svg11.dtd">
<!-- Generated by graphviz version 2.38.0 (20140413.2041)
 -->
<!-- Title: DefaultParticleSystem::renderParticles Pages: 1 -->
<svg width="466pt" height="180pt"
 viewBox="0.00 0.00 466.00 180.00" xmlns="http://www.w3.org/2000/svg" xmlns:xlink="http://www.w3.org/1999/xlink">
<g id="graph0" class="graph" transform="scale(1 1) rotate(0) translate(4 176)">
<title>DefaultParticleSystem::renderParticles</title>
<polygon fill="white" stroke="none" points="-4,4 -4,-176 462,-176 462,4 -4,4"/>
<!-- Node1 -->
<g id="node1" class="node"><title>Node1</title>
<g id="a_node1"><a xlink:title=" ">
<polygon fill="#bfbfbf" stroke="black" points="0,-71 0,-101 113,-101 113,-71 0,-71"/>
<text text-anchor="start" x="8" y="-89" font-family="Helvetica,sans-Serif" font-size="10.00">DefaultParticleSystem</text>
<text text-anchor="middle" x="56.5" y="-78" font-family="Helvetica,sans-Serif" font-size="10.00">::renderParticles</text>
</a>
</g>
</g>
<!-- Node2 -->
<g id="node2" class="node"><title>Node2</title>
<g id="a_node2"><a xlink:href="../../d0/d67/class_particles.html#a157f6a74b53ef15e2bd063d594d194f0" target="_top" xlink:title=" ">
<polygon fill="white" stroke="black" points="162,-152.5 162,-171.5 278,-171.5 278,-152.5 162,-152.5"/>
<text text-anchor="middle" x="220" y="-159.5" font-family="Helvetica,sans-Serif" font-size="10.00">Particles::areVitalsNull</text>
</a>
</g>
</g>
<!-- Node1&#45;&gt;Node2 -->
<g id="edge1" class="edge"><title>Node1&#45;&gt;Node2</title>
<path fill="none" stroke="midnightblue" d="M77.9772,-101.202C95.9146,-113.905 123.094,-131.707 149,-143 154.472,-145.385 160.318,-147.539 166.212,-149.465"/>
<polygon fill="midnightblue" stroke="midnightblue" points="165.532,-152.917 176.118,-152.491 167.577,-146.222 165.532,-152.917"/>
</g>
<!-- Node3 -->
<g id="node3" class="node"><title>Node3</title>
<g id="a_node3"><a xlink:href="../../d1/d51/class_shader.html#a240b7ecb19883fa340489840733eae6d" target="_top" xlink:title=" ">
<polygon fill="white" stroke="black" points="163.5,-114.5 163.5,-133.5 276.5,-133.5 276.5,-114.5 163.5,-114.5"/>
<text text-anchor="middle" x="220" y="-121.5" font-family="Helvetica,sans-Serif" font-size="10.00">Shader::getProgramID</text>
</a>
</g>
</g>
<!-- Node1&#45;&gt;Node3 -->
<g id="edge2" class="edge"><title>Node1&#45;&gt;Node3</title>
<path fill="none" stroke="midnightblue" d="M113.079,-99.0774C131.08,-103.313 150.934,-107.985 168.542,-112.127"/>
<polygon fill="midnightblue" stroke="midnightblue" points="168.082,-115.615 178.618,-114.498 169.685,-108.801 168.082,-115.615"/>
</g>
<!-- Node4 -->
<g id="node4" class="node"><title>Node4</title>
<g id="a_node4"><a xlink:href="../../d0/d67/class_particles.html#adc1860aaf7be7e28ac03b75b28dd9815" target="_top" xlink:title=" ">
<polygon fill="white" stroke="black" points="166.5,-76.5 166.5,-95.5 273.5,-95.5 273.5,-76.5 166.5,-76.5"/>
<text text-anchor="middle" x="220" y="-83.5" font-family="Helvetica,sans-Serif" font-size="10.00">Particles::getTexture</text>
</a>
</g>
</g>
<!-- Node1&#45;&gt;Node4 -->
<g id="edge3" class="edge"><title>Node1&#45;&gt;Node4</title>
<path fill="none" stroke="midnightblue" d="M113.079,-86C126.956,-86 141.934,-86 156.136,-86"/>
<polygon fill="midnightblue" stroke="midnightblue" points="156.313,-89.5001 166.313,-86 156.313,-82.5001 156.313,-89.5001"/>
</g>
<!-- Node5 -->
<g id="node5" class="node"><title>Node5</title>
<g id="a_node5"><a xlink:href="../../d2/d7f/class_texture.html#a922a73acbaee522dd96d971b630da0fa" target="_top" xlink:title=" ">
<polygon fill="white" stroke="black" points="159.5,-38.5 159.5,-57.5 280.5,-57.5 280.5,-38.5 159.5,-38.5"/>
<text text-anchor="middle" x="220" y="-45.5" font-family="Helvetica,sans-Serif" font-size="10.00">Texture::getTextureData</text>
</a>
</g>
</g>
<!-- Node1&#45;&gt;Node5 -->
<g id="edge4" class="edge"><title>Node1&#45;&gt;Node5</title>
<path fill="none" stroke="midnightblue" d="M113.079,-72.9226C131.08,-68.6872 150.934,-64.0155 168.542,-59.8726"/>
<polygon fill="midnightblue" stroke="midnightblue" points="169.685,-63.1991 178.618,-57.5017 168.082,-56.3852 169.685,-63.1991"/>
</g>
<!-- Node6 -->
<g id="node6" class="node"><title>Node6</title>
<g id="a_node6"><a xlink:href="../../d7/da2/namespace_shaders.html#aaa649eb98b860170946f582b8e93c12d" target="_top" xlink:title=" ">
<polygon fill="white" stroke="black" points="149,-0.5 149,-19.5 291,-19.5 291,-0.5 149,-0.5"/>
<text text-anchor="middle" x="220" y="-7.5" font-family="Helvetica,sans-Serif" font-size="10.00">Shaders::getUniformLocation</text>
</a>
</g>
</g>
<!-- Node1&#45;&gt;Node6 -->
<g id="edge5" class="edge"><title>Node1&#45;&gt;Node6</title>
<path fill="none" stroke="midnightblue" d="M77.9772,-70.7984C95.9146,-58.095 123.094,-40.293 149,-29 154.472,-26.6145 160.318,-24.461 166.212,-22.5353"/>
<polygon fill="midnightblue" stroke="midnightblue" points="167.577,-25.778 176.118,-19.5089 165.532,-19.0835 167.577,-25.778"/>
</g>
<!-- Node7 -->
<g id="node7" class="node"><title>Node7</title>
<g id="a_node7"><a xlink:href="../../d7/da2/namespace_shaders.html#a25a80e81a8051ed31ecab4ed167b0be8" target="_top" xlink:title=" ">
<polygon fill="white" stroke="black" points="327,-0.5 327,-19.5 458,-19.5 458,-0.5 327,-0.5"/>
<text text-anchor="middle" x="392.5" y="-7.5" font-family="Helvetica,sans-Serif" font-size="10.00">Shaders::getUniformName</text>
</a>
</g>
</g>
<!-- Node6&#45;&gt;Node7 -->
<g id="edge6" class="edge"><title>Node6&#45;&gt;Node7</title>
<path fill="none" stroke="midnightblue" d="M291.333,-10C299.681,-10 308.225,-10 316.633,-10"/>
<polygon fill="midnightblue" stroke="midnightblue" points="316.798,-13.5001 326.798,-10 316.798,-6.5001 316.798,-13.5001"/>
</g>
</g>
</svg>
