<?xml version="1.0" encoding="UTF-8" standalone="no"?>
<!DOCTYPE svg PUBLIC "-//W3C//DTD SVG 1.1//EN"
 "http://www.w3.org/Graphics/SVG/1.1/DTD/svg11.dtd">
<!-- Generated by graphviz version 2.38.0 (20140413.2041)
 -->
<!-- Title: DefaultParticleSystem::fixedUpdateParticles Pages: 1 -->
<svg width="427pt" height="78pt"
 viewBox="0.00 0.00 427.00 77.50" xmlns="http://www.w3.org/2000/svg" xmlns:xlink="http://www.w3.org/1999/xlink">
<g id="graph0" class="graph" transform="scale(1 1) rotate(0) translate(4 73.5)">
<title>DefaultParticleSystem::fixedUpdateParticles</title>
<polygon fill="white" stroke="none" points="-4,4 -4,-73.5 423,-73.5 423,4 -4,4"/>
<!-- Node1 -->
<g id="node1" class="node"><title>Node1</title>
<g id="a_node1"><a xlink:title=" ">
<polygon fill="#bfbfbf" stroke="black" points="0,-17 0,-47 113,-47 113,-17 0,-17"/>
<text text-anchor="start" x="8" y="-35" font-family="Helvetica,sans-Serif" font-size="10.00">DefaultParticleSystem</text>
<text text-anchor="middle" x="56.5" y="-24" font-family="Helvetica,sans-Serif" font-size="10.00">::fixedUpdateParticles</text>
</a>
</g>
</g>
<!-- Node2 -->
<g id="node2" class="node"><title>Node2</title>
<g id="a_node2"><a xlink:href="../../df/d86/class_default_particle_system.html#a98735c289a8e3ca8f681b897a83f81bd" target="_top" xlink:title=" ">
<polygon fill="white" stroke="black" points="149,-39 149,-69 262,-69 262,-39 149,-39"/>
<text text-anchor="start" x="157" y="-57" font-family="Helvetica,sans-Serif" font-size="10.00">DefaultParticleSystem</text>
<text text-anchor="middle" x="205.5" y="-46" font-family="Helvetica,sans-Serif" font-size="10.00">::setParticleToDefault</text>
</a>
</g>
</g>
<!-- Node1&#45;&gt;Node2 -->
<g id="edge1" class="edge"><title>Node1&#45;&gt;Node2</title>
<path fill="none" stroke="midnightblue" d="M113.074,-40.3173C121.489,-41.5766 130.238,-42.886 138.842,-44.1737"/>
<polygon fill="midnightblue" stroke="midnightblue" points="138.439,-47.6522 148.847,-45.671 139.475,-40.7293 138.439,-47.6522"/>
</g>
<!-- Node4 -->
<g id="node4" class="node"><title>Node4</title>
<g id="a_node4"><a xlink:href="../../d7/dd1/namespacehh.html#a2e3a10a982e697caaecbe192184d35c1" target="_top" xlink:title=" ">
<polygon fill="white" stroke="black" points="170.5,-0.5 170.5,-19.5 240.5,-19.5 240.5,-0.5 170.5,-0.5"/>
<text text-anchor="middle" x="205.5" y="-7.5" font-family="Helvetica,sans-Serif" font-size="10.00">hh::swapVal</text>
</a>
</g>
</g>
<!-- Node1&#45;&gt;Node4 -->
<g id="edge3" class="edge"><title>Node1&#45;&gt;Node4</title>
<path fill="none" stroke="midnightblue" d="M113.074,-23.6827C128.665,-21.3495 145.401,-18.8448 160.237,-16.6243"/>
<polygon fill="midnightblue" stroke="midnightblue" points="160.797,-20.0797 170.168,-15.1381 159.76,-13.1568 160.797,-20.0797"/>
</g>
<!-- Node3 -->
<g id="node3" class="node"><title>Node3</title>
<g id="a_node3"><a xlink:href="../../d4/d58/namespace_game_info.html#aa6186a79a90a3fcd2556c4282b20a077" target="_top" xlink:title=" ">
<polygon fill="white" stroke="black" points="298,-44.5 298,-63.5 419,-63.5 419,-44.5 298,-44.5"/>
<text text-anchor="middle" x="358.5" y="-51.5" font-family="Helvetica,sans-Serif" font-size="10.00">GameInfo::getDeltaTime</text>
</a>
</g>
</g>
<!-- Node2&#45;&gt;Node3 -->
<g id="edge2" class="edge"><title>Node2&#45;&gt;Node3</title>
<path fill="none" stroke="midnightblue" d="M262.298,-54C270.54,-54 279.119,-54 287.604,-54"/>
<polygon fill="midnightblue" stroke="midnightblue" points="287.877,-57.5001 297.877,-54 287.877,-50.5001 287.877,-57.5001"/>
</g>
</g>
</svg>
