<?xml version="1.0" encoding="UTF-8" standalone="no"?>
<!DOCTYPE svg PUBLIC "-//W3C//DTD SVG 1.1//EN"
 "http://www.w3.org/Graphics/SVG/1.1/DTD/svg11.dtd">
<!-- Generated by graphviz version 2.38.0 (20140413.2041)
 -->
<!-- Title: GuiButton::update Pages: 1 -->
<svg width="633pt" height="165pt"
 viewBox="0.00 0.00 633.00 164.50" xmlns="http://www.w3.org/2000/svg" xmlns:xlink="http://www.w3.org/1999/xlink">
<g id="graph0" class="graph" transform="scale(1 1) rotate(0) translate(4 160.5)">
<title>GuiButton::update</title>
<polygon fill="white" stroke="none" points="-4,4 -4,-160.5 629,-160.5 629,4 -4,4"/>
<!-- Node1 -->
<g id="node1" class="node"><title>Node1</title>
<g id="a_node1"><a xlink:title=" ">
<polygon fill="#bfbfbf" stroke="black" points="0,-77 0,-96 95,-96 95,-77 0,-77"/>
<text text-anchor="middle" x="47.5" y="-84" font-family="Helvetica,sans-Serif" font-size="10.00">GuiButton::update</text>
</a>
</g>
</g>
<!-- Node2 -->
<g id="node2" class="node"><title>Node2</title>
<g id="a_node2"><a xlink:href="../../d4/d7b/class_input.html#a8e3bbc45ca89de6dc03cd870d0909345" target="_top" xlink:title=" ">
<polygon fill="white" stroke="black" points="142,-137 142,-156 257,-156 257,-137 142,-137"/>
<text text-anchor="middle" x="199.5" y="-144" font-family="Helvetica,sans-Serif" font-size="10.00">Input::getMouseButton</text>
</a>
</g>
</g>
<!-- Node1&#45;&gt;Node2 -->
<g id="edge1" class="edge"><title>Node1&#45;&gt;Node2</title>
<path fill="none" stroke="midnightblue" d="M65.4587,-96.1015C81.8479,-105.096 107.569,-118.471 131,-127.5 137.039,-129.827 143.48,-132.007 149.896,-134"/>
<polygon fill="midnightblue" stroke="midnightblue" points="149.313,-137.478 159.896,-136.973 151.308,-130.769 149.313,-137.478"/>
</g>
<!-- Node3 -->
<g id="node3" class="node"><title>Node3</title>
<g id="a_node3"><a xlink:href="../../d4/d7b/class_input.html#aa10d2871226e0b497010dfca43fe278b" target="_top" xlink:title=" ">
<polygon fill="white" stroke="black" points="138.5,-99 138.5,-118 260.5,-118 260.5,-99 138.5,-99"/>
<text text-anchor="middle" x="199.5" y="-106" font-family="Helvetica,sans-Serif" font-size="10.00">Input::getMousePosition</text>
</a>
</g>
</g>
<!-- Node1&#45;&gt;Node3 -->
<g id="edge2" class="edge"><title>Node1&#45;&gt;Node3</title>
<path fill="none" stroke="midnightblue" d="M95.1387,-93.3403C105.608,-94.8758 116.942,-96.5382 128.138,-98.1802"/>
<polygon fill="midnightblue" stroke="midnightblue" points="127.95,-101.69 138.352,-99.6783 128.966,-94.7641 127.95,-101.69"/>
</g>
<!-- Node4 -->
<g id="node4" class="node"><title>Node4</title>
<g id="a_node4"><a xlink:href="../../d6/d17/class_gui_button.html#a571aa197ec582b526b5d6e2639bad843" target="_top" xlink:title=" ">
<polygon fill="white" stroke="black" points="131,-49.5 131,-79.5 268,-79.5 268,-49.5 131,-49.5"/>
<text text-anchor="start" x="139" y="-67.5" font-family="Helvetica,sans-Serif" font-size="10.00">GuiButton::mouseCoordsTo</text>
<text text-anchor="middle" x="199.5" y="-56.5" font-family="Helvetica,sans-Serif" font-size="10.00">ScreenCoords</text>
</a>
</g>
</g>
<!-- Node1&#45;&gt;Node4 -->
<g id="edge3" class="edge"><title>Node1&#45;&gt;Node4</title>
<path fill="none" stroke="midnightblue" d="M95.1387,-79.6597C103.387,-78.4499 112.172,-77.1615 121.003,-75.8663"/>
<polygon fill="midnightblue" stroke="midnightblue" points="121.58,-79.3191 130.967,-74.4049 120.564,-72.3932 121.58,-79.3191"/>
</g>
<!-- Node9 -->
<g id="node9" class="node"><title>Node9</title>
<g id="a_node9"><a xlink:href="../../d6/d17/class_gui_button.html#a72312192b57055be324335dd1ed88a3d" target="_top" xlink:title=" ">
<polygon fill="white" stroke="black" points="135.5,-0.5 135.5,-30.5 263.5,-30.5 263.5,-0.5 135.5,-0.5"/>
<text text-anchor="start" x="143.5" y="-18.5" font-family="Helvetica,sans-Serif" font-size="10.00">GuiButton::mouseIsInside</text>
<text text-anchor="middle" x="199.5" y="-7.5" font-family="Helvetica,sans-Serif" font-size="10.00">Button</text>
</a>
</g>
</g>
<!-- Node1&#45;&gt;Node9 -->
<g id="edge8" class="edge"><title>Node1&#45;&gt;Node9</title>
<path fill="none" stroke="midnightblue" d="M63.9412,-76.9444C80.2428,-67.0834 106.871,-51.6151 131,-40.5 135.634,-38.3653 140.507,-36.2756 145.425,-34.2709"/>
<polygon fill="midnightblue" stroke="midnightblue" points="146.872,-37.4621 154.886,-30.5309 144.299,-30.9523 146.872,-37.4621"/>
</g>
<!-- Node5 -->
<g id="node5" class="node"><title>Node5</title>
<g id="a_node5"><a xlink:href="../../d4/d58/namespace_game_info.html#a344c7e16ac06ee1f8458a249aac36e8e" target="_top" xlink:title=" ">
<polygon fill="white" stroke="black" points="304,-75 304,-94 444,-94 444,-75 304,-75"/>
<text text-anchor="middle" x="374" y="-82" font-family="Helvetica,sans-Serif" font-size="10.00">GameInfo::getWindowHeight</text>
</a>
</g>
</g>
<!-- Node4&#45;&gt;Node5 -->
<g id="edge4" class="edge"><title>Node4&#45;&gt;Node5</title>
<path fill="none" stroke="midnightblue" d="M268.181,-72.3471C276.594,-73.3225 285.254,-74.3265 293.82,-75.3197"/>
<polygon fill="midnightblue" stroke="midnightblue" points="293.476,-78.8031 303.812,-76.4782 294.282,-71.8497 293.476,-78.8031"/>
</g>
<!-- Node7 -->
<g id="node7" class="node"><title>Node7</title>
<g id="a_node7"><a xlink:href="../../d4/d58/namespace_game_info.html#a7cf2306eb3025a60a9e2da52eefba71e" target="_top" xlink:title=" ">
<polygon fill="white" stroke="black" points="305.5,-34 305.5,-53 442.5,-53 442.5,-34 305.5,-34"/>
<text text-anchor="middle" x="374" y="-41" font-family="Helvetica,sans-Serif" font-size="10.00">GameInfo::getWindowWidth</text>
</a>
</g>
</g>
<!-- Node4&#45;&gt;Node7 -->
<g id="edge6" class="edge"><title>Node4&#45;&gt;Node7</title>
<path fill="none" stroke="midnightblue" d="M268.181,-56.2605C277.028,-55.1835 286.148,-54.0732 295.146,-52.9779"/>
<polygon fill="midnightblue" stroke="midnightblue" points="295.727,-56.4331 305.231,-51.7502 294.881,-49.4844 295.727,-56.4331"/>
</g>
<!-- Node6 -->
<g id="node6" class="node"><title>Node6</title>
<g id="a_node6"><a xlink:href="../../de/d6b/class_application.html#a0398d40c89d52bb8d6ac6ac466c5d30c" target="_top" xlink:title=" ">
<polygon fill="white" stroke="black" points="480,-72.5 480,-102.5 625,-102.5 625,-72.5 480,-72.5"/>
<text text-anchor="start" x="488" y="-90.5" font-family="Helvetica,sans-Serif" font-size="10.00">Application::getGameWindow</text>
<text text-anchor="middle" x="552.5" y="-79.5" font-family="Helvetica,sans-Serif" font-size="10.00">Height</text>
</a>
</g>
</g>
<!-- Node5&#45;&gt;Node6 -->
<g id="edge5" class="edge"><title>Node5&#45;&gt;Node6</title>
<path fill="none" stroke="midnightblue" d="M444.251,-85.6771C452.559,-85.8183 461.103,-85.9635 469.568,-86.1074"/>
<polygon fill="midnightblue" stroke="midnightblue" points="469.777,-89.6113 479.835,-86.2819 469.896,-82.6124 469.777,-89.6113"/>
</g>
<!-- Node8 -->
<g id="node8" class="node"><title>Node8</title>
<g id="a_node8"><a xlink:href="../../de/d6b/class_application.html#aad8864ec1fa58ee23db7b111876d09a5" target="_top" xlink:title=" ">
<polygon fill="white" stroke="black" points="480,-23.5 480,-53.5 625,-53.5 625,-23.5 480,-23.5"/>
<text text-anchor="start" x="488" y="-41.5" font-family="Helvetica,sans-Serif" font-size="10.00">Application::getGameWindow</text>
<text text-anchor="middle" x="552.5" y="-30.5" font-family="Helvetica,sans-Serif" font-size="10.00">Width</text>
</a>
</g>
</g>
<!-- Node7&#45;&gt;Node8 -->
<g id="edge7" class="edge"><title>Node7&#45;&gt;Node8</title>
<path fill="none" stroke="midnightblue" d="M442.735,-41.5812C451.564,-41.3311 460.683,-41.0727 469.711,-40.817"/>
<polygon fill="midnightblue" stroke="midnightblue" points="469.949,-44.3117 479.846,-40.5299 469.751,-37.3145 469.949,-44.3117"/>
</g>
</g>
</svg>
