<?xml version="1.0" encoding="UTF-8" standalone="no"?>
<!DOCTYPE svg PUBLIC "-//W3C//DTD SVG 1.1//EN"
 "http://www.w3.org/Graphics/SVG/1.1/DTD/svg11.dtd">
<!-- Generated by graphviz version 2.38.0 (20140413.2041)
 -->
<!-- Title: GuiButton::mouseCoordsToScreenCoords Pages: 1 -->
<svg width="502pt" height="88pt"
 viewBox="0.00 0.00 502.00 88.00" xmlns="http://www.w3.org/2000/svg" xmlns:xlink="http://www.w3.org/1999/xlink">
<g id="graph0" class="graph" transform="scale(1 1) rotate(0) translate(4 84)">
<title>GuiButton::mouseCoordsToScreenCoords</title>
<polygon fill="white" stroke="none" points="-4,4 -4,-84 498,-84 498,4 -4,4"/>
<!-- Node1 -->
<g id="node1" class="node"><title>Node1</title>
<g id="a_node1"><a xlink:title=" ">
<polygon fill="#bfbfbf" stroke="black" points="0,-25.5 0,-55.5 137,-55.5 137,-25.5 0,-25.5"/>
<text text-anchor="start" x="8" y="-43.5" font-family="Helvetica,sans-Serif" font-size="10.00">GuiButton::mouseCoordsTo</text>
<text text-anchor="middle" x="68.5" y="-32.5" font-family="Helvetica,sans-Serif" font-size="10.00">ScreenCoords</text>
</a>
</g>
</g>
<!-- Node2 -->
<g id="node2" class="node"><title>Node2</title>
<g id="a_node2"><a xlink:href="../../d4/d58/namespace_game_info.html#a344c7e16ac06ee1f8458a249aac36e8e" target="_top" xlink:title=" ">
<polygon fill="white" stroke="black" points="173,-52 173,-71 313,-71 313,-52 173,-52"/>
<text text-anchor="middle" x="243" y="-59" font-family="Helvetica,sans-Serif" font-size="10.00">GameInfo::getWindowHeight</text>
</a>
</g>
</g>
<!-- Node1&#45;&gt;Node2 -->
<g id="edge1" class="edge"><title>Node1&#45;&gt;Node2</title>
<path fill="none" stroke="midnightblue" d="M137.181,-48.7395C145.594,-49.7636 154.254,-50.8178 162.82,-51.8607"/>
<polygon fill="midnightblue" stroke="midnightblue" points="162.462,-55.3429 172.812,-53.0771 163.308,-48.3942 162.462,-55.3429"/>
</g>
<!-- Node4 -->
<g id="node4" class="node"><title>Node4</title>
<g id="a_node4"><a xlink:href="../../d4/d58/namespace_game_info.html#a7cf2306eb3025a60a9e2da52eefba71e" target="_top" xlink:title=" ">
<polygon fill="white" stroke="black" points="174.5,-11 174.5,-30 311.5,-30 311.5,-11 174.5,-11"/>
<text text-anchor="middle" x="243" y="-18" font-family="Helvetica,sans-Serif" font-size="10.00">GameInfo::getWindowWidth</text>
</a>
</g>
</g>
<!-- Node1&#45;&gt;Node4 -->
<g id="edge3" class="edge"><title>Node1&#45;&gt;Node4</title>
<path fill="none" stroke="midnightblue" d="M137.181,-32.6529C146.028,-31.6272 155.148,-30.5697 164.146,-29.5266"/>
<polygon fill="midnightblue" stroke="midnightblue" points="164.7,-32.9858 174.231,-28.3573 163.894,-26.0324 164.7,-32.9858"/>
</g>
<!-- Node3 -->
<g id="node3" class="node"><title>Node3</title>
<g id="a_node3"><a xlink:href="../../de/d6b/class_application.html#a0398d40c89d52bb8d6ac6ac466c5d30c" target="_top" xlink:title=" ">
<polygon fill="white" stroke="black" points="349,-49.5 349,-79.5 494,-79.5 494,-49.5 349,-49.5"/>
<text text-anchor="start" x="357" y="-67.5" font-family="Helvetica,sans-Serif" font-size="10.00">Application::getGameWindow</text>
<text text-anchor="middle" x="421.5" y="-56.5" font-family="Helvetica,sans-Serif" font-size="10.00">Height</text>
</a>
</g>
</g>
<!-- Node2&#45;&gt;Node3 -->
<g id="edge2" class="edge"><title>Node2&#45;&gt;Node3</title>
<path fill="none" stroke="midnightblue" d="M313.251,-62.6771C321.559,-62.8183 330.103,-62.9635 338.568,-63.1074"/>
<polygon fill="midnightblue" stroke="midnightblue" points="338.777,-66.6113 348.835,-63.2819 338.896,-59.6124 338.777,-66.6113"/>
</g>
<!-- Node5 -->
<g id="node5" class="node"><title>Node5</title>
<g id="a_node5"><a xlink:href="../../de/d6b/class_application.html#aad8864ec1fa58ee23db7b111876d09a5" target="_top" xlink:title=" ">
<polygon fill="white" stroke="black" points="349,-0.5 349,-30.5 494,-30.5 494,-0.5 349,-0.5"/>
<text text-anchor="start" x="357" y="-18.5" font-family="Helvetica,sans-Serif" font-size="10.00">Application::getGameWindow</text>
<text text-anchor="middle" x="421.5" y="-7.5" font-family="Helvetica,sans-Serif" font-size="10.00">Width</text>
</a>
</g>
</g>
<!-- Node4&#45;&gt;Node5 -->
<g id="edge4" class="edge"><title>Node4&#45;&gt;Node5</title>
<path fill="none" stroke="midnightblue" d="M311.735,-18.5812C320.564,-18.3311 329.683,-18.0727 338.711,-17.817"/>
<polygon fill="midnightblue" stroke="midnightblue" points="338.949,-21.3117 348.846,-17.5299 338.751,-14.3145 338.949,-21.3117"/>
</g>
</g>
</svg>
