<?xml version="1.0" encoding="UTF-8" standalone="no"?>
<!DOCTYPE svg PUBLIC "-//W3C//DTD SVG 1.1//EN"
 "http://www.w3.org/Graphics/SVG/1.1/DTD/svg11.dtd">
<!-- Generated by graphviz version 2.38.0 (20140413.2041)
 -->
<!-- Title: SL::writeBytes Pages: 1 -->
<svg width="304pt" height="280pt"
 viewBox="0.00 0.00 304.00 280.00" xmlns="http://www.w3.org/2000/svg" xmlns:xlink="http://www.w3.org/1999/xlink">
<g id="graph0" class="graph" transform="scale(1 1) rotate(0) translate(4 276)">
<title>SL::writeBytes</title>
<polygon fill="white" stroke="none" points="-4,4 -4,-276 300,-276 300,4 -4,4"/>
<!-- Node1 -->
<g id="node1" class="node"><title>Node1</title>
<g id="a_node1"><a xlink:title=" ">
<polygon fill="#bfbfbf" stroke="black" points="216,-120.5 216,-139.5 296,-139.5 296,-120.5 216,-120.5"/>
<text text-anchor="middle" x="256" y="-127.5" font-family="Helvetica,sans-Serif" font-size="10.00">SL::writeBytes</text>
</a>
</g>
</g>
<!-- Node2 -->
<g id="node2" class="node"><title>Node2</title>
<g id="a_node2"><a xlink:href="../../d5/d7a/class__3_d_m_1_1__3_d_m___i_o.html#a041db3b5a78da9c4ba7b0cbc0ea86986" target="_top" xlink:title=" ">
<polygon fill="white" stroke="black" points="0,-252.5 0,-271.5 180,-271.5 180,-252.5 0,-252.5"/>
<text text-anchor="middle" x="90" y="-259.5" font-family="Helvetica,sans-Serif" font-size="10.00">_3DM::_3DM_IO::writeAnimatedMesh</text>
</a>
</g>
</g>
<!-- Node1&#45;&gt;Node2 -->
<g id="edge1" class="edge"><title>Node1&#45;&gt;Node2</title>
<path fill="none" stroke="midnightblue" d="M247.763,-149.09C237.031,-174.682 214.388,-219.596 180,-243 174.384,-246.823 168.143,-249.897 161.646,-252.367"/>
<polygon fill="midnightblue" stroke="midnightblue" points="251.047,-150.303 251.52,-139.719 244.55,-147.698 251.047,-150.303"/>
</g>
<!-- Node3 -->
<g id="node3" class="node"><title>Node3</title>
<g id="a_node3"><a xlink:href="../../d5/d7a/class__3_d_m_1_1__3_d_m___i_o.html#a7d724d607c2d5975789228e3e2e68dbb" target="_top" xlink:title=" ">
<polygon fill="white" stroke="black" points="12,-203 12,-233 168,-233 168,-203 12,-203"/>
<text text-anchor="start" x="20" y="-221" font-family="Helvetica,sans-Serif" font-size="10.00">_3DM::_3DM_IO::writeAnimated</text>
<text text-anchor="middle" x="90" y="-210" font-family="Helvetica,sans-Serif" font-size="10.00">Model</text>
</a>
</g>
</g>
<!-- Node1&#45;&gt;Node3 -->
<g id="edge2" class="edge"><title>Node1&#45;&gt;Node3</title>
<path fill="none" stroke="midnightblue" d="M239.202,-146.799C224.971,-161.009 202.833,-180.931 180,-193 172.764,-196.825 164.878,-200.118 156.889,-202.94"/>
<polygon fill="midnightblue" stroke="midnightblue" points="241.77,-149.18 246.25,-139.579 236.76,-144.29 241.77,-149.18"/>
</g>
<!-- Node4 -->
<g id="node4" class="node"><title>Node4</title>
<g id="a_node4"><a xlink:href="../../d5/d7a/class__3_d_m_1_1__3_d_m___i_o.html#afdfc3a5d522b493dc40ad656f591720a" target="_top" xlink:title=" ">
<polygon fill="white" stroke="black" points="11,-164.5 11,-183.5 169,-183.5 169,-164.5 11,-164.5"/>
<text text-anchor="middle" x="90" y="-171.5" font-family="Helvetica,sans-Serif" font-size="10.00">_3DM::_3DM_IO::writeAnimation</text>
</a>
</g>
</g>
<!-- Node1&#45;&gt;Node4 -->
<g id="edge3" class="edge"><title>Node1&#45;&gt;Node4</title>
<path fill="none" stroke="midnightblue" d="M219.329,-142.793C206.965,-146.986 192.957,-151.469 180,-155 167.348,-158.448 153.544,-161.657 140.666,-164.42"/>
<polygon fill="midnightblue" stroke="midnightblue" points="220.525,-146.083 228.84,-139.517 218.245,-139.464 220.525,-146.083"/>
</g>
<!-- Node5 -->
<g id="node5" class="node"><title>Node5</title>
<g id="a_node5"><a xlink:href="../../d5/d7a/class__3_d_m_1_1__3_d_m___i_o.html#a9be1333cb5376e21d8b89b334eb5cf3b" target="_top" xlink:title=" ">
<polygon fill="white" stroke="black" points="21.5,-115 21.5,-145 158.5,-145 158.5,-115 21.5,-115"/>
<text text-anchor="start" x="29.5" y="-133" font-family="Helvetica,sans-Serif" font-size="10.00">_3DM::_3DM_IO::writeBone</text>
<text text-anchor="middle" x="90" y="-122" font-family="Helvetica,sans-Serif" font-size="10.00">HierarchyToFile</text>
</a>
</g>
</g>
<!-- Node1&#45;&gt;Node5 -->
<g id="edge4" class="edge"><title>Node1&#45;&gt;Node5</title>
<path fill="none" stroke="midnightblue" d="M205.366,-130C190.703,-130 174.396,-130 158.796,-130"/>
<polygon fill="midnightblue" stroke="midnightblue" points="205.718,-133.5 215.718,-130 205.718,-126.5 205.718,-133.5"/>
</g>
<!-- Node6 -->
<g id="node6" class="node"><title>Node6</title>
<g id="a_node6"><a xlink:href="../../d5/d7a/class__3_d_m_1_1__3_d_m___i_o.html#aae67780e49130059cf97e47880844051" target="_top" xlink:title=" ">
<polygon fill="white" stroke="black" points="20.5,-76.5 20.5,-95.5 159.5,-95.5 159.5,-76.5 20.5,-76.5"/>
<text text-anchor="middle" x="90" y="-83.5" font-family="Helvetica,sans-Serif" font-size="10.00">_3DM::_3DM_IO::writeMesh</text>
</a>
</g>
</g>
<!-- Node1&#45;&gt;Node6 -->
<g id="edge5" class="edge"><title>Node1&#45;&gt;Node6</title>
<path fill="none" stroke="midnightblue" d="M217.413,-117.253C205.513,-113.411 192.265,-109.333 180,-106 166.093,-102.22 150.827,-98.6006 136.926,-95.5047"/>
<polygon fill="midnightblue" stroke="midnightblue" points="216.447,-120.619 227.04,-120.402 218.624,-113.966 216.447,-120.619"/>
</g>
<!-- Node7 -->
<g id="node7" class="node"><title>Node7</title>
<g id="a_node7"><a xlink:href="../../d5/d7a/class__3_d_m_1_1__3_d_m___i_o.html#a05b803b5bb72ae137728de0228fe4c41" target="_top" xlink:title=" ">
<polygon fill="white" stroke="black" points="19.5,-38.5 19.5,-57.5 160.5,-57.5 160.5,-38.5 19.5,-38.5"/>
<text text-anchor="middle" x="90" y="-45.5" font-family="Helvetica,sans-Serif" font-size="10.00">_3DM::_3DM_IO::writeModel</text>
</a>
</g>
</g>
<!-- Node1&#45;&gt;Node7 -->
<g id="edge6" class="edge"><title>Node1&#45;&gt;Node7</title>
<path fill="none" stroke="midnightblue" d="M239.387,-112.838C225.273,-98.3966 203.205,-78.338 180,-67 172.05,-63.1158 163.32,-60.0217 154.531,-57.558"/>
<polygon fill="midnightblue" stroke="midnightblue" points="236.944,-115.348 246.366,-120.192 242.021,-110.529 236.944,-115.348"/>
</g>
<!-- Node8 -->
<g id="node8" class="node"><title>Node8</title>
<g id="a_node8"><a xlink:href="../../d5/d7a/class__3_d_m_1_1__3_d_m___i_o.html#ad5cad5f0a3d9cf7af992b9fdfd98fcaf" target="_top" xlink:title=" ">
<polygon fill="white" stroke="black" points="18.5,-0.5 18.5,-19.5 161.5,-19.5 161.5,-0.5 18.5,-0.5"/>
<text text-anchor="middle" x="90" y="-7.5" font-family="Helvetica,sans-Serif" font-size="10.00">_3DM::_3DM_IO::writeVector</text>
</a>
</g>
</g>
<!-- Node1&#45;&gt;Node8 -->
<g id="edge7" class="edge"><title>Node1&#45;&gt;Node8</title>
<path fill="none" stroke="midnightblue" d="M246.379,-111.265C234.723,-88.1352 211.69,-49.3657 180,-29 174.019,-25.1562 167.39,-22.0766 160.527,-19.6114"/>
<polygon fill="midnightblue" stroke="midnightblue" points="243.291,-112.919 250.797,-120.396 249.592,-109.87 243.291,-112.919"/>
</g>
</g>
</svg>
