<?xml version="1.0" encoding="UTF-8" standalone="no"?>
<!DOCTYPE svg PUBLIC "-//W3C//DTD SVG 1.1//EN"
 "http://www.w3.org/Graphics/SVG/1.1/DTD/svg11.dtd">
<!-- Generated by graphviz version 2.38.0 (20140413.2041)
 -->
<!-- Title: SL::isBigEndian Pages: 1 -->
<svg width="773pt" height="78pt"
 viewBox="0.00 0.00 773.00 77.50" xmlns="http://www.w3.org/2000/svg" xmlns:xlink="http://www.w3.org/1999/xlink">
<g id="graph0" class="graph" transform="scale(1 1) rotate(0) translate(4 73.5)">
<title>SL::isBigEndian</title>
<polygon fill="white" stroke="none" points="-4,4 -4,-73.5 769,-73.5 769,4 -4,4"/>
<!-- Node1 -->
<g id="node1" class="node"><title>Node1</title>
<g id="a_node1"><a xlink:title=" ">
<polygon fill="#bfbfbf" stroke="black" points="679,-28 679,-47 765,-47 765,-28 679,-28"/>
<text text-anchor="middle" x="722" y="-35" font-family="Helvetica,sans-Serif" font-size="10.00">SL::isBigEndian</text>
</a>
</g>
</g>
<!-- Node2 -->
<g id="node2" class="node"><title>Node2</title>
<g id="a_node2"><a xlink:href="../../db/d74/class_text_map.html#aefa9200c39ca535748d6c95f66d8eb9f" target="_top" xlink:title=" ">
<polygon fill="white" stroke="black" points="512.5,-50 512.5,-69 618.5,-69 618.5,-50 512.5,-50"/>
<text text-anchor="middle" x="565.5" y="-57" font-family="Helvetica,sans-Serif" font-size="10.00">TextMap::createMap</text>
</a>
</g>
</g>
<!-- Node1&#45;&gt;Node2 -->
<g id="edge1" class="edge"><title>Node1&#45;&gt;Node2</title>
<path fill="none" stroke="midnightblue" d="M668.466,-44.9806C652.365,-47.2733 634.663,-49.794 618.591,-52.0825"/>
<polygon fill="midnightblue" stroke="midnightblue" points="669.375,-48.3865 678.782,-43.5116 668.389,-41.4564 669.375,-48.3865"/>
</g>
<!-- Node7 -->
<g id="node7" class="node"><title>Node7</title>
<g id="a_node7"><a xlink:href="../../d5/d7a/class__3_d_m_1_1__3_d_m___i_o.html#a9edfaa3d4fa600321398271015660bbe" target="_top" xlink:title=" ">
<polygon fill="white" stroke="black" points="488,-0.5 488,-30.5 643,-30.5 643,-0.5 488,-0.5"/>
<text text-anchor="start" x="496" y="-18.5" font-family="Helvetica,sans-Serif" font-size="10.00">_3DM::_3DM_IO::readAnimated</text>
<text text-anchor="middle" x="565.5" y="-7.5" font-family="Helvetica,sans-Serif" font-size="10.00">Model</text>
</a>
</g>
</g>
<!-- Node1&#45;&gt;Node7 -->
<g id="edge6" class="edge"><title>Node1&#45;&gt;Node7</title>
<path fill="none" stroke="midnightblue" d="M668.625,-30.0421C660.403,-28.8713 651.76,-27.6406 643.128,-26.4114"/>
<polygon fill="midnightblue" stroke="midnightblue" points="668.389,-33.5436 678.782,-31.4884 669.375,-26.6135 668.389,-33.5436"/>
</g>
<!-- Node3 -->
<g id="node3" class="node"><title>Node3</title>
<g id="a_node3"><a xlink:href="../../dd/d1f/class_game.html#a8986a201a654418cefe34ec28af1a22c" target="_top" xlink:title=" ">
<polygon fill="white" stroke="black" points="352,-50 352,-69 436,-69 436,-50 352,-50"/>
<text text-anchor="middle" x="394" y="-57" font-family="Helvetica,sans-Serif" font-size="10.00">Game::initialize</text>
</a>
</g>
</g>
<!-- Node2&#45;&gt;Node3 -->
<g id="edge2" class="edge"><title>Node2&#45;&gt;Node3</title>
<path fill="none" stroke="midnightblue" d="M501.993,-59.5C479.987,-59.5 455.826,-59.5 436.041,-59.5"/>
<polygon fill="midnightblue" stroke="midnightblue" points="502.261,-63.0001 512.261,-59.5 502.261,-56.0001 502.261,-63.0001"/>
</g>
<!-- Node4 -->
<g id="node4" class="node"><title>Node4</title>
<g id="a_node4"><a xlink:href="../../de/d6b/class_application.html#af431bce25717b04a78d4d0940ed6a92c" target="_top" xlink:title=" ">
<polygon fill="white" stroke="black" points="194,-50 194,-69 300,-69 300,-50 194,-50"/>
<text text-anchor="middle" x="247" y="-57" font-family="Helvetica,sans-Serif" font-size="10.00">Application::initialize</text>
</a>
</g>
</g>
<!-- Node3&#45;&gt;Node4 -->
<g id="edge3" class="edge"><title>Node3&#45;&gt;Node4</title>
<path fill="none" stroke="midnightblue" d="M341.76,-59.5C328.263,-59.5 313.688,-59.5 300.143,-59.5"/>
<polygon fill="midnightblue" stroke="midnightblue" points="341.837,-63.0001 351.837,-59.5 341.837,-56.0001 341.837,-63.0001"/>
</g>
<!-- Node5 -->
<g id="node5" class="node"><title>Node5</title>
<g id="a_node5"><a xlink:href="../../de/d6b/class_application.html#a68965449404743bf1add056784d6cf81" target="_top" xlink:title=" ">
<polygon fill="white" stroke="black" points="74,-50 74,-69 158,-69 158,-50 74,-50"/>
<text text-anchor="middle" x="116" y="-57" font-family="Helvetica,sans-Serif" font-size="10.00">Application::run</text>
</a>
</g>
</g>
<!-- Node4&#45;&gt;Node5 -->
<g id="edge4" class="edge"><title>Node4&#45;&gt;Node5</title>
<path fill="none" stroke="midnightblue" d="M183.772,-59.5C175.088,-59.5 166.349,-59.5 158.186,-59.5"/>
<polygon fill="midnightblue" stroke="midnightblue" points="183.903,-63.0001 193.903,-59.5 183.903,-56.0001 183.903,-63.0001"/>
</g>
<!-- Node6 -->
<g id="node6" class="node"><title>Node6</title>
<g id="a_node6"><a xlink:href="../../d5/d12/_main_8cpp.html#a0ddf1224851353fc92bfbff6f499fa97" target="_top" xlink:title=" ">
<polygon fill="white" stroke="black" points="0,-50 0,-69 38,-69 38,-50 0,-50"/>
<text text-anchor="middle" x="19" y="-57" font-family="Helvetica,sans-Serif" font-size="10.00">main</text>
</a>
</g>
</g>
<!-- Node5&#45;&gt;Node6 -->
<g id="edge5" class="edge"><title>Node5&#45;&gt;Node6</title>
<path fill="none" stroke="midnightblue" d="M63.6206,-59.5C54.5384,-59.5 45.6466,-59.5 38.2853,-59.5"/>
<polygon fill="midnightblue" stroke="midnightblue" points="63.8842,-63.0001 73.8841,-59.5 63.8841,-56.0001 63.8842,-63.0001"/>
</g>
<!-- Node8 -->
<g id="node8" class="node"><title>Node8</title>
<g id="a_node8"><a xlink:href="../../de/d92/class__3_d_m_1_1_animated_model.html#acef81cdd87a1642ec7e138428bf228f6" target="_top" xlink:title=" ">
<polygon fill="white" stroke="black" points="336,-0.5 336,-30.5 452,-30.5 452,-0.5 336,-0.5"/>
<text text-anchor="start" x="344" y="-18.5" font-family="Helvetica,sans-Serif" font-size="10.00">_3DM::AnimatedModel</text>
<text text-anchor="middle" x="394" y="-7.5" font-family="Helvetica,sans-Serif" font-size="10.00">::AnimatedModel</text>
</a>
</g>
</g>
<!-- Node7&#45;&gt;Node8 -->
<g id="edge7" class="edge"><title>Node7&#45;&gt;Node8</title>
<path fill="none" stroke="midnightblue" d="M477.531,-15.5C468.874,-15.5 460.249,-15.5 452.016,-15.5"/>
<polygon fill="midnightblue" stroke="midnightblue" points="477.685,-19.0001 487.685,-15.5 477.685,-12.0001 477.685,-19.0001"/>
</g>
</g>
</svg>
