<?xml version="1.0" encoding="UTF-8" standalone="no"?>
<!DOCTYPE svg PUBLIC "-//W3C//DTD SVG 1.1//EN"
 "http://www.w3.org/Graphics/SVG/1.1/DTD/svg11.dtd">
<!-- Generated by graphviz version 2.38.0 (20140413.2041)
 -->
<!-- Title: SL::readBytes Pages: 1 -->
<!--zoomable 394 -->
<svg id="main" version="1.1" xmlns="http://www.w3.org/2000/svg" xmlns:xlink="http://www.w3.org/1999/xlink" xml:space="preserve" onload="init(evt)">
<style type="text/css"><![CDATA[
.edge:hover path { stroke: red; }
.edge:hover polygon { stroke: red; fill: red; }
]]></style>
<script type="text/javascript"><![CDATA[
var edges = document.getElementsByTagName('g');
if (edges && edges.length) {
  for (var i=0;i<edges.length;i++) {
    if (edges[i].id.substr(0,4)=='edge') {
      edges[i].setAttribute('class','edge');
    }
  }
}
]]></script>
        <defs>
                <circle id="rim" cx="0" cy="0" r="7"/>
                <circle id="rim2" cx="0" cy="0" r="3.5"/>
                <g id="zoomPlus">
                        <use xlink:href="#rim" fill="#404040">
                                <set attributeName="fill" to="#808080" begin="zoomplus.mouseover" end="zoomplus.mouseout"/>
                        </use>
                        <path d="M-4,0h8M0,-4v8" fill="none" stroke="white" stroke-width="1.5" pointer-events="none"/>
                </g>
                <g id="zoomMin">
                        <use xlink:href="#rim" fill="#404040">
                                <set attributeName="fill" to="#808080" begin="zoomminus.mouseover" end="zoomminus.mouseout"/>
                        </use>
                        <path d="M-4,0h8" fill="none" stroke="white" stroke-width="1.5" pointer-events="none"/>
                </g>
                <g id="dirArrow">
                        <path fill="none" stroke="white" stroke-width="1.5" d="M0,-3.0v7 M-2.5,-0.5L0,-3.0L2.5,-0.5"/>
                </g>
               <g id="resetDef">
                       <use xlink:href="#rim2" fill="#404040">
                               <set attributeName="fill" to="#808080" begin="reset.mouseover" end="reset.mouseout"/>
                       </use>
               </g>
        </defs>

<script type="text/javascript">
var viewWidth = 790;
var viewHeight = 394;
var sectionId = 'dynsection-2';
</script>
<script xlink:href="../../svgpan.js"/>
<svg id="graph" class="graph">
<g id="viewport">
<title>SL::readBytes</title>
<polygon fill="white" stroke="none" points="-4,4 -4,-390 786,-390 786,4 -4,4"/>
<!-- Node1 -->
<g id="node1" class="node"><title>Node1</title>
<g id="a_node1"><a xlink:title=" ">
<polygon fill="#bfbfbf" stroke="black" points="703,-180.5 703,-199.5 782,-199.5 782,-180.5 703,-180.5"/>
<text text-anchor="middle" x="742.5" y="-187.5" font-family="Helvetica,sans-Serif" font-size="10.00">SL::readBytes</text>
</a>
</g>
</g>
<!-- Node2 -->
<g id="node2" class="node"><title>Node2</title>
<g id="a_node2"><a xlink:href="../../db/d74/class_text_map.html#aefa9200c39ca535748d6c95f66d8eb9f" target="_top" xlink:title=" ">
<polygon fill="white" stroke="black" points="524.5,-366.5 524.5,-385.5 630.5,-385.5 630.5,-366.5 524.5,-366.5"/>
<text text-anchor="middle" x="577.5" y="-373.5" font-family="Helvetica,sans-Serif" font-size="10.00">TextMap::createMap</text>
</a>
</g>
</g>
<!-- Node1&#45;&gt;Node2 -->
<g id="edge1" class="edge"><title>Node1&#45;&gt;Node2</title>
<path fill="none" stroke="midnightblue" d="M738.58,-209.781C732.272,-245.114 713.95,-318.93 667,-357 656.747,-365.314 643.694,-370.218 630.782,-373.054"/>
<polygon fill="midnightblue" stroke="midnightblue" points="742.059,-210.191 740.226,-199.755 735.152,-209.056 742.059,-210.191"/>
</g>
<!-- Node7 -->
<g id="node7" class="node"><title>Node7</title>
<g id="a_node7"><a xlink:href="../../d5/d7a/class__3_d_m_1_1__3_d_m___i_o.html#aeda3013a2aec3d56429b2e6e89acaee5" target="_top" xlink:title=" ">
<polygon fill="white" stroke="black" points="488,-328.5 488,-347.5 667,-347.5 667,-328.5 488,-328.5"/>
<text text-anchor="middle" x="577.5" y="-335.5" font-family="Helvetica,sans-Serif" font-size="10.00">_3DM::_3DM_IO::readAnimatedMesh</text>
</a>
</g>
</g>
<!-- Node1&#45;&gt;Node7 -->
<g id="edge6" class="edge"><title>Node1&#45;&gt;Node7</title>
<path fill="none" stroke="midnightblue" d="M735.929,-209.266C726.602,-237.914 705.007,-291.331 667,-319 661.791,-322.792 655.981,-325.857 649.895,-328.33"/>
<polygon fill="midnightblue" stroke="midnightblue" points="739.306,-210.192 738.911,-199.604 732.617,-208.127 739.306,-210.192"/>
</g>
<!-- Node8 -->
<g id="node8" class="node"><title>Node8</title>
<g id="a_node8"><a xlink:href="../../d5/d7a/class__3_d_m_1_1__3_d_m___i_o.html#a9edfaa3d4fa600321398271015660bbe" target="_top" xlink:title=" ">
<polygon fill="white" stroke="black" points="500,-279 500,-309 655,-309 655,-279 500,-279"/>
<text text-anchor="start" x="508" y="-297" font-family="Helvetica,sans-Serif" font-size="10.00">_3DM::_3DM_IO::readAnimated</text>
<text text-anchor="middle" x="577.5" y="-286" font-family="Helvetica,sans-Serif" font-size="10.00">Model</text>
</a>
</g>
</g>
<!-- Node1&#45;&gt;Node8 -->
<g id="edge7" class="edge"><title>Node1&#45;&gt;Node8</title>
<path fill="none" stroke="midnightblue" d="M729.045,-208.081C715.714,-226.094 692.946,-253.27 667,-269 660.583,-272.89 653.54,-276.195 646.315,-278.997"/>
<polygon fill="midnightblue" stroke="midnightblue" points="732.139,-209.772 735.123,-199.606 726.451,-205.692 732.139,-209.772"/>
</g>
<!-- Node10 -->
<g id="node10" class="node"><title>Node10</title>
<g id="a_node10"><a xlink:href="../../d5/d7a/class__3_d_m_1_1__3_d_m___i_o.html#a06b86537c528f46ae3e34ccc19dd8831" target="_top" xlink:title=" ">
<polygon fill="white" stroke="black" points="499,-240.5 499,-259.5 656,-259.5 656,-240.5 499,-240.5"/>
<text text-anchor="middle" x="577.5" y="-247.5" font-family="Helvetica,sans-Serif" font-size="10.00">_3DM::_3DM_IO::readAnimation</text>
</a>
</g>
</g>
<!-- Node1&#45;&gt;Node10 -->
<g id="edge9" class="edge"><title>Node1&#45;&gt;Node10</title>
<path fill="none" stroke="midnightblue" d="M718.332,-205.055C704.036,-213.751 685.04,-224.266 667,-231 656.842,-234.792 645.73,-237.921 634.917,-240.467"/>
<polygon fill="midnightblue" stroke="midnightblue" points="720.352,-207.92 726.99,-199.662 716.651,-201.979 720.352,-207.92"/>
</g>
<!-- Node11 -->
<g id="node11" class="node"><title>Node11</title>
<g id="a_node11"><a xlink:href="../../d5/d7a/class__3_d_m_1_1__3_d_m___i_o.html#a1ecbb5270ee6613f9db11172df7170d1" target="_top" xlink:title=" ">
<polygon fill="white" stroke="black" points="491,-202.5 491,-221.5 664,-221.5 664,-202.5 491,-202.5"/>
<text text-anchor="middle" x="577.5" y="-209.5" font-family="Helvetica,sans-Serif" font-size="10.00">_3DM::_3DM_IO::readAnimationClip</text>
</a>
</g>
</g>
<!-- Node1&#45;&gt;Node11 -->
<g id="edge10" class="edge"><title>Node1&#45;&gt;Node11</title>
<path fill="none" stroke="midnightblue" d="M692.708,-196.585C678.997,-198.436 663.805,-200.486 649.096,-202.472"/>
<polygon fill="midnightblue" stroke="midnightblue" points="693.429,-200.02 702.871,-195.214 692.493,-193.083 693.429,-200.02"/>
</g>
<!-- Node12 -->
<g id="node12" class="node"><title>Node12</title>
<g id="a_node12"><a xlink:href="../../d5/d7a/class__3_d_m_1_1__3_d_m___i_o.html#a46cd89fe55aa5c92673db1b819ac1bac" target="_top" xlink:title=" ">
<polygon fill="white" stroke="black" points="489,-153 489,-183 666,-183 666,-153 489,-153"/>
<text text-anchor="start" x="497" y="-171" font-family="Helvetica,sans-Serif" font-size="10.00">_3DM::_3DM_IO::readBoneHierarchy</text>
<text text-anchor="middle" x="577.5" y="-160" font-family="Helvetica,sans-Serif" font-size="10.00">FromFile</text>
</a>
</g>
</g>
<!-- Node1&#45;&gt;Node12 -->
<g id="edge11" class="edge"><title>Node1&#45;&gt;Node12</title>
<path fill="none" stroke="midnightblue" d="M692.809,-183.428C684.301,-182.28 675.22,-181.054 666.037,-179.815"/>
<polygon fill="midnightblue" stroke="midnightblue" points="692.493,-186.917 702.871,-184.786 693.429,-179.98 692.493,-186.917"/>
</g>
<!-- Node13 -->
<g id="node13" class="node"><title>Node13</title>
<g id="a_node13"><a xlink:href="../../d5/d7a/class__3_d_m_1_1__3_d_m___i_o.html#ab085f97319ebed5be5470207c19a545f" target="_top" xlink:title=" ">
<polygon fill="white" stroke="black" points="503,-114.5 503,-133.5 652,-133.5 652,-114.5 503,-114.5"/>
<text text-anchor="middle" x="577.5" y="-121.5" font-family="Helvetica,sans-Serif" font-size="10.00">_3DM::_3DM_IO::readChannel</text>
</a>
</g>
</g>
<!-- Node1&#45;&gt;Node13 -->
<g id="edge12" class="edge"><title>Node1&#45;&gt;Node13</title>
<path fill="none" stroke="midnightblue" d="M720.818,-174.628C706.397,-164.58 686.346,-151.9 667,-144 656.646,-139.772 645.228,-136.35 634.132,-133.614"/>
<polygon fill="midnightblue" stroke="midnightblue" points="718.84,-177.517 729.012,-180.479 722.907,-171.82 718.84,-177.517"/>
</g>
<!-- Node14 -->
<g id="node14" class="node"><title>Node14</title>
<g id="a_node14"><a xlink:href="../../d5/d7a/class__3_d_m_1_1__3_d_m___i_o.html#ac312d79833e5b61bb615579b729d6367" target="_top" xlink:title=" ">
<polygon fill="white" stroke="black" points="509,-76.5 509,-95.5 646,-95.5 646,-76.5 509,-76.5"/>
<text text-anchor="middle" x="577.5" y="-83.5" font-family="Helvetica,sans-Serif" font-size="10.00">_3DM::_3DM_IO::readMesh</text>
</a>
</g>
</g>
<!-- Node1&#45;&gt;Node14 -->
<g id="edge13" class="edge"><title>Node1&#45;&gt;Node14</title>
<path fill="none" stroke="midnightblue" d="M730.533,-171.633C717.794,-151.973 694.914,-121.404 667,-105 660.361,-101.099 653.022,-97.9946 645.493,-95.5257"/>
<polygon fill="midnightblue" stroke="midnightblue" points="727.681,-173.674 735.95,-180.298 733.617,-169.963 727.681,-173.674"/>
</g>
<!-- Node15 -->
<g id="node15" class="node"><title>Node15</title>
<g id="a_node15"><a xlink:href="../../d5/d7a/class__3_d_m_1_1__3_d_m___i_o.html#a3caaa8896fdb2bb3ee317376a210028a" target="_top" xlink:title=" ">
<polygon fill="white" stroke="black" points="507.5,-38.5 507.5,-57.5 647.5,-57.5 647.5,-38.5 507.5,-38.5"/>
<text text-anchor="middle" x="577.5" y="-45.5" font-family="Helvetica,sans-Serif" font-size="10.00">_3DM::_3DM_IO::readModel</text>
</a>
</g>
</g>
<!-- Node1&#45;&gt;Node15 -->
<g id="edge14" class="edge"><title>Node1&#45;&gt;Node15</title>
<path fill="none" stroke="midnightblue" d="M735.394,-170.85C725.589,-143.34 703.624,-93.0819 667,-67 661.112,-62.8067 654.482,-59.5068 647.568,-56.9148"/>
<polygon fill="midnightblue" stroke="midnightblue" points="732.138,-172.146 738.662,-180.494 738.767,-169.899 732.138,-172.146"/>
</g>
<!-- Node17 -->
<g id="node17" class="node"><title>Node17</title>
<g id="a_node17"><a xlink:href="../../d5/d7a/class__3_d_m_1_1__3_d_m___i_o.html#a1caee87501d5ae4a5317fb6986f421cf" target="_top" xlink:title=" ">
<polygon fill="white" stroke="black" points="506.5,-0.5 506.5,-19.5 648.5,-19.5 648.5,-0.5 506.5,-0.5"/>
<text text-anchor="middle" x="577.5" y="-7.5" font-family="Helvetica,sans-Serif" font-size="10.00">_3DM::_3DM_IO::readVector</text>
</a>
</g>
</g>
<!-- Node1&#45;&gt;Node17 -->
<g id="edge16" class="edge"><title>Node1&#45;&gt;Node17</title>
<path fill="none" stroke="midnightblue" d="M738.169,-169.979C731.339,-135.537 712.386,-65.2867 667,-29 661.477,-24.5841 655.161,-21.1335 648.501,-18.4454"/>
<polygon fill="midnightblue" stroke="midnightblue" points="734.795,-170.981 740.041,-180.185 741.68,-169.718 734.795,-170.981"/>
</g>
<!-- Node3 -->
<g id="node3" class="node"><title>Node3</title>
<g id="a_node3"><a xlink:href="../../dd/d1f/class_game.html#a8986a201a654418cefe34ec28af1a22c" target="_top" xlink:title=" ">
<polygon fill="white" stroke="black" points="352,-366.5 352,-385.5 436,-385.5 436,-366.5 352,-366.5"/>
<text text-anchor="middle" x="394" y="-373.5" font-family="Helvetica,sans-Serif" font-size="10.00">Game::initialize</text>
</a>
</g>
</g>
<!-- Node2&#45;&gt;Node3 -->
<g id="edge2" class="edge"><title>Node2&#45;&gt;Node3</title>
<path fill="none" stroke="midnightblue" d="M514.392,-376C488.519,-376 459.185,-376 436.068,-376"/>
<polygon fill="midnightblue" stroke="midnightblue" points="514.489,-379.5 524.489,-376 514.489,-372.5 514.489,-379.5"/>
</g>
<!-- Node4 -->
<g id="node4" class="node"><title>Node4</title>
<g id="a_node4"><a xlink:href="../../de/d6b/class_application.html#af431bce25717b04a78d4d0940ed6a92c" target="_top" xlink:title=" ">
<polygon fill="white" stroke="black" points="194,-366.5 194,-385.5 300,-385.5 300,-366.5 194,-366.5"/>
<text text-anchor="middle" x="247" y="-373.5" font-family="Helvetica,sans-Serif" font-size="10.00">Application::initialize</text>
</a>
</g>
</g>
<!-- Node3&#45;&gt;Node4 -->
<g id="edge3" class="edge"><title>Node3&#45;&gt;Node4</title>
<path fill="none" stroke="midnightblue" d="M341.76,-376C328.263,-376 313.688,-376 300.143,-376"/>
<polygon fill="midnightblue" stroke="midnightblue" points="341.837,-379.5 351.837,-376 341.837,-372.5 341.837,-379.5"/>
</g>
<!-- Node5 -->
<g id="node5" class="node"><title>Node5</title>
<g id="a_node5"><a xlink:href="../../de/d6b/class_application.html#a68965449404743bf1add056784d6cf81" target="_top" xlink:title=" ">
<polygon fill="white" stroke="black" points="74,-366.5 74,-385.5 158,-385.5 158,-366.5 74,-366.5"/>
<text text-anchor="middle" x="116" y="-373.5" font-family="Helvetica,sans-Serif" font-size="10.00">Application::run</text>
</a>
</g>
</g>
<!-- Node4&#45;&gt;Node5 -->
<g id="edge4" class="edge"><title>Node4&#45;&gt;Node5</title>
<path fill="none" stroke="midnightblue" d="M183.772,-376C175.088,-376 166.349,-376 158.186,-376"/>
<polygon fill="midnightblue" stroke="midnightblue" points="183.903,-379.5 193.903,-376 183.903,-372.5 183.903,-379.5"/>
</g>
<!-- Node6 -->
<g id="node6" class="node"><title>Node6</title>
<g id="a_node6"><a xlink:href="../../d5/d12/_main_8cpp.html#a0ddf1224851353fc92bfbff6f499fa97" target="_top" xlink:title=" ">
<polygon fill="white" stroke="black" points="0,-366.5 0,-385.5 38,-385.5 38,-366.5 0,-366.5"/>
<text text-anchor="middle" x="19" y="-373.5" font-family="Helvetica,sans-Serif" font-size="10.00">main</text>
</a>
</g>
</g>
<!-- Node5&#45;&gt;Node6 -->
<g id="edge5" class="edge"><title>Node5&#45;&gt;Node6</title>
<path fill="none" stroke="midnightblue" d="M63.6206,-376C54.5384,-376 45.6466,-376 38.2853,-376"/>
<polygon fill="midnightblue" stroke="midnightblue" points="63.8842,-379.5 73.8841,-376 63.8841,-372.5 63.8842,-379.5"/>
</g>
<!-- Node9 -->
<g id="node9" class="node"><title>Node9</title>
<g id="a_node9"><a xlink:href="../../de/d92/class__3_d_m_1_1_animated_model.html#acef81cdd87a1642ec7e138428bf228f6" target="_top" xlink:title=" ">
<polygon fill="white" stroke="black" points="336,-279 336,-309 452,-309 452,-279 336,-279"/>
<text text-anchor="start" x="344" y="-297" font-family="Helvetica,sans-Serif" font-size="10.00">_3DM::AnimatedModel</text>
<text text-anchor="middle" x="394" y="-286" font-family="Helvetica,sans-Serif" font-size="10.00">::AnimatedModel</text>
</a>
</g>
</g>
<!-- Node8&#45;&gt;Node9 -->
<g id="edge8" class="edge"><title>Node8&#45;&gt;Node9</title>
<path fill="none" stroke="midnightblue" d="M489.629,-294C476.906,-294 464.082,-294 452.159,-294"/>
<polygon fill="midnightblue" stroke="midnightblue" points="489.791,-297.5 499.791,-294 489.791,-290.5 489.791,-297.5"/>
</g>
<!-- Node16 -->
<g id="node16" class="node"><title>Node16</title>
<g id="a_node16"><a xlink:href="../../d3/d96/class__3_d_m_1_1_model.html#a492585407cca41c7e6267fa126e0c24e" target="_top" xlink:title=" ">
<polygon fill="white" stroke="black" points="340.5,-38.5 340.5,-57.5 447.5,-57.5 447.5,-38.5 340.5,-38.5"/>
<text text-anchor="middle" x="394" y="-45.5" font-family="Helvetica,sans-Serif" font-size="10.00">_3DM::Model::Model</text>
</a>
</g>
</g>
<!-- Node15&#45;&gt;Node16 -->
<g id="edge15" class="edge"><title>Node15&#45;&gt;Node16</title>
<path fill="none" stroke="midnightblue" d="M497.028,-48C480.286,-48 463.023,-48 447.568,-48"/>
<polygon fill="midnightblue" stroke="midnightblue" points="497.365,-51.5001 507.365,-48 497.365,-44.5001 497.365,-51.5001"/>
</g>
</g>
</svg>
        <g id="navigator" transform="translate(0 0)" fill="#404254">
                <rect fill="#f2f5e9" fill-opacity="0.5" stroke="#606060" stroke-width=".5" x="0" y="0" width="60" height="60"/>
                <use id="zoomplus" xlink:href="#zoomPlus" x="17" y="9" onmousedown="handleZoom(evt,'in')"/>
                <use id="zoomminus" xlink:href="#zoomMin" x="42" y="9" onmousedown="handleZoom(evt,'out')"/>
                <use id="reset" xlink:href="#resetDef" x="30" y="36" onmousedown="handleReset()"/>
                <g id="arrowUp" xlink:href="#dirArrow" transform="translate(30 24)" onmousedown="handlePan(0,-1)">
                  <use xlink:href="#rim" fill="#404040">
                        <set attributeName="fill" to="#808080" begin="arrowUp.mouseover" end="arrowUp.mouseout"/>
                  </use>
                  <path fill="none" stroke="white" stroke-width="1.5" d="M0,-3.0v7 M-2.5,-0.5L0,-3.0L2.5,-0.5"/>
                </g>
                <g id="arrowRight" xlink:href="#dirArrow" transform="rotate(90) translate(36 -43)" onmousedown="handlePan(1,0)">
                  <use xlink:href="#rim" fill="#404040">
                        <set attributeName="fill" to="#808080" begin="arrowRight.mouseover" end="arrowRight.mouseout"/>
                  </use>
                  <path fill="none" stroke="white" stroke-width="1.5" d="M0,-3.0v7 M-2.5,-0.5L0,-3.0L2.5,-0.5"/>
                </g>
                <g id="arrowDown" xlink:href="#dirArrow" transform="rotate(180) translate(-30 -48)" onmousedown="handlePan(0,1)">
                  <use xlink:href="#rim" fill="#404040">
                        <set attributeName="fill" to="#808080" begin="arrowDown.mouseover" end="arrowDown.mouseout"/>
                  </use>
                  <path fill="none" stroke="white" stroke-width="1.5" d="M0,-3.0v7 M-2.5,-0.5L0,-3.0L2.5,-0.5"/>
                </g>
                <g id="arrowLeft" xlink:href="#dirArrow" transform="rotate(270) translate(-36 17)" onmousedown="handlePan(-1,0)">
                  <use xlink:href="#rim" fill="#404040">
                        <set attributeName="fill" to="#808080" begin="arrowLeft.mouseover" end="arrowLeft.mouseout"/>
                  </use>
                  <path fill="none" stroke="white" stroke-width="1.5" d="M0,-3.0v7 M-2.5,-0.5L0,-3.0L2.5,-0.5"/>
                </g>
        </g>
        <svg viewBox="0 0 15 15" width="100%" height="30px" preserveAspectRatio="xMaxYMin meet">
         <g id="arrow_out" transform="scale(0.3 0.3)">
          <a xlink:href="namespace_s_l_addb3c1f99efa9625ddde4137a659306a_icgraph_org.svg" target="_base">
           <rect id="button" ry="5" rx="5" y="6" x="6" height="38" width="38"
                fill="#f2f5e9" fill-opacity="0.5" stroke="#606060" stroke-width="1.0"/>
           <path id="arrow"
             d="M 11.500037,31.436501 C 11.940474,20.09759 22.043105,11.32322 32.158766,21.979434 L 37.068811,17.246167 C 37.068811,17.246167 37.088388,32 37.088388,32 L 22.160133,31.978069 C 22.160133,31.978069 26.997745,27.140456 26.997745,27.140456 C 18.528582,18.264221 13.291696,25.230495 11.500037,31.436501 z"
             style="fill:#404040;"/>
          </a>
         </g>
        </svg>
</svg>
