<?xml version="1.0" encoding="UTF-8" standalone="no"?>
<!DOCTYPE svg PUBLIC "-//W3C//DTD SVG 1.1//EN"
 "http://www.w3.org/Graphics/SVG/1.1/DTD/svg11.dtd">
<!-- Generated by graphviz version 2.38.0 (20140413.2041)
 -->
<!-- Title: FixedUpdatingSystem::initialize Pages: 1 -->
<svg width="880pt" height="129pt"
 viewBox="0.00 0.00 880.00 129.00" xmlns="http://www.w3.org/2000/svg" xmlns:xlink="http://www.w3.org/1999/xlink">
<g id="graph0" class="graph" transform="scale(1 1) rotate(0) translate(4 125)">
<title>FixedUpdatingSystem::initialize</title>
<polygon fill="white" stroke="none" points="-4,4 -4,-125 876,-125 876,4 -4,4"/>
<!-- Node1 -->
<g id="node1" class="node"><title>Node1</title>
<g id="a_node1"><a xlink:title=" ">
<polygon fill="#bfbfbf" stroke="black" points="0,-46.5 0,-76.5 113,-76.5 113,-46.5 0,-46.5"/>
<text text-anchor="start" x="8" y="-64.5" font-family="Helvetica,sans-Serif" font-size="10.00">FixedUpdatingSystem</text>
<text text-anchor="middle" x="56.5" y="-53.5" font-family="Helvetica,sans-Serif" font-size="10.00">::initialize</text>
</a>
</g>
</g>
<!-- Node2 -->
<g id="node2" class="node"><title>Node2</title>
<g id="a_node2"><a xlink:href="../../d6/db5/class_scene.html#ae05acfccb36d74a21bd4988a2b562ceb" target="_top" xlink:title=" ">
<polygon fill="white" stroke="black" points="149,-90.5 149,-120.5 308,-120.5 308,-90.5 149,-90.5"/>
<text text-anchor="start" x="157" y="-108.5" font-family="Helvetica,sans-Serif" font-size="10.00">Scene::getFirstActiveComponent</text>
<text text-anchor="middle" x="228.5" y="-97.5" font-family="Helvetica,sans-Serif" font-size="10.00">OfType</text>
</a>
</g>
</g>
<!-- Node1&#45;&gt;Node2 -->
<g id="edge1" class="edge"><title>Node1&#45;&gt;Node2</title>
<path fill="none" stroke="midnightblue" d="M113.164,-75.9072C127.939,-79.7313 144.062,-83.9042 159.417,-87.8785"/>
<polygon fill="midnightblue" stroke="midnightblue" points="158.817,-91.3384 169.375,-90.4558 160.571,-84.5617 158.817,-91.3384"/>
</g>
<!-- Node4 -->
<g id="node4" class="node"><title>Node4</title>
<g id="a_node4"><a xlink:href="../../d4/df8/class_camera_system.html#a4a7557f88f628a55314d3529519a28aa" target="_top" xlink:title=" ">
<polygon fill="white" stroke="black" points="166,-2.5 166,-32.5 291,-32.5 291,-2.5 166,-2.5"/>
<text text-anchor="start" x="174" y="-20.5" font-family="Helvetica,sans-Serif" font-size="10.00">CameraSystem::initialize</text>
<text text-anchor="middle" x="228.5" y="-9.5" font-family="Helvetica,sans-Serif" font-size="10.00">Camera</text>
</a>
</g>
</g>
<!-- Node1&#45;&gt;Node4 -->
<g id="edge3" class="edge"><title>Node1&#45;&gt;Node4</title>
<path fill="none" stroke="midnightblue" d="M113.164,-47.0928C127.939,-43.2687 144.062,-39.0958 159.417,-35.1215"/>
<polygon fill="midnightblue" stroke="midnightblue" points="160.571,-38.4383 169.375,-32.5442 158.817,-31.6616 160.571,-38.4383"/>
</g>
<!-- Node10 -->
<g id="node10" class="node"><title>Node10</title>
<g id="a_node10"><a xlink:href="../../d7/d06/class_g_u_i_resizing_information.html#ae82679de84809831c862391c4bafffa1" target="_top" xlink:title=" ">
<polygon fill="white" stroke="black" points="370.5,-46.5 370.5,-76.5 488.5,-76.5 488.5,-46.5 370.5,-46.5"/>
<text text-anchor="start" x="378.5" y="-64.5" font-family="Helvetica,sans-Serif" font-size="10.00">GUIResizingInformation</text>
<text text-anchor="middle" x="429.5" y="-53.5" font-family="Helvetica,sans-Serif" font-size="10.00">::updateInformation</text>
</a>
</g>
</g>
<!-- Node1&#45;&gt;Node10 -->
<g id="edge9" class="edge"><title>Node1&#45;&gt;Node10</title>
<path fill="none" stroke="midnightblue" d="M113.042,-61.5C179.031,-61.5 289.112,-61.5 360.234,-61.5"/>
<polygon fill="midnightblue" stroke="midnightblue" points="360.435,-65.0001 370.435,-61.5 360.435,-58.0001 360.435,-65.0001"/>
</g>
<!-- Node3 -->
<g id="node3" class="node"><title>Node3</title>
<g id="a_node3"><a xlink:href="../../d6/db5/class_scene.html#af06ab78544ec997fd8e480762b2cc40a" target="_top" xlink:title=" ">
<polygon fill="white" stroke="black" points="344,-96 344,-115 515,-115 515,-96 344,-96"/>
<text text-anchor="middle" x="429.5" y="-103" font-family="Helvetica,sans-Serif" font-size="10.00">Scene::binarySearchForComponent</text>
</a>
</g>
</g>
<!-- Node2&#45;&gt;Node3 -->
<g id="edge2" class="edge"><title>Node2&#45;&gt;Node3</title>
<path fill="none" stroke="midnightblue" d="M308.15,-105.5C316.583,-105.5 325.226,-105.5 333.82,-105.5"/>
<polygon fill="midnightblue" stroke="midnightblue" points="333.872,-109 343.872,-105.5 333.872,-102 333.872,-109"/>
</g>
<!-- Node5 -->
<g id="node5" class="node"><title>Node5</title>
<g id="a_node5"><a xlink:href="../../d4/df8/class_camera_system.html#a47d9e3f5277b873769028e15ccd4aa43" target="_top" xlink:title=" ">
<polygon fill="white" stroke="black" points="353,-8 353,-27 506,-27 506,-8 353,-8"/>
<text text-anchor="middle" x="429.5" y="-15" font-family="Helvetica,sans-Serif" font-size="10.00">CameraSystem::refreshCamera</text>
</a>
</g>
</g>
<!-- Node4&#45;&gt;Node5 -->
<g id="edge4" class="edge"><title>Node4&#45;&gt;Node5</title>
<path fill="none" stroke="midnightblue" d="M291.102,-17.5C307.419,-17.5 325.335,-17.5 342.685,-17.5"/>
<polygon fill="midnightblue" stroke="midnightblue" points="342.818,-21.0001 352.818,-17.5 342.818,-14.0001 342.818,-21.0001"/>
</g>
<!-- Node6 -->
<g id="node6" class="node"><title>Node6</title>
<g id="a_node6"><a xlink:href="../../d4/d58/namespace_game_info.html#a344c7e16ac06ee1f8458a249aac36e8e" target="_top" xlink:title=" ">
<polygon fill="white" stroke="black" points="551,-52 551,-71 691,-71 691,-52 551,-52"/>
<text text-anchor="middle" x="621" y="-59" font-family="Helvetica,sans-Serif" font-size="10.00">GameInfo::getWindowHeight</text>
</a>
</g>
</g>
<!-- Node5&#45;&gt;Node6 -->
<g id="edge5" class="edge"><title>Node5&#45;&gt;Node6</title>
<path fill="none" stroke="midnightblue" d="M473.511,-27.0614C486.819,-30.0493 501.523,-33.3805 515,-36.5 533.008,-40.6682 552.727,-45.3359 570.166,-49.4994"/>
<polygon fill="midnightblue" stroke="midnightblue" points="569.6,-52.9627 580.14,-51.885 571.228,-46.1547 569.6,-52.9627"/>
</g>
<!-- Node8 -->
<g id="node8" class="node"><title>Node8</title>
<g id="a_node8"><a xlink:href="../../d4/d58/namespace_game_info.html#a7cf2306eb3025a60a9e2da52eefba71e" target="_top" xlink:title=" ">
<polygon fill="white" stroke="black" points="552.5,-8 552.5,-27 689.5,-27 689.5,-8 552.5,-8"/>
<text text-anchor="middle" x="621" y="-15" font-family="Helvetica,sans-Serif" font-size="10.00">GameInfo::getWindowWidth</text>
</a>
</g>
</g>
<!-- Node5&#45;&gt;Node8 -->
<g id="edge7" class="edge"><title>Node5&#45;&gt;Node8</title>
<path fill="none" stroke="midnightblue" d="M506.212,-17.5C518.013,-17.5 530.225,-17.5 542.074,-17.5"/>
<polygon fill="midnightblue" stroke="midnightblue" points="542.374,-21.0001 552.374,-17.5 542.374,-14.0001 542.374,-21.0001"/>
</g>
<!-- Node7 -->
<g id="node7" class="node"><title>Node7</title>
<g id="a_node7"><a xlink:href="../../de/d6b/class_application.html#a0398d40c89d52bb8d6ac6ac466c5d30c" target="_top" xlink:title=" ">
<polygon fill="white" stroke="black" points="727,-49.5 727,-79.5 872,-79.5 872,-49.5 727,-49.5"/>
<text text-anchor="start" x="735" y="-67.5" font-family="Helvetica,sans-Serif" font-size="10.00">Application::getGameWindow</text>
<text text-anchor="middle" x="799.5" y="-56.5" font-family="Helvetica,sans-Serif" font-size="10.00">Height</text>
</a>
</g>
</g>
<!-- Node6&#45;&gt;Node7 -->
<g id="edge6" class="edge"><title>Node6&#45;&gt;Node7</title>
<path fill="none" stroke="midnightblue" d="M691.251,-62.6771C699.559,-62.8183 708.103,-62.9635 716.568,-63.1074"/>
<polygon fill="midnightblue" stroke="midnightblue" points="716.777,-66.6113 726.835,-63.2819 716.896,-59.6124 716.777,-66.6113"/>
</g>
<!-- Node9 -->
<g id="node9" class="node"><title>Node9</title>
<g id="a_node9"><a xlink:href="../../de/d6b/class_application.html#aad8864ec1fa58ee23db7b111876d09a5" target="_top" xlink:title=" ">
<polygon fill="white" stroke="black" points="727,-0.5 727,-30.5 872,-30.5 872,-0.5 727,-0.5"/>
<text text-anchor="start" x="735" y="-18.5" font-family="Helvetica,sans-Serif" font-size="10.00">Application::getGameWindow</text>
<text text-anchor="middle" x="799.5" y="-7.5" font-family="Helvetica,sans-Serif" font-size="10.00">Width</text>
</a>
</g>
</g>
<!-- Node8&#45;&gt;Node9 -->
<g id="edge8" class="edge"><title>Node8&#45;&gt;Node9</title>
<path fill="none" stroke="midnightblue" d="M689.735,-16.7325C698.564,-16.6324 707.683,-16.5291 716.711,-16.4268"/>
<polygon fill="midnightblue" stroke="midnightblue" points="716.886,-19.9251 726.846,-16.3119 716.807,-12.9256 716.886,-19.9251"/>
</g>
<!-- Node10&#45;&gt;Node6 -->
<g id="edge10" class="edge"><title>Node10&#45;&gt;Node6</title>
<path fill="none" stroke="midnightblue" d="M488.644,-61.5C505.106,-61.5 523.309,-61.5 540.788,-61.5"/>
<polygon fill="midnightblue" stroke="midnightblue" points="540.976,-65.0001 550.976,-61.5 540.976,-58.0001 540.976,-65.0001"/>
</g>
<!-- Node10&#45;&gt;Node8 -->
<g id="edge11" class="edge"><title>Node10&#45;&gt;Node8</title>
<path fill="none" stroke="midnightblue" d="M488.644,-47.9995C514.271,-42.0492 544.12,-35.1186 568.882,-29.3691"/>
<polygon fill="midnightblue" stroke="midnightblue" points="569.854,-32.7367 578.803,-27.0656 568.27,-25.9181 569.854,-32.7367"/>
</g>
</g>
</svg>
