<?xml version="1.0" encoding="UTF-8" standalone="no"?>
<!DOCTYPE svg PUBLIC "-//W3C//DTD SVG 1.1//EN"
 "http://www.w3.org/Graphics/SVG/1.1/DTD/svg11.dtd">
<!-- Generated by graphviz version 2.38.0 (20140413.2041)
 -->
<!-- Title: FixedUpdatingSystem::handleCollisionTrigger Pages: 1 -->
<svg width="494pt" height="104pt"
 viewBox="0.00 0.00 494.00 104.00" xmlns="http://www.w3.org/2000/svg" xmlns:xlink="http://www.w3.org/1999/xlink">
<g id="graph0" class="graph" transform="scale(1 1) rotate(0) translate(4 100)">
<title>FixedUpdatingSystem::handleCollisionTrigger</title>
<polygon fill="white" stroke="none" points="-4,4 -4,-100 490,-100 490,4 -4,4"/>
<!-- Node1 -->
<g id="node1" class="node"><title>Node1</title>
<g id="a_node1"><a xlink:title=" ">
<polygon fill="#bfbfbf" stroke="black" points="0,-33 0,-63 117,-63 117,-33 0,-33"/>
<text text-anchor="start" x="8" y="-51" font-family="Helvetica,sans-Serif" font-size="10.00">FixedUpdatingSystem</text>
<text text-anchor="middle" x="58.5" y="-40" font-family="Helvetica,sans-Serif" font-size="10.00">::handleCollisionTrigger</text>
</a>
</g>
</g>
<!-- Node2 -->
<g id="node2" class="node"><title>Node2</title>
<g id="a_node2"><a xlink:href="../../de/d50/_game_info_8h.html#a964580569a5f1a2743dfca324aeeddc0" target="_top" xlink:title=" ">
<polygon fill="white" stroke="black" points="153,-76.5 153,-95.5 303,-95.5 303,-76.5 153,-76.5"/>
<text text-anchor="middle" x="228" y="-83.5" font-family="Helvetica,sans-Serif" font-size="10.00">GET_COLLISION_TAG_NAME</text>
</a>
</g>
</g>
<!-- Node1&#45;&gt;Node2 -->
<g id="edge1" class="edge"><title>Node1&#45;&gt;Node2</title>
<path fill="none" stroke="midnightblue" d="M117.144,-61.0774C135.988,-65.3524 156.79,-70.0719 175.178,-74.2434"/>
<polygon fill="midnightblue" stroke="midnightblue" points="174.591,-77.6991 185.118,-76.4983 176.14,-70.8725 174.591,-77.6991"/>
</g>
<!-- Node3 -->
<g id="node3" class="node"><title>Node3</title>
<g id="a_node3"><a xlink:href="../../d6/db5/class_scene.html#abf64aceaf6865fa864f0fd9dd18f4fb8" target="_top" xlink:title=" ">
<polygon fill="white" stroke="black" points="173,-38.5 173,-57.5 283,-57.5 283,-38.5 173,-38.5"/>
<text text-anchor="middle" x="228" y="-45.5" font-family="Helvetica,sans-Serif" font-size="10.00">Scene::isEntityActive</text>
</a>
</g>
</g>
<!-- Node1&#45;&gt;Node3 -->
<g id="edge2" class="edge"><title>Node1&#45;&gt;Node3</title>
<path fill="none" stroke="midnightblue" d="M117.144,-48C131.83,-48 147.705,-48 162.701,-48"/>
<polygon fill="midnightblue" stroke="midnightblue" points="162.916,-51.5001 172.916,-48 162.916,-44.5001 162.916,-51.5001"/>
</g>
<!-- Node5 -->
<g id="node5" class="node"><title>Node5</title>
<g id="a_node5"><a xlink:href="../../d6/db5/class_scene.html#a7988b880ee3ad9f30b56cc965ad38025" target="_top" xlink:title=" ">
<polygon fill="white" stroke="black" points="170,-0.5 170,-19.5 286,-19.5 286,-0.5 170,-0.5"/>
<text text-anchor="middle" x="228" y="-7.5" font-family="Helvetica,sans-Serif" font-size="10.00">Scene::setEntityActive</text>
</a>
</g>
</g>
<!-- Node1&#45;&gt;Node5 -->
<g id="edge4" class="edge"><title>Node1&#45;&gt;Node5</title>
<path fill="none" stroke="midnightblue" d="M117.144,-34.9226C135.988,-30.6476 156.79,-25.9281 175.178,-21.7566"/>
<polygon fill="midnightblue" stroke="midnightblue" points="176.14,-25.1275 185.118,-19.5017 174.591,-18.3009 176.14,-25.1275"/>
</g>
<!-- Node4 -->
<g id="node4" class="node"><title>Node4</title>
<g id="a_node4"><a xlink:href="../../d6/db5/class_scene.html#a55c346bea3f04eb9d9f8476a68c2fa93" target="_top" xlink:title=" ">
<polygon fill="white" stroke="black" points="339,-19.5 339,-38.5 486,-38.5 486,-19.5 339,-19.5"/>
<text text-anchor="middle" x="412.5" y="-26.5" font-family="Helvetica,sans-Serif" font-size="10.00">Scene::binarySearchForEntity</text>
</a>
</g>
</g>
<!-- Node3&#45;&gt;Node4 -->
<g id="edge3" class="edge"><title>Node3&#45;&gt;Node4</title>
<path fill="none" stroke="midnightblue" d="M283.262,-42.3508C297.57,-40.8613 313.338,-39.2197 328.777,-37.6122"/>
<polygon fill="midnightblue" stroke="midnightblue" points="329.273,-41.0796 338.857,-36.5628 328.548,-34.1172 329.273,-41.0796"/>
</g>
<!-- Node5&#45;&gt;Node4 -->
<g id="edge5" class="edge"><title>Node5&#45;&gt;Node4</title>
<path fill="none" stroke="midnightblue" d="M286.243,-15.9596C299.618,-17.352 314.13,-18.8629 328.376,-20.346"/>
<polygon fill="midnightblue" stroke="midnightblue" points="328.373,-23.8645 338.682,-21.4189 329.098,-16.9022 328.373,-23.8645"/>
</g>
</g>
</svg>
