<?xml version="1.0" encoding="UTF-8" standalone="no"?>
<!DOCTYPE svg PUBLIC "-//W3C//DTD SVG 1.1//EN"
 "http://www.w3.org/Graphics/SVG/1.1/DTD/svg11.dtd">
<!-- Generated by graphviz version 2.38.0 (20140413.2041)
 -->
<!-- Title: FixedUpdatingSystem::handleBackEndMessage Pages: 1 -->
<svg width="722pt" height="242pt"
 viewBox="0.00 0.00 722.00 241.50" xmlns="http://www.w3.org/2000/svg" xmlns:xlink="http://www.w3.org/1999/xlink">
<g id="graph0" class="graph" transform="scale(1 1) rotate(0) translate(4 237.5)">
<title>FixedUpdatingSystem::handleBackEndMessage</title>
<polygon fill="white" stroke="none" points="-4,4 -4,-237.5 718,-237.5 718,4 -4,4"/>
<!-- Node1 -->
<g id="node1" class="node"><title>Node1</title>
<g id="a_node1"><a xlink:title=" ">
<polygon fill="#bfbfbf" stroke="black" points="0,-99 0,-129 131,-129 131,-99 0,-99"/>
<text text-anchor="start" x="8" y="-117" font-family="Helvetica,sans-Serif" font-size="10.00">FixedUpdatingSystem</text>
<text text-anchor="middle" x="65.5" y="-106" font-family="Helvetica,sans-Serif" font-size="10.00">::handleBackEndMessage</text>
</a>
</g>
</g>
<!-- Node2 -->
<g id="node2" class="node"><title>Node2</title>
<g id="a_node2"><a xlink:href="../../d6/db5/class_scene.html#ae05acfccb36d74a21bd4988a2b562ceb" target="_top" xlink:title=" ">
<polygon fill="white" stroke="black" points="167,-203 167,-233 326,-233 326,-203 167,-203"/>
<text text-anchor="start" x="175" y="-221" font-family="Helvetica,sans-Serif" font-size="10.00">Scene::getFirstActiveComponent</text>
<text text-anchor="middle" x="246.5" y="-210" font-family="Helvetica,sans-Serif" font-size="10.00">OfType</text>
</a>
</g>
</g>
<!-- Node1&#45;&gt;Node2 -->
<g id="edge1" class="edge"><title>Node1&#45;&gt;Node2</title>
<path fill="none" stroke="midnightblue" d="M84.0263,-129.203C103.339,-145.389 135.813,-170.968 167,-188 174.363,-192.021 182.378,-195.749 190.382,-199.113"/>
<polygon fill="midnightblue" stroke="midnightblue" points="189.149,-202.39 199.732,-202.891 191.771,-195.9 189.149,-202.39"/>
</g>
<!-- Node4 -->
<g id="node4" class="node"><title>Node4</title>
<g id="a_node4"><a xlink:href="../../d4/d58/namespace_game_info.html#a344c7e16ac06ee1f8458a249aac36e8e" target="_top" xlink:title=" ">
<polygon fill="white" stroke="black" points="377.5,-128.5 377.5,-147.5 517.5,-147.5 517.5,-128.5 377.5,-128.5"/>
<text text-anchor="middle" x="447.5" y="-135.5" font-family="Helvetica,sans-Serif" font-size="10.00">GameInfo::getWindowHeight</text>
</a>
</g>
</g>
<!-- Node1&#45;&gt;Node4 -->
<g id="edge3" class="edge"><title>Node1&#45;&gt;Node4</title>
<path fill="none" stroke="midnightblue" d="M95.0367,-129.121C114.665,-138.639 141.666,-150.031 167,-155 244.02,-170.106 335.061,-159.397 391.804,-149.426"/>
<polygon fill="midnightblue" stroke="midnightblue" points="392.774,-152.807 401.989,-147.579 391.524,-145.919 392.774,-152.807"/>
</g>
<!-- Node6 -->
<g id="node6" class="node"><title>Node6</title>
<g id="a_node6"><a xlink:href="../../d4/d58/namespace_game_info.html#a7cf2306eb3025a60a9e2da52eefba71e" target="_top" xlink:title=" ">
<polygon fill="white" stroke="black" points="379,-81.5 379,-100.5 516,-100.5 516,-81.5 379,-81.5"/>
<text text-anchor="middle" x="447.5" y="-88.5" font-family="Helvetica,sans-Serif" font-size="10.00">GameInfo::getWindowWidth</text>
</a>
</g>
</g>
<!-- Node1&#45;&gt;Node6 -->
<g id="edge5" class="edge"><title>Node1&#45;&gt;Node6</title>
<path fill="none" stroke="midnightblue" d="M91.0148,-98.8042C110.72,-87.5309 139.548,-73.102 167,-67 248.681,-48.8441 346.614,-65.8674 402.195,-79.0284"/>
<polygon fill="midnightblue" stroke="midnightblue" points="401.523,-82.467 412.067,-81.4316 403.179,-75.6656 401.523,-82.467"/>
</g>
<!-- Node8 -->
<g id="node8" class="node"><title>Node8</title>
<g id="a_node8"><a xlink:href="../../d4/df8/class_camera_system.html#a47d9e3f5277b873769028e15ccd4aa43" target="_top" xlink:title=" ">
<polygon fill="white" stroke="black" points="170,-126.5 170,-145.5 323,-145.5 323,-126.5 170,-126.5"/>
<text text-anchor="middle" x="246.5" y="-133.5" font-family="Helvetica,sans-Serif" font-size="10.00">CameraSystem::refreshCamera</text>
</a>
</g>
</g>
<!-- Node1&#45;&gt;Node8 -->
<g id="edge7" class="edge"><title>Node1&#45;&gt;Node8</title>
<path fill="none" stroke="midnightblue" d="M131.123,-121.943C140.414,-123.084 150.093,-124.274 159.714,-125.456"/>
<polygon fill="midnightblue" stroke="midnightblue" points="159.349,-128.938 169.701,-126.684 160.203,-121.99 159.349,-128.938"/>
</g>
<!-- Node9 -->
<g id="node9" class="node"><title>Node9</title>
<g id="a_node9"><a xlink:href="../../dd/db8/class_render_texture.html#abf24c86b77fa47a8c85093fa0a96a7d7" target="_top" xlink:title=" ">
<polygon fill="white" stroke="black" points="190.5,-0.5 190.5,-19.5 302.5,-19.5 302.5,-0.5 190.5,-0.5"/>
<text text-anchor="middle" x="246.5" y="-7.5" font-family="Helvetica,sans-Serif" font-size="10.00">RenderTexture::resize</text>
</a>
</g>
</g>
<!-- Node1&#45;&gt;Node9 -->
<g id="edge10" class="edge"><title>Node1&#45;&gt;Node9</title>
<path fill="none" stroke="midnightblue" d="M81.5471,-98.9593C100.141,-81.1424 133.452,-51.6582 167,-34 175.517,-29.5169 185.004,-25.7288 194.357,-22.581"/>
<polygon fill="midnightblue" stroke="midnightblue" points="195.528,-25.8817 204.007,-19.5303 193.418,-19.2072 195.528,-25.8817"/>
</g>
<!-- Node11 -->
<g id="node11" class="node"><title>Node11</title>
<g id="a_node11"><a xlink:href="../../d7/d06/class_g_u_i_resizing_information.html#ae82679de84809831c862391c4bafffa1" target="_top" xlink:title=" ">
<polygon fill="white" stroke="black" points="187.5,-77 187.5,-107 305.5,-107 305.5,-77 187.5,-77"/>
<text text-anchor="start" x="195.5" y="-95" font-family="Helvetica,sans-Serif" font-size="10.00">GUIResizingInformation</text>
<text text-anchor="middle" x="246.5" y="-84" font-family="Helvetica,sans-Serif" font-size="10.00">::updateInformation</text>
</a>
</g>
</g>
<!-- Node1&#45;&gt;Node11 -->
<g id="edge12" class="edge"><title>Node1&#45;&gt;Node11</title>
<path fill="none" stroke="midnightblue" d="M131.123,-106.057C146.013,-104.227 161.901,-102.275 176.951,-100.425"/>
<polygon fill="midnightblue" stroke="midnightblue" points="177.715,-103.857 187.214,-99.1637 176.861,-96.9098 177.715,-103.857"/>
</g>
<!-- Node3 -->
<g id="node3" class="node"><title>Node3</title>
<g id="a_node3"><a xlink:href="../../d6/db5/class_scene.html#af06ab78544ec997fd8e480762b2cc40a" target="_top" xlink:title=" ">
<polygon fill="white" stroke="black" points="362,-208.5 362,-227.5 533,-227.5 533,-208.5 362,-208.5"/>
<text text-anchor="middle" x="447.5" y="-215.5" font-family="Helvetica,sans-Serif" font-size="10.00">Scene::binarySearchForComponent</text>
</a>
</g>
</g>
<!-- Node2&#45;&gt;Node3 -->
<g id="edge2" class="edge"><title>Node2&#45;&gt;Node3</title>
<path fill="none" stroke="midnightblue" d="M326.15,-218C334.583,-218 343.226,-218 351.82,-218"/>
<polygon fill="midnightblue" stroke="midnightblue" points="351.872,-221.5 361.872,-218 351.872,-214.5 351.872,-221.5"/>
</g>
<!-- Node5 -->
<g id="node5" class="node"><title>Node5</title>
<g id="a_node5"><a xlink:href="../../de/d6b/class_application.html#a0398d40c89d52bb8d6ac6ac466c5d30c" target="_top" xlink:title=" ">
<polygon fill="white" stroke="black" points="569,-124 569,-154 714,-154 714,-124 569,-124"/>
<text text-anchor="start" x="577" y="-142" font-family="Helvetica,sans-Serif" font-size="10.00">Application::getGameWindow</text>
<text text-anchor="middle" x="641.5" y="-131" font-family="Helvetica,sans-Serif" font-size="10.00">Height</text>
</a>
</g>
</g>
<!-- Node4&#45;&gt;Node5 -->
<g id="edge4" class="edge"><title>Node4&#45;&gt;Node5</title>
<path fill="none" stroke="midnightblue" d="M517.545,-138.36C530.824,-138.429 544.852,-138.502 558.494,-138.573"/>
<polygon fill="midnightblue" stroke="midnightblue" points="558.815,-142.075 568.833,-138.627 558.851,-135.075 558.815,-142.075"/>
</g>
<!-- Node7 -->
<g id="node7" class="node"><title>Node7</title>
<g id="a_node7"><a xlink:href="../../de/d6b/class_application.html#aad8864ec1fa58ee23db7b111876d09a5" target="_top" xlink:title=" ">
<polygon fill="white" stroke="black" points="569,-75 569,-105 714,-105 714,-75 569,-75"/>
<text text-anchor="start" x="577" y="-93" font-family="Helvetica,sans-Serif" font-size="10.00">Application::getGameWindow</text>
<text text-anchor="middle" x="641.5" y="-82" font-family="Helvetica,sans-Serif" font-size="10.00">Width</text>
</a>
</g>
</g>
<!-- Node6&#45;&gt;Node7 -->
<g id="edge6" class="edge"><title>Node6&#45;&gt;Node7</title>
<path fill="none" stroke="midnightblue" d="M516.192,-90.6474C529.919,-90.5759 544.493,-90.5 558.649,-90.4263"/>
<polygon fill="midnightblue" stroke="midnightblue" points="558.882,-93.9252 568.863,-90.3731 558.845,-86.9253 558.882,-93.9252"/>
</g>
<!-- Node8&#45;&gt;Node4 -->
<g id="edge8" class="edge"><title>Node8&#45;&gt;Node4</title>
<path fill="none" stroke="midnightblue" d="M323.017,-136.759C337.35,-136.903 352.39,-137.054 366.847,-137.199"/>
<polygon fill="midnightblue" stroke="midnightblue" points="367.217,-140.703 377.252,-137.304 367.288,-133.704 367.217,-140.703"/>
</g>
<!-- Node8&#45;&gt;Node6 -->
<g id="edge9" class="edge"><title>Node8&#45;&gt;Node6</title>
<path fill="none" stroke="midnightblue" d="M289.703,-126.457C320.308,-119.536 361.884,-110.134 394.534,-102.751"/>
<polygon fill="midnightblue" stroke="midnightblue" points="395.376,-106.149 404.358,-100.53 393.832,-99.3215 395.376,-106.149"/>
</g>
<!-- Node10 -->
<g id="node10" class="node"><title>Node10</title>
<g id="a_node10"><a xlink:href="../../dd/db8/class_render_texture.html#afc74bdbbb35d6af7b9b4a1b77c6ae011" target="_top" xlink:title=" ">
<polygon fill="white" stroke="black" points="387,-0.5 387,-19.5 508,-19.5 508,-0.5 387,-0.5"/>
<text text-anchor="middle" x="447.5" y="-7.5" font-family="Helvetica,sans-Serif" font-size="10.00">RenderTexture::initialize</text>
</a>
</g>
</g>
<!-- Node9&#45;&gt;Node10 -->
<g id="edge11" class="edge"><title>Node9&#45;&gt;Node10</title>
<path fill="none" stroke="midnightblue" d="M302.668,-10C325.515,-10 352.282,-10 376.489,-10"/>
<polygon fill="midnightblue" stroke="midnightblue" points="376.688,-13.5001 386.688,-10 376.687,-6.5001 376.688,-13.5001"/>
</g>
<!-- Node11&#45;&gt;Node4 -->
<g id="edge13" class="edge"><title>Node11&#45;&gt;Node4</title>
<path fill="none" stroke="midnightblue" d="M305.594,-105.429C334.101,-112.018 368.126,-119.883 395.599,-126.234"/>
<polygon fill="midnightblue" stroke="midnightblue" points="394.871,-129.658 405.402,-128.5 396.447,-122.838 394.871,-129.658"/>
</g>
<!-- Node11&#45;&gt;Node6 -->
<g id="edge14" class="edge"><title>Node11&#45;&gt;Node6</title>
<path fill="none" stroke="midnightblue" d="M305.594,-91.7081C325.312,-91.609 347.67,-91.4966 368.674,-91.3911"/>
<polygon fill="midnightblue" stroke="midnightblue" points="368.876,-94.8902 378.859,-91.3399 368.841,-87.8903 368.876,-94.8902"/>
</g>
</g>
</svg>
