<?xml version="1.0" encoding="UTF-8" standalone="no"?>
<!DOCTYPE svg PUBLIC "-//W3C//DTD SVG 1.1//EN"
 "http://www.w3.org/Graphics/SVG/1.1/DTD/svg11.dtd">
<!-- Generated by graphviz version 2.38.0 (20140413.2041)
 -->
<!-- Title: GuiTextCharacter::render Pages: 1 -->
<svg width="617pt" height="349pt"
 viewBox="0.00 0.00 617.00 348.50" xmlns="http://www.w3.org/2000/svg" xmlns:xlink="http://www.w3.org/1999/xlink">
<g id="graph0" class="graph" transform="scale(1 1) rotate(0) translate(4 344.5)">
<title>GuiTextCharacter::render</title>
<polygon fill="white" stroke="none" points="-4,4 -4,-344.5 613,-344.5 613,4 -4,4"/>
<!-- Node1 -->
<g id="node1" class="node"><title>Node1</title>
<g id="a_node1"><a xlink:title=" ">
<polygon fill="#bfbfbf" stroke="black" points="0,-207 0,-226 125,-226 125,-207 0,-207"/>
<text text-anchor="middle" x="62.5" y="-214" font-family="Helvetica,sans-Serif" font-size="10.00">GuiTextCharacter::render</text>
</a>
</g>
</g>
<!-- Node2 -->
<g id="node2" class="node"><title>Node2</title>
<g id="a_node2"><a xlink:href="../../db/db4/struct_glyph.html#acde78c0f1f504ded10a319581b7ff8cf" target="_top" xlink:title=" ">
<polygon fill="white" stroke="black" points="161,-245 161,-264 250,-264 250,-245 161,-245"/>
<text text-anchor="middle" x="205.5" y="-252" font-family="Helvetica,sans-Serif" font-size="10.00">Glyph::getHeight</text>
</a>
</g>
</g>
<!-- Node1&#45;&gt;Node2 -->
<g id="edge1" class="edge"><title>Node1&#45;&gt;Node2</title>
<path fill="none" stroke="midnightblue" d="M99.0803,-226.089C117.282,-230.994 139.638,-237.02 159.072,-242.257"/>
<polygon fill="midnightblue" stroke="midnightblue" points="158.365,-245.691 168.931,-244.914 160.186,-238.932 158.365,-245.691"/>
</g>
<!-- Node3 -->
<g id="node3" class="node"><title>Node3</title>
<g id="a_node3"><a xlink:href="../../db/db4/struct_glyph.html#a838940af793d410d6208d71a8691c24c" target="_top" xlink:title=" ">
<polygon fill="white" stroke="black" points="162,-207 162,-226 249,-226 249,-207 162,-207"/>
<text text-anchor="middle" x="205.5" y="-214" font-family="Helvetica,sans-Serif" font-size="10.00">Glyph::getWidth</text>
</a>
</g>
</g>
<!-- Node1&#45;&gt;Node3 -->
<g id="edge2" class="edge"><title>Node1&#45;&gt;Node3</title>
<path fill="none" stroke="midnightblue" d="M125.345,-216.5C134.077,-216.5 142.989,-216.5 151.535,-216.5"/>
<polygon fill="midnightblue" stroke="midnightblue" points="151.739,-220 161.739,-216.5 151.739,-213 151.739,-220"/>
</g>
<!-- Node4 -->
<g id="node4" class="node"><title>Node4</title>
<g id="a_node4"><a xlink:href="../../d3/df8/class_quad.html#a424c01ecd59971dc51e39bc19fbda551" target="_top" xlink:title=" ">
<polygon fill="white" stroke="black" points="163,-169 163,-188 248,-188 248,-169 163,-169"/>
<text text-anchor="middle" x="205.5" y="-176" font-family="Helvetica,sans-Serif" font-size="10.00">Quad::render3D</text>
</a>
</g>
</g>
<!-- Node1&#45;&gt;Node4 -->
<g id="edge3" class="edge"><title>Node1&#45;&gt;Node4</title>
<path fill="none" stroke="midnightblue" d="M99.0803,-206.911C117.282,-202.006 139.638,-195.98 159.072,-190.743"/>
<polygon fill="midnightblue" stroke="midnightblue" points="160.186,-194.068 168.931,-188.086 158.365,-187.309 160.186,-194.068"/>
</g>
<!-- Node5 -->
<g id="node5" class="node"><title>Node5</title>
<g id="a_node5"><a xlink:href="../../d7/da2/namespace_shaders.html#a137768343963ec1e71572a39e29892e6" target="_top" xlink:title=" ">
<polygon fill="white" stroke="black" points="470.5,-245 470.5,-264 602.5,-264 602.5,-245 470.5,-245"/>
<text text-anchor="middle" x="536.5" y="-252" font-family="Helvetica,sans-Serif" font-size="10.00">Shaders::getAttribLocation</text>
</a>
</g>
</g>
<!-- Node4&#45;&gt;Node5 -->
<g id="edge4" class="edge"><title>Node4&#45;&gt;Node5</title>
<path fill="none" stroke="midnightblue" d="M248.235,-177.166C293.456,-176.843 367.283,-179.609 428,-197.5 459.419,-206.758 492.214,-225.712 513.193,-239.22"/>
<polygon fill="midnightblue" stroke="midnightblue" points="511.41,-242.236 521.687,-244.81 515.258,-236.389 511.41,-242.236"/>
</g>
<!-- Node6 -->
<g id="node6" class="node"><title>Node6</title>
<g id="a_node6"><a xlink:href="../../d2/d7f/class_texture.html#a0eaebfd0e00f88d19a64ed05ea634539" target="_top" xlink:title=" ">
<polygon fill="white" stroke="black" points="309,-283 309,-302 405,-302 405,-283 309,-283"/>
<text text-anchor="middle" x="357" y="-290" font-family="Helvetica,sans-Serif" font-size="10.00">Texture::getHeight</text>
</a>
</g>
</g>
<!-- Node4&#45;&gt;Node6 -->
<g id="edge5" class="edge"><title>Node4&#45;&gt;Node6</title>
<path fill="none" stroke="midnightblue" d="M236.365,-188.105C241.313,-190.616 246.096,-193.713 250,-197.5 276.829,-223.522 257.335,-249.515 286,-273.5 290.002,-276.848 294.542,-279.611 299.342,-281.889"/>
<polygon fill="midnightblue" stroke="midnightblue" points="298.235,-285.216 308.818,-285.7 300.846,-278.721 298.235,-285.216"/>
</g>
<!-- Node7 -->
<g id="node7" class="node"><title>Node7</title>
<g id="a_node7"><a xlink:href="../../d1/d51/class_shader.html#a240b7ecb19883fa340489840733eae6d" target="_top" xlink:title=" ">
<polygon fill="white" stroke="black" points="300.5,-245 300.5,-264 413.5,-264 413.5,-245 300.5,-245"/>
<text text-anchor="middle" x="357" y="-252" font-family="Helvetica,sans-Serif" font-size="10.00">Shader::getProgramID</text>
</a>
</g>
</g>
<!-- Node4&#45;&gt;Node7 -->
<g id="edge6" class="edge"><title>Node4&#45;&gt;Node7</title>
<path fill="none" stroke="midnightblue" d="M233.172,-188.133C238.958,-190.765 244.874,-193.901 250,-197.5 269.04,-210.868 266.031,-223.564 286,-235.5 289.648,-237.68 293.551,-239.616 297.578,-241.334"/>
<polygon fill="midnightblue" stroke="midnightblue" points="296.547,-244.686 307.138,-244.959 299.028,-238.141 296.547,-244.686"/>
</g>
<!-- Node8 -->
<g id="node8" class="node"><title>Node8</title>
<g id="a_node8"><a xlink:href="../../d2/d7f/class_texture.html#a922a73acbaee522dd96d971b630da0fa" target="_top" xlink:title=" ">
<polygon fill="white" stroke="black" points="296.5,-207 296.5,-226 417.5,-226 417.5,-207 296.5,-207"/>
<text text-anchor="middle" x="357" y="-214" font-family="Helvetica,sans-Serif" font-size="10.00">Texture::getTextureData</text>
</a>
</g>
</g>
<!-- Node4&#45;&gt;Node8 -->
<g id="edge7" class="edge"><title>Node4&#45;&gt;Node8</title>
<path fill="none" stroke="midnightblue" d="M244.225,-188.089C263.776,-193.058 287.847,-199.177 308.637,-204.461"/>
<polygon fill="midnightblue" stroke="midnightblue" points="307.992,-207.909 318.546,-206.98 309.717,-201.124 307.992,-207.909"/>
</g>
<!-- Node9 -->
<g id="node9" class="node"><title>Node9</title>
<g id="a_node9"><a xlink:href="../../d7/da2/namespace_shaders.html#aaa649eb98b860170946f582b8e93c12d" target="_top" xlink:title=" ">
<polygon fill="white" stroke="black" points="286,-93 286,-112 428,-112 428,-93 286,-93"/>
<text text-anchor="middle" x="357" y="-100" font-family="Helvetica,sans-Serif" font-size="10.00">Shaders::getUniformLocation</text>
</a>
</g>
</g>
<!-- Node4&#45;&gt;Node9 -->
<g id="edge8" class="edge"><title>Node4&#45;&gt;Node9</title>
<path fill="none" stroke="midnightblue" d="M217.278,-168.822C231.862,-156.207 259.155,-134.254 286,-121.5 290.976,-119.136 296.296,-117.025 301.696,-115.149"/>
<polygon fill="midnightblue" stroke="midnightblue" points="302.993,-118.409 311.448,-112.024 300.857,-111.743 302.993,-118.409"/>
</g>
<!-- Node11 -->
<g id="node11" class="node"><title>Node11</title>
<g id="a_node11"><a xlink:href="../../d2/d7f/class_texture.html#a4d8e86e7df22179e8f3af9392020608c" target="_top" xlink:title=" ">
<polygon fill="white" stroke="black" points="310,-131 310,-150 404,-150 404,-131 310,-131"/>
<text text-anchor="middle" x="357" y="-138" font-family="Helvetica,sans-Serif" font-size="10.00">Texture::getWidth</text>
</a>
</g>
</g>
<!-- Node4&#45;&gt;Node11 -->
<g id="edge10" class="edge"><title>Node4&#45;&gt;Node11</title>
<path fill="none" stroke="midnightblue" d="M244.225,-168.911C263.776,-163.942 287.847,-157.823 308.637,-152.539"/>
<polygon fill="midnightblue" stroke="midnightblue" points="309.717,-155.876 318.546,-150.02 307.992,-149.091 309.717,-155.876"/>
</g>
<!-- Node12 -->
<g id="node12" class="node"><title>Node12</title>
<g id="a_node12"><a xlink:href="../../d4/d58/namespace_game_info.html#a344c7e16ac06ee1f8458a249aac36e8e" target="_top" xlink:title=" ">
<polygon fill="white" stroke="black" points="287,-55 287,-74 427,-74 427,-55 287,-55"/>
<text text-anchor="middle" x="357" y="-62" font-family="Helvetica,sans-Serif" font-size="10.00">GameInfo::getWindowHeight</text>
</a>
</g>
</g>
<!-- Node4&#45;&gt;Node12 -->
<g id="edge11" class="edge"><title>Node4&#45;&gt;Node12</title>
<path fill="none" stroke="midnightblue" d="M211.875,-168.741C223.042,-149.397 250.682,-106.114 286,-83.5 289.306,-81.3834 292.844,-79.5005 296.51,-77.8258"/>
<polygon fill="midnightblue" stroke="midnightblue" points="297.853,-81.058 305.824,-74.0774 295.24,-74.5642 297.853,-81.058"/>
</g>
<!-- Node14 -->
<g id="node14" class="node"><title>Node14</title>
<g id="a_node14"><a xlink:href="../../d4/d58/namespace_game_info.html#a7cf2306eb3025a60a9e2da52eefba71e" target="_top" xlink:title=" ">
<polygon fill="white" stroke="black" points="288.5,-12 288.5,-31 425.5,-31 425.5,-12 288.5,-12"/>
<text text-anchor="middle" x="357" y="-19" font-family="Helvetica,sans-Serif" font-size="10.00">GameInfo::getWindowWidth</text>
</a>
</g>
</g>
<!-- Node4&#45;&gt;Node14 -->
<g id="edge13" class="edge"><title>Node4&#45;&gt;Node14</title>
<path fill="none" stroke="midnightblue" d="M209.608,-168.902C217.951,-144.622 243.16,-80.226 286,-45.5 291.23,-41.2604 297.253,-37.7508 303.524,-34.85"/>
<polygon fill="midnightblue" stroke="midnightblue" points="304.91,-38.0641 312.826,-31.0216 302.246,-31.5909 304.91,-38.0641"/>
</g>
<!-- Node16 -->
<g id="node16" class="node"><title>Node16</title>
<g id="a_node16"><a xlink:href="../../d3/df8/class_quad.html#ab6f9562308559b344d2e0d1e1cf3a0cf" target="_top" xlink:title=" ">
<polygon fill="white" stroke="black" points="327.5,-321 327.5,-340 386.5,-340 386.5,-321 327.5,-321"/>
<text text-anchor="middle" x="357" y="-328" font-family="Helvetica,sans-Serif" font-size="10.00">Quad::init</text>
</a>
</g>
</g>
<!-- Node4&#45;&gt;Node16 -->
<g id="edge15" class="edge"><title>Node4&#45;&gt;Node16</title>
<path fill="none" stroke="midnightblue" d="M237.695,-188.151C242.27,-190.628 246.583,-193.701 250,-197.5 285.529,-237.007 247.67,-274.704 286,-311.5 294.416,-319.579 305.907,-324.299 317.147,-327.033"/>
<polygon fill="midnightblue" stroke="midnightblue" points="316.815,-330.534 327.302,-329.025 318.163,-323.665 316.815,-330.534"/>
</g>
<!-- Node10 -->
<g id="node10" class="node"><title>Node10</title>
<g id="a_node10"><a xlink:href="../../d7/da2/namespace_shaders.html#a25a80e81a8051ed31ecab4ed167b0be8" target="_top" xlink:title=" ">
<polygon fill="white" stroke="black" points="471,-99 471,-118 602,-118 602,-99 471,-99"/>
<text text-anchor="middle" x="536.5" y="-106" font-family="Helvetica,sans-Serif" font-size="10.00">Shaders::getUniformName</text>
</a>
</g>
</g>
<!-- Node9&#45;&gt;Node10 -->
<g id="edge9" class="edge"><title>Node9&#45;&gt;Node10</title>
<path fill="none" stroke="midnightblue" d="M428.153,-104.871C438.801,-105.231 449.823,-105.604 460.567,-105.967"/>
<polygon fill="midnightblue" stroke="midnightblue" points="460.651,-109.472 470.763,-106.312 460.887,-102.476 460.651,-109.472"/>
</g>
<!-- Node13 -->
<g id="node13" class="node"><title>Node13</title>
<g id="a_node13"><a xlink:href="../../de/d6b/class_application.html#a0398d40c89d52bb8d6ac6ac466c5d30c" target="_top" xlink:title=" ">
<polygon fill="white" stroke="black" points="464,-49.5 464,-79.5 609,-79.5 609,-49.5 464,-49.5"/>
<text text-anchor="start" x="472" y="-67.5" font-family="Helvetica,sans-Serif" font-size="10.00">Application::getGameWindow</text>
<text text-anchor="middle" x="536.5" y="-56.5" font-family="Helvetica,sans-Serif" font-size="10.00">Height</text>
</a>
</g>
</g>
<!-- Node12&#45;&gt;Node13 -->
<g id="edge12" class="edge"><title>Node12&#45;&gt;Node13</title>
<path fill="none" stroke="midnightblue" d="M427.134,-64.5C435.904,-64.5 444.943,-64.5 453.885,-64.5"/>
<polygon fill="midnightblue" stroke="midnightblue" points="453.919,-68.0001 463.919,-64.5 453.919,-61.0001 453.919,-68.0001"/>
</g>
<!-- Node15 -->
<g id="node15" class="node"><title>Node15</title>
<g id="a_node15"><a xlink:href="../../de/d6b/class_application.html#aad8864ec1fa58ee23db7b111876d09a5" target="_top" xlink:title=" ">
<polygon fill="white" stroke="black" points="464,-0.5 464,-30.5 609,-30.5 609,-0.5 464,-0.5"/>
<text text-anchor="start" x="472" y="-18.5" font-family="Helvetica,sans-Serif" font-size="10.00">Application::getGameWindow</text>
<text text-anchor="middle" x="536.5" y="-7.5" font-family="Helvetica,sans-Serif" font-size="10.00">Width</text>
</a>
</g>
</g>
<!-- Node14&#45;&gt;Node15 -->
<g id="edge14" class="edge"><title>Node14&#45;&gt;Node15</title>
<path fill="none" stroke="midnightblue" d="M425.611,-19.2145C434.821,-18.9032 444.353,-18.581 453.778,-18.2624"/>
<polygon fill="midnightblue" stroke="midnightblue" points="454.067,-21.7547 463.943,-17.9188 453.831,-14.7587 454.067,-21.7547"/>
</g>
<!-- Node16&#45;&gt;Node5 -->
<g id="edge16" class="edge"><title>Node16&#45;&gt;Node5</title>
<path fill="none" stroke="midnightblue" d="M386.736,-324.232C399.576,-321.044 414.766,-316.729 428,-311.5 457.778,-299.734 489.979,-281.919 511.295,-269.343"/>
<polygon fill="midnightblue" stroke="midnightblue" points="513.211,-272.275 519.999,-264.141 509.62,-266.266 513.211,-272.275"/>
</g>
</g>
</svg>
