<?xml version="1.0" encoding="UTF-8" standalone="no"?>
<!DOCTYPE svg PUBLIC "-//W3C//DTD SVG 1.1//EN"
 "http://www.w3.org/Graphics/SVG/1.1/DTD/svg11.dtd">
<!-- Generated by graphviz version 2.38.0 (20140413.2041)
 -->
<!-- Title: Graphical Class Hierarchy Pages: 1 -->
<svg width="218pt" height="256pt"
 viewBox="0.00 0.00 218.00 256.00" xmlns="http://www.w3.org/2000/svg" xmlns:xlink="http://www.w3.org/1999/xlink">
<g id="graph0" class="graph" transform="scale(1 1) rotate(0) translate(4 252)">
<title>Graphical Class Hierarchy</title>
<polygon fill="white" stroke="none" points="-4,4 -4,-252 214,-252 214,4 -4,4"/>
<!-- Node0 -->
<g id="node1" class="node"><title>Node0</title>
<g id="a_node1"><a xlink:href="d3/d43/class_entity_wrapper.html" target="_top" xlink:title=" ">
<polygon fill="white" stroke="black" points="0,-114.5 0,-133.5 79,-133.5 79,-114.5 0,-114.5"/>
<text text-anchor="middle" x="39.5" y="-121.5" font-family="Helvetica,sans-Serif" font-size="10.00">EntityWrapper</text>
</a>
</g>
</g>
<!-- Node1 -->
<g id="node2" class="node"><title>Node1</title>
<g id="a_node2"><a xlink:href="de/d20/class_cube_trigger.html" target="_top" xlink:title=" ">
<polygon fill="white" stroke="black" points="128.5,-228.5 128.5,-247.5 196.5,-247.5 196.5,-228.5 128.5,-228.5"/>
<text text-anchor="middle" x="162.5" y="-235.5" font-family="Helvetica,sans-Serif" font-size="10.00">CubeTrigger</text>
</a>
</g>
</g>
<!-- Node0&#45;&gt;Node1 -->
<g id="edge1" class="edge"><title>Node0&#45;&gt;Node1</title>
<path fill="none" stroke="midnightblue" d="M50.8433,-142.348C63.5322,-163.402 86.8614,-197.749 115,-219 119.871,-222.679 125.556,-225.767 131.244,-228.311"/>
<polygon fill="midnightblue" stroke="midnightblue" points="53.856,-140.567 45.783,-133.706 47.8153,-144.104 53.856,-140.567"/>
</g>
<!-- Node2 -->
<g id="node3" class="node"><title>Node2</title>
<g id="a_node3"><a xlink:href="da/d1b/class_enemy_test_object.html" target="_top" xlink:title=" ">
<polygon fill="white" stroke="black" points="115,-190.5 115,-209.5 210,-209.5 210,-190.5 115,-190.5"/>
<text text-anchor="middle" x="162.5" y="-197.5" font-family="Helvetica,sans-Serif" font-size="10.00">EnemyTestObject</text>
</a>
</g>
</g>
<!-- Node0&#45;&gt;Node2 -->
<g id="edge2" class="edge"><title>Node0&#45;&gt;Node2</title>
<path fill="none" stroke="midnightblue" d="M59.1854,-140.543C73.6893,-152.811 94.6854,-169.355 115,-181 121.053,-184.47 127.864,-187.626 134.368,-190.326"/>
<polygon fill="midnightblue" stroke="midnightblue" points="61.3122,-137.756 51.4501,-133.884 56.7452,-143.061 61.3122,-137.756"/>
</g>
<!-- Node3 -->
<g id="node4" class="node"><title>Node3</title>
<g id="a_node4"><a xlink:href="da/d3c/class_floor_object.html" target="_top" xlink:title=" ">
<polygon fill="white" stroke="black" points="129,-152.5 129,-171.5 196,-171.5 196,-152.5 129,-152.5"/>
<text text-anchor="middle" x="162.5" y="-159.5" font-family="Helvetica,sans-Serif" font-size="10.00">FloorObject</text>
</a>
</g>
</g>
<!-- Node0&#45;&gt;Node3 -->
<g id="edge3" class="edge"><title>Node0&#45;&gt;Node3</title>
<path fill="none" stroke="midnightblue" d="M80.8771,-136.68C97.2262,-141.815 115.788,-147.644 130.976,-152.414"/>
<polygon fill="midnightblue" stroke="midnightblue" points="81.6227,-133.246 71.0334,-133.589 79.5253,-139.924 81.6227,-133.246"/>
</g>
<!-- Node4 -->
<g id="node5" class="node"><title>Node4</title>
<g id="a_node5"><a xlink:href="d1/d45/class_light_test.html" target="_top" xlink:title=" ">
<polygon fill="white" stroke="black" points="134.5,-114.5 134.5,-133.5 190.5,-133.5 190.5,-114.5 134.5,-114.5"/>
<text text-anchor="middle" x="162.5" y="-121.5" font-family="Helvetica,sans-Serif" font-size="10.00">LightTest</text>
</a>
</g>
</g>
<!-- Node0&#45;&gt;Node4 -->
<g id="edge4" class="edge"><title>Node0&#45;&gt;Node4</title>
<path fill="none" stroke="midnightblue" d="M89.4968,-124C104.797,-124 121.116,-124 134.343,-124"/>
<polygon fill="midnightblue" stroke="midnightblue" points="89.1179,-120.5 79.1178,-124 89.1178,-127.5 89.1179,-120.5"/>
</g>
<!-- Node5 -->
<g id="node6" class="node"><title>Node5</title>
<g id="a_node6"><a xlink:href="d7/dbc/class_particle_test.html" target="_top" xlink:title=" ">
<polygon fill="white" stroke="black" points="128.5,-76.5 128.5,-95.5 196.5,-95.5 196.5,-76.5 128.5,-76.5"/>
<text text-anchor="middle" x="162.5" y="-83.5" font-family="Helvetica,sans-Serif" font-size="10.00">ParticleTest</text>
</a>
</g>
</g>
<!-- Node0&#45;&gt;Node5 -->
<g id="edge5" class="edge"><title>Node0&#45;&gt;Node5</title>
<path fill="none" stroke="midnightblue" d="M80.8771,-111.32C97.2262,-106.185 115.788,-100.356 130.976,-95.5859"/>
<polygon fill="midnightblue" stroke="midnightblue" points="79.5253,-108.076 71.0334,-114.411 81.6227,-114.754 79.5253,-108.076"/>
</g>
<!-- Node6 -->
<g id="node7" class="node"><title>Node6</title>
<g id="a_node7"><a xlink:href="d8/d53/class_player.html" target="_top" xlink:title=" ">
<polygon fill="white" stroke="black" points="140.5,-38.5 140.5,-57.5 184.5,-57.5 184.5,-38.5 140.5,-38.5"/>
<text text-anchor="middle" x="162.5" y="-45.5" font-family="Helvetica,sans-Serif" font-size="10.00">Player</text>
</a>
</g>
</g>
<!-- Node0&#45;&gt;Node6 -->
<g id="edge6" class="edge"><title>Node0&#45;&gt;Node6</title>
<path fill="none" stroke="midnightblue" d="M59.1854,-107.457C73.6893,-95.1895 94.6854,-78.6448 115,-67 122.869,-62.4895 132.018,-58.5081 140.11,-55.3702"/>
<polygon fill="midnightblue" stroke="midnightblue" points="56.7452,-104.939 51.4501,-114.116 61.3122,-110.244 56.7452,-104.939"/>
</g>
<!-- Node7 -->
<g id="node8" class="node"><title>Node7</title>
<g id="a_node8"><a xlink:href="db/dd3/class_player_test_object.html" target="_top" xlink:title=" ">
<polygon fill="white" stroke="black" points="116.5,-0.5 116.5,-19.5 208.5,-19.5 208.5,-0.5 116.5,-0.5"/>
<text text-anchor="middle" x="162.5" y="-7.5" font-family="Helvetica,sans-Serif" font-size="10.00">PlayerTestObject</text>
</a>
</g>
</g>
<!-- Node0&#45;&gt;Node7 -->
<g id="edge7" class="edge"><title>Node0&#45;&gt;Node7</title>
<path fill="none" stroke="midnightblue" d="M50.8433,-105.652C63.5322,-84.5982 86.8614,-50.2506 115,-29 119.871,-25.321 125.556,-22.2334 131.244,-19.6888"/>
<polygon fill="midnightblue" stroke="midnightblue" points="47.8153,-103.896 45.783,-114.294 53.856,-107.433 47.8153,-103.896"/>
</g>
</g>
</svg>
