<?xml version="1.0" encoding="UTF-8" standalone="no"?>
<!DOCTYPE svg PUBLIC "-//W3C//DTD SVG 1.1//EN"
 "http://www.w3.org/Graphics/SVG/1.1/DTD/svg11.dtd">
<!-- Generated by graphviz version 2.38.0 (20140413.2041)
 -->
<!-- Title: RenderingSystem::prepareShader Pages: 1 -->
<!--zoomable 521 -->
<svg id="main" version="1.1" xmlns="http://www.w3.org/2000/svg" xmlns:xlink="http://www.w3.org/1999/xlink" xml:space="preserve" onload="init(evt)">
<style type="text/css"><![CDATA[
.edge:hover path { stroke: red; }
.edge:hover polygon { stroke: red; fill: red; }
]]></style>
<script type="text/javascript"><![CDATA[
var edges = document.getElementsByTagName('g');
if (edges && edges.length) {
  for (var i=0;i<edges.length;i++) {
    if (edges[i].id.substr(0,4)=='edge') {
      edges[i].setAttribute('class','edge');
    }
  }
}
]]></script>
        <defs>
                <circle id="rim" cx="0" cy="0" r="7"/>
                <circle id="rim2" cx="0" cy="0" r="3.5"/>
                <g id="zoomPlus">
                        <use xlink:href="#rim" fill="#404040">
                                <set attributeName="fill" to="#808080" begin="zoomplus.mouseover" end="zoomplus.mouseout"/>
                        </use>
                        <path d="M-4,0h8M0,-4v8" fill="none" stroke="white" stroke-width="1.5" pointer-events="none"/>
                </g>
                <g id="zoomMin">
                        <use xlink:href="#rim" fill="#404040">
                                <set attributeName="fill" to="#808080" begin="zoomminus.mouseover" end="zoomminus.mouseout"/>
                        </use>
                        <path d="M-4,0h8" fill="none" stroke="white" stroke-width="1.5" pointer-events="none"/>
                </g>
                <g id="dirArrow">
                        <path fill="none" stroke="white" stroke-width="1.5" d="M0,-3.0v7 M-2.5,-0.5L0,-3.0L2.5,-0.5"/>
                </g>
               <g id="resetDef">
                       <use xlink:href="#rim2" fill="#404040">
                               <set attributeName="fill" to="#808080" begin="reset.mouseover" end="reset.mouseout"/>
                       </use>
               </g>
        </defs>

<script type="text/javascript">
var viewWidth = 867;
var viewHeight = 521;
var sectionId = 'dynsection-7';
</script>
<script xlink:href="../../svgpan.js"/>
<svg id="graph" class="graph">
<g id="viewport">
<title>RenderingSystem::prepareShader</title>
<polygon fill="white" stroke="none" points="-4,4 -4,-517.374 863,-517.374 863,4 -4,4"/>
<!-- Node1 -->
<g id="node1" class="node"><title>Node1</title>
<g id="a_node1"><a xlink:title=" ">
<polygon fill="#bfbfbf" stroke="black" points="0,-391.374 0,-421.374 132,-421.374 132,-391.374 0,-391.374"/>
<text text-anchor="start" x="8" y="-409.374" font-family="Helvetica,sans-Serif" font-size="10.00">RenderingSystem::prepare</text>
<text text-anchor="middle" x="66" y="-398.374" font-family="Helvetica,sans-Serif" font-size="10.00">Shader</text>
</a>
</g>
</g>
<!-- Node2 -->
<g id="node2" class="node"><title>Node2</title>
<g id="a_node2"><a xlink:href="../../d6/db5/class_scene.html#a65d6f6cd75b250c657d5d4a267c4b245" target="_top" xlink:title=" ">
<polygon fill="white" stroke="black" points="181,-491.874 181,-510.874 294,-510.874 294,-491.874 181,-491.874"/>
<text text-anchor="middle" x="237.5" y="-498.874" font-family="Helvetica,sans-Serif" font-size="10.00">Scene::getComponent</text>
</a>
</g>
</g>
<!-- Node1&#45;&gt;Node2 -->
<g id="edge1" class="edge"><title>Node1&#45;&gt;Node2</title>
<path fill="none" stroke="midnightblue" d="M83.2145,-421.67C102.162,-438.769 135.127,-466.175 168,-482.374 172.655,-484.667 177.628,-486.72 182.691,-488.549"/>
<polygon fill="midnightblue" stroke="midnightblue" points="181.88,-491.968 192.474,-491.795 184.085,-485.324 181.88,-491.968"/>
</g>
<!-- Node5 -->
<g id="node5" class="node"><title>Node5</title>
<g id="a_node5"><a xlink:href="../../d1/d51/class_shader.html#ada25ec99a5f34bf0d209ab43448c42cc" target="_top" xlink:title=" ">
<polygon fill="white" stroke="black" points="178,-415.874 178,-434.874 297,-434.874 297,-415.874 178,-415.874"/>
<text text-anchor="middle" x="237.5" y="-422.874" font-family="Helvetica,sans-Serif" font-size="10.00">Shader::getShaderType</text>
</a>
</g>
</g>
<!-- Node1&#45;&gt;Node5 -->
<g id="edge4" class="edge"><title>Node1&#45;&gt;Node5</title>
<path fill="none" stroke="midnightblue" d="M132.048,-413.665C143.674,-414.968 155.823,-416.33 167.553,-417.645"/>
<polygon fill="midnightblue" stroke="midnightblue" points="167.402,-421.15 177.73,-418.786 168.182,-414.193 167.402,-421.15"/>
</g>
<!-- Node6 -->
<g id="node6" class="node"><title>Node6</title>
<g id="a_node6"><a xlink:href="../../d6/db5/class_scene.html#abf64aceaf6865fa864f0fd9dd18f4fb8" target="_top" xlink:title=" ">
<polygon fill="white" stroke="black" points="182.5,-453.874 182.5,-472.874 292.5,-472.874 292.5,-453.874 182.5,-453.874"/>
<text text-anchor="middle" x="237.5" y="-460.874" font-family="Helvetica,sans-Serif" font-size="10.00">Scene::isEntityActive</text>
</a>
</g>
</g>
<!-- Node1&#45;&gt;Node6 -->
<g id="edge5" class="edge"><title>Node1&#45;&gt;Node6</title>
<path fill="none" stroke="midnightblue" d="M104.606,-421.436C123.49,-428.765 146.804,-437.462 168,-444.374 175.018,-446.662 182.496,-448.918 189.836,-451.032"/>
<polygon fill="midnightblue" stroke="midnightblue" points="189.128,-454.469 199.703,-453.817 191.029,-447.733 189.128,-454.469"/>
</g>
<!-- Node7 -->
<g id="node7" class="node"><title>Node7</title>
<g id="a_node7"><a xlink:href="../../d8/d31/class_rendering_system.html#a05f635d7510f575548938326c6c1b550" target="_top" xlink:title=" ">
<polygon fill="white" stroke="black" points="349.5,-330.374 349.5,-360.374 507.5,-360.374 507.5,-330.374 349.5,-330.374"/>
<text text-anchor="start" x="357.5" y="-348.374" font-family="Helvetica,sans-Serif" font-size="10.00">RenderingSystem::supplyDefault</text>
<text text-anchor="middle" x="428.5" y="-337.374" font-family="Helvetica,sans-Serif" font-size="10.00">ShaderUniforms</text>
</a>
</g>
</g>
<!-- Node1&#45;&gt;Node7 -->
<g id="edge7" class="edge"><title>Node1&#45;&gt;Node7</title>
<path fill="none" stroke="midnightblue" d="M99.9645,-391.371C119.369,-383.203 144.619,-373.703 168,-368.374 224.107,-355.583 288.544,-349.826 339.171,-347.269"/>
<polygon fill="midnightblue" stroke="midnightblue" points="339.607,-350.752 349.431,-346.785 339.277,-343.76 339.607,-350.752"/>
</g>
<!-- Node13 -->
<g id="node13" class="node"><title>Node13</title>
<g id="a_node13"><a xlink:href="../../d8/d31/class_rendering_system.html#a5174d014f3eaf6bbc2a3ac03a9029d76" target="_top" xlink:title=" ">
<polygon fill="white" stroke="black" points="168,-207.374 168,-237.374 307,-237.374 307,-207.374 168,-207.374"/>
<text text-anchor="start" x="176" y="-225.374" font-family="Helvetica,sans-Serif" font-size="10.00">RenderingSystem::supplyLit</text>
<text text-anchor="middle" x="237.5" y="-214.374" font-family="Helvetica,sans-Serif" font-size="10.00">ShaderUniforms</text>
</a>
</g>
</g>
<!-- Node1&#45;&gt;Node13 -->
<g id="edge13" class="edge"><title>Node1&#45;&gt;Node13</title>
<path fill="none" stroke="midnightblue" d="M80.8709,-391.316C110.618,-359.024 180.685,-282.963 215.751,-244.898"/>
<polygon fill="midnightblue" stroke="midnightblue" points="218.474,-247.107 222.675,-237.381 213.326,-242.365 218.474,-247.107"/>
</g>
<!-- Node20 -->
<g id="node20" class="node"><title>Node20</title>
<g id="a_node20"><a xlink:href="../../d1/d51/class_shader.html#a78dd190177e9d0062d150da522ab3125" target="_top" xlink:title=" ">
<polygon fill="white" stroke="black" points="184.5,-377.874 184.5,-396.874 290.5,-396.874 290.5,-377.874 184.5,-377.874"/>
<text text-anchor="middle" x="237.5" y="-384.874" font-family="Helvetica,sans-Serif" font-size="10.00">Shader::useProgram</text>
</a>
</g>
</g>
<!-- Node1&#45;&gt;Node20 -->
<g id="edge23" class="edge"><title>Node1&#45;&gt;Node20</title>
<path fill="none" stroke="midnightblue" d="M132.048,-399.082C145.812,-397.539 160.309,-395.914 173.976,-394.382"/>
<polygon fill="midnightblue" stroke="midnightblue" points="174.692,-397.824 184.24,-393.232 173.912,-390.867 174.692,-397.824"/>
</g>
<!-- Node3 -->
<g id="node3" class="node"><title>Node3</title>
<g id="a_node3"><a xlink:href="../../d6/db5/class_scene.html#af06ab78544ec997fd8e480762b2cc40a" target="_top" xlink:title=" ">
<polygon fill="white" stroke="black" points="343,-493.874 343,-512.874 514,-512.874 514,-493.874 343,-493.874"/>
<text text-anchor="middle" x="428.5" y="-500.874" font-family="Helvetica,sans-Serif" font-size="10.00">Scene::binarySearchForComponent</text>
</a>
</g>
</g>
<!-- Node2&#45;&gt;Node3 -->
<g id="edge2" class="edge"><title>Node2&#45;&gt;Node3</title>
<path fill="none" stroke="midnightblue" d="M294.184,-501.963C306.332,-502.091 319.515,-502.231 332.706,-502.37"/>
<polygon fill="midnightblue" stroke="midnightblue" points="332.742,-505.871 342.778,-502.477 332.816,-498.871 332.742,-505.871"/>
</g>
<!-- Node4 -->
<g id="node4" class="node"><title>Node4</title>
<g id="a_node4"><a xlink:href="../../d6/db5/class_scene.html#a55c346bea3f04eb9d9f8476a68c2fa93" target="_top" xlink:title=" ">
<polygon fill="white" stroke="black" points="355,-455.874 355,-474.874 502,-474.874 502,-455.874 355,-455.874"/>
<text text-anchor="middle" x="428.5" y="-462.874" font-family="Helvetica,sans-Serif" font-size="10.00">Scene::binarySearchForEntity</text>
</a>
</g>
</g>
<!-- Node2&#45;&gt;Node4 -->
<g id="edge3" class="edge"><title>Node2&#45;&gt;Node4</title>
<path fill="none" stroke="midnightblue" d="M288.652,-491.821C312.885,-487.205 342.149,-481.631 367.551,-476.792"/>
<polygon fill="midnightblue" stroke="midnightblue" points="368.273,-480.218 377.442,-474.908 366.963,-473.341 368.273,-480.218"/>
</g>
<!-- Node6&#45;&gt;Node4 -->
<g id="edge6" class="edge"><title>Node6&#45;&gt;Node4</title>
<path fill="none" stroke="midnightblue" d="M292.66,-463.947C308.799,-464.117 326.872,-464.309 344.412,-464.494"/>
<polygon fill="midnightblue" stroke="midnightblue" points="344.622,-467.997 354.659,-464.603 344.697,-460.997 344.622,-467.997"/>
</g>
<!-- Node8 -->
<g id="node8" class="node"><title>Node8</title>
<g id="a_node8"><a xlink:href="../../d1/d51/class_shader.html#a240b7ecb19883fa340489840733eae6d" target="_top" xlink:title=" ">
<polygon fill="white" stroke="black" points="564.5,-379.874 564.5,-398.874 677.5,-398.874 677.5,-379.874 564.5,-379.874"/>
<text text-anchor="middle" x="621" y="-386.874" font-family="Helvetica,sans-Serif" font-size="10.00">Shader::getProgramID</text>
</a>
</g>
</g>
<!-- Node7&#45;&gt;Node8 -->
<g id="edge8" class="edge"><title>Node7&#45;&gt;Node8</title>
<path fill="none" stroke="midnightblue" d="M494.526,-360.393C518.844,-366.009 546.095,-372.303 568.971,-377.587"/>
<polygon fill="midnightblue" stroke="midnightblue" points="568.284,-381.021 578.816,-379.861 569.86,-374.2 568.284,-381.021"/>
</g>
<!-- Node9 -->
<g id="node9" class="node"><title>Node9</title>
<g id="a_node9"><a xlink:href="../../da/dbb/class_camera.html#a587090d0991afb2c6b44bcefd379f2a1" target="_top" xlink:title=" ">
<polygon fill="white" stroke="black" points="551,-300.874 551,-319.874 691,-319.874 691,-300.874 551,-300.874"/>
<text text-anchor="middle" x="621" y="-307.874" font-family="Helvetica,sans-Serif" font-size="10.00">Camera::getProjectionMatrix</text>
</a>
</g>
</g>
<!-- Node7&#45;&gt;Node9 -->
<g id="edge9" class="edge"><title>Node7&#45;&gt;Node9</title>
<path fill="none" stroke="midnightblue" d="M507.533,-331.037C524.467,-327.926 542.151,-324.677 558.348,-321.701"/>
<polygon fill="midnightblue" stroke="midnightblue" points="559.018,-325.136 568.221,-319.887 557.753,-318.251 559.018,-325.136"/>
</g>
<!-- Node10 -->
<g id="node10" class="node"><title>Node10</title>
<g id="a_node10"><a xlink:href="../../d7/da2/namespace_shaders.html#aaa649eb98b860170946f582b8e93c12d" target="_top" xlink:title=" ">
<polygon fill="white" stroke="black" points="550,-131.874 550,-150.874 692,-150.874 692,-131.874 550,-131.874"/>
<text text-anchor="middle" x="621" y="-138.874" font-family="Helvetica,sans-Serif" font-size="10.00">Shaders::getUniformLocation</text>
</a>
</g>
</g>
<!-- Node7&#45;&gt;Node10 -->
<g id="edge10" class="edge"><title>Node7&#45;&gt;Node10</title>
<path fill="none" stroke="midnightblue" d="M497.722,-330.249C503.522,-327.49 509.052,-324.229 514,-320.374 568.972,-277.542 601.295,-197.587 613.882,-160.803"/>
<polygon fill="midnightblue" stroke="midnightblue" points="617.224,-161.842 617.035,-151.249 610.577,-159.648 617.224,-161.842"/>
</g>
<!-- Node12 -->
<g id="node12" class="node"><title>Node12</title>
<g id="a_node12"><a xlink:href="../../da/dbb/class_camera.html#a1d11fe156faf5a21c8737aa37f72af5c" target="_top" xlink:title=" ">
<polygon fill="white" stroke="black" points="562,-338.874 562,-357.874 680,-357.874 680,-338.874 562,-338.874"/>
<text text-anchor="middle" x="621" y="-345.874" font-family="Helvetica,sans-Serif" font-size="10.00">Camera::getViewMatrix</text>
</a>
</g>
</g>
<!-- Node7&#45;&gt;Node12 -->
<g id="edge12" class="edge"><title>Node7&#45;&gt;Node12</title>
<path fill="none" stroke="midnightblue" d="M507.533,-346.602C522.168,-346.833 537.364,-347.072 551.676,-347.298"/>
<polygon fill="midnightblue" stroke="midnightblue" points="551.867,-350.801 561.921,-347.459 551.977,-343.802 551.867,-350.801"/>
</g>
<!-- Node11 -->
<g id="node11" class="node"><title>Node11</title>
<g id="a_node11"><a xlink:href="../../d7/da2/namespace_shaders.html#a25a80e81a8051ed31ecab4ed167b0be8" target="_top" xlink:title=" ">
<polygon fill="white" stroke="black" points="728,-131.874 728,-150.874 859,-150.874 859,-131.874 728,-131.874"/>
<text text-anchor="middle" x="793.5" y="-138.874" font-family="Helvetica,sans-Serif" font-size="10.00">Shaders::getUniformName</text>
</a>
</g>
</g>
<!-- Node10&#45;&gt;Node11 -->
<g id="edge11" class="edge"><title>Node10&#45;&gt;Node11</title>
<path fill="none" stroke="midnightblue" d="M692.333,-141.374C700.681,-141.374 709.225,-141.374 717.633,-141.374"/>
<polygon fill="midnightblue" stroke="midnightblue" points="717.798,-144.874 727.798,-141.374 717.798,-137.874 717.798,-144.874"/>
</g>
<!-- Node13&#45;&gt;Node7 -->
<g id="edge22" class="edge"><title>Node13&#45;&gt;Node7</title>
<path fill="none" stroke="midnightblue" d="M250.692,-237.629C268.674,-259.142 304.375,-298.233 343,-320.374 346.837,-322.573 350.884,-324.594 355.046,-326.45"/>
<polygon fill="midnightblue" stroke="midnightblue" points="353.723,-329.69 364.303,-330.252 356.382,-323.215 353.723,-329.69"/>
</g>
<!-- Node13&#45;&gt;Node8 -->
<g id="edge19" class="edge"><title>Node13&#45;&gt;Node8</title>
<path fill="none" stroke="midnightblue" d="M244.027,-237.379C256.337,-268.382 289.238,-339.129 343,-369.374 407.85,-405.856 495.174,-405.621 554.31,-399.68"/>
<polygon fill="midnightblue" stroke="midnightblue" points="554.717,-403.156 564.281,-398.598 553.961,-396.197 554.717,-403.156"/>
</g>
<!-- Node13&#45;&gt;Node10 -->
<g id="edge20" class="edge"><title>Node13&#45;&gt;Node10</title>
<path fill="none" stroke="midnightblue" d="M241.163,-207.262C248.854,-168.76 275.051,-67.1493 343,-26.3735 408.167,12.7325 444.392,4.13324 514,-26.3735 559.184,-46.1761 593.625,-95.7955 609.812,-122.934"/>
<polygon fill="midnightblue" stroke="midnightblue" points="606.908,-124.905 614.936,-131.819 612.972,-121.407 606.908,-124.905"/>
</g>
<!-- Node14 -->
<g id="node14" class="node"><title>Node14</title>
<g id="a_node14"><a xlink:href="../../d1/d18/class_point_light_shadow_map.html#a5a66d2c74b522661c5b6abc97f8616e4" target="_top" xlink:title=" ">
<polygon fill="white" stroke="black" points="372,-36.3735 372,-66.3735 485,-66.3735 485,-36.3735 372,-36.3735"/>
<text text-anchor="start" x="380" y="-54.3735" font-family="Helvetica,sans-Serif" font-size="10.00">PointLightShadowMap</text>
<text text-anchor="middle" x="428.5" y="-43.3735" font-family="Helvetica,sans-Serif" font-size="10.00">::getCubeMap</text>
</a>
</g>
</g>
<!-- Node13&#45;&gt;Node14 -->
<g id="edge14" class="edge"><title>Node13&#45;&gt;Node14</title>
<path fill="none" stroke="midnightblue" d="M244.976,-207.311C258.597,-177.448 293.121,-110.59 343,-75.3735 348.91,-71.2009 355.531,-67.7506 362.397,-64.8982"/>
<polygon fill="midnightblue" stroke="midnightblue" points="363.72,-68.1403 371.867,-61.3675 361.274,-61.5813 363.72,-68.1403"/>
</g>
<!-- Node15 -->
<g id="node15" class="node"><title>Node15</title>
<g id="a_node15"><a xlink:href="../../d1/d18/class_point_light_shadow_map.html#a82ab32ada2ef851e004372b3dbb41c6f" target="_top" xlink:title=" ">
<polygon fill="white" stroke="black" points="366.5,-281.374 366.5,-311.374 490.5,-311.374 490.5,-281.374 366.5,-281.374"/>
<text text-anchor="start" x="374.5" y="-299.374" font-family="Helvetica,sans-Serif" font-size="10.00">PointLightShadowMap</text>
<text text-anchor="middle" x="428.5" y="-288.374" font-family="Helvetica,sans-Serif" font-size="10.00">::getCurrentLightPosition</text>
</a>
</g>
</g>
<!-- Node13&#45;&gt;Node15 -->
<g id="edge15" class="edge"><title>Node13&#45;&gt;Node15</title>
<path fill="none" stroke="midnightblue" d="M267.716,-237.525C288.392,-247.886 316.963,-261.482 343,-271.374 349.246,-273.746 355.82,-276.037 362.428,-278.205"/>
<polygon fill="midnightblue" stroke="midnightblue" points="361.51,-281.585 372.1,-281.288 363.636,-274.916 361.51,-281.585"/>
</g>
<!-- Node16 -->
<g id="node16" class="node"><title>Node16</title>
<g id="a_node16"><a xlink:href="../../dc/d22/class_directional_light_shadow_map.html#aabacf708dc2f0d7933a0128375288e7b" target="_top" xlink:title=" ">
<polygon fill="white" stroke="black" points="360,-232.374 360,-262.374 497,-262.374 497,-232.374 360,-232.374"/>
<text text-anchor="start" x="368" y="-250.374" font-family="Helvetica,sans-Serif" font-size="10.00">DirectionalLightShadowMap</text>
<text text-anchor="middle" x="428.5" y="-239.374" font-family="Helvetica,sans-Serif" font-size="10.00">::getDepthMap</text>
</a>
</g>
</g>
<!-- Node13&#45;&gt;Node16 -->
<g id="edge16" class="edge"><title>Node13&#45;&gt;Node16</title>
<path fill="none" stroke="midnightblue" d="M307.001,-231.434C320.857,-233.267 335.522,-235.207 349.672,-237.079"/>
<polygon fill="midnightblue" stroke="midnightblue" points="349.493,-240.586 359.866,-238.427 350.411,-233.646 349.493,-240.586"/>
</g>
<!-- Node17 -->
<g id="node17" class="node"><title>Node17</title>
<g id="a_node17"><a xlink:href="../../d1/d18/class_point_light_shadow_map.html#a6cc8cb9da80b9641eefd0a67c5bf9d40" target="_top" xlink:title=" ">
<polygon fill="white" stroke="black" points="372,-183.374 372,-213.374 485,-213.374 485,-183.374 372,-183.374"/>
<text text-anchor="start" x="380" y="-201.374" font-family="Helvetica,sans-Serif" font-size="10.00">PointLightShadowMap</text>
<text text-anchor="middle" x="428.5" y="-190.374" font-family="Helvetica,sans-Serif" font-size="10.00">::getFarPlane</text>
</a>
</g>
</g>
<!-- Node13&#45;&gt;Node17 -->
<g id="edge17" class="edge"><title>Node13&#45;&gt;Node17</title>
<path fill="none" stroke="midnightblue" d="M307.001,-213.675C324.839,-211.41 344.018,-208.974 361.713,-206.727"/>
<polygon fill="midnightblue" stroke="midnightblue" points="362.459,-210.161 371.938,-205.429 361.577,-203.217 362.459,-210.161"/>
</g>
<!-- Node18 -->
<g id="node18" class="node"><title>Node18</title>
<g id="a_node18"><a xlink:href="../../dc/d22/class_directional_light_shadow_map.html#a0bb613e68ebdc59f2460f1dafcb6f663" target="_top" xlink:title=" ">
<polygon fill="white" stroke="black" points="360,-134.374 360,-164.374 497,-164.374 497,-134.374 360,-134.374"/>
<text text-anchor="start" x="368" y="-152.374" font-family="Helvetica,sans-Serif" font-size="10.00">DirectionalLightShadowMap</text>
<text text-anchor="middle" x="428.5" y="-141.374" font-family="Helvetica,sans-Serif" font-size="10.00">::getLightSpaceMatrix</text>
</a>
</g>
</g>
<!-- Node13&#45;&gt;Node18 -->
<g id="edge18" class="edge"><title>Node13&#45;&gt;Node18</title>
<path fill="none" stroke="midnightblue" d="M267.237,-207.357C287.932,-196.927 316.722,-183.193 343,-173.374 348.491,-171.322 354.238,-169.345 360.041,-167.467"/>
<polygon fill="midnightblue" stroke="midnightblue" points="361.325,-170.732 369.823,-164.404 359.234,-164.052 361.325,-170.732"/>
</g>
<!-- Node19 -->
<g id="node19" class="node"><title>Node19</title>
<g id="a_node19"><a xlink:href="../../d1/d18/class_point_light_shadow_map.html#af244720f5c3aa11b7110c8a74adf2a9d" target="_top" xlink:title=" ">
<polygon fill="white" stroke="black" points="372,-85.3735 372,-115.374 485,-115.374 485,-85.3735 372,-85.3735"/>
<text text-anchor="start" x="380" y="-103.374" font-family="Helvetica,sans-Serif" font-size="10.00">PointLightShadowMap</text>
<text text-anchor="middle" x="428.5" y="-92.3735" font-family="Helvetica,sans-Serif" font-size="10.00">::isActive</text>
</a>
</g>
</g>
<!-- Node13&#45;&gt;Node19 -->
<g id="edge21" class="edge"><title>Node13&#45;&gt;Node19</title>
<path fill="none" stroke="midnightblue" d="M250.659,-207.061C268.601,-185.478 304.254,-146.303 343,-124.374 348.975,-120.992 355.461,-118.058 362.094,-115.518"/>
<polygon fill="midnightblue" stroke="midnightblue" points="363.606,-118.696 371.875,-112.073 361.28,-112.094 363.606,-118.696"/>
</g>
<!-- Node20&#45;&gt;Node8 -->
<g id="edge24" class="edge"><title>Node20&#45;&gt;Node8</title>
<path fill="none" stroke="midnightblue" d="M290.412,-396.913C307.138,-399.559 325.797,-402.064 343,-403.374 418.781,-409.141 438.164,-408.36 514,-403.374 527.063,-402.515 540.973,-401.066 554.272,-399.419"/>
<polygon fill="midnightblue" stroke="midnightblue" points="554.828,-402.876 564.299,-398.127 553.933,-395.934 554.828,-402.876"/>
</g>
</g>
</svg>
        <g id="navigator" transform="translate(0 0)" fill="#404254">
                <rect fill="#f2f5e9" fill-opacity="0.5" stroke="#606060" stroke-width=".5" x="0" y="0" width="60" height="60"/>
                <use id="zoomplus" xlink:href="#zoomPlus" x="17" y="9" onmousedown="handleZoom(evt,'in')"/>
                <use id="zoomminus" xlink:href="#zoomMin" x="42" y="9" onmousedown="handleZoom(evt,'out')"/>
                <use id="reset" xlink:href="#resetDef" x="30" y="36" onmousedown="handleReset()"/>
                <g id="arrowUp" xlink:href="#dirArrow" transform="translate(30 24)" onmousedown="handlePan(0,-1)">
                  <use xlink:href="#rim" fill="#404040">
                        <set attributeName="fill" to="#808080" begin="arrowUp.mouseover" end="arrowUp.mouseout"/>
                  </use>
                  <path fill="none" stroke="white" stroke-width="1.5" d="M0,-3.0v7 M-2.5,-0.5L0,-3.0L2.5,-0.5"/>
                </g>
                <g id="arrowRight" xlink:href="#dirArrow" transform="rotate(90) translate(36 -43)" onmousedown="handlePan(1,0)">
                  <use xlink:href="#rim" fill="#404040">
                        <set attributeName="fill" to="#808080" begin="arrowRight.mouseover" end="arrowRight.mouseout"/>
                  </use>
                  <path fill="none" stroke="white" stroke-width="1.5" d="M0,-3.0v7 M-2.5,-0.5L0,-3.0L2.5,-0.5"/>
                </g>
                <g id="arrowDown" xlink:href="#dirArrow" transform="rotate(180) translate(-30 -48)" onmousedown="handlePan(0,1)">
                  <use xlink:href="#rim" fill="#404040">
                        <set attributeName="fill" to="#808080" begin="arrowDown.mouseover" end="arrowDown.mouseout"/>
                  </use>
                  <path fill="none" stroke="white" stroke-width="1.5" d="M0,-3.0v7 M-2.5,-0.5L0,-3.0L2.5,-0.5"/>
                </g>
                <g id="arrowLeft" xlink:href="#dirArrow" transform="rotate(270) translate(-36 17)" onmousedown="handlePan(-1,0)">
                  <use xlink:href="#rim" fill="#404040">
                        <set attributeName="fill" to="#808080" begin="arrowLeft.mouseover" end="arrowLeft.mouseout"/>
                  </use>
                  <path fill="none" stroke="white" stroke-width="1.5" d="M0,-3.0v7 M-2.5,-0.5L0,-3.0L2.5,-0.5"/>
                </g>
        </g>
        <svg viewBox="0 0 15 15" width="100%" height="30px" preserveAspectRatio="xMaxYMin meet">
         <g id="arrow_out" transform="scale(0.3 0.3)">
          <a xlink:href="class_rendering_system_a167a571527b6f44e8c4bf45f383500be_cgraph_org.svg" target="_base">
           <rect id="button" ry="5" rx="5" y="6" x="6" height="38" width="38"
                fill="#f2f5e9" fill-opacity="0.5" stroke="#606060" stroke-width="1.0"/>
           <path id="arrow"
             d="M 11.500037,31.436501 C 11.940474,20.09759 22.043105,11.32322 32.158766,21.979434 L 37.068811,17.246167 C 37.068811,17.246167 37.088388,32 37.088388,32 L 22.160133,31.978069 C 22.160133,31.978069 26.997745,27.140456 26.997745,27.140456 C 18.528582,18.264221 13.291696,25.230495 11.500037,31.436501 z"
             style="fill:#404040;"/>
          </a>
         </g>
        </svg>
</svg>
