<?xml version="1.0" encoding="UTF-8" standalone="no"?>
<!DOCTYPE svg PUBLIC "-//W3C//DTD SVG 1.1//EN"
 "http://www.w3.org/Graphics/SVG/1.1/DTD/svg11.dtd">
<!-- Generated by graphviz version 2.38.0 (20140413.2041)
 -->
<!-- Title: RenderingSystem::initializeLights Pages: 1 -->
<svg width="547pt" height="230pt"
 viewBox="0.00 0.00 547.00 230.00" xmlns="http://www.w3.org/2000/svg" xmlns:xlink="http://www.w3.org/1999/xlink">
<g id="graph0" class="graph" transform="scale(1 1) rotate(0) translate(4 226)">
<title>RenderingSystem::initializeLights</title>
<polygon fill="white" stroke="none" points="-4,4 -4,-226 543,-226 543,4 -4,4"/>
<!-- Node1 -->
<g id="node1" class="node"><title>Node1</title>
<g id="a_node1"><a xlink:title=" ">
<polygon fill="#bfbfbf" stroke="black" points="0,-109 0,-139 135,-139 135,-109 0,-109"/>
<text text-anchor="start" x="8" y="-127" font-family="Helvetica,sans-Serif" font-size="10.00">RenderingSystem::initialize</text>
<text text-anchor="middle" x="67.5" y="-116" font-family="Helvetica,sans-Serif" font-size="10.00">Lights</text>
</a>
</g>
</g>
<!-- Node2 -->
<g id="node2" class="node"><title>Node2</title>
<g id="a_node2"><a xlink:href="../../d6/db5/class_scene.html#ab267a4bad0eebc4fdc2ed4a57a2d16e2" target="_top" xlink:title=" ">
<polygon fill="white" stroke="black" points="171,-202.5 171,-221.5 332,-221.5 332,-202.5 171,-202.5"/>
<text text-anchor="middle" x="251.5" y="-209.5" font-family="Helvetica,sans-Serif" font-size="10.00">Scene::getAllComponentsOfType</text>
</a>
</g>
</g>
<!-- Node1&#45;&gt;Node2 -->
<g id="edge1" class="edge"><title>Node1&#45;&gt;Node2</title>
<path fill="none" stroke="midnightblue" d="M86.5766,-139.139C106.182,-154.818 138.982,-178.949 171,-193 176.714,-195.507 182.81,-197.714 188.988,-199.649"/>
<polygon fill="midnightblue" stroke="midnightblue" points="188.143,-203.048 198.723,-202.471 190.092,-196.325 188.143,-203.048"/>
</g>
<!-- Node4 -->
<g id="node4" class="node"><title>Node4</title>
<g id="a_node4"><a xlink:href="../../d6/db5/class_scene.html#ae05acfccb36d74a21bd4988a2b562ceb" target="_top" xlink:title=" ">
<polygon fill="white" stroke="black" points="172,-153 172,-183 331,-183 331,-153 172,-153"/>
<text text-anchor="start" x="180" y="-171" font-family="Helvetica,sans-Serif" font-size="10.00">Scene::getFirstActiveComponent</text>
<text text-anchor="middle" x="251.5" y="-160" font-family="Helvetica,sans-Serif" font-size="10.00">OfType</text>
</a>
</g>
</g>
<!-- Node1&#45;&gt;Node4 -->
<g id="edge3" class="edge"><title>Node1&#45;&gt;Node4</title>
<path fill="none" stroke="midnightblue" d="M130.625,-139.019C146.06,-142.751 162.732,-146.781 178.593,-150.616"/>
<polygon fill="midnightblue" stroke="midnightblue" points="177.804,-154.026 188.346,-152.974 179.449,-147.222 177.804,-154.026"/>
</g>
<!-- Node5 -->
<g id="node5" class="node"><title>Node5</title>
<g id="a_node5"><a xlink:href="../../d1/d51/class_shader.html#a0a3e2a13329ec3d960a086bf4427030f" target="_top" xlink:title=" ">
<polygon fill="white" stroke="black" points="184.5,-114.5 184.5,-133.5 318.5,-133.5 318.5,-114.5 184.5,-114.5"/>
<text text-anchor="middle" x="251.5" y="-121.5" font-family="Helvetica,sans-Serif" font-size="10.00">Shader::setDirectionalLight</text>
</a>
</g>
</g>
<!-- Node1&#45;&gt;Node5 -->
<g id="edge5" class="edge"><title>Node1&#45;&gt;Node5</title>
<path fill="none" stroke="midnightblue" d="M135.237,-124C147.885,-124 161.207,-124 174.126,-124"/>
<polygon fill="midnightblue" stroke="midnightblue" points="174.38,-127.5 184.38,-124 174.38,-120.5 174.38,-127.5"/>
</g>
<!-- Node8 -->
<g id="node8" class="node"><title>Node8</title>
<g id="a_node8"><a xlink:href="../../d1/d51/class_shader.html#a7b948b15c4dd01dda8fccead170a16f9" target="_top" xlink:title=" ">
<polygon fill="white" stroke="black" points="196.5,-76.5 196.5,-95.5 306.5,-95.5 306.5,-76.5 196.5,-76.5"/>
<text text-anchor="middle" x="251.5" y="-83.5" font-family="Helvetica,sans-Serif" font-size="10.00">Shader::setPointLight</text>
</a>
</g>
</g>
<!-- Node1&#45;&gt;Node8 -->
<g id="edge8" class="edge"><title>Node1&#45;&gt;Node8</title>
<path fill="none" stroke="midnightblue" d="M135.237,-110.066C154.844,-105.972 176.072,-101.54 194.903,-97.6081"/>
<polygon fill="midnightblue" stroke="midnightblue" points="195.728,-101.012 204.801,-95.5415 194.297,-94.1593 195.728,-101.012"/>
</g>
<!-- Node11 -->
<g id="node11" class="node"><title>Node11</title>
<g id="a_node11"><a xlink:href="../../d1/d51/class_shader.html#a78dd190177e9d0062d150da522ab3125" target="_top" xlink:title=" ">
<polygon fill="white" stroke="black" points="198.5,-19.5 198.5,-38.5 304.5,-38.5 304.5,-19.5 198.5,-19.5"/>
<text text-anchor="middle" x="251.5" y="-26.5" font-family="Helvetica,sans-Serif" font-size="10.00">Shader::useProgram</text>
</a>
</g>
</g>
<!-- Node1&#45;&gt;Node11 -->
<g id="edge12" class="edge"><title>Node1&#45;&gt;Node11</title>
<path fill="none" stroke="midnightblue" d="M94.8045,-108.785C115.368,-97.0344 144.767,-80.5472 171,-67 187.056,-58.7084 205.221,-49.978 220.131,-42.9791"/>
<polygon fill="midnightblue" stroke="midnightblue" points="221.822,-46.0525 229.403,-38.6519 218.861,-39.7092 221.822,-46.0525"/>
</g>
<!-- Node3 -->
<g id="node3" class="node"><title>Node3</title>
<g id="a_node3"><a xlink:href="../../d6/db5/class_scene.html#af06ab78544ec997fd8e480762b2cc40a" target="_top" xlink:title=" ">
<polygon fill="white" stroke="black" points="368,-196.5 368,-215.5 539,-215.5 539,-196.5 368,-196.5"/>
<text text-anchor="middle" x="453.5" y="-203.5" font-family="Helvetica,sans-Serif" font-size="10.00">Scene::binarySearchForComponent</text>
</a>
</g>
</g>
<!-- Node2&#45;&gt;Node3 -->
<g id="edge2" class="edge"><title>Node2&#45;&gt;Node3</title>
<path fill="none" stroke="midnightblue" d="M332.12,-209.611C340.576,-209.358 349.235,-209.098 357.841,-208.84"/>
<polygon fill="midnightblue" stroke="midnightblue" points="358.013,-212.336 367.904,-208.538 357.803,-205.339 358.013,-212.336"/>
</g>
<!-- Node4&#45;&gt;Node3 -->
<g id="edge4" class="edge"><title>Node4&#45;&gt;Node3</title>
<path fill="none" stroke="midnightblue" d="M331.258,-182.964C351.644,-186.837 373.264,-190.945 392.516,-194.603"/>
<polygon fill="midnightblue" stroke="midnightblue" points="391.87,-198.043 402.348,-196.471 393.177,-191.166 391.87,-198.043"/>
</g>
<!-- Node6 -->
<g id="node6" class="node"><title>Node6</title>
<g id="a_node6"><a xlink:href="../../d7/da2/namespace_shaders.html#a25a80e81a8051ed31ecab4ed167b0be8" target="_top" xlink:title=" ">
<polygon fill="white" stroke="black" points="388,-152.5 388,-171.5 519,-171.5 519,-152.5 388,-152.5"/>
<text text-anchor="middle" x="453.5" y="-159.5" font-family="Helvetica,sans-Serif" font-size="10.00">Shaders::getUniformName</text>
</a>
</g>
</g>
<!-- Node5&#45;&gt;Node6 -->
<g id="edge6" class="edge"><title>Node5&#45;&gt;Node6</title>
<path fill="none" stroke="midnightblue" d="M302.71,-133.54C329.933,-138.712 363.764,-145.14 392.383,-150.578"/>
<polygon fill="midnightblue" stroke="midnightblue" points="391.791,-154.028 402.269,-152.456 393.098,-147.151 391.791,-154.028"/>
</g>
<!-- Node7 -->
<g id="node7" class="node"><title>Node7</title>
<g id="a_node7"><a xlink:href="../../d1/d51/class_shader.html#a873f88df30cb970cd4dd96c261bb5f77" target="_top" xlink:title=" ">
<polygon fill="white" stroke="black" points="383.5,-114.5 383.5,-133.5 523.5,-133.5 523.5,-114.5 383.5,-114.5"/>
<text text-anchor="middle" x="453.5" y="-121.5" font-family="Helvetica,sans-Serif" font-size="10.00">Shader::supplyVec3fUniform</text>
</a>
</g>
</g>
<!-- Node5&#45;&gt;Node7 -->
<g id="edge7" class="edge"><title>Node5&#45;&gt;Node7</title>
<path fill="none" stroke="midnightblue" d="M318.542,-124C336.029,-124 355.088,-124 373.2,-124"/>
<polygon fill="midnightblue" stroke="midnightblue" points="373.441,-127.5 383.441,-124 373.441,-120.5 373.441,-127.5"/>
</g>
<!-- Node8&#45;&gt;Node7 -->
<g id="edge11" class="edge"><title>Node8&#45;&gt;Node7</title>
<path fill="none" stroke="midnightblue" d="M302.71,-95.54C329.933,-100.712 363.764,-107.14 392.383,-112.578"/>
<polygon fill="midnightblue" stroke="midnightblue" points="391.791,-116.028 402.269,-114.456 393.098,-109.151 391.791,-116.028"/>
</g>
<!-- Node9 -->
<g id="node9" class="node"><title>Node9</title>
<g id="a_node9"><a xlink:href="../../db/d2b/class_settings.html#ac25f3a418000ad7512363abe4d786c00" target="_top" xlink:title=" ">
<polygon fill="white" stroke="black" points="384,-76.5 384,-95.5 523,-95.5 523,-76.5 384,-76.5"/>
<text text-anchor="middle" x="453.5" y="-83.5" font-family="Helvetica,sans-Serif" font-size="10.00">Settings::getLightsPerEntity</text>
</a>
</g>
</g>
<!-- Node8&#45;&gt;Node9 -->
<g id="edge9" class="edge"><title>Node8&#45;&gt;Node9</title>
<path fill="none" stroke="midnightblue" d="M306.623,-86C327.189,-86 351.06,-86 373.461,-86"/>
<polygon fill="midnightblue" stroke="midnightblue" points="373.633,-89.5001 383.633,-86 373.633,-82.5001 373.633,-89.5001"/>
</g>
<!-- Node10 -->
<g id="node10" class="node"><title>Node10</title>
<g id="a_node10"><a xlink:href="../../d1/d51/class_shader.html#af7b2edf38072fea1836082ab8c6cfbc8" target="_top" xlink:title=" ">
<polygon fill="white" stroke="black" points="392.5,-38.5 392.5,-57.5 514.5,-57.5 514.5,-38.5 392.5,-38.5"/>
<text text-anchor="middle" x="453.5" y="-45.5" font-family="Helvetica,sans-Serif" font-size="10.00">Shader::supply1fUniform</text>
</a>
</g>
</g>
<!-- Node8&#45;&gt;Node10 -->
<g id="edge10" class="edge"><title>Node8&#45;&gt;Node10</title>
<path fill="none" stroke="midnightblue" d="M302.71,-76.46C329.933,-71.2878 363.764,-64.8599 392.383,-59.4222"/>
<polygon fill="midnightblue" stroke="midnightblue" points="393.098,-62.8491 402.269,-57.5439 391.791,-55.9721 393.098,-62.8491"/>
</g>
<!-- Node12 -->
<g id="node12" class="node"><title>Node12</title>
<g id="a_node12"><a xlink:href="../../d1/d51/class_shader.html#a240b7ecb19883fa340489840733eae6d" target="_top" xlink:title=" ">
<polygon fill="white" stroke="black" points="397,-0.5 397,-19.5 510,-19.5 510,-0.5 397,-0.5"/>
<text text-anchor="middle" x="453.5" y="-7.5" font-family="Helvetica,sans-Serif" font-size="10.00">Shader::getProgramID</text>
</a>
</g>
</g>
<!-- Node11&#45;&gt;Node12 -->
<g id="edge13" class="edge"><title>Node11&#45;&gt;Node12</title>
<path fill="none" stroke="midnightblue" d="M304.526,-24.0576C329.67,-21.6689 360.117,-18.7764 386.84,-16.2377"/>
<polygon fill="midnightblue" stroke="midnightblue" points="387.257,-19.7139 396.881,-15.2838 386.595,-12.7453 387.257,-19.7139"/>
</g>
</g>
</svg>
