<?xml version="1.0" encoding="UTF-8" standalone="no"?>
<!DOCTYPE svg PUBLIC "-//W3C//DTD SVG 1.1//EN"
 "http://www.w3.org/Graphics/SVG/1.1/DTD/svg11.dtd">
<!-- Generated by graphviz version 2.38.0 (20140413.2041)
 -->
<!-- Title: RenderingSystem::supplyLitShaderUniforms Pages: 1 -->
<svg width="686pt" height="410pt"
 viewBox="0.00 0.00 686.00 410.00" xmlns="http://www.w3.org/2000/svg" xmlns:xlink="http://www.w3.org/1999/xlink">
<g id="graph0" class="graph" transform="scale(1 1) rotate(0) translate(4 406)">
<title>RenderingSystem::supplyLitShaderUniforms</title>
<polygon fill="white" stroke="none" points="-4,4 -4,-406 682,-406 682,4 -4,4"/>
<!-- Node1 -->
<g id="node1" class="node"><title>Node1</title>
<g id="a_node1"><a xlink:title=" ">
<polygon fill="#bfbfbf" stroke="black" points="0,-175.5 0,-205.5 139,-205.5 139,-175.5 0,-175.5"/>
<text text-anchor="start" x="8" y="-193.5" font-family="Helvetica,sans-Serif" font-size="10.00">RenderingSystem::supplyLit</text>
<text text-anchor="middle" x="69.5" y="-182.5" font-family="Helvetica,sans-Serif" font-size="10.00">ShaderUniforms</text>
</a>
</g>
</g>
<!-- Node2 -->
<g id="node2" class="node"><title>Node2</title>
<g id="a_node2"><a xlink:href="../../d1/d18/class_point_light_shadow_map.html#a5a66d2c74b522661c5b6abc97f8616e4" target="_top" xlink:title=" ">
<polygon fill="white" stroke="black" points="197.5,-371.5 197.5,-401.5 310.5,-401.5 310.5,-371.5 197.5,-371.5"/>
<text text-anchor="start" x="205.5" y="-389.5" font-family="Helvetica,sans-Serif" font-size="10.00">PointLightShadowMap</text>
<text text-anchor="middle" x="254" y="-378.5" font-family="Helvetica,sans-Serif" font-size="10.00">::getCubeMap</text>
</a>
</g>
</g>
<!-- Node1&#45;&gt;Node2 -->
<g id="edge1" class="edge"><title>Node1&#45;&gt;Node2</title>
<path fill="none" stroke="midnightblue" d="M75.4872,-205.677C87.2612,-239.138 120.004,-319.67 175,-362.5 179.019,-365.63 183.447,-368.354 188.091,-370.725"/>
<polygon fill="midnightblue" stroke="midnightblue" points="186.682,-373.929 197.236,-374.861 189.567,-367.551 186.682,-373.929"/>
</g>
<!-- Node3 -->
<g id="node3" class="node"><title>Node3</title>
<g id="a_node3"><a xlink:href="../../d1/d18/class_point_light_shadow_map.html#a82ab32ada2ef851e004372b3dbb41c6f" target="_top" xlink:title=" ">
<polygon fill="white" stroke="black" points="192,-322.5 192,-352.5 316,-352.5 316,-322.5 192,-322.5"/>
<text text-anchor="start" x="200" y="-340.5" font-family="Helvetica,sans-Serif" font-size="10.00">PointLightShadowMap</text>
<text text-anchor="middle" x="254" y="-329.5" font-family="Helvetica,sans-Serif" font-size="10.00">::getCurrentLightPosition</text>
</a>
</g>
</g>
<!-- Node1&#45;&gt;Node3 -->
<g id="edge2" class="edge"><title>Node1&#45;&gt;Node3</title>
<path fill="none" stroke="midnightblue" d="M79.391,-205.791C95.2724,-231.77 131.009,-284.52 175,-313.5 177.44,-315.108 179.994,-316.612 182.626,-318.019"/>
<polygon fill="midnightblue" stroke="midnightblue" points="181.301,-321.266 191.831,-322.439 184.331,-314.955 181.301,-321.266"/>
</g>
<!-- Node4 -->
<g id="node4" class="node"><title>Node4</title>
<g id="a_node4"><a xlink:href="../../dc/d22/class_directional_light_shadow_map.html#aabacf708dc2f0d7933a0128375288e7b" target="_top" xlink:title=" ">
<polygon fill="white" stroke="black" points="185.5,-273.5 185.5,-303.5 322.5,-303.5 322.5,-273.5 185.5,-273.5"/>
<text text-anchor="start" x="193.5" y="-291.5" font-family="Helvetica,sans-Serif" font-size="10.00">DirectionalLightShadowMap</text>
<text text-anchor="middle" x="254" y="-280.5" font-family="Helvetica,sans-Serif" font-size="10.00">::getDepthMap</text>
</a>
</g>
</g>
<!-- Node1&#45;&gt;Node4 -->
<g id="edge3" class="edge"><title>Node1&#45;&gt;Node4</title>
<path fill="none" stroke="midnightblue" d="M88.2501,-205.764C108.191,-222.244 142.089,-248.304 175,-264.5 178.79,-266.365 182.755,-268.121 186.803,-269.769"/>
<polygon fill="midnightblue" stroke="midnightblue" points="185.764,-273.118 196.355,-273.415 188.261,-266.579 185.764,-273.118"/>
</g>
<!-- Node5 -->
<g id="node5" class="node"><title>Node5</title>
<g id="a_node5"><a xlink:href="../../d1/d18/class_point_light_shadow_map.html#a6cc8cb9da80b9641eefd0a67c5bf9d40" target="_top" xlink:title=" ">
<polygon fill="white" stroke="black" points="197.5,-224.5 197.5,-254.5 310.5,-254.5 310.5,-224.5 197.5,-224.5"/>
<text text-anchor="start" x="205.5" y="-242.5" font-family="Helvetica,sans-Serif" font-size="10.00">PointLightShadowMap</text>
<text text-anchor="middle" x="254" y="-231.5" font-family="Helvetica,sans-Serif" font-size="10.00">::getFarPlane</text>
</a>
</g>
</g>
<!-- Node1&#45;&gt;Node5 -->
<g id="edge4" class="edge"><title>Node1&#45;&gt;Node5</title>
<path fill="none" stroke="midnightblue" d="M126.745,-205.601C145.919,-210.749 167.522,-216.55 187.367,-221.878"/>
<polygon fill="midnightblue" stroke="midnightblue" points="186.689,-225.32 197.254,-224.533 188.504,-218.559 186.689,-225.32"/>
</g>
<!-- Node6 -->
<g id="node6" class="node"><title>Node6</title>
<g id="a_node6"><a xlink:href="../../dc/d22/class_directional_light_shadow_map.html#a0bb613e68ebdc59f2460f1dafcb6f663" target="_top" xlink:title=" ">
<polygon fill="white" stroke="black" points="185.5,-175.5 185.5,-205.5 322.5,-205.5 322.5,-175.5 185.5,-175.5"/>
<text text-anchor="start" x="193.5" y="-193.5" font-family="Helvetica,sans-Serif" font-size="10.00">DirectionalLightShadowMap</text>
<text text-anchor="middle" x="254" y="-182.5" font-family="Helvetica,sans-Serif" font-size="10.00">::getLightSpaceMatrix</text>
</a>
</g>
</g>
<!-- Node1&#45;&gt;Node6 -->
<g id="edge5" class="edge"><title>Node1&#45;&gt;Node6</title>
<path fill="none" stroke="midnightblue" d="M139.235,-190.5C150.88,-190.5 163.046,-190.5 174.908,-190.5"/>
<polygon fill="midnightblue" stroke="midnightblue" points="175.235,-194 185.235,-190.5 175.235,-187 175.235,-194"/>
</g>
<!-- Node7 -->
<g id="node7" class="node"><title>Node7</title>
<g id="a_node7"><a xlink:href="../../d1/d51/class_shader.html#a240b7ecb19883fa340489840733eae6d" target="_top" xlink:title=" ">
<polygon fill="white" stroke="black" points="383.5,-136 383.5,-155 496.5,-155 496.5,-136 383.5,-136"/>
<text text-anchor="middle" x="440" y="-143" font-family="Helvetica,sans-Serif" font-size="10.00">Shader::getProgramID</text>
</a>
</g>
</g>
<!-- Node1&#45;&gt;Node7 -->
<g id="edge6" class="edge"><title>Node1&#45;&gt;Node7</title>
<path fill="none" stroke="midnightblue" d="M129.068,-175.462C143.967,-172.076 160.005,-168.806 175,-166.5 242.134,-156.178 319.7,-150.775 373.302,-148.052"/>
<polygon fill="midnightblue" stroke="midnightblue" points="373.542,-151.545 383.358,-147.559 373.198,-144.553 373.542,-151.545"/>
</g>
<!-- Node8 -->
<g id="node8" class="node"><title>Node8</title>
<g id="a_node8"><a xlink:href="../../d7/da2/namespace_shaders.html#aaa649eb98b860170946f582b8e93c12d" target="_top" xlink:title=" ">
<polygon fill="white" stroke="black" points="369,-95 369,-114 511,-114 511,-95 369,-95"/>
<text text-anchor="middle" x="440" y="-102" font-family="Helvetica,sans-Serif" font-size="10.00">Shaders::getUniformLocation</text>
</a>
</g>
</g>
<!-- Node1&#45;&gt;Node8 -->
<g id="edge7" class="edge"><title>Node1&#45;&gt;Node8</title>
<path fill="none" stroke="midnightblue" d="M99.943,-175.439C120.485,-165.53 148.805,-153.042 175,-145.5 235.402,-128.108 305.834,-117.64 358.751,-111.64"/>
<polygon fill="midnightblue" stroke="midnightblue" points="359.201,-115.111 368.756,-110.534 358.433,-108.154 359.201,-115.111"/>
</g>
<!-- Node10 -->
<g id="node10" class="node"><title>Node10</title>
<g id="a_node10"><a xlink:href="../../d1/d18/class_point_light_shadow_map.html#af244720f5c3aa11b7110c8a74adf2a9d" target="_top" xlink:title=" ">
<polygon fill="white" stroke="black" points="197.5,-0.5 197.5,-30.5 310.5,-30.5 310.5,-0.5 197.5,-0.5"/>
<text text-anchor="start" x="205.5" y="-18.5" font-family="Helvetica,sans-Serif" font-size="10.00">PointLightShadowMap</text>
<text text-anchor="middle" x="254" y="-7.5" font-family="Helvetica,sans-Serif" font-size="10.00">::isActive</text>
</a>
</g>
</g>
<!-- Node1&#45;&gt;Node10 -->
<g id="edge9" class="edge"><title>Node1&#45;&gt;Node10</title>
<path fill="none" stroke="midnightblue" d="M76.9282,-175.121C90.4625,-144.614 124.839,-76.2242 175,-39.5 178.937,-36.6177 183.226,-34.0766 187.701,-31.837"/>
<polygon fill="midnightblue" stroke="midnightblue" points="189.387,-34.9179 197.096,-27.6507 186.538,-28.524 189.387,-34.9179"/>
</g>
<!-- Node11 -->
<g id="node11" class="node"><title>Node11</title>
<g id="a_node11"><a xlink:href="../../d8/d31/class_rendering_system.html#a05f635d7510f575548938326c6c1b550" target="_top" xlink:title=" ">
<polygon fill="white" stroke="black" points="175,-49.5 175,-79.5 333,-79.5 333,-49.5 175,-49.5"/>
<text text-anchor="start" x="183" y="-67.5" font-family="Helvetica,sans-Serif" font-size="10.00">RenderingSystem::supplyDefault</text>
<text text-anchor="middle" x="254" y="-56.5" font-family="Helvetica,sans-Serif" font-size="10.00">ShaderUniforms</text>
</a>
</g>
</g>
<!-- Node1&#45;&gt;Node11 -->
<g id="edge10" class="edge"><title>Node1&#45;&gt;Node11</title>
<path fill="none" stroke="midnightblue" d="M83.6256,-175.282C102.173,-154.576 137.942,-117.481 175,-94.5 181.589,-90.4139 188.826,-86.7265 196.153,-83.4493"/>
<polygon fill="midnightblue" stroke="midnightblue" points="197.595,-86.6395 205.44,-79.5186 194.867,-80.1931 197.595,-86.6395"/>
</g>
<!-- Node9 -->
<g id="node9" class="node"><title>Node9</title>
<g id="a_node9"><a xlink:href="../../d7/da2/namespace_shaders.html#a25a80e81a8051ed31ecab4ed167b0be8" target="_top" xlink:title=" ">
<polygon fill="white" stroke="black" points="547,-95 547,-114 678,-114 678,-95 547,-95"/>
<text text-anchor="middle" x="612.5" y="-102" font-family="Helvetica,sans-Serif" font-size="10.00">Shaders::getUniformName</text>
</a>
</g>
</g>
<!-- Node8&#45;&gt;Node9 -->
<g id="edge8" class="edge"><title>Node8&#45;&gt;Node9</title>
<path fill="none" stroke="midnightblue" d="M511.333,-104.5C519.681,-104.5 528.225,-104.5 536.633,-104.5"/>
<polygon fill="midnightblue" stroke="midnightblue" points="536.798,-108 546.798,-104.5 536.798,-101 536.798,-108"/>
</g>
<!-- Node11&#45;&gt;Node7 -->
<g id="edge11" class="edge"><title>Node11&#45;&gt;Node7</title>
<path fill="none" stroke="midnightblue" d="M281.101,-79.6612C303.817,-92.4515 337.89,-110.674 369,-123.5 377.215,-126.887 386.149,-130.061 394.802,-132.887"/>
<polygon fill="midnightblue" stroke="midnightblue" points="393.808,-136.244 404.398,-135.923 395.919,-129.57 393.808,-136.244"/>
</g>
<!-- Node11&#45;&gt;Node8 -->
<g id="edge13" class="edge"><title>Node11&#45;&gt;Node8</title>
<path fill="none" stroke="midnightblue" d="M324.038,-79.5083C344.265,-83.9054 366.074,-88.6464 385.203,-92.805"/>
<polygon fill="midnightblue" stroke="midnightblue" points="384.717,-96.281 395.232,-94.9853 386.204,-89.4408 384.717,-96.281"/>
</g>
<!-- Node12 -->
<g id="node12" class="node"><title>Node12</title>
<g id="a_node12"><a xlink:href="../../da/dbb/class_camera.html#a587090d0991afb2c6b44bcefd379f2a1" target="_top" xlink:title=" ">
<polygon fill="white" stroke="black" points="370,-56 370,-75 510,-75 510,-56 370,-56"/>
<text text-anchor="middle" x="440" y="-63" font-family="Helvetica,sans-Serif" font-size="10.00">Camera::getProjectionMatrix</text>
</a>
</g>
</g>
<!-- Node11&#45;&gt;Node12 -->
<g id="edge12" class="edge"><title>Node11&#45;&gt;Node12</title>
<path fill="none" stroke="midnightblue" d="M333.033,-64.9241C341.833,-64.9719 350.807,-65.0207 359.624,-65.0686"/>
<polygon fill="midnightblue" stroke="midnightblue" points="359.863,-68.5699 369.882,-65.1244 359.901,-61.57 359.863,-68.5699"/>
</g>
<!-- Node13 -->
<g id="node13" class="node"><title>Node13</title>
<g id="a_node13"><a xlink:href="../../da/dbb/class_camera.html#a1d11fe156faf5a21c8737aa37f72af5c" target="_top" xlink:title=" ">
<polygon fill="white" stroke="black" points="381,-18 381,-37 499,-37 499,-18 381,-18"/>
<text text-anchor="middle" x="440" y="-25" font-family="Helvetica,sans-Serif" font-size="10.00">Camera::getViewMatrix</text>
</a>
</g>
</g>
<!-- Node11&#45;&gt;Node13 -->
<g id="edge14" class="edge"><title>Node11&#45;&gt;Node13</title>
<path fill="none" stroke="midnightblue" d="M329.84,-49.4507C347.143,-45.9713 365.285,-42.3231 381.7,-39.0222"/>
<polygon fill="midnightblue" stroke="midnightblue" points="382.561,-42.4192 391.675,-37.0164 381.181,-35.5566 382.561,-42.4192"/>
</g>
</g>
</svg>
