<?xml version="1.0" encoding="UTF-8" standalone="no"?>
<!DOCTYPE svg PUBLIC "-//W3C//DTD SVG 1.1//EN"
 "http://www.w3.org/Graphics/SVG/1.1/DTD/svg11.dtd">
<!-- Generated by graphviz version 2.38.0 (20140413.2041)
 -->
<!-- Title: RenderingSystem::renderDebugging Pages: 1 -->
<svg width="728pt" height="192pt"
 viewBox="0.00 0.00 728.00 191.50" xmlns="http://www.w3.org/2000/svg" xmlns:xlink="http://www.w3.org/1999/xlink">
<g id="graph0" class="graph" transform="scale(1 1) rotate(0) translate(4 187.5)">
<title>RenderingSystem::renderDebugging</title>
<polygon fill="white" stroke="none" points="-4,4 -4,-187.5 724,-187.5 724,4 -4,4"/>
<!-- Node1 -->
<g id="node1" class="node"><title>Node1</title>
<g id="a_node1"><a xlink:title=" ">
<polygon fill="#bfbfbf" stroke="black" points="0,-76.5 0,-95.5 173,-95.5 173,-76.5 0,-76.5"/>
<text text-anchor="middle" x="86.5" y="-83.5" font-family="Helvetica,sans-Serif" font-size="10.00">RenderingSystem::renderDebugging</text>
</a>
</g>
</g>
<!-- Node2 -->
<g id="node2" class="node"><title>Node2</title>
<g id="a_node2"><a xlink:href="../../d1/dee/class_debugging_controller.html#af5bb093ed69faabd1e1e42a5dacf47da" target="_top" xlink:title=" ">
<polygon fill="white" stroke="black" points="225.5,-153 225.5,-183 353.5,-183 353.5,-153 225.5,-153"/>
<text text-anchor="start" x="233.5" y="-171" font-family="Helvetica,sans-Serif" font-size="10.00">DebuggingController</text>
<text text-anchor="middle" x="289.5" y="-160" font-family="Helvetica,sans-Serif" font-size="10.00">::executeDebugRendering</text>
</a>
</g>
</g>
<!-- Node1&#45;&gt;Node2 -->
<g id="edge1" class="edge"><title>Node1&#45;&gt;Node2</title>
<path fill="none" stroke="midnightblue" d="M106.099,-95.6826C129.649,-107.718 171.661,-128.446 209,-143 214.927,-145.31 221.164,-147.564 227.428,-149.714"/>
<polygon fill="midnightblue" stroke="midnightblue" points="226.661,-153.148 237.255,-152.998 228.88,-146.508 226.661,-153.148"/>
</g>
<!-- Node5 -->
<g id="node5" class="node"><title>Node5</title>
<g id="a_node5"><a xlink:href="../../d6/db5/class_scene.html#ab267a4bad0eebc4fdc2ed4a57a2d16e2" target="_top" xlink:title=" ">
<polygon fill="white" stroke="black" points="209,-114.5 209,-133.5 370,-133.5 370,-114.5 209,-114.5"/>
<text text-anchor="middle" x="289.5" y="-121.5" font-family="Helvetica,sans-Serif" font-size="10.00">Scene::getAllComponentsOfType</text>
</a>
</g>
</g>
<!-- Node1&#45;&gt;Node5 -->
<g id="edge4" class="edge"><title>Node1&#45;&gt;Node5</title>
<path fill="none" stroke="midnightblue" d="M137.961,-95.54C165.32,-100.712 199.32,-107.14 228.082,-112.578"/>
<polygon fill="midnightblue" stroke="midnightblue" points="227.542,-116.037 238.018,-114.456 228.842,-109.159 227.542,-116.037"/>
</g>
<!-- Node7 -->
<g id="node7" class="node"><title>Node7</title>
<g id="a_node7"><a xlink:href="../../da/dbb/class_camera.html#a587090d0991afb2c6b44bcefd379f2a1" target="_top" xlink:title=" ">
<polygon fill="white" stroke="black" points="219.5,-76.5 219.5,-95.5 359.5,-95.5 359.5,-76.5 219.5,-76.5"/>
<text text-anchor="middle" x="289.5" y="-83.5" font-family="Helvetica,sans-Serif" font-size="10.00">Camera::getProjectionMatrix</text>
</a>
</g>
</g>
<!-- Node1&#45;&gt;Node7 -->
<g id="edge6" class="edge"><title>Node1&#45;&gt;Node7</title>
<path fill="none" stroke="midnightblue" d="M173.034,-86C185.017,-86 197.29,-86 209.152,-86"/>
<polygon fill="midnightblue" stroke="midnightblue" points="209.452,-89.5001 219.452,-86 209.452,-82.5001 209.452,-89.5001"/>
</g>
<!-- Node8 -->
<g id="node8" class="node"><title>Node8</title>
<g id="a_node8"><a xlink:href="../../d1/d51/class_shader.html#a56cb8fcc77784d2b9e80a0bf50851f0e" target="_top" xlink:title=" ">
<polygon fill="white" stroke="black" points="230,-38.5 230,-57.5 349,-57.5 349,-38.5 230,-38.5"/>
<text text-anchor="middle" x="289.5" y="-45.5" font-family="Helvetica,sans-Serif" font-size="10.00">Shader::getShaderTask</text>
</a>
</g>
</g>
<!-- Node1&#45;&gt;Node8 -->
<g id="edge7" class="edge"><title>Node1&#45;&gt;Node8</title>
<path fill="none" stroke="midnightblue" d="M137.961,-76.46C165.32,-71.2878 199.32,-64.8599 228.082,-59.4222"/>
<polygon fill="midnightblue" stroke="midnightblue" points="228.842,-62.8407 238.018,-57.5439 227.542,-55.9625 228.842,-62.8407"/>
</g>
<!-- Node9 -->
<g id="node9" class="node"><title>Node9</title>
<g id="a_node9"><a xlink:href="../../da/dbb/class_camera.html#a1d11fe156faf5a21c8737aa37f72af5c" target="_top" xlink:title=" ">
<polygon fill="white" stroke="black" points="230.5,-0.5 230.5,-19.5 348.5,-19.5 348.5,-0.5 230.5,-0.5"/>
<text text-anchor="middle" x="289.5" y="-7.5" font-family="Helvetica,sans-Serif" font-size="10.00">Camera::getViewMatrix</text>
</a>
</g>
</g>
<!-- Node1&#45;&gt;Node9 -->
<g id="edge8" class="edge"><title>Node1&#45;&gt;Node9</title>
<path fill="none" stroke="midnightblue" d="M105.133,-76.3236C128.356,-63.9111 170.734,-42.3909 209,-29 216.252,-26.4623 223.992,-24.1482 231.69,-22.0766"/>
<polygon fill="midnightblue" stroke="midnightblue" points="232.565,-25.4654 241.378,-19.5836 230.821,-18.6862 232.565,-25.4654"/>
</g>
<!-- Node3 -->
<g id="node3" class="node"><title>Node3</title>
<g id="a_node3"><a xlink:href="../../d5/d44/class_physics_world.html#a6175f46c5cfe345ebf309df5568ab016" target="_top" xlink:title=" ">
<polygon fill="white" stroke="black" points="426,-158.5 426,-177.5 557,-177.5 557,-158.5 426,-158.5"/>
<text text-anchor="middle" x="491.5" y="-165.5" font-family="Helvetica,sans-Serif" font-size="10.00">PhysicsWorld::debugDraw</text>
</a>
</g>
</g>
<!-- Node2&#45;&gt;Node3 -->
<g id="edge2" class="edge"><title>Node2&#45;&gt;Node3</title>
<path fill="none" stroke="midnightblue" d="M353.507,-168C373.195,-168 395.11,-168 415.536,-168"/>
<polygon fill="midnightblue" stroke="midnightblue" points="415.743,-171.5 425.743,-168 415.743,-164.5 415.743,-171.5"/>
</g>
<!-- Node4 -->
<g id="node4" class="node"><title>Node4</title>
<g id="a_node4"><a xlink:href="../../d1/da2/class_debug_drawer.html#a475bfd0fc90b3ebda966d47e899da8ed" target="_top" xlink:title=" ">
<polygon fill="white" stroke="black" points="613,-158.5 613,-177.5 720,-177.5 720,-158.5 613,-158.5"/>
<text text-anchor="middle" x="666.5" y="-165.5" font-family="Helvetica,sans-Serif" font-size="10.00">DebugDrawer::render</text>
</a>
</g>
</g>
<!-- Node3&#45;&gt;Node4 -->
<g id="edge3" class="edge"><title>Node3&#45;&gt;Node4</title>
<path fill="none" stroke="midnightblue" d="M557.411,-168C572.29,-168 588.08,-168 602.861,-168"/>
<polygon fill="midnightblue" stroke="midnightblue" points="602.909,-171.5 612.909,-168 602.909,-164.5 602.909,-171.5"/>
</g>
<!-- Node6 -->
<g id="node6" class="node"><title>Node6</title>
<g id="a_node6"><a xlink:href="../../d6/db5/class_scene.html#af06ab78544ec997fd8e480762b2cc40a" target="_top" xlink:title=" ">
<polygon fill="white" stroke="black" points="406,-114.5 406,-133.5 577,-133.5 577,-114.5 406,-114.5"/>
<text text-anchor="middle" x="491.5" y="-121.5" font-family="Helvetica,sans-Serif" font-size="10.00">Scene::binarySearchForComponent</text>
</a>
</g>
</g>
<!-- Node5&#45;&gt;Node6 -->
<g id="edge5" class="edge"><title>Node5&#45;&gt;Node6</title>
<path fill="none" stroke="midnightblue" d="M370.12,-124C378.576,-124 387.235,-124 395.841,-124"/>
<polygon fill="midnightblue" stroke="midnightblue" points="395.904,-127.5 405.904,-124 395.904,-120.5 395.904,-127.5"/>
</g>
</g>
</svg>
