<?xml version="1.0" encoding="UTF-8" standalone="no"?>
<!DOCTYPE svg PUBLIC "-//W3C//DTD SVG 1.1//EN"
 "http://www.w3.org/Graphics/SVG/1.1/DTD/svg11.dtd">
<!-- Generated by graphviz version 2.38.0 (20140413.2041)
 -->
<!-- Title: RenderingSystem::initialize Pages: 1 -->
<svg width="499pt" height="85pt"
 viewBox="0.00 0.00 499.00 85.00" xmlns="http://www.w3.org/2000/svg" xmlns:xlink="http://www.w3.org/1999/xlink">
<g id="graph0" class="graph" transform="scale(1 1) rotate(0) translate(4 81)">
<title>RenderingSystem::initialize</title>
<polygon fill="white" stroke="none" points="-4,4 -4,-81 495,-81 495,4 -4,4"/>
<!-- Node1 -->
<g id="node1" class="node"><title>Node1</title>
<g id="a_node1"><a xlink:title=" ">
<polygon fill="#bfbfbf" stroke="black" points="0,-19.5 0,-38.5 135,-38.5 135,-19.5 0,-19.5"/>
<text text-anchor="middle" x="67.5" y="-26.5" font-family="Helvetica,sans-Serif" font-size="10.00">RenderingSystem::initialize</text>
</a>
</g>
</g>
<!-- Node2 -->
<g id="node2" class="node"><title>Node2</title>
<g id="a_node2"><a xlink:href="../../d6/db5/class_scene.html#a65d6f6cd75b250c657d5d4a267c4b245" target="_top" xlink:title=" ">
<polygon fill="white" stroke="black" points="171,-38.5 171,-57.5 284,-57.5 284,-38.5 171,-38.5"/>
<text text-anchor="middle" x="227.5" y="-45.5" font-family="Helvetica,sans-Serif" font-size="10.00">Scene::getComponent</text>
</a>
</g>
</g>
<!-- Node1&#45;&gt;Node2 -->
<g id="edge1" class="edge"><title>Node1&#45;&gt;Node2</title>
<path fill="none" stroke="midnightblue" d="M135.048,-37.0026C143.442,-38.0121 152.029,-39.0446 160.416,-40.0532"/>
<polygon fill="midnightblue" stroke="midnightblue" points="160.174,-43.5493 170.521,-41.2683 161.01,-36.5993 160.174,-43.5493"/>
</g>
<!-- Node5 -->
<g id="node5" class="node"><title>Node5</title>
<g id="a_node5"><a xlink:href="../../d6/db5/class_scene.html#ae66f70e1154ee986fff5689490f6b3a2" target="_top" xlink:title=" ">
<polygon fill="white" stroke="black" points="177,-0.5 177,-19.5 278,-19.5 278,-0.5 177,-0.5"/>
<text text-anchor="middle" x="227.5" y="-7.5" font-family="Helvetica,sans-Serif" font-size="10.00">Scene::loopEntities</text>
</a>
</g>
</g>
<!-- Node1&#45;&gt;Node5 -->
<g id="edge4" class="edge"><title>Node1&#45;&gt;Node5</title>
<path fill="none" stroke="midnightblue" d="M135.048,-20.9974C145.548,-19.7347 156.349,-18.4359 166.684,-17.1931"/>
<polygon fill="midnightblue" stroke="midnightblue" points="167.324,-20.6414 176.835,-15.9724 166.488,-13.6915 167.324,-20.6414"/>
</g>
<!-- Node3 -->
<g id="node3" class="node"><title>Node3</title>
<g id="a_node3"><a xlink:href="../../d6/db5/class_scene.html#af06ab78544ec997fd8e480762b2cc40a" target="_top" xlink:title=" ">
<polygon fill="white" stroke="black" points="320,-57.5 320,-76.5 491,-76.5 491,-57.5 320,-57.5"/>
<text text-anchor="middle" x="405.5" y="-64.5" font-family="Helvetica,sans-Serif" font-size="10.00">Scene::binarySearchForComponent</text>
</a>
</g>
</g>
<!-- Node2&#45;&gt;Node3 -->
<g id="edge2" class="edge"><title>Node2&#45;&gt;Node3</title>
<path fill="none" stroke="midnightblue" d="M284.188,-54.0117C292.456,-54.9043 301.166,-55.8446 309.964,-56.7944"/>
<polygon fill="midnightblue" stroke="midnightblue" points="309.597,-60.2751 319.915,-57.8687 310.349,-53.3155 309.597,-60.2751"/>
</g>
<!-- Node4 -->
<g id="node4" class="node"><title>Node4</title>
<g id="a_node4"><a xlink:href="../../d6/db5/class_scene.html#a55c346bea3f04eb9d9f8476a68c2fa93" target="_top" xlink:title=" ">
<polygon fill="white" stroke="black" points="332,-19.5 332,-38.5 479,-38.5 479,-19.5 332,-19.5"/>
<text text-anchor="middle" x="405.5" y="-26.5" font-family="Helvetica,sans-Serif" font-size="10.00">Scene::binarySearchForEntity</text>
</a>
</g>
</g>
<!-- Node2&#45;&gt;Node4 -->
<g id="edge3" class="edge"><title>Node2&#45;&gt;Node4</title>
<path fill="none" stroke="midnightblue" d="M284.188,-41.9883C296.107,-40.7015 308.945,-39.3155 321.641,-37.9451"/>
<polygon fill="midnightblue" stroke="midnightblue" points="322.204,-41.4046 331.771,-36.8514 321.453,-34.4451 322.204,-41.4046"/>
</g>
</g>
</svg>
