<?xml version="1.0" encoding="UTF-8" standalone="no"?>
<!DOCTYPE svg PUBLIC "-//W3C//DTD SVG 1.1//EN"
 "http://www.w3.org/Graphics/SVG/1.1/DTD/svg11.dtd">
<!-- Generated by graphviz version 2.38.0 (20140413.2041)
 -->
<!-- Title: RenderingSystem::renderModels Pages: 1 -->
<svg width="522pt" height="85pt"
 viewBox="0.00 0.00 522.00 85.00" xmlns="http://www.w3.org/2000/svg" xmlns:xlink="http://www.w3.org/1999/xlink">
<g id="graph0" class="graph" transform="scale(1 1) rotate(0) translate(4 81)">
<title>RenderingSystem::renderModels</title>
<polygon fill="white" stroke="none" points="-4,4 -4,-81 518,-81 518,4 -4,4"/>
<!-- Node1 -->
<g id="node1" class="node"><title>Node1</title>
<g id="a_node1"><a xlink:title=" ">
<polygon fill="#bfbfbf" stroke="black" points="0,-19.5 0,-38.5 158,-38.5 158,-19.5 0,-19.5"/>
<text text-anchor="middle" x="79" y="-26.5" font-family="Helvetica,sans-Serif" font-size="10.00">RenderingSystem::renderModels</text>
</a>
</g>
</g>
<!-- Node2 -->
<g id="node2" class="node"><title>Node2</title>
<g id="a_node2"><a xlink:href="../../d6/db5/class_scene.html#a65d6f6cd75b250c657d5d4a267c4b245" target="_top" xlink:title=" ">
<polygon fill="white" stroke="black" points="194,-38.5 194,-57.5 307,-57.5 307,-38.5 194,-38.5"/>
<text text-anchor="middle" x="250.5" y="-45.5" font-family="Helvetica,sans-Serif" font-size="10.00">Scene::getComponent</text>
</a>
</g>
</g>
<!-- Node1&#45;&gt;Node2 -->
<g id="edge1" class="edge"><title>Node1&#45;&gt;Node2</title>
<path fill="none" stroke="midnightblue" d="M158.3,-37.777C166.81,-38.7309 175.408,-39.6947 183.746,-40.6294"/>
<polygon fill="midnightblue" stroke="midnightblue" points="183.439,-44.1167 193.766,-41.7526 184.219,-37.1603 183.439,-44.1167"/>
</g>
<!-- Node5 -->
<g id="node5" class="node"><title>Node5</title>
<g id="a_node5"><a xlink:href="../../d6/db5/class_scene.html#ae66f70e1154ee986fff5689490f6b3a2" target="_top" xlink:title=" ">
<polygon fill="white" stroke="black" points="200,-0.5 200,-19.5 301,-19.5 301,-0.5 200,-0.5"/>
<text text-anchor="middle" x="250.5" y="-7.5" font-family="Helvetica,sans-Serif" font-size="10.00">Scene::loopEntities</text>
</a>
</g>
</g>
<!-- Node1&#45;&gt;Node5 -->
<g id="edge4" class="edge"><title>Node1&#45;&gt;Node5</title>
<path fill="none" stroke="midnightblue" d="M158.3,-20.223C168.839,-19.0416 179.512,-17.8452 189.662,-16.7075"/>
<polygon fill="midnightblue" stroke="midnightblue" points="190.065,-20.1843 199.613,-15.5921 189.285,-13.2279 190.065,-20.1843"/>
</g>
<!-- Node3 -->
<g id="node3" class="node"><title>Node3</title>
<g id="a_node3"><a xlink:href="../../d6/db5/class_scene.html#af06ab78544ec997fd8e480762b2cc40a" target="_top" xlink:title=" ">
<polygon fill="white" stroke="black" points="343,-57.5 343,-76.5 514,-76.5 514,-57.5 343,-57.5"/>
<text text-anchor="middle" x="428.5" y="-64.5" font-family="Helvetica,sans-Serif" font-size="10.00">Scene::binarySearchForComponent</text>
</a>
</g>
</g>
<!-- Node2&#45;&gt;Node3 -->
<g id="edge2" class="edge"><title>Node2&#45;&gt;Node3</title>
<path fill="none" stroke="midnightblue" d="M307.188,-54.0117C315.456,-54.9043 324.166,-55.8446 332.964,-56.7944"/>
<polygon fill="midnightblue" stroke="midnightblue" points="332.597,-60.2751 342.915,-57.8687 333.349,-53.3155 332.597,-60.2751"/>
</g>
<!-- Node4 -->
<g id="node4" class="node"><title>Node4</title>
<g id="a_node4"><a xlink:href="../../d6/db5/class_scene.html#a55c346bea3f04eb9d9f8476a68c2fa93" target="_top" xlink:title=" ">
<polygon fill="white" stroke="black" points="355,-19.5 355,-38.5 502,-38.5 502,-19.5 355,-19.5"/>
<text text-anchor="middle" x="428.5" y="-26.5" font-family="Helvetica,sans-Serif" font-size="10.00">Scene::binarySearchForEntity</text>
</a>
</g>
</g>
<!-- Node2&#45;&gt;Node4 -->
<g id="edge3" class="edge"><title>Node2&#45;&gt;Node4</title>
<path fill="none" stroke="midnightblue" d="M307.188,-41.9883C319.107,-40.7015 331.945,-39.3155 344.641,-37.9451"/>
<polygon fill="midnightblue" stroke="midnightblue" points="345.204,-41.4046 354.771,-36.8514 344.453,-34.4451 345.204,-41.4046"/>
</g>
</g>
</svg>
