<?xml version="1.0" encoding="UTF-8" standalone="no"?>
<!DOCTYPE svg PUBLIC "-//W3C//DTD SVG 1.1//EN"
 "http://www.w3.org/Graphics/SVG/1.1/DTD/svg11.dtd">
<!-- Generated by graphviz version 2.38.0 (20140413.2041)
 -->
<!-- Title: RenderingSystem::renderParticles Pages: 1 -->
<!--zoomable 417 -->
<svg id="main" version="1.1" xmlns="http://www.w3.org/2000/svg" xmlns:xlink="http://www.w3.org/1999/xlink" xml:space="preserve" onload="init(evt)">
<style type="text/css"><![CDATA[
.edge:hover path { stroke: red; }
.edge:hover polygon { stroke: red; fill: red; }
]]></style>
<script type="text/javascript"><![CDATA[
var edges = document.getElementsByTagName('g');
if (edges && edges.length) {
  for (var i=0;i<edges.length;i++) {
    if (edges[i].id.substr(0,4)=='edge') {
      edges[i].setAttribute('class','edge');
    }
  }
}
]]></script>
        <defs>
                <circle id="rim" cx="0" cy="0" r="7"/>
                <circle id="rim2" cx="0" cy="0" r="3.5"/>
                <g id="zoomPlus">
                        <use xlink:href="#rim" fill="#404040">
                                <set attributeName="fill" to="#808080" begin="zoomplus.mouseover" end="zoomplus.mouseout"/>
                        </use>
                        <path d="M-4,0h8M0,-4v8" fill="none" stroke="white" stroke-width="1.5" pointer-events="none"/>
                </g>
                <g id="zoomMin">
                        <use xlink:href="#rim" fill="#404040">
                                <set attributeName="fill" to="#808080" begin="zoomminus.mouseover" end="zoomminus.mouseout"/>
                        </use>
                        <path d="M-4,0h8" fill="none" stroke="white" stroke-width="1.5" pointer-events="none"/>
                </g>
                <g id="dirArrow">
                        <path fill="none" stroke="white" stroke-width="1.5" d="M0,-3.0v7 M-2.5,-0.5L0,-3.0L2.5,-0.5"/>
                </g>
               <g id="resetDef">
                       <use xlink:href="#rim2" fill="#404040">
                               <set attributeName="fill" to="#808080" begin="reset.mouseover" end="reset.mouseout"/>
                       </use>
               </g>
        </defs>

<script type="text/javascript">
var viewWidth = 744;
var viewHeight = 417;
var sectionId = 'dynsection-18';
</script>
<script xlink:href="../../svgpan.js"/>
<svg id="graph" class="graph">
<g id="viewport">
<title>RenderingSystem::renderParticles</title>
<polygon fill="white" stroke="none" points="-4,4 -4,-413 740,-413 740,4 -4,4"/>
<!-- Node1 -->
<g id="node1" class="node"><title>Node1</title>
<g id="a_node1"><a xlink:title=" ">
<polygon fill="#bfbfbf" stroke="black" points="0,-267.5 0,-286.5 165,-286.5 165,-267.5 0,-267.5"/>
<text text-anchor="middle" x="82.5" y="-274.5" font-family="Helvetica,sans-Serif" font-size="10.00">RenderingSystem::renderParticles</text>
</a>
</g>
</g>
<!-- Node2 -->
<g id="node2" class="node"><title>Node2</title>
<g id="a_node2"><a xlink:href="../../d6/db5/class_scene.html#a65d6f6cd75b250c657d5d4a267c4b245" target="_top" xlink:title=" ">
<polygon fill="white" stroke="black" points="225,-355.5 225,-374.5 338,-374.5 338,-355.5 225,-355.5"/>
<text text-anchor="middle" x="281.5" y="-362.5" font-family="Helvetica,sans-Serif" font-size="10.00">Scene::getComponent</text>
</a>
</g>
</g>
<!-- Node1&#45;&gt;Node2 -->
<g id="edge1" class="edge"><title>Node1&#45;&gt;Node2</title>
<path fill="none" stroke="midnightblue" d="M96.9179,-286.688C118.054,-301.519 160.842,-329.83 201,-346 207.28,-348.528 213.979,-350.774 220.725,-352.755"/>
<polygon fill="midnightblue" stroke="midnightblue" points="220.026,-356.193 230.596,-355.47 221.882,-349.443 220.026,-356.193"/>
</g>
<!-- Node5 -->
<g id="node5" class="node"><title>Node5</title>
<g id="a_node5"><a xlink:href="../../d5/d79/class_component_interface.html#ad55486119519e96e617e082bf583b1d9" target="_top" xlink:title=" ">
<polygon fill="white" stroke="black" points="230,-306 230,-336 333,-336 333,-306 230,-306"/>
<text text-anchor="start" x="238" y="-324" font-family="Helvetica,sans-Serif" font-size="10.00">ComponentInterface</text>
<text text-anchor="middle" x="281.5" y="-313" font-family="Helvetica,sans-Serif" font-size="10.00">::getEntityID</text>
</a>
</g>
</g>
<!-- Node1&#45;&gt;Node5 -->
<g id="edge4" class="edge"><title>Node1&#45;&gt;Node5</title>
<path fill="none" stroke="midnightblue" d="M126.246,-286.547C153.595,-292.656 189.495,-300.674 219.779,-307.438"/>
<polygon fill="midnightblue" stroke="midnightblue" points="219.291,-310.915 229.814,-309.679 220.817,-304.083 219.291,-310.915"/>
</g>
<!-- Node6 -->
<g id="node6" class="node"><title>Node6</title>
<g id="a_node6"><a xlink:href="../../d0/d67/class_particles.html#acaa21a3b799b942411ee0fbc69898308" target="_top" xlink:title=" ">
<polygon fill="white" stroke="black" points="217.5,-267.5 217.5,-286.5 345.5,-286.5 345.5,-267.5 217.5,-267.5"/>
<text text-anchor="middle" x="281.5" y="-274.5" font-family="Helvetica,sans-Serif" font-size="10.00">Particles::getParticleType</text>
</a>
</g>
</g>
<!-- Node1&#45;&gt;Node6 -->
<g id="edge5" class="edge"><title>Node1&#45;&gt;Node6</title>
<path fill="none" stroke="midnightblue" d="M165.049,-277C178.967,-277 193.351,-277 207.042,-277"/>
<polygon fill="midnightblue" stroke="midnightblue" points="207.359,-280.5 217.359,-277 207.359,-273.5 207.359,-280.5"/>
</g>
<!-- Node7 -->
<g id="node7" class="node"><title>Node7</title>
<g id="a_node7"><a xlink:href="../../df/d86/class_default_particle_system.html#a18751e09ab38a8aeb21ec011206efe01" target="_top" xlink:title=" ">
<polygon fill="white" stroke="black" points="225,-218 225,-248 338,-248 338,-218 225,-218"/>
<text text-anchor="start" x="233" y="-236" font-family="Helvetica,sans-Serif" font-size="10.00">DefaultParticleSystem</text>
<text text-anchor="middle" x="281.5" y="-225" font-family="Helvetica,sans-Serif" font-size="10.00">::renderParticles</text>
</a>
</g>
</g>
<!-- Node1&#45;&gt;Node7 -->
<g id="edge6" class="edge"><title>Node1&#45;&gt;Node7</title>
<path fill="none" stroke="midnightblue" d="M126.246,-267.453C152.059,-261.687 185.489,-254.221 214.626,-247.713"/>
<polygon fill="midnightblue" stroke="midnightblue" points="215.736,-251.051 224.733,-245.456 214.21,-244.22 215.736,-251.051"/>
</g>
<!-- Node14 -->
<g id="node14" class="node"><title>Node14</title>
<g id="a_node14"><a xlink:href="../../d8/d31/class_rendering_system.html#a9a564fd51aaea7d85eaf86b5101802ee" target="_top" xlink:title=" ">
<polygon fill="white" stroke="black" points="201,-90 201,-120 362,-120 362,-90 201,-90"/>
<text text-anchor="start" x="209" y="-108" font-family="Helvetica,sans-Serif" font-size="10.00">RenderingSystem::supplyParticle</text>
<text text-anchor="middle" x="281.5" y="-97" font-family="Helvetica,sans-Serif" font-size="10.00">ShaderUniforms</text>
</a>
</g>
</g>
<!-- Node1&#45;&gt;Node14 -->
<g id="edge13" class="edge"><title>Node1&#45;&gt;Node14</title>
<path fill="none" stroke="midnightblue" d="M94.656,-267.26C125.472,-240.354 212.332,-164.518 255.502,-126.826"/>
<polygon fill="midnightblue" stroke="midnightblue" points="258.047,-129.25 263.278,-120.037 253.443,-123.977 258.047,-129.25"/>
</g>
<!-- Node3 -->
<g id="node3" class="node"><title>Node3</title>
<g id="a_node3"><a xlink:href="../../d6/db5/class_scene.html#af06ab78544ec997fd8e480762b2cc40a" target="_top" xlink:title=" ">
<polygon fill="white" stroke="black" points="398,-351.5 398,-370.5 569,-370.5 569,-351.5 398,-351.5"/>
<text text-anchor="middle" x="483.5" y="-358.5" font-family="Helvetica,sans-Serif" font-size="10.00">Scene::binarySearchForComponent</text>
</a>
</g>
</g>
<!-- Node2&#45;&gt;Node3 -->
<g id="edge2" class="edge"><title>Node2&#45;&gt;Node3</title>
<path fill="none" stroke="midnightblue" d="M338.211,-363.886C353.526,-363.579 370.577,-363.238 387.441,-362.901"/>
<polygon fill="midnightblue" stroke="midnightblue" points="387.971,-366.391 397.899,-362.692 387.831,-359.393 387.971,-366.391"/>
</g>
<!-- Node4 -->
<g id="node4" class="node"><title>Node4</title>
<g id="a_node4"><a xlink:href="../../d6/db5/class_scene.html#a55c346bea3f04eb9d9f8476a68c2fa93" target="_top" xlink:title=" ">
<polygon fill="white" stroke="black" points="410,-389.5 410,-408.5 557,-408.5 557,-389.5 410,-389.5"/>
<text text-anchor="middle" x="483.5" y="-396.5" font-family="Helvetica,sans-Serif" font-size="10.00">Scene::binarySearchForEntity</text>
</a>
</g>
</g>
<!-- Node2&#45;&gt;Node4 -->
<g id="edge3" class="edge"><title>Node2&#45;&gt;Node4</title>
<path fill="none" stroke="midnightblue" d="M338.211,-374.471C362.496,-378.599 391.148,-383.47 416.493,-387.779"/>
<polygon fill="midnightblue" stroke="midnightblue" points="415.949,-391.236 426.394,-389.462 417.122,-384.335 415.949,-391.236"/>
</g>
<!-- Node8 -->
<g id="node8" class="node"><title>Node8</title>
<g id="a_node8"><a xlink:href="../../d0/d67/class_particles.html#a157f6a74b53ef15e2bd063d594d194f0" target="_top" xlink:title=" ">
<polygon fill="white" stroke="black" points="425.5,-304.5 425.5,-323.5 541.5,-323.5 541.5,-304.5 425.5,-304.5"/>
<text text-anchor="middle" x="483.5" y="-311.5" font-family="Helvetica,sans-Serif" font-size="10.00">Particles::areVitalsNull</text>
</a>
</g>
</g>
<!-- Node7&#45;&gt;Node8 -->
<g id="edge7" class="edge"><title>Node7&#45;&gt;Node8</title>
<path fill="none" stroke="midnightblue" d="M338.365,-246.677C346.59,-249.784 354.731,-253.524 362,-258 381.538,-270.029 377.977,-283.797 398,-295 403.511,-298.084 409.489,-300.667 415.631,-302.831"/>
<polygon fill="midnightblue" stroke="midnightblue" points="414.785,-306.234 425.375,-305.898 416.887,-299.557 414.785,-306.234"/>
</g>
<!-- Node9 -->
<g id="node9" class="node"><title>Node9</title>
<g id="a_node9"><a xlink:href="../../d1/d51/class_shader.html#a240b7ecb19883fa340489840733eae6d" target="_top" xlink:title=" ">
<polygon fill="white" stroke="black" points="614,-114.5 614,-133.5 727,-133.5 727,-114.5 614,-114.5"/>
<text text-anchor="middle" x="670.5" y="-121.5" font-family="Helvetica,sans-Serif" font-size="10.00">Shader::getProgramID</text>
</a>
</g>
</g>
<!-- Node7&#45;&gt;Node9 -->
<g id="edge8" class="edge"><title>Node7&#45;&gt;Node9</title>
<path fill="none" stroke="midnightblue" d="M338.293,-224.786C415.85,-213.077 549.02,-191.811 569,-181 589.461,-169.929 585.16,-155.149 605,-143 608.43,-140.9 612.105,-139.021 615.897,-137.341"/>
<polygon fill="midnightblue" stroke="midnightblue" points="617.467,-140.485 625.491,-133.566 614.904,-133.971 617.467,-140.485"/>
</g>
<!-- Node10 -->
<g id="node10" class="node"><title>Node10</title>
<g id="a_node10"><a xlink:href="../../d0/d67/class_particles.html#adc1860aaf7be7e28ac03b75b28dd9815" target="_top" xlink:title=" ">
<polygon fill="white" stroke="black" points="430,-266.5 430,-285.5 537,-285.5 537,-266.5 430,-266.5"/>
<text text-anchor="middle" x="483.5" y="-273.5" font-family="Helvetica,sans-Serif" font-size="10.00">Particles::getTexture</text>
</a>
</g>
</g>
<!-- Node7&#45;&gt;Node10 -->
<g id="edge9" class="edge"><title>Node7&#45;&gt;Node10</title>
<path fill="none" stroke="midnightblue" d="M338.211,-244.978C366.314,-251.02 400.265,-258.319 428.172,-264.319"/>
<polygon fill="midnightblue" stroke="midnightblue" points="427.646,-267.786 438.158,-266.466 429.117,-260.943 427.646,-267.786"/>
</g>
<!-- Node11 -->
<g id="node11" class="node"><title>Node11</title>
<g id="a_node11"><a xlink:href="../../d2/d7f/class_texture.html#a922a73acbaee522dd96d971b630da0fa" target="_top" xlink:title=" ">
<polygon fill="white" stroke="black" points="423,-228.5 423,-247.5 544,-247.5 544,-228.5 423,-228.5"/>
<text text-anchor="middle" x="483.5" y="-235.5" font-family="Helvetica,sans-Serif" font-size="10.00">Texture::getTextureData</text>
</a>
</g>
</g>
<!-- Node7&#45;&gt;Node11 -->
<g id="edge10" class="edge"><title>Node7&#45;&gt;Node11</title>
<path fill="none" stroke="midnightblue" d="M338.211,-234.393C361.27,-234.969 388.266,-235.644 412.63,-236.253"/>
<polygon fill="midnightblue" stroke="midnightblue" points="412.807,-239.759 422.891,-236.51 412.982,-232.761 412.807,-239.759"/>
</g>
<!-- Node12 -->
<g id="node12" class="node"><title>Node12</title>
<g id="a_node12"><a xlink:href="../../d7/da2/namespace_shaders.html#aaa649eb98b860170946f582b8e93c12d" target="_top" xlink:title=" ">
<polygon fill="white" stroke="black" points="412.5,-152.5 412.5,-171.5 554.5,-171.5 554.5,-152.5 412.5,-152.5"/>
<text text-anchor="middle" x="483.5" y="-159.5" font-family="Helvetica,sans-Serif" font-size="10.00">Shaders::getUniformLocation</text>
</a>
</g>
</g>
<!-- Node7&#45;&gt;Node12 -->
<g id="edge11" class="edge"><title>Node7&#45;&gt;Node12</title>
<path fill="none" stroke="midnightblue" d="M316.744,-217.911C339.531,-208.158 370.264,-195.55 398,-186 410.174,-181.808 423.51,-177.771 435.916,-174.242"/>
<polygon fill="midnightblue" stroke="midnightblue" points="436.937,-177.591 445.626,-171.528 435.053,-170.849 436.937,-177.591"/>
</g>
<!-- Node13 -->
<g id="node13" class="node"><title>Node13</title>
<g id="a_node13"><a xlink:href="../../d7/da2/namespace_shaders.html#a25a80e81a8051ed31ecab4ed167b0be8" target="_top" xlink:title=" ">
<polygon fill="white" stroke="black" points="605,-152.5 605,-171.5 736,-171.5 736,-152.5 605,-152.5"/>
<text text-anchor="middle" x="670.5" y="-159.5" font-family="Helvetica,sans-Serif" font-size="10.00">Shaders::getUniformName</text>
</a>
</g>
</g>
<!-- Node12&#45;&gt;Node13 -->
<g id="edge12" class="edge"><title>Node12&#45;&gt;Node13</title>
<path fill="none" stroke="midnightblue" d="M554.704,-162C567.818,-162 581.568,-162 594.812,-162"/>
<polygon fill="midnightblue" stroke="midnightblue" points="594.822,-165.5 604.822,-162 594.822,-158.5 594.822,-165.5"/>
</g>
<!-- Node14&#45;&gt;Node9 -->
<g id="edge14" class="edge"><title>Node14&#45;&gt;Node9</title>
<path fill="none" stroke="midnightblue" d="M362.217,-108.914C433.523,-112.415 536.801,-117.485 603.555,-120.762"/>
<polygon fill="midnightblue" stroke="midnightblue" points="603.785,-124.278 613.944,-121.272 604.128,-117.286 603.785,-124.278"/>
</g>
<!-- Node14&#45;&gt;Node12 -->
<g id="edge16" class="edge"><title>Node14&#45;&gt;Node12</title>
<path fill="none" stroke="midnightblue" d="M335.105,-120.049C354.83,-125.687 377.442,-132.144 398,-138 411.324,-141.796 425.832,-145.92 439.007,-149.661"/>
<polygon fill="midnightblue" stroke="midnightblue" points="438.204,-153.071 448.779,-152.436 440.116,-146.337 438.204,-153.071"/>
</g>
<!-- Node15 -->
<g id="node15" class="node"><title>Node15</title>
<g id="a_node15"><a xlink:href="../../da/dbb/class_camera.html#a587090d0991afb2c6b44bcefd379f2a1" target="_top" xlink:title=" ">
<polygon fill="white" stroke="black" points="413.5,-38.5 413.5,-57.5 553.5,-57.5 553.5,-38.5 413.5,-38.5"/>
<text text-anchor="middle" x="483.5" y="-45.5" font-family="Helvetica,sans-Serif" font-size="10.00">Camera::getProjectionMatrix</text>
</a>
</g>
</g>
<!-- Node14&#45;&gt;Node15 -->
<g id="edge15" class="edge"><title>Node14&#45;&gt;Node15</title>
<path fill="none" stroke="midnightblue" d="M324.984,-89.9317C346.679,-82.5159 373.583,-73.7447 398,-67 407.143,-64.4743 416.912,-62.0396 426.442,-59.8044"/>
<polygon fill="midnightblue" stroke="midnightblue" points="427.288,-63.2013 436.251,-57.5519 425.721,-56.3788 427.288,-63.2013"/>
</g>
<!-- Node16 -->
<g id="node16" class="node"><title>Node16</title>
<g id="a_node16"><a xlink:href="../../da/dbb/class_camera.html#a1d11fe156faf5a21c8737aa37f72af5c" target="_top" xlink:title=" ">
<polygon fill="white" stroke="black" points="424.5,-76.5 424.5,-95.5 542.5,-95.5 542.5,-76.5 424.5,-76.5"/>
<text text-anchor="middle" x="483.5" y="-83.5" font-family="Helvetica,sans-Serif" font-size="10.00">Camera::getViewMatrix</text>
</a>
</g>
</g>
<!-- Node14&#45;&gt;Node16 -->
<g id="edge17" class="edge"><title>Node14&#45;&gt;Node16</title>
<path fill="none" stroke="midnightblue" d="M362.12,-97.4361C379.35,-95.7992 397.423,-94.0823 414.174,-92.491"/>
<polygon fill="midnightblue" stroke="midnightblue" points="414.789,-95.9484 424.414,-91.5182 414.127,-88.9797 414.789,-95.9484"/>
</g>
<!-- Node17 -->
<g id="node17" class="node"><title>Node17</title>
<g id="a_node17"><a xlink:href="../../d1/d51/class_shader.html#a78dd190177e9d0062d150da522ab3125" target="_top" xlink:title=" ">
<polygon fill="white" stroke="black" points="430.5,-0.5 430.5,-19.5 536.5,-19.5 536.5,-0.5 430.5,-0.5"/>
<text text-anchor="middle" x="483.5" y="-7.5" font-family="Helvetica,sans-Serif" font-size="10.00">Shader::useProgram</text>
</a>
</g>
</g>
<!-- Node14&#45;&gt;Node17 -->
<g id="edge18" class="edge"><title>Node14&#45;&gt;Node17</title>
<path fill="none" stroke="midnightblue" d="M300.903,-89.8203C322.74,-72.5671 360.882,-44.7624 398,-29 405.104,-25.9833 412.756,-23.4125 420.451,-21.23"/>
<polygon fill="midnightblue" stroke="midnightblue" points="421.403,-24.5988 430.183,-18.6689 419.621,-17.8292 421.403,-24.5988"/>
</g>
<!-- Node17&#45;&gt;Node9 -->
<g id="edge19" class="edge"><title>Node17&#45;&gt;Node9</title>
<path fill="none" stroke="midnightblue" d="M536.563,-17.1154C547.671,-19.8752 559.046,-23.7003 569,-29 605.508,-48.4367 638.39,-84.7321 655.995,-106.396"/>
<polygon fill="midnightblue" stroke="midnightblue" points="653.415,-108.775 662.371,-114.435 658.899,-104.425 653.415,-108.775"/>
</g>
</g>
</svg>
        <g id="navigator" transform="translate(0 0)" fill="#404254">
                <rect fill="#f2f5e9" fill-opacity="0.5" stroke="#606060" stroke-width=".5" x="0" y="0" width="60" height="60"/>
                <use id="zoomplus" xlink:href="#zoomPlus" x="17" y="9" onmousedown="handleZoom(evt,'in')"/>
                <use id="zoomminus" xlink:href="#zoomMin" x="42" y="9" onmousedown="handleZoom(evt,'out')"/>
                <use id="reset" xlink:href="#resetDef" x="30" y="36" onmousedown="handleReset()"/>
                <g id="arrowUp" xlink:href="#dirArrow" transform="translate(30 24)" onmousedown="handlePan(0,-1)">
                  <use xlink:href="#rim" fill="#404040">
                        <set attributeName="fill" to="#808080" begin="arrowUp.mouseover" end="arrowUp.mouseout"/>
                  </use>
                  <path fill="none" stroke="white" stroke-width="1.5" d="M0,-3.0v7 M-2.5,-0.5L0,-3.0L2.5,-0.5"/>
                </g>
                <g id="arrowRight" xlink:href="#dirArrow" transform="rotate(90) translate(36 -43)" onmousedown="handlePan(1,0)">
                  <use xlink:href="#rim" fill="#404040">
                        <set attributeName="fill" to="#808080" begin="arrowRight.mouseover" end="arrowRight.mouseout"/>
                  </use>
                  <path fill="none" stroke="white" stroke-width="1.5" d="M0,-3.0v7 M-2.5,-0.5L0,-3.0L2.5,-0.5"/>
                </g>
                <g id="arrowDown" xlink:href="#dirArrow" transform="rotate(180) translate(-30 -48)" onmousedown="handlePan(0,1)">
                  <use xlink:href="#rim" fill="#404040">
                        <set attributeName="fill" to="#808080" begin="arrowDown.mouseover" end="arrowDown.mouseout"/>
                  </use>
                  <path fill="none" stroke="white" stroke-width="1.5" d="M0,-3.0v7 M-2.5,-0.5L0,-3.0L2.5,-0.5"/>
                </g>
                <g id="arrowLeft" xlink:href="#dirArrow" transform="rotate(270) translate(-36 17)" onmousedown="handlePan(-1,0)">
                  <use xlink:href="#rim" fill="#404040">
                        <set attributeName="fill" to="#808080" begin="arrowLeft.mouseover" end="arrowLeft.mouseout"/>
                  </use>
                  <path fill="none" stroke="white" stroke-width="1.5" d="M0,-3.0v7 M-2.5,-0.5L0,-3.0L2.5,-0.5"/>
                </g>
        </g>
        <svg viewBox="0 0 15 15" width="100%" height="30px" preserveAspectRatio="xMaxYMin meet">
         <g id="arrow_out" transform="scale(0.3 0.3)">
          <a xlink:href="class_rendering_system_a488d5dcc3e1f3c63dedee53bc022a6af_cgraph_org.svg" target="_base">
           <rect id="button" ry="5" rx="5" y="6" x="6" height="38" width="38"
                fill="#f2f5e9" fill-opacity="0.5" stroke="#606060" stroke-width="1.0"/>
           <path id="arrow"
             d="M 11.500037,31.436501 C 11.940474,20.09759 22.043105,11.32322 32.158766,21.979434 L 37.068811,17.246167 C 37.068811,17.246167 37.088388,32 37.088388,32 L 22.160133,31.978069 C 22.160133,31.978069 26.997745,27.140456 26.997745,27.140456 C 18.528582,18.264221 13.291696,25.230495 11.500037,31.436501 z"
             style="fill:#404040;"/>
          </a>
         </g>
        </svg>
</svg>
