<?xml version="1.0" encoding="UTF-8" standalone="no"?>
<!DOCTYPE svg PUBLIC "-//W3C//DTD SVG 1.1//EN"
 "http://www.w3.org/Graphics/SVG/1.1/DTD/svg11.dtd">
<!-- Generated by graphviz version 2.38.0 (20140413.2041)
 -->
<!-- Title: RenderingSystem::supplyDefaultShaderUniforms Pages: 1 -->
<svg width="511pt" height="142pt"
 viewBox="0.00 0.00 511.00 142.00" xmlns="http://www.w3.org/2000/svg" xmlns:xlink="http://www.w3.org/1999/xlink">
<g id="graph0" class="graph" transform="scale(1 1) rotate(0) translate(4 138)">
<title>RenderingSystem::supplyDefaultShaderUniforms</title>
<polygon fill="white" stroke="none" points="-4,4 -4,-138 507,-138 507,4 -4,4"/>
<!-- Node1 -->
<g id="node1" class="node"><title>Node1</title>
<g id="a_node1"><a xlink:title=" ">
<polygon fill="#bfbfbf" stroke="black" points="0,-52 0,-82 158,-82 158,-52 0,-52"/>
<text text-anchor="start" x="8" y="-70" font-family="Helvetica,sans-Serif" font-size="10.00">RenderingSystem::supplyDefault</text>
<text text-anchor="middle" x="79" y="-59" font-family="Helvetica,sans-Serif" font-size="10.00">ShaderUniforms</text>
</a>
</g>
</g>
<!-- Node2 -->
<g id="node2" class="node"><title>Node2</title>
<g id="a_node2"><a xlink:href="../../d1/d51/class_shader.html#a240b7ecb19883fa340489840733eae6d" target="_top" xlink:title=" ">
<polygon fill="white" stroke="black" points="208.5,-114.5 208.5,-133.5 321.5,-133.5 321.5,-114.5 208.5,-114.5"/>
<text text-anchor="middle" x="265" y="-121.5" font-family="Helvetica,sans-Serif" font-size="10.00">Shader::getProgramID</text>
</a>
</g>
</g>
<!-- Node1&#45;&gt;Node2 -->
<g id="edge1" class="edge"><title>Node1&#45;&gt;Node2</title>
<path fill="none" stroke="midnightblue" d="M123.123,-82.0155C144.373,-89.2507 170.435,-97.8805 194,-105 201.543,-107.279 209.582,-109.579 217.422,-111.754"/>
<polygon fill="midnightblue" stroke="midnightblue" points="216.626,-115.165 227.195,-114.43 218.475,-108.413 216.626,-115.165"/>
</g>
<!-- Node3 -->
<g id="node3" class="node"><title>Node3</title>
<g id="a_node3"><a xlink:href="../../da/dbb/class_camera.html#a587090d0991afb2c6b44bcefd379f2a1" target="_top" xlink:title=" ">
<polygon fill="white" stroke="black" points="195,-76.5 195,-95.5 335,-95.5 335,-76.5 195,-76.5"/>
<text text-anchor="middle" x="265" y="-83.5" font-family="Helvetica,sans-Serif" font-size="10.00">Camera::getProjectionMatrix</text>
</a>
</g>
</g>
<!-- Node1&#45;&gt;Node3 -->
<g id="edge2" class="edge"><title>Node1&#45;&gt;Node3</title>
<path fill="none" stroke="midnightblue" d="M158.033,-75.0577C166.928,-75.9763 176.002,-76.9133 184.911,-77.8332"/>
<polygon fill="midnightblue" stroke="midnightblue" points="184.575,-81.3171 194.882,-78.8628 185.294,-74.3541 184.575,-81.3171"/>
</g>
<!-- Node4 -->
<g id="node4" class="node"><title>Node4</title>
<g id="a_node4"><a xlink:href="../../d7/da2/namespace_shaders.html#aaa649eb98b860170946f582b8e93c12d" target="_top" xlink:title=" ">
<polygon fill="white" stroke="black" points="194,-38.5 194,-57.5 336,-57.5 336,-38.5 194,-38.5"/>
<text text-anchor="middle" x="265" y="-45.5" font-family="Helvetica,sans-Serif" font-size="10.00">Shaders::getUniformLocation</text>
</a>
</g>
</g>
<!-- Node1&#45;&gt;Node4 -->
<g id="edge3" class="edge"><title>Node1&#45;&gt;Node4</title>
<path fill="none" stroke="midnightblue" d="M158.033,-58.9423C166.551,-58.0627 175.233,-57.1662 183.777,-56.2839"/>
<polygon fill="midnightblue" stroke="midnightblue" points="184.138,-59.7653 193.726,-55.2566 183.419,-52.8023 184.138,-59.7653"/>
</g>
<!-- Node6 -->
<g id="node6" class="node"><title>Node6</title>
<g id="a_node6"><a xlink:href="../../da/dbb/class_camera.html#a1d11fe156faf5a21c8737aa37f72af5c" target="_top" xlink:title=" ">
<polygon fill="white" stroke="black" points="206,-0.5 206,-19.5 324,-19.5 324,-0.5 206,-0.5"/>
<text text-anchor="middle" x="265" y="-7.5" font-family="Helvetica,sans-Serif" font-size="10.00">Camera::getViewMatrix</text>
</a>
</g>
</g>
<!-- Node1&#45;&gt;Node6 -->
<g id="edge5" class="edge"><title>Node1&#45;&gt;Node6</title>
<path fill="none" stroke="midnightblue" d="M123.123,-51.9845C144.373,-44.7493 170.435,-36.1195 194,-29 201.543,-26.721 209.582,-24.4209 217.422,-22.2461"/>
<polygon fill="midnightblue" stroke="midnightblue" points="218.475,-25.5867 227.195,-19.5695 216.626,-18.8353 218.475,-25.5867"/>
</g>
<!-- Node5 -->
<g id="node5" class="node"><title>Node5</title>
<g id="a_node5"><a xlink:href="../../d7/da2/namespace_shaders.html#a25a80e81a8051ed31ecab4ed167b0be8" target="_top" xlink:title=" ">
<polygon fill="white" stroke="black" points="372,-38.5 372,-57.5 503,-57.5 503,-38.5 372,-38.5"/>
<text text-anchor="middle" x="437.5" y="-45.5" font-family="Helvetica,sans-Serif" font-size="10.00">Shaders::getUniformName</text>
</a>
</g>
</g>
<!-- Node4&#45;&gt;Node5 -->
<g id="edge4" class="edge"><title>Node4&#45;&gt;Node5</title>
<path fill="none" stroke="midnightblue" d="M336.333,-48C344.681,-48 353.225,-48 361.633,-48"/>
<polygon fill="midnightblue" stroke="midnightblue" points="361.798,-51.5001 371.798,-48 361.798,-44.5001 361.798,-51.5001"/>
</g>
</g>
</svg>
