<?xml version="1.0" encoding="UTF-8" standalone="no"?>
<!DOCTYPE svg PUBLIC "-//W3C//DTD SVG 1.1//EN"
 "http://www.w3.org/Graphics/SVG/1.1/DTD/svg11.dtd">
<!-- Generated by graphviz version 2.38.0 (20140413.2041)
 -->
<!-- Title: Material Pages: 1 -->
<svg width="169pt" height="209pt"
 viewBox="0.00 0.00 169.00 209.00" xmlns="http://www.w3.org/2000/svg" xmlns:xlink="http://www.w3.org/1999/xlink">
<g id="graph0" class="graph" transform="scale(1 1) rotate(0) translate(4 205)">
<title>Material</title>
<polygon fill="white" stroke="none" points="-4,4 -4,-205 165,-205 165,4 -4,4"/>
<!-- Node1 -->
<g id="node1" class="node"><title>Node1</title>
<g id="a_node1"><a xlink:title=" ">
<polygon fill="#bfbfbf" stroke="black" points="34,-0.5 34,-19.5 85,-19.5 85,-0.5 34,-0.5"/>
<text text-anchor="middle" x="59.5" y="-7.5" font-family="Helvetica,sans-Serif" font-size="10.00">Material</text>
</a>
</g>
</g>
<!-- Node2 -->
<g id="node2" class="node"><title>Node2</title>
<g id="a_node2"><a xlink:href="../../d2/d00/class_component.html" target="_top" xlink:title=" ">
<polygon fill="white" stroke="black" points="0,-57.5 0,-76.5 119,-76.5 119,-57.5 0,-57.5"/>
<text text-anchor="middle" x="59.5" y="-64.5" font-family="Helvetica,sans-Serif" font-size="10.00">Component&lt; Material &gt;</text>
</a>
</g>
</g>
<!-- Node2&#45;&gt;Node1 -->
<g id="edge1" class="edge"><title>Node2&#45;&gt;Node1</title>
<path fill="none" stroke="midnightblue" d="M59.5,-47.1166C59.5,-37.8173 59.5,-27.0557 59.5,-19.7149"/>
<polygon fill="midnightblue" stroke="midnightblue" points="56.0001,-47.4062 59.5,-57.4063 63.0001,-47.4063 56.0001,-47.4062"/>
</g>
<!-- Node3 -->
<g id="node3" class="node"><title>Node3</title>
<g id="a_node3"><a xlink:href="../../d5/d79/class_component_interface.html" target="_top" xlink:title=" ">
<polygon fill="white" stroke="black" points="16,-181.5 16,-200.5 119,-200.5 119,-181.5 16,-181.5"/>
<text text-anchor="middle" x="67.5" y="-188.5" font-family="Helvetica,sans-Serif" font-size="10.00">ComponentInterface</text>
</a>
</g>
</g>
<!-- Node3&#45;&gt;Node2 -->
<g id="edge2" class="edge"><title>Node3&#45;&gt;Node2</title>
<path fill="none" stroke="midnightblue" d="M65.1478,-171.087C64.1924,-162.788 63.1602,-152.923 62.5,-144 60.707,-119.77 59.9417,-91.1087 59.653,-76.9036"/>
<polygon fill="midnightblue" stroke="midnightblue" points="61.6945,-171.686 66.3611,-181.198 68.6446,-170.852 61.6945,-171.686"/>
</g>
<!-- Node4 -->
<g id="node4" class="node"><title>Node4</title>
<g id="a_node4"><a xlink:href="../../d2/d00/class_component.html" target="_top" xlink:title=" ">
<polygon fill="white" stroke="black" points="72,-124.5 72,-143.5 161,-143.5 161,-124.5 72,-124.5"/>
<text text-anchor="middle" x="116.5" y="-131.5" font-family="Helvetica,sans-Serif" font-size="10.00">Component&lt; T &gt;</text>
</a>
</g>
</g>
<!-- Node3&#45;&gt;Node4 -->
<g id="edge4" class="edge"><title>Node3&#45;&gt;Node4</title>
<path fill="none" stroke="midnightblue" d="M81.9077,-173.828C90.682,-163.979 101.549,-151.782 108.736,-143.715"/>
<polygon fill="midnightblue" stroke="midnightblue" points="79.195,-171.611 75.1563,-181.406 84.4217,-176.268 79.195,-171.611"/>
</g>
<!-- Node4&#45;&gt;Node2 -->
<g id="edge3" class="edge"><title>Node4&#45;&gt;Node2</title>
<path fill="none" stroke="orange" stroke-dasharray="5,2" d="M102.149,-116.635C91.0015,-103.923 75.9842,-86.7978 67.0655,-76.6273"/>
<polygon fill="orange" stroke="orange" points="99.5879,-119.023 108.813,-124.234 104.851,-114.408 99.5879,-119.023"/>
<text text-anchor="middle" x="119.5" y="-98" font-family="Helvetica,sans-Serif" font-size="10.00"> &lt; Material &gt;</text>
</g>
</g>
</svg>
