<?xml version="1.0" encoding="UTF-8" standalone="no"?>
<!DOCTYPE svg PUBLIC "-//W3C//DTD SVG 1.1//EN"
 "http://www.w3.org/Graphics/SVG/1.1/DTD/svg11.dtd">
<!-- Generated by graphviz version 2.38.0 (20140413.2041)
 -->
<!-- Title: FloorObject Pages: 1 -->
<svg width="836pt" height="312pt"
 viewBox="0.00 0.00 836.00 312.00" xmlns="http://www.w3.org/2000/svg" xmlns:xlink="http://www.w3.org/1999/xlink">
<g id="graph0" class="graph" transform="scale(1 1) rotate(0) translate(4 308)">
<title>FloorObject</title>
<polygon fill="white" stroke="none" points="-4,4 -4,-308 832,-308 832,4 -4,4"/>
<!-- Node1 -->
<g id="node1" class="node"><title>Node1</title>
<g id="a_node1"><a xlink:title=" ">
<polygon fill="#bfbfbf" stroke="black" points="761,-170.5 761,-189.5 828,-189.5 828,-170.5 761,-170.5"/>
<text text-anchor="middle" x="794.5" y="-177.5" font-family="Helvetica,sans-Serif" font-size="10.00">FloorObject</text>
</a>
</g>
</g>
<!-- Node2 -->
<g id="node2" class="node"><title>Node2</title>
<g id="a_node2"><a xlink:href="../../d3/d43/class_entity_wrapper.html" target="_top" xlink:title=" ">
<polygon fill="white" stroke="black" points="583,-246.5 583,-265.5 662,-265.5 662,-246.5 583,-246.5"/>
<text text-anchor="middle" x="622.5" y="-253.5" font-family="Helvetica,sans-Serif" font-size="10.00">EntityWrapper</text>
</a>
</g>
</g>
<!-- Node2&#45;&gt;Node1 -->
<g id="edge1" class="edge"><title>Node2&#45;&gt;Node1</title>
<path fill="none" stroke="midnightblue" d="M672.159,-247C694.564,-241.659 720.997,-233.609 743,-222 759.137,-213.486 774.829,-199.208 784.329,-189.697"/>
<polygon fill="midnightblue" stroke="midnightblue" points="671.155,-243.639 662.179,-249.267 672.705,-250.465 671.155,-243.639"/>
</g>
<!-- Node3 -->
<g id="node3" class="node"><title>Node3</title>
<g id="a_node3"><a xlink:href="../../d1/d51/class_shader.html" target="_top" xlink:title=" ">
<polygon fill="white" stroke="black" points="599,-208.5 599,-227.5 646,-227.5 646,-208.5 599,-208.5"/>
<text text-anchor="middle" x="622.5" y="-215.5" font-family="Helvetica,sans-Serif" font-size="10.00">Shader</text>
</a>
</g>
</g>
<!-- Node3&#45;&gt;Node1 -->
<g id="edge2" class="edge"><title>Node3&#45;&gt;Node1</title>
<path fill="none" stroke="#9a32cd" stroke-dasharray="5,2" d="M656.105,-212.11C680.208,-207.597 713.775,-200.976 743,-194 748.841,-192.606 755.026,-191 760.991,-189.384"/>
<polygon fill="#9a32cd" stroke="#9a32cd" points="655.266,-208.706 646.071,-213.97 656.541,-215.589 655.266,-208.706"/>
<text text-anchor="middle" x="711.5" y="-210" font-family="Helvetica,sans-Serif" font-size="10.00"> shader</text>
</g>
<!-- Node4 -->
<g id="node4" class="node"><title>Node4</title>
<g id="a_node4"><a xlink:href="../../d2/d00/class_component.html" target="_top" xlink:title=" ">
<polygon fill="white" stroke="black" points="362,-246.5 362,-265.5 477,-265.5 477,-246.5 362,-246.5"/>
<text text-anchor="middle" x="419.5" y="-253.5" font-family="Helvetica,sans-Serif" font-size="10.00">Component&lt; Shader &gt;</text>
</a>
</g>
</g>
<!-- Node4&#45;&gt;Node3 -->
<g id="edge3" class="edge"><title>Node4&#45;&gt;Node3</title>
<path fill="none" stroke="midnightblue" d="M486.976,-246.866C511.589,-243.105 539.663,-238.365 565,-233 576.219,-230.624 588.543,-227.423 598.809,-224.588"/>
<polygon fill="midnightblue" stroke="midnightblue" points="486.384,-243.416 477.016,-248.365 487.425,-250.338 486.384,-243.416"/>
</g>
<!-- Node5 -->
<g id="node5" class="node"><title>Node5</title>
<g id="a_node5"><a xlink:href="../../d5/d79/class_component_interface.html" target="_top" xlink:title=" ">
<polygon fill="white" stroke="black" points="0,-153.5 0,-172.5 103,-172.5 103,-153.5 0,-153.5"/>
<text text-anchor="middle" x="51.5" y="-160.5" font-family="Helvetica,sans-Serif" font-size="10.00">ComponentInterface</text>
</a>
</g>
</g>
<!-- Node5&#45;&gt;Node4 -->
<g id="edge4" class="edge"><title>Node5&#45;&gt;Node4</title>
<path fill="none" stroke="midnightblue" d="M66.4207,-180.693C82.0954,-199.143 109.405,-227.132 140,-240 211.986,-270.278 303.782,-268.76 361.871,-263.49"/>
<polygon fill="midnightblue" stroke="midnightblue" points="68.9373,-178.243 59.882,-172.743 63.5308,-182.689 68.9373,-178.243"/>
</g>
<!-- Node6 -->
<g id="node6" class="node"><title>Node6</title>
<g id="a_node6"><a xlink:href="../../d2/d00/class_component.html" target="_top" xlink:title=" ">
<polygon fill="white" stroke="black" points="140,-153.5 140,-172.5 229,-172.5 229,-153.5 140,-153.5"/>
<text text-anchor="middle" x="184.5" y="-160.5" font-family="Helvetica,sans-Serif" font-size="10.00">Component&lt; T &gt;</text>
</a>
</g>
</g>
<!-- Node5&#45;&gt;Node6 -->
<g id="edge6" class="edge"><title>Node5&#45;&gt;Node6</title>
<path fill="none" stroke="midnightblue" d="M113.194,-163C122.17,-163 131.266,-163 139.805,-163"/>
<polygon fill="midnightblue" stroke="midnightblue" points="113.148,-159.5 103.148,-163 113.148,-166.5 113.148,-159.5"/>
</g>
<!-- Node10 -->
<g id="node10" class="node"><title>Node10</title>
<g id="a_node10"><a xlink:href="../../d2/d00/class_component.html" target="_top" xlink:title=" ">
<polygon fill="white" stroke="black" points="360,-170.5 360,-189.5 479,-189.5 479,-170.5 360,-170.5"/>
<text text-anchor="middle" x="419.5" y="-177.5" font-family="Helvetica,sans-Serif" font-size="10.00">Component&lt; Material &gt;</text>
</a>
</g>
</g>
<!-- Node5&#45;&gt;Node10 -->
<g id="edge11" class="edge"><title>Node5&#45;&gt;Node10</title>
<path fill="none" stroke="midnightblue" d="M74.8968,-177.996C123.82,-208.714 242.75,-272.159 329,-226 341.716,-219.195 335.273,-207.395 347,-199 352.431,-195.112 358.606,-192.02 364.998,-189.561"/>
<polygon fill="midnightblue" stroke="midnightblue" points="76.6438,-174.959 66.3375,-172.503 72.863,-180.85 76.6438,-174.959"/>
</g>
<!-- Node12 -->
<g id="node12" class="node"><title>Node12</title>
<g id="a_node12"><a xlink:href="../../d2/d00/class_component.html" target="_top" xlink:title=" ">
<polygon fill="white" stroke="black" points="347,-132.5 347,-151.5 492,-151.5 492,-132.5 347,-132.5"/>
<text text-anchor="middle" x="419.5" y="-139.5" font-family="Helvetica,sans-Serif" font-size="10.00">Component&lt; CollisionMesh &gt;</text>
</a>
</g>
</g>
<!-- Node5&#45;&gt;Node12 -->
<g id="edge15" class="edge"><title>Node5&#45;&gt;Node12</title>
<path fill="none" stroke="midnightblue" d="M81.2671,-149.073C118.487,-131.899 185.825,-103.673 247,-93 282.902,-86.7361 297.286,-75.0439 329,-93 342.531,-100.661 334.575,-113.651 347,-123 352.132,-126.861 357.986,-129.939 364.086,-132.392"/>
<polygon fill="midnightblue" stroke="midnightblue" points="79.6108,-145.984 72.0364,-153.392 82.5773,-152.324 79.6108,-145.984"/>
</g>
<!-- Node15 -->
<g id="node15" class="node"><title>Node15</title>
<g id="a_node15"><a xlink:href="../../d2/d00/class_component.html" target="_top" xlink:title=" ">
<polygon fill="white" stroke="black" points="364.5,-53.5 364.5,-72.5 474.5,-72.5 474.5,-53.5 364.5,-53.5"/>
<text text-anchor="middle" x="419.5" y="-60.5" font-family="Helvetica,sans-Serif" font-size="10.00">Component&lt; Model &gt;</text>
</a>
</g>
</g>
<!-- Node5&#45;&gt;Node15 -->
<g id="edge20" class="edge"><title>Node5&#45;&gt;Node15</title>
<path fill="none" stroke="midnightblue" d="M68.1272,-145.89C84.3514,-129.34 111.332,-105.047 140,-93 213.301,-62.1967 306.572,-58.5027 364.405,-59.8549"/>
<polygon fill="midnightblue" stroke="midnightblue" points="65.4277,-143.65 61.0664,-153.305 70.4971,-148.477 65.4277,-143.65"/>
</g>
<!-- Node6&#45;&gt;Node4 -->
<g id="edge5" class="edge"><title>Node6&#45;&gt;Node4</title>
<path fill="none" stroke="orange" stroke-dasharray="5,2" d="M213.052,-177.375C244.729,-193.486 298.597,-219.622 347,-237 356.792,-240.515 367.545,-243.708 377.671,-246.431"/>
<polygon fill="orange" stroke="orange" points="214.46,-174.164 203.964,-172.717 211.267,-180.393 214.46,-174.164"/>
<text text-anchor="middle" x="288" y="-233" font-family="Helvetica,sans-Serif" font-size="10.00"> &lt; Shader &gt;</text>
</g>
<!-- Node6&#45;&gt;Node10 -->
<g id="edge12" class="edge"><title>Node6&#45;&gt;Node10</title>
<path fill="none" stroke="orange" stroke-dasharray="5,2" d="M239.367,-166.93C275.391,-169.559 322.785,-173.017 359.775,-175.715"/>
<polygon fill="orange" stroke="orange" points="239.28,-163.415 229.052,-166.178 238.771,-170.396 239.28,-163.415"/>
<text text-anchor="middle" x="288" y="-176" font-family="Helvetica,sans-Serif" font-size="10.00"> &lt; Material &gt;</text>
</g>
<!-- Node6&#45;&gt;Node12 -->
<g id="edge16" class="edge"><title>Node6&#45;&gt;Node12</title>
<path fill="none" stroke="orange" stroke-dasharray="5,2" d="M239.235,-153.007C241.856,-152.64 244.455,-152.301 247,-152 279.729,-148.133 316.156,-145.741 346.992,-144.271"/>
<polygon fill="orange" stroke="orange" points="238.443,-149.587 229.08,-154.546 239.492,-156.508 238.443,-149.587"/>
<text text-anchor="middle" x="288" y="-155" font-family="Helvetica,sans-Serif" font-size="10.00"> &lt; CollisionMesh &gt;</text>
</g>
<!-- Node6&#45;&gt;Node15 -->
<g id="edge21" class="edge"><title>Node6&#45;&gt;Node15</title>
<path fill="none" stroke="orange" stroke-dasharray="5,2" d="M211.542,-148.508C222.414,-142.594 235.23,-135.797 247,-130 290.721,-108.465 301.399,-102.2 347,-85 359.03,-80.4624 372.449,-76.1443 384.383,-72.5544"/>
<polygon fill="orange" stroke="orange" points="209.651,-145.554 202.565,-153.431 213.016,-151.692 209.651,-145.554"/>
<text text-anchor="middle" x="288" y="-133" font-family="Helvetica,sans-Serif" font-size="10.00"> &lt; Model &gt;</text>
</g>
<!-- Node7 -->
<g id="node7" class="node"><title>Node7</title>
<g id="a_node7"><a xlink:title=" ">
<polygon fill="white" stroke="#bfbfbf" points="375.5,-208.5 375.5,-227.5 463.5,-227.5 463.5,-208.5 375.5,-208.5"/>
<text text-anchor="middle" x="419.5" y="-215.5" font-family="Helvetica,sans-Serif" font-size="10.00">SHADER_TYPE</text>
</a>
</g>
</g>
<!-- Node7&#45;&gt;Node3 -->
<g id="edge7" class="edge"><title>Node7&#45;&gt;Node3</title>
<path fill="none" stroke="#9a32cd" stroke-dasharray="5,2" d="M473.689,-218C514.532,-218 568.882,-218 598.997,-218"/>
<polygon fill="#9a32cd" stroke="#9a32cd" points="473.62,-214.5 463.62,-218 473.62,-221.5 473.62,-214.5"/>
<text text-anchor="middle" x="537.5" y="-221" font-family="Helvetica,sans-Serif" font-size="10.00"> shaderType</text>
</g>
<!-- Node8 -->
<g id="node8" class="node"><title>Node8</title>
<g id="a_node8"><a xlink:title=" ">
<polygon fill="white" stroke="#bfbfbf" points="375.5,-284.5 375.5,-303.5 463.5,-303.5 463.5,-284.5 375.5,-284.5"/>
<text text-anchor="middle" x="419.5" y="-291.5" font-family="Helvetica,sans-Serif" font-size="10.00">SHADER_TASK</text>
</a>
</g>
</g>
<!-- Node8&#45;&gt;Node3 -->
<g id="edge8" class="edge"><title>Node8&#45;&gt;Node3</title>
<path fill="none" stroke="#9a32cd" stroke-dasharray="5,2" d="M467.809,-281.842C475.902,-279.644 484.209,-277.314 492,-275 524.74,-265.277 534.855,-267.053 565,-251 573.945,-246.236 574.412,-242.381 583,-237 588.432,-233.596 594.559,-230.335 600.301,-227.505"/>
<polygon fill="#9a32cd" stroke="#9a32cd" points="466.846,-278.477 458.093,-284.447 468.659,-285.238 466.846,-278.477"/>
<text text-anchor="middle" x="537.5" y="-272" font-family="Helvetica,sans-Serif" font-size="10.00"> currentTask</text>
</g>
<!-- Node9 -->
<g id="node9" class="node"><title>Node9</title>
<g id="a_node9"><a xlink:href="../../d3/d0a/struct_material.html" target="_top" xlink:title=" ">
<polygon fill="white" stroke="black" points="597,-170.5 597,-189.5 648,-189.5 648,-170.5 597,-170.5"/>
<text text-anchor="middle" x="622.5" y="-177.5" font-family="Helvetica,sans-Serif" font-size="10.00">Material</text>
</a>
</g>
</g>
<!-- Node9&#45;&gt;Node1 -->
<g id="edge9" class="edge"><title>Node9&#45;&gt;Node1</title>
<path fill="none" stroke="#9a32cd" stroke-dasharray="5,2" d="M658.264,-180C688.327,-180 731.467,-180 760.885,-180"/>
<polygon fill="#9a32cd" stroke="#9a32cd" points="658.219,-176.5 648.219,-180 658.219,-183.5 658.219,-176.5"/>
<text text-anchor="middle" x="711.5" y="-183" font-family="Helvetica,sans-Serif" font-size="10.00"> floorMaterial</text>
</g>
<!-- Node10&#45;&gt;Node9 -->
<g id="edge10" class="edge"><title>Node10&#45;&gt;Node9</title>
<path fill="none" stroke="midnightblue" d="M489.484,-180C526.697,-180 570.325,-180 596.93,-180"/>
<polygon fill="midnightblue" stroke="midnightblue" points="489.178,-176.5 479.178,-180 489.178,-183.5 489.178,-176.5"/>
</g>
<!-- Node11 -->
<g id="node11" class="node"><title>Node11</title>
<g id="a_node11"><a xlink:href="../../d4/daa/class_collision_mesh.html" target="_top" xlink:title=" ">
<polygon fill="white" stroke="black" points="584,-132.5 584,-151.5 661,-151.5 661,-132.5 584,-132.5"/>
<text text-anchor="middle" x="622.5" y="-139.5" font-family="Helvetica,sans-Serif" font-size="10.00">CollisionMesh</text>
</a>
</g>
</g>
<!-- Node11&#45;&gt;Node1 -->
<g id="edge13" class="edge"><title>Node11&#45;&gt;Node1</title>
<path fill="none" stroke="#9a32cd" stroke-dasharray="5,2" d="M671.195,-150.066C693.168,-154.067 719.523,-159.269 743,-165 749.575,-166.605 756.568,-168.536 763.189,-170.469"/>
<polygon fill="#9a32cd" stroke="#9a32cd" points="671.574,-146.579 661.113,-148.259 670.338,-153.469 671.574,-146.579"/>
<text text-anchor="middle" x="711.5" y="-168" font-family="Helvetica,sans-Serif" font-size="10.00"> collisionMesh</text>
</g>
<!-- Node12&#45;&gt;Node11 -->
<g id="edge14" class="edge"><title>Node12&#45;&gt;Node11</title>
<path fill="none" stroke="midnightblue" d="M502.514,-142C530.763,-142 561.032,-142 583.97,-142"/>
<polygon fill="midnightblue" stroke="midnightblue" points="502.214,-138.5 492.214,-142 502.214,-145.5 502.214,-138.5"/>
</g>
<!-- Node13 -->
<g id="node13" class="node"><title>Node13</title>
<g id="a_node13"><a xlink:href="../../dc/d34/struct_collision_tag.html" target="_top" xlink:title=" ">
<polygon fill="white" stroke="black" points="385,-94.5 385,-113.5 454,-113.5 454,-94.5 385,-94.5"/>
<text text-anchor="middle" x="419.5" y="-101.5" font-family="Helvetica,sans-Serif" font-size="10.00">CollisionTag</text>
</a>
</g>
</g>
<!-- Node13&#45;&gt;Node11 -->
<g id="edge17" class="edge"><title>Node13&#45;&gt;Node11</title>
<path fill="none" stroke="#9a32cd" stroke-dasharray="5,2" d="M464.389,-109.803C493.141,-113.894 531.468,-119.899 565,-127 572.446,-128.577 580.379,-130.517 587.874,-132.473"/>
<polygon fill="#9a32cd" stroke="#9a32cd" points="464.645,-106.304 454.256,-108.383 463.673,-113.237 464.645,-106.304"/>
<text text-anchor="middle" x="537.5" y="-130" font-family="Helvetica,sans-Serif" font-size="10.00"> thisTag</text>
</g>
<!-- Node14 -->
<g id="node14" class="node"><title>Node14</title>
<g id="a_node14"><a xlink:href="../../d3/d96/class__3_d_m_1_1_model.html" target="_top" xlink:title=" ">
<polygon fill="white" stroke="black" points="585.5,-53.5 585.5,-72.5 659.5,-72.5 659.5,-53.5 585.5,-53.5"/>
<text text-anchor="middle" x="622.5" y="-60.5" font-family="Helvetica,sans-Serif" font-size="10.00">_3DM::Model</text>
</a>
</g>
</g>
<!-- Node14&#45;&gt;Node1 -->
<g id="edge18" class="edge"><title>Node14&#45;&gt;Node1</title>
<path fill="none" stroke="#9a32cd" stroke-dasharray="5,2" d="M657.274,-76.6976C682.275,-87.7162 716.457,-104.683 743,-125 760.705,-138.552 777.416,-158.722 786.475,-170.499"/>
<polygon fill="#9a32cd" stroke="#9a32cd" points="658.41,-73.3763 647.842,-72.6301 655.638,-79.804 658.41,-73.3763"/>
<text text-anchor="middle" x="711.5" y="-139" font-family="Helvetica,sans-Serif" font-size="10.00"> model</text>
<text text-anchor="middle" x="711.5" y="-128" font-family="Helvetica,sans-Serif" font-size="10.00">cm</text>
</g>
<!-- Node15&#45;&gt;Node14 -->
<g id="edge19" class="edge"><title>Node15&#45;&gt;Node14</title>
<path fill="none" stroke="midnightblue" d="M484.74,-63C518.019,-63 557.424,-63 585.367,-63"/>
<polygon fill="midnightblue" stroke="midnightblue" points="484.629,-59.5001 474.629,-63 484.629,-66.5001 484.629,-59.5001"/>
</g>
<!-- Node16 -->
<g id="node16" class="node"><title>Node16</title>
<g id="a_node16"><a xlink:href="../../d1/d75/class_model_base.html" target="_top" xlink:title=" ">
<polygon fill="white" stroke="black" points="387,-9.5 387,-28.5 452,-28.5 452,-9.5 387,-9.5"/>
<text text-anchor="middle" x="419.5" y="-16.5" font-family="Helvetica,sans-Serif" font-size="10.00">ModelBase</text>
</a>
</g>
</g>
<!-- Node16&#45;&gt;Node14 -->
<g id="edge22" class="edge"><title>Node16&#45;&gt;Node14</title>
<path fill="none" stroke="midnightblue" d="M462.158,-28.1191C498.524,-36.08 550.76,-47.5146 585.385,-55.0942"/>
<polygon fill="midnightblue" stroke="midnightblue" points="462.866,-24.6914 452.349,-25.9719 461.369,-31.5295 462.866,-24.6914"/>
</g>
<!-- Node17 -->
<g id="node17" class="node"><title>Node17</title>
<g id="a_node17"><a xlink:href="../../dd/d69/struct_transform.html" target="_top" xlink:title=" ">
<polygon fill="white" stroke="black" points="155,-0.5 155,-19.5 214,-19.5 214,-0.5 155,-0.5"/>
<text text-anchor="middle" x="184.5" y="-7.5" font-family="Helvetica,sans-Serif" font-size="10.00">Transform</text>
</a>
</g>
</g>
<!-- Node17&#45;&gt;Node16 -->
<g id="edge23" class="edge"><title>Node17&#45;&gt;Node16</title>
<path fill="none" stroke="#9a32cd" stroke-dasharray="5,2" d="M224.145,-11.4927C269.659,-13.2508 344.407,-16.1381 386.713,-17.7722"/>
<polygon fill="#9a32cd" stroke="#9a32cd" points="224.198,-7.99226 214.07,-11.1036 223.928,-14.987 224.198,-7.99226"/>
<text text-anchor="middle" x="288" y="-19" font-family="Helvetica,sans-Serif" font-size="10.00"> transform</text>
</g>
</g>
</svg>
