<?xml version="1.0" encoding="UTF-8" standalone="no"?>
<!DOCTYPE svg PUBLIC "-//W3C//DTD SVG 1.1//EN"
 "http://www.w3.org/Graphics/SVG/1.1/DTD/svg11.dtd">
<!-- Generated by graphviz version 2.38.0 (20140413.2041)
 -->
<!-- Title: src/PauseMenu.h Pages: 1 -->
<!--zoomable 420 -->
<svg id="main" version="1.1" xmlns="http://www.w3.org/2000/svg" xmlns:xlink="http://www.w3.org/1999/xlink" xml:space="preserve" onload="init(evt)">
<style type="text/css"><![CDATA[
.edge:hover path { stroke: red; }
.edge:hover polygon { stroke: red; fill: red; }
]]></style>
<script type="text/javascript"><![CDATA[
var edges = document.getElementsByTagName('g');
if (edges && edges.length) {
  for (var i=0;i<edges.length;i++) {
    if (edges[i].id.substr(0,4)=='edge') {
      edges[i].setAttribute('class','edge');
    }
  }
}
]]></script>
        <defs>
                <circle id="rim" cx="0" cy="0" r="7"/>
                <circle id="rim2" cx="0" cy="0" r="3.5"/>
                <g id="zoomPlus">
                        <use xlink:href="#rim" fill="#404040">
                                <set attributeName="fill" to="#808080" begin="zoomplus.mouseover" end="zoomplus.mouseout"/>
                        </use>
                        <path d="M-4,0h8M0,-4v8" fill="none" stroke="white" stroke-width="1.5" pointer-events="none"/>
                </g>
                <g id="zoomMin">
                        <use xlink:href="#rim" fill="#404040">
                                <set attributeName="fill" to="#808080" begin="zoomminus.mouseover" end="zoomminus.mouseout"/>
                        </use>
                        <path d="M-4,0h8" fill="none" stroke="white" stroke-width="1.5" pointer-events="none"/>
                </g>
                <g id="dirArrow">
                        <path fill="none" stroke="white" stroke-width="1.5" d="M0,-3.0v7 M-2.5,-0.5L0,-3.0L2.5,-0.5"/>
                </g>
               <g id="resetDef">
                       <use xlink:href="#rim2" fill="#404040">
                               <set attributeName="fill" to="#808080" begin="reset.mouseover" end="reset.mouseout"/>
                       </use>
               </g>
        </defs>

<script type="text/javascript">
var viewWidth = 1851;
var viewHeight = 420;
var sectionId = 'dynsection-0';
</script>
<script xlink:href="../../svgpan.js"/>
<svg id="graph" class="graph">
<g id="viewport">
<title>src/PauseMenu.h</title>
<polygon fill="white" stroke="none" points="-4,4 -4,-416 1847,-416 1847,4 -4,4"/>
<!-- Node1 -->
<g id="node1" class="node"><title>Node1</title>
<g id="a_node1"><a xlink:title=" ">
<polygon fill="#bfbfbf" stroke="black" points="1125.5,-392.5 1125.5,-411.5 1218.5,-411.5 1218.5,-392.5 1125.5,-392.5"/>
<text text-anchor="middle" x="1172" y="-399.5" font-family="Helvetica,sans-Serif" font-size="10.00">src/PauseMenu.h</text>
</a>
</g>
</g>
<!-- Node2 -->
<g id="node2" class="node"><title>Node2</title>
<g id="a_node2"><a xlink:href="../../dc/d20/_component_8h.html" target="_top" xlink:title=" ">
<polygon fill="white" stroke="black" points="1604,-56.5 1604,-75.5 1678,-75.5 1678,-56.5 1604,-56.5"/>
<text text-anchor="middle" x="1641" y="-63.5" font-family="Helvetica,sans-Serif" font-size="10.00">Component.h</text>
</a>
</g>
</g>
<!-- Node1&#45;&gt;Node2 -->
<g id="edge1" class="edge"><title>Node1&#45;&gt;Node2</title>
<path fill="none" stroke="midnightblue" d="M1218.65,-398.289C1370.82,-388.831 1843,-354.377 1843,-291 1843,-291 1843,-291 1843,-177 1843,-106.788 1747.71,-81.1327 1688.03,-71.9496"/>
<polygon fill="midnightblue" stroke="midnightblue" points="1688.45,-68.4742 1678.05,-70.5158 1687.45,-75.403 1688.45,-68.4742"/>
</g>
<!-- Node4 -->
<g id="node4" class="node"><title>Node4</title>
<g id="a_node4"><a xlink:href="../../d2/d74/_gui_button_8h.html" target="_top" xlink:title=" ">
<polygon fill="white" stroke="black" points="838,-336.5 838,-355.5 906,-355.5 906,-336.5 838,-336.5"/>
<text text-anchor="middle" x="872" y="-343.5" font-family="Helvetica,sans-Serif" font-size="10.00">GuiButton.h</text>
</a>
</g>
</g>
<!-- Node1&#45;&gt;Node4 -->
<g id="edge3" class="edge"><title>Node1&#45;&gt;Node4</title>
<path fill="none" stroke="midnightblue" d="M1125.45,-392.622C1068.28,-382.331 972.018,-365.003 916.025,-354.925"/>
<polygon fill="midnightblue" stroke="midnightblue" points="916.519,-351.457 906.057,-353.13 915.279,-358.347 916.519,-351.457"/>
</g>
<!-- Node37 -->
<g id="node37" class="node"><title>Node37</title>
<g id="a_node37"><a xlink:href="../../d4/d04/_gui_string_8h.html" target="_top" xlink:title=" ">
<polygon fill="white" stroke="black" points="1139.5,-336.5 1139.5,-355.5 1204.5,-355.5 1204.5,-336.5 1139.5,-336.5"/>
<text text-anchor="middle" x="1172" y="-343.5" font-family="Helvetica,sans-Serif" font-size="10.00">GuiString.h</text>
</a>
</g>
</g>
<!-- Node1&#45;&gt;Node37 -->
<g id="edge58" class="edge"><title>Node1&#45;&gt;Node37</title>
<path fill="none" stroke="midnightblue" d="M1172,-392.083C1172,-385.006 1172,-374.861 1172,-365.986"/>
<polygon fill="midnightblue" stroke="midnightblue" points="1175.5,-365.751 1172,-355.751 1168.5,-365.751 1175.5,-365.751"/>
</g>
<!-- Node3 -->
<g id="node3" class="node"><title>Node3</title>
<g id="a_node3"><a xlink:title=" ">
<polygon fill="white" stroke="#bfbfbf" points="1739.5,-0.5 1739.5,-19.5 1788.5,-19.5 1788.5,-0.5 1739.5,-0.5"/>
<text text-anchor="middle" x="1764" y="-7.5" font-family="Helvetica,sans-Serif" font-size="10.00">stdint.h</text>
</a>
</g>
</g>
<!-- Node2&#45;&gt;Node3 -->
<g id="edge2" class="edge"><title>Node2&#45;&gt;Node3</title>
<path fill="none" stroke="midnightblue" d="M1660.49,-56.4435C1680.64,-47.5961 1712.32,-33.6875 1735.33,-23.5865"/>
<polygon fill="midnightblue" stroke="midnightblue" points="1736.85,-26.7411 1744.6,-19.5164 1734.04,-20.3316 1736.85,-26.7411"/>
</g>
<!-- Node5 -->
<g id="node5" class="node"><title>Node5</title>
<g id="a_node5"><a xlink:href="../../d1/d6c/_gui_sprite_8h.html" target="_top" xlink:title=" ">
<polygon fill="white" stroke="black" points="839.5,-280.5 839.5,-299.5 904.5,-299.5 904.5,-280.5 839.5,-280.5"/>
<text text-anchor="middle" x="872" y="-287.5" font-family="Helvetica,sans-Serif" font-size="10.00">GuiSprite.h</text>
</a>
</g>
</g>
<!-- Node4&#45;&gt;Node5 -->
<g id="edge4" class="edge"><title>Node4&#45;&gt;Node5</title>
<path fill="none" stroke="midnightblue" d="M872,-336.083C872,-329.006 872,-318.861 872,-309.986"/>
<polygon fill="midnightblue" stroke="midnightblue" points="875.5,-309.751 872,-299.751 868.5,-309.751 875.5,-309.751"/>
</g>
<!-- Node33 -->
<g id="node33" class="node"><title>Node33</title>
<g id="a_node33"><a xlink:href="../../d2/d94/_input_8h.html" target="_top" xlink:title=" ">
<polygon fill="white" stroke="black" points="157,-280.5 157,-299.5 203,-299.5 203,-280.5 157,-280.5"/>
<text text-anchor="middle" x="180" y="-287.5" font-family="Helvetica,sans-Serif" font-size="10.00">Input.h</text>
</a>
</g>
</g>
<!-- Node4&#45;&gt;Node33 -->
<g id="edge53" class="edge"><title>Node4&#45;&gt;Node33</title>
<path fill="none" stroke="midnightblue" d="M837.891,-343.375C743.363,-338.696 470.092,-323.969 244,-300 233.897,-298.929 222.934,-297.49 212.984,-296.076"/>
<polygon fill="midnightblue" stroke="midnightblue" points="213.46,-292.609 203.059,-294.63 212.45,-299.536 213.46,-292.609"/>
</g>
<!-- Node6 -->
<g id="node6" class="node"><title>Node6</title>
<g id="a_node6"><a xlink:href="../../db/db1/_gui_base_8h.html" target="_top" xlink:title=" ">
<polygon fill="white" stroke="black" points="1181,-224.5 1181,-243.5 1243,-243.5 1243,-224.5 1181,-224.5"/>
<text text-anchor="middle" x="1212" y="-231.5" font-family="Helvetica,sans-Serif" font-size="10.00">GuiBase.h</text>
</a>
</g>
</g>
<!-- Node5&#45;&gt;Node6 -->
<g id="edge5" class="edge"><title>Node5&#45;&gt;Node6</title>
<path fill="none" stroke="midnightblue" d="M904.601,-283.822C966.89,-273.929 1102.69,-252.362 1171.01,-241.51"/>
<polygon fill="midnightblue" stroke="midnightblue" points="1171.65,-244.952 1180.98,-239.927 1170.55,-238.039 1171.65,-244.952"/>
</g>
<!-- Node20 -->
<g id="node20" class="node"><title>Node20</title>
<g id="a_node20"><a xlink:href="../../db/dc0/_quad_8h.html" target="_top" xlink:title=" ">
<polygon fill="white" stroke="black" points="690,-224.5 690,-243.5 738,-243.5 738,-224.5 690,-224.5"/>
<text text-anchor="middle" x="714" y="-231.5" font-family="Helvetica,sans-Serif" font-size="10.00">Quad.h</text>
</a>
</g>
</g>
<!-- Node5&#45;&gt;Node20 -->
<g id="edge26" class="edge"><title>Node5&#45;&gt;Node20</title>
<path fill="none" stroke="midnightblue" d="M846.964,-280.444C820.15,-271.279 777.445,-256.684 747.693,-246.515"/>
<polygon fill="midnightblue" stroke="midnightblue" points="748.736,-243.173 738.141,-243.251 746.472,-249.797 748.736,-243.173"/>
</g>
<!-- Node6&#45;&gt;Node3 -->
<g id="edge25" class="edge"><title>Node6&#45;&gt;Node3</title>
<path fill="none" stroke="midnightblue" d="M1243.03,-233.057C1330.05,-232.708 1574.47,-228.092 1642,-188 1705.09,-150.542 1743.23,-66.2316 1757.53,-29.1193"/>
<polygon fill="midnightblue" stroke="midnightblue" points="1760.87,-30.192 1761.07,-19.5991 1754.31,-27.7522 1760.87,-30.192"/>
</g>
<!-- Node7 -->
<g id="node7" class="node"><title>Node7</title>
<g id="a_node7"><a xlink:href="../../d8/d34/_shader_8h.html" target="_top" xlink:title=" ">
<polygon fill="white" stroke="black" points="1184,-168.5 1184,-187.5 1240,-187.5 1240,-168.5 1184,-168.5"/>
<text text-anchor="middle" x="1212" y="-175.5" font-family="Helvetica,sans-Serif" font-size="10.00">Shader.h</text>
</a>
</g>
</g>
<!-- Node6&#45;&gt;Node7 -->
<g id="edge6" class="edge"><title>Node6&#45;&gt;Node7</title>
<path fill="none" stroke="midnightblue" d="M1212,-224.083C1212,-217.006 1212,-206.861 1212,-197.986"/>
<polygon fill="midnightblue" stroke="midnightblue" points="1215.5,-197.751 1212,-187.751 1208.5,-197.751 1215.5,-197.751"/>
</g>
<!-- Node7&#45;&gt;Node2 -->
<g id="edge7" class="edge"><title>Node7&#45;&gt;Node2</title>
<path fill="none" stroke="midnightblue" d="M1240.34,-174.82C1291.48,-170.366 1402.24,-158.333 1492,-132 1537.26,-118.724 1586.92,-95.0833 1615.95,-80.2664"/>
<polygon fill="midnightblue" stroke="midnightblue" points="1617.69,-83.3067 1624.97,-75.6075 1614.48,-77.0875 1617.69,-83.3067"/>
</g>
<!-- Node8 -->
<g id="node8" class="node"><title>Node8</title>
<g id="a_node8"><a xlink:href="../../d0/d4b/_debug_8h.html" target="_top" xlink:title=" ">
<polygon fill="white" stroke="black" points="800.5,-112.5 800.5,-131.5 853.5,-131.5 853.5,-112.5 800.5,-112.5"/>
<text text-anchor="middle" x="827" y="-119.5" font-family="Helvetica,sans-Serif" font-size="10.00">Debug.h</text>
</a>
</g>
</g>
<!-- Node7&#45;&gt;Node8 -->
<g id="edge8" class="edge"><title>Node7&#45;&gt;Node8</title>
<path fill="none" stroke="midnightblue" d="M1183.69,-173.029C1115.11,-163.41 940.11,-138.865 863.664,-128.142"/>
<polygon fill="midnightblue" stroke="midnightblue" points="863.941,-124.647 853.552,-126.724 862.969,-131.579 863.941,-124.647"/>
</g>
<!-- Node9 -->
<g id="node9" class="node"><title>Node9</title>
<g id="a_node9"><a xlink:href="../../d5/d31/_lights_8h.html" target="_top" xlink:title=" ">
<polygon fill="white" stroke="black" points="1084.5,-112.5 1084.5,-131.5 1135.5,-131.5 1135.5,-112.5 1084.5,-112.5"/>
<text text-anchor="middle" x="1110" y="-119.5" font-family="Helvetica,sans-Serif" font-size="10.00">Lights.h</text>
</a>
</g>
</g>
<!-- Node7&#45;&gt;Node9 -->
<g id="edge9" class="edge"><title>Node7&#45;&gt;Node9</title>
<path fill="none" stroke="midnightblue" d="M1195.61,-168.324C1179.33,-159.703 1154.13,-146.364 1135.28,-136.386"/>
<polygon fill="midnightblue" stroke="midnightblue" points="1136.82,-133.24 1126.35,-131.655 1133.55,-139.427 1136.82,-133.24"/>
</g>
<!-- Node10 -->
<g id="node10" class="node"><title>Node10</title>
<g id="a_node10"><a xlink:title=" ">
<polygon fill="white" stroke="#bfbfbf" points="1073,-56.5 1073,-75.5 1147,-75.5 1147,-56.5 1073,-56.5"/>
<text text-anchor="middle" x="1110" y="-63.5" font-family="Helvetica,sans-Serif" font-size="10.00">glm/vec3.hpp</text>
</a>
</g>
</g>
<!-- Node7&#45;&gt;Node10 -->
<g id="edge21" class="edge"><title>Node7&#45;&gt;Node10</title>
<path fill="none" stroke="midnightblue" d="M1204,-168.368C1186.94,-149.974 1146.79,-106.671 1124.88,-83.0519"/>
<polygon fill="midnightblue" stroke="midnightblue" points="1127.33,-80.5443 1117.97,-75.5914 1122.2,-85.3039 1127.33,-80.5443"/>
</g>
<!-- Node11 -->
<g id="node11" class="node"><title>Node11</title>
<g id="a_node11"><a xlink:href="../../d3/d09/_material_8h.html" target="_top" xlink:title=" ">
<polygon fill="white" stroke="black" points="1380.5,-112.5 1380.5,-131.5 1439.5,-131.5 1439.5,-112.5 1380.5,-112.5"/>
<text text-anchor="middle" x="1410" y="-119.5" font-family="Helvetica,sans-Serif" font-size="10.00">Material.h</text>
</a>
</g>
</g>
<!-- Node7&#45;&gt;Node11 -->
<g id="edge11" class="edge"><title>Node7&#45;&gt;Node11</title>
<path fill="none" stroke="midnightblue" d="M1240.37,-169.263C1274.53,-159.947 1332.1,-144.246 1370.57,-133.755"/>
<polygon fill="midnightblue" stroke="midnightblue" points="1371.66,-137.083 1380.39,-131.075 1369.82,-130.33 1371.66,-137.083"/>
</g>
<!-- Node12 -->
<g id="node12" class="node"><title>Node12</title>
<g id="a_node12"><a xlink:href="../../d4/d4a/_settings_8h.html" target="_top" xlink:title=" ">
<polygon fill="white" stroke="black" points="1230.5,-112.5 1230.5,-131.5 1291.5,-131.5 1291.5,-112.5 1230.5,-112.5"/>
<text text-anchor="middle" x="1261" y="-119.5" font-family="Helvetica,sans-Serif" font-size="10.00">Settings.h</text>
</a>
</g>
</g>
<!-- Node7&#45;&gt;Node12 -->
<g id="edge14" class="edge"><title>Node7&#45;&gt;Node12</title>
<path fill="none" stroke="midnightblue" d="M1220.09,-168.083C1227.16,-160.298 1237.59,-148.801 1246.15,-139.367"/>
<polygon fill="midnightblue" stroke="midnightblue" points="1248.93,-141.509 1253.06,-131.751 1243.75,-136.805 1248.93,-141.509"/>
</g>
<!-- Node13 -->
<g id="node13" class="node"><title>Node13</title>
<g id="a_node13"><a xlink:href="../../d2/d06/_shaders_8h.html" target="_top" xlink:title=" ">
<polygon fill="white" stroke="black" points="402.5,-112.5 402.5,-131.5 463.5,-131.5 463.5,-112.5 402.5,-112.5"/>
<text text-anchor="middle" x="433" y="-119.5" font-family="Helvetica,sans-Serif" font-size="10.00">Shaders.h</text>
</a>
</g>
</g>
<!-- Node7&#45;&gt;Node13 -->
<g id="edge15" class="edge"><title>Node7&#45;&gt;Node13</title>
<path fill="none" stroke="midnightblue" d="M1183.91,-175.71C1089.09,-171.246 772.147,-155.433 511,-132 498.924,-130.916 485.823,-129.499 473.868,-128.111"/>
<polygon fill="midnightblue" stroke="midnightblue" points="474.054,-124.609 463.711,-126.908 473.23,-131.56 474.054,-124.609"/>
</g>
<!-- Node14 -->
<g id="node14" class="node"><title>Node14</title>
<g id="a_node14"><a xlink:title=" ">
<polygon fill="white" stroke="#bfbfbf" points="528,-56.5 528,-75.5 588,-75.5 588,-56.5 528,-56.5"/>
<text text-anchor="middle" x="558" y="-63.5" font-family="Helvetica,sans-Serif" font-size="10.00">GL/glew.h</text>
</a>
</g>
</g>
<!-- Node7&#45;&gt;Node14 -->
<g id="edge18" class="edge"><title>Node7&#45;&gt;Node14</title>
<path fill="none" stroke="midnightblue" d="M1183.95,-173.896C1139.32,-168.456 1049.74,-155.482 977,-132 956.942,-125.525 954.272,-117.769 934,-112 871.617,-94.2482 682.034,-77.1284 598.388,-70.2119"/>
<polygon fill="midnightblue" stroke="midnightblue" points="598.507,-66.71 588.255,-69.3811 597.935,-73.6866 598.507,-66.71"/>
</g>
<!-- Node15 -->
<g id="node15" class="node"><title>Node15</title>
<g id="a_node15"><a xlink:title=" ">
<polygon fill="white" stroke="#bfbfbf" points="361.5,-56.5 361.5,-75.5 402.5,-75.5 402.5,-56.5 361.5,-56.5"/>
<text text-anchor="middle" x="382" y="-63.5" font-family="Helvetica,sans-Serif" font-size="10.00">string</text>
</a>
</g>
</g>
<!-- Node7&#45;&gt;Node15 -->
<g id="edge23" class="edge"><title>Node7&#45;&gt;Node15</title>
<path fill="none" stroke="midnightblue" d="M1183.79,-173.483C1133.35,-166.961 1024.5,-151.831 934,-132 901.558,-124.891 894.662,-118.018 862,-112 775.003,-95.9703 504.415,-75.7317 412.734,-69.1637"/>
<polygon fill="midnightblue" stroke="midnightblue" points="412.931,-65.669 402.707,-68.4489 412.433,-72.6513 412.931,-65.669"/>
</g>
<!-- Node16 -->
<g id="node16" class="node"><title>Node16</title>
<g id="a_node16"><a xlink:title=" ">
<polygon fill="white" stroke="#bfbfbf" points="1307,-56.5 1307,-75.5 1363,-75.5 1363,-56.5 1307,-56.5"/>
<text text-anchor="middle" x="1335" y="-63.5" font-family="Helvetica,sans-Serif" font-size="10.00">algorithm</text>
</a>
</g>
</g>
<!-- Node7&#45;&gt;Node16 -->
<g id="edge19" class="edge"><title>Node7&#45;&gt;Node16</title>
<path fill="none" stroke="midnightblue" d="M1240.2,-175.974C1297.17,-173.246 1422.76,-163.694 1449,-132 1473.7,-102.171 1415.33,-83.2965 1373.33,-73.9806"/>
<polygon fill="midnightblue" stroke="midnightblue" points="1373.83,-70.5102 1363.32,-71.8704 1372.39,-77.3594 1373.83,-70.5102"/>
</g>
<!-- Node17 -->
<g id="node17" class="node"><title>Node17</title>
<g id="a_node17"><a xlink:title=" ">
<polygon fill="white" stroke="#bfbfbf" points="1572.5,-112.5 1572.5,-131.5 1621.5,-131.5 1621.5,-112.5 1572.5,-112.5"/>
<text text-anchor="middle" x="1597" y="-119.5" font-family="Helvetica,sans-Serif" font-size="10.00">fstream</text>
</a>
</g>
</g>
<!-- Node7&#45;&gt;Node17 -->
<g id="edge20" class="edge"><title>Node7&#45;&gt;Node17</title>
<path fill="none" stroke="midnightblue" d="M1240.4,-174.254C1299.69,-168.313 1440.85,-153.083 1558,-132 1559.45,-131.738 1560.93,-131.458 1562.43,-131.164"/>
<polygon fill="midnightblue" stroke="midnightblue" points="1563.26,-134.567 1572.32,-129.078 1561.81,-127.718 1563.26,-134.567"/>
</g>
<!-- Node18 -->
<g id="node18" class="node"><title>Node18</title>
<g id="a_node18"><a xlink:title=" ">
<polygon fill="white" stroke="#bfbfbf" points="1310,-112.5 1310,-131.5 1362,-131.5 1362,-112.5 1310,-112.5"/>
<text text-anchor="middle" x="1336" y="-119.5" font-family="Helvetica,sans-Serif" font-size="10.00">sstream</text>
</a>
</g>
</g>
<!-- Node7&#45;&gt;Node18 -->
<g id="edge22" class="edge"><title>Node7&#45;&gt;Node18</title>
<path fill="none" stroke="midnightblue" d="M1231.65,-168.444C1251.96,-159.596 1283.9,-145.687 1307.1,-135.586"/>
<polygon fill="midnightblue" stroke="midnightblue" points="1308.67,-138.718 1316.44,-131.516 1305.88,-132.3 1308.67,-138.718"/>
</g>
<!-- Node19 -->
<g id="node19" class="node"><title>Node19</title>
<g id="a_node19"><a xlink:title=" ">
<polygon fill="white" stroke="#bfbfbf" points="1514,-56.5 1514,-75.5 1556,-75.5 1556,-56.5 1514,-56.5"/>
<text text-anchor="middle" x="1535" y="-63.5" font-family="Helvetica,sans-Serif" font-size="10.00">vector</text>
</a>
</g>
</g>
<!-- Node7&#45;&gt;Node19 -->
<g id="edge24" class="edge"><title>Node7&#45;&gt;Node19</title>
<path fill="none" stroke="midnightblue" d="M1240.18,-177.078C1288.67,-176.138 1389.93,-169.4 1465,-132 1488.08,-120.502 1508.95,-98.9929 1521.77,-83.8752"/>
<polygon fill="midnightblue" stroke="midnightblue" points="1524.73,-85.7919 1528.35,-75.8367 1519.31,-81.358 1524.73,-85.7919"/>
</g>
<!-- Node9&#45;&gt;Node10 -->
<g id="edge10" class="edge"><title>Node9&#45;&gt;Node10</title>
<path fill="none" stroke="midnightblue" d="M1110,-112.083C1110,-105.006 1110,-94.8611 1110,-85.9865"/>
<polygon fill="midnightblue" stroke="midnightblue" points="1113.5,-85.751 1110,-75.7511 1106.5,-85.7511 1113.5,-85.751"/>
</g>
<!-- Node11&#45;&gt;Node2 -->
<g id="edge12" class="edge"><title>Node11&#45;&gt;Node2</title>
<path fill="none" stroke="midnightblue" d="M1439.73,-114.051C1479.01,-104.869 1548.61,-88.5986 1594.78,-77.805"/>
<polygon fill="midnightblue" stroke="midnightblue" points="1595.6,-81.207 1604.54,-75.5225 1594.01,-74.3907 1595.6,-81.207"/>
</g>
<!-- Node11&#45;&gt;Node10 -->
<g id="edge13" class="edge"><title>Node11&#45;&gt;Node10</title>
<path fill="none" stroke="midnightblue" d="M1380.23,-113.948C1377.12,-113.266 1374,-112.604 1371,-112 1296.63,-97.0189 1209.7,-82.6554 1157.3,-74.3369"/>
<polygon fill="midnightblue" stroke="midnightblue" points="1157.72,-70.8596 1147.29,-72.7554 1156.62,-77.7738 1157.72,-70.8596"/>
</g>
<!-- Node13&#45;&gt;Node14 -->
<g id="edge16" class="edge"><title>Node13&#45;&gt;Node14</title>
<path fill="none" stroke="midnightblue" d="M452.807,-112.444C473.287,-103.596 505.483,-89.6875 528.865,-79.5865"/>
<polygon fill="midnightblue" stroke="midnightblue" points="530.494,-82.6953 538.286,-75.5164 527.718,-76.2692 530.494,-82.6953"/>
</g>
<!-- Node13&#45;&gt;Node15 -->
<g id="edge17" class="edge"><title>Node13&#45;&gt;Node15</title>
<path fill="none" stroke="midnightblue" d="M424.578,-112.083C417.152,-104.22 406.148,-92.5688 397.188,-83.0813"/>
<polygon fill="midnightblue" stroke="midnightblue" points="399.676,-80.618 390.265,-75.7511 394.587,-85.4244 399.676,-80.618"/>
</g>
<!-- Node20&#45;&gt;Node7 -->
<g id="edge32" class="edge"><title>Node20&#45;&gt;Node7</title>
<path fill="none" stroke="midnightblue" d="M738.02,-230.395C817.972,-221.726 1075.58,-193.792 1173.63,-183.161"/>
<polygon fill="midnightblue" stroke="midnightblue" points="1174.13,-186.627 1183.69,-182.069 1173.38,-179.668 1174.13,-186.627"/>
</g>
<!-- Node20&#45;&gt;Node13 -->
<g id="edge33" class="edge"><title>Node20&#45;&gt;Node13</title>
<path fill="none" stroke="midnightblue" d="M689.588,-233.07C626.231,-232.68 459.102,-227.822 425,-188 414.05,-175.213 418.443,-155.474 424.093,-141.102"/>
<polygon fill="midnightblue" stroke="midnightblue" points="427.38,-142.323 428.228,-131.762 420.98,-139.489 427.38,-142.323"/>
</g>
<!-- Node20&#45;&gt;Node14 -->
<g id="edge50" class="edge"><title>Node20&#45;&gt;Node14</title>
<path fill="none" stroke="midnightblue" d="M689.96,-224.934C640.332,-207.71 529.617,-166.124 511,-132 500.947,-113.574 519.025,-94.3129 535.593,-81.5876"/>
<polygon fill="midnightblue" stroke="midnightblue" points="537.888,-84.2483 543.962,-75.5678 533.8,-78.5656 537.888,-84.2483"/>
</g>
<!-- Node21 -->
<g id="node21" class="node"><title>Node21</title>
<g id="a_node21"><a xlink:href="../../de/d50/_game_info_8h.html" target="_top" xlink:title=" ">
<polygon fill="white" stroke="black" points="280,-112.5 280,-131.5 346,-131.5 346,-112.5 280,-112.5"/>
<text text-anchor="middle" x="313" y="-119.5" font-family="Helvetica,sans-Serif" font-size="10.00">GameInfo.h</text>
</a>
</g>
</g>
<!-- Node20&#45;&gt;Node21 -->
<g id="edge27" class="edge"><title>Node20&#45;&gt;Node21</title>
<path fill="none" stroke="midnightblue" d="M689.9,-232.731C637.969,-231.439 512.335,-224.457 415,-188 383.112,-176.056 350.694,-153.162 331.213,-137.983"/>
<polygon fill="midnightblue" stroke="midnightblue" points="333.224,-135.111 323.221,-131.619 328.864,-140.586 333.224,-135.111"/>
</g>
<!-- Node24 -->
<g id="node24" class="node"><title>Node24</title>
<g id="a_node24"><a xlink:href="../../de/dbf/_texture_8h.html" target="_top" xlink:title=" ">
<polygon fill="white" stroke="black" points="736.5,-168.5 736.5,-187.5 793.5,-187.5 793.5,-168.5 736.5,-168.5"/>
<text text-anchor="middle" x="765" y="-175.5" font-family="Helvetica,sans-Serif" font-size="10.00">Texture.h</text>
</a>
</g>
</g>
<!-- Node20&#45;&gt;Node24 -->
<g id="edge34" class="edge"><title>Node20&#45;&gt;Node24</title>
<path fill="none" stroke="midnightblue" d="M722.422,-224.083C729.848,-216.22 740.852,-204.569 749.812,-195.081"/>
<polygon fill="midnightblue" stroke="midnightblue" points="752.413,-197.424 756.735,-187.751 747.324,-192.618 752.413,-197.424"/>
</g>
<!-- Node30 -->
<g id="node30" class="node"><title>Node30</title>
<g id="a_node30"><a xlink:href="../../db/d56/_transform_8h.html" target="_top" xlink:title=" ">
<polygon fill="white" stroke="black" points="830,-168.5 830,-187.5 898,-187.5 898,-168.5 830,-168.5"/>
<text text-anchor="middle" x="864" y="-175.5" font-family="Helvetica,sans-Serif" font-size="10.00">Transform.h</text>
</a>
</g>
</g>
<!-- Node20&#45;&gt;Node30 -->
<g id="edge48" class="edge"><title>Node20&#45;&gt;Node30</title>
<path fill="none" stroke="midnightblue" d="M737.768,-224.444C762.893,-215.399 802.711,-201.064 830.9,-190.916"/>
<polygon fill="midnightblue" stroke="midnightblue" points="832.12,-194.197 840.343,-187.516 829.749,-187.611 832.12,-194.197"/>
</g>
<!-- Node31 -->
<g id="node31" class="node"><title>Node31</title>
<g id="a_node31"><a xlink:title=" ">
<polygon fill="white" stroke="#bfbfbf" points="434,-168.5 434,-187.5 540,-187.5 540,-168.5 434,-168.5"/>
<text text-anchor="middle" x="487" y="-175.5" font-family="Helvetica,sans-Serif" font-size="10.00">glm/gtc/type_ptr.hpp</text>
</a>
</g>
</g>
<!-- Node20&#45;&gt;Node31 -->
<g id="edge51" class="edge"><title>Node20&#45;&gt;Node31</title>
<path fill="none" stroke="midnightblue" d="M689.707,-227.221C652.412,-218.349 580.404,-201.219 533.024,-189.948"/>
<polygon fill="midnightblue" stroke="midnightblue" points="533.554,-186.477 523.016,-187.568 531.934,-193.287 533.554,-186.477"/>
</g>
<!-- Node32 -->
<g id="node32" class="node"><title>Node32</title>
<g id="a_node32"><a xlink:title=" ">
<polygon fill="white" stroke="#bfbfbf" points="607.5,-168.5 607.5,-187.5 718.5,-187.5 718.5,-168.5 607.5,-168.5"/>
<text text-anchor="middle" x="663" y="-175.5" font-family="Helvetica,sans-Serif" font-size="10.00">glm/gtx/transform.hpp</text>
</a>
</g>
</g>
<!-- Node20&#45;&gt;Node32 -->
<g id="edge52" class="edge"><title>Node20&#45;&gt;Node32</title>
<path fill="none" stroke="midnightblue" d="M705.578,-224.083C698.152,-216.22 687.148,-204.569 678.188,-195.081"/>
<polygon fill="midnightblue" stroke="midnightblue" points="680.676,-192.618 671.265,-187.751 675.587,-197.424 680.676,-192.618"/>
</g>
<!-- Node21&#45;&gt;Node10 -->
<g id="edge29" class="edge"><title>Node21&#45;&gt;Node10</title>
<path fill="none" stroke="midnightblue" d="M346.045,-116.882C360.449,-115.19 377.543,-113.322 393,-112 664.921,-88.7365 733.803,-95.7667 1006,-76 1024.59,-74.6504 1045.02,-72.933 1062.82,-71.3611"/>
<polygon fill="midnightblue" stroke="midnightblue" points="1063.31,-74.8312 1072.96,-70.4562 1062.69,-67.8589 1063.31,-74.8312"/>
</g>
<!-- Node21&#45;&gt;Node15 -->
<g id="edge31" class="edge"><title>Node21&#45;&gt;Node15</title>
<path fill="none" stroke="midnightblue" d="M324.086,-112.324C334.486,-104.185 350.261,-91.8395 362.722,-82.0874"/>
<polygon fill="midnightblue" stroke="midnightblue" points="364.994,-84.7533 370.712,-75.8339 360.68,-79.2407 364.994,-84.7533"/>
</g>
<!-- Node22 -->
<g id="node22" class="node"><title>Node22</title>
<g id="a_node22"><a xlink:title=" ">
<polygon fill="white" stroke="#bfbfbf" points="732.5,-56.5 732.5,-75.5 859.5,-75.5 859.5,-56.5 732.5,-56.5"/>
<text text-anchor="middle" x="796" y="-63.5" font-family="Helvetica,sans-Serif" font-size="10.00">LinearMath/btTransform.h</text>
</a>
</g>
</g>
<!-- Node21&#45;&gt;Node22 -->
<g id="edge28" class="edge"><title>Node21&#45;&gt;Node22</title>
<path fill="none" stroke="midnightblue" d="M346.083,-117.272C360.495,-115.65 377.583,-113.728 393,-112 508.064,-99.1035 641.615,-84.2045 722.409,-75.1988"/>
<polygon fill="midnightblue" stroke="midnightblue" points="722.93,-78.6625 732.481,-74.0763 722.155,-71.7056 722.93,-78.6625"/>
</g>
<!-- Node23 -->
<g id="node23" class="node"><title>Node23</title>
<g id="a_node23"><a xlink:title=" ">
<polygon fill="white" stroke="#bfbfbf" points="269,-56.5 269,-75.5 343,-75.5 343,-56.5 269,-56.5"/>
<text text-anchor="middle" x="306" y="-63.5" font-family="Helvetica,sans-Serif" font-size="10.00">glm/vec4.hpp</text>
</a>
</g>
</g>
<!-- Node21&#45;&gt;Node23 -->
<g id="edge30" class="edge"><title>Node21&#45;&gt;Node23</title>
<path fill="none" stroke="midnightblue" d="M311.844,-112.083C310.916,-104.927 309.582,-94.6353 308.423,-85.6911"/>
<polygon fill="midnightblue" stroke="midnightblue" points="311.891,-85.2181 307.134,-75.7511 304.949,-86.1181 311.891,-85.2181"/>
</g>
<!-- Node24&#45;&gt;Node8 -->
<g id="edge41" class="edge"><title>Node24&#45;&gt;Node8</title>
<path fill="none" stroke="midnightblue" d="M774.961,-168.324C784.127,-160.341 797.937,-148.313 809.028,-138.653"/>
<polygon fill="midnightblue" stroke="midnightblue" points="811.615,-141.041 816.857,-131.834 807.018,-135.762 811.615,-141.041"/>
</g>
<!-- Node24&#45;&gt;Node14 -->
<g id="edge35" class="edge"><title>Node24&#45;&gt;Node14</title>
<path fill="none" stroke="midnightblue" d="M736.34,-169.096C710.928,-161.475 673.26,-148.654 643,-132 617.499,-117.965 591.372,-96.7607 574.938,-82.4206"/>
<polygon fill="midnightblue" stroke="midnightblue" points="577.084,-79.6451 567.282,-75.6217 572.435,-84.879 577.084,-79.6451"/>
</g>
<!-- Node24&#45;&gt;Node15 -->
<g id="edge40" class="edge"><title>Node24&#45;&gt;Node15</title>
<path fill="none" stroke="midnightblue" d="M736.445,-169.832C733.27,-169.156 730.074,-168.528 727,-168 653.424,-155.373 447.354,-183.172 393,-132 380.649,-120.372 378.912,-100.419 379.64,-85.6799"/>
<polygon fill="midnightblue" stroke="midnightblue" points="383.132,-85.922 380.541,-75.6488 376.16,-85.2954 383.132,-85.922"/>
</g>
<!-- Node24&#45;&gt;Node16 -->
<g id="edge38" class="edge"><title>Node24&#45;&gt;Node16</title>
<path fill="none" stroke="midnightblue" d="M793.737,-172.106C802.478,-170.692 812.121,-169.206 821,-168 964.568,-148.499 1003.61,-163.638 1145,-132 1203.15,-118.987 1268.35,-94.3736 1305.27,-79.452"/>
<polygon fill="midnightblue" stroke="midnightblue" points="1306.96,-82.5395 1314.9,-75.518 1304.32,-76.0592 1306.96,-82.5395"/>
</g>
<!-- Node25 -->
<g id="node25" class="node"><title>Node25</title>
<g id="a_node25"><a xlink:title=" ">
<polygon fill="white" stroke="#bfbfbf" points="520.5,-112.5 520.5,-131.5 595.5,-131.5 595.5,-112.5 520.5,-112.5"/>
<text text-anchor="middle" x="558" y="-119.5" font-family="Helvetica,sans-Serif" font-size="10.00">SDL_image.h</text>
</a>
</g>
</g>
<!-- Node24&#45;&gt;Node25 -->
<g id="edge36" class="edge"><title>Node24&#45;&gt;Node25</title>
<path fill="none" stroke="midnightblue" d="M736.218,-169.492C700.988,-160.301 641.029,-144.66 600.49,-134.084"/>
<polygon fill="midnightblue" stroke="midnightblue" points="601.188,-130.649 590.628,-131.512 599.421,-137.423 601.188,-130.649"/>
</g>
<!-- Node26 -->
<g id="node26" class="node"><title>Node26</title>
<g id="a_node26"><a xlink:title=" ">
<polygon fill="white" stroke="#bfbfbf" points="652.5,-112.5 652.5,-131.5 729.5,-131.5 729.5,-112.5 652.5,-112.5"/>
<text text-anchor="middle" x="691" y="-119.5" font-family="Helvetica,sans-Serif" font-size="10.00">SDL_opengl.h</text>
</a>
</g>
</g>
<!-- Node24&#45;&gt;Node26 -->
<g id="edge37" class="edge"><title>Node24&#45;&gt;Node26</title>
<path fill="none" stroke="midnightblue" d="M753.111,-168.324C741.85,-160.107 724.713,-147.602 711.291,-137.807"/>
<polygon fill="midnightblue" stroke="midnightblue" points="713.247,-134.901 703.106,-131.834 709.12,-140.556 713.247,-134.901"/>
</g>
<!-- Node27 -->
<g id="node27" class="node"><title>Node27</title>
<g id="a_node27"><a xlink:title=" ">
<polygon fill="white" stroke="#bfbfbf" points="747.5,-112.5 747.5,-131.5 782.5,-131.5 782.5,-112.5 747.5,-112.5"/>
<text text-anchor="middle" x="765" y="-119.5" font-family="Helvetica,sans-Serif" font-size="10.00">map</text>
</a>
</g>
</g>
<!-- Node24&#45;&gt;Node27 -->
<g id="edge39" class="edge"><title>Node24&#45;&gt;Node27</title>
<path fill="none" stroke="midnightblue" d="M765,-168.083C765,-161.006 765,-150.861 765,-141.986"/>
<polygon fill="midnightblue" stroke="midnightblue" points="768.5,-141.751 765,-131.751 761.5,-141.751 768.5,-141.751"/>
</g>
<!-- Node28 -->
<g id="node28" class="node"><title>Node28</title>
<g id="a_node28"><a xlink:href="../../d7/d26/_helping_hand_8h.html" target="_top" xlink:title=" ">
<polygon fill="white" stroke="black" points="986,-112.5 986,-131.5 1066,-131.5 1066,-112.5 986,-112.5"/>
<text text-anchor="middle" x="1026" y="-119.5" font-family="Helvetica,sans-Serif" font-size="10.00">HelpingHand.h</text>
</a>
</g>
</g>
<!-- Node24&#45;&gt;Node28 -->
<g id="edge42" class="edge"><title>Node24&#45;&gt;Node28</title>
<path fill="none" stroke="midnightblue" d="M793.678,-171.067C837.469,-162.006 921.607,-144.599 975.706,-133.406"/>
<polygon fill="midnightblue" stroke="midnightblue" points="976.689,-136.776 985.773,-131.323 975.271,-129.922 976.689,-136.776"/>
</g>
<!-- Node28&#45;&gt;Node10 -->
<g id="edge46" class="edge"><title>Node28&#45;&gt;Node10</title>
<path fill="none" stroke="midnightblue" d="M1039.5,-112.324C1052.6,-103.9 1072.71,-90.9709 1088.11,-81.0741"/>
<polygon fill="midnightblue" stroke="midnightblue" points="1090.02,-84.0063 1096.54,-75.6545 1086.23,-78.118 1090.02,-84.0063"/>
</g>
<!-- Node28&#45;&gt;Node16 -->
<g id="edge44" class="edge"><title>Node28&#45;&gt;Node16</title>
<path fill="none" stroke="midnightblue" d="M1066.11,-113.758C1069.46,-113.16 1072.79,-112.568 1076,-112 1154.25,-98.1599 1245.87,-82.3297 1296.47,-73.6188"/>
<polygon fill="midnightblue" stroke="midnightblue" points="1297.37,-77.0163 1306.63,-71.8713 1296.18,-70.1177 1297.37,-77.0163"/>
</g>
<!-- Node28&#45;&gt;Node19 -->
<g id="edge47" class="edge"><title>Node28&#45;&gt;Node19</title>
<path fill="none" stroke="midnightblue" d="M1066.07,-113.495C1069.43,-112.956 1072.77,-112.449 1076,-112 1236.25,-89.7581 1429.49,-74.5924 1503.8,-69.189"/>
<polygon fill="midnightblue" stroke="midnightblue" points="1504.16,-72.6723 1513.88,-68.463 1503.66,-65.6903 1504.16,-72.6723"/>
</g>
<!-- Node28&#45;&gt;Node22 -->
<g id="edge43" class="edge"><title>Node28&#45;&gt;Node22</title>
<path fill="none" stroke="midnightblue" d="M989.556,-112.444C949.601,-103.063 885.413,-87.9926 842.015,-77.8036"/>
<polygon fill="midnightblue" stroke="midnightblue" points="842.809,-74.3948 832.274,-75.5164 841.209,-81.2095 842.809,-74.3948"/>
</g>
<!-- Node29 -->
<g id="node29" class="node"><title>Node29</title>
<g id="a_node29"><a xlink:title=" ">
<polygon fill="white" stroke="#bfbfbf" points="881,-56.5 881,-75.5 997,-75.5 997,-56.5 881,-56.5"/>
<text text-anchor="middle" x="939" y="-63.5" font-family="Helvetica,sans-Serif" font-size="10.00">glm/gtc/quaternion.hpp</text>
</a>
</g>
</g>
<!-- Node28&#45;&gt;Node29 -->
<g id="edge45" class="edge"><title>Node28&#45;&gt;Node29</title>
<path fill="none" stroke="midnightblue" d="M1012.02,-112.324C998.45,-103.9 977.62,-90.9709 961.675,-81.0741"/>
<polygon fill="midnightblue" stroke="midnightblue" points="963.286,-77.9544 952.943,-75.6545 959.594,-83.9019 963.286,-77.9544"/>
</g>
<!-- Node30&#45;&gt;Node29 -->
<g id="edge49" class="edge"><title>Node30&#45;&gt;Node29</title>
<path fill="none" stroke="midnightblue" d="M869.885,-168.368C882.262,-150.215 911.181,-107.802 927.416,-83.9902"/>
<polygon fill="midnightblue" stroke="midnightblue" points="930.401,-85.8254 933.142,-75.5914 924.617,-81.882 930.401,-85.8254"/>
</g>
<!-- Node33&#45;&gt;Node21 -->
<g id="edge54" class="edge"><title>Node33&#45;&gt;Node21</title>
<path fill="none" stroke="midnightblue" d="M180.973,-280.376C182.773,-267.301 187.542,-242.071 199,-224 222.812,-186.445 264.535,-154.645 290.361,-137.246"/>
<polygon fill="midnightblue" stroke="midnightblue" points="292.348,-140.128 298.777,-131.706 288.5,-134.281 292.348,-140.128"/>
</g>
<!-- Node34 -->
<g id="node34" class="node"><title>Node34</title>
<g id="a_node34"><a xlink:href="../../d9/db9/_unique_vectors_8h.html" target="_top" xlink:title=" ">
<polygon fill="white" stroke="black" points="62.5,-224.5 62.5,-243.5 151.5,-243.5 151.5,-224.5 62.5,-224.5"/>
<text text-anchor="middle" x="107" y="-231.5" font-family="Helvetica,sans-Serif" font-size="10.00">UniqueVectors.h</text>
</a>
</g>
</g>
<!-- Node33&#45;&gt;Node34 -->
<g id="edge55" class="edge"><title>Node33&#45;&gt;Node34</title>
<path fill="none" stroke="midnightblue" d="M168.271,-280.324C157.163,-272.107 140.258,-259.602 127.017,-249.807"/>
<polygon fill="midnightblue" stroke="midnightblue" points="129.063,-246.967 118.942,-243.834 124.9,-252.595 129.063,-246.967"/>
</g>
<!-- Node35 -->
<g id="node35" class="node"><title>Node35</title>
<g id="a_node35"><a xlink:title=" ">
<polygon fill="white" stroke="#bfbfbf" points="208,-224.5 208,-243.5 282,-243.5 282,-224.5 208,-224.5"/>
<text text-anchor="middle" x="245" y="-231.5" font-family="Helvetica,sans-Serif" font-size="10.00">glm/vec2.hpp</text>
</a>
</g>
</g>
<!-- Node33&#45;&gt;Node35 -->
<g id="edge56" class="edge"><title>Node33&#45;&gt;Node35</title>
<path fill="none" stroke="midnightblue" d="M190.443,-280.324C200.146,-272.263 214.815,-260.077 226.5,-250.369"/>
<polygon fill="midnightblue" stroke="midnightblue" points="228.911,-252.916 234.367,-243.834 224.438,-247.532 228.911,-252.916"/>
</g>
<!-- Node36 -->
<g id="node36" class="node"><title>Node36</title>
<g id="a_node36"><a xlink:title=" ">
<polygon fill="white" stroke="#bfbfbf" points="0,-224.5 0,-243.5 44,-243.5 44,-224.5 0,-224.5"/>
<text text-anchor="middle" x="22" y="-231.5" font-family="Helvetica,sans-Serif" font-size="10.00">SDL.h</text>
</a>
</g>
</g>
<!-- Node33&#45;&gt;Node36 -->
<g id="edge57" class="edge"><title>Node33&#45;&gt;Node36</title>
<path fill="none" stroke="midnightblue" d="M156.687,-281.032C129.462,-271.728 84.2867,-256.288 53.8447,-245.884"/>
<polygon fill="midnightblue" stroke="midnightblue" points="54.7275,-242.487 44.133,-242.564 52.4637,-249.11 54.7275,-242.487"/>
</g>
<!-- Node37&#45;&gt;Node6 -->
<g id="edge59" class="edge"><title>Node37&#45;&gt;Node6</title>
<path fill="none" stroke="midnightblue" d="M1176.59,-336.207C1181.15,-327.259 1188.13,-312.907 1193,-300 1198.83,-284.53 1203.99,-266.442 1207.45,-253.28"/>
<polygon fill="midnightblue" stroke="midnightblue" points="1210.86,-254.105 1209.94,-243.549 1204.07,-252.369 1210.86,-254.105"/>
</g>
<!-- Node37&#45;&gt;Node15 -->
<g id="edge72" class="edge"><title>Node37&#45;&gt;Node15</title>
<path fill="none" stroke="midnightblue" d="M1139.36,-343.217C988.609,-334.175 363.041,-287.533 271,-132 266.473,-124.35 266.034,-119.372 271,-112 275.796,-104.88 320.589,-88.2225 351.784,-77.2935"/>
<polygon fill="midnightblue" stroke="midnightblue" points="353.068,-80.5527 361.367,-73.9658 350.772,-73.94 353.068,-80.5527"/>
</g>
<!-- Node37&#45;&gt;Node19 -->
<g id="edge73" class="edge"><title>Node37&#45;&gt;Node19</title>
<path fill="none" stroke="midnightblue" d="M1204.76,-342.328C1322.74,-331.908 1722.32,-289.461 1786,-188 1790.73,-180.471 1790.79,-175.49 1786,-168 1761.25,-129.276 1627.69,-90.74 1566.12,-74.73"/>
<polygon fill="midnightblue" stroke="midnightblue" points="1566.75,-71.278 1556.19,-72.1819 1565.01,-78.0582 1566.75,-71.278"/>
</g>
<!-- Node37&#45;&gt;Node35 -->
<g id="edge71" class="edge"><title>Node37&#45;&gt;Node35</title>
<path fill="none" stroke="midnightblue" d="M1139.26,-343.688C982.454,-337.362 315.084,-309.897 296,-300 276.363,-289.816 261.877,-268.313 253.462,-252.825"/>
<polygon fill="midnightblue" stroke="midnightblue" points="256.471,-251.02 248.816,-243.694 250.232,-254.194 256.471,-251.02"/>
</g>
<!-- Node38 -->
<g id="node38" class="node"><title>Node38</title>
<g id="a_node38"><a xlink:href="../../d8/dc0/_gui_text_character_8h.html" target="_top" xlink:title=" ">
<polygon fill="white" stroke="black" points="1082.5,-280.5 1082.5,-299.5 1183.5,-299.5 1183.5,-280.5 1082.5,-280.5"/>
<text text-anchor="middle" x="1133" y="-287.5" font-family="Helvetica,sans-Serif" font-size="10.00">GuiTextCharacter.h</text>
</a>
</g>
</g>
<!-- Node37&#45;&gt;Node38 -->
<g id="edge60" class="edge"><title>Node37&#45;&gt;Node38</title>
<path fill="none" stroke="midnightblue" d="M1165.56,-336.083C1160.05,-328.455 1151.97,-317.264 1145.24,-307.941"/>
<polygon fill="midnightblue" stroke="midnightblue" points="1148.01,-305.809 1139.32,-299.751 1142.34,-309.907 1148.01,-305.809"/>
</g>
<!-- Node40 -->
<g id="node40" class="node"><title>Node40</title>
<g id="a_node40"><a xlink:href="../../d8/de2/_text_map_8h.html" target="_top" xlink:title=" ">
<polygon fill="white" stroke="black" points="1563,-224.5 1563,-243.5 1625,-243.5 1625,-224.5 1563,-224.5"/>
<text text-anchor="middle" x="1594" y="-231.5" font-family="Helvetica,sans-Serif" font-size="10.00">TextMap.h</text>
</a>
</g>
</g>
<!-- Node37&#45;&gt;Node40 -->
<g id="edge64" class="edge"><title>Node37&#45;&gt;Node40</title>
<path fill="none" stroke="midnightblue" d="M1204.76,-336.46C1280.89,-316.617 1469.57,-267.435 1553.09,-245.663"/>
<polygon fill="midnightblue" stroke="midnightblue" points="1554.19,-248.995 1562.98,-243.086 1552.42,-242.221 1554.19,-248.995"/>
</g>
<!-- Node38&#45;&gt;Node20 -->
<g id="edge63" class="edge"><title>Node38&#45;&gt;Node20</title>
<path fill="none" stroke="midnightblue" d="M1082.46,-282.486C996.157,-271.364 822.551,-248.99 748.616,-239.461"/>
<polygon fill="midnightblue" stroke="midnightblue" points="748.819,-235.959 738.454,-238.152 747.924,-242.901 748.819,-235.959"/>
</g>
<!-- Node39 -->
<g id="node39" class="node"><title>Node39</title>
<g id="a_node39"><a xlink:href="../../d3/d67/_glyph_8h.html" target="_top" xlink:title=" ">
<polygon fill="white" stroke="black" points="1727,-168.5 1727,-187.5 1777,-187.5 1777,-168.5 1727,-168.5"/>
<text text-anchor="middle" x="1752" y="-175.5" font-family="Helvetica,sans-Serif" font-size="10.00">Glyph.h</text>
</a>
</g>
</g>
<!-- Node38&#45;&gt;Node39 -->
<g id="edge61" class="edge"><title>Node38&#45;&gt;Node39</title>
<path fill="none" stroke="midnightblue" d="M1183.68,-287.094C1293.61,-282.532 1550.8,-269.423 1634,-244 1670.96,-232.707 1709.37,-208.913 1731.96,-193.46"/>
<polygon fill="midnightblue" stroke="midnightblue" points="1734.15,-196.197 1740.35,-187.602 1730.14,-190.457 1734.15,-196.197"/>
</g>
<!-- Node39&#45;&gt;Node3 -->
<g id="edge62" class="edge"><title>Node39&#45;&gt;Node3</title>
<path fill="none" stroke="midnightblue" d="M1758.89,-168.319C1765.27,-159.684 1774.31,-145.77 1778,-132 1786.75,-99.3746 1783.07,-89.3944 1778,-56 1776.63,-47.001 1773.81,-37.3251 1771.05,-29.2601"/>
<polygon fill="midnightblue" stroke="midnightblue" points="1774.31,-27.9759 1767.6,-19.7782 1767.73,-30.3722 1774.31,-27.9759"/>
</g>
<!-- Node40&#45;&gt;Node19 -->
<g id="edge70" class="edge"><title>Node40&#45;&gt;Node19</title>
<path fill="none" stroke="midnightblue" d="M1607.56,-224.482C1618.9,-216.546 1634.4,-203.609 1642,-188 1656.83,-157.569 1665.96,-140.045 1647,-112 1629.08,-85.4846 1592.68,-74.5904 1566.23,-70.1159"/>
<polygon fill="midnightblue" stroke="midnightblue" points="1566.69,-66.6463 1556.28,-68.6519 1565.67,-73.5716 1566.69,-66.6463"/>
</g>
<!-- Node40&#45;&gt;Node24 -->
<g id="edge69" class="edge"><title>Node40&#45;&gt;Node24</title>
<path fill="none" stroke="midnightblue" d="M1562.98,-232.321C1458.26,-229.788 1108.31,-219.369 821,-188 815.433,-187.392 809.575,-186.61 803.831,-185.761"/>
<polygon fill="midnightblue" stroke="midnightblue" points="804.12,-182.264 793.701,-184.185 803.044,-189.181 804.12,-182.264"/>
</g>
<!-- Node40&#45;&gt;Node39 -->
<g id="edge65" class="edge"><title>Node40&#45;&gt;Node39</title>
<path fill="none" stroke="midnightblue" d="M1619.04,-224.444C1645.62,-215.359 1687.81,-200.939 1717.52,-190.783"/>
<polygon fill="midnightblue" stroke="midnightblue" points="1718.75,-194.062 1727.08,-187.516 1716.49,-187.439 1718.75,-194.062"/>
</g>
<!-- Node41 -->
<g id="node41" class="node"><title>Node41</title>
<g id="a_node41"><a xlink:href="../../d7/dcf/_serialization_8h.html" target="_top" xlink:title=" ">
<polygon fill="white" stroke="black" points="1555,-168.5 1555,-187.5 1633,-187.5 1633,-168.5 1555,-168.5"/>
<text text-anchor="middle" x="1594" y="-175.5" font-family="Helvetica,sans-Serif" font-size="10.00">Serialization.h</text>
</a>
</g>
</g>
<!-- Node40&#45;&gt;Node41 -->
<g id="edge66" class="edge"><title>Node40&#45;&gt;Node41</title>
<path fill="none" stroke="midnightblue" d="M1594,-224.083C1594,-217.006 1594,-206.861 1594,-197.986"/>
<polygon fill="midnightblue" stroke="midnightblue" points="1597.5,-197.751 1594,-187.751 1590.5,-197.751 1597.5,-197.751"/>
</g>
<!-- Node41&#45;&gt;Node16 -->
<g id="edge67" class="edge"><title>Node41&#45;&gt;Node16</title>
<path fill="none" stroke="midnightblue" d="M1605.35,-168.339C1621.2,-155.215 1646.4,-129.923 1631,-112 1614.4,-92.6811 1449.66,-76.5625 1373.39,-70.0709"/>
<polygon fill="midnightblue" stroke="midnightblue" points="1373.49,-66.5677 1363.24,-69.2195 1372.91,-73.5432 1373.49,-66.5677"/>
</g>
<!-- Node41&#45;&gt;Node17 -->
<g id="edge68" class="edge"><title>Node41&#45;&gt;Node17</title>
<path fill="none" stroke="midnightblue" d="M1594.5,-168.083C1594.89,-161.006 1595.45,-150.861 1595.95,-141.986"/>
<polygon fill="midnightblue" stroke="midnightblue" points="1599.45,-141.93 1596.51,-131.751 1592.46,-141.542 1599.45,-141.93"/>
</g>
</g>
</svg>
        <g id="navigator" transform="translate(0 0)" fill="#404254">
                <rect fill="#f2f5e9" fill-opacity="0.5" stroke="#606060" stroke-width=".5" x="0" y="0" width="60" height="60"/>
                <use id="zoomplus" xlink:href="#zoomPlus" x="17" y="9" onmousedown="handleZoom(evt,'in')"/>
                <use id="zoomminus" xlink:href="#zoomMin" x="42" y="9" onmousedown="handleZoom(evt,'out')"/>
                <use id="reset" xlink:href="#resetDef" x="30" y="36" onmousedown="handleReset()"/>
                <g id="arrowUp" xlink:href="#dirArrow" transform="translate(30 24)" onmousedown="handlePan(0,-1)">
                  <use xlink:href="#rim" fill="#404040">
                        <set attributeName="fill" to="#808080" begin="arrowUp.mouseover" end="arrowUp.mouseout"/>
                  </use>
                  <path fill="none" stroke="white" stroke-width="1.5" d="M0,-3.0v7 M-2.5,-0.5L0,-3.0L2.5,-0.5"/>
                </g>
                <g id="arrowRight" xlink:href="#dirArrow" transform="rotate(90) translate(36 -43)" onmousedown="handlePan(1,0)">
                  <use xlink:href="#rim" fill="#404040">
                        <set attributeName="fill" to="#808080" begin="arrowRight.mouseover" end="arrowRight.mouseout"/>
                  </use>
                  <path fill="none" stroke="white" stroke-width="1.5" d="M0,-3.0v7 M-2.5,-0.5L0,-3.0L2.5,-0.5"/>
                </g>
                <g id="arrowDown" xlink:href="#dirArrow" transform="rotate(180) translate(-30 -48)" onmousedown="handlePan(0,1)">
                  <use xlink:href="#rim" fill="#404040">
                        <set attributeName="fill" to="#808080" begin="arrowDown.mouseover" end="arrowDown.mouseout"/>
                  </use>
                  <path fill="none" stroke="white" stroke-width="1.5" d="M0,-3.0v7 M-2.5,-0.5L0,-3.0L2.5,-0.5"/>
                </g>
                <g id="arrowLeft" xlink:href="#dirArrow" transform="rotate(270) translate(-36 17)" onmousedown="handlePan(-1,0)">
                  <use xlink:href="#rim" fill="#404040">
                        <set attributeName="fill" to="#808080" begin="arrowLeft.mouseover" end="arrowLeft.mouseout"/>
                  </use>
                  <path fill="none" stroke="white" stroke-width="1.5" d="M0,-3.0v7 M-2.5,-0.5L0,-3.0L2.5,-0.5"/>
                </g>
        </g>
        <svg viewBox="0 0 15 15" width="100%" height="30px" preserveAspectRatio="xMaxYMin meet">
         <g id="arrow_out" transform="scale(0.3 0.3)">
          <a xlink:href="_pause_menu_8h__incl_org.svg" target="_base">
           <rect id="button" ry="5" rx="5" y="6" x="6" height="38" width="38"
                fill="#f2f5e9" fill-opacity="0.5" stroke="#606060" stroke-width="1.0"/>
           <path id="arrow"
             d="M 11.500037,31.436501 C 11.940474,20.09759 22.043105,11.32322 32.158766,21.979434 L 37.068811,17.246167 C 37.068811,17.246167 37.088388,32 37.088388,32 L 22.160133,31.978069 C 22.160133,31.978069 26.997745,27.140456 26.997745,27.140456 C 18.528582,18.264221 13.291696,25.230495 11.500037,31.436501 z"
             style="fill:#404040;"/>
          </a>
         </g>
        </svg>
</svg>
