<?xml version="1.0" encoding="UTF-8" standalone="no"?>
<!DOCTYPE svg PUBLIC "-//W3C//DTD SVG 1.1//EN"
 "http://www.w3.org/Graphics/SVG/1.1/DTD/svg11.dtd">
<!-- Generated by graphviz version 2.38.0 (20140413.2041)
 -->
<!-- Title: src/PhysicsWorld.h Pages: 1 -->
<svg width="831pt" height="476pt"
 viewBox="0.00 0.00 831.00 476.00" xmlns="http://www.w3.org/2000/svg" xmlns:xlink="http://www.w3.org/1999/xlink">
<g id="graph0" class="graph" transform="scale(1 1) rotate(0) translate(4 472)">
<title>src/PhysicsWorld.h</title>
<polygon fill="white" stroke="none" points="-4,4 -4,-472 827,-472 827,4 -4,4"/>
<!-- Node1 -->
<g id="node1" class="node"><title>Node1</title>
<g id="a_node1"><a xlink:title=" ">
<polygon fill="#bfbfbf" stroke="black" points="400.5,-448.5 400.5,-467.5 502.5,-467.5 502.5,-448.5 400.5,-448.5"/>
<text text-anchor="middle" x="451.5" y="-455.5" font-family="Helvetica,sans-Serif" font-size="10.00">src/PhysicsWorld.h</text>
</a>
</g>
</g>
<!-- Node2 -->
<g id="node2" class="node"><title>Node2</title>
<g id="a_node2"><a xlink:href="../../d2/d07/_debugging_controller_8h.html" target="_top" xlink:title=" ">
<polygon fill="white" stroke="black" points="245.5,-280.5 245.5,-299.5 373.5,-299.5 373.5,-280.5 245.5,-280.5"/>
<text text-anchor="middle" x="309.5" y="-287.5" font-family="Helvetica,sans-Serif" font-size="10.00">src/DebuggingController.h</text>
</a>
</g>
</g>
<!-- Node1&#45;&gt;Node2 -->
<g id="edge1" class="edge"><title>Node1&#45;&gt;Node2</title>
<path fill="none" stroke="midnightblue" d="M408.882,-445.044C390.408,-438.011 369.784,-427.399 355.5,-412 324.321,-378.388 313.623,-321.509 310.563,-299.789"/>
<polygon fill="midnightblue" stroke="midnightblue" points="407.707,-448.34 418.302,-448.401 410.057,-441.747 407.707,-448.34"/>
</g>
<!-- Node16 -->
<g id="node16" class="node"><title>Node16</title>
<g id="a_node16"><a xlink:href="../../de/d56/_scene_8h.html" target="_top" xlink:title=" ">
<polygon fill="white" stroke="black" points="396,-280.5 396,-299.5 465,-299.5 465,-280.5 396,-280.5"/>
<text text-anchor="middle" x="430.5" y="-287.5" font-family="Helvetica,sans-Serif" font-size="10.00">src/Scene.h</text>
</a>
</g>
</g>
<!-- Node1&#45;&gt;Node16 -->
<g id="edge17" class="edge"><title>Node1&#45;&gt;Node16</title>
<path fill="none" stroke="midnightblue" d="M410.274,-444.609C394.451,-437.658 377.939,-427.23 368.5,-412 350.699,-383.28 350.927,-365.987 366.5,-336 375.389,-318.883 394.108,-306.91 409.017,-299.64"/>
<polygon fill="midnightblue" stroke="midnightblue" points="409.383,-448.023 419.967,-448.499 411.99,-441.526 409.383,-448.023"/>
</g>
<!-- Node20 -->
<g id="node20" class="node"><title>Node20</title>
<g id="a_node20"><a xlink:href="../../df/d4c/_enemy_controller_system_8h.html" target="_top" xlink:title=" ">
<polygon fill="white" stroke="black" points="378,-392.5 378,-411.5 525,-411.5 525,-392.5 378,-392.5"/>
<text text-anchor="middle" x="451.5" y="-399.5" font-family="Helvetica,sans-Serif" font-size="10.00">src/EnemyControllerSystem.h</text>
</a>
</g>
</g>
<!-- Node1&#45;&gt;Node20 -->
<g id="edge25" class="edge"><title>Node1&#45;&gt;Node20</title>
<path fill="none" stroke="midnightblue" d="M451.5,-437.805C451.5,-428.91 451.5,-418.78 451.5,-411.751"/>
<polygon fill="midnightblue" stroke="midnightblue" points="448,-438.083 451.5,-448.083 455,-438.083 448,-438.083"/>
</g>
<!-- Node24 -->
<g id="node24" class="node"><title>Node24</title>
<g id="a_node24"><a xlink:href="../../d8/d3c/_player_controller_system_8h.html" target="_top" xlink:title=" ">
<polygon fill="white" stroke="black" points="543.5,-392.5 543.5,-411.5 687.5,-411.5 687.5,-392.5 543.5,-392.5"/>
<text text-anchor="middle" x="615.5" y="-399.5" font-family="Helvetica,sans-Serif" font-size="10.00">src/PlayerControllerSystem.h</text>
</a>
</g>
</g>
<!-- Node1&#45;&gt;Node24 -->
<g id="edge32" class="edge"><title>Node1&#45;&gt;Node24</title>
<path fill="none" stroke="midnightblue" d="M487.02,-445.304C517.922,-435.129 561.973,-420.625 589.635,-411.516"/>
<polygon fill="midnightblue" stroke="midnightblue" points="485.89,-441.992 477.486,-448.444 488.079,-448.64 485.89,-441.992"/>
</g>
<!-- Node26 -->
<g id="node26" class="node"><title>Node26</title>
<g id="a_node26"><a xlink:href="../../d9/de2/_physics_world_8cpp.html" target="_top" xlink:title=" ">
<polygon fill="white" stroke="black" points="706,-392.5 706,-411.5 819,-411.5 819,-392.5 706,-392.5"/>
<text text-anchor="middle" x="762.5" y="-399.5" font-family="Helvetica,sans-Serif" font-size="10.00">src/PhysicsWorld.cpp</text>
</a>
</g>
</g>
<!-- Node1&#45;&gt;Node26 -->
<g id="edge35" class="edge"><title>Node1&#45;&gt;Node26</title>
<path fill="none" stroke="midnightblue" d="M510.662,-446.727C569.432,-436.523 658.498,-421.058 713.452,-411.516"/>
<polygon fill="midnightblue" stroke="midnightblue" points="510.033,-443.284 500.779,-448.444 511.23,-450.181 510.033,-443.284"/>
</g>
<!-- Node3 -->
<g id="node3" class="node"><title>Node3</title>
<g id="a_node3"><a xlink:href="../../da/d03/_entity_tests_8h.html" target="_top" xlink:title=" ">
<polygon fill="white" stroke="black" points="157,-224.5 157,-243.5 248,-243.5 248,-224.5 157,-224.5"/>
<text text-anchor="middle" x="202.5" y="-231.5" font-family="Helvetica,sans-Serif" font-size="10.00">src/EntityTests.h</text>
</a>
</g>
</g>
<!-- Node2&#45;&gt;Node3 -->
<g id="edge2" class="edge"><title>Node2&#45;&gt;Node3</title>
<path fill="none" stroke="midnightblue" d="M283.198,-275.726C263.385,-265.727 236.793,-252.307 219.649,-243.655"/>
<polygon fill="midnightblue" stroke="midnightblue" points="281.804,-278.943 292.309,-280.324 284.958,-272.694 281.804,-278.943"/>
</g>
<!-- Node11 -->
<g id="node11" class="node"><title>Node11</title>
<g id="a_node11"><a xlink:href="../../db/d81/_fixed_updating_system_8h.html" target="_top" xlink:title=" ">
<polygon fill="white" stroke="black" points="365,-224.5 365,-243.5 502,-243.5 502,-224.5 365,-224.5"/>
<text text-anchor="middle" x="433.5" y="-231.5" font-family="Helvetica,sans-Serif" font-size="10.00">src/FixedUpdatingSystem.h</text>
</a>
</g>
</g>
<!-- Node2&#45;&gt;Node11 -->
<g id="edge10" class="edge"><title>Node2&#45;&gt;Node11</title>
<path fill="none" stroke="midnightblue" d="M338.507,-276.368C361.729,-266.255 393.663,-252.349 413.944,-243.516"/>
<polygon fill="midnightblue" stroke="midnightblue" points="336.919,-273.242 329.148,-280.444 339.714,-279.66 336.919,-273.242"/>
</g>
<!-- Node13 -->
<g id="node13" class="node"><title>Node13</title>
<g id="a_node13"><a xlink:href="../../da/d66/_rendering_system_8h.html" target="_top" xlink:title=" ">
<polygon fill="white" stroke="black" points="520,-224.5 520,-243.5 639,-243.5 639,-224.5 520,-224.5"/>
<text text-anchor="middle" x="579.5" y="-231.5" font-family="Helvetica,sans-Serif" font-size="10.00">src/RenderingSystem.h</text>
</a>
</g>
</g>
<!-- Node2&#45;&gt;Node13 -->
<g id="edge13" class="edge"><title>Node2&#45;&gt;Node13</title>
<path fill="none" stroke="midnightblue" d="M362.133,-278.473C413.161,-268.268 489.603,-252.979 536.918,-243.516"/>
<polygon fill="midnightblue" stroke="midnightblue" points="361.402,-275.05 352.282,-280.444 362.775,-281.914 361.402,-275.05"/>
</g>
<!-- Node15 -->
<g id="node15" class="node"><title>Node15</title>
<g id="a_node15"><a xlink:href="../../d8/d1e/_debugging_controller_8cpp.html" target="_top" xlink:title=" ">
<polygon fill="white" stroke="black" points="0,-224.5 0,-243.5 139,-243.5 139,-224.5 0,-224.5"/>
<text text-anchor="middle" x="69.5" y="-231.5" font-family="Helvetica,sans-Serif" font-size="10.00">src/DebuggingController.cpp</text>
</a>
</g>
</g>
<!-- Node2&#45;&gt;Node15 -->
<g id="edge16" class="edge"><title>Node2&#45;&gt;Node15</title>
<path fill="none" stroke="midnightblue" d="M261.577,-278.217C216.226,-268.013 149.058,-252.901 107.351,-243.516"/>
<polygon fill="midnightblue" stroke="midnightblue" points="260.947,-281.663 271.471,-280.444 262.484,-274.834 260.947,-281.663"/>
</g>
<!-- Node4 -->
<g id="node4" class="node"><title>Node4</title>
<g id="a_node4"><a xlink:href="../../d9/dcd/_game_8h.html" target="_top" xlink:title=" ">
<polygon fill="white" stroke="black" points="433.5,-168.5 433.5,-187.5 501.5,-187.5 501.5,-168.5 433.5,-168.5"/>
<text text-anchor="middle" x="467.5" y="-175.5" font-family="Helvetica,sans-Serif" font-size="10.00">src/Game.h</text>
</a>
</g>
</g>
<!-- Node3&#45;&gt;Node4 -->
<g id="edge3" class="edge"><title>Node3&#45;&gt;Node4</title>
<path fill="none" stroke="midnightblue" d="M254.901,-222.475C299.899,-213.415 366.49,-199.95 424.5,-188 427.339,-187.415 430.282,-186.806 433.237,-186.192"/>
<polygon fill="midnightblue" stroke="midnightblue" points="254.188,-219.049 245.075,-224.453 255.569,-225.911 254.188,-219.049"/>
</g>
<!-- Node10 -->
<g id="node10" class="node"><title>Node10</title>
<g id="a_node10"><a xlink:href="../../de/d4c/_entity_tests_8cpp.html" target="_top" xlink:title=" ">
<polygon fill="white" stroke="black" points="148,-168.5 148,-187.5 249,-187.5 249,-168.5 148,-168.5"/>
<text text-anchor="middle" x="198.5" y="-175.5" font-family="Helvetica,sans-Serif" font-size="10.00">src/EntityTests.cpp</text>
</a>
</g>
</g>
<!-- Node3&#45;&gt;Node10 -->
<g id="edge9" class="edge"><title>Node3&#45;&gt;Node10</title>
<path fill="none" stroke="midnightblue" d="M201.1,-214.101C200.436,-205.136 199.675,-194.858 199.148,-187.751"/>
<polygon fill="midnightblue" stroke="midnightblue" points="197.61,-214.369 201.839,-224.083 204.591,-213.852 197.61,-214.369"/>
</g>
<!-- Node5 -->
<g id="node5" class="node"><title>Node5</title>
<g id="a_node5"><a xlink:href="../../d9/da3/_application_8h.html" target="_top" xlink:title=" ">
<polygon fill="white" stroke="black" points="372,-112.5 372,-131.5 461,-131.5 461,-112.5 372,-112.5"/>
<text text-anchor="middle" x="416.5" y="-119.5" font-family="Helvetica,sans-Serif" font-size="10.00">src/Application.h</text>
</a>
</g>
</g>
<!-- Node4&#45;&gt;Node5 -->
<g id="edge4" class="edge"><title>Node4&#45;&gt;Node5</title>
<path fill="none" stroke="midnightblue" d="M452.122,-160.718C443.133,-151.2 432.141,-139.561 424.765,-131.751"/>
<polygon fill="midnightblue" stroke="midnightblue" points="449.668,-163.216 459.078,-168.083 454.757,-158.41 449.668,-163.216"/>
</g>
<!-- Node9 -->
<g id="node9" class="node"><title>Node9</title>
<g id="a_node9"><a xlink:href="../../d7/db5/_game_8cpp.html" target="_top" xlink:title=" ">
<polygon fill="white" stroke="black" points="479.5,-112.5 479.5,-131.5 557.5,-131.5 557.5,-112.5 479.5,-112.5"/>
<text text-anchor="middle" x="518.5" y="-119.5" font-family="Helvetica,sans-Serif" font-size="10.00">src/Game.cpp</text>
</a>
</g>
</g>
<!-- Node4&#45;&gt;Node9 -->
<g id="edge8" class="edge"><title>Node4&#45;&gt;Node9</title>
<path fill="none" stroke="midnightblue" d="M482.878,-160.718C491.867,-151.2 502.859,-139.561 510.235,-131.751"/>
<polygon fill="midnightblue" stroke="midnightblue" points="480.243,-158.41 475.922,-168.083 485.332,-163.216 480.243,-158.41"/>
</g>
<!-- Node6 -->
<g id="node6" class="node"><title>Node6</title>
<g id="a_node6"><a xlink:href="../../d0/d42/_application_8cpp.html" target="_top" xlink:title=" ">
<polygon fill="white" stroke="black" points="317.5,-56.5 317.5,-75.5 417.5,-75.5 417.5,-56.5 317.5,-56.5"/>
<text text-anchor="middle" x="367.5" y="-63.5" font-family="Helvetica,sans-Serif" font-size="10.00">src/Application.cpp</text>
</a>
</g>
</g>
<!-- Node5&#45;&gt;Node6 -->
<g id="edge5" class="edge"><title>Node5&#45;&gt;Node6</title>
<path fill="none" stroke="midnightblue" d="M401.466,-104.431C392.878,-94.9673 382.457,-83.4827 375.441,-75.7511"/>
<polygon fill="midnightblue" stroke="midnightblue" points="399.097,-107.029 408.409,-112.083 404.281,-102.325 399.097,-107.029"/>
</g>
<!-- Node7 -->
<g id="node7" class="node"><title>Node7</title>
<g id="a_node7"><a xlink:href="../../d4/dbf/main_8h.html" target="_top" xlink:title=" ">
<polygon fill="white" stroke="black" points="435.5,-56.5 435.5,-75.5 497.5,-75.5 497.5,-56.5 435.5,-56.5"/>
<text text-anchor="middle" x="466.5" y="-63.5" font-family="Helvetica,sans-Serif" font-size="10.00">src/main.h</text>
</a>
</g>
</g>
<!-- Node5&#45;&gt;Node7 -->
<g id="edge6" class="edge"><title>Node5&#45;&gt;Node7</title>
<path fill="none" stroke="midnightblue" d="M431.576,-104.718C440.389,-95.1997 451.166,-83.5608 458.397,-75.7511"/>
<polygon fill="midnightblue" stroke="midnightblue" points="428.982,-102.367 424.756,-112.083 434.119,-107.123 428.982,-102.367"/>
</g>
<!-- Node8 -->
<g id="node8" class="node"><title>Node8</title>
<g id="a_node8"><a xlink:href="../../d5/d12/_main_8cpp.html" target="_top" xlink:title=" ">
<polygon fill="white" stroke="black" points="430,-0.5 430,-19.5 503,-19.5 503,-0.5 430,-0.5"/>
<text text-anchor="middle" x="466.5" y="-7.5" font-family="Helvetica,sans-Serif" font-size="10.00">src/Main.cpp</text>
</a>
</g>
</g>
<!-- Node7&#45;&gt;Node8 -->
<g id="edge7" class="edge"><title>Node7&#45;&gt;Node8</title>
<path fill="none" stroke="midnightblue" d="M466.5,-45.8045C466.5,-36.9102 466.5,-26.7798 466.5,-19.7511"/>
<polygon fill="midnightblue" stroke="midnightblue" points="463,-46.083 466.5,-56.083 470,-46.083 463,-46.083"/>
</g>
<!-- Node11&#45;&gt;Node4 -->
<g id="edge11" class="edge"><title>Node11&#45;&gt;Node4</title>
<path fill="none" stroke="midnightblue" d="M444.477,-215.566C450.327,-206.275 457.27,-195.248 461.99,-187.751"/>
<polygon fill="midnightblue" stroke="midnightblue" points="441.481,-213.756 439.114,-224.083 447.404,-217.486 441.481,-213.756"/>
</g>
<!-- Node12 -->
<g id="node12" class="node"><title>Node12</title>
<g id="a_node12"><a xlink:href="../../d0/d56/_fixed_updating_system_8cpp.html" target="_top" xlink:title=" ">
<polygon fill="white" stroke="black" points="267.5,-168.5 267.5,-187.5 415.5,-187.5 415.5,-168.5 267.5,-168.5"/>
<text text-anchor="middle" x="341.5" y="-175.5" font-family="Helvetica,sans-Serif" font-size="10.00">src/FixedUpdatingSystem.cpp</text>
</a>
</g>
</g>
<!-- Node11&#45;&gt;Node12 -->
<g id="edge12" class="edge"><title>Node11&#45;&gt;Node12</title>
<path fill="none" stroke="midnightblue" d="M409.95,-219.177C393.021,-209.241 370.717,-196.149 356.245,-187.655"/>
<polygon fill="midnightblue" stroke="midnightblue" points="408.323,-222.28 418.719,-224.324 411.866,-216.243 408.323,-222.28"/>
</g>
<!-- Node13&#45;&gt;Node4 -->
<g id="edge14" class="edge"><title>Node13&#45;&gt;Node4</title>
<path fill="none" stroke="midnightblue" d="M552.251,-219.862C531.484,-209.849 503.477,-196.346 485.45,-187.655"/>
<polygon fill="midnightblue" stroke="midnightblue" points="550.977,-223.134 561.505,-224.324 554.018,-216.828 550.977,-223.134"/>
</g>
<!-- Node14 -->
<g id="node14" class="node"><title>Node14</title>
<g id="a_node14"><a xlink:href="../../d2/db8/_rendering_system_8cpp.html" target="_top" xlink:title=" ">
<polygon fill="white" stroke="black" points="520,-168.5 520,-187.5 649,-187.5 649,-168.5 520,-168.5"/>
<text text-anchor="middle" x="584.5" y="-175.5" font-family="Helvetica,sans-Serif" font-size="10.00">src/RenderingSystem.cpp</text>
</a>
</g>
</g>
<!-- Node13&#45;&gt;Node14 -->
<g id="edge15" class="edge"><title>Node13&#45;&gt;Node14</title>
<path fill="none" stroke="midnightblue" d="M581.25,-214.101C582.08,-205.136 583.032,-194.858 583.69,-187.751"/>
<polygon fill="midnightblue" stroke="midnightblue" points="577.763,-213.803 580.326,-224.083 584.733,-214.448 577.763,-213.803"/>
</g>
<!-- Node16&#45;&gt;Node3 -->
<g id="edge18" class="edge"><title>Node16&#45;&gt;Node3</title>
<path fill="none" stroke="midnightblue" d="M385.954,-278.45C342.91,-268.255 278.52,-253.005 238.586,-243.547"/>
<polygon fill="midnightblue" stroke="midnightblue" points="385.334,-281.9 395.872,-280.799 386.948,-275.088 385.334,-281.9"/>
</g>
<!-- Node16&#45;&gt;Node11 -->
<g id="edge19" class="edge"><title>Node16&#45;&gt;Node11</title>
<path fill="none" stroke="midnightblue" d="M431.566,-269.805C432.061,-260.91 432.623,-250.78 433.014,-243.751"/>
<polygon fill="midnightblue" stroke="midnightblue" points="428.056,-269.904 430.995,-280.083 435.045,-270.293 428.056,-269.904"/>
</g>
<!-- Node16&#45;&gt;Node13 -->
<g id="edge20" class="edge"><title>Node16&#45;&gt;Node13</title>
<path fill="none" stroke="midnightblue" d="M463.871,-276.906C491.884,-266.754 531.196,-252.506 556.001,-243.516"/>
<polygon fill="midnightblue" stroke="midnightblue" points="462.319,-273.746 454.109,-280.444 464.704,-280.327 462.319,-273.746"/>
</g>
<!-- Node17 -->
<g id="node17" class="node"><title>Node17</title>
<g id="a_node17"><a xlink:href="../../db/dc0/_updating_system_8h.html" target="_top" xlink:title=" ">
<polygon fill="white" stroke="black" points="657,-224.5 657,-243.5 770,-243.5 770,-224.5 657,-224.5"/>
<text text-anchor="middle" x="713.5" y="-231.5" font-family="Helvetica,sans-Serif" font-size="10.00">src/UpdatingSystem.h</text>
</a>
</g>
</g>
<!-- Node16&#45;&gt;Node17 -->
<g id="edge21" class="edge"><title>Node16&#45;&gt;Node17</title>
<path fill="none" stroke="midnightblue" d="M475.307,-280.45C528.244,-270.349 615.79,-253.644 668.716,-243.545"/>
<polygon fill="midnightblue" stroke="midnightblue" points="474.368,-277.066 465.201,-282.379 475.68,-283.942 474.368,-277.066"/>
</g>
<!-- Node19 -->
<g id="node19" class="node"><title>Node19</title>
<g id="a_node19"><a xlink:href="../../d9/d44/_scene_8cpp.html" target="_top" xlink:title=" ">
<polygon fill="white" stroke="black" points="266.5,-224.5 266.5,-243.5 346.5,-243.5 346.5,-224.5 266.5,-224.5"/>
<text text-anchor="middle" x="306.5" y="-231.5" font-family="Helvetica,sans-Serif" font-size="10.00">src/Scene.cpp</text>
</a>
</g>
</g>
<!-- Node16&#45;&gt;Node19 -->
<g id="edge24" class="edge"><title>Node16&#45;&gt;Node19</title>
<path fill="none" stroke="midnightblue" d="M401.493,-276.368C378.271,-266.255 346.337,-252.349 326.056,-243.516"/>
<polygon fill="midnightblue" stroke="midnightblue" points="400.286,-279.66 410.852,-280.444 403.081,-273.242 400.286,-279.66"/>
</g>
<!-- Node17&#45;&gt;Node4 -->
<g id="edge22" class="edge"><title>Node17&#45;&gt;Node4</title>
<path fill="none" stroke="midnightblue" d="M664.613,-222.269C616.364,-211.677 543.856,-195.761 501.544,-186.473"/>
<polygon fill="midnightblue" stroke="midnightblue" points="664.003,-225.718 674.521,-224.444 665.504,-218.881 664.003,-225.718"/>
</g>
<!-- Node18 -->
<g id="node18" class="node"><title>Node18</title>
<g id="a_node18"><a xlink:href="../../d7/d1d/_updating_system_8cpp.html" target="_top" xlink:title=" ">
<polygon fill="white" stroke="black" points="667.5,-168.5 667.5,-187.5 791.5,-187.5 791.5,-168.5 667.5,-168.5"/>
<text text-anchor="middle" x="729.5" y="-175.5" font-family="Helvetica,sans-Serif" font-size="10.00">src/UpdatingSystem.cpp</text>
</a>
</g>
</g>
<!-- Node17&#45;&gt;Node18 -->
<g id="edge23" class="edge"><title>Node17&#45;&gt;Node18</title>
<path fill="none" stroke="midnightblue" d="M719.012,-214.396C721.689,-205.362 724.778,-194.936 726.907,-187.751"/>
<polygon fill="midnightblue" stroke="midnightblue" points="715.627,-213.501 716.142,-224.083 722.339,-215.489 715.627,-213.501"/>
</g>
<!-- Node21 -->
<g id="node21" class="node"><title>Node21</title>
<g id="a_node21"><a xlink:href="../../d8/dc4/_sub_systems_8h.html" target="_top" xlink:title=" ">
<polygon fill="white" stroke="black" points="551.5,-336.5 551.5,-355.5 649.5,-355.5 649.5,-336.5 551.5,-336.5"/>
<text text-anchor="middle" x="600.5" y="-343.5" font-family="Helvetica,sans-Serif" font-size="10.00">src/SubSystems.h</text>
</a>
</g>
</g>
<!-- Node20&#45;&gt;Node21 -->
<g id="edge26" class="edge"><title>Node20&#45;&gt;Node21</title>
<path fill="none" stroke="midnightblue" d="M484.871,-388.906C512.884,-378.754 552.196,-364.506 577.001,-355.516"/>
<polygon fill="midnightblue" stroke="midnightblue" points="483.319,-385.746 475.109,-392.444 485.704,-392.327 483.319,-385.746"/>
</g>
<!-- Node23 -->
<g id="node23" class="node"><title>Node23</title>
<g id="a_node23"><a xlink:href="../../da/d2a/_enemy_controller_system_8cpp.html" target="_top" xlink:title=" ">
<polygon fill="white" stroke="black" points="375.5,-336.5 375.5,-355.5 533.5,-355.5 533.5,-336.5 375.5,-336.5"/>
<text text-anchor="middle" x="454.5" y="-343.5" font-family="Helvetica,sans-Serif" font-size="10.00">src/EnemyControllerSystem.cpp</text>
</a>
</g>
</g>
<!-- Node20&#45;&gt;Node23 -->
<g id="edge31" class="edge"><title>Node20&#45;&gt;Node23</title>
<path fill="none" stroke="midnightblue" d="M452.566,-381.805C453.061,-372.91 453.623,-362.78 454.014,-355.751"/>
<polygon fill="midnightblue" stroke="midnightblue" points="449.056,-381.904 451.995,-392.083 456.045,-382.293 449.056,-381.904"/>
</g>
<!-- Node22 -->
<g id="node22" class="node"><title>Node22</title>
<g id="a_node22"><a xlink:href="../../dc/d18/_system_base_8h.html" target="_top" xlink:title=" ">
<polygon fill="white" stroke="black" points="537.5,-280.5 537.5,-299.5 635.5,-299.5 635.5,-280.5 537.5,-280.5"/>
<text text-anchor="middle" x="586.5" y="-287.5" font-family="Helvetica,sans-Serif" font-size="10.00">src/SystemBase.h</text>
</a>
</g>
</g>
<!-- Node21&#45;&gt;Node22 -->
<g id="edge27" class="edge"><title>Node21&#45;&gt;Node22</title>
<path fill="none" stroke="midnightblue" d="M595.677,-326.396C593.335,-317.362 590.632,-306.936 588.769,-299.751"/>
<polygon fill="midnightblue" stroke="midnightblue" points="592.29,-327.281 598.188,-336.083 599.066,-325.525 592.29,-327.281"/>
</g>
<!-- Node22&#45;&gt;Node11 -->
<g id="edge28" class="edge"><title>Node22&#45;&gt;Node11</title>
<path fill="none" stroke="midnightblue" d="M552.611,-277.039C523.823,-266.879 483.213,-252.546 457.63,-243.516"/>
<polygon fill="midnightblue" stroke="midnightblue" points="551.662,-280.416 562.257,-280.444 553.992,-273.815 551.662,-280.416"/>
</g>
<!-- Node22&#45;&gt;Node13 -->
<g id="edge29" class="edge"><title>Node22&#45;&gt;Node13</title>
<path fill="none" stroke="midnightblue" d="M584.05,-270.101C582.888,-261.136 581.556,-250.858 580.634,-243.751"/>
<polygon fill="midnightblue" stroke="midnightblue" points="580.588,-270.616 585.344,-280.083 587.529,-269.716 580.588,-270.616"/>
</g>
<!-- Node22&#45;&gt;Node17 -->
<g id="edge30" class="edge"><title>Node22&#45;&gt;Node17</title>
<path fill="none" stroke="midnightblue" d="M615.891,-276.503C639.7,-266.38 672.606,-252.388 693.471,-243.516"/>
<polygon fill="midnightblue" stroke="midnightblue" points="614.457,-273.31 606.624,-280.444 617.196,-279.751 614.457,-273.31"/>
</g>
<!-- Node24&#45;&gt;Node21 -->
<g id="edge33" class="edge"><title>Node24&#45;&gt;Node21</title>
<path fill="none" stroke="midnightblue" d="M610.332,-382.396C607.823,-373.362 604.927,-362.936 602.931,-355.751"/>
<polygon fill="midnightblue" stroke="midnightblue" points="606.974,-383.385 613.023,-392.083 613.719,-381.511 606.974,-383.385"/>
</g>
<!-- Node25 -->
<g id="node25" class="node"><title>Node25</title>
<g id="a_node25"><a xlink:href="../../df/d12/_player_controller_system_8cpp.html" target="_top" xlink:title=" ">
<polygon fill="white" stroke="black" points="668,-336.5 668,-355.5 823,-355.5 823,-336.5 668,-336.5"/>
<text text-anchor="middle" x="745.5" y="-343.5" font-family="Helvetica,sans-Serif" font-size="10.00">src/PlayerControllerSystem.cpp</text>
</a>
</g>
</g>
<!-- Node24&#45;&gt;Node25 -->
<g id="edge34" class="edge"><title>Node24&#45;&gt;Node25</title>
<path fill="none" stroke="midnightblue" d="M645.585,-388.503C669.957,-378.38 703.64,-364.388 724.997,-355.516"/>
<polygon fill="midnightblue" stroke="midnightblue" points="643.991,-385.375 636.099,-392.444 646.677,-391.84 643.991,-385.375"/>
</g>
</g>
</svg>
