<?xml version="1.0" encoding="UTF-8" standalone="no"?>
<!DOCTYPE svg PUBLIC "-//W3C//DTD SVG 1.1//EN"
 "http://www.w3.org/Graphics/SVG/1.1/DTD/svg11.dtd">
<!-- Generated by graphviz version 2.38.0 (20140413.2041)
 -->
<!-- Title: _3DM::Model Pages: 1 -->
<svg width="202pt" height="209pt"
 viewBox="0.00 0.00 201.50 209.00" xmlns="http://www.w3.org/2000/svg" xmlns:xlink="http://www.w3.org/1999/xlink">
<g id="graph0" class="graph" transform="scale(1 1) rotate(0) translate(4 205)">
<title>_3DM::Model</title>
<polygon fill="white" stroke="none" points="-4,4 -4,-205 197.5,-205 197.5,4 -4,4"/>
<!-- Node1 -->
<g id="node1" class="node"><title>Node1</title>
<g id="a_node1"><a xlink:title=" ">
<polygon fill="#bfbfbf" stroke="black" points="97,-0.5 97,-19.5 171,-19.5 171,-0.5 97,-0.5"/>
<text text-anchor="middle" x="134" y="-7.5" font-family="Helvetica,sans-Serif" font-size="10.00">_3DM::Model</text>
</a>
</g>
</g>
<!-- Node2 -->
<g id="node2" class="node"><title>Node2</title>
<g id="a_node2"><a xlink:href="../../d2/d00/class_component.html" target="_top" xlink:title=" ">
<polygon fill="white" stroke="black" points="0,-57.5 0,-76.5 110,-76.5 110,-57.5 0,-57.5"/>
<text text-anchor="middle" x="55" y="-64.5" font-family="Helvetica,sans-Serif" font-size="10.00">Component&lt; Model &gt;</text>
</a>
</g>
</g>
<!-- Node2&#45;&gt;Node1 -->
<g id="edge1" class="edge"><title>Node2&#45;&gt;Node1</title>
<path fill="none" stroke="midnightblue" d="M75.7741,-51.537C90.4007,-41.3539 109.484,-28.0678 121.743,-19.5334"/>
<polygon fill="midnightblue" stroke="midnightblue" points="73.5509,-48.8201 67.3438,-57.4063 77.5505,-54.565 73.5509,-48.8201"/>
</g>
<!-- Node3 -->
<g id="node3" class="node"><title>Node3</title>
<g id="a_node3"><a xlink:href="../../d5/d79/class_component_interface.html" target="_top" xlink:title=" ">
<polygon fill="white" stroke="black" points="11.5,-181.5 11.5,-200.5 114.5,-200.5 114.5,-181.5 11.5,-181.5"/>
<text text-anchor="middle" x="63" y="-188.5" font-family="Helvetica,sans-Serif" font-size="10.00">ComponentInterface</text>
</a>
</g>
</g>
<!-- Node3&#45;&gt;Node2 -->
<g id="edge2" class="edge"><title>Node3&#45;&gt;Node2</title>
<path fill="none" stroke="midnightblue" d="M60.6478,-171.087C59.6924,-162.788 58.6602,-152.923 58,-144 56.207,-119.77 55.4417,-91.1087 55.153,-76.9036"/>
<polygon fill="midnightblue" stroke="midnightblue" points="57.1945,-171.686 61.8611,-181.198 64.1446,-170.852 57.1945,-171.686"/>
</g>
<!-- Node4 -->
<g id="node4" class="node"><title>Node4</title>
<g id="a_node4"><a xlink:href="../../d2/d00/class_component.html" target="_top" xlink:title=" ">
<polygon fill="white" stroke="black" points="67.5,-124.5 67.5,-143.5 156.5,-143.5 156.5,-124.5 67.5,-124.5"/>
<text text-anchor="middle" x="112" y="-131.5" font-family="Helvetica,sans-Serif" font-size="10.00">Component&lt; T &gt;</text>
</a>
</g>
</g>
<!-- Node3&#45;&gt;Node4 -->
<g id="edge4" class="edge"><title>Node3&#45;&gt;Node4</title>
<path fill="none" stroke="midnightblue" d="M77.4077,-173.828C86.182,-163.979 97.049,-151.782 104.236,-143.715"/>
<polygon fill="midnightblue" stroke="midnightblue" points="74.695,-171.611 70.6563,-181.406 79.9217,-176.268 74.695,-171.611"/>
</g>
<!-- Node4&#45;&gt;Node2 -->
<g id="edge3" class="edge"><title>Node4&#45;&gt;Node2</title>
<path fill="none" stroke="orange" stroke-dasharray="5,2" d="M97.649,-116.635C86.5015,-103.923 71.4842,-86.7978 62.5655,-76.6273"/>
<polygon fill="orange" stroke="orange" points="95.0879,-119.023 104.313,-124.234 100.351,-114.408 95.0879,-119.023"/>
<text text-anchor="middle" x="111" y="-98" font-family="Helvetica,sans-Serif" font-size="10.00"> &lt; Model &gt;</text>
</g>
<!-- Node5 -->
<g id="node5" class="node"><title>Node5</title>
<g id="a_node5"><a xlink:href="../../d1/d75/class_model_base.html" target="_top" xlink:title=" ">
<polygon fill="white" stroke="black" points="128.5,-57.5 128.5,-76.5 193.5,-76.5 193.5,-57.5 128.5,-57.5"/>
<text text-anchor="middle" x="161" y="-64.5" font-family="Helvetica,sans-Serif" font-size="10.00">ModelBase</text>
</a>
</g>
</g>
<!-- Node5&#45;&gt;Node1 -->
<g id="edge5" class="edge"><title>Node5&#45;&gt;Node1</title>
<path fill="none" stroke="midnightblue" d="M152.328,-48.334C147.633,-38.77 142.04,-27.3784 138.278,-19.7149"/>
<polygon fill="midnightblue" stroke="midnightblue" points="149.233,-49.9719 156.781,-57.4063 155.516,-46.8872 149.233,-49.9719"/>
</g>
</g>
</svg>
