<?xml version="1.0" encoding="UTF-8" standalone="no"?>
<!DOCTYPE svg PUBLIC "-//W3C//DTD SVG 1.1//EN"
 "http://www.w3.org/Graphics/SVG/1.1/DTD/svg11.dtd">
<!-- Generated by graphviz version 2.38.0 (20140413.2041)
 -->
<!-- Title: src/AnimatedMesh.h Pages: 1 -->
<svg width="407pt" height="196pt"
 viewBox="0.00 0.00 406.50 196.00" xmlns="http://www.w3.org/2000/svg" xmlns:xlink="http://www.w3.org/1999/xlink">
<g id="graph0" class="graph" transform="scale(1 1) rotate(0) translate(4 192)">
<title>src/AnimatedMesh.h</title>
<polygon fill="white" stroke="none" points="-4,4 -4,-192 402.5,-192 402.5,4 -4,4"/>
<!-- Node1 -->
<g id="node1" class="node"><title>Node1</title>
<g id="a_node1"><a xlink:title=" ">
<polygon fill="#bfbfbf" stroke="black" points="194,-168.5 194,-187.5 301,-187.5 301,-168.5 194,-168.5"/>
<text text-anchor="middle" x="247.5" y="-175.5" font-family="Helvetica,sans-Serif" font-size="10.00">src/AnimatedMesh.h</text>
</a>
</g>
</g>
<!-- Node2 -->
<g id="node2" class="node"><title>Node2</title>
<g id="a_node2"><a xlink:href="../../d2/da1/_mesh_8h.html" target="_top" xlink:title=" ">
<polygon fill="white" stroke="black" points="127,-112.5 127,-131.5 176,-131.5 176,-112.5 127,-112.5"/>
<text text-anchor="middle" x="151.5" y="-119.5" font-family="Helvetica,sans-Serif" font-size="10.00">Mesh.h</text>
</a>
</g>
</g>
<!-- Node1&#45;&gt;Node2 -->
<g id="edge1" class="edge"><title>Node1&#45;&gt;Node2</title>
<path fill="none" stroke="midnightblue" d="M232.076,-168.324C216.96,-159.822 193.685,-146.729 176.029,-136.797"/>
<polygon fill="midnightblue" stroke="midnightblue" points="177.317,-133.507 166.886,-131.655 173.886,-139.608 177.317,-133.507"/>
</g>
<!-- Node6 -->
<g id="node6" class="node"><title>Node6</title>
<g id="a_node6"><a xlink:title=" ">
<polygon fill="white" stroke="#bfbfbf" points="205.5,-56.5 205.5,-75.5 247.5,-75.5 247.5,-56.5 205.5,-56.5"/>
<text text-anchor="middle" x="226.5" y="-63.5" font-family="Helvetica,sans-Serif" font-size="10.00">vector</text>
</a>
</g>
</g>
<!-- Node1&#45;&gt;Node6 -->
<g id="edge8" class="edge"><title>Node1&#45;&gt;Node6</title>
<path fill="none" stroke="midnightblue" d="M245.452,-168.401C243.332,-159.364 239.989,-144.724 237.5,-132 234.475,-116.536 231.523,-98.9062 229.439,-85.912"/>
<polygon fill="midnightblue" stroke="midnightblue" points="232.869,-85.1893 227.852,-75.8573 225.954,-86.2808 232.869,-85.1893"/>
</g>
<!-- Node7 -->
<g id="node7" class="node"><title>Node7</title>
<g id="a_node7"><a xlink:title=" ">
<polygon fill="white" stroke="#bfbfbf" points="246.5,-112.5 246.5,-131.5 306.5,-131.5 306.5,-112.5 246.5,-112.5"/>
<text text-anchor="middle" x="276.5" y="-119.5" font-family="Helvetica,sans-Serif" font-size="10.00">GL/glew.h</text>
</a>
</g>
</g>
<!-- Node1&#45;&gt;Node7 -->
<g id="edge6" class="edge"><title>Node1&#45;&gt;Node7</title>
<path fill="none" stroke="midnightblue" d="M252.289,-168.083C256.258,-160.691 262.025,-149.953 266.935,-140.811"/>
<polygon fill="midnightblue" stroke="midnightblue" points="270.153,-142.217 271.8,-131.751 263.986,-138.905 270.153,-142.217"/>
</g>
<!-- Node8 -->
<g id="node8" class="node"><title>Node8</title>
<g id="a_node8"><a xlink:title=" ">
<polygon fill="white" stroke="#bfbfbf" points="324.5,-112.5 324.5,-131.5 398.5,-131.5 398.5,-112.5 324.5,-112.5"/>
<text text-anchor="middle" x="361.5" y="-119.5" font-family="Helvetica,sans-Serif" font-size="10.00">glm/vec4.hpp</text>
</a>
</g>
</g>
<!-- Node1&#45;&gt;Node8 -->
<g id="edge7" class="edge"><title>Node1&#45;&gt;Node8</title>
<path fill="none" stroke="midnightblue" d="M265.564,-168.444C284.075,-159.675 313.081,-145.935 334.355,-135.858"/>
<polygon fill="midnightblue" stroke="midnightblue" points="335.982,-138.96 343.521,-131.516 332.985,-132.634 335.982,-138.96"/>
</g>
<!-- Node3 -->
<g id="node3" class="node"><title>Node3</title>
<g id="a_node3"><a xlink:href="../../d8/d21/_model_texture_8h.html" target="_top" xlink:title=" ">
<polygon fill="white" stroke="black" points="0,-56.5 0,-75.5 83,-75.5 83,-56.5 0,-56.5"/>
<text text-anchor="middle" x="41.5" y="-63.5" font-family="Helvetica,sans-Serif" font-size="10.00">ModelTexture.h</text>
</a>
</g>
</g>
<!-- Node2&#45;&gt;Node3 -->
<g id="edge2" class="edge"><title>Node2&#45;&gt;Node3</title>
<path fill="none" stroke="midnightblue" d="M133.827,-112.324C116.106,-103.625 88.5968,-90.1202 68.2116,-80.113"/>
<polygon fill="midnightblue" stroke="midnightblue" points="69.6486,-76.9195 59.1295,-75.6545 66.5639,-83.2031 69.6486,-76.9195"/>
</g>
<!-- Node5 -->
<g id="node5" class="node"><title>Node5</title>
<g id="a_node5"><a xlink:title=" ">
<polygon fill="white" stroke="#bfbfbf" points="101.5,-56.5 101.5,-75.5 187.5,-75.5 187.5,-56.5 101.5,-56.5"/>
<text text-anchor="middle" x="144.5" y="-63.5" font-family="Helvetica,sans-Serif" font-size="10.00">glm/mat4x4.hpp</text>
</a>
</g>
</g>
<!-- Node2&#45;&gt;Node5 -->
<g id="edge4" class="edge"><title>Node2&#45;&gt;Node5</title>
<path fill="none" stroke="midnightblue" d="M150.344,-112.083C149.416,-104.927 148.082,-94.6353 146.923,-85.6911"/>
<polygon fill="midnightblue" stroke="midnightblue" points="150.391,-85.2181 145.634,-75.7511 143.449,-86.1181 150.391,-85.2181"/>
</g>
<!-- Node2&#45;&gt;Node6 -->
<g id="edge5" class="edge"><title>Node2&#45;&gt;Node6</title>
<path fill="none" stroke="midnightblue" d="M163.55,-112.324C174.963,-104.107 192.331,-91.6017 205.935,-81.8069"/>
<polygon fill="midnightblue" stroke="midnightblue" points="208.16,-84.5174 214.231,-75.8339 204.07,-78.8366 208.16,-84.5174"/>
</g>
<!-- Node4 -->
<g id="node4" class="node"><title>Node4</title>
<g id="a_node4"><a xlink:title=" ">
<polygon fill="white" stroke="#bfbfbf" points="21,-0.5 21,-19.5 62,-19.5 62,-0.5 21,-0.5"/>
<text text-anchor="middle" x="41.5" y="-7.5" font-family="Helvetica,sans-Serif" font-size="10.00">string</text>
</a>
</g>
</g>
<!-- Node3&#45;&gt;Node4 -->
<g id="edge3" class="edge"><title>Node3&#45;&gt;Node4</title>
<path fill="none" stroke="midnightblue" d="M41.5,-56.083C41.5,-49.0059 41.5,-38.8611 41.5,-29.9865"/>
<polygon fill="midnightblue" stroke="midnightblue" points="45.0001,-29.751 41.5,-19.7511 38.0001,-29.7511 45.0001,-29.751"/>
</g>
</g>
</svg>
