<?xml version="1.0" encoding="UTF-8" standalone="no"?>
<!DOCTYPE svg PUBLIC "-//W3C//DTD SVG 1.1//EN"
 "http://www.w3.org/Graphics/SVG/1.1/DTD/svg11.dtd">
<!-- Generated by graphviz version 2.38.0 (20140413.2041)
 -->
<!-- Title: Shader Pages: 1 -->
<svg width="167pt" height="209pt"
 viewBox="0.00 0.00 167.00 209.00" xmlns="http://www.w3.org/2000/svg" xmlns:xlink="http://www.w3.org/1999/xlink">
<g id="graph0" class="graph" transform="scale(1 1) rotate(0) translate(4 205)">
<title>Shader</title>
<polygon fill="white" stroke="none" points="-4,4 -4,-205 163,-205 163,4 -4,4"/>
<!-- Node1 -->
<g id="node1" class="node"><title>Node1</title>
<g id="a_node1"><a xlink:title=" ">
<polygon fill="#bfbfbf" stroke="black" points="34,-0.5 34,-19.5 81,-19.5 81,-0.5 34,-0.5"/>
<text text-anchor="middle" x="57.5" y="-7.5" font-family="Helvetica,sans-Serif" font-size="10.00">Shader</text>
</a>
</g>
</g>
<!-- Node2 -->
<g id="node2" class="node"><title>Node2</title>
<g id="a_node2"><a xlink:href="../../d2/d00/class_component.html" target="_top" xlink:title=" ">
<polygon fill="white" stroke="black" points="0,-57.5 0,-76.5 115,-76.5 115,-57.5 0,-57.5"/>
<text text-anchor="middle" x="57.5" y="-64.5" font-family="Helvetica,sans-Serif" font-size="10.00">Component&lt; Shader &gt;</text>
</a>
</g>
</g>
<!-- Node2&#45;&gt;Node1 -->
<g id="edge1" class="edge"><title>Node2&#45;&gt;Node1</title>
<path fill="none" stroke="midnightblue" d="M57.5,-47.1166C57.5,-37.8173 57.5,-27.0557 57.5,-19.7149"/>
<polygon fill="midnightblue" stroke="midnightblue" points="54.0001,-47.4062 57.5,-57.4063 61.0001,-47.4063 54.0001,-47.4062"/>
</g>
<!-- Node3 -->
<g id="node3" class="node"><title>Node3</title>
<g id="a_node3"><a xlink:href="../../d5/d79/class_component_interface.html" target="_top" xlink:title=" ">
<polygon fill="white" stroke="black" points="14,-181.5 14,-200.5 117,-200.5 117,-181.5 14,-181.5"/>
<text text-anchor="middle" x="65.5" y="-188.5" font-family="Helvetica,sans-Serif" font-size="10.00">ComponentInterface</text>
</a>
</g>
</g>
<!-- Node3&#45;&gt;Node2 -->
<g id="edge2" class="edge"><title>Node3&#45;&gt;Node2</title>
<path fill="none" stroke="midnightblue" d="M63.1478,-171.087C62.1924,-162.788 61.1602,-152.923 60.5,-144 58.707,-119.77 57.9417,-91.1087 57.653,-76.9036"/>
<polygon fill="midnightblue" stroke="midnightblue" points="59.6945,-171.686 64.3611,-181.198 66.6446,-170.852 59.6945,-171.686"/>
</g>
<!-- Node4 -->
<g id="node4" class="node"><title>Node4</title>
<g id="a_node4"><a xlink:href="../../d2/d00/class_component.html" target="_top" xlink:title=" ">
<polygon fill="white" stroke="black" points="70,-124.5 70,-143.5 159,-143.5 159,-124.5 70,-124.5"/>
<text text-anchor="middle" x="114.5" y="-131.5" font-family="Helvetica,sans-Serif" font-size="10.00">Component&lt; T &gt;</text>
</a>
</g>
</g>
<!-- Node3&#45;&gt;Node4 -->
<g id="edge4" class="edge"><title>Node3&#45;&gt;Node4</title>
<path fill="none" stroke="midnightblue" d="M79.9077,-173.828C88.682,-163.979 99.549,-151.782 106.736,-143.715"/>
<polygon fill="midnightblue" stroke="midnightblue" points="77.195,-171.611 73.1563,-181.406 82.4217,-176.268 77.195,-171.611"/>
</g>
<!-- Node4&#45;&gt;Node2 -->
<g id="edge3" class="edge"><title>Node4&#45;&gt;Node2</title>
<path fill="none" stroke="orange" stroke-dasharray="5,2" d="M100.149,-116.635C89.0015,-103.923 73.9842,-86.7978 65.0655,-76.6273"/>
<polygon fill="orange" stroke="orange" points="97.5879,-119.023 106.813,-124.234 102.851,-114.408 97.5879,-119.023"/>
<text text-anchor="middle" x="115.5" y="-98" font-family="Helvetica,sans-Serif" font-size="10.00"> &lt; Shader &gt;</text>
</g>
</g>
</svg>
