<?xml version="1.0" encoding="UTF-8" standalone="no"?>
<!DOCTYPE svg PUBLIC "-//W3C//DTD SVG 1.1//EN"
 "http://www.w3.org/Graphics/SVG/1.1/DTD/svg11.dtd">
<!-- Generated by graphviz version 2.38.0 (20140413.2041)
 -->
<!-- Title: SoundLocator Pages: 1 -->
<svg width="284pt" height="174pt"
 viewBox="0.00 0.00 283.50 174.00" xmlns="http://www.w3.org/2000/svg" xmlns:xlink="http://www.w3.org/1999/xlink">
<g id="graph0" class="graph" transform="scale(1 1) rotate(0) translate(4 170)">
<title>SoundLocator</title>
<polygon fill="white" stroke="none" points="-4,4 -4,-170 279.5,-170 279.5,4 -4,4"/>
<!-- Node1 -->
<g id="node1" class="node"><title>Node1</title>
<g id="a_node1"><a xlink:title=" ">
<polygon fill="#bfbfbf" stroke="black" points="49,-0.5 49,-19.5 126,-19.5 126,-0.5 49,-0.5"/>
<text text-anchor="middle" x="87.5" y="-7.5" font-family="Helvetica,sans-Serif" font-size="10.00">SoundLocator</text>
</a>
</g>
</g>
<!-- Node2 -->
<g id="node2" class="node"><title>Node2</title>
<g id="a_node2"><a xlink:href="../../d2/d23/class_locator.html" target="_top" xlink:title=" ">
<polygon fill="white" stroke="black" points="26.5,-57.5 26.5,-87.5 148.5,-87.5 148.5,-57.5 26.5,-57.5"/>
<text text-anchor="start" x="34.5" y="-75.5" font-family="Helvetica,sans-Serif" font-size="10.00">Locator&lt; SoundHandler,</text>
<text text-anchor="middle" x="87.5" y="-64.5" font-family="Helvetica,sans-Serif" font-size="10.00"> SoundHandler &gt;</text>
</a>
</g>
</g>
<!-- Node2&#45;&gt;Node1 -->
<g id="edge1" class="edge"><title>Node2&#45;&gt;Node1</title>
<path fill="none" stroke="midnightblue" d="M87.5,-47.3524C87.5,-37.5132 87.5,-26.7753 87.5,-19.5399"/>
<polygon fill="midnightblue" stroke="midnightblue" points="84.0001,-47.468 87.5,-57.468 91.0001,-47.4681 84.0001,-47.468"/>
</g>
<!-- Node3 -->
<g id="node3" class="node"><title>Node3</title>
<g id="a_node3"><a xlink:href="../../d1/d8c/class_sound_handler.html" target="_top" xlink:title=" ">
<polygon fill="white" stroke="black" points="0,-146.5 0,-165.5 77,-165.5 77,-146.5 0,-146.5"/>
<text text-anchor="middle" x="38.5" y="-153.5" font-family="Helvetica,sans-Serif" font-size="10.00">SoundHandler</text>
</a>
</g>
</g>
<!-- Node3&#45;&gt;Node2 -->
<g id="edge2" class="edge"><title>Node3&#45;&gt;Node2</title>
<path fill="none" stroke="#9a32cd" stroke-dasharray="5,2" d="M49.0082,-137.522C57.9732,-122.611 70.698,-101.446 79.0243,-87.5974"/>
<polygon fill="#9a32cd" stroke="#9a32cd" points="45.897,-135.904 43.7439,-146.278 51.8962,-139.511 45.897,-135.904"/>
<text text-anchor="middle" x="91" y="-120" font-family="Helvetica,sans-Serif" font-size="10.00"> service</text>
<text text-anchor="middle" x="91" y="-109" font-family="Helvetica,sans-Serif" font-size="10.00">nullService</text>
</g>
<!-- Node4 -->
<g id="node4" class="node"><title>Node4</title>
<g id="a_node4"><a xlink:href="../../d2/d23/class_locator.html" target="_top" xlink:title=" ">
<polygon fill="white" stroke="black" points="95,-146.5 95,-165.5 180,-165.5 180,-146.5 95,-146.5"/>
<text text-anchor="middle" x="137.5" y="-153.5" font-family="Helvetica,sans-Serif" font-size="10.00">Locator&lt; T, U &gt;</text>
</a>
</g>
</g>
<!-- Node4&#45;&gt;Node2 -->
<g id="edge3" class="edge"><title>Node4&#45;&gt;Node2</title>
<path fill="none" stroke="orange" stroke-dasharray="5,2" d="M130.752,-136.683C126.894,-127.189 121.609,-115.604 115.5,-106 111.423,-99.5905 106.149,-93.1291 101.28,-87.6747"/>
<polygon fill="orange" stroke="orange" points="127.598,-138.231 134.469,-146.296 134.127,-135.707 127.598,-138.231"/>
<text text-anchor="middle" x="201" y="-114.5" font-family="Helvetica,sans-Serif" font-size="10.00"> &lt; SoundHandler, SoundHandler &gt;</text>
</g>
</g>
</svg>
