<?xml version="1.0" encoding="UTF-8" standalone="no"?>
<!DOCTYPE svg PUBLIC "-//W3C//DTD SVG 1.1//EN"
 "http://www.w3.org/Graphics/SVG/1.1/DTD/svg11.dtd">
<!-- Generated by graphviz version 2.38.0 (20140413.2041)
 -->
<!-- Title: PlayerController Pages: 1 -->
<svg width="338pt" height="219pt"
 viewBox="0.00 0.00 337.50 219.00" xmlns="http://www.w3.org/2000/svg" xmlns:xlink="http://www.w3.org/1999/xlink">
<g id="graph0" class="graph" transform="scale(1 1) rotate(0) translate(4 215)">
<title>PlayerController</title>
<polygon fill="white" stroke="none" points="-4,4 -4,-215 333.5,-215 333.5,4 -4,4"/>
<!-- Node1 -->
<g id="node1" class="node"><title>Node1</title>
<g id="a_node1"><a xlink:title=" ">
<polygon fill="#bfbfbf" stroke="black" points="163.5,-0.5 163.5,-19.5 249.5,-19.5 249.5,-0.5 163.5,-0.5"/>
<text text-anchor="middle" x="206.5" y="-7.5" font-family="Helvetica,sans-Serif" font-size="10.00">PlayerController</text>
</a>
</g>
</g>
<!-- Node2 -->
<g id="node2" class="node"><title>Node2</title>
<g id="a_node2"><a xlink:href="../../d2/d00/class_component.html" target="_top" xlink:title=" ">
<polygon fill="white" stroke="black" points="0,-67.5 0,-86.5 153,-86.5 153,-67.5 0,-67.5"/>
<text text-anchor="middle" x="76.5" y="-74.5" font-family="Helvetica,sans-Serif" font-size="10.00">Component&lt; PlayerController &gt;</text>
</a>
</g>
</g>
<!-- Node2&#45;&gt;Node1 -->
<g id="edge1" class="edge"><title>Node2&#45;&gt;Node1</title>
<path fill="none" stroke="midnightblue" d="M102.952,-62.7739C128.7,-49.8999 167.083,-30.7086 189.166,-19.6672"/>
<polygon fill="midnightblue" stroke="midnightblue" points="101.142,-59.7658 93.763,-67.3685 104.273,-66.0268 101.142,-59.7658"/>
</g>
<!-- Node3 -->
<g id="node3" class="node"><title>Node3</title>
<g id="a_node3"><a xlink:href="../../d5/d79/class_component_interface.html" target="_top" xlink:title=" ">
<polygon fill="white" stroke="black" points="33,-191.5 33,-210.5 136,-210.5 136,-191.5 33,-191.5"/>
<text text-anchor="middle" x="84.5" y="-198.5" font-family="Helvetica,sans-Serif" font-size="10.00">ComponentInterface</text>
</a>
</g>
</g>
<!-- Node3&#45;&gt;Node2 -->
<g id="edge2" class="edge"><title>Node3&#45;&gt;Node2</title>
<path fill="none" stroke="midnightblue" d="M82.1478,-181.087C81.1924,-172.788 80.1602,-162.923 79.5,-154 77.707,-129.77 76.9417,-101.109 76.653,-86.9036"/>
<polygon fill="midnightblue" stroke="midnightblue" points="78.6945,-181.686 83.3611,-191.198 85.6446,-180.852 78.6945,-181.686"/>
</g>
<!-- Node4 -->
<g id="node4" class="node"><title>Node4</title>
<g id="a_node4"><a xlink:href="../../d2/d00/class_component.html" target="_top" xlink:title=" ">
<polygon fill="white" stroke="black" points="89,-134.5 89,-153.5 178,-153.5 178,-134.5 89,-134.5"/>
<text text-anchor="middle" x="133.5" y="-141.5" font-family="Helvetica,sans-Serif" font-size="10.00">Component&lt; T &gt;</text>
</a>
</g>
</g>
<!-- Node3&#45;&gt;Node4 -->
<g id="edge4" class="edge"><title>Node3&#45;&gt;Node4</title>
<path fill="none" stroke="midnightblue" d="M98.9077,-183.828C107.682,-173.979 118.549,-161.782 125.736,-153.715"/>
<polygon fill="midnightblue" stroke="midnightblue" points="96.195,-181.611 92.1563,-191.406 101.422,-186.268 96.195,-181.611"/>
</g>
<!-- Node4&#45;&gt;Node2 -->
<g id="edge3" class="edge"><title>Node4&#45;&gt;Node2</title>
<path fill="none" stroke="orange" stroke-dasharray="5,2" d="M119.149,-126.635C108.002,-113.923 92.9842,-96.7978 84.0655,-86.6273"/>
<polygon fill="orange" stroke="orange" points="116.588,-129.023 125.813,-134.234 121.851,-124.408 116.588,-129.023"/>
<text text-anchor="middle" x="154" y="-108" font-family="Helvetica,sans-Serif" font-size="10.00"> &lt; PlayerController &gt;</text>
</g>
<!-- Node5 -->
<g id="node5" class="node"><title>Node5</title>
<g id="a_node5"><a xlink:href="../../d0/de4/struct_p_l_r___c_t_r_l_r___n_s_1_1_slope_intensity.html" target="_top" xlink:title=" ">
<polygon fill="white" stroke="black" points="171.5,-67.5 171.5,-86.5 329.5,-86.5 329.5,-67.5 171.5,-67.5"/>
<text text-anchor="middle" x="250.5" y="-74.5" font-family="Helvetica,sans-Serif" font-size="10.00">PLR_CTRLR_NS::SlopeIntensity</text>
</a>
</g>
</g>
<!-- Node5&#45;&gt;Node1 -->
<g id="edge5" class="edge"><title>Node5&#45;&gt;Node1</title>
<path fill="none" stroke="#9a32cd" stroke-dasharray="5,2" d="M238.927,-58.9037C230.377,-46.2729 219.094,-29.6041 212.34,-19.6273"/>
<polygon fill="#9a32cd" stroke="#9a32cd" points="236.062,-60.9147 244.566,-67.2338 241.859,-56.9907 236.062,-60.9147"/>
<text text-anchor="middle" x="247.5" y="-41" font-family="Helvetica,sans-Serif" font-size="10.00"> slopes</text>
</g>
</g>
</svg>
