<?xml version="1.0" encoding="UTF-8" standalone="no"?>
<!DOCTYPE svg PUBLIC "-//W3C//DTD SVG 1.1//EN"
 "http://www.w3.org/Graphics/SVG/1.1/DTD/svg11.dtd">
<!-- Generated by graphviz version 2.38.0 (20140413.2041)
 -->
<!-- Title: Quad::render3D Pages: 1 -->
<svg width="1394pt" height="104pt"
 viewBox="0.00 0.00 1394.00 104.00" xmlns="http://www.w3.org/2000/svg" xmlns:xlink="http://www.w3.org/1999/xlink">
<g id="graph0" class="graph" transform="scale(1 1) rotate(0) translate(4 100)">
<title>Quad::render3D</title>
<polygon fill="white" stroke="none" points="-4,4 -4,-100 1390,-100 1390,4 -4,4"/>
<!-- Node1 -->
<g id="node1" class="node"><title>Node1</title>
<g id="a_node1"><a xlink:title=" ">
<polygon fill="#bfbfbf" stroke="black" points="1301,-38.5 1301,-57.5 1386,-57.5 1386,-38.5 1301,-38.5"/>
<text text-anchor="middle" x="1343.5" y="-45.5" font-family="Helvetica,sans-Serif" font-size="10.00">Quad::render3D</text>
</a>
</g>
</g>
<!-- Node2 -->
<g id="node2" class="node"><title>Node2</title>
<g id="a_node2"><a xlink:href="../../dd/d84/class_gui_text_character.html#a807cfea698c6d8741d95e251230a5427" target="_top" xlink:title=" ">
<polygon fill="white" stroke="black" points="1140,-76.5 1140,-95.5 1265,-95.5 1265,-76.5 1140,-76.5"/>
<text text-anchor="middle" x="1202.5" y="-83.5" font-family="Helvetica,sans-Serif" font-size="10.00">GuiTextCharacter::render</text>
</a>
</g>
</g>
<!-- Node1&#45;&gt;Node2 -->
<g id="edge1" class="edge"><title>Node1&#45;&gt;Node2</title>
<path fill="none" stroke="midnightblue" d="M1297.7,-60.2462C1278.55,-65.484 1256.51,-71.5091 1238.56,-76.4141"/>
<polygon fill="midnightblue" stroke="midnightblue" points="1298.7,-63.6022 1307.42,-57.589 1296.86,-56.85 1298.7,-63.6022"/>
</g>
<!-- Node3 -->
<g id="node3" class="node"><title>Node3</title>
<g id="a_node3"><a xlink:href="../../d8/d31/class_rendering_system.html#ae6a25f6b28ebe40f08916d9eadc95ac2" target="_top" xlink:title=" ">
<polygon fill="white" stroke="black" points="440,-19.5 440,-38.5 567,-38.5 567,-19.5 440,-19.5"/>
<text text-anchor="middle" x="503.5" y="-26.5" font-family="Helvetica,sans-Serif" font-size="10.00">RenderingSystem::render</text>
</a>
</g>
</g>
<!-- Node1&#45;&gt;Node3 -->
<g id="edge2" class="edge"><title>Node1&#45;&gt;Node3</title>
<path fill="none" stroke="midnightblue" d="M1290.47,-48C1229.76,-48 1126.35,-48 1037.5,-48 1037.5,-48 1037.5,-48 854,-48 753.583,-48 637.176,-40.0831 567.264,-34.4701"/>
<polygon fill="midnightblue" stroke="midnightblue" points="1290.56,-51.5001 1300.56,-48 1290.56,-44.5001 1290.56,-51.5001"/>
</g>
<!-- Node8 -->
<g id="node8" class="node"><title>Node8</title>
<g id="a_node8"><a xlink:href="../../d1/db9/class_gui_sprite.html#ad8d743c3e3889fba893f29796717114f" target="_top" xlink:title=" ">
<polygon fill="white" stroke="black" points="1157.5,-0.5 1157.5,-19.5 1247.5,-19.5 1247.5,-0.5 1157.5,-0.5"/>
<text text-anchor="middle" x="1202.5" y="-7.5" font-family="Helvetica,sans-Serif" font-size="10.00">GuiSprite::render</text>
</a>
</g>
</g>
<!-- Node1&#45;&gt;Node8 -->
<g id="edge7" class="edge"><title>Node1&#45;&gt;Node8</title>
<path fill="none" stroke="midnightblue" d="M1297.7,-35.7538C1278.55,-30.516 1256.51,-24.4909 1238.56,-19.5859"/>
<polygon fill="midnightblue" stroke="midnightblue" points="1296.86,-39.15 1307.42,-38.411 1298.7,-32.3978 1296.86,-39.15"/>
</g>
<!-- Node4 -->
<g id="node4" class="node"><title>Node4</title>
<g id="a_node4"><a xlink:href="../../dd/d1f/class_game.html#a15ddd769261d923827a3cdf41499c843" target="_top" xlink:title=" ">
<polygon fill="white" stroke="black" points="328,-19.5 328,-38.5 404,-38.5 404,-19.5 328,-19.5"/>
<text text-anchor="middle" x="366" y="-26.5" font-family="Helvetica,sans-Serif" font-size="10.00">Game::render</text>
</a>
</g>
</g>
<!-- Node3&#45;&gt;Node4 -->
<g id="edge3" class="edge"><title>Node3&#45;&gt;Node4</title>
<path fill="none" stroke="midnightblue" d="M429.877,-29C421.008,-29 412.25,-29 404.216,-29"/>
<polygon fill="midnightblue" stroke="midnightblue" points="429.906,-32.5001 439.906,-29 429.906,-25.5001 429.906,-32.5001"/>
</g>
<!-- Node5 -->
<g id="node5" class="node"><title>Node5</title>
<g id="a_node5"><a xlink:href="../../de/d6b/class_application.html#a9ac99d97ee1cc814298a2f2388bde835" target="_top" xlink:title=" ">
<polygon fill="white" stroke="black" points="194,-19.5 194,-38.5 292,-38.5 292,-19.5 194,-19.5"/>
<text text-anchor="middle" x="243" y="-26.5" font-family="Helvetica,sans-Serif" font-size="10.00">Application::render</text>
</a>
</g>
</g>
<!-- Node4&#45;&gt;Node5 -->
<g id="edge4" class="edge"><title>Node4&#45;&gt;Node5</title>
<path fill="none" stroke="midnightblue" d="M317.684,-29C309.282,-29 300.524,-29 292.101,-29"/>
<polygon fill="midnightblue" stroke="midnightblue" points="317.709,-32.5001 327.709,-29 317.709,-25.5001 317.709,-32.5001"/>
</g>
<!-- Node6 -->
<g id="node6" class="node"><title>Node6</title>
<g id="a_node6"><a xlink:href="../../de/d6b/class_application.html#a68965449404743bf1add056784d6cf81" target="_top" xlink:title=" ">
<polygon fill="white" stroke="black" points="74,-19.5 74,-38.5 158,-38.5 158,-19.5 74,-19.5"/>
<text text-anchor="middle" x="116" y="-26.5" font-family="Helvetica,sans-Serif" font-size="10.00">Application::run</text>
</a>
</g>
</g>
<!-- Node5&#45;&gt;Node6 -->
<g id="edge5" class="edge"><title>Node5&#45;&gt;Node6</title>
<path fill="none" stroke="midnightblue" d="M183.411,-29C174.926,-29 166.343,-29 158.294,-29"/>
<polygon fill="midnightblue" stroke="midnightblue" points="183.672,-32.5001 193.672,-29 183.672,-25.5001 183.672,-32.5001"/>
</g>
<!-- Node7 -->
<g id="node7" class="node"><title>Node7</title>
<g id="a_node7"><a xlink:href="../../d5/d12/_main_8cpp.html#a0ddf1224851353fc92bfbff6f499fa97" target="_top" xlink:title=" ">
<polygon fill="white" stroke="black" points="0,-19.5 0,-38.5 38,-38.5 38,-19.5 0,-19.5"/>
<text text-anchor="middle" x="19" y="-26.5" font-family="Helvetica,sans-Serif" font-size="10.00">main</text>
</a>
</g>
</g>
<!-- Node6&#45;&gt;Node7 -->
<g id="edge6" class="edge"><title>Node6&#45;&gt;Node7</title>
<path fill="none" stroke="midnightblue" d="M63.6206,-29C54.5384,-29 45.6466,-29 38.2853,-29"/>
<polygon fill="midnightblue" stroke="midnightblue" points="63.8842,-32.5001 73.8841,-29 63.8841,-25.5001 63.8842,-32.5001"/>
</g>
<!-- Node9 -->
<g id="node9" class="node"><title>Node9</title>
<g id="a_node9"><a xlink:href="../../d7/dd6/class_pause_menu_system.html#a275e625e495889f598a67bdffb2ffd4f" target="_top" xlink:title=" ">
<polygon fill="white" stroke="black" points="969,-0.5 969,-19.5 1104,-19.5 1104,-0.5 969,-0.5"/>
<text text-anchor="middle" x="1036.5" y="-7.5" font-family="Helvetica,sans-Serif" font-size="10.00">PauseMenuSystem::render</text>
</a>
</g>
</g>
<!-- Node8&#45;&gt;Node9 -->
<g id="edge8" class="edge"><title>Node8&#45;&gt;Node9</title>
<path fill="none" stroke="midnightblue" d="M1146.89,-10C1133.19,-10 1118.33,-10 1104.11,-10"/>
<polygon fill="midnightblue" stroke="midnightblue" points="1147.12,-13.5001 1157.12,-10 1147.12,-6.5001 1147.12,-13.5001"/>
</g>
<!-- Node10 -->
<g id="node10" class="node"><title>Node10</title>
<g id="a_node10"><a xlink:href="../../d8/d31/class_rendering_system.html#ad5115644b3d0a1df6446a610c683a31e" target="_top" xlink:title=" ">
<polygon fill="white" stroke="black" points="777,-0.5 777,-19.5 933,-19.5 933,-0.5 777,-0.5"/>
<text text-anchor="middle" x="855" y="-7.5" font-family="Helvetica,sans-Serif" font-size="10.00">RenderingSystem::renderOthers</text>
</a>
</g>
</g>
<!-- Node9&#45;&gt;Node10 -->
<g id="edge9" class="edge"><title>Node9&#45;&gt;Node10</title>
<path fill="none" stroke="midnightblue" d="M958.673,-10C950.195,-10 941.559,-10 933.078,-10"/>
<polygon fill="midnightblue" stroke="midnightblue" points="958.916,-13.5001 968.916,-10 958.916,-6.5001 958.916,-13.5001"/>
</g>
<!-- Node11 -->
<g id="node11" class="node"><title>Node11</title>
<g id="a_node11"><a xlink:href="../../d8/d31/class_rendering_system.html#a9f1ec48fdfa79ddc55421b6014fdb9c6" target="_top" xlink:title=" ">
<polygon fill="white" stroke="black" points="603,-0.5 603,-19.5 741,-19.5 741,-0.5 603,-0.5"/>
<text text-anchor="middle" x="672" y="-7.5" font-family="Helvetica,sans-Serif" font-size="10.00">RenderingSystem::renderAll</text>
</a>
</g>
</g>
<!-- Node10&#45;&gt;Node11 -->
<g id="edge10" class="edge"><title>Node10&#45;&gt;Node11</title>
<path fill="none" stroke="midnightblue" d="M766.854,-10C758.198,-10 749.5,-10 741.08,-10"/>
<polygon fill="midnightblue" stroke="midnightblue" points="766.977,-13.5001 776.977,-10 766.977,-6.5001 766.977,-13.5001"/>
</g>
<!-- Node11&#45;&gt;Node3 -->
<g id="edge11" class="edge"><title>Node11&#45;&gt;Node3</title>
<path fill="none" stroke="midnightblue" d="M592.795,-18.9243C584.227,-19.902 575.588,-20.8879 567.242,-21.8403"/>
<polygon fill="midnightblue" stroke="midnightblue" points="593.259,-22.3942 602.798,-17.7828 592.465,-15.4393 593.259,-22.3942"/>
</g>
</g>
</svg>
