<?xml version="1.0" encoding="UTF-8" standalone="no"?>
<!DOCTYPE svg PUBLIC "-//W3C//DTD SVG 1.1//EN"
 "http://www.w3.org/Graphics/SVG/1.1/DTD/svg11.dtd">
<!-- Generated by graphviz version 2.38.0 (20140413.2041)
 -->
<!-- Title: Quad::render3D Pages: 1 -->
<svg width="452pt" height="349pt"
 viewBox="0.00 0.00 452.00 348.50" xmlns="http://www.w3.org/2000/svg" xmlns:xlink="http://www.w3.org/1999/xlink">
<g id="graph0" class="graph" transform="scale(1 1) rotate(0) translate(4 344.5)">
<title>Quad::render3D</title>
<polygon fill="white" stroke="none" points="-4,4 -4,-344.5 448,-344.5 448,4 -4,4"/>
<!-- Node1 -->
<g id="node1" class="node"><title>Node1</title>
<g id="a_node1"><a xlink:title=" ">
<polygon fill="#bfbfbf" stroke="black" points="0,-169 0,-188 85,-188 85,-169 0,-169"/>
<text text-anchor="middle" x="42.5" y="-176" font-family="Helvetica,sans-Serif" font-size="10.00">Quad::render3D</text>
</a>
</g>
</g>
<!-- Node2 -->
<g id="node2" class="node"><title>Node2</title>
<g id="a_node2"><a xlink:href="../../d7/da2/namespace_shaders.html#a137768343963ec1e71572a39e29892e6" target="_top" xlink:title=" ">
<polygon fill="white" stroke="black" points="305.5,-245 305.5,-264 437.5,-264 437.5,-245 305.5,-245"/>
<text text-anchor="middle" x="371.5" y="-252" font-family="Helvetica,sans-Serif" font-size="10.00">Shaders::getAttribLocation</text>
</a>
</g>
</g>
<!-- Node1&#45;&gt;Node2 -->
<g id="edge1" class="edge"><title>Node1&#45;&gt;Node2</title>
<path fill="none" stroke="midnightblue" d="M85.2696,-177.217C130.119,-176.959 203.018,-179.8 263,-197.5 294.415,-206.77 327.212,-225.721 348.191,-239.225"/>
<polygon fill="midnightblue" stroke="midnightblue" points="346.408,-242.242 356.686,-244.814 350.255,-236.394 346.408,-242.242"/>
</g>
<!-- Node3 -->
<g id="node3" class="node"><title>Node3</title>
<g id="a_node3"><a xlink:href="../../d2/d7f/class_texture.html#a0eaebfd0e00f88d19a64ed05ea634539" target="_top" xlink:title=" ">
<polygon fill="white" stroke="black" points="144,-283 144,-302 240,-302 240,-283 144,-283"/>
<text text-anchor="middle" x="192" y="-290" font-family="Helvetica,sans-Serif" font-size="10.00">Texture::getHeight</text>
</a>
</g>
</g>
<!-- Node1&#45;&gt;Node3 -->
<g id="edge2" class="edge"><title>Node1&#45;&gt;Node3</title>
<path fill="none" stroke="midnightblue" d="M48.6739,-188.262C59.4423,-207.61 86.186,-250.901 121,-273.5 125.076,-276.146 129.515,-278.426 134.113,-280.391"/>
<polygon fill="midnightblue" stroke="midnightblue" points="133.12,-283.756 143.712,-283.995 135.581,-277.203 133.12,-283.756"/>
</g>
<!-- Node4 -->
<g id="node4" class="node"><title>Node4</title>
<g id="a_node4"><a xlink:href="../../d1/d51/class_shader.html#a240b7ecb19883fa340489840733eae6d" target="_top" xlink:title=" ">
<polygon fill="white" stroke="black" points="135.5,-245 135.5,-264 248.5,-264 248.5,-245 135.5,-245"/>
<text text-anchor="middle" x="192" y="-252" font-family="Helvetica,sans-Serif" font-size="10.00">Shader::getProgramID</text>
</a>
</g>
</g>
<!-- Node1&#45;&gt;Node4 -->
<g id="edge3" class="edge"><title>Node1&#45;&gt;Node4</title>
<path fill="none" stroke="midnightblue" d="M54.2043,-188.411C68.4294,-201.076 94.8264,-222.87 121,-235.5 125.891,-237.86 131.12,-239.964 136.436,-241.832"/>
<polygon fill="midnightblue" stroke="midnightblue" points="135.449,-245.191 146.041,-244.942 137.605,-238.531 135.449,-245.191"/>
</g>
<!-- Node5 -->
<g id="node5" class="node"><title>Node5</title>
<g id="a_node5"><a xlink:href="../../d2/d7f/class_texture.html#a922a73acbaee522dd96d971b630da0fa" target="_top" xlink:title=" ">
<polygon fill="white" stroke="black" points="131.5,-207 131.5,-226 252.5,-226 252.5,-207 131.5,-207"/>
<text text-anchor="middle" x="192" y="-214" font-family="Helvetica,sans-Serif" font-size="10.00">Texture::getTextureData</text>
</a>
</g>
</g>
<!-- Node1&#45;&gt;Node5 -->
<g id="edge4" class="edge"><title>Node1&#45;&gt;Node5</title>
<path fill="none" stroke="midnightblue" d="M80.7205,-188.089C100.009,-193.058 123.758,-199.177 144.271,-204.461"/>
<polygon fill="midnightblue" stroke="midnightblue" points="143.49,-207.874 154.047,-206.98 145.237,-201.096 143.49,-207.874"/>
</g>
<!-- Node6 -->
<g id="node6" class="node"><title>Node6</title>
<g id="a_node6"><a xlink:href="../../d7/da2/namespace_shaders.html#aaa649eb98b860170946f582b8e93c12d" target="_top" xlink:title=" ">
<polygon fill="white" stroke="black" points="121,-93 121,-112 263,-112 263,-93 121,-93"/>
<text text-anchor="middle" x="192" y="-100" font-family="Helvetica,sans-Serif" font-size="10.00">Shaders::getUniformLocation</text>
</a>
</g>
</g>
<!-- Node1&#45;&gt;Node6 -->
<g id="edge5" class="edge"><title>Node1&#45;&gt;Node6</title>
<path fill="none" stroke="midnightblue" d="M54.2043,-168.589C68.4294,-155.924 94.8264,-134.13 121,-121.5 125.891,-119.14 131.12,-117.036 136.436,-115.168"/>
<polygon fill="midnightblue" stroke="midnightblue" points="137.605,-118.469 146.041,-112.058 135.449,-111.809 137.605,-118.469"/>
</g>
<!-- Node8 -->
<g id="node8" class="node"><title>Node8</title>
<g id="a_node8"><a xlink:href="../../d2/d7f/class_texture.html#a4d8e86e7df22179e8f3af9392020608c" target="_top" xlink:title=" ">
<polygon fill="white" stroke="black" points="145,-131 145,-150 239,-150 239,-131 145,-131"/>
<text text-anchor="middle" x="192" y="-138" font-family="Helvetica,sans-Serif" font-size="10.00">Texture::getWidth</text>
</a>
</g>
</g>
<!-- Node1&#45;&gt;Node8 -->
<g id="edge7" class="edge"><title>Node1&#45;&gt;Node8</title>
<path fill="none" stroke="midnightblue" d="M80.7205,-168.911C100.009,-163.942 123.758,-157.823 144.271,-152.539"/>
<polygon fill="midnightblue" stroke="midnightblue" points="145.237,-155.904 154.047,-150.02 143.49,-149.126 145.237,-155.904"/>
</g>
<!-- Node9 -->
<g id="node9" class="node"><title>Node9</title>
<g id="a_node9"><a xlink:href="../../d4/d58/namespace_game_info.html#a344c7e16ac06ee1f8458a249aac36e8e" target="_top" xlink:title=" ">
<polygon fill="white" stroke="black" points="122,-55 122,-74 262,-74 262,-55 122,-55"/>
<text text-anchor="middle" x="192" y="-62" font-family="Helvetica,sans-Serif" font-size="10.00">GameInfo::getWindowHeight</text>
</a>
</g>
</g>
<!-- Node1&#45;&gt;Node9 -->
<g id="edge8" class="edge"><title>Node1&#45;&gt;Node9</title>
<path fill="none" stroke="midnightblue" d="M48.6739,-168.738C59.4423,-149.39 86.186,-106.099 121,-83.5 124.292,-81.3627 127.821,-79.4642 131.479,-77.7781"/>
<polygon fill="midnightblue" stroke="midnightblue" points="132.826,-81.0088 140.779,-74.009 130.197,-74.5213 132.826,-81.0088"/>
</g>
<!-- Node11 -->
<g id="node11" class="node"><title>Node11</title>
<g id="a_node11"><a xlink:href="../../d4/d58/namespace_game_info.html#a7cf2306eb3025a60a9e2da52eefba71e" target="_top" xlink:title=" ">
<polygon fill="white" stroke="black" points="123.5,-12 123.5,-31 260.5,-31 260.5,-12 123.5,-12"/>
<text text-anchor="middle" x="192" y="-19" font-family="Helvetica,sans-Serif" font-size="10.00">GameInfo::getWindowWidth</text>
</a>
</g>
</g>
<!-- Node1&#45;&gt;Node11 -->
<g id="edge10" class="edge"><title>Node1&#45;&gt;Node11</title>
<path fill="none" stroke="midnightblue" d="M46.4577,-168.903C54.4228,-144.626 78.6339,-80.2349 121,-45.5 126.02,-41.384 131.786,-37.9578 137.807,-35.1095"/>
<polygon fill="midnightblue" stroke="midnightblue" points="139.534,-38.181 147.409,-31.0931 136.833,-31.7232 139.534,-38.181"/>
</g>
<!-- Node13 -->
<g id="node13" class="node"><title>Node13</title>
<g id="a_node13"><a xlink:href="../../d3/df8/class_quad.html#ab6f9562308559b344d2e0d1e1cf3a0cf" target="_top" xlink:title=" ">
<polygon fill="white" stroke="black" points="162.5,-321 162.5,-340 221.5,-340 221.5,-321 162.5,-321"/>
<text text-anchor="middle" x="192" y="-328" font-family="Helvetica,sans-Serif" font-size="10.00">Quad::init</text>
</a>
</g>
</g>
<!-- Node1&#45;&gt;Node13 -->
<g id="edge12" class="edge"><title>Node1&#45;&gt;Node13</title>
<path fill="none" stroke="midnightblue" d="M46.3254,-188.263C53.9804,-212.932 77.5234,-278.166 121,-311.5 130.028,-318.422 141.402,-322.825 152.342,-325.624"/>
<polygon fill="midnightblue" stroke="midnightblue" points="151.671,-329.06 162.187,-327.771 153.162,-322.221 151.671,-329.06"/>
</g>
<!-- Node7 -->
<g id="node7" class="node"><title>Node7</title>
<g id="a_node7"><a xlink:href="../../d7/da2/namespace_shaders.html#a25a80e81a8051ed31ecab4ed167b0be8" target="_top" xlink:title=" ">
<polygon fill="white" stroke="black" points="306,-99 306,-118 437,-118 437,-99 306,-99"/>
<text text-anchor="middle" x="371.5" y="-106" font-family="Helvetica,sans-Serif" font-size="10.00">Shaders::getUniformName</text>
</a>
</g>
</g>
<!-- Node6&#45;&gt;Node7 -->
<g id="edge6" class="edge"><title>Node6&#45;&gt;Node7</title>
<path fill="none" stroke="midnightblue" d="M263.153,-104.871C273.801,-105.231 284.823,-105.604 295.567,-105.967"/>
<polygon fill="midnightblue" stroke="midnightblue" points="295.651,-109.472 305.763,-106.312 295.887,-102.476 295.651,-109.472"/>
</g>
<!-- Node10 -->
<g id="node10" class="node"><title>Node10</title>
<g id="a_node10"><a xlink:href="../../de/d6b/class_application.html#a0398d40c89d52bb8d6ac6ac466c5d30c" target="_top" xlink:title=" ">
<polygon fill="white" stroke="black" points="299,-49.5 299,-79.5 444,-79.5 444,-49.5 299,-49.5"/>
<text text-anchor="start" x="307" y="-67.5" font-family="Helvetica,sans-Serif" font-size="10.00">Application::getGameWindow</text>
<text text-anchor="middle" x="371.5" y="-56.5" font-family="Helvetica,sans-Serif" font-size="10.00">Height</text>
</a>
</g>
</g>
<!-- Node9&#45;&gt;Node10 -->
<g id="edge9" class="edge"><title>Node9&#45;&gt;Node10</title>
<path fill="none" stroke="midnightblue" d="M262.134,-64.5C270.904,-64.5 279.943,-64.5 288.885,-64.5"/>
<polygon fill="midnightblue" stroke="midnightblue" points="288.919,-68.0001 298.919,-64.5 288.919,-61.0001 288.919,-68.0001"/>
</g>
<!-- Node12 -->
<g id="node12" class="node"><title>Node12</title>
<g id="a_node12"><a xlink:href="../../de/d6b/class_application.html#aad8864ec1fa58ee23db7b111876d09a5" target="_top" xlink:title=" ">
<polygon fill="white" stroke="black" points="299,-0.5 299,-30.5 444,-30.5 444,-0.5 299,-0.5"/>
<text text-anchor="start" x="307" y="-18.5" font-family="Helvetica,sans-Serif" font-size="10.00">Application::getGameWindow</text>
<text text-anchor="middle" x="371.5" y="-7.5" font-family="Helvetica,sans-Serif" font-size="10.00">Width</text>
</a>
</g>
</g>
<!-- Node11&#45;&gt;Node12 -->
<g id="edge11" class="edge"><title>Node11&#45;&gt;Node12</title>
<path fill="none" stroke="midnightblue" d="M260.611,-19.2145C269.821,-18.9032 279.353,-18.581 288.778,-18.2624"/>
<polygon fill="midnightblue" stroke="midnightblue" points="289.067,-21.7547 298.943,-17.9188 288.831,-14.7587 289.067,-21.7547"/>
</g>
<!-- Node13&#45;&gt;Node2 -->
<g id="edge13" class="edge"><title>Node13&#45;&gt;Node2</title>
<path fill="none" stroke="midnightblue" d="M221.736,-324.232C234.576,-321.044 249.766,-316.729 263,-311.5 292.778,-299.734 324.979,-281.919 346.295,-269.343"/>
<polygon fill="midnightblue" stroke="midnightblue" points="348.211,-272.275 354.999,-264.141 344.62,-266.266 348.211,-272.275"/>
</g>
</g>
</svg>
