<?xml version="1.0" encoding="UTF-8" standalone="no"?>
<!DOCTYPE svg PUBLIC "-//W3C//DTD SVG 1.1//EN"
 "http://www.w3.org/Graphics/SVG/1.1/DTD/svg11.dtd">
<!-- Generated by graphviz version 2.38.0 (20140413.2041)
 -->
<!-- Title: Quad::init Pages: 1 -->
<svg width="1489pt" height="142pt"
 viewBox="0.00 0.00 1489.00 142.00" xmlns="http://www.w3.org/2000/svg" xmlns:xlink="http://www.w3.org/1999/xlink">
<g id="graph0" class="graph" transform="scale(1 1) rotate(0) translate(4 138)">
<title>Quad::init</title>
<polygon fill="white" stroke="none" points="-4,4 -4,-138 1485,-138 1485,4 -4,4"/>
<!-- Node1 -->
<g id="node1" class="node"><title>Node1</title>
<g id="a_node1"><a xlink:title=" ">
<polygon fill="#bfbfbf" stroke="black" points="1422,-95.5 1422,-114.5 1481,-114.5 1481,-95.5 1422,-95.5"/>
<text text-anchor="middle" x="1451.5" y="-102.5" font-family="Helvetica,sans-Serif" font-size="10.00">Quad::init</text>
</a>
</g>
</g>
<!-- Node2 -->
<g id="node2" class="node"><title>Node2</title>
<g id="a_node2"><a xlink:href="../../d3/df8/class_quad.html#ad5b31c8bb8ec0ed48b878a35b78df0e9" target="_top" xlink:title=" ">
<polygon fill="white" stroke="black" points="994,-114.5 994,-133.5 1079,-133.5 1079,-114.5 994,-114.5"/>
<text text-anchor="middle" x="1036.5" y="-121.5" font-family="Helvetica,sans-Serif" font-size="10.00">Quad::render2D</text>
</a>
</g>
</g>
<!-- Node1&#45;&gt;Node2 -->
<g id="edge1" class="edge"><title>Node1&#45;&gt;Node2</title>
<path fill="none" stroke="midnightblue" d="M1411.44,-106.797C1333.47,-110.384 1159.15,-118.404 1079.12,-122.085"/>
<polygon fill="midnightblue" stroke="midnightblue" points="1411.96,-110.277 1421.79,-106.321 1411.64,-103.284 1411.96,-110.277"/>
</g>
<!-- Node8 -->
<g id="node8" class="node"><title>Node8</title>
<g id="a_node8"><a xlink:href="../../d3/df8/class_quad.html#a424c01ecd59971dc51e39bc19fbda551" target="_top" xlink:title=" ">
<polygon fill="white" stroke="black" points="1301,-57.5 1301,-76.5 1386,-76.5 1386,-57.5 1301,-57.5"/>
<text text-anchor="middle" x="1343.5" y="-64.5" font-family="Helvetica,sans-Serif" font-size="10.00">Quad::render3D</text>
</a>
</g>
</g>
<!-- Node1&#45;&gt;Node8 -->
<g id="edge7" class="edge"><title>Node1&#45;&gt;Node8</title>
<path fill="none" stroke="midnightblue" d="M1414.32,-92.0282C1400.19,-86.9656 1384.29,-81.2659 1371.24,-76.5859"/>
<polygon fill="midnightblue" stroke="midnightblue" points="1413.16,-95.331 1423.75,-95.411 1415.52,-88.7416 1413.16,-95.331"/>
</g>
<!-- Node3 -->
<g id="node3" class="node"><title>Node3</title>
<g id="a_node3"><a xlink:href="../../d8/d31/class_rendering_system.html#ae6a25f6b28ebe40f08916d9eadc95ac2" target="_top" xlink:title=" ">
<polygon fill="white" stroke="black" points="440,-76.5 440,-95.5 567,-95.5 567,-76.5 440,-76.5"/>
<text text-anchor="middle" x="503.5" y="-83.5" font-family="Helvetica,sans-Serif" font-size="10.00">RenderingSystem::render</text>
</a>
</g>
</g>
<!-- Node2&#45;&gt;Node3 -->
<g id="edge2" class="edge"><title>Node2&#45;&gt;Node3</title>
<path fill="none" stroke="midnightblue" d="M983.504,-122.555C902.173,-119.97 739.98,-113.51 603,-100 590.882,-98.8048 577.968,-97.2061 565.615,-95.5168"/>
<polygon fill="midnightblue" stroke="midnightblue" points="983.856,-126.067 993.96,-122.88 984.074,-119.071 983.856,-126.067"/>
</g>
<!-- Node4 -->
<g id="node4" class="node"><title>Node4</title>
<g id="a_node4"><a xlink:href="../../dd/d1f/class_game.html#a15ddd769261d923827a3cdf41499c843" target="_top" xlink:title=" ">
<polygon fill="white" stroke="black" points="328,-76.5 328,-95.5 404,-95.5 404,-76.5 328,-76.5"/>
<text text-anchor="middle" x="366" y="-83.5" font-family="Helvetica,sans-Serif" font-size="10.00">Game::render</text>
</a>
</g>
</g>
<!-- Node3&#45;&gt;Node4 -->
<g id="edge3" class="edge"><title>Node3&#45;&gt;Node4</title>
<path fill="none" stroke="midnightblue" d="M429.877,-86C421.008,-86 412.25,-86 404.216,-86"/>
<polygon fill="midnightblue" stroke="midnightblue" points="429.906,-89.5001 439.906,-86 429.906,-82.5001 429.906,-89.5001"/>
</g>
<!-- Node5 -->
<g id="node5" class="node"><title>Node5</title>
<g id="a_node5"><a xlink:href="../../de/d6b/class_application.html#a9ac99d97ee1cc814298a2f2388bde835" target="_top" xlink:title=" ">
<polygon fill="white" stroke="black" points="194,-76.5 194,-95.5 292,-95.5 292,-76.5 194,-76.5"/>
<text text-anchor="middle" x="243" y="-83.5" font-family="Helvetica,sans-Serif" font-size="10.00">Application::render</text>
</a>
</g>
</g>
<!-- Node4&#45;&gt;Node5 -->
<g id="edge4" class="edge"><title>Node4&#45;&gt;Node5</title>
<path fill="none" stroke="midnightblue" d="M317.684,-86C309.282,-86 300.524,-86 292.101,-86"/>
<polygon fill="midnightblue" stroke="midnightblue" points="317.709,-89.5001 327.709,-86 317.709,-82.5001 317.709,-89.5001"/>
</g>
<!-- Node6 -->
<g id="node6" class="node"><title>Node6</title>
<g id="a_node6"><a xlink:href="../../de/d6b/class_application.html#a68965449404743bf1add056784d6cf81" target="_top" xlink:title=" ">
<polygon fill="white" stroke="black" points="74,-76.5 74,-95.5 158,-95.5 158,-76.5 74,-76.5"/>
<text text-anchor="middle" x="116" y="-83.5" font-family="Helvetica,sans-Serif" font-size="10.00">Application::run</text>
</a>
</g>
</g>
<!-- Node5&#45;&gt;Node6 -->
<g id="edge5" class="edge"><title>Node5&#45;&gt;Node6</title>
<path fill="none" stroke="midnightblue" d="M183.411,-86C174.926,-86 166.343,-86 158.294,-86"/>
<polygon fill="midnightblue" stroke="midnightblue" points="183.672,-89.5001 193.672,-86 183.672,-82.5001 183.672,-89.5001"/>
</g>
<!-- Node7 -->
<g id="node7" class="node"><title>Node7</title>
<g id="a_node7"><a xlink:href="../../d5/d12/_main_8cpp.html#a0ddf1224851353fc92bfbff6f499fa97" target="_top" xlink:title=" ">
<polygon fill="white" stroke="black" points="0,-76.5 0,-95.5 38,-95.5 38,-76.5 0,-76.5"/>
<text text-anchor="middle" x="19" y="-83.5" font-family="Helvetica,sans-Serif" font-size="10.00">main</text>
</a>
</g>
</g>
<!-- Node6&#45;&gt;Node7 -->
<g id="edge6" class="edge"><title>Node6&#45;&gt;Node7</title>
<path fill="none" stroke="midnightblue" d="M63.6206,-86C54.5384,-86 45.6466,-86 38.2853,-86"/>
<polygon fill="midnightblue" stroke="midnightblue" points="63.8842,-89.5001 73.8841,-86 63.8841,-82.5001 63.8842,-89.5001"/>
</g>
<!-- Node8&#45;&gt;Node3 -->
<g id="edge9" class="edge"><title>Node8&#45;&gt;Node3</title>
<path fill="none" stroke="midnightblue" d="M1290.53,-72.2126C1229.87,-77.8375 1126.52,-86 1037.5,-86 1037.5,-86 1037.5,-86 854,-86 753.579,-86 636.929,-86 567.003,-86"/>
<polygon fill="midnightblue" stroke="midnightblue" points="1290.99,-75.685 1300.62,-71.264 1290.33,-68.7158 1290.99,-75.685"/>
</g>
<!-- Node9 -->
<g id="node9" class="node"><title>Node9</title>
<g id="a_node9"><a xlink:href="../../dd/d84/class_gui_text_character.html#a807cfea698c6d8741d95e251230a5427" target="_top" xlink:title=" ">
<polygon fill="white" stroke="black" points="1140,-38.5 1140,-57.5 1265,-57.5 1265,-38.5 1140,-38.5"/>
<text text-anchor="middle" x="1202.5" y="-45.5" font-family="Helvetica,sans-Serif" font-size="10.00">GuiTextCharacter::render</text>
</a>
</g>
</g>
<!-- Node8&#45;&gt;Node9 -->
<g id="edge8" class="edge"><title>Node8&#45;&gt;Node9</title>
<path fill="none" stroke="midnightblue" d="M1290.83,-59.9377C1282.49,-58.7969 1273.77,-57.6058 1265.22,-56.4365"/>
<polygon fill="midnightblue" stroke="midnightblue" points="1290.41,-63.4127 1300.8,-61.2994 1291.36,-56.4772 1290.41,-63.4127"/>
</g>
<!-- Node10 -->
<g id="node10" class="node"><title>Node10</title>
<g id="a_node10"><a xlink:href="../../d1/db9/class_gui_sprite.html#ad8d743c3e3889fba893f29796717114f" target="_top" xlink:title=" ">
<polygon fill="white" stroke="black" points="1157.5,-0.5 1157.5,-19.5 1247.5,-19.5 1247.5,-0.5 1157.5,-0.5"/>
<text text-anchor="middle" x="1202.5" y="-7.5" font-family="Helvetica,sans-Serif" font-size="10.00">GuiSprite::render</text>
</a>
</g>
</g>
<!-- Node8&#45;&gt;Node10 -->
<g id="edge10" class="edge"><title>Node8&#45;&gt;Node10</title>
<path fill="none" stroke="midnightblue" d="M1315.95,-52.7023C1301.2,-45.0846 1282.37,-35.8916 1265,-29 1256.27,-25.5377 1246.65,-22.3019 1237.66,-19.5167"/>
<polygon fill="midnightblue" stroke="midnightblue" points="1314.52,-55.9022 1325,-57.4407 1317.77,-49.701 1314.52,-55.9022"/>
</g>
<!-- Node11 -->
<g id="node11" class="node"><title>Node11</title>
<g id="a_node11"><a xlink:href="../../d7/dd6/class_pause_menu_system.html#a275e625e495889f598a67bdffb2ffd4f" target="_top" xlink:title=" ">
<polygon fill="white" stroke="black" points="969,-5.5 969,-24.5 1104,-24.5 1104,-5.5 969,-5.5"/>
<text text-anchor="middle" x="1036.5" y="-12.5" font-family="Helvetica,sans-Serif" font-size="10.00">PauseMenuSystem::render</text>
</a>
</g>
</g>
<!-- Node10&#45;&gt;Node11 -->
<g id="edge11" class="edge"><title>Node10&#45;&gt;Node11</title>
<path fill="none" stroke="midnightblue" d="M1146.89,-11.6649C1133.19,-12.0828 1118.33,-12.5358 1104.11,-12.9693"/>
<polygon fill="midnightblue" stroke="midnightblue" points="1147.23,-15.1563 1157.12,-11.3531 1147.02,-8.15953 1147.23,-15.1563"/>
</g>
<!-- Node12 -->
<g id="node12" class="node"><title>Node12</title>
<g id="a_node12"><a xlink:href="../../d8/d31/class_rendering_system.html#ad5115644b3d0a1df6446a610c683a31e" target="_top" xlink:title=" ">
<polygon fill="white" stroke="black" points="777,-14.5 777,-33.5 933,-33.5 933,-14.5 777,-14.5"/>
<text text-anchor="middle" x="855" y="-21.5" font-family="Helvetica,sans-Serif" font-size="10.00">RenderingSystem::renderOthers</text>
</a>
</g>
</g>
<!-- Node11&#45;&gt;Node12 -->
<g id="edge12" class="edge"><title>Node11&#45;&gt;Node12</title>
<path fill="none" stroke="midnightblue" d="M958.673,-18.852C950.195,-19.2771 941.559,-19.7101 933.078,-20.1354"/>
<polygon fill="midnightblue" stroke="midnightblue" points="959.104,-22.3349 968.916,-18.3385 958.753,-15.3437 959.104,-22.3349"/>
</g>
<!-- Node13 -->
<g id="node13" class="node"><title>Node13</title>
<g id="a_node13"><a xlink:href="../../d8/d31/class_rendering_system.html#a9f1ec48fdfa79ddc55421b6014fdb9c6" target="_top" xlink:title=" ">
<polygon fill="white" stroke="black" points="603,-19.5 603,-38.5 741,-38.5 741,-19.5 603,-19.5"/>
<text text-anchor="middle" x="672" y="-26.5" font-family="Helvetica,sans-Serif" font-size="10.00">RenderingSystem::renderAll</text>
</a>
</g>
</g>
<!-- Node12&#45;&gt;Node13 -->
<g id="edge13" class="edge"><title>Node12&#45;&gt;Node13</title>
<path fill="none" stroke="midnightblue" d="M766.854,-26.4074C758.198,-26.6465 749.5,-26.8867 741.08,-27.1193"/>
<polygon fill="midnightblue" stroke="midnightblue" points="767.078,-29.9026 776.977,-26.1277 766.884,-22.9053 767.078,-29.9026"/>
</g>
<!-- Node13&#45;&gt;Node3 -->
<g id="edge14" class="edge"><title>Node13&#45;&gt;Node3</title>
<path fill="none" stroke="midnightblue" d="M633.634,-41.7919C602.969,-52.2898 560.226,-66.9228 532.459,-76.4284"/>
<polygon fill="midnightblue" stroke="midnightblue" points="634.804,-45.0908 643.132,-38.5405 632.537,-38.4681 634.804,-45.0908"/>
</g>
</g>
</svg>
