<?xml version="1.0" encoding="UTF-8" standalone="no"?>
<!DOCTYPE svg PUBLIC "-//W3C//DTD SVG 1.1//EN"
 "http://www.w3.org/Graphics/SVG/1.1/DTD/svg11.dtd">
<!-- Generated by graphviz version 2.38.0 (20140413.2041)
 -->
<!-- Title: src/TextMap.h Pages: 1 -->
<svg width="807pt" height="196pt"
 viewBox="0.00 0.00 806.50 196.00" xmlns="http://www.w3.org/2000/svg" xmlns:xlink="http://www.w3.org/1999/xlink">
<g id="graph0" class="graph" transform="scale(1 1) rotate(0) translate(4 192)">
<title>src/TextMap.h</title>
<polygon fill="white" stroke="none" points="-4,4 -4,-192 802.5,-192 802.5,4 -4,4"/>
<!-- Node1 -->
<g id="node1" class="node"><title>Node1</title>
<g id="a_node1"><a xlink:title=" ">
<polygon fill="#bfbfbf" stroke="black" points="236,-168.5 236,-187.5 315,-187.5 315,-168.5 236,-168.5"/>
<text text-anchor="middle" x="275.5" y="-175.5" font-family="Helvetica,sans-Serif" font-size="10.00">src/TextMap.h</text>
</a>
</g>
</g>
<!-- Node2 -->
<g id="node2" class="node"><title>Node2</title>
<g id="a_node2"><a xlink:href="../../d3/d67/_glyph_8h.html" target="_top" xlink:title=" ">
<polygon fill="white" stroke="black" points="11.5,-112.5 11.5,-131.5 61.5,-131.5 61.5,-112.5 11.5,-112.5"/>
<text text-anchor="middle" x="36.5" y="-119.5" font-family="Helvetica,sans-Serif" font-size="10.00">Glyph.h</text>
</a>
</g>
</g>
<!-- Node1&#45;&gt;Node2 -->
<g id="edge1" class="edge"><title>Node1&#45;&gt;Node2</title>
<path fill="none" stroke="midnightblue" d="M237.63,-168.444C192.056,-158.147 116.14,-140.994 71.7625,-130.967"/>
<polygon fill="midnightblue" stroke="midnightblue" points="72.2548,-127.49 61.7293,-128.7 70.712,-134.318 72.2548,-127.49"/>
</g>
<!-- Node4 -->
<g id="node4" class="node"><title>Node4</title>
<g id="a_node4"><a xlink:href="../../d7/dcf/_serialization_8h.html" target="_top" xlink:title=" ">
<polygon fill="white" stroke="black" points="91.5,-112.5 91.5,-131.5 169.5,-131.5 169.5,-112.5 91.5,-112.5"/>
<text text-anchor="middle" x="130.5" y="-119.5" font-family="Helvetica,sans-Serif" font-size="10.00">Serialization.h</text>
</a>
</g>
</g>
<!-- Node1&#45;&gt;Node4 -->
<g id="edge3" class="edge"><title>Node1&#45;&gt;Node4</title>
<path fill="none" stroke="midnightblue" d="M252.524,-168.444C228.343,-159.438 190.082,-145.189 162.854,-135.049"/>
<polygon fill="midnightblue" stroke="midnightblue" points="163.961,-131.727 153.368,-131.516 161.518,-138.286 163.961,-131.727"/>
</g>
<!-- Node7 -->
<g id="node7" class="node"><title>Node7</title>
<g id="a_node7"><a xlink:href="../../de/dbf/_texture_8h.html" target="_top" xlink:title=" ">
<polygon fill="white" stroke="black" points="393,-112.5 393,-131.5 450,-131.5 450,-112.5 393,-112.5"/>
<text text-anchor="middle" x="421.5" y="-119.5" font-family="Helvetica,sans-Serif" font-size="10.00">Texture.h</text>
</a>
</g>
</g>
<!-- Node1&#45;&gt;Node7 -->
<g id="edge6" class="edge"><title>Node1&#45;&gt;Node7</title>
<path fill="none" stroke="midnightblue" d="M298.634,-168.444C322.982,-159.438 361.507,-145.189 388.923,-135.049"/>
<polygon fill="midnightblue" stroke="midnightblue" points="390.309,-138.268 398.474,-131.516 387.881,-131.703 390.309,-138.268"/>
</g>
<!-- Node18 -->
<g id="node18" class="node"><title>Node18</title>
<g id="a_node18"><a xlink:title=" ">
<polygon fill="white" stroke="#bfbfbf" points="756.5,-0.5 756.5,-19.5 798.5,-19.5 798.5,-0.5 756.5,-0.5"/>
<text text-anchor="middle" x="777.5" y="-7.5" font-family="Helvetica,sans-Serif" font-size="10.00">vector</text>
</a>
</g>
</g>
<!-- Node1&#45;&gt;Node18 -->
<g id="edge20" class="edge"><title>Node1&#45;&gt;Node18</title>
<path fill="none" stroke="midnightblue" d="M315.138,-173.298C416.837,-163.078 683.709,-131.497 750.5,-76 764.43,-64.4251 771.281,-44.4644 774.58,-29.7083"/>
<polygon fill="midnightblue" stroke="midnightblue" points="778.06,-30.1385 776.469,-19.6639 771.181,-28.8447 778.06,-30.1385"/>
</g>
<!-- Node3 -->
<g id="node3" class="node"><title>Node3</title>
<g id="a_node3"><a xlink:title=" ">
<polygon fill="white" stroke="#bfbfbf" points="0,-56.5 0,-75.5 49,-75.5 49,-56.5 0,-56.5"/>
<text text-anchor="middle" x="24.5" y="-63.5" font-family="Helvetica,sans-Serif" font-size="10.00">stdint.h</text>
</a>
</g>
</g>
<!-- Node2&#45;&gt;Node3 -->
<g id="edge2" class="edge"><title>Node2&#45;&gt;Node3</title>
<path fill="none" stroke="midnightblue" d="M34.5184,-112.083C32.9283,-104.927 30.6412,-94.6353 28.6536,-85.6911"/>
<polygon fill="midnightblue" stroke="midnightblue" points="32.0307,-84.7537 26.4447,-75.7511 25.1974,-86.2722 32.0307,-84.7537"/>
</g>
<!-- Node5 -->
<g id="node5" class="node"><title>Node5</title>
<g id="a_node5"><a xlink:title=" ">
<polygon fill="white" stroke="#bfbfbf" points="155.5,-0.5 155.5,-19.5 211.5,-19.5 211.5,-0.5 155.5,-0.5"/>
<text text-anchor="middle" x="183.5" y="-7.5" font-family="Helvetica,sans-Serif" font-size="10.00">algorithm</text>
</a>
</g>
</g>
<!-- Node4&#45;&gt;Node5 -->
<g id="edge4" class="edge"><title>Node4&#45;&gt;Node5</title>
<path fill="none" stroke="midnightblue" d="M120.138,-112.393C106.233,-99.7618 84.5822,-75.582 96.5,-56 107.291,-38.2689 127.571,-27.2159 145.837,-20.5038"/>
<polygon fill="midnightblue" stroke="midnightblue" points="147.054,-23.7874 155.424,-17.2918 144.83,-17.15 147.054,-23.7874"/>
</g>
<!-- Node6 -->
<g id="node6" class="node"><title>Node6</title>
<g id="a_node6"><a xlink:title=" ">
<polygon fill="white" stroke="#bfbfbf" points="106,-56.5 106,-75.5 155,-75.5 155,-56.5 106,-56.5"/>
<text text-anchor="middle" x="130.5" y="-63.5" font-family="Helvetica,sans-Serif" font-size="10.00">fstream</text>
</a>
</g>
</g>
<!-- Node4&#45;&gt;Node6 -->
<g id="edge5" class="edge"><title>Node4&#45;&gt;Node6</title>
<path fill="none" stroke="midnightblue" d="M130.5,-112.083C130.5,-105.006 130.5,-94.8611 130.5,-85.9865"/>
<polygon fill="midnightblue" stroke="midnightblue" points="134,-85.751 130.5,-75.7511 127,-85.7511 134,-85.751"/>
</g>
<!-- Node7&#45;&gt;Node5 -->
<g id="edge10" class="edge"><title>Node7&#45;&gt;Node5</title>
<path fill="none" stroke="midnightblue" d="M392.832,-118.74C339.96,-114.004 229.974,-101.316 202.5,-76 189.685,-64.1916 185.34,-44.2677 183.953,-29.5841"/>
<polygon fill="midnightblue" stroke="midnightblue" points="187.447,-29.3803 183.378,-19.5982 180.459,-29.783 187.447,-29.3803"/>
</g>
<!-- Node8 -->
<g id="node8" class="node"><title>Node8</title>
<g id="a_node8"><a xlink:title=" ">
<polygon fill="white" stroke="#bfbfbf" points="211.5,-56.5 211.5,-75.5 271.5,-75.5 271.5,-56.5 211.5,-56.5"/>
<text text-anchor="middle" x="241.5" y="-63.5" font-family="Helvetica,sans-Serif" font-size="10.00">GL/glew.h</text>
</a>
</g>
</g>
<!-- Node7&#45;&gt;Node8 -->
<g id="edge7" class="edge"><title>Node7&#45;&gt;Node8</title>
<path fill="none" stroke="midnightblue" d="M392.978,-112.444C362.434,-103.28 313.792,-88.6876 279.897,-78.5192"/>
<polygon fill="midnightblue" stroke="midnightblue" points="280.472,-75.0376 269.888,-75.5164 278.461,-81.7424 280.472,-75.0376"/>
</g>
<!-- Node9 -->
<g id="node9" class="node"><title>Node9</title>
<g id="a_node9"><a xlink:title=" ">
<polygon fill="white" stroke="#bfbfbf" points="290,-56.5 290,-75.5 365,-75.5 365,-56.5 290,-56.5"/>
<text text-anchor="middle" x="327.5" y="-63.5" font-family="Helvetica,sans-Serif" font-size="10.00">SDL_image.h</text>
</a>
</g>
</g>
<!-- Node7&#45;&gt;Node9 -->
<g id="edge8" class="edge"><title>Node7&#45;&gt;Node9</title>
<path fill="none" stroke="midnightblue" d="M406.397,-112.324C391.597,-103.822 368.806,-90.7288 351.518,-80.7975"/>
<polygon fill="midnightblue" stroke="midnightblue" points="352.98,-77.6009 342.565,-75.6545 349.493,-83.6707 352.98,-77.6009"/>
</g>
<!-- Node10 -->
<g id="node10" class="node"><title>Node10</title>
<g id="a_node10"><a xlink:title=" ">
<polygon fill="white" stroke="#bfbfbf" points="383,-56.5 383,-75.5 460,-75.5 460,-56.5 383,-56.5"/>
<text text-anchor="middle" x="421.5" y="-63.5" font-family="Helvetica,sans-Serif" font-size="10.00">SDL_opengl.h</text>
</a>
</g>
</g>
<!-- Node7&#45;&gt;Node10 -->
<g id="edge9" class="edge"><title>Node7&#45;&gt;Node10</title>
<path fill="none" stroke="midnightblue" d="M421.5,-112.083C421.5,-105.006 421.5,-94.8611 421.5,-85.9865"/>
<polygon fill="midnightblue" stroke="midnightblue" points="425,-85.751 421.5,-75.7511 418,-85.7511 425,-85.751"/>
</g>
<!-- Node11 -->
<g id="node11" class="node"><title>Node11</title>
<g id="a_node11"><a xlink:title=" ">
<polygon fill="white" stroke="#bfbfbf" points="478,-56.5 478,-75.5 513,-75.5 513,-56.5 478,-56.5"/>
<text text-anchor="middle" x="495.5" y="-63.5" font-family="Helvetica,sans-Serif" font-size="10.00">map</text>
</a>
</g>
</g>
<!-- Node7&#45;&gt;Node11 -->
<g id="edge11" class="edge"><title>Node7&#45;&gt;Node11</title>
<path fill="none" stroke="midnightblue" d="M433.389,-112.324C444.65,-104.107 461.787,-91.6017 475.209,-81.8069"/>
<polygon fill="midnightblue" stroke="midnightblue" points="477.38,-84.5559 483.394,-75.8339 473.253,-78.9014 477.38,-84.5559"/>
</g>
<!-- Node12 -->
<g id="node12" class="node"><title>Node12</title>
<g id="a_node12"><a xlink:title=" ">
<polygon fill="white" stroke="#bfbfbf" points="531,-56.5 531,-75.5 572,-75.5 572,-56.5 531,-56.5"/>
<text text-anchor="middle" x="551.5" y="-63.5" font-family="Helvetica,sans-Serif" font-size="10.00">string</text>
</a>
</g>
</g>
<!-- Node7&#45;&gt;Node12 -->
<g id="edge12" class="edge"><title>Node7&#45;&gt;Node12</title>
<path fill="none" stroke="midnightblue" d="M442.099,-112.444C463.493,-103.557 497.181,-89.5632 521.524,-79.4514"/>
<polygon fill="midnightblue" stroke="midnightblue" points="523.105,-82.5848 530.997,-75.5164 520.42,-76.1203 523.105,-82.5848"/>
</g>
<!-- Node13 -->
<g id="node13" class="node"><title>Node13</title>
<g id="a_node13"><a xlink:href="../../d0/d4b/_debug_8h.html" target="_top" xlink:title=" ">
<polygon fill="white" stroke="black" points="590,-56.5 590,-75.5 643,-75.5 643,-56.5 590,-56.5"/>
<text text-anchor="middle" x="616.5" y="-63.5" font-family="Helvetica,sans-Serif" font-size="10.00">Debug.h</text>
</a>
</g>
</g>
<!-- Node7&#45;&gt;Node13 -->
<g id="edge13" class="edge"><title>Node7&#45;&gt;Node13</title>
<path fill="none" stroke="midnightblue" d="M450.273,-113.032C484.65,-103.512 542.221,-87.5695 579.778,-77.1691"/>
<polygon fill="midnightblue" stroke="midnightblue" points="581.101,-80.4345 589.805,-74.3926 579.233,-73.6884 581.101,-80.4345"/>
</g>
<!-- Node14 -->
<g id="node14" class="node"><title>Node14</title>
<g id="a_node14"><a xlink:href="../../d7/d26/_helping_hand_8h.html" target="_top" xlink:title=" ">
<polygon fill="white" stroke="black" points="661.5,-56.5 661.5,-75.5 741.5,-75.5 741.5,-56.5 661.5,-56.5"/>
<text text-anchor="middle" x="701.5" y="-63.5" font-family="Helvetica,sans-Serif" font-size="10.00">HelpingHand.h</text>
</a>
</g>
</g>
<!-- Node7&#45;&gt;Node14 -->
<g id="edge14" class="edge"><title>Node7&#45;&gt;Node14</title>
<path fill="none" stroke="midnightblue" d="M450.149,-115.475C497.484,-106.346 592.61,-88.0002 651.302,-76.681"/>
<polygon fill="midnightblue" stroke="midnightblue" points="652.306,-80.0521 661.462,-74.7216 650.98,-73.1787 652.306,-80.0521"/>
</g>
<!-- Node14&#45;&gt;Node5 -->
<g id="edge16" class="edge"><title>Node14&#45;&gt;Node5</title>
<path fill="none" stroke="midnightblue" d="M661.429,-57.488C658.076,-56.9504 654.733,-56.4456 651.5,-56 492.472,-34.0798 301.577,-19.2808 221.635,-13.5986"/>
<polygon fill="midnightblue" stroke="midnightblue" points="221.772,-10.0997 211.551,-12.8886 221.281,-17.0824 221.772,-10.0997"/>
</g>
<!-- Node15 -->
<g id="node15" class="node"><title>Node15</title>
<g id="a_node15"><a xlink:title=" ">
<polygon fill="white" stroke="#bfbfbf" points="385,-0.5 385,-19.5 512,-19.5 512,-0.5 385,-0.5"/>
<text text-anchor="middle" x="448.5" y="-7.5" font-family="Helvetica,sans-Serif" font-size="10.00">LinearMath/btTransform.h</text>
</a>
</g>
</g>
<!-- Node14&#45;&gt;Node15 -->
<g id="edge15" class="edge"><title>Node14&#45;&gt;Node15</title>
<path fill="none" stroke="midnightblue" d="M661.411,-56.4435C617.184,-47.0036 545.961,-31.802 498.215,-21.6111"/>
<polygon fill="midnightblue" stroke="midnightblue" points="498.911,-18.181 488.401,-19.5164 497.45,-25.0268 498.911,-18.181"/>
</g>
<!-- Node16 -->
<g id="node16" class="node"><title>Node16</title>
<g id="a_node16"><a xlink:title=" ">
<polygon fill="white" stroke="#bfbfbf" points="530.5,-0.5 530.5,-19.5 646.5,-19.5 646.5,-0.5 530.5,-0.5"/>
<text text-anchor="middle" x="588.5" y="-7.5" font-family="Helvetica,sans-Serif" font-size="10.00">glm/gtc/quaternion.hpp</text>
</a>
</g>
</g>
<!-- Node14&#45;&gt;Node16 -->
<g id="edge17" class="edge"><title>Node14&#45;&gt;Node16</title>
<path fill="none" stroke="midnightblue" d="M683.595,-56.4435C665.246,-47.6751 636.495,-33.9355 615.406,-23.8579"/>
<polygon fill="midnightblue" stroke="midnightblue" points="616.853,-20.6703 606.321,-19.5164 613.835,-26.9862 616.853,-20.6703"/>
</g>
<!-- Node17 -->
<g id="node17" class="node"><title>Node17</title>
<g id="a_node17"><a xlink:title=" ">
<polygon fill="white" stroke="#bfbfbf" points="664.5,-0.5 664.5,-19.5 738.5,-19.5 738.5,-0.5 664.5,-0.5"/>
<text text-anchor="middle" x="701.5" y="-7.5" font-family="Helvetica,sans-Serif" font-size="10.00">glm/vec3.hpp</text>
</a>
</g>
</g>
<!-- Node14&#45;&gt;Node17 -->
<g id="edge18" class="edge"><title>Node14&#45;&gt;Node17</title>
<path fill="none" stroke="midnightblue" d="M701.5,-56.083C701.5,-49.0059 701.5,-38.8611 701.5,-29.9865"/>
<polygon fill="midnightblue" stroke="midnightblue" points="705,-29.751 701.5,-19.7511 698,-29.7511 705,-29.751"/>
</g>
<!-- Node14&#45;&gt;Node18 -->
<g id="edge19" class="edge"><title>Node14&#45;&gt;Node18</title>
<path fill="none" stroke="midnightblue" d="M713.711,-56.324C725.276,-48.1066 742.875,-35.6017 756.661,-25.8069"/>
<polygon fill="midnightblue" stroke="midnightblue" points="758.943,-28.4791 765.067,-19.8339 754.888,-22.7729 758.943,-28.4791"/>
</g>
</g>
</svg>
