<?xml version="1.0" encoding="UTF-8" standalone="no"?>
<!DOCTYPE svg PUBLIC "-//W3C//DTD SVG 1.1//EN"
 "http://www.w3.org/Graphics/SVG/1.1/DTD/svg11.dtd">
<!-- Generated by graphviz version 2.38.0 (20140413.2041)
 -->
<!-- Title: DebuggingController::executeDebugRendering Pages: 1 -->
<svg width="446pt" height="39pt"
 viewBox="0.00 0.00 446.00 39.00" xmlns="http://www.w3.org/2000/svg" xmlns:xlink="http://www.w3.org/1999/xlink">
<g id="graph0" class="graph" transform="scale(1 1) rotate(0) translate(4 35)">
<title>DebuggingController::executeDebugRendering</title>
<polygon fill="white" stroke="none" points="-4,4 -4,-35 442,-35 442,4 -4,4"/>
<!-- Node1 -->
<g id="node1" class="node"><title>Node1</title>
<g id="a_node1"><a xlink:title=" ">
<polygon fill="#bfbfbf" stroke="black" points="0,-0.5 0,-30.5 128,-30.5 128,-0.5 0,-0.5"/>
<text text-anchor="start" x="8" y="-18.5" font-family="Helvetica,sans-Serif" font-size="10.00">DebuggingController</text>
<text text-anchor="middle" x="64" y="-7.5" font-family="Helvetica,sans-Serif" font-size="10.00">::executeDebugRendering</text>
</a>
</g>
</g>
<!-- Node2 -->
<g id="node2" class="node"><title>Node2</title>
<g id="a_node2"><a xlink:href="../../d5/d44/class_physics_world.html#a6175f46c5cfe345ebf309df5568ab016" target="_top" xlink:title=" ">
<polygon fill="white" stroke="black" points="164,-6 164,-25 295,-25 295,-6 164,-6"/>
<text text-anchor="middle" x="229.5" y="-13" font-family="Helvetica,sans-Serif" font-size="10.00">PhysicsWorld::debugDraw</text>
</a>
</g>
</g>
<!-- Node1&#45;&gt;Node2 -->
<g id="edge1" class="edge"><title>Node1&#45;&gt;Node2</title>
<path fill="none" stroke="midnightblue" d="M128.213,-15.5C136.518,-15.5 145.093,-15.5 153.569,-15.5"/>
<polygon fill="midnightblue" stroke="midnightblue" points="153.835,-19.0001 163.835,-15.5 153.835,-12.0001 153.835,-19.0001"/>
</g>
<!-- Node3 -->
<g id="node3" class="node"><title>Node3</title>
<g id="a_node3"><a xlink:href="../../d1/da2/class_debug_drawer.html#a475bfd0fc90b3ebda966d47e899da8ed" target="_top" xlink:title=" ">
<polygon fill="white" stroke="black" points="331,-6 331,-25 438,-25 438,-6 331,-6"/>
<text text-anchor="middle" x="384.5" y="-13" font-family="Helvetica,sans-Serif" font-size="10.00">DebugDrawer::render</text>
</a>
</g>
</g>
<!-- Node2&#45;&gt;Node3 -->
<g id="edge2" class="edge"><title>Node2&#45;&gt;Node3</title>
<path fill="none" stroke="midnightblue" d="M295.386,-15.5C303.632,-15.5 312.063,-15.5 320.283,-15.5"/>
<polygon fill="midnightblue" stroke="midnightblue" points="320.551,-19.0001 330.551,-15.5 320.551,-12.0001 320.551,-19.0001"/>
</g>
</g>
</svg>
