<?xml version="1.0" encoding="UTF-8" standalone="no"?>
<!DOCTYPE svg PUBLIC "-//W3C//DTD SVG 1.1//EN"
 "http://www.w3.org/Graphics/SVG/1.1/DTD/svg11.dtd">
<!-- Generated by graphviz version 2.38.0 (20140413.2041)
 -->
<!-- Title: DebuggingController::controlPhysicsDebugDraw Pages: 1 -->
<svg width="482pt" height="91pt"
 viewBox="0.00 0.00 482.00 91.00" xmlns="http://www.w3.org/2000/svg" xmlns:xlink="http://www.w3.org/1999/xlink">
<g id="graph0" class="graph" transform="scale(1 1) rotate(0) translate(4 87)">
<title>DebuggingController::controlPhysicsDebugDraw</title>
<polygon fill="white" stroke="none" points="-4,4 -4,-87 478,-87 478,4 -4,4"/>
<!-- Node1 -->
<g id="node1" class="node"><title>Node1</title>
<g id="a_node1"><a xlink:title=" ">
<polygon fill="#bfbfbf" stroke="black" points="0,-17 0,-47 137,-47 137,-17 0,-17"/>
<text text-anchor="start" x="8" y="-35" font-family="Helvetica,sans-Serif" font-size="10.00">DebuggingController</text>
<text text-anchor="middle" x="68.5" y="-24" font-family="Helvetica,sans-Serif" font-size="10.00">::controlPhysicsDebugDraw</text>
</a>
</g>
</g>
<!-- Node2 -->
<g id="node2" class="node"><title>Node2</title>
<g id="a_node2"><a xlink:href="../../d5/d44/class_physics_world.html#a1f017ddfa5031919162435f953701e15" target="_top" xlink:title=" ">
<polygon fill="white" stroke="black" points="173,-39 173,-69 292,-69 292,-39 173,-39"/>
<text text-anchor="start" x="181" y="-57" font-family="Helvetica,sans-Serif" font-size="10.00">PhysicsWorld::initialize</text>
<text text-anchor="middle" x="232.5" y="-46" font-family="Helvetica,sans-Serif" font-size="10.00">DebugDraw</text>
</a>
</g>
</g>
<!-- Node1&#45;&gt;Node2 -->
<g id="edge1" class="edge"><title>Node1&#45;&gt;Node2</title>
<path fill="none" stroke="midnightblue" d="M137.264,-41.2025C145.647,-42.341 154.225,-43.5058 162.624,-44.6465"/>
<polygon fill="midnightblue" stroke="midnightblue" points="162.377,-48.1449 172.757,-46.0225 163.319,-41.2086 162.377,-48.1449"/>
</g>
<!-- Node5 -->
<g id="node5" class="node"><title>Node5</title>
<g id="a_node5"><a xlink:href="../../d4/d7b/class_input.html#a2aaf873636cedf13e51a424eb6ea802b" target="_top" xlink:title=" ">
<polygon fill="white" stroke="black" points="173,-0.5 173,-19.5 292,-19.5 292,-0.5 173,-0.5"/>
<text text-anchor="middle" x="232.5" y="-7.5" font-family="Helvetica,sans-Serif" font-size="10.00">Input::keyPressedOnce</text>
</a>
</g>
</g>
<!-- Node1&#45;&gt;Node5 -->
<g id="edge4" class="edge"><title>Node1&#45;&gt;Node5</title>
<path fill="none" stroke="midnightblue" d="M137.264,-22.7975C145.647,-21.659 154.225,-20.4942 162.624,-19.3535"/>
<polygon fill="midnightblue" stroke="midnightblue" points="163.319,-22.7914 172.757,-17.9775 162.377,-15.8551 163.319,-22.7914"/>
</g>
<!-- Node3 -->
<g id="node3" class="node"><title>Node3</title>
<g id="a_node3"><a xlink:href="../../d1/da2/class_debug_drawer.html#a590663c66c9953dcebacbb399d749730" target="_top" xlink:title=" ">
<polygon fill="white" stroke="black" points="343,-63.5 343,-82.5 459,-82.5 459,-63.5 343,-63.5"/>
<text text-anchor="middle" x="401" y="-70.5" font-family="Helvetica,sans-Serif" font-size="10.00">DebugDrawer::initialize</text>
</a>
</g>
</g>
<!-- Node2&#45;&gt;Node3 -->
<g id="edge2" class="edge"><title>Node2&#45;&gt;Node3</title>
<path fill="none" stroke="midnightblue" d="M292.202,-60.6987C305.333,-62.1971 319.359,-63.7977 332.804,-65.332"/>
<polygon fill="midnightblue" stroke="midnightblue" points="332.615,-68.8331 342.948,-66.4895 333.409,-61.8782 332.615,-68.8331"/>
</g>
<!-- Node4 -->
<g id="node4" class="node"><title>Node4</title>
<g id="a_node4"><a xlink:href="../../d1/da2/class_debug_drawer.html#a61ad63653eddf7549c2e748ae6022aa6" target="_top" xlink:title=" ">
<polygon fill="white" stroke="black" points="328,-25.5 328,-44.5 474,-44.5 474,-25.5 328,-25.5"/>
<text text-anchor="middle" x="401" y="-32.5" font-family="Helvetica,sans-Serif" font-size="10.00">DebugDrawer::setDebugMode</text>
</a>
</g>
</g>
<!-- Node2&#45;&gt;Node4 -->
<g id="edge3" class="edge"><title>Node2&#45;&gt;Node4</title>
<path fill="none" stroke="midnightblue" d="M292.202,-47.3013C300.479,-46.3568 309.111,-45.3717 317.73,-44.3882"/>
<polygon fill="midnightblue" stroke="midnightblue" points="318.28,-47.8482 327.819,-43.2369 317.487,-40.8933 318.28,-47.8482"/>
</g>
</g>
</svg>
