<?xml version="1.0" encoding="UTF-8" standalone="no"?>
<!DOCTYPE svg PUBLIC "-//W3C//DTD SVG 1.1//EN"
 "http://www.w3.org/Graphics/SVG/1.1/DTD/svg11.dtd">
<!-- Generated by graphviz version 2.38.0 (20140413.2041)
 -->
<!-- Title: src/Quad.h Pages: 1 -->
<!--zoomable 644 -->
<svg id="main" version="1.1" xmlns="http://www.w3.org/2000/svg" xmlns:xlink="http://www.w3.org/1999/xlink" xml:space="preserve" onload="init(evt)">
<style type="text/css"><![CDATA[
.edge:hover path { stroke: red; }
.edge:hover polygon { stroke: red; fill: red; }
]]></style>
<script type="text/javascript"><![CDATA[
var edges = document.getElementsByTagName('g');
if (edges && edges.length) {
  for (var i=0;i<edges.length;i++) {
    if (edges[i].id.substr(0,4)=='edge') {
      edges[i].setAttribute('class','edge');
    }
  }
}
]]></script>
        <defs>
                <circle id="rim" cx="0" cy="0" r="7"/>
                <circle id="rim2" cx="0" cy="0" r="3.5"/>
                <g id="zoomPlus">
                        <use xlink:href="#rim" fill="#404040">
                                <set attributeName="fill" to="#808080" begin="zoomplus.mouseover" end="zoomplus.mouseout"/>
                        </use>
                        <path d="M-4,0h8M0,-4v8" fill="none" stroke="white" stroke-width="1.5" pointer-events="none"/>
                </g>
                <g id="zoomMin">
                        <use xlink:href="#rim" fill="#404040">
                                <set attributeName="fill" to="#808080" begin="zoomminus.mouseover" end="zoomminus.mouseout"/>
                        </use>
                        <path d="M-4,0h8" fill="none" stroke="white" stroke-width="1.5" pointer-events="none"/>
                </g>
                <g id="dirArrow">
                        <path fill="none" stroke="white" stroke-width="1.5" d="M0,-3.0v7 M-2.5,-0.5L0,-3.0L2.5,-0.5"/>
                </g>
               <g id="resetDef">
                       <use xlink:href="#rim2" fill="#404040">
                               <set attributeName="fill" to="#808080" begin="reset.mouseover" end="reset.mouseout"/>
                       </use>
               </g>
        </defs>

<script type="text/javascript">
var viewWidth = 765;
var viewHeight = 644;
var sectionId = 'dynsection-1';
</script>
<script xlink:href="../../svgpan.js"/>
<svg id="graph" class="graph">
<g id="viewport">
<title>src/Quad.h</title>
<polygon fill="white" stroke="none" points="-4,4 -4,-640 760.5,-640 760.5,4 -4,4"/>
<!-- Node1 -->
<g id="node1" class="node"><title>Node1</title>
<g id="a_node1"><a xlink:title=" ">
<polygon fill="#bfbfbf" stroke="black" points="572.5,-616.5 572.5,-635.5 637.5,-635.5 637.5,-616.5 572.5,-616.5"/>
<text text-anchor="middle" x="605" y="-623.5" font-family="Helvetica,sans-Serif" font-size="10.00">src/Quad.h</text>
</a>
</g>
</g>
<!-- Node2 -->
<g id="node2" class="node"><title>Node2</title>
<g id="a_node2"><a xlink:href="../../d8/dc0/_gui_text_character_8h.html" target="_top" xlink:title=" ">
<polygon fill="white" stroke="black" points="195.5,-560.5 195.5,-579.5 312.5,-579.5 312.5,-560.5 195.5,-560.5"/>
<text text-anchor="middle" x="254" y="-567.5" font-family="Helvetica,sans-Serif" font-size="10.00">src/GuiTextCharacter.h</text>
</a>
</g>
</g>
<!-- Node1&#45;&gt;Node2 -->
<g id="edge1" class="edge"><title>Node1&#45;&gt;Node2</title>
<path fill="none" stroke="midnightblue" d="M562.222,-618.419C498.699,-608.646 379.415,-590.295 309.328,-579.512"/>
<polygon fill="midnightblue" stroke="midnightblue" points="561.878,-621.907 572.294,-619.968 562.942,-614.988 561.878,-621.907"/>
</g>
<!-- Node18 -->
<g id="node18" class="node"><title>Node18</title>
<g id="a_node18"><a xlink:href="../../da/d66/_rendering_system_8h.html" target="_top" xlink:title=" ">
<polygon fill="white" stroke="black" points="511.5,-224.5 511.5,-243.5 630.5,-243.5 630.5,-224.5 511.5,-224.5"/>
<text text-anchor="middle" x="571" y="-231.5" font-family="Helvetica,sans-Serif" font-size="10.00">src/RenderingSystem.h</text>
</a>
</g>
</g>
<!-- Node1&#45;&gt;Node18 -->
<g id="edge41" class="edge"><title>Node1&#45;&gt;Node18</title>
<path fill="none" stroke="midnightblue" d="M617.619,-608.08C631.841,-587.293 653,-550.415 653,-515 653,-515 653,-515 653,-345 653,-299.266 606.875,-260.258 583.813,-243.612"/>
<polygon fill="midnightblue" stroke="midnightblue" points="614.62,-606.258 611.674,-616.435 620.324,-610.316 614.62,-606.258"/>
</g>
<!-- Node26 -->
<g id="node26" class="node"><title>Node26</title>
<g id="a_node26"><a xlink:href="../../d1/d6c/_gui_sprite_8h.html" target="_top" xlink:title=" ">
<polygon fill="white" stroke="black" points="517,-560.5 517,-579.5 599,-579.5 599,-560.5 517,-560.5"/>
<text text-anchor="middle" x="558" y="-567.5" font-family="Helvetica,sans-Serif" font-size="10.00">src/GuiSprite.h</text>
</a>
</g>
</g>
<!-- Node1&#45;&gt;Node26 -->
<g id="edge34" class="edge"><title>Node1&#45;&gt;Node26</title>
<path fill="none" stroke="midnightblue" d="M590.579,-608.431C582.342,-598.967 572.346,-587.483 565.617,-579.751"/>
<polygon fill="midnightblue" stroke="midnightblue" points="588.034,-610.838 597.239,-616.083 593.314,-606.242 588.034,-610.838"/>
</g>
<!-- Node28 -->
<g id="node28" class="node"><title>Node28</title>
<g id="a_node28"><a xlink:href="../../d6/d22/_quad_8cpp.html" target="_top" xlink:title=" ">
<polygon fill="white" stroke="black" points="681.5,-560.5 681.5,-579.5 756.5,-579.5 756.5,-560.5 681.5,-560.5"/>
<text text-anchor="middle" x="719" y="-567.5" font-family="Helvetica,sans-Serif" font-size="10.00">src/Quad.cpp</text>
</a>
</g>
</g>
<!-- Node1&#45;&gt;Node28 -->
<g id="edge42" class="edge"><title>Node1&#45;&gt;Node28</title>
<path fill="none" stroke="midnightblue" d="M632.242,-612.096C653.54,-602.007 682.542,-588.27 701.021,-579.516"/>
<polygon fill="midnightblue" stroke="midnightblue" points="630.603,-609 623.064,-616.444 633.599,-615.326 630.603,-609"/>
</g>
<!-- Node3 -->
<g id="node3" class="node"><title>Node3</title>
<g id="a_node3"><a xlink:href="../../d4/d04/_gui_string_8h.html" target="_top" xlink:title=" ">
<polygon fill="white" stroke="black" points="213,-504.5 213,-523.5 295,-523.5 295,-504.5 213,-504.5"/>
<text text-anchor="middle" x="254" y="-511.5" font-family="Helvetica,sans-Serif" font-size="10.00">src/GuiString.h</text>
</a>
</g>
</g>
<!-- Node2&#45;&gt;Node3 -->
<g id="edge2" class="edge"><title>Node2&#45;&gt;Node3</title>
<path fill="none" stroke="midnightblue" d="M254,-549.805C254,-540.91 254,-530.78 254,-523.751"/>
<polygon fill="midnightblue" stroke="midnightblue" points="250.5,-550.083 254,-560.083 257.5,-550.083 250.5,-550.083"/>
</g>
<!-- Node25 -->
<g id="node25" class="node"><title>Node25</title>
<g id="a_node25"><a xlink:href="../../d8/d51/_gui_text_character_8cpp.html" target="_top" xlink:title=" ">
<polygon fill="white" stroke="black" points="67,-504.5 67,-523.5 195,-523.5 195,-504.5 67,-504.5"/>
<text text-anchor="middle" x="131" y="-511.5" font-family="Helvetica,sans-Serif" font-size="10.00">src/GuiTextCharacter.cpp</text>
</a>
</g>
</g>
<!-- Node2&#45;&gt;Node25 -->
<g id="edge33" class="edge"><title>Node2&#45;&gt;Node25</title>
<path fill="none" stroke="midnightblue" d="M225.227,-556.368C202.193,-546.255 170.516,-532.349 150.399,-523.516"/>
<polygon fill="midnightblue" stroke="midnightblue" points="223.947,-559.628 234.51,-560.444 226.761,-553.219 223.947,-559.628"/>
</g>
<!-- Node4 -->
<g id="node4" class="node"><title>Node4</title>
<g id="a_node4"><a xlink:href="../../d6/dfe/_display_statistics_8h.html" target="_top" xlink:title=" ">
<polygon fill="white" stroke="black" points="110.5,-448.5 110.5,-467.5 225.5,-467.5 225.5,-448.5 110.5,-448.5"/>
<text text-anchor="middle" x="168" y="-455.5" font-family="Helvetica,sans-Serif" font-size="10.00">src/DisplayStatistics.h</text>
</a>
</g>
</g>
<!-- Node3&#45;&gt;Node4 -->
<g id="edge3" class="edge"><title>Node3&#45;&gt;Node4</title>
<path fill="none" stroke="midnightblue" d="M231.545,-498.901C215.776,-488.999 195.186,-476.071 181.783,-467.655"/>
<polygon fill="midnightblue" stroke="midnightblue" points="229.852,-501.97 240.183,-504.324 233.575,-496.042 229.852,-501.97"/>
</g>
<!-- Node5 -->
<g id="node5" class="node"><title>Node5</title>
<g id="a_node5"><a xlink:href="../../da/d03/_entity_tests_8h.html" target="_top" xlink:title=" ">
<polygon fill="white" stroke="black" points="198.5,-392.5 198.5,-411.5 289.5,-411.5 289.5,-392.5 198.5,-392.5"/>
<text text-anchor="middle" x="244" y="-399.5" font-family="Helvetica,sans-Serif" font-size="10.00">src/EntityTests.h</text>
</a>
</g>
</g>
<!-- Node3&#45;&gt;Node5 -->
<g id="edge25" class="edge"><title>Node3&#45;&gt;Node5</title>
<path fill="none" stroke="midnightblue" d="M252.304,-494.348C250.114,-470.254 246.392,-429.308 244.781,-411.591"/>
<polygon fill="midnightblue" stroke="midnightblue" points="248.824,-494.726 253.215,-504.368 255.795,-494.093 248.824,-494.726"/>
</g>
<!-- Node3&#45;&gt;Node18 -->
<g id="edge31" class="edge"><title>Node3&#45;&gt;Node18</title>
<path fill="none" stroke="midnightblue" d="M305.367,-513.114C348.865,-510.68 410.717,-500.965 453,-468 531.671,-406.665 562.272,-278.673 569.323,-243.888"/>
<polygon fill="midnightblue" stroke="midnightblue" points="305.112,-509.622 295.279,-513.567 305.426,-516.615 305.112,-509.622"/>
</g>
<!-- Node22 -->
<g id="node22" class="node"><title>Node22</title>
<g id="a_node22"><a xlink:href="../../db/d30/_pause_menu_8h.html" target="_top" xlink:title=" ">
<polygon fill="white" stroke="black" points="351.5,-448.5 351.5,-467.5 444.5,-467.5 444.5,-448.5 351.5,-448.5"/>
<text text-anchor="middle" x="398" y="-455.5" font-family="Helvetica,sans-Serif" font-size="10.00">src/PauseMenu.h</text>
</a>
</g>
</g>
<!-- Node3&#45;&gt;Node22 -->
<g id="edge26" class="edge"><title>Node3&#45;&gt;Node22</title>
<path fill="none" stroke="midnightblue" d="M286.251,-500.906C313.324,-490.754 351.317,-476.506 375.29,-467.516"/>
<polygon fill="midnightblue" stroke="midnightblue" points="284.952,-497.655 276.817,-504.444 287.409,-504.209 284.952,-497.655"/>
</g>
<!-- Node24 -->
<g id="node24" class="node"><title>Node24</title>
<g id="a_node24"><a xlink:href="../../dc/df4/_gui_string_8cpp.html" target="_top" xlink:title=" ">
<polygon fill="white" stroke="black" points="0,-448.5 0,-467.5 92,-467.5 92,-448.5 0,-448.5"/>
<text text-anchor="middle" x="46" y="-455.5" font-family="Helvetica,sans-Serif" font-size="10.00">src/GuiString.cpp</text>
</a>
</g>
</g>
<!-- Node3&#45;&gt;Node24 -->
<g id="edge32" class="edge"><title>Node3&#45;&gt;Node24</title>
<path fill="none" stroke="midnightblue" d="M211.222,-501.894C171.942,-491.697 114.571,-476.802 78.804,-467.516"/>
<polygon fill="midnightblue" stroke="midnightblue" points="210.483,-505.318 221.042,-504.444 212.242,-498.543 210.483,-505.318"/>
</g>
<!-- Node4&#45;&gt;Node5 -->
<g id="edge4" class="edge"><title>Node4&#45;&gt;Node5</title>
<path fill="none" stroke="midnightblue" d="M188.576,-442.38C202.312,-432.62 219.925,-420.106 231.567,-411.834"/>
<polygon fill="midnightblue" stroke="midnightblue" points="186.335,-439.679 180.211,-448.324 190.39,-445.385 186.335,-439.679"/>
</g>
<!-- Node13 -->
<g id="node13" class="node"><title>Node13</title>
<g id="a_node13"><a xlink:href="../../db/d81/_fixed_updating_system_8h.html" target="_top" xlink:title=" ">
<polygon fill="white" stroke="black" points="128.5,-224.5 128.5,-243.5 265.5,-243.5 265.5,-224.5 128.5,-224.5"/>
<text text-anchor="middle" x="197" y="-231.5" font-family="Helvetica,sans-Serif" font-size="10.00">src/FixedUpdatingSystem.h</text>
</a>
</g>
</g>
<!-- Node4&#45;&gt;Node13 -->
<g id="edge12" class="edge"><title>Node4&#45;&gt;Node13</title>
<path fill="none" stroke="midnightblue" d="M109.767,-446.364C73.9108,-438.496 32.7993,-426.629 22,-412 16.7208,-404.849 18.3772,-400.117 22,-392 55.2706,-317.454 143.367,-263.561 180.318,-243.55"/>
<polygon fill="midnightblue" stroke="midnightblue" points="109.203,-449.822 119.712,-448.475 110.657,-442.974 109.203,-449.822"/>
</g>
<!-- Node15 -->
<g id="node15" class="node"><title>Node15</title>
<g id="a_node15"><a xlink:href="../../d0/dd5/_display_statistics_system_8h.html" target="_top" xlink:title=" ">
<polygon fill="white" stroke="black" points="31.5,-392.5 31.5,-411.5 180.5,-411.5 180.5,-392.5 31.5,-392.5"/>
<text text-anchor="middle" x="106" y="-399.5" font-family="Helvetica,sans-Serif" font-size="10.00">src/DisplayStatisticsSystem.h</text>
</a>
</g>
</g>
<!-- Node4&#45;&gt;Node15 -->
<g id="edge15" class="edge"><title>Node4&#45;&gt;Node15</title>
<path fill="none" stroke="midnightblue" d="M150.246,-441.537C139.192,-431.909 125.369,-419.869 116.143,-411.834"/>
<polygon fill="midnightblue" stroke="midnightblue" points="148.199,-444.395 158.039,-448.324 152.797,-439.117 148.199,-444.395"/>
</g>
<!-- Node6 -->
<g id="node6" class="node"><title>Node6</title>
<g id="a_node6"><a xlink:href="../../d9/dcd/_game_8h.html" target="_top" xlink:title=" ">
<polygon fill="white" stroke="black" points="275,-168.5 275,-187.5 343,-187.5 343,-168.5 275,-168.5"/>
<text text-anchor="middle" x="309" y="-175.5" font-family="Helvetica,sans-Serif" font-size="10.00">src/Game.h</text>
</a>
</g>
</g>
<!-- Node5&#45;&gt;Node6 -->
<g id="edge5" class="edge"><title>Node5&#45;&gt;Node6</title>
<path fill="none" stroke="midnightblue" d="M257.558,-384.124C263.429,-376.039 269.886,-365.963 274,-356 299.227,-294.91 306.646,-214.28 308.474,-187.822"/>
<polygon fill="midnightblue" stroke="midnightblue" points="254.61,-382.218 251.334,-392.294 260.178,-386.46 254.61,-382.218"/>
</g>
<!-- Node12 -->
<g id="node12" class="node"><title>Node12</title>
<g id="a_node12"><a xlink:href="../../de/d4c/_entity_tests_8cpp.html" target="_top" xlink:title=" ">
<polygon fill="white" stroke="black" points="164.5,-336.5 164.5,-355.5 265.5,-355.5 265.5,-336.5 164.5,-336.5"/>
<text text-anchor="middle" x="215" y="-343.5" font-family="Helvetica,sans-Serif" font-size="10.00">src/EntityTests.cpp</text>
</a>
</g>
</g>
<!-- Node5&#45;&gt;Node12 -->
<g id="edge11" class="edge"><title>Node5&#45;&gt;Node12</title>
<path fill="none" stroke="midnightblue" d="M234.324,-382.983C229.402,-373.817 223.642,-363.092 219.7,-355.751"/>
<polygon fill="midnightblue" stroke="midnightblue" points="231.396,-384.929 239.211,-392.083 237.563,-381.617 231.396,-384.929"/>
</g>
<!-- Node7 -->
<g id="node7" class="node"><title>Node7</title>
<g id="a_node7"><a xlink:href="../../d9/da3/_application_8h.html" target="_top" xlink:title=" ">
<polygon fill="white" stroke="black" points="213.5,-112.5 213.5,-131.5 302.5,-131.5 302.5,-112.5 213.5,-112.5"/>
<text text-anchor="middle" x="258" y="-119.5" font-family="Helvetica,sans-Serif" font-size="10.00">src/Application.h</text>
</a>
</g>
</g>
<!-- Node6&#45;&gt;Node7 -->
<g id="edge6" class="edge"><title>Node6&#45;&gt;Node7</title>
<path fill="none" stroke="midnightblue" d="M293.622,-160.718C284.633,-151.2 273.641,-139.561 266.265,-131.751"/>
<polygon fill="midnightblue" stroke="midnightblue" points="291.168,-163.216 300.578,-168.083 296.257,-158.41 291.168,-163.216"/>
</g>
<!-- Node11 -->
<g id="node11" class="node"><title>Node11</title>
<g id="a_node11"><a xlink:href="../../d7/db5/_game_8cpp.html" target="_top" xlink:title=" ">
<polygon fill="white" stroke="black" points="321,-112.5 321,-131.5 399,-131.5 399,-112.5 321,-112.5"/>
<text text-anchor="middle" x="360" y="-119.5" font-family="Helvetica,sans-Serif" font-size="10.00">src/Game.cpp</text>
</a>
</g>
</g>
<!-- Node6&#45;&gt;Node11 -->
<g id="edge10" class="edge"><title>Node6&#45;&gt;Node11</title>
<path fill="none" stroke="midnightblue" d="M324.378,-160.718C333.367,-151.2 344.359,-139.561 351.735,-131.751"/>
<polygon fill="midnightblue" stroke="midnightblue" points="321.743,-158.41 317.422,-168.083 326.832,-163.216 321.743,-158.41"/>
</g>
<!-- Node8 -->
<g id="node8" class="node"><title>Node8</title>
<g id="a_node8"><a xlink:href="../../d0/d42/_application_8cpp.html" target="_top" xlink:title=" ">
<polygon fill="white" stroke="black" points="159,-56.5 159,-75.5 259,-75.5 259,-56.5 159,-56.5"/>
<text text-anchor="middle" x="209" y="-63.5" font-family="Helvetica,sans-Serif" font-size="10.00">src/Application.cpp</text>
</a>
</g>
</g>
<!-- Node7&#45;&gt;Node8 -->
<g id="edge7" class="edge"><title>Node7&#45;&gt;Node8</title>
<path fill="none" stroke="midnightblue" d="M242.966,-104.431C234.378,-94.9673 223.957,-83.4827 216.941,-75.7511"/>
<polygon fill="midnightblue" stroke="midnightblue" points="240.597,-107.029 249.909,-112.083 245.781,-102.325 240.597,-107.029"/>
</g>
<!-- Node9 -->
<g id="node9" class="node"><title>Node9</title>
<g id="a_node9"><a xlink:href="../../d4/dbf/main_8h.html" target="_top" xlink:title=" ">
<polygon fill="white" stroke="black" points="277,-56.5 277,-75.5 339,-75.5 339,-56.5 277,-56.5"/>
<text text-anchor="middle" x="308" y="-63.5" font-family="Helvetica,sans-Serif" font-size="10.00">src/main.h</text>
</a>
</g>
</g>
<!-- Node7&#45;&gt;Node9 -->
<g id="edge8" class="edge"><title>Node7&#45;&gt;Node9</title>
<path fill="none" stroke="midnightblue" d="M273.076,-104.718C281.889,-95.1997 292.666,-83.5608 299.897,-75.7511"/>
<polygon fill="midnightblue" stroke="midnightblue" points="270.482,-102.367 266.256,-112.083 275.619,-107.123 270.482,-102.367"/>
</g>
<!-- Node10 -->
<g id="node10" class="node"><title>Node10</title>
<g id="a_node10"><a xlink:href="../../d5/d12/_main_8cpp.html" target="_top" xlink:title=" ">
<polygon fill="white" stroke="black" points="271.5,-0.5 271.5,-19.5 344.5,-19.5 344.5,-0.5 271.5,-0.5"/>
<text text-anchor="middle" x="308" y="-7.5" font-family="Helvetica,sans-Serif" font-size="10.00">src/Main.cpp</text>
</a>
</g>
</g>
<!-- Node9&#45;&gt;Node10 -->
<g id="edge9" class="edge"><title>Node9&#45;&gt;Node10</title>
<path fill="none" stroke="midnightblue" d="M308,-45.8045C308,-36.9102 308,-26.7798 308,-19.7511"/>
<polygon fill="midnightblue" stroke="midnightblue" points="304.5,-46.083 308,-56.083 311.5,-46.083 304.5,-46.083"/>
</g>
<!-- Node13&#45;&gt;Node6 -->
<g id="edge13" class="edge"><title>Node13&#45;&gt;Node6</title>
<path fill="none" stroke="midnightblue" d="M224.249,-219.862C245.016,-209.849 273.023,-196.346 291.05,-187.655"/>
<polygon fill="midnightblue" stroke="midnightblue" points="222.482,-216.828 214.995,-224.324 225.523,-223.134 222.482,-216.828"/>
</g>
<!-- Node14 -->
<g id="node14" class="node"><title>Node14</title>
<g id="a_node14"><a xlink:href="../../d0/d56/_fixed_updating_system_8cpp.html" target="_top" xlink:title=" ">
<polygon fill="white" stroke="black" points="109,-168.5 109,-187.5 257,-187.5 257,-168.5 109,-168.5"/>
<text text-anchor="middle" x="183" y="-175.5" font-family="Helvetica,sans-Serif" font-size="10.00">src/FixedUpdatingSystem.cpp</text>
</a>
</g>
</g>
<!-- Node13&#45;&gt;Node14 -->
<g id="edge14" class="edge"><title>Node13&#45;&gt;Node14</title>
<path fill="none" stroke="midnightblue" d="M192.177,-214.396C189.835,-205.362 187.132,-194.936 185.269,-187.751"/>
<polygon fill="midnightblue" stroke="midnightblue" points="188.79,-215.281 194.688,-224.083 195.566,-213.525 188.79,-215.281"/>
</g>
<!-- Node16 -->
<g id="node16" class="node"><title>Node16</title>
<g id="a_node16"><a xlink:href="../../d8/dc4/_sub_systems_8h.html" target="_top" xlink:title=" ">
<polygon fill="white" stroke="black" points="322,-336.5 322,-355.5 420,-355.5 420,-336.5 322,-336.5"/>
<text text-anchor="middle" x="371" y="-343.5" font-family="Helvetica,sans-Serif" font-size="10.00">src/SubSystems.h</text>
</a>
</g>
</g>
<!-- Node15&#45;&gt;Node16 -->
<g id="edge16" class="edge"><title>Node15&#45;&gt;Node16</title>
<path fill="none" stroke="midnightblue" d="M157.972,-390.41C208.054,-380.204 282.864,-364.96 329.206,-355.516"/>
<polygon fill="midnightblue" stroke="midnightblue" points="157.09,-387.017 147.99,-392.444 158.488,-393.876 157.09,-387.017"/>
</g>
<!-- Node17 -->
<g id="node17" class="node"><title>Node17</title>
<g id="a_node17"><a xlink:href="../../dc/d18/_system_base_8h.html" target="_top" xlink:title=" ">
<polygon fill="white" stroke="black" points="360,-280.5 360,-299.5 458,-299.5 458,-280.5 360,-280.5"/>
<text text-anchor="middle" x="409" y="-287.5" font-family="Helvetica,sans-Serif" font-size="10.00">src/SystemBase.h</text>
</a>
</g>
</g>
<!-- Node16&#45;&gt;Node17 -->
<g id="edge17" class="edge"><title>Node16&#45;&gt;Node17</title>
<path fill="none" stroke="midnightblue" d="M383.065,-327.855C389.645,-318.505 397.511,-307.327 402.842,-299.751"/>
<polygon fill="midnightblue" stroke="midnightblue" points="380.168,-325.891 377.275,-336.083 385.892,-329.919 380.168,-325.891"/>
</g>
<!-- Node17&#45;&gt;Node13 -->
<g id="edge18" class="edge"><title>Node17&#45;&gt;Node13</title>
<path fill="none" stroke="midnightblue" d="M365.654,-277.959C325.613,-267.76 266.967,-252.822 230.435,-243.516"/>
<polygon fill="midnightblue" stroke="midnightblue" points="364.853,-281.367 375.408,-280.444 366.581,-274.583 364.853,-281.367"/>
</g>
<!-- Node17&#45;&gt;Node18 -->
<g id="edge19" class="edge"><title>Node17&#45;&gt;Node18</title>
<path fill="none" stroke="midnightblue" d="M444.484,-277.172C474.988,-267.004 518.245,-252.585 545.451,-243.516"/>
<polygon fill="midnightblue" stroke="midnightblue" points="443.049,-273.961 434.669,-280.444 445.263,-280.602 443.049,-273.961"/>
</g>
<!-- Node20 -->
<g id="node20" class="node"><title>Node20</title>
<g id="a_node20"><a xlink:href="../../db/dc0/_updating_system_8h.html" target="_top" xlink:title=" ">
<polygon fill="white" stroke="black" points="355.5,-224.5 355.5,-243.5 468.5,-243.5 468.5,-224.5 355.5,-224.5"/>
<text text-anchor="middle" x="412" y="-231.5" font-family="Helvetica,sans-Serif" font-size="10.00">src/UpdatingSystem.h</text>
</a>
</g>
</g>
<!-- Node17&#45;&gt;Node20 -->
<g id="edge22" class="edge"><title>Node17&#45;&gt;Node20</title>
<path fill="none" stroke="midnightblue" d="M410.066,-269.805C410.561,-260.91 411.123,-250.78 411.514,-243.751"/>
<polygon fill="midnightblue" stroke="midnightblue" points="406.556,-269.904 409.495,-280.083 413.545,-270.293 406.556,-269.904"/>
</g>
<!-- Node18&#45;&gt;Node6 -->
<g id="edge20" class="edge"><title>Node18&#45;&gt;Node6</title>
<path fill="none" stroke="midnightblue" d="M519.035,-222.378C474.654,-213.293 409.121,-199.846 352,-188 349.162,-187.411 346.219,-186.799 343.265,-186.184"/>
<polygon fill="midnightblue" stroke="midnightblue" points="518.508,-225.843 529.007,-224.419 519.912,-218.985 518.508,-225.843"/>
</g>
<!-- Node19 -->
<g id="node19" class="node"><title>Node19</title>
<g id="a_node19"><a xlink:href="../../d2/db8/_rendering_system_8cpp.html" target="_top" xlink:title=" ">
<polygon fill="white" stroke="black" points="506.5,-168.5 506.5,-187.5 635.5,-187.5 635.5,-168.5 506.5,-168.5"/>
<text text-anchor="middle" x="571" y="-175.5" font-family="Helvetica,sans-Serif" font-size="10.00">src/RenderingSystem.cpp</text>
</a>
</g>
</g>
<!-- Node18&#45;&gt;Node19 -->
<g id="edge21" class="edge"><title>Node18&#45;&gt;Node19</title>
<path fill="none" stroke="midnightblue" d="M571,-213.805C571,-204.91 571,-194.78 571,-187.751"/>
<polygon fill="midnightblue" stroke="midnightblue" points="567.5,-214.083 571,-224.083 574.5,-214.083 567.5,-214.083"/>
</g>
<!-- Node20&#45;&gt;Node6 -->
<g id="edge23" class="edge"><title>Node20&#45;&gt;Node6</title>
<path fill="none" stroke="midnightblue" d="M386.421,-219.59C367.377,-209.605 341.936,-196.267 325.508,-187.655"/>
<polygon fill="midnightblue" stroke="midnightblue" points="384.969,-222.78 395.451,-224.324 388.22,-216.581 384.969,-222.78"/>
</g>
<!-- Node21 -->
<g id="node21" class="node"><title>Node21</title>
<g id="a_node21"><a xlink:href="../../d7/d1d/_updating_system_8cpp.html" target="_top" xlink:title=" ">
<polygon fill="white" stroke="black" points="361,-168.5 361,-187.5 485,-187.5 485,-168.5 361,-168.5"/>
<text text-anchor="middle" x="423" y="-175.5" font-family="Helvetica,sans-Serif" font-size="10.00">src/UpdatingSystem.cpp</text>
</a>
</g>
</g>
<!-- Node20&#45;&gt;Node21 -->
<g id="edge24" class="edge"><title>Node20&#45;&gt;Node21</title>
<path fill="none" stroke="midnightblue" d="M415.85,-214.101C417.676,-205.136 419.77,-194.858 421.217,-187.751"/>
<polygon fill="midnightblue" stroke="midnightblue" points="412.383,-213.586 413.816,-224.083 419.242,-214.983 412.383,-213.586"/>
</g>
<!-- Node22&#45;&gt;Node5 -->
<g id="edge27" class="edge"><title>Node22&#45;&gt;Node5</title>
<path fill="none" stroke="midnightblue" d="M363.889,-445.039C334.913,-434.879 294.038,-420.546 268.288,-411.516"/>
<polygon fill="midnightblue" stroke="midnightblue" points="363.003,-448.437 373.598,-448.444 365.32,-441.832 363.003,-448.437"/>
</g>
<!-- Node22&#45;&gt;Node20 -->
<g id="edge30" class="edge"><title>Node22&#45;&gt;Node20</title>
<path fill="none" stroke="midnightblue" d="M417.721,-441.833C426.738,-433.891 436.775,-423.443 443,-412 467.328,-367.281 461.637,-350.625 467,-300 467.936,-291.161 470.806,-288.033 467,-280 459.234,-263.611 442.251,-251.206 429.198,-243.614"/>
<polygon fill="midnightblue" stroke="midnightblue" points="415.308,-439.289 409.866,-448.379 419.789,-444.666 415.308,-439.289"/>
</g>
<!-- Node23 -->
<g id="node23" class="node"><title>Node23</title>
<g id="a_node23"><a xlink:href="../../d8/dd5/_pause_menu_system_8h.html" target="_top" xlink:title=" ">
<polygon fill="white" stroke="black" points="307.5,-392.5 307.5,-411.5 434.5,-411.5 434.5,-392.5 307.5,-392.5"/>
<text text-anchor="middle" x="371" y="-399.5" font-family="Helvetica,sans-Serif" font-size="10.00">src/PauseMenuSystem.h</text>
</a>
</g>
</g>
<!-- Node22&#45;&gt;Node23 -->
<g id="edge28" class="edge"><title>Node22&#45;&gt;Node23</title>
<path fill="none" stroke="midnightblue" d="M388.991,-438.983C384.408,-429.817 379.046,-419.092 375.376,-411.751"/>
<polygon fill="midnightblue" stroke="midnightblue" points="385.939,-440.704 393.541,-448.083 392.2,-437.573 385.939,-440.704"/>
</g>
<!-- Node23&#45;&gt;Node16 -->
<g id="edge29" class="edge"><title>Node23&#45;&gt;Node16</title>
<path fill="none" stroke="midnightblue" d="M371,-381.805C371,-372.91 371,-362.78 371,-355.751"/>
<polygon fill="midnightblue" stroke="midnightblue" points="367.5,-382.083 371,-392.083 374.5,-382.083 367.5,-382.083"/>
</g>
<!-- Node26&#45;&gt;Node5 -->
<g id="edge35" class="edge"><title>Node26&#45;&gt;Node5</title>
<path fill="none" stroke="midnightblue" d="M527.447,-556.415C484.948,-538.531 405.998,-503.925 342,-468 309.599,-449.812 273.736,-424.632 255.71,-411.594"/>
<polygon fill="midnightblue" stroke="midnightblue" points="526.363,-559.756 536.939,-560.386 529.065,-553.298 526.363,-559.756"/>
</g>
<!-- Node26&#45;&gt;Node18 -->
<g id="edge40" class="edge"><title>Node26&#45;&gt;Node18</title>
<path fill="none" stroke="midnightblue" d="M572.79,-552.703C589.679,-532.343 615,-495.7 615,-459 615,-459 615,-459 615,-345 615,-304.686 589.208,-261.623 577.118,-243.651"/>
<polygon fill="midnightblue" stroke="midnightblue" points="570.046,-550.525 566.167,-560.384 575.348,-555.096 570.046,-550.525"/>
</g>
<!-- Node27 -->
<g id="node27" class="node"><title>Node27</title>
<g id="a_node27"><a xlink:href="../../d2/d74/_gui_button_8h.html" target="_top" xlink:title=" ">
<polygon fill="white" stroke="black" points="489.5,-504.5 489.5,-523.5 574.5,-523.5 574.5,-504.5 489.5,-504.5"/>
<text text-anchor="middle" x="532" y="-511.5" font-family="Helvetica,sans-Serif" font-size="10.00">src/GuiButton.h</text>
</a>
</g>
</g>
<!-- Node26&#45;&gt;Node27 -->
<g id="edge36" class="edge"><title>Node26&#45;&gt;Node27</title>
<path fill="none" stroke="midnightblue" d="M549.325,-550.983C544.912,-541.817 539.748,-531.092 536.213,-523.751"/>
<polygon fill="midnightblue" stroke="midnightblue" points="546.215,-552.591 553.707,-560.083 552.522,-549.555 546.215,-552.591"/>
</g>
<!-- Node27&#45;&gt;Node13 -->
<g id="edge38" class="edge"><title>Node27&#45;&gt;Node13</title>
<path fill="none" stroke="midnightblue" d="M525.856,-494.917C513.088,-459.807 480.51,-381.837 429,-336 424.713,-332.185 272.794,-267.281 217.155,-243.577"/>
<polygon fill="midnightblue" stroke="midnightblue" points="522.557,-496.087 529.182,-504.355 529.16,-493.76 522.557,-496.087"/>
</g>
<!-- Node27&#45;&gt;Node18 -->
<g id="edge39" class="edge"><title>Node27&#45;&gt;Node18</title>
<path fill="none" stroke="midnightblue" d="M543.831,-495.963C557.163,-475.061 577,-438.07 577,-403 577,-403 577,-403 577,-345 577,-307.131 573.411,-262.038 571.784,-243.549"/>
<polygon fill="midnightblue" stroke="midnightblue" points="540.866,-494.101 538.257,-504.37 546.7,-497.969 540.866,-494.101"/>
</g>
<!-- Node27&#45;&gt;Node22 -->
<g id="edge37" class="edge"><title>Node27&#45;&gt;Node22</title>
<path fill="none" stroke="midnightblue" d="M501.323,-500.638C476.177,-490.504 441.246,-476.427 419.133,-467.516"/>
<polygon fill="midnightblue" stroke="midnightblue" points="500.184,-503.952 510.767,-504.444 502.8,-497.459 500.184,-503.952"/>
</g>
</g>
</svg>
        <g id="navigator" transform="translate(0 0)" fill="#404254">
                <rect fill="#f2f5e9" fill-opacity="0.5" stroke="#606060" stroke-width=".5" x="0" y="0" width="60" height="60"/>
                <use id="zoomplus" xlink:href="#zoomPlus" x="17" y="9" onmousedown="handleZoom(evt,'in')"/>
                <use id="zoomminus" xlink:href="#zoomMin" x="42" y="9" onmousedown="handleZoom(evt,'out')"/>
                <use id="reset" xlink:href="#resetDef" x="30" y="36" onmousedown="handleReset()"/>
                <g id="arrowUp" xlink:href="#dirArrow" transform="translate(30 24)" onmousedown="handlePan(0,-1)">
                  <use xlink:href="#rim" fill="#404040">
                        <set attributeName="fill" to="#808080" begin="arrowUp.mouseover" end="arrowUp.mouseout"/>
                  </use>
                  <path fill="none" stroke="white" stroke-width="1.5" d="M0,-3.0v7 M-2.5,-0.5L0,-3.0L2.5,-0.5"/>
                </g>
                <g id="arrowRight" xlink:href="#dirArrow" transform="rotate(90) translate(36 -43)" onmousedown="handlePan(1,0)">
                  <use xlink:href="#rim" fill="#404040">
                        <set attributeName="fill" to="#808080" begin="arrowRight.mouseover" end="arrowRight.mouseout"/>
                  </use>
                  <path fill="none" stroke="white" stroke-width="1.5" d="M0,-3.0v7 M-2.5,-0.5L0,-3.0L2.5,-0.5"/>
                </g>
                <g id="arrowDown" xlink:href="#dirArrow" transform="rotate(180) translate(-30 -48)" onmousedown="handlePan(0,1)">
                  <use xlink:href="#rim" fill="#404040">
                        <set attributeName="fill" to="#808080" begin="arrowDown.mouseover" end="arrowDown.mouseout"/>
                  </use>
                  <path fill="none" stroke="white" stroke-width="1.5" d="M0,-3.0v7 M-2.5,-0.5L0,-3.0L2.5,-0.5"/>
                </g>
                <g id="arrowLeft" xlink:href="#dirArrow" transform="rotate(270) translate(-36 17)" onmousedown="handlePan(-1,0)">
                  <use xlink:href="#rim" fill="#404040">
                        <set attributeName="fill" to="#808080" begin="arrowLeft.mouseover" end="arrowLeft.mouseout"/>
                  </use>
                  <path fill="none" stroke="white" stroke-width="1.5" d="M0,-3.0v7 M-2.5,-0.5L0,-3.0L2.5,-0.5"/>
                </g>
        </g>
        <svg viewBox="0 0 15 15" width="100%" height="30px" preserveAspectRatio="xMaxYMin meet">
         <g id="arrow_out" transform="scale(0.3 0.3)">
          <a xlink:href="_quad_8h__dep__incl_org.svg" target="_base">
           <rect id="button" ry="5" rx="5" y="6" x="6" height="38" width="38"
                fill="#f2f5e9" fill-opacity="0.5" stroke="#606060" stroke-width="1.0"/>
           <path id="arrow"
             d="M 11.500037,31.436501 C 11.940474,20.09759 22.043105,11.32322 32.158766,21.979434 L 37.068811,17.246167 C 37.068811,17.246167 37.088388,32 37.088388,32 L 22.160133,31.978069 C 22.160133,31.978069 26.997745,27.140456 26.997745,27.140456 C 18.528582,18.264221 13.291696,25.230495 11.500037,31.436501 z"
             style="fill:#404040;"/>
          </a>
         </g>
        </svg>
</svg>
