<?xml version="1.0" encoding="UTF-8" standalone="no"?>
<!DOCTYPE svg PUBLIC "-//W3C//DTD SVG 1.1//EN"
 "http://www.w3.org/Graphics/SVG/1.1/DTD/svg11.dtd">
<!-- Generated by graphviz version 2.38.0 (20140413.2041)
 -->
<!-- Title: src/Scene.h Pages: 1 -->
<svg width="685pt" height="308pt"
 viewBox="0.00 0.00 685.00 308.00" xmlns="http://www.w3.org/2000/svg" xmlns:xlink="http://www.w3.org/1999/xlink">
<g id="graph0" class="graph" transform="scale(1 1) rotate(0) translate(4 304)">
<title>src/Scene.h</title>
<polygon fill="white" stroke="none" points="-4,4 -4,-304 681,-304 681,4 -4,4"/>
<!-- Node1 -->
<g id="node1" class="node"><title>Node1</title>
<g id="a_node1"><a xlink:title=" ">
<polygon fill="#bfbfbf" stroke="black" points="378.5,-280.5 378.5,-299.5 447.5,-299.5 447.5,-280.5 378.5,-280.5"/>
<text text-anchor="middle" x="413" y="-287.5" font-family="Helvetica,sans-Serif" font-size="10.00">src/Scene.h</text>
</a>
</g>
</g>
<!-- Node2 -->
<g id="node2" class="node"><title>Node2</title>
<g id="a_node2"><a xlink:href="../../da/d03/_entity_tests_8h.html" target="_top" xlink:title=" ">
<polygon fill="white" stroke="black" points="487.5,-224.5 487.5,-243.5 578.5,-243.5 578.5,-224.5 487.5,-224.5"/>
<text text-anchor="middle" x="533" y="-231.5" font-family="Helvetica,sans-Serif" font-size="10.00">src/EntityTests.h</text>
</a>
</g>
</g>
<!-- Node1&#45;&gt;Node2 -->
<g id="edge1" class="edge"><title>Node1&#45;&gt;Node2</title>
<path fill="none" stroke="midnightblue" d="M441.373,-276.232C463.82,-266.131 494.535,-252.309 514.075,-243.516"/>
<polygon fill="midnightblue" stroke="midnightblue" points="439.697,-273.148 432.014,-280.444 442.57,-279.532 439.697,-273.148"/>
</g>
<!-- Node10 -->
<g id="node10" class="node"><title>Node10</title>
<g id="a_node10"><a xlink:href="../../db/d81/_fixed_updating_system_8h.html" target="_top" xlink:title=" ">
<polygon fill="white" stroke="black" points="64.5,-224.5 64.5,-243.5 201.5,-243.5 201.5,-224.5 64.5,-224.5"/>
<text text-anchor="middle" x="133" y="-231.5" font-family="Helvetica,sans-Serif" font-size="10.00">src/FixedUpdatingSystem.h</text>
</a>
</g>
</g>
<!-- Node1&#45;&gt;Node10 -->
<g id="edge9" class="edge"><title>Node1&#45;&gt;Node10</title>
<path fill="none" stroke="midnightblue" d="M368.372,-280.393C315.933,-270.28 229.466,-253.604 177.209,-243.526"/>
<polygon fill="midnightblue" stroke="midnightblue" points="367.904,-283.867 378.386,-282.324 369.229,-276.994 367.904,-283.867"/>
</g>
<!-- Node12 -->
<g id="node12" class="node"><title>Node12</title>
<g id="a_node12"><a xlink:href="../../da/d66/_rendering_system_8h.html" target="_top" xlink:title=" ">
<polygon fill="white" stroke="black" points="219.5,-224.5 219.5,-243.5 338.5,-243.5 338.5,-224.5 219.5,-224.5"/>
<text text-anchor="middle" x="279" y="-231.5" font-family="Helvetica,sans-Serif" font-size="10.00">src/RenderingSystem.h</text>
</a>
</g>
</g>
<!-- Node1&#45;&gt;Node12 -->
<g id="edge12" class="edge"><title>Node1&#45;&gt;Node12</title>
<path fill="none" stroke="midnightblue" d="M382.323,-276.638C357.177,-266.504 322.246,-252.427 300.133,-243.516"/>
<polygon fill="midnightblue" stroke="midnightblue" points="381.184,-279.952 391.767,-280.444 383.8,-273.459 381.184,-279.952"/>
</g>
<!-- Node14 -->
<g id="node14" class="node"><title>Node14</title>
<g id="a_node14"><a xlink:href="../../db/dc0/_updating_system_8h.html" target="_top" xlink:title=" ">
<polygon fill="white" stroke="black" points="356.5,-224.5 356.5,-243.5 469.5,-243.5 469.5,-224.5 356.5,-224.5"/>
<text text-anchor="middle" x="413" y="-231.5" font-family="Helvetica,sans-Serif" font-size="10.00">src/UpdatingSystem.h</text>
</a>
</g>
</g>
<!-- Node1&#45;&gt;Node14 -->
<g id="edge15" class="edge"><title>Node1&#45;&gt;Node14</title>
<path fill="none" stroke="midnightblue" d="M413,-269.805C413,-260.91 413,-250.78 413,-243.751"/>
<polygon fill="midnightblue" stroke="midnightblue" points="409.5,-270.083 413,-280.083 416.5,-270.083 409.5,-270.083"/>
</g>
<!-- Node16 -->
<g id="node16" class="node"><title>Node16</title>
<g id="a_node16"><a xlink:href="../../d9/d44/_scene_8cpp.html" target="_top" xlink:title=" ">
<polygon fill="white" stroke="black" points="597,-224.5 597,-243.5 677,-243.5 677,-224.5 597,-224.5"/>
<text text-anchor="middle" x="637" y="-231.5" font-family="Helvetica,sans-Serif" font-size="10.00">src/Scene.cpp</text>
</a>
</g>
</g>
<!-- Node1&#45;&gt;Node16 -->
<g id="edge18" class="edge"><title>Node1&#45;&gt;Node16</title>
<path fill="none" stroke="midnightblue" d="M457.272,-278.327C499.618,-268.119 562.648,-252.924 601.712,-243.507"/>
<polygon fill="midnightblue" stroke="midnightblue" points="456.41,-274.935 447.509,-280.681 458.051,-281.74 456.41,-274.935"/>
</g>
<!-- Node3 -->
<g id="node3" class="node"><title>Node3</title>
<g id="a_node3"><a xlink:href="../../d9/dcd/_game_8h.html" target="_top" xlink:title=" ">
<polygon fill="white" stroke="black" points="314,-168.5 314,-187.5 382,-187.5 382,-168.5 314,-168.5"/>
<text text-anchor="middle" x="348" y="-175.5" font-family="Helvetica,sans-Serif" font-size="10.00">src/Game.h</text>
</a>
</g>
</g>
<!-- Node2&#45;&gt;Node3 -->
<g id="edge2" class="edge"><title>Node2&#45;&gt;Node3</title>
<path fill="none" stroke="midnightblue" d="M493.834,-221.568C458.935,-211.381 408.651,-196.703 377.177,-187.516"/>
<polygon fill="midnightblue" stroke="midnightblue" points="493.106,-225.001 503.686,-224.444 495.067,-218.282 493.106,-225.001"/>
</g>
<!-- Node9 -->
<g id="node9" class="node"><title>Node9</title>
<g id="a_node9"><a xlink:href="../../de/d4c/_entity_tests_8cpp.html" target="_top" xlink:title=" ">
<polygon fill="white" stroke="black" points="542.5,-168.5 542.5,-187.5 643.5,-187.5 643.5,-168.5 542.5,-168.5"/>
<text text-anchor="middle" x="593" y="-175.5" font-family="Helvetica,sans-Serif" font-size="10.00">src/EntityTests.cpp</text>
</a>
</g>
</g>
<!-- Node2&#45;&gt;Node9 -->
<g id="edge8" class="edge"><title>Node2&#45;&gt;Node9</title>
<path fill="none" stroke="midnightblue" d="M550.181,-217.537C560.879,-207.909 574.256,-195.869 583.185,-187.834"/>
<polygon fill="midnightblue" stroke="midnightblue" points="547.732,-215.033 542.64,-224.324 552.414,-220.236 547.732,-215.033"/>
</g>
<!-- Node4 -->
<g id="node4" class="node"><title>Node4</title>
<g id="a_node4"><a xlink:href="../../d9/da3/_application_8h.html" target="_top" xlink:title=" ">
<polygon fill="white" stroke="black" points="252.5,-112.5 252.5,-131.5 341.5,-131.5 341.5,-112.5 252.5,-112.5"/>
<text text-anchor="middle" x="297" y="-119.5" font-family="Helvetica,sans-Serif" font-size="10.00">src/Application.h</text>
</a>
</g>
</g>
<!-- Node3&#45;&gt;Node4 -->
<g id="edge3" class="edge"><title>Node3&#45;&gt;Node4</title>
<path fill="none" stroke="midnightblue" d="M332.622,-160.718C323.633,-151.2 312.641,-139.561 305.265,-131.751"/>
<polygon fill="midnightblue" stroke="midnightblue" points="330.168,-163.216 339.578,-168.083 335.257,-158.41 330.168,-163.216"/>
</g>
<!-- Node8 -->
<g id="node8" class="node"><title>Node8</title>
<g id="a_node8"><a xlink:href="../../d7/db5/_game_8cpp.html" target="_top" xlink:title=" ">
<polygon fill="white" stroke="black" points="360,-112.5 360,-131.5 438,-131.5 438,-112.5 360,-112.5"/>
<text text-anchor="middle" x="399" y="-119.5" font-family="Helvetica,sans-Serif" font-size="10.00">src/Game.cpp</text>
</a>
</g>
</g>
<!-- Node3&#45;&gt;Node8 -->
<g id="edge7" class="edge"><title>Node3&#45;&gt;Node8</title>
<path fill="none" stroke="midnightblue" d="M363.378,-160.718C372.367,-151.2 383.359,-139.561 390.735,-131.751"/>
<polygon fill="midnightblue" stroke="midnightblue" points="360.743,-158.41 356.422,-168.083 365.832,-163.216 360.743,-158.41"/>
</g>
<!-- Node5 -->
<g id="node5" class="node"><title>Node5</title>
<g id="a_node5"><a xlink:href="../../d0/d42/_application_8cpp.html" target="_top" xlink:title=" ">
<polygon fill="white" stroke="black" points="198,-56.5 198,-75.5 298,-75.5 298,-56.5 198,-56.5"/>
<text text-anchor="middle" x="248" y="-63.5" font-family="Helvetica,sans-Serif" font-size="10.00">src/Application.cpp</text>
</a>
</g>
</g>
<!-- Node4&#45;&gt;Node5 -->
<g id="edge4" class="edge"><title>Node4&#45;&gt;Node5</title>
<path fill="none" stroke="midnightblue" d="M281.966,-104.431C273.378,-94.9673 262.957,-83.4827 255.941,-75.7511"/>
<polygon fill="midnightblue" stroke="midnightblue" points="279.597,-107.029 288.909,-112.083 284.781,-102.325 279.597,-107.029"/>
</g>
<!-- Node6 -->
<g id="node6" class="node"><title>Node6</title>
<g id="a_node6"><a xlink:href="../../d4/dbf/main_8h.html" target="_top" xlink:title=" ">
<polygon fill="white" stroke="black" points="316,-56.5 316,-75.5 378,-75.5 378,-56.5 316,-56.5"/>
<text text-anchor="middle" x="347" y="-63.5" font-family="Helvetica,sans-Serif" font-size="10.00">src/main.h</text>
</a>
</g>
</g>
<!-- Node4&#45;&gt;Node6 -->
<g id="edge5" class="edge"><title>Node4&#45;&gt;Node6</title>
<path fill="none" stroke="midnightblue" d="M312.076,-104.718C320.889,-95.1997 331.666,-83.5608 338.897,-75.7511"/>
<polygon fill="midnightblue" stroke="midnightblue" points="309.482,-102.367 305.256,-112.083 314.619,-107.123 309.482,-102.367"/>
</g>
<!-- Node7 -->
<g id="node7" class="node"><title>Node7</title>
<g id="a_node7"><a xlink:href="../../d5/d12/_main_8cpp.html" target="_top" xlink:title=" ">
<polygon fill="white" stroke="black" points="310.5,-0.5 310.5,-19.5 383.5,-19.5 383.5,-0.5 310.5,-0.5"/>
<text text-anchor="middle" x="347" y="-7.5" font-family="Helvetica,sans-Serif" font-size="10.00">src/Main.cpp</text>
</a>
</g>
</g>
<!-- Node6&#45;&gt;Node7 -->
<g id="edge6" class="edge"><title>Node6&#45;&gt;Node7</title>
<path fill="none" stroke="midnightblue" d="M347,-45.8045C347,-36.9102 347,-26.7798 347,-19.7511"/>
<polygon fill="midnightblue" stroke="midnightblue" points="343.5,-46.083 347,-56.083 350.5,-46.083 343.5,-46.083"/>
</g>
<!-- Node10&#45;&gt;Node3 -->
<g id="edge10" class="edge"><title>Node10&#45;&gt;Node3</title>
<path fill="none" stroke="midnightblue" d="M176.96,-221.959C217.567,-211.76 277.043,-196.822 314.092,-187.516"/>
<polygon fill="midnightblue" stroke="midnightblue" points="175.914,-218.613 167.067,-224.444 177.619,-225.402 175.914,-218.613"/>
</g>
<!-- Node11 -->
<g id="node11" class="node"><title>Node11</title>
<g id="a_node11"><a xlink:href="../../d0/d56/_fixed_updating_system_8cpp.html" target="_top" xlink:title=" ">
<polygon fill="white" stroke="black" points="0,-168.5 0,-187.5 148,-187.5 148,-168.5 0,-168.5"/>
<text text-anchor="middle" x="74" y="-175.5" font-family="Helvetica,sans-Serif" font-size="10.00">src/FixedUpdatingSystem.cpp</text>
</a>
</g>
</g>
<!-- Node10&#45;&gt;Node11 -->
<g id="edge11" class="edge"><title>Node10&#45;&gt;Node11</title>
<path fill="none" stroke="midnightblue" d="M116.105,-217.537C105.585,-207.909 92.4313,-195.869 83.6519,-187.834"/>
<polygon fill="midnightblue" stroke="midnightblue" points="113.781,-220.154 123.521,-224.324 118.507,-214.99 113.781,-220.154"/>
</g>
<!-- Node12&#45;&gt;Node3 -->
<g id="edge13" class="edge"><title>Node12&#45;&gt;Node3</title>
<path fill="none" stroke="midnightblue" d="M298.038,-218.101C310.456,-208.382 326.243,-196.027 336.712,-187.834"/>
<polygon fill="midnightblue" stroke="midnightblue" points="295.804,-215.405 290.086,-224.324 300.118,-220.917 295.804,-215.405"/>
</g>
<!-- Node13 -->
<g id="node13" class="node"><title>Node13</title>
<g id="a_node13"><a xlink:href="../../d2/db8/_rendering_system_8cpp.html" target="_top" xlink:title=" ">
<polygon fill="white" stroke="black" points="166.5,-168.5 166.5,-187.5 295.5,-187.5 295.5,-168.5 166.5,-168.5"/>
<text text-anchor="middle" x="231" y="-175.5" font-family="Helvetica,sans-Serif" font-size="10.00">src/RenderingSystem.cpp</text>
</a>
</g>
</g>
<!-- Node12&#45;&gt;Node13 -->
<g id="edge14" class="edge"><title>Node12&#45;&gt;Node13</title>
<path fill="none" stroke="midnightblue" d="M264.272,-216.431C255.86,-206.967 245.651,-195.483 238.779,-187.751"/>
<polygon fill="midnightblue" stroke="midnightblue" points="261.814,-218.934 271.074,-224.083 267.046,-214.284 261.814,-218.934"/>
</g>
<!-- Node14&#45;&gt;Node3 -->
<g id="edge16" class="edge"><title>Node14&#45;&gt;Node3</title>
<path fill="none" stroke="midnightblue" d="M394.727,-217.82C383.082,-208.145 368.401,-195.948 358.633,-187.834"/>
<polygon fill="midnightblue" stroke="midnightblue" points="392.628,-220.626 402.557,-224.324 397.101,-215.242 392.628,-220.626"/>
</g>
<!-- Node15 -->
<g id="node15" class="node"><title>Node15</title>
<g id="a_node15"><a xlink:href="../../d7/d1d/_updating_system_8cpp.html" target="_top" xlink:title=" ">
<polygon fill="white" stroke="black" points="400,-168.5 400,-187.5 524,-187.5 524,-168.5 400,-168.5"/>
<text text-anchor="middle" x="462" y="-175.5" font-family="Helvetica,sans-Serif" font-size="10.00">src/UpdatingSystem.cpp</text>
</a>
</g>
</g>
<!-- Node14&#45;&gt;Node15 -->
<g id="edge17" class="edge"><title>Node14&#45;&gt;Node15</title>
<path fill="none" stroke="midnightblue" d="M428.034,-216.431C436.622,-206.967 447.043,-195.483 454.059,-187.751"/>
<polygon fill="midnightblue" stroke="midnightblue" points="425.219,-214.325 421.091,-224.083 430.403,-219.029 425.219,-214.325"/>
</g>
</g>
</svg>
