<?xml version="1.0" encoding="UTF-8" standalone="no"?>
<!DOCTYPE svg PUBLIC "-//W3C//DTD SVG 1.1//EN"
 "http://www.w3.org/Graphics/SVG/1.1/DTD/svg11.dtd">
<!-- Generated by graphviz version 2.38.0 (20140413.2041)
 -->
<!-- Title: Game::update Pages: 1 -->
<svg width="1208pt" height="707pt"
 viewBox="0.00 0.00 1208.00 707.00" xmlns="http://www.w3.org/2000/svg" xmlns:xlink="http://www.w3.org/1999/xlink">
<g id="graph0" class="graph" transform="scale(1 1) rotate(0) translate(4 703)">
<title>Game::update</title>
<polygon fill="white" stroke="none" points="-4,4 -4,-703 1204,-703 1204,4 -4,4"/>
<!-- Node1 -->
<g id="node1" class="node"><title>Node1</title>
<g id="a_node1"><a xlink:title=" ">
<polygon fill="#bfbfbf" stroke="black" points="0,-493.5 0,-512.5 78,-512.5 78,-493.5 0,-493.5"/>
<text text-anchor="middle" x="39" y="-500.5" font-family="Helvetica,sans-Serif" font-size="10.00">Game::update</text>
</a>
</g>
</g>
<!-- Node2 -->
<g id="node2" class="node"><title>Node2</title>
<g id="a_node2"><a xlink:href="../../d2/d54/class_updating_system.html#a127ad554750e7e7582a1904abfb265aa" target="_top" xlink:title=" ">
<polygon fill="white" stroke="black" points="114,-493.5 114,-512.5 238,-512.5 238,-493.5 114,-493.5"/>
<text text-anchor="middle" x="176" y="-500.5" font-family="Helvetica,sans-Serif" font-size="10.00">UpdatingSystem::update</text>
</a>
</g>
</g>
<!-- Node1&#45;&gt;Node2 -->
<g id="edge1" class="edge"><title>Node1&#45;&gt;Node2</title>
<path fill="none" stroke="midnightblue" d="M78.3245,-503C86.2805,-503 94.9063,-503 103.618,-503"/>
<polygon fill="midnightblue" stroke="midnightblue" points="103.851,-506.5 113.851,-503 103.851,-499.5 103.851,-506.5"/>
</g>
<!-- Node3 -->
<g id="node3" class="node"><title>Node3</title>
<g id="a_node3"><a xlink:href="../../d6/db5/class_scene.html#abe0ba4b6ba925640493f34f730ccd8d4" target="_top" xlink:title=" ">
<polygon fill="white" stroke="black" points="312,-679.5 312,-698.5 420,-698.5 420,-679.5 312,-679.5"/>
<text text-anchor="middle" x="366" y="-686.5" font-family="Helvetica,sans-Serif" font-size="10.00">Scene::getAllEntities</text>
</a>
</g>
</g>
<!-- Node2&#45;&gt;Node3 -->
<g id="edge2" class="edge"><title>Node2&#45;&gt;Node3</title>
<path fill="none" stroke="midnightblue" d="M179.62,-512.828C187.937,-541.994 216.636,-628.595 274,-670 282.244,-675.951 291.942,-680.123 301.879,-683.033"/>
<polygon fill="midnightblue" stroke="midnightblue" points="301.298,-686.496 311.85,-685.54 303.005,-679.707 301.298,-686.496"/>
</g>
<!-- Node4 -->
<g id="node4" class="node"><title>Node4</title>
<g id="a_node4"><a xlink:href="../../d6/db5/class_scene.html#a65d6f6cd75b250c657d5d4a267c4b245" target="_top" xlink:title=" ">
<polygon fill="white" stroke="black" points="309.5,-591.5 309.5,-610.5 422.5,-610.5 422.5,-591.5 309.5,-591.5"/>
<text text-anchor="middle" x="366" y="-598.5" font-family="Helvetica,sans-Serif" font-size="10.00">Scene::getComponent</text>
</a>
</g>
</g>
<!-- Node2&#45;&gt;Node4 -->
<g id="edge3" class="edge"><title>Node2&#45;&gt;Node4</title>
<path fill="none" stroke="midnightblue" d="M186.853,-512.691C203.439,-528.472 238.607,-559.694 274,-577 283.665,-581.726 294.378,-585.608 304.96,-588.768"/>
<polygon fill="midnightblue" stroke="midnightblue" points="304.035,-592.144 314.609,-591.471 305.924,-585.403 304.035,-592.144"/>
</g>
<!-- Node7 -->
<g id="node7" class="node"><title>Node7</title>
<g id="a_node7"><a xlink:href="../../d6/db5/class_scene.html#ae05acfccb36d74a21bd4988a2b562ceb" target="_top" xlink:title=" ">
<polygon fill="white" stroke="black" points="286.5,-630 286.5,-660 445.5,-660 445.5,-630 286.5,-630"/>
<text text-anchor="start" x="294.5" y="-648" font-family="Helvetica,sans-Serif" font-size="10.00">Scene::getFirstActiveComponent</text>
<text text-anchor="middle" x="366" y="-637" font-family="Helvetica,sans-Serif" font-size="10.00">OfType</text>
</a>
</g>
</g>
<!-- Node2&#45;&gt;Node7 -->
<g id="edge6" class="edge"><title>Node2&#45;&gt;Node7</title>
<path fill="none" stroke="midnightblue" d="M182.15,-512.562C194.716,-534.956 229.224,-591.088 274,-620 277.144,-622.03 280.452,-623.897 283.869,-625.614"/>
<polygon fill="midnightblue" stroke="midnightblue" points="282.579,-628.872 293.132,-629.816 285.471,-622.497 282.579,-628.872"/>
</g>
<!-- Node8 -->
<g id="node8" class="node"><title>Node8</title>
<g id="a_node8"><a xlink:href="../../d2/d23/class_locator.html#a310ebd51e96b6341e25471b651afaf34" target="_top" xlink:title=" ">
<polygon fill="white" stroke="black" points="711,-646 711,-676 833,-676 833,-646 711,-646"/>
<text text-anchor="start" x="719" y="-664" font-family="Helvetica,sans-Serif" font-size="10.00">Locator&lt; Input, NullInput</text>
<text text-anchor="middle" x="772" y="-653" font-family="Helvetica,sans-Serif" font-size="10.00"> &gt;::getService</text>
</a>
</g>
</g>
<!-- Node2&#45;&gt;Node8 -->
<g id="edge8" class="edge"><title>Node2&#45;&gt;Node8</title>
<path fill="none" stroke="midnightblue" d="M211.828,-512.538C230.217,-517.34 253.221,-522.979 274,-527 360.146,-543.67 590.717,-535.297 665,-582 689.419,-597.353 678.265,-618.249 701,-636 703.289,-637.787 705.716,-639.453 708.239,-641.005"/>
<polygon fill="midnightblue" stroke="midnightblue" points="706.675,-644.139 717.129,-645.857 710.028,-637.994 706.675,-644.139"/>
</g>
<!-- Node9 -->
<g id="node9" class="node"><title>Node9</title>
<g id="a_node9"><a xlink:href="../../d4/d7b/class_input.html#a2aaf873636cedf13e51a424eb6ea802b" target="_top" xlink:title=" ">
<polygon fill="white" stroke="black" points="520,-427.5 520,-446.5 639,-446.5 639,-427.5 520,-427.5"/>
<text text-anchor="middle" x="579.5" y="-434.5" font-family="Helvetica,sans-Serif" font-size="10.00">Input::keyPressedOnce</text>
</a>
</g>
</g>
<!-- Node2&#45;&gt;Node9 -->
<g id="edge9" class="edge"><title>Node2&#45;&gt;Node9</title>
<path fill="none" stroke="midnightblue" d="M192.068,-493.386C210.552,-482.154 243.231,-464.079 274,-456 352.982,-435.263 447.267,-432.612 509.779,-433.784"/>
<polygon fill="midnightblue" stroke="midnightblue" points="509.839,-437.286 519.916,-434.013 509.998,-430.288 509.839,-437.286"/>
</g>
<!-- Node10 -->
<g id="node10" class="node"><title>Node10</title>
<g id="a_node10"><a xlink:href="../../d4/d4f/class_player_camera_handling_system.html#a94f1d2b673b85a1fbbbe39a3759d3bf3" target="_top" xlink:title=" ">
<polygon fill="white" stroke="black" points="274,-127 274,-157 458,-157 458,-127 274,-127"/>
<text text-anchor="start" x="282" y="-145" font-family="Helvetica,sans-Serif" font-size="10.00">PlayerCameraHandlingSystem</text>
<text text-anchor="middle" x="366" y="-134" font-family="Helvetica,sans-Serif" font-size="10.00">::setThirdPersonCameraTargetPosition</text>
</a>
</g>
</g>
<!-- Node2&#45;&gt;Node10 -->
<g id="edge10" class="edge"><title>Node2&#45;&gt;Node10</title>
<path fill="none" stroke="midnightblue" d="M181.772,-493.423C195.749,-465.413 237.886,-381.25 274,-312 301.191,-259.86 333.912,-199.232 351.772,-166.314"/>
<polygon fill="midnightblue" stroke="midnightblue" points="354.911,-167.869 356.607,-157.411 348.759,-164.529 354.911,-167.869"/>
</g>
<!-- Node13 -->
<g id="node13" class="node"><title>Node13</title>
<g id="a_node13"><a xlink:href="../../d7/dd6/class_pause_menu_system.html#a7c17c731da14866fbbfb186f50b7824e" target="_top" xlink:title=" ">
<polygon fill="white" stroke="black" points="297.5,-321.5 297.5,-340.5 434.5,-340.5 434.5,-321.5 297.5,-321.5"/>
<text text-anchor="middle" x="366" y="-328.5" font-family="Helvetica,sans-Serif" font-size="10.00">PauseMenuSystem::update</text>
</a>
</g>
</g>
<!-- Node2&#45;&gt;Node13 -->
<g id="edge13" class="edge"><title>Node2&#45;&gt;Node13</title>
<path fill="none" stroke="midnightblue" d="M187.646,-493.26C218.539,-464.996 308.451,-382.736 347.052,-347.421"/>
<polygon fill="midnightblue" stroke="midnightblue" points="349.455,-349.966 354.47,-340.633 344.73,-344.801 349.455,-349.966"/>
</g>
<!-- Node28 -->
<g id="node28" class="node"><title>Node28</title>
<g id="a_node28"><a xlink:href="../../d4/df8/class_camera_system.html#a9bb59c07839a3bf41290e49f367d8fd6" target="_top" xlink:title=" ">
<polygon fill="white" stroke="black" points="520,-515.5 520,-534.5 639,-534.5 639,-515.5 520,-515.5"/>
<text text-anchor="middle" x="579.5" y="-522.5" font-family="Helvetica,sans-Serif" font-size="10.00">CameraSystem::update</text>
</a>
</g>
</g>
<!-- Node2&#45;&gt;Node28 -->
<g id="edge29" class="edge"><title>Node2&#45;&gt;Node28</title>
<path fill="none" stroke="midnightblue" d="M238.416,-506.365C311.577,-510.374 433.457,-517.052 509.718,-521.231"/>
<polygon fill="midnightblue" stroke="midnightblue" points="509.529,-524.726 519.705,-521.778 509.912,-517.736 509.529,-524.726"/>
</g>
<!-- Node34 -->
<g id="node34" class="node"><title>Node34</title>
<g id="a_node34"><a xlink:href="../../d5/d50/class_player_controller_system.html#ae968cd78ae054ed5521f19c6d3793933" target="_top" xlink:title=" ">
<polygon fill="white" stroke="black" points="306.5,-39 306.5,-69 425.5,-69 425.5,-39 306.5,-39"/>
<text text-anchor="start" x="314.5" y="-57" font-family="Helvetica,sans-Serif" font-size="10.00">PlayerControllerSystem</text>
<text text-anchor="middle" x="366" y="-46" font-family="Helvetica,sans-Serif" font-size="10.00">::update</text>
</a>
</g>
</g>
<!-- Node2&#45;&gt;Node34 -->
<g id="edge38" class="edge"><title>Node2&#45;&gt;Node34</title>
<path fill="none" stroke="midnightblue" d="M177.025,-493.323C177.597,-447.025 185.286,-245.094 274,-117 286.391,-99.1091 305.629,-84.7175 323.231,-74.2308"/>
<polygon fill="midnightblue" stroke="midnightblue" points="325.28,-77.0919 332.242,-69.1051 321.819,-71.0075 325.28,-77.0919"/>
</g>
<!-- Node38 -->
<g id="node38" class="node"><title>Node38</title>
<g id="a_node38"><a xlink:href="../../df/d86/class_default_particle_system.html#a1304aae47238ab24cf8653c2b423d207" target="_top" xlink:title=" ">
<polygon fill="white" stroke="black" points="309.5,-466 309.5,-496 422.5,-496 422.5,-466 309.5,-466"/>
<text text-anchor="start" x="317.5" y="-484" font-family="Helvetica,sans-Serif" font-size="10.00">DefaultParticleSystem</text>
<text text-anchor="middle" x="366" y="-473" font-family="Helvetica,sans-Serif" font-size="10.00">::updateParticles</text>
</a>
</g>
</g>
<!-- Node2&#45;&gt;Node38 -->
<g id="edge42" class="edge"><title>Node2&#45;&gt;Node38</title>
<path fill="none" stroke="midnightblue" d="M238.038,-495.857C257.577,-493.571 279.291,-491.03 299.156,-488.705"/>
<polygon fill="midnightblue" stroke="midnightblue" points="299.829,-492.15 309.355,-487.512 299.016,-485.198 299.829,-492.15"/>
</g>
<!-- Node5 -->
<g id="node5" class="node"><title>Node5</title>
<g id="a_node5"><a xlink:href="../../d6/db5/class_scene.html#af06ab78544ec997fd8e480762b2cc40a" target="_top" xlink:title=" ">
<polygon fill="white" stroke="black" points="494,-632.5 494,-651.5 665,-651.5 665,-632.5 494,-632.5"/>
<text text-anchor="middle" x="579.5" y="-639.5" font-family="Helvetica,sans-Serif" font-size="10.00">Scene::binarySearchForComponent</text>
</a>
</g>
</g>
<!-- Node4&#45;&gt;Node5 -->
<g id="edge4" class="edge"><title>Node4&#45;&gt;Node5</title>
<path fill="none" stroke="midnightblue" d="M416.054,-610.509C446.908,-616.491 486.905,-624.244 519.49,-630.561"/>
<polygon fill="midnightblue" stroke="midnightblue" points="518.863,-634.004 529.346,-632.471 520.195,-627.132 518.863,-634.004"/>
</g>
<!-- Node6 -->
<g id="node6" class="node"><title>Node6</title>
<g id="a_node6"><a xlink:href="../../d6/db5/class_scene.html#a55c346bea3f04eb9d9f8476a68c2fa93" target="_top" xlink:title=" ">
<polygon fill="white" stroke="black" points="506,-591.5 506,-610.5 653,-610.5 653,-591.5 506,-591.5"/>
<text text-anchor="middle" x="579.5" y="-598.5" font-family="Helvetica,sans-Serif" font-size="10.00">Scene::binarySearchForEntity</text>
</a>
</g>
</g>
<!-- Node4&#45;&gt;Node6 -->
<g id="edge5" class="edge"><title>Node4&#45;&gt;Node6</title>
<path fill="none" stroke="midnightblue" d="M422.569,-601C444.944,-601 471.22,-601 495.759,-601"/>
<polygon fill="midnightblue" stroke="midnightblue" points="495.788,-604.5 505.788,-601 495.788,-597.5 495.788,-604.5"/>
</g>
<!-- Node7&#45;&gt;Node5 -->
<g id="edge7" class="edge"><title>Node7&#45;&gt;Node5</title>
<path fill="none" stroke="midnightblue" d="M445.755,-643.883C458.08,-643.708 470.93,-643.526 483.571,-643.347"/>
<polygon fill="midnightblue" stroke="midnightblue" points="483.701,-646.845 493.651,-643.204 483.602,-639.846 483.701,-646.845"/>
</g>
<!-- Node11 -->
<g id="node11" class="node"><title>Node11</title>
<g id="a_node11"><a xlink:href="../../d4/df7/class_player_camera_handler.html#a02eb98ad960e5b71b0b17189426c0f1d" target="_top" xlink:title=" ">
<polygon fill="white" stroke="black" points="518.5,-127 518.5,-157 640.5,-157 640.5,-127 518.5,-127"/>
<text text-anchor="start" x="526.5" y="-145" font-family="Helvetica,sans-Serif" font-size="10.00">PlayerCameraHandler</text>
<text text-anchor="middle" x="579.5" y="-134" font-family="Helvetica,sans-Serif" font-size="10.00">::getCameraTargetOffset</text>
</a>
</g>
</g>
<!-- Node10&#45;&gt;Node11 -->
<g id="edge11" class="edge"><title>Node10&#45;&gt;Node11</title>
<path fill="none" stroke="midnightblue" d="M458.23,-142C474.921,-142 492.105,-142 508.074,-142"/>
<polygon fill="midnightblue" stroke="midnightblue" points="508.376,-145.5 518.376,-142 508.376,-138.5 508.376,-145.5"/>
</g>
<!-- Node12 -->
<g id="node12" class="node"><title>Node12</title>
<g id="a_node12"><a xlink:href="../../da/dbb/class_camera.html#a4bd1cfe2d720f762d3c983370421c029" target="_top" xlink:title=" ">
<polygon fill="white" stroke="black" points="513.5,-88.5 513.5,-107.5 645.5,-107.5 645.5,-88.5 513.5,-88.5"/>
<text text-anchor="middle" x="579.5" y="-95.5" font-family="Helvetica,sans-Serif" font-size="10.00">Camera::setTargetPosition</text>
</a>
</g>
</g>
<!-- Node10&#45;&gt;Node12 -->
<g id="edge12" class="edge"><title>Node10&#45;&gt;Node12</title>
<path fill="none" stroke="midnightblue" d="M439.195,-126.981C466.557,-121.288 497.262,-114.901 522.868,-109.574"/>
<polygon fill="midnightblue" stroke="midnightblue" points="523.698,-112.976 532.776,-107.512 522.272,-106.123 523.698,-112.976"/>
</g>
<!-- Node13&#45;&gt;Node9 -->
<g id="edge16" class="edge"><title>Node13&#45;&gt;Node9</title>
<path fill="none" stroke="midnightblue" d="M378.023,-340.751C399.041,-358.814 446.957,-397.504 494,-418 499.79,-420.523 505.954,-422.729 512.214,-424.655"/>
<polygon fill="midnightblue" stroke="midnightblue" points="511.515,-428.094 522.091,-427.455 513.425,-421.36 511.515,-428.094"/>
</g>
<!-- Node14 -->
<g id="node14" class="node"><title>Node14</title>
<g id="a_node14"><a xlink:href="../../d9/dd8/class_user_controls.html#ab577475a2b33671f1f5697fbe0e0cc49" target="_top" xlink:title=" ">
<polygon fill="white" stroke="black" points="510.5,-340 510.5,-370 648.5,-370 648.5,-340 510.5,-340"/>
<text text-anchor="start" x="518.5" y="-358" font-family="Helvetica,sans-Serif" font-size="10.00">UserControls::getGuiControl</text>
<text text-anchor="middle" x="579.5" y="-347" font-family="Helvetica,sans-Serif" font-size="10.00">PauseMenuKey</text>
</a>
</g>
</g>
<!-- Node13&#45;&gt;Node14 -->
<g id="edge14" class="edge"><title>Node13&#45;&gt;Node14</title>
<path fill="none" stroke="midnightblue" d="M434.501,-338.66C455.374,-341.028 478.545,-343.658 500.09,-346.102"/>
<polygon fill="midnightblue" stroke="midnightblue" points="499.857,-349.598 510.188,-347.248 500.646,-342.643 499.857,-349.598"/>
</g>
<!-- Node15 -->
<g id="node15" class="node"><title>Node15</title>
<g id="a_node15"><a xlink:href="../../d7/d06/class_g_u_i_resizing_information.html#aa8fb79fc71098f1cf2ce4fac2d5c79ac" target="_top" xlink:title=" ">
<polygon fill="white" stroke="black" points="520.5,-291 520.5,-321 638.5,-321 638.5,-291 520.5,-291"/>
<text text-anchor="start" x="528.5" y="-309" font-family="Helvetica,sans-Serif" font-size="10.00">GUIResizingInformation</text>
<text text-anchor="middle" x="579.5" y="-298" font-family="Helvetica,sans-Serif" font-size="10.00">::getWidthUnit</text>
</a>
</g>
</g>
<!-- Node13&#45;&gt;Node15 -->
<g id="edge15" class="edge"><title>Node13&#45;&gt;Node15</title>
<path fill="none" stroke="midnightblue" d="M434.501,-323.021C458.619,-320.17 485.805,-316.957 510.006,-314.096"/>
<polygon fill="midnightblue" stroke="midnightblue" points="510.657,-317.544 520.177,-312.894 509.836,-310.592 510.657,-317.544"/>
</g>
<!-- Node16 -->
<g id="node16" class="node"><title>Node16</title>
<g id="a_node16"><a xlink:href="../../d6/d17/class_gui_button.html#aa019fa7e0fbe4a380899cb9ddb418317" target="_top" xlink:title=" ">
<polygon fill="white" stroke="black" points="499,-252.5 499,-271.5 660,-271.5 660,-252.5 499,-252.5"/>
<text text-anchor="middle" x="579.5" y="-259.5" font-family="Helvetica,sans-Serif" font-size="10.00">GuiButton::onButtonClickedOnce</text>
</a>
</g>
</g>
<!-- Node13&#45;&gt;Node16 -->
<g id="edge17" class="edge"><title>Node13&#45;&gt;Node16</title>
<path fill="none" stroke="midnightblue" d="M388.214,-321.482C413.144,-310.572 455.947,-292.693 494,-281 502.354,-278.433 511.271,-276.052 520.064,-273.905"/>
<polygon fill="midnightblue" stroke="midnightblue" points="520.974,-277.287 529.903,-271.583 519.366,-270.474 520.974,-277.287"/>
</g>
<!-- Node17 -->
<g id="node17" class="node"><title>Node17</title>
<g id="a_node17"><a xlink:href="../../d1/db9/class_gui_sprite.html#a6ec7ef9580657e062cea7f5ce8bcb515" target="_top" xlink:title=" ">
<polygon fill="white" stroke="black" points="529,-214.5 529,-233.5 630,-233.5 630,-214.5 529,-214.5"/>
<text text-anchor="middle" x="579.5" y="-221.5" font-family="Helvetica,sans-Serif" font-size="10.00">GuiSprite::setScale</text>
</a>
</g>
</g>
<!-- Node13&#45;&gt;Node17 -->
<g id="edge18" class="edge"><title>Node13&#45;&gt;Node17</title>
<path fill="none" stroke="midnightblue" d="M377.675,-321.415C398.483,-303.257 446.593,-263.806 494,-243 501.818,-239.569 510.325,-236.725 518.831,-234.377"/>
<polygon fill="midnightblue" stroke="midnightblue" points="519.948,-237.704 528.774,-231.842 518.219,-230.921 519.948,-237.704"/>
</g>
<!-- Node18 -->
<g id="node18" class="node"><title>Node18</title>
<g id="a_node18"><a xlink:href="../../dd/df5/class_gui_string.html#a964f40eb765b7ad9827284b65ac2c9fc" target="_top" xlink:title=" ">
<polygon fill="white" stroke="black" points="529,-176.5 529,-195.5 630,-195.5 630,-176.5 529,-176.5"/>
<text text-anchor="middle" x="579.5" y="-183.5" font-family="Helvetica,sans-Serif" font-size="10.00">GuiString::setScale</text>
</a>
</g>
</g>
<!-- Node13&#45;&gt;Node18 -->
<g id="edge19" class="edge"><title>Node13&#45;&gt;Node18</title>
<path fill="none" stroke="midnightblue" d="M373.714,-321.285C390.781,-297.381 438.436,-235.449 494,-205 501.76,-200.747 510.418,-197.446 519.151,-194.883"/>
<polygon fill="midnightblue" stroke="midnightblue" points="520.219,-198.221 528.999,-192.292 518.437,-191.452 520.219,-198.221"/>
</g>
<!-- Node19 -->
<g id="node19" class="node"><title>Node19</title>
<g id="a_node19"><a xlink:href="../../d6/d17/class_gui_button.html#acfb469dd9337dc5ebf70e32037b02851" target="_top" xlink:title=" ">
<polygon fill="white" stroke="black" points="532,-389.5 532,-408.5 627,-408.5 627,-389.5 532,-389.5"/>
<text text-anchor="middle" x="579.5" y="-396.5" font-family="Helvetica,sans-Serif" font-size="10.00">GuiButton::update</text>
</a>
</g>
</g>
<!-- Node13&#45;&gt;Node19 -->
<g id="edge20" class="edge"><title>Node13&#45;&gt;Node19</title>
<path fill="none" stroke="midnightblue" d="M389.636,-340.571C414.801,-350.971 456.809,-367.623 494,-379 503.515,-381.911 513.74,-384.65 523.676,-387.113"/>
<polygon fill="midnightblue" stroke="midnightblue" points="522.938,-390.535 533.48,-389.479 524.581,-383.73 522.938,-390.535"/>
</g>
<!-- Node20 -->
<g id="node20" class="node"><title>Node20</title>
<g id="a_node20"><a xlink:href="../../d4/d7b/class_input.html#a8e3bbc45ca89de6dc03cd870d0909345" target="_top" xlink:title=" ">
<polygon fill="white" stroke="black" points="714.5,-367.5 714.5,-386.5 829.5,-386.5 829.5,-367.5 714.5,-367.5"/>
<text text-anchor="middle" x="772" y="-374.5" font-family="Helvetica,sans-Serif" font-size="10.00">Input::getMouseButton</text>
</a>
</g>
</g>
<!-- Node19&#45;&gt;Node20 -->
<g id="edge21" class="edge"><title>Node19&#45;&gt;Node20</title>
<path fill="none" stroke="midnightblue" d="M627.102,-393.618C650.343,-390.934 678.866,-387.64 704.371,-384.695"/>
<polygon fill="midnightblue" stroke="midnightblue" points="704.816,-388.167 714.348,-383.542 704.013,-381.213 704.816,-388.167"/>
</g>
<!-- Node21 -->
<g id="node21" class="node"><title>Node21</title>
<g id="a_node21"><a xlink:href="../../d4/d7b/class_input.html#aa10d2871226e0b497010dfca43fe278b" target="_top" xlink:title=" ">
<polygon fill="white" stroke="black" points="711,-329.5 711,-348.5 833,-348.5 833,-329.5 711,-329.5"/>
<text text-anchor="middle" x="772" y="-336.5" font-family="Helvetica,sans-Serif" font-size="10.00">Input::getMousePosition</text>
</a>
</g>
</g>
<!-- Node19&#45;&gt;Node21 -->
<g id="edge22" class="edge"><title>Node19&#45;&gt;Node21</title>
<path fill="none" stroke="midnightblue" d="M627.312,-390.516C639.788,-387.558 653.101,-383.756 665,-379 682.2,-372.125 683.914,-365.155 701,-358 706.717,-355.606 712.823,-353.43 718.957,-351.477"/>
<polygon fill="midnightblue" stroke="midnightblue" points="719.997,-354.82 728.568,-348.593 717.984,-348.115 719.997,-354.82"/>
</g>
<!-- Node22 -->
<g id="node22" class="node"><title>Node22</title>
<g id="a_node22"><a xlink:href="../../d6/d17/class_gui_button.html#a571aa197ec582b526b5d6e2639bad843" target="_top" xlink:title=" ">
<polygon fill="white" stroke="black" points="703.5,-406 703.5,-436 840.5,-436 840.5,-406 703.5,-406"/>
<text text-anchor="start" x="711.5" y="-424" font-family="Helvetica,sans-Serif" font-size="10.00">GuiButton::mouseCoordsTo</text>
<text text-anchor="middle" x="772" y="-413" font-family="Helvetica,sans-Serif" font-size="10.00">ScreenCoords</text>
</a>
</g>
</g>
<!-- Node19&#45;&gt;Node22 -->
<g id="edge23" class="edge"><title>Node19&#45;&gt;Node22</title>
<path fill="none" stroke="midnightblue" d="M627.102,-404.382C646.97,-406.676 670.699,-409.417 693.102,-412.004"/>
<polygon fill="midnightblue" stroke="midnightblue" points="692.948,-415.509 703.284,-413.18 693.751,-408.556 692.948,-415.509"/>
</g>
<!-- Node27 -->
<g id="node27" class="node"><title>Node27</title>
<g id="a_node27"><a xlink:href="../../d6/d17/class_gui_button.html#a72312192b57055be324335dd1ed88a3d" target="_top" xlink:title=" ">
<polygon fill="white" stroke="black" points="708,-280 708,-310 836,-310 836,-280 708,-280"/>
<text text-anchor="start" x="716" y="-298" font-family="Helvetica,sans-Serif" font-size="10.00">GuiButton::mouseIsInside</text>
<text text-anchor="middle" x="772" y="-287" font-family="Helvetica,sans-Serif" font-size="10.00">Button</text>
</a>
</g>
</g>
<!-- Node19&#45;&gt;Node27 -->
<g id="edge28" class="edge"><title>Node19&#45;&gt;Node27</title>
<path fill="none" stroke="midnightblue" d="M627.159,-394.729C640.314,-391.805 654.018,-386.968 665,-379 689.863,-360.96 677.172,-339.386 701,-320 703.058,-318.325 705.238,-316.758 707.505,-315.293"/>
<polygon fill="midnightblue" stroke="midnightblue" points="709.645,-318.103 716.619,-310.128 706.194,-312.013 709.645,-318.103"/>
</g>
<!-- Node23 -->
<g id="node23" class="node"><title>Node23</title>
<g id="a_node23"><a xlink:href="../../d4/d58/namespace_game_info.html#a344c7e16ac06ee1f8458a249aac36e8e" target="_top" xlink:title=" ">
<polygon fill="white" stroke="black" points="879,-484.5 879,-503.5 1019,-503.5 1019,-484.5 879,-484.5"/>
<text text-anchor="middle" x="949" y="-491.5" font-family="Helvetica,sans-Serif" font-size="10.00">GameInfo::getWindowHeight</text>
</a>
</g>
</g>
<!-- Node22&#45;&gt;Node23 -->
<g id="edge24" class="edge"><title>Node22&#45;&gt;Node23</title>
<path fill="none" stroke="midnightblue" d="M816.907,-436.03C825.605,-439.19 834.631,-442.6 843,-446 869.13,-456.616 898.259,-470.064 919.194,-480.023"/>
<polygon fill="midnightblue" stroke="midnightblue" points="917.949,-483.307 928.48,-484.467 920.971,-476.993 917.949,-483.307"/>
</g>
<!-- Node25 -->
<g id="node25" class="node"><title>Node25</title>
<g id="a_node25"><a xlink:href="../../d4/d58/namespace_game_info.html#a7cf2306eb3025a60a9e2da52eefba71e" target="_top" xlink:title=" ">
<polygon fill="white" stroke="black" points="880.5,-427.5 880.5,-446.5 1017.5,-446.5 1017.5,-427.5 880.5,-427.5"/>
<text text-anchor="middle" x="949" y="-434.5" font-family="Helvetica,sans-Serif" font-size="10.00">GameInfo::getWindowWidth</text>
</a>
</g>
</g>
<!-- Node22&#45;&gt;Node25 -->
<g id="edge26" class="edge"><title>Node22&#45;&gt;Node25</title>
<path fill="none" stroke="midnightblue" d="M840.66,-427.186C850.297,-428.067 860.272,-428.979 870.086,-429.876"/>
<polygon fill="midnightblue" stroke="midnightblue" points="869.955,-433.379 880.232,-430.804 870.592,-426.408 869.955,-433.379"/>
</g>
<!-- Node24 -->
<g id="node24" class="node"><title>Node24</title>
<g id="a_node24"><a xlink:href="../../de/d6b/class_application.html#a0398d40c89d52bb8d6ac6ac466c5d30c" target="_top" xlink:title=" ">
<polygon fill="white" stroke="black" points="1055,-479 1055,-509 1200,-509 1200,-479 1055,-479"/>
<text text-anchor="start" x="1063" y="-497" font-family="Helvetica,sans-Serif" font-size="10.00">Application::getGameWindow</text>
<text text-anchor="middle" x="1127.5" y="-486" font-family="Helvetica,sans-Serif" font-size="10.00">Height</text>
</a>
</g>
</g>
<!-- Node23&#45;&gt;Node24 -->
<g id="edge25" class="edge"><title>Node23&#45;&gt;Node24</title>
<path fill="none" stroke="midnightblue" d="M1019.25,-494C1027.56,-494 1036.1,-494 1044.57,-494"/>
<polygon fill="midnightblue" stroke="midnightblue" points="1044.83,-497.5 1054.83,-494 1044.83,-490.5 1044.83,-497.5"/>
</g>
<!-- Node26 -->
<g id="node26" class="node"><title>Node26</title>
<g id="a_node26"><a xlink:href="../../de/d6b/class_application.html#aad8864ec1fa58ee23db7b111876d09a5" target="_top" xlink:title=" ">
<polygon fill="white" stroke="black" points="1055,-422 1055,-452 1200,-452 1200,-422 1055,-422"/>
<text text-anchor="start" x="1063" y="-440" font-family="Helvetica,sans-Serif" font-size="10.00">Application::getGameWindow</text>
<text text-anchor="middle" x="1127.5" y="-429" font-family="Helvetica,sans-Serif" font-size="10.00">Width</text>
</a>
</g>
</g>
<!-- Node25&#45;&gt;Node26 -->
<g id="edge27" class="edge"><title>Node25&#45;&gt;Node26</title>
<path fill="none" stroke="midnightblue" d="M1017.73,-437C1026.56,-437 1035.68,-437 1044.71,-437"/>
<polygon fill="midnightblue" stroke="midnightblue" points="1044.85,-440.5 1054.85,-437 1044.85,-433.5 1044.85,-440.5"/>
</g>
<!-- Node28&#45;&gt;Node8 -->
<g id="edge35" class="edge"><title>Node28&#45;&gt;Node8</title>
<path fill="none" stroke="midnightblue" d="M639.062,-534.134C648.506,-537.615 657.597,-542.407 665,-549 696.25,-576.831 670.69,-607.149 701,-636 702.633,-637.554 704.369,-639.013 706.186,-640.381"/>
<polygon fill="midnightblue" stroke="midnightblue" points="704.31,-643.336 714.609,-645.825 708.11,-637.457 704.31,-643.336"/>
</g>
<!-- Node29 -->
<g id="node29" class="node"><title>Node29</title>
<g id="a_node29"><a xlink:href="../../da/dbb/class_camera.html#ad4f098389debf103ea7a26e344a653dd" target="_top" xlink:title=" ">
<polygon fill="white" stroke="black" points="701,-607.5 701,-626.5 843,-626.5 843,-607.5 701,-607.5"/>
<text text-anchor="middle" x="772" y="-614.5" font-family="Helvetica,sans-Serif" font-size="10.00">Camera::getCameraDistance</text>
</a>
</g>
</g>
<!-- Node28&#45;&gt;Node29 -->
<g id="edge30" class="edge"><title>Node28&#45;&gt;Node29</title>
<path fill="none" stroke="midnightblue" d="M634.287,-534.524C645.055,-537.97 655.856,-542.65 665,-549 687.197,-564.413 678.713,-582.717 701,-598 703.945,-600.02 707.097,-601.825 710.373,-603.439"/>
<polygon fill="midnightblue" stroke="midnightblue" points="709.298,-606.785 719.868,-607.498 712.049,-600.349 709.298,-606.785"/>
</g>
<!-- Node30 -->
<g id="node30" class="node"><title>Node30</title>
<g id="a_node30"><a xlink:href="../../d4/d58/namespace_game_info.html#aa6186a79a90a3fcd2556c4282b20a077" target="_top" xlink:title=" ">
<polygon fill="white" stroke="black" points="711.5,-455.5 711.5,-474.5 832.5,-474.5 832.5,-455.5 711.5,-455.5"/>
<text text-anchor="middle" x="772" y="-462.5" font-family="Helvetica,sans-Serif" font-size="10.00">GameInfo::getDeltaTime</text>
</a>
</g>
</g>
<!-- Node28&#45;&gt;Node30 -->
<g id="edge31" class="edge"><title>Node28&#45;&gt;Node30</title>
<path fill="none" stroke="midnightblue" d="M635.397,-515.408C645.425,-512.886 655.663,-509.782 665,-506 682.379,-498.96 683.779,-491.419 701,-484 706.482,-481.638 712.335,-479.499 718.232,-477.582"/>
<polygon fill="midnightblue" stroke="midnightblue" points="719.595,-480.826 728.142,-474.564 717.556,-474.129 719.595,-480.826"/>
</g>
<!-- Node31 -->
<g id="node31" class="node"><title>Node31</title>
<g id="a_node31"><a xlink:href="../../d4/d7b/class_input.html#a971adcc605a1101f162e2be7a5c16a5e" target="_top" xlink:title=" ">
<polygon fill="white" stroke="black" points="717.5,-493.5 717.5,-512.5 826.5,-512.5 826.5,-493.5 717.5,-493.5"/>
<text text-anchor="middle" x="772" y="-500.5" font-family="Helvetica,sans-Serif" font-size="10.00">Input::getMouseDelta</text>
</a>
</g>
</g>
<!-- Node28&#45;&gt;Node31 -->
<g id="edge32" class="edge"><title>Node28&#45;&gt;Node31</title>
<path fill="none" stroke="midnightblue" d="M639.211,-518.22C660.729,-515.735 685.179,-512.911 707.127,-510.376"/>
<polygon fill="midnightblue" stroke="midnightblue" points="707.812,-513.821 717.345,-509.196 707.009,-506.867 707.812,-513.821"/>
</g>
<!-- Node32 -->
<g id="node32" class="node"><title>Node32</title>
<g id="a_node32"><a xlink:href="../../da/dbb/class_camera.html#a4849cb25adcc05df85e1cfba9da77a33" target="_top" xlink:title=" ">
<polygon fill="white" stroke="black" points="701,-569.5 701,-588.5 843,-588.5 843,-569.5 701,-569.5"/>
<text text-anchor="middle" x="772" y="-576.5" font-family="Helvetica,sans-Serif" font-size="10.00">Camera::setCameraDistance</text>
</a>
</g>
</g>
<!-- Node28&#45;&gt;Node32 -->
<g id="edge36" class="edge"><title>Node28&#45;&gt;Node32</title>
<path fill="none" stroke="midnightblue" d="M614.67,-534.539C630.069,-538.881 648.47,-544.128 665,-549 681.048,-553.73 684.925,-555.364 701,-560 708.828,-562.258 717.17,-564.588 725.266,-566.809"/>
<polygon fill="midnightblue" stroke="midnightblue" points="724.4,-570.201 734.969,-569.453 726.241,-563.447 724.4,-570.201"/>
</g>
<!-- Node33 -->
<g id="node33" class="node"><title>Node33</title>
<g id="a_node33"><a xlink:href="../../d7/dd1/namespacehh.html#ad58b31143e949894df4e3ca4eaa20550" target="_top" xlink:title=" ">
<polygon fill="white" stroke="black" points="710,-531.5 710,-550.5 834,-550.5 834,-531.5 710,-531.5"/>
<text text-anchor="middle" x="772" y="-538.5" font-family="Helvetica,sans-Serif" font-size="10.00">hh::sphericalToCartisean</text>
</a>
</g>
</g>
<!-- Node28&#45;&gt;Node33 -->
<g id="edge37" class="edge"><title>Node28&#45;&gt;Node33</title>
<path fill="none" stroke="midnightblue" d="M639.211,-529.931C658.383,-531.541 679.883,-533.347 699.867,-535.026"/>
<polygon fill="midnightblue" stroke="midnightblue" points="699.589,-538.514 709.847,-535.864 700.175,-531.539 699.589,-538.514"/>
</g>
<!-- Node31&#45;&gt;Node23 -->
<g id="edge33" class="edge"><title>Node31&#45;&gt;Node23</title>
<path fill="none" stroke="midnightblue" d="M826.934,-500.226C840.106,-499.549 854.475,-498.81 868.563,-498.085"/>
<polygon fill="midnightblue" stroke="midnightblue" points="868.943,-501.571 878.75,-497.561 868.583,-494.58 868.943,-501.571"/>
</g>
<!-- Node31&#45;&gt;Node25 -->
<g id="edge34" class="edge"><title>Node31&#45;&gt;Node25</title>
<path fill="none" stroke="midnightblue" d="M812.578,-493.412C822.599,-490.67 833.275,-487.472 843,-484 869.629,-474.491 898.919,-461.125 919.782,-451.076"/>
<polygon fill="midnightblue" stroke="midnightblue" points="921.557,-454.104 929.016,-446.58 918.493,-447.811 921.557,-454.104"/>
</g>
<!-- Node35 -->
<g id="node35" class="node"><title>Node35</title>
<g id="a_node35"><a xlink:href="../../d5/d50/class_player_controller_system.html#a9b0be7cb86a889e07b30d9fa68a7aaa7" target="_top" xlink:title=" ">
<polygon fill="white" stroke="black" points="520,-39 520,-69 639,-69 639,-39 520,-39"/>
<text text-anchor="start" x="528" y="-57" font-family="Helvetica,sans-Serif" font-size="10.00">PlayerControllerSystem</text>
<text text-anchor="middle" x="579.5" y="-46" font-family="Helvetica,sans-Serif" font-size="10.00">::applyNewRotation</text>
</a>
</g>
</g>
<!-- Node34&#45;&gt;Node35 -->
<g id="edge39" class="edge"><title>Node34&#45;&gt;Node35</title>
<path fill="none" stroke="midnightblue" d="M425.634,-54C451.65,-54 482.449,-54 509.56,-54"/>
<polygon fill="midnightblue" stroke="midnightblue" points="509.752,-57.5001 519.752,-54 509.752,-50.5001 509.752,-57.5001"/>
</g>
<!-- Node37 -->
<g id="node37" class="node"><title>Node37</title>
<g id="a_node37"><a xlink:href="../../da/dbb/class_camera.html#ae44d552243a7b430e94ed9e70adcf07b" target="_top" xlink:title=" ">
<polygon fill="white" stroke="black" points="527.5,-0.5 527.5,-19.5 631.5,-19.5 631.5,-0.5 527.5,-0.5"/>
<text text-anchor="middle" x="579.5" y="-7.5" font-family="Helvetica,sans-Serif" font-size="10.00">Camera::getForward</text>
</a>
</g>
</g>
<!-- Node34&#45;&gt;Node37 -->
<g id="edge41" class="edge"><title>Node34&#45;&gt;Node37</title>
<path fill="none" stroke="midnightblue" d="M425.634,-41.802C455.948,-35.4954 492.755,-27.8381 522.656,-21.6177"/>
<polygon fill="midnightblue" stroke="midnightblue" points="523.434,-25.0307 532.512,-19.5673 522.009,-18.1775 523.434,-25.0307"/>
</g>
<!-- Node36 -->
<g id="node36" class="node"><title>Node36</title>
<g id="a_node36"><a xlink:href="../../d7/dd1/namespacehh.html#aa744e19f5c464bf275c30a824f81b06e" target="_top" xlink:title=" ">
<polygon fill="white" stroke="black" points="705,-39 705,-69 839,-69 839,-39 705,-39"/>
<text text-anchor="start" x="713" y="-57" font-family="Helvetica,sans-Serif" font-size="10.00">hh::signedRadiansBetween</text>
<text text-anchor="middle" x="772" y="-46" font-family="Helvetica,sans-Serif" font-size="10.00">Vectors</text>
</a>
</g>
</g>
<!-- Node35&#45;&gt;Node36 -->
<g id="edge40" class="edge"><title>Node35&#45;&gt;Node36</title>
<path fill="none" stroke="midnightblue" d="M639.211,-54C656.737,-54 676.208,-54 694.688,-54"/>
<polygon fill="midnightblue" stroke="midnightblue" points="694.834,-57.5001 704.834,-54 694.834,-50.5001 694.834,-57.5001"/>
</g>
<!-- Node39 -->
<g id="node39" class="node"><title>Node39</title>
<g id="a_node39"><a xlink:href="../../df/d86/class_default_particle_system.html#a27c707a1f76448433785ce06a0f5152c" target="_top" xlink:title=" ">
<polygon fill="white" stroke="black" points="509,-466 509,-496 650,-496 650,-466 509,-466"/>
<text text-anchor="start" x="517" y="-484" font-family="Helvetica,sans-Serif" font-size="10.00">DefaultParticleSystem</text>
<text text-anchor="middle" x="579.5" y="-473" font-family="Helvetica,sans-Serif" font-size="10.00">::performParticleCalculations</text>
</a>
</g>
</g>
<!-- Node38&#45;&gt;Node39 -->
<g id="edge43" class="edge"><title>Node38&#45;&gt;Node39</title>
<path fill="none" stroke="midnightblue" d="M422.569,-481C445.804,-481 473.247,-481 498.582,-481"/>
<polygon fill="midnightblue" stroke="midnightblue" points="498.917,-484.5 508.917,-481 498.917,-477.5 498.917,-484.5"/>
</g>
<!-- Node39&#45;&gt;Node30 -->
<g id="edge44" class="edge"><title>Node39&#45;&gt;Node30</title>
<path fill="none" stroke="midnightblue" d="M650.084,-475.156C666.719,-473.759 684.483,-472.266 701.132,-470.868"/>
<polygon fill="midnightblue" stroke="midnightblue" points="701.661,-474.336 711.333,-470.011 701.076,-467.361 701.661,-474.336"/>
</g>
</g>
</svg>
