<?xml version="1.0" encoding="UTF-8" standalone="no"?>
<!DOCTYPE svg PUBLIC "-//W3C//DTD SVG 1.1//EN"
 "http://www.w3.org/Graphics/SVG/1.1/DTD/svg11.dtd">
<!-- Generated by graphviz version 2.38.0 (20140413.2041)
 -->
<!-- Title: Game::areVitalsNull Pages: 1 -->
<svg width="600pt" height="104pt"
 viewBox="0.00 0.00 600.00 104.00" xmlns="http://www.w3.org/2000/svg" xmlns:xlink="http://www.w3.org/1999/xlink">
<g id="graph0" class="graph" transform="scale(1 1) rotate(0) translate(4 100)">
<title>Game::areVitalsNull</title>
<polygon fill="white" stroke="none" points="-4,4 -4,-100 596,-100 596,4 -4,4"/>
<!-- Node1 -->
<g id="node1" class="node"><title>Node1</title>
<g id="a_node1"><a xlink:title="test">
<polygon fill="#bfbfbf" stroke="black" points="488,-38.5 488,-57.5 592,-57.5 592,-38.5 488,-38.5"/>
<text text-anchor="middle" x="540" y="-45.5" font-family="Helvetica,sans-Serif" font-size="10.00">Game::areVitalsNull</text>
</a>
</g>
</g>
<!-- Node2 -->
<g id="node2" class="node"><title>Node2</title>
<g id="a_node2"><a xlink:href="../../dd/d1f/class_game.html#a157e87f9dc147a5842ee6bdc06c95c17" target="_top" xlink:title=" ">
<polygon fill="white" stroke="black" points="352,-76.5 352,-95.5 452,-95.5 452,-76.5 352,-76.5"/>
<text text-anchor="middle" x="402" y="-83.5" font-family="Helvetica,sans-Serif" font-size="10.00">Game::fixedUpdate</text>
</a>
</g>
</g>
<!-- Node1&#45;&gt;Node2 -->
<g id="edge1" class="edge"><title>Node1&#45;&gt;Node2</title>
<path fill="none" stroke="midnightblue" d="M494.913,-60.3183C476.228,-65.5393 454.782,-71.5316 437.308,-76.4141"/>
<polygon fill="midnightblue" stroke="midnightblue" points="495.992,-63.651 504.681,-57.589 494.108,-56.9092 495.992,-63.651"/>
</g>
<!-- Node6 -->
<g id="node6" class="node"><title>Node6</title>
<g id="a_node6"><a xlink:href="../../dd/d1f/class_game.html#a8986a201a654418cefe34ec28af1a22c" target="_top" xlink:title=" ">
<polygon fill="white" stroke="black" points="360,-38.5 360,-57.5 444,-57.5 444,-38.5 360,-38.5"/>
<text text-anchor="middle" x="402" y="-45.5" font-family="Helvetica,sans-Serif" font-size="10.00">Game::initialize</text>
</a>
</g>
</g>
<!-- Node1&#45;&gt;Node6 -->
<g id="edge5" class="edge"><title>Node1&#45;&gt;Node6</title>
<path fill="none" stroke="midnightblue" d="M477.653,-48C466.3,-48 454.697,-48 444.127,-48"/>
<polygon fill="midnightblue" stroke="midnightblue" points="477.972,-51.5001 487.972,-48 477.972,-44.5001 477.972,-51.5001"/>
</g>
<!-- Node8 -->
<g id="node8" class="node"><title>Node8</title>
<g id="a_node8"><a xlink:href="../../dd/d1f/class_game.html#a15ddd769261d923827a3cdf41499c843" target="_top" xlink:title=" ">
<polygon fill="white" stroke="black" points="364,-0.5 364,-19.5 440,-19.5 440,-0.5 364,-0.5"/>
<text text-anchor="middle" x="402" y="-7.5" font-family="Helvetica,sans-Serif" font-size="10.00">Game::render</text>
</a>
</g>
</g>
<!-- Node1&#45;&gt;Node8 -->
<g id="edge8" class="edge"><title>Node1&#45;&gt;Node8</title>
<path fill="none" stroke="midnightblue" d="M494.913,-35.6817C476.228,-30.4607 454.782,-24.4684 437.308,-19.5859"/>
<polygon fill="midnightblue" stroke="midnightblue" points="494.108,-39.0908 504.681,-38.411 495.992,-32.349 494.108,-39.0908"/>
</g>
<!-- Node3 -->
<g id="node3" class="node"><title>Node3</title>
<g id="a_node3"><a xlink:href="../../de/d6b/class_application.html#a95c827cb5cf08bd0c3cc7b07ed4b4249" target="_top" xlink:title=" ">
<polygon fill="white" stroke="black" points="194,-76.5 194,-95.5 316,-95.5 316,-76.5 194,-76.5"/>
<text text-anchor="middle" x="255" y="-83.5" font-family="Helvetica,sans-Serif" font-size="10.00">Application::fixedUpdate</text>
</a>
</g>
</g>
<!-- Node2&#45;&gt;Node3 -->
<g id="edge2" class="edge"><title>Node2&#45;&gt;Node3</title>
<path fill="none" stroke="midnightblue" d="M341.747,-86C333.287,-86 324.578,-86 316.102,-86"/>
<polygon fill="midnightblue" stroke="midnightblue" points="341.91,-89.5001 351.91,-86 341.91,-82.5001 341.91,-89.5001"/>
</g>
<!-- Node4 -->
<g id="node4" class="node"><title>Node4</title>
<g id="a_node4"><a xlink:href="../../de/d6b/class_application.html#a68965449404743bf1add056784d6cf81" target="_top" xlink:title=" ">
<polygon fill="white" stroke="black" points="74,-38.5 74,-57.5 158,-57.5 158,-38.5 74,-38.5"/>
<text text-anchor="middle" x="116" y="-45.5" font-family="Helvetica,sans-Serif" font-size="10.00">Application::run</text>
</a>
</g>
</g>
<!-- Node3&#45;&gt;Node4 -->
<g id="edge3" class="edge"><title>Node3&#45;&gt;Node4</title>
<path fill="none" stroke="midnightblue" d="M209.589,-73.6817C190.766,-68.4607 169.162,-62.4684 151.56,-57.5859"/>
<polygon fill="midnightblue" stroke="midnightblue" points="208.857,-77.1108 219.429,-76.411 210.728,-70.3654 208.857,-77.1108"/>
</g>
<!-- Node5 -->
<g id="node5" class="node"><title>Node5</title>
<g id="a_node5"><a xlink:href="../../d5/d12/_main_8cpp.html#a0ddf1224851353fc92bfbff6f499fa97" target="_top" xlink:title=" ">
<polygon fill="white" stroke="black" points="0,-38.5 0,-57.5 38,-57.5 38,-38.5 0,-38.5"/>
<text text-anchor="middle" x="19" y="-45.5" font-family="Helvetica,sans-Serif" font-size="10.00">main</text>
</a>
</g>
</g>
<!-- Node4&#45;&gt;Node5 -->
<g id="edge4" class="edge"><title>Node4&#45;&gt;Node5</title>
<path fill="none" stroke="midnightblue" d="M63.6206,-48C54.5384,-48 45.6466,-48 38.2853,-48"/>
<polygon fill="midnightblue" stroke="midnightblue" points="63.8842,-51.5001 73.8841,-48 63.8841,-44.5001 63.8842,-51.5001"/>
</g>
<!-- Node7 -->
<g id="node7" class="node"><title>Node7</title>
<g id="a_node7"><a xlink:href="../../de/d6b/class_application.html#af431bce25717b04a78d4d0940ed6a92c" target="_top" xlink:title=" ">
<polygon fill="white" stroke="black" points="202,-38.5 202,-57.5 308,-57.5 308,-38.5 202,-38.5"/>
<text text-anchor="middle" x="255" y="-45.5" font-family="Helvetica,sans-Serif" font-size="10.00">Application::initialize</text>
</a>
</g>
</g>
<!-- Node6&#45;&gt;Node7 -->
<g id="edge6" class="edge"><title>Node6&#45;&gt;Node7</title>
<path fill="none" stroke="midnightblue" d="M349.76,-48C336.263,-48 321.688,-48 308.143,-48"/>
<polygon fill="midnightblue" stroke="midnightblue" points="349.837,-51.5001 359.837,-48 349.837,-44.5001 349.837,-51.5001"/>
</g>
<!-- Node7&#45;&gt;Node4 -->
<g id="edge7" class="edge"><title>Node7&#45;&gt;Node4</title>
<path fill="none" stroke="midnightblue" d="M191.581,-48C180.331,-48 168.861,-48 158.396,-48"/>
<polygon fill="midnightblue" stroke="midnightblue" points="191.815,-51.5001 201.815,-48 191.815,-44.5001 191.815,-51.5001"/>
</g>
<!-- Node9 -->
<g id="node9" class="node"><title>Node9</title>
<g id="a_node9"><a xlink:href="../../de/d6b/class_application.html#a9ac99d97ee1cc814298a2f2388bde835" target="_top" xlink:title=" ">
<polygon fill="white" stroke="black" points="206,-0.5 206,-19.5 304,-19.5 304,-0.5 206,-0.5"/>
<text text-anchor="middle" x="255" y="-7.5" font-family="Helvetica,sans-Serif" font-size="10.00">Application::render</text>
</a>
</g>
</g>
<!-- Node8&#45;&gt;Node9 -->
<g id="edge9" class="edge"><title>Node8&#45;&gt;Node9</title>
<path fill="none" stroke="midnightblue" d="M353.551,-10C337.715,-10 320.06,-10 304.17,-10"/>
<polygon fill="midnightblue" stroke="midnightblue" points="353.659,-13.5001 363.659,-10 353.659,-6.5001 353.659,-13.5001"/>
</g>
<!-- Node9&#45;&gt;Node4 -->
<g id="edge10" class="edge"><title>Node9&#45;&gt;Node4</title>
<path fill="none" stroke="midnightblue" d="M209.589,-22.3183C190.766,-27.5393 169.162,-33.5316 151.56,-38.4141"/>
<polygon fill="midnightblue" stroke="midnightblue" points="210.728,-25.6346 219.429,-19.589 208.857,-18.8892 210.728,-25.6346"/>
</g>
</g>
</svg>
