<?xml version="1.0" encoding="UTF-8" standalone="no"?>
<!DOCTYPE svg PUBLIC "-//W3C//DTD SVG 1.1//EN"
 "http://www.w3.org/Graphics/SVG/1.1/DTD/svg11.dtd">
<!-- Generated by graphviz version 2.38.0 (20140413.2041)
 -->
<!-- Title: Game::initialize Pages: 1 -->
<svg width="1219pt" height="619pt"
 viewBox="0.00 0.00 1219.00 618.50" xmlns="http://www.w3.org/2000/svg" xmlns:xlink="http://www.w3.org/1999/xlink">
<g id="graph0" class="graph" transform="scale(1 1) rotate(0) translate(4 614.5)">
<title>Game::initialize</title>
<polygon fill="white" stroke="none" points="-4,4 -4,-614.5 1215,-614.5 1215,4 -4,4"/>
<!-- Node1 -->
<g id="node1" class="node"><title>Node1</title>
<g id="a_node1"><a xlink:title=" ">
<polygon fill="#bfbfbf" stroke="black" points="0,-439 0,-458 84,-458 84,-439 0,-439"/>
<text text-anchor="middle" x="42" y="-446" font-family="Helvetica,sans-Serif" font-size="10.00">Game::initialize</text>
</a>
</g>
</g>
<!-- Node2 -->
<g id="node2" class="node"><title>Node2</title>
<g id="a_node2"><a xlink:href="../../dd/d1f/class_game.html#aa4f9a0322b707a1bcdb18a2bb54210b6" target="_top" xlink:title="test">
<polygon fill="white" stroke="black" points="135.5,-553 135.5,-572 239.5,-572 239.5,-553 135.5,-553"/>
<text text-anchor="middle" x="187.5" y="-560" font-family="Helvetica,sans-Serif" font-size="10.00">Game::areVitalsNull</text>
</a>
</g>
</g>
<!-- Node1&#45;&gt;Node2 -->
<g id="edge1" class="edge"><title>Node1&#45;&gt;Node2</title>
<path fill="none" stroke="midnightblue" d="M48.1492,-458.223C58.8638,-477.502 85.4619,-520.675 120,-543.5 123.087,-545.54 126.393,-547.364 129.823,-548.995"/>
<polygon fill="midnightblue" stroke="midnightblue" points="128.544,-552.253 139.12,-552.875 131.24,-545.793 128.544,-552.253"/>
</g>
<!-- Node3 -->
<g id="node3" class="node"><title>Node3</title>
<g id="a_node3"><a xlink:href="../../db/d74/class_text_map.html#aefa9200c39ca535748d6c95f66d8eb9f" target="_top" xlink:title=" ">
<polygon fill="white" stroke="black" points="134.5,-515 134.5,-534 240.5,-534 240.5,-515 134.5,-515"/>
<text text-anchor="middle" x="187.5" y="-522" font-family="Helvetica,sans-Serif" font-size="10.00">TextMap::createMap</text>
</a>
</g>
</g>
<!-- Node1&#45;&gt;Node3 -->
<g id="edge2" class="edge"><title>Node1&#45;&gt;Node3</title>
<path fill="none" stroke="midnightblue" d="M53.6489,-458.361C67.797,-470.974 94.0395,-492.71 120,-505.5 124.66,-507.796 129.644,-509.858 134.71,-511.701"/>
<polygon fill="midnightblue" stroke="midnightblue" points="133.895,-515.119 144.489,-514.976 136.119,-508.481 133.895,-515.119"/>
</g>
<!-- Node8 -->
<g id="node8" class="node"><title>Node8</title>
<g id="a_node8"><a xlink:href="../../d2/d54/class_updating_system.html#a14c4deca71f4157c0e95489303185c32" target="_top" xlink:title=" ">
<polygon fill="white" stroke="black" points="122.5,-477 122.5,-496 252.5,-496 252.5,-477 122.5,-477"/>
<text text-anchor="middle" x="187.5" y="-484" font-family="Helvetica,sans-Serif" font-size="10.00">UpdatingSystem::initialize</text>
</a>
</g>
</g>
<!-- Node1&#45;&gt;Node8 -->
<g id="edge7" class="edge"><title>Node1&#45;&gt;Node8</title>
<path fill="none" stroke="midnightblue" d="M79.2111,-458.089C97.8206,-463.017 120.697,-469.075 140.539,-474.329"/>
<polygon fill="midnightblue" stroke="midnightblue" points="139.738,-477.738 150.3,-476.914 141.53,-470.971 139.738,-477.738"/>
</g>
<!-- Node9 -->
<g id="node9" class="node"><title>Node9</title>
<g id="a_node9"><a xlink:href="../../d3/de8/class_fixed_updating_system.html#ae6dd11a60942e140a62f8358bb69d4ba" target="_top" xlink:title=" ">
<polygon fill="white" stroke="black" points="131,-367.5 131,-397.5 244,-397.5 244,-367.5 131,-367.5"/>
<text text-anchor="start" x="139" y="-385.5" font-family="Helvetica,sans-Serif" font-size="10.00">FixedUpdatingSystem</text>
<text text-anchor="middle" x="187.5" y="-374.5" font-family="Helvetica,sans-Serif" font-size="10.00">::initialize</text>
</a>
</g>
</g>
<!-- Node1&#45;&gt;Node9 -->
<g id="edge8" class="edge"><title>Node1&#45;&gt;Node9</title>
<path fill="none" stroke="midnightblue" d="M63.8661,-438.903C84.8432,-429.255 117.775,-414.109 144.233,-401.94"/>
<polygon fill="midnightblue" stroke="midnightblue" points="146.031,-404.966 153.653,-397.607 143.106,-398.606 146.031,-404.966"/>
</g>
<!-- Node19 -->
<g id="node19" class="node"><title>Node19</title>
<g id="a_node19"><a xlink:href="../../d8/d31/class_rendering_system.html#a04ef0a772570ed732cbccf8b4f153455" target="_top" xlink:title=" ">
<polygon fill="white" stroke="black" points="120,-439 120,-458 255,-458 255,-439 120,-439"/>
<text text-anchor="middle" x="187.5" y="-446" font-family="Helvetica,sans-Serif" font-size="10.00">RenderingSystem::initialize</text>
</a>
</g>
</g>
<!-- Node1&#45;&gt;Node19 -->
<g id="edge20" class="edge"><title>Node1&#45;&gt;Node19</title>
<path fill="none" stroke="midnightblue" d="M84.1213,-448.5C92.2448,-448.5 101.013,-448.5 109.881,-448.5"/>
<polygon fill="midnightblue" stroke="midnightblue" points="109.907,-452 119.907,-448.5 109.907,-445 109.907,-452"/>
</g>
<!-- Node23 -->
<g id="node23" class="node"><title>Node23</title>
<g id="a_node23"><a xlink:href="../../dd/d1f/class_game.html#a0cd419405f5790feab89322cbb3f18ce" target="_top" xlink:title=" ">
<polygon fill="white" stroke="black" points="511.5,-203 511.5,-222 631.5,-222 631.5,-203 511.5,-203"/>
<text text-anchor="middle" x="571.5" y="-210" font-family="Helvetica,sans-Serif" font-size="10.00">Game::initializeShaders</text>
</a>
</g>
</g>
<!-- Node1&#45;&gt;Node23 -->
<g id="edge25" class="edge"><title>Node1&#45;&gt;Node23</title>
<path fill="none" stroke="midnightblue" d="M48.7818,-438.886C60.2173,-420.62 87.4558,-380.657 120,-357.5 238.203,-273.391 407.658,-236.327 501.437,-221.424"/>
<polygon fill="midnightblue" stroke="midnightblue" points="502.035,-224.873 511.381,-219.882 500.963,-217.956 502.035,-224.873"/>
</g>
<!-- Node38 -->
<g id="node38" class="node"><title>Node38</title>
<g id="a_node38"><a xlink:href="../../d6/db5/class_scene.html#a64a315709f007c74792e98eef66c69df" target="_top" xlink:title=" ">
<polygon fill="white" stroke="black" points="122.5,-213.5 122.5,-243.5 252.5,-243.5 252.5,-213.5 122.5,-213.5"/>
<text text-anchor="start" x="130.5" y="-231.5" font-family="Helvetica,sans-Serif" font-size="10.00">Scene::performOperations</text>
<text text-anchor="middle" x="187.5" y="-220.5" font-family="Helvetica,sans-Serif" font-size="10.00">OnAllOfType</text>
</a>
</g>
</g>
<!-- Node1&#45;&gt;Node38 -->
<g id="edge45" class="edge"><title>Node1&#45;&gt;Node38</title>
<path fill="none" stroke="midnightblue" d="M44.339,-438.843C49.0387,-408.386 67.4424,-313.135 120,-258.5 123.531,-254.829 127.595,-251.571 131.935,-248.687"/>
<polygon fill="midnightblue" stroke="midnightblue" points="133.73,-251.692 140.558,-243.591 130.168,-245.666 133.73,-251.692"/>
</g>
<!-- Node4 -->
<g id="node4" class="node"><title>Node4</title>
<g id="a_node4"><a xlink:href="../../db/db4/struct_glyph.html#acde78c0f1f504ded10a319581b7ff8cf" target="_top" xlink:title=" ">
<polygon fill="white" stroke="black" points="326,-591 326,-610 415,-610 415,-591 326,-591"/>
<text text-anchor="middle" x="370.5" y="-598" font-family="Helvetica,sans-Serif" font-size="10.00">Glyph::getHeight</text>
</a>
</g>
</g>
<!-- Node3&#45;&gt;Node4 -->
<g id="edge3" class="edge"><title>Node3&#45;&gt;Node4</title>
<path fill="none" stroke="midnightblue" d="M234.223,-534.044C241.453,-536.533 248.635,-539.638 255,-543.5 274.89,-555.568 270.868,-569.841 291,-581.5 298.67,-585.942 307.338,-589.349 316.044,-591.961"/>
<polygon fill="midnightblue" stroke="midnightblue" points="315.273,-595.378 325.838,-594.585 317.085,-588.616 315.273,-595.378"/>
</g>
<!-- Node5 -->
<g id="node5" class="node"><title>Node5</title>
<g id="a_node5"><a xlink:href="../../d5/d71/namespace_s_l.html#acd198192c2f2a82dda867d588a4d60a1" target="_top" xlink:title=" ">
<polygon fill="white" stroke="black" points="327.5,-553 327.5,-572 413.5,-572 413.5,-553 327.5,-553"/>
<text text-anchor="middle" x="370.5" y="-560" font-family="Helvetica,sans-Serif" font-size="10.00">SL::isBigEndian</text>
</a>
</g>
</g>
<!-- Node3&#45;&gt;Node5 -->
<g id="edge4" class="edge"><title>Node3&#45;&gt;Node5</title>
<path fill="none" stroke="midnightblue" d="M234.174,-534.089C259.525,-539.411 291.155,-546.052 317.46,-551.574"/>
<polygon fill="midnightblue" stroke="midnightblue" points="316.751,-555.002 327.256,-553.631 318.189,-548.151 316.751,-555.002"/>
</g>
<!-- Node6 -->
<g id="node6" class="node"><title>Node6</title>
<g id="a_node6"><a xlink:href="../../d5/d71/namespace_s_l.html#addb3c1f99efa9625ddde4137a659306a" target="_top" xlink:title=" ">
<polygon fill="white" stroke="black" points="331,-515 331,-534 410,-534 410,-515 331,-515"/>
<text text-anchor="middle" x="370.5" y="-522" font-family="Helvetica,sans-Serif" font-size="10.00">SL::readBytes</text>
</a>
</g>
</g>
<!-- Node3&#45;&gt;Node6 -->
<g id="edge5" class="edge"><title>Node3&#45;&gt;Node6</title>
<path fill="none" stroke="midnightblue" d="M240.853,-524.5C265.976,-524.5 295.899,-524.5 320.562,-524.5"/>
<polygon fill="midnightblue" stroke="midnightblue" points="320.78,-528 330.78,-524.5 320.78,-521 320.78,-528"/>
</g>
<!-- Node7 -->
<g id="node7" class="node"><title>Node7</title>
<g id="a_node7"><a xlink:href="../../d5/d71/namespace_s_l.html#aebfdfe445c38bfb5eed787b16283cf5e" target="_top" xlink:title=" ">
<polygon fill="white" stroke="black" points="528,-515 528,-534 615,-534 615,-515 528,-515"/>
<text text-anchor="middle" x="571.5" y="-522" font-family="Helvetica,sans-Serif" font-size="10.00">SL::swapEndian</text>
</a>
</g>
</g>
<!-- Node6&#45;&gt;Node7 -->
<g id="edge6" class="edge"><title>Node6&#45;&gt;Node7</title>
<path fill="none" stroke="midnightblue" d="M410.342,-524.5C440.991,-524.5 484.058,-524.5 517.814,-524.5"/>
<polygon fill="midnightblue" stroke="midnightblue" points="517.967,-528 527.967,-524.5 517.967,-521 517.967,-528"/>
</g>
<!-- Node10 -->
<g id="node10" class="node"><title>Node10</title>
<g id="a_node10"><a xlink:href="../../d6/db5/class_scene.html#ae05acfccb36d74a21bd4988a2b562ceb" target="_top" xlink:title=" ">
<polygon fill="white" stroke="black" points="291,-389.5 291,-419.5 450,-419.5 450,-389.5 291,-389.5"/>
<text text-anchor="start" x="299" y="-407.5" font-family="Helvetica,sans-Serif" font-size="10.00">Scene::getFirstActiveComponent</text>
<text text-anchor="middle" x="370.5" y="-396.5" font-family="Helvetica,sans-Serif" font-size="10.00">OfType</text>
</a>
</g>
</g>
<!-- Node9&#45;&gt;Node10 -->
<g id="edge9" class="edge"><title>Node9&#45;&gt;Node10</title>
<path fill="none" stroke="midnightblue" d="M244.283,-389.28C255.921,-390.695 268.463,-392.219 280.954,-393.738"/>
<polygon fill="midnightblue" stroke="midnightblue" points="280.594,-397.219 290.944,-394.952 281.439,-390.271 280.594,-397.219"/>
</g>
<!-- Node12 -->
<g id="node12" class="node"><title>Node12</title>
<g id="a_node12"><a xlink:href="../../d4/df8/class_camera_system.html#a4a7557f88f628a55314d3529519a28aa" target="_top" xlink:title=" ">
<polygon fill="white" stroke="black" points="308,-301.5 308,-331.5 433,-331.5 433,-301.5 308,-301.5"/>
<text text-anchor="start" x="316" y="-319.5" font-family="Helvetica,sans-Serif" font-size="10.00">CameraSystem::initialize</text>
<text text-anchor="middle" x="370.5" y="-308.5" font-family="Helvetica,sans-Serif" font-size="10.00">Camera</text>
</a>
</g>
</g>
<!-- Node9&#45;&gt;Node12 -->
<g id="edge11" class="edge"><title>Node9&#45;&gt;Node12</title>
<path fill="none" stroke="midnightblue" d="M230.025,-367.358C256.353,-357.758 290.595,-345.272 318.561,-335.074"/>
<polygon fill="midnightblue" stroke="midnightblue" points="319.972,-338.285 328.168,-331.571 317.574,-331.709 319.972,-338.285"/>
</g>
<!-- Node18 -->
<g id="node18" class="node"><title>Node18</title>
<g id="a_node18"><a xlink:href="../../d7/d06/class_g_u_i_resizing_information.html#ae82679de84809831c862391c4bafffa1" target="_top" xlink:title=" ">
<polygon fill="white" stroke="black" points="512.5,-345.5 512.5,-375.5 630.5,-375.5 630.5,-345.5 512.5,-345.5"/>
<text text-anchor="start" x="520.5" y="-363.5" font-family="Helvetica,sans-Serif" font-size="10.00">GUIResizingInformation</text>
<text text-anchor="middle" x="571.5" y="-352.5" font-family="Helvetica,sans-Serif" font-size="10.00">::updateInformation</text>
</a>
</g>
</g>
<!-- Node9&#45;&gt;Node18 -->
<g id="edge17" class="edge"><title>Node9&#45;&gt;Node18</title>
<path fill="none" stroke="midnightblue" d="M244.046,-379.301C312.427,-375.363 428.53,-368.676 502.268,-364.43"/>
<polygon fill="midnightblue" stroke="midnightblue" points="502.6,-367.916 512.382,-363.847 502.197,-360.928 502.6,-367.916"/>
</g>
<!-- Node11 -->
<g id="node11" class="node"><title>Node11</title>
<g id="a_node11"><a xlink:href="../../d6/db5/class_scene.html#af06ab78544ec997fd8e480762b2cc40a" target="_top" xlink:title=" ">
<polygon fill="white" stroke="black" points="486,-398 486,-417 657,-417 657,-398 486,-398"/>
<text text-anchor="middle" x="571.5" y="-405" font-family="Helvetica,sans-Serif" font-size="10.00">Scene::binarySearchForComponent</text>
</a>
</g>
</g>
<!-- Node10&#45;&gt;Node11 -->
<g id="edge10" class="edge"><title>Node10&#45;&gt;Node11</title>
<path fill="none" stroke="midnightblue" d="M450.15,-405.686C458.583,-405.813 467.226,-405.943 475.82,-406.073"/>
<polygon fill="midnightblue" stroke="midnightblue" points="475.82,-409.573 485.872,-406.224 475.926,-402.574 475.82,-409.573"/>
</g>
<!-- Node13 -->
<g id="node13" class="node"><title>Node13</title>
<g id="a_node13"><a xlink:href="../../d4/df8/class_camera_system.html#a47d9e3f5277b873769028e15ccd4aa43" target="_top" xlink:title=" ">
<polygon fill="white" stroke="black" points="495,-307 495,-326 648,-326 648,-307 495,-307"/>
<text text-anchor="middle" x="571.5" y="-314" font-family="Helvetica,sans-Serif" font-size="10.00">CameraSystem::refreshCamera</text>
</a>
</g>
</g>
<!-- Node12&#45;&gt;Node13 -->
<g id="edge12" class="edge"><title>Node12&#45;&gt;Node13</title>
<path fill="none" stroke="midnightblue" d="M433.102,-316.5C449.419,-316.5 467.335,-316.5 484.685,-316.5"/>
<polygon fill="midnightblue" stroke="midnightblue" points="484.818,-320 494.818,-316.5 484.818,-313 484.818,-320"/>
</g>
<!-- Node14 -->
<g id="node14" class="node"><title>Node14</title>
<g id="a_node14"><a xlink:href="../../d4/d58/namespace_game_info.html#a344c7e16ac06ee1f8458a249aac36e8e" target="_top" xlink:title=" ">
<polygon fill="white" stroke="black" points="697.5,-313 697.5,-332 837.5,-332 837.5,-313 697.5,-313"/>
<text text-anchor="middle" x="767.5" y="-320" font-family="Helvetica,sans-Serif" font-size="10.00">GameInfo::getWindowHeight</text>
</a>
</g>
</g>
<!-- Node13&#45;&gt;Node14 -->
<g id="edge13" class="edge"><title>Node13&#45;&gt;Node14</title>
<path fill="none" stroke="midnightblue" d="M648.061,-318.837C660.905,-319.234 674.277,-319.648 687.214,-320.048"/>
<polygon fill="midnightblue" stroke="midnightblue" points="687.374,-323.554 697.478,-320.365 687.591,-316.558 687.374,-323.554"/>
</g>
<!-- Node16 -->
<g id="node16" class="node"><title>Node16</title>
<g id="a_node16"><a xlink:href="../../d4/d58/namespace_game_info.html#a7cf2306eb3025a60a9e2da52eefba71e" target="_top" xlink:title=" ">
<polygon fill="white" stroke="black" points="699,-351 699,-370 836,-370 836,-351 699,-351"/>
<text text-anchor="middle" x="767.5" y="-358" font-family="Helvetica,sans-Serif" font-size="10.00">GameInfo::getWindowWidth</text>
</a>
</g>
</g>
<!-- Node13&#45;&gt;Node16 -->
<g id="edge15" class="edge"><title>Node13&#45;&gt;Node16</title>
<path fill="none" stroke="midnightblue" d="M615.06,-326.041C628.481,-329.057 643.362,-332.41 657,-335.5 675.934,-339.79 696.703,-344.525 715.016,-348.709"/>
<polygon fill="midnightblue" stroke="midnightblue" points="714.382,-352.154 724.91,-350.971 715.942,-345.33 714.382,-352.154"/>
</g>
<!-- Node15 -->
<g id="node15" class="node"><title>Node15</title>
<g id="a_node15"><a xlink:href="../../de/d6b/class_application.html#a0398d40c89d52bb8d6ac6ac466c5d30c" target="_top" xlink:title=" ">
<polygon fill="white" stroke="black" points="878,-312.5 878,-342.5 1023,-342.5 1023,-312.5 878,-312.5"/>
<text text-anchor="start" x="886" y="-330.5" font-family="Helvetica,sans-Serif" font-size="10.00">Application::getGameWindow</text>
<text text-anchor="middle" x="950.5" y="-319.5" font-family="Helvetica,sans-Serif" font-size="10.00">Height</text>
</a>
</g>
</g>
<!-- Node14&#45;&gt;Node15 -->
<g id="edge14" class="edge"><title>Node14&#45;&gt;Node15</title>
<path fill="none" stroke="midnightblue" d="M837.703,-324.412C847.583,-324.685 857.822,-324.967 867.912,-325.246"/>
<polygon fill="midnightblue" stroke="midnightblue" points="867.841,-328.745 877.934,-325.523 868.034,-321.748 867.841,-328.745"/>
</g>
<!-- Node17 -->
<g id="node17" class="node"><title>Node17</title>
<g id="a_node17"><a xlink:href="../../de/d6b/class_application.html#aad8864ec1fa58ee23db7b111876d09a5" target="_top" xlink:title=" ">
<polygon fill="white" stroke="black" points="878,-361.5 878,-391.5 1023,-391.5 1023,-361.5 878,-361.5"/>
<text text-anchor="start" x="886" y="-379.5" font-family="Helvetica,sans-Serif" font-size="10.00">Application::getGameWindow</text>
<text text-anchor="middle" x="950.5" y="-368.5" font-family="Helvetica,sans-Serif" font-size="10.00">Width</text>
</a>
</g>
</g>
<!-- Node16&#45;&gt;Node17 -->
<g id="edge16" class="edge"><title>Node16&#45;&gt;Node17</title>
<path fill="none" stroke="midnightblue" d="M836.155,-366.481C846.504,-367.395 857.279,-368.348 867.889,-369.286"/>
<polygon fill="midnightblue" stroke="midnightblue" points="867.723,-372.785 877.992,-370.179 868.339,-365.812 867.723,-372.785"/>
</g>
<!-- Node18&#45;&gt;Node14 -->
<g id="edge18" class="edge"><title>Node18&#45;&gt;Node14</title>
<path fill="none" stroke="midnightblue" d="M630.706,-349.099C655.132,-344.314 683.486,-338.76 707.949,-333.969"/>
<polygon fill="midnightblue" stroke="midnightblue" points="708.677,-337.393 717.818,-332.036 707.331,-330.523 708.677,-337.393"/>
</g>
<!-- Node18&#45;&gt;Node16 -->
<g id="edge19" class="edge"><title>Node18&#45;&gt;Node16</title>
<path fill="none" stroke="midnightblue" d="M630.706,-360.5C648.955,-360.5 669.396,-360.5 688.768,-360.5"/>
<polygon fill="midnightblue" stroke="midnightblue" points="688.784,-364 698.784,-360.5 688.784,-357 688.784,-364"/>
</g>
<!-- Node20 -->
<g id="node20" class="node"><title>Node20</title>
<g id="a_node20"><a xlink:href="../../d6/db5/class_scene.html#a65d6f6cd75b250c657d5d4a267c4b245" target="_top" xlink:title=" ">
<polygon fill="white" stroke="black" points="314,-439 314,-458 427,-458 427,-439 314,-439"/>
<text text-anchor="middle" x="370.5" y="-446" font-family="Helvetica,sans-Serif" font-size="10.00">Scene::getComponent</text>
</a>
</g>
</g>
<!-- Node19&#45;&gt;Node20 -->
<g id="edge21" class="edge"><title>Node19&#45;&gt;Node20</title>
<path fill="none" stroke="midnightblue" d="M255.127,-448.5C271.002,-448.5 287.934,-448.5 303.769,-448.5"/>
<polygon fill="midnightblue" stroke="midnightblue" points="303.995,-452 313.995,-448.5 303.995,-445 303.995,-452"/>
</g>
<!-- Node22 -->
<g id="node22" class="node"><title>Node22</title>
<g id="a_node22"><a xlink:href="../../d6/db5/class_scene.html#ae66f70e1154ee986fff5689490f6b3a2" target="_top" xlink:title=" ">
<polygon fill="white" stroke="black" points="320,-477 320,-496 421,-496 421,-477 320,-477"/>
<text text-anchor="middle" x="370.5" y="-484" font-family="Helvetica,sans-Serif" font-size="10.00">Scene::loopEntities</text>
</a>
</g>
</g>
<!-- Node19&#45;&gt;Node22 -->
<g id="edge24" class="edge"><title>Node19&#45;&gt;Node22</title>
<path fill="none" stroke="midnightblue" d="M234.174,-458.089C258.489,-463.194 288.58,-469.511 314.208,-474.892"/>
<polygon fill="midnightblue" stroke="midnightblue" points="313.649,-478.351 324.154,-476.98 315.087,-471.5 313.649,-478.351"/>
</g>
<!-- Node20&#45;&gt;Node11 -->
<g id="edge22" class="edge"><title>Node20&#45;&gt;Node11</title>
<path fill="none" stroke="midnightblue" d="M417.655,-438.991C446.435,-433.061 483.67,-425.39 514.183,-419.103"/>
<polygon fill="midnightblue" stroke="midnightblue" points="515.163,-422.475 524.251,-417.029 513.751,-415.619 515.163,-422.475"/>
</g>
<!-- Node21 -->
<g id="node21" class="node"><title>Node21</title>
<g id="a_node21"><a xlink:href="../../d6/db5/class_scene.html#a55c346bea3f04eb9d9f8476a68c2fa93" target="_top" xlink:title=" ">
<polygon fill="white" stroke="black" points="498,-439 498,-458 645,-458 645,-439 498,-439"/>
<text text-anchor="middle" x="571.5" y="-446" font-family="Helvetica,sans-Serif" font-size="10.00">Scene::binarySearchForEntity</text>
</a>
</g>
</g>
<!-- Node20&#45;&gt;Node21 -->
<g id="edge23" class="edge"><title>Node20&#45;&gt;Node21</title>
<path fill="none" stroke="midnightblue" d="M427.197,-448.5C445.886,-448.5 467.152,-448.5 487.474,-448.5"/>
<polygon fill="midnightblue" stroke="midnightblue" points="487.676,-452 497.676,-448.5 487.676,-445 487.676,-452"/>
</g>
<!-- Node23&#45;&gt;Node14 -->
<g id="edge30" class="edge"><title>Node23&#45;&gt;Node14</title>
<path fill="none" stroke="midnightblue" d="M582.571,-222.157C602.215,-240.477 647.701,-280.417 693,-302.5 698.695,-305.276 704.832,-307.714 711.047,-309.842"/>
<polygon fill="midnightblue" stroke="midnightblue" points="710.234,-313.256 720.824,-312.936 712.346,-306.582 710.234,-313.256"/>
</g>
<!-- Node23&#45;&gt;Node16 -->
<g id="edge31" class="edge"><title>Node23&#45;&gt;Node16</title>
<path fill="none" stroke="midnightblue" d="M582.706,-222.143C598.92,-237.599 631.351,-269.074 657,-297.5 673.927,-316.259 671.714,-327.886 693,-341.5 696.34,-343.636 699.909,-345.532 703.608,-347.216"/>
<polygon fill="midnightblue" stroke="midnightblue" points="702.429,-350.514 713.014,-350.977 705.029,-344.014 702.429,-350.514"/>
</g>
<!-- Node24 -->
<g id="node24" class="node"><title>Node24</title>
<g id="a_node24"><a xlink:href="../../dc/d22/class_directional_light_shadow_map.html#a7215d4fbf75ee37aecd032fea06babdc" target="_top" xlink:title=" ">
<polygon fill="white" stroke="black" points="699,-126.5 699,-156.5 836,-156.5 836,-126.5 699,-126.5"/>
<text text-anchor="start" x="707" y="-144.5" font-family="Helvetica,sans-Serif" font-size="10.00">DirectionalLightShadowMap</text>
<text text-anchor="middle" x="767.5" y="-133.5" font-family="Helvetica,sans-Serif" font-size="10.00">::getDepthMapShader</text>
</a>
</g>
</g>
<!-- Node23&#45;&gt;Node24 -->
<g id="edge26" class="edge"><title>Node23&#45;&gt;Node24</title>
<path fill="none" stroke="midnightblue" d="M595.904,-202.92C620.077,-193.133 658.962,-177.684 693,-165.5 698.213,-163.634 703.655,-161.746 709.116,-159.892"/>
<polygon fill="midnightblue" stroke="midnightblue" points="710.553,-163.101 718.921,-156.603 708.327,-156.465 710.553,-163.101"/>
</g>
<!-- Node26 -->
<g id="node26" class="node"><title>Node26</title>
<g id="a_node26"><a xlink:href="../../d1/d18/class_point_light_shadow_map.html#ac4549a568648ddeaf3c9030e206522f3" target="_top" xlink:title=" ">
<polygon fill="white" stroke="black" points="711,-0.5 711,-30.5 824,-30.5 824,-0.5 711,-0.5"/>
<text text-anchor="start" x="719" y="-18.5" font-family="Helvetica,sans-Serif" font-size="10.00">PointLightShadowMap</text>
<text text-anchor="middle" x="767.5" y="-7.5" font-family="Helvetica,sans-Serif" font-size="10.00">::getDepthMapShader</text>
</a>
</g>
</g>
<!-- Node23&#45;&gt;Node26 -->
<g id="edge28" class="edge"><title>Node23&#45;&gt;Node26</title>
<path fill="none" stroke="midnightblue" d="M576.657,-202.705C589.508,-173.579 631.468,-86.675 693,-40.5 695.779,-38.4143 698.744,-36.4952 701.829,-34.7302"/>
<polygon fill="midnightblue" stroke="midnightblue" points="703.474,-37.8202 710.787,-30.1539 700.29,-31.5866 703.474,-37.8202"/>
</g>
<!-- Node27 -->
<g id="node27" class="node"><title>Node27</title>
<g id="a_node27"><a xlink:href="../../dd/db8/class_render_texture.html#afc74bdbbb35d6af7b9b4a1b77c6ae011" target="_top" xlink:title=" ">
<polygon fill="white" stroke="black" points="707,-225 707,-244 828,-244 828,-225 707,-225"/>
<text text-anchor="middle" x="767.5" y="-232" font-family="Helvetica,sans-Serif" font-size="10.00">RenderTexture::initialize</text>
</a>
</g>
</g>
<!-- Node23&#45;&gt;Node27 -->
<g id="edge32" class="edge"><title>Node23&#45;&gt;Node27</title>
<path fill="none" stroke="midnightblue" d="M631.761,-219.22C652.346,-221.555 675.619,-224.194 696.959,-226.614"/>
<polygon fill="midnightblue" stroke="midnightblue" points="696.603,-230.096 706.934,-227.745 697.392,-223.14 696.603,-230.096"/>
</g>
<!-- Node28 -->
<g id="node28" class="node"><title>Node28</title>
<g id="a_node28"><a xlink:href="../../d1/d18/class_point_light_shadow_map.html#ab74d70c7108207fcda5aeda08514b393" target="_top" xlink:title=" ">
<polygon fill="white" stroke="black" points="711,-175.5 711,-205.5 824,-205.5 824,-175.5 711,-175.5"/>
<text text-anchor="start" x="719" y="-193.5" font-family="Helvetica,sans-Serif" font-size="10.00">PointLightShadowMap</text>
<text text-anchor="middle" x="767.5" y="-182.5" font-family="Helvetica,sans-Serif" font-size="10.00">::initialize</text>
</a>
</g>
</g>
<!-- Node23&#45;&gt;Node28 -->
<g id="edge33" class="edge"><title>Node23&#45;&gt;Node28</title>
<path fill="none" stroke="midnightblue" d="M631.761,-205.78C653.599,-203.303 678.461,-200.484 700.832,-197.947"/>
<polygon fill="midnightblue" stroke="midnightblue" points="701.374,-201.408 710.916,-196.803 700.585,-194.453 701.374,-201.408"/>
</g>
<!-- Node34 -->
<g id="node34" class="node"><title>Node34</title>
<g id="a_node34"><a xlink:href="../../dc/d22/class_directional_light_shadow_map.html#a03e2c232a0bc4595be80e4031be543aa" target="_top" xlink:title=" ">
<polygon fill="white" stroke="black" points="699,-263.5 699,-293.5 836,-293.5 836,-263.5 699,-263.5"/>
<text text-anchor="start" x="707" y="-281.5" font-family="Helvetica,sans-Serif" font-size="10.00">DirectionalLightShadowMap</text>
<text text-anchor="middle" x="767.5" y="-270.5" font-family="Helvetica,sans-Serif" font-size="10.00">::initialize</text>
</a>
</g>
</g>
<!-- Node23&#45;&gt;Node34 -->
<g id="edge39" class="edge"><title>Node23&#45;&gt;Node34</title>
<path fill="none" stroke="midnightblue" d="M600.709,-222.097C629.815,-231.999 675.945,-247.692 712.164,-260.014"/>
<polygon fill="midnightblue" stroke="midnightblue" points="711.5,-263.486 722.094,-263.393 713.754,-256.859 711.5,-263.486"/>
</g>
<!-- Node36 -->
<g id="node36" class="node"><title>Node36</title>
<g id="a_node36"><a xlink:href="../../d1/d51/class_shader.html#a4e1d061275e99fb2aa818d5c2372e863" target="_top" xlink:title=" ">
<polygon fill="white" stroke="black" points="708,-88 708,-107 827,-107 827,-88 708,-88"/>
<text text-anchor="middle" x="767.5" y="-95" font-family="Helvetica,sans-Serif" font-size="10.00">Shader::setShaderTask</text>
</a>
</g>
</g>
<!-- Node23&#45;&gt;Node36 -->
<g id="edge43" class="edge"><title>Node23&#45;&gt;Node36</title>
<path fill="none" stroke="midnightblue" d="M581.815,-202.712C600.843,-183.299 646.33,-139.788 693,-116.5 697.671,-114.169 702.656,-112.105 707.747,-110.28"/>
<polygon fill="midnightblue" stroke="midnightblue" points="709.19,-113.491 717.61,-107.06 707.018,-106.836 709.19,-113.491"/>
</g>
<!-- Node37 -->
<g id="node37" class="node"><title>Node37</title>
<g id="a_node37"><a xlink:href="../../d1/d51/class_shader.html#aedb77a114862614f3fd1ee942e6e3c0e" target="_top" xlink:title=" ">
<polygon fill="white" stroke="black" points="693,-50 693,-69 842,-69 842,-50 693,-50"/>
<text text-anchor="middle" x="767.5" y="-57" font-family="Helvetica,sans-Serif" font-size="10.00">Shader::setShaderTaskShader</text>
</a>
</g>
</g>
<!-- Node23&#45;&gt;Node37 -->
<g id="edge44" class="edge"><title>Node23&#45;&gt;Node37</title>
<path fill="none" stroke="midnightblue" d="M578.19,-202.99C593.454,-178.334 637.909,-111.95 693,-78.5 696.612,-76.3068 700.472,-74.365 704.462,-72.6459"/>
<polygon fill="midnightblue" stroke="midnightblue" points="705.855,-75.8607 713.95,-69.0256 703.359,-69.3207 705.855,-75.8607"/>
</g>
<!-- Node25 -->
<g id="node25" class="node"><title>Node25</title>
<g id="a_node25"><a xlink:href="../../d1/d51/class_shader.html#a240b7ecb19883fa340489840733eae6d" target="_top" xlink:title=" ">
<polygon fill="white" stroke="black" points="894,-47 894,-66 1007,-66 1007,-47 894,-47"/>
<text text-anchor="middle" x="950.5" y="-54" font-family="Helvetica,sans-Serif" font-size="10.00">Shader::getProgramID</text>
</a>
</g>
</g>
<!-- Node24&#45;&gt;Node25 -->
<g id="edge27" class="edge"><title>Node24&#45;&gt;Node25</title>
<path fill="none" stroke="midnightblue" d="M816.823,-126.462C825.317,-123.424 833.995,-120.06 842,-116.5 871.771,-103.26 904.204,-84.5128 925.573,-71.512"/>
<polygon fill="midnightblue" stroke="midnightblue" points="927.602,-74.373 934.288,-66.1542 923.936,-68.4097 927.602,-74.373"/>
</g>
<!-- Node26&#45;&gt;Node25 -->
<g id="edge29" class="edge"><title>Node26&#45;&gt;Node25</title>
<path fill="none" stroke="midnightblue" d="M824.283,-28.1359C847.627,-33.4238 874.604,-39.5346 897.526,-44.727"/>
<polygon fill="midnightblue" stroke="midnightblue" points="896.885,-48.1703 907.411,-46.9661 898.432,-41.3433 896.885,-48.1703"/>
</g>
<!-- Node29 -->
<g id="node29" class="node"><title>Node29</title>
<g id="a_node29"><a xlink:href="../../d2/d23/class_locator.html#a310ebd51e96b6341e25471b651afaf34" target="_top" xlink:title=" ">
<polygon fill="white" stroke="black" points="879,-175.5 879,-205.5 1022,-205.5 1022,-175.5 879,-175.5"/>
<text text-anchor="start" x="887" y="-193.5" font-family="Helvetica,sans-Serif" font-size="10.00">Locator&lt; ShaderHandler,</text>
<text text-anchor="middle" x="950.5" y="-182.5" font-family="Helvetica,sans-Serif" font-size="10.00"> ShaderHandler &gt;::getService</text>
</a>
</g>
</g>
<!-- Node28&#45;&gt;Node29 -->
<g id="edge34" class="edge"><title>Node28&#45;&gt;Node29</title>
<path fill="none" stroke="midnightblue" d="M824.283,-190.5C838.293,-190.5 853.61,-190.5 868.575,-190.5"/>
<polygon fill="midnightblue" stroke="midnightblue" points="868.859,-194 878.859,-190.5 868.859,-187 868.859,-194"/>
</g>
<!-- Node30 -->
<g id="node30" class="node"><title>Node30</title>
<g id="a_node30"><a xlink:href="../../de/d51/class_shader_handler.html#ad478cf645ea1baf7f0172059d3f9d40a" target="_top" xlink:title=" ">
<polygon fill="white" stroke="black" points="885,-225 885,-244 1016,-244 1016,-225 885,-225"/>
<text text-anchor="middle" x="950.5" y="-232" font-family="Helvetica,sans-Serif" font-size="10.00">ShaderHandler::getShader</text>
</a>
</g>
</g>
<!-- Node28&#45;&gt;Node30 -->
<g id="edge35" class="edge"><title>Node28&#45;&gt;Node30</title>
<path fill="none" stroke="midnightblue" d="M824.283,-204.06C848.641,-209.982 876.953,-216.864 900.489,-222.586"/>
<polygon fill="midnightblue" stroke="midnightblue" points="899.713,-225.999 910.257,-224.96 901.367,-219.197 899.713,-225.999"/>
</g>
<!-- Node33 -->
<g id="node33" class="node"><title>Node33</title>
<g id="a_node33"><a xlink:href="../../d1/d18/class_point_light_shadow_map.html#a28292a616ec4e9a3b4434efa560b575d" target="_top" xlink:title=" ">
<polygon fill="white" stroke="black" points="879.5,-126.5 879.5,-156.5 1021.5,-156.5 1021.5,-126.5 879.5,-126.5"/>
<text text-anchor="start" x="887.5" y="-144.5" font-family="Helvetica,sans-Serif" font-size="10.00">PointLightShadowMap</text>
<text text-anchor="middle" x="950.5" y="-133.5" font-family="Helvetica,sans-Serif" font-size="10.00">::updateDepthMapResolution</text>
</a>
</g>
</g>
<!-- Node28&#45;&gt;Node33 -->
<g id="edge38" class="edge"><title>Node28&#45;&gt;Node33</title>
<path fill="none" stroke="midnightblue" d="M824.283,-175.399C843.21,-170.275 864.525,-164.504 884.13,-159.197"/>
<polygon fill="midnightblue" stroke="midnightblue" points="885.163,-162.543 893.901,-156.552 883.334,-155.786 885.163,-162.543"/>
</g>
<!-- Node31 -->
<g id="node31" class="node"><title>Node31</title>
<g id="a_node31"><a xlink:href="../../de/d51/class_shader_handler.html#aa6135a3de8989141daaf63815d7e3ba5" target="_top" xlink:title=" ">
<polygon fill="white" stroke="black" points="1059,-247 1059,-266 1211,-266 1211,-247 1059,-247"/>
<text text-anchor="middle" x="1135" y="-254" font-family="Helvetica,sans-Serif" font-size="10.00">ShaderHandler::addNewShader</text>
</a>
</g>
</g>
<!-- Node30&#45;&gt;Node31 -->
<g id="edge36" class="edge"><title>Node30&#45;&gt;Node31</title>
<path fill="none" stroke="midnightblue" d="M1016.1,-242.287C1026.7,-243.565 1037.82,-244.906 1048.83,-246.233"/>
<polygon fill="midnightblue" stroke="midnightblue" points="1048.54,-249.723 1058.88,-247.445 1049.37,-242.773 1048.54,-249.723"/>
</g>
<!-- Node32 -->
<g id="node32" class="node"><title>Node32</title>
<g id="a_node32"><a xlink:href="../../de/d51/class_shader_handler.html#ad363f345aa76d162312c455de9a4ee40" target="_top" xlink:title=" ">
<polygon fill="white" stroke="black" points="1063.5,-197.5 1063.5,-227.5 1206.5,-227.5 1206.5,-197.5 1063.5,-197.5"/>
<text text-anchor="start" x="1071.5" y="-215.5" font-family="Helvetica,sans-Serif" font-size="10.00">ShaderHandler::binarySearch</text>
<text text-anchor="middle" x="1135" y="-204.5" font-family="Helvetica,sans-Serif" font-size="10.00">Shaders</text>
</a>
</g>
</g>
<!-- Node30&#45;&gt;Node32 -->
<g id="edge37" class="edge"><title>Node30&#45;&gt;Node32</title>
<path fill="none" stroke="midnightblue" d="M1016.1,-226.713C1028.04,-225.274 1040.64,-223.755 1052.99,-222.266"/>
<polygon fill="midnightblue" stroke="midnightblue" points="1053.77,-225.697 1063.28,-221.025 1052.94,-218.747 1053.77,-225.697"/>
</g>
<!-- Node34&#45;&gt;Node29 -->
<g id="edge40" class="edge"><title>Node34&#45;&gt;Node29</title>
<path fill="none" stroke="midnightblue" d="M822.894,-263.382C829.564,-260.561 836.1,-257.283 842,-253.5 861.585,-240.943 858.469,-228.14 878,-215.5 881.108,-213.488 884.398,-211.617 887.791,-209.879"/>
<polygon fill="midnightblue" stroke="midnightblue" points="889.389,-212.995 896.962,-205.586 886.422,-206.655 889.389,-212.995"/>
</g>
<!-- Node34&#45;&gt;Node30 -->
<g id="edge41" class="edge"><title>Node34&#45;&gt;Node30</title>
<path fill="none" stroke="midnightblue" d="M830.284,-263.481C853.182,-257.914 878.816,-251.683 900.43,-246.429"/>
<polygon fill="midnightblue" stroke="midnightblue" points="901.479,-249.776 910.369,-244.012 899.826,-242.974 901.479,-249.776"/>
</g>
<!-- Node35 -->
<g id="node35" class="node"><title>Node35</title>
<g id="a_node35"><a xlink:href="../../dc/d22/class_directional_light_shadow_map.html#aa3c557d87f293c66b28ad25b842470bc" target="_top" xlink:title=" ">
<polygon fill="white" stroke="black" points="879.5,-263.5 879.5,-293.5 1021.5,-293.5 1021.5,-263.5 879.5,-263.5"/>
<text text-anchor="start" x="887.5" y="-281.5" font-family="Helvetica,sans-Serif" font-size="10.00">DirectionalLightShadowMap</text>
<text text-anchor="middle" x="950.5" y="-270.5" font-family="Helvetica,sans-Serif" font-size="10.00">::updateDepthMapResolution</text>
</a>
</g>
</g>
<!-- Node34&#45;&gt;Node35 -->
<g id="edge42" class="edge"><title>Node34&#45;&gt;Node35</title>
<path fill="none" stroke="midnightblue" d="M836.155,-278.5C846.918,-278.5 858.142,-278.5 869.162,-278.5"/>
<polygon fill="midnightblue" stroke="midnightblue" points="869.207,-282 879.207,-278.5 869.207,-275 869.207,-282"/>
</g>
</g>
</svg>
