<?xml version="1.0" encoding="UTF-8" standalone="no"?>
<!DOCTYPE svg PUBLIC "-//W3C//DTD SVG 1.1//EN"
 "http://www.w3.org/Graphics/SVG/1.1/DTD/svg11.dtd">
<!-- Generated by graphviz version 2.38.0 (20140413.2041)
 -->
<!-- Title: Game::readBackendEventQueue Pages: 1 -->
<!--zoomable 242 -->
<svg id="main" version="1.1" xmlns="http://www.w3.org/2000/svg" xmlns:xlink="http://www.w3.org/1999/xlink" xml:space="preserve" onload="init(evt)">
<style type="text/css"><![CDATA[
.edge:hover path { stroke: red; }
.edge:hover polygon { stroke: red; fill: red; }
]]></style>
<script type="text/javascript"><![CDATA[
var edges = document.getElementsByTagName('g');
if (edges && edges.length) {
  for (var i=0;i<edges.length;i++) {
    if (edges[i].id.substr(0,4)=='edge') {
      edges[i].setAttribute('class','edge');
    }
  }
}
]]></script>
        <defs>
                <circle id="rim" cx="0" cy="0" r="7"/>
                <circle id="rim2" cx="0" cy="0" r="3.5"/>
                <g id="zoomPlus">
                        <use xlink:href="#rim" fill="#404040">
                                <set attributeName="fill" to="#808080" begin="zoomplus.mouseover" end="zoomplus.mouseout"/>
                        </use>
                        <path d="M-4,0h8M0,-4v8" fill="none" stroke="white" stroke-width="1.5" pointer-events="none"/>
                </g>
                <g id="zoomMin">
                        <use xlink:href="#rim" fill="#404040">
                                <set attributeName="fill" to="#808080" begin="zoomminus.mouseover" end="zoomminus.mouseout"/>
                        </use>
                        <path d="M-4,0h8" fill="none" stroke="white" stroke-width="1.5" pointer-events="none"/>
                </g>
                <g id="dirArrow">
                        <path fill="none" stroke="white" stroke-width="1.5" d="M0,-3.0v7 M-2.5,-0.5L0,-3.0L2.5,-0.5"/>
                </g>
               <g id="resetDef">
                       <use xlink:href="#rim2" fill="#404040">
                               <set attributeName="fill" to="#808080" begin="reset.mouseover" end="reset.mouseout"/>
                       </use>
               </g>
        </defs>

<script type="text/javascript">
var viewWidth = 935;
var viewHeight = 242;
var sectionId = 'dynsection-8';
</script>
<script xlink:href="../../svgpan.js"/>
<svg id="graph" class="graph">
<g id="viewport">
<title>Game::readBackendEventQueue</title>
<polygon fill="white" stroke="none" points="-4,4 -4,-237.5 931,-237.5 931,4 -4,4"/>
<!-- Node1 -->
<g id="node1" class="node"><title>Node1</title>
<g id="a_node1"><a xlink:title=" ">
<polygon fill="#bfbfbf" stroke="black" points="0,-128.5 0,-147.5 158,-147.5 158,-128.5 0,-128.5"/>
<text text-anchor="middle" x="79" y="-135.5" font-family="Helvetica,sans-Serif" font-size="10.00">Game::readBackendEventQueue</text>
</a>
</g>
</g>
<!-- Node2 -->
<g id="node2" class="node"><title>Node2</title>
<g id="a_node2"><a xlink:href="../../d6/dc9/class_messenger.html#adc1f68f26170b8a13b5b917434f12310" target="_top" xlink:title=" ">
<polygon fill="white" stroke="black" points="194,-148 194,-178 344,-178 344,-148 194,-148"/>
<text text-anchor="start" x="202" y="-166" font-family="Helvetica,sans-Serif" font-size="10.00">Messenger::getMessagesThen</text>
<text text-anchor="middle" x="269" y="-155" font-family="Helvetica,sans-Serif" font-size="10.00">Remove</text>
</a>
</g>
</g>
<!-- Node1&#45;&gt;Node2 -->
<g id="edge1" class="edge"><title>Node1&#45;&gt;Node2</title>
<path fill="none" stroke="midnightblue" d="M151.611,-147.523C162.07,-148.914 172.921,-150.356 183.605,-151.777"/>
<polygon fill="midnightblue" stroke="midnightblue" points="183.404,-155.281 193.779,-153.13 184.327,-148.342 183.404,-155.281"/>
</g>
<!-- Node3 -->
<g id="node3" class="node"><title>Node3</title>
<g id="a_node3"><a xlink:href="../../d3/de8/class_fixed_updating_system.html#a8f07c76b37a898f91221740f42c72598" target="_top" xlink:title=" ">
<polygon fill="white" stroke="black" points="203.5,-99 203.5,-129 334.5,-129 334.5,-99 203.5,-99"/>
<text text-anchor="start" x="211.5" y="-117" font-family="Helvetica,sans-Serif" font-size="10.00">FixedUpdatingSystem</text>
<text text-anchor="middle" x="269" y="-106" font-family="Helvetica,sans-Serif" font-size="10.00">::handleBackEndMessage</text>
</a>
</g>
</g>
<!-- Node1&#45;&gt;Node3 -->
<g id="edge2" class="edge"><title>Node1&#45;&gt;Node3</title>
<path fill="none" stroke="midnightblue" d="M154.573,-128.48C167.273,-126.859 180.467,-125.174 193.174,-123.552"/>
<polygon fill="midnightblue" stroke="midnightblue" points="193.765,-127.005 203.241,-122.267 192.878,-120.062 193.765,-127.005"/>
</g>
<!-- Node4 -->
<g id="node4" class="node"><title>Node4</title>
<g id="a_node4"><a xlink:href="../../d6/db5/class_scene.html#ae05acfccb36d74a21bd4988a2b562ceb" target="_top" xlink:title=" ">
<polygon fill="white" stroke="black" points="380,-203 380,-233 539,-233 539,-203 380,-203"/>
<text text-anchor="start" x="388" y="-221" font-family="Helvetica,sans-Serif" font-size="10.00">Scene::getFirstActiveComponent</text>
<text text-anchor="middle" x="459.5" y="-210" font-family="Helvetica,sans-Serif" font-size="10.00">OfType</text>
</a>
</g>
</g>
<!-- Node3&#45;&gt;Node4 -->
<g id="edge3" class="edge"><title>Node3&#45;&gt;Node4</title>
<path fill="none" stroke="midnightblue" d="M326.766,-129.083C332.861,-131.877 338.746,-135.157 344,-139 365.812,-154.953 358.505,-171.622 380,-188 385.302,-192.04 391.212,-195.593 397.344,-198.705"/>
<polygon fill="midnightblue" stroke="midnightblue" points="395.9,-201.894 406.441,-202.954 398.862,-195.551 395.9,-201.894"/>
</g>
<!-- Node6 -->
<g id="node6" class="node"><title>Node6</title>
<g id="a_node6"><a xlink:href="../../d4/d58/namespace_game_info.html#a344c7e16ac06ee1f8458a249aac36e8e" target="_top" xlink:title=" ">
<polygon fill="white" stroke="black" points="590.5,-128.5 590.5,-147.5 730.5,-147.5 730.5,-128.5 590.5,-128.5"/>
<text text-anchor="middle" x="660.5" y="-135.5" font-family="Helvetica,sans-Serif" font-size="10.00">GameInfo::getWindowHeight</text>
</a>
</g>
</g>
<!-- Node3&#45;&gt;Node6 -->
<g id="edge5" class="edge"><title>Node3&#45;&gt;Node6</title>
<path fill="none" stroke="midnightblue" d="M316.817,-129.086C325.889,-132.215 335.283,-135.599 344,-139 360.311,-145.364 362.872,-151.365 380,-155 457.897,-171.531 550.541,-159.947 607.167,-149.459"/>
<polygon fill="midnightblue" stroke="midnightblue" points="608.145,-152.835 617.31,-147.52 606.831,-145.96 608.145,-152.835"/>
</g>
<!-- Node8 -->
<g id="node8" class="node"><title>Node8</title>
<g id="a_node8"><a xlink:href="../../d4/d58/namespace_game_info.html#a7cf2306eb3025a60a9e2da52eefba71e" target="_top" xlink:title=" ">
<polygon fill="white" stroke="black" points="592,-81.5 592,-100.5 729,-100.5 729,-81.5 592,-81.5"/>
<text text-anchor="middle" x="660.5" y="-88.5" font-family="Helvetica,sans-Serif" font-size="10.00">GameInfo::getWindowWidth</text>
</a>
</g>
</g>
<!-- Node3&#45;&gt;Node8 -->
<g id="edge7" class="edge"><title>Node3&#45;&gt;Node8</title>
<path fill="none" stroke="midnightblue" d="M297.022,-98.7921C318.694,-87.5121 350.295,-73.0801 380,-67 461.301,-50.3588 558.2,-66.5031 613.914,-79.1612"/>
<polygon fill="midnightblue" stroke="midnightblue" points="613.291,-82.6098 623.825,-81.4755 614.883,-75.7932 613.291,-82.6098"/>
</g>
<!-- Node10 -->
<g id="node10" class="node"><title>Node10</title>
<g id="a_node10"><a xlink:href="../../d4/df8/class_camera_system.html#a47d9e3f5277b873769028e15ccd4aa43" target="_top" xlink:title=" ">
<polygon fill="white" stroke="black" points="383,-126.5 383,-145.5 536,-145.5 536,-126.5 383,-126.5"/>
<text text-anchor="middle" x="459.5" y="-133.5" font-family="Helvetica,sans-Serif" font-size="10.00">CameraSystem::refreshCamera</text>
</a>
</g>
</g>
<!-- Node3&#45;&gt;Node10 -->
<g id="edge9" class="edge"><title>Node3&#45;&gt;Node10</title>
<path fill="none" stroke="midnightblue" d="M334.607,-121.54C346.885,-122.973 359.91,-124.494 372.725,-125.989"/>
<polygon fill="midnightblue" stroke="midnightblue" points="372.6,-129.498 382.938,-127.181 373.411,-122.545 372.6,-129.498"/>
</g>
<!-- Node11 -->
<g id="node11" class="node"><title>Node11</title>
<g id="a_node11"><a xlink:href="../../dd/db8/class_render_texture.html#abf24c86b77fa47a8c85093fa0a96a7d7" target="_top" xlink:title=" ">
<polygon fill="white" stroke="black" points="403.5,-0.5 403.5,-19.5 515.5,-19.5 515.5,-0.5 403.5,-0.5"/>
<text text-anchor="middle" x="459.5" y="-7.5" font-family="Helvetica,sans-Serif" font-size="10.00">RenderTexture::resize</text>
</a>
</g>
</g>
<!-- Node3&#45;&gt;Node11 -->
<g id="edge12" class="edge"><title>Node3&#45;&gt;Node11</title>
<path fill="none" stroke="midnightblue" d="M287.105,-98.734C307.79,-80.9731 344.29,-51.815 380,-34 388.802,-29.6088 398.564,-25.8408 408.129,-22.6792"/>
<polygon fill="midnightblue" stroke="midnightblue" points="409.475,-25.9257 417.977,-19.6033 407.388,-19.244 409.475,-25.9257"/>
</g>
<!-- Node13 -->
<g id="node13" class="node"><title>Node13</title>
<g id="a_node13"><a xlink:href="../../d7/d06/class_g_u_i_resizing_information.html#ae82679de84809831c862391c4bafffa1" target="_top" xlink:title=" ">
<polygon fill="white" stroke="black" points="400.5,-77 400.5,-107 518.5,-107 518.5,-77 400.5,-77"/>
<text text-anchor="start" x="408.5" y="-95" font-family="Helvetica,sans-Serif" font-size="10.00">GUIResizingInformation</text>
<text text-anchor="middle" x="459.5" y="-84" font-family="Helvetica,sans-Serif" font-size="10.00">::updateInformation</text>
</a>
</g>
</g>
<!-- Node3&#45;&gt;Node13 -->
<g id="edge14" class="edge"><title>Node3&#45;&gt;Node13</title>
<path fill="none" stroke="midnightblue" d="M334.607,-106.46C352.592,-104.361 372.18,-102.074 390.361,-99.9526"/>
<polygon fill="midnightblue" stroke="midnightblue" points="390.77,-103.429 400.297,-98.7929 389.959,-96.4758 390.77,-103.429"/>
</g>
<!-- Node5 -->
<g id="node5" class="node"><title>Node5</title>
<g id="a_node5"><a xlink:href="../../d6/db5/class_scene.html#af06ab78544ec997fd8e480762b2cc40a" target="_top" xlink:title=" ">
<polygon fill="white" stroke="black" points="575,-208.5 575,-227.5 746,-227.5 746,-208.5 575,-208.5"/>
<text text-anchor="middle" x="660.5" y="-215.5" font-family="Helvetica,sans-Serif" font-size="10.00">Scene::binarySearchForComponent</text>
</a>
</g>
</g>
<!-- Node4&#45;&gt;Node5 -->
<g id="edge4" class="edge"><title>Node4&#45;&gt;Node5</title>
<path fill="none" stroke="midnightblue" d="M539.15,-218C547.583,-218 556.226,-218 564.82,-218"/>
<polygon fill="midnightblue" stroke="midnightblue" points="564.872,-221.5 574.872,-218 564.872,-214.5 564.872,-221.5"/>
</g>
<!-- Node7 -->
<g id="node7" class="node"><title>Node7</title>
<g id="a_node7"><a xlink:href="../../de/d6b/class_application.html#a0398d40c89d52bb8d6ac6ac466c5d30c" target="_top" xlink:title=" ">
<polygon fill="white" stroke="black" points="782,-124 782,-154 927,-154 927,-124 782,-124"/>
<text text-anchor="start" x="790" y="-142" font-family="Helvetica,sans-Serif" font-size="10.00">Application::getGameWindow</text>
<text text-anchor="middle" x="854.5" y="-131" font-family="Helvetica,sans-Serif" font-size="10.00">Height</text>
</a>
</g>
</g>
<!-- Node6&#45;&gt;Node7 -->
<g id="edge6" class="edge"><title>Node6&#45;&gt;Node7</title>
<path fill="none" stroke="midnightblue" d="M730.545,-138.36C743.824,-138.429 757.852,-138.502 771.494,-138.573"/>
<polygon fill="midnightblue" stroke="midnightblue" points="771.815,-142.075 781.833,-138.627 771.851,-135.075 771.815,-142.075"/>
</g>
<!-- Node9 -->
<g id="node9" class="node"><title>Node9</title>
<g id="a_node9"><a xlink:href="../../de/d6b/class_application.html#aad8864ec1fa58ee23db7b111876d09a5" target="_top" xlink:title=" ">
<polygon fill="white" stroke="black" points="782,-75 782,-105 927,-105 927,-75 782,-75"/>
<text text-anchor="start" x="790" y="-93" font-family="Helvetica,sans-Serif" font-size="10.00">Application::getGameWindow</text>
<text text-anchor="middle" x="854.5" y="-82" font-family="Helvetica,sans-Serif" font-size="10.00">Width</text>
</a>
</g>
</g>
<!-- Node8&#45;&gt;Node9 -->
<g id="edge8" class="edge"><title>Node8&#45;&gt;Node9</title>
<path fill="none" stroke="midnightblue" d="M729.192,-90.6474C742.919,-90.5759 757.493,-90.5 771.649,-90.4263"/>
<polygon fill="midnightblue" stroke="midnightblue" points="771.882,-93.9252 781.863,-90.3731 771.845,-86.9253 771.882,-93.9252"/>
</g>
<!-- Node10&#45;&gt;Node6 -->
<g id="edge10" class="edge"><title>Node10&#45;&gt;Node6</title>
<path fill="none" stroke="midnightblue" d="M536.017,-136.759C550.35,-136.903 565.39,-137.054 579.847,-137.199"/>
<polygon fill="midnightblue" stroke="midnightblue" points="580.217,-140.703 590.252,-137.304 580.288,-133.704 580.217,-140.703"/>
</g>
<!-- Node10&#45;&gt;Node8 -->
<g id="edge11" class="edge"><title>Node10&#45;&gt;Node8</title>
<path fill="none" stroke="midnightblue" d="M502.703,-126.457C533.308,-119.536 574.884,-110.134 607.534,-102.751"/>
<polygon fill="midnightblue" stroke="midnightblue" points="608.376,-106.149 617.358,-100.53 606.832,-99.3215 608.376,-106.149"/>
</g>
<!-- Node12 -->
<g id="node12" class="node"><title>Node12</title>
<g id="a_node12"><a xlink:href="../../dd/db8/class_render_texture.html#afc74bdbbb35d6af7b9b4a1b77c6ae011" target="_top" xlink:title=" ">
<polygon fill="white" stroke="black" points="600,-0.5 600,-19.5 721,-19.5 721,-0.5 600,-0.5"/>
<text text-anchor="middle" x="660.5" y="-7.5" font-family="Helvetica,sans-Serif" font-size="10.00">RenderTexture::initialize</text>
</a>
</g>
</g>
<!-- Node11&#45;&gt;Node12 -->
<g id="edge13" class="edge"><title>Node11&#45;&gt;Node12</title>
<path fill="none" stroke="midnightblue" d="M515.668,-10C538.515,-10 565.282,-10 589.489,-10"/>
<polygon fill="midnightblue" stroke="midnightblue" points="589.688,-13.5001 599.688,-10 589.687,-6.5001 589.688,-13.5001"/>
</g>
<!-- Node13&#45;&gt;Node6 -->
<g id="edge15" class="edge"><title>Node13&#45;&gt;Node6</title>
<path fill="none" stroke="midnightblue" d="M518.594,-105.429C547.101,-112.018 581.126,-119.883 608.599,-126.234"/>
<polygon fill="midnightblue" stroke="midnightblue" points="607.871,-129.658 618.402,-128.5 609.447,-122.838 607.871,-129.658"/>
</g>
<!-- Node13&#45;&gt;Node8 -->
<g id="edge16" class="edge"><title>Node13&#45;&gt;Node8</title>
<path fill="none" stroke="midnightblue" d="M518.594,-91.7081C538.312,-91.609 560.67,-91.4966 581.674,-91.3911"/>
<polygon fill="midnightblue" stroke="midnightblue" points="581.876,-94.8902 591.859,-91.3399 581.841,-87.8903 581.876,-94.8902"/>
</g>
</g>
</svg>
        <g id="navigator" transform="translate(0 0)" fill="#404254">
                <rect fill="#f2f5e9" fill-opacity="0.5" stroke="#606060" stroke-width=".5" x="0" y="0" width="60" height="60"/>
                <use id="zoomplus" xlink:href="#zoomPlus" x="17" y="9" onmousedown="handleZoom(evt,'in')"/>
                <use id="zoomminus" xlink:href="#zoomMin" x="42" y="9" onmousedown="handleZoom(evt,'out')"/>
                <use id="reset" xlink:href="#resetDef" x="30" y="36" onmousedown="handleReset()"/>
                <g id="arrowUp" xlink:href="#dirArrow" transform="translate(30 24)" onmousedown="handlePan(0,-1)">
                  <use xlink:href="#rim" fill="#404040">
                        <set attributeName="fill" to="#808080" begin="arrowUp.mouseover" end="arrowUp.mouseout"/>
                  </use>
                  <path fill="none" stroke="white" stroke-width="1.5" d="M0,-3.0v7 M-2.5,-0.5L0,-3.0L2.5,-0.5"/>
                </g>
                <g id="arrowRight" xlink:href="#dirArrow" transform="rotate(90) translate(36 -43)" onmousedown="handlePan(1,0)">
                  <use xlink:href="#rim" fill="#404040">
                        <set attributeName="fill" to="#808080" begin="arrowRight.mouseover" end="arrowRight.mouseout"/>
                  </use>
                  <path fill="none" stroke="white" stroke-width="1.5" d="M0,-3.0v7 M-2.5,-0.5L0,-3.0L2.5,-0.5"/>
                </g>
                <g id="arrowDown" xlink:href="#dirArrow" transform="rotate(180) translate(-30 -48)" onmousedown="handlePan(0,1)">
                  <use xlink:href="#rim" fill="#404040">
                        <set attributeName="fill" to="#808080" begin="arrowDown.mouseover" end="arrowDown.mouseout"/>
                  </use>
                  <path fill="none" stroke="white" stroke-width="1.5" d="M0,-3.0v7 M-2.5,-0.5L0,-3.0L2.5,-0.5"/>
                </g>
                <g id="arrowLeft" xlink:href="#dirArrow" transform="rotate(270) translate(-36 17)" onmousedown="handlePan(-1,0)">
                  <use xlink:href="#rim" fill="#404040">
                        <set attributeName="fill" to="#808080" begin="arrowLeft.mouseover" end="arrowLeft.mouseout"/>
                  </use>
                  <path fill="none" stroke="white" stroke-width="1.5" d="M0,-3.0v7 M-2.5,-0.5L0,-3.0L2.5,-0.5"/>
                </g>
        </g>
        <svg viewBox="0 0 15 15" width="100%" height="30px" preserveAspectRatio="xMaxYMin meet">
         <g id="arrow_out" transform="scale(0.3 0.3)">
          <a xlink:href="class_game_a5eb682ebf3aa9ac5b2d6d63ade9ddcc0_cgraph_org.svg" target="_base">
           <rect id="button" ry="5" rx="5" y="6" x="6" height="38" width="38"
                fill="#f2f5e9" fill-opacity="0.5" stroke="#606060" stroke-width="1.0"/>
           <path id="arrow"
             d="M 11.500037,31.436501 C 11.940474,20.09759 22.043105,11.32322 32.158766,21.979434 L 37.068811,17.246167 C 37.068811,17.246167 37.088388,32 37.088388,32 L 22.160133,31.978069 C 22.160133,31.978069 26.997745,27.140456 26.997745,27.140456 C 18.528582,18.264221 13.291696,25.230495 11.500037,31.436501 z"
             style="fill:#404040;"/>
          </a>
         </g>
        </svg>
</svg>
