<?xml version="1.0" encoding="UTF-8" standalone="no"?>
<!DOCTYPE svg PUBLIC "-//W3C//DTD SVG 1.1//EN"
 "http://www.w3.org/Graphics/SVG/1.1/DTD/svg11.dtd">
<!-- Generated by graphviz version 2.38.0 (20140413.2041)
 -->
<!-- Title: Shaders::getUniformLocation Pages: 1 -->
<svg width="1688pt" height="553pt"
 viewBox="0.00 0.00 1688.00 552.50" xmlns="http://www.w3.org/2000/svg" xmlns:xlink="http://www.w3.org/1999/xlink">
<g id="graph0" class="graph" transform="scale(1 1) rotate(0) translate(4 548.5)">
<title>Shaders::getUniformLocation</title>
<polygon fill="white" stroke="none" points="-4,4 -4,-548.5 1684,-548.5 1684,4 -4,4"/>
<!-- Node1 -->
<g id="node1" class="node"><title>Node1</title>
<g id="a_node1"><a xlink:title=" ">
<polygon fill="#bfbfbf" stroke="black" points="1538,-279 1538,-298 1680,-298 1680,-279 1538,-279"/>
<text text-anchor="middle" x="1609" y="-286" font-family="Helvetica,sans-Serif" font-size="10.00">Shaders::getUniformLocation</text>
</a>
</g>
</g>
<!-- Node2 -->
<g id="node2" class="node"><title>Node2</title>
<g id="a_node2"><a xlink:href="../../d6/d00/class_sphere_shape.html#a12e0ec92a832a5a7c73ca489c96ef248" target="_top" xlink:title=" ">
<polygon fill="white" stroke="black" points="1355.5,-525 1355.5,-544 1487.5,-544 1487.5,-525 1355.5,-525"/>
<text text-anchor="middle" x="1421.5" y="-532" font-family="Helvetica,sans-Serif" font-size="10.00">SphereShape::drawSphere</text>
</a>
</g>
</g>
<!-- Node1&#45;&gt;Node2 -->
<g id="edge1" class="edge"><title>Node1&#45;&gt;Node2</title>
<path fill="none" stroke="midnightblue" d="M1604.2,-308.254C1594.83,-351.497 1566.56,-455.092 1502,-510.5 1494.67,-516.791 1485.73,-521.433 1476.53,-524.858"/>
<polygon fill="midnightblue" stroke="midnightblue" points="1607.68,-308.685 1606.27,-298.184 1600.82,-307.275 1607.68,-308.685"/>
</g>
<!-- Node3 -->
<g id="node3" class="node"><title>Node3</title>
<g id="a_node3"><a xlink:href="../../d8/d31/class_rendering_system.html#ae6a25f6b28ebe40f08916d9eadc95ac2" target="_top" xlink:title=" ">
<polygon fill="white" stroke="black" points="440,-411 440,-430 567,-430 567,-411 440,-411"/>
<text text-anchor="middle" x="503.5" y="-418" font-family="Helvetica,sans-Serif" font-size="10.00">RenderingSystem::render</text>
</a>
</g>
</g>
<!-- Node1&#45;&gt;Node3 -->
<g id="edge2" class="edge"><title>Node1&#45;&gt;Node3</title>
<path fill="none" stroke="midnightblue" d="M1603.01,-308.175C1592.07,-346.813 1562.03,-432.173 1502,-470.5 1397.22,-537.401 1347.82,-496.5 1223.5,-496.5 1223.5,-496.5 1223.5,-496.5 854,-496.5 741.037,-496.5 712.333,-484.909 603,-456.5 576.215,-449.54 546.512,-438.154 526.799,-430.051"/>
<polygon fill="midnightblue" stroke="midnightblue" points="1606.48,-308.755 1605.7,-298.189 1599.72,-306.933 1606.48,-308.755"/>
</g>
<!-- Node8 -->
<g id="node8" class="node"><title>Node8</title>
<g id="a_node8"><a xlink:href="../../d5/db4/class_cube_shape.html#ac5f14732b3bb793823e1abc5b028ad97" target="_top" xlink:title=" ">
<polygon fill="white" stroke="black" points="1172.5,-99 1172.5,-118 1272.5,-118 1272.5,-99 1172.5,-99"/>
<text text-anchor="middle" x="1222.5" y="-106" font-family="Helvetica,sans-Serif" font-size="10.00">CubeShape::render</text>
</a>
</g>
</g>
<!-- Node1&#45;&gt;Node8 -->
<g id="edge7" class="edge"><title>Node1&#45;&gt;Node8</title>
<path fill="none" stroke="midnightblue" d="M1601.05,-268.877C1587.77,-234.658 1555.29,-164.743 1502,-133.5 1430.81,-91.7621 1331.35,-94.4328 1272.57,-100.938"/>
<polygon fill="midnightblue" stroke="midnightblue" points="1597.91,-270.491 1604.68,-278.639 1604.47,-268.046 1597.91,-270.491"/>
</g>
<!-- Node12 -->
<g id="node12" class="node"><title>Node12</title>
<g id="a_node12"><a xlink:href="../../d3/df8/class_quad.html#ad5b31c8bb8ec0ed48b878a35b78df0e9" target="_top" xlink:title=" ">
<polygon fill="white" stroke="black" points="812.5,-449 812.5,-468 897.5,-468 897.5,-449 812.5,-449"/>
<text text-anchor="middle" x="855" y="-456" font-family="Helvetica,sans-Serif" font-size="10.00">Quad::render2D</text>
</a>
</g>
</g>
<!-- Node1&#45;&gt;Node12 -->
<g id="edge12" class="edge"><title>Node1&#45;&gt;Node12</title>
<path fill="none" stroke="midnightblue" d="M1601.07,-307.952C1587.84,-341.812 1555.44,-410.718 1502,-439.5 1397.41,-495.833 1023.87,-471.974 897.856,-462.043"/>
<polygon fill="midnightblue" stroke="midnightblue" points="1604.46,-308.877 1604.7,-298.285 1597.91,-306.419 1604.46,-308.877"/>
</g>
<!-- Node13 -->
<g id="node13" class="node"><title>Node13</title>
<g id="a_node13"><a xlink:href="../../d3/df8/class_quad.html#a424c01ecd59971dc51e39bc19fbda551" target="_top" xlink:title=" ">
<polygon fill="white" stroke="black" points="1379,-411 1379,-430 1464,-430 1464,-411 1379,-411"/>
<text text-anchor="middle" x="1421.5" y="-418" font-family="Helvetica,sans-Serif" font-size="10.00">Quad::render3D</text>
</a>
</g>
</g>
<!-- Node1&#45;&gt;Node13 -->
<g id="edge14" class="edge"><title>Node1&#45;&gt;Node13</title>
<path fill="none" stroke="midnightblue" d="M1596,-306.554C1578.4,-331.564 1543.18,-376.391 1502,-400.5 1490.58,-407.188 1476.96,-411.656 1464.26,-414.634"/>
<polygon fill="midnightblue" stroke="midnightblue" points="1599.08,-308.248 1601.85,-298.023 1593.31,-304.285 1599.08,-308.248"/>
</g>
<!-- Node17 -->
<g id="node17" class="node"><title>Node17</title>
<g id="a_node17"><a xlink:href="../../d3/d96/class__3_d_m_1_1_model.html#a3201f9fc54e6f0adbd0208e68e1579e0" target="_top" xlink:title=" ">
<polygon fill="white" stroke="black" points="1356,-323 1356,-342 1487,-342 1487,-323 1356,-323"/>
<text text-anchor="middle" x="1421.5" y="-330" font-family="Helvetica,sans-Serif" font-size="10.00">_3DM::Model::renderMesh</text>
</a>
</g>
</g>
<!-- Node1&#45;&gt;Node17 -->
<g id="edge20" class="edge"><title>Node1&#45;&gt;Node17</title>
<path fill="none" stroke="midnightblue" d="M1557.93,-300.376C1528.05,-307.464 1490.61,-316.345 1462.67,-322.971"/>
<polygon fill="midnightblue" stroke="midnightblue" points="1558.83,-303.761 1567.75,-298.047 1557.21,-296.95 1558.83,-303.761"/>
</g>
<!-- Node18 -->
<g id="node18" class="node"><title>Node18</title>
<g id="a_node18"><a xlink:href="../../de/d92/class__3_d_m_1_1_animated_model.html#a985a6d8bc17b99b9226c503e320c9115" target="_top" xlink:title=" ">
<polygon fill="white" stroke="black" points="1363.5,-273.5 1363.5,-303.5 1479.5,-303.5 1479.5,-273.5 1363.5,-273.5"/>
<text text-anchor="start" x="1371.5" y="-291.5" font-family="Helvetica,sans-Serif" font-size="10.00">_3DM::AnimatedModel</text>
<text text-anchor="middle" x="1421.5" y="-280.5" font-family="Helvetica,sans-Serif" font-size="10.00">::renderMesh</text>
</a>
</g>
</g>
<!-- Node1&#45;&gt;Node18 -->
<g id="edge21" class="edge"><title>Node1&#45;&gt;Node18</title>
<path fill="none" stroke="midnightblue" d="M1527.42,-288.5C1511.37,-288.5 1494.82,-288.5 1479.75,-288.5"/>
<polygon fill="midnightblue" stroke="midnightblue" points="1527.87,-292 1537.87,-288.5 1527.87,-285 1527.87,-292"/>
</g>
<!-- Node19 -->
<g id="node19" class="node"><title>Node19</title>
<g id="a_node19"><a xlink:href="../../df/d86/class_default_particle_system.html#a18751e09ab38a8aeb21ec011206efe01" target="_top" xlink:title=" ">
<polygon fill="white" stroke="black" points="1365,-224.5 1365,-254.5 1478,-254.5 1478,-224.5 1365,-224.5"/>
<text text-anchor="start" x="1373" y="-242.5" font-family="Helvetica,sans-Serif" font-size="10.00">DefaultParticleSystem</text>
<text text-anchor="middle" x="1421.5" y="-231.5" font-family="Helvetica,sans-Serif" font-size="10.00">::renderParticles</text>
</a>
</g>
</g>
<!-- Node1&#45;&gt;Node19 -->
<g id="edge22" class="edge"><title>Node1&#45;&gt;Node19</title>
<path fill="none" stroke="midnightblue" d="M1562.07,-276.367C1536.74,-269.675 1505.09,-261.316 1478.34,-254.25"/>
<polygon fill="midnightblue" stroke="midnightblue" points="1561.23,-279.766 1571.79,-278.936 1563.02,-272.998 1561.23,-279.766"/>
</g>
<!-- Node21 -->
<g id="node21" class="node"><title>Node21</title>
<g id="a_node21"><a xlink:href="../../d8/d31/class_rendering_system.html#a05f635d7510f575548938326c6c1b550" target="_top" xlink:title=" ">
<polygon fill="white" stroke="black" points="1342.5,-175.5 1342.5,-205.5 1500.5,-205.5 1500.5,-175.5 1342.5,-175.5"/>
<text text-anchor="start" x="1350.5" y="-193.5" font-family="Helvetica,sans-Serif" font-size="10.00">RenderingSystem::supplyDefault</text>
<text text-anchor="middle" x="1421.5" y="-182.5" font-family="Helvetica,sans-Serif" font-size="10.00">ShaderUniforms</text>
</a>
</g>
</g>
<!-- Node1&#45;&gt;Node21 -->
<g id="edge25" class="edge"><title>Node1&#45;&gt;Node21</title>
<path fill="none" stroke="midnightblue" d="M1588.81,-272.271C1568.42,-255.74 1534.69,-230.346 1502,-214.5 1495.12,-211.167 1487.69,-208.186 1480.22,-205.553"/>
<polygon fill="midnightblue" stroke="midnightblue" points="1586.74,-275.103 1596.68,-278.76 1591.19,-269.7 1586.74,-275.103"/>
</g>
<!-- Node23 -->
<g id="node23" class="node"><title>Node23</title>
<g id="a_node23"><a xlink:href="../../d8/d31/class_rendering_system.html#a5174d014f3eaf6bbc2a3ac03a9029d76" target="_top" xlink:title=" ">
<polygon fill="white" stroke="black" points="1153,-137.5 1153,-167.5 1292,-167.5 1292,-137.5 1153,-137.5"/>
<text text-anchor="start" x="1161" y="-155.5" font-family="Helvetica,sans-Serif" font-size="10.00">RenderingSystem::supplyLit</text>
<text text-anchor="middle" x="1222.5" y="-144.5" font-family="Helvetica,sans-Serif" font-size="10.00">ShaderUniforms</text>
</a>
</g>
</g>
<!-- Node1&#45;&gt;Node23 -->
<g id="edge30" class="edge"><title>Node1&#45;&gt;Node23</title>
<path fill="none" stroke="midnightblue" d="M1598.47,-269.884C1582.76,-241.452 1548.48,-188.128 1502,-165.5 1436.18,-133.454 1350.92,-134.737 1292.16,-141.152"/>
<polygon fill="midnightblue" stroke="midnightblue" points="1595.44,-271.642 1603.24,-278.812 1601.61,-268.343 1595.44,-271.642"/>
</g>
<!-- Node24 -->
<g id="node24" class="node"><title>Node24</title>
<g id="a_node24"><a xlink:href="../../d8/d31/class_rendering_system.html#a9a564fd51aaea7d85eaf86b5101802ee" target="_top" xlink:title=" ">
<polygon fill="white" stroke="black" points="1341,-361.5 1341,-391.5 1502,-391.5 1502,-361.5 1341,-361.5"/>
<text text-anchor="start" x="1349" y="-379.5" font-family="Helvetica,sans-Serif" font-size="10.00">RenderingSystem::supplyParticle</text>
<text text-anchor="middle" x="1421.5" y="-368.5" font-family="Helvetica,sans-Serif" font-size="10.00">ShaderUniforms</text>
</a>
</g>
</g>
<!-- Node1&#45;&gt;Node24 -->
<g id="edge31" class="edge"><title>Node1&#45;&gt;Node24</title>
<path fill="none" stroke="midnightblue" d="M1585.69,-303.842C1564.78,-317.703 1532.3,-337.951 1502,-351.5 1493.81,-355.162 1484.93,-358.516 1476.16,-361.497"/>
<polygon fill="midnightblue" stroke="midnightblue" points="1587.81,-306.631 1594.16,-298.15 1583.91,-300.82 1587.81,-306.631"/>
</g>
<!-- Node25 -->
<g id="node25" class="node"><title>Node25</title>
<g id="a_node25"><a xlink:href="../../dc/d22/class_directional_light_shadow_map.html#a8e8f3d1826214640802cdbf827434afd" target="_top" xlink:title=" ">
<polygon fill="white" stroke="black" points="1353,-0.5 1353,-30.5 1490,-30.5 1490,-0.5 1353,-0.5"/>
<text text-anchor="start" x="1361" y="-18.5" font-family="Helvetica,sans-Serif" font-size="10.00">DirectionalLightShadowMap</text>
<text text-anchor="middle" x="1421.5" y="-7.5" font-family="Helvetica,sans-Serif" font-size="10.00">::updateDepthMap</text>
</a>
</g>
</g>
<!-- Node1&#45;&gt;Node25 -->
<g id="edge33" class="edge"><title>Node1&#45;&gt;Node25</title>
<path fill="none" stroke="midnightblue" d="M1605.36,-268.935C1598.01,-222.171 1572.95,-103.088 1502,-39.5 1498.14,-36.0359 1493.78,-33.0714 1489.16,-30.5346"/>
<polygon fill="midnightblue" stroke="midnightblue" points="1601.92,-269.571 1606.83,-278.956 1608.84,-268.553 1601.92,-269.571"/>
</g>
<!-- Node30 -->
<g id="node30" class="node"><title>Node30</title>
<g id="a_node30"><a xlink:href="../../d1/d18/class_point_light_shadow_map.html#af157b256b6eabd8626fa3875ed48872b" target="_top" xlink:title=" ">
<polygon fill="white" stroke="black" points="1365,-49.5 1365,-79.5 1478,-79.5 1478,-49.5 1365,-49.5"/>
<text text-anchor="start" x="1373" y="-67.5" font-family="Helvetica,sans-Serif" font-size="10.00">PointLightShadowMap</text>
<text text-anchor="middle" x="1421.5" y="-56.5" font-family="Helvetica,sans-Serif" font-size="10.00">::updateDepthMap</text>
</a>
</g>
</g>
<!-- Node1&#45;&gt;Node30 -->
<g id="edge39" class="edge"><title>Node1&#45;&gt;Node30</title>
<path fill="none" stroke="midnightblue" d="M1602.39,-268.935C1590.34,-230.265 1558.41,-143.554 1502,-94.5 1494.99,-88.4013 1486.61,-83.4875 1477.97,-79.5446"/>
<polygon fill="midnightblue" stroke="midnightblue" points="1599.15,-270.329 1605.38,-278.9 1605.86,-268.316 1599.15,-270.329"/>
</g>
<!-- Node4 -->
<g id="node4" class="node"><title>Node4</title>
<g id="a_node4"><a xlink:href="../../dd/d1f/class_game.html#a15ddd769261d923827a3cdf41499c843" target="_top" xlink:title=" ">
<polygon fill="white" stroke="black" points="328,-332 328,-351 404,-351 404,-332 328,-332"/>
<text text-anchor="middle" x="366" y="-339" font-family="Helvetica,sans-Serif" font-size="10.00">Game::render</text>
</a>
</g>
</g>
<!-- Node3&#45;&gt;Node4 -->
<g id="edge3" class="edge"><title>Node3&#45;&gt;Node4</title>
<path fill="none" stroke="midnightblue" d="M477.511,-405.931C450.081,-389.938 406.834,-364.724 383.402,-351.063"/>
<polygon fill="midnightblue" stroke="midnightblue" points="475.754,-408.958 486.156,-410.971 479.279,-402.91 475.754,-408.958"/>
</g>
<!-- Node5 -->
<g id="node5" class="node"><title>Node5</title>
<g id="a_node5"><a xlink:href="../../de/d6b/class_application.html#a9ac99d97ee1cc814298a2f2388bde835" target="_top" xlink:title=" ">
<polygon fill="white" stroke="black" points="194,-293 194,-312 292,-312 292,-293 194,-293"/>
<text text-anchor="middle" x="243" y="-300" font-family="Helvetica,sans-Serif" font-size="10.00">Application::render</text>
</a>
</g>
</g>
<!-- Node4&#45;&gt;Node5 -->
<g id="edge4" class="edge"><title>Node4&#45;&gt;Node5</title>
<path fill="none" stroke="midnightblue" d="M325.782,-328.859C308.866,-323.407 289.406,-317.135 273.714,-312.077"/>
<polygon fill="midnightblue" stroke="midnightblue" points="324.809,-332.223 335.4,-331.96 326.956,-325.56 324.809,-332.223"/>
</g>
<!-- Node6 -->
<g id="node6" class="node"><title>Node6</title>
<g id="a_node6"><a xlink:href="../../de/d6b/class_application.html#a68965449404743bf1add056784d6cf81" target="_top" xlink:title=" ">
<polygon fill="white" stroke="black" points="74,-264 74,-283 158,-283 158,-264 74,-264"/>
<text text-anchor="middle" x="116" y="-271" font-family="Helvetica,sans-Serif" font-size="10.00">Application::run</text>
</a>
</g>
</g>
<!-- Node5&#45;&gt;Node6 -->
<g id="edge5" class="edge"><title>Node5&#45;&gt;Node6</title>
<path fill="none" stroke="midnightblue" d="M190.91,-290.647C180.036,-288.124 168.684,-285.491 158.233,-283.066"/>
<polygon fill="midnightblue" stroke="midnightblue" points="190.192,-294.073 200.724,-292.924 191.774,-287.254 190.192,-294.073"/>
</g>
<!-- Node7 -->
<g id="node7" class="node"><title>Node7</title>
<g id="a_node7"><a xlink:href="../../d5/d12/_main_8cpp.html#a0ddf1224851353fc92bfbff6f499fa97" target="_top" xlink:title=" ">
<polygon fill="white" stroke="black" points="0,-264 0,-283 38,-283 38,-264 0,-264"/>
<text text-anchor="middle" x="19" y="-271" font-family="Helvetica,sans-Serif" font-size="10.00">main</text>
</a>
</g>
</g>
<!-- Node6&#45;&gt;Node7 -->
<g id="edge6" class="edge"><title>Node6&#45;&gt;Node7</title>
<path fill="none" stroke="midnightblue" d="M63.6206,-273.5C54.5384,-273.5 45.6466,-273.5 38.2853,-273.5"/>
<polygon fill="midnightblue" stroke="midnightblue" points="63.8842,-277 73.8841,-273.5 63.8841,-270 63.8842,-277"/>
</g>
<!-- Node9 -->
<g id="node9" class="node"><title>Node9</title>
<g id="a_node9"><a xlink:href="../../d1/dce/class_sky_box_system.html#a20cc449bcb48e9cc9067f5bb324f6238" target="_top" xlink:title=" ">
<polygon fill="white" stroke="black" points="977.5,-114 977.5,-133 1095.5,-133 1095.5,-114 977.5,-114"/>
<text text-anchor="middle" x="1036.5" y="-121" font-family="Helvetica,sans-Serif" font-size="10.00">SkyBoxSystem::render</text>
</a>
</g>
</g>
<!-- Node8&#45;&gt;Node9 -->
<g id="edge8" class="edge"><title>Node8&#45;&gt;Node9</title>
<path fill="none" stroke="midnightblue" d="M1162.01,-113.35C1140.78,-115.081 1116.9,-117.027 1095.77,-118.75"/>
<polygon fill="midnightblue" stroke="midnightblue" points="1162.51,-116.821 1172.19,-112.52 1161.94,-109.844 1162.51,-116.821"/>
</g>
<!-- Node10 -->
<g id="node10" class="node"><title>Node10</title>
<g id="a_node10"><a xlink:href="../../d8/d31/class_rendering_system.html#ad5115644b3d0a1df6446a610c683a31e" target="_top" xlink:title=" ">
<polygon fill="white" stroke="black" points="777,-271 777,-290 933,-290 933,-271 777,-271"/>
<text text-anchor="middle" x="855" y="-278" font-family="Helvetica,sans-Serif" font-size="10.00">RenderingSystem::renderOthers</text>
</a>
</g>
</g>
<!-- Node9&#45;&gt;Node10 -->
<g id="edge9" class="edge"><title>Node9&#45;&gt;Node10</title>
<path fill="none" stroke="midnightblue" d="M992.316,-136.835C984.199,-140.306 976.055,-144.508 969,-149.5 918.986,-184.895 876.926,-247.065 861.902,-270.862"/>
<polygon fill="midnightblue" stroke="midnightblue" points="993.757,-140.029 1001.77,-133.092 991.18,-133.52 993.757,-140.029"/>
</g>
<!-- Node11 -->
<g id="node11" class="node"><title>Node11</title>
<g id="a_node11"><a xlink:href="../../d8/d31/class_rendering_system.html#a9f1ec48fdfa79ddc55421b6014fdb9c6" target="_top" xlink:title=" ">
<polygon fill="white" stroke="black" points="603,-322 603,-341 741,-341 741,-322 603,-322"/>
<text text-anchor="middle" x="672" y="-329" font-family="Helvetica,sans-Serif" font-size="10.00">RenderingSystem::renderAll</text>
</a>
</g>
</g>
<!-- Node10&#45;&gt;Node11 -->
<g id="edge10" class="edge"><title>Node10&#45;&gt;Node11</title>
<path fill="none" stroke="midnightblue" d="M810.046,-292.885C778.297,-301.831 736.046,-313.736 706.892,-321.95"/>
<polygon fill="midnightblue" stroke="midnightblue" points="811.279,-296.174 819.955,-290.093 809.381,-289.436 811.279,-296.174"/>
</g>
<!-- Node11&#45;&gt;Node3 -->
<g id="edge11" class="edge"><title>Node11&#45;&gt;Node3</title>
<path fill="none" stroke="midnightblue" d="M644.215,-345.817C610.007,-364.103 551.739,-395.249 522.442,-410.909"/>
<polygon fill="midnightblue" stroke="midnightblue" points="646.012,-348.825 653.182,-341.025 642.712,-342.652 646.012,-348.825"/>
</g>
<!-- Node12&#45;&gt;Node3 -->
<g id="edge13" class="edge"><title>Node12&#45;&gt;Node3</title>
<path fill="none" stroke="midnightblue" d="M802.112,-454.238C751.304,-449.9 671.728,-442.666 603,-434.5 591.422,-433.124 579.102,-431.501 567.236,-429.856"/>
<polygon fill="midnightblue" stroke="midnightblue" points="801.93,-457.735 812.19,-455.093 802.522,-450.76 801.93,-457.735"/>
</g>
<!-- Node13&#45;&gt;Node3 -->
<g id="edge16" class="edge"><title>Node13&#45;&gt;Node3</title>
<path fill="none" stroke="midnightblue" d="M1368.46,-420.5C1294.78,-420.5 1155.86,-420.5 1037.5,-420.5 1037.5,-420.5 1037.5,-420.5 854,-420.5 753.579,-420.5 636.929,-420.5 567.003,-420.5"/>
<polygon fill="midnightblue" stroke="midnightblue" points="1368.84,-424 1378.84,-420.5 1368.84,-417 1368.84,-424"/>
</g>
<!-- Node14 -->
<g id="node14" class="node"><title>Node14</title>
<g id="a_node14"><a xlink:href="../../dd/d84/class_gui_text_character.html#a807cfea698c6d8741d95e251230a5427" target="_top" xlink:title=" ">
<polygon fill="white" stroke="black" points="1160,-373 1160,-392 1285,-392 1285,-373 1160,-373"/>
<text text-anchor="middle" x="1222.5" y="-380" font-family="Helvetica,sans-Serif" font-size="10.00">GuiTextCharacter::render</text>
</a>
</g>
</g>
<!-- Node13&#45;&gt;Node14 -->
<g id="edge15" class="edge"><title>Node13&#45;&gt;Node14</title>
<path fill="none" stroke="midnightblue" d="M1368.58,-410.484C1338.96,-404.772 1302.06,-397.653 1272.88,-392.025"/>
<polygon fill="midnightblue" stroke="midnightblue" points="1368.24,-413.984 1378.72,-412.441 1369.57,-407.11 1368.24,-413.984"/>
</g>
<!-- Node15 -->
<g id="node15" class="node"><title>Node15</title>
<g id="a_node15"><a xlink:href="../../d1/db9/class_gui_sprite.html#ad8d743c3e3889fba893f29796717114f" target="_top" xlink:title=" ">
<polygon fill="white" stroke="black" points="1177.5,-321 1177.5,-340 1267.5,-340 1267.5,-321 1177.5,-321"/>
<text text-anchor="middle" x="1222.5" y="-328" font-family="Helvetica,sans-Serif" font-size="10.00">GuiSprite::render</text>
</a>
</g>
</g>
<!-- Node13&#45;&gt;Node15 -->
<g id="edge17" class="edge"><title>Node13&#45;&gt;Node15</title>
<path fill="none" stroke="midnightblue" d="M1368.84,-411.927C1359.21,-409.119 1349.51,-405.405 1341,-400.5 1321.12,-389.044 1324.04,-376.302 1305,-363.5 1289.92,-353.365 1271.25,-345.521 1255.59,-340.029"/>
<polygon fill="midnightblue" stroke="midnightblue" points="1368.24,-415.387 1378.8,-414.538 1370.02,-408.616 1368.24,-415.387"/>
</g>
<!-- Node16 -->
<g id="node16" class="node"><title>Node16</title>
<g id="a_node16"><a xlink:href="../../d7/dd6/class_pause_menu_system.html#a275e625e495889f598a67bdffb2ffd4f" target="_top" xlink:title=" ">
<polygon fill="white" stroke="black" points="969,-319 969,-338 1104,-338 1104,-319 969,-319"/>
<text text-anchor="middle" x="1036.5" y="-326" font-family="Helvetica,sans-Serif" font-size="10.00">PauseMenuSystem::render</text>
</a>
</g>
</g>
<!-- Node15&#45;&gt;Node16 -->
<g id="edge18" class="edge"><title>Node15&#45;&gt;Node16</title>
<path fill="none" stroke="midnightblue" d="M1167.37,-329.912C1147.59,-329.697 1124.98,-329.451 1104.23,-329.225"/>
<polygon fill="midnightblue" stroke="midnightblue" points="1167.39,-333.412 1177.43,-330.021 1167.47,-326.412 1167.39,-333.412"/>
</g>
<!-- Node16&#45;&gt;Node10 -->
<g id="edge19" class="edge"><title>Node16&#45;&gt;Node10</title>
<path fill="none" stroke="midnightblue" d="M989.668,-316.244C959.266,-308.114 919.942,-297.599 891.831,-290.082"/>
<polygon fill="midnightblue" stroke="midnightblue" points="989.042,-319.7 999.607,-318.902 990.851,-312.937 989.042,-319.7"/>
</g>
<!-- Node20 -->
<g id="node20" class="node"><title>Node20</title>
<g id="a_node20"><a xlink:href="../../d8/d31/class_rendering_system.html#a488d5dcc3e1f3c63dedee53bc022a6af" target="_top" xlink:title=" ">
<polygon fill="white" stroke="black" points="1140,-271 1140,-290 1305,-290 1305,-271 1140,-271"/>
<text text-anchor="middle" x="1222.5" y="-278" font-family="Helvetica,sans-Serif" font-size="10.00">RenderingSystem::renderParticles</text>
</a>
</g>
</g>
<!-- Node19&#45;&gt;Node20 -->
<g id="edge23" class="edge"><title>Node19&#45;&gt;Node20</title>
<path fill="none" stroke="midnightblue" d="M1354.73,-253.189C1326.73,-259.015 1294.77,-265.668 1269.39,-270.949"/>
<polygon fill="midnightblue" stroke="midnightblue" points="1355.76,-256.549 1364.84,-251.085 1354.33,-249.696 1355.76,-256.549"/>
</g>
<!-- Node20&#45;&gt;Node10 -->
<g id="edge24" class="edge"><title>Node20&#45;&gt;Node10</title>
<path fill="none" stroke="midnightblue" d="M1129.6,-280.5C1069.03,-280.5 990.606,-280.5 933.256,-280.5"/>
<polygon fill="midnightblue" stroke="midnightblue" points="1129.93,-284 1139.93,-280.5 1129.93,-277 1129.93,-284"/>
</g>
<!-- Node21&#45;&gt;Node10 -->
<g id="edge27" class="edge"><title>Node21&#45;&gt;Node10</title>
<path fill="none" stroke="midnightblue" d="M1332.38,-204.549C1216.39,-223.041 1015.55,-255.062 915.797,-270.966"/>
<polygon fill="midnightblue" stroke="midnightblue" points="1332.98,-207.998 1342.31,-202.967 1331.88,-201.085 1332.98,-207.998"/>
</g>
<!-- Node22 -->
<g id="node22" class="node"><title>Node22</title>
<g id="a_node22"><a xlink:href="../../d8/d31/class_rendering_system.html#a167a571527b6f44e8c4bf45f383500be" target="_top" xlink:title=" ">
<polygon fill="white" stroke="black" points="970.5,-159.5 970.5,-189.5 1102.5,-189.5 1102.5,-159.5 970.5,-159.5"/>
<text text-anchor="start" x="978.5" y="-177.5" font-family="Helvetica,sans-Serif" font-size="10.00">RenderingSystem::prepare</text>
<text text-anchor="middle" x="1036.5" y="-166.5" font-family="Helvetica,sans-Serif" font-size="10.00">Shader</text>
</a>
</g>
</g>
<!-- Node21&#45;&gt;Node22 -->
<g id="edge26" class="edge"><title>Node21&#45;&gt;Node22</title>
<path fill="none" stroke="midnightblue" d="M1331.94,-186.8C1261.96,-183.877 1165.88,-179.863 1102.78,-177.227"/>
<polygon fill="midnightblue" stroke="midnightblue" points="1331.93,-190.303 1342.07,-187.224 1332.22,-183.309 1331.93,-190.303"/>
</g>
<!-- Node21&#45;&gt;Node23 -->
<g id="edge28" class="edge"><title>Node21&#45;&gt;Node23</title>
<path fill="none" stroke="midnightblue" d="M1332.79,-173.582C1319.18,-170.956 1305.29,-168.277 1292.18,-165.748"/>
<polygon fill="midnightblue" stroke="midnightblue" points="1332.16,-177.024 1342.64,-175.481 1333.48,-170.151 1332.16,-177.024"/>
</g>
<!-- Node23&#45;&gt;Node22 -->
<g id="edge29" class="edge"><title>Node23&#45;&gt;Node22</title>
<path fill="none" stroke="midnightblue" d="M1142.85,-161.904C1129.47,-163.504 1115.7,-165.15 1102.72,-166.702"/>
<polygon fill="midnightblue" stroke="midnightblue" points="1143.47,-165.355 1152.99,-160.692 1142.64,-158.404 1143.47,-165.355"/>
</g>
<!-- Node24&#45;&gt;Node20 -->
<g id="edge32" class="edge"><title>Node24&#45;&gt;Node20</title>
<path fill="none" stroke="midnightblue" d="M1350.97,-357.153C1347.51,-355.418 1344.17,-353.537 1341,-351.5 1320.88,-338.567 1324.73,-325.019 1305,-311.5 1291.26,-302.088 1274.28,-295.04 1259.39,-290.064"/>
<polygon fill="midnightblue" stroke="midnightblue" points="1349.77,-360.453 1360.32,-361.417 1352.67,-354.084 1349.77,-360.453"/>
</g>
<!-- Node26 -->
<g id="node26" class="node"><title>Node26</title>
<g id="a_node26"><a xlink:href="../../d3/de8/class_fixed_updating_system.html#a62f406cd3cb3d441e605ed1a5e888ec6" target="_top" xlink:title=" ">
<polygon fill="white" stroke="black" points="1166,-49.5 1166,-79.5 1279,-79.5 1279,-49.5 1166,-49.5"/>
<text text-anchor="start" x="1174" y="-67.5" font-family="Helvetica,sans-Serif" font-size="10.00">FixedUpdatingSystem</text>
<text text-anchor="middle" x="1222.5" y="-56.5" font-family="Helvetica,sans-Serif" font-size="10.00">::updateShadowMaps</text>
</a>
</g>
</g>
<!-- Node25&#45;&gt;Node26 -->
<g id="edge34" class="edge"><title>Node25&#45;&gt;Node26</title>
<path fill="none" stroke="midnightblue" d="M1350.21,-32.9836C1326.87,-38.7899 1301.21,-45.1704 1279.13,-50.6627"/>
<polygon fill="midnightblue" stroke="midnightblue" points="1351.2,-36.345 1360.05,-30.5346 1349.51,-29.5519 1351.2,-36.345"/>
</g>
<!-- Node27 -->
<g id="node27" class="node"><title>Node27</title>
<g id="a_node27"><a xlink:href="../../d3/de8/class_fixed_updating_system.html#a3ed508813ba850baed19e86ef0429028" target="_top" xlink:title=" ">
<polygon fill="white" stroke="black" points="798.5,-139.5 798.5,-169.5 911.5,-169.5 911.5,-139.5 798.5,-139.5"/>
<text text-anchor="start" x="806.5" y="-157.5" font-family="Helvetica,sans-Serif" font-size="10.00">FixedUpdatingSystem</text>
<text text-anchor="middle" x="855" y="-146.5" font-family="Helvetica,sans-Serif" font-size="10.00">::fixedUpdate</text>
</a>
</g>
</g>
<!-- Node26&#45;&gt;Node27 -->
<g id="edge35" class="edge"><title>Node26&#45;&gt;Node27</title>
<path fill="none" stroke="midnightblue" d="M1155.9,-70.1792C1104.32,-75.7655 1031.06,-86.1938 969,-104.5 939.164,-113.301 906.875,-128.173 884.483,-139.415"/>
<polygon fill="midnightblue" stroke="midnightblue" points="1156.34,-73.6526 1165.92,-69.1257 1155.6,-66.691 1156.34,-73.6526"/>
</g>
<!-- Node28 -->
<g id="node28" class="node"><title>Node28</title>
<g id="a_node28"><a xlink:href="../../dd/d1f/class_game.html#a157e87f9dc147a5842ee6bdc06c95c17" target="_top" xlink:title=" ">
<polygon fill="white" stroke="black" points="622,-215 622,-234 722,-234 722,-215 622,-215"/>
<text text-anchor="middle" x="672" y="-222" font-family="Helvetica,sans-Serif" font-size="10.00">Game::fixedUpdate</text>
</a>
</g>
</g>
<!-- Node27&#45;&gt;Node28 -->
<g id="edge36" class="edge"><title>Node27&#45;&gt;Node28</title>
<path fill="none" stroke="midnightblue" d="M805.653,-173.198C770.815,-186.671 725.245,-204.295 697.598,-214.987"/>
<polygon fill="midnightblue" stroke="midnightblue" points="807.107,-176.388 815.171,-169.517 804.582,-169.859 807.107,-176.388"/>
</g>
<!-- Node29 -->
<g id="node29" class="node"><title>Node29</title>
<g id="a_node29"><a xlink:href="../../de/d6b/class_application.html#a95c827cb5cf08bd0c3cc7b07ed4b4249" target="_top" xlink:title=" ">
<polygon fill="white" stroke="black" points="442.5,-225 442.5,-244 564.5,-244 564.5,-225 442.5,-225"/>
<text text-anchor="middle" x="503.5" y="-232" font-family="Helvetica,sans-Serif" font-size="10.00">Application::fixedUpdate</text>
</a>
</g>
</g>
<!-- Node28&#45;&gt;Node29 -->
<g id="edge37" class="edge"><title>Node28&#45;&gt;Node29</title>
<path fill="none" stroke="midnightblue" d="M611.613,-228.067C596.379,-228.982 579.981,-229.967 564.706,-230.884"/>
<polygon fill="midnightblue" stroke="midnightblue" points="612.173,-231.54 621.945,-227.446 611.753,-224.552 612.173,-231.54"/>
</g>
<!-- Node29&#45;&gt;Node6 -->
<g id="edge38" class="edge"><title>Node29&#45;&gt;Node6</title>
<path fill="none" stroke="midnightblue" d="M432.251,-241.607C352.067,-249.719 223.584,-262.717 158.164,-269.336"/>
<polygon fill="midnightblue" stroke="midnightblue" points="432.669,-245.083 442.266,-240.594 431.964,-238.118 432.669,-245.083"/>
</g>
<!-- Node30&#45;&gt;Node26 -->
<g id="edge40" class="edge"><title>Node30&#45;&gt;Node26</title>
<path fill="none" stroke="midnightblue" d="M1354.54,-64.5C1330.04,-64.5 1302.5,-64.5 1279.02,-64.5"/>
<polygon fill="midnightblue" stroke="midnightblue" points="1354.84,-68.0001 1364.84,-64.5 1354.84,-61.0001 1354.84,-68.0001"/>
</g>
</g>
</svg>
