<?xml version="1.0" encoding="UTF-8" standalone="no"?>
<!DOCTYPE svg PUBLIC "-//W3C//DTD SVG 1.1//EN"
 "http://www.w3.org/Graphics/SVG/1.1/DTD/svg11.dtd">
<!-- Generated by graphviz version 2.38.0 (20140413.2041)
 -->
<!-- Title: src/AnimationKeys.h Pages: 1 -->
<svg width="216pt" height="84pt"
 viewBox="0.00 0.00 216.00 84.00" xmlns="http://www.w3.org/2000/svg" xmlns:xlink="http://www.w3.org/1999/xlink">
<g id="graph0" class="graph" transform="scale(1 1) rotate(0) translate(4 80)">
<title>src/AnimationKeys.h</title>
<polygon fill="white" stroke="none" points="-4,4 -4,-80 212,-80 212,4 -4,4"/>
<!-- Node1 -->
<g id="node1" class="node"><title>Node1</title>
<g id="a_node1"><a xlink:title=" ">
<polygon fill="#bfbfbf" stroke="black" points="60.5,-56.5 60.5,-75.5 167.5,-75.5 167.5,-56.5 60.5,-56.5"/>
<text text-anchor="middle" x="114" y="-63.5" font-family="Helvetica,sans-Serif" font-size="10.00">src/AnimationKeys.h</text>
</a>
</g>
</g>
<!-- Node2 -->
<g id="node2" class="node"><title>Node2</title>
<g id="a_node2"><a xlink:title=" ">
<polygon fill="white" stroke="#bfbfbf" points="0,-0.5 0,-19.5 116,-19.5 116,-0.5 0,-0.5"/>
<text text-anchor="middle" x="58" y="-7.5" font-family="Helvetica,sans-Serif" font-size="10.00">glm/gtc/quaternion.hpp</text>
</a>
</g>
</g>
<!-- Node1&#45;&gt;Node2 -->
<g id="edge1" class="edge"><title>Node1&#45;&gt;Node2</title>
<path fill="none" stroke="midnightblue" d="M105.003,-56.324C96.8056,-48.4196 84.4945,-36.5482 74.528,-26.9377"/>
<polygon fill="midnightblue" stroke="midnightblue" points="76.789,-24.2558 67.1611,-19.8339 71.9301,-29.2947 76.789,-24.2558"/>
</g>
<!-- Node3 -->
<g id="node3" class="node"><title>Node3</title>
<g id="a_node3"><a xlink:title=" ">
<polygon fill="white" stroke="#bfbfbf" points="134,-0.5 134,-19.5 208,-19.5 208,-0.5 134,-0.5"/>
<text text-anchor="middle" x="171" y="-7.5" font-family="Helvetica,sans-Serif" font-size="10.00">glm/vec3.hpp</text>
</a>
</g>
</g>
<!-- Node1&#45;&gt;Node3 -->
<g id="edge2" class="edge"><title>Node1&#45;&gt;Node3</title>
<path fill="none" stroke="midnightblue" d="M123.158,-56.324C131.501,-48.4196 144.032,-36.5482 154.177,-26.9377"/>
<polygon fill="midnightblue" stroke="midnightblue" points="156.823,-29.2522 161.675,-19.8339 152.009,-24.1705 156.823,-29.2522"/>
</g>
</g>
</svg>
