<?xml version="1.0" encoding="UTF-8" standalone="no"?>
<!DOCTYPE svg PUBLIC "-//W3C//DTD SVG 1.1//EN"
 "http://www.w3.org/Graphics/SVG/1.1/DTD/svg11.dtd">
<!-- Generated by graphviz version 2.38.0 (20140413.2041)
 -->
<!-- Title: src/RenderTexture.h Pages: 1 -->
<svg width="469pt" height="308pt"
 viewBox="0.00 0.00 468.50 308.00" xmlns="http://www.w3.org/2000/svg" xmlns:xlink="http://www.w3.org/1999/xlink">
<g id="graph0" class="graph" transform="scale(1 1) rotate(0) translate(4 304)">
<title>src/RenderTexture.h</title>
<polygon fill="white" stroke="none" points="-4,4 -4,-304 464.5,-304 464.5,4 -4,4"/>
<!-- Node1 -->
<g id="node1" class="node"><title>Node1</title>
<g id="a_node1"><a xlink:title=" ">
<polygon fill="#bfbfbf" stroke="black" points="216,-280.5 216,-299.5 320,-299.5 320,-280.5 216,-280.5"/>
<text text-anchor="middle" x="268" y="-287.5" font-family="Helvetica,sans-Serif" font-size="10.00">src/RenderTexture.h</text>
</a>
</g>
</g>
<!-- Node2 -->
<g id="node2" class="node"><title>Node2</title>
<g id="a_node2"><a xlink:href="../../db/d81/_fixed_updating_system_8h.html" target="_top" xlink:title=" ">
<polygon fill="white" stroke="black" points="53.5,-224.5 53.5,-243.5 190.5,-243.5 190.5,-224.5 53.5,-224.5"/>
<text text-anchor="middle" x="122" y="-231.5" font-family="Helvetica,sans-Serif" font-size="10.00">src/FixedUpdatingSystem.h</text>
</a>
</g>
</g>
<!-- Node1&#45;&gt;Node2 -->
<g id="edge1" class="edge"><title>Node1&#45;&gt;Node2</title>
<path fill="none" stroke="midnightblue" d="M235.301,-276.906C207.852,-266.754 169.332,-252.506 145.026,-243.516"/>
<polygon fill="midnightblue" stroke="midnightblue" points="234.273,-280.257 244.866,-280.444 236.701,-273.692 234.273,-280.257"/>
</g>
<!-- Node10 -->
<g id="node10" class="node"><title>Node10</title>
<g id="a_node10"><a xlink:href="../../da/d66/_rendering_system_8h.html" target="_top" xlink:title=" ">
<polygon fill="white" stroke="black" points="208.5,-224.5 208.5,-243.5 327.5,-243.5 327.5,-224.5 208.5,-224.5"/>
<text text-anchor="middle" x="268" y="-231.5" font-family="Helvetica,sans-Serif" font-size="10.00">src/RenderingSystem.h</text>
</a>
</g>
</g>
<!-- Node1&#45;&gt;Node10 -->
<g id="edge9" class="edge"><title>Node1&#45;&gt;Node10</title>
<path fill="none" stroke="midnightblue" d="M268,-269.805C268,-260.91 268,-250.78 268,-243.751"/>
<polygon fill="midnightblue" stroke="midnightblue" points="264.5,-270.083 268,-280.083 271.5,-270.083 264.5,-270.083"/>
</g>
<!-- Node12 -->
<g id="node12" class="node"><title>Node12</title>
<g id="a_node12"><a xlink:href="../../dc/dd6/_render_texture_8cpp.html" target="_top" xlink:title=" ">
<polygon fill="white" stroke="black" points="345.5,-224.5 345.5,-243.5 460.5,-243.5 460.5,-224.5 345.5,-224.5"/>
<text text-anchor="middle" x="403" y="-231.5" font-family="Helvetica,sans-Serif" font-size="10.00">src/RenderTexture.cpp</text>
</a>
</g>
</g>
<!-- Node1&#45;&gt;Node12 -->
<g id="edge12" class="edge"><title>Node1&#45;&gt;Node12</title>
<path fill="none" stroke="midnightblue" d="M298.906,-276.638C324.24,-266.504 359.431,-252.427 381.709,-243.516"/>
<polygon fill="midnightblue" stroke="midnightblue" points="297.376,-273.48 289.391,-280.444 299.976,-279.979 297.376,-273.48"/>
</g>
<!-- Node3 -->
<g id="node3" class="node"><title>Node3</title>
<g id="a_node3"><a xlink:href="../../d9/dcd/_game_8h.html" target="_top" xlink:title=" ">
<polygon fill="white" stroke="black" points="166,-168.5 166,-187.5 234,-187.5 234,-168.5 166,-168.5"/>
<text text-anchor="middle" x="200" y="-175.5" font-family="Helvetica,sans-Serif" font-size="10.00">src/Game.h</text>
</a>
</g>
</g>
<!-- Node2&#45;&gt;Node3 -->
<g id="edge2" class="edge"><title>Node2&#45;&gt;Node3</title>
<path fill="none" stroke="midnightblue" d="M142.768,-218.622C157.017,-208.757 175.456,-195.992 187.499,-187.655"/>
<polygon fill="midnightblue" stroke="midnightblue" points="140.762,-215.754 134.532,-224.324 144.746,-221.51 140.762,-215.754"/>
</g>
<!-- Node9 -->
<g id="node9" class="node"><title>Node9</title>
<g id="a_node9"><a xlink:href="../../d0/d56/_fixed_updating_system_8cpp.html" target="_top" xlink:title=" ">
<polygon fill="white" stroke="black" points="0,-168.5 0,-187.5 148,-187.5 148,-168.5 0,-168.5"/>
<text text-anchor="middle" x="74" y="-175.5" font-family="Helvetica,sans-Serif" font-size="10.00">src/FixedUpdatingSystem.cpp</text>
</a>
</g>
</g>
<!-- Node2&#45;&gt;Node9 -->
<g id="edge8" class="edge"><title>Node2&#45;&gt;Node9</title>
<path fill="none" stroke="midnightblue" d="M107.272,-216.431C98.8599,-206.967 88.6513,-195.483 81.7787,-187.751"/>
<polygon fill="midnightblue" stroke="midnightblue" points="104.814,-218.934 114.074,-224.083 110.046,-214.284 104.814,-218.934"/>
</g>
<!-- Node4 -->
<g id="node4" class="node"><title>Node4</title>
<g id="a_node4"><a xlink:href="../../d9/da3/_application_8h.html" target="_top" xlink:title=" ">
<polygon fill="white" stroke="black" points="104.5,-112.5 104.5,-131.5 193.5,-131.5 193.5,-112.5 104.5,-112.5"/>
<text text-anchor="middle" x="149" y="-119.5" font-family="Helvetica,sans-Serif" font-size="10.00">src/Application.h</text>
</a>
</g>
</g>
<!-- Node3&#45;&gt;Node4 -->
<g id="edge3" class="edge"><title>Node3&#45;&gt;Node4</title>
<path fill="none" stroke="midnightblue" d="M184.622,-160.718C175.633,-151.2 164.641,-139.561 157.265,-131.751"/>
<polygon fill="midnightblue" stroke="midnightblue" points="182.168,-163.216 191.578,-168.083 187.257,-158.41 182.168,-163.216"/>
</g>
<!-- Node8 -->
<g id="node8" class="node"><title>Node8</title>
<g id="a_node8"><a xlink:href="../../d7/db5/_game_8cpp.html" target="_top" xlink:title=" ">
<polygon fill="white" stroke="black" points="212,-112.5 212,-131.5 290,-131.5 290,-112.5 212,-112.5"/>
<text text-anchor="middle" x="251" y="-119.5" font-family="Helvetica,sans-Serif" font-size="10.00">src/Game.cpp</text>
</a>
</g>
</g>
<!-- Node3&#45;&gt;Node8 -->
<g id="edge7" class="edge"><title>Node3&#45;&gt;Node8</title>
<path fill="none" stroke="midnightblue" d="M215.378,-160.718C224.367,-151.2 235.359,-139.561 242.735,-131.751"/>
<polygon fill="midnightblue" stroke="midnightblue" points="212.743,-158.41 208.422,-168.083 217.832,-163.216 212.743,-158.41"/>
</g>
<!-- Node5 -->
<g id="node5" class="node"><title>Node5</title>
<g id="a_node5"><a xlink:href="../../d0/d42/_application_8cpp.html" target="_top" xlink:title=" ">
<polygon fill="white" stroke="black" points="50,-56.5 50,-75.5 150,-75.5 150,-56.5 50,-56.5"/>
<text text-anchor="middle" x="100" y="-63.5" font-family="Helvetica,sans-Serif" font-size="10.00">src/Application.cpp</text>
</a>
</g>
</g>
<!-- Node4&#45;&gt;Node5 -->
<g id="edge4" class="edge"><title>Node4&#45;&gt;Node5</title>
<path fill="none" stroke="midnightblue" d="M133.966,-104.431C125.378,-94.9673 114.957,-83.4827 107.941,-75.7511"/>
<polygon fill="midnightblue" stroke="midnightblue" points="131.597,-107.029 140.909,-112.083 136.781,-102.325 131.597,-107.029"/>
</g>
<!-- Node6 -->
<g id="node6" class="node"><title>Node6</title>
<g id="a_node6"><a xlink:href="../../d4/dbf/main_8h.html" target="_top" xlink:title=" ">
<polygon fill="white" stroke="black" points="168,-56.5 168,-75.5 230,-75.5 230,-56.5 168,-56.5"/>
<text text-anchor="middle" x="199" y="-63.5" font-family="Helvetica,sans-Serif" font-size="10.00">src/main.h</text>
</a>
</g>
</g>
<!-- Node4&#45;&gt;Node6 -->
<g id="edge5" class="edge"><title>Node4&#45;&gt;Node6</title>
<path fill="none" stroke="midnightblue" d="M164.076,-104.718C172.889,-95.1997 183.666,-83.5608 190.897,-75.7511"/>
<polygon fill="midnightblue" stroke="midnightblue" points="161.482,-102.367 157.256,-112.083 166.619,-107.123 161.482,-102.367"/>
</g>
<!-- Node7 -->
<g id="node7" class="node"><title>Node7</title>
<g id="a_node7"><a xlink:href="../../d5/d12/_main_8cpp.html" target="_top" xlink:title=" ">
<polygon fill="white" stroke="black" points="162.5,-0.5 162.5,-19.5 235.5,-19.5 235.5,-0.5 162.5,-0.5"/>
<text text-anchor="middle" x="199" y="-7.5" font-family="Helvetica,sans-Serif" font-size="10.00">src/Main.cpp</text>
</a>
</g>
</g>
<!-- Node6&#45;&gt;Node7 -->
<g id="edge6" class="edge"><title>Node6&#45;&gt;Node7</title>
<path fill="none" stroke="midnightblue" d="M199,-45.8045C199,-36.9102 199,-26.7798 199,-19.7511"/>
<polygon fill="midnightblue" stroke="midnightblue" points="195.5,-46.083 199,-56.083 202.5,-46.083 195.5,-46.083"/>
</g>
<!-- Node10&#45;&gt;Node3 -->
<g id="edge10" class="edge"><title>Node10&#45;&gt;Node3</title>
<path fill="none" stroke="midnightblue" d="M249.238,-218.101C237,-208.382 221.441,-196.027 211.124,-187.834"/>
<polygon fill="midnightblue" stroke="midnightblue" points="247.067,-220.846 257.075,-224.324 251.42,-215.364 247.067,-220.846"/>
</g>
<!-- Node11 -->
<g id="node11" class="node"><title>Node11</title>
<g id="a_node11"><a xlink:href="../../d2/db8/_rendering_system_8cpp.html" target="_top" xlink:title=" ">
<polygon fill="white" stroke="black" points="252.5,-168.5 252.5,-187.5 381.5,-187.5 381.5,-168.5 252.5,-168.5"/>
<text text-anchor="middle" x="317" y="-175.5" font-family="Helvetica,sans-Serif" font-size="10.00">src/RenderingSystem.cpp</text>
</a>
</g>
</g>
<!-- Node10&#45;&gt;Node11 -->
<g id="edge11" class="edge"><title>Node10&#45;&gt;Node11</title>
<path fill="none" stroke="midnightblue" d="M283.034,-216.431C291.622,-206.967 302.043,-195.483 309.059,-187.751"/>
<polygon fill="midnightblue" stroke="midnightblue" points="280.219,-214.325 276.091,-224.083 285.403,-219.029 280.219,-214.325"/>
</g>
</g>
</svg>
