<?xml version="1.0" encoding="UTF-8" standalone="no"?>
<!DOCTYPE svg PUBLIC "-//W3C//DTD SVG 1.1//EN"
 "http://www.w3.org/Graphics/SVG/1.1/DTD/svg11.dtd">
<!-- Generated by graphviz version 2.38.0 (20140413.2041)
 -->
<!-- Title: TextureLocator Pages: 1 -->
<svg width="257pt" height="174pt"
 viewBox="0.00 0.00 257.00 174.00" xmlns="http://www.w3.org/2000/svg" xmlns:xlink="http://www.w3.org/1999/xlink">
<g id="graph0" class="graph" transform="scale(1 1) rotate(0) translate(4 170)">
<title>TextureLocator</title>
<polygon fill="white" stroke="none" points="-4,4 -4,-170 253,-170 253,4 -4,4"/>
<!-- Node1 -->
<g id="node1" class="node"><title>Node1</title>
<g id="a_node1"><a xlink:title=" ">
<polygon fill="#bfbfbf" stroke="black" points="51.5,-0.5 51.5,-19.5 132.5,-19.5 132.5,-0.5 51.5,-0.5"/>
<text text-anchor="middle" x="92" y="-7.5" font-family="Helvetica,sans-Serif" font-size="10.00">TextureLocator</text>
</a>
</g>
</g>
<!-- Node2 -->
<g id="node2" class="node"><title>Node2</title>
<g id="a_node2"><a xlink:href="../../d2/d23/class_locator.html" target="_top" xlink:title=" ">
<polygon fill="white" stroke="black" points="29,-57.5 29,-87.5 155,-87.5 155,-57.5 29,-57.5"/>
<text text-anchor="start" x="37" y="-75.5" font-family="Helvetica,sans-Serif" font-size="10.00">Locator&lt; TextureHandler,</text>
<text text-anchor="middle" x="92" y="-64.5" font-family="Helvetica,sans-Serif" font-size="10.00"> TextureHandler &gt;</text>
</a>
</g>
</g>
<!-- Node2&#45;&gt;Node1 -->
<g id="edge1" class="edge"><title>Node2&#45;&gt;Node1</title>
<path fill="none" stroke="midnightblue" d="M92,-47.3524C92,-37.5132 92,-26.7753 92,-19.5399"/>
<polygon fill="midnightblue" stroke="midnightblue" points="88.5001,-47.468 92,-57.468 95.5001,-47.4681 88.5001,-47.468"/>
</g>
<!-- Node3 -->
<g id="node3" class="node"><title>Node3</title>
<g id="a_node3"><a xlink:href="../../d7/d13/class_texture_handler.html" target="_top" xlink:title=" ">
<polygon fill="white" stroke="black" points="0,-146.5 0,-165.5 82,-165.5 82,-146.5 0,-146.5"/>
<text text-anchor="middle" x="41" y="-153.5" font-family="Helvetica,sans-Serif" font-size="10.00">TextureHandler</text>
</a>
</g>
</g>
<!-- Node3&#45;&gt;Node2 -->
<g id="edge2" class="edge"><title>Node3&#45;&gt;Node2</title>
<path fill="none" stroke="#9a32cd" stroke-dasharray="5,2" d="M51.9371,-137.522C61.268,-122.611 74.5122,-101.446 83.1783,-87.5974"/>
<polygon fill="#9a32cd" stroke="#9a32cd" points="48.7956,-135.944 46.4579,-146.278 54.7296,-139.658 48.7956,-135.944"/>
<text text-anchor="middle" x="95.5" y="-120" font-family="Helvetica,sans-Serif" font-size="10.00"> service</text>
<text text-anchor="middle" x="95.5" y="-109" font-family="Helvetica,sans-Serif" font-size="10.00">nullService</text>
</g>
<!-- Node4 -->
<g id="node4" class="node"><title>Node4</title>
<g id="a_node4"><a xlink:href="../../d2/d23/class_locator.html" target="_top" xlink:title=" ">
<polygon fill="white" stroke="black" points="100.5,-146.5 100.5,-165.5 185.5,-165.5 185.5,-146.5 100.5,-146.5"/>
<text text-anchor="middle" x="143" y="-153.5" font-family="Helvetica,sans-Serif" font-size="10.00">Locator&lt; T, U &gt;</text>
</a>
</g>
</g>
<!-- Node4&#45;&gt;Node2 -->
<g id="edge3" class="edge"><title>Node4&#45;&gt;Node2</title>
<path fill="none" stroke="orange" stroke-dasharray="5,2" d="M136.321,-136.639C132.482,-127.133 127.193,-115.55 121,-106 116.803,-99.5282 111.347,-93.0542 106.301,-87.6071"/>
<polygon fill="orange" stroke="orange" points="133.164,-138.184 140.01,-146.27 139.701,-135.68 133.164,-138.184"/>
<text text-anchor="start" x="133" y="-120" font-family="Helvetica,sans-Serif" font-size="10.00"> &lt; TextureHandler, Texture</text>
<text text-anchor="middle" x="191" y="-109" font-family="Helvetica,sans-Serif" font-size="10.00">Handler &gt;</text>
</g>
</g>
</svg>
