<?xml version="1.0" encoding="UTF-8" standalone="no"?>
<!DOCTYPE svg PUBLIC "-//W3C//DTD SVG 1.1//EN"
 "http://www.w3.org/Graphics/SVG/1.1/DTD/svg11.dtd">
<!-- Generated by graphviz version 2.38.0 (20140413.2041)
 -->
<!-- Title: src/CollisionTag.h Pages: 1 -->
<svg width="1130pt" height="588pt"
 viewBox="0.00 0.00 1130.00 588.00" xmlns="http://www.w3.org/2000/svg" xmlns:xlink="http://www.w3.org/1999/xlink">
<g id="graph0" class="graph" transform="scale(1 1) rotate(0) translate(4 584)">
<title>src/CollisionTag.h</title>
<polygon fill="white" stroke="none" points="-4,4 -4,-584 1126,-584 1126,4 -4,4"/>
<!-- Node1 -->
<g id="node1" class="node"><title>Node1</title>
<g id="a_node1"><a xlink:title=" ">
<polygon fill="#bfbfbf" stroke="black" points="669.5,-560.5 669.5,-579.5 763.5,-579.5 763.5,-560.5 669.5,-560.5"/>
<text text-anchor="middle" x="716.5" y="-567.5" font-family="Helvetica,sans-Serif" font-size="10.00">src/CollisionTag.h</text>
</a>
</g>
</g>
<!-- Node2 -->
<g id="node2" class="node"><title>Node2</title>
<g id="a_node2"><a xlink:href="../../d6/df5/_collision_mesh_8h.html" target="_top" xlink:title=" ">
<polygon fill="white" stroke="black" points="665.5,-504.5 665.5,-523.5 767.5,-523.5 767.5,-504.5 665.5,-504.5"/>
<text text-anchor="middle" x="716.5" y="-511.5" font-family="Helvetica,sans-Serif" font-size="10.00">src/CollisionMesh.h</text>
</a>
</g>
</g>
<!-- Node1&#45;&gt;Node2 -->
<g id="edge1" class="edge"><title>Node1&#45;&gt;Node2</title>
<path fill="none" stroke="midnightblue" d="M716.5,-549.805C716.5,-540.91 716.5,-530.78 716.5,-523.751"/>
<polygon fill="midnightblue" stroke="midnightblue" points="713,-550.083 716.5,-560.083 720,-550.083 713,-550.083"/>
</g>
<!-- Node23 -->
<g id="node23" class="node"><title>Node23</title>
<g id="a_node23"><a xlink:href="../../d7/d37/_physics_world_8h.html" target="_top" xlink:title=" ">
<polygon fill="white" stroke="black" points="586.5,-448.5 586.5,-467.5 688.5,-467.5 688.5,-448.5 586.5,-448.5"/>
<text text-anchor="middle" x="637.5" y="-455.5" font-family="Helvetica,sans-Serif" font-size="10.00">src/PhysicsWorld.h</text>
</a>
</g>
</g>
<!-- Node1&#45;&gt;Node23 -->
<g id="edge49" class="edge"><title>Node1&#45;&gt;Node23</title>
<path fill="none" stroke="midnightblue" d="M690.842,-555.023C678.848,-547.309 665.304,-536.709 656.5,-524 644.315,-506.411 639.852,-480.978 638.291,-467.745"/>
<polygon fill="midnightblue" stroke="midnightblue" points="689.243,-558.146 699.607,-560.346 692.876,-552.163 689.243,-558.146"/>
</g>
<!-- Node34 -->
<g id="node34" class="node"><title>Node34</title>
<g id="a_node34"><a xlink:href="../../d1/d31/_collision_tag_8cpp.html" target="_top" xlink:title=" ">
<polygon fill="white" stroke="black" points="785.5,-504.5 785.5,-523.5 889.5,-523.5 889.5,-504.5 785.5,-504.5"/>
<text text-anchor="middle" x="837.5" y="-511.5" font-family="Helvetica,sans-Serif" font-size="10.00">src/CollisionTag.cpp</text>
</a>
</g>
</g>
<!-- Node1&#45;&gt;Node34 -->
<g id="edge50" class="edge"><title>Node1&#45;&gt;Node34</title>
<path fill="none" stroke="midnightblue" d="M744.806,-556.368C767.465,-546.255 798.626,-532.349 818.417,-523.516"/>
<polygon fill="midnightblue" stroke="midnightblue" points="743.378,-553.172 735.673,-560.444 746.231,-559.564 743.378,-553.172"/>
</g>
<!-- Node3 -->
<g id="node3" class="node"><title>Node3</title>
<g id="a_node3"><a xlink:href="../../d5/dbd/_bone_collision_mesh_8h.html" target="_top" xlink:title=" ">
<polygon fill="white" stroke="black" points="281,-448.5 281,-467.5 406,-467.5 406,-448.5 281,-448.5"/>
<text text-anchor="middle" x="343.5" y="-455.5" font-family="Helvetica,sans-Serif" font-size="10.00">src/BoneCollisionMesh.h</text>
</a>
</g>
</g>
<!-- Node2&#45;&gt;Node3 -->
<g id="edge2" class="edge"><title>Node2&#45;&gt;Node3</title>
<path fill="none" stroke="midnightblue" d="M655.412,-504.156C585.356,-494.014 471.307,-477.503 402.249,-467.505"/>
<polygon fill="midnightblue" stroke="midnightblue" points="655.02,-507.636 665.418,-505.605 656.023,-500.708 655.02,-507.636"/>
</g>
<!-- Node4 -->
<g id="node4" class="node"><title>Node4</title>
<g id="a_node4"><a xlink:href="../../da/d03/_entity_tests_8h.html" target="_top" xlink:title=" ">
<polygon fill="white" stroke="black" points="5,-224.5 5,-243.5 96,-243.5 96,-224.5 5,-224.5"/>
<text text-anchor="middle" x="50.5" y="-231.5" font-family="Helvetica,sans-Serif" font-size="10.00">src/EntityTests.h</text>
</a>
</g>
</g>
<!-- Node2&#45;&gt;Node4 -->
<g id="edge25" class="edge"><title>Node2&#45;&gt;Node4</title>
<path fill="none" stroke="midnightblue" d="M655.34,-509.447C488.954,-498.97 40.5,-464.982 40.5,-403 40.5,-403 40.5,-403 40.5,-345 40.5,-307.032 46.4821,-261.993 49.1927,-243.534"/>
<polygon fill="midnightblue" stroke="midnightblue" points="655.215,-512.946 665.413,-510.074 655.65,-505.959 655.215,-512.946"/>
</g>
<!-- Node19 -->
<g id="node19" class="node"><title>Node19</title>
<g id="a_node19"><a xlink:href="../../db/dc0/_updating_system_8h.html" target="_top" xlink:title=" ">
<polygon fill="white" stroke="black" points="662,-224.5 662,-243.5 775,-243.5 775,-224.5 662,-224.5"/>
<text text-anchor="middle" x="718.5" y="-231.5" font-family="Helvetica,sans-Serif" font-size="10.00">src/UpdatingSystem.h</text>
</a>
</g>
</g>
<!-- Node2&#45;&gt;Node19 -->
<g id="edge47" class="edge"><title>Node2&#45;&gt;Node19</title>
<path fill="none" stroke="midnightblue" d="M768.919,-502.292C845.901,-485.038 980.5,-448.381 980.5,-403 980.5,-403 980.5,-403 980.5,-345 980.5,-256.572 852.048,-238.047 775.028,-234.888"/>
<polygon fill="midnightblue" stroke="midnightblue" points="767.928,-498.926 758.916,-504.498 769.435,-505.762 767.928,-498.926"/>
</g>
<!-- Node2&#45;&gt;Node23 -->
<g id="edge26" class="edge"><title>Node2&#45;&gt;Node23</title>
<path fill="none" stroke="midnightblue" d="M695.466,-498.622C681.034,-488.757 662.359,-475.992 650.161,-467.655"/>
<polygon fill="midnightblue" stroke="midnightblue" points="693.577,-501.57 703.807,-504.324 697.527,-495.791 693.577,-501.57"/>
</g>
<!-- Node28 -->
<g id="node28" class="node"><title>Node28</title>
<g id="a_node28"><a xlink:href="../../df/d4c/_enemy_controller_system_8h.html" target="_top" xlink:title=" ">
<polygon fill="white" stroke="black" points="643,-392.5 643,-411.5 790,-411.5 790,-392.5 643,-392.5"/>
<text text-anchor="middle" x="716.5" y="-399.5" font-family="Helvetica,sans-Serif" font-size="10.00">src/EnemyControllerSystem.h</text>
</a>
</g>
</g>
<!-- Node2&#45;&gt;Node28 -->
<g id="edge45" class="edge"><title>Node2&#45;&gt;Node28</title>
<path fill="none" stroke="midnightblue" d="M716.5,-494.348C716.5,-470.254 716.5,-429.308 716.5,-411.591"/>
<polygon fill="midnightblue" stroke="midnightblue" points="713,-494.368 716.5,-504.368 720,-494.369 713,-494.368"/>
</g>
<!-- Node30 -->
<g id="node30" class="node"><title>Node30</title>
<g id="a_node30"><a xlink:href="../../d8/d3c/_player_controller_system_8h.html" target="_top" xlink:title=" ">
<polygon fill="white" stroke="black" points="808.5,-392.5 808.5,-411.5 952.5,-411.5 952.5,-392.5 808.5,-392.5"/>
<text text-anchor="middle" x="880.5" y="-399.5" font-family="Helvetica,sans-Serif" font-size="10.00">src/PlayerControllerSystem.h</text>
</a>
</g>
</g>
<!-- Node2&#45;&gt;Node30 -->
<g id="edge46" class="edge"><title>Node2&#45;&gt;Node30</title>
<path fill="none" stroke="midnightblue" d="M737.799,-498.714C772.357,-475.535 839.604,-430.43 867.691,-411.591"/>
<polygon fill="midnightblue" stroke="midnightblue" points="735.724,-495.891 729.369,-504.368 739.623,-501.705 735.724,-495.891"/>
</g>
<!-- Node33 -->
<g id="node33" class="node"><title>Node33</title>
<g id="a_node33"><a xlink:href="../../d1/df8/_collision_mesh_8cpp.html" target="_top" xlink:title=" ">
<polygon fill="white" stroke="black" points="1009,-448.5 1009,-467.5 1122,-467.5 1122,-448.5 1009,-448.5"/>
<text text-anchor="middle" x="1065.5" y="-455.5" font-family="Helvetica,sans-Serif" font-size="10.00">src/CollisionMesh.cpp</text>
</a>
</g>
</g>
<!-- Node2&#45;&gt;Node33 -->
<g id="edge48" class="edge"><title>Node2&#45;&gt;Node33</title>
<path fill="none" stroke="midnightblue" d="M777.848,-503.508C843.665,-493.324 947.238,-477.298 1010.5,-467.511"/>
<polygon fill="midnightblue" stroke="midnightblue" points="776.969,-500.102 767.621,-505.09 778.039,-507.02 776.969,-500.102"/>
</g>
<!-- Node3&#45;&gt;Node4 -->
<g id="edge3" class="edge"><title>Node3&#45;&gt;Node4</title>
<path fill="none" stroke="midnightblue" d="M270.748,-455.305C229.761,-450.995 179.691,-439.751 143.5,-412 84.2751,-366.586 58.9332,-272.609 52.3349,-243.671"/>
<polygon fill="midnightblue" stroke="midnightblue" points="270.677,-458.813 280.959,-456.257 271.327,-451.843 270.677,-458.813"/>
</g>
<!-- Node12 -->
<g id="node12" class="node"><title>Node12</title>
<g id="a_node12"><a xlink:href="../../d9/d43/_bone_collision_mesh_system_8h.html" target="_top" xlink:title=" ">
<polygon fill="white" stroke="black" points="182.5,-392.5 182.5,-411.5 340.5,-411.5 340.5,-392.5 182.5,-392.5"/>
<text text-anchor="middle" x="261.5" y="-399.5" font-family="Helvetica,sans-Serif" font-size="10.00">src/BoneCollisionMeshSystem.h</text>
</a>
</g>
</g>
<!-- Node3&#45;&gt;Node12 -->
<g id="edge11" class="edge"><title>Node3&#45;&gt;Node12</title>
<path fill="none" stroke="midnightblue" d="M321.667,-442.622C306.687,-432.757 287.303,-419.992 274.642,-411.655"/>
<polygon fill="midnightblue" stroke="midnightblue" points="320.049,-445.747 330.325,-448.324 323.899,-439.901 320.049,-445.747"/>
</g>
<!-- Node22 -->
<g id="node22" class="node"><title>Node22</title>
<g id="a_node22"><a xlink:href="../../de/de2/_bone_collision_mesh_8cpp.html" target="_top" xlink:title=" ">
<polygon fill="white" stroke="black" points="359,-392.5 359,-411.5 494,-411.5 494,-392.5 359,-392.5"/>
<text text-anchor="middle" x="426.5" y="-399.5" font-family="Helvetica,sans-Serif" font-size="10.00">src/BoneCollisionMesh.cpp</text>
</a>
</g>
</g>
<!-- Node3&#45;&gt;Node22 -->
<g id="edge24" class="edge"><title>Node3&#45;&gt;Node22</title>
<path fill="none" stroke="midnightblue" d="M365.599,-442.622C380.762,-432.757 400.383,-419.992 413.198,-411.655"/>
<polygon fill="midnightblue" stroke="midnightblue" points="363.309,-439.937 356.835,-448.324 367.126,-445.804 363.309,-439.937"/>
</g>
<!-- Node5 -->
<g id="node5" class="node"><title>Node5</title>
<g id="a_node5"><a xlink:href="../../d9/dcd/_game_8h.html" target="_top" xlink:title=" ">
<polygon fill="white" stroke="black" points="378.5,-168.5 378.5,-187.5 446.5,-187.5 446.5,-168.5 378.5,-168.5"/>
<text text-anchor="middle" x="412.5" y="-175.5" font-family="Helvetica,sans-Serif" font-size="10.00">src/Game.h</text>
</a>
</g>
</g>
<!-- Node4&#45;&gt;Node5 -->
<g id="edge4" class="edge"><title>Node4&#45;&gt;Node5</title>
<path fill="none" stroke="midnightblue" d="M106.265,-223.775C223.748,-206.318 255.57,-207.636 369.5,-188 372.356,-187.508 375.312,-186.963 378.275,-186.393"/>
<polygon fill="midnightblue" stroke="midnightblue" points="105.52,-220.347 96.1497,-225.292 106.558,-227.27 105.52,-220.347"/>
</g>
<!-- Node11 -->
<g id="node11" class="node"><title>Node11</title>
<g id="a_node11"><a xlink:href="../../de/d4c/_entity_tests_8cpp.html" target="_top" xlink:title=" ">
<polygon fill="white" stroke="black" points="0,-168.5 0,-187.5 101,-187.5 101,-168.5 0,-168.5"/>
<text text-anchor="middle" x="50.5" y="-175.5" font-family="Helvetica,sans-Serif" font-size="10.00">src/EntityTests.cpp</text>
</a>
</g>
</g>
<!-- Node4&#45;&gt;Node11 -->
<g id="edge10" class="edge"><title>Node4&#45;&gt;Node11</title>
<path fill="none" stroke="midnightblue" d="M50.5,-213.805C50.5,-204.91 50.5,-194.78 50.5,-187.751"/>
<polygon fill="midnightblue" stroke="midnightblue" points="47.0001,-214.083 50.5,-224.083 54.0001,-214.083 47.0001,-214.083"/>
</g>
<!-- Node6 -->
<g id="node6" class="node"><title>Node6</title>
<g id="a_node6"><a xlink:href="../../d9/da3/_application_8h.html" target="_top" xlink:title=" ">
<polygon fill="white" stroke="black" points="317,-112.5 317,-131.5 406,-131.5 406,-112.5 317,-112.5"/>
<text text-anchor="middle" x="361.5" y="-119.5" font-family="Helvetica,sans-Serif" font-size="10.00">src/Application.h</text>
</a>
</g>
</g>
<!-- Node5&#45;&gt;Node6 -->
<g id="edge5" class="edge"><title>Node5&#45;&gt;Node6</title>
<path fill="none" stroke="midnightblue" d="M397.122,-160.718C388.133,-151.2 377.141,-139.561 369.765,-131.751"/>
<polygon fill="midnightblue" stroke="midnightblue" points="394.668,-163.216 404.078,-168.083 399.757,-158.41 394.668,-163.216"/>
</g>
<!-- Node10 -->
<g id="node10" class="node"><title>Node10</title>
<g id="a_node10"><a xlink:href="../../d7/db5/_game_8cpp.html" target="_top" xlink:title=" ">
<polygon fill="white" stroke="black" points="424.5,-112.5 424.5,-131.5 502.5,-131.5 502.5,-112.5 424.5,-112.5"/>
<text text-anchor="middle" x="463.5" y="-119.5" font-family="Helvetica,sans-Serif" font-size="10.00">src/Game.cpp</text>
</a>
</g>
</g>
<!-- Node5&#45;&gt;Node10 -->
<g id="edge9" class="edge"><title>Node5&#45;&gt;Node10</title>
<path fill="none" stroke="midnightblue" d="M427.878,-160.718C436.867,-151.2 447.859,-139.561 455.235,-131.751"/>
<polygon fill="midnightblue" stroke="midnightblue" points="425.243,-158.41 420.922,-168.083 430.332,-163.216 425.243,-158.41"/>
</g>
<!-- Node7 -->
<g id="node7" class="node"><title>Node7</title>
<g id="a_node7"><a xlink:href="../../d0/d42/_application_8cpp.html" target="_top" xlink:title=" ">
<polygon fill="white" stroke="black" points="262.5,-56.5 262.5,-75.5 362.5,-75.5 362.5,-56.5 262.5,-56.5"/>
<text text-anchor="middle" x="312.5" y="-63.5" font-family="Helvetica,sans-Serif" font-size="10.00">src/Application.cpp</text>
</a>
</g>
</g>
<!-- Node6&#45;&gt;Node7 -->
<g id="edge6" class="edge"><title>Node6&#45;&gt;Node7</title>
<path fill="none" stroke="midnightblue" d="M346.466,-104.431C337.878,-94.9673 327.457,-83.4827 320.441,-75.7511"/>
<polygon fill="midnightblue" stroke="midnightblue" points="344.097,-107.029 353.409,-112.083 349.281,-102.325 344.097,-107.029"/>
</g>
<!-- Node8 -->
<g id="node8" class="node"><title>Node8</title>
<g id="a_node8"><a xlink:href="../../d4/dbf/main_8h.html" target="_top" xlink:title=" ">
<polygon fill="white" stroke="black" points="380.5,-56.5 380.5,-75.5 442.5,-75.5 442.5,-56.5 380.5,-56.5"/>
<text text-anchor="middle" x="411.5" y="-63.5" font-family="Helvetica,sans-Serif" font-size="10.00">src/main.h</text>
</a>
</g>
</g>
<!-- Node6&#45;&gt;Node8 -->
<g id="edge7" class="edge"><title>Node6&#45;&gt;Node8</title>
<path fill="none" stroke="midnightblue" d="M376.576,-104.718C385.389,-95.1997 396.166,-83.5608 403.397,-75.7511"/>
<polygon fill="midnightblue" stroke="midnightblue" points="373.982,-102.367 369.756,-112.083 379.119,-107.123 373.982,-102.367"/>
</g>
<!-- Node9 -->
<g id="node9" class="node"><title>Node9</title>
<g id="a_node9"><a xlink:href="../../d5/d12/_main_8cpp.html" target="_top" xlink:title=" ">
<polygon fill="white" stroke="black" points="375,-0.5 375,-19.5 448,-19.5 448,-0.5 375,-0.5"/>
<text text-anchor="middle" x="411.5" y="-7.5" font-family="Helvetica,sans-Serif" font-size="10.00">src/Main.cpp</text>
</a>
</g>
</g>
<!-- Node8&#45;&gt;Node9 -->
<g id="edge8" class="edge"><title>Node8&#45;&gt;Node9</title>
<path fill="none" stroke="midnightblue" d="M411.5,-45.8045C411.5,-36.9102 411.5,-26.7798 411.5,-19.7511"/>
<polygon fill="midnightblue" stroke="midnightblue" points="408,-46.083 411.5,-56.083 415,-46.083 408,-46.083"/>
</g>
<!-- Node13 -->
<g id="node13" class="node"><title>Node13</title>
<g id="a_node13"><a xlink:href="../../d8/dc4/_sub_systems_8h.html" target="_top" xlink:title=" ">
<polygon fill="white" stroke="black" points="465.5,-336.5 465.5,-355.5 563.5,-355.5 563.5,-336.5 465.5,-336.5"/>
<text text-anchor="middle" x="514.5" y="-343.5" font-family="Helvetica,sans-Serif" font-size="10.00">src/SubSystems.h</text>
</a>
</g>
</g>
<!-- Node12&#45;&gt;Node13 -->
<g id="edge12" class="edge"><title>Node12&#45;&gt;Node13</title>
<path fill="none" stroke="midnightblue" d="M311.418,-390.346C359.231,-380.141 430.448,-364.94 474.599,-355.516"/>
<polygon fill="midnightblue" stroke="midnightblue" points="310.638,-386.933 301.589,-392.444 312.099,-393.779 310.638,-386.933"/>
</g>
<!-- Node21 -->
<g id="node21" class="node"><title>Node21</title>
<g id="a_node21"><a xlink:href="../../d9/d9b/_bone_collision_mesh_system_8cpp.html" target="_top" xlink:title=" ">
<polygon fill="white" stroke="black" points="183,-336.5 183,-355.5 352,-355.5 352,-336.5 183,-336.5"/>
<text text-anchor="middle" x="267.5" y="-343.5" font-family="Helvetica,sans-Serif" font-size="10.00">src/BoneCollisionMeshSystem.cpp</text>
</a>
</g>
</g>
<!-- Node12&#45;&gt;Node21 -->
<g id="edge23" class="edge"><title>Node12&#45;&gt;Node21</title>
<path fill="none" stroke="midnightblue" d="M263.6,-382.101C264.596,-373.136 265.738,-362.858 266.528,-355.751"/>
<polygon fill="midnightblue" stroke="midnightblue" points="260.117,-381.758 262.491,-392.083 267.074,-382.531 260.117,-381.758"/>
</g>
<!-- Node14 -->
<g id="node14" class="node"><title>Node14</title>
<g id="a_node14"><a xlink:href="../../dc/d18/_system_base_8h.html" target="_top" xlink:title=" ">
<polygon fill="white" stroke="black" points="446.5,-280.5 446.5,-299.5 544.5,-299.5 544.5,-280.5 446.5,-280.5"/>
<text text-anchor="middle" x="495.5" y="-287.5" font-family="Helvetica,sans-Serif" font-size="10.00">src/SystemBase.h</text>
</a>
</g>
</g>
<!-- Node13&#45;&gt;Node14 -->
<g id="edge13" class="edge"><title>Node13&#45;&gt;Node14</title>
<path fill="none" stroke="midnightblue" d="M507.954,-326.396C504.776,-317.362 501.107,-306.936 498.579,-299.751"/>
<polygon fill="midnightblue" stroke="midnightblue" points="504.742,-327.812 511.363,-336.083 511.345,-325.488 504.742,-327.812"/>
</g>
<!-- Node15 -->
<g id="node15" class="node"><title>Node15</title>
<g id="a_node15"><a xlink:href="../../db/d81/_fixed_updating_system_8h.html" target="_top" xlink:title=" ">
<polygon fill="white" stroke="black" points="271,-224.5 271,-243.5 408,-243.5 408,-224.5 271,-224.5"/>
<text text-anchor="middle" x="339.5" y="-231.5" font-family="Helvetica,sans-Serif" font-size="10.00">src/FixedUpdatingSystem.h</text>
</a>
</g>
</g>
<!-- Node14&#45;&gt;Node15 -->
<g id="edge14" class="edge"><title>Node14&#45;&gt;Node15</title>
<path fill="none" stroke="midnightblue" d="M461.33,-277.172C431.956,-267.004 390.302,-252.585 364.103,-243.516"/>
<polygon fill="midnightblue" stroke="midnightblue" points="460.187,-280.48 470.781,-280.444 462.476,-273.865 460.187,-280.48"/>
</g>
<!-- Node17 -->
<g id="node17" class="node"><title>Node17</title>
<g id="a_node17"><a xlink:href="../../da/d66/_rendering_system_8h.html" target="_top" xlink:title=" ">
<polygon fill="white" stroke="black" points="426,-224.5 426,-243.5 545,-243.5 545,-224.5 426,-224.5"/>
<text text-anchor="middle" x="485.5" y="-231.5" font-family="Helvetica,sans-Serif" font-size="10.00">src/RenderingSystem.h</text>
</a>
</g>
</g>
<!-- Node14&#45;&gt;Node17 -->
<g id="edge17" class="edge"><title>Node14&#45;&gt;Node17</title>
<path fill="none" stroke="midnightblue" d="M492,-270.101C490.34,-261.136 488.437,-250.858 487.121,-243.751"/>
<polygon fill="midnightblue" stroke="midnightblue" points="488.586,-270.888 493.849,-280.083 495.469,-269.613 488.586,-270.888"/>
</g>
<!-- Node14&#45;&gt;Node19 -->
<g id="edge20" class="edge"><title>Node14&#45;&gt;Node19</title>
<path fill="none" stroke="midnightblue" d="M540.561,-278.088C582.691,-267.887 644.74,-252.861 683.33,-243.516"/>
<polygon fill="midnightblue" stroke="midnightblue" points="539.73,-274.688 530.835,-280.444 541.378,-281.492 539.73,-274.688"/>
</g>
<!-- Node15&#45;&gt;Node5 -->
<g id="edge15" class="edge"><title>Node15&#45;&gt;Node5</title>
<path fill="none" stroke="midnightblue" d="M359.642,-218.101C372.779,-208.382 389.482,-196.027 400.558,-187.834"/>
<polygon fill="midnightblue" stroke="midnightblue" points="357.187,-215.563 351.229,-224.324 361.35,-221.191 357.187,-215.563"/>
</g>
<!-- Node16 -->
<g id="node16" class="node"><title>Node16</title>
<g id="a_node16"><a xlink:href="../../d0/d56/_fixed_updating_system_8cpp.html" target="_top" xlink:title=" ">
<polygon fill="white" stroke="black" points="212.5,-168.5 212.5,-187.5 360.5,-187.5 360.5,-168.5 212.5,-168.5"/>
<text text-anchor="middle" x="286.5" y="-175.5" font-family="Helvetica,sans-Serif" font-size="10.00">src/FixedUpdatingSystem.cpp</text>
</a>
</g>
</g>
<!-- Node15&#45;&gt;Node16 -->
<g id="edge16" class="edge"><title>Node15&#45;&gt;Node16</title>
<path fill="none" stroke="midnightblue" d="M323.519,-216.718C314.178,-207.2 302.754,-195.561 295.089,-187.751"/>
<polygon fill="midnightblue" stroke="midnightblue" points="321.246,-219.398 330.748,-224.083 326.241,-214.494 321.246,-219.398"/>
</g>
<!-- Node17&#45;&gt;Node5 -->
<g id="edge18" class="edge"><title>Node17&#45;&gt;Node5</title>
<path fill="none" stroke="midnightblue" d="M465.358,-218.101C452.221,-208.382 435.518,-196.027 424.442,-187.834"/>
<polygon fill="midnightblue" stroke="midnightblue" points="463.65,-221.191 473.771,-224.324 467.813,-215.563 463.65,-221.191"/>
</g>
<!-- Node18 -->
<g id="node18" class="node"><title>Node18</title>
<g id="a_node18"><a xlink:href="../../d2/db8/_rendering_system_8cpp.html" target="_top" xlink:title=" ">
<polygon fill="white" stroke="black" points="465,-168.5 465,-187.5 594,-187.5 594,-168.5 465,-168.5"/>
<text text-anchor="middle" x="529.5" y="-175.5" font-family="Helvetica,sans-Serif" font-size="10.00">src/RenderingSystem.cpp</text>
</a>
</g>
</g>
<!-- Node17&#45;&gt;Node18 -->
<g id="edge19" class="edge"><title>Node17&#45;&gt;Node18</title>
<path fill="none" stroke="midnightblue" d="M499.235,-216.144C506.901,-206.736 516.133,-195.405 522.369,-187.751"/>
<polygon fill="midnightblue" stroke="midnightblue" points="496.369,-214.12 492.766,-224.083 501.796,-218.541 496.369,-214.12"/>
</g>
<!-- Node19&#45;&gt;Node5 -->
<g id="edge21" class="edge"><title>Node19&#45;&gt;Node5</title>
<path fill="none" stroke="midnightblue" d="M655.26,-222.851C601.913,-214.129 523.584,-200.945 455.5,-188 452.653,-187.459 449.703,-186.88 446.745,-186.286"/>
<polygon fill="midnightblue" stroke="midnightblue" points="654.82,-226.325 665.253,-224.48 655.947,-219.417 654.82,-226.325"/>
</g>
<!-- Node20 -->
<g id="node20" class="node"><title>Node20</title>
<g id="a_node20"><a xlink:href="../../d7/d1d/_updating_system_8cpp.html" target="_top" xlink:title=" ">
<polygon fill="white" stroke="black" points="656.5,-168.5 656.5,-187.5 780.5,-187.5 780.5,-168.5 656.5,-168.5"/>
<text text-anchor="middle" x="718.5" y="-175.5" font-family="Helvetica,sans-Serif" font-size="10.00">src/UpdatingSystem.cpp</text>
</a>
</g>
</g>
<!-- Node19&#45;&gt;Node20 -->
<g id="edge22" class="edge"><title>Node19&#45;&gt;Node20</title>
<path fill="none" stroke="midnightblue" d="M718.5,-213.805C718.5,-204.91 718.5,-194.78 718.5,-187.751"/>
<polygon fill="midnightblue" stroke="midnightblue" points="715,-214.083 718.5,-224.083 722,-214.083 715,-214.083"/>
</g>
<!-- Node24 -->
<g id="node24" class="node"><title>Node24</title>
<g id="a_node24"><a xlink:href="../../d2/d07/_debugging_controller_8h.html" target="_top" xlink:title=" ">
<polygon fill="white" stroke="black" points="119.5,-280.5 119.5,-299.5 247.5,-299.5 247.5,-280.5 119.5,-280.5"/>
<text text-anchor="middle" x="183.5" y="-287.5" font-family="Helvetica,sans-Serif" font-size="10.00">src/DebuggingController.h</text>
</a>
</g>
</g>
<!-- Node23&#45;&gt;Node24 -->
<g id="edge27" class="edge"><title>Node23&#45;&gt;Node24</title>
<path fill="none" stroke="midnightblue" d="M575.842,-453.412C449.406,-445.756 171.409,-427.274 157.5,-412 127.843,-379.433 162.356,-321.433 177.284,-299.616"/>
<polygon fill="midnightblue" stroke="midnightblue" points="575.944,-456.924 586.136,-454.031 576.365,-449.937 575.944,-456.924"/>
</g>
<!-- Node26 -->
<g id="node26" class="node"><title>Node26</title>
<g id="a_node26"><a xlink:href="../../de/d56/_scene_8h.html" target="_top" xlink:title=" ">
<polygon fill="white" stroke="black" points="337,-280.5 337,-299.5 406,-299.5 406,-280.5 337,-280.5"/>
<text text-anchor="middle" x="371.5" y="-287.5" font-family="Helvetica,sans-Serif" font-size="10.00">src/Scene.h</text>
</a>
</g>
</g>
<!-- Node23&#45;&gt;Node26 -->
<g id="edge32" class="edge"><title>Node23&#45;&gt;Node26</title>
<path fill="none" stroke="midnightblue" d="M576.077,-453.22C453.025,-445.351 186.86,-426.718 173.5,-412 150.798,-386.989 152.428,-362.399 173.5,-336 193.567,-310.86 285.649,-298.695 336.87,-293.781"/>
<polygon fill="midnightblue" stroke="midnightblue" points="575.905,-456.716 586.107,-453.858 576.349,-449.73 575.905,-456.716"/>
</g>
<!-- Node23&#45;&gt;Node28 -->
<g id="edge38" class="edge"><title>Node23&#45;&gt;Node28</title>
<path fill="none" stroke="midnightblue" d="M658.534,-442.622C672.966,-432.757 691.641,-419.992 703.839,-411.655"/>
<polygon fill="midnightblue" stroke="midnightblue" points="656.473,-439.791 650.193,-448.324 660.423,-445.57 656.473,-439.791"/>
</g>
<!-- Node23&#45;&gt;Node30 -->
<g id="edge41" class="edge"><title>Node23&#45;&gt;Node30</title>
<path fill="none" stroke="midnightblue" d="M686.022,-446.217C731.94,-436.013 799.947,-420.901 842.176,-411.516"/>
<polygon fill="midnightblue" stroke="midnightblue" points="685.007,-442.858 676.004,-448.444 686.525,-449.691 685.007,-442.858"/>
</g>
<!-- Node32 -->
<g id="node32" class="node"><title>Node32</title>
<g id="a_node32"><a xlink:href="../../d9/de2/_physics_world_8cpp.html" target="_top" xlink:title=" ">
<polygon fill="white" stroke="black" points="512,-392.5 512,-411.5 625,-411.5 625,-392.5 512,-392.5"/>
<text text-anchor="middle" x="568.5" y="-399.5" font-family="Helvetica,sans-Serif" font-size="10.00">src/PhysicsWorld.cpp</text>
</a>
</g>
</g>
<!-- Node23&#45;&gt;Node32 -->
<g id="edge44" class="edge"><title>Node23&#45;&gt;Node32</title>
<path fill="none" stroke="midnightblue" d="M618.462,-442.101C606.044,-432.382 590.257,-420.027 579.788,-411.834"/>
<polygon fill="midnightblue" stroke="midnightblue" points="616.382,-444.917 626.414,-448.324 620.696,-439.405 616.382,-444.917"/>
</g>
<!-- Node24&#45;&gt;Node4 -->
<g id="edge28" class="edge"><title>Node24&#45;&gt;Node4</title>
<path fill="none" stroke="midnightblue" d="M153.052,-276.638C128.093,-266.504 93.4231,-252.427 71.4756,-243.516"/>
<polygon fill="midnightblue" stroke="midnightblue" points="151.844,-279.924 162.426,-280.444 154.477,-273.439 151.844,-279.924"/>
</g>
<!-- Node24&#45;&gt;Node15 -->
<g id="edge29" class="edge"><title>Node24&#45;&gt;Node15</title>
<path fill="none" stroke="midnightblue" d="M217.67,-277.172C247.044,-267.004 288.698,-252.585 314.897,-243.516"/>
<polygon fill="midnightblue" stroke="midnightblue" points="216.524,-273.865 208.219,-280.444 218.813,-280.48 216.524,-273.865"/>
</g>
<!-- Node24&#45;&gt;Node17 -->
<g id="edge30" class="edge"><title>Node24&#45;&gt;Node17</title>
<path fill="none" stroke="midnightblue" d="M241.304,-278.664C298.377,-268.459 384.618,-253.039 437.871,-243.516"/>
<polygon fill="midnightblue" stroke="midnightblue" points="240.581,-275.238 231.353,-280.444 241.813,-282.129 240.581,-275.238"/>
</g>
<!-- Node25 -->
<g id="node25" class="node"><title>Node25</title>
<g id="a_node25"><a xlink:href="../../d8/d1e/_debugging_controller_8cpp.html" target="_top" xlink:title=" ">
<polygon fill="white" stroke="black" points="114,-224.5 114,-243.5 253,-243.5 253,-224.5 114,-224.5"/>
<text text-anchor="middle" x="183.5" y="-231.5" font-family="Helvetica,sans-Serif" font-size="10.00">src/DebuggingController.cpp</text>
</a>
</g>
</g>
<!-- Node24&#45;&gt;Node25 -->
<g id="edge31" class="edge"><title>Node24&#45;&gt;Node25</title>
<path fill="none" stroke="midnightblue" d="M183.5,-269.805C183.5,-260.91 183.5,-250.78 183.5,-243.751"/>
<polygon fill="midnightblue" stroke="midnightblue" points="180,-270.083 183.5,-280.083 187,-270.083 180,-270.083"/>
</g>
<!-- Node26&#45;&gt;Node4 -->
<g id="edge33" class="edge"><title>Node26&#45;&gt;Node4</title>
<path fill="none" stroke="midnightblue" d="M326.767,-281.475C265.856,-271.228 157.405,-252.984 96.0652,-242.665"/>
<polygon fill="midnightblue" stroke="midnightblue" points="326.4,-284.962 336.842,-283.17 327.562,-278.059 326.4,-284.962"/>
</g>
<!-- Node26&#45;&gt;Node15 -->
<g id="edge34" class="edge"><title>Node26&#45;&gt;Node15</title>
<path fill="none" stroke="midnightblue" d="M360.996,-271.275C355.527,-262.045 349.082,-251.17 344.686,-243.751"/>
<polygon fill="midnightblue" stroke="midnightblue" points="358.107,-273.264 366.216,-280.083 364.129,-269.696 358.107,-273.264"/>
</g>
<!-- Node26&#45;&gt;Node17 -->
<g id="edge35" class="edge"><title>Node26&#45;&gt;Node17</title>
<path fill="none" stroke="midnightblue" d="M398.742,-276.096C420.04,-266.007 449.042,-252.27 467.521,-243.516"/>
<polygon fill="midnightblue" stroke="midnightblue" points="397.103,-273 389.564,-280.444 400.099,-279.326 397.103,-273"/>
</g>
<!-- Node26&#45;&gt;Node19 -->
<g id="edge36" class="edge"><title>Node26&#45;&gt;Node19</title>
<path fill="none" stroke="midnightblue" d="M416.109,-282.058C479.425,-272.205 595.251,-254.18 663.708,-243.527"/>
<polygon fill="midnightblue" stroke="midnightblue" points="415.383,-278.629 406.04,-283.625 416.46,-285.545 415.383,-278.629"/>
</g>
<!-- Node27 -->
<g id="node27" class="node"><title>Node27</title>
<g id="a_node27"><a xlink:href="../../d9/d44/_scene_8cpp.html" target="_top" xlink:title=" ">
<polygon fill="white" stroke="black" points="563.5,-224.5 563.5,-243.5 643.5,-243.5 643.5,-224.5 563.5,-224.5"/>
<text text-anchor="middle" x="603.5" y="-231.5" font-family="Helvetica,sans-Serif" font-size="10.00">src/Scene.cpp</text>
</a>
</g>
</g>
<!-- Node26&#45;&gt;Node27 -->
<g id="edge37" class="edge"><title>Node26&#45;&gt;Node27</title>
<path fill="none" stroke="midnightblue" d="M416.027,-278.636C459.764,-268.456 525.714,-253.105 566.61,-243.587"/>
<polygon fill="midnightblue" stroke="midnightblue" points="415.179,-275.24 406.233,-280.916 416.766,-282.057 415.179,-275.24"/>
</g>
<!-- Node28&#45;&gt;Node13 -->
<g id="edge39" class="edge"><title>Node28&#45;&gt;Node13</title>
<path fill="none" stroke="midnightblue" d="M674.712,-389.829C636.573,-379.633 581.019,-364.782 546.358,-355.516"/>
<polygon fill="midnightblue" stroke="midnightblue" points="673.928,-393.242 684.492,-392.444 675.736,-386.48 673.928,-393.242"/>
</g>
<!-- Node29 -->
<g id="node29" class="node"><title>Node29</title>
<g id="a_node29"><a xlink:href="../../da/d2a/_enemy_controller_system_8cpp.html" target="_top" xlink:title=" ">
<polygon fill="white" stroke="black" points="620.5,-336.5 620.5,-355.5 778.5,-355.5 778.5,-336.5 620.5,-336.5"/>
<text text-anchor="middle" x="699.5" y="-343.5" font-family="Helvetica,sans-Serif" font-size="10.00">src/EnemyControllerSystem.cpp</text>
</a>
</g>
</g>
<!-- Node28&#45;&gt;Node29 -->
<g id="edge40" class="edge"><title>Node28&#45;&gt;Node29</title>
<path fill="none" stroke="midnightblue" d="M710.643,-382.396C707.799,-373.362 704.517,-362.936 702.255,-355.751"/>
<polygon fill="midnightblue" stroke="midnightblue" points="707.351,-383.596 713.693,-392.083 714.028,-381.493 707.351,-383.596"/>
</g>
<!-- Node30&#45;&gt;Node13 -->
<g id="edge42" class="edge"><title>Node30&#45;&gt;Node13</title>
<path fill="none" stroke="midnightblue" d="M812.591,-390.981C740.362,-380.324 627.871,-363.727 563.722,-354.262"/>
<polygon fill="midnightblue" stroke="midnightblue" points="812.102,-394.446 822.506,-392.444 813.124,-387.521 812.102,-394.446"/>
</g>
<!-- Node31 -->
<g id="node31" class="node"><title>Node31</title>
<g id="a_node31"><a xlink:href="../../df/d12/_player_controller_system_8cpp.html" target="_top" xlink:title=" ">
<polygon fill="white" stroke="black" points="797,-336.5 797,-355.5 952,-355.5 952,-336.5 797,-336.5"/>
<text text-anchor="middle" x="874.5" y="-343.5" font-family="Helvetica,sans-Serif" font-size="10.00">src/PlayerControllerSystem.cpp</text>
</a>
</g>
</g>
<!-- Node30&#45;&gt;Node31 -->
<g id="edge43" class="edge"><title>Node30&#45;&gt;Node31</title>
<path fill="none" stroke="midnightblue" d="M878.4,-382.101C877.404,-373.136 876.262,-362.858 875.472,-355.751"/>
<polygon fill="midnightblue" stroke="midnightblue" points="874.926,-382.531 879.509,-392.083 881.883,-381.758 874.926,-382.531"/>
</g>
</g>
</svg>
