<?xml version="1.0" encoding="UTF-8" standalone="no"?>
<!DOCTYPE svg PUBLIC "-//W3C//DTD SVG 1.1//EN"
 "http://www.w3.org/Graphics/SVG/1.1/DTD/svg11.dtd">
<!-- Generated by graphviz version 2.38.0 (20140413.2041)
 -->
<!-- Title: UpdatingSystem::update Pages: 1 -->
<!--zoomable 707 -->
<svg id="main" version="1.1" xmlns="http://www.w3.org/2000/svg" xmlns:xlink="http://www.w3.org/1999/xlink" xml:space="preserve" onload="init(evt)">
<style type="text/css"><![CDATA[
.edge:hover path { stroke: red; }
.edge:hover polygon { stroke: red; fill: red; }
]]></style>
<script type="text/javascript"><![CDATA[
var edges = document.getElementsByTagName('g');
if (edges && edges.length) {
  for (var i=0;i<edges.length;i++) {
    if (edges[i].id.substr(0,4)=='edge') {
      edges[i].setAttribute('class','edge');
    }
  }
}
]]></script>
        <defs>
                <circle id="rim" cx="0" cy="0" r="7"/>
                <circle id="rim2" cx="0" cy="0" r="3.5"/>
                <g id="zoomPlus">
                        <use xlink:href="#rim" fill="#404040">
                                <set attributeName="fill" to="#808080" begin="zoomplus.mouseover" end="zoomplus.mouseout"/>
                        </use>
                        <path d="M-4,0h8M0,-4v8" fill="none" stroke="white" stroke-width="1.5" pointer-events="none"/>
                </g>
                <g id="zoomMin">
                        <use xlink:href="#rim" fill="#404040">
                                <set attributeName="fill" to="#808080" begin="zoomminus.mouseover" end="zoomminus.mouseout"/>
                        </use>
                        <path d="M-4,0h8" fill="none" stroke="white" stroke-width="1.5" pointer-events="none"/>
                </g>
                <g id="dirArrow">
                        <path fill="none" stroke="white" stroke-width="1.5" d="M0,-3.0v7 M-2.5,-0.5L0,-3.0L2.5,-0.5"/>
                </g>
               <g id="resetDef">
                       <use xlink:href="#rim2" fill="#404040">
                               <set attributeName="fill" to="#808080" begin="reset.mouseover" end="reset.mouseout"/>
                       </use>
               </g>
        </defs>

<script type="text/javascript">
var viewWidth = 1094;
var viewHeight = 707;
var sectionId = 'dynsection-3';
</script>
<script xlink:href="../../svgpan.js"/>
<svg id="graph" class="graph">
<g id="viewport">
<title>UpdatingSystem::update</title>
<polygon fill="white" stroke="none" points="-4,4 -4,-703 1090,-703 1090,4 -4,4"/>
<!-- Node1 -->
<g id="node1" class="node"><title>Node1</title>
<g id="a_node1"><a xlink:title=" ">
<polygon fill="#bfbfbf" stroke="black" points="0,-493.5 0,-512.5 124,-512.5 124,-493.5 0,-493.5"/>
<text text-anchor="middle" x="62" y="-500.5" font-family="Helvetica,sans-Serif" font-size="10.00">UpdatingSystem::update</text>
</a>
</g>
</g>
<!-- Node2 -->
<g id="node2" class="node"><title>Node2</title>
<g id="a_node2"><a xlink:href="../../d6/db5/class_scene.html#abe0ba4b6ba925640493f34f730ccd8d4" target="_top" xlink:title=" ">
<polygon fill="white" stroke="black" points="198,-679.5 198,-698.5 306,-698.5 306,-679.5 198,-679.5"/>
<text text-anchor="middle" x="252" y="-686.5" font-family="Helvetica,sans-Serif" font-size="10.00">Scene::getAllEntities</text>
</a>
</g>
</g>
<!-- Node1&#45;&gt;Node2 -->
<g id="edge1" class="edge"><title>Node1&#45;&gt;Node2</title>
<path fill="none" stroke="midnightblue" d="M65.6205,-512.828C73.9374,-541.994 102.636,-628.595 160,-670 168.244,-675.951 177.942,-680.123 187.879,-683.033"/>
<polygon fill="midnightblue" stroke="midnightblue" points="187.298,-686.496 197.85,-685.54 189.005,-679.707 187.298,-686.496"/>
</g>
<!-- Node3 -->
<g id="node3" class="node"><title>Node3</title>
<g id="a_node3"><a xlink:href="../../d6/db5/class_scene.html#a65d6f6cd75b250c657d5d4a267c4b245" target="_top" xlink:title=" ">
<polygon fill="white" stroke="black" points="195.5,-591.5 195.5,-610.5 308.5,-610.5 308.5,-591.5 195.5,-591.5"/>
<text text-anchor="middle" x="252" y="-598.5" font-family="Helvetica,sans-Serif" font-size="10.00">Scene::getComponent</text>
</a>
</g>
</g>
<!-- Node1&#45;&gt;Node3 -->
<g id="edge2" class="edge"><title>Node1&#45;&gt;Node3</title>
<path fill="none" stroke="midnightblue" d="M72.8526,-512.691C89.439,-528.472 124.607,-559.694 160,-577 169.665,-581.726 180.378,-585.608 190.96,-588.768"/>
<polygon fill="midnightblue" stroke="midnightblue" points="190.035,-592.144 200.609,-591.471 191.924,-585.403 190.035,-592.144"/>
</g>
<!-- Node6 -->
<g id="node6" class="node"><title>Node6</title>
<g id="a_node6"><a xlink:href="../../d6/db5/class_scene.html#ae05acfccb36d74a21bd4988a2b562ceb" target="_top" xlink:title=" ">
<polygon fill="white" stroke="black" points="172.5,-630 172.5,-660 331.5,-660 331.5,-630 172.5,-630"/>
<text text-anchor="start" x="180.5" y="-648" font-family="Helvetica,sans-Serif" font-size="10.00">Scene::getFirstActiveComponent</text>
<text text-anchor="middle" x="252" y="-637" font-family="Helvetica,sans-Serif" font-size="10.00">OfType</text>
</a>
</g>
</g>
<!-- Node1&#45;&gt;Node6 -->
<g id="edge5" class="edge"><title>Node1&#45;&gt;Node6</title>
<path fill="none" stroke="midnightblue" d="M68.1503,-512.562C80.7162,-534.956 115.224,-591.088 160,-620 163.144,-622.03 166.452,-623.897 169.869,-625.614"/>
<polygon fill="midnightblue" stroke="midnightblue" points="168.579,-628.872 179.132,-629.816 171.471,-622.497 168.579,-628.872"/>
</g>
<!-- Node7 -->
<g id="node7" class="node"><title>Node7</title>
<g id="a_node7"><a xlink:href="../../d2/d23/class_locator.html#a310ebd51e96b6341e25471b651afaf34" target="_top" xlink:title=" ">
<polygon fill="white" stroke="black" points="597,-646 597,-676 719,-676 719,-646 597,-646"/>
<text text-anchor="start" x="605" y="-664" font-family="Helvetica,sans-Serif" font-size="10.00">Locator&lt; Input, NullInput</text>
<text text-anchor="middle" x="658" y="-653" font-family="Helvetica,sans-Serif" font-size="10.00"> &gt;::getService</text>
</a>
</g>
</g>
<!-- Node1&#45;&gt;Node7 -->
<g id="edge7" class="edge"><title>Node1&#45;&gt;Node7</title>
<path fill="none" stroke="midnightblue" d="M97.828,-512.538C116.217,-517.34 139.221,-522.979 160,-527 246.146,-543.67 476.717,-535.297 551,-582 575.419,-597.353 564.265,-618.249 587,-636 589.289,-637.787 591.716,-639.453 594.239,-641.005"/>
<polygon fill="midnightblue" stroke="midnightblue" points="592.675,-644.139 603.129,-645.857 596.028,-637.994 592.675,-644.139"/>
</g>
<!-- Node8 -->
<g id="node8" class="node"><title>Node8</title>
<g id="a_node8"><a xlink:href="../../d4/d7b/class_input.html#a2aaf873636cedf13e51a424eb6ea802b" target="_top" xlink:title=" ">
<polygon fill="white" stroke="black" points="406,-427.5 406,-446.5 525,-446.5 525,-427.5 406,-427.5"/>
<text text-anchor="middle" x="465.5" y="-434.5" font-family="Helvetica,sans-Serif" font-size="10.00">Input::keyPressedOnce</text>
</a>
</g>
</g>
<!-- Node1&#45;&gt;Node8 -->
<g id="edge8" class="edge"><title>Node1&#45;&gt;Node8</title>
<path fill="none" stroke="midnightblue" d="M78.0683,-493.386C96.552,-482.154 129.231,-464.079 160,-456 238.982,-435.263 333.267,-432.612 395.779,-433.784"/>
<polygon fill="midnightblue" stroke="midnightblue" points="395.839,-437.286 405.916,-434.013 395.998,-430.288 395.839,-437.286"/>
</g>
<!-- Node9 -->
<g id="node9" class="node"><title>Node9</title>
<g id="a_node9"><a xlink:href="../../d4/d4f/class_player_camera_handling_system.html#a94f1d2b673b85a1fbbbe39a3759d3bf3" target="_top" xlink:title=" ">
<polygon fill="white" stroke="black" points="160,-127 160,-157 344,-157 344,-127 160,-127"/>
<text text-anchor="start" x="168" y="-145" font-family="Helvetica,sans-Serif" font-size="10.00">PlayerCameraHandlingSystem</text>
<text text-anchor="middle" x="252" y="-134" font-family="Helvetica,sans-Serif" font-size="10.00">::setThirdPersonCameraTargetPosition</text>
</a>
</g>
</g>
<!-- Node1&#45;&gt;Node9 -->
<g id="edge9" class="edge"><title>Node1&#45;&gt;Node9</title>
<path fill="none" stroke="midnightblue" d="M67.7721,-493.423C81.7492,-465.413 123.886,-381.25 160,-312 187.191,-259.86 219.912,-199.232 237.772,-166.314"/>
<polygon fill="midnightblue" stroke="midnightblue" points="240.911,-167.869 242.607,-157.411 234.759,-164.529 240.911,-167.869"/>
</g>
<!-- Node12 -->
<g id="node12" class="node"><title>Node12</title>
<g id="a_node12"><a xlink:href="../../d7/dd6/class_pause_menu_system.html#a7c17c731da14866fbbfb186f50b7824e" target="_top" xlink:title=" ">
<polygon fill="white" stroke="black" points="183.5,-321.5 183.5,-340.5 320.5,-340.5 320.5,-321.5 183.5,-321.5"/>
<text text-anchor="middle" x="252" y="-328.5" font-family="Helvetica,sans-Serif" font-size="10.00">PauseMenuSystem::update</text>
</a>
</g>
</g>
<!-- Node1&#45;&gt;Node12 -->
<g id="edge12" class="edge"><title>Node1&#45;&gt;Node12</title>
<path fill="none" stroke="midnightblue" d="M73.6464,-493.26C104.539,-464.996 194.451,-382.736 233.052,-347.421"/>
<polygon fill="midnightblue" stroke="midnightblue" points="235.455,-349.966 240.47,-340.633 230.73,-344.801 235.455,-349.966"/>
</g>
<!-- Node27 -->
<g id="node27" class="node"><title>Node27</title>
<g id="a_node27"><a xlink:href="../../d4/df8/class_camera_system.html#a9bb59c07839a3bf41290e49f367d8fd6" target="_top" xlink:title=" ">
<polygon fill="white" stroke="black" points="406,-515.5 406,-534.5 525,-534.5 525,-515.5 406,-515.5"/>
<text text-anchor="middle" x="465.5" y="-522.5" font-family="Helvetica,sans-Serif" font-size="10.00">CameraSystem::update</text>
</a>
</g>
</g>
<!-- Node1&#45;&gt;Node27 -->
<g id="edge28" class="edge"><title>Node1&#45;&gt;Node27</title>
<path fill="none" stroke="midnightblue" d="M124.416,-506.365C197.577,-510.374 319.457,-517.052 395.718,-521.231"/>
<polygon fill="midnightblue" stroke="midnightblue" points="395.529,-524.726 405.705,-521.778 395.912,-517.736 395.529,-524.726"/>
</g>
<!-- Node33 -->
<g id="node33" class="node"><title>Node33</title>
<g id="a_node33"><a xlink:href="../../d5/d50/class_player_controller_system.html#ae968cd78ae054ed5521f19c6d3793933" target="_top" xlink:title=" ">
<polygon fill="white" stroke="black" points="192.5,-39 192.5,-69 311.5,-69 311.5,-39 192.5,-39"/>
<text text-anchor="start" x="200.5" y="-57" font-family="Helvetica,sans-Serif" font-size="10.00">PlayerControllerSystem</text>
<text text-anchor="middle" x="252" y="-46" font-family="Helvetica,sans-Serif" font-size="10.00">::update</text>
</a>
</g>
</g>
<!-- Node1&#45;&gt;Node33 -->
<g id="edge37" class="edge"><title>Node1&#45;&gt;Node33</title>
<path fill="none" stroke="midnightblue" d="M63.0248,-493.323C63.5975,-447.025 71.2857,-245.094 160,-117 172.391,-99.1091 191.629,-84.7175 209.231,-74.2308"/>
<polygon fill="midnightblue" stroke="midnightblue" points="211.28,-77.0919 218.242,-69.1051 207.819,-71.0075 211.28,-77.0919"/>
</g>
<!-- Node37 -->
<g id="node37" class="node"><title>Node37</title>
<g id="a_node37"><a xlink:href="../../df/d86/class_default_particle_system.html#a1304aae47238ab24cf8653c2b423d207" target="_top" xlink:title=" ">
<polygon fill="white" stroke="black" points="195.5,-466 195.5,-496 308.5,-496 308.5,-466 195.5,-466"/>
<text text-anchor="start" x="203.5" y="-484" font-family="Helvetica,sans-Serif" font-size="10.00">DefaultParticleSystem</text>
<text text-anchor="middle" x="252" y="-473" font-family="Helvetica,sans-Serif" font-size="10.00">::updateParticles</text>
</a>
</g>
</g>
<!-- Node1&#45;&gt;Node37 -->
<g id="edge41" class="edge"><title>Node1&#45;&gt;Node37</title>
<path fill="none" stroke="midnightblue" d="M124.038,-495.857C143.577,-493.571 165.291,-491.03 185.156,-488.705"/>
<polygon fill="midnightblue" stroke="midnightblue" points="185.829,-492.15 195.355,-487.512 185.016,-485.198 185.829,-492.15"/>
</g>
<!-- Node4 -->
<g id="node4" class="node"><title>Node4</title>
<g id="a_node4"><a xlink:href="../../d6/db5/class_scene.html#af06ab78544ec997fd8e480762b2cc40a" target="_top" xlink:title=" ">
<polygon fill="white" stroke="black" points="380,-632.5 380,-651.5 551,-651.5 551,-632.5 380,-632.5"/>
<text text-anchor="middle" x="465.5" y="-639.5" font-family="Helvetica,sans-Serif" font-size="10.00">Scene::binarySearchForComponent</text>
</a>
</g>
</g>
<!-- Node3&#45;&gt;Node4 -->
<g id="edge3" class="edge"><title>Node3&#45;&gt;Node4</title>
<path fill="none" stroke="midnightblue" d="M302.054,-610.509C332.908,-616.491 372.905,-624.244 405.49,-630.561"/>
<polygon fill="midnightblue" stroke="midnightblue" points="404.863,-634.004 415.346,-632.471 406.195,-627.132 404.863,-634.004"/>
</g>
<!-- Node5 -->
<g id="node5" class="node"><title>Node5</title>
<g id="a_node5"><a xlink:href="../../d6/db5/class_scene.html#a55c346bea3f04eb9d9f8476a68c2fa93" target="_top" xlink:title=" ">
<polygon fill="white" stroke="black" points="392,-591.5 392,-610.5 539,-610.5 539,-591.5 392,-591.5"/>
<text text-anchor="middle" x="465.5" y="-598.5" font-family="Helvetica,sans-Serif" font-size="10.00">Scene::binarySearchForEntity</text>
</a>
</g>
</g>
<!-- Node3&#45;&gt;Node5 -->
<g id="edge4" class="edge"><title>Node3&#45;&gt;Node5</title>
<path fill="none" stroke="midnightblue" d="M308.569,-601C330.944,-601 357.22,-601 381.759,-601"/>
<polygon fill="midnightblue" stroke="midnightblue" points="381.788,-604.5 391.788,-601 381.788,-597.5 381.788,-604.5"/>
</g>
<!-- Node6&#45;&gt;Node4 -->
<g id="edge6" class="edge"><title>Node6&#45;&gt;Node4</title>
<path fill="none" stroke="midnightblue" d="M331.755,-643.883C344.08,-643.708 356.93,-643.526 369.571,-643.347"/>
<polygon fill="midnightblue" stroke="midnightblue" points="369.701,-646.845 379.651,-643.204 369.602,-639.846 369.701,-646.845"/>
</g>
<!-- Node10 -->
<g id="node10" class="node"><title>Node10</title>
<g id="a_node10"><a xlink:href="../../d4/df7/class_player_camera_handler.html#a02eb98ad960e5b71b0b17189426c0f1d" target="_top" xlink:title=" ">
<polygon fill="white" stroke="black" points="404.5,-127 404.5,-157 526.5,-157 526.5,-127 404.5,-127"/>
<text text-anchor="start" x="412.5" y="-145" font-family="Helvetica,sans-Serif" font-size="10.00">PlayerCameraHandler</text>
<text text-anchor="middle" x="465.5" y="-134" font-family="Helvetica,sans-Serif" font-size="10.00">::getCameraTargetOffset</text>
</a>
</g>
</g>
<!-- Node9&#45;&gt;Node10 -->
<g id="edge10" class="edge"><title>Node9&#45;&gt;Node10</title>
<path fill="none" stroke="midnightblue" d="M344.23,-142C360.921,-142 378.105,-142 394.074,-142"/>
<polygon fill="midnightblue" stroke="midnightblue" points="394.376,-145.5 404.376,-142 394.376,-138.5 394.376,-145.5"/>
</g>
<!-- Node11 -->
<g id="node11" class="node"><title>Node11</title>
<g id="a_node11"><a xlink:href="../../da/dbb/class_camera.html#a4bd1cfe2d720f762d3c983370421c029" target="_top" xlink:title=" ">
<polygon fill="white" stroke="black" points="399.5,-88.5 399.5,-107.5 531.5,-107.5 531.5,-88.5 399.5,-88.5"/>
<text text-anchor="middle" x="465.5" y="-95.5" font-family="Helvetica,sans-Serif" font-size="10.00">Camera::setTargetPosition</text>
</a>
</g>
</g>
<!-- Node9&#45;&gt;Node11 -->
<g id="edge11" class="edge"><title>Node9&#45;&gt;Node11</title>
<path fill="none" stroke="midnightblue" d="M325.195,-126.981C352.557,-121.288 383.262,-114.901 408.868,-109.574"/>
<polygon fill="midnightblue" stroke="midnightblue" points="409.698,-112.976 418.776,-107.512 408.272,-106.123 409.698,-112.976"/>
</g>
<!-- Node12&#45;&gt;Node8 -->
<g id="edge15" class="edge"><title>Node12&#45;&gt;Node8</title>
<path fill="none" stroke="midnightblue" d="M264.023,-340.751C285.041,-358.814 332.957,-397.504 380,-418 385.79,-420.523 391.954,-422.729 398.214,-424.655"/>
<polygon fill="midnightblue" stroke="midnightblue" points="397.515,-428.094 408.091,-427.455 399.425,-421.36 397.515,-428.094"/>
</g>
<!-- Node13 -->
<g id="node13" class="node"><title>Node13</title>
<g id="a_node13"><a xlink:href="../../d9/dd8/class_user_controls.html#ab577475a2b33671f1f5697fbe0e0cc49" target="_top" xlink:title=" ">
<polygon fill="white" stroke="black" points="396.5,-340 396.5,-370 534.5,-370 534.5,-340 396.5,-340"/>
<text text-anchor="start" x="404.5" y="-358" font-family="Helvetica,sans-Serif" font-size="10.00">UserControls::getGuiControl</text>
<text text-anchor="middle" x="465.5" y="-347" font-family="Helvetica,sans-Serif" font-size="10.00">PauseMenuKey</text>
</a>
</g>
</g>
<!-- Node12&#45;&gt;Node13 -->
<g id="edge13" class="edge"><title>Node12&#45;&gt;Node13</title>
<path fill="none" stroke="midnightblue" d="M320.501,-338.66C341.374,-341.028 364.545,-343.658 386.09,-346.102"/>
<polygon fill="midnightblue" stroke="midnightblue" points="385.857,-349.598 396.188,-347.248 386.646,-342.643 385.857,-349.598"/>
</g>
<!-- Node14 -->
<g id="node14" class="node"><title>Node14</title>
<g id="a_node14"><a xlink:href="../../d7/d06/class_g_u_i_resizing_information.html#aa8fb79fc71098f1cf2ce4fac2d5c79ac" target="_top" xlink:title=" ">
<polygon fill="white" stroke="black" points="406.5,-291 406.5,-321 524.5,-321 524.5,-291 406.5,-291"/>
<text text-anchor="start" x="414.5" y="-309" font-family="Helvetica,sans-Serif" font-size="10.00">GUIResizingInformation</text>
<text text-anchor="middle" x="465.5" y="-298" font-family="Helvetica,sans-Serif" font-size="10.00">::getWidthUnit</text>
</a>
</g>
</g>
<!-- Node12&#45;&gt;Node14 -->
<g id="edge14" class="edge"><title>Node12&#45;&gt;Node14</title>
<path fill="none" stroke="midnightblue" d="M320.501,-323.021C344.619,-320.17 371.805,-316.957 396.006,-314.096"/>
<polygon fill="midnightblue" stroke="midnightblue" points="396.657,-317.544 406.177,-312.894 395.836,-310.592 396.657,-317.544"/>
</g>
<!-- Node15 -->
<g id="node15" class="node"><title>Node15</title>
<g id="a_node15"><a xlink:href="../../d6/d17/class_gui_button.html#aa019fa7e0fbe4a380899cb9ddb418317" target="_top" xlink:title=" ">
<polygon fill="white" stroke="black" points="385,-252.5 385,-271.5 546,-271.5 546,-252.5 385,-252.5"/>
<text text-anchor="middle" x="465.5" y="-259.5" font-family="Helvetica,sans-Serif" font-size="10.00">GuiButton::onButtonClickedOnce</text>
</a>
</g>
</g>
<!-- Node12&#45;&gt;Node15 -->
<g id="edge16" class="edge"><title>Node12&#45;&gt;Node15</title>
<path fill="none" stroke="midnightblue" d="M274.214,-321.482C299.144,-310.572 341.947,-292.693 380,-281 388.354,-278.433 397.271,-276.052 406.064,-273.905"/>
<polygon fill="midnightblue" stroke="midnightblue" points="406.974,-277.287 415.903,-271.583 405.366,-270.474 406.974,-277.287"/>
</g>
<!-- Node16 -->
<g id="node16" class="node"><title>Node16</title>
<g id="a_node16"><a xlink:href="../../d1/db9/class_gui_sprite.html#a6ec7ef9580657e062cea7f5ce8bcb515" target="_top" xlink:title=" ">
<polygon fill="white" stroke="black" points="415,-214.5 415,-233.5 516,-233.5 516,-214.5 415,-214.5"/>
<text text-anchor="middle" x="465.5" y="-221.5" font-family="Helvetica,sans-Serif" font-size="10.00">GuiSprite::setScale</text>
</a>
</g>
</g>
<!-- Node12&#45;&gt;Node16 -->
<g id="edge17" class="edge"><title>Node12&#45;&gt;Node16</title>
<path fill="none" stroke="midnightblue" d="M263.675,-321.415C284.483,-303.257 332.593,-263.806 380,-243 387.818,-239.569 396.325,-236.725 404.831,-234.377"/>
<polygon fill="midnightblue" stroke="midnightblue" points="405.948,-237.704 414.774,-231.842 404.219,-230.921 405.948,-237.704"/>
</g>
<!-- Node17 -->
<g id="node17" class="node"><title>Node17</title>
<g id="a_node17"><a xlink:href="../../dd/df5/class_gui_string.html#a964f40eb765b7ad9827284b65ac2c9fc" target="_top" xlink:title=" ">
<polygon fill="white" stroke="black" points="415,-176.5 415,-195.5 516,-195.5 516,-176.5 415,-176.5"/>
<text text-anchor="middle" x="465.5" y="-183.5" font-family="Helvetica,sans-Serif" font-size="10.00">GuiString::setScale</text>
</a>
</g>
</g>
<!-- Node12&#45;&gt;Node17 -->
<g id="edge18" class="edge"><title>Node12&#45;&gt;Node17</title>
<path fill="none" stroke="midnightblue" d="M259.714,-321.285C276.781,-297.381 324.436,-235.449 380,-205 387.76,-200.747 396.418,-197.446 405.151,-194.883"/>
<polygon fill="midnightblue" stroke="midnightblue" points="406.219,-198.221 414.999,-192.292 404.437,-191.452 406.219,-198.221"/>
</g>
<!-- Node18 -->
<g id="node18" class="node"><title>Node18</title>
<g id="a_node18"><a xlink:href="../../d6/d17/class_gui_button.html#acfb469dd9337dc5ebf70e32037b02851" target="_top" xlink:title=" ">
<polygon fill="white" stroke="black" points="418,-389.5 418,-408.5 513,-408.5 513,-389.5 418,-389.5"/>
<text text-anchor="middle" x="465.5" y="-396.5" font-family="Helvetica,sans-Serif" font-size="10.00">GuiButton::update</text>
</a>
</g>
</g>
<!-- Node12&#45;&gt;Node18 -->
<g id="edge19" class="edge"><title>Node12&#45;&gt;Node18</title>
<path fill="none" stroke="midnightblue" d="M275.636,-340.571C300.801,-350.971 342.809,-367.623 380,-379 389.515,-381.911 399.74,-384.65 409.676,-387.113"/>
<polygon fill="midnightblue" stroke="midnightblue" points="408.938,-390.535 419.48,-389.479 410.581,-383.73 408.938,-390.535"/>
</g>
<!-- Node19 -->
<g id="node19" class="node"><title>Node19</title>
<g id="a_node19"><a xlink:href="../../d4/d7b/class_input.html#a8e3bbc45ca89de6dc03cd870d0909345" target="_top" xlink:title=" ">
<polygon fill="white" stroke="black" points="600.5,-367.5 600.5,-386.5 715.5,-386.5 715.5,-367.5 600.5,-367.5"/>
<text text-anchor="middle" x="658" y="-374.5" font-family="Helvetica,sans-Serif" font-size="10.00">Input::getMouseButton</text>
</a>
</g>
</g>
<!-- Node18&#45;&gt;Node19 -->
<g id="edge20" class="edge"><title>Node18&#45;&gt;Node19</title>
<path fill="none" stroke="midnightblue" d="M513.102,-393.618C536.343,-390.934 564.866,-387.64 590.371,-384.695"/>
<polygon fill="midnightblue" stroke="midnightblue" points="590.816,-388.167 600.348,-383.542 590.013,-381.213 590.816,-388.167"/>
</g>
<!-- Node20 -->
<g id="node20" class="node"><title>Node20</title>
<g id="a_node20"><a xlink:href="../../d4/d7b/class_input.html#aa10d2871226e0b497010dfca43fe278b" target="_top" xlink:title=" ">
<polygon fill="white" stroke="black" points="597,-329.5 597,-348.5 719,-348.5 719,-329.5 597,-329.5"/>
<text text-anchor="middle" x="658" y="-336.5" font-family="Helvetica,sans-Serif" font-size="10.00">Input::getMousePosition</text>
</a>
</g>
</g>
<!-- Node18&#45;&gt;Node20 -->
<g id="edge21" class="edge"><title>Node18&#45;&gt;Node20</title>
<path fill="none" stroke="midnightblue" d="M513.312,-390.516C525.788,-387.558 539.101,-383.756 551,-379 568.2,-372.125 569.914,-365.155 587,-358 592.717,-355.606 598.823,-353.43 604.957,-351.477"/>
<polygon fill="midnightblue" stroke="midnightblue" points="605.997,-354.82 614.568,-348.593 603.984,-348.115 605.997,-354.82"/>
</g>
<!-- Node21 -->
<g id="node21" class="node"><title>Node21</title>
<g id="a_node21"><a xlink:href="../../d6/d17/class_gui_button.html#a571aa197ec582b526b5d6e2639bad843" target="_top" xlink:title=" ">
<polygon fill="white" stroke="black" points="589.5,-406 589.5,-436 726.5,-436 726.5,-406 589.5,-406"/>
<text text-anchor="start" x="597.5" y="-424" font-family="Helvetica,sans-Serif" font-size="10.00">GuiButton::mouseCoordsTo</text>
<text text-anchor="middle" x="658" y="-413" font-family="Helvetica,sans-Serif" font-size="10.00">ScreenCoords</text>
</a>
</g>
</g>
<!-- Node18&#45;&gt;Node21 -->
<g id="edge22" class="edge"><title>Node18&#45;&gt;Node21</title>
<path fill="none" stroke="midnightblue" d="M513.102,-404.382C532.97,-406.676 556.699,-409.417 579.102,-412.004"/>
<polygon fill="midnightblue" stroke="midnightblue" points="578.948,-415.509 589.284,-413.18 579.751,-408.556 578.948,-415.509"/>
</g>
<!-- Node26 -->
<g id="node26" class="node"><title>Node26</title>
<g id="a_node26"><a xlink:href="../../d6/d17/class_gui_button.html#a72312192b57055be324335dd1ed88a3d" target="_top" xlink:title=" ">
<polygon fill="white" stroke="black" points="594,-280 594,-310 722,-310 722,-280 594,-280"/>
<text text-anchor="start" x="602" y="-298" font-family="Helvetica,sans-Serif" font-size="10.00">GuiButton::mouseIsInside</text>
<text text-anchor="middle" x="658" y="-287" font-family="Helvetica,sans-Serif" font-size="10.00">Button</text>
</a>
</g>
</g>
<!-- Node18&#45;&gt;Node26 -->
<g id="edge27" class="edge"><title>Node18&#45;&gt;Node26</title>
<path fill="none" stroke="midnightblue" d="M513.159,-394.729C526.314,-391.805 540.018,-386.968 551,-379 575.863,-360.96 563.172,-339.386 587,-320 589.058,-318.325 591.238,-316.758 593.505,-315.293"/>
<polygon fill="midnightblue" stroke="midnightblue" points="595.645,-318.103 602.619,-310.128 592.194,-312.013 595.645,-318.103"/>
</g>
<!-- Node22 -->
<g id="node22" class="node"><title>Node22</title>
<g id="a_node22"><a xlink:href="../../d4/d58/namespace_game_info.html#a344c7e16ac06ee1f8458a249aac36e8e" target="_top" xlink:title=" ">
<polygon fill="white" stroke="black" points="765,-484.5 765,-503.5 905,-503.5 905,-484.5 765,-484.5"/>
<text text-anchor="middle" x="835" y="-491.5" font-family="Helvetica,sans-Serif" font-size="10.00">GameInfo::getWindowHeight</text>
</a>
</g>
</g>
<!-- Node21&#45;&gt;Node22 -->
<g id="edge23" class="edge"><title>Node21&#45;&gt;Node22</title>
<path fill="none" stroke="midnightblue" d="M702.907,-436.03C711.605,-439.19 720.631,-442.6 729,-446 755.13,-456.616 784.259,-470.064 805.194,-480.023"/>
<polygon fill="midnightblue" stroke="midnightblue" points="803.949,-483.307 814.48,-484.467 806.971,-476.993 803.949,-483.307"/>
</g>
<!-- Node24 -->
<g id="node24" class="node"><title>Node24</title>
<g id="a_node24"><a xlink:href="../../d4/d58/namespace_game_info.html#a7cf2306eb3025a60a9e2da52eefba71e" target="_top" xlink:title=" ">
<polygon fill="white" stroke="black" points="766.5,-427.5 766.5,-446.5 903.5,-446.5 903.5,-427.5 766.5,-427.5"/>
<text text-anchor="middle" x="835" y="-434.5" font-family="Helvetica,sans-Serif" font-size="10.00">GameInfo::getWindowWidth</text>
</a>
</g>
</g>
<!-- Node21&#45;&gt;Node24 -->
<g id="edge25" class="edge"><title>Node21&#45;&gt;Node24</title>
<path fill="none" stroke="midnightblue" d="M726.66,-427.186C736.297,-428.067 746.272,-428.979 756.086,-429.876"/>
<polygon fill="midnightblue" stroke="midnightblue" points="755.955,-433.379 766.232,-430.804 756.592,-426.408 755.955,-433.379"/>
</g>
<!-- Node23 -->
<g id="node23" class="node"><title>Node23</title>
<g id="a_node23"><a xlink:href="../../de/d6b/class_application.html#a0398d40c89d52bb8d6ac6ac466c5d30c" target="_top" xlink:title=" ">
<polygon fill="white" stroke="black" points="941,-479 941,-509 1086,-509 1086,-479 941,-479"/>
<text text-anchor="start" x="949" y="-497" font-family="Helvetica,sans-Serif" font-size="10.00">Application::getGameWindow</text>
<text text-anchor="middle" x="1013.5" y="-486" font-family="Helvetica,sans-Serif" font-size="10.00">Height</text>
</a>
</g>
</g>
<!-- Node22&#45;&gt;Node23 -->
<g id="edge24" class="edge"><title>Node22&#45;&gt;Node23</title>
<path fill="none" stroke="midnightblue" d="M905.251,-494C913.559,-494 922.103,-494 930.568,-494"/>
<polygon fill="midnightblue" stroke="midnightblue" points="930.835,-497.5 940.835,-494 930.835,-490.5 930.835,-497.5"/>
</g>
<!-- Node25 -->
<g id="node25" class="node"><title>Node25</title>
<g id="a_node25"><a xlink:href="../../de/d6b/class_application.html#aad8864ec1fa58ee23db7b111876d09a5" target="_top" xlink:title=" ">
<polygon fill="white" stroke="black" points="941,-422 941,-452 1086,-452 1086,-422 941,-422"/>
<text text-anchor="start" x="949" y="-440" font-family="Helvetica,sans-Serif" font-size="10.00">Application::getGameWindow</text>
<text text-anchor="middle" x="1013.5" y="-429" font-family="Helvetica,sans-Serif" font-size="10.00">Width</text>
</a>
</g>
</g>
<!-- Node24&#45;&gt;Node25 -->
<g id="edge26" class="edge"><title>Node24&#45;&gt;Node25</title>
<path fill="none" stroke="midnightblue" d="M903.735,-437C912.564,-437 921.683,-437 930.711,-437"/>
<polygon fill="midnightblue" stroke="midnightblue" points="930.846,-440.5 940.846,-437 930.846,-433.5 930.846,-440.5"/>
</g>
<!-- Node27&#45;&gt;Node7 -->
<g id="edge34" class="edge"><title>Node27&#45;&gt;Node7</title>
<path fill="none" stroke="midnightblue" d="M525.062,-534.134C534.506,-537.615 543.597,-542.407 551,-549 582.25,-576.831 556.69,-607.149 587,-636 588.633,-637.554 590.369,-639.013 592.186,-640.381"/>
<polygon fill="midnightblue" stroke="midnightblue" points="590.31,-643.336 600.609,-645.825 594.11,-637.457 590.31,-643.336"/>
</g>
<!-- Node28 -->
<g id="node28" class="node"><title>Node28</title>
<g id="a_node28"><a xlink:href="../../da/dbb/class_camera.html#ad4f098389debf103ea7a26e344a653dd" target="_top" xlink:title=" ">
<polygon fill="white" stroke="black" points="587,-607.5 587,-626.5 729,-626.5 729,-607.5 587,-607.5"/>
<text text-anchor="middle" x="658" y="-614.5" font-family="Helvetica,sans-Serif" font-size="10.00">Camera::getCameraDistance</text>
</a>
</g>
</g>
<!-- Node27&#45;&gt;Node28 -->
<g id="edge29" class="edge"><title>Node27&#45;&gt;Node28</title>
<path fill="none" stroke="midnightblue" d="M520.287,-534.524C531.055,-537.97 541.856,-542.65 551,-549 573.197,-564.413 564.713,-582.717 587,-598 589.945,-600.02 593.097,-601.825 596.373,-603.439"/>
<polygon fill="midnightblue" stroke="midnightblue" points="595.298,-606.785 605.868,-607.498 598.049,-600.349 595.298,-606.785"/>
</g>
<!-- Node29 -->
<g id="node29" class="node"><title>Node29</title>
<g id="a_node29"><a xlink:href="../../d4/d58/namespace_game_info.html#aa6186a79a90a3fcd2556c4282b20a077" target="_top" xlink:title=" ">
<polygon fill="white" stroke="black" points="597.5,-455.5 597.5,-474.5 718.5,-474.5 718.5,-455.5 597.5,-455.5"/>
<text text-anchor="middle" x="658" y="-462.5" font-family="Helvetica,sans-Serif" font-size="10.00">GameInfo::getDeltaTime</text>
</a>
</g>
</g>
<!-- Node27&#45;&gt;Node29 -->
<g id="edge30" class="edge"><title>Node27&#45;&gt;Node29</title>
<path fill="none" stroke="midnightblue" d="M521.397,-515.408C531.425,-512.886 541.663,-509.782 551,-506 568.379,-498.96 569.779,-491.419 587,-484 592.482,-481.638 598.335,-479.499 604.232,-477.582"/>
<polygon fill="midnightblue" stroke="midnightblue" points="605.595,-480.826 614.142,-474.564 603.556,-474.129 605.595,-480.826"/>
</g>
<!-- Node30 -->
<g id="node30" class="node"><title>Node30</title>
<g id="a_node30"><a xlink:href="../../d4/d7b/class_input.html#a971adcc605a1101f162e2be7a5c16a5e" target="_top" xlink:title=" ">
<polygon fill="white" stroke="black" points="603.5,-493.5 603.5,-512.5 712.5,-512.5 712.5,-493.5 603.5,-493.5"/>
<text text-anchor="middle" x="658" y="-500.5" font-family="Helvetica,sans-Serif" font-size="10.00">Input::getMouseDelta</text>
</a>
</g>
</g>
<!-- Node27&#45;&gt;Node30 -->
<g id="edge31" class="edge"><title>Node27&#45;&gt;Node30</title>
<path fill="none" stroke="midnightblue" d="M525.211,-518.22C546.729,-515.735 571.179,-512.911 593.127,-510.376"/>
<polygon fill="midnightblue" stroke="midnightblue" points="593.812,-513.821 603.345,-509.196 593.009,-506.867 593.812,-513.821"/>
</g>
<!-- Node31 -->
<g id="node31" class="node"><title>Node31</title>
<g id="a_node31"><a xlink:href="../../da/dbb/class_camera.html#a4849cb25adcc05df85e1cfba9da77a33" target="_top" xlink:title=" ">
<polygon fill="white" stroke="black" points="587,-569.5 587,-588.5 729,-588.5 729,-569.5 587,-569.5"/>
<text text-anchor="middle" x="658" y="-576.5" font-family="Helvetica,sans-Serif" font-size="10.00">Camera::setCameraDistance</text>
</a>
</g>
</g>
<!-- Node27&#45;&gt;Node31 -->
<g id="edge35" class="edge"><title>Node27&#45;&gt;Node31</title>
<path fill="none" stroke="midnightblue" d="M500.67,-534.539C516.069,-538.881 534.47,-544.128 551,-549 567.048,-553.73 570.925,-555.364 587,-560 594.828,-562.258 603.17,-564.588 611.266,-566.809"/>
<polygon fill="midnightblue" stroke="midnightblue" points="610.4,-570.201 620.969,-569.453 612.241,-563.447 610.4,-570.201"/>
</g>
<!-- Node32 -->
<g id="node32" class="node"><title>Node32</title>
<g id="a_node32"><a xlink:href="../../d7/dd1/namespacehh.html#ad58b31143e949894df4e3ca4eaa20550" target="_top" xlink:title=" ">
<polygon fill="white" stroke="black" points="596,-531.5 596,-550.5 720,-550.5 720,-531.5 596,-531.5"/>
<text text-anchor="middle" x="658" y="-538.5" font-family="Helvetica,sans-Serif" font-size="10.00">hh::sphericalToCartisean</text>
</a>
</g>
</g>
<!-- Node27&#45;&gt;Node32 -->
<g id="edge36" class="edge"><title>Node27&#45;&gt;Node32</title>
<path fill="none" stroke="midnightblue" d="M525.211,-529.931C544.383,-531.541 565.883,-533.347 585.867,-535.026"/>
<polygon fill="midnightblue" stroke="midnightblue" points="585.589,-538.514 595.847,-535.864 586.175,-531.539 585.589,-538.514"/>
</g>
<!-- Node30&#45;&gt;Node22 -->
<g id="edge32" class="edge"><title>Node30&#45;&gt;Node22</title>
<path fill="none" stroke="midnightblue" d="M712.934,-500.226C726.106,-499.549 740.475,-498.81 754.563,-498.085"/>
<polygon fill="midnightblue" stroke="midnightblue" points="754.943,-501.571 764.75,-497.561 754.583,-494.58 754.943,-501.571"/>
</g>
<!-- Node30&#45;&gt;Node24 -->
<g id="edge33" class="edge"><title>Node30&#45;&gt;Node24</title>
<path fill="none" stroke="midnightblue" d="M698.578,-493.412C708.599,-490.67 719.275,-487.472 729,-484 755.629,-474.491 784.919,-461.125 805.782,-451.076"/>
<polygon fill="midnightblue" stroke="midnightblue" points="807.557,-454.104 815.016,-446.58 804.493,-447.811 807.557,-454.104"/>
</g>
<!-- Node34 -->
<g id="node34" class="node"><title>Node34</title>
<g id="a_node34"><a xlink:href="../../d5/d50/class_player_controller_system.html#a9b0be7cb86a889e07b30d9fa68a7aaa7" target="_top" xlink:title=" ">
<polygon fill="white" stroke="black" points="406,-39 406,-69 525,-69 525,-39 406,-39"/>
<text text-anchor="start" x="414" y="-57" font-family="Helvetica,sans-Serif" font-size="10.00">PlayerControllerSystem</text>
<text text-anchor="middle" x="465.5" y="-46" font-family="Helvetica,sans-Serif" font-size="10.00">::applyNewRotation</text>
</a>
</g>
</g>
<!-- Node33&#45;&gt;Node34 -->
<g id="edge38" class="edge"><title>Node33&#45;&gt;Node34</title>
<path fill="none" stroke="midnightblue" d="M311.634,-54C337.65,-54 368.449,-54 395.56,-54"/>
<polygon fill="midnightblue" stroke="midnightblue" points="395.752,-57.5001 405.752,-54 395.752,-50.5001 395.752,-57.5001"/>
</g>
<!-- Node36 -->
<g id="node36" class="node"><title>Node36</title>
<g id="a_node36"><a xlink:href="../../da/dbb/class_camera.html#ae44d552243a7b430e94ed9e70adcf07b" target="_top" xlink:title=" ">
<polygon fill="white" stroke="black" points="413.5,-0.5 413.5,-19.5 517.5,-19.5 517.5,-0.5 413.5,-0.5"/>
<text text-anchor="middle" x="465.5" y="-7.5" font-family="Helvetica,sans-Serif" font-size="10.00">Camera::getForward</text>
</a>
</g>
</g>
<!-- Node33&#45;&gt;Node36 -->
<g id="edge40" class="edge"><title>Node33&#45;&gt;Node36</title>
<path fill="none" stroke="midnightblue" d="M311.634,-41.802C341.948,-35.4954 378.755,-27.8381 408.656,-21.6177"/>
<polygon fill="midnightblue" stroke="midnightblue" points="409.434,-25.0307 418.512,-19.5673 408.009,-18.1775 409.434,-25.0307"/>
</g>
<!-- Node35 -->
<g id="node35" class="node"><title>Node35</title>
<g id="a_node35"><a xlink:href="../../d7/dd1/namespacehh.html#aa744e19f5c464bf275c30a824f81b06e" target="_top" xlink:title=" ">
<polygon fill="white" stroke="black" points="591,-39 591,-69 725,-69 725,-39 591,-39"/>
<text text-anchor="start" x="599" y="-57" font-family="Helvetica,sans-Serif" font-size="10.00">hh::signedRadiansBetween</text>
<text text-anchor="middle" x="658" y="-46" font-family="Helvetica,sans-Serif" font-size="10.00">Vectors</text>
</a>
</g>
</g>
<!-- Node34&#45;&gt;Node35 -->
<g id="edge39" class="edge"><title>Node34&#45;&gt;Node35</title>
<path fill="none" stroke="midnightblue" d="M525.211,-54C542.737,-54 562.208,-54 580.688,-54"/>
<polygon fill="midnightblue" stroke="midnightblue" points="580.834,-57.5001 590.834,-54 580.834,-50.5001 580.834,-57.5001"/>
</g>
<!-- Node38 -->
<g id="node38" class="node"><title>Node38</title>
<g id="a_node38"><a xlink:href="../../df/d86/class_default_particle_system.html#a27c707a1f76448433785ce06a0f5152c" target="_top" xlink:title=" ">
<polygon fill="white" stroke="black" points="395,-466 395,-496 536,-496 536,-466 395,-466"/>
<text text-anchor="start" x="403" y="-484" font-family="Helvetica,sans-Serif" font-size="10.00">DefaultParticleSystem</text>
<text text-anchor="middle" x="465.5" y="-473" font-family="Helvetica,sans-Serif" font-size="10.00">::performParticleCalculations</text>
</a>
</g>
</g>
<!-- Node37&#45;&gt;Node38 -->
<g id="edge42" class="edge"><title>Node37&#45;&gt;Node38</title>
<path fill="none" stroke="midnightblue" d="M308.569,-481C331.804,-481 359.247,-481 384.582,-481"/>
<polygon fill="midnightblue" stroke="midnightblue" points="384.917,-484.5 394.917,-481 384.917,-477.5 384.917,-484.5"/>
</g>
<!-- Node38&#45;&gt;Node29 -->
<g id="edge43" class="edge"><title>Node38&#45;&gt;Node29</title>
<path fill="none" stroke="midnightblue" d="M536.084,-475.156C552.719,-473.759 570.483,-472.266 587.132,-470.868"/>
<polygon fill="midnightblue" stroke="midnightblue" points="587.661,-474.336 597.333,-470.011 587.076,-467.361 587.661,-474.336"/>
</g>
</g>
</svg>
        <g id="navigator" transform="translate(0 0)" fill="#404254">
                <rect fill="#f2f5e9" fill-opacity="0.5" stroke="#606060" stroke-width=".5" x="0" y="0" width="60" height="60"/>
                <use id="zoomplus" xlink:href="#zoomPlus" x="17" y="9" onmousedown="handleZoom(evt,'in')"/>
                <use id="zoomminus" xlink:href="#zoomMin" x="42" y="9" onmousedown="handleZoom(evt,'out')"/>
                <use id="reset" xlink:href="#resetDef" x="30" y="36" onmousedown="handleReset()"/>
                <g id="arrowUp" xlink:href="#dirArrow" transform="translate(30 24)" onmousedown="handlePan(0,-1)">
                  <use xlink:href="#rim" fill="#404040">
                        <set attributeName="fill" to="#808080" begin="arrowUp.mouseover" end="arrowUp.mouseout"/>
                  </use>
                  <path fill="none" stroke="white" stroke-width="1.5" d="M0,-3.0v7 M-2.5,-0.5L0,-3.0L2.5,-0.5"/>
                </g>
                <g id="arrowRight" xlink:href="#dirArrow" transform="rotate(90) translate(36 -43)" onmousedown="handlePan(1,0)">
                  <use xlink:href="#rim" fill="#404040">
                        <set attributeName="fill" to="#808080" begin="arrowRight.mouseover" end="arrowRight.mouseout"/>
                  </use>
                  <path fill="none" stroke="white" stroke-width="1.5" d="M0,-3.0v7 M-2.5,-0.5L0,-3.0L2.5,-0.5"/>
                </g>
                <g id="arrowDown" xlink:href="#dirArrow" transform="rotate(180) translate(-30 -48)" onmousedown="handlePan(0,1)">
                  <use xlink:href="#rim" fill="#404040">
                        <set attributeName="fill" to="#808080" begin="arrowDown.mouseover" end="arrowDown.mouseout"/>
                  </use>
                  <path fill="none" stroke="white" stroke-width="1.5" d="M0,-3.0v7 M-2.5,-0.5L0,-3.0L2.5,-0.5"/>
                </g>
                <g id="arrowLeft" xlink:href="#dirArrow" transform="rotate(270) translate(-36 17)" onmousedown="handlePan(-1,0)">
                  <use xlink:href="#rim" fill="#404040">
                        <set attributeName="fill" to="#808080" begin="arrowLeft.mouseover" end="arrowLeft.mouseout"/>
                  </use>
                  <path fill="none" stroke="white" stroke-width="1.5" d="M0,-3.0v7 M-2.5,-0.5L0,-3.0L2.5,-0.5"/>
                </g>
        </g>
        <svg viewBox="0 0 15 15" width="100%" height="30px" preserveAspectRatio="xMaxYMin meet">
         <g id="arrow_out" transform="scale(0.3 0.3)">
          <a xlink:href="class_updating_system_a127ad554750e7e7582a1904abfb265aa_cgraph_org.svg" target="_base">
           <rect id="button" ry="5" rx="5" y="6" x="6" height="38" width="38"
                fill="#f2f5e9" fill-opacity="0.5" stroke="#606060" stroke-width="1.0"/>
           <path id="arrow"
             d="M 11.500037,31.436501 C 11.940474,20.09759 22.043105,11.32322 32.158766,21.979434 L 37.068811,17.246167 C 37.068811,17.246167 37.088388,32 37.088388,32 L 22.160133,31.978069 C 22.160133,31.978069 26.997745,27.140456 26.997745,27.140456 C 18.528582,18.264221 13.291696,25.230495 11.500037,31.436501 z"
             style="fill:#404040;"/>
          </a>
         </g>
        </svg>
</svg>
