<?xml version="1.0" encoding="UTF-8" standalone="no"?>
<!DOCTYPE svg PUBLIC "-//W3C//DTD SVG 1.1//EN"
 "http://www.w3.org/Graphics/SVG/1.1/DTD/svg11.dtd">
<!-- Generated by graphviz version 2.38.0 (20140413.2041)
 -->
<!-- Title: ModelBase Pages: 1 -->
<svg width="216pt" height="84pt"
 viewBox="0.00 0.00 216.00 84.00" xmlns="http://www.w3.org/2000/svg" xmlns:xlink="http://www.w3.org/1999/xlink">
<g id="graph0" class="graph" transform="scale(1 1) rotate(0) translate(4 80)">
<title>ModelBase</title>
<polygon fill="white" stroke="none" points="-4,4 -4,-80 212,-80 212,4 -4,4"/>
<!-- Node1 -->
<g id="node1" class="node"><title>Node1</title>
<g id="a_node1"><a xlink:title=" ">
<polygon fill="#bfbfbf" stroke="black" points="81.5,-56.5 81.5,-75.5 146.5,-75.5 146.5,-56.5 81.5,-56.5"/>
<text text-anchor="middle" x="114" y="-63.5" font-family="Helvetica,sans-Serif" font-size="10.00">ModelBase</text>
</a>
</g>
</g>
<!-- Node2 -->
<g id="node2" class="node"><title>Node2</title>
<g id="a_node2"><a xlink:href="../../de/d92/class__3_d_m_1_1_animated_model.html" target="_top" xlink:title=" ">
<polygon fill="white" stroke="black" points="0,-0.5 0,-19.5 116,-19.5 116,-0.5 0,-0.5"/>
<text text-anchor="middle" x="58" y="-7.5" font-family="Helvetica,sans-Serif" font-size="10.00">_3DM::AnimatedModel</text>
</a>
</g>
</g>
<!-- Node1&#45;&gt;Node2 -->
<g id="edge1" class="edge"><title>Node1&#45;&gt;Node2</title>
<path fill="none" stroke="midnightblue" d="M97.6701,-49.2533C87.735,-39.6731 75.4125,-27.7906 67.1611,-19.8339"/>
<polygon fill="midnightblue" stroke="midnightblue" points="95.3747,-51.902 105.003,-56.324 100.234,-46.8631 95.3747,-51.902"/>
</g>
<!-- Node3 -->
<g id="node3" class="node"><title>Node3</title>
<g id="a_node3"><a xlink:href="../../d3/d96/class__3_d_m_1_1_model.html" target="_top" xlink:title=" ">
<polygon fill="white" stroke="black" points="134,-0.5 134,-19.5 208,-19.5 208,-0.5 134,-0.5"/>
<text text-anchor="middle" x="171" y="-7.5" font-family="Helvetica,sans-Serif" font-size="10.00">_3DM::Model</text>
</a>
</g>
</g>
<!-- Node1&#45;&gt;Node3 -->
<g id="edge2" class="edge"><title>Node1&#45;&gt;Node3</title>
<path fill="none" stroke="midnightblue" d="M130.621,-49.2533C140.734,-39.6731 153.277,-27.7906 161.675,-19.8339"/>
<polygon fill="midnightblue" stroke="midnightblue" points="128.01,-46.9056 123.158,-56.324 132.825,-51.9873 128.01,-46.9056"/>
</g>
</g>
</svg>
