<?xml version="1.0" encoding="UTF-8" standalone="no"?>
<!DOCTYPE svg PUBLIC "-//W3C//DTD SVG 1.1//EN"
 "http://www.w3.org/Graphics/SVG/1.1/DTD/svg11.dtd">
<!-- Generated by graphviz version 2.38.0 (20140413.2041)
 -->
<!-- Title: UserControls Pages: 1 -->
<svg width="188pt" height="209pt"
 viewBox="0.00 0.00 188.00 209.00" xmlns="http://www.w3.org/2000/svg" xmlns:xlink="http://www.w3.org/1999/xlink">
<g id="graph0" class="graph" transform="scale(1 1) rotate(0) translate(4 205)">
<title>UserControls</title>
<polygon fill="white" stroke="none" points="-4,4 -4,-205 184,-205 184,4 -4,4"/>
<!-- Node1 -->
<g id="node1" class="node"><title>Node1</title>
<g id="a_node1"><a xlink:title=" ">
<polygon fill="#bfbfbf" stroke="black" points="33.5,-0.5 33.5,-19.5 106.5,-19.5 106.5,-0.5 33.5,-0.5"/>
<text text-anchor="middle" x="70" y="-7.5" font-family="Helvetica,sans-Serif" font-size="10.00">UserControls</text>
</a>
</g>
</g>
<!-- Node2 -->
<g id="node2" class="node"><title>Node2</title>
<g id="a_node2"><a xlink:href="../../d2/d00/class_component.html" target="_top" xlink:title=" ">
<polygon fill="white" stroke="black" points="0,-57.5 0,-76.5 140,-76.5 140,-57.5 0,-57.5"/>
<text text-anchor="middle" x="70" y="-64.5" font-family="Helvetica,sans-Serif" font-size="10.00">Component&lt; UserControls &gt;</text>
</a>
</g>
</g>
<!-- Node2&#45;&gt;Node1 -->
<g id="edge1" class="edge"><title>Node2&#45;&gt;Node1</title>
<path fill="none" stroke="midnightblue" d="M70,-47.1166C70,-37.8173 70,-27.0557 70,-19.7149"/>
<polygon fill="midnightblue" stroke="midnightblue" points="66.5001,-47.4062 70,-57.4063 73.5001,-47.4063 66.5001,-47.4062"/>
</g>
<!-- Node3 -->
<g id="node3" class="node"><title>Node3</title>
<g id="a_node3"><a xlink:href="../../d5/d79/class_component_interface.html" target="_top" xlink:title=" ">
<polygon fill="white" stroke="black" points="26.5,-181.5 26.5,-200.5 129.5,-200.5 129.5,-181.5 26.5,-181.5"/>
<text text-anchor="middle" x="78" y="-188.5" font-family="Helvetica,sans-Serif" font-size="10.00">ComponentInterface</text>
</a>
</g>
</g>
<!-- Node3&#45;&gt;Node2 -->
<g id="edge2" class="edge"><title>Node3&#45;&gt;Node2</title>
<path fill="none" stroke="midnightblue" d="M75.6478,-171.087C74.6924,-162.788 73.6602,-152.923 73,-144 71.207,-119.77 70.4417,-91.1087 70.153,-76.9036"/>
<polygon fill="midnightblue" stroke="midnightblue" points="72.1945,-171.686 76.8611,-181.198 79.1446,-170.852 72.1945,-171.686"/>
</g>
<!-- Node4 -->
<g id="node4" class="node"><title>Node4</title>
<g id="a_node4"><a xlink:href="../../d2/d00/class_component.html" target="_top" xlink:title=" ">
<polygon fill="white" stroke="black" points="82.5,-124.5 82.5,-143.5 171.5,-143.5 171.5,-124.5 82.5,-124.5"/>
<text text-anchor="middle" x="127" y="-131.5" font-family="Helvetica,sans-Serif" font-size="10.00">Component&lt; T &gt;</text>
</a>
</g>
</g>
<!-- Node3&#45;&gt;Node4 -->
<g id="edge4" class="edge"><title>Node3&#45;&gt;Node4</title>
<path fill="none" stroke="midnightblue" d="M92.4077,-173.828C101.182,-163.979 112.049,-151.782 119.236,-143.715"/>
<polygon fill="midnightblue" stroke="midnightblue" points="89.695,-171.611 85.6563,-181.406 94.9217,-176.268 89.695,-171.611"/>
</g>
<!-- Node4&#45;&gt;Node2 -->
<g id="edge3" class="edge"><title>Node4&#45;&gt;Node2</title>
<path fill="none" stroke="orange" stroke-dasharray="5,2" d="M112.649,-116.635C101.502,-103.923 86.4842,-86.7978 77.5655,-76.6273"/>
<polygon fill="orange" stroke="orange" points="110.088,-119.023 119.313,-124.234 115.351,-114.408 110.088,-119.023"/>
<text text-anchor="middle" x="141" y="-98" font-family="Helvetica,sans-Serif" font-size="10.00"> &lt; UserControls &gt;</text>
</g>
</g>
</svg>
