<?xml version="1.0" encoding="UTF-8" standalone="no"?>
<!DOCTYPE svg PUBLIC "-//W3C//DTD SVG 1.1//EN"
 "http://www.w3.org/Graphics/SVG/1.1/DTD/svg11.dtd">
<!-- Generated by graphviz version 2.38.0 (20140413.2041)
 -->
<!-- Title: src/Sound.cpp Pages: 1 -->
<!--zoomable 420 -->
<svg id="main" version="1.1" xmlns="http://www.w3.org/2000/svg" xmlns:xlink="http://www.w3.org/1999/xlink" xml:space="preserve" onload="init(evt)">
<style type="text/css"><![CDATA[
.edge:hover path { stroke: red; }
.edge:hover polygon { stroke: red; fill: red; }
]]></style>
<script type="text/javascript"><![CDATA[
var edges = document.getElementsByTagName('g');
if (edges && edges.length) {
  for (var i=0;i<edges.length;i++) {
    if (edges[i].id.substr(0,4)=='edge') {
      edges[i].setAttribute('class','edge');
    }
  }
}
]]></script>
        <defs>
                <circle id="rim" cx="0" cy="0" r="7"/>
                <circle id="rim2" cx="0" cy="0" r="3.5"/>
                <g id="zoomPlus">
                        <use xlink:href="#rim" fill="#404040">
                                <set attributeName="fill" to="#808080" begin="zoomplus.mouseover" end="zoomplus.mouseout"/>
                        </use>
                        <path d="M-4,0h8M0,-4v8" fill="none" stroke="white" stroke-width="1.5" pointer-events="none"/>
                </g>
                <g id="zoomMin">
                        <use xlink:href="#rim" fill="#404040">
                                <set attributeName="fill" to="#808080" begin="zoomminus.mouseover" end="zoomminus.mouseout"/>
                        </use>
                        <path d="M-4,0h8" fill="none" stroke="white" stroke-width="1.5" pointer-events="none"/>
                </g>
                <g id="dirArrow">
                        <path fill="none" stroke="white" stroke-width="1.5" d="M0,-3.0v7 M-2.5,-0.5L0,-3.0L2.5,-0.5"/>
                </g>
               <g id="resetDef">
                       <use xlink:href="#rim2" fill="#404040">
                               <set attributeName="fill" to="#808080" begin="reset.mouseover" end="reset.mouseout"/>
                       </use>
               </g>
        </defs>

<script type="text/javascript">
var viewWidth = 1628;
var viewHeight = 420;
var sectionId = 'dynsection-0';
</script>
<script xlink:href="../../svgpan.js"/>
<svg id="graph" class="graph">
<g id="viewport">
<title>src/Sound.cpp</title>
<polygon fill="white" stroke="none" points="-4,4 -4,-416 1624,-416 1624,4 -4,4"/>
<!-- Node1 -->
<g id="node1" class="node"><title>Node1</title>
<g id="a_node1"><a xlink:title=" ">
<polygon fill="#bfbfbf" stroke="black" points="1110,-392.5 1110,-411.5 1190,-411.5 1190,-392.5 1110,-392.5"/>
<text text-anchor="middle" x="1150" y="-399.5" font-family="Helvetica,sans-Serif" font-size="10.00">src/Sound.cpp</text>
</a>
</g>
</g>
<!-- Node2 -->
<g id="node2" class="node"><title>Node2</title>
<g id="a_node2"><a xlink:href="../../d5/db0/_sound_8h.html" target="_top" xlink:title=" ">
<polygon fill="white" stroke="black" points="1123.5,-336.5 1123.5,-355.5 1176.5,-355.5 1176.5,-336.5 1123.5,-336.5"/>
<text text-anchor="middle" x="1150" y="-343.5" font-family="Helvetica,sans-Serif" font-size="10.00">Sound.h</text>
</a>
</g>
</g>
<!-- Node1&#45;&gt;Node2 -->
<g id="edge1" class="edge"><title>Node1&#45;&gt;Node2</title>
<path fill="none" stroke="midnightblue" d="M1150,-392.083C1150,-385.006 1150,-374.861 1150,-365.986"/>
<polygon fill="midnightblue" stroke="midnightblue" points="1153.5,-365.751 1150,-355.751 1146.5,-365.751 1153.5,-365.751"/>
</g>
<!-- Node3 -->
<g id="node3" class="node"><title>Node3</title>
<g id="a_node3"><a xlink:href="../../d3/da2/_debug_drawer_8h.html" target="_top" xlink:title=" ">
<polygon fill="white" stroke="black" points="264.5,-280.5 264.5,-299.5 347.5,-299.5 347.5,-280.5 264.5,-280.5"/>
<text text-anchor="middle" x="306" y="-287.5" font-family="Helvetica,sans-Serif" font-size="10.00">DebugDrawer.h</text>
</a>
</g>
</g>
<!-- Node2&#45;&gt;Node3 -->
<g id="edge2" class="edge"><title>Node2&#45;&gt;Node3</title>
<path fill="none" stroke="midnightblue" d="M1123.35,-343.295C1004.08,-335.664 518.207,-304.577 357.721,-294.309"/>
<polygon fill="midnightblue" stroke="midnightblue" points="357.831,-290.809 347.628,-293.663 357.384,-297.795 357.831,-290.809"/>
</g>
<!-- Node23 -->
<g id="node23" class="node"><title>Node23</title>
<g id="a_node23"><a xlink:title=" ">
<polygon fill="white" stroke="#bfbfbf" points="1554,-56.5 1554,-75.5 1610,-75.5 1610,-56.5 1554,-56.5"/>
<text text-anchor="middle" x="1582" y="-63.5" font-family="Helvetica,sans-Serif" font-size="10.00">algorithm</text>
</a>
</g>
</g>
<!-- Node2&#45;&gt;Node23 -->
<g id="edge54" class="edge"><title>Node2&#45;&gt;Node23</title>
<path fill="none" stroke="midnightblue" d="M1176.62,-344.521C1276.04,-342.026 1620,-326.763 1620,-235 1620,-235 1620,-235 1620,-177 1620,-142.813 1603.4,-105.764 1592.14,-84.5707"/>
<polygon fill="midnightblue" stroke="midnightblue" points="1595.18,-82.832 1587.28,-75.769 1589.05,-86.2151 1595.18,-82.832"/>
</g>
<!-- Node26 -->
<g id="node26" class="node"><title>Node26</title>
<g id="a_node26"><a xlink:title=" ">
<polygon fill="white" stroke="#bfbfbf" points="278,-56.5 278,-75.5 320,-75.5 320,-56.5 278,-56.5"/>
<text text-anchor="middle" x="299" y="-63.5" font-family="Helvetica,sans-Serif" font-size="10.00">vector</text>
</a>
</g>
</g>
<!-- Node2&#45;&gt;Node26 -->
<g id="edge55" class="edge"><title>Node2&#45;&gt;Node26</title>
<path fill="none" stroke="midnightblue" d="M1123.27,-345.331C950.599,-347.125 0,-351.703 0,-235 0,-235 0,-235 0,-177 0,-143.079 11.9197,-131.029 40,-112 76.7101,-87.1225 206.934,-74.0834 267.544,-69.245"/>
<polygon fill="midnightblue" stroke="midnightblue" points="267.972,-72.7223 277.673,-68.4613 267.432,-65.7432 267.972,-72.7223"/>
</g>
<!-- Node31 -->
<g id="node31" class="node"><title>Node31</title>
<g id="a_node31"><a xlink:href="../../d7/d26/_helping_hand_8h.html" target="_top" xlink:title=" ">
<polygon fill="white" stroke="black" points="1474,-112.5 1474,-131.5 1554,-131.5 1554,-112.5 1474,-112.5"/>
<text text-anchor="middle" x="1514" y="-119.5" font-family="Helvetica,sans-Serif" font-size="10.00">HelpingHand.h</text>
</a>
</g>
</g>
<!-- Node2&#45;&gt;Node31 -->
<g id="edge52" class="edge"><title>Node2&#45;&gt;Node31</title>
<path fill="none" stroke="midnightblue" d="M1164.27,-336.297C1219.88,-302.379 1422.41,-178.862 1491.06,-136.991"/>
<polygon fill="midnightblue" stroke="midnightblue" points="1493.11,-139.838 1499.83,-131.643 1489.47,-133.861 1493.11,-139.838"/>
</g>
<!-- Node35 -->
<g id="node35" class="node"><title>Node35</title>
<g id="a_node35"><a xlink:title=" ">
<polygon fill="white" stroke="#bfbfbf" points="1322.5,-280.5 1322.5,-299.5 1395.5,-299.5 1395.5,-280.5 1322.5,-280.5"/>
<text text-anchor="middle" x="1359" y="-287.5" font-family="Helvetica,sans-Serif" font-size="10.00">SDL_mixer.h</text>
</a>
</g>
</g>
<!-- Node2&#45;&gt;Node35 -->
<g id="edge53" class="edge"><title>Node2&#45;&gt;Node35</title>
<path fill="none" stroke="midnightblue" d="M1176.9,-338.051C1212.14,-328.946 1274.35,-312.871 1316.13,-302.078"/>
<polygon fill="midnightblue" stroke="midnightblue" points="1317.21,-305.413 1326.01,-299.522 1315.46,-298.635 1317.21,-305.413"/>
</g>
<!-- Node4 -->
<g id="node4" class="node"><title>Node4</title>
<g id="a_node4"><a xlink:href="../../de/d50/_game_info_8h.html" target="_top" xlink:title=" ">
<polygon fill="white" stroke="black" points="66,-112.5 66,-131.5 132,-131.5 132,-112.5 66,-112.5"/>
<text text-anchor="middle" x="99" y="-119.5" font-family="Helvetica,sans-Serif" font-size="10.00">GameInfo.h</text>
</a>
</g>
</g>
<!-- Node3&#45;&gt;Node4 -->
<g id="edge3" class="edge"><title>Node3&#45;&gt;Node4</title>
<path fill="none" stroke="midnightblue" d="M315.389,-280.124C327.936,-267.158 347.249,-242.566 335,-224 312.449,-189.819 200.662,-152.666 139.375,-134.421"/>
<polygon fill="midnightblue" stroke="midnightblue" points="140.215,-131.02 129.633,-131.553 138.238,-137.735 140.215,-131.02"/>
</g>
<!-- Node9 -->
<g id="node9" class="node"><title>Node9</title>
<g id="a_node9"><a xlink:href="../../db/dcf/_locator_8h.html" target="_top" xlink:title=" ">
<polygon fill="white" stroke="black" points="725.5,-224.5 725.5,-243.5 782.5,-243.5 782.5,-224.5 725.5,-224.5"/>
<text text-anchor="middle" x="754" y="-231.5" font-family="Helvetica,sans-Serif" font-size="10.00">Locator.h</text>
</a>
</g>
</g>
<!-- Node3&#45;&gt;Node9 -->
<g id="edge8" class="edge"><title>Node3&#45;&gt;Node9</title>
<path fill="none" stroke="midnightblue" d="M347.744,-283.968C434.193,-273.548 631.707,-249.741 715.392,-239.654"/>
<polygon fill="midnightblue" stroke="midnightblue" points="715.978,-243.108 725.487,-238.437 715.14,-236.159 715.978,-243.108"/>
</g>
<!-- Node3&#45;&gt;Node26 -->
<g id="edge51" class="edge"><title>Node3&#45;&gt;Node26</title>
<path fill="none" stroke="midnightblue" d="M264.4,-287.696C200.528,-284.719 82.9475,-275.057 57,-244 19.3856,-198.979 19.4996,-157.116 57,-112 83.4228,-80.211 208.112,-70.7692 267.458,-68.0532"/>
<polygon fill="midnightblue" stroke="midnightblue" points="267.897,-71.5379 277.741,-67.6204 267.602,-64.5441 267.897,-71.5379"/>
</g>
<!-- Node33 -->
<g id="node33" class="node"><title>Node33</title>
<g id="a_node33"><a xlink:title=" ">
<polygon fill="white" stroke="#bfbfbf" points="190,-224.5 190,-243.5 326,-243.5 326,-224.5 190,-224.5"/>
<text text-anchor="middle" x="258" y="-231.5" font-family="Helvetica,sans-Serif" font-size="10.00">LinearMath/btIDebugDraw.h</text>
</a>
</g>
</g>
<!-- Node3&#45;&gt;Node33 -->
<g id="edge49" class="edge"><title>Node3&#45;&gt;Node33</title>
<path fill="none" stroke="midnightblue" d="M298.074,-280.083C291.154,-272.298 280.935,-260.801 272.548,-251.367"/>
<polygon fill="midnightblue" stroke="midnightblue" points="275.038,-248.9 265.779,-243.751 269.806,-253.55 275.038,-248.9"/>
</g>
<!-- Node34 -->
<g id="node34" class="node"><title>Node34</title>
<g id="a_node34"><a xlink:title=" ">
<polygon fill="white" stroke="#bfbfbf" points="66,-224.5 66,-243.5 172,-243.5 172,-224.5 66,-224.5"/>
<text text-anchor="middle" x="119" y="-231.5" font-family="Helvetica,sans-Serif" font-size="10.00">glm/gtc/type_ptr.hpp</text>
</a>
</g>
</g>
<!-- Node3&#45;&gt;Node34 -->
<g id="edge50" class="edge"><title>Node3&#45;&gt;Node34</title>
<path fill="none" stroke="midnightblue" d="M276.369,-280.444C244.5,-271.241 193.667,-256.562 158.436,-246.388"/>
<polygon fill="midnightblue" stroke="midnightblue" points="159.071,-242.928 148.492,-243.516 157.128,-249.653 159.071,-242.928"/>
</g>
<!-- Node5 -->
<g id="node5" class="node"><title>Node5</title>
<g id="a_node5"><a xlink:title=" ">
<polygon fill="white" stroke="#bfbfbf" points="1147.5,-56.5 1147.5,-75.5 1274.5,-75.5 1274.5,-56.5 1147.5,-56.5"/>
<text text-anchor="middle" x="1211" y="-63.5" font-family="Helvetica,sans-Serif" font-size="10.00">LinearMath/btTransform.h</text>
</a>
</g>
</g>
<!-- Node4&#45;&gt;Node5 -->
<g id="edge4" class="edge"><title>Node4&#45;&gt;Node5</title>
<path fill="none" stroke="midnightblue" d="M132.383,-113.312C135.287,-112.806 138.189,-112.357 141,-112 524.477,-63.3278 623.805,-92.6455 1010,-76 1051.95,-74.192 1098.82,-72.0977 1136.74,-70.3845"/>
<polygon fill="midnightblue" stroke="midnightblue" points="1137.35,-73.8604 1147.18,-69.912 1137.04,-66.8675 1137.35,-73.8604"/>
</g>
<!-- Node6 -->
<g id="node6" class="node"><title>Node6</title>
<g id="a_node6"><a xlink:title=" ">
<polygon fill="white" stroke="#bfbfbf" points="927,-56.5 927,-75.5 1001,-75.5 1001,-56.5 927,-56.5"/>
<text text-anchor="middle" x="964" y="-63.5" font-family="Helvetica,sans-Serif" font-size="10.00">glm/vec3.hpp</text>
</a>
</g>
</g>
<!-- Node4&#45;&gt;Node6 -->
<g id="edge5" class="edge"><title>Node4&#45;&gt;Node6</title>
<path fill="none" stroke="midnightblue" d="M132.386,-113.334C135.289,-112.823 138.19,-112.367 141,-112 468.389,-69.2692 553.879,-102.243 883,-76 894.015,-75.1217 905.847,-73.9418 916.973,-72.7259"/>
<polygon fill="midnightblue" stroke="midnightblue" points="917.401,-76.2 926.948,-71.6069 916.62,-69.2436 917.401,-76.2"/>
</g>
<!-- Node7 -->
<g id="node7" class="node"><title>Node7</title>
<g id="a_node7"><a xlink:title=" ">
<polygon fill="white" stroke="#bfbfbf" points="62,-56.5 62,-75.5 136,-75.5 136,-56.5 62,-56.5"/>
<text text-anchor="middle" x="99" y="-63.5" font-family="Helvetica,sans-Serif" font-size="10.00">glm/vec4.hpp</text>
</a>
</g>
</g>
<!-- Node4&#45;&gt;Node7 -->
<g id="edge6" class="edge"><title>Node4&#45;&gt;Node7</title>
<path fill="none" stroke="midnightblue" d="M99,-112.083C99,-105.006 99,-94.8611 99,-85.9865"/>
<polygon fill="midnightblue" stroke="midnightblue" points="102.5,-85.751 99,-75.7511 95.5001,-85.7511 102.5,-85.751"/>
</g>
<!-- Node8 -->
<g id="node8" class="node"><title>Node8</title>
<g id="a_node8"><a xlink:title=" ">
<polygon fill="white" stroke="#bfbfbf" points="601.5,-56.5 601.5,-75.5 642.5,-75.5 642.5,-56.5 601.5,-56.5"/>
<text text-anchor="middle" x="622" y="-63.5" font-family="Helvetica,sans-Serif" font-size="10.00">string</text>
</a>
</g>
</g>
<!-- Node4&#45;&gt;Node8 -->
<g id="edge7" class="edge"><title>Node4&#45;&gt;Node8</title>
<path fill="none" stroke="midnightblue" d="M132.405,-113.471C135.304,-112.93 138.199,-112.43 141,-112 309.699,-86.1258 514.124,-72.9526 590.886,-68.6372"/>
<polygon fill="midnightblue" stroke="midnightblue" points="591.474,-72.1102 601.266,-68.0644 591.088,-65.1209 591.474,-72.1102"/>
</g>
<!-- Node9&#45;&gt;Node2 -->
<g id="edge34" class="edge"><title>Node9&#45;&gt;Node2</title>
<path fill="none" stroke="midnightblue" d="M782.594,-242.943C853.13,-262.536 1035.37,-313.157 1113.52,-334.868"/>
<polygon fill="midnightblue" stroke="midnightblue" points="1112.83,-338.308 1123.4,-337.612 1114.7,-331.563 1112.83,-338.308"/>
</g>
<!-- Node10 -->
<g id="node10" class="node"><title>Node10</title>
<g id="a_node10"><a xlink:href="../../d2/d94/_input_8h.html" target="_top" xlink:title=" ">
<polygon fill="white" stroke="black" points="365,-168.5 365,-187.5 411,-187.5 411,-168.5 365,-168.5"/>
<text text-anchor="middle" x="388" y="-175.5" font-family="Helvetica,sans-Serif" font-size="10.00">Input.h</text>
</a>
</g>
</g>
<!-- Node9&#45;&gt;Node10 -->
<g id="edge9" class="edge"><title>Node9&#45;&gt;Node10</title>
<path fill="none" stroke="midnightblue" d="M725.281,-228.763C658.44,-218.901 492.746,-194.454 421.472,-183.939"/>
<polygon fill="midnightblue" stroke="midnightblue" points="421.672,-180.43 411.268,-182.433 420.65,-187.355 421.672,-180.43"/>
</g>
<!-- Node14 -->
<g id="node14" class="node"><title>Node14</title>
<g id="a_node14"><a xlink:href="../../d8/d34/_shader_8h.html" target="_top" xlink:title=" ">
<polygon fill="white" stroke="black" points="726,-168.5 726,-187.5 782,-187.5 782,-168.5 726,-168.5"/>
<text text-anchor="middle" x="754" y="-175.5" font-family="Helvetica,sans-Serif" font-size="10.00">Shader.h</text>
</a>
</g>
</g>
<!-- Node9&#45;&gt;Node14 -->
<g id="edge14" class="edge"><title>Node9&#45;&gt;Node14</title>
<path fill="none" stroke="midnightblue" d="M754,-224.083C754,-217.006 754,-206.861 754,-197.986"/>
<polygon fill="midnightblue" stroke="midnightblue" points="757.5,-197.751 754,-187.751 750.5,-197.751 757.5,-197.751"/>
</g>
<!-- Node27 -->
<g id="node27" class="node"><title>Node27</title>
<g id="a_node27"><a xlink:href="../../de/dbf/_texture_8h.html" target="_top" xlink:title=" ">
<polygon fill="white" stroke="black" points="1208.5,-168.5 1208.5,-187.5 1265.5,-187.5 1265.5,-168.5 1208.5,-168.5"/>
<text text-anchor="middle" x="1237" y="-175.5" font-family="Helvetica,sans-Serif" font-size="10.00">Texture.h</text>
</a>
</g>
</g>
<!-- Node9&#45;&gt;Node27 -->
<g id="edge35" class="edge"><title>Node9&#45;&gt;Node27</title>
<path fill="none" stroke="midnightblue" d="M782.767,-229.784C865.486,-220.536 1104.05,-193.864 1198.16,-183.342"/>
<polygon fill="midnightblue" stroke="midnightblue" points="1198.83,-186.789 1208.38,-182.199 1198.06,-179.832 1198.83,-186.789"/>
</g>
<!-- Node10&#45;&gt;Node4 -->
<g id="edge10" class="edge"><title>Node10&#45;&gt;Node4</title>
<path fill="none" stroke="midnightblue" d="M364.963,-171.137C360.351,-170.036 355.531,-168.938 351,-168 261.351,-149.436 235.671,-149.872 142.309,-132.185"/>
<polygon fill="midnightblue" stroke="midnightblue" points="142.925,-128.739 132.445,-130.297 141.609,-135.615 142.925,-128.739"/>
</g>
<!-- Node11 -->
<g id="node11" class="node"><title>Node11</title>
<g id="a_node11"><a xlink:href="../../d9/db9/_unique_vectors_8h.html" target="_top" xlink:title=" ">
<polygon fill="white" stroke="black" points="150.5,-112.5 150.5,-131.5 239.5,-131.5 239.5,-112.5 150.5,-112.5"/>
<text text-anchor="middle" x="195" y="-119.5" font-family="Helvetica,sans-Serif" font-size="10.00">UniqueVectors.h</text>
</a>
</g>
</g>
<!-- Node10&#45;&gt;Node11 -->
<g id="edge11" class="edge"><title>Node10&#45;&gt;Node11</title>
<path fill="none" stroke="midnightblue" d="M364.72,-170.486C332.716,-161.532 274.648,-145.285 235.455,-134.319"/>
<polygon fill="midnightblue" stroke="midnightblue" points="236.252,-130.908 225.679,-131.584 234.366,-137.649 236.252,-130.908"/>
</g>
<!-- Node12 -->
<g id="node12" class="node"><title>Node12</title>
<g id="a_node12"><a xlink:title=" ">
<polygon fill="white" stroke="#bfbfbf" points="258,-112.5 258,-131.5 332,-131.5 332,-112.5 258,-112.5"/>
<text text-anchor="middle" x="295" y="-119.5" font-family="Helvetica,sans-Serif" font-size="10.00">glm/vec2.hpp</text>
</a>
</g>
</g>
<!-- Node10&#45;&gt;Node12 -->
<g id="edge12" class="edge"><title>Node10&#45;&gt;Node12</title>
<path fill="none" stroke="midnightblue" d="M373.058,-168.324C358.415,-159.822 335.866,-146.729 318.762,-136.797"/>
<polygon fill="midnightblue" stroke="midnightblue" points="320.31,-133.649 309.905,-131.655 316.795,-139.703 320.31,-133.649"/>
</g>
<!-- Node13 -->
<g id="node13" class="node"><title>Node13</title>
<g id="a_node13"><a xlink:title=" ">
<polygon fill="white" stroke="#bfbfbf" points="350,-112.5 350,-131.5 394,-131.5 394,-112.5 350,-112.5"/>
<text text-anchor="middle" x="372" y="-119.5" font-family="Helvetica,sans-Serif" font-size="10.00">SDL.h</text>
</a>
</g>
</g>
<!-- Node10&#45;&gt;Node13 -->
<g id="edge13" class="edge"><title>Node10&#45;&gt;Node13</title>
<path fill="none" stroke="midnightblue" d="M385.358,-168.083C383.214,-160.849 380.121,-150.409 377.451,-141.397"/>
<polygon fill="midnightblue" stroke="midnightblue" points="380.79,-140.345 374.593,-131.751 374.078,-142.333 380.79,-140.345"/>
</g>
<!-- Node14&#45;&gt;Node6 -->
<g id="edge30" class="edge"><title>Node14&#45;&gt;Node6</title>
<path fill="none" stroke="midnightblue" d="M782.138,-176.146C840.336,-173.725 970.786,-164.692 998,-132 1010.51,-116.97 995.779,-96.5827 981.985,-82.6738"/>
<polygon fill="midnightblue" stroke="midnightblue" points="984.268,-80.0157 974.598,-75.6883 979.459,-85.102 984.268,-80.0157"/>
</g>
<!-- Node14&#45;&gt;Node8 -->
<g id="edge32" class="edge"><title>Node14&#45;&gt;Node8</title>
<path fill="none" stroke="midnightblue" d="M725.884,-176.814C693.571,-174.903 641.814,-166.269 617,-132 607.267,-118.559 610.324,-99.1914 614.712,-85.0958"/>
<polygon fill="midnightblue" stroke="midnightblue" points="618.061,-86.1245 618.138,-75.5299 611.471,-83.7644 618.061,-86.1245"/>
</g>
<!-- Node15 -->
<g id="node15" class="node"><title>Node15</title>
<g id="a_node15"><a xlink:href="../../dc/d20/_component_8h.html" target="_top" xlink:title=" ">
<polygon fill="white" stroke="black" points="800,-56.5 800,-75.5 874,-75.5 874,-56.5 800,-56.5"/>
<text text-anchor="middle" x="837" y="-63.5" font-family="Helvetica,sans-Serif" font-size="10.00">Component.h</text>
</a>
</g>
</g>
<!-- Node14&#45;&gt;Node15 -->
<g id="edge15" class="edge"><title>Node14&#45;&gt;Node15</title>
<path fill="none" stroke="midnightblue" d="M754.723,-168.208C756.197,-154.913 760.547,-129.4 773,-112 782.415,-98.8456 796.92,-88.1914 809.743,-80.5581"/>
<polygon fill="midnightblue" stroke="midnightblue" points="811.677,-83.4864 818.686,-75.5411 808.252,-77.3815 811.677,-83.4864"/>
</g>
<!-- Node17 -->
<g id="node17" class="node"><title>Node17</title>
<g id="a_node17"><a xlink:href="../../d0/d4b/_debug_8h.html" target="_top" xlink:title=" ">
<polygon fill="white" stroke="black" points="1084.5,-112.5 1084.5,-131.5 1137.5,-131.5 1137.5,-112.5 1084.5,-112.5"/>
<text text-anchor="middle" x="1111" y="-119.5" font-family="Helvetica,sans-Serif" font-size="10.00">Debug.h</text>
</a>
</g>
</g>
<!-- Node14&#45;&gt;Node17 -->
<g id="edge17" class="edge"><title>Node14&#45;&gt;Node17</title>
<path fill="none" stroke="midnightblue" d="M782.011,-173.724C837.285,-167.102 964.209,-151.116 1070,-132 1071.29,-131.767 1072.6,-131.522 1073.93,-131.268"/>
<polygon fill="midnightblue" stroke="midnightblue" points="1075.05,-134.612 1084.15,-129.194 1073.66,-127.752 1075.05,-134.612"/>
</g>
<!-- Node18 -->
<g id="node18" class="node"><title>Node18</title>
<g id="a_node18"><a xlink:href="../../d5/d31/_lights_8h.html" target="_top" xlink:title=" ">
<polygon fill="white" stroke="black" points="938.5,-112.5 938.5,-131.5 989.5,-131.5 989.5,-112.5 938.5,-112.5"/>
<text text-anchor="middle" x="964" y="-119.5" font-family="Helvetica,sans-Serif" font-size="10.00">Lights.h</text>
</a>
</g>
</g>
<!-- Node14&#45;&gt;Node18 -->
<g id="edge18" class="edge"><title>Node14&#45;&gt;Node18</title>
<path fill="none" stroke="midnightblue" d="M782.322,-169.717C820.199,-159.977 887.348,-142.71 928.545,-132.117"/>
<polygon fill="midnightblue" stroke="midnightblue" points="929.612,-135.457 938.425,-129.576 927.869,-128.677 929.612,-135.457"/>
</g>
<!-- Node19 -->
<g id="node19" class="node"><title>Node19</title>
<g id="a_node19"><a xlink:href="../../d3/d09/_material_8h.html" target="_top" xlink:title=" ">
<polygon fill="white" stroke="black" points="861.5,-112.5 861.5,-131.5 920.5,-131.5 920.5,-112.5 861.5,-112.5"/>
<text text-anchor="middle" x="891" y="-119.5" font-family="Helvetica,sans-Serif" font-size="10.00">Material.h</text>
</a>
</g>
</g>
<!-- Node14&#45;&gt;Node19 -->
<g id="edge20" class="edge"><title>Node14&#45;&gt;Node19</title>
<path fill="none" stroke="midnightblue" d="M775.708,-168.444C798.355,-159.517 834.072,-145.439 859.752,-135.317"/>
<polygon fill="midnightblue" stroke="midnightblue" points="861.374,-138.44 869.394,-131.516 858.807,-131.927 861.374,-138.44"/>
</g>
<!-- Node20 -->
<g id="node20" class="node"><title>Node20</title>
<g id="a_node20"><a xlink:href="../../d4/d4a/_settings_8h.html" target="_top" xlink:title=" ">
<polygon fill="white" stroke="black" points="782.5,-112.5 782.5,-131.5 843.5,-131.5 843.5,-112.5 782.5,-112.5"/>
<text text-anchor="middle" x="813" y="-119.5" font-family="Helvetica,sans-Serif" font-size="10.00">Settings.h</text>
</a>
</g>
</g>
<!-- Node14&#45;&gt;Node20 -->
<g id="edge23" class="edge"><title>Node14&#45;&gt;Node20</title>
<path fill="none" stroke="midnightblue" d="M763.479,-168.324C772.201,-160.341 785.343,-148.313 795.898,-138.653"/>
<polygon fill="midnightblue" stroke="midnightblue" points="798.334,-141.167 803.348,-131.834 793.608,-136.004 798.334,-141.167"/>
</g>
<!-- Node21 -->
<g id="node21" class="node"><title>Node21</title>
<g id="a_node21"><a xlink:href="../../d2/d06/_shaders_8h.html" target="_top" xlink:title=" ">
<polygon fill="white" stroke="black" points="626.5,-112.5 626.5,-131.5 687.5,-131.5 687.5,-112.5 626.5,-112.5"/>
<text text-anchor="middle" x="657" y="-119.5" font-family="Helvetica,sans-Serif" font-size="10.00">Shaders.h</text>
</a>
</g>
</g>
<!-- Node14&#45;&gt;Node21 -->
<g id="edge24" class="edge"><title>Node14&#45;&gt;Node21</title>
<path fill="none" stroke="midnightblue" d="M738.415,-168.324C723.001,-159.743 699.188,-146.486 681.29,-136.522"/>
<polygon fill="midnightblue" stroke="midnightblue" points="682.986,-133.461 672.546,-131.655 679.581,-139.577 682.986,-133.461"/>
</g>
<!-- Node22 -->
<g id="node22" class="node"><title>Node22</title>
<g id="a_node22"><a xlink:title=" ">
<polygon fill="white" stroke="#bfbfbf" points="686,-56.5 686,-75.5 746,-75.5 746,-56.5 686,-56.5"/>
<text text-anchor="middle" x="716" y="-63.5" font-family="Helvetica,sans-Serif" font-size="10.00">GL/glew.h</text>
</a>
</g>
</g>
<!-- Node14&#45;&gt;Node22 -->
<g id="edge27" class="edge"><title>Node14&#45;&gt;Node22</title>
<path fill="none" stroke="midnightblue" d="M751.018,-168.368C744.858,-150.537 730.611,-109.295 722.312,-85.2717"/>
<polygon fill="midnightblue" stroke="midnightblue" points="725.541,-83.9005 718.968,-75.5914 718.925,-86.1862 725.541,-83.9005"/>
</g>
<!-- Node14&#45;&gt;Node23 -->
<g id="edge28" class="edge"><title>Node14&#45;&gt;Node23</title>
<path fill="none" stroke="midnightblue" d="M782.101,-173.573C830.242,-167.387 931.386,-153.016 1015,-132 1042.26,-125.148 1047.45,-117.56 1075,-112 1277.15,-71.2112 1336.25,-107.688 1543.82,-75.9199"/>
<polygon fill="midnightblue" stroke="midnightblue" points="1544.48,-79.3595 1553.81,-74.355 1543.39,-72.4437 1544.48,-79.3595"/>
</g>
<!-- Node24 -->
<g id="node24" class="node"><title>Node24</title>
<g id="a_node24"><a xlink:title=" ">
<polygon fill="white" stroke="#bfbfbf" points="450.5,-112.5 450.5,-131.5 499.5,-131.5 499.5,-112.5 450.5,-112.5"/>
<text text-anchor="middle" x="475" y="-119.5" font-family="Helvetica,sans-Serif" font-size="10.00">fstream</text>
</a>
</g>
</g>
<!-- Node14&#45;&gt;Node24 -->
<g id="edge29" class="edge"><title>Node14&#45;&gt;Node24</title>
<path fill="none" stroke="midnightblue" d="M725.934,-172.569C681.993,-165.475 594.102,-150.661 509.819,-132.038"/>
<polygon fill="midnightblue" stroke="midnightblue" points="510.35,-128.571 499.828,-129.809 508.826,-135.403 510.35,-128.571"/>
</g>
<!-- Node25 -->
<g id="node25" class="node"><title>Node25</title>
<g id="a_node25"><a xlink:title=" ">
<polygon fill="white" stroke="#bfbfbf" points="518,-112.5 518,-131.5 570,-131.5 570,-112.5 518,-112.5"/>
<text text-anchor="middle" x="544" y="-119.5" font-family="Helvetica,sans-Serif" font-size="10.00">sstream</text>
</a>
</g>
</g>
<!-- Node14&#45;&gt;Node25 -->
<g id="edge31" class="edge"><title>Node14&#45;&gt;Node25</title>
<path fill="none" stroke="midnightblue" d="M725.678,-169.717C688.007,-160.03 621.383,-142.898 580.131,-132.291"/>
<polygon fill="midnightblue" stroke="midnightblue" points="580.78,-128.844 570.223,-129.743 579.037,-135.623 580.78,-128.844"/>
</g>
<!-- Node14&#45;&gt;Node26 -->
<g id="edge33" class="edge"><title>Node14&#45;&gt;Node26</title>
<path fill="none" stroke="midnightblue" d="M725.642,-176.142C669.821,-173.758 542.309,-164.858 441,-132 422.846,-126.112 420.215,-120.24 403,-112 378.489,-100.268 350.152,-88.0958 329.253,-79.3738"/>
<polygon fill="midnightblue" stroke="midnightblue" points="330.506,-76.1044 319.928,-75.505 327.824,-82.57 330.506,-76.1044"/>
</g>
<!-- Node16 -->
<g id="node16" class="node"><title>Node16</title>
<g id="a_node16"><a xlink:title=" ">
<polygon fill="white" stroke="#bfbfbf" points="812.5,-0.5 812.5,-19.5 861.5,-19.5 861.5,-0.5 812.5,-0.5"/>
<text text-anchor="middle" x="837" y="-7.5" font-family="Helvetica,sans-Serif" font-size="10.00">stdint.h</text>
</a>
</g>
</g>
<!-- Node15&#45;&gt;Node16 -->
<g id="edge16" class="edge"><title>Node15&#45;&gt;Node16</title>
<path fill="none" stroke="midnightblue" d="M837,-56.083C837,-49.0059 837,-38.8611 837,-29.9865"/>
<polygon fill="midnightblue" stroke="midnightblue" points="840.5,-29.751 837,-19.7511 833.5,-29.7511 840.5,-29.751"/>
</g>
<!-- Node18&#45;&gt;Node6 -->
<g id="edge19" class="edge"><title>Node18&#45;&gt;Node6</title>
<path fill="none" stroke="midnightblue" d="M964,-112.083C964,-105.006 964,-94.8611 964,-85.9865"/>
<polygon fill="midnightblue" stroke="midnightblue" points="967.5,-85.751 964,-75.7511 960.5,-85.7511 967.5,-85.751"/>
</g>
<!-- Node19&#45;&gt;Node6 -->
<g id="edge22" class="edge"><title>Node19&#45;&gt;Node6</title>
<path fill="none" stroke="midnightblue" d="M902.729,-112.324C913.837,-104.107 930.742,-91.6017 943.983,-81.8069"/>
<polygon fill="midnightblue" stroke="midnightblue" points="946.1,-84.5948 952.058,-75.8339 941.937,-78.9671 946.1,-84.5948"/>
</g>
<!-- Node19&#45;&gt;Node15 -->
<g id="edge21" class="edge"><title>Node19&#45;&gt;Node15</title>
<path fill="none" stroke="midnightblue" d="M882.083,-112.083C874.22,-104.22 862.569,-92.5688 853.081,-83.0813"/>
<polygon fill="midnightblue" stroke="midnightblue" points="855.297,-80.3473 845.751,-75.7511 850.347,-85.2971 855.297,-80.3473"/>
</g>
<!-- Node21&#45;&gt;Node8 -->
<g id="edge26" class="edge"><title>Node21&#45;&gt;Node8</title>
<path fill="none" stroke="midnightblue" d="M651.22,-112.083C646.328,-104.534 639.173,-93.4948 633.167,-84.2298"/>
<polygon fill="midnightblue" stroke="midnightblue" points="636.048,-82.239 627.672,-75.7511 630.174,-86.0463 636.048,-82.239"/>
</g>
<!-- Node21&#45;&gt;Node22 -->
<g id="edge25" class="edge"><title>Node21&#45;&gt;Node22</title>
<path fill="none" stroke="midnightblue" d="M666.479,-112.324C675.201,-104.341 688.343,-92.3128 698.898,-82.6529"/>
<polygon fill="midnightblue" stroke="midnightblue" points="701.334,-85.1674 706.348,-75.8339 696.608,-80.0036 701.334,-85.1674"/>
</g>
<!-- Node27&#45;&gt;Node8 -->
<g id="edge41" class="edge"><title>Node27&#45;&gt;Node8</title>
<path fill="none" stroke="midnightblue" d="M1226.38,-168.29C1206.39,-152.093 1163.61,-118.397 1146,-112 1047.75,-76.3116 780.785,-88.4515 677,-76 669.051,-75.0463 660.495,-73.769 652.555,-72.4767"/>
<polygon fill="midnightblue" stroke="midnightblue" points="653.016,-69.0052 642.574,-70.7954 651.853,-75.908 653.016,-69.0052"/>
</g>
<!-- Node27&#45;&gt;Node17 -->
<g id="edge42" class="edge"><title>Node27&#45;&gt;Node17</title>
<path fill="none" stroke="midnightblue" d="M1217.03,-168.444C1196.39,-159.596 1163.94,-145.687 1140.37,-135.586"/>
<polygon fill="midnightblue" stroke="midnightblue" points="1141.44,-132.239 1130.87,-131.516 1138.68,-138.673 1141.44,-132.239"/>
</g>
<!-- Node27&#45;&gt;Node22 -->
<g id="edge36" class="edge"><title>Node27&#45;&gt;Node22</title>
<path fill="none" stroke="midnightblue" d="M1232.39,-168.391C1224.09,-153.865 1205.14,-124.819 1180,-112 1102.66,-72.5609 877.328,-85.1726 791,-76 779.718,-74.8012 767.495,-73.3848 756.257,-72.0347"/>
<polygon fill="midnightblue" stroke="midnightblue" points="756.616,-68.5528 746.267,-70.8217 755.773,-75.5018 756.616,-68.5528"/>
</g>
<!-- Node27&#45;&gt;Node23 -->
<g id="edge39" class="edge"><title>Node27&#45;&gt;Node23</title>
<path fill="none" stroke="midnightblue" d="M1265.64,-176.905C1336.73,-176.083 1518.71,-170.206 1563,-132 1576.19,-120.617 1580.48,-100.626 1581.75,-85.8106"/>
<polygon fill="midnightblue" stroke="midnightblue" points="1585.25,-85.8732 1582.23,-75.7181 1578.26,-85.5403 1585.25,-85.8732"/>
</g>
<!-- Node28 -->
<g id="node28" class="node"><title>Node28</title>
<g id="a_node28"><a xlink:title=" ">
<polygon fill="white" stroke="#bfbfbf" points="1380.5,-112.5 1380.5,-131.5 1455.5,-131.5 1455.5,-112.5 1380.5,-112.5"/>
<text text-anchor="middle" x="1418" y="-119.5" font-family="Helvetica,sans-Serif" font-size="10.00">SDL_image.h</text>
</a>
</g>
</g>
<!-- Node27&#45;&gt;Node28 -->
<g id="edge37" class="edge"><title>Node27&#45;&gt;Node28</title>
<path fill="none" stroke="midnightblue" d="M1265.68,-168.444C1296.53,-159.241 1345.73,-144.562 1379.83,-134.388"/>
<polygon fill="midnightblue" stroke="midnightblue" points="1380.87,-137.729 1389.45,-131.516 1378.87,-131.021 1380.87,-137.729"/>
</g>
<!-- Node29 -->
<g id="node29" class="node"><title>Node29</title>
<g id="a_node29"><a xlink:title=" ">
<polygon fill="white" stroke="#bfbfbf" points="1232.5,-112.5 1232.5,-131.5 1309.5,-131.5 1309.5,-112.5 1232.5,-112.5"/>
<text text-anchor="middle" x="1271" y="-119.5" font-family="Helvetica,sans-Serif" font-size="10.00">SDL_opengl.h</text>
</a>
</g>
</g>
<!-- Node27&#45;&gt;Node29 -->
<g id="edge38" class="edge"><title>Node27&#45;&gt;Node29</title>
<path fill="none" stroke="midnightblue" d="M1242.61,-168.083C1247.37,-160.534 1254.32,-149.495 1260.15,-140.23"/>
<polygon fill="midnightblue" stroke="midnightblue" points="1263.12,-142.078 1265.49,-131.751 1257.2,-138.349 1263.12,-142.078"/>
</g>
<!-- Node30 -->
<g id="node30" class="node"><title>Node30</title>
<g id="a_node30"><a xlink:title=" ">
<polygon fill="white" stroke="#bfbfbf" points="1327.5,-112.5 1327.5,-131.5 1362.5,-131.5 1362.5,-112.5 1327.5,-112.5"/>
<text text-anchor="middle" x="1345" y="-119.5" font-family="Helvetica,sans-Serif" font-size="10.00">map</text>
</a>
</g>
</g>
<!-- Node27&#45;&gt;Node30 -->
<g id="edge40" class="edge"><title>Node27&#45;&gt;Node30</title>
<path fill="none" stroke="midnightblue" d="M1254.35,-168.324C1271.67,-159.664 1298.52,-146.242 1318.5,-136.249"/>
<polygon fill="midnightblue" stroke="midnightblue" points="1320.31,-139.257 1327.69,-131.655 1317.18,-132.996 1320.31,-139.257"/>
</g>
<!-- Node27&#45;&gt;Node31 -->
<g id="edge43" class="edge"><title>Node27&#45;&gt;Node31</title>
<path fill="none" stroke="midnightblue" d="M1265.67,-170.932C1270.45,-169.939 1275.36,-168.931 1280,-168 1343.29,-155.291 1416.37,-141.355 1463.79,-132.411"/>
<polygon fill="midnightblue" stroke="midnightblue" points="1464.62,-135.816 1473.8,-130.525 1463.32,-128.937 1464.62,-135.816"/>
</g>
<!-- Node31&#45;&gt;Node5 -->
<g id="edge44" class="edge"><title>Node31&#45;&gt;Node5</title>
<path fill="none" stroke="midnightblue" d="M1473.88,-113.772C1470.54,-113.171 1467.21,-112.575 1464,-112 1397.1,-100.029 1320.23,-86.3696 1268.94,-77.2707"/>
<polygon fill="midnightblue" stroke="midnightblue" points="1269.49,-73.8141 1259.04,-75.5136 1268.27,-80.7065 1269.49,-73.8141"/>
</g>
<!-- Node31&#45;&gt;Node6 -->
<g id="edge47" class="edge"><title>Node31&#45;&gt;Node6</title>
<path fill="none" stroke="midnightblue" d="M1473.93,-113.466C1470.58,-112.934 1467.23,-112.436 1464,-112 1298.24,-89.6672 1100.03,-75.5299 1011.17,-69.8504"/>
<polygon fill="midnightblue" stroke="midnightblue" points="1011.33,-66.3542 1001.13,-69.2156 1010.89,-73.3402 1011.33,-66.3542"/>
</g>
<!-- Node31&#45;&gt;Node23 -->
<g id="edge45" class="edge"><title>Node31&#45;&gt;Node23</title>
<path fill="none" stroke="midnightblue" d="M1524.93,-112.324C1535.17,-104.185 1550.72,-91.8395 1563,-82.0874"/>
<polygon fill="midnightblue" stroke="midnightblue" points="1565.22,-84.7937 1570.88,-75.8339 1560.87,-79.3119 1565.22,-84.7937"/>
</g>
<!-- Node31&#45;&gt;Node26 -->
<g id="edge48" class="edge"><title>Node31&#45;&gt;Node26</title>
<path fill="none" stroke="midnightblue" d="M1473.95,-113.284C1470.6,-112.792 1467.24,-112.353 1464,-112 1348.58,-99.4447 504.203,-73.2466 330.277,-67.9468"/>
<polygon fill="midnightblue" stroke="midnightblue" points="330.349,-64.4475 320.247,-67.6417 330.136,-71.4442 330.349,-64.4475"/>
</g>
<!-- Node32 -->
<g id="node32" class="node"><title>Node32</title>
<g id="a_node32"><a xlink:title=" ">
<polygon fill="white" stroke="#bfbfbf" points="1420,-56.5 1420,-75.5 1536,-75.5 1536,-56.5 1420,-56.5"/>
<text text-anchor="middle" x="1478" y="-63.5" font-family="Helvetica,sans-Serif" font-size="10.00">glm/gtc/quaternion.hpp</text>
</a>
</g>
</g>
<!-- Node31&#45;&gt;Node32 -->
<g id="edge46" class="edge"><title>Node31&#45;&gt;Node32</title>
<path fill="none" stroke="midnightblue" d="M1508.06,-112.083C1503.02,-104.534 1495.66,-93.4948 1489.49,-84.2298"/>
<polygon fill="midnightblue" stroke="midnightblue" points="1492.29,-82.1301 1483.83,-75.7511 1486.47,-86.0131 1492.29,-82.1301"/>
</g>
</g>
</svg>
        <g id="navigator" transform="translate(0 0)" fill="#404254">
                <rect fill="#f2f5e9" fill-opacity="0.5" stroke="#606060" stroke-width=".5" x="0" y="0" width="60" height="60"/>
                <use id="zoomplus" xlink:href="#zoomPlus" x="17" y="9" onmousedown="handleZoom(evt,'in')"/>
                <use id="zoomminus" xlink:href="#zoomMin" x="42" y="9" onmousedown="handleZoom(evt,'out')"/>
                <use id="reset" xlink:href="#resetDef" x="30" y="36" onmousedown="handleReset()"/>
                <g id="arrowUp" xlink:href="#dirArrow" transform="translate(30 24)" onmousedown="handlePan(0,-1)">
                  <use xlink:href="#rim" fill="#404040">
                        <set attributeName="fill" to="#808080" begin="arrowUp.mouseover" end="arrowUp.mouseout"/>
                  </use>
                  <path fill="none" stroke="white" stroke-width="1.5" d="M0,-3.0v7 M-2.5,-0.5L0,-3.0L2.5,-0.5"/>
                </g>
                <g id="arrowRight" xlink:href="#dirArrow" transform="rotate(90) translate(36 -43)" onmousedown="handlePan(1,0)">
                  <use xlink:href="#rim" fill="#404040">
                        <set attributeName="fill" to="#808080" begin="arrowRight.mouseover" end="arrowRight.mouseout"/>
                  </use>
                  <path fill="none" stroke="white" stroke-width="1.5" d="M0,-3.0v7 M-2.5,-0.5L0,-3.0L2.5,-0.5"/>
                </g>
                <g id="arrowDown" xlink:href="#dirArrow" transform="rotate(180) translate(-30 -48)" onmousedown="handlePan(0,1)">
                  <use xlink:href="#rim" fill="#404040">
                        <set attributeName="fill" to="#808080" begin="arrowDown.mouseover" end="arrowDown.mouseout"/>
                  </use>
                  <path fill="none" stroke="white" stroke-width="1.5" d="M0,-3.0v7 M-2.5,-0.5L0,-3.0L2.5,-0.5"/>
                </g>
                <g id="arrowLeft" xlink:href="#dirArrow" transform="rotate(270) translate(-36 17)" onmousedown="handlePan(-1,0)">
                  <use xlink:href="#rim" fill="#404040">
                        <set attributeName="fill" to="#808080" begin="arrowLeft.mouseover" end="arrowLeft.mouseout"/>
                  </use>
                  <path fill="none" stroke="white" stroke-width="1.5" d="M0,-3.0v7 M-2.5,-0.5L0,-3.0L2.5,-0.5"/>
                </g>
        </g>
        <svg viewBox="0 0 15 15" width="100%" height="30px" preserveAspectRatio="xMaxYMin meet">
         <g id="arrow_out" transform="scale(0.3 0.3)">
          <a xlink:href="_sound_8cpp__incl_org.svg" target="_base">
           <rect id="button" ry="5" rx="5" y="6" x="6" height="38" width="38"
                fill="#f2f5e9" fill-opacity="0.5" stroke="#606060" stroke-width="1.0"/>
           <path id="arrow"
             d="M 11.500037,31.436501 C 11.940474,20.09759 22.043105,11.32322 32.158766,21.979434 L 37.068811,17.246167 C 37.068811,17.246167 37.088388,32 37.088388,32 L 22.160133,31.978069 C 22.160133,31.978069 26.997745,27.140456 26.997745,27.140456 C 18.528582,18.264221 13.291696,25.230495 11.500037,31.436501 z"
             style="fill:#404040;"/>
          </a>
         </g>
        </svg>
</svg>
