<?xml version="1.0" encoding="UTF-8" standalone="no"?>
<!DOCTYPE svg PUBLIC "-//W3C//DTD SVG 1.1//EN"
 "http://www.w3.org/Graphics/SVG/1.1/DTD/svg11.dtd">
<!-- Generated by graphviz version 2.38.0 (20140413.2041)
 -->
<!-- Title: Time::getMSPF Pages: 1 -->
<svg width="327pt" height="78pt"
 viewBox="0.00 0.00 327.00 77.50" xmlns="http://www.w3.org/2000/svg" xmlns:xlink="http://www.w3.org/1999/xlink">
<g id="graph0" class="graph" transform="scale(1 1) rotate(0) translate(4 73.5)">
<title>Time::getMSPF</title>
<polygon fill="white" stroke="none" points="-4,4 -4,-73.5 323,-73.5 323,4 -4,4"/>
<!-- Node1 -->
<g id="node1" class="node"><title>Node1</title>
<g id="a_node1"><a xlink:title=" ">
<polygon fill="#bfbfbf" stroke="black" points="234,-22.5 234,-41.5 319,-41.5 319,-22.5 234,-22.5"/>
<text text-anchor="middle" x="276.5" y="-29.5" font-family="Helvetica,sans-Serif" font-size="10.00">Time::getMSPF</text>
</a>
</g>
</g>
<!-- Node2 -->
<g id="node2" class="node"><title>Node2</title>
<g id="a_node2"><a xlink:href="../../d3/d85/class_display_statistics_system.html#ab92f45efc6e36221000ff94041020a04" target="_top" xlink:title=" ">
<polygon fill="white" stroke="black" points="74,-39 74,-69 198,-69 198,-39 74,-39"/>
<text text-anchor="start" x="82" y="-57" font-family="Helvetica,sans-Serif" font-size="10.00">DisplayStatisticsSystem</text>
<text text-anchor="middle" x="136" y="-46" font-family="Helvetica,sans-Serif" font-size="10.00">::fixedUpdate</text>
</a>
</g>
</g>
<!-- Node1&#45;&gt;Node2 -->
<g id="edge1" class="edge"><title>Node1&#45;&gt;Node2</title>
<path fill="none" stroke="midnightblue" d="M223.947,-40.1889C215.57,-41.5196 206.822,-42.9091 198.241,-44.2722"/>
<polygon fill="midnightblue" stroke="midnightblue" points="224.618,-43.6263 233.945,-38.6007 223.52,-36.7129 224.618,-43.6263"/>
</g>
<!-- Node3 -->
<g id="node3" class="node"><title>Node3</title>
<g id="a_node3"><a xlink:href="../../de/d6b/class_application.html#a68965449404743bf1add056784d6cf81" target="_top" xlink:title=" ">
<polygon fill="white" stroke="black" points="94,-0.5 94,-19.5 178,-19.5 178,-0.5 94,-0.5"/>
<text text-anchor="middle" x="136" y="-7.5" font-family="Helvetica,sans-Serif" font-size="10.00">Application::run</text>
</a>
</g>
</g>
<!-- Node1&#45;&gt;Node3 -->
<g id="edge2" class="edge"><title>Node1&#45;&gt;Node3</title>
<path fill="none" stroke="midnightblue" d="M223.729,-23.7765C208.644,-21.3803 192.375,-18.796 178.048,-16.5203"/>
<polygon fill="midnightblue" stroke="midnightblue" points="223.52,-27.2871 233.945,-25.3993 224.618,-20.3738 223.52,-27.2871"/>
</g>
<!-- Node4 -->
<g id="node4" class="node"><title>Node4</title>
<g id="a_node4"><a xlink:href="../../d5/d12/_main_8cpp.html#a0ddf1224851353fc92bfbff6f499fa97" target="_top" xlink:title=" ">
<polygon fill="white" stroke="black" points="0,-0.5 0,-19.5 38,-19.5 38,-0.5 0,-0.5"/>
<text text-anchor="middle" x="19" y="-7.5" font-family="Helvetica,sans-Serif" font-size="10.00">main</text>
</a>
</g>
</g>
<!-- Node3&#45;&gt;Node4 -->
<g id="edge3" class="edge"><title>Node3&#45;&gt;Node4</title>
<path fill="none" stroke="midnightblue" d="M83.7869,-10C67.4755,-10 50.4809,-10 38.1388,-10"/>
<polygon fill="midnightblue" stroke="midnightblue" points="83.8072,-13.5001 93.8072,-10 83.8071,-6.5001 83.8072,-13.5001"/>
</g>
</g>
</svg>
