<?xml version="1.0" encoding="UTF-8" standalone="no"?>
<!DOCTYPE svg PUBLIC "-//W3C//DTD SVG 1.1//EN"
 "http://www.w3.org/Graphics/SVG/1.1/DTD/svg11.dtd">
<!-- Generated by graphviz version 2.38.0 (20140413.2041)
 -->
<!-- Title: _3DM::AnimatedModel::amountOfMeshes Pages: 1 -->
<svg width="603pt" height="165pt"
 viewBox="0.00 0.00 603.00 164.50" xmlns="http://www.w3.org/2000/svg" xmlns:xlink="http://www.w3.org/1999/xlink">
<g id="graph0" class="graph" transform="scale(1 1) rotate(0) translate(4 160.5)">
<title>_3DM::AnimatedModel::amountOfMeshes</title>
<polygon fill="white" stroke="none" points="-4,4 -4,-160.5 599,-160.5 599,4 -4,4"/>
<!-- Node1 -->
<g id="node1" class="node"><title>Node1</title>
<g id="a_node1"><a xlink:title=" ">
<polygon fill="#bfbfbf" stroke="black" points="479,-55 479,-85 595,-85 595,-55 479,-55"/>
<text text-anchor="start" x="487" y="-73" font-family="Helvetica,sans-Serif" font-size="10.00">_3DM::AnimatedModel</text>
<text text-anchor="middle" x="537" y="-62" font-family="Helvetica,sans-Serif" font-size="10.00">::amountOfMeshes</text>
</a>
</g>
</g>
<!-- Node2 -->
<g id="node2" class="node"><title>Node2</title>
<g id="a_node2"><a xlink:href="../../d4/daa/class_collision_mesh.html#a78af0888b7cc86b1466b3aa733869db3" target="_top" xlink:title=" ">
<polygon fill="white" stroke="black" points="299,-126 299,-156 443,-156 443,-126 299,-126"/>
<text text-anchor="start" x="307" y="-144" font-family="Helvetica,sans-Serif" font-size="10.00">CollisionMesh::createTriangle</text>
<text text-anchor="middle" x="371" y="-133" font-family="Helvetica,sans-Serif" font-size="10.00">MeshCollider</text>
</a>
</g>
</g>
<!-- Node1&#45;&gt;Node2 -->
<g id="edge1" class="edge"><title>Node1&#45;&gt;Node2</title>
<path fill="none" stroke="midnightblue" d="M499.791,-89.806C482.812,-98.7003 462.145,-108.974 443,-117 435.56,-120.119 427.559,-123.135 419.706,-125.915"/>
<polygon fill="midnightblue" stroke="midnightblue" points="501.611,-92.8026 508.811,-85.0297 498.335,-86.6163 501.611,-92.8026"/>
</g>
<!-- Node4 -->
<g id="node4" class="node"><title>Node4</title>
<g id="a_node4"><a xlink:href="../../d4/daa/class_collision_mesh.html#a36fa3a5f4028c01af69859a813c20a41" target="_top" xlink:title=" ">
<polygon fill="white" stroke="black" points="299,-77 299,-107 443,-107 443,-77 299,-77"/>
<text text-anchor="start" x="307" y="-95" font-family="Helvetica,sans-Serif" font-size="10.00">CollisionMesh::createTriangle</text>
<text text-anchor="middle" x="371" y="-84" font-family="Helvetica,sans-Serif" font-size="10.00">ModelCollider</text>
</a>
</g>
</g>
<!-- Node1&#45;&gt;Node4 -->
<g id="edge3" class="edge"><title>Node1&#45;&gt;Node4</title>
<path fill="none" stroke="midnightblue" d="M468.555,-79.0474C460.182,-80.1707 451.6,-81.322 443.173,-82.4525"/>
<polygon fill="midnightblue" stroke="midnightblue" points="469.195,-82.4931 478.641,-77.6945 468.264,-75.5552 469.195,-82.4931"/>
</g>
<!-- Node7 -->
<g id="node7" class="node"><title>Node7</title>
<g id="a_node7"><a xlink:href="../../db/dd3/class_player_test_object.html#aac17d3bdbe3a909a7a873551fe90b6bb" target="_top" xlink:title=" ">
<polygon fill="white" stroke="black" points="304.5,-38.5 304.5,-57.5 437.5,-57.5 437.5,-38.5 304.5,-38.5"/>
<text text-anchor="middle" x="371" y="-45.5" font-family="Helvetica,sans-Serif" font-size="10.00">PlayerTestObject::initialize</text>
</a>
</g>
</g>
<!-- Node1&#45;&gt;Node7 -->
<g id="edge6" class="edge"><title>Node1&#45;&gt;Node7</title>
<path fill="none" stroke="midnightblue" d="M468.582,-60.9561C458.396,-59.5897 447.899,-58.1816 437.749,-56.82"/>
<polygon fill="midnightblue" stroke="midnightblue" points="468.264,-64.4448 478.641,-62.3055 469.195,-57.5069 468.264,-64.4448"/>
</g>
<!-- Node8 -->
<g id="node8" class="node"><title>Node8</title>
<g id="a_node8"><a xlink:href="../../da/d1b/class_enemy_test_object.html#a360c36ab9698fba8c384a6aa7816a7a2" target="_top" xlink:title=" ">
<polygon fill="white" stroke="black" points="303,-0.5 303,-19.5 439,-19.5 439,-0.5 303,-0.5"/>
<text text-anchor="middle" x="371" y="-7.5" font-family="Helvetica,sans-Serif" font-size="10.00">EnemyTestObject::initialize</text>
</a>
</g>
</g>
<!-- Node1&#45;&gt;Node8 -->
<g id="edge7" class="edge"><title>Node1&#45;&gt;Node8</title>
<path fill="none" stroke="midnightblue" d="M495.877,-50.6956C479.679,-43.33 460.671,-35.2181 443,-29 433.13,-25.5269 422.298,-22.3293 412.134,-19.5871"/>
<polygon fill="midnightblue" stroke="midnightblue" points="494.511,-53.9198 505.058,-54.9261 497.441,-47.5622 494.511,-53.9198"/>
</g>
<!-- Node3 -->
<g id="node3" class="node"><title>Node3</title>
<g id="a_node3"><a xlink:href="../../d4/daa/class_collision_mesh.html#a0c0a59bee988afa35919739ea8f1ba6b" target="_top" xlink:title=" ">
<polygon fill="white" stroke="black" points="144,-126 144,-156 263,-156 263,-126 144,-126"/>
<text text-anchor="start" x="152" y="-144" font-family="Helvetica,sans-Serif" font-size="10.00">CollisionMesh::initialize</text>
<text text-anchor="middle" x="203.5" y="-133" font-family="Helvetica,sans-Serif" font-size="10.00">MeshShape</text>
</a>
</g>
</g>
<!-- Node2&#45;&gt;Node3 -->
<g id="edge2" class="edge"><title>Node2&#45;&gt;Node3</title>
<path fill="none" stroke="midnightblue" d="M288.744,-141C280.106,-141 271.446,-141 263.14,-141"/>
<polygon fill="midnightblue" stroke="midnightblue" points="288.853,-144.5 298.853,-141 288.853,-137.5 288.853,-144.5"/>
</g>
<!-- Node5 -->
<g id="node5" class="node"><title>Node5</title>
<g id="a_node5"><a xlink:href="../../d4/daa/class_collision_mesh.html#a15e24ea6cec483c05c6d2644f235e408" target="_top" xlink:title=" ">
<polygon fill="white" stroke="black" points="144,-77 144,-107 263,-107 263,-77 144,-77"/>
<text text-anchor="start" x="152" y="-95" font-family="Helvetica,sans-Serif" font-size="10.00">CollisionMesh::initialize</text>
<text text-anchor="middle" x="203.5" y="-84" font-family="Helvetica,sans-Serif" font-size="10.00">ModelShape</text>
</a>
</g>
</g>
<!-- Node4&#45;&gt;Node5 -->
<g id="edge4" class="edge"><title>Node4&#45;&gt;Node5</title>
<path fill="none" stroke="midnightblue" d="M288.744,-92C280.106,-92 271.446,-92 263.14,-92"/>
<polygon fill="midnightblue" stroke="midnightblue" points="288.853,-95.5001 298.853,-92 288.853,-88.5001 288.853,-95.5001"/>
</g>
<!-- Node6 -->
<g id="node6" class="node"><title>Node6</title>
<g id="a_node6"><a xlink:href="../../da/d3c/class_floor_object.html#a5f324e5913659265a3ac615c8888c524" target="_top" xlink:title=" ">
<polygon fill="white" stroke="black" points="0,-82.5 0,-101.5 108,-101.5 108,-82.5 0,-82.5"/>
<text text-anchor="middle" x="54" y="-89.5" font-family="Helvetica,sans-Serif" font-size="10.00">FloorObject::initialize</text>
</a>
</g>
</g>
<!-- Node5&#45;&gt;Node6 -->
<g id="edge5" class="edge"><title>Node5&#45;&gt;Node6</title>
<path fill="none" stroke="midnightblue" d="M133.506,-92C125.024,-92 116.458,-92 108.259,-92"/>
<polygon fill="midnightblue" stroke="midnightblue" points="133.78,-95.5001 143.78,-92 133.78,-88.5001 133.78,-95.5001"/>
</g>
</g>
</svg>
