<?xml version="1.0" encoding="UTF-8" standalone="no"?>
<!DOCTYPE svg PUBLIC "-//W3C//DTD SVG 1.1//EN"
 "http://www.w3.org/Graphics/SVG/1.1/DTD/svg11.dtd">
<!-- Generated by graphviz version 2.38.0 (20140413.2041)
 -->
<!-- Title: _3DM::AnimatedModel::getBoneTransformationWithoutOffset Pages: 1 -->
<svg width="971pt" height="50pt"
 viewBox="0.00 0.00 971.00 50.00" xmlns="http://www.w3.org/2000/svg" xmlns:xlink="http://www.w3.org/1999/xlink">
<g id="graph0" class="graph" transform="scale(1 1) rotate(0) translate(4 46)">
<title>_3DM::AnimatedModel::getBoneTransformationWithoutOffset</title>
<polygon fill="white" stroke="none" points="-4,4 -4,-46 967,-46 967,4 -4,4"/>
<!-- Node1 -->
<g id="node1" class="node"><title>Node1</title>
<g id="a_node1"><a xlink:title=" ">
<polygon fill="#bfbfbf" stroke="black" points="807,-0.5 807,-41.5 963,-41.5 963,-0.5 807,-0.5"/>
<text text-anchor="start" x="815" y="-29.5" font-family="Helvetica,sans-Serif" font-size="10.00">_3DM::AnimatedModel</text>
<text text-anchor="start" x="815" y="-18.5" font-family="Helvetica,sans-Serif" font-size="10.00">::getBoneTransformationWithout</text>
<text text-anchor="middle" x="885" y="-7.5" font-family="Helvetica,sans-Serif" font-size="10.00">Offset</text>
</a>
</g>
</g>
<!-- Node2 -->
<g id="node2" class="node"><title>Node2</title>
<g id="a_node2"><a xlink:href="../../df/dd7/class_bone_collision_mesh_system.html#ae33b42b3badf9f280f147b1d1290b192" target="_top" xlink:title=" ">
<polygon fill="white" stroke="black" points="637,-6 637,-36 771,-36 771,-6 637,-6"/>
<text text-anchor="start" x="645" y="-24" font-family="Helvetica,sans-Serif" font-size="10.00">BoneCollisionMeshSystem</text>
<text text-anchor="middle" x="704" y="-13" font-family="Helvetica,sans-Serif" font-size="10.00">::fixedUpdate</text>
</a>
</g>
</g>
<!-- Node1&#45;&gt;Node2 -->
<g id="edge1" class="edge"><title>Node1&#45;&gt;Node2</title>
<path fill="none" stroke="midnightblue" d="M796.679,-21C788.039,-21 779.372,-21 771.001,-21"/>
<polygon fill="midnightblue" stroke="midnightblue" points="796.789,-24.5001 806.789,-21 796.789,-17.5001 796.789,-24.5001"/>
</g>
<!-- Node3 -->
<g id="node3" class="node"><title>Node3</title>
<g id="a_node3"><a xlink:href="../../d3/de8/class_fixed_updating_system.html#a3ed508813ba850baed19e86ef0429028" target="_top" xlink:title=" ">
<polygon fill="white" stroke="black" points="488,-6 488,-36 601,-36 601,-6 488,-6"/>
<text text-anchor="start" x="496" y="-24" font-family="Helvetica,sans-Serif" font-size="10.00">FixedUpdatingSystem</text>
<text text-anchor="middle" x="544.5" y="-13" font-family="Helvetica,sans-Serif" font-size="10.00">::fixedUpdate</text>
</a>
</g>
</g>
<!-- Node2&#45;&gt;Node3 -->
<g id="edge2" class="edge"><title>Node2&#45;&gt;Node3</title>
<path fill="none" stroke="midnightblue" d="M626.387,-21C617.928,-21 609.436,-21 601.302,-21"/>
<polygon fill="midnightblue" stroke="midnightblue" points="626.662,-24.5001 636.662,-21 626.662,-17.5001 626.662,-24.5001"/>
</g>
<!-- Node4 -->
<g id="node4" class="node"><title>Node4</title>
<g id="a_node4"><a xlink:href="../../dd/d1f/class_game.html#a157e87f9dc147a5842ee6bdc06c95c17" target="_top" xlink:title=" ">
<polygon fill="white" stroke="black" points="352,-11.5 352,-30.5 452,-30.5 452,-11.5 352,-11.5"/>
<text text-anchor="middle" x="402" y="-18.5" font-family="Helvetica,sans-Serif" font-size="10.00">Game::fixedUpdate</text>
</a>
</g>
</g>
<!-- Node3&#45;&gt;Node4 -->
<g id="edge3" class="edge"><title>Node3&#45;&gt;Node4</title>
<path fill="none" stroke="midnightblue" d="M477.898,-21C469.253,-21 460.514,-21 452.208,-21"/>
<polygon fill="midnightblue" stroke="midnightblue" points="477.971,-24.5001 487.971,-21 477.971,-17.5001 477.971,-24.5001"/>
</g>
<!-- Node5 -->
<g id="node5" class="node"><title>Node5</title>
<g id="a_node5"><a xlink:href="../../de/d6b/class_application.html#a95c827cb5cf08bd0c3cc7b07ed4b4249" target="_top" xlink:title=" ">
<polygon fill="white" stroke="black" points="194,-11.5 194,-30.5 316,-30.5 316,-11.5 194,-11.5"/>
<text text-anchor="middle" x="255" y="-18.5" font-family="Helvetica,sans-Serif" font-size="10.00">Application::fixedUpdate</text>
</a>
</g>
</g>
<!-- Node4&#45;&gt;Node5 -->
<g id="edge4" class="edge"><title>Node4&#45;&gt;Node5</title>
<path fill="none" stroke="midnightblue" d="M341.747,-21C333.287,-21 324.578,-21 316.102,-21"/>
<polygon fill="midnightblue" stroke="midnightblue" points="341.91,-24.5001 351.91,-21 341.91,-17.5001 341.91,-24.5001"/>
</g>
<!-- Node6 -->
<g id="node6" class="node"><title>Node6</title>
<g id="a_node6"><a xlink:href="../../de/d6b/class_application.html#a68965449404743bf1add056784d6cf81" target="_top" xlink:title=" ">
<polygon fill="white" stroke="black" points="74,-11.5 74,-30.5 158,-30.5 158,-11.5 74,-11.5"/>
<text text-anchor="middle" x="116" y="-18.5" font-family="Helvetica,sans-Serif" font-size="10.00">Application::run</text>
</a>
</g>
</g>
<!-- Node5&#45;&gt;Node6 -->
<g id="edge5" class="edge"><title>Node5&#45;&gt;Node6</title>
<path fill="none" stroke="midnightblue" d="M183.669,-21C174.931,-21 166.234,-21 158.145,-21"/>
<polygon fill="midnightblue" stroke="midnightblue" points="183.91,-24.5001 193.91,-21 183.91,-17.5001 183.91,-24.5001"/>
</g>
<!-- Node7 -->
<g id="node7" class="node"><title>Node7</title>
<g id="a_node7"><a xlink:href="../../d5/d12/_main_8cpp.html#a0ddf1224851353fc92bfbff6f499fa97" target="_top" xlink:title=" ">
<polygon fill="white" stroke="black" points="0,-11.5 0,-30.5 38,-30.5 38,-11.5 0,-11.5"/>
<text text-anchor="middle" x="19" y="-18.5" font-family="Helvetica,sans-Serif" font-size="10.00">main</text>
</a>
</g>
</g>
<!-- Node6&#45;&gt;Node7 -->
<g id="edge6" class="edge"><title>Node6&#45;&gt;Node7</title>
<path fill="none" stroke="midnightblue" d="M63.6206,-21C54.5384,-21 45.6466,-21 38.2853,-21"/>
<polygon fill="midnightblue" stroke="midnightblue" points="63.8842,-24.5001 73.8841,-21 63.8841,-17.5001 63.8842,-24.5001"/>
</g>
</g>
</svg>
