<?xml version="1.0" encoding="UTF-8" standalone="no"?>
<!DOCTYPE svg PUBLIC "-//W3C//DTD SVG 1.1//EN"
 "http://www.w3.org/Graphics/SVG/1.1/DTD/svg11.dtd">
<!-- Generated by graphviz version 2.38.0 (20140413.2041)
 -->
<!-- Title: _3DM::AnimatedModel::AnimatedModel Pages: 1 -->
<svg width="560pt" height="66pt"
 viewBox="0.00 0.00 560.00 66.00" xmlns="http://www.w3.org/2000/svg" xmlns:xlink="http://www.w3.org/1999/xlink">
<g id="graph0" class="graph" transform="scale(1 1) rotate(0) translate(4 62)">
<title>_3DM::AnimatedModel::AnimatedModel</title>
<polygon fill="white" stroke="none" points="-4,4 -4,-62 556,-62 556,4 -4,4"/>
<!-- Node1 -->
<g id="node1" class="node"><title>Node1</title>
<g id="a_node1"><a xlink:title=" ">
<polygon fill="#bfbfbf" stroke="black" points="0,-14 0,-44 116,-44 116,-14 0,-14"/>
<text text-anchor="start" x="8" y="-32" font-family="Helvetica,sans-Serif" font-size="10.00">_3DM::AnimatedModel</text>
<text text-anchor="middle" x="58" y="-21" font-family="Helvetica,sans-Serif" font-size="10.00">::AnimatedModel</text>
</a>
</g>
</g>
<!-- Node2 -->
<g id="node2" class="node"><title>Node2</title>
<g id="a_node2"><a xlink:href="../../d5/d7a/class__3_d_m_1_1__3_d_m___i_o.html#a9edfaa3d4fa600321398271015660bbe" target="_top" xlink:title=" ">
<polygon fill="white" stroke="black" points="152,-14 152,-44 307,-44 307,-14 152,-14"/>
<text text-anchor="start" x="160" y="-32" font-family="Helvetica,sans-Serif" font-size="10.00">_3DM::_3DM_IO::readAnimated</text>
<text text-anchor="middle" x="229.5" y="-21" font-family="Helvetica,sans-Serif" font-size="10.00">Model</text>
</a>
</g>
</g>
<!-- Node1&#45;&gt;Node2 -->
<g id="edge1" class="edge"><title>Node1&#45;&gt;Node2</title>
<path fill="none" stroke="midnightblue" d="M116.385,-29C124.6,-29 133.198,-29 141.824,-29"/>
<polygon fill="midnightblue" stroke="midnightblue" points="141.94,-32.5001 151.94,-29 141.94,-25.5001 141.94,-32.5001"/>
</g>
<!-- Node3 -->
<g id="node3" class="node"><title>Node3</title>
<g id="a_node3"><a xlink:href="../../d5/d71/namespace_s_l.html#acd198192c2f2a82dda867d588a4d60a1" target="_top" xlink:title=" ">
<polygon fill="white" stroke="black" points="343,-38.5 343,-57.5 429,-57.5 429,-38.5 343,-38.5"/>
<text text-anchor="middle" x="386" y="-45.5" font-family="Helvetica,sans-Serif" font-size="10.00">SL::isBigEndian</text>
</a>
</g>
</g>
<!-- Node2&#45;&gt;Node3 -->
<g id="edge2" class="edge"><title>Node2&#45;&gt;Node3</title>
<path fill="none" stroke="midnightblue" d="M307.297,-38.4443C315.924,-39.5052 324.558,-40.567 332.769,-41.5768"/>
<polygon fill="midnightblue" stroke="midnightblue" points="332.559,-45.0772 342.911,-42.8241 333.413,-38.1296 332.559,-45.0772"/>
</g>
<!-- Node4 -->
<g id="node4" class="node"><title>Node4</title>
<g id="a_node4"><a xlink:href="../../d5/d71/namespace_s_l.html#addb3c1f99efa9625ddde4137a659306a" target="_top" xlink:title=" ">
<polygon fill="white" stroke="black" points="346.5,-0.5 346.5,-19.5 425.5,-19.5 425.5,-0.5 346.5,-0.5"/>
<text text-anchor="middle" x="386" y="-7.5" font-family="Helvetica,sans-Serif" font-size="10.00">SL::readBytes</text>
</a>
</g>
</g>
<!-- Node2&#45;&gt;Node4 -->
<g id="edge3" class="edge"><title>Node2&#45;&gt;Node4</title>
<path fill="none" stroke="midnightblue" d="M307.297,-19.5557C317.092,-18.3512 326.896,-17.1455 336.08,-16.0161"/>
<polygon fill="midnightblue" stroke="midnightblue" points="336.654,-19.4719 346.152,-14.7774 335.799,-12.5243 336.654,-19.4719"/>
</g>
<!-- Node5 -->
<g id="node5" class="node"><title>Node5</title>
<g id="a_node5"><a xlink:href="../../d5/d71/namespace_s_l.html#aebfdfe445c38bfb5eed787b16283cf5e" target="_top" xlink:title=" ">
<polygon fill="white" stroke="black" points="465,-0.5 465,-19.5 552,-19.5 552,-0.5 465,-0.5"/>
<text text-anchor="middle" x="508.5" y="-7.5" font-family="Helvetica,sans-Serif" font-size="10.00">SL::swapEndian</text>
</a>
</g>
</g>
<!-- Node4&#45;&gt;Node5 -->
<g id="edge4" class="edge"><title>Node4&#45;&gt;Node5</title>
<path fill="none" stroke="midnightblue" d="M425.79,-10C434.885,-10 444.73,-10 454.332,-10"/>
<polygon fill="midnightblue" stroke="midnightblue" points="454.608,-13.5001 464.608,-10 454.608,-6.5001 454.608,-13.5001"/>
</g>
</g>
</svg>
