<?xml version="1.0" encoding="UTF-8" standalone="no"?>
<!DOCTYPE svg PUBLIC "-//W3C//DTD SVG 1.1//EN"
 "http://www.w3.org/Graphics/SVG/1.1/DTD/svg11.dtd">
<!-- Generated by graphviz version 2.38.0 (20140413.2041)
 -->
<!-- Title: _3DM::AnimatedModel::initializeTexture Pages: 1 -->
<svg width="986pt" height="181pt"
 viewBox="0.00 0.00 986.00 180.50" xmlns="http://www.w3.org/2000/svg" xmlns:xlink="http://www.w3.org/1999/xlink">
<g id="graph0" class="graph" transform="scale(1 1) rotate(0) translate(4 176.5)">
<title>_3DM::AnimatedModel::initializeTexture</title>
<polygon fill="white" stroke="none" points="-4,4 -4,-176.5 982,-176.5 982,4 -4,4"/>
<!-- Node1 -->
<g id="node1" class="node"><title>Node1</title>
<g id="a_node1"><a xlink:title=" ">
<polygon fill="#bfbfbf" stroke="black" points="0,-52 0,-82 116,-82 116,-52 0,-52"/>
<text text-anchor="start" x="8" y="-70" font-family="Helvetica,sans-Serif" font-size="10.00">_3DM::AnimatedModel</text>
<text text-anchor="middle" x="58" y="-59" font-family="Helvetica,sans-Serif" font-size="10.00">::initializeTexture</text>
</a>
</g>
</g>
<!-- Node2 -->
<g id="node2" class="node"><title>Node2</title>
<g id="a_node2"><a xlink:href="../../d2/d23/class_locator.html#a310ebd51e96b6341e25471b651afaf34" target="_top" xlink:title=" ">
<polygon fill="white" stroke="black" points="152,-115 152,-145 297,-145 297,-115 152,-115"/>
<text text-anchor="start" x="160" y="-133" font-family="Helvetica,sans-Serif" font-size="10.00">Locator&lt; TextureHandler,</text>
<text text-anchor="middle" x="224.5" y="-122" font-family="Helvetica,sans-Serif" font-size="10.00"> TextureHandler &gt;::getService</text>
</a>
</g>
</g>
<!-- Node1&#45;&gt;Node2 -->
<g id="edge1" class="edge"><title>Node1&#45;&gt;Node2</title>
<path fill="none" stroke="midnightblue" d="M94.6013,-82.0491C111.851,-89.2119 132.917,-97.7705 152,-105 157.593,-107.119 163.456,-109.274 169.316,-111.386"/>
<polygon fill="midnightblue" stroke="midnightblue" points="168.533,-114.822 179.127,-114.884 170.884,-108.229 168.533,-114.822"/>
</g>
<!-- Node3 -->
<g id="node3" class="node"><title>Node3</title>
<g id="a_node3"><a xlink:href="../../d7/d13/class_texture_handler.html#a85fb7e3ae43c7a58a288e7285b9e58bf" target="_top" xlink:title=" ">
<polygon fill="white" stroke="black" points="157.5,-76.5 157.5,-95.5 291.5,-95.5 291.5,-76.5 157.5,-76.5"/>
<text text-anchor="middle" x="224.5" y="-83.5" font-family="Helvetica,sans-Serif" font-size="10.00">TextureHandler::getTexture</text>
</a>
</g>
</g>
<!-- Node1&#45;&gt;Node3 -->
<g id="edge2" class="edge"><title>Node1&#45;&gt;Node3</title>
<path fill="none" stroke="midnightblue" d="M116.072,-73.592C126.199,-74.7616 136.889,-75.9963 147.442,-77.2152"/>
<polygon fill="midnightblue" stroke="midnightblue" points="147.159,-80.7057 157.495,-78.3763 147.963,-73.752 147.159,-80.7057"/>
</g>
<!-- Node11 -->
<g id="node11" class="node"><title>Node11</title>
<g id="a_node11"><a xlink:href="../../d2/d7f/class_texture.html#a922a73acbaee522dd96d971b630da0fa" target="_top" xlink:title=" ">
<polygon fill="white" stroke="black" points="164,-38.5 164,-57.5 285,-57.5 285,-38.5 164,-38.5"/>
<text text-anchor="middle" x="224.5" y="-45.5" font-family="Helvetica,sans-Serif" font-size="10.00">Texture::getTextureData</text>
</a>
</g>
</g>
<!-- Node1&#45;&gt;Node11 -->
<g id="edge10" class="edge"><title>Node1&#45;&gt;Node11</title>
<path fill="none" stroke="midnightblue" d="M116.072,-60.408C128.227,-59.0041 141.194,-57.5065 153.762,-56.0549"/>
<polygon fill="midnightblue" stroke="midnightblue" points="154.2,-59.5277 163.732,-54.9033 153.396,-52.5739 154.2,-59.5277"/>
</g>
<!-- Node12 -->
<g id="node12" class="node"><title>Node12</title>
<g id="a_node12"><a xlink:href="../../d7/da2/namespace_shaders.html#a25a80e81a8051ed31ecab4ed167b0be8" target="_top" xlink:title=" ">
<polygon fill="white" stroke="black" points="159,-0.5 159,-19.5 290,-19.5 290,-0.5 159,-0.5"/>
<text text-anchor="middle" x="224.5" y="-7.5" font-family="Helvetica,sans-Serif" font-size="10.00">Shaders::getUniformName</text>
</a>
</g>
</g>
<!-- Node1&#45;&gt;Node12 -->
<g id="edge11" class="edge"><title>Node1&#45;&gt;Node12</title>
<path fill="none" stroke="midnightblue" d="M93.0537,-51.8596C110.483,-44.4255 132.158,-35.6596 152,-29 159.112,-26.6131 166.7,-24.3263 174.178,-22.2182"/>
<polygon fill="midnightblue" stroke="midnightblue" points="175.174,-25.5743 183.894,-19.5565 173.325,-18.823 175.174,-25.5743"/>
</g>
<!-- Node4 -->
<g id="node4" class="node"><title>Node4</title>
<g id="a_node4"><a xlink:href="../../d7/d13/class_texture_handler.html#a7b2135a42ef0d0d83fcfe8cf8d61828e" target="_top" xlink:title=" ">
<polygon fill="white" stroke="black" points="333,-98.5 333,-117.5 488,-117.5 488,-98.5 333,-98.5"/>
<text text-anchor="middle" x="410.5" y="-105.5" font-family="Helvetica,sans-Serif" font-size="10.00">TextureHandler::addNewTexture</text>
</a>
</g>
</g>
<!-- Node3&#45;&gt;Node4 -->
<g id="edge3" class="edge"><title>Node3&#45;&gt;Node4</title>
<path fill="none" stroke="midnightblue" d="M291.668,-93.9114C301.818,-95.125 312.425,-96.3932 322.936,-97.65"/>
<polygon fill="midnightblue" stroke="midnightblue" points="322.622,-101.137 332.967,-98.8493 323.453,-94.1868 322.622,-101.137"/>
</g>
<!-- Node10 -->
<g id="node10" class="node"><title>Node10</title>
<g id="a_node10"><a xlink:href="../../d7/d13/class_texture_handler.html#a3a76dad8ed61e8776536fd2cb59bab10" target="_top" xlink:title=" ">
<polygon fill="white" stroke="black" points="338,-49 338,-79 483,-79 483,-49 338,-49"/>
<text text-anchor="start" x="346" y="-67" font-family="Helvetica,sans-Serif" font-size="10.00">TextureHandler::binarySearch</text>
<text text-anchor="middle" x="410.5" y="-56" font-family="Helvetica,sans-Serif" font-size="10.00">Textures</text>
</a>
</g>
</g>
<!-- Node3&#45;&gt;Node10 -->
<g id="edge9" class="edge"><title>Node3&#45;&gt;Node10</title>
<path fill="none" stroke="midnightblue" d="M291.668,-78.0886C303.34,-76.6931 315.614,-75.2255 327.654,-73.7859"/>
<polygon fill="midnightblue" stroke="midnightblue" points="328.181,-77.248 337.694,-72.5855 327.35,-70.2975 328.181,-77.248"/>
</g>
<!-- Node5 -->
<g id="node5" class="node"><title>Node5</title>
<g id="a_node5"><a xlink:href="../../d7/d13/class_texture_handler.html#a11178629a8ef637496caabd5ddbae66d" target="_top" xlink:title=" ">
<polygon fill="white" stroke="black" points="524,-98.5 524,-117.5 668,-117.5 668,-98.5 524,-98.5"/>
<text text-anchor="middle" x="596" y="-105.5" font-family="Helvetica,sans-Serif" font-size="10.00">TextureHandler::parseTexture</text>
</a>
</g>
</g>
<!-- Node4&#45;&gt;Node5 -->
<g id="edge4" class="edge"><title>Node4&#45;&gt;Node5</title>
<path fill="none" stroke="midnightblue" d="M488.257,-108C496.636,-108 505.186,-108 513.618,-108"/>
<polygon fill="midnightblue" stroke="midnightblue" points="513.824,-111.5 523.824,-108 513.824,-104.5 513.824,-111.5"/>
</g>
<!-- Node6 -->
<g id="node6" class="node"><title>Node6</title>
<g id="a_node6"><a xlink:href="../../d7/d13/class_texture_handler.html#ac16e35d1c6ff692b412cec898f0eae42" target="_top" xlink:title=" ">
<polygon fill="white" stroke="black" points="708.5,-142 708.5,-172 842.5,-172 842.5,-142 708.5,-142"/>
<text text-anchor="start" x="716.5" y="-160" font-family="Helvetica,sans-Serif" font-size="10.00">TextureHandler::getSurface</text>
<text text-anchor="middle" x="775.5" y="-149" font-family="Helvetica,sans-Serif" font-size="10.00">Format</text>
</a>
</g>
</g>
<!-- Node5&#45;&gt;Node6 -->
<g id="edge5" class="edge"><title>Node5&#45;&gt;Node6</title>
<path fill="none" stroke="midnightblue" d="M631.645,-117.564C653.921,-123.713 683.55,-131.893 710.049,-139.208"/>
<polygon fill="midnightblue" stroke="midnightblue" points="709.459,-142.676 720.029,-141.963 711.321,-135.928 709.459,-142.676"/>
</g>
<!-- Node7 -->
<g id="node7" class="node"><title>Node7</title>
<g id="a_node7"><a xlink:href="../../d7/d13/class_texture_handler.html#a49d75156d87a0d0666693dbae6a6c5a4" target="_top" xlink:title=" ">
<polygon fill="white" stroke="black" points="709,-93 709,-123 842,-123 842,-93 709,-93"/>
<text text-anchor="start" x="717" y="-111" font-family="Helvetica,sans-Serif" font-size="10.00">TextureHandler::teximage2</text>
<text text-anchor="middle" x="775.5" y="-100" font-family="Helvetica,sans-Serif" font-size="10.00">DFillerTexture</text>
</a>
</g>
</g>
<!-- Node5&#45;&gt;Node7 -->
<g id="edge6" class="edge"><title>Node5&#45;&gt;Node7</title>
<path fill="none" stroke="midnightblue" d="M668.173,-108C678.228,-108 688.596,-108 698.734,-108"/>
<polygon fill="midnightblue" stroke="midnightblue" points="698.774,-111.5 708.774,-108 698.774,-104.5 698.774,-111.5"/>
</g>
<!-- Node8 -->
<g id="node8" class="node"><title>Node8</title>
<g id="a_node8"><a xlink:href="../../d7/d13/class_texture_handler.html#a6420e706aa78904c657f5f95165ec207" target="_top" xlink:title=" ">
<polygon fill="white" stroke="black" points="704,-44 704,-74 847,-74 847,-44 704,-44"/>
<text text-anchor="start" x="712" y="-62" font-family="Helvetica,sans-Serif" font-size="10.00">TextureHandler::verifySurface</text>
<text text-anchor="middle" x="775.5" y="-51" font-family="Helvetica,sans-Serif" font-size="10.00">Dimensions</text>
</a>
</g>
</g>
<!-- Node5&#45;&gt;Node8 -->
<g id="edge7" class="edge"><title>Node5&#45;&gt;Node8</title>
<path fill="none" stroke="midnightblue" d="M631.645,-98.436C653.921,-92.2866 683.55,-84.1072 710.049,-76.7922"/>
<polygon fill="midnightblue" stroke="midnightblue" points="711.321,-80.0719 720.029,-74.037 709.459,-73.3243 711.321,-80.0719"/>
</g>
<!-- Node9 -->
<g id="node9" class="node"><title>Node9</title>
<g id="a_node9"><a xlink:href="../../d7/dd1/namespacehh.html#ac873cd925e3e7e68b6975dac4182baa7" target="_top" xlink:title=" ">
<polygon fill="white" stroke="black" points="883,-49.5 883,-68.5 978,-68.5 978,-49.5 883,-49.5"/>
<text text-anchor="middle" x="930.5" y="-56.5" font-family="Helvetica,sans-Serif" font-size="10.00">hh::isPowerOfTwo</text>
</a>
</g>
</g>
<!-- Node8&#45;&gt;Node9 -->
<g id="edge8" class="edge"><title>Node8&#45;&gt;Node9</title>
<path fill="none" stroke="midnightblue" d="M847.178,-59C855.656,-59 864.23,-59 872.481,-59"/>
<polygon fill="midnightblue" stroke="midnightblue" points="872.726,-62.5001 882.726,-59 872.726,-55.5001 872.726,-62.5001"/>
</g>
</g>
</svg>
