<?xml version="1.0" encoding="UTF-8" standalone="no"?>
<!DOCTYPE svg PUBLIC "-//W3C//DTD SVG 1.1//EN"
 "http://www.w3.org/Graphics/SVG/1.1/DTD/svg11.dtd">
<!-- Generated by graphviz version 2.38.0 (20140413.2041)
 -->
<!-- Title: DisplayStatistics Pages: 1 -->
<svg width="214pt" height="209pt"
 viewBox="0.00 0.00 214.00 209.00" xmlns="http://www.w3.org/2000/svg" xmlns:xlink="http://www.w3.org/1999/xlink">
<g id="graph0" class="graph" transform="scale(1 1) rotate(0) translate(4 205)">
<title>DisplayStatistics</title>
<polygon fill="white" stroke="none" points="-4,4 -4,-205 210,-205 210,4 -4,4"/>
<!-- Node1 -->
<g id="node1" class="node"><title>Node1</title>
<g id="a_node1"><a xlink:title=" ">
<polygon fill="#bfbfbf" stroke="black" points="34,-0.5 34,-19.5 124,-19.5 124,-0.5 34,-0.5"/>
<text text-anchor="middle" x="79" y="-7.5" font-family="Helvetica,sans-Serif" font-size="10.00">DisplayStatistics</text>
</a>
</g>
</g>
<!-- Node2 -->
<g id="node2" class="node"><title>Node2</title>
<g id="a_node2"><a xlink:href="../../d2/d00/class_component.html" target="_top" xlink:title=" ">
<polygon fill="white" stroke="black" points="0,-57.5 0,-76.5 158,-76.5 158,-57.5 0,-57.5"/>
<text text-anchor="middle" x="79" y="-64.5" font-family="Helvetica,sans-Serif" font-size="10.00">Component&lt; DisplayStatistics &gt;</text>
</a>
</g>
</g>
<!-- Node2&#45;&gt;Node1 -->
<g id="edge1" class="edge"><title>Node2&#45;&gt;Node1</title>
<path fill="none" stroke="midnightblue" d="M79,-47.1166C79,-37.8173 79,-27.0557 79,-19.7149"/>
<polygon fill="midnightblue" stroke="midnightblue" points="75.5001,-47.4062 79,-57.4063 82.5001,-47.4063 75.5001,-47.4062"/>
</g>
<!-- Node3 -->
<g id="node3" class="node"><title>Node3</title>
<g id="a_node3"><a xlink:href="../../d5/d79/class_component_interface.html" target="_top" xlink:title=" ">
<polygon fill="white" stroke="black" points="35.5,-181.5 35.5,-200.5 138.5,-200.5 138.5,-181.5 35.5,-181.5"/>
<text text-anchor="middle" x="87" y="-188.5" font-family="Helvetica,sans-Serif" font-size="10.00">ComponentInterface</text>
</a>
</g>
</g>
<!-- Node3&#45;&gt;Node2 -->
<g id="edge2" class="edge"><title>Node3&#45;&gt;Node2</title>
<path fill="none" stroke="midnightblue" d="M84.6478,-171.087C83.6924,-162.788 82.6602,-152.923 82,-144 80.207,-119.77 79.4417,-91.1087 79.153,-76.9036"/>
<polygon fill="midnightblue" stroke="midnightblue" points="81.1945,-171.686 85.8611,-181.198 88.1446,-170.852 81.1945,-171.686"/>
</g>
<!-- Node4 -->
<g id="node4" class="node"><title>Node4</title>
<g id="a_node4"><a xlink:href="../../d2/d00/class_component.html" target="_top" xlink:title=" ">
<polygon fill="white" stroke="black" points="91.5,-124.5 91.5,-143.5 180.5,-143.5 180.5,-124.5 91.5,-124.5"/>
<text text-anchor="middle" x="136" y="-131.5" font-family="Helvetica,sans-Serif" font-size="10.00">Component&lt; T &gt;</text>
</a>
</g>
</g>
<!-- Node3&#45;&gt;Node4 -->
<g id="edge4" class="edge"><title>Node3&#45;&gt;Node4</title>
<path fill="none" stroke="midnightblue" d="M101.408,-173.828C110.182,-163.979 121.049,-151.782 128.236,-143.715"/>
<polygon fill="midnightblue" stroke="midnightblue" points="98.695,-171.611 94.6563,-181.406 103.922,-176.268 98.695,-171.611"/>
</g>
<!-- Node4&#45;&gt;Node2 -->
<g id="edge3" class="edge"><title>Node4&#45;&gt;Node2</title>
<path fill="none" stroke="orange" stroke-dasharray="5,2" d="M121.649,-116.635C110.502,-103.923 95.4842,-86.7978 86.5655,-76.6273"/>
<polygon fill="orange" stroke="orange" points="119.088,-119.023 128.313,-124.234 124.351,-114.408 119.088,-119.023"/>
<text text-anchor="middle" x="158.5" y="-98" font-family="Helvetica,sans-Serif" font-size="10.00"> &lt; DisplayStatistics &gt;</text>
</g>
</g>
</svg>
