<?xml version="1.0" encoding="UTF-8" standalone="no"?>
<!DOCTYPE svg PUBLIC "-//W3C//DTD SVG 1.1//EN"
 "http://www.w3.org/Graphics/SVG/1.1/DTD/svg11.dtd">
<!-- Generated by graphviz version 2.38.0 (20140413.2041)
 -->
<!-- Title: src/PlayerCameraHandlingSystem.h Pages: 1 -->
<svg width="955pt" height="207pt"
 viewBox="0.00 0.00 955.00 207.00" xmlns="http://www.w3.org/2000/svg" xmlns:xlink="http://www.w3.org/1999/xlink">
<g id="graph0" class="graph" transform="scale(1 1) rotate(0) translate(4 203)">
<title>src/PlayerCameraHandlingSystem.h</title>
<polygon fill="white" stroke="none" points="-4,4 -4,-203 951,-203 951,4 -4,4"/>
<!-- Node1 -->
<g id="node1" class="node"><title>Node1</title>
<g id="a_node1"><a xlink:title=" ">
<polygon fill="#bfbfbf" stroke="black" points="537,-168.5 537,-198.5 669,-198.5 669,-168.5 537,-168.5"/>
<text text-anchor="start" x="545" y="-186.5" font-family="Helvetica,sans-Serif" font-size="10.00">src/PlayerCameraHandling</text>
<text text-anchor="middle" x="603" y="-175.5" font-family="Helvetica,sans-Serif" font-size="10.00">System.h</text>
</a>
</g>
</g>
<!-- Node2 -->
<g id="node2" class="node"><title>Node2</title>
<g id="a_node2"><a xlink:href="../../d5/d91/_camera_8h.html" target="_top" xlink:title=" ">
<polygon fill="white" stroke="black" points="301.5,-112.5 301.5,-131.5 360.5,-131.5 360.5,-112.5 301.5,-112.5"/>
<text text-anchor="middle" x="331" y="-119.5" font-family="Helvetica,sans-Serif" font-size="10.00">Camera.h</text>
</a>
</g>
</g>
<!-- Node1&#45;&gt;Node2 -->
<g id="edge1" class="edge"><title>Node1&#45;&gt;Node2</title>
<path fill="none" stroke="midnightblue" d="M538.884,-168.475C486.72,-157.064 414.755,-141.321 370.629,-131.669"/>
<polygon fill="midnightblue" stroke="midnightblue" points="371.364,-128.247 360.847,-129.529 369.868,-135.085 371.364,-128.247"/>
</g>
<!-- Node14 -->
<g id="node14" class="node"><title>Node14</title>
<g id="a_node14"><a xlink:href="../../d7/d26/_helping_hand_8h.html" target="_top" xlink:title=" ">
<polygon fill="white" stroke="black" points="685,-56.5 685,-75.5 765,-75.5 765,-56.5 685,-56.5"/>
<text text-anchor="middle" x="725" y="-63.5" font-family="Helvetica,sans-Serif" font-size="10.00">HelpingHand.h</text>
</a>
</g>
</g>
<!-- Node1&#45;&gt;Node14 -->
<g id="edge13" class="edge"><title>Node1&#45;&gt;Node14</title>
<path fill="none" stroke="midnightblue" d="M624.553,-168.468C638.464,-158.947 656.586,-145.65 671,-132 686.904,-116.939 702.624,-97.3379 712.965,-83.6143"/>
<polygon fill="midnightblue" stroke="midnightblue" points="715.797,-85.6718 718.932,-75.5515 710.17,-81.5076 715.797,-85.6718"/>
</g>
<!-- Node18 -->
<g id="node18" class="node"><title>Node18</title>
<g id="a_node18"><a xlink:href="../../d7/d9d/_player_camera_handler_8h.html" target="_top" xlink:title=" ">
<polygon fill="white" stroke="black" points="543.5,-112.5 543.5,-131.5 662.5,-131.5 662.5,-112.5 543.5,-112.5"/>
<text text-anchor="middle" x="603" y="-119.5" font-family="Helvetica,sans-Serif" font-size="10.00">PlayerCameraHandler.h</text>
</a>
</g>
</g>
<!-- Node1&#45;&gt;Node18 -->
<g id="edge19" class="edge"><title>Node1&#45;&gt;Node18</title>
<path fill="none" stroke="midnightblue" d="M603,-168.399C603,-160.466 603,-150.458 603,-141.858"/>
<polygon fill="midnightblue" stroke="midnightblue" points="606.5,-141.658 603,-131.658 599.5,-141.658 606.5,-141.658"/>
</g>
<!-- Node3 -->
<g id="node3" class="node"><title>Node3</title>
<g id="a_node3"><a xlink:href="../../dc/d20/_component_8h.html" target="_top" xlink:title=" ">
<polygon fill="white" stroke="black" points="555,-56.5 555,-75.5 629,-75.5 629,-56.5 555,-56.5"/>
<text text-anchor="middle" x="592" y="-63.5" font-family="Helvetica,sans-Serif" font-size="10.00">Component.h</text>
</a>
</g>
</g>
<!-- Node2&#45;&gt;Node3 -->
<g id="edge2" class="edge"><title>Node2&#45;&gt;Node3</title>
<path fill="none" stroke="midnightblue" d="M360.686,-114.858C405.622,-105.561 491.334,-87.8276 544.861,-76.7528"/>
<polygon fill="midnightblue" stroke="midnightblue" points="545.707,-80.1521 554.79,-74.6986 544.289,-73.2973 545.707,-80.1521"/>
</g>
<!-- Node5 -->
<g id="node5" class="node"><title>Node5</title>
<g id="a_node5"><a xlink:href="../../de/d50/_game_info_8h.html" target="_top" xlink:title=" ">
<polygon fill="white" stroke="black" points="202,-56.5 202,-75.5 268,-75.5 268,-56.5 202,-56.5"/>
<text text-anchor="middle" x="235" y="-63.5" font-family="Helvetica,sans-Serif" font-size="10.00">GameInfo.h</text>
</a>
</g>
</g>
<!-- Node2&#45;&gt;Node5 -->
<g id="edge4" class="edge"><title>Node2&#45;&gt;Node5</title>
<path fill="none" stroke="midnightblue" d="M315.576,-112.324C300.46,-103.822 277.185,-90.7288 259.529,-80.7975"/>
<polygon fill="midnightblue" stroke="midnightblue" points="260.817,-77.5066 250.386,-75.6545 257.386,-83.6077 260.817,-77.5066"/>
</g>
<!-- Node10 -->
<g id="node10" class="node"><title>Node10</title>
<g id="a_node10"><a xlink:href="../../d9/db9/_unique_vectors_8h.html" target="_top" xlink:title=" ">
<polygon fill="white" stroke="black" points="286.5,-56.5 286.5,-75.5 375.5,-75.5 375.5,-56.5 286.5,-56.5"/>
<text text-anchor="middle" x="331" y="-63.5" font-family="Helvetica,sans-Serif" font-size="10.00">UniqueVectors.h</text>
</a>
</g>
</g>
<!-- Node2&#45;&gt;Node10 -->
<g id="edge9" class="edge"><title>Node2&#45;&gt;Node10</title>
<path fill="none" stroke="midnightblue" d="M331,-112.083C331,-105.006 331,-94.8611 331,-85.9865"/>
<polygon fill="midnightblue" stroke="midnightblue" points="334.5,-85.751 331,-75.7511 327.5,-85.7511 334.5,-85.751"/>
</g>
<!-- Node11 -->
<g id="node11" class="node"><title>Node11</title>
<g id="a_node11"><a xlink:title=" ">
<polygon fill="white" stroke="#bfbfbf" points="393.5,-56.5 393.5,-75.5 536.5,-75.5 536.5,-56.5 393.5,-56.5"/>
<text text-anchor="middle" x="465" y="-63.5" font-family="Helvetica,sans-Serif" font-size="10.00">glm/gtc/matrix_transform.hpp</text>
</a>
</g>
</g>
<!-- Node2&#45;&gt;Node11 -->
<g id="edge10" class="edge"><title>Node2&#45;&gt;Node11</title>
<path fill="none" stroke="midnightblue" d="M352.233,-112.444C374.384,-103.517 409.319,-89.4387 434.436,-79.3168"/>
<polygon fill="midnightblue" stroke="midnightblue" points="435.9,-82.5006 443.867,-75.5164 433.283,-76.0079 435.9,-82.5006"/>
</g>
<!-- Node12 -->
<g id="node12" class="node"><title>Node12</title>
<g id="a_node12"><a xlink:title=" ">
<polygon fill="white" stroke="#bfbfbf" points="0,-56.5 0,-75.5 106,-75.5 106,-56.5 0,-56.5"/>
<text text-anchor="middle" x="53" y="-63.5" font-family="Helvetica,sans-Serif" font-size="10.00">glm/gtc/type_ptr.hpp</text>
</a>
</g>
</g>
<!-- Node2&#45;&gt;Node12 -->
<g id="edge11" class="edge"><title>Node2&#45;&gt;Node12</title>
<path fill="none" stroke="midnightblue" d="M301.249,-115.221C255.001,-106.238 165.164,-88.7872 107.189,-77.526"/>
<polygon fill="midnightblue" stroke="midnightblue" points="107.591,-74.0387 97.1075,-75.5676 106.257,-80.9103 107.591,-74.0387"/>
</g>
<!-- Node13 -->
<g id="node13" class="node"><title>Node13</title>
<g id="a_node13"><a xlink:title=" ">
<polygon fill="white" stroke="#bfbfbf" points="124,-56.5 124,-75.5 184,-75.5 184,-56.5 124,-56.5"/>
<text text-anchor="middle" x="154" y="-63.5" font-family="Helvetica,sans-Serif" font-size="10.00">GL/glew.h</text>
</a>
</g>
</g>
<!-- Node2&#45;&gt;Node13 -->
<g id="edge12" class="edge"><title>Node2&#45;&gt;Node13</title>
<path fill="none" stroke="midnightblue" d="M302.954,-112.444C272.918,-103.28 225.087,-88.6876 191.757,-78.5192"/>
<polygon fill="midnightblue" stroke="midnightblue" points="192.501,-75.0869 181.915,-75.5164 190.458,-81.7822 192.501,-75.0869"/>
</g>
<!-- Node4 -->
<g id="node4" class="node"><title>Node4</title>
<g id="a_node4"><a xlink:title=" ">
<polygon fill="white" stroke="#bfbfbf" points="392.5,-0.5 392.5,-19.5 441.5,-19.5 441.5,-0.5 392.5,-0.5"/>
<text text-anchor="middle" x="417" y="-7.5" font-family="Helvetica,sans-Serif" font-size="10.00">stdint.h</text>
</a>
</g>
</g>
<!-- Node3&#45;&gt;Node4 -->
<g id="edge3" class="edge"><title>Node3&#45;&gt;Node4</title>
<path fill="none" stroke="midnightblue" d="M564.271,-56.4435C533.701,-47.0106 484.487,-31.8245 451.461,-21.6337"/>
<polygon fill="midnightblue" stroke="midnightblue" points="452.357,-18.2475 441.77,-18.6433 450.293,-24.9363 452.357,-18.2475"/>
</g>
<!-- Node6 -->
<g id="node6" class="node"><title>Node6</title>
<g id="a_node6"><a xlink:title=" ">
<polygon fill="white" stroke="#bfbfbf" points="459.5,-0.5 459.5,-19.5 586.5,-19.5 586.5,-0.5 459.5,-0.5"/>
<text text-anchor="middle" x="523" y="-7.5" font-family="Helvetica,sans-Serif" font-size="10.00">LinearMath/btTransform.h</text>
</a>
</g>
</g>
<!-- Node5&#45;&gt;Node6 -->
<g id="edge5" class="edge"><title>Node5&#45;&gt;Node6</title>
<path fill="none" stroke="midnightblue" d="M268.452,-57.7367C271.341,-57.1382 274.221,-56.5519 277,-56 340.745,-43.3428 414.051,-30.1021 463.942,-21.2877"/>
<polygon fill="midnightblue" stroke="midnightblue" points="464.669,-24.7136 473.909,-19.5306 463.454,-17.8199 464.669,-24.7136"/>
</g>
<!-- Node7 -->
<g id="node7" class="node"><title>Node7</title>
<g id="a_node7"><a xlink:title=" ">
<polygon fill="white" stroke="#bfbfbf" points="605,-0.5 605,-19.5 679,-19.5 679,-0.5 605,-0.5"/>
<text text-anchor="middle" x="642" y="-7.5" font-family="Helvetica,sans-Serif" font-size="10.00">glm/vec3.hpp</text>
</a>
</g>
</g>
<!-- Node5&#45;&gt;Node7 -->
<g id="edge6" class="edge"><title>Node5&#45;&gt;Node7</title>
<path fill="none" stroke="midnightblue" d="M268.414,-57.5298C271.312,-56.9763 274.203,-56.4568 277,-56 414.223,-33.586 452.667,-41.033 594.876,-19.89"/>
<polygon fill="midnightblue" stroke="midnightblue" points="595.479,-23.3388 604.845,-18.3866 594.435,-16.417 595.479,-23.3388"/>
</g>
<!-- Node8 -->
<g id="node8" class="node"><title>Node8</title>
<g id="a_node8"><a xlink:title=" ">
<polygon fill="white" stroke="#bfbfbf" points="236,-0.5 236,-19.5 310,-19.5 310,-0.5 236,-0.5"/>
<text text-anchor="middle" x="273" y="-7.5" font-family="Helvetica,sans-Serif" font-size="10.00">glm/vec4.hpp</text>
</a>
</g>
</g>
<!-- Node5&#45;&gt;Node8 -->
<g id="edge7" class="edge"><title>Node5&#45;&gt;Node8</title>
<path fill="none" stroke="midnightblue" d="M241.275,-56.083C246.642,-48.4554 254.518,-37.2645 261.079,-27.9408"/>
<polygon fill="midnightblue" stroke="midnightblue" points="263.949,-29.9434 266.842,-19.7511 258.225,-25.9149 263.949,-29.9434"/>
</g>
<!-- Node9 -->
<g id="node9" class="node"><title>Node9</title>
<g id="a_node9"><a xlink:title=" ">
<polygon fill="white" stroke="#bfbfbf" points="176.5,-0.5 176.5,-19.5 217.5,-19.5 217.5,-0.5 176.5,-0.5"/>
<text text-anchor="middle" x="197" y="-7.5" font-family="Helvetica,sans-Serif" font-size="10.00">string</text>
</a>
</g>
</g>
<!-- Node5&#45;&gt;Node9 -->
<g id="edge8" class="edge"><title>Node5&#45;&gt;Node9</title>
<path fill="none" stroke="midnightblue" d="M228.725,-56.083C223.358,-48.4554 215.482,-37.2645 208.921,-27.9408"/>
<polygon fill="midnightblue" stroke="midnightblue" points="211.775,-25.9149 203.158,-19.7511 206.051,-29.9434 211.775,-25.9149"/>
</g>
<!-- Node14&#45;&gt;Node6 -->
<g id="edge14" class="edge"><title>Node14&#45;&gt;Node6</title>
<path fill="none" stroke="midnightblue" d="M692.992,-56.4435C658.271,-47.1616 602.712,-32.3093 564.623,-22.127"/>
<polygon fill="midnightblue" stroke="midnightblue" points="565.422,-18.7178 554.858,-19.5164 563.615,-25.4803 565.422,-18.7178"/>
</g>
<!-- Node14&#45;&gt;Node7 -->
<g id="edge17" class="edge"><title>Node14&#45;&gt;Node7</title>
<path fill="none" stroke="midnightblue" d="M711.665,-56.324C698.838,-47.979 679.215,-35.2122 664.06,-25.3524"/>
<polygon fill="midnightblue" stroke="midnightblue" points="665.593,-22.1742 655.302,-19.6545 661.776,-28.0417 665.593,-22.1742"/>
</g>
<!-- Node15 -->
<g id="node15" class="node"><title>Node15</title>
<g id="a_node15"><a xlink:title=" ">
<polygon fill="white" stroke="#bfbfbf" points="697,-0.5 697,-19.5 753,-19.5 753,-0.5 697,-0.5"/>
<text text-anchor="middle" x="725" y="-7.5" font-family="Helvetica,sans-Serif" font-size="10.00">algorithm</text>
</a>
</g>
</g>
<!-- Node14&#45;&gt;Node15 -->
<g id="edge15" class="edge"><title>Node14&#45;&gt;Node15</title>
<path fill="none" stroke="midnightblue" d="M725,-56.083C725,-49.0059 725,-38.8611 725,-29.9865"/>
<polygon fill="midnightblue" stroke="midnightblue" points="728.5,-29.751 725,-19.7511 721.5,-29.7511 728.5,-29.751"/>
</g>
<!-- Node16 -->
<g id="node16" class="node"><title>Node16</title>
<g id="a_node16"><a xlink:title=" ">
<polygon fill="white" stroke="#bfbfbf" points="771,-0.5 771,-19.5 887,-19.5 887,-0.5 771,-0.5"/>
<text text-anchor="middle" x="829" y="-7.5" font-family="Helvetica,sans-Serif" font-size="10.00">glm/gtc/quaternion.hpp</text>
</a>
</g>
</g>
<!-- Node14&#45;&gt;Node16 -->
<g id="edge16" class="edge"><title>Node14&#45;&gt;Node16</title>
<path fill="none" stroke="midnightblue" d="M741.709,-56.324C758.312,-47.7034 784.002,-34.3643 803.22,-24.3855"/>
<polygon fill="midnightblue" stroke="midnightblue" points="805.07,-27.3689 812.332,-19.6545 801.844,-21.1565 805.07,-27.3689"/>
</g>
<!-- Node17 -->
<g id="node17" class="node"><title>Node17</title>
<g id="a_node17"><a xlink:title=" ">
<polygon fill="white" stroke="#bfbfbf" points="905,-0.5 905,-19.5 947,-19.5 947,-0.5 905,-0.5"/>
<text text-anchor="middle" x="926" y="-7.5" font-family="Helvetica,sans-Serif" font-size="10.00">vector</text>
</a>
</g>
</g>
<!-- Node14&#45;&gt;Node17 -->
<g id="edge18" class="edge"><title>Node14&#45;&gt;Node17</title>
<path fill="none" stroke="midnightblue" d="M758.836,-56.4589C791.374,-48.165 842.178,-35.0071 894.865,-20.254"/>
<polygon fill="midnightblue" stroke="midnightblue" points="896.042,-23.5587 904.721,-17.4815 894.147,-16.8202 896.042,-23.5587"/>
</g>
<!-- Node18&#45;&gt;Node3 -->
<g id="edge20" class="edge"><title>Node18&#45;&gt;Node3</title>
<path fill="none" stroke="midnightblue" d="M601.184,-112.083C599.726,-104.927 597.629,-94.6353 595.807,-85.6911"/>
<polygon fill="midnightblue" stroke="midnightblue" points="599.208,-84.8512 593.783,-75.7511 592.349,-86.2485 599.208,-84.8512"/>
</g>
<!-- Node18&#45;&gt;Node7 -->
<g id="edge21" class="edge"><title>Node18&#45;&gt;Node7</title>
<path fill="none" stroke="midnightblue" d="M612.351,-112.377C620.74,-103.994 632.543,-90.4433 638,-76 643.563,-61.2758 644.259,-43.343 643.735,-30.046"/>
<polygon fill="midnightblue" stroke="midnightblue" points="647.207,-29.4981 643.054,-19.7513 640.222,-29.9607 647.207,-29.4981"/>
</g>
</g>
</svg>
