<?xml version="1.0" encoding="UTF-8" standalone="no"?>
<!DOCTYPE svg PUBLIC "-//W3C//DTD SVG 1.1//EN"
 "http://www.w3.org/Graphics/SVG/1.1/DTD/svg11.dtd">
<!-- Generated by graphviz version 2.38.0 (20140413.2041)
 -->
<!-- Title: InputLocator Pages: 1 -->
<svg width="262pt" height="343pt"
 viewBox="0.00 0.00 262.00 343.00" xmlns="http://www.w3.org/2000/svg" xmlns:xlink="http://www.w3.org/1999/xlink">
<g id="graph0" class="graph" transform="scale(1 1) rotate(0) translate(4 339)">
<title>InputLocator</title>
<polygon fill="white" stroke="none" points="-4,4 -4,-339 258,-339 258,4 -4,4"/>
<!-- Node1 -->
<g id="node1" class="node"><title>Node1</title>
<g id="a_node1"><a xlink:title=" ">
<polygon fill="#bfbfbf" stroke="black" points="67,-0.5 67,-19.5 137,-19.5 137,-0.5 67,-0.5"/>
<text text-anchor="middle" x="102" y="-7.5" font-family="Helvetica,sans-Serif" font-size="10.00">InputLocator</text>
</a>
</g>
</g>
<!-- Node2 -->
<g id="node2" class="node"><title>Node2</title>
<g id="a_node2"><a xlink:href="../../d2/d23/class_locator.html" target="_top" xlink:title=" ">
<polygon fill="white" stroke="black" points="36.5,-57.5 36.5,-76.5 167.5,-76.5 167.5,-57.5 36.5,-57.5"/>
<text text-anchor="middle" x="102" y="-64.5" font-family="Helvetica,sans-Serif" font-size="10.00">Locator&lt; Input, NullInput &gt;</text>
</a>
</g>
</g>
<!-- Node2&#45;&gt;Node1 -->
<g id="edge1" class="edge"><title>Node2&#45;&gt;Node1</title>
<path fill="none" stroke="midnightblue" d="M102,-47.1166C102,-37.8173 102,-27.0557 102,-19.7149"/>
<polygon fill="midnightblue" stroke="midnightblue" points="98.5001,-47.4062 102,-57.4063 105.5,-47.4063 98.5001,-47.4062"/>
</g>
<!-- Node3 -->
<g id="node3" class="node"><title>Node3</title>
<g id="a_node3"><a xlink:href="../../d4/d7b/class_input.html" target="_top" xlink:title=" ">
<polygon fill="white" stroke="black" points="30,-181.5 30,-200.5 68,-200.5 68,-181.5 30,-181.5"/>
<text text-anchor="middle" x="49" y="-188.5" font-family="Helvetica,sans-Serif" font-size="10.00">Input</text>
</a>
</g>
</g>
<!-- Node3&#45;&gt;Node2 -->
<g id="edge2" class="edge"><title>Node3&#45;&gt;Node2</title>
<path fill="none" stroke="#9a32cd" stroke-dasharray="5,2" d="M37.969,-172.213C30.9949,-158.542 24.5758,-139.447 32,-124 42.652,-101.837 66.8199,-85.7 83.7624,-76.5929"/>
<polygon fill="#9a32cd" stroke="#9a32cd" points="35.0025,-174.078 42.9553,-181.079 41.1037,-170.647 35.0025,-174.078"/>
<text text-anchor="middle" x="49" y="-131.5" font-family="Helvetica,sans-Serif" font-size="10.00"> service</text>
</g>
<!-- Node6 -->
<g id="node6" class="node"><title>Node6</title>
<g id="a_node6"><a xlink:href="../../d1/d23/class_null_input.html" target="_top" xlink:title=" ">
<polygon fill="white" stroke="black" points="75,-124.5 75,-143.5 129,-143.5 129,-124.5 75,-124.5"/>
<text text-anchor="middle" x="102" y="-131.5" font-family="Helvetica,sans-Serif" font-size="10.00">NullInput</text>
</a>
</g>
</g>
<!-- Node3&#45;&gt;Node6 -->
<g id="edge6" class="edge"><title>Node3&#45;&gt;Node6</title>
<path fill="none" stroke="midnightblue" d="M64.2998,-174.123C73.8389,-164.224 85.7508,-151.862 93.602,-143.715"/>
<polygon fill="midnightblue" stroke="midnightblue" points="61.6999,-171.777 57.2813,-181.406 66.7405,-176.634 61.6999,-171.777"/>
</g>
<!-- Node4 -->
<g id="node4" class="node"><title>Node4</title>
<g id="a_node4"><a xlink:href="../../d8/dc0/class_unique_vec2.html" target="_top" xlink:title=" ">
<polygon fill="white" stroke="black" points="0,-248.5 0,-267.5 98,-267.5 98,-248.5 0,-248.5"/>
<text text-anchor="middle" x="49" y="-255.5" font-family="Helvetica,sans-Serif" font-size="10.00">UniqueVec2&lt; int &gt;</text>
</a>
</g>
</g>
<!-- Node4&#45;&gt;Node3 -->
<g id="edge3" class="edge"><title>Node4&#45;&gt;Node3</title>
<path fill="none" stroke="#9a32cd" stroke-dasharray="5,2" d="M49,-238.037C49,-225.67 49,-210.12 49,-200.627"/>
<polygon fill="#9a32cd" stroke="#9a32cd" points="45.5001,-238.234 49,-248.234 52.5001,-238.234 45.5001,-238.234"/>
<text text-anchor="middle" x="92.5" y="-222" font-family="Helvetica,sans-Serif" font-size="10.00"> mouseLastPosition</text>
</g>
<!-- Node5 -->
<g id="node5" class="node"><title>Node5</title>
<g id="a_node5"><a xlink:href="../../d8/dc0/class_unique_vec2.html" target="_top" xlink:title=" ">
<polygon fill="white" stroke="black" points="3,-315.5 3,-334.5 95,-334.5 95,-315.5 3,-315.5"/>
<text text-anchor="middle" x="49" y="-322.5" font-family="Helvetica,sans-Serif" font-size="10.00">UniqueVec2&lt; T &gt;</text>
</a>
</g>
</g>
<!-- Node5&#45;&gt;Node4 -->
<g id="edge4" class="edge"><title>Node5&#45;&gt;Node4</title>
<path fill="none" stroke="orange" stroke-dasharray="5,2" d="M49,-305.037C49,-292.67 49,-277.12 49,-267.627"/>
<polygon fill="orange" stroke="orange" points="45.5001,-305.234 49,-315.234 52.5001,-305.234 45.5001,-305.234"/>
<text text-anchor="middle" x="65" y="-289" font-family="Helvetica,sans-Serif" font-size="10.00"> &lt; int &gt;</text>
</g>
<!-- Node6&#45;&gt;Node2 -->
<g id="edge5" class="edge"><title>Node6&#45;&gt;Node2</title>
<path fill="none" stroke="#9a32cd" stroke-dasharray="5,2" d="M102,-114.037C102,-101.67 102,-86.1198 102,-76.6273"/>
<polygon fill="#9a32cd" stroke="#9a32cd" points="98.5001,-114.234 102,-124.234 105.5,-114.234 98.5001,-114.234"/>
<text text-anchor="middle" x="127" y="-98" font-family="Helvetica,sans-Serif" font-size="10.00"> nullService</text>
</g>
<!-- Node7 -->
<g id="node7" class="node"><title>Node7</title>
<g id="a_node7"><a xlink:href="../../d2/d23/class_locator.html" target="_top" xlink:title=" ">
<polygon fill="white" stroke="black" points="147.5,-124.5 147.5,-143.5 232.5,-143.5 232.5,-124.5 147.5,-124.5"/>
<text text-anchor="middle" x="190" y="-131.5" font-family="Helvetica,sans-Serif" font-size="10.00">Locator&lt; T, U &gt;</text>
</a>
</g>
</g>
<!-- Node7&#45;&gt;Node2 -->
<g id="edge7" class="edge"><title>Node7&#45;&gt;Node2</title>
<path fill="none" stroke="orange" stroke-dasharray="5,2" d="M177.164,-115.996C171.251,-108.914 163.816,-100.97 156,-95 146.171,-87.4926 133.93,-81.1695 123.589,-76.5341"/>
<polygon fill="orange" stroke="orange" points="174.793,-118.638 183.754,-124.29 180.273,-114.283 174.793,-118.638"/>
<text text-anchor="middle" x="211" y="-98" font-family="Helvetica,sans-Serif" font-size="10.00"> &lt; Input, NullInput &gt;</text>
</g>
</g>
</svg>
