<?xml version="1.0" encoding="UTF-8" standalone="no"?>
<!DOCTYPE svg PUBLIC "-//W3C//DTD SVG 1.1//EN"
 "http://www.w3.org/Graphics/SVG/1.1/DTD/svg11.dtd">
<!-- Generated by graphviz version 2.38.0 (20140413.2041)
 -->
<!-- Title: src/DayNightCycleSystem.h Pages: 1 -->
<svg width="1713pt" height="364pt"
 viewBox="0.00 0.00 1713.27 364.00" xmlns="http://www.w3.org/2000/svg" xmlns:xlink="http://www.w3.org/1999/xlink">
<g id="graph0" class="graph" transform="scale(1 1) rotate(0) translate(4 360)">
<title>src/DayNightCycleSystem.h</title>
<polygon fill="white" stroke="none" points="-4,4 -4,-360 1709.27,-360 1709.27,4 -4,4"/>
<!-- Node1 -->
<g id="node1" class="node"><title>Node1</title>
<g id="a_node1"><a xlink:title=" ">
<polygon fill="#bfbfbf" stroke="black" points="833.768,-336.5 833.768,-355.5 973.768,-355.5 973.768,-336.5 833.768,-336.5"/>
<text text-anchor="middle" x="903.768" y="-343.5" font-family="Helvetica,sans-Serif" font-size="10.00">src/DayNightCycleSystem.h</text>
</a>
</g>
</g>
<!-- Node2 -->
<g id="node2" class="node"><title>Node2</title>
<g id="a_node2"><a xlink:href="../../d3/da2/_debug_drawer_8h.html" target="_top" xlink:title=" ">
<polygon fill="white" stroke="black" points="400.268,-280.5 400.268,-299.5 483.268,-299.5 483.268,-280.5 400.268,-280.5"/>
<text text-anchor="middle" x="441.768" y="-287.5" font-family="Helvetica,sans-Serif" font-size="10.00">DebugDrawer.h</text>
</a>
</g>
</g>
<!-- Node1&#45;&gt;Node2 -->
<g id="edge1" class="edge"><title>Node1&#45;&gt;Node2</title>
<path fill="none" stroke="midnightblue" d="M833.591,-338.275C752.552,-330.265 615.3,-315.948 497.768,-300 496.304,-299.801 494.82,-299.595 493.322,-299.383"/>
<polygon fill="midnightblue" stroke="midnightblue" points="493.727,-295.905 483.324,-297.911 492.707,-302.83 493.727,-295.905"/>
</g>
<!-- Node17 -->
<g id="node17" class="node"><title>Node17</title>
<g id="a_node17"><a xlink:href="../../d5/d31/_lights_8h.html" target="_top" xlink:title=" ">
<polygon fill="white" stroke="black" points="1270.27,-112.5 1270.27,-131.5 1321.27,-131.5 1321.27,-112.5 1270.27,-112.5"/>
<text text-anchor="middle" x="1295.77" y="-119.5" font-family="Helvetica,sans-Serif" font-size="10.00">Lights.h</text>
</a>
</g>
</g>
<!-- Node1&#45;&gt;Node17 -->
<g id="edge61" class="edge"><title>Node1&#45;&gt;Node17</title>
<path fill="none" stroke="midnightblue" d="M919.134,-336.297C979.148,-302.31 1198.02,-178.356 1271.51,-136.735"/>
<polygon fill="midnightblue" stroke="midnightblue" points="1273.53,-139.616 1280.51,-131.643 1270.08,-133.525 1273.53,-139.616"/>
</g>
<!-- Node27 -->
<g id="node27" class="node"><title>Node27</title>
<g id="a_node27"><a xlink:href="../../d7/d26/_helping_hand_8h.html" target="_top" xlink:title=" ">
<polygon fill="white" stroke="black" points="218.768,-112.5 218.768,-131.5 298.768,-131.5 298.768,-112.5 218.768,-112.5"/>
<text text-anchor="middle" x="258.768" y="-119.5" font-family="Helvetica,sans-Serif" font-size="10.00">HelpingHand.h</text>
</a>
</g>
</g>
<!-- Node1&#45;&gt;Node27 -->
<g id="edge56" class="edge"><title>Node1&#45;&gt;Node27</title>
<path fill="none" stroke="midnightblue" d="M864.5,-336.471C795.839,-321.094 649.927,-286.353 530.768,-244 437.824,-210.965 332.287,-159.936 284.591,-136.102"/>
<polygon fill="midnightblue" stroke="midnightblue" points="286.087,-132.937 275.579,-131.578 282.946,-139.193 286.087,-132.937"/>
</g>
<!-- Node36 -->
<g id="node36" class="node"><title>Node36</title>
<g id="a_node36"><a xlink:href="../../d4/d8f/_l_time_8h.html" target="_top" xlink:title=" ">
<polygon fill="white" stroke="black" points="1366.27,-168.5 1366.27,-187.5 1417.27,-187.5 1417.27,-168.5 1366.27,-168.5"/>
<text text-anchor="middle" x="1391.77" y="-175.5" font-family="Helvetica,sans-Serif" font-size="10.00">LTime.h</text>
</a>
</g>
</g>
<!-- Node1&#45;&gt;Node36 -->
<g id="edge57" class="edge"><title>Node1&#45;&gt;Node36</title>
<path fill="none" stroke="midnightblue" d="M973.856,-345.626C1042.36,-343.919 1148.37,-335.012 1232.77,-300 1292.87,-275.066 1350.27,-221.7 1376.65,-194.961"/>
<polygon fill="midnightblue" stroke="midnightblue" points="1379.36,-197.193 1383.81,-187.578 1374.34,-192.32 1379.36,-197.193"/>
</g>
<!-- Node3 -->
<g id="node3" class="node"><title>Node3</title>
<g id="a_node3"><a xlink:href="../../de/d50/_game_info_8h.html" target="_top" xlink:title=" ">
<polygon fill="white" stroke="black" points="1377.77,-112.5 1377.77,-131.5 1443.77,-131.5 1443.77,-112.5 1377.77,-112.5"/>
<text text-anchor="middle" x="1410.77" y="-119.5" font-family="Helvetica,sans-Serif" font-size="10.00">GameInfo.h</text>
</a>
</g>
</g>
<!-- Node2&#45;&gt;Node3 -->
<g id="edge2" class="edge"><title>Node2&#45;&gt;Node3</title>
<path fill="none" stroke="midnightblue" d="M483.404,-281.867C641.852,-254.723 1206.38,-158.014 1367.53,-130.407"/>
<polygon fill="midnightblue" stroke="midnightblue" points="1368.29,-133.828 1377.55,-128.69 1367.11,-126.929 1368.29,-133.828"/>
</g>
<!-- Node8 -->
<g id="node8" class="node"><title>Node8</title>
<g id="a_node8"><a xlink:href="../../db/dcf/_locator_8h.html" target="_top" xlink:title=" ">
<polygon fill="white" stroke="black" points="540.268,-224.5 540.268,-243.5 597.268,-243.5 597.268,-224.5 540.268,-224.5"/>
<text text-anchor="middle" x="568.768" y="-231.5" font-family="Helvetica,sans-Serif" font-size="10.00">Locator.h</text>
</a>
</g>
</g>
<!-- Node2&#45;&gt;Node8 -->
<g id="edge7" class="edge"><title>Node2&#45;&gt;Node8</title>
<path fill="none" stroke="midnightblue" d="M461.891,-280.444C482.792,-271.557 515.702,-257.563 539.484,-247.451"/>
<polygon fill="midnightblue" stroke="midnightblue" points="540.905,-250.65 548.738,-243.516 538.166,-244.208 540.905,-250.65"/>
</g>
<!-- Node25 -->
<g id="node25" class="node"><title>Node25</title>
<g id="a_node25"><a xlink:title=" ">
<polygon fill="white" stroke="#bfbfbf" points="112.768,-56.5 112.768,-75.5 154.768,-75.5 154.768,-56.5 112.768,-56.5"/>
<text text-anchor="middle" x="133.768" y="-63.5" font-family="Helvetica,sans-Serif" font-size="10.00">vector</text>
</a>
</g>
</g>
<!-- Node2&#45;&gt;Node25 -->
<g id="edge55" class="edge"><title>Node2&#45;&gt;Node25</title>
<path fill="none" stroke="midnightblue" d="M400.164,-288.23C343.866,-285.892 241.219,-276.997 160.768,-244 81.4652,-211.475 43.0114,-208.202 3.76758,-132 -17.3028,-91.0865 57.6287,-75.478 102.469,-69.8842"/>
<polygon fill="midnightblue" stroke="midnightblue" points="103.071,-73.3382 112.609,-68.7241 102.275,-66.3836 103.071,-73.3382"/>
</g>
<!-- Node34 -->
<g id="node34" class="node"><title>Node34</title>
<g id="a_node34"><a xlink:title=" ">
<polygon fill="white" stroke="#bfbfbf" points="169.768,-224.5 169.768,-243.5 305.768,-243.5 305.768,-224.5 169.768,-224.5"/>
<text text-anchor="middle" x="237.768" y="-231.5" font-family="Helvetica,sans-Serif" font-size="10.00">LinearMath/btIDebugDraw.h</text>
</a>
</g>
</g>
<!-- Node2&#45;&gt;Node34 -->
<g id="edge53" class="edge"><title>Node2&#45;&gt;Node34</title>
<path fill="none" stroke="midnightblue" d="M409.443,-280.444C374.378,-271.162 318.269,-256.309 279.803,-246.127"/>
<polygon fill="midnightblue" stroke="midnightblue" points="280.503,-242.692 269.941,-243.516 278.712,-249.459 280.503,-242.692"/>
</g>
<!-- Node35 -->
<g id="node35" class="node"><title>Node35</title>
<g id="a_node35"><a xlink:title=" ">
<polygon fill="white" stroke="#bfbfbf" points="323.768,-224.5 323.768,-243.5 429.768,-243.5 429.768,-224.5 323.768,-224.5"/>
<text text-anchor="middle" x="376.768" y="-231.5" font-family="Helvetica,sans-Serif" font-size="10.00">glm/gtc/type_ptr.hpp</text>
</a>
</g>
</g>
<!-- Node2&#45;&gt;Node35 -->
<g id="edge54" class="edge"><title>Node2&#45;&gt;Node35</title>
<path fill="none" stroke="midnightblue" d="M431.324,-280.324C421.621,-272.263 406.952,-260.077 395.268,-250.369"/>
<polygon fill="midnightblue" stroke="midnightblue" points="397.329,-247.532 387.401,-243.834 392.856,-252.916 397.329,-247.532"/>
</g>
<!-- Node4 -->
<g id="node4" class="node"><title>Node4</title>
<g id="a_node4"><a xlink:title=" ">
<polygon fill="white" stroke="#bfbfbf" points="794.268,-56.5 794.268,-75.5 921.268,-75.5 921.268,-56.5 794.268,-56.5"/>
<text text-anchor="middle" x="857.768" y="-63.5" font-family="Helvetica,sans-Serif" font-size="10.00">LinearMath/btTransform.h</text>
</a>
</g>
</g>
<!-- Node3&#45;&gt;Node4 -->
<g id="edge3" class="edge"><title>Node3&#45;&gt;Node4</title>
<path fill="none" stroke="midnightblue" d="M1377.7,-117.151C1363.29,-115.507 1346.2,-113.602 1330.77,-112 1189.6,-97.3457 1024.54,-82.0632 931.462,-73.6161"/>
<polygon fill="midnightblue" stroke="midnightblue" points="931.577,-70.1123 921.302,-72.6953 930.946,-77.0837 931.577,-70.1123"/>
</g>
<!-- Node5 -->
<g id="node5" class="node"><title>Node5</title>
<g id="a_node5"><a xlink:title=" ">
<polygon fill="white" stroke="#bfbfbf" points="1185.77,-56.5 1185.77,-75.5 1259.77,-75.5 1259.77,-56.5 1185.77,-56.5"/>
<text text-anchor="middle" x="1222.77" y="-63.5" font-family="Helvetica,sans-Serif" font-size="10.00">glm/vec3.hpp</text>
</a>
</g>
</g>
<!-- Node3&#45;&gt;Node5 -->
<g id="edge4" class="edge"><title>Node3&#45;&gt;Node5</title>
<path fill="none" stroke="midnightblue" d="M1380.98,-112.444C1348.94,-103.241 1297.83,-88.5617 1262.41,-78.3879"/>
<polygon fill="midnightblue" stroke="midnightblue" points="1263,-74.9132 1252.42,-75.5164 1261.06,-81.6412 1263,-74.9132"/>
</g>
<!-- Node6 -->
<g id="node6" class="node"><title>Node6</title>
<g id="a_node6"><a xlink:title=" ">
<polygon fill="white" stroke="#bfbfbf" points="1373.77,-56.5 1373.77,-75.5 1447.77,-75.5 1447.77,-56.5 1373.77,-56.5"/>
<text text-anchor="middle" x="1410.77" y="-63.5" font-family="Helvetica,sans-Serif" font-size="10.00">glm/vec4.hpp</text>
</a>
</g>
</g>
<!-- Node3&#45;&gt;Node6 -->
<g id="edge5" class="edge"><title>Node3&#45;&gt;Node6</title>
<path fill="none" stroke="midnightblue" d="M1410.77,-112.083C1410.77,-105.006 1410.77,-94.8611 1410.77,-85.9865"/>
<polygon fill="midnightblue" stroke="midnightblue" points="1414.27,-85.751 1410.77,-75.7511 1407.27,-85.7511 1414.27,-85.751"/>
</g>
<!-- Node7 -->
<g id="node7" class="node"><title>Node7</title>
<g id="a_node7"><a xlink:title=" ">
<polygon fill="white" stroke="#bfbfbf" points="1064.27,-56.5 1064.27,-75.5 1105.27,-75.5 1105.27,-56.5 1064.27,-56.5"/>
<text text-anchor="middle" x="1084.77" y="-63.5" font-family="Helvetica,sans-Serif" font-size="10.00">string</text>
</a>
</g>
</g>
<!-- Node3&#45;&gt;Node7 -->
<g id="edge6" class="edge"><title>Node3&#45;&gt;Node7</title>
<path fill="none" stroke="midnightblue" d="M1377.71,-115.525C1314.5,-105.053 1177.27,-82.3225 1115.73,-72.128"/>
<polygon fill="midnightblue" stroke="midnightblue" points="1115.93,-68.614 1105.49,-70.4327 1114.78,-75.5199 1115.93,-68.614"/>
</g>
<!-- Node9 -->
<g id="node9" class="node"><title>Node9</title>
<g id="a_node9"><a xlink:href="../../d2/d94/_input_8h.html" target="_top" xlink:title=" ">
<polygon fill="white" stroke="black" points="1460.77,-168.5 1460.77,-187.5 1506.77,-187.5 1506.77,-168.5 1460.77,-168.5"/>
<text text-anchor="middle" x="1483.77" y="-175.5" font-family="Helvetica,sans-Serif" font-size="10.00">Input.h</text>
</a>
</g>
</g>
<!-- Node8&#45;&gt;Node9 -->
<g id="edge8" class="edge"><title>Node8&#45;&gt;Node9</title>
<path fill="none" stroke="midnightblue" d="M597.367,-232.581C705.854,-230.762 1102.25,-222.036 1426.77,-188 1434.53,-187.186 1442.84,-186.035 1450.65,-184.826"/>
<polygon fill="midnightblue" stroke="midnightblue" points="1451.23,-188.278 1460.54,-183.228 1450.11,-181.368 1451.23,-188.278"/>
</g>
<!-- Node13 -->
<g id="node13" class="node"><title>Node13</title>
<g id="a_node13"><a xlink:href="../../d8/d34/_shader_8h.html" target="_top" xlink:title=" ">
<polygon fill="white" stroke="black" points="902.768,-168.5 902.768,-187.5 958.768,-187.5 958.768,-168.5 902.768,-168.5"/>
<text text-anchor="middle" x="930.768" y="-175.5" font-family="Helvetica,sans-Serif" font-size="10.00">Shader.h</text>
</a>
</g>
</g>
<!-- Node8&#45;&gt;Node13 -->
<g id="edge13" class="edge"><title>Node8&#45;&gt;Node13</title>
<path fill="none" stroke="midnightblue" d="M597.476,-228.718C662.188,-219.064 819.468,-195.603 892.425,-184.72"/>
<polygon fill="midnightblue" stroke="midnightblue" points="893.182,-188.145 902.556,-183.208 892.149,-181.222 893.182,-188.145"/>
</g>
<!-- Node26 -->
<g id="node26" class="node"><title>Node26</title>
<g id="a_node26"><a xlink:href="../../d5/db0/_sound_8h.html" target="_top" xlink:title=" ">
<polygon fill="white" stroke="black" points="198.268,-168.5 198.268,-187.5 251.268,-187.5 251.268,-168.5 198.268,-168.5"/>
<text text-anchor="middle" x="224.768" y="-175.5" font-family="Helvetica,sans-Serif" font-size="10.00">Sound.h</text>
</a>
</g>
</g>
<!-- Node8&#45;&gt;Node26 -->
<g id="edge33" class="edge"><title>Node8&#45;&gt;Node26</title>
<path fill="none" stroke="midnightblue" d="M540.03,-228.489C477.671,-218.7 330.03,-195.524 261.231,-184.724"/>
<polygon fill="midnightblue" stroke="midnightblue" points="261.702,-181.255 251.281,-183.162 260.617,-188.17 261.702,-181.255"/>
</g>
<!-- Node30 -->
<g id="node30" class="node"><title>Node30</title>
<g id="a_node30"><a xlink:href="../../de/dbf/_texture_8h.html" target="_top" xlink:title=" ">
<polygon fill="white" stroke="black" points="540.268,-168.5 540.268,-187.5 597.268,-187.5 597.268,-168.5 540.268,-168.5"/>
<text text-anchor="middle" x="568.768" y="-175.5" font-family="Helvetica,sans-Serif" font-size="10.00">Texture.h</text>
</a>
</g>
</g>
<!-- Node8&#45;&gt;Node30 -->
<g id="edge44" class="edge"><title>Node8&#45;&gt;Node30</title>
<path fill="none" stroke="midnightblue" d="M568.768,-224.083C568.768,-217.006 568.768,-206.861 568.768,-197.986"/>
<polygon fill="midnightblue" stroke="midnightblue" points="572.268,-197.751 568.768,-187.751 565.268,-197.751 572.268,-197.751"/>
</g>
<!-- Node9&#45;&gt;Node3 -->
<g id="edge9" class="edge"><title>Node9&#45;&gt;Node3</title>
<path fill="none" stroke="midnightblue" d="M1472.04,-168.324C1460.93,-160.107 1444.03,-147.602 1430.78,-137.807"/>
<polygon fill="midnightblue" stroke="midnightblue" points="1432.83,-134.967 1422.71,-131.834 1428.67,-140.595 1432.83,-134.967"/>
</g>
<!-- Node10 -->
<g id="node10" class="node"><title>Node10</title>
<g id="a_node10"><a xlink:href="../../d9/db9/_unique_vectors_8h.html" target="_top" xlink:title=" ">
<polygon fill="white" stroke="black" points="1616.27,-112.5 1616.27,-131.5 1705.27,-131.5 1705.27,-112.5 1616.27,-112.5"/>
<text text-anchor="middle" x="1660.77" y="-119.5" font-family="Helvetica,sans-Serif" font-size="10.00">UniqueVectors.h</text>
</a>
</g>
</g>
<!-- Node9&#45;&gt;Node10 -->
<g id="edge10" class="edge"><title>Node9&#45;&gt;Node10</title>
<path fill="none" stroke="midnightblue" d="M1506.91,-169.94C1536.33,-160.964 1587.54,-145.342 1622.74,-134.603"/>
<polygon fill="midnightblue" stroke="midnightblue" points="1624.11,-137.842 1632.66,-131.576 1622.07,-131.146 1624.11,-137.842"/>
</g>
<!-- Node11 -->
<g id="node11" class="node"><title>Node11</title>
<g id="a_node11"><a xlink:title=" ">
<polygon fill="white" stroke="#bfbfbf" points="1523.77,-112.5 1523.77,-131.5 1597.77,-131.5 1597.77,-112.5 1523.77,-112.5"/>
<text text-anchor="middle" x="1560.77" y="-119.5" font-family="Helvetica,sans-Serif" font-size="10.00">glm/vec2.hpp</text>
</a>
</g>
</g>
<!-- Node9&#45;&gt;Node11 -->
<g id="edge11" class="edge"><title>Node9&#45;&gt;Node11</title>
<path fill="none" stroke="midnightblue" d="M1496.14,-168.324C1507.93,-160.058 1525.9,-147.453 1539.9,-137.632"/>
<polygon fill="midnightblue" stroke="midnightblue" points="1542.25,-140.262 1548.43,-131.655 1538.23,-134.531 1542.25,-140.262"/>
</g>
<!-- Node12 -->
<g id="node12" class="node"><title>Node12</title>
<g id="a_node12"><a xlink:title=" ">
<polygon fill="white" stroke="#bfbfbf" points="1461.77,-112.5 1461.77,-131.5 1505.77,-131.5 1505.77,-112.5 1461.77,-112.5"/>
<text text-anchor="middle" x="1483.77" y="-119.5" font-family="Helvetica,sans-Serif" font-size="10.00">SDL.h</text>
</a>
</g>
</g>
<!-- Node9&#45;&gt;Node12 -->
<g id="edge12" class="edge"><title>Node9&#45;&gt;Node12</title>
<path fill="none" stroke="midnightblue" d="M1483.77,-168.083C1483.77,-161.006 1483.77,-150.861 1483.77,-141.986"/>
<polygon fill="midnightblue" stroke="midnightblue" points="1487.27,-141.751 1483.77,-131.751 1480.27,-141.751 1487.27,-141.751"/>
</g>
<!-- Node13&#45;&gt;Node5 -->
<g id="edge29" class="edge"><title>Node13&#45;&gt;Node5</title>
<path fill="none" stroke="midnightblue" d="M908.04,-168.479C879.906,-156.706 837.983,-134.374 857.768,-112 868.199,-100.203 1079.38,-79.859 1175.66,-71.1509"/>
<polygon fill="midnightblue" stroke="midnightblue" points="1176.06,-74.6286 1185.71,-70.2463 1175.44,-67.6568 1176.06,-74.6286"/>
</g>
<!-- Node13&#45;&gt;Node7 -->
<g id="edge31" class="edge"><title>Node13&#45;&gt;Node7</title>
<path fill="none" stroke="midnightblue" d="M959.147,-173.072C1014.83,-165.081 1134.02,-146.467 1145.77,-132 1160.95,-113.314 1135.15,-93.3351 1112.58,-80.5352"/>
<polygon fill="midnightblue" stroke="midnightblue" points="1114.01,-77.3313 1103.54,-75.6755 1110.69,-83.4957 1114.01,-77.3313"/>
</g>
<!-- Node14 -->
<g id="node14" class="node"><title>Node14</title>
<g id="a_node14"><a xlink:href="../../dc/d20/_component_8h.html" target="_top" xlink:title=" ">
<polygon fill="white" stroke="black" points="1279.77,-56.5 1279.77,-75.5 1353.77,-75.5 1353.77,-56.5 1279.77,-56.5"/>
<text text-anchor="middle" x="1316.77" y="-63.5" font-family="Helvetica,sans-Serif" font-size="10.00">Component.h</text>
</a>
</g>
</g>
<!-- Node13&#45;&gt;Node14 -->
<g id="edge14" class="edge"><title>Node13&#45;&gt;Node14</title>
<path fill="none" stroke="midnightblue" d="M958.833,-173.905C1049.69,-163.876 1329.99,-132.873 1330.77,-132 1342.27,-119.133 1335.56,-99.1268 1327.99,-84.7079"/>
<polygon fill="midnightblue" stroke="midnightblue" points="1330.86,-82.6794 1322.83,-75.7746 1324.8,-86.1836 1330.86,-82.6794"/>
</g>
<!-- Node16 -->
<g id="node16" class="node"><title>Node16</title>
<g id="a_node16"><a xlink:href="../../d0/d4b/_debug_8h.html" target="_top" xlink:title=" ">
<polygon fill="white" stroke="black" points="867.268,-112.5 867.268,-131.5 920.268,-131.5 920.268,-112.5 867.268,-112.5"/>
<text text-anchor="middle" x="893.768" y="-119.5" font-family="Helvetica,sans-Serif" font-size="10.00">Debug.h</text>
</a>
</g>
</g>
<!-- Node13&#45;&gt;Node16 -->
<g id="edge16" class="edge"><title>Node13&#45;&gt;Node16</title>
<path fill="none" stroke="midnightblue" d="M924.658,-168.083C919.485,-160.534 911.921,-149.495 905.573,-140.23"/>
<polygon fill="midnightblue" stroke="midnightblue" points="908.303,-138.022 899.764,-131.751 902.529,-141.979 908.303,-138.022"/>
</g>
<!-- Node13&#45;&gt;Node17 -->
<g id="edge17" class="edge"><title>Node13&#45;&gt;Node17</title>
<path fill="none" stroke="midnightblue" d="M959.01,-173.617C1024.78,-165.669 1187.52,-145.58 1260.18,-132.067"/>
<polygon fill="midnightblue" stroke="midnightblue" points="1261.07,-135.459 1270.23,-130.123 1259.74,-128.587 1261.07,-135.459"/>
</g>
<!-- Node18 -->
<g id="node18" class="node"><title>Node18</title>
<g id="a_node18"><a xlink:href="../../d3/d09/_material_8h.html" target="_top" xlink:title=" ">
<polygon fill="white" stroke="black" points="1193.27,-112.5 1193.27,-131.5 1252.27,-131.5 1252.27,-112.5 1193.27,-112.5"/>
<text text-anchor="middle" x="1222.77" y="-119.5" font-family="Helvetica,sans-Serif" font-size="10.00">Material.h</text>
</a>
</g>
</g>
<!-- Node13&#45;&gt;Node18 -->
<g id="edge19" class="edge"><title>Node13&#45;&gt;Node18</title>
<path fill="none" stroke="midnightblue" d="M959.072,-172.075C1005.16,-164.009 1099.28,-147.339 1178.77,-132 1180.2,-131.723 1181.66,-131.438 1183.14,-131.148"/>
<polygon fill="midnightblue" stroke="midnightblue" points="1183.84,-134.578 1192.96,-129.19 1182.47,-127.713 1183.84,-134.578"/>
</g>
<!-- Node19 -->
<g id="node19" class="node"><title>Node19</title>
<g id="a_node19"><a xlink:href="../../d4/d4a/_settings_8h.html" target="_top" xlink:title=" ">
<polygon fill="white" stroke="black" points="938.268,-112.5 938.268,-131.5 999.268,-131.5 999.268,-112.5 938.268,-112.5"/>
<text text-anchor="middle" x="968.768" y="-119.5" font-family="Helvetica,sans-Serif" font-size="10.00">Settings.h</text>
</a>
</g>
</g>
<!-- Node13&#45;&gt;Node19 -->
<g id="edge22" class="edge"><title>Node13&#45;&gt;Node19</title>
<path fill="none" stroke="midnightblue" d="M937.043,-168.083C942.41,-160.455 950.285,-149.264 956.846,-139.941"/>
<polygon fill="midnightblue" stroke="midnightblue" points="959.717,-141.943 962.609,-131.751 953.992,-137.915 959.717,-141.943"/>
</g>
<!-- Node20 -->
<g id="node20" class="node"><title>Node20</title>
<g id="a_node20"><a xlink:href="../../d2/d06/_shaders_8h.html" target="_top" xlink:title=" ">
<polygon fill="white" stroke="black" points="749.268,-112.5 749.268,-131.5 810.268,-131.5 810.268,-112.5 749.268,-112.5"/>
<text text-anchor="middle" x="779.768" y="-119.5" font-family="Helvetica,sans-Serif" font-size="10.00">Shaders.h</text>
</a>
</g>
</g>
<!-- Node13&#45;&gt;Node20 -->
<g id="edge23" class="edge"><title>Node13&#45;&gt;Node20</title>
<path fill="none" stroke="midnightblue" d="M906.841,-168.444C881.549,-159.399 841.465,-145.064 813.088,-134.916"/>
<polygon fill="midnightblue" stroke="midnightblue" points="814.177,-131.588 803.582,-131.516 811.819,-138.179 814.177,-131.588"/>
</g>
<!-- Node21 -->
<g id="node21" class="node"><title>Node21</title>
<g id="a_node21"><a xlink:title=" ">
<polygon fill="white" stroke="#bfbfbf" points="652.768,-56.5 652.768,-75.5 712.768,-75.5 712.768,-56.5 652.768,-56.5"/>
<text text-anchor="middle" x="682.768" y="-63.5" font-family="Helvetica,sans-Serif" font-size="10.00">GL/glew.h</text>
</a>
</g>
</g>
<!-- Node13&#45;&gt;Node21 -->
<g id="edge26" class="edge"><title>Node13&#45;&gt;Node21</title>
<path fill="none" stroke="midnightblue" d="M902.524,-175.688C863.377,-172.736 791.598,-163.148 739.768,-132 720.139,-120.204 703.66,-99.3792 693.549,-84.4785"/>
<polygon fill="midnightblue" stroke="midnightblue" points="696.232,-82.1831 687.855,-75.6965 690.359,-85.9913 696.232,-82.1831"/>
</g>
<!-- Node22 -->
<g id="node22" class="node"><title>Node22</title>
<g id="a_node22"><a xlink:title=" ">
<polygon fill="white" stroke="#bfbfbf" points="437.768,-56.5 437.768,-75.5 493.768,-75.5 493.768,-56.5 437.768,-56.5"/>
<text text-anchor="middle" x="465.768" y="-63.5" font-family="Helvetica,sans-Serif" font-size="10.00">algorithm</text>
</a>
</g>
</g>
<!-- Node13&#45;&gt;Node22 -->
<g id="edge27" class="edge"><title>Node13&#45;&gt;Node22</title>
<path fill="none" stroke="midnightblue" d="M902.441,-171.658C860.754,-163.681 780.49,-147.888 712.768,-132 638.207,-114.507 551.825,-91.0316 503.511,-77.6083"/>
<polygon fill="midnightblue" stroke="midnightblue" points="504.37,-74.2143 493.797,-74.9023 502.491,-80.9575 504.37,-74.2143"/>
</g>
<!-- Node23 -->
<g id="node23" class="node"><title>Node23</title>
<g id="a_node23"><a xlink:title=" ">
<polygon fill="white" stroke="#bfbfbf" points="1017.27,-112.5 1017.27,-131.5 1066.27,-131.5 1066.27,-112.5 1017.27,-112.5"/>
<text text-anchor="middle" x="1041.77" y="-119.5" font-family="Helvetica,sans-Serif" font-size="10.00">fstream</text>
</a>
</g>
</g>
<!-- Node13&#45;&gt;Node23 -->
<g id="edge28" class="edge"><title>Node13&#45;&gt;Node23</title>
<path fill="none" stroke="midnightblue" d="M948.602,-168.324C966.483,-159.625 994.243,-146.12 1014.81,-136.113"/>
<polygon fill="midnightblue" stroke="midnightblue" points="1016.52,-139.177 1023.98,-131.655 1013.45,-132.882 1016.52,-139.177"/>
</g>
<!-- Node24 -->
<g id="node24" class="node"><title>Node24</title>
<g id="a_node24"><a xlink:title=" ">
<polygon fill="white" stroke="#bfbfbf" points="1084.77,-112.5 1084.77,-131.5 1136.77,-131.5 1136.77,-112.5 1084.77,-112.5"/>
<text text-anchor="middle" x="1110.77" y="-119.5" font-family="Helvetica,sans-Serif" font-size="10.00">sstream</text>
</a>
</g>
</g>
<!-- Node13&#45;&gt;Node24 -->
<g id="edge30" class="edge"><title>Node13&#45;&gt;Node24</title>
<path fill="none" stroke="midnightblue" d="M958.893,-168.563C990.21,-159.167 1040.9,-143.96 1075.01,-133.727"/>
<polygon fill="midnightblue" stroke="midnightblue" points="1076.02,-137.078 1084.59,-130.852 1074.01,-130.373 1076.02,-137.078"/>
</g>
<!-- Node13&#45;&gt;Node25 -->
<g id="edge32" class="edge"><title>Node13&#45;&gt;Node25</title>
<path fill="none" stroke="midnightblue" d="M902.419,-176.292C776.934,-173.014 274.789,-158.343 209.768,-132 184.242,-121.659 161.17,-99.1767 147.311,-83.5701"/>
<polygon fill="midnightblue" stroke="midnightblue" points="149.763,-81.0515 140.602,-75.7278 144.443,-85.6019 149.763,-81.0515"/>
</g>
<!-- Node15 -->
<g id="node15" class="node"><title>Node15</title>
<g id="a_node15"><a xlink:title=" ">
<polygon fill="white" stroke="#bfbfbf" points="1292.27,-0.5 1292.27,-19.5 1341.27,-19.5 1341.27,-0.5 1292.27,-0.5"/>
<text text-anchor="middle" x="1316.77" y="-7.5" font-family="Helvetica,sans-Serif" font-size="10.00">stdint.h</text>
</a>
</g>
</g>
<!-- Node14&#45;&gt;Node15 -->
<g id="edge15" class="edge"><title>Node14&#45;&gt;Node15</title>
<path fill="none" stroke="midnightblue" d="M1316.77,-56.083C1316.77,-49.0059 1316.77,-38.8611 1316.77,-29.9865"/>
<polygon fill="midnightblue" stroke="midnightblue" points="1320.27,-29.751 1316.77,-19.7511 1313.27,-29.7511 1320.27,-29.751"/>
</g>
<!-- Node17&#45;&gt;Node5 -->
<g id="edge18" class="edge"><title>Node17&#45;&gt;Node5</title>
<path fill="none" stroke="midnightblue" d="M1284.04,-112.324C1272.93,-104.107 1256.03,-91.6017 1242.78,-81.8069"/>
<polygon fill="midnightblue" stroke="midnightblue" points="1244.83,-78.9671 1234.71,-75.8339 1240.67,-84.5948 1244.83,-78.9671"/>
</g>
<!-- Node18&#45;&gt;Node5 -->
<g id="edge21" class="edge"><title>Node18&#45;&gt;Node5</title>
<path fill="none" stroke="midnightblue" d="M1222.77,-112.083C1222.77,-105.006 1222.77,-94.8611 1222.77,-85.9865"/>
<polygon fill="midnightblue" stroke="midnightblue" points="1226.27,-85.751 1222.77,-75.7511 1219.27,-85.7511 1226.27,-85.751"/>
</g>
<!-- Node18&#45;&gt;Node14 -->
<g id="edge20" class="edge"><title>Node18&#45;&gt;Node14</title>
<path fill="none" stroke="midnightblue" d="M1237.87,-112.324C1252.67,-103.822 1275.46,-90.7288 1292.75,-80.7975"/>
<polygon fill="midnightblue" stroke="midnightblue" points="1294.77,-83.6707 1301.7,-75.6545 1291.29,-77.6009 1294.77,-83.6707"/>
</g>
<!-- Node20&#45;&gt;Node7 -->
<g id="edge25" class="edge"><title>Node20&#45;&gt;Node7</title>
<path fill="none" stroke="midnightblue" d="M810.732,-114.697C815.431,-113.773 820.225,-112.847 824.768,-112 907.629,-96.5459 1005.69,-80.0601 1054.3,-72.0092"/>
<polygon fill="midnightblue" stroke="midnightblue" points="1054.88,-75.461 1064.17,-70.377 1053.74,-68.5547 1054.88,-75.461"/>
</g>
<!-- Node20&#45;&gt;Node21 -->
<g id="edge24" class="edge"><title>Node20&#45;&gt;Node21</title>
<path fill="none" stroke="midnightblue" d="M764.183,-112.324C748.768,-103.743 724.955,-90.486 707.058,-80.5224"/>
<polygon fill="midnightblue" stroke="midnightblue" points="708.753,-77.4606 698.314,-75.6545 705.349,-83.5767 708.753,-77.4606"/>
</g>
<!-- Node26&#45;&gt;Node2 -->
<g id="edge34" class="edge"><title>Node26&#45;&gt;Node2</title>
<path fill="none" stroke="midnightblue" d="M251.343,-180.645C303.172,-184.453 414.785,-195.804 438.768,-224 449.394,-236.493 448.932,-255.723 446.541,-270.029"/>
<polygon fill="midnightblue" stroke="midnightblue" points="443.03,-269.717 444.385,-280.225 449.878,-271.165 443.03,-269.717"/>
</g>
<!-- Node26&#45;&gt;Node22 -->
<g id="edge42" class="edge"><title>Node26&#45;&gt;Node22</title>
<path fill="none" stroke="midnightblue" d="M218.624,-168.34C209.809,-154.759 196.066,-128.32 209.768,-112 223.607,-95.5151 359.013,-78.6069 427.095,-71.0628"/>
<polygon fill="midnightblue" stroke="midnightblue" points="427.855,-74.5007 437.415,-69.934 427.093,-67.5422 427.855,-74.5007"/>
</g>
<!-- Node26&#45;&gt;Node25 -->
<g id="edge43" class="edge"><title>Node26&#45;&gt;Node25</title>
<path fill="none" stroke="midnightblue" d="M197.868,-170.463C178.018,-164.128 152.214,-152.401 138.768,-132 129.911,-118.563 129.351,-100.001 130.602,-86.1513"/>
<polygon fill="midnightblue" stroke="midnightblue" points="134.124,-86.2092 131.938,-75.8424 127.182,-85.3098 134.124,-86.2092"/>
</g>
<!-- Node26&#45;&gt;Node27 -->
<g id="edge35" class="edge"><title>Node26&#45;&gt;Node27</title>
<path fill="none" stroke="midnightblue" d="M230.382,-168.083C235.135,-160.534 242.086,-149.495 247.919,-140.23"/>
<polygon fill="midnightblue" stroke="midnightblue" points="250.891,-142.078 253.258,-131.751 244.968,-138.349 250.891,-142.078"/>
</g>
<!-- Node29 -->
<g id="node29" class="node"><title>Node29</title>
<g id="a_node29"><a xlink:title=" ">
<polygon fill="white" stroke="#bfbfbf" points="13.2676,-112.5 13.2676,-131.5 86.2676,-131.5 86.2676,-112.5 13.2676,-112.5"/>
<text text-anchor="middle" x="49.7676" y="-119.5" font-family="Helvetica,sans-Serif" font-size="10.00">SDL_mixer.h</text>
</a>
</g>
</g>
<!-- Node26&#45;&gt;Node29 -->
<g id="edge41" class="edge"><title>Node26&#45;&gt;Node29</title>
<path fill="none" stroke="midnightblue" d="M198.189,-168.799C168.64,-159.681 120.691,-144.885 87.3178,-134.587"/>
<polygon fill="midnightblue" stroke="midnightblue" points="88.0526,-131.151 77.4651,-131.547 85.9886,-137.84 88.0526,-131.151"/>
</g>
<!-- Node27&#45;&gt;Node4 -->
<g id="edge36" class="edge"><title>Node27&#45;&gt;Node4</title>
<path fill="none" stroke="midnightblue" d="M298.827,-113.305C301.847,-112.828 304.852,-112.386 307.768,-112 397.812,-100.077 656.204,-81.129 784.16,-72.1035"/>
<polygon fill="midnightblue" stroke="midnightblue" points="784.533,-75.586 794.263,-71.3924 784.042,-68.6032 784.533,-75.586"/>
</g>
<!-- Node27&#45;&gt;Node5 -->
<g id="edge39" class="edge"><title>Node27&#45;&gt;Node5</title>
<path fill="none" stroke="midnightblue" d="M298.812,-113.183C301.836,-112.735 304.846,-112.332 307.768,-112 664.054,-71.5161 755.911,-98.7576 1113.77,-76 1134.01,-74.7129 1156.33,-72.9332 1175.48,-71.296"/>
<polygon fill="midnightblue" stroke="midnightblue" points="1175.8,-74.7811 1185.46,-70.4308 1175.2,-67.8073 1175.8,-74.7811"/>
</g>
<!-- Node27&#45;&gt;Node22 -->
<g id="edge37" class="edge"><title>Node27&#45;&gt;Node22</title>
<path fill="none" stroke="midnightblue" d="M291.567,-112.444C328.508,-102.807 388.467,-87.1653 427.511,-76.98"/>
<polygon fill="midnightblue" stroke="midnightblue" points="428.653,-80.2994 437.445,-74.3884 426.886,-73.526 428.653,-80.2994"/>
</g>
<!-- Node27&#45;&gt;Node25 -->
<g id="edge40" class="edge"><title>Node27&#45;&gt;Node25</title>
<path fill="none" stroke="midnightblue" d="M238.961,-112.444C218.481,-103.596 186.285,-89.6875 162.903,-79.5865"/>
<polygon fill="midnightblue" stroke="midnightblue" points="164.05,-76.2692 153.482,-75.5164 161.274,-82.6953 164.05,-76.2692"/>
</g>
<!-- Node28 -->
<g id="node28" class="node"><title>Node28</title>
<g id="a_node28"><a xlink:title=" ">
<polygon fill="white" stroke="#bfbfbf" points="200.768,-56.5 200.768,-75.5 316.768,-75.5 316.768,-56.5 200.768,-56.5"/>
<text text-anchor="middle" x="258.768" y="-63.5" font-family="Helvetica,sans-Serif" font-size="10.00">glm/gtc/quaternion.hpp</text>
</a>
</g>
</g>
<!-- Node27&#45;&gt;Node28 -->
<g id="edge38" class="edge"><title>Node27&#45;&gt;Node28</title>
<path fill="none" stroke="midnightblue" d="M258.768,-112.083C258.768,-105.006 258.768,-94.8611 258.768,-85.9865"/>
<polygon fill="midnightblue" stroke="midnightblue" points="262.268,-85.751 258.768,-75.7511 255.268,-85.7511 262.268,-85.751"/>
</g>
<!-- Node30&#45;&gt;Node7 -->
<g id="edge50" class="edge"><title>Node30&#45;&gt;Node7</title>
<path fill="none" stroke="midnightblue" d="M587.282,-168.311C618.168,-154.195 682.479,-126.413 739.768,-112 853.603,-83.36 993.417,-72.2707 1054.17,-68.59"/>
<polygon fill="midnightblue" stroke="midnightblue" points="1054.46,-72.0794 1064.24,-68.0049 1054.05,-65.0912 1054.46,-72.0794"/>
</g>
<!-- Node30&#45;&gt;Node16 -->
<g id="edge51" class="edge"><title>Node30&#45;&gt;Node16</title>
<path fill="none" stroke="midnightblue" d="M597.324,-172.255C656.308,-162.455 791.536,-139.986 856.966,-129.115"/>
<polygon fill="midnightblue" stroke="midnightblue" points="857.929,-132.503 867.22,-127.411 856.781,-125.597 857.929,-132.503"/>
</g>
<!-- Node30&#45;&gt;Node21 -->
<g id="edge45" class="edge"><title>Node30&#45;&gt;Node21</title>
<path fill="none" stroke="midnightblue" d="M577.713,-168.368C596.859,-149.894 642.046,-106.293 666.451,-82.7436"/>
<polygon fill="midnightblue" stroke="midnightblue" points="669.098,-85.0538 673.864,-75.5914 664.237,-80.0165 669.098,-85.0538"/>
</g>
<!-- Node30&#45;&gt;Node22 -->
<g id="edge48" class="edge"><title>Node30&#45;&gt;Node22</title>
<path fill="none" stroke="midnightblue" d="M568.178,-168.456C566.843,-155.033 562.533,-128.807 548.768,-112 536.699,-97.2654 518.487,-86.6359 502.195,-79.4205"/>
<polygon fill="midnightblue" stroke="midnightblue" points="503.463,-76.1574 492.885,-75.5615 500.782,-82.6239 503.463,-76.1574"/>
</g>
<!-- Node30&#45;&gt;Node27 -->
<g id="edge52" class="edge"><title>Node30&#45;&gt;Node27</title>
<path fill="none" stroke="midnightblue" d="M540.12,-170.827C535.334,-169.846 530.416,-168.87 525.768,-168 432.353,-150.519 406.177,-148.957 308.835,-132.156"/>
<polygon fill="midnightblue" stroke="midnightblue" points="309.32,-128.688 298.868,-130.426 308.122,-135.585 309.32,-128.688"/>
</g>
<!-- Node31 -->
<g id="node31" class="node"><title>Node31</title>
<g id="a_node31"><a xlink:title=" ">
<polygon fill="white" stroke="#bfbfbf" points="370.268,-112.5 370.268,-131.5 445.268,-131.5 445.268,-112.5 370.268,-112.5"/>
<text text-anchor="middle" x="407.768" y="-119.5" font-family="Helvetica,sans-Serif" font-size="10.00">SDL_image.h</text>
</a>
</g>
</g>
<!-- Node30&#45;&gt;Node31 -->
<g id="edge46" class="edge"><title>Node30&#45;&gt;Node31</title>
<path fill="none" stroke="midnightblue" d="M543.257,-168.444C516.172,-159.359 473.178,-144.939 442.899,-134.783"/>
<polygon fill="midnightblue" stroke="midnightblue" points="443.753,-131.378 433.159,-131.516 441.527,-138.015 443.753,-131.378"/>
</g>
<!-- Node32 -->
<g id="node32" class="node"><title>Node32</title>
<g id="a_node32"><a xlink:title=" ">
<polygon fill="white" stroke="#bfbfbf" points="463.268,-112.5 463.268,-131.5 540.268,-131.5 540.268,-112.5 463.268,-112.5"/>
<text text-anchor="middle" x="501.768" y="-119.5" font-family="Helvetica,sans-Serif" font-size="10.00">SDL_opengl.h</text>
</a>
</g>
</g>
<!-- Node30&#45;&gt;Node32 -->
<g id="edge47" class="edge"><title>Node30&#45;&gt;Node32</title>
<path fill="none" stroke="midnightblue" d="M558.003,-168.324C548.001,-160.263 532.881,-148.077 520.837,-138.369"/>
<polygon fill="midnightblue" stroke="midnightblue" points="522.71,-135.384 512.728,-131.834 518.318,-140.834 522.71,-135.384"/>
</g>
<!-- Node33 -->
<g id="node33" class="node"><title>Node33</title>
<g id="a_node33"><a xlink:title=" ">
<polygon fill="white" stroke="#bfbfbf" points="317.268,-112.5 317.268,-131.5 352.268,-131.5 352.268,-112.5 317.268,-112.5"/>
<text text-anchor="middle" x="334.768" y="-119.5" font-family="Helvetica,sans-Serif" font-size="10.00">map</text>
</a>
</g>
</g>
<!-- Node30&#45;&gt;Node33 -->
<g id="edge49" class="edge"><title>Node30&#45;&gt;Node33</title>
<path fill="none" stroke="midnightblue" d="M539.884,-170.953C492.048,-160.911 398.641,-141.181 362.052,-131.98"/>
<polygon fill="midnightblue" stroke="midnightblue" points="362.863,-128.574 352.299,-129.389 361.065,-135.34 362.863,-128.574"/>
</g>
<!-- Node36&#45;&gt;Node3 -->
<g id="edge59" class="edge"><title>Node36&#45;&gt;Node3</title>
<path fill="none" stroke="midnightblue" d="M1394.91,-168.083C1397.45,-160.849 1401.12,-150.409 1404.29,-141.397"/>
<polygon fill="midnightblue" stroke="midnightblue" points="1407.67,-142.346 1407.69,-131.751 1401.07,-140.023 1407.67,-142.346"/>
</g>
<!-- Node36&#45;&gt;Node12 -->
<g id="edge60" class="edge"><title>Node36&#45;&gt;Node12</title>
<path fill="none" stroke="midnightblue" d="M1406.55,-168.324C1421.03,-159.822 1443.34,-146.729 1460.26,-136.797"/>
<polygon fill="midnightblue" stroke="midnightblue" points="1462.17,-139.735 1469.02,-131.655 1458.63,-133.698 1462.17,-139.735"/>
</g>
<!-- Node36&#45;&gt;Node16 -->
<g id="edge58" class="edge"><title>Node36&#45;&gt;Node16</title>
<path fill="none" stroke="midnightblue" d="M1366.23,-175.908C1297.31,-172.666 1101.65,-161.53 930.374,-132.047"/>
<polygon fill="midnightblue" stroke="midnightblue" points="930.881,-128.582 920.428,-130.309 929.676,-135.478 930.881,-128.582"/>
</g>
</g>
</svg>
