<?xml version="1.0" encoding="UTF-8" standalone="no"?>
<!DOCTYPE svg PUBLIC "-//W3C//DTD SVG 1.1//EN"
 "http://www.w3.org/Graphics/SVG/1.1/DTD/svg11.dtd">
<!-- Generated by graphviz version 2.38.0 (20140413.2041)
 -->
<!-- Title: EntityWrapper::EntityVitals Pages: 1 -->
<svg width="381pt" height="420pt"
 viewBox="0.00 0.00 380.50 420.00" xmlns="http://www.w3.org/2000/svg" xmlns:xlink="http://www.w3.org/1999/xlink">
<g id="graph0" class="graph" transform="scale(1 1) rotate(0) translate(4 416)">
<title>EntityWrapper::EntityVitals</title>
<polygon fill="white" stroke="none" points="-4,4 -4,-416 376.5,-416 376.5,4 -4,4"/>
<!-- Node1 -->
<g id="node1" class="node"><title>Node1</title>
<g id="a_node1"><a xlink:title=" ">
<polygon fill="#bfbfbf" stroke="black" points="155,-0.5 155,-19.5 290,-19.5 290,-0.5 155,-0.5"/>
<text text-anchor="middle" x="222.5" y="-7.5" font-family="Helvetica,sans-Serif" font-size="10.00">EntityWrapper::EntityVitals</text>
</a>
</g>
</g>
<!-- Node2 -->
<g id="node2" class="node"><title>Node2</title>
<g id="a_node2"><a xlink:href="../../d5/d44/class_physics_world.html" target="_top" xlink:title=" ">
<polygon fill="white" stroke="black" points="75,-67.5 75,-86.5 152,-86.5 152,-67.5 75,-67.5"/>
<text text-anchor="middle" x="113.5" y="-74.5" font-family="Helvetica,sans-Serif" font-size="10.00">PhysicsWorld</text>
</a>
</g>
</g>
<!-- Node2&#45;&gt;Node1 -->
<g id="edge1" class="edge"><title>Node2&#45;&gt;Node1</title>
<path fill="none" stroke="#9a32cd" stroke-dasharray="5,2" d="M125.847,-59.3237C131.984,-51.9724 139.919,-43.7229 148.5,-38 160.674,-29.8811 175.599,-23.8323 188.848,-19.5414"/>
<polygon fill="#9a32cd" stroke="#9a32cd" points="122.975,-57.3139 119.537,-67.3356 128.474,-61.6449 122.975,-57.3139"/>
<text text-anchor="middle" x="171" y="-41" font-family="Helvetica,sans-Serif" font-size="10.00"> thisWorld</text>
</g>
<!-- Node3 -->
<g id="node3" class="node"><title>Node3</title>
<g id="a_node3"><a xlink:href="../../d1/da2/class_debug_drawer.html" target="_top" xlink:title=" ">
<polygon fill="white" stroke="black" points="76.5,-134.5 76.5,-153.5 150.5,-153.5 150.5,-134.5 76.5,-134.5"/>
<text text-anchor="middle" x="113.5" y="-141.5" font-family="Helvetica,sans-Serif" font-size="10.00">DebugDrawer</text>
</a>
</g>
</g>
<!-- Node3&#45;&gt;Node2 -->
<g id="edge2" class="edge"><title>Node3&#45;&gt;Node2</title>
<path fill="none" stroke="#9a32cd" stroke-dasharray="5,2" d="M113.5,-124.037C113.5,-111.67 113.5,-96.1198 113.5,-86.6273"/>
<polygon fill="#9a32cd" stroke="#9a32cd" points="110,-124.234 113.5,-134.234 117,-124.234 110,-124.234"/>
<text text-anchor="middle" x="143.5" y="-108" font-family="Helvetica,sans-Serif" font-size="10.00"> debugDrawer</text>
</g>
<!-- Node4 -->
<g id="node4" class="node"><title>Node4</title>
<g id="a_node4"><a xlink:title=" ">
<polygon fill="white" stroke="#bfbfbf" points="59,-201.5 59,-220.5 136,-220.5 136,-201.5 59,-201.5"/>
<text text-anchor="middle" x="97.5" y="-208.5" font-family="Helvetica,sans-Serif" font-size="10.00">btIDebugDraw</text>
</a>
</g>
</g>
<!-- Node4&#45;&gt;Node3 -->
<g id="edge3" class="edge"><title>Node4&#45;&gt;Node3</title>
<path fill="none" stroke="midnightblue" d="M102.075,-191.415C105.134,-178.988 109.016,-163.217 111.376,-153.627"/>
<polygon fill="midnightblue" stroke="midnightblue" points="98.6495,-190.687 99.6578,-201.234 105.447,-192.36 98.6495,-190.687"/>
</g>
<!-- Node5 -->
<g id="node5" class="node"><title>Node5</title>
<g id="a_node5"><a xlink:href="../../d1/d51/class_shader.html" target="_top" xlink:title=" ">
<polygon fill="white" stroke="black" points="154,-201.5 154,-220.5 201,-220.5 201,-201.5 154,-201.5"/>
<text text-anchor="middle" x="177.5" y="-208.5" font-family="Helvetica,sans-Serif" font-size="10.00">Shader</text>
</a>
</g>
</g>
<!-- Node5&#45;&gt;Node3 -->
<g id="edge4" class="edge"><title>Node5&#45;&gt;Node3</title>
<path fill="none" stroke="#9a32cd" stroke-dasharray="5,2" d="M161.743,-193.997C149.192,-181.25 132.104,-163.895 121.995,-153.627"/>
<polygon fill="#9a32cd" stroke="#9a32cd" points="159.359,-196.564 168.869,-201.234 164.347,-191.652 159.359,-196.564"/>
<text text-anchor="middle" x="174.5" y="-175" font-family="Helvetica,sans-Serif" font-size="10.00"> thisShader</text>
</g>
<!-- Node6 -->
<g id="node6" class="node"><title>Node6</title>
<g id="a_node6"><a xlink:href="../../d2/d00/class_component.html" target="_top" xlink:title=" ">
<polygon fill="white" stroke="black" points="0,-268.5 0,-287.5 115,-287.5 115,-268.5 0,-268.5"/>
<text text-anchor="middle" x="57.5" y="-275.5" font-family="Helvetica,sans-Serif" font-size="10.00">Component&lt; Shader &gt;</text>
</a>
</g>
</g>
<!-- Node6&#45;&gt;Node5 -->
<g id="edge5" class="edge"><title>Node6&#45;&gt;Node5</title>
<path fill="none" stroke="midnightblue" d="M82.4995,-263.459C106.289,-250.573 141.366,-231.573 161.573,-220.627"/>
<polygon fill="midnightblue" stroke="midnightblue" points="80.8097,-260.393 73.6837,-268.234 84.1437,-266.548 80.8097,-260.393"/>
</g>
<!-- Node7 -->
<g id="node7" class="node"><title>Node7</title>
<g id="a_node7"><a xlink:href="../../d5/d79/class_component_interface.html" target="_top" xlink:title=" ">
<polygon fill="white" stroke="black" points="14,-392.5 14,-411.5 117,-411.5 117,-392.5 14,-392.5"/>
<text text-anchor="middle" x="65.5" y="-399.5" font-family="Helvetica,sans-Serif" font-size="10.00">ComponentInterface</text>
</a>
</g>
</g>
<!-- Node7&#45;&gt;Node6 -->
<g id="edge6" class="edge"><title>Node7&#45;&gt;Node6</title>
<path fill="none" stroke="midnightblue" d="M63.1478,-382.087C62.1924,-373.788 61.1602,-363.923 60.5,-355 58.707,-330.77 57.9417,-302.109 57.653,-287.904"/>
<polygon fill="midnightblue" stroke="midnightblue" points="59.6945,-382.686 64.3611,-392.198 66.6446,-381.852 59.6945,-382.686"/>
</g>
<!-- Node8 -->
<g id="node8" class="node"><title>Node8</title>
<g id="a_node8"><a xlink:href="../../d2/d00/class_component.html" target="_top" xlink:title=" ">
<polygon fill="white" stroke="black" points="70,-335.5 70,-354.5 159,-354.5 159,-335.5 70,-335.5"/>
<text text-anchor="middle" x="114.5" y="-342.5" font-family="Helvetica,sans-Serif" font-size="10.00">Component&lt; T &gt;</text>
</a>
</g>
</g>
<!-- Node7&#45;&gt;Node8 -->
<g id="edge8" class="edge"><title>Node7&#45;&gt;Node8</title>
<path fill="none" stroke="midnightblue" d="M79.9077,-384.828C88.682,-374.979 99.549,-362.782 106.736,-354.715"/>
<polygon fill="midnightblue" stroke="midnightblue" points="77.195,-382.611 73.1563,-392.406 82.4217,-387.268 77.195,-382.611"/>
</g>
<!-- Node8&#45;&gt;Node6 -->
<g id="edge7" class="edge"><title>Node8&#45;&gt;Node6</title>
<path fill="none" stroke="orange" stroke-dasharray="5,2" d="M100.149,-327.635C89.0015,-314.923 73.9842,-297.798 65.0655,-287.627"/>
<polygon fill="orange" stroke="orange" points="97.5879,-330.023 106.813,-335.234 102.851,-325.408 97.5879,-330.023"/>
<text text-anchor="middle" x="115.5" y="-309" font-family="Helvetica,sans-Serif" font-size="10.00"> &lt; Shader &gt;</text>
</g>
<!-- Node9 -->
<g id="node9" class="node"><title>Node9</title>
<g id="a_node9"><a xlink:title=" ">
<polygon fill="white" stroke="#bfbfbf" points="133.5,-268.5 133.5,-287.5 221.5,-287.5 221.5,-268.5 133.5,-268.5"/>
<text text-anchor="middle" x="177.5" y="-275.5" font-family="Helvetica,sans-Serif" font-size="10.00">SHADER_TYPE</text>
</a>
</g>
</g>
<!-- Node9&#45;&gt;Node5 -->
<g id="edge9" class="edge"><title>Node9&#45;&gt;Node5</title>
<path fill="none" stroke="#9a32cd" stroke-dasharray="5,2" d="M177.5,-258.037C177.5,-245.67 177.5,-230.12 177.5,-220.627"/>
<polygon fill="#9a32cd" stroke="#9a32cd" points="174,-258.234 177.5,-268.234 181,-258.234 174,-258.234"/>
<text text-anchor="middle" x="204.5" y="-242" font-family="Helvetica,sans-Serif" font-size="10.00"> shaderType</text>
</g>
<!-- Node10 -->
<g id="node10" class="node"><title>Node10</title>
<g id="a_node10"><a xlink:title=" ">
<polygon fill="white" stroke="#bfbfbf" points="239.5,-268.5 239.5,-287.5 327.5,-287.5 327.5,-268.5 239.5,-268.5"/>
<text text-anchor="middle" x="283.5" y="-275.5" font-family="Helvetica,sans-Serif" font-size="10.00">SHADER_TASK</text>
</a>
</g>
</g>
<!-- Node10&#45;&gt;Node5 -->
<g id="edge10" class="edge"><title>Node10&#45;&gt;Node5</title>
<path fill="none" stroke="#9a32cd" stroke-dasharray="5,2" d="M266.385,-261.841C257.531,-254.425 246.332,-245.681 235.5,-239 223.967,-231.887 210.254,-225.421 199.058,-220.602"/>
<polygon fill="#9a32cd" stroke="#9a32cd" points="264.199,-264.576 274.067,-268.433 268.758,-259.264 264.199,-264.576"/>
<text text-anchor="middle" x="279" y="-242" font-family="Helvetica,sans-Serif" font-size="10.00"> currentTask</text>
</g>
<!-- Node11 -->
<g id="node11" class="node"><title>Node11</title>
<g id="a_node11"><a xlink:href="../../d6/db5/class_scene.html" target="_top" xlink:title=" ">
<polygon fill="white" stroke="black" points="170.5,-67.5 170.5,-86.5 214.5,-86.5 214.5,-67.5 170.5,-67.5"/>
<text text-anchor="middle" x="192.5" y="-74.5" font-family="Helvetica,sans-Serif" font-size="10.00">Scene</text>
</a>
</g>
</g>
<!-- Node11&#45;&gt;Node1 -->
<g id="edge11" class="edge"><title>Node11&#45;&gt;Node1</title>
<path fill="none" stroke="#9a32cd" stroke-dasharray="5,2" d="M194.645,-57.1587C195.831,-50.8568 197.667,-43.9314 200.5,-38 203.732,-31.2344 208.994,-24.6883 213.562,-19.7363"/>
<polygon fill="#9a32cd" stroke="#9a32cd" points="191.119,-57.0776 193.133,-67.4792 198.045,-58.0918 191.119,-57.0776"/>
<text text-anchor="middle" x="215.5" y="-41" font-family="Helvetica,sans-Serif" font-size="10.00"> scene</text>
</g>
<!-- Node12 -->
<g id="node12" class="node"><title>Node12</title>
<g id="a_node12"><a xlink:href="../../db/d2b/class_settings.html" target="_top" xlink:title=" ">
<polygon fill="white" stroke="black" points="233,-67.5 233,-86.5 286,-86.5 286,-67.5 233,-67.5"/>
<text text-anchor="middle" x="259.5" y="-74.5" font-family="Helvetica,sans-Serif" font-size="10.00">Settings</text>
</a>
</g>
</g>
<!-- Node12&#45;&gt;Node1 -->
<g id="edge12" class="edge"><title>Node12&#45;&gt;Node1</title>
<path fill="none" stroke="#9a32cd" stroke-dasharray="5,2" d="M249.558,-58.5347C242.395,-45.9499 233.035,-29.5072 227.411,-19.6273"/>
<polygon fill="#9a32cd" stroke="#9a32cd" points="246.521,-60.2746 254.51,-67.2338 252.605,-56.8117 246.521,-60.2746"/>
<text text-anchor="middle" x="278.5" y="-41" font-family="Helvetica,sans-Serif" font-size="10.00"> currentSettings</text>
</g>
<!-- Node13 -->
<g id="node13" class="node"><title>Node13</title>
<g id="a_node13"><a xlink:href="../../db/d74/class_text_map.html" target="_top" xlink:title=" ">
<polygon fill="white" stroke="black" points="318.5,-67.5 318.5,-86.5 372.5,-86.5 372.5,-67.5 318.5,-67.5"/>
<text text-anchor="middle" x="345.5" y="-74.5" font-family="Helvetica,sans-Serif" font-size="10.00">TextMap</text>
</a>
</g>
</g>
<!-- Node13&#45;&gt;Node1 -->
<g id="edge13" class="edge"><title>Node13&#45;&gt;Node1</title>
<path fill="none" stroke="#9a32cd" stroke-dasharray="5,2" d="M336.286,-58.791C331.558,-51.4281 325.17,-43.3193 317.5,-38 305.101,-29.4015 290.001,-23.5241 275.521,-19.513"/>
<polygon fill="#9a32cd" stroke="#9a32cd" points="333.285,-60.5923 341.359,-67.4522 339.325,-57.0545 333.285,-60.5923"/>
<text text-anchor="middle" x="340.5" y="-41" font-family="Helvetica,sans-Serif" font-size="10.00"> map</text>
</g>
</g>
</svg>
