<?xml version="1.0" encoding="UTF-8" standalone="no"?>
<!DOCTYPE svg PUBLIC "-//W3C//DTD SVG 1.1//EN"
 "http://www.w3.org/Graphics/SVG/1.1/DTD/svg11.dtd">
<!-- Generated by graphviz version 2.38.0 (20140413.2041)
 -->
<!-- Title: Player::initialize Pages: 1 -->
<!--zoomable 336 -->
<svg id="main" version="1.1" xmlns="http://www.w3.org/2000/svg" xmlns:xlink="http://www.w3.org/1999/xlink" xml:space="preserve" onload="init(evt)">
<style type="text/css"><![CDATA[
.edge:hover path { stroke: red; }
.edge:hover polygon { stroke: red; fill: red; }
]]></style>
<script type="text/javascript"><![CDATA[
var edges = document.getElementsByTagName('g');
if (edges && edges.length) {
  for (var i=0;i<edges.length;i++) {
    if (edges[i].id.substr(0,4)=='edge') {
      edges[i].setAttribute('class','edge');
    }
  }
}
]]></script>
        <defs>
                <circle id="rim" cx="0" cy="0" r="7"/>
                <circle id="rim2" cx="0" cy="0" r="3.5"/>
                <g id="zoomPlus">
                        <use xlink:href="#rim" fill="#404040">
                                <set attributeName="fill" to="#808080" begin="zoomplus.mouseover" end="zoomplus.mouseout"/>
                        </use>
                        <path d="M-4,0h8M0,-4v8" fill="none" stroke="white" stroke-width="1.5" pointer-events="none"/>
                </g>
                <g id="zoomMin">
                        <use xlink:href="#rim" fill="#404040">
                                <set attributeName="fill" to="#808080" begin="zoomminus.mouseover" end="zoomminus.mouseout"/>
                        </use>
                        <path d="M-4,0h8" fill="none" stroke="white" stroke-width="1.5" pointer-events="none"/>
                </g>
                <g id="dirArrow">
                        <path fill="none" stroke="white" stroke-width="1.5" d="M0,-3.0v7 M-2.5,-0.5L0,-3.0L2.5,-0.5"/>
                </g>
               <g id="resetDef">
                       <use xlink:href="#rim2" fill="#404040">
                               <set attributeName="fill" to="#808080" begin="reset.mouseover" end="reset.mouseout"/>
                       </use>
               </g>
        </defs>

<script type="text/javascript">
var viewWidth = 946;
var viewHeight = 336;
var sectionId = 'dynsection-2';
</script>
<script xlink:href="../../svgpan.js"/>
<svg id="graph" class="graph">
<g id="viewport">
<title>Player::initialize</title>
<polygon fill="white" stroke="none" points="-4,4 -4,-331.5 942,-331.5 942,4 -4,4"/>
<!-- Node1 -->
<g id="node1" class="node"><title>Node1</title>
<g id="a_node1"><a xlink:title=" ">
<polygon fill="#bfbfbf" stroke="black" points="0,-144 0,-163 86,-163 86,-144 0,-144"/>
<text text-anchor="middle" x="43" y="-151" font-family="Helvetica,sans-Serif" font-size="10.00">Player::initialize</text>
</a>
</g>
</g>
<!-- Node2 -->
<g id="node2" class="node"><title>Node2</title>
<g id="a_node2"><a xlink:href="../../d6/db5/class_scene.html#a8be9ee80a306fd6eaeb621367cb3a353" target="_top" xlink:title=" ">
<polygon fill="white" stroke="black" points="131.5,-308 131.5,-327 247.5,-327 247.5,-308 131.5,-308"/>
<text text-anchor="middle" x="189.5" y="-315" font-family="Helvetica,sans-Serif" font-size="10.00">Scene::addComponent</text>
</a>
</g>
</g>
<!-- Node1&#45;&gt;Node2 -->
<g id="edge1" class="edge"><title>Node1&#45;&gt;Node2</title>
<path fill="none" stroke="midnightblue" d="M46.4624,-163.224C53.5292,-189.126 76.3575,-260.344 122,-297.5 124.748,-299.737 127.741,-301.724 130.888,-303.489"/>
<polygon fill="midnightblue" stroke="midnightblue" points="129.553,-306.73 140.083,-307.898 132.579,-300.418 129.553,-306.73"/>
</g>
<!-- Node4 -->
<g id="node4" class="node"><title>Node4</title>
<g id="a_node4"><a xlink:href="../../d5/da8/struct_entity_wrapper_1_1_entity_vitals.html#acf65583e2e08d352ba6d4b4a45454214" target="_top" xlink:title=" ">
<polygon fill="white" stroke="black" points="122,-258.5 122,-288.5 257,-288.5 257,-258.5 122,-258.5"/>
<text text-anchor="start" x="130" y="-276.5" font-family="Helvetica,sans-Serif" font-size="10.00">EntityWrapper::EntityVitals</text>
<text text-anchor="middle" x="189.5" y="-265.5" font-family="Helvetica,sans-Serif" font-size="10.00">::checkForNulls</text>
</a>
</g>
</g>
<!-- Node1&#45;&gt;Node4 -->
<g id="edge3" class="edge"><title>Node1&#45;&gt;Node4</title>
<path fill="none" stroke="midnightblue" d="M49.5864,-163.276C60.9027,-182.268 88.3411,-224.396 122,-248.5 124.657,-250.403 127.477,-252.18 130.397,-253.837"/>
<polygon fill="midnightblue" stroke="midnightblue" points="128.901,-257.003 139.396,-258.451 132.095,-250.774 128.901,-257.003"/>
</g>
<!-- Node5 -->
<g id="node5" class="node"><title>Node5</title>
<g id="a_node5"><a xlink:href="../../d6/db5/class_scene.html#ab4f95ed65ad2f033c8221992840668b7" target="_top" xlink:title=" ">
<polygon fill="white" stroke="black" points="133,-220 133,-239 246,-239 246,-220 133,-220"/>
<text text-anchor="middle" x="189.5" y="-227" font-family="Helvetica,sans-Serif" font-size="10.00">Scene::generateEntity</text>
</a>
</g>
</g>
<!-- Node1&#45;&gt;Node5 -->
<g id="edge4" class="edge"><title>Node1&#45;&gt;Node5</title>
<path fill="none" stroke="midnightblue" d="M54.8116,-163.353C69.1698,-175.957 95.7816,-197.683 122,-210.5 126.667,-212.782 131.656,-214.835 136.725,-216.671"/>
<polygon fill="midnightblue" stroke="midnightblue" points="135.914,-220.09 146.507,-219.94 138.132,-213.451 135.914,-220.09"/>
</g>
<!-- Node6 -->
<g id="node6" class="node"><title>Node6</title>
<g id="a_node6"><a xlink:href="../../d2/d23/class_locator.html#a310ebd51e96b6341e25471b651afaf34" target="_top" xlink:title=" ">
<polygon fill="white" stroke="black" points="298,-82.5 298,-112.5 443,-112.5 443,-82.5 298,-82.5"/>
<text text-anchor="start" x="306" y="-100.5" font-family="Helvetica,sans-Serif" font-size="10.00">Locator&lt; TextureHandler,</text>
<text text-anchor="middle" x="370.5" y="-89.5" font-family="Helvetica,sans-Serif" font-size="10.00"> TextureHandler &gt;::getService</text>
</a>
</g>
</g>
<!-- Node1&#45;&gt;Node6 -->
<g id="edge5" class="edge"><title>Node1&#45;&gt;Node6</title>
<path fill="none" stroke="midnightblue" d="M56.0843,-143.925C71.3516,-137.105 98.4754,-130.114 122,-125.5 177.027,-114.708 239.481,-105.393 287.885,-99.9621"/>
<polygon fill="midnightblue" stroke="midnightblue" points="288.429,-103.424 297.992,-98.8631 287.673,-96.4646 288.429,-103.424"/>
</g>
<!-- Node1&#45;&gt;Node6 -->
<g id="edge6" class="edge"><title>Node1&#45;&gt;Node6</title>
<path fill="none" stroke="midnightblue" d="M86.3518,-151.115C97.87,-148.641 110.374,-145.78 122,-143.5 180.633,-132.001 247.696,-122.179 297.211,-114.155"/>
<polygon fill="midnightblue" stroke="midnightblue" points="297.883,-117.591 307.187,-112.522 296.753,-110.683 297.883,-117.591"/>
</g>
<!-- Node7 -->
<g id="node7" class="node"><title>Node7</title>
<g id="a_node7"><a xlink:href="../../de/d51/class_shader_handler.html#ad478cf645ea1baf7f0172059d3f9d40a" target="_top" xlink:title=" ">
<polygon fill="white" stroke="black" points="124,-182 124,-201 255,-201 255,-182 124,-182"/>
<text text-anchor="middle" x="189.5" y="-189" font-family="Helvetica,sans-Serif" font-size="10.00">ShaderHandler::getShader</text>
</a>
</g>
</g>
<!-- Node1&#45;&gt;Node7 -->
<g id="edge7" class="edge"><title>Node1&#45;&gt;Node7</title>
<path fill="none" stroke="midnightblue" d="M80.4635,-163.089C99.2741,-168.036 122.415,-174.121 142.447,-179.389"/>
<polygon fill="midnightblue" stroke="midnightblue" points="141.737,-182.822 152.299,-181.98 143.518,-176.052 141.737,-182.822"/>
</g>
<!-- Node10 -->
<g id="node10" class="node"><title>Node10</title>
<g id="a_node10"><a xlink:href="../../d7/d13/class_texture_handler.html#a85fb7e3ae43c7a58a288e7285b9e58bf" target="_top" xlink:title=" ">
<polygon fill="white" stroke="black" points="122.5,-144 122.5,-163 256.5,-163 256.5,-144 122.5,-144"/>
<text text-anchor="middle" x="189.5" y="-151" font-family="Helvetica,sans-Serif" font-size="10.00">TextureHandler::getTexture</text>
</a>
</g>
</g>
<!-- Node1&#45;&gt;Node10 -->
<g id="edge10" class="edge"><title>Node1&#45;&gt;Node10</title>
<path fill="none" stroke="midnightblue" d="M86.1838,-153.5C94.4152,-153.5 103.28,-153.5 112.228,-153.5"/>
<polygon fill="midnightblue" stroke="midnightblue" points="112.336,-157 122.336,-153.5 112.336,-150 112.336,-157"/>
</g>
<!-- Node18 -->
<g id="node18" class="node"><title>Node18</title>
<g id="a_node18"><a xlink:href="../../dc/d84/class_display_statistics.html#aeef7680e2310f99d76f6f6724b4b5b66" target="_top" xlink:title=" ">
<polygon fill="white" stroke="black" points="141.5,-0.5 141.5,-30.5 237.5,-30.5 237.5,-0.5 141.5,-0.5"/>
<text text-anchor="start" x="149.5" y="-18.5" font-family="Helvetica,sans-Serif" font-size="10.00">DisplayStatistics::</text>
<text text-anchor="middle" x="189.5" y="-7.5" font-family="Helvetica,sans-Serif" font-size="10.00">initialize</text>
</a>
</g>
</g>
<!-- Node1&#45;&gt;Node18 -->
<g id="edge18" class="edge"><title>Node1&#45;&gt;Node18</title>
<path fill="none" stroke="midnightblue" d="M48.1707,-143.857C57.9547,-122.309 84.4277,-69.848 122,-40.5 125.136,-38.0502 128.538,-35.8209 132.089,-33.7952"/>
<polygon fill="midnightblue" stroke="midnightblue" points="133.839,-36.8319 141.157,-29.1703 130.658,-30.5962 133.839,-36.8319"/>
</g>
<!-- Node20 -->
<g id="node20" class="node"><title>Node20</title>
<g id="a_node20"><a xlink:href="../../d4/de5/class_pause_menu.html#a29f8b79ccd65bdc49a8c50e8f53f766f" target="_top" xlink:title=" ">
<polygon fill="white" stroke="black" points="134.5,-50 134.5,-69 244.5,-69 244.5,-50 134.5,-50"/>
<text text-anchor="middle" x="189.5" y="-57" font-family="Helvetica,sans-Serif" font-size="10.00">PauseMenu::initialize</text>
</a>
</g>
</g>
<!-- Node1&#45;&gt;Node20 -->
<g id="edge20" class="edge"><title>Node1&#45;&gt;Node20</title>
<path fill="none" stroke="midnightblue" d="M52.6598,-143.594C66.1446,-128.705 93.5776,-100.494 122,-83.5 129.04,-79.2907 136.936,-75.6436 144.762,-72.5519"/>
<polygon fill="midnightblue" stroke="midnightblue" points="146.046,-75.8087 154.21,-69.0559 143.617,-69.2438 146.046,-75.8087"/>
</g>
<!-- Node3 -->
<g id="node3" class="node"><title>Node3</title>
<g id="a_node3"><a xlink:href="../../d6/db5/class_scene.html#a55c346bea3f04eb9d9f8476a68c2fa93" target="_top" xlink:title=" ">
<polygon fill="white" stroke="black" points="297,-308 297,-327 444,-327 444,-308 297,-308"/>
<text text-anchor="middle" x="370.5" y="-315" font-family="Helvetica,sans-Serif" font-size="10.00">Scene::binarySearchForEntity</text>
</a>
</g>
</g>
<!-- Node2&#45;&gt;Node3 -->
<g id="edge2" class="edge"><title>Node2&#45;&gt;Node3</title>
<path fill="none" stroke="midnightblue" d="M247.629,-317.5C260.103,-317.5 273.548,-317.5 286.792,-317.5"/>
<polygon fill="midnightblue" stroke="midnightblue" points="286.862,-321 296.862,-317.5 286.862,-314 286.862,-321"/>
</g>
<!-- Node8 -->
<g id="node8" class="node"><title>Node8</title>
<g id="a_node8"><a xlink:href="../../de/d51/class_shader_handler.html#aa6135a3de8989141daaf63815d7e3ba5" target="_top" xlink:title=" ">
<polygon fill="white" stroke="black" points="294.5,-269 294.5,-288 446.5,-288 446.5,-269 294.5,-269"/>
<text text-anchor="middle" x="370.5" y="-276" font-family="Helvetica,sans-Serif" font-size="10.00">ShaderHandler::addNewShader</text>
</a>
</g>
</g>
<!-- Node7&#45;&gt;Node8 -->
<g id="edge8" class="edge"><title>Node7&#45;&gt;Node8</title>
<path fill="none" stroke="midnightblue" d="M238.358,-201.06C244.938,-203.526 251.362,-206.62 257,-210.5 278.967,-225.619 270.864,-243.63 293,-258.5 296.755,-261.022 300.811,-263.227 305.028,-265.153"/>
<polygon fill="midnightblue" stroke="midnightblue" points="303.879,-268.464 314.463,-268.943 306.488,-261.968 303.879,-268.464"/>
</g>
<!-- Node9 -->
<g id="node9" class="node"><title>Node9</title>
<g id="a_node9"><a xlink:href="../../de/d51/class_shader_handler.html#ad363f345aa76d162312c455de9a4ee40" target="_top" xlink:title=" ">
<polygon fill="white" stroke="black" points="299,-219.5 299,-249.5 442,-249.5 442,-219.5 299,-219.5"/>
<text text-anchor="start" x="307" y="-237.5" font-family="Helvetica,sans-Serif" font-size="10.00">ShaderHandler::binarySearch</text>
<text text-anchor="middle" x="370.5" y="-226.5" font-family="Helvetica,sans-Serif" font-size="10.00">Shaders</text>
</a>
</g>
</g>
<!-- Node7&#45;&gt;Node9 -->
<g id="edge9" class="edge"><title>Node7&#45;&gt;Node9</title>
<path fill="none" stroke="midnightblue" d="M230.226,-201.043C249.875,-205.763 274.217,-211.611 297.026,-217.09"/>
<polygon fill="midnightblue" stroke="midnightblue" points="296.491,-220.561 307.032,-219.494 298.126,-213.755 296.491,-220.561"/>
</g>
<!-- Node11 -->
<g id="node11" class="node"><title>Node11</title>
<g id="a_node11"><a xlink:href="../../d7/d13/class_texture_handler.html#a7b2135a42ef0d0d83fcfe8cf8d61828e" target="_top" xlink:title=" ">
<polygon fill="white" stroke="black" points="293,-181 293,-200 448,-200 448,-181 293,-181"/>
<text text-anchor="middle" x="370.5" y="-188" font-family="Helvetica,sans-Serif" font-size="10.00">TextureHandler::addNewTexture</text>
</a>
</g>
</g>
<!-- Node10&#45;&gt;Node11 -->
<g id="edge11" class="edge"><title>Node10&#45;&gt;Node11</title>
<path fill="none" stroke="midnightblue" d="M236.597,-163.028C259.995,-167.865 288.615,-173.781 313.296,-178.882"/>
<polygon fill="midnightblue" stroke="midnightblue" points="312.747,-182.343 323.249,-180.94 314.164,-175.488 312.747,-182.343"/>
</g>
<!-- Node17 -->
<g id="node17" class="node"><title>Node17</title>
<g id="a_node17"><a xlink:href="../../d7/d13/class_texture_handler.html#a3a76dad8ed61e8776536fd2cb59bab10" target="_top" xlink:title=" ">
<polygon fill="white" stroke="black" points="298,-131.5 298,-161.5 443,-161.5 443,-131.5 298,-131.5"/>
<text text-anchor="start" x="306" y="-149.5" font-family="Helvetica,sans-Serif" font-size="10.00">TextureHandler::binarySearch</text>
<text text-anchor="middle" x="370.5" y="-138.5" font-family="Helvetica,sans-Serif" font-size="10.00">Textures</text>
</a>
</g>
</g>
<!-- Node10&#45;&gt;Node17 -->
<g id="edge17" class="edge"><title>Node10&#45;&gt;Node17</title>
<path fill="none" stroke="midnightblue" d="M256.644,-150.913C266.728,-150.519 277.237,-150.108 287.608,-149.702"/>
<polygon fill="midnightblue" stroke="midnightblue" points="288.058,-153.188 297.913,-149.299 287.784,-146.193 288.058,-153.188"/>
</g>
<!-- Node12 -->
<g id="node12" class="node"><title>Node12</title>
<g id="a_node12"><a xlink:href="../../d7/d13/class_texture_handler.html#a11178629a8ef637496caabd5ddbae66d" target="_top" xlink:title=" ">
<polygon fill="white" stroke="black" points="484,-181 484,-200 628,-200 628,-181 484,-181"/>
<text text-anchor="middle" x="556" y="-188" font-family="Helvetica,sans-Serif" font-size="10.00">TextureHandler::parseTexture</text>
</a>
</g>
</g>
<!-- Node11&#45;&gt;Node12 -->
<g id="edge12" class="edge"><title>Node11&#45;&gt;Node12</title>
<path fill="none" stroke="midnightblue" d="M448.257,-190.5C456.636,-190.5 465.186,-190.5 473.618,-190.5"/>
<polygon fill="midnightblue" stroke="midnightblue" points="473.824,-194 483.824,-190.5 473.824,-187 473.824,-194"/>
</g>
<!-- Node13 -->
<g id="node13" class="node"><title>Node13</title>
<g id="a_node13"><a xlink:href="../../d7/d13/class_texture_handler.html#ac16e35d1c6ff692b412cec898f0eae42" target="_top" xlink:title=" ">
<polygon fill="white" stroke="black" points="668.5,-224.5 668.5,-254.5 802.5,-254.5 802.5,-224.5 668.5,-224.5"/>
<text text-anchor="start" x="676.5" y="-242.5" font-family="Helvetica,sans-Serif" font-size="10.00">TextureHandler::getSurface</text>
<text text-anchor="middle" x="735.5" y="-231.5" font-family="Helvetica,sans-Serif" font-size="10.00">Format</text>
</a>
</g>
</g>
<!-- Node12&#45;&gt;Node13 -->
<g id="edge13" class="edge"><title>Node12&#45;&gt;Node13</title>
<path fill="none" stroke="midnightblue" d="M591.645,-200.064C613.921,-206.213 643.55,-214.393 670.049,-221.708"/>
<polygon fill="midnightblue" stroke="midnightblue" points="669.459,-225.176 680.029,-224.463 671.321,-218.428 669.459,-225.176"/>
</g>
<!-- Node14 -->
<g id="node14" class="node"><title>Node14</title>
<g id="a_node14"><a xlink:href="../../d7/d13/class_texture_handler.html#a49d75156d87a0d0666693dbae6a6c5a4" target="_top" xlink:title=" ">
<polygon fill="white" stroke="black" points="669,-175.5 669,-205.5 802,-205.5 802,-175.5 669,-175.5"/>
<text text-anchor="start" x="677" y="-193.5" font-family="Helvetica,sans-Serif" font-size="10.00">TextureHandler::teximage2</text>
<text text-anchor="middle" x="735.5" y="-182.5" font-family="Helvetica,sans-Serif" font-size="10.00">DFillerTexture</text>
</a>
</g>
</g>
<!-- Node12&#45;&gt;Node14 -->
<g id="edge14" class="edge"><title>Node12&#45;&gt;Node14</title>
<path fill="none" stroke="midnightblue" d="M628.173,-190.5C638.228,-190.5 648.596,-190.5 658.734,-190.5"/>
<polygon fill="midnightblue" stroke="midnightblue" points="658.774,-194 668.774,-190.5 658.774,-187 658.774,-194"/>
</g>
<!-- Node15 -->
<g id="node15" class="node"><title>Node15</title>
<g id="a_node15"><a xlink:href="../../d7/d13/class_texture_handler.html#a6420e706aa78904c657f5f95165ec207" target="_top" xlink:title=" ">
<polygon fill="white" stroke="black" points="664,-126.5 664,-156.5 807,-156.5 807,-126.5 664,-126.5"/>
<text text-anchor="start" x="672" y="-144.5" font-family="Helvetica,sans-Serif" font-size="10.00">TextureHandler::verifySurface</text>
<text text-anchor="middle" x="735.5" y="-133.5" font-family="Helvetica,sans-Serif" font-size="10.00">Dimensions</text>
</a>
</g>
</g>
<!-- Node12&#45;&gt;Node15 -->
<g id="edge15" class="edge"><title>Node12&#45;&gt;Node15</title>
<path fill="none" stroke="midnightblue" d="M591.645,-180.936C613.921,-174.787 643.55,-166.607 670.049,-159.292"/>
<polygon fill="midnightblue" stroke="midnightblue" points="671.321,-162.572 680.029,-156.537 669.459,-155.824 671.321,-162.572"/>
</g>
<!-- Node16 -->
<g id="node16" class="node"><title>Node16</title>
<g id="a_node16"><a xlink:href="../../d7/dd1/namespacehh.html#ac873cd925e3e7e68b6975dac4182baa7" target="_top" xlink:title=" ">
<polygon fill="white" stroke="black" points="843,-132 843,-151 938,-151 938,-132 843,-132"/>
<text text-anchor="middle" x="890.5" y="-139" font-family="Helvetica,sans-Serif" font-size="10.00">hh::isPowerOfTwo</text>
</a>
</g>
</g>
<!-- Node15&#45;&gt;Node16 -->
<g id="edge16" class="edge"><title>Node15&#45;&gt;Node16</title>
<path fill="none" stroke="midnightblue" d="M807.178,-141.5C815.656,-141.5 824.23,-141.5 832.481,-141.5"/>
<polygon fill="midnightblue" stroke="midnightblue" points="832.726,-145 842.726,-141.5 832.726,-138 832.726,-145"/>
</g>
<!-- Node19 -->
<g id="node19" class="node"><title>Node19</title>
<g id="a_node19"><a xlink:href="../../dd/df5/class_gui_string.html#a092c979f8a66d3226f191b63f32f7e81" target="_top" xlink:title=" ">
<polygon fill="white" stroke="black" points="321.5,-6 321.5,-25 419.5,-25 419.5,-6 321.5,-6"/>
<text text-anchor="middle" x="370.5" y="-13" font-family="Helvetica,sans-Serif" font-size="10.00">GuiString::initialize</text>
</a>
</g>
</g>
<!-- Node18&#45;&gt;Node19 -->
<g id="edge19" class="edge"><title>Node18&#45;&gt;Node19</title>
<path fill="none" stroke="midnightblue" d="M237.53,-15.5C259.998,-15.5 287.113,-15.5 310.907,-15.5"/>
<polygon fill="midnightblue" stroke="midnightblue" points="311.226,-19.0001 321.226,-15.5 311.226,-12.0001 311.226,-19.0001"/>
</g>
<!-- Node20&#45;&gt;Node6 -->
<g id="edge21" class="edge"><title>Node20&#45;&gt;Node6</title>
<path fill="none" stroke="midnightblue" d="M235.669,-69.089C251.748,-72.5024 270.381,-76.458 288.541,-80.3131"/>
<polygon fill="midnightblue" stroke="midnightblue" points="288.053,-83.7875 298.562,-82.4405 289.506,-76.9401 288.053,-83.7875"/>
</g>
<!-- Node20&#45;&gt;Node19 -->
<g id="edge22" class="edge"><title>Node20&#45;&gt;Node19</title>
<path fill="none" stroke="midnightblue" d="M229.34,-49.9527C256.198,-43.3508 292.131,-34.5181 320.889,-27.449"/>
<polygon fill="midnightblue" stroke="midnightblue" points="321.86,-30.8147 330.735,-25.0287 320.189,-24.017 321.86,-30.8147"/>
</g>
<!-- Node21 -->
<g id="node21" class="node"><title>Node21</title>
<g id="a_node21"><a xlink:href="../../d1/db9/class_gui_sprite.html#a50b84e21fcb306c538ed057bd0eea717" target="_top" xlink:title=" ">
<polygon fill="white" stroke="black" points="321.5,-44 321.5,-63 419.5,-63 419.5,-44 321.5,-44"/>
<text text-anchor="middle" x="370.5" y="-51" font-family="Helvetica,sans-Serif" font-size="10.00">GuiSprite::initialize</text>
</a>
</g>
</g>
<!-- Node20&#45;&gt;Node21 -->
<g id="edge23" class="edge"><title>Node20&#45;&gt;Node21</title>
<path fill="none" stroke="midnightblue" d="M244.692,-57.6835C265.649,-56.981 289.683,-56.1754 311.029,-55.4599"/>
<polygon fill="midnightblue" stroke="midnightblue" points="311.39,-58.9499 321.267,-55.1167 311.156,-51.9538 311.39,-58.9499"/>
</g>
<!-- Node22 -->
<g id="node22" class="node"><title>Node22</title>
<g id="a_node22"><a xlink:href="../../d2/d7f/class_texture.html#a0eaebfd0e00f88d19a64ed05ea634539" target="_top" xlink:title=" ">
<polygon fill="white" stroke="black" points="508,-25 508,-44 604,-44 604,-25 508,-25"/>
<text text-anchor="middle" x="556" y="-32" font-family="Helvetica,sans-Serif" font-size="10.00">Texture::getHeight</text>
</a>
</g>
</g>
<!-- Node21&#45;&gt;Node22 -->
<g id="edge24" class="edge"><title>Node21&#45;&gt;Node22</title>
<path fill="none" stroke="midnightblue" d="M419.712,-48.508C443.605,-46.0341 472.624,-43.0294 497.651,-40.438"/>
<polygon fill="midnightblue" stroke="midnightblue" points="498.158,-43.9044 507.744,-39.393 497.437,-36.9416 498.158,-43.9044"/>
</g>
<!-- Node23 -->
<g id="node23" class="node"><title>Node23</title>
<g id="a_node23"><a xlink:href="../../d2/d7f/class_texture.html#a4d8e86e7df22179e8f3af9392020608c" target="_top" xlink:title=" ">
<polygon fill="white" stroke="black" points="509,-63 509,-82 603,-82 603,-63 509,-63"/>
<text text-anchor="middle" x="556" y="-70" font-family="Helvetica,sans-Serif" font-size="10.00">Texture::getWidth</text>
</a>
</g>
</g>
<!-- Node21&#45;&gt;Node23 -->
<g id="edge25" class="edge"><title>Node21&#45;&gt;Node23</title>
<path fill="none" stroke="midnightblue" d="M419.712,-58.492C443.885,-60.9949 473.305,-64.0411 498.529,-66.6529"/>
<polygon fill="midnightblue" stroke="midnightblue" points="498.384,-70.1565 508.691,-67.7051 499.105,-63.1937 498.384,-70.1565"/>
</g>
</g>
</svg>
        <g id="navigator" transform="translate(0 0)" fill="#404254">
                <rect fill="#f2f5e9" fill-opacity="0.5" stroke="#606060" stroke-width=".5" x="0" y="0" width="60" height="60"/>
                <use id="zoomplus" xlink:href="#zoomPlus" x="17" y="9" onmousedown="handleZoom(evt,'in')"/>
                <use id="zoomminus" xlink:href="#zoomMin" x="42" y="9" onmousedown="handleZoom(evt,'out')"/>
                <use id="reset" xlink:href="#resetDef" x="30" y="36" onmousedown="handleReset()"/>
                <g id="arrowUp" xlink:href="#dirArrow" transform="translate(30 24)" onmousedown="handlePan(0,-1)">
                  <use xlink:href="#rim" fill="#404040">
                        <set attributeName="fill" to="#808080" begin="arrowUp.mouseover" end="arrowUp.mouseout"/>
                  </use>
                  <path fill="none" stroke="white" stroke-width="1.5" d="M0,-3.0v7 M-2.5,-0.5L0,-3.0L2.5,-0.5"/>
                </g>
                <g id="arrowRight" xlink:href="#dirArrow" transform="rotate(90) translate(36 -43)" onmousedown="handlePan(1,0)">
                  <use xlink:href="#rim" fill="#404040">
                        <set attributeName="fill" to="#808080" begin="arrowRight.mouseover" end="arrowRight.mouseout"/>
                  </use>
                  <path fill="none" stroke="white" stroke-width="1.5" d="M0,-3.0v7 M-2.5,-0.5L0,-3.0L2.5,-0.5"/>
                </g>
                <g id="arrowDown" xlink:href="#dirArrow" transform="rotate(180) translate(-30 -48)" onmousedown="handlePan(0,1)">
                  <use xlink:href="#rim" fill="#404040">
                        <set attributeName="fill" to="#808080" begin="arrowDown.mouseover" end="arrowDown.mouseout"/>
                  </use>
                  <path fill="none" stroke="white" stroke-width="1.5" d="M0,-3.0v7 M-2.5,-0.5L0,-3.0L2.5,-0.5"/>
                </g>
                <g id="arrowLeft" xlink:href="#dirArrow" transform="rotate(270) translate(-36 17)" onmousedown="handlePan(-1,0)">
                  <use xlink:href="#rim" fill="#404040">
                        <set attributeName="fill" to="#808080" begin="arrowLeft.mouseover" end="arrowLeft.mouseout"/>
                  </use>
                  <path fill="none" stroke="white" stroke-width="1.5" d="M0,-3.0v7 M-2.5,-0.5L0,-3.0L2.5,-0.5"/>
                </g>
        </g>
        <svg viewBox="0 0 15 15" width="100%" height="30px" preserveAspectRatio="xMaxYMin meet">
         <g id="arrow_out" transform="scale(0.3 0.3)">
          <a xlink:href="class_player_a74539e4ea62aea94ea420052bac78292_cgraph_org.svg" target="_base">
           <rect id="button" ry="5" rx="5" y="6" x="6" height="38" width="38"
                fill="#f2f5e9" fill-opacity="0.5" stroke="#606060" stroke-width="1.0"/>
           <path id="arrow"
             d="M 11.500037,31.436501 C 11.940474,20.09759 22.043105,11.32322 32.158766,21.979434 L 37.068811,17.246167 C 37.068811,17.246167 37.088388,32 37.088388,32 L 22.160133,31.978069 C 22.160133,31.978069 26.997745,27.140456 26.997745,27.140456 C 18.528582,18.264221 13.291696,25.230495 11.500037,31.436501 z"
             style="fill:#404040;"/>
          </a>
         </g>
        </svg>
</svg>
