<?xml version="1.0" encoding="UTF-8" standalone="no"?>
<!DOCTYPE svg PUBLIC "-//W3C//DTD SVG 1.1//EN"
 "http://www.w3.org/Graphics/SVG/1.1/DTD/svg11.dtd">
<!-- Generated by graphviz version 2.38.0 (20140413.2041)
 -->
<!-- Title: src/TextMap.h Pages: 1 -->
<svg width="680pt" height="588pt"
 viewBox="0.00 0.00 680.00 588.00" xmlns="http://www.w3.org/2000/svg" xmlns:xlink="http://www.w3.org/1999/xlink">
<g id="graph0" class="graph" transform="scale(1 1) rotate(0) translate(4 584)">
<title>src/TextMap.h</title>
<polygon fill="white" stroke="none" points="-4,4 -4,-584 676,-584 676,4 -4,4"/>
<!-- Node1 -->
<g id="node1" class="node"><title>Node1</title>
<g id="a_node1"><a xlink:title=" ">
<polygon fill="#bfbfbf" stroke="black" points="515,-560.5 515,-579.5 594,-579.5 594,-560.5 515,-560.5"/>
<text text-anchor="middle" x="554.5" y="-567.5" font-family="Helvetica,sans-Serif" font-size="10.00">src/TextMap.h</text>
</a>
</g>
</g>
<!-- Node2 -->
<g id="node2" class="node"><title>Node2</title>
<g id="a_node2"><a xlink:href="../../d4/d04/_gui_string_8h.html" target="_top" xlink:title=" ">
<polygon fill="white" stroke="black" points="346.5,-504.5 346.5,-523.5 428.5,-523.5 428.5,-504.5 346.5,-504.5"/>
<text text-anchor="middle" x="387.5" y="-511.5" font-family="Helvetica,sans-Serif" font-size="10.00">src/GuiString.h</text>
</a>
</g>
</g>
<!-- Node1&#45;&gt;Node2 -->
<g id="edge1" class="edge"><title>Node1&#45;&gt;Node2</title>
<path fill="none" stroke="midnightblue" d="M518.33,-557.304C486.863,-547.129 442.006,-532.625 413.838,-523.516"/>
<polygon fill="midnightblue" stroke="midnightblue" points="517.447,-560.697 528.038,-560.444 519.6,-554.037 517.447,-560.697"/>
</g>
<!-- Node4 -->
<g id="node4" class="node"><title>Node4</title>
<g id="a_node4"><a xlink:href="../../da/d03/_entity_tests_8h.html" target="_top" xlink:title=" ">
<polygon fill="white" stroke="black" points="471,-392.5 471,-411.5 562,-411.5 562,-392.5 471,-392.5"/>
<text text-anchor="middle" x="516.5" y="-399.5" font-family="Helvetica,sans-Serif" font-size="10.00">src/EntityTests.h</text>
</a>
</g>
</g>
<!-- Node1&#45;&gt;Node4 -->
<g id="edge32" class="edge"><title>Node1&#45;&gt;Node4</title>
<path fill="none" stroke="midnightblue" d="M550.134,-549.93C541.891,-513.92 524.336,-437.231 518.461,-411.568"/>
<polygon fill="midnightblue" stroke="midnightblue" points="546.814,-551.108 552.457,-560.075 553.637,-549.546 546.814,-551.108"/>
</g>
<!-- Node24 -->
<g id="node24" class="node"><title>Node24</title>
<g id="a_node24"><a xlink:href="../../df/d08/_text_map_8cpp.html" target="_top" xlink:title=" ">
<polygon fill="white" stroke="black" points="583,-504.5 583,-523.5 672,-523.5 672,-504.5 583,-504.5"/>
<text text-anchor="middle" x="627.5" y="-511.5" font-family="Helvetica,sans-Serif" font-size="10.00">src/TextMap.cpp</text>
</a>
</g>
</g>
<!-- Node1&#45;&gt;Node24 -->
<g id="edge33" class="edge"><title>Node1&#45;&gt;Node24</title>
<path fill="none" stroke="midnightblue" d="M574.642,-554.101C587.779,-544.382 604.482,-532.027 615.558,-523.834"/>
<polygon fill="midnightblue" stroke="midnightblue" points="572.187,-551.563 566.229,-560.324 576.35,-557.191 572.187,-551.563"/>
</g>
<!-- Node3 -->
<g id="node3" class="node"><title>Node3</title>
<g id="a_node3"><a xlink:href="../../d6/dfe/_display_statistics_8h.html" target="_top" xlink:title=" ">
<polygon fill="white" stroke="black" points="144,-448.5 144,-467.5 259,-467.5 259,-448.5 144,-448.5"/>
<text text-anchor="middle" x="201.5" y="-455.5" font-family="Helvetica,sans-Serif" font-size="10.00">src/DisplayStatistics.h</text>
</a>
</g>
</g>
<!-- Node2&#45;&gt;Node3 -->
<g id="edge2" class="edge"><title>Node2&#45;&gt;Node3</title>
<path fill="none" stroke="midnightblue" d="M348.122,-501.568C313.034,-491.381 262.479,-476.703 230.834,-467.516"/>
<polygon fill="midnightblue" stroke="midnightblue" points="347.448,-505.017 358.028,-504.444 349.4,-498.294 347.448,-505.017"/>
</g>
<!-- Node2&#45;&gt;Node4 -->
<g id="edge24" class="edge"><title>Node2&#45;&gt;Node4</title>
<path fill="none" stroke="midnightblue" d="M438.432,-502.485C459.303,-495.804 482.118,-485.07 497.5,-468 511.981,-451.929 515.461,-425.381 516.273,-411.719"/>
<polygon fill="midnightblue" stroke="midnightblue" points="437.297,-499.171 428.7,-505.363 439.282,-505.883 437.297,-499.171"/>
</g>
<!-- Node17 -->
<g id="node17" class="node"><title>Node17</title>
<g id="a_node17"><a xlink:href="../../da/d66/_rendering_system_8h.html" target="_top" xlink:title=" ">
<polygon fill="white" stroke="black" points="10,-224.5 10,-243.5 129,-243.5 129,-224.5 10,-224.5"/>
<text text-anchor="middle" x="69.5" y="-231.5" font-family="Helvetica,sans-Serif" font-size="10.00">src/RenderingSystem.h</text>
</a>
</g>
</g>
<!-- Node2&#45;&gt;Node17 -->
<g id="edge30" class="edge"><title>Node2&#45;&gt;Node17</title>
<path fill="none" stroke="midnightblue" d="M336.102,-511.29C283.367,-507.866 200.005,-497.736 134.5,-468 92.4698,-448.92 53.5,-449.158 53.5,-403 53.5,-403 53.5,-403 53.5,-345 53.5,-306.983 62.9749,-262.337 67.3422,-243.777"/>
<polygon fill="midnightblue" stroke="midnightblue" points="336.037,-514.792 346.226,-511.89 336.45,-507.805 336.037,-514.792"/>
</g>
<!-- Node21 -->
<g id="node21" class="node"><title>Node21</title>
<g id="a_node21"><a xlink:href="../../db/d30/_pause_menu_8h.html" target="_top" xlink:title=" ">
<polygon fill="white" stroke="black" points="285,-448.5 285,-467.5 378,-467.5 378,-448.5 285,-448.5"/>
<text text-anchor="middle" x="331.5" y="-455.5" font-family="Helvetica,sans-Serif" font-size="10.00">src/PauseMenu.h</text>
</a>
</g>
</g>
<!-- Node2&#45;&gt;Node21 -->
<g id="edge25" class="edge"><title>Node2&#45;&gt;Node21</title>
<path fill="none" stroke="midnightblue" d="M371.17,-497.253C361.235,-487.673 348.912,-475.791 340.661,-467.834"/>
<polygon fill="midnightblue" stroke="midnightblue" points="368.875,-499.902 378.503,-504.324 373.734,-494.863 368.875,-499.902"/>
</g>
<!-- Node23 -->
<g id="node23" class="node"><title>Node23</title>
<g id="a_node23"><a xlink:href="../../dc/df4/_gui_string_8cpp.html" target="_top" xlink:title=" ">
<polygon fill="white" stroke="black" points="396.5,-448.5 396.5,-467.5 488.5,-467.5 488.5,-448.5 396.5,-448.5"/>
<text text-anchor="middle" x="442.5" y="-455.5" font-family="Helvetica,sans-Serif" font-size="10.00">src/GuiString.cpp</text>
</a>
</g>
</g>
<!-- Node2&#45;&gt;Node23 -->
<g id="edge31" class="edge"><title>Node2&#45;&gt;Node23</title>
<path fill="none" stroke="midnightblue" d="M403.794,-497.002C413.541,-487.433 425.553,-475.639 433.587,-467.751"/>
<polygon fill="midnightblue" stroke="midnightblue" points="401.266,-494.58 396.582,-504.083 406.17,-499.575 401.266,-494.58"/>
</g>
<!-- Node3&#45;&gt;Node4 -->
<g id="edge3" class="edge"><title>Node3&#45;&gt;Node4</title>
<path fill="none" stroke="midnightblue" d="M261.288,-446.751C322.293,-436.293 415.629,-420.292 470.912,-410.815"/>
<polygon fill="midnightblue" stroke="midnightblue" points="260.678,-443.304 251.413,-448.444 261.86,-450.203 260.678,-443.304"/>
</g>
<!-- Node12 -->
<g id="node12" class="node"><title>Node12</title>
<g id="a_node12"><a xlink:href="../../db/d81/_fixed_updating_system_8h.html" target="_top" xlink:title=" ">
<polygon fill="white" stroke="black" points="153,-224.5 153,-243.5 290,-243.5 290,-224.5 153,-224.5"/>
<text text-anchor="middle" x="221.5" y="-231.5" font-family="Helvetica,sans-Serif" font-size="10.00">src/FixedUpdatingSystem.h</text>
</a>
</g>
</g>
<!-- Node3&#45;&gt;Node12 -->
<g id="edge11" class="edge"><title>Node3&#45;&gt;Node12</title>
<path fill="none" stroke="midnightblue" d="M153.816,-444.81C137.162,-438.015 120.217,-427.645 110.5,-412 105.81,-404.449 108.552,-400.673 110.5,-392 122.571,-338.269 129.024,-322.943 163.5,-280 175.628,-264.894 193.801,-251.862 206.565,-243.767"/>
<polygon fill="midnightblue" stroke="midnightblue" points="152.939,-448.218 163.532,-448.411 155.371,-441.654 152.939,-448.218"/>
</g>
<!-- Node14 -->
<g id="node14" class="node"><title>Node14</title>
<g id="a_node14"><a xlink:href="../../d0/dd5/_display_statistics_system_8h.html" target="_top" xlink:title=" ">
<polygon fill="white" stroke="black" points="120,-392.5 120,-411.5 269,-411.5 269,-392.5 120,-392.5"/>
<text text-anchor="middle" x="194.5" y="-399.5" font-family="Helvetica,sans-Serif" font-size="10.00">src/DisplayStatisticsSystem.h</text>
</a>
</g>
</g>
<!-- Node3&#45;&gt;Node14 -->
<g id="edge14" class="edge"><title>Node3&#45;&gt;Node14</title>
<path fill="none" stroke="midnightblue" d="M199.05,-438.101C197.888,-429.136 196.556,-418.858 195.634,-411.751"/>
<polygon fill="midnightblue" stroke="midnightblue" points="195.588,-438.616 200.344,-448.083 202.529,-437.716 195.588,-438.616"/>
</g>
<!-- Node5 -->
<g id="node5" class="node"><title>Node5</title>
<g id="a_node5"><a xlink:href="../../d9/dcd/_game_8h.html" target="_top" xlink:title=" ">
<polygon fill="white" stroke="black" points="313.5,-168.5 313.5,-187.5 381.5,-187.5 381.5,-168.5 313.5,-168.5"/>
<text text-anchor="middle" x="347.5" y="-175.5" font-family="Helvetica,sans-Serif" font-size="10.00">src/Game.h</text>
</a>
</g>
</g>
<!-- Node4&#45;&gt;Node5 -->
<g id="edge4" class="edge"><title>Node4&#45;&gt;Node5</title>
<path fill="none" stroke="midnightblue" d="M509.581,-382.758C506.486,-374.579 502.799,-364.81 499.5,-356 477.553,-297.396 493.483,-269.481 450.5,-224 432.137,-204.57 403.93,-193.049 381.674,-186.536"/>
<polygon fill="midnightblue" stroke="midnightblue" points="506.41,-384.267 513.226,-392.379 512.956,-381.787 506.41,-384.267"/>
</g>
<!-- Node11 -->
<g id="node11" class="node"><title>Node11</title>
<g id="a_node11"><a xlink:href="../../de/d4c/_entity_tests_8cpp.html" target="_top" xlink:title=" ">
<polygon fill="white" stroke="black" points="509,-336.5 509,-355.5 610,-355.5 610,-336.5 509,-336.5"/>
<text text-anchor="middle" x="559.5" y="-343.5" font-family="Helvetica,sans-Serif" font-size="10.00">src/EntityTests.cpp</text>
</a>
</g>
</g>
<!-- Node4&#45;&gt;Node11 -->
<g id="edge10" class="edge"><title>Node4&#45;&gt;Node11</title>
<path fill="none" stroke="midnightblue" d="M529.922,-384.144C537.414,-374.736 546.437,-363.405 552.532,-355.751"/>
<polygon fill="midnightblue" stroke="midnightblue" points="527.092,-382.08 523.601,-392.083 532.568,-386.44 527.092,-382.08"/>
</g>
<!-- Node6 -->
<g id="node6" class="node"><title>Node6</title>
<g id="a_node6"><a xlink:href="../../d9/da3/_application_8h.html" target="_top" xlink:title=" ">
<polygon fill="white" stroke="black" points="252,-112.5 252,-131.5 341,-131.5 341,-112.5 252,-112.5"/>
<text text-anchor="middle" x="296.5" y="-119.5" font-family="Helvetica,sans-Serif" font-size="10.00">src/Application.h</text>
</a>
</g>
</g>
<!-- Node5&#45;&gt;Node6 -->
<g id="edge5" class="edge"><title>Node5&#45;&gt;Node6</title>
<path fill="none" stroke="midnightblue" d="M332.122,-160.718C323.133,-151.2 312.141,-139.561 304.765,-131.751"/>
<polygon fill="midnightblue" stroke="midnightblue" points="329.668,-163.216 339.078,-168.083 334.757,-158.41 329.668,-163.216"/>
</g>
<!-- Node10 -->
<g id="node10" class="node"><title>Node10</title>
<g id="a_node10"><a xlink:href="../../d7/db5/_game_8cpp.html" target="_top" xlink:title=" ">
<polygon fill="white" stroke="black" points="359.5,-112.5 359.5,-131.5 437.5,-131.5 437.5,-112.5 359.5,-112.5"/>
<text text-anchor="middle" x="398.5" y="-119.5" font-family="Helvetica,sans-Serif" font-size="10.00">src/Game.cpp</text>
</a>
</g>
</g>
<!-- Node5&#45;&gt;Node10 -->
<g id="edge9" class="edge"><title>Node5&#45;&gt;Node10</title>
<path fill="none" stroke="midnightblue" d="M362.878,-160.718C371.867,-151.2 382.859,-139.561 390.235,-131.751"/>
<polygon fill="midnightblue" stroke="midnightblue" points="360.243,-158.41 355.922,-168.083 365.332,-163.216 360.243,-158.41"/>
</g>
<!-- Node7 -->
<g id="node7" class="node"><title>Node7</title>
<g id="a_node7"><a xlink:href="../../d0/d42/_application_8cpp.html" target="_top" xlink:title=" ">
<polygon fill="white" stroke="black" points="197.5,-56.5 197.5,-75.5 297.5,-75.5 297.5,-56.5 197.5,-56.5"/>
<text text-anchor="middle" x="247.5" y="-63.5" font-family="Helvetica,sans-Serif" font-size="10.00">src/Application.cpp</text>
</a>
</g>
</g>
<!-- Node6&#45;&gt;Node7 -->
<g id="edge6" class="edge"><title>Node6&#45;&gt;Node7</title>
<path fill="none" stroke="midnightblue" d="M281.466,-104.431C272.878,-94.9673 262.457,-83.4827 255.441,-75.7511"/>
<polygon fill="midnightblue" stroke="midnightblue" points="279.097,-107.029 288.409,-112.083 284.281,-102.325 279.097,-107.029"/>
</g>
<!-- Node8 -->
<g id="node8" class="node"><title>Node8</title>
<g id="a_node8"><a xlink:href="../../d4/dbf/main_8h.html" target="_top" xlink:title=" ">
<polygon fill="white" stroke="black" points="315.5,-56.5 315.5,-75.5 377.5,-75.5 377.5,-56.5 315.5,-56.5"/>
<text text-anchor="middle" x="346.5" y="-63.5" font-family="Helvetica,sans-Serif" font-size="10.00">src/main.h</text>
</a>
</g>
</g>
<!-- Node6&#45;&gt;Node8 -->
<g id="edge7" class="edge"><title>Node6&#45;&gt;Node8</title>
<path fill="none" stroke="midnightblue" d="M311.576,-104.718C320.389,-95.1997 331.166,-83.5608 338.397,-75.7511"/>
<polygon fill="midnightblue" stroke="midnightblue" points="308.982,-102.367 304.756,-112.083 314.119,-107.123 308.982,-102.367"/>
</g>
<!-- Node9 -->
<g id="node9" class="node"><title>Node9</title>
<g id="a_node9"><a xlink:href="../../d5/d12/_main_8cpp.html" target="_top" xlink:title=" ">
<polygon fill="white" stroke="black" points="310,-0.5 310,-19.5 383,-19.5 383,-0.5 310,-0.5"/>
<text text-anchor="middle" x="346.5" y="-7.5" font-family="Helvetica,sans-Serif" font-size="10.00">src/Main.cpp</text>
</a>
</g>
</g>
<!-- Node8&#45;&gt;Node9 -->
<g id="edge8" class="edge"><title>Node8&#45;&gt;Node9</title>
<path fill="none" stroke="midnightblue" d="M346.5,-45.8045C346.5,-36.9102 346.5,-26.7798 346.5,-19.7511"/>
<polygon fill="midnightblue" stroke="midnightblue" points="343,-46.083 346.5,-56.083 350,-46.083 343,-46.083"/>
</g>
<!-- Node12&#45;&gt;Node5 -->
<g id="edge12" class="edge"><title>Node12&#45;&gt;Node5</title>
<path fill="none" stroke="midnightblue" d="M250.66,-220.503C274.281,-210.38 306.928,-196.388 327.628,-187.516"/>
<polygon fill="midnightblue" stroke="midnightblue" points="249.278,-217.287 241.465,-224.444 252.035,-223.721 249.278,-217.287"/>
</g>
<!-- Node13 -->
<g id="node13" class="node"><title>Node13</title>
<g id="a_node13"><a xlink:href="../../d0/d56/_fixed_updating_system_8cpp.html" target="_top" xlink:title=" ">
<polygon fill="white" stroke="black" points="147.5,-168.5 147.5,-187.5 295.5,-187.5 295.5,-168.5 147.5,-168.5"/>
<text text-anchor="middle" x="221.5" y="-175.5" font-family="Helvetica,sans-Serif" font-size="10.00">src/FixedUpdatingSystem.cpp</text>
</a>
</g>
</g>
<!-- Node12&#45;&gt;Node13 -->
<g id="edge13" class="edge"><title>Node12&#45;&gt;Node13</title>
<path fill="none" stroke="midnightblue" d="M221.5,-213.805C221.5,-204.91 221.5,-194.78 221.5,-187.751"/>
<polygon fill="midnightblue" stroke="midnightblue" points="218,-214.083 221.5,-224.083 225,-214.083 218,-214.083"/>
</g>
<!-- Node15 -->
<g id="node15" class="node"><title>Node15</title>
<g id="a_node15"><a xlink:href="../../d8/dc4/_sub_systems_8h.html" target="_top" xlink:title=" ">
<polygon fill="white" stroke="black" points="172.5,-336.5 172.5,-355.5 270.5,-355.5 270.5,-336.5 172.5,-336.5"/>
<text text-anchor="middle" x="221.5" y="-343.5" font-family="Helvetica,sans-Serif" font-size="10.00">src/SubSystems.h</text>
</a>
</g>
</g>
<!-- Node14&#45;&gt;Node15 -->
<g id="edge15" class="edge"><title>Node14&#45;&gt;Node15</title>
<path fill="none" stroke="midnightblue" d="M203.509,-382.983C208.092,-373.817 213.454,-363.092 217.124,-355.751"/>
<polygon fill="midnightblue" stroke="midnightblue" points="200.3,-381.573 198.959,-392.083 206.561,-384.704 200.3,-381.573"/>
</g>
<!-- Node16 -->
<g id="node16" class="node"><title>Node16</title>
<g id="a_node16"><a xlink:href="../../dc/d18/_system_base_8h.html" target="_top" xlink:title=" ">
<polygon fill="white" stroke="black" points="172.5,-280.5 172.5,-299.5 270.5,-299.5 270.5,-280.5 172.5,-280.5"/>
<text text-anchor="middle" x="221.5" y="-287.5" font-family="Helvetica,sans-Serif" font-size="10.00">src/SystemBase.h</text>
</a>
</g>
</g>
<!-- Node15&#45;&gt;Node16 -->
<g id="edge16" class="edge"><title>Node15&#45;&gt;Node16</title>
<path fill="none" stroke="midnightblue" d="M221.5,-325.805C221.5,-316.91 221.5,-306.78 221.5,-299.751"/>
<polygon fill="midnightblue" stroke="midnightblue" points="218,-326.083 221.5,-336.083 225,-326.083 218,-326.083"/>
</g>
<!-- Node16&#45;&gt;Node12 -->
<g id="edge17" class="edge"><title>Node16&#45;&gt;Node12</title>
<path fill="none" stroke="midnightblue" d="M221.5,-269.805C221.5,-260.91 221.5,-250.78 221.5,-243.751"/>
<polygon fill="midnightblue" stroke="midnightblue" points="218,-270.083 221.5,-280.083 225,-270.083 218,-270.083"/>
</g>
<!-- Node16&#45;&gt;Node17 -->
<g id="edge18" class="edge"><title>Node16&#45;&gt;Node17</title>
<path fill="none" stroke="midnightblue" d="M187.832,-277.039C159.232,-266.879 118.888,-252.546 93.4722,-243.516"/>
<polygon fill="midnightblue" stroke="midnightblue" points="186.82,-280.394 197.415,-280.444 189.164,-273.798 186.82,-280.394"/>
</g>
<!-- Node19 -->
<g id="node19" class="node"><title>Node19</title>
<g id="a_node19"><a xlink:href="../../db/dc0/_updating_system_8h.html" target="_top" xlink:title=" ">
<polygon fill="white" stroke="black" points="329,-224.5 329,-243.5 442,-243.5 442,-224.5 329,-224.5"/>
<text text-anchor="middle" x="385.5" y="-231.5" font-family="Helvetica,sans-Serif" font-size="10.00">src/UpdatingSystem.h</text>
</a>
</g>
</g>
<!-- Node16&#45;&gt;Node19 -->
<g id="edge21" class="edge"><title>Node16&#45;&gt;Node19</title>
<path fill="none" stroke="midnightblue" d="M257.02,-277.304C287.922,-267.129 331.973,-252.625 359.635,-243.516"/>
<polygon fill="midnightblue" stroke="midnightblue" points="255.89,-273.992 247.486,-280.444 258.079,-280.64 255.89,-273.992"/>
</g>
<!-- Node17&#45;&gt;Node5 -->
<g id="edge19" class="edge"><title>Node17&#45;&gt;Node5</title>
<path fill="none" stroke="midnightblue" d="M125.587,-222.539C173.23,-213.587 243.407,-200.242 304.5,-188 307.342,-187.431 310.287,-186.832 313.243,-186.225"/>
<polygon fill="midnightblue" stroke="midnightblue" points="124.659,-219.152 115.476,-224.437 125.95,-226.032 124.659,-219.152"/>
</g>
<!-- Node18 -->
<g id="node18" class="node"><title>Node18</title>
<g id="a_node18"><a xlink:href="../../d2/db8/_rendering_system_8cpp.html" target="_top" xlink:title=" ">
<polygon fill="white" stroke="black" points="0,-168.5 0,-187.5 129,-187.5 129,-168.5 0,-168.5"/>
<text text-anchor="middle" x="64.5" y="-175.5" font-family="Helvetica,sans-Serif" font-size="10.00">src/RenderingSystem.cpp</text>
</a>
</g>
</g>
<!-- Node17&#45;&gt;Node18 -->
<g id="edge20" class="edge"><title>Node17&#45;&gt;Node18</title>
<path fill="none" stroke="midnightblue" d="M67.75,-214.101C66.92,-205.136 65.9683,-194.858 65.3103,-187.751"/>
<polygon fill="midnightblue" stroke="midnightblue" points="64.2672,-214.448 68.6744,-224.083 71.2374,-213.803 64.2672,-214.448"/>
</g>
<!-- Node19&#45;&gt;Node5 -->
<g id="edge22" class="edge"><title>Node19&#45;&gt;Node5</title>
<path fill="none" stroke="midnightblue" d="M373.435,-215.855C366.855,-206.505 358.989,-195.327 353.658,-187.751"/>
<polygon fill="midnightblue" stroke="midnightblue" points="370.608,-217.919 379.225,-224.083 376.332,-213.891 370.608,-217.919"/>
</g>
<!-- Node20 -->
<g id="node20" class="node"><title>Node20</title>
<g id="a_node20"><a xlink:href="../../d7/d1d/_updating_system_8cpp.html" target="_top" xlink:title=" ">
<polygon fill="white" stroke="black" points="399.5,-168.5 399.5,-187.5 523.5,-187.5 523.5,-168.5 399.5,-168.5"/>
<text text-anchor="middle" x="461.5" y="-175.5" font-family="Helvetica,sans-Serif" font-size="10.00">src/UpdatingSystem.cpp</text>
</a>
</g>
</g>
<!-- Node19&#45;&gt;Node20 -->
<g id="edge23" class="edge"><title>Node19&#45;&gt;Node20</title>
<path fill="none" stroke="midnightblue" d="M406.076,-218.38C419.812,-208.62 437.425,-196.106 449.067,-187.834"/>
<polygon fill="midnightblue" stroke="midnightblue" points="403.835,-215.679 397.711,-224.324 407.89,-221.385 403.835,-215.679"/>
</g>
<!-- Node21&#45;&gt;Node4 -->
<g id="edge26" class="edge"><title>Node21&#45;&gt;Node4</title>
<path fill="none" stroke="midnightblue" d="M370.666,-445.568C405.565,-435.381 455.849,-420.703 487.323,-411.516"/>
<polygon fill="midnightblue" stroke="midnightblue" points="369.433,-442.282 360.814,-448.444 371.394,-449.001 369.433,-442.282"/>
</g>
<!-- Node21&#45;&gt;Node19 -->
<g id="edge29" class="edge"><title>Node21&#45;&gt;Node19</title>
<path fill="none" stroke="midnightblue" d="M379.184,-444.81C395.838,-438.015 412.783,-427.645 422.5,-412 457.614,-355.463 409.196,-271.18 391.515,-243.878"/>
<polygon fill="midnightblue" stroke="midnightblue" points="377.629,-441.654 369.468,-448.411 380.061,-448.218 377.629,-441.654"/>
</g>
<!-- Node22 -->
<g id="node22" class="node"><title>Node22</title>
<g id="a_node22"><a xlink:href="../../d8/dd5/_pause_menu_system_8h.html" target="_top" xlink:title=" ">
<polygon fill="white" stroke="black" points="287,-392.5 287,-411.5 414,-411.5 414,-392.5 287,-392.5"/>
<text text-anchor="middle" x="350.5" y="-399.5" font-family="Helvetica,sans-Serif" font-size="10.00">src/PauseMenuSystem.h</text>
</a>
</g>
</g>
<!-- Node21&#45;&gt;Node22 -->
<g id="edge27" class="edge"><title>Node21&#45;&gt;Node22</title>
<path fill="none" stroke="midnightblue" d="M338.046,-438.396C341.224,-429.362 344.893,-418.936 347.421,-411.751"/>
<polygon fill="midnightblue" stroke="midnightblue" points="334.655,-437.488 334.637,-448.083 341.258,-439.812 334.655,-437.488"/>
</g>
<!-- Node22&#45;&gt;Node15 -->
<g id="edge28" class="edge"><title>Node22&#45;&gt;Node15</title>
<path fill="none" stroke="midnightblue" d="M320.646,-388.503C296.462,-378.38 263.038,-364.388 241.845,-355.516"/>
<polygon fill="midnightblue" stroke="midnightblue" points="319.484,-391.811 330.06,-392.444 322.187,-385.354 319.484,-391.811"/>
</g>
</g>
</svg>
