<?xml version="1.0" encoding="UTF-8" standalone="no"?>
<!DOCTYPE svg PUBLIC "-//W3C//DTD SVG 1.1//EN"
 "http://www.w3.org/Graphics/SVG/1.1/DTD/svg11.dtd">
<!-- Generated by graphviz version 2.38.0 (20140413.2041)
 -->
<!-- Title: src/GUIResizingInfo.h Pages: 1 -->
<svg width="540pt" height="532pt"
 viewBox="0.00 0.00 539.50 532.00" xmlns="http://www.w3.org/2000/svg" xmlns:xlink="http://www.w3.org/1999/xlink">
<g id="graph0" class="graph" transform="scale(1 1) rotate(0) translate(4 528)">
<title>src/GUIResizingInfo.h</title>
<polygon fill="white" stroke="none" points="-4,4 -4,-528 535.5,-528 535.5,4 -4,4"/>
<!-- Node1 -->
<g id="node1" class="node"><title>Node1</title>
<g id="a_node1"><a xlink:title=" ">
<polygon fill="#bfbfbf" stroke="black" points="335.5,-504.5 335.5,-523.5 445.5,-523.5 445.5,-504.5 335.5,-504.5"/>
<text text-anchor="middle" x="390.5" y="-511.5" font-family="Helvetica,sans-Serif" font-size="10.00">src/GUIResizingInfo.h</text>
</a>
</g>
</g>
<!-- Node2 -->
<g id="node2" class="node"><title>Node2</title>
<g id="a_node2"><a xlink:href="../../d6/dfe/_display_statistics_8h.html" target="_top" xlink:title=" ">
<polygon fill="white" stroke="black" points="333,-448.5 333,-467.5 448,-467.5 448,-448.5 333,-448.5"/>
<text text-anchor="middle" x="390.5" y="-455.5" font-family="Helvetica,sans-Serif" font-size="10.00">src/DisplayStatistics.h</text>
</a>
</g>
</g>
<!-- Node1&#45;&gt;Node2 -->
<g id="edge1" class="edge"><title>Node1&#45;&gt;Node2</title>
<path fill="none" stroke="midnightblue" d="M390.5,-493.805C390.5,-484.91 390.5,-474.78 390.5,-467.751"/>
<polygon fill="midnightblue" stroke="midnightblue" points="387,-494.083 390.5,-504.083 394,-494.083 387,-494.083"/>
</g>
<!-- Node11 -->
<g id="node11" class="node"><title>Node11</title>
<g id="a_node11"><a xlink:href="../../db/d81/_fixed_updating_system_8h.html" target="_top" xlink:title=" ">
<polygon fill="white" stroke="black" points="389,-224.5 389,-243.5 526,-243.5 526,-224.5 389,-224.5"/>
<text text-anchor="middle" x="457.5" y="-231.5" font-family="Helvetica,sans-Serif" font-size="10.00">src/FixedUpdatingSystem.h</text>
</a>
</g>
</g>
<!-- Node1&#45;&gt;Node11 -->
<g id="edge23" class="edge"><title>Node1&#45;&gt;Node11</title>
<path fill="none" stroke="midnightblue" d="M420.171,-500.07C453.948,-483.106 504.5,-449.885 504.5,-403 504.5,-403 504.5,-403 504.5,-345 504.5,-304.296 476.949,-261.44 464.035,-243.587"/>
<polygon fill="midnightblue" stroke="midnightblue" points="418.632,-496.926 411.145,-504.421 421.672,-503.231 418.632,-496.926"/>
</g>
<!-- Node20 -->
<g id="node20" class="node"><title>Node20</title>
<g id="a_node20"><a xlink:href="../../d8/dd5/_pause_menu_system_8h.html" target="_top" xlink:title=" ">
<polygon fill="white" stroke="black" points="137,-448.5 137,-467.5 264,-467.5 264,-448.5 137,-448.5"/>
<text text-anchor="middle" x="200.5" y="-455.5" font-family="Helvetica,sans-Serif" font-size="10.00">src/PauseMenuSystem.h</text>
</a>
</g>
</g>
<!-- Node1&#45;&gt;Node20 -->
<g id="edge24" class="edge"><title>Node1&#45;&gt;Node20</title>
<path fill="none" stroke="midnightblue" d="M350.736,-501.699C314.877,-491.507 262.929,-476.743 230.465,-467.516"/>
<polygon fill="midnightblue" stroke="midnightblue" points="349.818,-505.076 360.394,-504.444 351.732,-498.343 349.818,-505.076"/>
</g>
<!-- Node3 -->
<g id="node3" class="node"><title>Node3</title>
<g id="a_node3"><a xlink:href="../../da/d03/_entity_tests_8h.html" target="_top" xlink:title=" ">
<polygon fill="white" stroke="black" points="345,-392.5 345,-411.5 436,-411.5 436,-392.5 345,-392.5"/>
<text text-anchor="middle" x="390.5" y="-399.5" font-family="Helvetica,sans-Serif" font-size="10.00">src/EntityTests.h</text>
</a>
</g>
</g>
<!-- Node2&#45;&gt;Node3 -->
<g id="edge2" class="edge"><title>Node2&#45;&gt;Node3</title>
<path fill="none" stroke="midnightblue" d="M390.5,-437.805C390.5,-428.91 390.5,-418.78 390.5,-411.751"/>
<polygon fill="midnightblue" stroke="midnightblue" points="387,-438.083 390.5,-448.083 394,-438.083 387,-438.083"/>
</g>
<!-- Node2&#45;&gt;Node11 -->
<g id="edge10" class="edge"><title>Node2&#45;&gt;Node11</title>
<path fill="none" stroke="midnightblue" d="M415.04,-442.95C426.018,-435.293 437.942,-424.761 444.5,-412 474.356,-353.901 463.678,-270.643 459.126,-243.74"/>
<polygon fill="midnightblue" stroke="midnightblue" points="413.036,-440.079 406.559,-448.464 416.851,-445.948 413.036,-440.079"/>
</g>
<!-- Node13 -->
<g id="node13" class="node"><title>Node13</title>
<g id="a_node13"><a xlink:href="../../d0/dd5/_display_statistics_system_8h.html" target="_top" xlink:title=" ">
<polygon fill="white" stroke="black" points="178,-392.5 178,-411.5 327,-411.5 327,-392.5 178,-392.5"/>
<text text-anchor="middle" x="252.5" y="-399.5" font-family="Helvetica,sans-Serif" font-size="10.00">src/DisplayStatisticsSystem.h</text>
</a>
</g>
</g>
<!-- Node2&#45;&gt;Node13 -->
<g id="edge13" class="edge"><title>Node2&#45;&gt;Node13</title>
<path fill="none" stroke="midnightblue" d="M359.251,-444.772C333.329,-434.629 297.138,-420.467 274.264,-411.516"/>
<polygon fill="midnightblue" stroke="midnightblue" points="358.046,-448.059 368.633,-448.444 360.596,-441.54 358.046,-448.059"/>
</g>
<!-- Node4 -->
<g id="node4" class="node"><title>Node4</title>
<g id="a_node4"><a xlink:href="../../d9/dcd/_game_8h.html" target="_top" xlink:title=" ">
<polygon fill="white" stroke="black" points="289.5,-168.5 289.5,-187.5 357.5,-187.5 357.5,-168.5 289.5,-168.5"/>
<text text-anchor="middle" x="323.5" y="-175.5" font-family="Helvetica,sans-Serif" font-size="10.00">src/Game.h</text>
</a>
</g>
</g>
<!-- Node3&#45;&gt;Node4 -->
<g id="edge3" class="edge"><title>Node3&#45;&gt;Node4</title>
<path fill="none" stroke="midnightblue" d="M360.819,-387.532C348.192,-380.145 334.732,-369.672 327.5,-356 297.03,-298.4 314.283,-214.815 321.114,-187.784"/>
<polygon fill="midnightblue" stroke="midnightblue" points="359.304,-390.692 369.765,-392.368 362.632,-384.534 359.304,-390.692"/>
</g>
<!-- Node10 -->
<g id="node10" class="node"><title>Node10</title>
<g id="a_node10"><a xlink:href="../../de/d4c/_entity_tests_8cpp.html" target="_top" xlink:title=" ">
<polygon fill="white" stroke="black" points="337,-336.5 337,-355.5 438,-355.5 438,-336.5 337,-336.5"/>
<text text-anchor="middle" x="387.5" y="-343.5" font-family="Helvetica,sans-Serif" font-size="10.00">src/EntityTests.cpp</text>
</a>
</g>
</g>
<!-- Node3&#45;&gt;Node10 -->
<g id="edge9" class="edge"><title>Node3&#45;&gt;Node10</title>
<path fill="none" stroke="midnightblue" d="M389.434,-381.805C388.939,-372.91 388.377,-362.78 387.986,-355.751"/>
<polygon fill="midnightblue" stroke="midnightblue" points="385.955,-382.293 390.005,-392.083 392.944,-381.904 385.955,-382.293"/>
</g>
<!-- Node5 -->
<g id="node5" class="node"><title>Node5</title>
<g id="a_node5"><a xlink:href="../../d9/da3/_application_8h.html" target="_top" xlink:title=" ">
<polygon fill="white" stroke="black" points="228,-112.5 228,-131.5 317,-131.5 317,-112.5 228,-112.5"/>
<text text-anchor="middle" x="272.5" y="-119.5" font-family="Helvetica,sans-Serif" font-size="10.00">src/Application.h</text>
</a>
</g>
</g>
<!-- Node4&#45;&gt;Node5 -->
<g id="edge4" class="edge"><title>Node4&#45;&gt;Node5</title>
<path fill="none" stroke="midnightblue" d="M308.122,-160.718C299.133,-151.2 288.141,-139.561 280.765,-131.751"/>
<polygon fill="midnightblue" stroke="midnightblue" points="305.668,-163.216 315.078,-168.083 310.757,-158.41 305.668,-163.216"/>
</g>
<!-- Node9 -->
<g id="node9" class="node"><title>Node9</title>
<g id="a_node9"><a xlink:href="../../d7/db5/_game_8cpp.html" target="_top" xlink:title=" ">
<polygon fill="white" stroke="black" points="335.5,-112.5 335.5,-131.5 413.5,-131.5 413.5,-112.5 335.5,-112.5"/>
<text text-anchor="middle" x="374.5" y="-119.5" font-family="Helvetica,sans-Serif" font-size="10.00">src/Game.cpp</text>
</a>
</g>
</g>
<!-- Node4&#45;&gt;Node9 -->
<g id="edge8" class="edge"><title>Node4&#45;&gt;Node9</title>
<path fill="none" stroke="midnightblue" d="M338.878,-160.718C347.867,-151.2 358.859,-139.561 366.235,-131.751"/>
<polygon fill="midnightblue" stroke="midnightblue" points="336.243,-158.41 331.922,-168.083 341.332,-163.216 336.243,-158.41"/>
</g>
<!-- Node6 -->
<g id="node6" class="node"><title>Node6</title>
<g id="a_node6"><a xlink:href="../../d0/d42/_application_8cpp.html" target="_top" xlink:title=" ">
<polygon fill="white" stroke="black" points="173.5,-56.5 173.5,-75.5 273.5,-75.5 273.5,-56.5 173.5,-56.5"/>
<text text-anchor="middle" x="223.5" y="-63.5" font-family="Helvetica,sans-Serif" font-size="10.00">src/Application.cpp</text>
</a>
</g>
</g>
<!-- Node5&#45;&gt;Node6 -->
<g id="edge5" class="edge"><title>Node5&#45;&gt;Node6</title>
<path fill="none" stroke="midnightblue" d="M257.466,-104.431C248.878,-94.9673 238.457,-83.4827 231.441,-75.7511"/>
<polygon fill="midnightblue" stroke="midnightblue" points="255.097,-107.029 264.409,-112.083 260.281,-102.325 255.097,-107.029"/>
</g>
<!-- Node7 -->
<g id="node7" class="node"><title>Node7</title>
<g id="a_node7"><a xlink:href="../../d4/dbf/main_8h.html" target="_top" xlink:title=" ">
<polygon fill="white" stroke="black" points="291.5,-56.5 291.5,-75.5 353.5,-75.5 353.5,-56.5 291.5,-56.5"/>
<text text-anchor="middle" x="322.5" y="-63.5" font-family="Helvetica,sans-Serif" font-size="10.00">src/main.h</text>
</a>
</g>
</g>
<!-- Node5&#45;&gt;Node7 -->
<g id="edge6" class="edge"><title>Node5&#45;&gt;Node7</title>
<path fill="none" stroke="midnightblue" d="M287.576,-104.718C296.389,-95.1997 307.166,-83.5608 314.397,-75.7511"/>
<polygon fill="midnightblue" stroke="midnightblue" points="284.982,-102.367 280.756,-112.083 290.119,-107.123 284.982,-102.367"/>
</g>
<!-- Node8 -->
<g id="node8" class="node"><title>Node8</title>
<g id="a_node8"><a xlink:href="../../d5/d12/_main_8cpp.html" target="_top" xlink:title=" ">
<polygon fill="white" stroke="black" points="286,-0.5 286,-19.5 359,-19.5 359,-0.5 286,-0.5"/>
<text text-anchor="middle" x="322.5" y="-7.5" font-family="Helvetica,sans-Serif" font-size="10.00">src/Main.cpp</text>
</a>
</g>
</g>
<!-- Node7&#45;&gt;Node8 -->
<g id="edge7" class="edge"><title>Node7&#45;&gt;Node8</title>
<path fill="none" stroke="midnightblue" d="M322.5,-45.8045C322.5,-36.9102 322.5,-26.7798 322.5,-19.7511"/>
<polygon fill="midnightblue" stroke="midnightblue" points="319,-46.083 322.5,-56.083 326,-46.083 319,-46.083"/>
</g>
<!-- Node11&#45;&gt;Node4 -->
<g id="edge11" class="edge"><title>Node11&#45;&gt;Node4</title>
<path fill="none" stroke="midnightblue" d="M426.823,-220.638C401.677,-210.504 366.746,-196.427 344.633,-187.516"/>
<polygon fill="midnightblue" stroke="midnightblue" points="425.684,-223.952 436.267,-224.444 428.3,-217.459 425.684,-223.952"/>
</g>
<!-- Node12 -->
<g id="node12" class="node"><title>Node12</title>
<g id="a_node12"><a xlink:href="../../d0/d56/_fixed_updating_system_8cpp.html" target="_top" xlink:title=" ">
<polygon fill="white" stroke="black" points="383.5,-168.5 383.5,-187.5 531.5,-187.5 531.5,-168.5 383.5,-168.5"/>
<text text-anchor="middle" x="457.5" y="-175.5" font-family="Helvetica,sans-Serif" font-size="10.00">src/FixedUpdatingSystem.cpp</text>
</a>
</g>
</g>
<!-- Node11&#45;&gt;Node12 -->
<g id="edge12" class="edge"><title>Node11&#45;&gt;Node12</title>
<path fill="none" stroke="midnightblue" d="M457.5,-213.805C457.5,-204.91 457.5,-194.78 457.5,-187.751"/>
<polygon fill="midnightblue" stroke="midnightblue" points="454,-214.083 457.5,-224.083 461,-214.083 454,-214.083"/>
</g>
<!-- Node14 -->
<g id="node14" class="node"><title>Node14</title>
<g id="a_node14"><a xlink:href="../../d8/dc4/_sub_systems_8h.html" target="_top" xlink:title=" ">
<polygon fill="white" stroke="black" points="174.5,-336.5 174.5,-355.5 272.5,-355.5 272.5,-336.5 174.5,-336.5"/>
<text text-anchor="middle" x="223.5" y="-343.5" font-family="Helvetica,sans-Serif" font-size="10.00">src/SubSystems.h</text>
</a>
</g>
</g>
<!-- Node13&#45;&gt;Node14 -->
<g id="edge14" class="edge"><title>Node13&#45;&gt;Node14</title>
<path fill="none" stroke="midnightblue" d="M242.824,-382.983C237.902,-373.817 232.142,-363.092 228.2,-355.751"/>
<polygon fill="midnightblue" stroke="midnightblue" points="239.896,-384.929 247.711,-392.083 246.063,-381.617 239.896,-384.929"/>
</g>
<!-- Node15 -->
<g id="node15" class="node"><title>Node15</title>
<g id="a_node15"><a xlink:href="../../dc/d18/_system_base_8h.html" target="_top" xlink:title=" ">
<polygon fill="white" stroke="black" points="174.5,-280.5 174.5,-299.5 272.5,-299.5 272.5,-280.5 174.5,-280.5"/>
<text text-anchor="middle" x="223.5" y="-287.5" font-family="Helvetica,sans-Serif" font-size="10.00">src/SystemBase.h</text>
</a>
</g>
</g>
<!-- Node14&#45;&gt;Node15 -->
<g id="edge15" class="edge"><title>Node14&#45;&gt;Node15</title>
<path fill="none" stroke="midnightblue" d="M223.5,-325.805C223.5,-316.91 223.5,-306.78 223.5,-299.751"/>
<polygon fill="midnightblue" stroke="midnightblue" points="220,-326.083 223.5,-336.083 227,-326.083 220,-326.083"/>
</g>
<!-- Node15&#45;&gt;Node11 -->
<g id="edge16" class="edge"><title>Node15&#45;&gt;Node11</title>
<path fill="none" stroke="midnightblue" d="M270.504,-278.153C314.717,-267.95 380.016,-252.881 420.595,-243.516"/>
<polygon fill="midnightblue" stroke="midnightblue" points="269.535,-274.784 260.578,-280.444 271.109,-281.605 269.535,-274.784"/>
</g>
<!-- Node16 -->
<g id="node16" class="node"><title>Node16</title>
<g id="a_node16"><a xlink:href="../../da/d66/_rendering_system_8h.html" target="_top" xlink:title=" ">
<polygon fill="white" stroke="black" points="30,-224.5 30,-243.5 149,-243.5 149,-224.5 30,-224.5"/>
<text text-anchor="middle" x="89.5" y="-231.5" font-family="Helvetica,sans-Serif" font-size="10.00">src/RenderingSystem.h</text>
</a>
</g>
</g>
<!-- Node15&#45;&gt;Node16 -->
<g id="edge17" class="edge"><title>Node15&#45;&gt;Node16</title>
<path fill="none" stroke="midnightblue" d="M192.823,-276.638C167.677,-266.504 132.746,-252.427 110.633,-243.516"/>
<polygon fill="midnightblue" stroke="midnightblue" points="191.684,-279.952 202.267,-280.444 194.3,-273.459 191.684,-279.952"/>
</g>
<!-- Node18 -->
<g id="node18" class="node"><title>Node18</title>
<g id="a_node18"><a xlink:href="../../db/dc0/_updating_system_8h.html" target="_top" xlink:title=" ">
<polygon fill="white" stroke="black" points="167,-224.5 167,-243.5 280,-243.5 280,-224.5 167,-224.5"/>
<text text-anchor="middle" x="223.5" y="-231.5" font-family="Helvetica,sans-Serif" font-size="10.00">src/UpdatingSystem.h</text>
</a>
</g>
</g>
<!-- Node15&#45;&gt;Node18 -->
<g id="edge20" class="edge"><title>Node15&#45;&gt;Node18</title>
<path fill="none" stroke="midnightblue" d="M223.5,-269.805C223.5,-260.91 223.5,-250.78 223.5,-243.751"/>
<polygon fill="midnightblue" stroke="midnightblue" points="220,-270.083 223.5,-280.083 227,-270.083 220,-270.083"/>
</g>
<!-- Node16&#45;&gt;Node4 -->
<g id="edge18" class="edge"><title>Node16&#45;&gt;Node4</title>
<path fill="none" stroke="midnightblue" d="M136.432,-222.17C181.626,-211.74 248.903,-196.215 289.26,-186.902"/>
<polygon fill="midnightblue" stroke="midnightblue" points="135.535,-218.784 126.578,-224.444 137.109,-225.605 135.535,-218.784"/>
</g>
<!-- Node17 -->
<g id="node17" class="node"><title>Node17</title>
<g id="a_node17"><a xlink:href="../../d2/db8/_rendering_system_8cpp.html" target="_top" xlink:title=" ">
<polygon fill="white" stroke="black" points="0,-168.5 0,-187.5 129,-187.5 129,-168.5 0,-168.5"/>
<text text-anchor="middle" x="64.5" y="-175.5" font-family="Helvetica,sans-Serif" font-size="10.00">src/RenderingSystem.cpp</text>
</a>
</g>
</g>
<!-- Node16&#45;&gt;Node17 -->
<g id="edge19" class="edge"><title>Node16&#45;&gt;Node17</title>
<path fill="none" stroke="midnightblue" d="M81.1587,-214.983C76.9152,-205.817 71.9501,-195.092 68.5514,-187.751"/>
<polygon fill="midnightblue" stroke="midnightblue" points="77.9943,-216.479 85.3718,-224.083 84.3466,-213.538 77.9943,-216.479"/>
</g>
<!-- Node18&#45;&gt;Node4 -->
<g id="edge21" class="edge"><title>Node18&#45;&gt;Node4</title>
<path fill="none" stroke="midnightblue" d="M248.588,-219.453C267.049,-209.483 291.597,-196.228 307.473,-187.655"/>
<polygon fill="midnightblue" stroke="midnightblue" points="246.703,-216.493 239.567,-224.324 250.029,-222.652 246.703,-216.493"/>
</g>
<!-- Node19 -->
<g id="node19" class="node"><title>Node19</title>
<g id="a_node19"><a xlink:href="../../d7/d1d/_updating_system_8cpp.html" target="_top" xlink:title=" ">
<polygon fill="white" stroke="black" points="147.5,-168.5 147.5,-187.5 271.5,-187.5 271.5,-168.5 147.5,-168.5"/>
<text text-anchor="middle" x="209.5" y="-175.5" font-family="Helvetica,sans-Serif" font-size="10.00">src/UpdatingSystem.cpp</text>
</a>
</g>
</g>
<!-- Node18&#45;&gt;Node19 -->
<g id="edge22" class="edge"><title>Node18&#45;&gt;Node19</title>
<path fill="none" stroke="midnightblue" d="M218.677,-214.396C216.335,-205.362 213.632,-194.936 211.769,-187.751"/>
<polygon fill="midnightblue" stroke="midnightblue" points="215.29,-215.281 221.188,-224.083 222.066,-213.525 215.29,-215.281"/>
</g>
<!-- Node20&#45;&gt;Node14 -->
<g id="edge25" class="edge"><title>Node20&#45;&gt;Node14</title>
<path fill="none" stroke="midnightblue" d="M183.825,-440.879C172.374,-427.766 160.56,-408.755 168.5,-392 176.266,-375.611 193.249,-363.206 206.302,-355.614"/>
<polygon fill="midnightblue" stroke="midnightblue" points="181.324,-443.329 190.728,-448.209 186.42,-438.53 181.324,-443.329"/>
</g>
</g>
</svg>
