<?xml version="1.0" encoding="UTF-8" standalone="no"?>
<!DOCTYPE svg PUBLIC "-//W3C//DTD SVG 1.1//EN"
 "http://www.w3.org/Graphics/SVG/1.1/DTD/svg11.dtd">
<!-- Generated by graphviz version 2.38.0 (20140413.2041)
 -->
<!-- Title: Particles Pages: 1 -->
<svg width="346pt" height="219pt"
 viewBox="0.00 0.00 346.00 219.00" xmlns="http://www.w3.org/2000/svg" xmlns:xlink="http://www.w3.org/1999/xlink">
<g id="graph0" class="graph" transform="scale(1 1) rotate(0) translate(4 215)">
<title>Particles</title>
<polygon fill="white" stroke="none" points="-4,4 -4,-215 342,-215 342,4 -4,4"/>
<!-- Node1 -->
<g id="node1" class="node"><title>Node1</title>
<g id="a_node1"><a xlink:title=" ">
<polygon fill="#bfbfbf" stroke="black" points="137.5,-0.5 137.5,-19.5 192.5,-19.5 192.5,-0.5 137.5,-0.5"/>
<text text-anchor="middle" x="165" y="-7.5" font-family="Helvetica,sans-Serif" font-size="10.00">Particles</text>
</a>
</g>
</g>
<!-- Node2 -->
<g id="node2" class="node"><title>Node2</title>
<g id="a_node2"><a xlink:href="../../d2/d00/class_component.html" target="_top" xlink:title=" ">
<polygon fill="white" stroke="black" points="0,-67.5 0,-86.5 122,-86.5 122,-67.5 0,-67.5"/>
<text text-anchor="middle" x="61" y="-74.5" font-family="Helvetica,sans-Serif" font-size="10.00">Component&lt; Particles &gt;</text>
</a>
</g>
</g>
<!-- Node2&#45;&gt;Node1 -->
<g id="edge1" class="edge"><title>Node2&#45;&gt;Node1</title>
<path fill="none" stroke="midnightblue" d="M83.7701,-61.7687C104.356,-48.9026 133.994,-30.379 151.196,-19.6273"/>
<polygon fill="midnightblue" stroke="midnightblue" points="81.6509,-58.9658 75.0259,-67.2338 85.3609,-64.9018 81.6509,-58.9658"/>
</g>
<!-- Node3 -->
<g id="node3" class="node"><title>Node3</title>
<g id="a_node3"><a xlink:href="../../d5/d79/class_component_interface.html" target="_top" xlink:title=" ">
<polygon fill="white" stroke="black" points="17.5,-191.5 17.5,-210.5 120.5,-210.5 120.5,-191.5 17.5,-191.5"/>
<text text-anchor="middle" x="69" y="-198.5" font-family="Helvetica,sans-Serif" font-size="10.00">ComponentInterface</text>
</a>
</g>
</g>
<!-- Node3&#45;&gt;Node2 -->
<g id="edge2" class="edge"><title>Node3&#45;&gt;Node2</title>
<path fill="none" stroke="midnightblue" d="M66.6478,-181.087C65.6924,-172.788 64.6602,-162.923 64,-154 62.207,-129.77 61.4417,-101.109 61.153,-86.9036"/>
<polygon fill="midnightblue" stroke="midnightblue" points="63.1945,-181.686 67.8611,-191.198 70.1446,-180.852 63.1945,-181.686"/>
</g>
<!-- Node4 -->
<g id="node4" class="node"><title>Node4</title>
<g id="a_node4"><a xlink:href="../../d2/d00/class_component.html" target="_top" xlink:title=" ">
<polygon fill="white" stroke="black" points="73.5,-134.5 73.5,-153.5 162.5,-153.5 162.5,-134.5 73.5,-134.5"/>
<text text-anchor="middle" x="118" y="-141.5" font-family="Helvetica,sans-Serif" font-size="10.00">Component&lt; T &gt;</text>
</a>
</g>
</g>
<!-- Node3&#45;&gt;Node4 -->
<g id="edge4" class="edge"><title>Node3&#45;&gt;Node4</title>
<path fill="none" stroke="midnightblue" d="M83.4077,-183.828C92.182,-173.979 103.049,-161.782 110.236,-153.715"/>
<polygon fill="midnightblue" stroke="midnightblue" points="80.695,-181.611 76.6563,-191.406 85.9217,-186.268 80.695,-181.611"/>
</g>
<!-- Node4&#45;&gt;Node2 -->
<g id="edge3" class="edge"><title>Node4&#45;&gt;Node2</title>
<path fill="none" stroke="orange" stroke-dasharray="5,2" d="M103.649,-126.635C92.5015,-113.923 77.4842,-96.7978 68.5655,-86.6273"/>
<polygon fill="orange" stroke="orange" points="101.088,-129.023 110.313,-134.234 106.351,-124.408 101.088,-129.023"/>
<text text-anchor="middle" x="123" y="-108" font-family="Helvetica,sans-Serif" font-size="10.00"> &lt; Particles &gt;</text>
</g>
<!-- Node5 -->
<g id="node5" class="node"><title>Node5</title>
<g id="a_node5"><a xlink:href="../../d2/d7f/class_texture.html" target="_top" xlink:title=" ">
<polygon fill="white" stroke="black" points="140.5,-67.5 140.5,-86.5 189.5,-86.5 189.5,-67.5 140.5,-67.5"/>
<text text-anchor="middle" x="165" y="-74.5" font-family="Helvetica,sans-Serif" font-size="10.00">Texture</text>
</a>
</g>
</g>
<!-- Node5&#45;&gt;Node1 -->
<g id="edge5" class="edge"><title>Node5&#45;&gt;Node1</title>
<path fill="none" stroke="#9a32cd" stroke-dasharray="5,2" d="M165,-57.037C165,-44.6703 165,-29.1198 165,-19.6273"/>
<polygon fill="#9a32cd" stroke="#9a32cd" points="161.5,-57.2338 165,-67.2338 168.5,-57.2338 161.5,-57.2338"/>
<text text-anchor="middle" x="198.5" y="-41" font-family="Helvetica,sans-Serif" font-size="10.00"> particleTexture</text>
</g>
<!-- Node6 -->
<g id="node6" class="node"><title>Node6</title>
<g id="a_node6"><a xlink:href="../../db/d2b/class_settings.html" target="_top" xlink:title=" ">
<polygon fill="white" stroke="black" points="228.5,-67.5 228.5,-86.5 281.5,-86.5 281.5,-67.5 228.5,-67.5"/>
<text text-anchor="middle" x="255" y="-74.5" font-family="Helvetica,sans-Serif" font-size="10.00">Settings</text>
</a>
</g>
</g>
<!-- Node6&#45;&gt;Node1 -->
<g id="edge6" class="edge"><title>Node6&#45;&gt;Node1</title>
<path fill="none" stroke="#9a32cd" stroke-dasharray="5,2" d="M247.643,-57.8793C244.077,-50.9122 239.204,-43.354 233,-38 221.557,-28.1245 206.059,-21.5959 192.748,-17.4367"/>
<polygon fill="#9a32cd" stroke="#9a32cd" points="244.615,-59.678 251.935,-67.3384 250.99,-56.7857 244.615,-59.678"/>
<text text-anchor="middle" x="290.5" y="-41" font-family="Helvetica,sans-Serif" font-size="10.00"> currentWorldSettings</text>
</g>
</g>
</svg>
