<?xml version="1.0" encoding="UTF-8" standalone="no"?>
<!DOCTYPE svg PUBLIC "-//W3C//DTD SVG 1.1//EN"
 "http://www.w3.org/Graphics/SVG/1.1/DTD/svg11.dtd">
<!-- Generated by graphviz version 2.38.0 (20140413.2041)
 -->
<!-- Title: src/AnimationKeys.h Pages: 1 -->
<!--zoomable 812 -->
<svg id="main" version="1.1" xmlns="http://www.w3.org/2000/svg" xmlns:xlink="http://www.w3.org/1999/xlink" xml:space="preserve" onload="init(evt)">
<style type="text/css"><![CDATA[
.edge:hover path { stroke: red; }
.edge:hover polygon { stroke: red; fill: red; }
]]></style>
<script type="text/javascript"><![CDATA[
var edges = document.getElementsByTagName('g');
if (edges && edges.length) {
  for (var i=0;i<edges.length;i++) {
    if (edges[i].id.substr(0,4)=='edge') {
      edges[i].setAttribute('class','edge');
    }
  }
}
]]></script>
        <defs>
                <circle id="rim" cx="0" cy="0" r="7"/>
                <circle id="rim2" cx="0" cy="0" r="3.5"/>
                <g id="zoomPlus">
                        <use xlink:href="#rim" fill="#404040">
                                <set attributeName="fill" to="#808080" begin="zoomplus.mouseover" end="zoomplus.mouseout"/>
                        </use>
                        <path d="M-4,0h8M0,-4v8" fill="none" stroke="white" stroke-width="1.5" pointer-events="none"/>
                </g>
                <g id="zoomMin">
                        <use xlink:href="#rim" fill="#404040">
                                <set attributeName="fill" to="#808080" begin="zoomminus.mouseover" end="zoomminus.mouseout"/>
                        </use>
                        <path d="M-4,0h8" fill="none" stroke="white" stroke-width="1.5" pointer-events="none"/>
                </g>
                <g id="dirArrow">
                        <path fill="none" stroke="white" stroke-width="1.5" d="M0,-3.0v7 M-2.5,-0.5L0,-3.0L2.5,-0.5"/>
                </g>
               <g id="resetDef">
                       <use xlink:href="#rim2" fill="#404040">
                               <set attributeName="fill" to="#808080" begin="reset.mouseover" end="reset.mouseout"/>
                       </use>
               </g>
        </defs>

<script type="text/javascript">
var viewWidth = 990;
var viewHeight = 812;
var sectionId = 'dynsection-1';
</script>
<script xlink:href="../../svgpan.js"/>
<svg id="graph" class="graph">
<g id="viewport">
<title>src/AnimationKeys.h</title>
<polygon fill="white" stroke="none" points="-4,4 -4,-808 985.92,-808 985.92,4 -4,4"/>
<!-- Node1 -->
<g id="node1" class="node"><title>Node1</title>
<g id="a_node1"><a xlink:title=" ">
<polygon fill="#bfbfbf" stroke="black" points="731.5,-784.5 731.5,-803.5 838.5,-803.5 838.5,-784.5 731.5,-784.5"/>
<text text-anchor="middle" x="785" y="-791.5" font-family="Helvetica,sans-Serif" font-size="10.00">src/AnimationKeys.h</text>
</a>
</g>
</g>
<!-- Node2 -->
<g id="node2" class="node"><title>Node2</title>
<g id="a_node2"><a xlink:href="../../de/de6/_skeletal_system_8h.html" target="_top" xlink:title=" ">
<polygon fill="white" stroke="black" points="730,-728.5 730,-747.5 840,-747.5 840,-728.5 730,-728.5"/>
<text text-anchor="middle" x="785" y="-735.5" font-family="Helvetica,sans-Serif" font-size="10.00">src/SkeletalSystem.h</text>
</a>
</g>
</g>
<!-- Node1&#45;&gt;Node2 -->
<g id="edge1" class="edge"><title>Node1&#45;&gt;Node2</title>
<path fill="none" stroke="midnightblue" d="M785,-773.805C785,-764.91 785,-754.78 785,-747.751"/>
<polygon fill="midnightblue" stroke="midnightblue" points="781.5,-774.083 785,-784.083 788.5,-774.083 781.5,-774.083"/>
</g>
<!-- Node3 -->
<g id="node3" class="node"><title>Node3</title>
<g id="a_node3"><a xlink:href="../../db/de6/_animated_model_8h.html" target="_top" xlink:title=" ">
<polygon fill="white" stroke="black" points="664.5,-672.5 664.5,-691.5 773.5,-691.5 773.5,-672.5 664.5,-672.5"/>
<text text-anchor="middle" x="719" y="-679.5" font-family="Helvetica,sans-Serif" font-size="10.00">src/AnimatedModel.h</text>
</a>
</g>
</g>
<!-- Node2&#45;&gt;Node3 -->
<g id="edge2" class="edge"><title>Node2&#45;&gt;Node3</title>
<path fill="none" stroke="midnightblue" d="M766.446,-721.82C754.622,-712.145 739.714,-699.948 729.797,-691.834"/>
<polygon fill="midnightblue" stroke="midnightblue" points="764.44,-724.7 774.396,-728.324 768.873,-719.283 764.44,-724.7"/>
</g>
<!-- Node41 -->
<g id="node41" class="node"><title>Node41</title>
<g id="a_node41"><a xlink:href="../../d4/dcd/_unidentified_model_8h.html" target="_top" xlink:title=" ">
<polygon fill="white" stroke="black" points="792,-672.5 792,-691.5 910,-691.5 910,-672.5 792,-672.5"/>
<text text-anchor="middle" x="851" y="-679.5" font-family="Helvetica,sans-Serif" font-size="10.00">src/UnidentifiedModel.h</text>
</a>
</g>
</g>
<!-- Node2&#45;&gt;Node41 -->
<g id="edge62" class="edge"><title>Node2&#45;&gt;Node41</title>
<path fill="none" stroke="midnightblue" d="M803.554,-721.82C815.378,-712.145 830.286,-699.948 840.203,-691.834"/>
<polygon fill="midnightblue" stroke="midnightblue" points="801.127,-719.283 795.604,-728.324 805.56,-724.7 801.127,-719.283"/>
</g>
<!-- Node4 -->
<g id="node4" class="node"><title>Node4</title>
<g id="a_node4"><a xlink:href="../../d8/de6/_animated_model_8cpp.html" target="_top" xlink:title=" ">
<polygon fill="white" stroke="black" points="489.5,-616.5 489.5,-635.5 608.5,-635.5 608.5,-616.5 489.5,-616.5"/>
<text text-anchor="middle" x="549" y="-623.5" font-family="Helvetica,sans-Serif" font-size="10.00">src/AnimatedModel.cpp</text>
</a>
</g>
</g>
<!-- Node3&#45;&gt;Node4 -->
<g id="edge3" class="edge"><title>Node3&#45;&gt;Node4</title>
<path fill="none" stroke="midnightblue" d="M682.181,-669.304C650.148,-659.129 604.485,-644.625 575.811,-635.516"/>
<polygon fill="midnightblue" stroke="midnightblue" points="681.473,-672.752 692.063,-672.444 683.592,-666.08 681.473,-672.752"/>
</g>
<!-- Node5 -->
<g id="node5" class="node"><title>Node5</title>
<g id="a_node5"><a xlink:href="../../d3/dfd/_model_serialization_8h.html" target="_top" xlink:title=" ">
<polygon fill="white" stroke="black" points="703.5,-616.5 703.5,-635.5 824.5,-635.5 824.5,-616.5 703.5,-616.5"/>
<text text-anchor="middle" x="764" y="-623.5" font-family="Helvetica,sans-Serif" font-size="10.00">src/ModelSerialization.h</text>
</a>
</g>
</g>
<!-- Node3&#45;&gt;Node5 -->
<g id="edge4" class="edge"><title>Node3&#45;&gt;Node5</title>
<path fill="none" stroke="midnightblue" d="M726.954,-663.855C733.921,-654.505 743.637,-643.327 751.576,-635.751"/>
<polygon fill="midnightblue" stroke="midnightblue" points="724.073,-661.867 721.265,-672.083 729.831,-665.849 724.073,-661.867"/>
</g>
<!-- Node7 -->
<g id="node7" class="node"><title>Node7</title>
<g id="a_node7"><a xlink:href="../../d6/df5/_collision_mesh_8h.html" target="_top" xlink:title=" ">
<polygon fill="white" stroke="black" points="449,-504.5 449,-523.5 551,-523.5 551,-504.5 449,-504.5"/>
<text text-anchor="middle" x="500" y="-511.5" font-family="Helvetica,sans-Serif" font-size="10.00">src/CollisionMesh.h</text>
</a>
</g>
</g>
<!-- Node3&#45;&gt;Node7 -->
<g id="edge60" class="edge"><title>Node3&#45;&gt;Node7</title>
<path fill="none" stroke="midnightblue" d="M699.508,-666.225C654.932,-632.437 546.676,-550.38 511.353,-523.605"/>
<polygon fill="midnightblue" stroke="midnightblue" points="697.45,-669.057 707.534,-672.309 701.679,-663.479 697.45,-669.057"/>
</g>
<!-- Node8 -->
<g id="node8" class="node"><title>Node8</title>
<g id="a_node8"><a xlink:href="../../d5/dbd/_bone_collision_mesh_8h.html" target="_top" xlink:title=" ">
<polygon fill="white" stroke="black" points="839.5,-448.5 839.5,-467.5 964.5,-467.5 964.5,-448.5 839.5,-448.5"/>
<text text-anchor="middle" x="902" y="-455.5" font-family="Helvetica,sans-Serif" font-size="10.00">src/BoneCollisionMesh.h</text>
</a>
</g>
</g>
<!-- Node3&#45;&gt;Node8 -->
<g id="edge59" class="edge"><title>Node3&#45;&gt;Node8</title>
<path fill="none" stroke="midnightblue" d="M757.627,-669.455C816.343,-651.012 923.427,-613.559 944,-580 967.476,-541.705 927.754,-488.508 909.952,-467.769"/>
<polygon fill="midnightblue" stroke="midnightblue" points="756.461,-666.152 747.949,-672.46 758.537,-672.837 756.461,-666.152"/>
</g>
<!-- Node17 -->
<g id="node17" class="node"><title>Node17</title>
<g id="a_node17"><a xlink:href="../../d9/d43/_bone_collision_mesh_system_8h.html" target="_top" xlink:title=" ">
<polygon fill="white" stroke="black" points="616,-392.5 616,-411.5 774,-411.5 774,-392.5 616,-392.5"/>
<text text-anchor="middle" x="695" y="-399.5" font-family="Helvetica,sans-Serif" font-size="10.00">src/BoneCollisionMeshSystem.h</text>
</a>
</g>
</g>
<!-- Node3&#45;&gt;Node17 -->
<g id="edge61" class="edge"><title>Node3&#45;&gt;Node17</title>
<path fill="none" stroke="midnightblue" d="M707.432,-663.925C694.396,-642.987 675,-605.96 675,-571 675,-571 675,-571 675,-513 675,-474.762 686.844,-430.235 692.303,-411.742"/>
<polygon fill="midnightblue" stroke="midnightblue" points="704.511,-665.854 712.882,-672.349 710.388,-662.051 704.511,-665.854"/>
</g>
<!-- Node5&#45;&gt;Node3 -->
<g id="edge5" class="edge"><title>Node5&#45;&gt;Node3</title>
<path fill="none" stroke="midnightblue" d="M756.087,-644.09C749.094,-653.482 739.315,-664.733 731.345,-672.324"/>
<polygon fill="midnightblue" stroke="midnightblue" points="758.986,-646.052 761.787,-635.834 753.225,-642.074 758.986,-646.052"/>
</g>
<!-- Node6 -->
<g id="node6" class="node"><title>Node6</title>
<g id="a_node6"><a xlink:href="../../da/ded/_model_8h.html" target="_top" xlink:title=" ">
<polygon fill="white" stroke="black" points="717,-560.5 717,-579.5 785,-579.5 785,-560.5 717,-560.5"/>
<text text-anchor="middle" x="751" y="-567.5" font-family="Helvetica,sans-Serif" font-size="10.00">src/Model.h</text>
</a>
</g>
</g>
<!-- Node5&#45;&gt;Node6 -->
<g id="edge6" class="edge"><title>Node5&#45;&gt;Node6</title>
<path fill="none" stroke="midnightblue" d="M753.163,-606.69C750.278,-597.589 748.164,-587.014 747.976,-579.751"/>
<polygon fill="midnightblue" stroke="midnightblue" points="749.897,-607.95 756.687,-616.083 756.451,-605.491 749.897,-607.95"/>
</g>
<!-- Node40 -->
<g id="node40" class="node"><title>Node40</title>
<g id="a_node40"><a xlink:href="../../d5/dbf/_model_serialization_8cpp.html" target="_top" xlink:title=" ">
<polygon fill="white" stroke="black" points="803.5,-560.5 803.5,-579.5 934.5,-579.5 934.5,-560.5 803.5,-560.5"/>
<text text-anchor="middle" x="869" y="-567.5" font-family="Helvetica,sans-Serif" font-size="10.00">src/ModelSerialization.cpp</text>
</a>
</g>
</g>
<!-- Node5&#45;&gt;Node40 -->
<g id="edge58" class="edge"><title>Node5&#45;&gt;Node40</title>
<path fill="none" stroke="midnightblue" d="M789.81,-611.726C809.253,-601.727 835.348,-588.307 852.172,-579.655"/>
<polygon fill="midnightblue" stroke="midnightblue" points="788.162,-608.638 780.87,-616.324 791.364,-614.863 788.162,-608.638"/>
</g>
<!-- Node6&#45;&gt;Node5 -->
<g id="edge7" class="edge"><title>Node6&#45;&gt;Node5</title>
<path fill="none" stroke="midnightblue" d="M761.865,-589.397C764.714,-598.409 766.804,-608.849 767.02,-616.083"/>
<polygon fill="midnightblue" stroke="midnightblue" points="765.033,-587.879 758.238,-579.751 758.481,-590.343 765.033,-587.879"/>
</g>
<!-- Node6&#45;&gt;Node7 -->
<g id="edge8" class="edge"><title>Node6&#45;&gt;Node7</title>
<path fill="none" stroke="midnightblue" d="M706.95,-559.523C659.715,-549.361 585.38,-533.369 539.837,-523.57"/>
<polygon fill="midnightblue" stroke="midnightblue" points="706.375,-562.979 716.888,-561.661 707.848,-556.136 706.375,-562.979"/>
</g>
<!-- Node22 -->
<g id="node22" class="node"><title>Node22</title>
<g id="a_node22"><a xlink:href="../../da/d66/_rendering_system_8h.html" target="_top" xlink:title=" ">
<polygon fill="white" stroke="black" points="520.5,-224.5 520.5,-243.5 639.5,-243.5 639.5,-224.5 520.5,-224.5"/>
<text text-anchor="middle" x="580" y="-231.5" font-family="Helvetica,sans-Serif" font-size="10.00">src/RenderingSystem.h</text>
</a>
</g>
</g>
<!-- Node6&#45;&gt;Node22 -->
<g id="edge56" class="edge"><title>Node6&#45;&gt;Node22</title>
<path fill="none" stroke="midnightblue" d="M761.356,-551.549C783.988,-510.923 832.698,-408.014 792,-336 760.407,-280.098 687.444,-254.752 635.973,-243.523"/>
<polygon fill="midnightblue" stroke="midnightblue" points="758.29,-549.859 756.354,-560.275 764.363,-553.34 758.29,-549.859"/>
</g>
<!-- Node39 -->
<g id="node39" class="node"><title>Node39</title>
<g id="a_node39"><a xlink:href="../../d2/d31/_model_8cpp.html" target="_top" xlink:title=" ">
<polygon fill="white" stroke="black" points="834,-504.5 834,-523.5 912,-523.5 912,-504.5 834,-504.5"/>
<text text-anchor="middle" x="873" y="-511.5" font-family="Helvetica,sans-Serif" font-size="10.00">src/Model.cpp</text>
</a>
</g>
</g>
<!-- Node6&#45;&gt;Node39 -->
<g id="edge57" class="edge"><title>Node6&#45;&gt;Node39</title>
<path fill="none" stroke="midnightblue" d="M779.539,-556.368C802.386,-546.255 833.805,-532.349 853.759,-523.516"/>
<polygon fill="midnightblue" stroke="midnightblue" points="778.059,-553.196 770.331,-560.444 780.892,-559.597 778.059,-553.196"/>
</g>
<!-- Node7&#45;&gt;Node8 -->
<g id="edge9" class="edge"><title>Node7&#45;&gt;Node8</title>
<path fill="none" stroke="midnightblue" d="M561.597,-504.726C636.915,-494.608 763.689,-477.579 839.441,-467.403"/>
<polygon fill="midnightblue" stroke="midnightblue" points="560.767,-501.306 551.322,-506.106 561.699,-508.243 560.767,-501.306"/>
</g>
<!-- Node9 -->
<g id="node9" class="node"><title>Node9</title>
<g id="a_node9"><a xlink:href="../../da/d03/_entity_tests_8h.html" target="_top" xlink:title=" ">
<polygon fill="white" stroke="black" points="814.5,-224.5 814.5,-243.5 905.5,-243.5 905.5,-224.5 814.5,-224.5"/>
<text text-anchor="middle" x="860" y="-231.5" font-family="Helvetica,sans-Serif" font-size="10.00">src/EntityTests.h</text>
</a>
</g>
</g>
<!-- Node7&#45;&gt;Node9 -->
<g id="edge32" class="edge"><title>Node7&#45;&gt;Node9</title>
<path fill="none" stroke="midnightblue" d="M527.93,-499.364C540.884,-491.76 555.484,-481.154 565,-468 600.855,-418.436 562.395,-380.847 604,-336 634.709,-302.899 656.952,-316.453 699,-300 749.528,-280.229 808.597,-256.126 839.216,-243.557"/>
<polygon fill="midnightblue" stroke="midnightblue" points="525.944,-496.463 518.885,-504.364 529.33,-502.589 525.944,-496.463"/>
</g>
<!-- Node24 -->
<g id="node24" class="node"><title>Node24</title>
<g id="a_node24"><a xlink:href="../../db/dc0/_updating_system_8h.html" target="_top" xlink:title=" ">
<polygon fill="white" stroke="black" points="135.5,-224.5 135.5,-243.5 248.5,-243.5 248.5,-224.5 135.5,-224.5"/>
<text text-anchor="middle" x="192" y="-231.5" font-family="Helvetica,sans-Serif" font-size="10.00">src/UpdatingSystem.h</text>
</a>
</g>
</g>
<!-- Node7&#45;&gt;Node24 -->
<g id="edge54" class="edge"><title>Node7&#45;&gt;Node24</title>
<path fill="none" stroke="midnightblue" d="M438.767,-512.273C305.294,-509.031 0,-491.899 0,-403 0,-403 0,-403 0,-345 0,-281.997 78.7969,-254.573 135.432,-242.998"/>
<polygon fill="midnightblue" stroke="midnightblue" points="438.765,-515.774 448.841,-512.499 438.922,-508.776 438.765,-515.774"/>
</g>
<!-- Node28 -->
<g id="node28" class="node"><title>Node28</title>
<g id="a_node28"><a xlink:href="../../d7/d37/_physics_world_8h.html" target="_top" xlink:title=" ">
<polygon fill="white" stroke="black" points="323,-448.5 323,-467.5 425,-467.5 425,-448.5 323,-448.5"/>
<text text-anchor="middle" x="374" y="-455.5" font-family="Helvetica,sans-Serif" font-size="10.00">src/PhysicsWorld.h</text>
</a>
</g>
</g>
<!-- Node7&#45;&gt;Node28 -->
<g id="edge33" class="edge"><title>Node7&#45;&gt;Node28</title>
<path fill="none" stroke="midnightblue" d="M470.84,-500.503C447.219,-490.38 414.572,-476.388 393.872,-467.516"/>
<polygon fill="midnightblue" stroke="midnightblue" points="469.465,-503.721 480.035,-504.444 472.222,-497.287 469.465,-503.721"/>
</g>
<!-- Node33 -->
<g id="node33" class="node"><title>Node33</title>
<g id="a_node33"><a xlink:href="../../df/d4c/_enemy_controller_system_8h.html" target="_top" xlink:title=" ">
<polygon fill="white" stroke="black" points="39.5,-392.5 39.5,-411.5 186.5,-411.5 186.5,-392.5 39.5,-392.5"/>
<text text-anchor="middle" x="113" y="-399.5" font-family="Helvetica,sans-Serif" font-size="10.00">src/EnemyControllerSystem.h</text>
</a>
</g>
</g>
<!-- Node7&#45;&gt;Node33 -->
<g id="edge52" class="edge"><title>Node7&#45;&gt;Node33</title>
<path fill="none" stroke="midnightblue" d="M442.278,-502.581C400.471,-494.52 342.791,-482.334 293,-468 234.252,-451.088 166.966,-424.908 133.765,-411.519"/>
<polygon fill="midnightblue" stroke="midnightblue" points="441.803,-506.053 452.282,-504.489 443.115,-499.177 441.803,-506.053"/>
</g>
<!-- Node35 -->
<g id="node35" class="node"><title>Node35</title>
<g id="a_node35"><a xlink:href="../../d8/d3c/_player_controller_system_8h.html" target="_top" xlink:title=" ">
<polygon fill="white" stroke="black" points="205,-392.5 205,-411.5 349,-411.5 349,-392.5 205,-392.5"/>
<text text-anchor="middle" x="277" y="-399.5" font-family="Helvetica,sans-Serif" font-size="10.00">src/PlayerControllerSystem.h</text>
</a>
</g>
</g>
<!-- Node7&#45;&gt;Node35 -->
<g id="edge53" class="edge"><title>Node7&#45;&gt;Node35</title>
<path fill="none" stroke="midnightblue" d="M438.585,-510.418C399.554,-506.006 349.816,-494.965 314,-468 294.705,-453.473 283.916,-425.743 279.458,-411.664"/>
<polygon fill="midnightblue" stroke="midnightblue" points="438.473,-513.925 448.775,-511.449 439.178,-506.96 438.473,-513.925"/>
</g>
<!-- Node38 -->
<g id="node38" class="node"><title>Node38</title>
<g id="a_node38"><a xlink:href="../../d1/df8/_collision_mesh_8cpp.html" target="_top" xlink:title=" ">
<polygon fill="white" stroke="black" points="443.5,-448.5 443.5,-467.5 556.5,-467.5 556.5,-448.5 443.5,-448.5"/>
<text text-anchor="middle" x="500" y="-455.5" font-family="Helvetica,sans-Serif" font-size="10.00">src/CollisionMesh.cpp</text>
</a>
</g>
</g>
<!-- Node7&#45;&gt;Node38 -->
<g id="edge55" class="edge"><title>Node7&#45;&gt;Node38</title>
<path fill="none" stroke="midnightblue" d="M500,-493.805C500,-484.91 500,-474.78 500,-467.751"/>
<polygon fill="midnightblue" stroke="midnightblue" points="496.5,-494.083 500,-504.083 503.5,-494.083 496.5,-494.083"/>
</g>
<!-- Node8&#45;&gt;Node9 -->
<g id="edge10" class="edge"><title>Node8&#45;&gt;Node9</title>
<path fill="none" stroke="midnightblue" d="M939.57,-444.542C954.609,-437.496 970.385,-427.014 979,-412 983.424,-404.29 981.832,-400.426 979,-392 956.768,-325.865 894.402,-265.436 869.983,-243.616"/>
<polygon fill="midnightblue" stroke="midnightblue" points="938.178,-441.331 930.372,-448.495 940.942,-447.762 938.178,-441.331"/>
</g>
<!-- Node8&#45;&gt;Node17 -->
<g id="edge18" class="edge"><title>Node8&#45;&gt;Node17</title>
<path fill="none" stroke="midnightblue" d="M859.178,-445.829C820.094,-435.633 763.165,-420.782 727.646,-411.516"/>
<polygon fill="midnightblue" stroke="midnightblue" points="858.641,-449.306 869.2,-448.444 860.408,-442.533 858.641,-449.306"/>
</g>
<!-- Node27 -->
<g id="node27" class="node"><title>Node27</title>
<g id="a_node27"><a xlink:href="../../de/de2/_bone_collision_mesh_8cpp.html" target="_top" xlink:title=" ">
<polygon fill="white" stroke="black" points="834.5,-392.5 834.5,-411.5 969.5,-411.5 969.5,-392.5 834.5,-392.5"/>
<text text-anchor="middle" x="902" y="-399.5" font-family="Helvetica,sans-Serif" font-size="10.00">src/BoneCollisionMesh.cpp</text>
</a>
</g>
</g>
<!-- Node8&#45;&gt;Node27 -->
<g id="edge31" class="edge"><title>Node8&#45;&gt;Node27</title>
<path fill="none" stroke="midnightblue" d="M902,-437.805C902,-428.91 902,-418.78 902,-411.751"/>
<polygon fill="midnightblue" stroke="midnightblue" points="898.5,-438.083 902,-448.083 905.5,-438.083 898.5,-438.083"/>
</g>
<!-- Node10 -->
<g id="node10" class="node"><title>Node10</title>
<g id="a_node10"><a xlink:href="../../d9/dcd/_game_8h.html" target="_top" xlink:title=" ">
<polygon fill="white" stroke="black" points="482,-168.5 482,-187.5 550,-187.5 550,-168.5 482,-168.5"/>
<text text-anchor="middle" x="516" y="-175.5" font-family="Helvetica,sans-Serif" font-size="10.00">src/Game.h</text>
</a>
</g>
</g>
<!-- Node9&#45;&gt;Node10 -->
<g id="edge11" class="edge"><title>Node9&#45;&gt;Node10</title>
<path fill="none" stroke="midnightblue" d="M804.205,-223.75C694.672,-206.892 665.033,-206.805 559,-188 556.146,-187.494 553.192,-186.94 550.231,-186.363"/>
<polygon fill="midnightblue" stroke="midnightblue" points="803.927,-227.249 814.345,-225.324 805,-220.332 803.927,-227.249"/>
</g>
<!-- Node16 -->
<g id="node16" class="node"><title>Node16</title>
<g id="a_node16"><a xlink:href="../../de/d4c/_entity_tests_8cpp.html" target="_top" xlink:title=" ">
<polygon fill="white" stroke="black" points="809.5,-168.5 809.5,-187.5 910.5,-187.5 910.5,-168.5 809.5,-168.5"/>
<text text-anchor="middle" x="860" y="-175.5" font-family="Helvetica,sans-Serif" font-size="10.00">src/EntityTests.cpp</text>
</a>
</g>
</g>
<!-- Node9&#45;&gt;Node16 -->
<g id="edge17" class="edge"><title>Node9&#45;&gt;Node16</title>
<path fill="none" stroke="midnightblue" d="M860,-213.805C860,-204.91 860,-194.78 860,-187.751"/>
<polygon fill="midnightblue" stroke="midnightblue" points="856.5,-214.083 860,-224.083 863.5,-214.083 856.5,-214.083"/>
</g>
<!-- Node11 -->
<g id="node11" class="node"><title>Node11</title>
<g id="a_node11"><a xlink:href="../../d9/da3/_application_8h.html" target="_top" xlink:title=" ">
<polygon fill="white" stroke="black" points="420.5,-112.5 420.5,-131.5 509.5,-131.5 509.5,-112.5 420.5,-112.5"/>
<text text-anchor="middle" x="465" y="-119.5" font-family="Helvetica,sans-Serif" font-size="10.00">src/Application.h</text>
</a>
</g>
</g>
<!-- Node10&#45;&gt;Node11 -->
<g id="edge12" class="edge"><title>Node10&#45;&gt;Node11</title>
<path fill="none" stroke="midnightblue" d="M500.622,-160.718C491.633,-151.2 480.641,-139.561 473.265,-131.751"/>
<polygon fill="midnightblue" stroke="midnightblue" points="498.168,-163.216 507.578,-168.083 503.257,-158.41 498.168,-163.216"/>
</g>
<!-- Node15 -->
<g id="node15" class="node"><title>Node15</title>
<g id="a_node15"><a xlink:href="../../d7/db5/_game_8cpp.html" target="_top" xlink:title=" ">
<polygon fill="white" stroke="black" points="528,-112.5 528,-131.5 606,-131.5 606,-112.5 528,-112.5"/>
<text text-anchor="middle" x="567" y="-119.5" font-family="Helvetica,sans-Serif" font-size="10.00">src/Game.cpp</text>
</a>
</g>
</g>
<!-- Node10&#45;&gt;Node15 -->
<g id="edge16" class="edge"><title>Node10&#45;&gt;Node15</title>
<path fill="none" stroke="midnightblue" d="M531.378,-160.718C540.367,-151.2 551.359,-139.561 558.735,-131.751"/>
<polygon fill="midnightblue" stroke="midnightblue" points="528.743,-158.41 524.422,-168.083 533.832,-163.216 528.743,-158.41"/>
</g>
<!-- Node12 -->
<g id="node12" class="node"><title>Node12</title>
<g id="a_node12"><a xlink:href="../../d0/d42/_application_8cpp.html" target="_top" xlink:title=" ">
<polygon fill="white" stroke="black" points="366,-56.5 366,-75.5 466,-75.5 466,-56.5 366,-56.5"/>
<text text-anchor="middle" x="416" y="-63.5" font-family="Helvetica,sans-Serif" font-size="10.00">src/Application.cpp</text>
</a>
</g>
</g>
<!-- Node11&#45;&gt;Node12 -->
<g id="edge13" class="edge"><title>Node11&#45;&gt;Node12</title>
<path fill="none" stroke="midnightblue" d="M449.966,-104.431C441.378,-94.9673 430.957,-83.4827 423.941,-75.7511"/>
<polygon fill="midnightblue" stroke="midnightblue" points="447.597,-107.029 456.909,-112.083 452.781,-102.325 447.597,-107.029"/>
</g>
<!-- Node13 -->
<g id="node13" class="node"><title>Node13</title>
<g id="a_node13"><a xlink:href="../../d4/dbf/main_8h.html" target="_top" xlink:title=" ">
<polygon fill="white" stroke="black" points="484,-56.5 484,-75.5 546,-75.5 546,-56.5 484,-56.5"/>
<text text-anchor="middle" x="515" y="-63.5" font-family="Helvetica,sans-Serif" font-size="10.00">src/main.h</text>
</a>
</g>
</g>
<!-- Node11&#45;&gt;Node13 -->
<g id="edge14" class="edge"><title>Node11&#45;&gt;Node13</title>
<path fill="none" stroke="midnightblue" d="M480.076,-104.718C488.889,-95.1997 499.666,-83.5608 506.897,-75.7511"/>
<polygon fill="midnightblue" stroke="midnightblue" points="477.482,-102.367 473.256,-112.083 482.619,-107.123 477.482,-102.367"/>
</g>
<!-- Node14 -->
<g id="node14" class="node"><title>Node14</title>
<g id="a_node14"><a xlink:href="../../d5/d12/_main_8cpp.html" target="_top" xlink:title=" ">
<polygon fill="white" stroke="black" points="478.5,-0.5 478.5,-19.5 551.5,-19.5 551.5,-0.5 478.5,-0.5"/>
<text text-anchor="middle" x="515" y="-7.5" font-family="Helvetica,sans-Serif" font-size="10.00">src/Main.cpp</text>
</a>
</g>
</g>
<!-- Node13&#45;&gt;Node14 -->
<g id="edge15" class="edge"><title>Node13&#45;&gt;Node14</title>
<path fill="none" stroke="midnightblue" d="M515,-45.8045C515,-36.9102 515,-26.7798 515,-19.7511"/>
<polygon fill="midnightblue" stroke="midnightblue" points="511.5,-46.083 515,-56.083 518.5,-46.083 511.5,-46.083"/>
</g>
<!-- Node18 -->
<g id="node18" class="node"><title>Node18</title>
<g id="a_node18"><a xlink:href="../../d8/dc4/_sub_systems_8h.html" target="_top" xlink:title=" ">
<polygon fill="white" stroke="black" points="378,-336.5 378,-355.5 476,-355.5 476,-336.5 378,-336.5"/>
<text text-anchor="middle" x="427" y="-343.5" font-family="Helvetica,sans-Serif" font-size="10.00">src/SubSystems.h</text>
</a>
</g>
</g>
<!-- Node17&#45;&gt;Node18 -->
<g id="edge19" class="edge"><title>Node17&#45;&gt;Node18</title>
<path fill="none" stroke="midnightblue" d="M642.44,-390.41C591.791,-380.204 516.133,-364.96 469.267,-355.516"/>
<polygon fill="midnightblue" stroke="midnightblue" points="642.04,-393.899 652.535,-392.444 643.423,-387.037 642.04,-393.899"/>
</g>
<!-- Node26 -->
<g id="node26" class="node"><title>Node26</title>
<g id="a_node26"><a xlink:href="../../d9/d9b/_bone_collision_mesh_system_8cpp.html" target="_top" xlink:title=" ">
<polygon fill="white" stroke="black" points="613.5,-336.5 613.5,-355.5 782.5,-355.5 782.5,-336.5 613.5,-336.5"/>
<text text-anchor="middle" x="698" y="-343.5" font-family="Helvetica,sans-Serif" font-size="10.00">src/BoneCollisionMeshSystem.cpp</text>
</a>
</g>
</g>
<!-- Node17&#45;&gt;Node26 -->
<g id="edge30" class="edge"><title>Node17&#45;&gt;Node26</title>
<path fill="none" stroke="midnightblue" d="M696.066,-381.805C696.561,-372.91 697.123,-362.78 697.514,-355.751"/>
<polygon fill="midnightblue" stroke="midnightblue" points="692.556,-381.904 695.495,-392.083 699.545,-382.293 692.556,-381.904"/>
</g>
<!-- Node19 -->
<g id="node19" class="node"><title>Node19</title>
<g id="a_node19"><a xlink:href="../../dc/d18/_system_base_8h.html" target="_top" xlink:title=" ">
<polygon fill="white" stroke="black" points="358,-280.5 358,-299.5 456,-299.5 456,-280.5 358,-280.5"/>
<text text-anchor="middle" x="407" y="-287.5" font-family="Helvetica,sans-Serif" font-size="10.00">src/SystemBase.h</text>
</a>
</g>
</g>
<!-- Node18&#45;&gt;Node19 -->
<g id="edge20" class="edge"><title>Node18&#45;&gt;Node19</title>
<path fill="none" stroke="midnightblue" d="M420.218,-326.69C416.848,-317.589 412.931,-307.014 410.241,-299.751"/>
<polygon fill="midnightblue" stroke="midnightblue" points="416.942,-327.921 423.697,-336.083 423.506,-325.49 416.942,-327.921"/>
</g>
<!-- Node20 -->
<g id="node20" class="node"><title>Node20</title>
<g id="a_node20"><a xlink:href="../../db/d81/_fixed_updating_system_8h.html" target="_top" xlink:title=" ">
<polygon fill="white" stroke="black" points="365.5,-224.5 365.5,-243.5 502.5,-243.5 502.5,-224.5 365.5,-224.5"/>
<text text-anchor="middle" x="434" y="-231.5" font-family="Helvetica,sans-Serif" font-size="10.00">src/FixedUpdatingSystem.h</text>
</a>
</g>
</g>
<!-- Node19&#45;&gt;Node20 -->
<g id="edge21" class="edge"><title>Node19&#45;&gt;Node20</title>
<path fill="none" stroke="midnightblue" d="M416.009,-270.983C420.592,-261.817 425.954,-251.092 429.624,-243.751"/>
<polygon fill="midnightblue" stroke="midnightblue" points="412.8,-269.573 411.459,-280.083 419.061,-272.704 412.8,-269.573"/>
</g>
<!-- Node19&#45;&gt;Node22 -->
<g id="edge24" class="edge"><title>Node19&#45;&gt;Node22</title>
<path fill="none" stroke="midnightblue" d="M444.047,-277.436C476.664,-267.255 523.41,-252.664 552.716,-243.516"/>
<polygon fill="midnightblue" stroke="midnightblue" points="442.915,-274.123 434.412,-280.444 445.001,-280.805 442.915,-274.123"/>
</g>
<!-- Node19&#45;&gt;Node24 -->
<g id="edge27" class="edge"><title>Node19&#45;&gt;Node24</title>
<path fill="none" stroke="midnightblue" d="M363.04,-277.959C322.433,-267.76 262.957,-252.822 225.908,-243.516"/>
<polygon fill="midnightblue" stroke="midnightblue" points="362.381,-281.402 372.933,-280.444 364.086,-274.613 362.381,-281.402"/>
</g>
<!-- Node20&#45;&gt;Node10 -->
<g id="edge22" class="edge"><title>Node20&#45;&gt;Node10</title>
<path fill="none" stroke="midnightblue" d="M455.833,-218.622C470.813,-208.757 490.197,-195.992 502.858,-187.655"/>
<polygon fill="midnightblue" stroke="midnightblue" points="453.601,-215.901 447.175,-224.324 457.451,-221.747 453.601,-215.901"/>
</g>
<!-- Node21 -->
<g id="node21" class="node"><title>Node21</title>
<g id="a_node21"><a xlink:href="../../d0/d56/_fixed_updating_system_8cpp.html" target="_top" xlink:title=" ">
<polygon fill="white" stroke="black" points="316,-168.5 316,-187.5 464,-187.5 464,-168.5 316,-168.5"/>
<text text-anchor="middle" x="390" y="-175.5" font-family="Helvetica,sans-Serif" font-size="10.00">src/FixedUpdatingSystem.cpp</text>
</a>
</g>
</g>
<!-- Node20&#45;&gt;Node21 -->
<g id="edge23" class="edge"><title>Node20&#45;&gt;Node21</title>
<path fill="none" stroke="midnightblue" d="M420.265,-216.144C412.599,-206.736 403.367,-195.405 397.131,-187.751"/>
<polygon fill="midnightblue" stroke="midnightblue" points="417.704,-218.541 426.734,-224.083 423.131,-214.12 417.704,-218.541"/>
</g>
<!-- Node22&#45;&gt;Node10 -->
<g id="edge25" class="edge"><title>Node22&#45;&gt;Node10</title>
<path fill="none" stroke="midnightblue" d="M562.009,-217.82C550.542,-208.145 536.087,-195.948 526.47,-187.834"/>
<polygon fill="midnightblue" stroke="midnightblue" points="559.817,-220.55 569.717,-224.324 564.331,-215.2 559.817,-220.55"/>
</g>
<!-- Node23 -->
<g id="node23" class="node"><title>Node23</title>
<g id="a_node23"><a xlink:href="../../d2/db8/_rendering_system_8cpp.html" target="_top" xlink:title=" ">
<polygon fill="white" stroke="black" points="568.5,-168.5 568.5,-187.5 697.5,-187.5 697.5,-168.5 568.5,-168.5"/>
<text text-anchor="middle" x="633" y="-175.5" font-family="Helvetica,sans-Serif" font-size="10.00">src/RenderingSystem.cpp</text>
</a>
</g>
</g>
<!-- Node22&#45;&gt;Node23 -->
<g id="edge26" class="edge"><title>Node22&#45;&gt;Node23</title>
<path fill="none" stroke="midnightblue" d="M595.981,-216.718C605.322,-207.2 616.746,-195.561 624.411,-187.751"/>
<polygon fill="midnightblue" stroke="midnightblue" points="593.259,-214.494 588.752,-224.083 598.254,-219.398 593.259,-214.494"/>
</g>
<!-- Node24&#45;&gt;Node10 -->
<g id="edge28" class="edge"><title>Node24&#45;&gt;Node10</title>
<path fill="none" stroke="midnightblue" d="M258.619,-223.244C315.653,-214.673 399.896,-201.496 473,-188 475.85,-187.474 478.802,-186.906 481.761,-186.319"/>
<polygon fill="midnightblue" stroke="midnightblue" points="258.02,-219.794 248.649,-224.737 259.057,-226.717 258.02,-219.794"/>
</g>
<!-- Node25 -->
<g id="node25" class="node"><title>Node25</title>
<g id="a_node25"><a xlink:href="../../d7/d1d/_updating_system_8cpp.html" target="_top" xlink:title=" ">
<polygon fill="white" stroke="black" points="130,-168.5 130,-187.5 254,-187.5 254,-168.5 130,-168.5"/>
<text text-anchor="middle" x="192" y="-175.5" font-family="Helvetica,sans-Serif" font-size="10.00">src/UpdatingSystem.cpp</text>
</a>
</g>
</g>
<!-- Node24&#45;&gt;Node25 -->
<g id="edge29" class="edge"><title>Node24&#45;&gt;Node25</title>
<path fill="none" stroke="midnightblue" d="M192,-213.805C192,-204.91 192,-194.78 192,-187.751"/>
<polygon fill="midnightblue" stroke="midnightblue" points="188.5,-214.083 192,-224.083 195.5,-214.083 188.5,-214.083"/>
</g>
<!-- Node29 -->
<g id="node29" class="node"><title>Node29</title>
<g id="a_node29"><a xlink:href="../../d2/d07/_debugging_controller_8h.html" target="_top" xlink:title=" ">
<polygon fill="white" stroke="black" points="562,-280.5 562,-299.5 690,-299.5 690,-280.5 562,-280.5"/>
<text text-anchor="middle" x="626" y="-287.5" font-family="Helvetica,sans-Serif" font-size="10.00">src/DebuggingController.h</text>
</a>
</g>
</g>
<!-- Node28&#45;&gt;Node29 -->
<g id="edge34" class="edge"><title>Node28&#45;&gt;Node29</title>
<path fill="none" stroke="midnightblue" d="M430.037,-445.888C455.666,-438.979 485.486,-428.23 509,-412 544.876,-387.238 540.198,-366.846 571,-336 584.774,-322.206 602.496,-308.298 614.046,-299.671"/>
<polygon fill="midnightblue" stroke="midnightblue" points="428.895,-442.568 420.076,-448.44 430.632,-449.349 428.895,-442.568"/>
</g>
<!-- Node31 -->
<g id="node31" class="node"><title>Node31</title>
<g id="a_node31"><a xlink:href="../../de/d56/_scene_8h.html" target="_top" xlink:title=" ">
<polygon fill="white" stroke="black" points="474.5,-280.5 474.5,-299.5 543.5,-299.5 543.5,-280.5 474.5,-280.5"/>
<text text-anchor="middle" x="509" y="-287.5" font-family="Helvetica,sans-Serif" font-size="10.00">src/Scene.h</text>
</a>
</g>
</g>
<!-- Node28&#45;&gt;Node31 -->
<g id="edge39" class="edge"><title>Node28&#45;&gt;Node31</title>
<path fill="none" stroke="midnightblue" d="M434.963,-445.817C454.958,-439.195 475.49,-428.679 489,-412 516.339,-378.248 512.807,-321.452 510.244,-299.771"/>
<polygon fill="midnightblue" stroke="midnightblue" points="433.781,-442.518 425.224,-448.766 435.809,-449.218 433.781,-442.518"/>
</g>
<!-- Node28&#45;&gt;Node33 -->
<g id="edge45" class="edge"><title>Node28&#45;&gt;Node33</title>
<path fill="none" stroke="midnightblue" d="M322.813,-446.41C273.487,-436.204 199.805,-420.96 154.163,-411.516"/>
<polygon fill="midnightblue" stroke="midnightblue" points="322.142,-449.845 332.644,-448.444 323.56,-442.99 322.142,-449.845"/>
</g>
<!-- Node28&#45;&gt;Node35 -->
<g id="edge48" class="edge"><title>Node28&#45;&gt;Node35</title>
<path fill="none" stroke="midnightblue" d="M349.665,-443.453C331.757,-433.483 307.946,-420.228 292.546,-411.655"/>
<polygon fill="midnightblue" stroke="midnightblue" points="347.975,-446.518 358.415,-448.324 351.38,-440.402 347.975,-446.518"/>
</g>
<!-- Node37 -->
<g id="node37" class="node"><title>Node37</title>
<g id="a_node37"><a xlink:href="../../d9/de2/_physics_world_8cpp.html" target="_top" xlink:title=" ">
<polygon fill="white" stroke="black" points="367.5,-392.5 367.5,-411.5 480.5,-411.5 480.5,-392.5 367.5,-392.5"/>
<text text-anchor="middle" x="424" y="-399.5" font-family="Helvetica,sans-Serif" font-size="10.00">src/PhysicsWorld.cpp</text>
</a>
</g>
</g>
<!-- Node28&#45;&gt;Node37 -->
<g id="edge51" class="edge"><title>Node28&#45;&gt;Node37</title>
<path fill="none" stroke="midnightblue" d="M389.076,-440.718C397.889,-431.2 408.666,-419.561 415.897,-411.751"/>
<polygon fill="midnightblue" stroke="midnightblue" points="386.482,-438.367 382.256,-448.083 391.619,-443.123 386.482,-438.367"/>
</g>
<!-- Node29&#45;&gt;Node9 -->
<g id="edge35" class="edge"><title>Node29&#45;&gt;Node9</title>
<path fill="none" stroke="midnightblue" d="M673.004,-278.153C717.217,-267.95 782.516,-252.881 823.095,-243.516"/>
<polygon fill="midnightblue" stroke="midnightblue" points="672.035,-274.784 663.078,-280.444 673.609,-281.605 672.035,-274.784"/>
</g>
<!-- Node29&#45;&gt;Node20 -->
<g id="edge36" class="edge"><title>Node29&#45;&gt;Node20</title>
<path fill="none" stroke="midnightblue" d="M585.817,-277.699C549.581,-267.507 497.086,-252.743 464.281,-243.516"/>
<polygon fill="midnightblue" stroke="midnightblue" points="585.003,-281.105 595.577,-280.444 586.898,-274.367 585.003,-281.105"/>
</g>
<!-- Node29&#45;&gt;Node22 -->
<g id="edge37" class="edge"><title>Node29&#45;&gt;Node22</title>
<path fill="none" stroke="midnightblue" d="M611.886,-272.431C603.824,-262.967 594.041,-251.483 587.455,-243.751"/>
<polygon fill="midnightblue" stroke="midnightblue" points="609.255,-274.74 618.404,-280.083 614.584,-270.201 609.255,-274.74"/>
</g>
<!-- Node30 -->
<g id="node30" class="node"><title>Node30</title>
<g id="a_node30"><a xlink:href="../../d8/d1e/_debugging_controller_8cpp.html" target="_top" xlink:title=" ">
<polygon fill="white" stroke="black" points="657.5,-224.5 657.5,-243.5 796.5,-243.5 796.5,-224.5 657.5,-224.5"/>
<text text-anchor="middle" x="727" y="-231.5" font-family="Helvetica,sans-Serif" font-size="10.00">src/DebuggingController.cpp</text>
</a>
</g>
</g>
<!-- Node29&#45;&gt;Node30 -->
<g id="edge38" class="edge"><title>Node29&#45;&gt;Node30</title>
<path fill="none" stroke="midnightblue" d="M651.083,-275.59C669.757,-265.605 694.704,-252.267 710.813,-243.655"/>
<polygon fill="midnightblue" stroke="midnightblue" points="649.396,-272.522 642.227,-280.324 652.696,-278.696 649.396,-272.522"/>
</g>
<!-- Node31&#45;&gt;Node9 -->
<g id="edge40" class="edge"><title>Node31&#45;&gt;Node9</title>
<path fill="none" stroke="midnightblue" d="M553.642,-279.985C666.611,-260.638 696.933,-260.846 806,-244 808.724,-243.579 811.524,-243.138 814.347,-242.687"/>
<polygon fill="midnightblue" stroke="midnightblue" points="552.809,-276.577 543.55,-281.728 554,-283.475 552.809,-276.577"/>
</g>
<!-- Node31&#45;&gt;Node20 -->
<g id="edge41" class="edge"><title>Node31&#45;&gt;Node20</title>
<path fill="none" stroke="midnightblue" d="M488.695,-274.38C475.139,-264.62 457.758,-252.106 446.269,-243.834"/>
<polygon fill="midnightblue" stroke="midnightblue" points="486.79,-277.321 496.95,-280.324 490.88,-271.641 486.79,-277.321"/>
</g>
<!-- Node31&#45;&gt;Node22 -->
<g id="edge42" class="edge"><title>Node31&#45;&gt;Node22</title>
<path fill="none" stroke="midnightblue" d="M528.59,-274.101C541.368,-264.382 557.613,-252.027 568.385,-243.834"/>
<polygon fill="midnightblue" stroke="midnightblue" points="526.248,-271.484 520.407,-280.324 530.486,-277.056 526.248,-271.484"/>
</g>
<!-- Node31&#45;&gt;Node24 -->
<g id="edge43" class="edge"><title>Node31&#45;&gt;Node24</title>
<path fill="none" stroke="midnightblue" d="M464.52,-279.972C383.135,-265.048 300.613,-251.796 247.532,-243.514"/>
<polygon fill="midnightblue" stroke="midnightblue" points="463.968,-283.429 474.437,-281.8 465.237,-276.545 463.968,-283.429"/>
</g>
<!-- Node32 -->
<g id="node32" class="node"><title>Node32</title>
<g id="a_node32"><a xlink:href="../../d9/d44/_scene_8cpp.html" target="_top" xlink:title=" ">
<polygon fill="white" stroke="black" points="267,-224.5 267,-243.5 347,-243.5 347,-224.5 267,-224.5"/>
<text text-anchor="middle" x="307" y="-231.5" font-family="Helvetica,sans-Serif" font-size="10.00">src/Scene.cpp</text>
</a>
</g>
</g>
<!-- Node31&#45;&gt;Node32 -->
<g id="edge44" class="edge"><title>Node31&#45;&gt;Node32</title>
<path fill="none" stroke="midnightblue" d="M467.212,-277.829C429.073,-267.633 373.519,-252.782 338.858,-243.516"/>
<polygon fill="midnightblue" stroke="midnightblue" points="466.428,-281.242 476.992,-280.444 468.236,-274.48 466.428,-281.242"/>
</g>
<!-- Node33&#45;&gt;Node18 -->
<g id="edge46" class="edge"><title>Node33&#45;&gt;Node18</title>
<path fill="none" stroke="midnightblue" d="M172.763,-390.722C232.285,-380.486 322.564,-364.96 377.995,-355.428"/>
<polygon fill="midnightblue" stroke="midnightblue" points="172.016,-387.299 162.754,-392.444 173.203,-394.198 172.016,-387.299"/>
</g>
<!-- Node34 -->
<g id="node34" class="node"><title>Node34</title>
<g id="a_node34"><a xlink:href="../../da/d2a/_enemy_controller_system_8cpp.html" target="_top" xlink:title=" ">
<polygon fill="white" stroke="black" points="28,-336.5 28,-355.5 186,-355.5 186,-336.5 28,-336.5"/>
<text text-anchor="middle" x="107" y="-343.5" font-family="Helvetica,sans-Serif" font-size="10.00">src/EnemyControllerSystem.cpp</text>
</a>
</g>
</g>
<!-- Node33&#45;&gt;Node34 -->
<g id="edge47" class="edge"><title>Node33&#45;&gt;Node34</title>
<path fill="none" stroke="midnightblue" d="M110.9,-382.101C109.904,-373.136 108.762,-362.858 107.972,-355.751"/>
<polygon fill="midnightblue" stroke="midnightblue" points="107.426,-382.531 112.009,-392.083 114.383,-381.758 107.426,-382.531"/>
</g>
<!-- Node35&#45;&gt;Node18 -->
<g id="edge49" class="edge"><title>Node35&#45;&gt;Node18</title>
<path fill="none" stroke="midnightblue" d="M310.225,-389.039C338.448,-378.879 378.262,-364.546 403.343,-355.516"/>
<polygon fill="midnightblue" stroke="midnightblue" points="308.991,-385.763 300.768,-392.444 311.362,-392.349 308.991,-385.763"/>
</g>
<!-- Node36 -->
<g id="node36" class="node"><title>Node36</title>
<g id="a_node36"><a xlink:href="../../df/d12/_player_controller_system_8cpp.html" target="_top" xlink:title=" ">
<polygon fill="white" stroke="black" points="204.5,-336.5 204.5,-355.5 359.5,-355.5 359.5,-336.5 204.5,-336.5"/>
<text text-anchor="middle" x="282" y="-343.5" font-family="Helvetica,sans-Serif" font-size="10.00">src/PlayerControllerSystem.cpp</text>
</a>
</g>
</g>
<!-- Node35&#45;&gt;Node36 -->
<g id="edge50" class="edge"><title>Node35&#45;&gt;Node36</title>
<path fill="none" stroke="midnightblue" d="M278.75,-382.101C279.58,-373.136 280.532,-362.858 281.19,-355.751"/>
<polygon fill="midnightblue" stroke="midnightblue" points="275.263,-381.803 277.826,-392.083 282.233,-382.448 275.263,-381.803"/>
</g>
</g>
</svg>
        <g id="navigator" transform="translate(0 0)" fill="#404254">
                <rect fill="#f2f5e9" fill-opacity="0.5" stroke="#606060" stroke-width=".5" x="0" y="0" width="60" height="60"/>
                <use id="zoomplus" xlink:href="#zoomPlus" x="17" y="9" onmousedown="handleZoom(evt,'in')"/>
                <use id="zoomminus" xlink:href="#zoomMin" x="42" y="9" onmousedown="handleZoom(evt,'out')"/>
                <use id="reset" xlink:href="#resetDef" x="30" y="36" onmousedown="handleReset()"/>
                <g id="arrowUp" xlink:href="#dirArrow" transform="translate(30 24)" onmousedown="handlePan(0,-1)">
                  <use xlink:href="#rim" fill="#404040">
                        <set attributeName="fill" to="#808080" begin="arrowUp.mouseover" end="arrowUp.mouseout"/>
                  </use>
                  <path fill="none" stroke="white" stroke-width="1.5" d="M0,-3.0v7 M-2.5,-0.5L0,-3.0L2.5,-0.5"/>
                </g>
                <g id="arrowRight" xlink:href="#dirArrow" transform="rotate(90) translate(36 -43)" onmousedown="handlePan(1,0)">
                  <use xlink:href="#rim" fill="#404040">
                        <set attributeName="fill" to="#808080" begin="arrowRight.mouseover" end="arrowRight.mouseout"/>
                  </use>
                  <path fill="none" stroke="white" stroke-width="1.5" d="M0,-3.0v7 M-2.5,-0.5L0,-3.0L2.5,-0.5"/>
                </g>
                <g id="arrowDown" xlink:href="#dirArrow" transform="rotate(180) translate(-30 -48)" onmousedown="handlePan(0,1)">
                  <use xlink:href="#rim" fill="#404040">
                        <set attributeName="fill" to="#808080" begin="arrowDown.mouseover" end="arrowDown.mouseout"/>
                  </use>
                  <path fill="none" stroke="white" stroke-width="1.5" d="M0,-3.0v7 M-2.5,-0.5L0,-3.0L2.5,-0.5"/>
                </g>
                <g id="arrowLeft" xlink:href="#dirArrow" transform="rotate(270) translate(-36 17)" onmousedown="handlePan(-1,0)">
                  <use xlink:href="#rim" fill="#404040">
                        <set attributeName="fill" to="#808080" begin="arrowLeft.mouseover" end="arrowLeft.mouseout"/>
                  </use>
                  <path fill="none" stroke="white" stroke-width="1.5" d="M0,-3.0v7 M-2.5,-0.5L0,-3.0L2.5,-0.5"/>
                </g>
        </g>
        <svg viewBox="0 0 15 15" width="100%" height="30px" preserveAspectRatio="xMaxYMin meet">
         <g id="arrow_out" transform="scale(0.3 0.3)">
          <a xlink:href="_animation_keys_8h__dep__incl_org.svg" target="_base">
           <rect id="button" ry="5" rx="5" y="6" x="6" height="38" width="38"
                fill="#f2f5e9" fill-opacity="0.5" stroke="#606060" stroke-width="1.0"/>
           <path id="arrow"
             d="M 11.500037,31.436501 C 11.940474,20.09759 22.043105,11.32322 32.158766,21.979434 L 37.068811,17.246167 C 37.068811,17.246167 37.088388,32 37.088388,32 L 22.160133,31.978069 C 22.160133,31.978069 26.997745,27.140456 26.997745,27.140456 C 18.528582,18.264221 13.291696,25.230495 11.500037,31.436501 z"
             style="fill:#404040;"/>
          </a>
         </g>
        </svg>
</svg>
