<?xml version="1.0" encoding="UTF-8" standalone="no"?>
<!DOCTYPE svg PUBLIC "-//W3C//DTD SVG 1.1//EN"
 "http://www.w3.org/Graphics/SVG/1.1/DTD/svg11.dtd">
<!-- Generated by graphviz version 2.38.0 (20140413.2041)
 -->
<!-- Title: BoneCollisionMeshSystem::fixedUpdate Pages: 1 -->
<svg width="334pt" height="198pt"
 viewBox="0.00 0.00 334.00 197.50" xmlns="http://www.w3.org/2000/svg" xmlns:xlink="http://www.w3.org/1999/xlink">
<g id="graph0" class="graph" transform="scale(1 1) rotate(0) translate(4 193.5)">
<title>BoneCollisionMeshSystem::fixedUpdate</title>
<polygon fill="white" stroke="none" points="-4,4 -4,-193.5 330,-193.5 330,4 -4,4"/>
<!-- Node1 -->
<g id="node1" class="node"><title>Node1</title>
<g id="a_node1"><a xlink:title=" ">
<polygon fill="#bfbfbf" stroke="black" points="0,-73.5 0,-103.5 134,-103.5 134,-73.5 0,-73.5"/>
<text text-anchor="start" x="8" y="-91.5" font-family="Helvetica,sans-Serif" font-size="10.00">BoneCollisionMeshSystem</text>
<text text-anchor="middle" x="67" y="-80.5" font-family="Helvetica,sans-Serif" font-size="10.00">::fixedUpdate</text>
</a>
</g>
</g>
<!-- Node2 -->
<g id="node2" class="node"><title>Node2</title>
<g id="a_node2"><a xlink:href="../../de/d92/class__3_d_m_1_1_animated_model.html#acd0123cec602ca301053cc815c8579ef" target="_top" xlink:title=" ">
<polygon fill="white" stroke="black" points="170,-148 170,-189 326,-189 326,-148 170,-148"/>
<text text-anchor="start" x="178" y="-177" font-family="Helvetica,sans-Serif" font-size="10.00">_3DM::AnimatedModel</text>
<text text-anchor="start" x="178" y="-166" font-family="Helvetica,sans-Serif" font-size="10.00">::getBoneTransformationWithout</text>
<text text-anchor="middle" x="248" y="-155" font-family="Helvetica,sans-Serif" font-size="10.00">Offset</text>
</a>
</g>
</g>
<!-- Node1&#45;&gt;Node2 -->
<g id="edge1" class="edge"><title>Node1&#45;&gt;Node2</title>
<path fill="none" stroke="midnightblue" d="M97.1516,-103.604C117.387,-113.886 145.08,-127.561 170,-138.5 174.29,-140.383 178.738,-142.274 183.235,-144.14"/>
<polygon fill="midnightblue" stroke="midnightblue" points="181.917,-147.382 192.498,-147.925 184.565,-140.902 181.917,-147.382"/>
</g>
<!-- Node3 -->
<g id="node3" class="node"><title>Node3</title>
<g id="a_node3"><a xlink:href="../../d6/d9c/class_bone_collision_mesh.html#a7e3d6ddfb59eb29322e8151e5cd3dce8" target="_top" xlink:title=" ">
<polygon fill="white" stroke="black" points="195,-98.5 195,-128.5 301,-128.5 301,-98.5 195,-98.5"/>
<text text-anchor="start" x="203" y="-116.5" font-family="Helvetica,sans-Serif" font-size="10.00">BoneCollisionMesh::</text>
<text text-anchor="middle" x="248" y="-105.5" font-family="Helvetica,sans-Serif" font-size="10.00">getColliderOffset</text>
</a>
</g>
</g>
<!-- Node1&#45;&gt;Node3 -->
<g id="edge2" class="edge"><title>Node1&#45;&gt;Node3</title>
<path fill="none" stroke="midnightblue" d="M134.144,-97.738C150.722,-100.053 168.448,-102.529 184.825,-104.816"/>
<polygon fill="midnightblue" stroke="midnightblue" points="184.437,-108.296 194.825,-106.213 185.405,-101.363 184.437,-108.296"/>
</g>
<!-- Node4 -->
<g id="node4" class="node"><title>Node4</title>
<g id="a_node4"><a xlink:href="../../d4/daa/class_collision_mesh.html#a02928b344526cfd34cea642f92c020e3" target="_top" xlink:title=" ">
<polygon fill="white" stroke="black" points="185,-49.5 185,-79.5 311,-79.5 311,-49.5 185,-49.5"/>
<text text-anchor="start" x="193" y="-67.5" font-family="Helvetica,sans-Serif" font-size="10.00">CollisionMesh::getMotion</text>
<text text-anchor="middle" x="248" y="-56.5" font-family="Helvetica,sans-Serif" font-size="10.00">State</text>
</a>
</g>
</g>
<!-- Node1&#45;&gt;Node4 -->
<g id="edge3" class="edge"><title>Node1&#45;&gt;Node4</title>
<path fill="none" stroke="midnightblue" d="M134.144,-79.6315C147.398,-77.8545 161.386,-75.979 174.831,-74.1763"/>
<polygon fill="midnightblue" stroke="midnightblue" points="175.54,-77.6127 184.986,-72.8147 174.61,-70.6747 175.54,-77.6127"/>
</g>
<!-- Node5 -->
<g id="node5" class="node"><title>Node5</title>
<g id="a_node5"><a xlink:href="../../d6/d9c/class_bone_collision_mesh.html#ab02a5fde4d91ea0abe81cd5591bf7383" target="_top" xlink:title=" ">
<polygon fill="white" stroke="black" points="190,-0.5 190,-30.5 306,-30.5 306,-0.5 190,-0.5"/>
<text text-anchor="start" x="198" y="-18.5" font-family="Helvetica,sans-Serif" font-size="10.00">BoneCollisionMesh::</text>
<text text-anchor="middle" x="248" y="-7.5" font-family="Helvetica,sans-Serif" font-size="10.00">iterateThroughColliders</text>
</a>
</g>
</g>
<!-- Node1&#45;&gt;Node5 -->
<g id="edge4" class="edge"><title>Node1&#45;&gt;Node5</title>
<path fill="none" stroke="midnightblue" d="M97.469,-73.4238C117.61,-63.4208 145.069,-50.3678 170,-40.5 175.746,-38.2256 181.79,-35.9951 187.859,-33.8603"/>
<polygon fill="midnightblue" stroke="midnightblue" points="189.058,-37.1495 197.379,-30.5921 186.785,-30.5287 189.058,-37.1495"/>
</g>
</g>
</svg>
