<?xml version="1.0" encoding="UTF-8" standalone="no"?>
<!DOCTYPE svg PUBLIC "-//W3C//DTD SVG 1.1//EN"
 "http://www.w3.org/Graphics/SVG/1.1/DTD/svg11.dtd">
<!-- Generated by graphviz version 2.38.0 (20140413.2041)
 -->
<!-- Title: CollisionMesh::initializeMeshShape Pages: 1 -->
<svg width="459pt" height="203pt"
 viewBox="0.00 0.00 459.00 202.50" xmlns="http://www.w3.org/2000/svg" xmlns:xlink="http://www.w3.org/1999/xlink">
<g id="graph0" class="graph" transform="scale(1 1) rotate(0) translate(4 198.5)">
<title>CollisionMesh::initializeMeshShape</title>
<polygon fill="white" stroke="none" points="-4,4 -4,-198.5 455,-198.5 455,4 -4,4"/>
<!-- Node1 -->
<g id="node1" class="node"><title>Node1</title>
<g id="a_node1"><a xlink:title=" ">
<polygon fill="#bfbfbf" stroke="black" points="0,-52 0,-82 119,-82 119,-52 0,-52"/>
<text text-anchor="start" x="8" y="-70" font-family="Helvetica,sans-Serif" font-size="10.00">CollisionMesh::initialize</text>
<text text-anchor="middle" x="59.5" y="-59" font-family="Helvetica,sans-Serif" font-size="10.00">MeshShape</text>
</a>
</g>
</g>
<!-- Node2 -->
<g id="node2" class="node"><title>Node2</title>
<g id="a_node2"><a xlink:href="../../d4/daa/class_collision_mesh.html#a78af0888b7cc86b1466b3aa733869db3" target="_top" xlink:title=" ">
<polygon fill="white" stroke="black" points="155,-115 155,-145 299,-145 299,-115 155,-115"/>
<text text-anchor="start" x="163" y="-133" font-family="Helvetica,sans-Serif" font-size="10.00">CollisionMesh::createTriangle</text>
<text text-anchor="middle" x="227" y="-122" font-family="Helvetica,sans-Serif" font-size="10.00">MeshCollider</text>
</a>
</g>
</g>
<!-- Node1&#45;&gt;Node2 -->
<g id="edge1" class="edge"><title>Node1&#45;&gt;Node2</title>
<path fill="none" stroke="midnightblue" d="M97.1537,-82.1732C114.603,-89.2851 135.806,-97.7656 155,-105 160.778,-107.178 166.842,-109.403 172.889,-111.585"/>
<polygon fill="midnightblue" stroke="midnightblue" points="171.74,-114.891 182.335,-114.963 174.098,-108.3 171.74,-114.891"/>
</g>
<!-- Node6 -->
<g id="node6" class="node"><title>Node6</title>
<g id="a_node6"><a xlink:href="../../d4/daa/class_collision_mesh.html#adcf9c78c61f0be4c72d56722e0129c2d" target="_top" xlink:title=" ">
<polygon fill="white" stroke="black" points="173.5,-76.5 173.5,-95.5 280.5,-95.5 280.5,-76.5 173.5,-76.5"/>
<text text-anchor="middle" x="227" y="-83.5" font-family="Helvetica,sans-Serif" font-size="10.00">CollisionMesh::deInit</text>
</a>
</g>
</g>
<!-- Node1&#45;&gt;Node6 -->
<g id="edge5" class="edge"><title>Node1&#45;&gt;Node6</title>
<path fill="none" stroke="midnightblue" d="M119.315,-73.7522C133.52,-75.383 148.755,-77.1319 163.137,-78.7831"/>
<polygon fill="midnightblue" stroke="midnightblue" points="163.098,-82.3016 173.432,-79.965 163.897,-75.3472 163.098,-82.3016"/>
</g>
<!-- Node7 -->
<g id="node7" class="node"><title>Node7</title>
<g id="a_node7"><a xlink:href="../../d4/daa/class_collision_mesh.html#a258fb73d34b153032086203cfb8d7193" target="_top" xlink:title=" ">
<polygon fill="white" stroke="black" points="157,-38.5 157,-57.5 297,-57.5 297,-38.5 157,-38.5"/>
<text text-anchor="middle" x="227" y="-45.5" font-family="Helvetica,sans-Serif" font-size="10.00">CollisionMesh::setKinematic</text>
</a>
</g>
</g>
<!-- Node1&#45;&gt;Node7 -->
<g id="edge6" class="edge"><title>Node1&#45;&gt;Node7</title>
<path fill="none" stroke="midnightblue" d="M119.315,-60.2478C128.253,-59.2217 137.599,-58.1488 146.884,-57.0828"/>
<polygon fill="midnightblue" stroke="midnightblue" points="147.377,-60.5493 156.912,-55.9315 146.578,-53.595 147.377,-60.5493"/>
</g>
<!-- Node8 -->
<g id="node8" class="node"><title>Node8</title>
<g id="a_node8"><a xlink:href="../../d4/daa/class_collision_mesh.html#afe25849e28ea6a9884f42d15b40c84d7" target="_top" xlink:title=" ">
<polygon fill="white" stroke="black" points="164,-0.5 164,-19.5 290,-19.5 290,-0.5 164,-0.5"/>
<text text-anchor="middle" x="227" y="-7.5" font-family="Helvetica,sans-Serif" font-size="10.00">CollisionMesh::setTrigger</text>
</a>
</g>
</g>
<!-- Node1&#45;&gt;Node8 -->
<g id="edge7" class="edge"><title>Node1&#45;&gt;Node8</title>
<path fill="none" stroke="midnightblue" d="M95.1306,-51.9051C112.848,-44.4825 134.87,-35.7133 155,-29 162.154,-26.6141 169.789,-24.3172 177.302,-22.1953"/>
<polygon fill="midnightblue" stroke="midnightblue" points="178.342,-25.5393 187.057,-19.5139 176.487,-18.7896 178.342,-25.5393"/>
</g>
<!-- Node3 -->
<g id="node3" class="node"><title>Node3</title>
<g id="a_node3"><a xlink:href="../../de/d92/class__3_d_m_1_1_animated_model.html#a69c6dd8a0e12cdf4e11cde64cea757c4" target="_top" xlink:title=" ">
<polygon fill="white" stroke="black" points="335,-164 335,-194 451,-194 451,-164 335,-164"/>
<text text-anchor="start" x="343" y="-182" font-family="Helvetica,sans-Serif" font-size="10.00">_3DM::AnimatedModel</text>
<text text-anchor="middle" x="393" y="-171" font-family="Helvetica,sans-Serif" font-size="10.00">::amountOfMeshes</text>
</a>
</g>
</g>
<!-- Node2&#45;&gt;Node3 -->
<g id="edge2" class="edge"><title>Node2&#45;&gt;Node3</title>
<path fill="none" stroke="midnightblue" d="M278.544,-145.101C295.458,-150.155 314.477,-155.838 332.039,-161.085"/>
<polygon fill="midnightblue" stroke="midnightblue" points="331.04,-164.439 341.623,-163.948 333.044,-157.732 331.04,-164.439"/>
</g>
<!-- Node4 -->
<g id="node4" class="node"><title>Node4</title>
<g id="a_node4"><a xlink:href="../../de/d92/class__3_d_m_1_1_animated_model.html#a57f30fb1443d89d32e69ccfe06e46b71" target="_top" xlink:title=" ">
<polygon fill="white" stroke="black" points="335,-115 335,-145 451,-145 451,-115 335,-115"/>
<text text-anchor="start" x="343" y="-133" font-family="Helvetica,sans-Serif" font-size="10.00">_3DM::AnimatedModel</text>
<text text-anchor="middle" x="393" y="-122" font-family="Helvetica,sans-Serif" font-size="10.00">::getMeshIndices</text>
</a>
</g>
</g>
<!-- Node2&#45;&gt;Node4 -->
<g id="edge3" class="edge"><title>Node2&#45;&gt;Node4</title>
<path fill="none" stroke="midnightblue" d="M299.456,-130C307.71,-130 316.109,-130 324.311,-130"/>
<polygon fill="midnightblue" stroke="midnightblue" points="324.569,-133.5 334.569,-130 324.569,-126.5 324.569,-133.5"/>
</g>
<!-- Node5 -->
<g id="node5" class="node"><title>Node5</title>
<g id="a_node5"><a xlink:href="../../de/d92/class__3_d_m_1_1_animated_model.html#a774e41d8b93802e78dcf1f17d76d42c3" target="_top" xlink:title=" ">
<polygon fill="white" stroke="black" points="335,-66 335,-96 451,-96 451,-66 335,-66"/>
<text text-anchor="start" x="343" y="-84" font-family="Helvetica,sans-Serif" font-size="10.00">_3DM::AnimatedModel</text>
<text text-anchor="middle" x="393" y="-73" font-family="Helvetica,sans-Serif" font-size="10.00">::getMeshVertices</text>
</a>
</g>
</g>
<!-- Node2&#45;&gt;Node5 -->
<g id="edge4" class="edge"><title>Node2&#45;&gt;Node5</title>
<path fill="none" stroke="midnightblue" d="M278.544,-114.899C295.458,-109.845 314.477,-104.162 332.039,-98.9152"/>
<polygon fill="midnightblue" stroke="midnightblue" points="333.044,-102.268 341.623,-96.0516 331.04,-95.5609 333.044,-102.268"/>
</g>
</g>
</svg>
