<?xml version="1.0" encoding="UTF-8" standalone="no"?>
<!DOCTYPE svg PUBLIC "-//W3C//DTD SVG 1.1//EN"
 "http://www.w3.org/Graphics/SVG/1.1/DTD/svg11.dtd">
<!-- Generated by graphviz version 2.38.0 (20140413.2041)
 -->
<!-- Title: CollisionMesh::initialize Pages: 1 -->
<svg width="299pt" height="104pt"
 viewBox="0.00 0.00 299.00 104.00" xmlns="http://www.w3.org/2000/svg" xmlns:xlink="http://www.w3.org/1999/xlink">
<g id="graph0" class="graph" transform="scale(1 1) rotate(0) translate(4 100)">
<title>CollisionMesh::initialize</title>
<polygon fill="white" stroke="none" points="-4,4 -4,-100 295,-100 295,4 -4,4"/>
<!-- Node1 -->
<g id="node1" class="node"><title>Node1</title>
<g id="a_node1"><a xlink:title=" ">
<polygon fill="#bfbfbf" stroke="black" points="172,-38.5 172,-57.5 291,-57.5 291,-38.5 172,-38.5"/>
<text text-anchor="middle" x="231.5" y="-45.5" font-family="Helvetica,sans-Serif" font-size="10.00">CollisionMesh::initialize</text>
</a>
</g>
</g>
<!-- Node2 -->
<g id="node2" class="node"><title>Node2</title>
<g id="a_node2"><a xlink:href="../../db/dd3/class_player_test_object.html#aac17d3bdbe3a909a7a873551fe90b6bb" target="_top" xlink:title=" ">
<polygon fill="white" stroke="black" points="1.5,-76.5 1.5,-95.5 134.5,-95.5 134.5,-76.5 1.5,-76.5"/>
<text text-anchor="middle" x="68" y="-83.5" font-family="Helvetica,sans-Serif" font-size="10.00">PlayerTestObject::initialize</text>
</a>
</g>
</g>
<!-- Node1&#45;&gt;Node2 -->
<g id="edge1" class="edge"><title>Node1&#45;&gt;Node2</title>
<path fill="none" stroke="midnightblue" d="M179.942,-59.8961C157.241,-65.2374 130.822,-71.4537 109.46,-76.4799"/>
<polygon fill="midnightblue" stroke="midnightblue" points="180.814,-63.2864 189.747,-57.589 179.211,-56.4725 180.814,-63.2864"/>
</g>
<!-- Node3 -->
<g id="node3" class="node"><title>Node3</title>
<g id="a_node3"><a xlink:href="../../da/d1b/class_enemy_test_object.html#a360c36ab9698fba8c384a6aa7816a7a2" target="_top" xlink:title=" ">
<polygon fill="white" stroke="black" points="0,-38.5 0,-57.5 136,-57.5 136,-38.5 0,-38.5"/>
<text text-anchor="middle" x="68" y="-45.5" font-family="Helvetica,sans-Serif" font-size="10.00">EnemyTestObject::initialize</text>
</a>
</g>
</g>
<!-- Node1&#45;&gt;Node3 -->
<g id="edge2" class="edge"><title>Node1&#45;&gt;Node3</title>
<path fill="none" stroke="midnightblue" d="M161.59,-48C153.178,-48 144.591,-48 136.204,-48"/>
<polygon fill="midnightblue" stroke="midnightblue" points="161.738,-51.5001 171.738,-48 161.738,-44.5001 161.738,-51.5001"/>
</g>
<!-- Node4 -->
<g id="node4" class="node"><title>Node4</title>
<g id="a_node4"><a xlink:href="../../de/d20/class_cube_trigger.html#acd67037d7ab9aca5a6880824644f1cea" target="_top" xlink:title=" ">
<polygon fill="white" stroke="black" points="13,-0.5 13,-19.5 123,-19.5 123,-0.5 13,-0.5"/>
<text text-anchor="middle" x="68" y="-7.5" font-family="Helvetica,sans-Serif" font-size="10.00">CubeTrigger::initialize</text>
</a>
</g>
</g>
<!-- Node1&#45;&gt;Node4 -->
<g id="edge3" class="edge"><title>Node1&#45;&gt;Node4</title>
<path fill="none" stroke="midnightblue" d="M179.942,-36.1039C157.241,-30.7626 130.822,-24.5463 109.46,-19.5201"/>
<polygon fill="midnightblue" stroke="midnightblue" points="179.211,-39.5275 189.747,-38.411 180.814,-32.7136 179.211,-39.5275"/>
</g>
</g>
</svg>
