<?xml version="1.0" encoding="UTF-8" standalone="no"?>
<!DOCTYPE svg PUBLIC "-//W3C//DTD SVG 1.1//EN"
 "http://www.w3.org/Graphics/SVG/1.1/DTD/svg11.dtd">
<!-- Generated by graphviz version 2.38.0 (20140413.2041)
 -->
<!-- Title: CollisionMesh::setVelocity Pages: 1 -->
<svg width="1400pt" height="143pt"
 viewBox="0.00 0.00 1400.00 142.53" xmlns="http://www.w3.org/2000/svg" xmlns:xlink="http://www.w3.org/1999/xlink">
<g id="graph0" class="graph" transform="scale(1 1) rotate(0) translate(4 138.534)">
<title>CollisionMesh::setVelocity</title>
<polygon fill="white" stroke="none" points="-4,4 -4,-138.534 1396,-138.534 1396,4 -4,4"/>
<!-- Node1 -->
<g id="node1" class="node"><title>Node1</title>
<g id="a_node1"><a xlink:title=" ">
<polygon fill="#bfbfbf" stroke="black" points="1260,-72 1260,-91 1392,-91 1392,-72 1260,-72"/>
<text text-anchor="middle" x="1326" y="-79" font-family="Helvetica,sans-Serif" font-size="10.00">CollisionMesh::setVelocity</text>
</a>
</g>
</g>
<!-- Node2 -->
<g id="node2" class="node"><title>Node2</title>
<g id="a_node2"><a xlink:href="../../da/d3f/class_enemy_controller_system.html#ae94d4732176c8a2b834f76e7be6fe79d" target="_top" xlink:title=" ">
<polygon fill="white" stroke="black" points="944,-90.5 944,-120.5 1066,-120.5 1066,-90.5 944,-90.5"/>
<text text-anchor="start" x="952" y="-108.5" font-family="Helvetica,sans-Serif" font-size="10.00">EnemyControllerSystem</text>
<text text-anchor="middle" x="1005" y="-97.5" font-family="Helvetica,sans-Serif" font-size="10.00">::executeRayTesting</text>
</a>
</g>
</g>
<!-- Node1&#45;&gt;Node2 -->
<g id="edge1" class="edge"><title>Node1&#45;&gt;Node2</title>
<path fill="none" stroke="midnightblue" d="M1301.36,-96.1238C1281.53,-107.477 1252.04,-122.296 1224,-128.5 1168.45,-140.793 1103.43,-130.884 1058.95,-120.512"/>
<polygon fill="midnightblue" stroke="midnightblue" points="1303.16,-99.1245 1310,-91.0387 1299.61,-93.0904 1303.16,-99.1245"/>
</g>
<!-- Node10 -->
<g id="node10" class="node"><title>Node10</title>
<g id="a_node10"><a xlink:href="../../d5/d50/class_player_controller_system.html#a919d9d772a6059cf4213c42c584ffcf3" target="_top" xlink:title=" ">
<polygon fill="white" stroke="black" points="945.5,-41.5 945.5,-71.5 1064.5,-71.5 1064.5,-41.5 945.5,-41.5"/>
<text text-anchor="start" x="953.5" y="-59.5" font-family="Helvetica,sans-Serif" font-size="10.00">PlayerControllerSystem</text>
<text text-anchor="middle" x="1005" y="-48.5" font-family="Helvetica,sans-Serif" font-size="10.00">::executeRayTesting</text>
</a>
</g>
</g>
<!-- Node1&#45;&gt;Node10 -->
<g id="edge9" class="edge"><title>Node1&#45;&gt;Node10</title>
<path fill="none" stroke="midnightblue" d="M1249.7,-75.5988C1193.08,-71.1613 1116.61,-65.1682 1064.53,-61.0868"/>
<polygon fill="midnightblue" stroke="midnightblue" points="1249.43,-79.0885 1259.68,-76.3805 1249.98,-72.1099 1249.43,-79.0885"/>
</g>
<!-- Node12 -->
<g id="node12" class="node"><title>Node12</title>
<g id="a_node12"><a xlink:href="../../d5/d50/class_player_controller_system.html#a4ee740fcbaa4e826d5d2ef49e0c54c7f" target="_top" xlink:title=" ">
<polygon fill="white" stroke="black" points="1103.5,-0.5 1103.5,-30.5 1222.5,-30.5 1222.5,-0.5 1103.5,-0.5"/>
<text text-anchor="start" x="1111.5" y="-18.5" font-family="Helvetica,sans-Serif" font-size="10.00">PlayerControllerSystem</text>
<text text-anchor="middle" x="1163" y="-7.5" font-family="Helvetica,sans-Serif" font-size="10.00">::handleRayHit</text>
</a>
</g>
</g>
<!-- Node1&#45;&gt;Node12 -->
<g id="edge12" class="edge"><title>Node1&#45;&gt;Node12</title>
<path fill="none" stroke="midnightblue" d="M1292,-67.9721C1265.5,-57.1104 1228.32,-41.8669 1200.85,-30.6071"/>
<polygon fill="midnightblue" stroke="midnightblue" points="1291.01,-71.3484 1301.59,-71.903 1293.66,-64.8715 1291.01,-71.3484"/>
</g>
<!-- Node13 -->
<g id="node13" class="node"><title>Node13</title>
<g id="a_node13"><a xlink:href="../../da/d3f/class_enemy_controller_system.html#a687331915aabd4381bc5f5433396e12b" target="_top" xlink:title=" ">
<polygon fill="white" stroke="black" points="1102,-88.5 1102,-118.5 1224,-118.5 1224,-88.5 1102,-88.5"/>
<text text-anchor="start" x="1110" y="-106.5" font-family="Helvetica,sans-Serif" font-size="10.00">EnemyControllerSystem</text>
<text text-anchor="middle" x="1163" y="-95.5" font-family="Helvetica,sans-Serif" font-size="10.00">::handleRayHit</text>
</a>
</g>
</g>
<!-- Node1&#45;&gt;Node13 -->
<g id="edge14" class="edge"><title>Node1&#45;&gt;Node13</title>
<path fill="none" stroke="midnightblue" d="M1249.88,-91.7651C1241.22,-92.9482 1232.48,-94.1426 1224.06,-95.2933"/>
<polygon fill="midnightblue" stroke="midnightblue" points="1250.55,-95.2066 1259.98,-90.3848 1249.6,-88.271 1250.55,-95.2066"/>
</g>
<!-- Node3 -->
<g id="node3" class="node"><title>Node3</title>
<g id="a_node3"><a xlink:href="../../da/d3f/class_enemy_controller_system.html#a026087734b2ff96302e29522d87111f3" target="_top" xlink:title=" ">
<polygon fill="white" stroke="black" points="786,-90.5 786,-120.5 908,-120.5 908,-90.5 786,-90.5"/>
<text text-anchor="start" x="794" y="-108.5" font-family="Helvetica,sans-Serif" font-size="10.00">EnemyControllerSystem</text>
<text text-anchor="middle" x="847" y="-97.5" font-family="Helvetica,sans-Serif" font-size="10.00">::update</text>
</a>
</g>
</g>
<!-- Node2&#45;&gt;Node3 -->
<g id="edge2" class="edge"><title>Node2&#45;&gt;Node3</title>
<path fill="none" stroke="midnightblue" d="M933.462,-105.5C925.01,-105.5 916.44,-105.5 908.153,-105.5"/>
<polygon fill="midnightblue" stroke="midnightblue" points="933.686,-109 943.686,-105.5 933.686,-102 933.686,-109"/>
</g>
<!-- Node4 -->
<g id="node4" class="node"><title>Node4</title>
<g id="a_node4"><a xlink:href="../../d3/de8/class_fixed_updating_system.html#a7086592e0a53a3a3f8c7533f042a4266" target="_top" xlink:title=" ">
<polygon fill="white" stroke="black" points="637,-65.5 637,-95.5 750,-95.5 750,-65.5 637,-65.5"/>
<text text-anchor="start" x="645" y="-83.5" font-family="Helvetica,sans-Serif" font-size="10.00">FixedUpdatingSystem</text>
<text text-anchor="middle" x="693.5" y="-72.5" font-family="Helvetica,sans-Serif" font-size="10.00">::updateCollision</text>
</a>
</g>
</g>
<!-- Node3&#45;&gt;Node4 -->
<g id="edge3" class="edge"><title>Node3&#45;&gt;Node4</title>
<path fill="none" stroke="midnightblue" d="M775.706,-93.9003C767.143,-92.4873 758.487,-91.059 750.179,-89.6879"/>
<polygon fill="midnightblue" stroke="midnightblue" points="775.251,-97.3726 785.688,-95.5475 776.391,-90.466 775.251,-97.3726"/>
</g>
<!-- Node5 -->
<g id="node5" class="node"><title>Node5</title>
<g id="a_node5"><a xlink:href="../../d3/de8/class_fixed_updating_system.html#a3ed508813ba850baed19e86ef0429028" target="_top" xlink:title=" ">
<polygon fill="white" stroke="black" points="488,-65.5 488,-95.5 601,-95.5 601,-65.5 488,-65.5"/>
<text text-anchor="start" x="496" y="-83.5" font-family="Helvetica,sans-Serif" font-size="10.00">FixedUpdatingSystem</text>
<text text-anchor="middle" x="544.5" y="-72.5" font-family="Helvetica,sans-Serif" font-size="10.00">::fixedUpdate</text>
</a>
</g>
</g>
<!-- Node4&#45;&gt;Node5 -->
<g id="edge4" class="edge"><title>Node4&#45;&gt;Node5</title>
<path fill="none" stroke="midnightblue" d="M626.922,-80.5C618.319,-80.5 609.57,-80.5 601.153,-80.5"/>
<polygon fill="midnightblue" stroke="midnightblue" points="626.926,-84.0001 636.926,-80.5 626.926,-77.0001 626.926,-84.0001"/>
</g>
<!-- Node6 -->
<g id="node6" class="node"><title>Node6</title>
<g id="a_node6"><a xlink:href="../../dd/d1f/class_game.html#a157e87f9dc147a5842ee6bdc06c95c17" target="_top" xlink:title=" ">
<polygon fill="white" stroke="black" points="352,-71 352,-90 452,-90 452,-71 352,-71"/>
<text text-anchor="middle" x="402" y="-78" font-family="Helvetica,sans-Serif" font-size="10.00">Game::fixedUpdate</text>
</a>
</g>
</g>
<!-- Node5&#45;&gt;Node6 -->
<g id="edge5" class="edge"><title>Node5&#45;&gt;Node6</title>
<path fill="none" stroke="midnightblue" d="M477.898,-80.5C469.253,-80.5 460.514,-80.5 452.208,-80.5"/>
<polygon fill="midnightblue" stroke="midnightblue" points="477.971,-84.0001 487.971,-80.5 477.971,-77.0001 477.971,-84.0001"/>
</g>
<!-- Node7 -->
<g id="node7" class="node"><title>Node7</title>
<g id="a_node7"><a xlink:href="../../de/d6b/class_application.html#a95c827cb5cf08bd0c3cc7b07ed4b4249" target="_top" xlink:title=" ">
<polygon fill="white" stroke="black" points="194,-71 194,-90 316,-90 316,-71 194,-71"/>
<text text-anchor="middle" x="255" y="-78" font-family="Helvetica,sans-Serif" font-size="10.00">Application::fixedUpdate</text>
</a>
</g>
</g>
<!-- Node6&#45;&gt;Node7 -->
<g id="edge6" class="edge"><title>Node6&#45;&gt;Node7</title>
<path fill="none" stroke="midnightblue" d="M341.747,-80.5C333.287,-80.5 324.578,-80.5 316.102,-80.5"/>
<polygon fill="midnightblue" stroke="midnightblue" points="341.91,-84.0001 351.91,-80.5 341.91,-77.0001 341.91,-84.0001"/>
</g>
<!-- Node8 -->
<g id="node8" class="node"><title>Node8</title>
<g id="a_node8"><a xlink:href="../../de/d6b/class_application.html#a68965449404743bf1add056784d6cf81" target="_top" xlink:title=" ">
<polygon fill="white" stroke="black" points="74,-71 74,-90 158,-90 158,-71 74,-71"/>
<text text-anchor="middle" x="116" y="-78" font-family="Helvetica,sans-Serif" font-size="10.00">Application::run</text>
</a>
</g>
</g>
<!-- Node7&#45;&gt;Node8 -->
<g id="edge7" class="edge"><title>Node7&#45;&gt;Node8</title>
<path fill="none" stroke="midnightblue" d="M183.669,-80.5C174.931,-80.5 166.234,-80.5 158.145,-80.5"/>
<polygon fill="midnightblue" stroke="midnightblue" points="183.91,-84.0001 193.91,-80.5 183.91,-77.0001 183.91,-84.0001"/>
</g>
<!-- Node9 -->
<g id="node9" class="node"><title>Node9</title>
<g id="a_node9"><a xlink:href="../../d5/d12/_main_8cpp.html#a0ddf1224851353fc92bfbff6f499fa97" target="_top" xlink:title=" ">
<polygon fill="white" stroke="black" points="0,-71 0,-90 38,-90 38,-71 0,-71"/>
<text text-anchor="middle" x="19" y="-78" font-family="Helvetica,sans-Serif" font-size="10.00">main</text>
</a>
</g>
</g>
<!-- Node8&#45;&gt;Node9 -->
<g id="edge8" class="edge"><title>Node8&#45;&gt;Node9</title>
<path fill="none" stroke="midnightblue" d="M63.6206,-80.5C54.5384,-80.5 45.6466,-80.5 38.2853,-80.5"/>
<polygon fill="midnightblue" stroke="midnightblue" points="63.8842,-84.0001 73.8841,-80.5 63.8841,-77.0001 63.8842,-84.0001"/>
</g>
<!-- Node11 -->
<g id="node11" class="node"><title>Node11</title>
<g id="a_node11"><a xlink:href="../../d5/d50/class_player_controller_system.html#a9d234f18033f0a3fca95bbcd49c28deb" target="_top" xlink:title=" ">
<polygon fill="white" stroke="black" points="787.5,-41.5 787.5,-71.5 906.5,-71.5 906.5,-41.5 787.5,-41.5"/>
<text text-anchor="start" x="795.5" y="-59.5" font-family="Helvetica,sans-Serif" font-size="10.00">PlayerControllerSystem</text>
<text text-anchor="middle" x="847" y="-48.5" font-family="Helvetica,sans-Serif" font-size="10.00">::fixedUpdate</text>
</a>
</g>
</g>
<!-- Node10&#45;&gt;Node11 -->
<g id="edge10" class="edge"><title>Node10&#45;&gt;Node11</title>
<path fill="none" stroke="midnightblue" d="M935.212,-56.5C925.667,-56.5 915.936,-56.5 906.601,-56.5"/>
<polygon fill="midnightblue" stroke="midnightblue" points="935.468,-60.0001 945.468,-56.5 935.467,-53.0001 935.468,-60.0001"/>
</g>
<!-- Node11&#45;&gt;Node4 -->
<g id="edge11" class="edge"><title>Node11&#45;&gt;Node4</title>
<path fill="none" stroke="midnightblue" d="M777.341,-67.3766C768.334,-68.8035 759.192,-70.2517 750.43,-71.6397"/>
<polygon fill="midnightblue" stroke="midnightblue" points="778.097,-70.8006 787.426,-65.779 777.002,-63.8869 778.097,-70.8006"/>
</g>
<!-- Node12&#45;&gt;Node10 -->
<g id="edge13" class="edge"><title>Node12&#45;&gt;Node10</title>
<path fill="none" stroke="midnightblue" d="M1094.81,-33.1596C1084.28,-35.9276 1073.48,-38.766 1063.2,-41.4677"/>
<polygon fill="midnightblue" stroke="midnightblue" points="1096.02,-36.4611 1104.8,-30.5341 1094.24,-29.691 1096.02,-36.4611"/>
</g>
<!-- Node13&#45;&gt;Node2 -->
<g id="edge15" class="edge"><title>Node13&#45;&gt;Node2</title>
<path fill="none" stroke="midnightblue" d="M1091.46,-104.404C1083.01,-104.513 1074.44,-104.623 1066.15,-104.729"/>
<polygon fill="midnightblue" stroke="midnightblue" points="1091.73,-107.901 1101.69,-104.273 1091.64,-100.902 1091.73,-107.901"/>
</g>
</g>
</svg>
