<?xml version="1.0" encoding="UTF-8" standalone="no"?>
<!DOCTYPE svg PUBLIC "-//W3C//DTD SVG 1.1//EN"
 "http://www.w3.org/Graphics/SVG/1.1/DTD/svg11.dtd">
<!-- Generated by graphviz version 2.38.0 (20140413.2041)
 -->
<!-- Title: CollisionMesh::initialize Pages: 1 -->
<svg width="303pt" height="104pt"
 viewBox="0.00 0.00 303.00 104.00" xmlns="http://www.w3.org/2000/svg" xmlns:xlink="http://www.w3.org/1999/xlink">
<g id="graph0" class="graph" transform="scale(1 1) rotate(0) translate(4 100)">
<title>CollisionMesh::initialize</title>
<polygon fill="white" stroke="none" points="-4,4 -4,-100 299,-100 299,4 -4,4"/>
<!-- Node1 -->
<g id="node1" class="node"><title>Node1</title>
<g id="a_node1"><a xlink:title=" ">
<polygon fill="#bfbfbf" stroke="black" points="0,-38.5 0,-57.5 119,-57.5 119,-38.5 0,-38.5"/>
<text text-anchor="middle" x="59.5" y="-45.5" font-family="Helvetica,sans-Serif" font-size="10.00">CollisionMesh::initialize</text>
</a>
</g>
</g>
<!-- Node2 -->
<g id="node2" class="node"><title>Node2</title>
<g id="a_node2"><a xlink:href="../../d4/daa/class_collision_mesh.html#adcf9c78c61f0be4c72d56722e0129c2d" target="_top" xlink:title=" ">
<polygon fill="white" stroke="black" points="171.5,-76.5 171.5,-95.5 278.5,-95.5 278.5,-76.5 171.5,-76.5"/>
<text text-anchor="middle" x="225" y="-83.5" font-family="Helvetica,sans-Serif" font-size="10.00">CollisionMesh::deInit</text>
</a>
</g>
</g>
<!-- Node1&#45;&gt;Node2 -->
<g id="edge1" class="edge"><title>Node1&#45;&gt;Node2</title>
<path fill="none" stroke="midnightblue" d="M101.758,-57.589C123.431,-62.6261 150.183,-68.8438 173.13,-74.1771"/>
<polygon fill="midnightblue" stroke="midnightblue" points="172.506,-77.6252 183.039,-76.4799 174.091,-70.8069 172.506,-77.6252"/>
</g>
<!-- Node3 -->
<g id="node3" class="node"><title>Node3</title>
<g id="a_node3"><a xlink:href="../../d4/daa/class_collision_mesh.html#a258fb73d34b153032086203cfb8d7193" target="_top" xlink:title=" ">
<polygon fill="white" stroke="black" points="155,-38.5 155,-57.5 295,-57.5 295,-38.5 155,-38.5"/>
<text text-anchor="middle" x="225" y="-45.5" font-family="Helvetica,sans-Serif" font-size="10.00">CollisionMesh::setKinematic</text>
</a>
</g>
</g>
<!-- Node1&#45;&gt;Node3 -->
<g id="edge2" class="edge"><title>Node1&#45;&gt;Node3</title>
<path fill="none" stroke="midnightblue" d="M119.065,-48C127.43,-48 136.147,-48 144.825,-48"/>
<polygon fill="midnightblue" stroke="midnightblue" points="144.971,-51.5001 154.971,-48 144.971,-44.5001 144.971,-51.5001"/>
</g>
<!-- Node4 -->
<g id="node4" class="node"><title>Node4</title>
<g id="a_node4"><a xlink:href="../../d4/daa/class_collision_mesh.html#afe25849e28ea6a9884f42d15b40c84d7" target="_top" xlink:title=" ">
<polygon fill="white" stroke="black" points="162,-0.5 162,-19.5 288,-19.5 288,-0.5 162,-0.5"/>
<text text-anchor="middle" x="225" y="-7.5" font-family="Helvetica,sans-Serif" font-size="10.00">CollisionMesh::setTrigger</text>
</a>
</g>
</g>
<!-- Node1&#45;&gt;Node4 -->
<g id="edge3" class="edge"><title>Node1&#45;&gt;Node4</title>
<path fill="none" stroke="midnightblue" d="M101.758,-38.411C123.431,-33.3739 150.183,-27.1562 173.13,-21.8229"/>
<polygon fill="midnightblue" stroke="midnightblue" points="174.091,-25.1931 183.039,-19.5201 172.506,-18.3748 174.091,-25.1931"/>
</g>
</g>
</svg>
