<?xml version="1.0" encoding="UTF-8" standalone="no"?>
<!DOCTYPE svg PUBLIC "-//W3C//DTD SVG 1.1//EN"
 "http://www.w3.org/Graphics/SVG/1.1/DTD/svg11.dtd">
<!-- Generated by graphviz version 2.38.0 (20140413.2041)
 -->
<!-- Title: CollisionMesh::createTriangleMeshCollider Pages: 1 -->
<svg width="345pt" height="104pt"
 viewBox="0.00 0.00 345.00 104.00" xmlns="http://www.w3.org/2000/svg" xmlns:xlink="http://www.w3.org/1999/xlink">
<g id="graph0" class="graph" transform="scale(1 1) rotate(0) translate(4 100)">
<title>CollisionMesh::createTriangleMeshCollider</title>
<polygon fill="white" stroke="none" points="-4,4 -4,-100 341,-100 341,4 -4,4"/>
<!-- Node1 -->
<g id="node1" class="node"><title>Node1</title>
<g id="a_node1"><a xlink:title=" ">
<polygon fill="#bfbfbf" stroke="black" points="0,-33 0,-63 144,-63 144,-33 0,-33"/>
<text text-anchor="start" x="8" y="-51" font-family="Helvetica,sans-Serif" font-size="10.00">CollisionMesh::createTriangle</text>
<text text-anchor="middle" x="72" y="-40" font-family="Helvetica,sans-Serif" font-size="10.00">MeshCollider</text>
</a>
</g>
</g>
<!-- Node2 -->
<g id="node2" class="node"><title>Node2</title>
<g id="a_node2"><a xlink:href="../../d3/d96/class__3_d_m_1_1_model.html#a49748220558104e4577121ffd3b836cc" target="_top" xlink:title=" ">
<polygon fill="white" stroke="black" points="180,-76.5 180,-95.5 337,-95.5 337,-76.5 180,-76.5"/>
<text text-anchor="middle" x="258.5" y="-83.5" font-family="Helvetica,sans-Serif" font-size="10.00">_3DM::Model::amountOfMeshes</text>
</a>
</g>
</g>
<!-- Node1&#45;&gt;Node2 -->
<g id="edge1" class="edge"><title>Node1&#45;&gt;Node2</title>
<path fill="none" stroke="midnightblue" d="M144.069,-62.6374C163.083,-66.5537 183.367,-70.7314 201.446,-74.455"/>
<polygon fill="midnightblue" stroke="midnightblue" points="200.741,-77.8832 211.241,-76.4725 202.153,-71.0271 200.741,-77.8832"/>
</g>
<!-- Node3 -->
<g id="node3" class="node"><title>Node3</title>
<g id="a_node3"><a xlink:href="../../d3/d96/class__3_d_m_1_1_model.html#af9f6fae18e109496063576dae998342f" target="_top" xlink:title=" ">
<polygon fill="white" stroke="black" points="184,-38.5 184,-57.5 333,-57.5 333,-38.5 184,-38.5"/>
<text text-anchor="middle" x="258.5" y="-45.5" font-family="Helvetica,sans-Serif" font-size="10.00">_3DM::Model::getMeshIndices</text>
</a>
</g>
</g>
<!-- Node1&#45;&gt;Node3 -->
<g id="edge2" class="edge"><title>Node1&#45;&gt;Node3</title>
<path fill="none" stroke="midnightblue" d="M144.069,-48C153.712,-48 163.682,-48 173.526,-48"/>
<polygon fill="midnightblue" stroke="midnightblue" points="173.719,-51.5001 183.719,-48 173.719,-44.5001 173.719,-51.5001"/>
</g>
<!-- Node4 -->
<g id="node4" class="node"><title>Node4</title>
<g id="a_node4"><a xlink:href="../../d3/d96/class__3_d_m_1_1_model.html#a5590da7e2a2f29fdfb05bd97f03a10f4" target="_top" xlink:title=" ">
<polygon fill="white" stroke="black" points="181.5,-0.5 181.5,-19.5 335.5,-19.5 335.5,-0.5 181.5,-0.5"/>
<text text-anchor="middle" x="258.5" y="-7.5" font-family="Helvetica,sans-Serif" font-size="10.00">_3DM::Model::getMeshVertices</text>
</a>
</g>
</g>
<!-- Node1&#45;&gt;Node4 -->
<g id="edge3" class="edge"><title>Node1&#45;&gt;Node4</title>
<path fill="none" stroke="midnightblue" d="M144.069,-33.3626C163.083,-29.4463 183.367,-25.2686 201.446,-21.545"/>
<polygon fill="midnightblue" stroke="midnightblue" points="202.153,-24.9729 211.241,-19.5275 200.741,-18.1168 202.153,-24.9729"/>
</g>
</g>
</svg>
