<?xml version="1.0" encoding="UTF-8" standalone="no"?>
<!DOCTYPE svg PUBLIC "-//W3C//DTD SVG 1.1//EN"
 "http://www.w3.org/Graphics/SVG/1.1/DTD/svg11.dtd">
<!-- Generated by graphviz version 2.38.0 (20140413.2041)
 -->
<!-- Title: CollisionMesh::getTransformation Pages: 1 -->
<svg width="1113pt" height="127pt"
 viewBox="0.00 0.00 1113.00 127.00" xmlns="http://www.w3.org/2000/svg" xmlns:xlink="http://www.w3.org/1999/xlink">
<g id="graph0" class="graph" transform="scale(1 1) rotate(0) translate(4 123)">
<title>CollisionMesh::getTransformation</title>
<polygon fill="white" stroke="none" points="-4,4 -4,-123 1109,-123 1109,4 -4,4"/>
<!-- Node1 -->
<g id="node1" class="node"><title>Node1</title>
<g id="a_node1"><a xlink:title=" ">
<polygon fill="#bfbfbf" stroke="black" points="944,-50 944,-69 1105,-69 1105,-50 944,-50"/>
<text text-anchor="middle" x="1024.5" y="-57" font-family="Helvetica,sans-Serif" font-size="10.00">CollisionMesh::getTransformation</text>
</a>
</g>
</g>
<!-- Node2 -->
<g id="node2" class="node"><title>Node2</title>
<g id="a_node2"><a xlink:href="../../d5/d50/class_player_controller_system.html#a9d234f18033f0a3fca95bbcd49c28deb" target="_top" xlink:title=" ">
<polygon fill="white" stroke="black" points="787.5,-88.5 787.5,-118.5 906.5,-118.5 906.5,-88.5 787.5,-88.5"/>
<text text-anchor="start" x="795.5" y="-106.5" font-family="Helvetica,sans-Serif" font-size="10.00">PlayerControllerSystem</text>
<text text-anchor="middle" x="847" y="-95.5" font-family="Helvetica,sans-Serif" font-size="10.00">::fixedUpdate</text>
</a>
</g>
</g>
<!-- Node1&#45;&gt;Node2 -->
<g id="edge1" class="edge"><title>Node1&#45;&gt;Node2</title>
<path fill="none" stroke="midnightblue" d="M975.638,-71.4995C954.366,-76.8326 929.122,-83.1618 906.721,-88.7779"/>
<polygon fill="midnightblue" stroke="midnightblue" points="976.57,-74.8742 985.419,-69.0473 974.868,-68.0843 976.57,-74.8742"/>
</g>
<!-- Node3 -->
<g id="node3" class="node"><title>Node3</title>
<g id="a_node3"><a xlink:href="../../d3/de8/class_fixed_updating_system.html#a7086592e0a53a3a3f8c7533f042a4266" target="_top" xlink:title=" ">
<polygon fill="white" stroke="black" points="637,-44.5 637,-74.5 750,-74.5 750,-44.5 637,-44.5"/>
<text text-anchor="start" x="645" y="-62.5" font-family="Helvetica,sans-Serif" font-size="10.00">FixedUpdatingSystem</text>
<text text-anchor="middle" x="693.5" y="-51.5" font-family="Helvetica,sans-Serif" font-size="10.00">::updateCollision</text>
</a>
</g>
</g>
<!-- Node1&#45;&gt;Node3 -->
<g id="edge10" class="edge"><title>Node1&#45;&gt;Node3</title>
<path fill="none" stroke="midnightblue" d="M933.853,-59.5C875.223,-59.5 800.468,-59.5 750.235,-59.5"/>
<polygon fill="midnightblue" stroke="midnightblue" points="933.858,-63.0001 943.858,-59.5 933.858,-56.0001 933.858,-63.0001"/>
</g>
<!-- Node9 -->
<g id="node9" class="node"><title>Node9</title>
<g id="a_node9"><a xlink:href="../../da/d3f/class_enemy_controller_system.html#a026087734b2ff96302e29522d87111f3" target="_top" xlink:title=" ">
<polygon fill="white" stroke="black" points="786,-0.5 786,-30.5 908,-30.5 908,-0.5 786,-0.5"/>
<text text-anchor="start" x="794" y="-18.5" font-family="Helvetica,sans-Serif" font-size="10.00">EnemyControllerSystem</text>
<text text-anchor="middle" x="847" y="-7.5" font-family="Helvetica,sans-Serif" font-size="10.00">::update</text>
</a>
</g>
</g>
<!-- Node1&#45;&gt;Node9 -->
<g id="edge8" class="edge"><title>Node1&#45;&gt;Node9</title>
<path fill="none" stroke="midnightblue" d="M975.532,-47.4739C954.715,-42.2547 930.109,-36.0856 908.09,-30.5654"/>
<polygon fill="midnightblue" stroke="midnightblue" points="974.868,-50.9157 985.419,-49.9527 976.57,-44.1258 974.868,-50.9157"/>
</g>
<!-- Node2&#45;&gt;Node3 -->
<g id="edge2" class="edge"><title>Node2&#45;&gt;Node3</title>
<path fill="none" stroke="midnightblue" d="M784.671,-85.6882C771.92,-81.985 758.603,-78.1173 746.238,-74.5262"/>
<polygon fill="midnightblue" stroke="midnightblue" points="783.707,-89.0528 794.286,-88.4808 785.659,-82.3305 783.707,-89.0528"/>
</g>
<!-- Node4 -->
<g id="node4" class="node"><title>Node4</title>
<g id="a_node4"><a xlink:href="../../d3/de8/class_fixed_updating_system.html#a3ed508813ba850baed19e86ef0429028" target="_top" xlink:title=" ">
<polygon fill="white" stroke="black" points="488,-44.5 488,-74.5 601,-74.5 601,-44.5 488,-44.5"/>
<text text-anchor="start" x="496" y="-62.5" font-family="Helvetica,sans-Serif" font-size="10.00">FixedUpdatingSystem</text>
<text text-anchor="middle" x="544.5" y="-51.5" font-family="Helvetica,sans-Serif" font-size="10.00">::fixedUpdate</text>
</a>
</g>
</g>
<!-- Node3&#45;&gt;Node4 -->
<g id="edge3" class="edge"><title>Node3&#45;&gt;Node4</title>
<path fill="none" stroke="midnightblue" d="M626.922,-59.5C618.319,-59.5 609.57,-59.5 601.153,-59.5"/>
<polygon fill="midnightblue" stroke="midnightblue" points="626.926,-63.0001 636.926,-59.5 626.926,-56.0001 626.926,-63.0001"/>
</g>
<!-- Node5 -->
<g id="node5" class="node"><title>Node5</title>
<g id="a_node5"><a xlink:href="../../dd/d1f/class_game.html#a157e87f9dc147a5842ee6bdc06c95c17" target="_top" xlink:title=" ">
<polygon fill="white" stroke="black" points="352,-50 352,-69 452,-69 452,-50 352,-50"/>
<text text-anchor="middle" x="402" y="-57" font-family="Helvetica,sans-Serif" font-size="10.00">Game::fixedUpdate</text>
</a>
</g>
</g>
<!-- Node4&#45;&gt;Node5 -->
<g id="edge4" class="edge"><title>Node4&#45;&gt;Node5</title>
<path fill="none" stroke="midnightblue" d="M477.898,-59.5C469.253,-59.5 460.514,-59.5 452.208,-59.5"/>
<polygon fill="midnightblue" stroke="midnightblue" points="477.971,-63.0001 487.971,-59.5 477.971,-56.0001 477.971,-63.0001"/>
</g>
<!-- Node6 -->
<g id="node6" class="node"><title>Node6</title>
<g id="a_node6"><a xlink:href="../../de/d6b/class_application.html#a95c827cb5cf08bd0c3cc7b07ed4b4249" target="_top" xlink:title=" ">
<polygon fill="white" stroke="black" points="194,-50 194,-69 316,-69 316,-50 194,-50"/>
<text text-anchor="middle" x="255" y="-57" font-family="Helvetica,sans-Serif" font-size="10.00">Application::fixedUpdate</text>
</a>
</g>
</g>
<!-- Node5&#45;&gt;Node6 -->
<g id="edge5" class="edge"><title>Node5&#45;&gt;Node6</title>
<path fill="none" stroke="midnightblue" d="M341.747,-59.5C333.287,-59.5 324.578,-59.5 316.102,-59.5"/>
<polygon fill="midnightblue" stroke="midnightblue" points="341.91,-63.0001 351.91,-59.5 341.91,-56.0001 341.91,-63.0001"/>
</g>
<!-- Node7 -->
<g id="node7" class="node"><title>Node7</title>
<g id="a_node7"><a xlink:href="../../de/d6b/class_application.html#a68965449404743bf1add056784d6cf81" target="_top" xlink:title=" ">
<polygon fill="white" stroke="black" points="74,-50 74,-69 158,-69 158,-50 74,-50"/>
<text text-anchor="middle" x="116" y="-57" font-family="Helvetica,sans-Serif" font-size="10.00">Application::run</text>
</a>
</g>
</g>
<!-- Node6&#45;&gt;Node7 -->
<g id="edge6" class="edge"><title>Node6&#45;&gt;Node7</title>
<path fill="none" stroke="midnightblue" d="M183.669,-59.5C174.931,-59.5 166.234,-59.5 158.145,-59.5"/>
<polygon fill="midnightblue" stroke="midnightblue" points="183.91,-63.0001 193.91,-59.5 183.91,-56.0001 183.91,-63.0001"/>
</g>
<!-- Node8 -->
<g id="node8" class="node"><title>Node8</title>
<g id="a_node8"><a xlink:href="../../d5/d12/_main_8cpp.html#a0ddf1224851353fc92bfbff6f499fa97" target="_top" xlink:title=" ">
<polygon fill="white" stroke="black" points="0,-50 0,-69 38,-69 38,-50 0,-50"/>
<text text-anchor="middle" x="19" y="-57" font-family="Helvetica,sans-Serif" font-size="10.00">main</text>
</a>
</g>
</g>
<!-- Node7&#45;&gt;Node8 -->
<g id="edge7" class="edge"><title>Node7&#45;&gt;Node8</title>
<path fill="none" stroke="midnightblue" d="M63.6206,-59.5C54.5384,-59.5 45.6466,-59.5 38.2853,-59.5"/>
<polygon fill="midnightblue" stroke="midnightblue" points="63.8842,-63.0001 73.8841,-59.5 63.8841,-56.0001 63.8842,-63.0001"/>
</g>
<!-- Node9&#45;&gt;Node3 -->
<g id="edge9" class="edge"><title>Node9&#45;&gt;Node3</title>
<path fill="none" stroke="midnightblue" d="M784.671,-33.3118C771.92,-37.015 758.603,-40.8827 746.238,-44.4738"/>
<polygon fill="midnightblue" stroke="midnightblue" points="785.659,-36.6695 794.286,-30.5192 783.707,-29.9472 785.659,-36.6695"/>
</g>
</g>
</svg>
