<?xml version="1.0" encoding="UTF-8" standalone="no"?>
<!DOCTYPE svg PUBLIC "-//W3C//DTD SVG 1.1//EN"
 "http://www.w3.org/Graphics/SVG/1.1/DTD/svg11.dtd">
<!-- Generated by graphviz version 2.38.0 (20140413.2041)
 -->
<!-- Title: CollisionMesh::applyCentralImpulse Pages: 1 -->
<svg width="1402pt" height="132pt"
 viewBox="0.00 0.00 1402.00 132.00" xmlns="http://www.w3.org/2000/svg" xmlns:xlink="http://www.w3.org/1999/xlink">
<g id="graph0" class="graph" transform="scale(1 1) rotate(0) translate(4 128)">
<title>CollisionMesh::applyCentralImpulse</title>
<polygon fill="white" stroke="none" points="-4,4 -4,-128 1398,-128 1398,4 -4,4"/>
<!-- Node1 -->
<g id="node1" class="node"><title>Node1</title>
<g id="a_node1"><a xlink:title=" ">
<polygon fill="#bfbfbf" stroke="black" points="1257,-49.5 1257,-79.5 1394,-79.5 1394,-49.5 1257,-49.5"/>
<text text-anchor="start" x="1265" y="-67.5" font-family="Helvetica,sans-Serif" font-size="10.00">CollisionMesh::applyCentral</text>
<text text-anchor="middle" x="1325.5" y="-56.5" font-family="Helvetica,sans-Serif" font-size="10.00">Impulse</text>
</a>
</g>
</g>
<!-- Node2 -->
<g id="node2" class="node"><title>Node2</title>
<g id="a_node2"><a xlink:href="../../da/d3f/class_enemy_controller_system.html#a58e6668793c7bc6ff830ba407047c540" target="_top" xlink:title=" ">
<polygon fill="white" stroke="black" points="1099,-93.5 1099,-123.5 1221,-123.5 1221,-93.5 1099,-93.5"/>
<text text-anchor="start" x="1107" y="-111.5" font-family="Helvetica,sans-Serif" font-size="10.00">EnemyControllerSystem</text>
<text text-anchor="middle" x="1160" y="-100.5" font-family="Helvetica,sans-Serif" font-size="10.00">::applyForces</text>
</a>
</g>
</g>
<!-- Node1&#45;&gt;Node2 -->
<g id="edge1" class="edge"><title>Node1&#45;&gt;Node2</title>
<path fill="none" stroke="midnightblue" d="M1258.72,-82.2029C1244.83,-85.9392 1230.31,-89.8475 1216.84,-93.4738"/>
<polygon fill="midnightblue" stroke="midnightblue" points="1259.94,-85.4977 1268.69,-79.5192 1258.12,-78.7382 1259.94,-85.4977"/>
</g>
<!-- Node10 -->
<g id="node10" class="node"><title>Node10</title>
<g id="a_node10"><a xlink:href="../../d5/d50/class_player_controller_system.html#a4f3e2c164e2bc88b8179912eae184653" target="_top" xlink:title=" ">
<polygon fill="white" stroke="black" points="944,-49.5 944,-79.5 1063,-79.5 1063,-49.5 944,-49.5"/>
<text text-anchor="start" x="952" y="-67.5" font-family="Helvetica,sans-Serif" font-size="10.00">PlayerControllerSystem</text>
<text text-anchor="middle" x="1003.5" y="-56.5" font-family="Helvetica,sans-Serif" font-size="10.00">::applyForces</text>
</a>
</g>
</g>
<!-- Node1&#45;&gt;Node10 -->
<g id="edge9" class="edge"><title>Node1&#45;&gt;Node10</title>
<path fill="none" stroke="midnightblue" d="M1246.31,-64.5C1189.76,-64.5 1114.57,-64.5 1063.13,-64.5"/>
<polygon fill="midnightblue" stroke="midnightblue" points="1246.64,-68.0001 1256.64,-64.5 1246.64,-61.0001 1246.64,-68.0001"/>
</g>
<!-- Node12 -->
<g id="node12" class="node"><title>Node12</title>
<g id="a_node12"><a xlink:href="../../d5/d50/class_player_controller_system.html#acf4ba00f5474af8aa904575b2655b44f" target="_top" xlink:title=" ">
<polygon fill="white" stroke="black" points="1100.5,-3.5 1100.5,-33.5 1219.5,-33.5 1219.5,-3.5 1100.5,-3.5"/>
<text text-anchor="start" x="1108.5" y="-21.5" font-family="Helvetica,sans-Serif" font-size="10.00">PlayerControllerSystem</text>
<text text-anchor="middle" x="1160" y="-10.5" font-family="Helvetica,sans-Serif" font-size="10.00">::performJump</text>
</a>
</g>
</g>
<!-- Node1&#45;&gt;Node12 -->
<g id="edge12" class="edge"><title>Node1&#45;&gt;Node12</title>
<path fill="none" stroke="midnightblue" d="M1260.99,-46.6328C1245.58,-42.2975 1229.26,-37.7058 1214.38,-33.5174"/>
<polygon fill="midnightblue" stroke="midnightblue" points="1260.39,-50.0987 1270.96,-49.4379 1262.29,-43.3603 1260.39,-50.0987"/>
</g>
<!-- Node3 -->
<g id="node3" class="node"><title>Node3</title>
<g id="a_node3"><a xlink:href="../../da/d3f/class_enemy_controller_system.html#a026087734b2ff96302e29522d87111f3" target="_top" xlink:title=" ">
<polygon fill="white" stroke="black" points="786,-93.5 786,-123.5 908,-123.5 908,-93.5 786,-93.5"/>
<text text-anchor="start" x="794" y="-111.5" font-family="Helvetica,sans-Serif" font-size="10.00">EnemyControllerSystem</text>
<text text-anchor="middle" x="847" y="-100.5" font-family="Helvetica,sans-Serif" font-size="10.00">::update</text>
</a>
</g>
</g>
<!-- Node2&#45;&gt;Node3 -->
<g id="edge2" class="edge"><title>Node2&#45;&gt;Node3</title>
<path fill="none" stroke="midnightblue" d="M1088.42,-108.5C1034.06,-108.5 959.725,-108.5 908.165,-108.5"/>
<polygon fill="midnightblue" stroke="midnightblue" points="1088.67,-112 1098.67,-108.5 1088.67,-105 1088.67,-112"/>
</g>
<!-- Node4 -->
<g id="node4" class="node"><title>Node4</title>
<g id="a_node4"><a xlink:href="../../d3/de8/class_fixed_updating_system.html#a7086592e0a53a3a3f8c7533f042a4266" target="_top" xlink:title=" ">
<polygon fill="white" stroke="black" points="637,-68.5 637,-98.5 750,-98.5 750,-68.5 637,-68.5"/>
<text text-anchor="start" x="645" y="-86.5" font-family="Helvetica,sans-Serif" font-size="10.00">FixedUpdatingSystem</text>
<text text-anchor="middle" x="693.5" y="-75.5" font-family="Helvetica,sans-Serif" font-size="10.00">::updateCollision</text>
</a>
</g>
</g>
<!-- Node3&#45;&gt;Node4 -->
<g id="edge3" class="edge"><title>Node3&#45;&gt;Node4</title>
<path fill="none" stroke="midnightblue" d="M775.706,-96.9003C767.143,-95.4873 758.487,-94.059 750.179,-92.6879"/>
<polygon fill="midnightblue" stroke="midnightblue" points="775.251,-100.373 785.688,-98.5475 776.391,-93.466 775.251,-100.373"/>
</g>
<!-- Node5 -->
<g id="node5" class="node"><title>Node5</title>
<g id="a_node5"><a xlink:href="../../d3/de8/class_fixed_updating_system.html#a3ed508813ba850baed19e86ef0429028" target="_top" xlink:title=" ">
<polygon fill="white" stroke="black" points="488,-68.5 488,-98.5 601,-98.5 601,-68.5 488,-68.5"/>
<text text-anchor="start" x="496" y="-86.5" font-family="Helvetica,sans-Serif" font-size="10.00">FixedUpdatingSystem</text>
<text text-anchor="middle" x="544.5" y="-75.5" font-family="Helvetica,sans-Serif" font-size="10.00">::fixedUpdate</text>
</a>
</g>
</g>
<!-- Node4&#45;&gt;Node5 -->
<g id="edge4" class="edge"><title>Node4&#45;&gt;Node5</title>
<path fill="none" stroke="midnightblue" d="M626.922,-83.5C618.319,-83.5 609.57,-83.5 601.153,-83.5"/>
<polygon fill="midnightblue" stroke="midnightblue" points="626.926,-87.0001 636.926,-83.5 626.926,-80.0001 626.926,-87.0001"/>
</g>
<!-- Node6 -->
<g id="node6" class="node"><title>Node6</title>
<g id="a_node6"><a xlink:href="../../dd/d1f/class_game.html#a157e87f9dc147a5842ee6bdc06c95c17" target="_top" xlink:title=" ">
<polygon fill="white" stroke="black" points="352,-74 352,-93 452,-93 452,-74 352,-74"/>
<text text-anchor="middle" x="402" y="-81" font-family="Helvetica,sans-Serif" font-size="10.00">Game::fixedUpdate</text>
</a>
</g>
</g>
<!-- Node5&#45;&gt;Node6 -->
<g id="edge5" class="edge"><title>Node5&#45;&gt;Node6</title>
<path fill="none" stroke="midnightblue" d="M477.898,-83.5C469.253,-83.5 460.514,-83.5 452.208,-83.5"/>
<polygon fill="midnightblue" stroke="midnightblue" points="477.971,-87.0001 487.971,-83.5 477.971,-80.0001 477.971,-87.0001"/>
</g>
<!-- Node7 -->
<g id="node7" class="node"><title>Node7</title>
<g id="a_node7"><a xlink:href="../../de/d6b/class_application.html#a95c827cb5cf08bd0c3cc7b07ed4b4249" target="_top" xlink:title=" ">
<polygon fill="white" stroke="black" points="194,-74 194,-93 316,-93 316,-74 194,-74"/>
<text text-anchor="middle" x="255" y="-81" font-family="Helvetica,sans-Serif" font-size="10.00">Application::fixedUpdate</text>
</a>
</g>
</g>
<!-- Node6&#45;&gt;Node7 -->
<g id="edge6" class="edge"><title>Node6&#45;&gt;Node7</title>
<path fill="none" stroke="midnightblue" d="M341.747,-83.5C333.287,-83.5 324.578,-83.5 316.102,-83.5"/>
<polygon fill="midnightblue" stroke="midnightblue" points="341.91,-87.0001 351.91,-83.5 341.91,-80.0001 341.91,-87.0001"/>
</g>
<!-- Node8 -->
<g id="node8" class="node"><title>Node8</title>
<g id="a_node8"><a xlink:href="../../de/d6b/class_application.html#a68965449404743bf1add056784d6cf81" target="_top" xlink:title=" ">
<polygon fill="white" stroke="black" points="74,-74 74,-93 158,-93 158,-74 74,-74"/>
<text text-anchor="middle" x="116" y="-81" font-family="Helvetica,sans-Serif" font-size="10.00">Application::run</text>
</a>
</g>
</g>
<!-- Node7&#45;&gt;Node8 -->
<g id="edge7" class="edge"><title>Node7&#45;&gt;Node8</title>
<path fill="none" stroke="midnightblue" d="M183.669,-83.5C174.931,-83.5 166.234,-83.5 158.145,-83.5"/>
<polygon fill="midnightblue" stroke="midnightblue" points="183.91,-87.0001 193.91,-83.5 183.91,-80.0001 183.91,-87.0001"/>
</g>
<!-- Node9 -->
<g id="node9" class="node"><title>Node9</title>
<g id="a_node9"><a xlink:href="../../d5/d12/_main_8cpp.html#a0ddf1224851353fc92bfbff6f499fa97" target="_top" xlink:title=" ">
<polygon fill="white" stroke="black" points="0,-74 0,-93 38,-93 38,-74 0,-74"/>
<text text-anchor="middle" x="19" y="-81" font-family="Helvetica,sans-Serif" font-size="10.00">main</text>
</a>
</g>
</g>
<!-- Node8&#45;&gt;Node9 -->
<g id="edge8" class="edge"><title>Node8&#45;&gt;Node9</title>
<path fill="none" stroke="midnightblue" d="M63.6206,-83.5C54.5384,-83.5 45.6466,-83.5 38.2853,-83.5"/>
<polygon fill="midnightblue" stroke="midnightblue" points="63.8842,-87.0001 73.8841,-83.5 63.8841,-80.0001 63.8842,-87.0001"/>
</g>
<!-- Node11 -->
<g id="node11" class="node"><title>Node11</title>
<g id="a_node11"><a xlink:href="../../d5/d50/class_player_controller_system.html#a9d234f18033f0a3fca95bbcd49c28deb" target="_top" xlink:title=" ">
<polygon fill="white" stroke="black" points="787.5,-44.5 787.5,-74.5 906.5,-74.5 906.5,-44.5 787.5,-44.5"/>
<text text-anchor="start" x="795.5" y="-62.5" font-family="Helvetica,sans-Serif" font-size="10.00">PlayerControllerSystem</text>
<text text-anchor="middle" x="847" y="-51.5" font-family="Helvetica,sans-Serif" font-size="10.00">::fixedUpdate</text>
</a>
</g>
</g>
<!-- Node10&#45;&gt;Node11 -->
<g id="edge10" class="edge"><title>Node10&#45;&gt;Node11</title>
<path fill="none" stroke="midnightblue" d="M933.599,-62.2702C924.616,-61.9795 915.481,-61.6838 906.687,-61.3993"/>
<polygon fill="midnightblue" stroke="midnightblue" points="933.541,-65.7701 943.649,-62.5955 933.768,-58.7737 933.541,-65.7701"/>
</g>
<!-- Node11&#45;&gt;Node4 -->
<g id="edge11" class="edge"><title>Node11&#45;&gt;Node4</title>
<path fill="none" stroke="midnightblue" d="M777.341,-70.3766C768.334,-71.8035 759.192,-73.2517 750.43,-74.6397"/>
<polygon fill="midnightblue" stroke="midnightblue" points="778.097,-73.8006 787.426,-68.779 777.002,-66.8869 778.097,-73.8006"/>
</g>
<!-- Node13 -->
<g id="node13" class="node"><title>Node13</title>
<g id="a_node13"><a xlink:href="../../d5/d50/class_player_controller_system.html#a6b40aea168be07d1016a2602e38de00b" target="_top" xlink:title=" ">
<polygon fill="white" stroke="black" points="944,-0.5 944,-30.5 1063,-30.5 1063,-0.5 944,-0.5"/>
<text text-anchor="start" x="952" y="-18.5" font-family="Helvetica,sans-Serif" font-size="10.00">PlayerControllerSystem</text>
<text text-anchor="middle" x="1003.5" y="-7.5" font-family="Helvetica,sans-Serif" font-size="10.00">::performCommands</text>
</a>
</g>
</g>
<!-- Node12&#45;&gt;Node13 -->
<g id="edge13" class="edge"><title>Node12&#45;&gt;Node13</title>
<path fill="none" stroke="midnightblue" d="M1090.1,-17.1621C1081.12,-16.9877 1071.98,-16.8103 1063.19,-16.6396"/>
<polygon fill="midnightblue" stroke="midnightblue" points="1090.08,-20.6624 1100.15,-17.3573 1090.22,-13.6637 1090.08,-20.6624"/>
</g>
<!-- Node13&#45;&gt;Node11 -->
<g id="edge14" class="edge"><title>Node13&#45;&gt;Node11</title>
<path fill="none" stroke="midnightblue" d="M939.956,-33.3118C926.953,-37.015 913.372,-40.8827 900.762,-44.4738"/>
<polygon fill="midnightblue" stroke="midnightblue" points="941.103,-36.6245 949.762,-30.5192 939.186,-29.8921 941.103,-36.6245"/>
</g>
</g>
</svg>
