<?xml version="1.0" encoding="UTF-8" standalone="no"?>
<!DOCTYPE svg PUBLIC "-//W3C//DTD SVG 1.1//EN"
 "http://www.w3.org/Graphics/SVG/1.1/DTD/svg11.dtd">
<!-- Generated by graphviz version 2.38.0 (20140413.2041)
 -->
<!-- Title: CollisionMesh::getVelocitybt Pages: 1 -->
<!--zoomable 202 -->
<svg id="main" version="1.1" xmlns="http://www.w3.org/2000/svg" xmlns:xlink="http://www.w3.org/1999/xlink" xml:space="preserve" onload="init(evt)">
<style type="text/css"><![CDATA[
.edge:hover path { stroke: red; }
.edge:hover polygon { stroke: red; fill: red; }
]]></style>
<script type="text/javascript"><![CDATA[
var edges = document.getElementsByTagName('g');
if (edges && edges.length) {
  for (var i=0;i<edges.length;i++) {
    if (edges[i].id.substr(0,4)=='edge') {
      edges[i].setAttribute('class','edge');
    }
  }
}
]]></script>
        <defs>
                <circle id="rim" cx="0" cy="0" r="7"/>
                <circle id="rim2" cx="0" cy="0" r="3.5"/>
                <g id="zoomPlus">
                        <use xlink:href="#rim" fill="#404040">
                                <set attributeName="fill" to="#808080" begin="zoomplus.mouseover" end="zoomplus.mouseout"/>
                        </use>
                        <path d="M-4,0h8M0,-4v8" fill="none" stroke="white" stroke-width="1.5" pointer-events="none"/>
                </g>
                <g id="zoomMin">
                        <use xlink:href="#rim" fill="#404040">
                                <set attributeName="fill" to="#808080" begin="zoomminus.mouseover" end="zoomminus.mouseout"/>
                        </use>
                        <path d="M-4,0h8" fill="none" stroke="white" stroke-width="1.5" pointer-events="none"/>
                </g>
                <g id="dirArrow">
                        <path fill="none" stroke="white" stroke-width="1.5" d="M0,-3.0v7 M-2.5,-0.5L0,-3.0L2.5,-0.5"/>
                </g>
               <g id="resetDef">
                       <use xlink:href="#rim2" fill="#404040">
                               <set attributeName="fill" to="#808080" begin="reset.mouseover" end="reset.mouseout"/>
                       </use>
               </g>
        </defs>

<script type="text/javascript">
var viewWidth = 1408;
var viewHeight = 202;
var sectionId = 'dynsection-24';
</script>
<script xlink:href="../../svgpan.js"/>
<svg id="graph" class="graph">
<g id="viewport">
<title>CollisionMesh::getVelocitybt</title>
<polygon fill="white" stroke="none" points="-4,4 -4,-198 1404,-198 1404,4 -4,4"/>
<!-- Node1 -->
<g id="node1" class="node"><title>Node1</title>
<g id="a_node1"><a xlink:title=" ">
<polygon fill="#bfbfbf" stroke="black" points="1260,-94 1260,-113 1400,-113 1400,-94 1260,-94"/>
<text text-anchor="middle" x="1330" y="-101" font-family="Helvetica,sans-Serif" font-size="10.00">CollisionMesh::getVelocitybt</text>
</a>
</g>
</g>
<!-- Node2 -->
<g id="node2" class="node"><title>Node2</title>
<g id="a_node2"><a xlink:href="../../d5/d50/class_player_controller_system.html#a4f3e2c164e2bc88b8179912eae184653" target="_top" xlink:title=" ">
<polygon fill="white" stroke="black" points="945.5,-163.5 945.5,-193.5 1064.5,-193.5 1064.5,-163.5 945.5,-163.5"/>
<text text-anchor="start" x="953.5" y="-181.5" font-family="Helvetica,sans-Serif" font-size="10.00">PlayerControllerSystem</text>
<text text-anchor="middle" x="1005" y="-170.5" font-family="Helvetica,sans-Serif" font-size="10.00">::applyForces</text>
</a>
</g>
</g>
<!-- Node1&#45;&gt;Node2 -->
<g id="edge1" class="edge"><title>Node1&#45;&gt;Node2</title>
<path fill="none" stroke="midnightblue" d="M1298.49,-117.029C1277.82,-125.715 1249.7,-136.619 1224,-143.5 1170.86,-157.725 1108.8,-167 1064.51,-172.405"/>
<polygon fill="midnightblue" stroke="midnightblue" points="1299.89,-120.238 1307.71,-113.093 1297.14,-113.801 1299.89,-120.238"/>
</g>
<!-- Node10 -->
<g id="node10" class="node"><title>Node10</title>
<g id="a_node10"><a xlink:href="../../d5/d50/class_player_controller_system.html#a919d9d772a6059cf4213c42c584ffcf3" target="_top" xlink:title=" ">
<polygon fill="white" stroke="black" points="945.5,-100.5 945.5,-130.5 1064.5,-130.5 1064.5,-100.5 945.5,-100.5"/>
<text text-anchor="start" x="953.5" y="-118.5" font-family="Helvetica,sans-Serif" font-size="10.00">PlayerControllerSystem</text>
<text text-anchor="middle" x="1005" y="-107.5" font-family="Helvetica,sans-Serif" font-size="10.00">::executeRayTesting</text>
</a>
</g>
</g>
<!-- Node1&#45;&gt;Node10 -->
<g id="edge9" class="edge"><title>Node1&#45;&gt;Node10</title>
<path fill="none" stroke="midnightblue" d="M1285.98,-115.631C1267.12,-120.348 1244.63,-125.172 1224,-127.5 1170.12,-133.579 1156.12,-130.869 1102,-127.5 1089.85,-126.743 1076.88,-125.453 1064.53,-123.991"/>
<polygon fill="midnightblue" stroke="midnightblue" points="1286.94,-118.996 1295.76,-113.114 1285.2,-112.217 1286.94,-118.996"/>
</g>
<!-- Node11 -->
<g id="node11" class="node"><title>Node11</title>
<g id="a_node11"><a xlink:href="../../da/d3f/class_enemy_controller_system.html#ae94d4732176c8a2b834f76e7be6fe79d" target="_top" xlink:title=" ">
<polygon fill="white" stroke="black" points="944,-44.5 944,-74.5 1066,-74.5 1066,-44.5 944,-44.5"/>
<text text-anchor="start" x="952" y="-62.5" font-family="Helvetica,sans-Serif" font-size="10.00">EnemyControllerSystem</text>
<text text-anchor="middle" x="1005" y="-51.5" font-family="Helvetica,sans-Serif" font-size="10.00">::executeRayTesting</text>
</a>
</g>
</g>
<!-- Node1&#45;&gt;Node11 -->
<g id="edge11" class="edge"><title>Node1&#45;&gt;Node11</title>
<path fill="none" stroke="midnightblue" d="M1285.02,-91.5077C1266.33,-86.8093 1244.23,-81.7714 1224,-78.5 1171.12,-69.9479 1110.36,-65.0526 1066.44,-62.3803"/>
<polygon fill="midnightblue" stroke="midnightblue" points="1284.18,-94.9051 1294.73,-93.9959 1285.92,-88.124 1284.18,-94.9051"/>
</g>
<!-- Node13 -->
<g id="node13" class="node"><title>Node13</title>
<g id="a_node13"><a xlink:href="../../d5/d50/class_player_controller_system.html#a4ee740fcbaa4e826d5d2ef49e0c54c7f" target="_top" xlink:title=" ">
<polygon fill="white" stroke="black" points="1103.5,-88.5 1103.5,-118.5 1222.5,-118.5 1222.5,-88.5 1103.5,-88.5"/>
<text text-anchor="start" x="1111.5" y="-106.5" font-family="Helvetica,sans-Serif" font-size="10.00">PlayerControllerSystem</text>
<text text-anchor="middle" x="1163" y="-95.5" font-family="Helvetica,sans-Serif" font-size="10.00">::handleRayHit</text>
</a>
</g>
</g>
<!-- Node1&#45;&gt;Node13 -->
<g id="edge14" class="edge"><title>Node1&#45;&gt;Node13</title>
<path fill="none" stroke="midnightblue" d="M1249.7,-103.5C1240.55,-103.5 1231.34,-103.5 1222.54,-103.5"/>
<polygon fill="midnightblue" stroke="midnightblue" points="1249.98,-107 1259.98,-103.5 1249.98,-100 1249.98,-107"/>
</g>
<!-- Node14 -->
<g id="node14" class="node"><title>Node14</title>
<g id="a_node14"><a xlink:href="../../da/d3f/class_enemy_controller_system.html#a687331915aabd4381bc5f5433396e12b" target="_top" xlink:title=" ">
<polygon fill="white" stroke="black" points="1102,-0.5 1102,-30.5 1224,-30.5 1224,-0.5 1102,-0.5"/>
<text text-anchor="start" x="1110" y="-18.5" font-family="Helvetica,sans-Serif" font-size="10.00">EnemyControllerSystem</text>
<text text-anchor="middle" x="1163" y="-7.5" font-family="Helvetica,sans-Serif" font-size="10.00">::handleRayHit</text>
</a>
</g>
</g>
<!-- Node1&#45;&gt;Node14 -->
<g id="edge16" class="edge"><title>Node1&#45;&gt;Node14</title>
<path fill="none" stroke="midnightblue" d="M1303.31,-88.9223C1282.15,-77.0099 1251.29,-59.8546 1224,-45.5 1214.52,-40.5128 1204.1,-35.2356 1194.65,-30.521"/>
<polygon fill="midnightblue" stroke="midnightblue" points="1301.59,-91.9735 1312.02,-93.8403 1305.03,-85.8773 1301.59,-91.9735"/>
</g>
<!-- Node3 -->
<g id="node3" class="node"><title>Node3</title>
<g id="a_node3"><a xlink:href="../../d5/d50/class_player_controller_system.html#a9d234f18033f0a3fca95bbcd49c28deb" target="_top" xlink:title=" ">
<polygon fill="white" stroke="black" points="787.5,-100.5 787.5,-130.5 906.5,-130.5 906.5,-100.5 787.5,-100.5"/>
<text text-anchor="start" x="795.5" y="-118.5" font-family="Helvetica,sans-Serif" font-size="10.00">PlayerControllerSystem</text>
<text text-anchor="middle" x="847" y="-107.5" font-family="Helvetica,sans-Serif" font-size="10.00">::fixedUpdate</text>
</a>
</g>
</g>
<!-- Node2&#45;&gt;Node3 -->
<g id="edge2" class="edge"><title>Node2&#45;&gt;Node3</title>
<path fill="none" stroke="midnightblue" d="M957.084,-159.553C934.12,-150.279 906.857,-139.269 885.331,-130.576"/>
<polygon fill="midnightblue" stroke="midnightblue" points="956.051,-162.911 966.634,-163.41 958.672,-156.42 956.051,-162.911"/>
</g>
<!-- Node4 -->
<g id="node4" class="node"><title>Node4</title>
<g id="a_node4"><a xlink:href="../../d3/de8/class_fixed_updating_system.html#a7086592e0a53a3a3f8c7533f042a4266" target="_top" xlink:title=" ">
<polygon fill="white" stroke="black" points="637,-74.5 637,-104.5 750,-104.5 750,-74.5 637,-74.5"/>
<text text-anchor="start" x="645" y="-92.5" font-family="Helvetica,sans-Serif" font-size="10.00">FixedUpdatingSystem</text>
<text text-anchor="middle" x="693.5" y="-81.5" font-family="Helvetica,sans-Serif" font-size="10.00">::updateCollision</text>
</a>
</g>
</g>
<!-- Node3&#45;&gt;Node4 -->
<g id="edge3" class="edge"><title>Node3&#45;&gt;Node4</title>
<path fill="none" stroke="midnightblue" d="M777.341,-103.717C768.334,-102.171 759.192,-100.602 750.43,-99.0986"/>
<polygon fill="midnightblue" stroke="midnightblue" points="776.978,-107.206 787.426,-105.448 778.162,-100.307 776.978,-107.206"/>
</g>
<!-- Node5 -->
<g id="node5" class="node"><title>Node5</title>
<g id="a_node5"><a xlink:href="../../d3/de8/class_fixed_updating_system.html#a3ed508813ba850baed19e86ef0429028" target="_top" xlink:title=" ">
<polygon fill="white" stroke="black" points="488,-74.5 488,-104.5 601,-104.5 601,-74.5 488,-74.5"/>
<text text-anchor="start" x="496" y="-92.5" font-family="Helvetica,sans-Serif" font-size="10.00">FixedUpdatingSystem</text>
<text text-anchor="middle" x="544.5" y="-81.5" font-family="Helvetica,sans-Serif" font-size="10.00">::fixedUpdate</text>
</a>
</g>
</g>
<!-- Node4&#45;&gt;Node5 -->
<g id="edge4" class="edge"><title>Node4&#45;&gt;Node5</title>
<path fill="none" stroke="midnightblue" d="M626.922,-89.5C618.319,-89.5 609.57,-89.5 601.153,-89.5"/>
<polygon fill="midnightblue" stroke="midnightblue" points="626.926,-93.0001 636.926,-89.5 626.926,-86.0001 626.926,-93.0001"/>
</g>
<!-- Node6 -->
<g id="node6" class="node"><title>Node6</title>
<g id="a_node6"><a xlink:href="../../dd/d1f/class_game.html#a157e87f9dc147a5842ee6bdc06c95c17" target="_top" xlink:title=" ">
<polygon fill="white" stroke="black" points="352,-80 352,-99 452,-99 452,-80 352,-80"/>
<text text-anchor="middle" x="402" y="-87" font-family="Helvetica,sans-Serif" font-size="10.00">Game::fixedUpdate</text>
</a>
</g>
</g>
<!-- Node5&#45;&gt;Node6 -->
<g id="edge5" class="edge"><title>Node5&#45;&gt;Node6</title>
<path fill="none" stroke="midnightblue" d="M477.898,-89.5C469.253,-89.5 460.514,-89.5 452.208,-89.5"/>
<polygon fill="midnightblue" stroke="midnightblue" points="477.971,-93.0001 487.971,-89.5 477.971,-86.0001 477.971,-93.0001"/>
</g>
<!-- Node7 -->
<g id="node7" class="node"><title>Node7</title>
<g id="a_node7"><a xlink:href="../../de/d6b/class_application.html#a95c827cb5cf08bd0c3cc7b07ed4b4249" target="_top" xlink:title=" ">
<polygon fill="white" stroke="black" points="194,-80 194,-99 316,-99 316,-80 194,-80"/>
<text text-anchor="middle" x="255" y="-87" font-family="Helvetica,sans-Serif" font-size="10.00">Application::fixedUpdate</text>
</a>
</g>
</g>
<!-- Node6&#45;&gt;Node7 -->
<g id="edge6" class="edge"><title>Node6&#45;&gt;Node7</title>
<path fill="none" stroke="midnightblue" d="M341.747,-89.5C333.287,-89.5 324.578,-89.5 316.102,-89.5"/>
<polygon fill="midnightblue" stroke="midnightblue" points="341.91,-93.0001 351.91,-89.5 341.91,-86.0001 341.91,-93.0001"/>
</g>
<!-- Node8 -->
<g id="node8" class="node"><title>Node8</title>
<g id="a_node8"><a xlink:href="../../de/d6b/class_application.html#a68965449404743bf1add056784d6cf81" target="_top" xlink:title=" ">
<polygon fill="white" stroke="black" points="74,-80 74,-99 158,-99 158,-80 74,-80"/>
<text text-anchor="middle" x="116" y="-87" font-family="Helvetica,sans-Serif" font-size="10.00">Application::run</text>
</a>
</g>
</g>
<!-- Node7&#45;&gt;Node8 -->
<g id="edge7" class="edge"><title>Node7&#45;&gt;Node8</title>
<path fill="none" stroke="midnightblue" d="M183.669,-89.5C174.931,-89.5 166.234,-89.5 158.145,-89.5"/>
<polygon fill="midnightblue" stroke="midnightblue" points="183.91,-93.0001 193.91,-89.5 183.91,-86.0001 183.91,-93.0001"/>
</g>
<!-- Node9 -->
<g id="node9" class="node"><title>Node9</title>
<g id="a_node9"><a xlink:href="../../d5/d12/_main_8cpp.html#a0ddf1224851353fc92bfbff6f499fa97" target="_top" xlink:title=" ">
<polygon fill="white" stroke="black" points="0,-80 0,-99 38,-99 38,-80 0,-80"/>
<text text-anchor="middle" x="19" y="-87" font-family="Helvetica,sans-Serif" font-size="10.00">main</text>
</a>
</g>
</g>
<!-- Node8&#45;&gt;Node9 -->
<g id="edge8" class="edge"><title>Node8&#45;&gt;Node9</title>
<path fill="none" stroke="midnightblue" d="M63.6206,-89.5C54.5384,-89.5 45.6466,-89.5 38.2853,-89.5"/>
<polygon fill="midnightblue" stroke="midnightblue" points="63.8842,-93.0001 73.8841,-89.5 63.8841,-86.0001 63.8842,-93.0001"/>
</g>
<!-- Node10&#45;&gt;Node3 -->
<g id="edge10" class="edge"><title>Node10&#45;&gt;Node3</title>
<path fill="none" stroke="midnightblue" d="M935.212,-115.5C925.667,-115.5 915.936,-115.5 906.601,-115.5"/>
<polygon fill="midnightblue" stroke="midnightblue" points="935.468,-119 945.468,-115.5 935.467,-112 935.468,-119"/>
</g>
<!-- Node12 -->
<g id="node12" class="node"><title>Node12</title>
<g id="a_node12"><a xlink:href="../../da/d3f/class_enemy_controller_system.html#a026087734b2ff96302e29522d87111f3" target="_top" xlink:title=" ">
<polygon fill="white" stroke="black" points="786,-48.5 786,-78.5 908,-78.5 908,-48.5 786,-48.5"/>
<text text-anchor="start" x="794" y="-66.5" font-family="Helvetica,sans-Serif" font-size="10.00">EnemyControllerSystem</text>
<text text-anchor="middle" x="847" y="-55.5" font-family="Helvetica,sans-Serif" font-size="10.00">::update</text>
</a>
</g>
</g>
<!-- Node11&#45;&gt;Node12 -->
<g id="edge12" class="edge"><title>Node11&#45;&gt;Node12</title>
<path fill="none" stroke="midnightblue" d="M933.462,-61.3087C925.01,-61.5254 916.44,-61.7451 908.153,-61.9576"/>
<polygon fill="midnightblue" stroke="midnightblue" points="933.779,-64.8018 943.686,-61.0465 933.6,-57.8041 933.779,-64.8018"/>
</g>
<!-- Node12&#45;&gt;Node4 -->
<g id="edge13" class="edge"><title>Node12&#45;&gt;Node4</title>
<path fill="none" stroke="midnightblue" d="M775.706,-75.5637C767.143,-77.0332 758.487,-78.5187 750.179,-79.9446"/>
<polygon fill="midnightblue" stroke="midnightblue" points="776.424,-78.9917 785.688,-73.8506 775.24,-72.0926 776.424,-78.9917"/>
</g>
<!-- Node13&#45;&gt;Node10 -->
<g id="edge15" class="edge"><title>Node13&#45;&gt;Node10</title>
<path fill="none" stroke="midnightblue" d="M1093.21,-108.791C1083.67,-109.526 1073.94,-110.274 1064.6,-110.992"/>
<polygon fill="midnightblue" stroke="midnightblue" points="1093.77,-112.259 1103.47,-108.002 1093.23,-105.28 1093.77,-112.259"/>
</g>
<!-- Node14&#45;&gt;Node11 -->
<g id="edge17" class="edge"><title>Node14&#45;&gt;Node11</title>
<path fill="none" stroke="midnightblue" d="M1098.85,-33.3118C1085.72,-37.015 1072.01,-40.8827 1059.27,-44.4738"/>
<polygon fill="midnightblue" stroke="midnightblue" points="1100.08,-36.6025 1108.75,-30.5192 1098.18,-29.8653 1100.08,-36.6025"/>
</g>
</g>
</svg>
        <g id="navigator" transform="translate(0 0)" fill="#404254">
                <rect fill="#f2f5e9" fill-opacity="0.5" stroke="#606060" stroke-width=".5" x="0" y="0" width="60" height="60"/>
                <use id="zoomplus" xlink:href="#zoomPlus" x="17" y="9" onmousedown="handleZoom(evt,'in')"/>
                <use id="zoomminus" xlink:href="#zoomMin" x="42" y="9" onmousedown="handleZoom(evt,'out')"/>
                <use id="reset" xlink:href="#resetDef" x="30" y="36" onmousedown="handleReset()"/>
                <g id="arrowUp" xlink:href="#dirArrow" transform="translate(30 24)" onmousedown="handlePan(0,-1)">
                  <use xlink:href="#rim" fill="#404040">
                        <set attributeName="fill" to="#808080" begin="arrowUp.mouseover" end="arrowUp.mouseout"/>
                  </use>
                  <path fill="none" stroke="white" stroke-width="1.5" d="M0,-3.0v7 M-2.5,-0.5L0,-3.0L2.5,-0.5"/>
                </g>
                <g id="arrowRight" xlink:href="#dirArrow" transform="rotate(90) translate(36 -43)" onmousedown="handlePan(1,0)">
                  <use xlink:href="#rim" fill="#404040">
                        <set attributeName="fill" to="#808080" begin="arrowRight.mouseover" end="arrowRight.mouseout"/>
                  </use>
                  <path fill="none" stroke="white" stroke-width="1.5" d="M0,-3.0v7 M-2.5,-0.5L0,-3.0L2.5,-0.5"/>
                </g>
                <g id="arrowDown" xlink:href="#dirArrow" transform="rotate(180) translate(-30 -48)" onmousedown="handlePan(0,1)">
                  <use xlink:href="#rim" fill="#404040">
                        <set attributeName="fill" to="#808080" begin="arrowDown.mouseover" end="arrowDown.mouseout"/>
                  </use>
                  <path fill="none" stroke="white" stroke-width="1.5" d="M0,-3.0v7 M-2.5,-0.5L0,-3.0L2.5,-0.5"/>
                </g>
                <g id="arrowLeft" xlink:href="#dirArrow" transform="rotate(270) translate(-36 17)" onmousedown="handlePan(-1,0)">
                  <use xlink:href="#rim" fill="#404040">
                        <set attributeName="fill" to="#808080" begin="arrowLeft.mouseover" end="arrowLeft.mouseout"/>
                  </use>
                  <path fill="none" stroke="white" stroke-width="1.5" d="M0,-3.0v7 M-2.5,-0.5L0,-3.0L2.5,-0.5"/>
                </g>
        </g>
        <svg viewBox="0 0 15 15" width="100%" height="30px" preserveAspectRatio="xMaxYMin meet">
         <g id="arrow_out" transform="scale(0.3 0.3)">
          <a xlink:href="class_collision_mesh_ade31943d65b275017a002515e1b2af3c_icgraph_org.svg" target="_base">
           <rect id="button" ry="5" rx="5" y="6" x="6" height="38" width="38"
                fill="#f2f5e9" fill-opacity="0.5" stroke="#606060" stroke-width="1.0"/>
           <path id="arrow"
             d="M 11.500037,31.436501 C 11.940474,20.09759 22.043105,11.32322 32.158766,21.979434 L 37.068811,17.246167 C 37.068811,17.246167 37.088388,32 37.088388,32 L 22.160133,31.978069 C 22.160133,31.978069 26.997745,27.140456 26.997745,27.140456 C 18.528582,18.264221 13.291696,25.230495 11.500037,31.436501 z"
             style="fill:#404040;"/>
          </a>
         </g>
        </svg>
</svg>
