<?xml version="1.0" encoding="UTF-8" standalone="no"?>
<!DOCTYPE svg PUBLIC "-//W3C//DTD SVG 1.1//EN"
 "http://www.w3.org/Graphics/SVG/1.1/DTD/svg11.dtd">
<!-- Generated by graphviz version 2.38.0 (20140413.2041)
 -->
<!-- Title: CollisionMesh::setTrigger Pages: 1 -->
<svg width="461pt" height="165pt"
 viewBox="0.00 0.00 461.00 164.50" xmlns="http://www.w3.org/2000/svg" xmlns:xlink="http://www.w3.org/1999/xlink">
<g id="graph0" class="graph" transform="scale(1 1) rotate(0) translate(4 160.5)">
<title>CollisionMesh::setTrigger</title>
<polygon fill="white" stroke="none" points="-4,4 -4,-160.5 457,-160.5 457,4 -4,4"/>
<!-- Node1 -->
<g id="node1" class="node"><title>Node1</title>
<g id="a_node1"><a xlink:title=" ">
<polygon fill="#bfbfbf" stroke="black" points="327,-55 327,-74 453,-74 453,-55 327,-55"/>
<text text-anchor="middle" x="390" y="-62" font-family="Helvetica,sans-Serif" font-size="10.00">CollisionMesh::setTrigger</text>
</a>
</g>
</g>
<!-- Node2 -->
<g id="node2" class="node"><title>Node2</title>
<g id="a_node2"><a xlink:href="../../d4/daa/class_collision_mesh.html#aa50751946304cee44096c00cf737c696" target="_top" xlink:title=" ">
<polygon fill="white" stroke="black" points="172,-99 172,-118 291,-118 291,-99 172,-99"/>
<text text-anchor="middle" x="231.5" y="-106" font-family="Helvetica,sans-Serif" font-size="10.00">CollisionMesh::initialize</text>
</a>
</g>
</g>
<!-- Node1&#45;&gt;Node2 -->
<g id="edge1" class="edge"><title>Node1&#45;&gt;Node2</title>
<path fill="none" stroke="midnightblue" d="M345.105,-76.8412C320.178,-83.8493 289.449,-92.4888 266.392,-98.9713"/>
<polygon fill="midnightblue" stroke="midnightblue" points="346.362,-80.1233 355.042,-74.0473 344.468,-73.3846 346.362,-80.1233"/>
</g>
<!-- Node6 -->
<g id="node6" class="node"><title>Node6</title>
<g id="a_node6"><a xlink:href="../../d4/daa/class_collision_mesh.html#a0c0a59bee988afa35919739ea8f1ba6b" target="_top" xlink:title=" ">
<polygon fill="white" stroke="black" points="172,-49.5 172,-79.5 291,-79.5 291,-49.5 172,-49.5"/>
<text text-anchor="start" x="180" y="-67.5" font-family="Helvetica,sans-Serif" font-size="10.00">CollisionMesh::initialize</text>
<text text-anchor="middle" x="231.5" y="-56.5" font-family="Helvetica,sans-Serif" font-size="10.00">MeshShape</text>
</a>
</g>
</g>
<!-- Node1&#45;&gt;Node6 -->
<g id="edge5" class="edge"><title>Node1&#45;&gt;Node6</title>
<path fill="none" stroke="midnightblue" d="M316.678,-64.5C308.084,-64.5 299.395,-64.5 291.027,-64.5"/>
<polygon fill="midnightblue" stroke="midnightblue" points="316.697,-68.0001 326.697,-64.5 316.697,-61.0001 316.697,-68.0001"/>
</g>
<!-- Node7 -->
<g id="node7" class="node"><title>Node7</title>
<g id="a_node7"><a xlink:href="../../d4/daa/class_collision_mesh.html#a15e24ea6cec483c05c6d2644f235e408" target="_top" xlink:title=" ">
<polygon fill="white" stroke="black" points="172,-0.5 172,-30.5 291,-30.5 291,-0.5 172,-0.5"/>
<text text-anchor="start" x="180" y="-18.5" font-family="Helvetica,sans-Serif" font-size="10.00">CollisionMesh::initialize</text>
<text text-anchor="middle" x="231.5" y="-7.5" font-family="Helvetica,sans-Serif" font-size="10.00">ModelShape</text>
</a>
</g>
</g>
<!-- Node1&#45;&gt;Node7 -->
<g id="edge6" class="edge"><title>Node1&#45;&gt;Node7</title>
<path fill="none" stroke="midnightblue" d="M348.657,-51.8687C327.855,-45.3554 302.339,-37.3666 280.526,-30.537"/>
<polygon fill="midnightblue" stroke="midnightblue" points="347.865,-55.2881 358.454,-54.936 349.956,-48.6078 347.865,-55.2881"/>
</g>
<!-- Node3 -->
<g id="node3" class="node"><title>Node3</title>
<g id="a_node3"><a xlink:href="../../db/dd3/class_player_test_object.html#aac17d3bdbe3a909a7a873551fe90b6bb" target="_top" xlink:title=" ">
<polygon fill="white" stroke="black" points="1.5,-137 1.5,-156 134.5,-156 134.5,-137 1.5,-137"/>
<text text-anchor="middle" x="68" y="-144" font-family="Helvetica,sans-Serif" font-size="10.00">PlayerTestObject::initialize</text>
</a>
</g>
</g>
<!-- Node2&#45;&gt;Node3 -->
<g id="edge2" class="edge"><title>Node2&#45;&gt;Node3</title>
<path fill="none" stroke="midnightblue" d="M179.942,-120.396C157.241,-125.737 130.822,-131.954 109.46,-136.98"/>
<polygon fill="midnightblue" stroke="midnightblue" points="180.814,-123.786 189.747,-118.089 179.211,-116.973 180.814,-123.786"/>
</g>
<!-- Node4 -->
<g id="node4" class="node"><title>Node4</title>
<g id="a_node4"><a xlink:href="../../da/d1b/class_enemy_test_object.html#a360c36ab9698fba8c384a6aa7816a7a2" target="_top" xlink:title=" ">
<polygon fill="white" stroke="black" points="0,-99 0,-118 136,-118 136,-99 0,-99"/>
<text text-anchor="middle" x="68" y="-106" font-family="Helvetica,sans-Serif" font-size="10.00">EnemyTestObject::initialize</text>
</a>
</g>
</g>
<!-- Node2&#45;&gt;Node4 -->
<g id="edge3" class="edge"><title>Node2&#45;&gt;Node4</title>
<path fill="none" stroke="midnightblue" d="M161.59,-108.5C153.178,-108.5 144.591,-108.5 136.204,-108.5"/>
<polygon fill="midnightblue" stroke="midnightblue" points="161.738,-112 171.738,-108.5 161.738,-105 161.738,-112"/>
</g>
<!-- Node5 -->
<g id="node5" class="node"><title>Node5</title>
<g id="a_node5"><a xlink:href="../../de/d20/class_cube_trigger.html#acd67037d7ab9aca5a6880824644f1cea" target="_top" xlink:title=" ">
<polygon fill="white" stroke="black" points="13,-61 13,-80 123,-80 123,-61 13,-61"/>
<text text-anchor="middle" x="68" y="-68" font-family="Helvetica,sans-Serif" font-size="10.00">CubeTrigger::initialize</text>
</a>
</g>
</g>
<!-- Node2&#45;&gt;Node5 -->
<g id="edge4" class="edge"><title>Node2&#45;&gt;Node5</title>
<path fill="none" stroke="midnightblue" d="M179.942,-96.6039C157.241,-91.2626 130.822,-85.0463 109.46,-80.0201"/>
<polygon fill="midnightblue" stroke="midnightblue" points="179.211,-100.027 189.747,-98.911 180.814,-93.2136 179.211,-100.027"/>
</g>
<!-- Node8 -->
<g id="node8" class="node"><title>Node8</title>
<g id="a_node8"><a xlink:href="../../da/d3c/class_floor_object.html#a5f324e5913659265a3ac615c8888c524" target="_top" xlink:title=" ">
<polygon fill="white" stroke="black" points="14,-6 14,-25 122,-25 122,-6 14,-6"/>
<text text-anchor="middle" x="68" y="-13" font-family="Helvetica,sans-Serif" font-size="10.00">FloorObject::initialize</text>
</a>
</g>
</g>
<!-- Node7&#45;&gt;Node8 -->
<g id="edge7" class="edge"><title>Node7&#45;&gt;Node8</title>
<path fill="none" stroke="midnightblue" d="M161.711,-15.5C148.454,-15.5 134.758,-15.5 122.094,-15.5"/>
<polygon fill="midnightblue" stroke="midnightblue" points="161.738,-19.0001 171.738,-15.5 161.738,-12.0001 161.738,-19.0001"/>
</g>
</g>
</svg>
