<?xml version="1.0" encoding="UTF-8" standalone="no"?>
<!DOCTYPE svg PUBLIC "-//W3C//DTD SVG 1.1//EN"
 "http://www.w3.org/Graphics/SVG/1.1/DTD/svg11.dtd">
<!-- Generated by graphviz version 2.38.0 (20140413.2041)
 -->
<!-- Title: CollisionMesh::getPosition Pages: 1 -->
<svg width="1397pt" height="179pt"
 viewBox="0.00 0.00 1397.00 179.00" xmlns="http://www.w3.org/2000/svg" xmlns:xlink="http://www.w3.org/1999/xlink">
<g id="graph0" class="graph" transform="scale(1 1) rotate(0) translate(4 175)">
<title>CollisionMesh::getPosition</title>
<polygon fill="white" stroke="none" points="-4,4 -4,-175 1393,-175 1393,4 -4,4"/>
<!-- Node1 -->
<g id="node1" class="node"><title>Node1</title>
<g id="a_node1"><a xlink:title=" ">
<polygon fill="#bfbfbf" stroke="black" points="1257,-77 1257,-96 1389,-96 1389,-77 1257,-77"/>
<text text-anchor="middle" x="1323" y="-84" font-family="Helvetica,sans-Serif" font-size="10.00">CollisionMesh::getPosition</text>
</a>
</g>
</g>
<!-- Node2 -->
<g id="node2" class="node"><title>Node2</title>
<g id="a_node2"><a xlink:href="../../da/d3f/class_enemy_controller_system.html#a0f9e26ee8264c2f916c83a329609c099" target="_top" xlink:title=" ">
<polygon fill="white" stroke="black" points="1099,-140.5 1099,-170.5 1221,-170.5 1221,-140.5 1099,-140.5"/>
<text text-anchor="start" x="1107" y="-158.5" font-family="Helvetica,sans-Serif" font-size="10.00">EnemyControllerSystem</text>
<text text-anchor="middle" x="1160" y="-147.5" font-family="Helvetica,sans-Serif" font-size="10.00">::applyNewTransform</text>
</a>
</g>
</g>
<!-- Node1&#45;&gt;Node2 -->
<g id="edge1" class="edge"><title>Node1&#45;&gt;Node2</title>
<path fill="none" stroke="midnightblue" d="M1290.21,-100.126C1263.11,-111.737 1224.22,-128.405 1196.2,-140.416"/>
<polygon fill="midnightblue" stroke="midnightblue" points="1291.8,-103.25 1299.61,-96.0942 1289.04,-96.8164 1291.8,-103.25"/>
</g>
<!-- Node10 -->
<g id="node10" class="node"><title>Node10</title>
<g id="a_node10"><a xlink:href="../../d5/d50/class_player_controller_system.html#a791c9e27b3bdb79b981a087516c19207" target="_top" xlink:title=" ">
<polygon fill="white" stroke="black" points="944,-98.5 944,-128.5 1063,-128.5 1063,-98.5 944,-98.5"/>
<text text-anchor="start" x="952" y="-116.5" font-family="Helvetica,sans-Serif" font-size="10.00">PlayerControllerSystem</text>
<text text-anchor="middle" x="1003.5" y="-105.5" font-family="Helvetica,sans-Serif" font-size="10.00">::applyNewTransform</text>
</a>
</g>
</g>
<!-- Node1&#45;&gt;Node10 -->
<g id="edge9" class="edge"><title>Node1&#45;&gt;Node10</title>
<path fill="none" stroke="midnightblue" d="M1246.72,-92.9016C1190.49,-97.6833 1114.74,-104.125 1063.01,-108.524"/>
<polygon fill="midnightblue" stroke="midnightblue" points="1247.32,-96.3638 1256.98,-92.029 1246.72,-89.389 1247.32,-96.3638"/>
</g>
<!-- Node12 -->
<g id="node12" class="node"><title>Node12</title>
<g id="a_node12"><a xlink:href="../../d5/d50/class_player_controller_system.html#a7ec2692dbe1204e5e27f4189e0bcd8ea" target="_top" xlink:title=" ">
<polygon fill="white" stroke="black" points="944,-49.5 944,-79.5 1063,-79.5 1063,-49.5 944,-49.5"/>
<text text-anchor="start" x="952" y="-67.5" font-family="Helvetica,sans-Serif" font-size="10.00">PlayerControllerSystem</text>
<text text-anchor="middle" x="1003.5" y="-56.5" font-family="Helvetica,sans-Serif" font-size="10.00">::getPlayerInput</text>
</a>
</g>
</g>
<!-- Node1&#45;&gt;Node12 -->
<g id="edge12" class="edge"><title>Node1&#45;&gt;Node12</title>
<path fill="none" stroke="midnightblue" d="M1246.72,-81.2838C1190.49,-77.3877 1114.74,-72.1387 1063.01,-68.5546"/>
<polygon fill="midnightblue" stroke="midnightblue" points="1246.76,-84.7952 1256.98,-81.9949 1247.25,-77.8119 1246.76,-84.7952"/>
</g>
<!-- Node13 -->
<g id="node13" class="node"><title>Node13</title>
<g id="a_node13"><a xlink:href="../../d5/d50/class_player_controller_system.html#a4ee740fcbaa4e826d5d2ef49e0c54c7f" target="_top" xlink:title=" ">
<polygon fill="white" stroke="black" points="1100.5,-4.5 1100.5,-34.5 1219.5,-34.5 1219.5,-4.5 1100.5,-4.5"/>
<text text-anchor="start" x="1108.5" y="-22.5" font-family="Helvetica,sans-Serif" font-size="10.00">PlayerControllerSystem</text>
<text text-anchor="middle" x="1160" y="-11.5" font-family="Helvetica,sans-Serif" font-size="10.00">::handleRayHit</text>
</a>
</g>
</g>
<!-- Node1&#45;&gt;Node13 -->
<g id="edge14" class="edge"><title>Node1&#45;&gt;Node13</title>
<path fill="none" stroke="midnightblue" d="M1289.62,-73.0231C1262.84,-61.8806 1224.85,-46.0696 1197.1,-34.5218"/>
<polygon fill="midnightblue" stroke="midnightblue" points="1288.36,-76.2898 1298.93,-76.9005 1291.04,-69.827 1288.36,-76.2898"/>
</g>
<!-- Node3 -->
<g id="node3" class="node"><title>Node3</title>
<g id="a_node3"><a xlink:href="../../da/d3f/class_enemy_controller_system.html#a026087734b2ff96302e29522d87111f3" target="_top" xlink:title=" ">
<polygon fill="white" stroke="black" points="786,-131.5 786,-161.5 908,-161.5 908,-131.5 786,-131.5"/>
<text text-anchor="start" x="794" y="-149.5" font-family="Helvetica,sans-Serif" font-size="10.00">EnemyControllerSystem</text>
<text text-anchor="middle" x="847" y="-138.5" font-family="Helvetica,sans-Serif" font-size="10.00">::update</text>
</a>
</g>
</g>
<!-- Node2&#45;&gt;Node3 -->
<g id="edge2" class="edge"><title>Node2&#45;&gt;Node3</title>
<path fill="none" stroke="midnightblue" d="M1088.42,-153.457C1034.06,-151.884 959.725,-149.733 908.165,-148.241"/>
<polygon fill="midnightblue" stroke="midnightblue" points="1088.57,-156.963 1098.67,-153.754 1088.77,-149.966 1088.57,-156.963"/>
</g>
<!-- Node4 -->
<g id="node4" class="node"><title>Node4</title>
<g id="a_node4"><a xlink:href="../../d3/de8/class_fixed_updating_system.html#a7086592e0a53a3a3f8c7533f042a4266" target="_top" xlink:title=" ">
<polygon fill="white" stroke="black" points="637,-95.5 637,-125.5 750,-125.5 750,-95.5 637,-95.5"/>
<text text-anchor="start" x="645" y="-113.5" font-family="Helvetica,sans-Serif" font-size="10.00">FixedUpdatingSystem</text>
<text text-anchor="middle" x="693.5" y="-102.5" font-family="Helvetica,sans-Serif" font-size="10.00">::updateCollision</text>
</a>
</g>
</g>
<!-- Node3&#45;&gt;Node4 -->
<g id="edge3" class="edge"><title>Node3&#45;&gt;Node4</title>
<path fill="none" stroke="midnightblue" d="M775.706,-129.796C767.143,-127.762 758.487,-125.705 750.179,-123.731"/>
<polygon fill="midnightblue" stroke="midnightblue" points="775.15,-133.262 785.688,-132.168 776.768,-126.451 775.15,-133.262"/>
</g>
<!-- Node5 -->
<g id="node5" class="node"><title>Node5</title>
<g id="a_node5"><a xlink:href="../../d3/de8/class_fixed_updating_system.html#a3ed508813ba850baed19e86ef0429028" target="_top" xlink:title=" ">
<polygon fill="white" stroke="black" points="488,-95.5 488,-125.5 601,-125.5 601,-95.5 488,-95.5"/>
<text text-anchor="start" x="496" y="-113.5" font-family="Helvetica,sans-Serif" font-size="10.00">FixedUpdatingSystem</text>
<text text-anchor="middle" x="544.5" y="-102.5" font-family="Helvetica,sans-Serif" font-size="10.00">::fixedUpdate</text>
</a>
</g>
</g>
<!-- Node4&#45;&gt;Node5 -->
<g id="edge4" class="edge"><title>Node4&#45;&gt;Node5</title>
<path fill="none" stroke="midnightblue" d="M626.922,-110.5C618.319,-110.5 609.57,-110.5 601.153,-110.5"/>
<polygon fill="midnightblue" stroke="midnightblue" points="626.926,-114 636.926,-110.5 626.926,-107 626.926,-114"/>
</g>
<!-- Node6 -->
<g id="node6" class="node"><title>Node6</title>
<g id="a_node6"><a xlink:href="../../dd/d1f/class_game.html#a157e87f9dc147a5842ee6bdc06c95c17" target="_top" xlink:title=" ">
<polygon fill="white" stroke="black" points="352,-101 352,-120 452,-120 452,-101 352,-101"/>
<text text-anchor="middle" x="402" y="-108" font-family="Helvetica,sans-Serif" font-size="10.00">Game::fixedUpdate</text>
</a>
</g>
</g>
<!-- Node5&#45;&gt;Node6 -->
<g id="edge5" class="edge"><title>Node5&#45;&gt;Node6</title>
<path fill="none" stroke="midnightblue" d="M477.898,-110.5C469.253,-110.5 460.514,-110.5 452.208,-110.5"/>
<polygon fill="midnightblue" stroke="midnightblue" points="477.971,-114 487.971,-110.5 477.971,-107 477.971,-114"/>
</g>
<!-- Node7 -->
<g id="node7" class="node"><title>Node7</title>
<g id="a_node7"><a xlink:href="../../de/d6b/class_application.html#a95c827cb5cf08bd0c3cc7b07ed4b4249" target="_top" xlink:title=" ">
<polygon fill="white" stroke="black" points="194,-101 194,-120 316,-120 316,-101 194,-101"/>
<text text-anchor="middle" x="255" y="-108" font-family="Helvetica,sans-Serif" font-size="10.00">Application::fixedUpdate</text>
</a>
</g>
</g>
<!-- Node6&#45;&gt;Node7 -->
<g id="edge6" class="edge"><title>Node6&#45;&gt;Node7</title>
<path fill="none" stroke="midnightblue" d="M341.747,-110.5C333.287,-110.5 324.578,-110.5 316.102,-110.5"/>
<polygon fill="midnightblue" stroke="midnightblue" points="341.91,-114 351.91,-110.5 341.91,-107 341.91,-114"/>
</g>
<!-- Node8 -->
<g id="node8" class="node"><title>Node8</title>
<g id="a_node8"><a xlink:href="../../de/d6b/class_application.html#a68965449404743bf1add056784d6cf81" target="_top" xlink:title=" ">
<polygon fill="white" stroke="black" points="74,-101 74,-120 158,-120 158,-101 74,-101"/>
<text text-anchor="middle" x="116" y="-108" font-family="Helvetica,sans-Serif" font-size="10.00">Application::run</text>
</a>
</g>
</g>
<!-- Node7&#45;&gt;Node8 -->
<g id="edge7" class="edge"><title>Node7&#45;&gt;Node8</title>
<path fill="none" stroke="midnightblue" d="M183.669,-110.5C174.931,-110.5 166.234,-110.5 158.145,-110.5"/>
<polygon fill="midnightblue" stroke="midnightblue" points="183.91,-114 193.91,-110.5 183.91,-107 183.91,-114"/>
</g>
<!-- Node9 -->
<g id="node9" class="node"><title>Node9</title>
<g id="a_node9"><a xlink:href="../../d5/d12/_main_8cpp.html#a0ddf1224851353fc92bfbff6f499fa97" target="_top" xlink:title=" ">
<polygon fill="white" stroke="black" points="0,-101 0,-120 38,-120 38,-101 0,-101"/>
<text text-anchor="middle" x="19" y="-108" font-family="Helvetica,sans-Serif" font-size="10.00">main</text>
</a>
</g>
</g>
<!-- Node8&#45;&gt;Node9 -->
<g id="edge8" class="edge"><title>Node8&#45;&gt;Node9</title>
<path fill="none" stroke="midnightblue" d="M63.6206,-110.5C54.5384,-110.5 45.6466,-110.5 38.2853,-110.5"/>
<polygon fill="midnightblue" stroke="midnightblue" points="63.8842,-114 73.8841,-110.5 63.8841,-107 63.8842,-114"/>
</g>
<!-- Node11 -->
<g id="node11" class="node"><title>Node11</title>
<g id="a_node11"><a xlink:href="../../d5/d50/class_player_controller_system.html#a9d234f18033f0a3fca95bbcd49c28deb" target="_top" xlink:title=" ">
<polygon fill="white" stroke="black" points="787.5,-60.5 787.5,-90.5 906.5,-90.5 906.5,-60.5 787.5,-60.5"/>
<text text-anchor="start" x="795.5" y="-78.5" font-family="Helvetica,sans-Serif" font-size="10.00">PlayerControllerSystem</text>
<text text-anchor="middle" x="847" y="-67.5" font-family="Helvetica,sans-Serif" font-size="10.00">::fixedUpdate</text>
</a>
</g>
</g>
<!-- Node10&#45;&gt;Node11 -->
<g id="edge10" class="edge"><title>Node10&#45;&gt;Node11</title>
<path fill="none" stroke="midnightblue" d="M933.888,-96.6247C924.812,-94.3924 915.575,-92.1205 906.687,-89.9343"/>
<polygon fill="midnightblue" stroke="midnightblue" points="933.103,-100.036 943.649,-99.0254 934.775,-93.2383 933.103,-100.036"/>
</g>
<!-- Node11&#45;&gt;Node4 -->
<g id="edge11" class="edge"><title>Node11&#45;&gt;Node4</title>
<path fill="none" stroke="midnightblue" d="M777.632,-91.2946C768.531,-93.3971 759.286,-95.5329 750.43,-97.5788"/>
<polygon fill="midnightblue" stroke="midnightblue" points="778.471,-94.6931 787.426,-89.0319 776.895,-87.8728 778.471,-94.6931"/>
</g>
<!-- Node12&#45;&gt;Node11 -->
<g id="edge13" class="edge"><title>Node12&#45;&gt;Node11</title>
<path fill="none" stroke="midnightblue" d="M933.599,-69.4056C924.616,-70.0451 915.481,-70.6955 906.687,-71.3216"/>
<polygon fill="midnightblue" stroke="midnightblue" points="933.923,-72.8914 943.649,-68.69 933.426,-65.9091 933.923,-72.8914"/>
</g>
<!-- Node14 -->
<g id="node14" class="node"><title>Node14</title>
<g id="a_node14"><a xlink:href="../../d5/d50/class_player_controller_system.html#a919d9d772a6059cf4213c42c584ffcf3" target="_top" xlink:title=" ">
<polygon fill="white" stroke="black" points="944,-0.5 944,-30.5 1063,-30.5 1063,-0.5 944,-0.5"/>
<text text-anchor="start" x="952" y="-18.5" font-family="Helvetica,sans-Serif" font-size="10.00">PlayerControllerSystem</text>
<text text-anchor="middle" x="1003.5" y="-7.5" font-family="Helvetica,sans-Serif" font-size="10.00">::executeRayTesting</text>
</a>
</g>
</g>
<!-- Node13&#45;&gt;Node14 -->
<g id="edge15" class="edge"><title>Node13&#45;&gt;Node14</title>
<path fill="none" stroke="midnightblue" d="M1090.1,-17.7161C1081.12,-17.4836 1071.98,-17.2471 1063.19,-17.0194"/>
<polygon fill="midnightblue" stroke="midnightblue" points="1090.06,-21.2163 1100.15,-17.9764 1090.24,-14.2186 1090.06,-21.2163"/>
</g>
<!-- Node14&#45;&gt;Node11 -->
<g id="edge16" class="edge"><title>Node14&#45;&gt;Node11</title>
<path fill="none" stroke="midnightblue" d="M954.133,-34.2833C932.416,-42.7169 907.142,-52.5321 886.707,-60.4683"/>
<polygon fill="midnightblue" stroke="midnightblue" points="955.458,-37.5233 963.513,-30.6405 952.924,-30.9981 955.458,-37.5233"/>
</g>
</g>
</svg>
