<?xml version="1.0" encoding="UTF-8" standalone="no"?>
<!DOCTYPE svg PUBLIC "-//W3C//DTD SVG 1.1//EN"
 "http://www.w3.org/Graphics/SVG/1.1/DTD/svg11.dtd">
<!-- Generated by graphviz version 2.38.0 (20140413.2041)
 -->
<!-- Title: Window::handleEvents Pages: 1 -->
<svg width="491pt" height="66pt"
 viewBox="0.00 0.00 491.00 66.00" xmlns="http://www.w3.org/2000/svg" xmlns:xlink="http://www.w3.org/1999/xlink">
<g id="graph0" class="graph" transform="scale(1 1) rotate(0) translate(4 62)">
<title>Window::handleEvents</title>
<polygon fill="white" stroke="none" points="-4,4 -4,-62 487,-62 487,4 -4,4"/>
<!-- Node1 -->
<g id="node1" class="node"><title>Node1</title>
<g id="a_node1"><a xlink:title=" ">
<polygon fill="#bfbfbf" stroke="black" points="0,-19.5 0,-38.5 115,-38.5 115,-19.5 0,-19.5"/>
<text text-anchor="middle" x="57.5" y="-26.5" font-family="Helvetica,sans-Serif" font-size="10.00">Window::handleEvents</text>
</a>
</g>
</g>
<!-- Node2 -->
<g id="node2" class="node"><title>Node2</title>
<g id="a_node2"><a xlink:href="../../d9/dbf/class_window.html#a85b92a1f0c1678498470aac8f861fda4" target="_top" xlink:title=" ">
<polygon fill="white" stroke="black" points="151,-38.5 151,-57.5 319,-57.5 319,-38.5 151,-38.5"/>
<text text-anchor="middle" x="235" y="-45.5" font-family="Helvetica,sans-Serif" font-size="10.00">Window::getDeviceMaxScreenSize</text>
</a>
</g>
</g>
<!-- Node1&#45;&gt;Node2 -->
<g id="edge1" class="edge"><title>Node1&#45;&gt;Node2</title>
<path fill="none" stroke="midnightblue" d="M115.48,-35.1688C123.609,-36.0488 132.141,-36.9726 140.744,-37.904"/>
<polygon fill="midnightblue" stroke="midnightblue" points="140.538,-41.402 150.856,-38.9987 141.291,-34.4426 140.538,-41.402"/>
</g>
<!-- Node3 -->
<g id="node3" class="node"><title>Node3</title>
<g id="a_node3"><a xlink:href="../../d9/dbf/class_window.html#a78623e051f50427bcc05ffcef62a639e" target="_top" xlink:title=" ">
<polygon fill="white" stroke="black" points="176,-0.5 176,-19.5 294,-19.5 294,-0.5 176,-0.5"/>
<text text-anchor="middle" x="235" y="-7.5" font-family="Helvetica,sans-Serif" font-size="10.00">Window::resizeWindow</text>
</a>
</g>
</g>
<!-- Node1&#45;&gt;Node3 -->
<g id="edge2" class="edge"><title>Node1&#45;&gt;Node3</title>
<path fill="none" stroke="midnightblue" d="M115.48,-22.8312C131.477,-21.0994 149.036,-19.1984 165.623,-17.4027"/>
<polygon fill="midnightblue" stroke="midnightblue" points="166.237,-20.8567 175.802,-16.3006 165.483,-13.8974 166.237,-20.8567"/>
</g>
<!-- Node4 -->
<g id="node4" class="node"><title>Node4</title>
<g id="a_node4"><a xlink:href="../../d6/dc9/class_messenger.html#a6610379d1b30c4dfcdd1b47434a056b6" target="_top" xlink:title=" ">
<polygon fill="white" stroke="black" points="355,-0.5 355,-19.5 483,-19.5 483,-0.5 355,-0.5"/>
<text text-anchor="middle" x="419" y="-7.5" font-family="Helvetica,sans-Serif" font-size="10.00">Messenger::AddMessage</text>
</a>
</g>
</g>
<!-- Node3&#45;&gt;Node4 -->
<g id="edge3" class="edge"><title>Node3&#45;&gt;Node4</title>
<path fill="none" stroke="midnightblue" d="M294.086,-10C310.11,-10 327.708,-10 344.482,-10"/>
<polygon fill="midnightblue" stroke="midnightblue" points="344.798,-13.5001 354.798,-10 344.798,-6.5001 344.798,-13.5001"/>
</g>
</g>
</svg>
