<?xml version="1.0" encoding="UTF-8" standalone="no"?>
<!DOCTYPE svg PUBLIC "-//W3C//DTD SVG 1.1//EN"
 "http://www.w3.org/Graphics/SVG/1.1/DTD/svg11.dtd">
<!-- Generated by graphviz version 2.38.0 (20140413.2041)
 -->
<!-- Title: Window::handleEvents Pages: 1 -->
<svg width="453pt" height="28pt"
 viewBox="0.00 0.00 453.00 28.00" xmlns="http://www.w3.org/2000/svg" xmlns:xlink="http://www.w3.org/1999/xlink">
<g id="graph0" class="graph" transform="scale(1 1) rotate(0) translate(4 24)">
<title>Window::handleEvents</title>
<polygon fill="white" stroke="none" points="-4,4 -4,-24 449,-24 449,4 -4,4"/>
<!-- Node1 -->
<g id="node1" class="node"><title>Node1</title>
<g id="a_node1"><a xlink:title=" ">
<polygon fill="#bfbfbf" stroke="black" points="330,-0.5 330,-19.5 445,-19.5 445,-0.5 330,-0.5"/>
<text text-anchor="middle" x="387.5" y="-7.5" font-family="Helvetica,sans-Serif" font-size="10.00">Window::handleEvents</text>
</a>
</g>
</g>
<!-- Node2 -->
<g id="node2" class="node"><title>Node2</title>
<g id="a_node2"><a xlink:href="../../de/d6b/class_application.html#a051023103d00b96b1e5e7437fd8e2e7c" target="_top" xlink:title=" ">
<polygon fill="white" stroke="black" points="194,-0.5 194,-19.5 294,-19.5 294,-0.5 194,-0.5"/>
<text text-anchor="middle" x="244" y="-7.5" font-family="Helvetica,sans-Serif" font-size="10.00">Application::update</text>
</a>
</g>
</g>
<!-- Node1&#45;&gt;Node2 -->
<g id="edge1" class="edge"><title>Node1&#45;&gt;Node2</title>
<path fill="none" stroke="midnightblue" d="M319.673,-10C311.022,-10 302.292,-10 294.003,-10"/>
<polygon fill="midnightblue" stroke="midnightblue" points="319.762,-13.5001 329.762,-10 319.762,-6.5001 319.762,-13.5001"/>
</g>
<!-- Node3 -->
<g id="node3" class="node"><title>Node3</title>
<g id="a_node3"><a xlink:href="../../de/d6b/class_application.html#a68965449404743bf1add056784d6cf81" target="_top" xlink:title=" ">
<polygon fill="white" stroke="black" points="74,-0.5 74,-19.5 158,-19.5 158,-0.5 74,-0.5"/>
<text text-anchor="middle" x="116" y="-7.5" font-family="Helvetica,sans-Serif" font-size="10.00">Application::run</text>
</a>
</g>
</g>
<!-- Node2&#45;&gt;Node3 -->
<g id="edge2" class="edge"><title>Node2&#45;&gt;Node3</title>
<path fill="none" stroke="midnightblue" d="M183.89,-10C175.272,-10 166.556,-10 158.391,-10"/>
<polygon fill="midnightblue" stroke="midnightblue" points="183.924,-13.5001 193.924,-10 183.924,-6.5001 183.924,-13.5001"/>
</g>
<!-- Node4 -->
<g id="node4" class="node"><title>Node4</title>
<g id="a_node4"><a xlink:href="../../d5/d12/_main_8cpp.html#a0ddf1224851353fc92bfbff6f499fa97" target="_top" xlink:title=" ">
<polygon fill="white" stroke="black" points="0,-0.5 0,-19.5 38,-19.5 38,-0.5 0,-0.5"/>
<text text-anchor="middle" x="19" y="-7.5" font-family="Helvetica,sans-Serif" font-size="10.00">main</text>
</a>
</g>
</g>
<!-- Node3&#45;&gt;Node4 -->
<g id="edge3" class="edge"><title>Node3&#45;&gt;Node4</title>
<path fill="none" stroke="midnightblue" d="M63.6206,-10C54.5384,-10 45.6466,-10 38.2853,-10"/>
<polygon fill="midnightblue" stroke="midnightblue" points="63.8842,-13.5001 73.8841,-10 63.8841,-6.5001 63.8842,-13.5001"/>
</g>
</g>
</svg>
