<?xml version="1.0" encoding="UTF-8" standalone="no"?>
<!DOCTYPE svg PUBLIC "-//W3C//DTD SVG 1.1//EN"
 "http://www.w3.org/Graphics/SVG/1.1/DTD/svg11.dtd">
<!-- Generated by graphviz version 2.38.0 (20140413.2041)
 -->
<!-- Title: src/Cube.h Pages: 1 -->
<!--zoomable 532 -->
<svg id="main" version="1.1" xmlns="http://www.w3.org/2000/svg" xmlns:xlink="http://www.w3.org/1999/xlink" xml:space="preserve" onload="init(evt)">
<style type="text/css"><![CDATA[
.edge:hover path { stroke: red; }
.edge:hover polygon { stroke: red; fill: red; }
]]></style>
<script type="text/javascript"><![CDATA[
var edges = document.getElementsByTagName('g');
if (edges && edges.length) {
  for (var i=0;i<edges.length;i++) {
    if (edges[i].id.substr(0,4)=='edge') {
      edges[i].setAttribute('class','edge');
    }
  }
}
]]></script>
        <defs>
                <circle id="rim" cx="0" cy="0" r="7"/>
                <circle id="rim2" cx="0" cy="0" r="3.5"/>
                <g id="zoomPlus">
                        <use xlink:href="#rim" fill="#404040">
                                <set attributeName="fill" to="#808080" begin="zoomplus.mouseover" end="zoomplus.mouseout"/>
                        </use>
                        <path d="M-4,0h8M0,-4v8" fill="none" stroke="white" stroke-width="1.5" pointer-events="none"/>
                </g>
                <g id="zoomMin">
                        <use xlink:href="#rim" fill="#404040">
                                <set attributeName="fill" to="#808080" begin="zoomminus.mouseover" end="zoomminus.mouseout"/>
                        </use>
                        <path d="M-4,0h8" fill="none" stroke="white" stroke-width="1.5" pointer-events="none"/>
                </g>
                <g id="dirArrow">
                        <path fill="none" stroke="white" stroke-width="1.5" d="M0,-3.0v7 M-2.5,-0.5L0,-3.0L2.5,-0.5"/>
                </g>
               <g id="resetDef">
                       <use xlink:href="#rim2" fill="#404040">
                               <set attributeName="fill" to="#808080" begin="reset.mouseover" end="reset.mouseout"/>
                       </use>
               </g>
        </defs>

<script type="text/javascript">
var viewWidth = 588;
var viewHeight = 532;
var sectionId = 'dynsection-1';
</script>
<script xlink:href="../../svgpan.js"/>
<svg id="graph" class="graph">
<g id="viewport">
<title>src/Cube.h</title>
<polygon fill="white" stroke="none" points="-4,4 -4,-528 583.5,-528 583.5,4 -4,4"/>
<!-- Node1 -->
<g id="node1" class="node"><title>Node1</title>
<g id="a_node1"><a xlink:title=" ">
<polygon fill="#bfbfbf" stroke="black" points="187.5,-504.5 187.5,-523.5 251.5,-523.5 251.5,-504.5 187.5,-504.5"/>
<text text-anchor="middle" x="219.5" y="-511.5" font-family="Helvetica,sans-Serif" font-size="10.00">src/Cube.h</text>
</a>
</g>
</g>
<!-- Node2 -->
<g id="node2" class="node"><title>Node2</title>
<g id="a_node2"><a xlink:href="../../d9/da1/_sky_box_8h.html" target="_top" xlink:title=" ">
<polygon fill="white" stroke="black" points="181.5,-448.5 181.5,-467.5 257.5,-467.5 257.5,-448.5 181.5,-448.5"/>
<text text-anchor="middle" x="219.5" y="-455.5" font-family="Helvetica,sans-Serif" font-size="10.00">src/SkyBox.h</text>
</a>
</g>
</g>
<!-- Node1&#45;&gt;Node2 -->
<g id="edge1" class="edge"><title>Node1&#45;&gt;Node2</title>
<path fill="none" stroke="midnightblue" d="M219.5,-493.805C219.5,-484.91 219.5,-474.78 219.5,-467.751"/>
<polygon fill="midnightblue" stroke="midnightblue" points="216,-494.083 219.5,-504.083 223,-494.083 216,-494.083"/>
</g>
<!-- Node3 -->
<g id="node3" class="node"><title>Node3</title>
<g id="a_node3"><a xlink:href="../../da/d03/_entity_tests_8h.html" target="_top" xlink:title=" ">
<polygon fill="white" stroke="black" points="84,-392.5 84,-411.5 175,-411.5 175,-392.5 84,-392.5"/>
<text text-anchor="middle" x="129.5" y="-399.5" font-family="Helvetica,sans-Serif" font-size="10.00">src/EntityTests.h</text>
</a>
</g>
</g>
<!-- Node2&#45;&gt;Node3 -->
<g id="edge2" class="edge"><title>Node2&#45;&gt;Node3</title>
<path fill="none" stroke="midnightblue" d="M196.462,-443.177C179.901,-433.241 158.082,-420.149 143.924,-411.655"/>
<polygon fill="midnightblue" stroke="midnightblue" points="194.664,-446.18 205.04,-448.324 198.266,-440.178 194.664,-446.18"/>
</g>
<!-- Node11 -->
<g id="node11" class="node"><title>Node11</title>
<g id="a_node11"><a xlink:href="../../da/d13/_sky_box_system_8h.html" target="_top" xlink:title=" ">
<polygon fill="white" stroke="black" points="255.5,-392.5 255.5,-411.5 365.5,-411.5 365.5,-392.5 255.5,-392.5"/>
<text text-anchor="middle" x="310.5" y="-399.5" font-family="Helvetica,sans-Serif" font-size="10.00">src/SkyBoxSystem.h</text>
</a>
</g>
</g>
<!-- Node2&#45;&gt;Node11 -->
<g id="edge10" class="edge"><title>Node2&#45;&gt;Node11</title>
<path fill="none" stroke="midnightblue" d="M242.794,-443.177C259.539,-433.241 281.6,-420.149 295.916,-411.655"/>
<polygon fill="midnightblue" stroke="midnightblue" points="240.934,-440.211 234.121,-448.324 244.507,-446.231 240.934,-440.211"/>
</g>
<!-- Node4 -->
<g id="node4" class="node"><title>Node4</title>
<g id="a_node4"><a xlink:href="../../d9/dcd/_game_8h.html" target="_top" xlink:title=" ">
<polygon fill="white" stroke="black" points="221.5,-168.5 221.5,-187.5 289.5,-187.5 289.5,-168.5 221.5,-168.5"/>
<text text-anchor="middle" x="255.5" y="-175.5" font-family="Helvetica,sans-Serif" font-size="10.00">src/Game.h</text>
</a>
</g>
</g>
<!-- Node3&#45;&gt;Node4 -->
<g id="edge3" class="edge"><title>Node3&#45;&gt;Node4</title>
<path fill="none" stroke="midnightblue" d="M125.769,-381.923C120.053,-346.864 113.189,-271.445 148.5,-224 158.216,-210.946 198.257,-196.453 226.495,-187.532"/>
<polygon fill="midnightblue" stroke="midnightblue" points="122.395,-382.938 127.601,-392.166 129.286,-381.706 122.395,-382.938"/>
</g>
<!-- Node10 -->
<g id="node10" class="node"><title>Node10</title>
<g id="a_node10"><a xlink:href="../../de/d4c/_entity_tests_8cpp.html" target="_top" xlink:title=" ">
<polygon fill="white" stroke="black" points="0,-336.5 0,-355.5 101,-355.5 101,-336.5 0,-336.5"/>
<text text-anchor="middle" x="50.5" y="-343.5" font-family="Helvetica,sans-Serif" font-size="10.00">src/EntityTests.cpp</text>
</a>
</g>
</g>
<!-- Node3&#45;&gt;Node10 -->
<g id="edge9" class="edge"><title>Node3&#45;&gt;Node10</title>
<path fill="none" stroke="midnightblue" d="M108.466,-386.622C94.0339,-376.757 75.3585,-363.992 63.1612,-355.655"/>
<polygon fill="midnightblue" stroke="midnightblue" points="106.577,-389.57 116.807,-392.324 110.527,-383.791 106.577,-389.57"/>
</g>
<!-- Node5 -->
<g id="node5" class="node"><title>Node5</title>
<g id="a_node5"><a xlink:href="../../d9/da3/_application_8h.html" target="_top" xlink:title=" ">
<polygon fill="white" stroke="black" points="160,-112.5 160,-131.5 249,-131.5 249,-112.5 160,-112.5"/>
<text text-anchor="middle" x="204.5" y="-119.5" font-family="Helvetica,sans-Serif" font-size="10.00">src/Application.h</text>
</a>
</g>
</g>
<!-- Node4&#45;&gt;Node5 -->
<g id="edge4" class="edge"><title>Node4&#45;&gt;Node5</title>
<path fill="none" stroke="midnightblue" d="M240.122,-160.718C231.133,-151.2 220.141,-139.561 212.765,-131.751"/>
<polygon fill="midnightblue" stroke="midnightblue" points="237.668,-163.216 247.078,-168.083 242.757,-158.41 237.668,-163.216"/>
</g>
<!-- Node9 -->
<g id="node9" class="node"><title>Node9</title>
<g id="a_node9"><a xlink:href="../../d7/db5/_game_8cpp.html" target="_top" xlink:title=" ">
<polygon fill="white" stroke="black" points="267.5,-112.5 267.5,-131.5 345.5,-131.5 345.5,-112.5 267.5,-112.5"/>
<text text-anchor="middle" x="306.5" y="-119.5" font-family="Helvetica,sans-Serif" font-size="10.00">src/Game.cpp</text>
</a>
</g>
</g>
<!-- Node4&#45;&gt;Node9 -->
<g id="edge8" class="edge"><title>Node4&#45;&gt;Node9</title>
<path fill="none" stroke="midnightblue" d="M270.878,-160.718C279.867,-151.2 290.859,-139.561 298.235,-131.751"/>
<polygon fill="midnightblue" stroke="midnightblue" points="268.243,-158.41 263.922,-168.083 273.332,-163.216 268.243,-158.41"/>
</g>
<!-- Node6 -->
<g id="node6" class="node"><title>Node6</title>
<g id="a_node6"><a xlink:href="../../d0/d42/_application_8cpp.html" target="_top" xlink:title=" ">
<polygon fill="white" stroke="black" points="105.5,-56.5 105.5,-75.5 205.5,-75.5 205.5,-56.5 105.5,-56.5"/>
<text text-anchor="middle" x="155.5" y="-63.5" font-family="Helvetica,sans-Serif" font-size="10.00">src/Application.cpp</text>
</a>
</g>
</g>
<!-- Node5&#45;&gt;Node6 -->
<g id="edge5" class="edge"><title>Node5&#45;&gt;Node6</title>
<path fill="none" stroke="midnightblue" d="M189.466,-104.431C180.878,-94.9673 170.457,-83.4827 163.441,-75.7511"/>
<polygon fill="midnightblue" stroke="midnightblue" points="187.097,-107.029 196.409,-112.083 192.281,-102.325 187.097,-107.029"/>
</g>
<!-- Node7 -->
<g id="node7" class="node"><title>Node7</title>
<g id="a_node7"><a xlink:href="../../d4/dbf/main_8h.html" target="_top" xlink:title=" ">
<polygon fill="white" stroke="black" points="223.5,-56.5 223.5,-75.5 285.5,-75.5 285.5,-56.5 223.5,-56.5"/>
<text text-anchor="middle" x="254.5" y="-63.5" font-family="Helvetica,sans-Serif" font-size="10.00">src/main.h</text>
</a>
</g>
</g>
<!-- Node5&#45;&gt;Node7 -->
<g id="edge6" class="edge"><title>Node5&#45;&gt;Node7</title>
<path fill="none" stroke="midnightblue" d="M219.576,-104.718C228.389,-95.1997 239.166,-83.5608 246.397,-75.7511"/>
<polygon fill="midnightblue" stroke="midnightblue" points="216.982,-102.367 212.756,-112.083 222.119,-107.123 216.982,-102.367"/>
</g>
<!-- Node8 -->
<g id="node8" class="node"><title>Node8</title>
<g id="a_node8"><a xlink:href="../../d5/d12/_main_8cpp.html" target="_top" xlink:title=" ">
<polygon fill="white" stroke="black" points="218,-0.5 218,-19.5 291,-19.5 291,-0.5 218,-0.5"/>
<text text-anchor="middle" x="254.5" y="-7.5" font-family="Helvetica,sans-Serif" font-size="10.00">src/Main.cpp</text>
</a>
</g>
</g>
<!-- Node7&#45;&gt;Node8 -->
<g id="edge7" class="edge"><title>Node7&#45;&gt;Node8</title>
<path fill="none" stroke="midnightblue" d="M254.5,-45.8045C254.5,-36.9102 254.5,-26.7798 254.5,-19.7511"/>
<polygon fill="midnightblue" stroke="midnightblue" points="251,-46.083 254.5,-56.083 258,-46.083 251,-46.083"/>
</g>
<!-- Node12 -->
<g id="node12" class="node"><title>Node12</title>
<g id="a_node12"><a xlink:href="../../d8/dc4/_sub_systems_8h.html" target="_top" xlink:title=" ">
<polygon fill="white" stroke="black" points="292.5,-336.5 292.5,-355.5 390.5,-355.5 390.5,-336.5 292.5,-336.5"/>
<text text-anchor="middle" x="341.5" y="-343.5" font-family="Helvetica,sans-Serif" font-size="10.00">src/SubSystems.h</text>
</a>
</g>
</g>
<!-- Node11&#45;&gt;Node12 -->
<g id="edge11" class="edge"><title>Node11&#45;&gt;Node12</title>
<path fill="none" stroke="midnightblue" d="M320.676,-383.275C325.974,-374.045 332.217,-363.17 336.476,-355.751"/>
<polygon fill="midnightblue" stroke="midnightblue" points="317.562,-381.668 315.619,-392.083 323.633,-385.153 317.562,-381.668"/>
</g>
<!-- Node13 -->
<g id="node13" class="node"><title>Node13</title>
<g id="a_node13"><a xlink:href="../../dc/d18/_system_base_8h.html" target="_top" xlink:title=" ">
<polygon fill="white" stroke="black" points="307.5,-280.5 307.5,-299.5 405.5,-299.5 405.5,-280.5 307.5,-280.5"/>
<text text-anchor="middle" x="356.5" y="-287.5" font-family="Helvetica,sans-Serif" font-size="10.00">src/SystemBase.h</text>
</a>
</g>
</g>
<!-- Node12&#45;&gt;Node13 -->
<g id="edge12" class="edge"><title>Node12&#45;&gt;Node13</title>
<path fill="none" stroke="midnightblue" d="M346.668,-326.396C349.177,-317.362 352.073,-306.936 354.069,-299.751"/>
<polygon fill="midnightblue" stroke="midnightblue" points="343.281,-325.511 343.977,-336.083 350.026,-327.385 343.281,-325.511"/>
</g>
<!-- Node14 -->
<g id="node14" class="node"><title>Node14</title>
<g id="a_node14"><a xlink:href="../../db/d81/_fixed_updating_system_8h.html" target="_top" xlink:title=" ">
<polygon fill="white" stroke="black" points="158,-224.5 158,-243.5 295,-243.5 295,-224.5 158,-224.5"/>
<text text-anchor="middle" x="226.5" y="-231.5" font-family="Helvetica,sans-Serif" font-size="10.00">src/FixedUpdatingSystem.h</text>
</a>
</g>
</g>
<!-- Node13&#45;&gt;Node14 -->
<g id="edge13" class="edge"><title>Node13&#45;&gt;Node14</title>
<path fill="none" stroke="midnightblue" d="M326.415,-276.503C302.043,-266.38 268.36,-252.388 247.003,-243.516"/>
<polygon fill="midnightblue" stroke="midnightblue" points="325.323,-279.84 335.901,-280.444 328.009,-273.375 325.323,-279.84"/>
</g>
<!-- Node16 -->
<g id="node16" class="node"><title>Node16</title>
<g id="a_node16"><a xlink:href="../../da/d66/_rendering_system_8h.html" target="_top" xlink:title=" ">
<polygon fill="white" stroke="black" points="313,-224.5 313,-243.5 432,-243.5 432,-224.5 313,-224.5"/>
<text text-anchor="middle" x="372.5" y="-231.5" font-family="Helvetica,sans-Serif" font-size="10.00">src/RenderingSystem.h</text>
</a>
</g>
</g>
<!-- Node13&#45;&gt;Node16 -->
<g id="edge16" class="edge"><title>Node13&#45;&gt;Node16</title>
<path fill="none" stroke="midnightblue" d="M362.012,-270.396C364.689,-261.362 367.778,-250.936 369.907,-243.751"/>
<polygon fill="midnightblue" stroke="midnightblue" points="358.627,-269.501 359.142,-280.083 365.339,-271.489 358.627,-269.501"/>
</g>
<!-- Node18 -->
<g id="node18" class="node"><title>Node18</title>
<g id="a_node18"><a xlink:href="../../db/dc0/_updating_system_8h.html" target="_top" xlink:title=" ">
<polygon fill="white" stroke="black" points="450,-224.5 450,-243.5 563,-243.5 563,-224.5 450,-224.5"/>
<text text-anchor="middle" x="506.5" y="-231.5" font-family="Helvetica,sans-Serif" font-size="10.00">src/UpdatingSystem.h</text>
</a>
</g>
</g>
<!-- Node13&#45;&gt;Node18 -->
<g id="edge19" class="edge"><title>Node13&#45;&gt;Node18</title>
<path fill="none" stroke="midnightblue" d="M389.725,-277.039C417.948,-266.879 457.762,-252.546 482.843,-243.516"/>
<polygon fill="midnightblue" stroke="midnightblue" points="388.491,-273.763 380.268,-280.444 390.862,-280.349 388.491,-273.763"/>
</g>
<!-- Node14&#45;&gt;Node4 -->
<g id="edge14" class="edge"><title>Node14&#45;&gt;Node4</title>
<path fill="none" stroke="midnightblue" d="M236.176,-214.983C241.098,-205.817 246.858,-195.092 250.8,-187.751"/>
<polygon fill="midnightblue" stroke="midnightblue" points="232.937,-213.617 231.289,-224.083 239.104,-216.929 232.937,-213.617"/>
</g>
<!-- Node15 -->
<g id="node15" class="node"><title>Node15</title>
<g id="a_node15"><a xlink:href="../../d0/d56/_fixed_updating_system_8cpp.html" target="_top" xlink:title=" ">
<polygon fill="white" stroke="black" points="55.5,-168.5 55.5,-187.5 203.5,-187.5 203.5,-168.5 55.5,-168.5"/>
<text text-anchor="middle" x="129.5" y="-175.5" font-family="Helvetica,sans-Serif" font-size="10.00">src/FixedUpdatingSystem.cpp</text>
</a>
</g>
</g>
<!-- Node14&#45;&gt;Node15 -->
<g id="edge15" class="edge"><title>Node14&#45;&gt;Node15</title>
<path fill="none" stroke="midnightblue" d="M202.165,-219.453C184.257,-209.483 160.446,-196.228 145.046,-187.655"/>
<polygon fill="midnightblue" stroke="midnightblue" points="200.475,-222.518 210.915,-224.324 203.88,-216.402 200.475,-222.518"/>
</g>
<!-- Node16&#45;&gt;Node4 -->
<g id="edge17" class="edge"><title>Node16&#45;&gt;Node4</title>
<path fill="none" stroke="midnightblue" d="M344.836,-220.232C322.951,-210.131 293.003,-196.309 273.952,-187.516"/>
<polygon fill="midnightblue" stroke="midnightblue" points="343.415,-223.431 353.961,-224.444 346.348,-217.075 343.415,-223.431"/>
</g>
<!-- Node17 -->
<g id="node17" class="node"><title>Node17</title>
<g id="a_node17"><a xlink:href="../../d2/db8/_rendering_system_8cpp.html" target="_top" xlink:title=" ">
<polygon fill="white" stroke="black" points="308,-168.5 308,-187.5 437,-187.5 437,-168.5 308,-168.5"/>
<text text-anchor="middle" x="372.5" y="-175.5" font-family="Helvetica,sans-Serif" font-size="10.00">src/RenderingSystem.cpp</text>
</a>
</g>
</g>
<!-- Node16&#45;&gt;Node17 -->
<g id="edge18" class="edge"><title>Node16&#45;&gt;Node17</title>
<path fill="none" stroke="midnightblue" d="M372.5,-213.805C372.5,-204.91 372.5,-194.78 372.5,-187.751"/>
<polygon fill="midnightblue" stroke="midnightblue" points="369,-214.083 372.5,-224.083 376,-214.083 369,-214.083"/>
</g>
<!-- Node18&#45;&gt;Node4 -->
<g id="edge20" class="edge"><title>Node18&#45;&gt;Node4</title>
<path fill="none" stroke="midnightblue" d="M456.899,-222.329C407.521,-211.706 333.039,-195.682 289.842,-186.388"/>
<polygon fill="midnightblue" stroke="midnightblue" points="456.216,-225.762 466.728,-224.444 457.688,-218.918 456.216,-225.762"/>
</g>
<!-- Node19 -->
<g id="node19" class="node"><title>Node19</title>
<g id="a_node19"><a xlink:href="../../d7/d1d/_updating_system_8cpp.html" target="_top" xlink:title=" ">
<polygon fill="white" stroke="black" points="455.5,-168.5 455.5,-187.5 579.5,-187.5 579.5,-168.5 455.5,-168.5"/>
<text text-anchor="middle" x="517.5" y="-175.5" font-family="Helvetica,sans-Serif" font-size="10.00">src/UpdatingSystem.cpp</text>
</a>
</g>
</g>
<!-- Node18&#45;&gt;Node19 -->
<g id="edge21" class="edge"><title>Node18&#45;&gt;Node19</title>
<path fill="none" stroke="midnightblue" d="M510.35,-214.101C512.176,-205.136 514.27,-194.858 515.717,-187.751"/>
<polygon fill="midnightblue" stroke="midnightblue" points="506.883,-213.586 508.316,-224.083 513.742,-214.983 506.883,-213.586"/>
</g>
</g>
</svg>
        <g id="navigator" transform="translate(0 0)" fill="#404254">
                <rect fill="#f2f5e9" fill-opacity="0.5" stroke="#606060" stroke-width=".5" x="0" y="0" width="60" height="60"/>
                <use id="zoomplus" xlink:href="#zoomPlus" x="17" y="9" onmousedown="handleZoom(evt,'in')"/>
                <use id="zoomminus" xlink:href="#zoomMin" x="42" y="9" onmousedown="handleZoom(evt,'out')"/>
                <use id="reset" xlink:href="#resetDef" x="30" y="36" onmousedown="handleReset()"/>
                <g id="arrowUp" xlink:href="#dirArrow" transform="translate(30 24)" onmousedown="handlePan(0,-1)">
                  <use xlink:href="#rim" fill="#404040">
                        <set attributeName="fill" to="#808080" begin="arrowUp.mouseover" end="arrowUp.mouseout"/>
                  </use>
                  <path fill="none" stroke="white" stroke-width="1.5" d="M0,-3.0v7 M-2.5,-0.5L0,-3.0L2.5,-0.5"/>
                </g>
                <g id="arrowRight" xlink:href="#dirArrow" transform="rotate(90) translate(36 -43)" onmousedown="handlePan(1,0)">
                  <use xlink:href="#rim" fill="#404040">
                        <set attributeName="fill" to="#808080" begin="arrowRight.mouseover" end="arrowRight.mouseout"/>
                  </use>
                  <path fill="none" stroke="white" stroke-width="1.5" d="M0,-3.0v7 M-2.5,-0.5L0,-3.0L2.5,-0.5"/>
                </g>
                <g id="arrowDown" xlink:href="#dirArrow" transform="rotate(180) translate(-30 -48)" onmousedown="handlePan(0,1)">
                  <use xlink:href="#rim" fill="#404040">
                        <set attributeName="fill" to="#808080" begin="arrowDown.mouseover" end="arrowDown.mouseout"/>
                  </use>
                  <path fill="none" stroke="white" stroke-width="1.5" d="M0,-3.0v7 M-2.5,-0.5L0,-3.0L2.5,-0.5"/>
                </g>
                <g id="arrowLeft" xlink:href="#dirArrow" transform="rotate(270) translate(-36 17)" onmousedown="handlePan(-1,0)">
                  <use xlink:href="#rim" fill="#404040">
                        <set attributeName="fill" to="#808080" begin="arrowLeft.mouseover" end="arrowLeft.mouseout"/>
                  </use>
                  <path fill="none" stroke="white" stroke-width="1.5" d="M0,-3.0v7 M-2.5,-0.5L0,-3.0L2.5,-0.5"/>
                </g>
        </g>
        <svg viewBox="0 0 15 15" width="100%" height="30px" preserveAspectRatio="xMaxYMin meet">
         <g id="arrow_out" transform="scale(0.3 0.3)">
          <a xlink:href="_cube_8h__dep__incl_org.svg" target="_base">
           <rect id="button" ry="5" rx="5" y="6" x="6" height="38" width="38"
                fill="#f2f5e9" fill-opacity="0.5" stroke="#606060" stroke-width="1.0"/>
           <path id="arrow"
             d="M 11.500037,31.436501 C 11.940474,20.09759 22.043105,11.32322 32.158766,21.979434 L 37.068811,17.246167 C 37.068811,17.246167 37.088388,32 37.088388,32 L 22.160133,31.978069 C 22.160133,31.978069 26.997745,27.140456 26.997745,27.140456 C 18.528582,18.264221 13.291696,25.230495 11.500037,31.436501 z"
             style="fill:#404040;"/>
          </a>
         </g>
        </svg>
</svg>
