<?xml version="1.0" encoding="UTF-8" standalone="no"?>
<!DOCTYPE svg PUBLIC "-//W3C//DTD SVG 1.1//EN"
 "http://www.w3.org/Graphics/SVG/1.1/DTD/svg11.dtd">
<!-- Generated by graphviz version 2.38.0 (20140413.2041)
 -->
<!-- Title: src/PointLightShadowMap.cpp Pages: 1 -->
<svg width="1836pt" height="420pt"
 viewBox="0.00 0.00 1835.50 420.00" xmlns="http://www.w3.org/2000/svg" xmlns:xlink="http://www.w3.org/1999/xlink">
<g id="graph0" class="graph" transform="scale(1 1) rotate(0) translate(4 416)">
<title>src/PointLightShadowMap.cpp</title>
<polygon fill="white" stroke="none" points="-4,4 -4,-416 1831.5,-416 1831.5,4 -4,4"/>
<!-- Node1 -->
<g id="node1" class="node"><title>Node1</title>
<g id="a_node1"><a xlink:title=" ">
<polygon fill="#bfbfbf" stroke="black" points="1417.5,-392.5 1417.5,-411.5 1566.5,-411.5 1566.5,-392.5 1417.5,-392.5"/>
<text text-anchor="middle" x="1492" y="-399.5" font-family="Helvetica,sans-Serif" font-size="10.00">src/PointLightShadowMap.cpp</text>
</a>
</g>
</g>
<!-- Node2 -->
<g id="node2" class="node"><title>Node2</title>
<g id="a_node2"><a xlink:href="../../d4/d43/_point_light_shadow_map_8h.html" target="_top" xlink:title=" ">
<polygon fill="white" stroke="black" points="1431,-336.5 1431,-355.5 1553,-355.5 1553,-336.5 1431,-336.5"/>
<text text-anchor="middle" x="1492" y="-343.5" font-family="Helvetica,sans-Serif" font-size="10.00">PointLightShadowMap.h</text>
</a>
</g>
</g>
<!-- Node1&#45;&gt;Node2 -->
<g id="edge1" class="edge"><title>Node1&#45;&gt;Node2</title>
<path fill="none" stroke="midnightblue" d="M1492,-392.083C1492,-385.006 1492,-374.861 1492,-365.986"/>
<polygon fill="midnightblue" stroke="midnightblue" points="1495.5,-365.751 1492,-355.751 1488.5,-365.751 1495.5,-365.751"/>
</g>
<!-- Node3 -->
<g id="node3" class="node"><title>Node3</title>
<g id="a_node3"><a xlink:href="../../db/dcf/_locator_8h.html" target="_top" xlink:title=" ">
<polygon fill="white" stroke="black" points="827.5,-280.5 827.5,-299.5 884.5,-299.5 884.5,-280.5 827.5,-280.5"/>
<text text-anchor="middle" x="856" y="-287.5" font-family="Helvetica,sans-Serif" font-size="10.00">Locator.h</text>
</a>
</g>
</g>
<!-- Node2&#45;&gt;Node3 -->
<g id="edge2" class="edge"><title>Node2&#45;&gt;Node3</title>
<path fill="none" stroke="midnightblue" d="M1430.79,-340.237C1330.06,-332.332 1123.08,-315.804 948,-300 930.562,-298.426 911.277,-296.559 894.888,-294.934"/>
<polygon fill="midnightblue" stroke="midnightblue" points="894.882,-291.417 884.584,-293.908 894.187,-298.382 894.882,-291.417"/>
</g>
<!-- Node21 -->
<g id="node21" class="node"><title>Node21</title>
<g id="a_node21"><a xlink:title=" ">
<polygon fill="white" stroke="#bfbfbf" points="1265,-56.5 1265,-75.5 1325,-75.5 1325,-56.5 1265,-56.5"/>
<text text-anchor="middle" x="1295" y="-63.5" font-family="Helvetica,sans-Serif" font-size="10.00">GL/glew.h</text>
</a>
</g>
</g>
<!-- Node2&#45;&gt;Node21 -->
<g id="edge58" class="edge"><title>Node2&#45;&gt;Node21</title>
<path fill="none" stroke="midnightblue" d="M1503.54,-336.433C1524.8,-319.571 1568,-279.799 1568,-235 1568,-235 1568,-235 1568,-177 1568,-127.465 1411.41,-89.8671 1335.42,-74.5373"/>
<polygon fill="midnightblue" stroke="midnightblue" points="1335.75,-71.034 1325.26,-72.5231 1334.39,-77.9005 1335.75,-71.034"/>
</g>
<!-- Node25 -->
<g id="node25" class="node"><title>Node25</title>
<g id="a_node25"><a xlink:title=" ">
<polygon fill="white" stroke="#bfbfbf" points="903,-112.5 903,-131.5 945,-131.5 945,-112.5 903,-112.5"/>
<text text-anchor="middle" x="924" y="-119.5" font-family="Helvetica,sans-Serif" font-size="10.00">vector</text>
</a>
</g>
</g>
<!-- Node2&#45;&gt;Node25 -->
<g id="edge62" class="edge"><title>Node2&#45;&gt;Node25</title>
<path fill="none" stroke="midnightblue" d="M1461.24,-336.477C1430.95,-327.905 1383.48,-313.988 1343,-300 1213.58,-255.283 1181.31,-243.184 1056,-188 1018.31,-171.404 975.749,-149.935 949.393,-136.311"/>
<polygon fill="midnightblue" stroke="midnightblue" points="950.943,-133.172 940.455,-131.67 947.717,-139.385 950.943,-133.172"/>
</g>
<!-- Node29 -->
<g id="node29" class="node"><title>Node29</title>
<g id="a_node29"><a xlink:title=" ">
<polygon fill="white" stroke="#bfbfbf" points="1075,-112.5 1075,-131.5 1181,-131.5 1181,-112.5 1075,-112.5"/>
<text text-anchor="middle" x="1128" y="-119.5" font-family="Helvetica,sans-Serif" font-size="10.00">glm/gtc/type_ptr.hpp</text>
</a>
</g>
</g>
<!-- Node2&#45;&gt;Node29 -->
<g id="edge61" class="edge"><title>Node2&#45;&gt;Node29</title>
<path fill="none" stroke="midnightblue" d="M1494.21,-336.483C1501.03,-308.036 1518.6,-215.425 1472,-168 1462.27,-158.093 1287.94,-139.098 1191.28,-129.256"/>
<polygon fill="midnightblue" stroke="midnightblue" points="1191.62,-125.773 1181.32,-128.246 1190.92,-132.737 1191.62,-125.773"/>
</g>
<!-- Node33 -->
<g id="node33" class="node"><title>Node33</title>
<g id="a_node33"><a xlink:href="../../de/dbf/_texture_8h.html" target="_top" xlink:title=" ">
<polygon fill="white" stroke="black" points="1217.5,-224.5 1217.5,-243.5 1274.5,-243.5 1274.5,-224.5 1217.5,-224.5"/>
<text text-anchor="middle" x="1246" y="-231.5" font-family="Helvetica,sans-Serif" font-size="10.00">Texture.h</text>
</a>
</g>
</g>
<!-- Node2&#45;&gt;Node33 -->
<g id="edge57" class="edge"><title>Node2&#45;&gt;Node33</title>
<path fill="none" stroke="midnightblue" d="M1472.7,-336.368C1429.58,-317.091 1325.29,-270.454 1274.6,-247.789"/>
<polygon fill="midnightblue" stroke="midnightblue" points="1275.77,-244.478 1265.21,-243.591 1272.91,-250.869 1275.77,-244.478"/>
</g>
<!-- Node37 -->
<g id="node37" class="node"><title>Node37</title>
<g id="a_node37"><a xlink:title=" ">
<polygon fill="white" stroke="#bfbfbf" points="1596,-280.5 1596,-299.5 1666,-299.5 1666,-280.5 1596,-280.5"/>
<text text-anchor="middle" x="1631" y="-287.5" font-family="Helvetica,sans-Serif" font-size="10.00">glm/glm.hpp</text>
</a>
</g>
</g>
<!-- Node2&#45;&gt;Node37 -->
<g id="edge59" class="edge"><title>Node2&#45;&gt;Node37</title>
<path fill="none" stroke="midnightblue" d="M1514.02,-336.444C1537.1,-327.478 1573.56,-313.314 1599.64,-303.183"/>
<polygon fill="midnightblue" stroke="midnightblue" points="1601.02,-306.4 1609.08,-299.516 1598.49,-299.875 1601.02,-306.4"/>
</g>
<!-- Node38 -->
<g id="node38" class="node"><title>Node38</title>
<g id="a_node38"><a xlink:title=" ">
<polygon fill="white" stroke="#bfbfbf" points="1684.5,-280.5 1684.5,-299.5 1827.5,-299.5 1827.5,-280.5 1684.5,-280.5"/>
<text text-anchor="middle" x="1756" y="-287.5" font-family="Helvetica,sans-Serif" font-size="10.00">glm/gtc/matrix_transform.hpp</text>
</a>
</g>
</g>
<!-- Node2&#45;&gt;Node38 -->
<g id="edge60" class="edge"><title>Node2&#45;&gt;Node38</title>
<path fill="none" stroke="midnightblue" d="M1533.83,-336.444C1580.08,-326.984 1654.61,-311.738 1704.44,-301.547"/>
<polygon fill="midnightblue" stroke="midnightblue" points="1705.27,-304.949 1714.36,-299.516 1703.87,-298.091 1705.27,-304.949"/>
</g>
<!-- Node4 -->
<g id="node4" class="node"><title>Node4</title>
<g id="a_node4"><a xlink:href="../../d2/d94/_input_8h.html" target="_top" xlink:title=" ">
<polygon fill="white" stroke="black" points="543,-224.5 543,-243.5 589,-243.5 589,-224.5 543,-224.5"/>
<text text-anchor="middle" x="566" y="-231.5" font-family="Helvetica,sans-Serif" font-size="10.00">Input.h</text>
</a>
</g>
</g>
<!-- Node3&#45;&gt;Node4 -->
<g id="edge3" class="edge"><title>Node3&#45;&gt;Node4</title>
<path fill="none" stroke="midnightblue" d="M827.4,-283.674C773.322,-273.605 656.373,-251.828 599.041,-241.152"/>
<polygon fill="midnightblue" stroke="midnightblue" points="599.53,-237.683 589.058,-239.294 598.248,-244.565 599.53,-237.683"/>
</g>
<!-- Node13 -->
<g id="node13" class="node"><title>Node13</title>
<g id="a_node13"><a xlink:href="../../d8/d34/_shader_8h.html" target="_top" xlink:title=" ">
<polygon fill="white" stroke="black" points="347,-168.5 347,-187.5 403,-187.5 403,-168.5 347,-168.5"/>
<text text-anchor="middle" x="375" y="-175.5" font-family="Helvetica,sans-Serif" font-size="10.00">Shader.h</text>
</a>
</g>
</g>
<!-- Node3&#45;&gt;Node13 -->
<g id="edge12" class="edge"><title>Node3&#45;&gt;Node13</title>
<path fill="none" stroke="midnightblue" d="M827.092,-287.378C770.129,-283.656 639.727,-272.518 534,-244 485.676,-230.965 432.373,-207.083 401.391,-192.18"/>
<polygon fill="midnightblue" stroke="midnightblue" points="402.674,-188.912 392.151,-187.682 399.61,-195.206 402.674,-188.912"/>
</g>
<!-- Node26 -->
<g id="node26" class="node"><title>Node26</title>
<g id="a_node26"><a xlink:href="../../d5/db0/_sound_8h.html" target="_top" xlink:title=" ">
<polygon fill="white" stroke="black" points="879.5,-224.5 879.5,-243.5 932.5,-243.5 932.5,-224.5 879.5,-224.5"/>
<text text-anchor="middle" x="906" y="-231.5" font-family="Helvetica,sans-Serif" font-size="10.00">Sound.h</text>
</a>
</g>
</g>
<!-- Node3&#45;&gt;Node26 -->
<g id="edge32" class="edge"><title>Node3&#45;&gt;Node26</title>
<path fill="none" stroke="midnightblue" d="M864.256,-280.083C871.465,-272.298 882.11,-260.801 890.846,-251.367"/>
<polygon fill="midnightblue" stroke="midnightblue" points="893.671,-253.467 897.897,-243.751 888.535,-248.711 893.671,-253.467"/>
</g>
<!-- Node3&#45;&gt;Node33 -->
<g id="edge48" class="edge"><title>Node3&#45;&gt;Node33</title>
<path fill="none" stroke="midnightblue" d="M884.678,-285.029C953.702,-275.472 1129.14,-251.18 1207.35,-240.351"/>
<polygon fill="midnightblue" stroke="midnightblue" points="1207.85,-243.815 1217.28,-238.977 1206.89,-236.881 1207.85,-243.815"/>
</g>
<!-- Node5 -->
<g id="node5" class="node"><title>Node5</title>
<g id="a_node5"><a xlink:href="../../de/d50/_game_info_8h.html" target="_top" xlink:title=" ">
<polygon fill="white" stroke="black" points="475,-112.5 475,-131.5 541,-131.5 541,-112.5 475,-112.5"/>
<text text-anchor="middle" x="508" y="-119.5" font-family="Helvetica,sans-Serif" font-size="10.00">GameInfo.h</text>
</a>
</g>
</g>
<!-- Node4&#45;&gt;Node5 -->
<g id="edge4" class="edge"><title>Node4&#45;&gt;Node5</title>
<path fill="none" stroke="midnightblue" d="M542.546,-231.435C515.092,-228.202 470.746,-218.3 450,-188 436.9,-168.868 460.293,-149.339 481.167,-136.75"/>
<polygon fill="midnightblue" stroke="midnightblue" points="483.183,-139.63 490.142,-131.641 479.72,-133.546 483.183,-139.63"/>
</g>
<!-- Node10 -->
<g id="node10" class="node"><title>Node10</title>
<g id="a_node10"><a xlink:href="../../d9/db9/_unique_vectors_8h.html" target="_top" xlink:title=" ">
<polygon fill="white" stroke="black" points="521.5,-168.5 521.5,-187.5 610.5,-187.5 610.5,-168.5 521.5,-168.5"/>
<text text-anchor="middle" x="566" y="-175.5" font-family="Helvetica,sans-Serif" font-size="10.00">UniqueVectors.h</text>
</a>
</g>
</g>
<!-- Node4&#45;&gt;Node10 -->
<g id="edge9" class="edge"><title>Node4&#45;&gt;Node10</title>
<path fill="none" stroke="midnightblue" d="M566,-224.083C566,-217.006 566,-206.861 566,-197.986"/>
<polygon fill="midnightblue" stroke="midnightblue" points="569.5,-197.751 566,-187.751 562.5,-197.751 569.5,-197.751"/>
</g>
<!-- Node11 -->
<g id="node11" class="node"><title>Node11</title>
<g id="a_node11"><a xlink:title=" ">
<polygon fill="white" stroke="#bfbfbf" points="629,-168.5 629,-187.5 703,-187.5 703,-168.5 629,-168.5"/>
<text text-anchor="middle" x="666" y="-175.5" font-family="Helvetica,sans-Serif" font-size="10.00">glm/vec2.hpp</text>
</a>
</g>
</g>
<!-- Node4&#45;&gt;Node11 -->
<g id="edge10" class="edge"><title>Node4&#45;&gt;Node11</title>
<path fill="none" stroke="midnightblue" d="M582.067,-224.324C597.958,-215.743 622.507,-202.486 640.958,-192.522"/>
<polygon fill="midnightblue" stroke="midnightblue" points="642.837,-195.486 649.973,-187.655 639.511,-189.326 642.837,-195.486"/>
</g>
<!-- Node12 -->
<g id="node12" class="node"><title>Node12</title>
<g id="a_node12"><a xlink:title=" ">
<polygon fill="white" stroke="#bfbfbf" points="459,-168.5 459,-187.5 503,-187.5 503,-168.5 459,-168.5"/>
<text text-anchor="middle" x="481" y="-175.5" font-family="Helvetica,sans-Serif" font-size="10.00">SDL.h</text>
</a>
</g>
</g>
<!-- Node4&#45;&gt;Node12 -->
<g id="edge11" class="edge"><title>Node4&#45;&gt;Node12</title>
<path fill="none" stroke="midnightblue" d="M552.343,-224.324C539.084,-215.9 518.732,-202.971 503.154,-193.074"/>
<polygon fill="midnightblue" stroke="midnightblue" points="504.94,-190.063 494.623,-187.655 501.187,-195.971 504.94,-190.063"/>
</g>
<!-- Node6 -->
<g id="node6" class="node"><title>Node6</title>
<g id="a_node6"><a xlink:title=" ">
<polygon fill="white" stroke="#bfbfbf" points="885.5,-56.5 885.5,-75.5 1012.5,-75.5 1012.5,-56.5 885.5,-56.5"/>
<text text-anchor="middle" x="949" y="-63.5" font-family="Helvetica,sans-Serif" font-size="10.00">LinearMath/btTransform.h</text>
</a>
</g>
</g>
<!-- Node5&#45;&gt;Node6 -->
<g id="edge5" class="edge"><title>Node5&#45;&gt;Node6</title>
<path fill="none" stroke="midnightblue" d="M541.414,-113.529C544.311,-112.975 547.203,-112.456 550,-112 662.824,-93.5957 794.826,-80.305 875.142,-73.1285"/>
<polygon fill="midnightblue" stroke="midnightblue" points="875.506,-76.6101 885.158,-72.2413 874.888,-69.6374 875.506,-76.6101"/>
</g>
<!-- Node7 -->
<g id="node7" class="node"><title>Node7</title>
<g id="a_node7"><a xlink:title=" ">
<polygon fill="white" stroke="#bfbfbf" points="302,-56.5 302,-75.5 376,-75.5 376,-56.5 302,-56.5"/>
<text text-anchor="middle" x="339" y="-63.5" font-family="Helvetica,sans-Serif" font-size="10.00">glm/vec3.hpp</text>
</a>
</g>
</g>
<!-- Node5&#45;&gt;Node7 -->
<g id="edge6" class="edge"><title>Node5&#45;&gt;Node7</title>
<path fill="none" stroke="midnightblue" d="M481.221,-112.444C452.667,-103.32 407.267,-88.8133 375.463,-78.6509"/>
<polygon fill="midnightblue" stroke="midnightblue" points="376.244,-75.2262 365.653,-75.5164 374.114,-81.8941 376.244,-75.2262"/>
</g>
<!-- Node8 -->
<g id="node8" class="node"><title>Node8</title>
<g id="a_node8"><a xlink:title=" ">
<polygon fill="white" stroke="#bfbfbf" points="471,-56.5 471,-75.5 545,-75.5 545,-56.5 471,-56.5"/>
<text text-anchor="middle" x="508" y="-63.5" font-family="Helvetica,sans-Serif" font-size="10.00">glm/vec4.hpp</text>
</a>
</g>
</g>
<!-- Node5&#45;&gt;Node8 -->
<g id="edge7" class="edge"><title>Node5&#45;&gt;Node8</title>
<path fill="none" stroke="midnightblue" d="M508,-112.083C508,-105.006 508,-94.8611 508,-85.9865"/>
<polygon fill="midnightblue" stroke="midnightblue" points="511.5,-85.751 508,-75.7511 504.5,-85.7511 511.5,-85.751"/>
</g>
<!-- Node9 -->
<g id="node9" class="node"><title>Node9</title>
<g id="a_node9"><a xlink:title=" ">
<polygon fill="white" stroke="#bfbfbf" points="566.5,-56.5 566.5,-75.5 607.5,-75.5 607.5,-56.5 566.5,-56.5"/>
<text text-anchor="middle" x="587" y="-63.5" font-family="Helvetica,sans-Serif" font-size="10.00">string</text>
</a>
</g>
</g>
<!-- Node5&#45;&gt;Node9 -->
<g id="edge8" class="edge"><title>Node5&#45;&gt;Node9</title>
<path fill="none" stroke="midnightblue" d="M520.693,-112.324C532.901,-103.979 551.578,-91.2122 566.003,-81.3524"/>
<polygon fill="midnightblue" stroke="midnightblue" points="568.058,-84.1871 574.339,-75.6545 564.108,-78.4082 568.058,-84.1871"/>
</g>
<!-- Node13&#45;&gt;Node7 -->
<g id="edge28" class="edge"><title>Node13&#45;&gt;Node7</title>
<path fill="none" stroke="midnightblue" d="M371.543,-168.444C367.959,-159.443 362.292,-144.831 358,-132 352.814,-116.495 347.655,-98.6547 344.025,-85.5916"/>
<polygon fill="midnightblue" stroke="midnightblue" points="347.387,-84.6172 341.368,-75.8983 340.636,-86.4678 347.387,-84.6172"/>
</g>
<!-- Node13&#45;&gt;Node9 -->
<g id="edge30" class="edge"><title>Node13&#45;&gt;Node9</title>
<path fill="none" stroke="midnightblue" d="M385.058,-168.443C401.242,-155.003 434.449,-128.754 466,-112 495.402,-96.3869 531.42,-83.7425 556.478,-75.8779"/>
<polygon fill="midnightblue" stroke="midnightblue" points="557.633,-79.1848 566.165,-72.9042 555.578,-72.493 557.633,-79.1848"/>
</g>
<!-- Node14 -->
<g id="node14" class="node"><title>Node14</title>
<g id="a_node14"><a xlink:href="../../dc/d20/_component_8h.html" target="_top" xlink:title=" ">
<polygon fill="white" stroke="black" points="0,-56.5 0,-75.5 74,-75.5 74,-56.5 0,-56.5"/>
<text text-anchor="middle" x="37" y="-63.5" font-family="Helvetica,sans-Serif" font-size="10.00">Component.h</text>
</a>
</g>
</g>
<!-- Node13&#45;&gt;Node14 -->
<g id="edge13" class="edge"><title>Node13&#45;&gt;Node14</title>
<path fill="none" stroke="midnightblue" d="M346.811,-175.457C267.712,-170.843 48.0651,-155.964 27,-132 15.8391,-119.303 20.9336,-99.5499 27.2136,-85.15"/>
<polygon fill="midnightblue" stroke="midnightblue" points="30.5418,-86.3104 31.7805,-75.7883 24.2504,-83.2413 30.5418,-86.3104"/>
</g>
<!-- Node16 -->
<g id="node16" class="node"><title>Node16</title>
<g id="a_node16"><a xlink:href="../../d0/d4b/_debug_8h.html" target="_top" xlink:title=" ">
<polygon fill="white" stroke="black" points="677.5,-112.5 677.5,-131.5 730.5,-131.5 730.5,-112.5 677.5,-112.5"/>
<text text-anchor="middle" x="704" y="-119.5" font-family="Helvetica,sans-Serif" font-size="10.00">Debug.h</text>
</a>
</g>
</g>
<!-- Node13&#45;&gt;Node16 -->
<g id="edge15" class="edge"><title>Node13&#45;&gt;Node16</title>
<path fill="none" stroke="midnightblue" d="M403.305,-173.163C455.035,-166.019 568.249,-149.785 663,-132 664.289,-131.758 665.6,-131.506 666.923,-131.245"/>
<polygon fill="midnightblue" stroke="midnightblue" points="668.053,-134.586 677.142,-129.142 666.641,-127.73 668.053,-134.586"/>
</g>
<!-- Node17 -->
<g id="node17" class="node"><title>Node17</title>
<g id="a_node17"><a xlink:href="../../d5/d31/_lights_8h.html" target="_top" xlink:title=" ">
<polygon fill="white" stroke="black" points="259.5,-112.5 259.5,-131.5 310.5,-131.5 310.5,-112.5 259.5,-112.5"/>
<text text-anchor="middle" x="285" y="-119.5" font-family="Helvetica,sans-Serif" font-size="10.00">Lights.h</text>
</a>
</g>
</g>
<!-- Node13&#45;&gt;Node17 -->
<g id="edge16" class="edge"><title>Node13&#45;&gt;Node17</title>
<path fill="none" stroke="midnightblue" d="M360.54,-168.324C346.5,-159.9 324.952,-146.971 308.457,-137.074"/>
<polygon fill="midnightblue" stroke="midnightblue" points="309.8,-133.798 299.424,-131.655 306.198,-139.801 309.8,-133.798"/>
</g>
<!-- Node18 -->
<g id="node18" class="node"><title>Node18</title>
<g id="a_node18"><a xlink:href="../../d3/d09/_material_8h.html" target="_top" xlink:title=" ">
<polygon fill="white" stroke="black" points="36.5,-112.5 36.5,-131.5 95.5,-131.5 95.5,-112.5 36.5,-112.5"/>
<text text-anchor="middle" x="66" y="-119.5" font-family="Helvetica,sans-Serif" font-size="10.00">Material.h</text>
</a>
</g>
</g>
<!-- Node13&#45;&gt;Node18 -->
<g id="edge18" class="edge"><title>Node13&#45;&gt;Node18</title>
<path fill="none" stroke="midnightblue" d="M346.796,-172.963C299.096,-165.996 199.266,-150.818 105.733,-132.251"/>
<polygon fill="midnightblue" stroke="midnightblue" points="106.321,-128.799 95.8286,-130.267 104.946,-135.663 106.321,-128.799"/>
</g>
<!-- Node19 -->
<g id="node19" class="node"><title>Node19</title>
<g id="a_node19"><a xlink:href="../../d4/d4a/_settings_8h.html" target="_top" xlink:title=" ">
<polygon fill="white" stroke="black" points="113.5,-112.5 113.5,-131.5 174.5,-131.5 174.5,-112.5 113.5,-112.5"/>
<text text-anchor="middle" x="144" y="-119.5" font-family="Helvetica,sans-Serif" font-size="10.00">Settings.h</text>
</a>
</g>
</g>
<!-- Node13&#45;&gt;Node19 -->
<g id="edge21" class="edge"><title>Node13&#45;&gt;Node19</title>
<path fill="none" stroke="midnightblue" d="M346.675,-170.379C306.044,-160.88 231.003,-143.338 184.512,-132.47"/>
<polygon fill="midnightblue" stroke="midnightblue" points="185.299,-129.06 174.765,-130.192 183.705,-135.876 185.299,-129.06"/>
</g>
<!-- Node20 -->
<g id="node20" class="node"><title>Node20</title>
<g id="a_node20"><a xlink:href="../../d2/d06/_shaders_8h.html" target="_top" xlink:title=" ">
<polygon fill="white" stroke="black" points="559.5,-112.5 559.5,-131.5 620.5,-131.5 620.5,-112.5 559.5,-112.5"/>
<text text-anchor="middle" x="590" y="-119.5" font-family="Helvetica,sans-Serif" font-size="10.00">Shaders.h</text>
</a>
</g>
</g>
<!-- Node13&#45;&gt;Node20 -->
<g id="edge22" class="edge"><title>Node13&#45;&gt;Node20</title>
<path fill="none" stroke="midnightblue" d="M403.107,-169.94C440.516,-160.545 506.906,-143.87 549.657,-133.133"/>
<polygon fill="midnightblue" stroke="midnightblue" points="550.61,-136.502 559.456,-130.671 548.905,-129.713 550.61,-136.502"/>
</g>
<!-- Node13&#45;&gt;Node21 -->
<g id="edge25" class="edge"><title>Node13&#45;&gt;Node21</title>
<path fill="none" stroke="midnightblue" d="M403.027,-173.111C459.964,-165.036 587.298,-146.033 629,-132 647.462,-125.787 649.24,-117.247 668,-112 724.224,-96.2729 1124.53,-75.3966 1254.42,-68.9676"/>
<polygon fill="midnightblue" stroke="midnightblue" points="1254.9,-72.4481 1264.72,-68.4601 1254.56,-65.4566 1254.9,-72.4481"/>
</g>
<!-- Node22 -->
<g id="node22" class="node"><title>Node22</title>
<g id="a_node22"><a xlink:title=" ">
<polygon fill="white" stroke="#bfbfbf" points="963,-112.5 963,-131.5 1019,-131.5 1019,-112.5 963,-112.5"/>
<text text-anchor="middle" x="991" y="-119.5" font-family="Helvetica,sans-Serif" font-size="10.00">algorithm</text>
</a>
</g>
</g>
<!-- Node13&#45;&gt;Node22 -->
<g id="edge26" class="edge"><title>Node13&#45;&gt;Node22</title>
<path fill="none" stroke="midnightblue" d="M403.101,-173.303C417.167,-171.535 434.465,-169.486 450,-168 670.276,-146.929 730.369,-166.082 952.788,-131.929"/>
<polygon fill="midnightblue" stroke="midnightblue" points="953.472,-135.365 962.816,-130.37 952.397,-128.448 953.472,-135.365"/>
</g>
<!-- Node23 -->
<g id="node23" class="node"><title>Node23</title>
<g id="a_node23"><a xlink:title=" ">
<polygon fill="white" stroke="#bfbfbf" points="192.5,-112.5 192.5,-131.5 241.5,-131.5 241.5,-112.5 192.5,-112.5"/>
<text text-anchor="middle" x="217" y="-119.5" font-family="Helvetica,sans-Serif" font-size="10.00">fstream</text>
</a>
</g>
</g>
<!-- Node13&#45;&gt;Node23 -->
<g id="edge27" class="edge"><title>Node13&#45;&gt;Node23</title>
<path fill="none" stroke="midnightblue" d="M349.964,-168.444C323.306,-159.332 280.943,-144.854 251.215,-134.694"/>
<polygon fill="midnightblue" stroke="midnightblue" points="252.253,-131.35 241.658,-131.428 249.989,-137.974 252.253,-131.35"/>
</g>
<!-- Node24 -->
<g id="node24" class="node"><title>Node24</title>
<g id="a_node24"><a xlink:title=" ">
<polygon fill="white" stroke="#bfbfbf" points="367,-112.5 367,-131.5 419,-131.5 419,-112.5 367,-112.5"/>
<text text-anchor="middle" x="393" y="-119.5" font-family="Helvetica,sans-Serif" font-size="10.00">sstream</text>
</a>
</g>
</g>
<!-- Node13&#45;&gt;Node24 -->
<g id="edge29" class="edge"><title>Node13&#45;&gt;Node24</title>
<path fill="none" stroke="midnightblue" d="M377.972,-168.083C380.384,-160.849 383.864,-150.409 386.868,-141.397"/>
<polygon fill="midnightblue" stroke="midnightblue" points="390.241,-142.345 390.083,-131.751 383.6,-140.131 390.241,-142.345"/>
</g>
<!-- Node13&#45;&gt;Node25 -->
<g id="edge31" class="edge"><title>Node13&#45;&gt;Node25</title>
<path fill="none" stroke="midnightblue" d="M403.107,-173.367C417.174,-171.615 434.472,-169.561 450,-168 643.718,-148.531 697.659,-167.98 892.825,-131.831"/>
<polygon fill="midnightblue" stroke="midnightblue" points="893.649,-135.238 902.831,-129.952 892.357,-128.358 893.649,-135.238"/>
</g>
<!-- Node15 -->
<g id="node15" class="node"><title>Node15</title>
<g id="a_node15"><a xlink:title=" ">
<polygon fill="white" stroke="#bfbfbf" points="12.5,-0.5 12.5,-19.5 61.5,-19.5 61.5,-0.5 12.5,-0.5"/>
<text text-anchor="middle" x="37" y="-7.5" font-family="Helvetica,sans-Serif" font-size="10.00">stdint.h</text>
</a>
</g>
</g>
<!-- Node14&#45;&gt;Node15 -->
<g id="edge14" class="edge"><title>Node14&#45;&gt;Node15</title>
<path fill="none" stroke="midnightblue" d="M37,-56.083C37,-49.0059 37,-38.8611 37,-29.9865"/>
<polygon fill="midnightblue" stroke="midnightblue" points="40.5001,-29.751 37,-19.7511 33.5001,-29.7511 40.5001,-29.751"/>
</g>
<!-- Node17&#45;&gt;Node7 -->
<g id="edge17" class="edge"><title>Node17&#45;&gt;Node7</title>
<path fill="none" stroke="midnightblue" d="M293.917,-112.083C301.78,-104.22 313.431,-92.5688 322.919,-83.0813"/>
<polygon fill="midnightblue" stroke="midnightblue" points="325.653,-85.2971 330.249,-75.7511 320.703,-80.3473 325.653,-85.2971"/>
</g>
<!-- Node18&#45;&gt;Node7 -->
<g id="edge20" class="edge"><title>Node18&#45;&gt;Node7</title>
<path fill="none" stroke="midnightblue" d="M95.8431,-113.803C98.5973,-113.178 101.348,-112.568 104,-112 168.901,-98.1073 244.329,-84.0272 291.863,-75.4053"/>
<polygon fill="midnightblue" stroke="midnightblue" points="292.643,-78.8211 301.861,-73.5978 291.398,-71.9328 292.643,-78.8211"/>
</g>
<!-- Node18&#45;&gt;Node14 -->
<g id="edge19" class="edge"><title>Node18&#45;&gt;Node14</title>
<path fill="none" stroke="midnightblue" d="M61.2112,-112.083C57.2416,-104.691 51.4749,-93.9533 46.5652,-84.8111"/>
<polygon fill="midnightblue" stroke="midnightblue" points="49.5145,-82.9051 41.6997,-75.7511 43.3475,-86.217 49.5145,-82.9051"/>
</g>
<!-- Node20&#45;&gt;Node9 -->
<g id="edge24" class="edge"><title>Node20&#45;&gt;Node9</title>
<path fill="none" stroke="midnightblue" d="M589.505,-112.083C589.111,-105.006 588.548,-94.8611 588.055,-85.9865"/>
<polygon fill="midnightblue" stroke="midnightblue" points="591.536,-85.5415 587.486,-75.7511 584.546,-85.9299 591.536,-85.5415"/>
</g>
<!-- Node20&#45;&gt;Node21 -->
<g id="edge23" class="edge"><title>Node20&#45;&gt;Node21</title>
<path fill="none" stroke="midnightblue" d="M620.897,-114.274C625.605,-113.408 630.42,-112.612 635,-112 868.365,-80.8409 1151.2,-70.7289 1254.63,-67.9365"/>
<polygon fill="midnightblue" stroke="midnightblue" points="1255.03,-71.4275 1264.93,-67.6669 1254.84,-64.4299 1255.03,-71.4275"/>
</g>
<!-- Node26&#45;&gt;Node22 -->
<g id="edge46" class="edge"><title>Node26&#45;&gt;Node22</title>
<path fill="none" stroke="midnightblue" d="M912.67,-224.368C926.759,-206.135 959.762,-163.426 978.115,-139.675"/>
<polygon fill="midnightblue" stroke="midnightblue" points="981.016,-141.644 984.361,-131.591 975.477,-137.364 981.016,-141.644"/>
</g>
<!-- Node26&#45;&gt;Node25 -->
<g id="edge47" class="edge"><title>Node26&#45;&gt;Node25</title>
<path fill="none" stroke="midnightblue" d="M907.412,-224.368C910.317,-206.617 917.018,-165.666 920.957,-141.597"/>
<polygon fill="midnightblue" stroke="midnightblue" points="924.433,-142.025 922.594,-131.591 917.525,-140.895 924.433,-142.025"/>
</g>
<!-- Node27 -->
<g id="node27" class="node"><title>Node27</title>
<g id="a_node27"><a xlink:href="../../d3/da2/_debug_drawer_8h.html" target="_top" xlink:title=" ">
<polygon fill="white" stroke="black" points="721.5,-168.5 721.5,-187.5 804.5,-187.5 804.5,-168.5 721.5,-168.5"/>
<text text-anchor="middle" x="763" y="-175.5" font-family="Helvetica,sans-Serif" font-size="10.00">DebugDrawer.h</text>
</a>
</g>
</g>
<!-- Node26&#45;&gt;Node27 -->
<g id="edge33" class="edge"><title>Node26&#45;&gt;Node27</title>
<path fill="none" stroke="midnightblue" d="M883.341,-224.444C859.598,-215.478 822.091,-201.314 795.262,-191.183"/>
<polygon fill="midnightblue" stroke="midnightblue" points="796.144,-187.775 785.553,-187.516 793.671,-194.324 796.144,-187.775"/>
</g>
<!-- Node30 -->
<g id="node30" class="node"><title>Node30</title>
<g id="a_node30"><a xlink:href="../../d7/d26/_helping_hand_8h.html" target="_top" xlink:title=" ">
<polygon fill="white" stroke="black" points="1104,-168.5 1104,-187.5 1184,-187.5 1184,-168.5 1104,-168.5"/>
<text text-anchor="middle" x="1144" y="-175.5" font-family="Helvetica,sans-Serif" font-size="10.00">HelpingHand.h</text>
</a>
</g>
</g>
<!-- Node26&#45;&gt;Node30 -->
<g id="edge39" class="edge"><title>Node26&#45;&gt;Node30</title>
<path fill="none" stroke="midnightblue" d="M932.839,-226.91C972.532,-217.905 1047.47,-200.901 1096.56,-189.763"/>
<polygon fill="midnightblue" stroke="midnightblue" points="1097.34,-193.175 1106.32,-187.549 1095.8,-186.348 1097.34,-193.175"/>
</g>
<!-- Node32 -->
<g id="node32" class="node"><title>Node32</title>
<g id="a_node32"><a xlink:title=" ">
<polygon fill="white" stroke="#bfbfbf" points="822.5,-168.5 822.5,-187.5 895.5,-187.5 895.5,-168.5 822.5,-168.5"/>
<text text-anchor="middle" x="859" y="-175.5" font-family="Helvetica,sans-Serif" font-size="10.00">SDL_mixer.h</text>
</a>
</g>
</g>
<!-- Node26&#45;&gt;Node32 -->
<g id="edge45" class="edge"><title>Node26&#45;&gt;Node32</title>
<path fill="none" stroke="midnightblue" d="M898.239,-224.083C891.463,-216.298 881.457,-204.801 873.245,-195.367"/>
<polygon fill="midnightblue" stroke="midnightblue" points="875.822,-192.996 866.617,-187.751 870.542,-197.592 875.822,-192.996"/>
</g>
<!-- Node27&#45;&gt;Node3 -->
<g id="edge35" class="edge"><title>Node27&#45;&gt;Node3</title>
<path fill="none" stroke="midnightblue" d="M770.264,-187.591C785.717,-205.869 822.073,-248.871 842.122,-272.586"/>
<polygon fill="midnightblue" stroke="midnightblue" points="839.573,-274.992 848.702,-280.368 844.919,-270.472 839.573,-274.992"/>
</g>
<!-- Node27&#45;&gt;Node5 -->
<g id="edge34" class="edge"><title>Node27&#45;&gt;Node5</title>
<path fill="none" stroke="midnightblue" d="M722.555,-168.492C681.797,-159.909 616.809,-146.203 551.13,-132.236"/>
<polygon fill="midnightblue" stroke="midnightblue" points="551.523,-128.741 541.013,-130.084 550.066,-135.588 551.523,-128.741"/>
</g>
<!-- Node27&#45;&gt;Node25 -->
<g id="edge38" class="edge"><title>Node27&#45;&gt;Node25</title>
<path fill="none" stroke="midnightblue" d="M788.511,-168.444C816.871,-158.932 862.672,-143.57 893.056,-133.379"/>
<polygon fill="midnightblue" stroke="midnightblue" points="894.354,-136.635 902.722,-130.137 892.128,-129.999 894.354,-136.635"/>
</g>
<!-- Node28 -->
<g id="node28" class="node"><title>Node28</title>
<g id="a_node28"><a xlink:title=" ">
<polygon fill="white" stroke="#bfbfbf" points="749,-112.5 749,-131.5 885,-131.5 885,-112.5 749,-112.5"/>
<text text-anchor="middle" x="817" y="-119.5" font-family="Helvetica,sans-Serif" font-size="10.00">LinearMath/btIDebugDraw.h</text>
</a>
</g>
</g>
<!-- Node27&#45;&gt;Node28 -->
<g id="edge36" class="edge"><title>Node27&#45;&gt;Node28</title>
<path fill="none" stroke="midnightblue" d="M771.917,-168.083C779.78,-160.22 791.431,-148.569 800.919,-139.081"/>
<polygon fill="midnightblue" stroke="midnightblue" points="803.653,-141.297 808.249,-131.751 798.703,-136.347 803.653,-141.297"/>
</g>
<!-- Node27&#45;&gt;Node29 -->
<g id="edge37" class="edge"><title>Node27&#45;&gt;Node29</title>
<path fill="none" stroke="midnightblue" d="M804.723,-169.373C807.522,-168.898 810.301,-168.436 813,-168 900.049,-153.953 1001,-139.929 1064.68,-131.36"/>
<polygon fill="midnightblue" stroke="midnightblue" points="1065.52,-134.779 1074.96,-129.98 1064.59,-127.841 1065.52,-134.779"/>
</g>
<!-- Node30&#45;&gt;Node6 -->
<g id="edge40" class="edge"><title>Node30&#45;&gt;Node6</title>
<path fill="none" stroke="midnightblue" d="M1157.65,-168.488C1176.37,-155.772 1205.99,-131.249 1190,-112 1169.01,-86.7219 1085.66,-75.5663 1022.82,-70.6931"/>
<polygon fill="midnightblue" stroke="midnightblue" points="1022.76,-67.1792 1012.53,-69.9362 1022.25,-74.1604 1022.76,-67.1792"/>
</g>
<!-- Node30&#45;&gt;Node7 -->
<g id="edge43" class="edge"><title>Node30&#45;&gt;Node7</title>
<path fill="none" stroke="midnightblue" d="M1129.22,-168.49C1099.21,-151.234 1033.45,-113.61 1028,-112 907.128,-76.3071 587.738,-84.5987 462,-76 436.992,-74.2898 409.134,-72.2616 386.262,-70.5639"/>
<polygon fill="midnightblue" stroke="midnightblue" points="386.365,-67.062 376.133,-69.8095 385.845,-74.0427 386.365,-67.062"/>
</g>
<!-- Node30&#45;&gt;Node22 -->
<g id="edge41" class="edge"><title>Node30&#45;&gt;Node22</title>
<path fill="none" stroke="midnightblue" d="M1119.76,-168.444C1094.13,-159.399 1053.51,-145.064 1024.76,-134.916"/>
<polygon fill="midnightblue" stroke="midnightblue" points="1025.72,-131.544 1015.13,-131.516 1023.39,-138.145 1025.72,-131.544"/>
</g>
<!-- Node30&#45;&gt;Node25 -->
<g id="edge44" class="edge"><title>Node30&#45;&gt;Node25</title>
<path fill="none" stroke="midnightblue" d="M1104.9,-168.446C1068.47,-160.321 1012.44,-147.425 955.204,-132.21"/>
<polygon fill="midnightblue" stroke="midnightblue" points="955.826,-128.754 945.261,-129.547 954.015,-135.515 955.826,-128.754"/>
</g>
<!-- Node31 -->
<g id="node31" class="node"><title>Node31</title>
<g id="a_node31"><a xlink:title=" ">
<polygon fill="white" stroke="#bfbfbf" points="1237,-112.5 1237,-131.5 1353,-131.5 1353,-112.5 1237,-112.5"/>
<text text-anchor="middle" x="1295" y="-119.5" font-family="Helvetica,sans-Serif" font-size="10.00">glm/gtc/quaternion.hpp</text>
</a>
</g>
</g>
<!-- Node30&#45;&gt;Node31 -->
<g id="edge42" class="edge"><title>Node30&#45;&gt;Node31</title>
<path fill="none" stroke="midnightblue" d="M1167.93,-168.444C1193.22,-159.399 1233.3,-145.064 1261.68,-134.916"/>
<polygon fill="midnightblue" stroke="midnightblue" points="1262.95,-138.179 1271.19,-131.516 1260.59,-131.588 1262.95,-138.179"/>
</g>
<!-- Node33&#45;&gt;Node9 -->
<g id="edge54" class="edge"><title>Node33&#45;&gt;Node9</title>
<path fill="none" stroke="midnightblue" d="M1240.04,-224.489C1231.48,-211.112 1218.08,-184.947 1231,-168 1269.39,-117.643 1405.46,-158.053 1362,-112 1349,-98.2221 760.75,-73.9236 617.976,-68.2217"/>
<polygon fill="midnightblue" stroke="midnightblue" points="617.873,-64.7149 607.742,-67.8144 617.595,-71.7094 617.873,-64.7149"/>
</g>
<!-- Node33&#45;&gt;Node16 -->
<g id="edge55" class="edge"><title>Node33&#45;&gt;Node16</title>
<path fill="none" stroke="midnightblue" d="M1217.37,-227.783C1141.41,-213.839 928.371,-174.039 740.479,-132.021"/>
<polygon fill="midnightblue" stroke="midnightblue" points="741.226,-128.601 730.702,-129.827 739.694,-135.431 741.226,-128.601"/>
</g>
<!-- Node33&#45;&gt;Node21 -->
<g id="edge49" class="edge"><title>Node33&#45;&gt;Node21</title>
<path fill="none" stroke="midnightblue" d="M1274.59,-231.664C1329.69,-228.427 1447.32,-218.077 1472,-188 1516.38,-133.916 1400.19,-94.0268 1335.28,-76.6405"/>
<polygon fill="midnightblue" stroke="midnightblue" points="1335.9,-73.1839 1325.34,-74.0446 1334.13,-79.9569 1335.9,-73.1839"/>
</g>
<!-- Node33&#45;&gt;Node22 -->
<g id="edge52" class="edge"><title>Node33&#45;&gt;Node22</title>
<path fill="none" stroke="midnightblue" d="M1217.35,-226.895C1186.36,-219.737 1135.89,-206.461 1095,-188 1063.9,-173.956 1030.97,-152.018 1010.7,-137.576"/>
<polygon fill="midnightblue" stroke="midnightblue" points="1012.73,-134.727 1002.58,-131.707 1008.63,-140.401 1012.73,-134.727"/>
</g>
<!-- Node33&#45;&gt;Node30 -->
<g id="edge56" class="edge"><title>Node33&#45;&gt;Node30</title>
<path fill="none" stroke="midnightblue" d="M1229.61,-224.324C1213.33,-215.703 1188.13,-202.364 1169.28,-192.386"/>
<polygon fill="midnightblue" stroke="midnightblue" points="1170.82,-189.24 1160.35,-187.655 1167.55,-195.427 1170.82,-189.24"/>
</g>
<!-- Node34 -->
<g id="node34" class="node"><title>Node34</title>
<g id="a_node34"><a xlink:title=" ">
<polygon fill="white" stroke="#bfbfbf" points="1388.5,-168.5 1388.5,-187.5 1463.5,-187.5 1463.5,-168.5 1388.5,-168.5"/>
<text text-anchor="middle" x="1426" y="-175.5" font-family="Helvetica,sans-Serif" font-size="10.00">SDL_image.h</text>
</a>
</g>
</g>
<!-- Node33&#45;&gt;Node34 -->
<g id="edge50" class="edge"><title>Node33&#45;&gt;Node34</title>
<path fill="none" stroke="midnightblue" d="M1274.52,-224.444C1305.07,-215.28 1353.71,-200.688 1387.6,-190.519"/>
<polygon fill="midnightblue" stroke="midnightblue" points="1389.04,-193.742 1397.61,-187.516 1387.03,-187.038 1389.04,-193.742"/>
</g>
<!-- Node35 -->
<g id="node35" class="node"><title>Node35</title>
<g id="a_node35"><a xlink:title=" ">
<polygon fill="white" stroke="#bfbfbf" points="1240.5,-168.5 1240.5,-187.5 1317.5,-187.5 1317.5,-168.5 1240.5,-168.5"/>
<text text-anchor="middle" x="1279" y="-175.5" font-family="Helvetica,sans-Serif" font-size="10.00">SDL_opengl.h</text>
</a>
</g>
</g>
<!-- Node33&#45;&gt;Node35 -->
<g id="edge51" class="edge"><title>Node33&#45;&gt;Node35</title>
<path fill="none" stroke="midnightblue" d="M1251.45,-224.083C1256.01,-216.613 1262.67,-205.724 1268.29,-196.52"/>
<polygon fill="midnightblue" stroke="midnightblue" points="1271.42,-198.109 1273.65,-187.751 1265.45,-194.459 1271.42,-198.109"/>
</g>
<!-- Node36 -->
<g id="node36" class="node"><title>Node36</title>
<g id="a_node36"><a xlink:title=" ">
<polygon fill="white" stroke="#bfbfbf" points="1335.5,-168.5 1335.5,-187.5 1370.5,-187.5 1370.5,-168.5 1335.5,-168.5"/>
<text text-anchor="middle" x="1353" y="-175.5" font-family="Helvetica,sans-Serif" font-size="10.00">map</text>
</a>
</g>
</g>
<!-- Node33&#45;&gt;Node36 -->
<g id="edge53" class="edge"><title>Node33&#45;&gt;Node36</title>
<path fill="none" stroke="midnightblue" d="M1263.19,-224.324C1280.35,-215.664 1306.95,-202.242 1326.75,-192.249"/>
<polygon fill="midnightblue" stroke="midnightblue" points="1328.5,-195.285 1335.85,-187.655 1325.35,-189.035 1328.5,-195.285"/>
</g>
</g>
</svg>
