<?xml version="1.0" encoding="UTF-8" standalone="no"?>
<!DOCTYPE svg PUBLIC "-//W3C//DTD SVG 1.1//EN"
 "http://www.w3.org/Graphics/SVG/1.1/DTD/svg11.dtd">
<!-- Generated by graphviz version 2.38.0 (20140413.2041)
 -->
<!-- Title: TextMap::getMaxPixelHeightOfAllGlyphs Pages: 1 -->
<!--zoomable 78 -->
<svg id="main" version="1.1" xmlns="http://www.w3.org/2000/svg" xmlns:xlink="http://www.w3.org/1999/xlink" xml:space="preserve" onload="init(evt)">
<style type="text/css"><![CDATA[
.edge:hover path { stroke: red; }
.edge:hover polygon { stroke: red; fill: red; }
]]></style>
<script type="text/javascript"><![CDATA[
var edges = document.getElementsByTagName('g');
if (edges && edges.length) {
  for (var i=0;i<edges.length;i++) {
    if (edges[i].id.substr(0,4)=='edge') {
      edges[i].setAttribute('class','edge');
    }
  }
}
]]></script>
        <defs>
                <circle id="rim" cx="0" cy="0" r="7"/>
                <circle id="rim2" cx="0" cy="0" r="3.5"/>
                <g id="zoomPlus">
                        <use xlink:href="#rim" fill="#404040">
                                <set attributeName="fill" to="#808080" begin="zoomplus.mouseover" end="zoomplus.mouseout"/>
                        </use>
                        <path d="M-4,0h8M0,-4v8" fill="none" stroke="white" stroke-width="1.5" pointer-events="none"/>
                </g>
                <g id="zoomMin">
                        <use xlink:href="#rim" fill="#404040">
                                <set attributeName="fill" to="#808080" begin="zoomminus.mouseover" end="zoomminus.mouseout"/>
                        </use>
                        <path d="M-4,0h8" fill="none" stroke="white" stroke-width="1.5" pointer-events="none"/>
                </g>
                <g id="dirArrow">
                        <path fill="none" stroke="white" stroke-width="1.5" d="M0,-3.0v7 M-2.5,-0.5L0,-3.0L2.5,-0.5"/>
                </g>
               <g id="resetDef">
                       <use xlink:href="#rim2" fill="#404040">
                               <set attributeName="fill" to="#808080" begin="reset.mouseover" end="reset.mouseout"/>
                       </use>
               </g>
        </defs>

<script type="text/javascript">
var viewWidth = 1567;
var viewHeight = 78;
var sectionId = 'dynsection-3';
</script>
<script xlink:href="../../svgpan.js"/>
<svg id="graph" class="graph">
<g id="viewport">
<title>TextMap::getMaxPixelHeightOfAllGlyphs</title>
<polygon fill="white" stroke="none" points="-4,4 -4,-73.5 1563,-73.5 1563,4 -4,4"/>
<!-- Node1 -->
<g id="node1" class="node"><title>Node1</title>
<g id="a_node1"><a xlink:title=" ">
<polygon fill="#bfbfbf" stroke="black" points="1417,-17 1417,-47 1559,-47 1559,-17 1417,-17"/>
<text text-anchor="start" x="1425" y="-35" font-family="Helvetica,sans-Serif" font-size="10.00">TextMap::getMaxPixelHeight</text>
<text text-anchor="middle" x="1488" y="-24" font-family="Helvetica,sans-Serif" font-size="10.00">OfAllGlyphs</text>
</a>
</g>
</g>
<!-- Node2 -->
<g id="node2" class="node"><title>Node2</title>
<g id="a_node2"><a xlink:href="../../dd/df5/class_gui_string.html#a2de41389b7f44064a13193fc8d8f7822" target="_top" xlink:title=" ">
<polygon fill="white" stroke="black" points="1266,-22.5 1266,-41.5 1381,-41.5 1381,-22.5 1266,-22.5"/>
<text text-anchor="middle" x="1323.5" y="-29.5" font-family="Helvetica,sans-Serif" font-size="10.00">GuiString::mainRender</text>
</a>
</g>
</g>
<!-- Node1&#45;&gt;Node2 -->
<g id="edge1" class="edge"><title>Node1&#45;&gt;Node2</title>
<path fill="none" stroke="midnightblue" d="M1406.63,-32C1398.05,-32 1389.46,-32 1381.24,-32"/>
<polygon fill="midnightblue" stroke="midnightblue" points="1406.67,-35.5001 1416.67,-32 1406.67,-28.5001 1406.67,-35.5001"/>
</g>
<!-- Node3 -->
<g id="node3" class="node"><title>Node3</title>
<g id="a_node3"><a xlink:href="../../dd/df5/class_gui_string.html#ad0f15cbdb97efa9caa42cf9f3a6b4314" target="_top" xlink:title=" ">
<polygon fill="white" stroke="black" points="1140,-22.5 1140,-41.5 1230,-41.5 1230,-22.5 1140,-22.5"/>
<text text-anchor="middle" x="1185" y="-29.5" font-family="Helvetica,sans-Serif" font-size="10.00">GuiString::render</text>
</a>
</g>
</g>
<!-- Node2&#45;&gt;Node3 -->
<g id="edge2" class="edge"><title>Node2&#45;&gt;Node3</title>
<path fill="none" stroke="midnightblue" d="M1255.7,-32C1247.07,-32 1238.4,-32 1230.25,-32"/>
<polygon fill="midnightblue" stroke="midnightblue" points="1255.8,-35.5001 1265.8,-32 1255.8,-28.5001 1255.8,-35.5001"/>
</g>
<!-- Node4 -->
<g id="node4" class="node"><title>Node4</title>
<g id="a_node4"><a xlink:href="../../d3/d85/class_display_statistics_system.html#a23af17c7454c87306f0ff65c1896e161" target="_top" xlink:title=" ">
<polygon fill="white" stroke="black" points="974.5,-39 974.5,-69 1098.5,-69 1098.5,-39 974.5,-39"/>
<text text-anchor="start" x="982.5" y="-57" font-family="Helvetica,sans-Serif" font-size="10.00">DisplayStatisticsSystem</text>
<text text-anchor="middle" x="1036.5" y="-46" font-family="Helvetica,sans-Serif" font-size="10.00">::render</text>
</a>
</g>
</g>
<!-- Node3&#45;&gt;Node4 -->
<g id="edge3" class="edge"><title>Node3&#45;&gt;Node4</title>
<path fill="none" stroke="midnightblue" d="M1129.75,-40.147C1119.65,-41.6641 1109.02,-43.2591 1098.73,-44.8051"/>
<polygon fill="midnightblue" stroke="midnightblue" points="1130.28,-43.6068 1139.65,-38.6604 1129.24,-36.6844 1130.28,-43.6068"/>
</g>
<!-- Node12 -->
<g id="node12" class="node"><title>Node12</title>
<g id="a_node12"><a xlink:href="../../d7/dd6/class_pause_menu_system.html#a275e625e495889f598a67bdffb2ffd4f" target="_top" xlink:title=" ">
<polygon fill="white" stroke="black" points="969,-0.5 969,-19.5 1104,-19.5 1104,-0.5 969,-0.5"/>
<text text-anchor="middle" x="1036.5" y="-7.5" font-family="Helvetica,sans-Serif" font-size="10.00">PauseMenuSystem::render</text>
</a>
</g>
</g>
<!-- Node3&#45;&gt;Node12 -->
<g id="edge11" class="edge"><title>Node3&#45;&gt;Node12</title>
<path fill="none" stroke="midnightblue" d="M1129.68,-23.8425C1120.3,-22.4343 1110.48,-20.9594 1100.89,-19.5189"/>
<polygon fill="midnightblue" stroke="midnightblue" points="1129.24,-27.3156 1139.65,-25.3396 1130.28,-20.3932 1129.24,-27.3156"/>
</g>
<!-- Node5 -->
<g id="node5" class="node"><title>Node5</title>
<g id="a_node5"><a xlink:href="../../d8/d31/class_rendering_system.html#ad5115644b3d0a1df6446a610c683a31e" target="_top" xlink:title=" ">
<polygon fill="white" stroke="black" points="777,-22.5 777,-41.5 933,-41.5 933,-22.5 777,-22.5"/>
<text text-anchor="middle" x="855" y="-29.5" font-family="Helvetica,sans-Serif" font-size="10.00">RenderingSystem::renderOthers</text>
</a>
</g>
</g>
<!-- Node4&#45;&gt;Node5 -->
<g id="edge4" class="edge"><title>Node4&#45;&gt;Node5</title>
<path fill="none" stroke="midnightblue" d="M964.338,-45.2782C954.062,-44.0187 943.446,-42.7176 933.062,-41.4449"/>
<polygon fill="midnightblue" stroke="midnightblue" points="964.127,-48.7785 974.479,-46.5211 964.979,-41.8305 964.127,-48.7785"/>
</g>
<!-- Node6 -->
<g id="node6" class="node"><title>Node6</title>
<g id="a_node6"><a xlink:href="../../d8/d31/class_rendering_system.html#a9f1ec48fdfa79ddc55421b6014fdb9c6" target="_top" xlink:title=" ">
<polygon fill="white" stroke="black" points="603,-22.5 603,-41.5 741,-41.5 741,-22.5 603,-22.5"/>
<text text-anchor="middle" x="672" y="-29.5" font-family="Helvetica,sans-Serif" font-size="10.00">RenderingSystem::renderAll</text>
</a>
</g>
</g>
<!-- Node5&#45;&gt;Node6 -->
<g id="edge5" class="edge"><title>Node5&#45;&gt;Node6</title>
<path fill="none" stroke="midnightblue" d="M766.854,-32C758.198,-32 749.5,-32 741.08,-32"/>
<polygon fill="midnightblue" stroke="midnightblue" points="766.977,-35.5001 776.977,-32 766.977,-28.5001 766.977,-35.5001"/>
</g>
<!-- Node7 -->
<g id="node7" class="node"><title>Node7</title>
<g id="a_node7"><a xlink:href="../../d8/d31/class_rendering_system.html#ae6a25f6b28ebe40f08916d9eadc95ac2" target="_top" xlink:title=" ">
<polygon fill="white" stroke="black" points="440,-22.5 440,-41.5 567,-41.5 567,-22.5 440,-22.5"/>
<text text-anchor="middle" x="503.5" y="-29.5" font-family="Helvetica,sans-Serif" font-size="10.00">RenderingSystem::render</text>
</a>
</g>
</g>
<!-- Node6&#45;&gt;Node7 -->
<g id="edge6" class="edge"><title>Node6&#45;&gt;Node7</title>
<path fill="none" stroke="midnightblue" d="M592.795,-32C584.227,-32 575.588,-32 567.242,-32"/>
<polygon fill="midnightblue" stroke="midnightblue" points="592.798,-35.5001 602.798,-32 592.798,-28.5001 592.798,-35.5001"/>
</g>
<!-- Node8 -->
<g id="node8" class="node"><title>Node8</title>
<g id="a_node8"><a xlink:href="../../dd/d1f/class_game.html#a15ddd769261d923827a3cdf41499c843" target="_top" xlink:title=" ">
<polygon fill="white" stroke="black" points="328,-22.5 328,-41.5 404,-41.5 404,-22.5 328,-22.5"/>
<text text-anchor="middle" x="366" y="-29.5" font-family="Helvetica,sans-Serif" font-size="10.00">Game::render</text>
</a>
</g>
</g>
<!-- Node7&#45;&gt;Node8 -->
<g id="edge7" class="edge"><title>Node7&#45;&gt;Node8</title>
<path fill="none" stroke="midnightblue" d="M429.877,-32C421.008,-32 412.25,-32 404.216,-32"/>
<polygon fill="midnightblue" stroke="midnightblue" points="429.906,-35.5001 439.906,-32 429.906,-28.5001 429.906,-35.5001"/>
</g>
<!-- Node9 -->
<g id="node9" class="node"><title>Node9</title>
<g id="a_node9"><a xlink:href="../../de/d6b/class_application.html#a9ac99d97ee1cc814298a2f2388bde835" target="_top" xlink:title=" ">
<polygon fill="white" stroke="black" points="194,-22.5 194,-41.5 292,-41.5 292,-22.5 194,-22.5"/>
<text text-anchor="middle" x="243" y="-29.5" font-family="Helvetica,sans-Serif" font-size="10.00">Application::render</text>
</a>
</g>
</g>
<!-- Node8&#45;&gt;Node9 -->
<g id="edge8" class="edge"><title>Node8&#45;&gt;Node9</title>
<path fill="none" stroke="midnightblue" d="M317.684,-32C309.282,-32 300.524,-32 292.101,-32"/>
<polygon fill="midnightblue" stroke="midnightblue" points="317.709,-35.5001 327.709,-32 317.709,-28.5001 317.709,-35.5001"/>
</g>
<!-- Node10 -->
<g id="node10" class="node"><title>Node10</title>
<g id="a_node10"><a xlink:href="../../de/d6b/class_application.html#a68965449404743bf1add056784d6cf81" target="_top" xlink:title=" ">
<polygon fill="white" stroke="black" points="74,-22.5 74,-41.5 158,-41.5 158,-22.5 74,-22.5"/>
<text text-anchor="middle" x="116" y="-29.5" font-family="Helvetica,sans-Serif" font-size="10.00">Application::run</text>
</a>
</g>
</g>
<!-- Node9&#45;&gt;Node10 -->
<g id="edge9" class="edge"><title>Node9&#45;&gt;Node10</title>
<path fill="none" stroke="midnightblue" d="M183.411,-32C174.926,-32 166.343,-32 158.294,-32"/>
<polygon fill="midnightblue" stroke="midnightblue" points="183.672,-35.5001 193.672,-32 183.672,-28.5001 183.672,-35.5001"/>
</g>
<!-- Node11 -->
<g id="node11" class="node"><title>Node11</title>
<g id="a_node11"><a xlink:href="../../d5/d12/_main_8cpp.html#a0ddf1224851353fc92bfbff6f499fa97" target="_top" xlink:title=" ">
<polygon fill="white" stroke="black" points="0,-22.5 0,-41.5 38,-41.5 38,-22.5 0,-22.5"/>
<text text-anchor="middle" x="19" y="-29.5" font-family="Helvetica,sans-Serif" font-size="10.00">main</text>
</a>
</g>
</g>
<!-- Node10&#45;&gt;Node11 -->
<g id="edge10" class="edge"><title>Node10&#45;&gt;Node11</title>
<path fill="none" stroke="midnightblue" d="M63.6206,-32C54.5384,-32 45.6466,-32 38.2853,-32"/>
<polygon fill="midnightblue" stroke="midnightblue" points="63.8842,-35.5001 73.8841,-32 63.8841,-28.5001 63.8842,-35.5001"/>
</g>
<!-- Node12&#45;&gt;Node5 -->
<g id="edge12" class="edge"><title>Node12&#45;&gt;Node5</title>
<path fill="none" stroke="midnightblue" d="M958.953,-19.3819C950.385,-20.432 941.652,-21.5022 933.078,-22.5531"/>
<polygon fill="midnightblue" stroke="midnightblue" points="959.416,-22.8513 968.916,-18.1607 958.564,-15.9033 959.416,-22.8513"/>
</g>
</g>
</svg>
        <g id="navigator" transform="translate(0 0)" fill="#404254">
                <rect fill="#f2f5e9" fill-opacity="0.5" stroke="#606060" stroke-width=".5" x="0" y="0" width="60" height="60"/>
                <use id="zoomplus" xlink:href="#zoomPlus" x="17" y="9" onmousedown="handleZoom(evt,'in')"/>
                <use id="zoomminus" xlink:href="#zoomMin" x="42" y="9" onmousedown="handleZoom(evt,'out')"/>
                <use id="reset" xlink:href="#resetDef" x="30" y="36" onmousedown="handleReset()"/>
                <g id="arrowUp" xlink:href="#dirArrow" transform="translate(30 24)" onmousedown="handlePan(0,-1)">
                  <use xlink:href="#rim" fill="#404040">
                        <set attributeName="fill" to="#808080" begin="arrowUp.mouseover" end="arrowUp.mouseout"/>
                  </use>
                  <path fill="none" stroke="white" stroke-width="1.5" d="M0,-3.0v7 M-2.5,-0.5L0,-3.0L2.5,-0.5"/>
                </g>
                <g id="arrowRight" xlink:href="#dirArrow" transform="rotate(90) translate(36 -43)" onmousedown="handlePan(1,0)">
                  <use xlink:href="#rim" fill="#404040">
                        <set attributeName="fill" to="#808080" begin="arrowRight.mouseover" end="arrowRight.mouseout"/>
                  </use>
                  <path fill="none" stroke="white" stroke-width="1.5" d="M0,-3.0v7 M-2.5,-0.5L0,-3.0L2.5,-0.5"/>
                </g>
                <g id="arrowDown" xlink:href="#dirArrow" transform="rotate(180) translate(-30 -48)" onmousedown="handlePan(0,1)">
                  <use xlink:href="#rim" fill="#404040">
                        <set attributeName="fill" to="#808080" begin="arrowDown.mouseover" end="arrowDown.mouseout"/>
                  </use>
                  <path fill="none" stroke="white" stroke-width="1.5" d="M0,-3.0v7 M-2.5,-0.5L0,-3.0L2.5,-0.5"/>
                </g>
                <g id="arrowLeft" xlink:href="#dirArrow" transform="rotate(270) translate(-36 17)" onmousedown="handlePan(-1,0)">
                  <use xlink:href="#rim" fill="#404040">
                        <set attributeName="fill" to="#808080" begin="arrowLeft.mouseover" end="arrowLeft.mouseout"/>
                  </use>
                  <path fill="none" stroke="white" stroke-width="1.5" d="M0,-3.0v7 M-2.5,-0.5L0,-3.0L2.5,-0.5"/>
                </g>
        </g>
        <svg viewBox="0 0 15 15" width="100%" height="30px" preserveAspectRatio="xMaxYMin meet">
         <g id="arrow_out" transform="scale(0.3 0.3)">
          <a xlink:href="class_text_map_a51dea925ea75100dd8221e9415959baf_icgraph_org.svg" target="_base">
           <rect id="button" ry="5" rx="5" y="6" x="6" height="38" width="38"
                fill="#f2f5e9" fill-opacity="0.5" stroke="#606060" stroke-width="1.0"/>
           <path id="arrow"
             d="M 11.500037,31.436501 C 11.940474,20.09759 22.043105,11.32322 32.158766,21.979434 L 37.068811,17.246167 C 37.068811,17.246167 37.088388,32 37.088388,32 L 22.160133,31.978069 C 22.160133,31.978069 26.997745,27.140456 26.997745,27.140456 C 18.528582,18.264221 13.291696,25.230495 11.500037,31.436501 z"
             style="fill:#404040;"/>
          </a>
         </g>
        </svg>
</svg>
