<?xml version="1.0" encoding="UTF-8" standalone="no"?>
<!DOCTYPE svg PUBLIC "-//W3C//DTD SVG 1.1//EN"
 "http://www.w3.org/Graphics/SVG/1.1/DTD/svg11.dtd">
<!-- Generated by graphviz version 2.38.0 (20140413.2041)
 -->
<!-- Title: src/RayCaster.h Pages: 1 -->
<svg width="544pt" height="476pt"
 viewBox="0.00 0.00 543.50 476.00" xmlns="http://www.w3.org/2000/svg" xmlns:xlink="http://www.w3.org/1999/xlink">
<g id="graph0" class="graph" transform="scale(1 1) rotate(0) translate(4 472)">
<title>src/RayCaster.h</title>
<polygon fill="white" stroke="none" points="-4,4 -4,-472 539.5,-472 539.5,4 -4,4"/>
<!-- Node1 -->
<g id="node1" class="node"><title>Node1</title>
<g id="a_node1"><a xlink:title=" ">
<polygon fill="#bfbfbf" stroke="black" points="123.5,-448.5 123.5,-467.5 210.5,-467.5 210.5,-448.5 123.5,-448.5"/>
<text text-anchor="middle" x="167" y="-455.5" font-family="Helvetica,sans-Serif" font-size="10.00">src/RayCaster.h</text>
</a>
</g>
</g>
<!-- Node2 -->
<g id="node2" class="node"><title>Node2</title>
<g id="a_node2"><a xlink:href="../../db/d81/_fixed_updating_system_8h.html" target="_top" xlink:title=" ">
<polygon fill="white" stroke="black" points="16.5,-224.5 16.5,-243.5 153.5,-243.5 153.5,-224.5 16.5,-224.5"/>
<text text-anchor="middle" x="85" y="-231.5" font-family="Helvetica,sans-Serif" font-size="10.00">src/FixedUpdatingSystem.h</text>
</a>
</g>
</g>
<!-- Node1&#45;&gt;Node2 -->
<g id="edge1" class="edge"><title>Node1&#45;&gt;Node2</title>
<path fill="none" stroke="midnightblue" d="M126.529,-444.514C110.664,-437.521 93.9167,-427.086 84,-412 48.0465,-357.305 72.6141,-271.093 81.8817,-243.674"/>
<polygon fill="midnightblue" stroke="midnightblue" points="125.641,-447.93 136.224,-448.434 128.265,-441.44 125.641,-447.93"/>
</g>
<!-- Node10 -->
<g id="node10" class="node"><title>Node10</title>
<g id="a_node10"><a xlink:href="../../df/d4c/_enemy_controller_system_8h.html" target="_top" xlink:title=" ">
<polygon fill="white" stroke="black" points="93.5,-392.5 93.5,-411.5 240.5,-411.5 240.5,-392.5 93.5,-392.5"/>
<text text-anchor="middle" x="167" y="-399.5" font-family="Helvetica,sans-Serif" font-size="10.00">src/EnemyControllerSystem.h</text>
</a>
</g>
</g>
<!-- Node1&#45;&gt;Node10 -->
<g id="edge9" class="edge"><title>Node1&#45;&gt;Node10</title>
<path fill="none" stroke="midnightblue" d="M167,-437.805C167,-428.91 167,-418.78 167,-411.751"/>
<polygon fill="midnightblue" stroke="midnightblue" points="163.5,-438.083 167,-448.083 170.5,-438.083 163.5,-438.083"/>
</g>
<!-- Node18 -->
<g id="node18" class="node"><title>Node18</title>
<g id="a_node18"><a xlink:href="../../d8/d3c/_player_controller_system_8h.html" target="_top" xlink:title=" ">
<polygon fill="white" stroke="black" points="259,-392.5 259,-411.5 403,-411.5 403,-392.5 259,-392.5"/>
<text text-anchor="middle" x="331" y="-399.5" font-family="Helvetica,sans-Serif" font-size="10.00">src/PlayerControllerSystem.h</text>
</a>
</g>
</g>
<!-- Node1&#45;&gt;Node18 -->
<g id="edge20" class="edge"><title>Node1&#45;&gt;Node18</title>
<path fill="none" stroke="midnightblue" d="M202.52,-445.304C233.422,-435.129 277.473,-420.625 305.135,-411.516"/>
<polygon fill="midnightblue" stroke="midnightblue" points="201.39,-441.992 192.986,-448.444 203.579,-448.64 201.39,-441.992"/>
</g>
<!-- Node3 -->
<g id="node3" class="node"><title>Node3</title>
<g id="a_node3"><a xlink:href="../../d9/dcd/_game_8h.html" target="_top" xlink:title=" ">
<polygon fill="white" stroke="black" points="308,-168.5 308,-187.5 376,-187.5 376,-168.5 308,-168.5"/>
<text text-anchor="middle" x="342" y="-175.5" font-family="Helvetica,sans-Serif" font-size="10.00">src/Game.h</text>
</a>
</g>
</g>
<!-- Node2&#45;&gt;Node3 -->
<g id="edge2" class="edge"><title>Node2&#45;&gt;Node3</title>
<path fill="none" stroke="midnightblue" d="M135.528,-222.383C186.39,-211.696 263.457,-195.503 307.637,-186.22"/>
<polygon fill="midnightblue" stroke="midnightblue" points="134.789,-218.962 125.722,-224.444 136.228,-225.812 134.789,-218.962"/>
</g>
<!-- Node9 -->
<g id="node9" class="node"><title>Node9</title>
<g id="a_node9"><a xlink:href="../../d0/d56/_fixed_updating_system_8cpp.html" target="_top" xlink:title=" ">
<polygon fill="white" stroke="black" points="0,-168.5 0,-187.5 148,-187.5 148,-168.5 0,-168.5"/>
<text text-anchor="middle" x="74" y="-175.5" font-family="Helvetica,sans-Serif" font-size="10.00">src/FixedUpdatingSystem.cpp</text>
</a>
</g>
</g>
<!-- Node2&#45;&gt;Node9 -->
<g id="edge8" class="edge"><title>Node2&#45;&gt;Node9</title>
<path fill="none" stroke="midnightblue" d="M81.1501,-214.101C79.3239,-205.136 77.2303,-194.858 75.7826,-187.751"/>
<polygon fill="midnightblue" stroke="midnightblue" points="77.7579,-214.983 83.1836,-224.083 84.617,-213.586 77.7579,-214.983"/>
</g>
<!-- Node4 -->
<g id="node4" class="node"><title>Node4</title>
<g id="a_node4"><a xlink:href="../../d9/da3/_application_8h.html" target="_top" xlink:title=" ">
<polygon fill="white" stroke="black" points="246.5,-112.5 246.5,-131.5 335.5,-131.5 335.5,-112.5 246.5,-112.5"/>
<text text-anchor="middle" x="291" y="-119.5" font-family="Helvetica,sans-Serif" font-size="10.00">src/Application.h</text>
</a>
</g>
</g>
<!-- Node3&#45;&gt;Node4 -->
<g id="edge3" class="edge"><title>Node3&#45;&gt;Node4</title>
<path fill="none" stroke="midnightblue" d="M326.622,-160.718C317.633,-151.2 306.641,-139.561 299.265,-131.751"/>
<polygon fill="midnightblue" stroke="midnightblue" points="324.168,-163.216 333.578,-168.083 329.257,-158.41 324.168,-163.216"/>
</g>
<!-- Node8 -->
<g id="node8" class="node"><title>Node8</title>
<g id="a_node8"><a xlink:href="../../d7/db5/_game_8cpp.html" target="_top" xlink:title=" ">
<polygon fill="white" stroke="black" points="354,-112.5 354,-131.5 432,-131.5 432,-112.5 354,-112.5"/>
<text text-anchor="middle" x="393" y="-119.5" font-family="Helvetica,sans-Serif" font-size="10.00">src/Game.cpp</text>
</a>
</g>
</g>
<!-- Node3&#45;&gt;Node8 -->
<g id="edge7" class="edge"><title>Node3&#45;&gt;Node8</title>
<path fill="none" stroke="midnightblue" d="M357.378,-160.718C366.367,-151.2 377.359,-139.561 384.735,-131.751"/>
<polygon fill="midnightblue" stroke="midnightblue" points="354.743,-158.41 350.422,-168.083 359.832,-163.216 354.743,-158.41"/>
</g>
<!-- Node5 -->
<g id="node5" class="node"><title>Node5</title>
<g id="a_node5"><a xlink:href="../../d0/d42/_application_8cpp.html" target="_top" xlink:title=" ">
<polygon fill="white" stroke="black" points="192,-56.5 192,-75.5 292,-75.5 292,-56.5 192,-56.5"/>
<text text-anchor="middle" x="242" y="-63.5" font-family="Helvetica,sans-Serif" font-size="10.00">src/Application.cpp</text>
</a>
</g>
</g>
<!-- Node4&#45;&gt;Node5 -->
<g id="edge4" class="edge"><title>Node4&#45;&gt;Node5</title>
<path fill="none" stroke="midnightblue" d="M275.966,-104.431C267.378,-94.9673 256.957,-83.4827 249.941,-75.7511"/>
<polygon fill="midnightblue" stroke="midnightblue" points="273.597,-107.029 282.909,-112.083 278.781,-102.325 273.597,-107.029"/>
</g>
<!-- Node6 -->
<g id="node6" class="node"><title>Node6</title>
<g id="a_node6"><a xlink:href="../../d4/dbf/main_8h.html" target="_top" xlink:title=" ">
<polygon fill="white" stroke="black" points="310,-56.5 310,-75.5 372,-75.5 372,-56.5 310,-56.5"/>
<text text-anchor="middle" x="341" y="-63.5" font-family="Helvetica,sans-Serif" font-size="10.00">src/main.h</text>
</a>
</g>
</g>
<!-- Node4&#45;&gt;Node6 -->
<g id="edge5" class="edge"><title>Node4&#45;&gt;Node6</title>
<path fill="none" stroke="midnightblue" d="M306.076,-104.718C314.889,-95.1997 325.666,-83.5608 332.897,-75.7511"/>
<polygon fill="midnightblue" stroke="midnightblue" points="303.482,-102.367 299.256,-112.083 308.619,-107.123 303.482,-102.367"/>
</g>
<!-- Node7 -->
<g id="node7" class="node"><title>Node7</title>
<g id="a_node7"><a xlink:href="../../d5/d12/_main_8cpp.html" target="_top" xlink:title=" ">
<polygon fill="white" stroke="black" points="304.5,-0.5 304.5,-19.5 377.5,-19.5 377.5,-0.5 304.5,-0.5"/>
<text text-anchor="middle" x="341" y="-7.5" font-family="Helvetica,sans-Serif" font-size="10.00">src/Main.cpp</text>
</a>
</g>
</g>
<!-- Node6&#45;&gt;Node7 -->
<g id="edge6" class="edge"><title>Node6&#45;&gt;Node7</title>
<path fill="none" stroke="midnightblue" d="M341,-45.8045C341,-36.9102 341,-26.7798 341,-19.7511"/>
<polygon fill="midnightblue" stroke="midnightblue" points="337.5,-46.083 341,-56.083 344.5,-46.083 337.5,-46.083"/>
</g>
<!-- Node11 -->
<g id="node11" class="node"><title>Node11</title>
<g id="a_node11"><a xlink:href="../../d8/dc4/_sub_systems_8h.html" target="_top" xlink:title=" ">
<polygon fill="white" stroke="black" points="264,-336.5 264,-355.5 362,-355.5 362,-336.5 264,-336.5"/>
<text text-anchor="middle" x="313" y="-343.5" font-family="Helvetica,sans-Serif" font-size="10.00">src/SubSystems.h</text>
</a>
</g>
</g>
<!-- Node10&#45;&gt;Node11 -->
<g id="edge10" class="edge"><title>Node10&#45;&gt;Node11</title>
<path fill="none" stroke="midnightblue" d="M199.699,-388.906C227.148,-378.754 265.668,-364.506 289.974,-355.516"/>
<polygon fill="midnightblue" stroke="midnightblue" points="198.299,-385.692 190.134,-392.444 200.727,-392.257 198.299,-385.692"/>
</g>
<!-- Node17 -->
<g id="node17" class="node"><title>Node17</title>
<g id="a_node17"><a xlink:href="../../da/d2a/_enemy_controller_system_8cpp.html" target="_top" xlink:title=" ">
<polygon fill="white" stroke="black" points="88,-336.5 88,-355.5 246,-355.5 246,-336.5 88,-336.5"/>
<text text-anchor="middle" x="167" y="-343.5" font-family="Helvetica,sans-Serif" font-size="10.00">src/EnemyControllerSystem.cpp</text>
</a>
</g>
</g>
<!-- Node10&#45;&gt;Node17 -->
<g id="edge19" class="edge"><title>Node10&#45;&gt;Node17</title>
<path fill="none" stroke="midnightblue" d="M167,-381.805C167,-372.91 167,-362.78 167,-355.751"/>
<polygon fill="midnightblue" stroke="midnightblue" points="163.5,-382.083 167,-392.083 170.5,-382.083 163.5,-382.083"/>
</g>
<!-- Node12 -->
<g id="node12" class="node"><title>Node12</title>
<g id="a_node12"><a xlink:href="../../dc/d18/_system_base_8h.html" target="_top" xlink:title=" ">
<polygon fill="white" stroke="black" points="240,-280.5 240,-299.5 338,-299.5 338,-280.5 240,-280.5"/>
<text text-anchor="middle" x="289" y="-287.5" font-family="Helvetica,sans-Serif" font-size="10.00">src/SystemBase.h</text>
</a>
</g>
</g>
<!-- Node11&#45;&gt;Node12 -->
<g id="edge11" class="edge"><title>Node11&#45;&gt;Node12</title>
<path fill="none" stroke="midnightblue" d="M304.862,-326.69C300.817,-317.589 296.117,-307.014 292.889,-299.751"/>
<polygon fill="midnightblue" stroke="midnightblue" points="301.777,-328.366 309.037,-336.083 308.174,-325.523 301.777,-328.366"/>
</g>
<!-- Node12&#45;&gt;Node2 -->
<g id="edge12" class="edge"><title>Node12&#45;&gt;Node2</title>
<path fill="none" stroke="midnightblue" d="M246.799,-277.829C208.282,-267.633 152.178,-252.782 117.173,-243.516"/>
<polygon fill="midnightblue" stroke="midnightblue" points="246.113,-281.268 256.676,-280.444 247.904,-274.501 246.113,-281.268"/>
</g>
<!-- Node13 -->
<g id="node13" class="node"><title>Node13</title>
<g id="a_node13"><a xlink:href="../../da/d66/_rendering_system_8h.html" target="_top" xlink:title=" ">
<polygon fill="white" stroke="black" points="314.5,-224.5 314.5,-243.5 433.5,-243.5 433.5,-224.5 314.5,-224.5"/>
<text text-anchor="middle" x="374" y="-231.5" font-family="Helvetica,sans-Serif" font-size="10.00">src/RenderingSystem.h</text>
</a>
</g>
</g>
<!-- Node12&#45;&gt;Node13 -->
<g id="edge13" class="edge"><title>Node12&#45;&gt;Node13</title>
<path fill="none" stroke="midnightblue" d="M311.194,-274.901C326.78,-264.999 347.13,-252.071 360.377,-243.655"/>
<polygon fill="midnightblue" stroke="midnightblue" points="309.221,-272.007 302.657,-280.324 312.974,-277.916 309.221,-272.007"/>
</g>
<!-- Node15 -->
<g id="node15" class="node"><title>Node15</title>
<g id="a_node15"><a xlink:href="../../db/dc0/_updating_system_8h.html" target="_top" xlink:title=" ">
<polygon fill="white" stroke="black" points="183.5,-224.5 183.5,-243.5 296.5,-243.5 296.5,-224.5 183.5,-224.5"/>
<text text-anchor="middle" x="240" y="-231.5" font-family="Helvetica,sans-Serif" font-size="10.00">src/UpdatingSystem.h</text>
</a>
</g>
</g>
<!-- Node12&#45;&gt;Node15 -->
<g id="edge16" class="edge"><title>Node12&#45;&gt;Node15</title>
<path fill="none" stroke="midnightblue" d="M273.966,-272.431C265.378,-262.967 254.957,-251.483 247.941,-243.751"/>
<polygon fill="midnightblue" stroke="midnightblue" points="271.597,-275.029 280.909,-280.083 276.781,-270.325 271.597,-275.029"/>
</g>
<!-- Node13&#45;&gt;Node3 -->
<g id="edge14" class="edge"><title>Node13&#45;&gt;Node3</title>
<path fill="none" stroke="midnightblue" d="M363.496,-215.275C358.027,-206.045 351.582,-195.17 347.186,-187.751"/>
<polygon fill="midnightblue" stroke="midnightblue" points="360.607,-217.264 368.716,-224.083 366.629,-213.696 360.607,-217.264"/>
</g>
<!-- Node14 -->
<g id="node14" class="node"><title>Node14</title>
<g id="a_node14"><a xlink:href="../../d2/db8/_rendering_system_8cpp.html" target="_top" xlink:title=" ">
<polygon fill="white" stroke="black" points="394.5,-168.5 394.5,-187.5 523.5,-187.5 523.5,-168.5 394.5,-168.5"/>
<text text-anchor="middle" x="459" y="-175.5" font-family="Helvetica,sans-Serif" font-size="10.00">src/RenderingSystem.cpp</text>
</a>
</g>
</g>
<!-- Node13&#45;&gt;Node14 -->
<g id="edge15" class="edge"><title>Node13&#45;&gt;Node14</title>
<path fill="none" stroke="midnightblue" d="M396.194,-218.901C411.78,-208.999 432.13,-196.071 445.377,-187.655"/>
<polygon fill="midnightblue" stroke="midnightblue" points="394.221,-216.007 387.657,-224.324 397.974,-221.916 394.221,-216.007"/>
</g>
<!-- Node15&#45;&gt;Node3 -->
<g id="edge17" class="edge"><title>Node15&#45;&gt;Node3</title>
<path fill="none" stroke="midnightblue" d="M265.331,-219.59C284.19,-209.605 309.384,-196.267 325.653,-187.655"/>
<polygon fill="midnightblue" stroke="midnightblue" points="263.588,-216.552 256.388,-224.324 266.864,-222.738 263.588,-216.552"/>
</g>
<!-- Node16 -->
<g id="node16" class="node"><title>Node16</title>
<g id="a_node16"><a xlink:href="../../d7/d1d/_updating_system_8cpp.html" target="_top" xlink:title=" ">
<polygon fill="white" stroke="black" points="166,-168.5 166,-187.5 290,-187.5 290,-168.5 166,-168.5"/>
<text text-anchor="middle" x="228" y="-175.5" font-family="Helvetica,sans-Serif" font-size="10.00">src/UpdatingSystem.cpp</text>
</a>
</g>
</g>
<!-- Node15&#45;&gt;Node16 -->
<g id="edge18" class="edge"><title>Node15&#45;&gt;Node16</title>
<path fill="none" stroke="midnightblue" d="M235.8,-214.101C233.808,-205.136 231.524,-194.858 229.945,-187.751"/>
<polygon fill="midnightblue" stroke="midnightblue" points="232.432,-215.08 238.018,-224.083 239.266,-213.562 232.432,-215.08"/>
</g>
<!-- Node18&#45;&gt;Node11 -->
<g id="edge21" class="edge"><title>Node18&#45;&gt;Node11</title>
<path fill="none" stroke="midnightblue" d="M324.799,-382.396C321.787,-373.362 318.312,-362.936 315.917,-355.751"/>
<polygon fill="midnightblue" stroke="midnightblue" points="321.545,-383.703 328.028,-392.083 328.186,-381.489 321.545,-383.703"/>
</g>
<!-- Node19 -->
<g id="node19" class="node"><title>Node19</title>
<g id="a_node19"><a xlink:href="../../df/d12/_player_controller_system_8cpp.html" target="_top" xlink:title=" ">
<polygon fill="white" stroke="black" points="380.5,-336.5 380.5,-355.5 535.5,-355.5 535.5,-336.5 380.5,-336.5"/>
<text text-anchor="middle" x="458" y="-343.5" font-family="Helvetica,sans-Serif" font-size="10.00">src/PlayerControllerSystem.cpp</text>
</a>
</g>
</g>
<!-- Node18&#45;&gt;Node19 -->
<g id="edge22" class="edge"><title>Node18&#45;&gt;Node19</title>
<path fill="none" stroke="midnightblue" d="M360.391,-388.503C384.2,-378.38 417.106,-364.388 437.971,-355.516"/>
<polygon fill="midnightblue" stroke="midnightblue" points="358.957,-385.31 351.124,-392.444 361.696,-391.751 358.957,-385.31"/>
</g>
</g>
</svg>
