<?xml version="1.0" encoding="UTF-8" standalone="no"?>
<!DOCTYPE svg PUBLIC "-//W3C//DTD SVG 1.1//EN"
 "http://www.w3.org/Graphics/SVG/1.1/DTD/svg11.dtd">
<!-- Generated by graphviz version 2.38.0 (20140413.2041)
 -->
<!-- Title: GuiString::initialize Pages: 1 -->
<svg width="374pt" height="78pt"
 viewBox="0.00 0.00 374.00 77.50" xmlns="http://www.w3.org/2000/svg" xmlns:xlink="http://www.w3.org/1999/xlink">
<g id="graph0" class="graph" transform="scale(1 1) rotate(0) translate(4 73.5)">
<title>GuiString::initialize</title>
<polygon fill="white" stroke="none" points="-4,4 -4,-73.5 370,-73.5 370,4 -4,4"/>
<!-- Node1 -->
<g id="node1" class="node"><title>Node1</title>
<g id="a_node1"><a xlink:title=" ">
<polygon fill="#bfbfbf" stroke="black" points="268,-22.5 268,-41.5 366,-41.5 366,-22.5 268,-22.5"/>
<text text-anchor="middle" x="317" y="-29.5" font-family="Helvetica,sans-Serif" font-size="10.00">GuiString::initialize</text>
</a>
</g>
</g>
<!-- Node2 -->
<g id="node2" class="node"><title>Node2</title>
<g id="a_node2"><a xlink:href="../../dc/d84/class_display_statistics.html#aeef7680e2310f99d76f6f6724b4b5b66" target="_top" xlink:title=" ">
<polygon fill="white" stroke="black" points="129,-39 129,-69 225,-69 225,-39 129,-39"/>
<text text-anchor="start" x="137" y="-57" font-family="Helvetica,sans-Serif" font-size="10.00">DisplayStatistics::</text>
<text text-anchor="middle" x="177" y="-46" font-family="Helvetica,sans-Serif" font-size="10.00">initialize</text>
</a>
</g>
</g>
<!-- Node1&#45;&gt;Node2 -->
<g id="edge1" class="edge"><title>Node1&#45;&gt;Node2</title>
<path fill="none" stroke="midnightblue" d="M257.837,-41.2724C246.911,-43.0142 235.613,-44.8154 225.076,-46.4952"/>
<polygon fill="midnightblue" stroke="midnightblue" points="258.41,-44.7253 267.734,-39.6945 257.308,-37.8126 258.41,-44.7253"/>
</g>
<!-- Node4 -->
<g id="node4" class="node"><title>Node4</title>
<g id="a_node4"><a xlink:href="../../d4/de5/class_pause_menu.html#a29f8b79ccd65bdc49a8c50e8f53f766f" target="_top" xlink:title=" ">
<polygon fill="white" stroke="black" points="122,-0.5 122,-19.5 232,-19.5 232,-0.5 122,-0.5"/>
<text text-anchor="middle" x="177" y="-7.5" font-family="Helvetica,sans-Serif" font-size="10.00">PauseMenu::initialize</text>
</a>
</g>
</g>
<!-- Node1&#45;&gt;Node4 -->
<g id="edge3" class="edge"><title>Node1&#45;&gt;Node4</title>
<path fill="none" stroke="midnightblue" d="M257.581,-22.6869C249.141,-21.3413 240.484,-19.9613 232.133,-18.6299"/>
<polygon fill="midnightblue" stroke="midnightblue" points="257.308,-26.1874 267.734,-24.3055 258.41,-19.2747 257.308,-26.1874"/>
</g>
<!-- Node3 -->
<g id="node3" class="node"><title>Node3</title>
<g id="a_node3"><a xlink:href="../../d8/d53/class_player.html#a74539e4ea62aea94ea420052bac78292" target="_top" xlink:title=" ">
<polygon fill="white" stroke="black" points="0,-22.5 0,-41.5 86,-41.5 86,-22.5 0,-22.5"/>
<text text-anchor="middle" x="43" y="-29.5" font-family="Helvetica,sans-Serif" font-size="10.00">Player::initialize</text>
</a>
</g>
</g>
<!-- Node2&#45;&gt;Node3 -->
<g id="edge2" class="edge"><title>Node2&#45;&gt;Node3</title>
<path fill="none" stroke="midnightblue" d="M118.775,-44.4626C107.81,-42.635 96.5151,-40.7525 86.1314,-39.0219"/>
<polygon fill="midnightblue" stroke="midnightblue" points="118.278,-47.9279 128.718,-46.1196 119.429,-41.0232 118.278,-47.9279"/>
</g>
<!-- Node4&#45;&gt;Node3 -->
<g id="edge4" class="edge"><title>Node4&#45;&gt;Node3</title>
<path fill="none" stroke="midnightblue" d="M112.03,-20.6617C103.214,-22.1311 94.349,-23.6085 86.0661,-24.989"/>
<polygon fill="midnightblue" stroke="midnightblue" points="112.641,-24.1082 121.93,-19.0117 111.49,-17.2034 112.641,-24.1082"/>
</g>
</g>
</svg>
