<?xml version="1.0" encoding="UTF-8" standalone="no"?>
<!DOCTYPE svg PUBLIC "-//W3C//DTD SVG 1.1//EN"
 "http://www.w3.org/Graphics/SVG/1.1/DTD/svg11.dtd">
<!-- Generated by graphviz version 2.38.0 (20140413.2041)
 -->
<!-- Title: GuiString::render Pages: 1 -->
<svg width="1238pt" height="78pt"
 viewBox="0.00 0.00 1238.00 77.50" xmlns="http://www.w3.org/2000/svg" xmlns:xlink="http://www.w3.org/1999/xlink">
<g id="graph0" class="graph" transform="scale(1 1) rotate(0) translate(4 73.5)">
<title>GuiString::render</title>
<polygon fill="white" stroke="none" points="-4,4 -4,-73.5 1234,-73.5 1234,4 -4,4"/>
<!-- Node1 -->
<g id="node1" class="node"><title>Node1</title>
<g id="a_node1"><a xlink:title=" ">
<polygon fill="#bfbfbf" stroke="black" points="1140,-22.5 1140,-41.5 1230,-41.5 1230,-22.5 1140,-22.5"/>
<text text-anchor="middle" x="1185" y="-29.5" font-family="Helvetica,sans-Serif" font-size="10.00">GuiString::render</text>
</a>
</g>
</g>
<!-- Node2 -->
<g id="node2" class="node"><title>Node2</title>
<g id="a_node2"><a xlink:href="../../d3/d85/class_display_statistics_system.html#a23af17c7454c87306f0ff65c1896e161" target="_top" xlink:title=" ">
<polygon fill="white" stroke="black" points="974.5,-39 974.5,-69 1098.5,-69 1098.5,-39 974.5,-39"/>
<text text-anchor="start" x="982.5" y="-57" font-family="Helvetica,sans-Serif" font-size="10.00">DisplayStatisticsSystem</text>
<text text-anchor="middle" x="1036.5" y="-46" font-family="Helvetica,sans-Serif" font-size="10.00">::render</text>
</a>
</g>
</g>
<!-- Node1&#45;&gt;Node2 -->
<g id="edge1" class="edge"><title>Node1&#45;&gt;Node2</title>
<path fill="none" stroke="midnightblue" d="M1129.75,-40.147C1119.65,-41.6641 1109.02,-43.2591 1098.73,-44.8051"/>
<polygon fill="midnightblue" stroke="midnightblue" points="1130.28,-43.6068 1139.65,-38.6604 1129.24,-36.6844 1130.28,-43.6068"/>
</g>
<!-- Node10 -->
<g id="node10" class="node"><title>Node10</title>
<g id="a_node10"><a xlink:href="../../d7/dd6/class_pause_menu_system.html#a275e625e495889f598a67bdffb2ffd4f" target="_top" xlink:title=" ">
<polygon fill="white" stroke="black" points="969,-0.5 969,-19.5 1104,-19.5 1104,-0.5 969,-0.5"/>
<text text-anchor="middle" x="1036.5" y="-7.5" font-family="Helvetica,sans-Serif" font-size="10.00">PauseMenuSystem::render</text>
</a>
</g>
</g>
<!-- Node1&#45;&gt;Node10 -->
<g id="edge9" class="edge"><title>Node1&#45;&gt;Node10</title>
<path fill="none" stroke="midnightblue" d="M1129.68,-23.8425C1120.3,-22.4343 1110.48,-20.9594 1100.89,-19.5189"/>
<polygon fill="midnightblue" stroke="midnightblue" points="1129.24,-27.3156 1139.65,-25.3396 1130.28,-20.3932 1129.24,-27.3156"/>
</g>
<!-- Node3 -->
<g id="node3" class="node"><title>Node3</title>
<g id="a_node3"><a xlink:href="../../d8/d31/class_rendering_system.html#ad5115644b3d0a1df6446a610c683a31e" target="_top" xlink:title=" ">
<polygon fill="white" stroke="black" points="777,-22.5 777,-41.5 933,-41.5 933,-22.5 777,-22.5"/>
<text text-anchor="middle" x="855" y="-29.5" font-family="Helvetica,sans-Serif" font-size="10.00">RenderingSystem::renderOthers</text>
</a>
</g>
</g>
<!-- Node2&#45;&gt;Node3 -->
<g id="edge2" class="edge"><title>Node2&#45;&gt;Node3</title>
<path fill="none" stroke="midnightblue" d="M964.338,-45.2782C954.062,-44.0187 943.446,-42.7176 933.062,-41.4449"/>
<polygon fill="midnightblue" stroke="midnightblue" points="964.127,-48.7785 974.479,-46.5211 964.979,-41.8305 964.127,-48.7785"/>
</g>
<!-- Node4 -->
<g id="node4" class="node"><title>Node4</title>
<g id="a_node4"><a xlink:href="../../d8/d31/class_rendering_system.html#a9f1ec48fdfa79ddc55421b6014fdb9c6" target="_top" xlink:title=" ">
<polygon fill="white" stroke="black" points="603,-22.5 603,-41.5 741,-41.5 741,-22.5 603,-22.5"/>
<text text-anchor="middle" x="672" y="-29.5" font-family="Helvetica,sans-Serif" font-size="10.00">RenderingSystem::renderAll</text>
</a>
</g>
</g>
<!-- Node3&#45;&gt;Node4 -->
<g id="edge3" class="edge"><title>Node3&#45;&gt;Node4</title>
<path fill="none" stroke="midnightblue" d="M766.854,-32C758.198,-32 749.5,-32 741.08,-32"/>
<polygon fill="midnightblue" stroke="midnightblue" points="766.977,-35.5001 776.977,-32 766.977,-28.5001 766.977,-35.5001"/>
</g>
<!-- Node5 -->
<g id="node5" class="node"><title>Node5</title>
<g id="a_node5"><a xlink:href="../../d8/d31/class_rendering_system.html#ae6a25f6b28ebe40f08916d9eadc95ac2" target="_top" xlink:title=" ">
<polygon fill="white" stroke="black" points="440,-22.5 440,-41.5 567,-41.5 567,-22.5 440,-22.5"/>
<text text-anchor="middle" x="503.5" y="-29.5" font-family="Helvetica,sans-Serif" font-size="10.00">RenderingSystem::render</text>
</a>
</g>
</g>
<!-- Node4&#45;&gt;Node5 -->
<g id="edge4" class="edge"><title>Node4&#45;&gt;Node5</title>
<path fill="none" stroke="midnightblue" d="M592.795,-32C584.227,-32 575.588,-32 567.242,-32"/>
<polygon fill="midnightblue" stroke="midnightblue" points="592.798,-35.5001 602.798,-32 592.798,-28.5001 592.798,-35.5001"/>
</g>
<!-- Node6 -->
<g id="node6" class="node"><title>Node6</title>
<g id="a_node6"><a xlink:href="../../dd/d1f/class_game.html#a15ddd769261d923827a3cdf41499c843" target="_top" xlink:title=" ">
<polygon fill="white" stroke="black" points="328,-22.5 328,-41.5 404,-41.5 404,-22.5 328,-22.5"/>
<text text-anchor="middle" x="366" y="-29.5" font-family="Helvetica,sans-Serif" font-size="10.00">Game::render</text>
</a>
</g>
</g>
<!-- Node5&#45;&gt;Node6 -->
<g id="edge5" class="edge"><title>Node5&#45;&gt;Node6</title>
<path fill="none" stroke="midnightblue" d="M429.877,-32C421.008,-32 412.25,-32 404.216,-32"/>
<polygon fill="midnightblue" stroke="midnightblue" points="429.906,-35.5001 439.906,-32 429.906,-28.5001 429.906,-35.5001"/>
</g>
<!-- Node7 -->
<g id="node7" class="node"><title>Node7</title>
<g id="a_node7"><a xlink:href="../../de/d6b/class_application.html#a9ac99d97ee1cc814298a2f2388bde835" target="_top" xlink:title=" ">
<polygon fill="white" stroke="black" points="194,-22.5 194,-41.5 292,-41.5 292,-22.5 194,-22.5"/>
<text text-anchor="middle" x="243" y="-29.5" font-family="Helvetica,sans-Serif" font-size="10.00">Application::render</text>
</a>
</g>
</g>
<!-- Node6&#45;&gt;Node7 -->
<g id="edge6" class="edge"><title>Node6&#45;&gt;Node7</title>
<path fill="none" stroke="midnightblue" d="M317.684,-32C309.282,-32 300.524,-32 292.101,-32"/>
<polygon fill="midnightblue" stroke="midnightblue" points="317.709,-35.5001 327.709,-32 317.709,-28.5001 317.709,-35.5001"/>
</g>
<!-- Node8 -->
<g id="node8" class="node"><title>Node8</title>
<g id="a_node8"><a xlink:href="../../de/d6b/class_application.html#a68965449404743bf1add056784d6cf81" target="_top" xlink:title=" ">
<polygon fill="white" stroke="black" points="74,-22.5 74,-41.5 158,-41.5 158,-22.5 74,-22.5"/>
<text text-anchor="middle" x="116" y="-29.5" font-family="Helvetica,sans-Serif" font-size="10.00">Application::run</text>
</a>
</g>
</g>
<!-- Node7&#45;&gt;Node8 -->
<g id="edge7" class="edge"><title>Node7&#45;&gt;Node8</title>
<path fill="none" stroke="midnightblue" d="M183.411,-32C174.926,-32 166.343,-32 158.294,-32"/>
<polygon fill="midnightblue" stroke="midnightblue" points="183.672,-35.5001 193.672,-32 183.672,-28.5001 183.672,-35.5001"/>
</g>
<!-- Node9 -->
<g id="node9" class="node"><title>Node9</title>
<g id="a_node9"><a xlink:href="../../d5/d12/_main_8cpp.html#a0ddf1224851353fc92bfbff6f499fa97" target="_top" xlink:title=" ">
<polygon fill="white" stroke="black" points="0,-22.5 0,-41.5 38,-41.5 38,-22.5 0,-22.5"/>
<text text-anchor="middle" x="19" y="-29.5" font-family="Helvetica,sans-Serif" font-size="10.00">main</text>
</a>
</g>
</g>
<!-- Node8&#45;&gt;Node9 -->
<g id="edge8" class="edge"><title>Node8&#45;&gt;Node9</title>
<path fill="none" stroke="midnightblue" d="M63.6206,-32C54.5384,-32 45.6466,-32 38.2853,-32"/>
<polygon fill="midnightblue" stroke="midnightblue" points="63.8842,-35.5001 73.8841,-32 63.8841,-28.5001 63.8842,-35.5001"/>
</g>
<!-- Node10&#45;&gt;Node3 -->
<g id="edge10" class="edge"><title>Node10&#45;&gt;Node3</title>
<path fill="none" stroke="midnightblue" d="M958.953,-19.3819C950.385,-20.432 941.652,-21.5022 933.078,-22.5531"/>
<polygon fill="midnightblue" stroke="midnightblue" points="959.416,-22.8513 968.916,-18.1607 958.564,-15.9033 959.416,-22.8513"/>
</g>
</g>
</svg>
