<?xml version="1.0" encoding="UTF-8" standalone="no"?>
<!DOCTYPE svg PUBLIC "-//W3C//DTD SVG 1.1//EN"
 "http://www.w3.org/Graphics/SVG/1.1/DTD/svg11.dtd">
<!-- Generated by graphviz version 2.38.0 (20140413.2041)
 -->
<!-- Title: Glyph::getWidth Pages: 1 -->
<svg width="1522pt" height="94pt"
 viewBox="0.00 0.00 1522.00 93.50" xmlns="http://www.w3.org/2000/svg" xmlns:xlink="http://www.w3.org/1999/xlink">
<g id="graph0" class="graph" transform="scale(1 1) rotate(0) translate(4 89.5)">
<title>Glyph::getWidth</title>
<polygon fill="white" stroke="none" points="-4,4 -4,-89.5 1518,-89.5 1518,4 -4,4"/>
<!-- Node1 -->
<g id="node1" class="node"><title>Node1</title>
<g id="a_node1"><a xlink:title=" ">
<polygon fill="#bfbfbf" stroke="black" points="1427,-19.5 1427,-38.5 1514,-38.5 1514,-19.5 1427,-19.5"/>
<text text-anchor="middle" x="1470.5" y="-26.5" font-family="Helvetica,sans-Serif" font-size="10.00">Glyph::getWidth</text>
</a>
</g>
</g>
<!-- Node2 -->
<g id="node2" class="node"><title>Node2</title>
<g id="a_node2"><a xlink:href="../../dd/df5/class_gui_string.html#a2de41389b7f44064a13193fc8d8f7822" target="_top" xlink:title=" ">
<polygon fill="white" stroke="black" points="1271,-38.5 1271,-57.5 1386,-57.5 1386,-38.5 1271,-38.5"/>
<text text-anchor="middle" x="1328.5" y="-45.5" font-family="Helvetica,sans-Serif" font-size="10.00">GuiString::mainRender</text>
</a>
</g>
</g>
<!-- Node1&#45;&gt;Node2 -->
<g id="edge1" class="edge"><title>Node1&#45;&gt;Node2</title>
<path fill="none" stroke="midnightblue" d="M1416.6,-36.1799C1406.66,-37.5281 1396.24,-38.9427 1386.19,-40.3058"/>
<polygon fill="midnightblue" stroke="midnightblue" points="1417.3,-39.617 1426.73,-34.8039 1416.35,-32.6806 1417.3,-39.617"/>
</g>
<!-- Node13 -->
<g id="node13" class="node"><title>Node13</title>
<g id="a_node13"><a xlink:href="../../dd/d84/class_gui_text_character.html#a807cfea698c6d8741d95e251230a5427" target="_top" xlink:title=" ">
<polygon fill="white" stroke="black" points="1266,-0.5 1266,-19.5 1391,-19.5 1391,-0.5 1266,-0.5"/>
<text text-anchor="middle" x="1328.5" y="-7.5" font-family="Helvetica,sans-Serif" font-size="10.00">GuiTextCharacter::render</text>
</a>
</g>
</g>
<!-- Node1&#45;&gt;Node13 -->
<g id="edge13" class="edge"><title>Node1&#45;&gt;Node13</title>
<path fill="none" stroke="midnightblue" d="M1416.73,-21.8381C1408.35,-20.7015 1399.63,-19.5172 1391.07,-18.3561"/>
<polygon fill="midnightblue" stroke="midnightblue" points="1416.35,-25.3194 1426.73,-23.1961 1417.3,-18.383 1416.35,-25.3194"/>
</g>
<!-- Node3 -->
<g id="node3" class="node"><title>Node3</title>
<g id="a_node3"><a xlink:href="../../dd/df5/class_gui_string.html#ad0f15cbdb97efa9caa42cf9f3a6b4314" target="_top" xlink:title=" ">
<polygon fill="white" stroke="black" points="1140,-38.5 1140,-57.5 1230,-57.5 1230,-38.5 1140,-38.5"/>
<text text-anchor="middle" x="1185" y="-45.5" font-family="Helvetica,sans-Serif" font-size="10.00">GuiString::render</text>
</a>
</g>
</g>
<!-- Node2&#45;&gt;Node3 -->
<g id="edge2" class="edge"><title>Node2&#45;&gt;Node3</title>
<path fill="none" stroke="midnightblue" d="M1260.51,-48C1250.19,-48 1239.77,-48 1230.12,-48"/>
<polygon fill="midnightblue" stroke="midnightblue" points="1260.76,-51.5001 1270.76,-48 1260.76,-44.5001 1260.76,-51.5001"/>
</g>
<!-- Node4 -->
<g id="node4" class="node"><title>Node4</title>
<g id="a_node4"><a xlink:href="../../d3/d85/class_display_statistics_system.html#a23af17c7454c87306f0ff65c1896e161" target="_top" xlink:title=" ">
<polygon fill="white" stroke="black" points="974.5,-55 974.5,-85 1098.5,-85 1098.5,-55 974.5,-55"/>
<text text-anchor="start" x="982.5" y="-73" font-family="Helvetica,sans-Serif" font-size="10.00">DisplayStatisticsSystem</text>
<text text-anchor="middle" x="1036.5" y="-62" font-family="Helvetica,sans-Serif" font-size="10.00">::render</text>
</a>
</g>
</g>
<!-- Node3&#45;&gt;Node4 -->
<g id="edge3" class="edge"><title>Node3&#45;&gt;Node4</title>
<path fill="none" stroke="midnightblue" d="M1129.75,-56.147C1119.65,-57.6641 1109.02,-59.2591 1098.73,-60.8051"/>
<polygon fill="midnightblue" stroke="midnightblue" points="1130.28,-59.6068 1139.65,-54.6604 1129.24,-52.6844 1130.28,-59.6068"/>
</g>
<!-- Node12 -->
<g id="node12" class="node"><title>Node12</title>
<g id="a_node12"><a xlink:href="../../d7/dd6/class_pause_menu_system.html#a275e625e495889f598a67bdffb2ffd4f" target="_top" xlink:title=" ">
<polygon fill="white" stroke="black" points="969,-16.5 969,-35.5 1104,-35.5 1104,-16.5 969,-16.5"/>
<text text-anchor="middle" x="1036.5" y="-23.5" font-family="Helvetica,sans-Serif" font-size="10.00">PauseMenuSystem::render</text>
</a>
</g>
</g>
<!-- Node3&#45;&gt;Node12 -->
<g id="edge11" class="edge"><title>Node3&#45;&gt;Node12</title>
<path fill="none" stroke="midnightblue" d="M1129.68,-39.8425C1120.3,-38.4343 1110.48,-36.9594 1100.89,-35.5189"/>
<polygon fill="midnightblue" stroke="midnightblue" points="1129.24,-43.3156 1139.65,-41.3396 1130.28,-36.3932 1129.24,-43.3156"/>
</g>
<!-- Node5 -->
<g id="node5" class="node"><title>Node5</title>
<g id="a_node5"><a xlink:href="../../d8/d31/class_rendering_system.html#ad5115644b3d0a1df6446a610c683a31e" target="_top" xlink:title=" ">
<polygon fill="white" stroke="black" points="777,-38.5 777,-57.5 933,-57.5 933,-38.5 777,-38.5"/>
<text text-anchor="middle" x="855" y="-45.5" font-family="Helvetica,sans-Serif" font-size="10.00">RenderingSystem::renderOthers</text>
</a>
</g>
</g>
<!-- Node4&#45;&gt;Node5 -->
<g id="edge4" class="edge"><title>Node4&#45;&gt;Node5</title>
<path fill="none" stroke="midnightblue" d="M964.338,-61.2782C954.062,-60.0187 943.446,-58.7176 933.062,-57.4449"/>
<polygon fill="midnightblue" stroke="midnightblue" points="964.127,-64.7785 974.479,-62.5211 964.979,-57.8305 964.127,-64.7785"/>
</g>
<!-- Node6 -->
<g id="node6" class="node"><title>Node6</title>
<g id="a_node6"><a xlink:href="../../d8/d31/class_rendering_system.html#a9f1ec48fdfa79ddc55421b6014fdb9c6" target="_top" xlink:title=" ">
<polygon fill="white" stroke="black" points="603,-38.5 603,-57.5 741,-57.5 741,-38.5 603,-38.5"/>
<text text-anchor="middle" x="672" y="-45.5" font-family="Helvetica,sans-Serif" font-size="10.00">RenderingSystem::renderAll</text>
</a>
</g>
</g>
<!-- Node5&#45;&gt;Node6 -->
<g id="edge5" class="edge"><title>Node5&#45;&gt;Node6</title>
<path fill="none" stroke="midnightblue" d="M766.854,-48C758.198,-48 749.5,-48 741.08,-48"/>
<polygon fill="midnightblue" stroke="midnightblue" points="766.977,-51.5001 776.977,-48 766.977,-44.5001 766.977,-51.5001"/>
</g>
<!-- Node7 -->
<g id="node7" class="node"><title>Node7</title>
<g id="a_node7"><a xlink:href="../../d8/d31/class_rendering_system.html#ae6a25f6b28ebe40f08916d9eadc95ac2" target="_top" xlink:title=" ">
<polygon fill="white" stroke="black" points="440,-38.5 440,-57.5 567,-57.5 567,-38.5 440,-38.5"/>
<text text-anchor="middle" x="503.5" y="-45.5" font-family="Helvetica,sans-Serif" font-size="10.00">RenderingSystem::render</text>
</a>
</g>
</g>
<!-- Node6&#45;&gt;Node7 -->
<g id="edge6" class="edge"><title>Node6&#45;&gt;Node7</title>
<path fill="none" stroke="midnightblue" d="M592.795,-48C584.227,-48 575.588,-48 567.242,-48"/>
<polygon fill="midnightblue" stroke="midnightblue" points="592.798,-51.5001 602.798,-48 592.798,-44.5001 592.798,-51.5001"/>
</g>
<!-- Node8 -->
<g id="node8" class="node"><title>Node8</title>
<g id="a_node8"><a xlink:href="../../dd/d1f/class_game.html#a15ddd769261d923827a3cdf41499c843" target="_top" xlink:title=" ">
<polygon fill="white" stroke="black" points="328,-38.5 328,-57.5 404,-57.5 404,-38.5 328,-38.5"/>
<text text-anchor="middle" x="366" y="-45.5" font-family="Helvetica,sans-Serif" font-size="10.00">Game::render</text>
</a>
</g>
</g>
<!-- Node7&#45;&gt;Node8 -->
<g id="edge7" class="edge"><title>Node7&#45;&gt;Node8</title>
<path fill="none" stroke="midnightblue" d="M429.877,-48C421.008,-48 412.25,-48 404.216,-48"/>
<polygon fill="midnightblue" stroke="midnightblue" points="429.906,-51.5001 439.906,-48 429.906,-44.5001 429.906,-51.5001"/>
</g>
<!-- Node9 -->
<g id="node9" class="node"><title>Node9</title>
<g id="a_node9"><a xlink:href="../../de/d6b/class_application.html#a9ac99d97ee1cc814298a2f2388bde835" target="_top" xlink:title=" ">
<polygon fill="white" stroke="black" points="194,-38.5 194,-57.5 292,-57.5 292,-38.5 194,-38.5"/>
<text text-anchor="middle" x="243" y="-45.5" font-family="Helvetica,sans-Serif" font-size="10.00">Application::render</text>
</a>
</g>
</g>
<!-- Node8&#45;&gt;Node9 -->
<g id="edge8" class="edge"><title>Node8&#45;&gt;Node9</title>
<path fill="none" stroke="midnightblue" d="M317.684,-48C309.282,-48 300.524,-48 292.101,-48"/>
<polygon fill="midnightblue" stroke="midnightblue" points="317.709,-51.5001 327.709,-48 317.709,-44.5001 317.709,-51.5001"/>
</g>
<!-- Node10 -->
<g id="node10" class="node"><title>Node10</title>
<g id="a_node10"><a xlink:href="../../de/d6b/class_application.html#a68965449404743bf1add056784d6cf81" target="_top" xlink:title=" ">
<polygon fill="white" stroke="black" points="74,-38.5 74,-57.5 158,-57.5 158,-38.5 74,-38.5"/>
<text text-anchor="middle" x="116" y="-45.5" font-family="Helvetica,sans-Serif" font-size="10.00">Application::run</text>
</a>
</g>
</g>
<!-- Node9&#45;&gt;Node10 -->
<g id="edge9" class="edge"><title>Node9&#45;&gt;Node10</title>
<path fill="none" stroke="midnightblue" d="M183.411,-48C174.926,-48 166.343,-48 158.294,-48"/>
<polygon fill="midnightblue" stroke="midnightblue" points="183.672,-51.5001 193.672,-48 183.672,-44.5001 183.672,-51.5001"/>
</g>
<!-- Node11 -->
<g id="node11" class="node"><title>Node11</title>
<g id="a_node11"><a xlink:href="../../d5/d12/_main_8cpp.html#a0ddf1224851353fc92bfbff6f499fa97" target="_top" xlink:title=" ">
<polygon fill="white" stroke="black" points="0,-38.5 0,-57.5 38,-57.5 38,-38.5 0,-38.5"/>
<text text-anchor="middle" x="19" y="-45.5" font-family="Helvetica,sans-Serif" font-size="10.00">main</text>
</a>
</g>
</g>
<!-- Node10&#45;&gt;Node11 -->
<g id="edge10" class="edge"><title>Node10&#45;&gt;Node11</title>
<path fill="none" stroke="midnightblue" d="M63.6206,-48C54.5384,-48 45.6466,-48 38.2853,-48"/>
<polygon fill="midnightblue" stroke="midnightblue" points="63.8842,-51.5001 73.8841,-48 63.8841,-44.5001 63.8842,-51.5001"/>
</g>
<!-- Node12&#45;&gt;Node5 -->
<g id="edge12" class="edge"><title>Node12&#45;&gt;Node5</title>
<path fill="none" stroke="midnightblue" d="M958.953,-35.3819C950.385,-36.432 941.652,-37.5022 933.078,-38.5531"/>
<polygon fill="midnightblue" stroke="midnightblue" points="959.416,-38.8513 968.916,-34.1607 958.564,-31.9033 959.416,-38.8513"/>
</g>
</g>
</svg>
