<?xml version="1.0" encoding="UTF-8" standalone="no"?>
<!DOCTYPE svg PUBLIC "-//W3C//DTD SVG 1.1//EN"
 "http://www.w3.org/Graphics/SVG/1.1/DTD/svg11.dtd">
<!-- Generated by graphviz version 2.38.0 (20140413.2041)
 -->
<!-- Title: Glyph::getHeight Pages: 1 -->
<!--zoomable 115 -->
<svg id="main" version="1.1" xmlns="http://www.w3.org/2000/svg" xmlns:xlink="http://www.w3.org/1999/xlink" xml:space="preserve" onload="init(evt)">
<style type="text/css"><![CDATA[
.edge:hover path { stroke: red; }
.edge:hover polygon { stroke: red; fill: red; }
]]></style>
<script type="text/javascript"><![CDATA[
var edges = document.getElementsByTagName('g');
if (edges && edges.length) {
  for (var i=0;i<edges.length;i++) {
    if (edges[i].id.substr(0,4)=='edge') {
      edges[i].setAttribute('class','edge');
    }
  }
}
]]></script>
        <defs>
                <circle id="rim" cx="0" cy="0" r="7"/>
                <circle id="rim2" cx="0" cy="0" r="3.5"/>
                <g id="zoomPlus">
                        <use xlink:href="#rim" fill="#404040">
                                <set attributeName="fill" to="#808080" begin="zoomplus.mouseover" end="zoomplus.mouseout"/>
                        </use>
                        <path d="M-4,0h8M0,-4v8" fill="none" stroke="white" stroke-width="1.5" pointer-events="none"/>
                </g>
                <g id="zoomMin">
                        <use xlink:href="#rim" fill="#404040">
                                <set attributeName="fill" to="#808080" begin="zoomminus.mouseover" end="zoomminus.mouseout"/>
                        </use>
                        <path d="M-4,0h8" fill="none" stroke="white" stroke-width="1.5" pointer-events="none"/>
                </g>
                <g id="dirArrow">
                        <path fill="none" stroke="white" stroke-width="1.5" d="M0,-3.0v7 M-2.5,-0.5L0,-3.0L2.5,-0.5"/>
                </g>
               <g id="resetDef">
                       <use xlink:href="#rim2" fill="#404040">
                               <set attributeName="fill" to="#808080" begin="reset.mouseover" end="reset.mouseout"/>
                       </use>
               </g>
        </defs>

<script type="text/javascript">
var viewWidth = 1524;
var viewHeight = 115;
var sectionId = 'dynsection-0';
</script>
<script xlink:href="../../svgpan.js"/>
<svg id="graph" class="graph">
<g id="viewport">
<title>Glyph::getHeight</title>
<polygon fill="white" stroke="none" points="-4,4 -4,-111 1520,-111 1520,4 -4,4"/>
<!-- Node1 -->
<g id="node1" class="node"><title>Node1</title>
<g id="a_node1"><a xlink:title=" ">
<polygon fill="#bfbfbf" stroke="black" points="1427,-47.5 1427,-66.5 1516,-66.5 1516,-47.5 1427,-47.5"/>
<text text-anchor="middle" x="1471.5" y="-54.5" font-family="Helvetica,sans-Serif" font-size="10.00">Glyph::getHeight</text>
</a>
</g>
</g>
<!-- Node2 -->
<g id="node2" class="node"><title>Node2</title>
<g id="a_node2"><a xlink:href="../../db/d74/class_text_map.html#aefa9200c39ca535748d6c95f66d8eb9f" target="_top" xlink:title=" ">
<polygon fill="white" stroke="black" points="1275.5,-86.5 1275.5,-105.5 1381.5,-105.5 1381.5,-86.5 1275.5,-86.5"/>
<text text-anchor="middle" x="1328.5" y="-93.5" font-family="Helvetica,sans-Serif" font-size="10.00">TextMap::createMap</text>
</a>
</g>
</g>
<!-- Node1&#45;&gt;Node2 -->
<g id="edge1" class="edge"><title>Node1&#45;&gt;Node2</title>
<path fill="none" stroke="midnightblue" d="M1426.18,-69.2597C1406.15,-74.799 1382.84,-81.2468 1364.13,-86.4229"/>
<polygon fill="midnightblue" stroke="midnightblue" points="1427.3,-72.5797 1436.01,-66.5405 1425.44,-65.8331 1427.3,-72.5797"/>
</g>
<!-- Node7 -->
<g id="node7" class="node"><title>Node7</title>
<g id="a_node7"><a xlink:href="../../dd/df5/class_gui_string.html#a2de41389b7f44064a13193fc8d8f7822" target="_top" xlink:title=" ">
<polygon fill="white" stroke="black" points="1271,-47.5 1271,-66.5 1386,-66.5 1386,-47.5 1271,-47.5"/>
<text text-anchor="middle" x="1328.5" y="-54.5" font-family="Helvetica,sans-Serif" font-size="10.00">GuiString::mainRender</text>
</a>
</g>
</g>
<!-- Node1&#45;&gt;Node7 -->
<g id="edge6" class="edge"><title>Node1&#45;&gt;Node7</title>
<path fill="none" stroke="midnightblue" d="M1416.48,-57C1406.51,-57 1396.08,-57 1386.04,-57"/>
<polygon fill="midnightblue" stroke="midnightblue" points="1416.66,-60.5001 1426.66,-57 1416.66,-53.5001 1416.66,-60.5001"/>
</g>
<!-- Node16 -->
<g id="node16" class="node"><title>Node16</title>
<g id="a_node16"><a xlink:href="../../dd/d84/class_gui_text_character.html#a807cfea698c6d8741d95e251230a5427" target="_top" xlink:title=" ">
<polygon fill="white" stroke="black" points="1266,-9.5 1266,-28.5 1391,-28.5 1391,-9.5 1266,-9.5"/>
<text text-anchor="middle" x="1328.5" y="-16.5" font-family="Helvetica,sans-Serif" font-size="10.00">GuiTextCharacter::render</text>
</a>
</g>
</g>
<!-- Node1&#45;&gt;Node16 -->
<g id="edge17" class="edge"><title>Node1&#45;&gt;Node16</title>
<path fill="none" stroke="midnightblue" d="M1425.06,-44.7538C1405.63,-39.516 1383.27,-33.4909 1365.07,-28.5859"/>
<polygon fill="midnightblue" stroke="midnightblue" points="1424.35,-48.1882 1434.92,-47.411 1426.18,-41.4293 1424.35,-48.1882"/>
</g>
<!-- Node3 -->
<g id="node3" class="node"><title>Node3</title>
<g id="a_node3"><a xlink:href="../../dd/d1f/class_game.html#a8986a201a654418cefe34ec28af1a22c" target="_top" xlink:title=" ">
<polygon fill="white" stroke="black" points="1143,-87.5 1143,-106.5 1227,-106.5 1227,-87.5 1143,-87.5"/>
<text text-anchor="middle" x="1185" y="-94.5" font-family="Helvetica,sans-Serif" font-size="10.00">Game::initialize</text>
</a>
</g>
</g>
<!-- Node2&#45;&gt;Node3 -->
<g id="edge2" class="edge"><title>Node2&#45;&gt;Node3</title>
<path fill="none" stroke="midnightblue" d="M1265,-96.4417C1252.13,-96.5326 1238.89,-96.6262 1227.02,-96.7101"/>
<polygon fill="midnightblue" stroke="midnightblue" points="1265.24,-99.9402 1275.21,-96.3695 1265.19,-92.9404 1265.24,-99.9402"/>
</g>
<!-- Node4 -->
<g id="node4" class="node"><title>Node4</title>
<g id="a_node4"><a xlink:href="../../de/d6b/class_application.html#af431bce25717b04a78d4d0940ed6a92c" target="_top" xlink:title=" ">
<polygon fill="white" stroke="black" points="802,-87.5 802,-106.5 908,-106.5 908,-87.5 802,-87.5"/>
<text text-anchor="middle" x="855" y="-94.5" font-family="Helvetica,sans-Serif" font-size="10.00">Application::initialize</text>
</a>
</g>
</g>
<!-- Node3&#45;&gt;Node4 -->
<g id="edge3" class="edge"><title>Node3&#45;&gt;Node4</title>
<path fill="none" stroke="midnightblue" d="M1132.59,-97C1071.36,-97 969.656,-97 908.118,-97"/>
<polygon fill="midnightblue" stroke="midnightblue" points="1132.79,-100.5 1142.79,-97 1132.79,-93.5001 1132.79,-100.5"/>
</g>
<!-- Node5 -->
<g id="node5" class="node"><title>Node5</title>
<g id="a_node5"><a xlink:href="../../de/d6b/class_application.html#a68965449404743bf1add056784d6cf81" target="_top" xlink:title=" ">
<polygon fill="white" stroke="black" points="74,-65.5 74,-84.5 158,-84.5 158,-65.5 74,-65.5"/>
<text text-anchor="middle" x="116" y="-72.5" font-family="Helvetica,sans-Serif" font-size="10.00">Application::run</text>
</a>
</g>
</g>
<!-- Node4&#45;&gt;Node5 -->
<g id="edge4" class="edge"><title>Node4&#45;&gt;Node5</title>
<path fill="none" stroke="midnightblue" d="M791.503,-96.1404C721.579,-95.2539 604.927,-94 504.5,-94 504.5,-94 504.5,-94 365,-94 292.023,-94 207.318,-85.7197 158.174,-80.0917"/>
<polygon fill="midnightblue" stroke="midnightblue" points="791.85,-99.645 801.894,-96.2738 791.94,-92.6456 791.85,-99.645"/>
</g>
<!-- Node6 -->
<g id="node6" class="node"><title>Node6</title>
<g id="a_node6"><a xlink:href="../../d5/d12/_main_8cpp.html#a0ddf1224851353fc92bfbff6f499fa97" target="_top" xlink:title=" ">
<polygon fill="white" stroke="black" points="0,-65.5 0,-84.5 38,-84.5 38,-65.5 0,-65.5"/>
<text text-anchor="middle" x="19" y="-72.5" font-family="Helvetica,sans-Serif" font-size="10.00">main</text>
</a>
</g>
</g>
<!-- Node5&#45;&gt;Node6 -->
<g id="edge5" class="edge"><title>Node5&#45;&gt;Node6</title>
<path fill="none" stroke="midnightblue" d="M63.6206,-75C54.5384,-75 45.6466,-75 38.2853,-75"/>
<polygon fill="midnightblue" stroke="midnightblue" points="63.8842,-78.5001 73.8841,-75 63.8841,-71.5001 63.8842,-78.5001"/>
</g>
<!-- Node8 -->
<g id="node8" class="node"><title>Node8</title>
<g id="a_node8"><a xlink:href="../../dd/df5/class_gui_string.html#ad0f15cbdb97efa9caa42cf9f3a6b4314" target="_top" xlink:title=" ">
<polygon fill="white" stroke="black" points="1140,-44.5 1140,-63.5 1230,-63.5 1230,-44.5 1140,-44.5"/>
<text text-anchor="middle" x="1185" y="-51.5" font-family="Helvetica,sans-Serif" font-size="10.00">GuiString::render</text>
</a>
</g>
</g>
<!-- Node7&#45;&gt;Node8 -->
<g id="edge7" class="edge"><title>Node7&#45;&gt;Node8</title>
<path fill="none" stroke="midnightblue" d="M1260.51,-55.5798C1250.19,-55.361 1239.77,-55.14 1230.12,-54.9353"/>
<polygon fill="midnightblue" stroke="midnightblue" points="1260.69,-59.0842 1270.76,-55.7971 1260.84,-52.0858 1260.69,-59.0842"/>
</g>
<!-- Node9 -->
<g id="node9" class="node"><title>Node9</title>
<g id="a_node9"><a xlink:href="../../d3/d85/class_display_statistics_system.html#a23af17c7454c87306f0ff65c1896e161" target="_top" xlink:title=" ">
<polygon fill="white" stroke="black" points="974.5,-39 974.5,-69 1098.5,-69 1098.5,-39 974.5,-39"/>
<text text-anchor="start" x="982.5" y="-57" font-family="Helvetica,sans-Serif" font-size="10.00">DisplayStatisticsSystem</text>
<text text-anchor="middle" x="1036.5" y="-46" font-family="Helvetica,sans-Serif" font-size="10.00">::render</text>
</a>
</g>
</g>
<!-- Node8&#45;&gt;Node9 -->
<g id="edge8" class="edge"><title>Node8&#45;&gt;Node9</title>
<path fill="none" stroke="midnightblue" d="M1129.43,-54C1119.42,-54 1108.92,-54 1098.73,-54"/>
<polygon fill="midnightblue" stroke="midnightblue" points="1129.65,-57.5001 1139.65,-54 1129.65,-50.5001 1129.65,-57.5001"/>
</g>
<!-- Node15 -->
<g id="node15" class="node"><title>Node15</title>
<g id="a_node15"><a xlink:href="../../d7/dd6/class_pause_menu_system.html#a275e625e495889f598a67bdffb2ffd4f" target="_top" xlink:title=" ">
<polygon fill="white" stroke="black" points="969,-0.5 969,-19.5 1104,-19.5 1104,-0.5 969,-0.5"/>
<text text-anchor="middle" x="1036.5" y="-7.5" font-family="Helvetica,sans-Serif" font-size="10.00">PauseMenuSystem::render</text>
</a>
</g>
</g>
<!-- Node8&#45;&gt;Node15 -->
<g id="edge15" class="edge"><title>Node8&#45;&gt;Node15</title>
<path fill="none" stroke="midnightblue" d="M1144.14,-41.3318C1131.34,-37.3212 1117.09,-32.9148 1104,-29 1093.42,-25.8349 1081.85,-22.4909 1071.38,-19.5053"/>
<polygon fill="midnightblue" stroke="midnightblue" points="1143.45,-44.7848 1154.04,-44.4465 1145.55,-38.1073 1143.45,-44.7848"/>
</g>
<!-- Node10 -->
<g id="node10" class="node"><title>Node10</title>
<g id="a_node10"><a xlink:href="../../d8/d31/class_rendering_system.html#ad5115644b3d0a1df6446a610c683a31e" target="_top" xlink:title=" ">
<polygon fill="white" stroke="black" points="777,-44.5 777,-63.5 933,-63.5 933,-44.5 777,-44.5"/>
<text text-anchor="middle" x="855" y="-51.5" font-family="Helvetica,sans-Serif" font-size="10.00">RenderingSystem::renderOthers</text>
</a>
</g>
</g>
<!-- Node9&#45;&gt;Node10 -->
<g id="edge9" class="edge"><title>Node9&#45;&gt;Node10</title>
<path fill="none" stroke="midnightblue" d="M964.338,-54C954.062,-54 943.446,-54 933.062,-54"/>
<polygon fill="midnightblue" stroke="midnightblue" points="964.479,-57.5001 974.479,-54 964.479,-50.5001 964.479,-57.5001"/>
</g>
<!-- Node11 -->
<g id="node11" class="node"><title>Node11</title>
<g id="a_node11"><a xlink:href="../../d8/d31/class_rendering_system.html#a9f1ec48fdfa79ddc55421b6014fdb9c6" target="_top" xlink:title=" ">
<polygon fill="white" stroke="black" points="603,-44.5 603,-63.5 741,-63.5 741,-44.5 603,-44.5"/>
<text text-anchor="middle" x="672" y="-51.5" font-family="Helvetica,sans-Serif" font-size="10.00">RenderingSystem::renderAll</text>
</a>
</g>
</g>
<!-- Node10&#45;&gt;Node11 -->
<g id="edge10" class="edge"><title>Node10&#45;&gt;Node11</title>
<path fill="none" stroke="midnightblue" d="M766.854,-54C758.198,-54 749.5,-54 741.08,-54"/>
<polygon fill="midnightblue" stroke="midnightblue" points="766.977,-57.5001 776.977,-54 766.977,-50.5001 766.977,-57.5001"/>
</g>
<!-- Node12 -->
<g id="node12" class="node"><title>Node12</title>
<g id="a_node12"><a xlink:href="../../d8/d31/class_rendering_system.html#ae6a25f6b28ebe40f08916d9eadc95ac2" target="_top" xlink:title=" ">
<polygon fill="white" stroke="black" points="440,-45.5 440,-64.5 567,-64.5 567,-45.5 440,-45.5"/>
<text text-anchor="middle" x="503.5" y="-52.5" font-family="Helvetica,sans-Serif" font-size="10.00">RenderingSystem::render</text>
</a>
</g>
</g>
<!-- Node11&#45;&gt;Node12 -->
<g id="edge11" class="edge"><title>Node11&#45;&gt;Node12</title>
<path fill="none" stroke="midnightblue" d="M592.795,-54.4697C584.227,-54.5212 575.588,-54.573 567.242,-54.6232"/>
<polygon fill="midnightblue" stroke="midnightblue" points="592.819,-57.9697 602.798,-54.4096 592.777,-50.9698 592.819,-57.9697"/>
</g>
<!-- Node13 -->
<g id="node13" class="node"><title>Node13</title>
<g id="a_node13"><a xlink:href="../../dd/d1f/class_game.html#a15ddd769261d923827a3cdf41499c843" target="_top" xlink:title=" ">
<polygon fill="white" stroke="black" points="328,-45.5 328,-64.5 404,-64.5 404,-45.5 328,-45.5"/>
<text text-anchor="middle" x="366" y="-52.5" font-family="Helvetica,sans-Serif" font-size="10.00">Game::render</text>
</a>
</g>
</g>
<!-- Node12&#45;&gt;Node13 -->
<g id="edge12" class="edge"><title>Node12&#45;&gt;Node13</title>
<path fill="none" stroke="midnightblue" d="M429.877,-55C421.008,-55 412.25,-55 404.216,-55"/>
<polygon fill="midnightblue" stroke="midnightblue" points="429.906,-58.5001 439.906,-55 429.906,-51.5001 429.906,-58.5001"/>
</g>
<!-- Node14 -->
<g id="node14" class="node"><title>Node14</title>
<g id="a_node14"><a xlink:href="../../de/d6b/class_application.html#a9ac99d97ee1cc814298a2f2388bde835" target="_top" xlink:title=" ">
<polygon fill="white" stroke="black" points="194,-46.5 194,-65.5 292,-65.5 292,-46.5 194,-46.5"/>
<text text-anchor="middle" x="243" y="-53.5" font-family="Helvetica,sans-Serif" font-size="10.00">Application::render</text>
</a>
</g>
</g>
<!-- Node13&#45;&gt;Node14 -->
<g id="edge13" class="edge"><title>Node13&#45;&gt;Node14</title>
<path fill="none" stroke="midnightblue" d="M317.684,-55.391C309.282,-55.4605 300.524,-55.5329 292.101,-55.6025"/>
<polygon fill="midnightblue" stroke="midnightblue" points="317.738,-58.8908 327.709,-55.3082 317.68,-51.8911 317.738,-58.8908"/>
</g>
<!-- Node14&#45;&gt;Node5 -->
<g id="edge14" class="edge"><title>Node14&#45;&gt;Node5</title>
<path fill="none" stroke="midnightblue" d="M183.691,-64.863C175.114,-66.1666 166.432,-67.4864 158.294,-68.7234"/>
<polygon fill="midnightblue" stroke="midnightblue" points="184.311,-68.309 193.672,-63.3459 183.259,-61.3885 184.311,-68.309"/>
</g>
<!-- Node15&#45;&gt;Node10 -->
<g id="edge16" class="edge"><title>Node15&#45;&gt;Node10</title>
<path fill="none" stroke="midnightblue" d="M986.672,-21.969C957.82,-29.0414 921.788,-37.8736 894.873,-44.4713"/>
<polygon fill="midnightblue" stroke="midnightblue" points="987.672,-25.3276 996.551,-19.5473 986.005,-18.5288 987.672,-25.3276"/>
</g>
</g>
</svg>
        <g id="navigator" transform="translate(0 0)" fill="#404254">
                <rect fill="#f2f5e9" fill-opacity="0.5" stroke="#606060" stroke-width=".5" x="0" y="0" width="60" height="60"/>
                <use id="zoomplus" xlink:href="#zoomPlus" x="17" y="9" onmousedown="handleZoom(evt,'in')"/>
                <use id="zoomminus" xlink:href="#zoomMin" x="42" y="9" onmousedown="handleZoom(evt,'out')"/>
                <use id="reset" xlink:href="#resetDef" x="30" y="36" onmousedown="handleReset()"/>
                <g id="arrowUp" xlink:href="#dirArrow" transform="translate(30 24)" onmousedown="handlePan(0,-1)">
                  <use xlink:href="#rim" fill="#404040">
                        <set attributeName="fill" to="#808080" begin="arrowUp.mouseover" end="arrowUp.mouseout"/>
                  </use>
                  <path fill="none" stroke="white" stroke-width="1.5" d="M0,-3.0v7 M-2.5,-0.5L0,-3.0L2.5,-0.5"/>
                </g>
                <g id="arrowRight" xlink:href="#dirArrow" transform="rotate(90) translate(36 -43)" onmousedown="handlePan(1,0)">
                  <use xlink:href="#rim" fill="#404040">
                        <set attributeName="fill" to="#808080" begin="arrowRight.mouseover" end="arrowRight.mouseout"/>
                  </use>
                  <path fill="none" stroke="white" stroke-width="1.5" d="M0,-3.0v7 M-2.5,-0.5L0,-3.0L2.5,-0.5"/>
                </g>
                <g id="arrowDown" xlink:href="#dirArrow" transform="rotate(180) translate(-30 -48)" onmousedown="handlePan(0,1)">
                  <use xlink:href="#rim" fill="#404040">
                        <set attributeName="fill" to="#808080" begin="arrowDown.mouseover" end="arrowDown.mouseout"/>
                  </use>
                  <path fill="none" stroke="white" stroke-width="1.5" d="M0,-3.0v7 M-2.5,-0.5L0,-3.0L2.5,-0.5"/>
                </g>
                <g id="arrowLeft" xlink:href="#dirArrow" transform="rotate(270) translate(-36 17)" onmousedown="handlePan(-1,0)">
                  <use xlink:href="#rim" fill="#404040">
                        <set attributeName="fill" to="#808080" begin="arrowLeft.mouseover" end="arrowLeft.mouseout"/>
                  </use>
                  <path fill="none" stroke="white" stroke-width="1.5" d="M0,-3.0v7 M-2.5,-0.5L0,-3.0L2.5,-0.5"/>
                </g>
        </g>
        <svg viewBox="0 0 15 15" width="100%" height="30px" preserveAspectRatio="xMaxYMin meet">
         <g id="arrow_out" transform="scale(0.3 0.3)">
          <a xlink:href="struct_glyph_acde78c0f1f504ded10a319581b7ff8cf_icgraph_org.svg" target="_base">
           <rect id="button" ry="5" rx="5" y="6" x="6" height="38" width="38"
                fill="#f2f5e9" fill-opacity="0.5" stroke="#606060" stroke-width="1.0"/>
           <path id="arrow"
             d="M 11.500037,31.436501 C 11.940474,20.09759 22.043105,11.32322 32.158766,21.979434 L 37.068811,17.246167 C 37.068811,17.246167 37.088388,32 37.088388,32 L 22.160133,31.978069 C 22.160133,31.978069 26.997745,27.140456 26.997745,27.140456 C 18.528582,18.264221 13.291696,25.230495 11.500037,31.436501 z"
             style="fill:#404040;"/>
          </a>
         </g>
        </svg>
</svg>
