<?xml version="1.0" encoding="UTF-8" standalone="no"?>
<!DOCTYPE svg PUBLIC "-//W3C//DTD SVG 1.1//EN"
 "http://www.w3.org/Graphics/SVG/1.1/DTD/svg11.dtd">
<!-- Generated by graphviz version 2.38.0 (20140413.2041)
 -->
<!-- Title: src/SkeletalSystem.h Pages: 1 -->
<svg width="340pt" height="140pt"
 viewBox="0.00 0.00 340.00 140.00" xmlns="http://www.w3.org/2000/svg" xmlns:xlink="http://www.w3.org/1999/xlink">
<g id="graph0" class="graph" transform="scale(1 1) rotate(0) translate(4 136)">
<title>src/SkeletalSystem.h</title>
<polygon fill="white" stroke="none" points="-4,4 -4,-136 336,-136 336,4 -4,4"/>
<!-- Node1 -->
<g id="node1" class="node"><title>Node1</title>
<g id="a_node1"><a xlink:title=" ">
<polygon fill="#bfbfbf" stroke="black" points="168,-112.5 168,-131.5 278,-131.5 278,-112.5 168,-112.5"/>
<text text-anchor="middle" x="223" y="-119.5" font-family="Helvetica,sans-Serif" font-size="10.00">src/SkeletalSystem.h</text>
</a>
</g>
</g>
<!-- Node2 -->
<g id="node2" class="node"><title>Node2</title>
<g id="a_node2"><a xlink:href="../../d3/d08/_animation_keys_8h.html" target="_top" xlink:title=" ">
<polygon fill="white" stroke="black" points="68.5,-56.5 68.5,-75.5 159.5,-75.5 159.5,-56.5 68.5,-56.5"/>
<text text-anchor="middle" x="114" y="-63.5" font-family="Helvetica,sans-Serif" font-size="10.00">AnimationKeys.h</text>
</a>
</g>
</g>
<!-- Node1&#45;&gt;Node2 -->
<g id="edge1" class="edge"><title>Node1&#45;&gt;Node2</title>
<path fill="none" stroke="midnightblue" d="M205.487,-112.324C187.928,-103.625 160.669,-90.1202 140.469,-80.113"/>
<polygon fill="midnightblue" stroke="midnightblue" points="141.984,-76.9575 131.469,-75.6545 138.876,-83.23 141.984,-76.9575"/>
</g>
<!-- Node5 -->
<g id="node5" class="node"><title>Node5</title>
<g id="a_node5"><a xlink:title=" ">
<polygon fill="white" stroke="#bfbfbf" points="177.5,-56.5 177.5,-75.5 212.5,-75.5 212.5,-56.5 177.5,-56.5"/>
<text text-anchor="middle" x="195" y="-63.5" font-family="Helvetica,sans-Serif" font-size="10.00">map</text>
</a>
</g>
</g>
<!-- Node1&#45;&gt;Node5 -->
<g id="edge4" class="edge"><title>Node1&#45;&gt;Node5</title>
<path fill="none" stroke="midnightblue" d="M218.376,-112.083C214.544,-104.691 208.976,-93.9533 204.235,-84.8111"/>
<polygon fill="midnightblue" stroke="midnightblue" points="207.248,-83.0175 199.538,-75.7511 201.034,-86.2398 207.248,-83.0175"/>
</g>
<!-- Node6 -->
<g id="node6" class="node"><title>Node6</title>
<g id="a_node6"><a xlink:title=" ">
<polygon fill="white" stroke="#bfbfbf" points="230.5,-56.5 230.5,-75.5 271.5,-75.5 271.5,-56.5 230.5,-56.5"/>
<text text-anchor="middle" x="251" y="-63.5" font-family="Helvetica,sans-Serif" font-size="10.00">string</text>
</a>
</g>
</g>
<!-- Node1&#45;&gt;Node6 -->
<g id="edge5" class="edge"><title>Node1&#45;&gt;Node6</title>
<path fill="none" stroke="midnightblue" d="M227.624,-112.083C231.456,-104.691 237.024,-93.9533 241.765,-84.8111"/>
<polygon fill="midnightblue" stroke="midnightblue" points="244.966,-86.2398 246.462,-75.7511 238.752,-83.0175 244.966,-86.2398"/>
</g>
<!-- Node7 -->
<g id="node7" class="node"><title>Node7</title>
<g id="a_node7"><a xlink:title=" ">
<polygon fill="white" stroke="#bfbfbf" points="290,-56.5 290,-75.5 332,-75.5 332,-56.5 290,-56.5"/>
<text text-anchor="middle" x="311" y="-63.5" font-family="Helvetica,sans-Serif" font-size="10.00">vector</text>
</a>
</g>
</g>
<!-- Node1&#45;&gt;Node7 -->
<g id="edge6" class="edge"><title>Node1&#45;&gt;Node7</title>
<path fill="none" stroke="midnightblue" d="M237.139,-112.324C250.866,-103.9 271.936,-90.9709 288.064,-81.0741"/>
<polygon fill="midnightblue" stroke="midnightblue" points="290.204,-83.8678 296.896,-75.6545 286.543,-77.9016 290.204,-83.8678"/>
</g>
<!-- Node3 -->
<g id="node3" class="node"><title>Node3</title>
<g id="a_node3"><a xlink:title=" ">
<polygon fill="white" stroke="#bfbfbf" points="0,-0.5 0,-19.5 116,-19.5 116,-0.5 0,-0.5"/>
<text text-anchor="middle" x="58" y="-7.5" font-family="Helvetica,sans-Serif" font-size="10.00">glm/gtc/quaternion.hpp</text>
</a>
</g>
</g>
<!-- Node2&#45;&gt;Node3 -->
<g id="edge2" class="edge"><title>Node2&#45;&gt;Node3</title>
<path fill="none" stroke="midnightblue" d="M105.003,-56.324C96.8056,-48.4196 84.4945,-36.5482 74.528,-26.9377"/>
<polygon fill="midnightblue" stroke="midnightblue" points="76.789,-24.2558 67.1611,-19.8339 71.9301,-29.2947 76.789,-24.2558"/>
</g>
<!-- Node4 -->
<g id="node4" class="node"><title>Node4</title>
<g id="a_node4"><a xlink:title=" ">
<polygon fill="white" stroke="#bfbfbf" points="134,-0.5 134,-19.5 208,-19.5 208,-0.5 134,-0.5"/>
<text text-anchor="middle" x="171" y="-7.5" font-family="Helvetica,sans-Serif" font-size="10.00">glm/vec3.hpp</text>
</a>
</g>
</g>
<!-- Node2&#45;&gt;Node4 -->
<g id="edge3" class="edge"><title>Node2&#45;&gt;Node4</title>
<path fill="none" stroke="midnightblue" d="M123.158,-56.324C131.501,-48.4196 144.032,-36.5482 154.177,-26.9377"/>
<polygon fill="midnightblue" stroke="midnightblue" points="156.823,-29.2522 161.675,-19.8339 152.009,-24.1705 156.823,-29.2522"/>
</g>
</g>
</svg>
