<?xml version="1.0" encoding="UTF-8" standalone="no"?>
<!DOCTYPE svg PUBLIC "-//W3C//DTD SVG 1.1//EN"
 "http://www.w3.org/Graphics/SVG/1.1/DTD/svg11.dtd">
<!-- Generated by graphviz version 2.38.0 (20140413.2041)
 -->
<!-- Title: DisplayStatisticsSystem::render Pages: 1 -->
<!--zoomable 154 -->
<svg id="main" version="1.1" xmlns="http://www.w3.org/2000/svg" xmlns:xlink="http://www.w3.org/1999/xlink" xml:space="preserve" onload="init(evt)">
<style type="text/css"><![CDATA[
.edge:hover path { stroke: red; }
.edge:hover polygon { stroke: red; fill: red; }
]]></style>
<script type="text/javascript"><![CDATA[
var edges = document.getElementsByTagName('g');
if (edges && edges.length) {
  for (var i=0;i<edges.length;i++) {
    if (edges[i].id.substr(0,4)=='edge') {
      edges[i].setAttribute('class','edge');
    }
  }
}
]]></script>
        <defs>
                <circle id="rim" cx="0" cy="0" r="7"/>
                <circle id="rim2" cx="0" cy="0" r="3.5"/>
                <g id="zoomPlus">
                        <use xlink:href="#rim" fill="#404040">
                                <set attributeName="fill" to="#808080" begin="zoomplus.mouseover" end="zoomplus.mouseout"/>
                        </use>
                        <path d="M-4,0h8M0,-4v8" fill="none" stroke="white" stroke-width="1.5" pointer-events="none"/>
                </g>
                <g id="zoomMin">
                        <use xlink:href="#rim" fill="#404040">
                                <set attributeName="fill" to="#808080" begin="zoomminus.mouseover" end="zoomminus.mouseout"/>
                        </use>
                        <path d="M-4,0h8" fill="none" stroke="white" stroke-width="1.5" pointer-events="none"/>
                </g>
                <g id="dirArrow">
                        <path fill="none" stroke="white" stroke-width="1.5" d="M0,-3.0v7 M-2.5,-0.5L0,-3.0L2.5,-0.5"/>
                </g>
               <g id="resetDef">
                       <use xlink:href="#rim2" fill="#404040">
                               <set attributeName="fill" to="#808080" begin="reset.mouseover" end="reset.mouseout"/>
                       </use>
               </g>
        </defs>

<script type="text/javascript">
var viewWidth = 587;
var viewHeight = 154;
var sectionId = 'dynsection-1';
</script>
<script xlink:href="../../svgpan.js"/>
<svg id="graph" class="graph">
<g id="viewport">
<title>DisplayStatisticsSystem::render</title>
<polygon fill="white" stroke="none" points="-4,4 -4,-150 583,-150 583,4 -4,4"/>
<!-- Node1 -->
<g id="node1" class="node"><title>Node1</title>
<g id="a_node1"><a xlink:title=" ">
<polygon fill="#bfbfbf" stroke="black" points="0,-61 0,-91 124,-91 124,-61 0,-61"/>
<text text-anchor="start" x="8" y="-79" font-family="Helvetica,sans-Serif" font-size="10.00">DisplayStatisticsSystem</text>
<text text-anchor="middle" x="62" y="-68" font-family="Helvetica,sans-Serif" font-size="10.00">::render</text>
</a>
</g>
</g>
<!-- Node2 -->
<g id="node2" class="node"><title>Node2</title>
<g id="a_node2"><a xlink:href="../../dd/df5/class_gui_string.html#ad0f15cbdb97efa9caa42cf9f3a6b4314" target="_top" xlink:title=" ">
<polygon fill="white" stroke="black" points="160,-66.5 160,-85.5 250,-85.5 250,-66.5 160,-66.5"/>
<text text-anchor="middle" x="205" y="-73.5" font-family="Helvetica,sans-Serif" font-size="10.00">GuiString::render</text>
</a>
</g>
</g>
<!-- Node1&#45;&gt;Node2 -->
<g id="edge1" class="edge"><title>Node1&#45;&gt;Node2</title>
<path fill="none" stroke="midnightblue" d="M124.025,-76C132.597,-76 141.359,-76 149.792,-76"/>
<polygon fill="midnightblue" stroke="midnightblue" points="149.881,-79.5001 159.881,-76 149.881,-72.5001 149.881,-79.5001"/>
</g>
<!-- Node3 -->
<g id="node3" class="node"><title>Node3</title>
<g id="a_node3"><a xlink:href="../../dd/df5/class_gui_string.html#a2de41389b7f44064a13193fc8d8f7822" target="_top" xlink:title=" ">
<polygon fill="white" stroke="black" points="286,-66.5 286,-85.5 401,-85.5 401,-66.5 286,-66.5"/>
<text text-anchor="middle" x="343.5" y="-73.5" font-family="Helvetica,sans-Serif" font-size="10.00">GuiString::mainRender</text>
</a>
</g>
</g>
<!-- Node2&#45;&gt;Node3 -->
<g id="edge2" class="edge"><title>Node2&#45;&gt;Node3</title>
<path fill="none" stroke="midnightblue" d="M250.318,-76C258.487,-76 267.179,-76 275.838,-76"/>
<polygon fill="midnightblue" stroke="midnightblue" points="275.953,-79.5001 285.953,-76 275.953,-72.5001 275.953,-79.5001"/>
</g>
<!-- Node4 -->
<g id="node4" class="node"><title>Node4</title>
<g id="a_node4"><a xlink:href="../../db/d74/class_text_map.html#aa255b018cda98630ea032d99431e5c08" target="_top" xlink:title=" ">
<polygon fill="white" stroke="black" points="458.5,-126.5 458.5,-145.5 557.5,-145.5 557.5,-126.5 458.5,-126.5"/>
<text text-anchor="middle" x="508" y="-133.5" font-family="Helvetica,sans-Serif" font-size="10.00">TextMap::getGlyph</text>
</a>
</g>
</g>
<!-- Node3&#45;&gt;Node4 -->
<g id="edge3" class="edge"><title>Node3&#45;&gt;Node4</title>
<path fill="none" stroke="midnightblue" d="M363.641,-85.5129C382.108,-94.4432 411.011,-107.774 437,-117 443.772,-119.404 451.002,-121.68 458.151,-123.766"/>
<polygon fill="midnightblue" stroke="midnightblue" points="457.223,-127.141 467.798,-126.487 459.123,-120.404 457.223,-127.141"/>
</g>
<!-- Node5 -->
<g id="node5" class="node"><title>Node5</title>
<g id="a_node5"><a xlink:href="../../db/db4/struct_glyph.html#acde78c0f1f504ded10a319581b7ff8cf" target="_top" xlink:title=" ">
<polygon fill="white" stroke="black" points="463.5,-88.5 463.5,-107.5 552.5,-107.5 552.5,-88.5 463.5,-88.5"/>
<text text-anchor="middle" x="508" y="-95.5" font-family="Helvetica,sans-Serif" font-size="10.00">Glyph::getHeight</text>
</a>
</g>
</g>
<!-- Node3&#45;&gt;Node5 -->
<g id="edge4" class="edge"><title>Node3&#45;&gt;Node5</title>
<path fill="none" stroke="midnightblue" d="M401.335,-83.6945C418.161,-85.9725 436.527,-88.459 453.158,-90.7106"/>
<polygon fill="midnightblue" stroke="midnightblue" points="452.88,-94.2048 463.259,-92.0782 453.819,-87.2681 452.88,-94.2048"/>
</g>
<!-- Node6 -->
<g id="node6" class="node"><title>Node6</title>
<g id="a_node6"><a xlink:href="../../db/d74/class_text_map.html#a51dea925ea75100dd8221e9415959baf" target="_top" xlink:title=" ">
<polygon fill="white" stroke="black" points="437,-39 437,-69 579,-69 579,-39 437,-39"/>
<text text-anchor="start" x="445" y="-57" font-family="Helvetica,sans-Serif" font-size="10.00">TextMap::getMaxPixelHeight</text>
<text text-anchor="middle" x="508" y="-46" font-family="Helvetica,sans-Serif" font-size="10.00">OfAllGlyphs</text>
</a>
</g>
</g>
<!-- Node3&#45;&gt;Node6 -->
<g id="edge5" class="edge"><title>Node3&#45;&gt;Node6</title>
<path fill="none" stroke="midnightblue" d="M401.335,-68.3055C409.557,-67.1922 418.148,-66.0292 426.724,-64.8681"/>
<polygon fill="midnightblue" stroke="midnightblue" points="427.322,-68.3191 436.762,-63.5091 426.383,-61.3824 427.322,-68.3191"/>
</g>
<!-- Node7 -->
<g id="node7" class="node"><title>Node7</title>
<g id="a_node7"><a xlink:href="../../db/db4/struct_glyph.html#a838940af793d410d6208d71a8691c24c" target="_top" xlink:title=" ">
<polygon fill="white" stroke="black" points="464.5,-0.5 464.5,-19.5 551.5,-19.5 551.5,-0.5 464.5,-0.5"/>
<text text-anchor="middle" x="508" y="-7.5" font-family="Helvetica,sans-Serif" font-size="10.00">Glyph::getWidth</text>
</a>
</g>
</g>
<!-- Node3&#45;&gt;Node7 -->
<g id="edge6" class="edge"><title>Node3&#45;&gt;Node7</title>
<path fill="none" stroke="midnightblue" d="M361.461,-66.3828C379.696,-56.3277 409.743,-40.5686 437,-30 444.047,-27.2678 451.621,-24.7207 459.091,-22.4214"/>
<polygon fill="midnightblue" stroke="midnightblue" points="460.204,-25.7421 468.799,-19.5467 458.217,-19.0301 460.204,-25.7421"/>
</g>
</g>
</svg>
        <g id="navigator" transform="translate(0 0)" fill="#404254">
                <rect fill="#f2f5e9" fill-opacity="0.5" stroke="#606060" stroke-width=".5" x="0" y="0" width="60" height="60"/>
                <use id="zoomplus" xlink:href="#zoomPlus" x="17" y="9" onmousedown="handleZoom(evt,'in')"/>
                <use id="zoomminus" xlink:href="#zoomMin" x="42" y="9" onmousedown="handleZoom(evt,'out')"/>
                <use id="reset" xlink:href="#resetDef" x="30" y="36" onmousedown="handleReset()"/>
                <g id="arrowUp" xlink:href="#dirArrow" transform="translate(30 24)" onmousedown="handlePan(0,-1)">
                  <use xlink:href="#rim" fill="#404040">
                        <set attributeName="fill" to="#808080" begin="arrowUp.mouseover" end="arrowUp.mouseout"/>
                  </use>
                  <path fill="none" stroke="white" stroke-width="1.5" d="M0,-3.0v7 M-2.5,-0.5L0,-3.0L2.5,-0.5"/>
                </g>
                <g id="arrowRight" xlink:href="#dirArrow" transform="rotate(90) translate(36 -43)" onmousedown="handlePan(1,0)">
                  <use xlink:href="#rim" fill="#404040">
                        <set attributeName="fill" to="#808080" begin="arrowRight.mouseover" end="arrowRight.mouseout"/>
                  </use>
                  <path fill="none" stroke="white" stroke-width="1.5" d="M0,-3.0v7 M-2.5,-0.5L0,-3.0L2.5,-0.5"/>
                </g>
                <g id="arrowDown" xlink:href="#dirArrow" transform="rotate(180) translate(-30 -48)" onmousedown="handlePan(0,1)">
                  <use xlink:href="#rim" fill="#404040">
                        <set attributeName="fill" to="#808080" begin="arrowDown.mouseover" end="arrowDown.mouseout"/>
                  </use>
                  <path fill="none" stroke="white" stroke-width="1.5" d="M0,-3.0v7 M-2.5,-0.5L0,-3.0L2.5,-0.5"/>
                </g>
                <g id="arrowLeft" xlink:href="#dirArrow" transform="rotate(270) translate(-36 17)" onmousedown="handlePan(-1,0)">
                  <use xlink:href="#rim" fill="#404040">
                        <set attributeName="fill" to="#808080" begin="arrowLeft.mouseover" end="arrowLeft.mouseout"/>
                  </use>
                  <path fill="none" stroke="white" stroke-width="1.5" d="M0,-3.0v7 M-2.5,-0.5L0,-3.0L2.5,-0.5"/>
                </g>
        </g>
        <svg viewBox="0 0 15 15" width="100%" height="30px" preserveAspectRatio="xMaxYMin meet">
         <g id="arrow_out" transform="scale(0.3 0.3)">
          <a xlink:href="class_display_statistics_system_a23af17c7454c87306f0ff65c1896e161_cgraph_org.svg" target="_base">
           <rect id="button" ry="5" rx="5" y="6" x="6" height="38" width="38"
                fill="#f2f5e9" fill-opacity="0.5" stroke="#606060" stroke-width="1.0"/>
           <path id="arrow"
             d="M 11.500037,31.436501 C 11.940474,20.09759 22.043105,11.32322 32.158766,21.979434 L 37.068811,17.246167 C 37.068811,17.246167 37.088388,32 37.088388,32 L 22.160133,31.978069 C 22.160133,31.978069 26.997745,27.140456 26.997745,27.140456 C 18.528582,18.264221 13.291696,25.230495 11.500037,31.436501 z"
             style="fill:#404040;"/>
          </a>
         </g>
        </svg>
</svg>
