<?xml version="1.0" encoding="UTF-8" standalone="no"?>
<!DOCTYPE svg PUBLIC "-//W3C//DTD SVG 1.1//EN"
 "http://www.w3.org/Graphics/SVG/1.1/DTD/svg11.dtd">
<!-- Generated by graphviz version 2.38.0 (20140413.2041)
 -->
<!-- Title: DisplayStatisticsSystem::render Pages: 1 -->
<svg width="587pt" height="154pt"
 viewBox="0.00 0.00 587.00 154.00" xmlns="http://www.w3.org/2000/svg" xmlns:xlink="http://www.w3.org/1999/xlink">
<g id="graph0" class="graph" transform="scale(1 1) rotate(0) translate(4 150)">
<title>DisplayStatisticsSystem::render</title>
<polygon fill="white" stroke="none" points="-4,4 -4,-150 583,-150 583,4 -4,4"/>
<!-- Node1 -->
<g id="node1" class="node"><title>Node1</title>
<g id="a_node1"><a xlink:title=" ">
<polygon fill="#bfbfbf" stroke="black" points="0,-61 0,-91 124,-91 124,-61 0,-61"/>
<text text-anchor="start" x="8" y="-79" font-family="Helvetica,sans-Serif" font-size="10.00">DisplayStatisticsSystem</text>
<text text-anchor="middle" x="62" y="-68" font-family="Helvetica,sans-Serif" font-size="10.00">::render</text>
</a>
</g>
</g>
<!-- Node2 -->
<g id="node2" class="node"><title>Node2</title>
<g id="a_node2"><a xlink:href="../../dd/df5/class_gui_string.html#ad0f15cbdb97efa9caa42cf9f3a6b4314" target="_top" xlink:title=" ">
<polygon fill="white" stroke="black" points="160,-66.5 160,-85.5 250,-85.5 250,-66.5 160,-66.5"/>
<text text-anchor="middle" x="205" y="-73.5" font-family="Helvetica,sans-Serif" font-size="10.00">GuiString::render</text>
</a>
</g>
</g>
<!-- Node1&#45;&gt;Node2 -->
<g id="edge1" class="edge"><title>Node1&#45;&gt;Node2</title>
<path fill="none" stroke="midnightblue" d="M124.025,-76C132.597,-76 141.359,-76 149.792,-76"/>
<polygon fill="midnightblue" stroke="midnightblue" points="149.881,-79.5001 159.881,-76 149.881,-72.5001 149.881,-79.5001"/>
</g>
<!-- Node3 -->
<g id="node3" class="node"><title>Node3</title>
<g id="a_node3"><a xlink:href="../../dd/df5/class_gui_string.html#a2de41389b7f44064a13193fc8d8f7822" target="_top" xlink:title=" ">
<polygon fill="white" stroke="black" points="286,-66.5 286,-85.5 401,-85.5 401,-66.5 286,-66.5"/>
<text text-anchor="middle" x="343.5" y="-73.5" font-family="Helvetica,sans-Serif" font-size="10.00">GuiString::mainRender</text>
</a>
</g>
</g>
<!-- Node2&#45;&gt;Node3 -->
<g id="edge2" class="edge"><title>Node2&#45;&gt;Node3</title>
<path fill="none" stroke="midnightblue" d="M250.318,-76C258.487,-76 267.179,-76 275.838,-76"/>
<polygon fill="midnightblue" stroke="midnightblue" points="275.953,-79.5001 285.953,-76 275.953,-72.5001 275.953,-79.5001"/>
</g>
<!-- Node4 -->
<g id="node4" class="node"><title>Node4</title>
<g id="a_node4"><a xlink:href="../../db/d74/class_text_map.html#aa255b018cda98630ea032d99431e5c08" target="_top" xlink:title=" ">
<polygon fill="white" stroke="black" points="458.5,-126.5 458.5,-145.5 557.5,-145.5 557.5,-126.5 458.5,-126.5"/>
<text text-anchor="middle" x="508" y="-133.5" font-family="Helvetica,sans-Serif" font-size="10.00">TextMap::getGlyph</text>
</a>
</g>
</g>
<!-- Node3&#45;&gt;Node4 -->
<g id="edge3" class="edge"><title>Node3&#45;&gt;Node4</title>
<path fill="none" stroke="midnightblue" d="M363.641,-85.5129C382.108,-94.4432 411.011,-107.774 437,-117 443.772,-119.404 451.002,-121.68 458.151,-123.766"/>
<polygon fill="midnightblue" stroke="midnightblue" points="457.223,-127.141 467.798,-126.487 459.123,-120.404 457.223,-127.141"/>
</g>
<!-- Node5 -->
<g id="node5" class="node"><title>Node5</title>
<g id="a_node5"><a xlink:href="../../db/db4/struct_glyph.html#acde78c0f1f504ded10a319581b7ff8cf" target="_top" xlink:title=" ">
<polygon fill="white" stroke="black" points="463.5,-88.5 463.5,-107.5 552.5,-107.5 552.5,-88.5 463.5,-88.5"/>
<text text-anchor="middle" x="508" y="-95.5" font-family="Helvetica,sans-Serif" font-size="10.00">Glyph::getHeight</text>
</a>
</g>
</g>
<!-- Node3&#45;&gt;Node5 -->
<g id="edge4" class="edge"><title>Node3&#45;&gt;Node5</title>
<path fill="none" stroke="midnightblue" d="M401.335,-83.6945C418.161,-85.9725 436.527,-88.459 453.158,-90.7106"/>
<polygon fill="midnightblue" stroke="midnightblue" points="452.88,-94.2048 463.259,-92.0782 453.819,-87.2681 452.88,-94.2048"/>
</g>
<!-- Node6 -->
<g id="node6" class="node"><title>Node6</title>
<g id="a_node6"><a xlink:href="../../db/d74/class_text_map.html#a51dea925ea75100dd8221e9415959baf" target="_top" xlink:title=" ">
<polygon fill="white" stroke="black" points="437,-39 437,-69 579,-69 579,-39 437,-39"/>
<text text-anchor="start" x="445" y="-57" font-family="Helvetica,sans-Serif" font-size="10.00">TextMap::getMaxPixelHeight</text>
<text text-anchor="middle" x="508" y="-46" font-family="Helvetica,sans-Serif" font-size="10.00">OfAllGlyphs</text>
</a>
</g>
</g>
<!-- Node3&#45;&gt;Node6 -->
<g id="edge5" class="edge"><title>Node3&#45;&gt;Node6</title>
<path fill="none" stroke="midnightblue" d="M401.335,-68.3055C409.557,-67.1922 418.148,-66.0292 426.724,-64.8681"/>
<polygon fill="midnightblue" stroke="midnightblue" points="427.322,-68.3191 436.762,-63.5091 426.383,-61.3824 427.322,-68.3191"/>
</g>
<!-- Node7 -->
<g id="node7" class="node"><title>Node7</title>
<g id="a_node7"><a xlink:href="../../db/db4/struct_glyph.html#a838940af793d410d6208d71a8691c24c" target="_top" xlink:title=" ">
<polygon fill="white" stroke="black" points="464.5,-0.5 464.5,-19.5 551.5,-19.5 551.5,-0.5 464.5,-0.5"/>
<text text-anchor="middle" x="508" y="-7.5" font-family="Helvetica,sans-Serif" font-size="10.00">Glyph::getWidth</text>
</a>
</g>
</g>
<!-- Node3&#45;&gt;Node7 -->
<g id="edge6" class="edge"><title>Node3&#45;&gt;Node7</title>
<path fill="none" stroke="midnightblue" d="M361.461,-66.3828C379.696,-56.3277 409.743,-40.5686 437,-30 444.047,-27.2678 451.621,-24.7207 459.091,-22.4214"/>
<polygon fill="midnightblue" stroke="midnightblue" points="460.204,-25.7421 468.799,-19.5467 458.217,-19.0301 460.204,-25.7421"/>
</g>
</g>
</svg>
