<?xml version="1.0" encoding="UTF-8" standalone="no"?>
<!DOCTYPE svg PUBLIC "-//W3C//DTD SVG 1.1//EN"
 "http://www.w3.org/Graphics/SVG/1.1/DTD/svg11.dtd">
<!-- Generated by graphviz version 2.38.0 (20140413.2041)
 -->
<!-- Title: DisplayStatisticsSystem::fixedUpdate Pages: 1 -->
<svg width="643pt" height="329pt"
 viewBox="0.00 0.00 643.00 329.00" xmlns="http://www.w3.org/2000/svg" xmlns:xlink="http://www.w3.org/1999/xlink">
<g id="graph0" class="graph" transform="scale(1 1) rotate(0) translate(4 325)">
<title>DisplayStatisticsSystem::fixedUpdate</title>
<polygon fill="white" stroke="none" points="-4,4 -4,-325 639,-325 639,4 -4,4"/>
<!-- Node1 -->
<g id="node1" class="node"><title>Node1</title>
<g id="a_node1"><a xlink:title=" ">
<polygon fill="#bfbfbf" stroke="black" points="0,-139 0,-169 124,-169 124,-139 0,-139"/>
<text text-anchor="start" x="8" y="-157" font-family="Helvetica,sans-Serif" font-size="10.00">DisplayStatisticsSystem</text>
<text text-anchor="middle" x="62" y="-146" font-family="Helvetica,sans-Serif" font-size="10.00">::fixedUpdate</text>
</a>
</g>
</g>
<!-- Node2 -->
<g id="node2" class="node"><title>Node2</title>
<g id="a_node2"><a xlink:href="../../d6/d2c/class_time.html#a6628f8647dc9039444b8a343734b5325" target="_top" xlink:title=" ">
<polygon fill="white" stroke="black" points="180.5,-301.5 180.5,-320.5 257.5,-320.5 257.5,-301.5 180.5,-301.5"/>
<text text-anchor="middle" x="219" y="-308.5" font-family="Helvetica,sans-Serif" font-size="10.00">Time::getFPS</text>
</a>
</g>
</g>
<!-- Node1&#45;&gt;Node2 -->
<g id="edge1" class="edge"><title>Node1&#45;&gt;Node2</title>
<path fill="none" stroke="midnightblue" d="M69.6835,-169.289C82.8435,-197.646 114.812,-258.541 160,-292 163.401,-294.518 167.152,-296.713 171.062,-298.624"/>
<polygon fill="midnightblue" stroke="midnightblue" points="169.81,-301.895 180.382,-302.587 172.549,-295.453 169.81,-301.895"/>
</g>
<!-- Node3 -->
<g id="node3" class="node"><title>Node3</title>
<g id="a_node3"><a xlink:href="../../d7/d06/class_g_u_i_resizing_information.html#acde3cf6247093ac58b8621d24df7bcbb" target="_top" xlink:title=" ">
<polygon fill="white" stroke="black" points="160,-252 160,-282 278,-282 278,-252 160,-252"/>
<text text-anchor="start" x="168" y="-270" font-family="Helvetica,sans-Serif" font-size="10.00">GUIResizingInformation</text>
<text text-anchor="middle" x="219" y="-259" font-family="Helvetica,sans-Serif" font-size="10.00">::getLeftScreenPosition</text>
</a>
</g>
</g>
<!-- Node1&#45;&gt;Node3 -->
<g id="edge2" class="edge"><title>Node1&#45;&gt;Node3</title>
<path fill="none" stroke="midnightblue" d="M76.5465,-169.039C94.2534,-188.007 126.923,-220.711 160,-242 162.9,-243.867 165.963,-245.652 169.105,-247.348"/>
<polygon fill="midnightblue" stroke="midnightblue" points="167.595,-250.506 178.1,-251.883 170.747,-244.256 167.595,-250.506"/>
</g>
<!-- Node6 -->
<g id="node6" class="node"><title>Node6</title>
<g id="a_node6"><a xlink:href="../../d6/d2c/class_time.html#aefa9f3ea603c18b318c9a4b463b060b7" target="_top" xlink:title=" ">
<polygon fill="white" stroke="black" points="176.5,-213.5 176.5,-232.5 261.5,-232.5 261.5,-213.5 176.5,-213.5"/>
<text text-anchor="middle" x="219" y="-220.5" font-family="Helvetica,sans-Serif" font-size="10.00">Time::getMSPF</text>
</a>
</g>
</g>
<!-- Node1&#45;&gt;Node6 -->
<g id="edge5" class="edge"><title>Node1&#45;&gt;Node6</title>
<path fill="none" stroke="midnightblue" d="M89.6276,-169.189C108.815,-179.769 135.531,-193.763 160,-204 165.132,-206.147 170.598,-208.213 176.046,-210.14"/>
<polygon fill="midnightblue" stroke="midnightblue" points="175.161,-213.536 185.755,-213.447 177.418,-206.91 175.161,-213.536"/>
</g>
<!-- Node7 -->
<g id="node7" class="node"><title>Node7</title>
<g id="a_node7"><a xlink:href="../../d7/d06/class_g_u_i_resizing_information.html#a33295f5b148a175e9aefb4f4344b2bbb" target="_top" xlink:title=" ">
<polygon fill="white" stroke="black" points="160,-164 160,-194 278,-194 278,-164 160,-164"/>
<text text-anchor="start" x="168" y="-182" font-family="Helvetica,sans-Serif" font-size="10.00">GUIResizingInformation</text>
<text text-anchor="middle" x="219" y="-171" font-family="Helvetica,sans-Serif" font-size="10.00">::getTopScreenPosition</text>
</a>
</g>
</g>
<!-- Node1&#45;&gt;Node7 -->
<g id="edge6" class="edge"><title>Node1&#45;&gt;Node7</title>
<path fill="none" stroke="midnightblue" d="M124.26,-163.881C132.714,-165.244 141.438,-166.651 150.005,-168.033"/>
<polygon fill="midnightblue" stroke="midnightblue" points="149.534,-171.502 159.963,-169.639 150.648,-164.592 149.534,-171.502"/>
</g>
<!-- Node10 -->
<g id="node10" class="node"><title>Node10</title>
<g id="a_node10"><a xlink:href="../../d7/d06/class_g_u_i_resizing_information.html#aa8fb79fc71098f1cf2ce4fac2d5c79ac" target="_top" xlink:title=" ">
<polygon fill="white" stroke="black" points="160,-115 160,-145 278,-145 278,-115 160,-115"/>
<text text-anchor="start" x="168" y="-133" font-family="Helvetica,sans-Serif" font-size="10.00">GUIResizingInformation</text>
<text text-anchor="middle" x="219" y="-122" font-family="Helvetica,sans-Serif" font-size="10.00">::getWidthUnit</text>
</a>
</g>
</g>
<!-- Node1&#45;&gt;Node10 -->
<g id="edge9" class="edge"><title>Node1&#45;&gt;Node10</title>
<path fill="none" stroke="midnightblue" d="M124.26,-144.515C132.714,-143.206 141.438,-141.855 150.005,-140.528"/>
<polygon fill="midnightblue" stroke="midnightblue" points="150.617,-143.975 159.963,-138.986 149.546,-137.058 150.617,-143.975"/>
</g>
<!-- Node11 -->
<g id="node11" class="node"><title>Node11</title>
<g id="a_node11"><a xlink:href="../../dd/df5/class_gui_string.html#abb299aeb3be7a0533709ef30be6ec668" target="_top" xlink:title=" ">
<polygon fill="white" stroke="black" points="163,-76.5 163,-95.5 275,-95.5 275,-76.5 163,-76.5"/>
<text text-anchor="middle" x="219" y="-83.5" font-family="Helvetica,sans-Serif" font-size="10.00">GuiString::setPosition</text>
</a>
</g>
</g>
<!-- Node1&#45;&gt;Node11 -->
<g id="edge10" class="edge"><title>Node1&#45;&gt;Node11</title>
<path fill="none" stroke="midnightblue" d="M90.9966,-138.96C110.139,-128.973 136.249,-115.924 160,-106 165.869,-103.548 172.156,-101.151 178.347,-98.9178"/>
<polygon fill="midnightblue" stroke="midnightblue" points="179.645,-102.172 187.922,-95.5581 177.327,-95.5665 179.645,-102.172"/>
</g>
<!-- Node12 -->
<g id="node12" class="node"><title>Node12</title>
<g id="a_node12"><a xlink:href="../../dd/df5/class_gui_string.html#a964f40eb765b7ad9827284b65ac2c9fc" target="_top" xlink:title=" ">
<polygon fill="white" stroke="black" points="168.5,-38.5 168.5,-57.5 269.5,-57.5 269.5,-38.5 168.5,-38.5"/>
<text text-anchor="middle" x="219" y="-45.5" font-family="Helvetica,sans-Serif" font-size="10.00">GuiString::setScale</text>
</a>
</g>
</g>
<!-- Node1&#45;&gt;Node12 -->
<g id="edge11" class="edge"><title>Node1&#45;&gt;Node12</title>
<path fill="none" stroke="midnightblue" d="M75.9902,-139C93.3538,-119.805 125.917,-86.6888 160,-67 163.664,-64.8832 167.597,-62.9645 171.625,-61.2336"/>
<polygon fill="midnightblue" stroke="midnightblue" points="173.072,-64.4262 181.115,-57.5306 170.527,-57.905 173.072,-64.4262"/>
</g>
<!-- Node13 -->
<g id="node13" class="node"><title>Node13</title>
<g id="a_node13"><a xlink:href="../../dd/df5/class_gui_string.html#a5fd0a2c913363f836f274cdf27fd13d4" target="_top" xlink:title=" ">
<polygon fill="white" stroke="black" points="168,-0.5 168,-19.5 270,-19.5 270,-0.5 168,-0.5"/>
<text text-anchor="middle" x="219" y="-7.5" font-family="Helvetica,sans-Serif" font-size="10.00">GuiString::setString</text>
</a>
</g>
</g>
<!-- Node1&#45;&gt;Node13 -->
<g id="edge12" class="edge"><title>Node1&#45;&gt;Node13</title>
<path fill="none" stroke="midnightblue" d="M70.7332,-138.939C84.9133,-112.783 117.558,-58.8991 160,-29 162.729,-27.0778 165.664,-25.3409 168.714,-23.7729"/>
<polygon fill="midnightblue" stroke="midnightblue" points="170.421,-26.8433 178.114,-19.559 167.557,-20.4557 170.421,-26.8433"/>
</g>
<!-- Node4 -->
<g id="node4" class="node"><title>Node4</title>
<g id="a_node4"><a xlink:href="../../d4/d58/namespace_game_info.html#a7cf2306eb3025a60a9e2da52eefba71e" target="_top" xlink:title=" ">
<polygon fill="white" stroke="black" points="315.5,-257.5 315.5,-276.5 452.5,-276.5 452.5,-257.5 315.5,-257.5"/>
<text text-anchor="middle" x="384" y="-264.5" font-family="Helvetica,sans-Serif" font-size="10.00">GameInfo::getWindowWidth</text>
</a>
</g>
</g>
<!-- Node3&#45;&gt;Node4 -->
<g id="edge3" class="edge"><title>Node3&#45;&gt;Node4</title>
<path fill="none" stroke="midnightblue" d="M278.386,-267C287.081,-267 296.158,-267 305.175,-267"/>
<polygon fill="midnightblue" stroke="midnightblue" points="305.307,-270.5 315.307,-267 305.307,-263.5 305.307,-270.5"/>
</g>
<!-- Node5 -->
<g id="node5" class="node"><title>Node5</title>
<g id="a_node5"><a xlink:href="../../de/d6b/class_application.html#aad8864ec1fa58ee23db7b111876d09a5" target="_top" xlink:title=" ">
<polygon fill="white" stroke="black" points="490,-252 490,-282 635,-282 635,-252 490,-252"/>
<text text-anchor="start" x="498" y="-270" font-family="Helvetica,sans-Serif" font-size="10.00">Application::getGameWindow</text>
<text text-anchor="middle" x="562.5" y="-259" font-family="Helvetica,sans-Serif" font-size="10.00">Width</text>
</a>
</g>
</g>
<!-- Node4&#45;&gt;Node5 -->
<g id="edge4" class="edge"><title>Node4&#45;&gt;Node5</title>
<path fill="none" stroke="midnightblue" d="M452.735,-267C461.564,-267 470.683,-267 479.711,-267"/>
<polygon fill="midnightblue" stroke="midnightblue" points="479.846,-270.5 489.846,-267 479.846,-263.5 479.846,-270.5"/>
</g>
<!-- Node8 -->
<g id="node8" class="node"><title>Node8</title>
<g id="a_node8"><a xlink:href="../../d4/d58/namespace_game_info.html#a344c7e16ac06ee1f8458a249aac36e8e" target="_top" xlink:title=" ">
<polygon fill="white" stroke="black" points="314,-169.5 314,-188.5 454,-188.5 454,-169.5 314,-169.5"/>
<text text-anchor="middle" x="384" y="-176.5" font-family="Helvetica,sans-Serif" font-size="10.00">GameInfo::getWindowHeight</text>
</a>
</g>
</g>
<!-- Node7&#45;&gt;Node8 -->
<g id="edge7" class="edge"><title>Node7&#45;&gt;Node8</title>
<path fill="none" stroke="midnightblue" d="M278.386,-179C286.659,-179 295.278,-179 303.863,-179"/>
<polygon fill="midnightblue" stroke="midnightblue" points="303.901,-182.5 313.901,-179 303.901,-175.5 303.901,-182.5"/>
</g>
<!-- Node9 -->
<g id="node9" class="node"><title>Node9</title>
<g id="a_node9"><a xlink:href="../../de/d6b/class_application.html#a0398d40c89d52bb8d6ac6ac466c5d30c" target="_top" xlink:title=" ">
<polygon fill="white" stroke="black" points="490,-164 490,-194 635,-194 635,-164 490,-164"/>
<text text-anchor="start" x="498" y="-182" font-family="Helvetica,sans-Serif" font-size="10.00">Application::getGameWindow</text>
<text text-anchor="middle" x="562.5" y="-171" font-family="Helvetica,sans-Serif" font-size="10.00">Height</text>
</a>
</g>
</g>
<!-- Node8&#45;&gt;Node9 -->
<g id="edge8" class="edge"><title>Node8&#45;&gt;Node9</title>
<path fill="none" stroke="midnightblue" d="M454.251,-179C462.559,-179 471.103,-179 479.568,-179"/>
<polygon fill="midnightblue" stroke="midnightblue" points="479.835,-182.5 489.835,-179 479.835,-175.5 479.835,-182.5"/>
</g>
</g>
</svg>
