<?xml version="1.0" encoding="UTF-8" standalone="no"?>
<!DOCTYPE svg PUBLIC "-//W3C//DTD SVG 1.1//EN"
 "http://www.w3.org/Graphics/SVG/1.1/DTD/svg11.dtd">
<!-- Generated by graphviz version 2.38.0 (20140413.2041)
 -->
<!-- Title: src/RenderingSystem.h Pages: 1 -->
<svg width="340pt" height="252pt"
 viewBox="0.00 0.00 339.50 252.00" xmlns="http://www.w3.org/2000/svg" xmlns:xlink="http://www.w3.org/1999/xlink">
<g id="graph0" class="graph" transform="scale(1 1) rotate(0) translate(4 248)">
<title>src/RenderingSystem.h</title>
<polygon fill="white" stroke="none" points="-4,4 -4,-248 335.5,-248 335.5,4 -4,4"/>
<!-- Node1 -->
<g id="node1" class="node"><title>Node1</title>
<g id="a_node1"><a xlink:title=" ">
<polygon fill="#bfbfbf" stroke="black" points="148.5,-224.5 148.5,-243.5 267.5,-243.5 267.5,-224.5 148.5,-224.5"/>
<text text-anchor="middle" x="208" y="-231.5" font-family="Helvetica,sans-Serif" font-size="10.00">src/RenderingSystem.h</text>
</a>
</g>
</g>
<!-- Node2 -->
<g id="node2" class="node"><title>Node2</title>
<g id="a_node2"><a xlink:href="../../d9/dcd/_game_8h.html" target="_top" xlink:title=" ">
<polygon fill="white" stroke="black" points="116,-168.5 116,-187.5 184,-187.5 184,-168.5 116,-168.5"/>
<text text-anchor="middle" x="150" y="-175.5" font-family="Helvetica,sans-Serif" font-size="10.00">src/Game.h</text>
</a>
</g>
</g>
<!-- Node1&#45;&gt;Node2 -->
<g id="edge1" class="edge"><title>Node1&#45;&gt;Node2</title>
<path fill="none" stroke="midnightblue" d="M191.087,-217.253C180.797,-207.673 168.034,-195.791 159.488,-187.834"/>
<polygon fill="midnightblue" stroke="midnightblue" points="188.977,-220.071 198.681,-224.324 193.747,-214.948 188.977,-220.071"/>
</g>
<!-- Node8 -->
<g id="node8" class="node"><title>Node8</title>
<g id="a_node8"><a xlink:href="../../d2/db8/_rendering_system_8cpp.html" target="_top" xlink:title=" ">
<polygon fill="white" stroke="black" points="202.5,-168.5 202.5,-187.5 331.5,-187.5 331.5,-168.5 202.5,-168.5"/>
<text text-anchor="middle" x="267" y="-175.5" font-family="Helvetica,sans-Serif" font-size="10.00">src/RenderingSystem.cpp</text>
</a>
</g>
</g>
<!-- Node1&#45;&gt;Node8 -->
<g id="edge7" class="edge"><title>Node1&#45;&gt;Node8</title>
<path fill="none" stroke="midnightblue" d="M224.895,-217.537C235.415,-207.909 248.569,-195.869 257.348,-187.834"/>
<polygon fill="midnightblue" stroke="midnightblue" points="222.493,-214.99 217.479,-224.324 227.219,-220.154 222.493,-214.99"/>
</g>
<!-- Node3 -->
<g id="node3" class="node"><title>Node3</title>
<g id="a_node3"><a xlink:href="../../d9/da3/_application_8h.html" target="_top" xlink:title=" ">
<polygon fill="white" stroke="black" points="54.5,-112.5 54.5,-131.5 143.5,-131.5 143.5,-112.5 54.5,-112.5"/>
<text text-anchor="middle" x="99" y="-119.5" font-family="Helvetica,sans-Serif" font-size="10.00">src/Application.h</text>
</a>
</g>
</g>
<!-- Node2&#45;&gt;Node3 -->
<g id="edge2" class="edge"><title>Node2&#45;&gt;Node3</title>
<path fill="none" stroke="midnightblue" d="M134.622,-160.718C125.633,-151.2 114.641,-139.561 107.265,-131.751"/>
<polygon fill="midnightblue" stroke="midnightblue" points="132.168,-163.216 141.578,-168.083 137.257,-158.41 132.168,-163.216"/>
</g>
<!-- Node7 -->
<g id="node7" class="node"><title>Node7</title>
<g id="a_node7"><a xlink:href="../../d7/db5/_game_8cpp.html" target="_top" xlink:title=" ">
<polygon fill="white" stroke="black" points="162,-112.5 162,-131.5 240,-131.5 240,-112.5 162,-112.5"/>
<text text-anchor="middle" x="201" y="-119.5" font-family="Helvetica,sans-Serif" font-size="10.00">src/Game.cpp</text>
</a>
</g>
</g>
<!-- Node2&#45;&gt;Node7 -->
<g id="edge6" class="edge"><title>Node2&#45;&gt;Node7</title>
<path fill="none" stroke="midnightblue" d="M165.378,-160.718C174.367,-151.2 185.359,-139.561 192.735,-131.751"/>
<polygon fill="midnightblue" stroke="midnightblue" points="162.743,-158.41 158.422,-168.083 167.832,-163.216 162.743,-158.41"/>
</g>
<!-- Node4 -->
<g id="node4" class="node"><title>Node4</title>
<g id="a_node4"><a xlink:href="../../d0/d42/_application_8cpp.html" target="_top" xlink:title=" ">
<polygon fill="white" stroke="black" points="0,-56.5 0,-75.5 100,-75.5 100,-56.5 0,-56.5"/>
<text text-anchor="middle" x="50" y="-63.5" font-family="Helvetica,sans-Serif" font-size="10.00">src/Application.cpp</text>
</a>
</g>
</g>
<!-- Node3&#45;&gt;Node4 -->
<g id="edge3" class="edge"><title>Node3&#45;&gt;Node4</title>
<path fill="none" stroke="midnightblue" d="M83.9655,-104.431C75.3778,-94.9673 64.9565,-83.4827 57.9408,-75.7511"/>
<polygon fill="midnightblue" stroke="midnightblue" points="81.5967,-107.029 90.9086,-112.083 86.7807,-102.325 81.5967,-107.029"/>
</g>
<!-- Node5 -->
<g id="node5" class="node"><title>Node5</title>
<g id="a_node5"><a xlink:href="../../d4/dbf/main_8h.html" target="_top" xlink:title=" ">
<polygon fill="white" stroke="black" points="118,-56.5 118,-75.5 180,-75.5 180,-56.5 118,-56.5"/>
<text text-anchor="middle" x="149" y="-63.5" font-family="Helvetica,sans-Serif" font-size="10.00">src/main.h</text>
</a>
</g>
</g>
<!-- Node3&#45;&gt;Node5 -->
<g id="edge4" class="edge"><title>Node3&#45;&gt;Node5</title>
<path fill="none" stroke="midnightblue" d="M114.076,-104.718C122.889,-95.1997 133.666,-83.5608 140.897,-75.7511"/>
<polygon fill="midnightblue" stroke="midnightblue" points="111.482,-102.367 107.256,-112.083 116.619,-107.123 111.482,-102.367"/>
</g>
<!-- Node6 -->
<g id="node6" class="node"><title>Node6</title>
<g id="a_node6"><a xlink:href="../../d5/d12/_main_8cpp.html" target="_top" xlink:title=" ">
<polygon fill="white" stroke="black" points="112.5,-0.5 112.5,-19.5 185.5,-19.5 185.5,-0.5 112.5,-0.5"/>
<text text-anchor="middle" x="149" y="-7.5" font-family="Helvetica,sans-Serif" font-size="10.00">src/Main.cpp</text>
</a>
</g>
</g>
<!-- Node5&#45;&gt;Node6 -->
<g id="edge5" class="edge"><title>Node5&#45;&gt;Node6</title>
<path fill="none" stroke="midnightblue" d="M149,-45.8045C149,-36.9102 149,-26.7798 149,-19.7511"/>
<polygon fill="midnightblue" stroke="midnightblue" points="145.5,-46.083 149,-56.083 152.5,-46.083 145.5,-46.083"/>
</g>
</g>
</svg>
