<?xml version="1.0" encoding="UTF-8" standalone="no"?>
<!DOCTYPE svg PUBLIC "-//W3C//DTD SVG 1.1//EN"
 "http://www.w3.org/Graphics/SVG/1.1/DTD/svg11.dtd">
<!-- Generated by graphviz version 2.38.0 (20140413.2041)
 -->
<!-- Title: InputLocator Pages: 1 -->
<svg width="160pt" height="152pt"
 viewBox="0.00 0.00 159.50 152.00" xmlns="http://www.w3.org/2000/svg" xmlns:xlink="http://www.w3.org/1999/xlink">
<g id="graph0" class="graph" transform="scale(1 1) rotate(0) translate(4 148)">
<title>InputLocator</title>
<polygon fill="white" stroke="none" points="-4,4 -4,-148 155.5,-148 155.5,4 -4,4"/>
<!-- Node1 -->
<g id="node1" class="node"><title>Node1</title>
<g id="a_node1"><a xlink:title=" ">
<polygon fill="#bfbfbf" stroke="black" points="30.5,-0.5 30.5,-19.5 100.5,-19.5 100.5,-0.5 30.5,-0.5"/>
<text text-anchor="middle" x="65.5" y="-7.5" font-family="Helvetica,sans-Serif" font-size="10.00">InputLocator</text>
</a>
</g>
</g>
<!-- Node2 -->
<g id="node2" class="node"><title>Node2</title>
<g id="a_node2"><a xlink:href="../../d2/d23/class_locator.html" target="_top" xlink:title=" ">
<polygon fill="white" stroke="black" points="0,-57.5 0,-76.5 131,-76.5 131,-57.5 0,-57.5"/>
<text text-anchor="middle" x="65.5" y="-64.5" font-family="Helvetica,sans-Serif" font-size="10.00">Locator&lt; Input, NullInput &gt;</text>
</a>
</g>
</g>
<!-- Node2&#45;&gt;Node1 -->
<g id="edge1" class="edge"><title>Node2&#45;&gt;Node1</title>
<path fill="none" stroke="midnightblue" d="M65.5,-47.1166C65.5,-37.8173 65.5,-27.0557 65.5,-19.7149"/>
<polygon fill="midnightblue" stroke="midnightblue" points="62.0001,-47.4062 65.5,-57.4063 69.0001,-47.4063 62.0001,-47.4062"/>
</g>
<!-- Node3 -->
<g id="node3" class="node"><title>Node3</title>
<g id="a_node3"><a xlink:href="../../d2/d23/class_locator.html" target="_top" xlink:title=" ">
<polygon fill="white" stroke="black" points="23,-124.5 23,-143.5 108,-143.5 108,-124.5 23,-124.5"/>
<text text-anchor="middle" x="65.5" y="-131.5" font-family="Helvetica,sans-Serif" font-size="10.00">Locator&lt; T, U &gt;</text>
</a>
</g>
</g>
<!-- Node3&#45;&gt;Node2 -->
<g id="edge2" class="edge"><title>Node3&#45;&gt;Node2</title>
<path fill="none" stroke="orange" stroke-dasharray="5,2" d="M65.5,-114.037C65.5,-101.67 65.5,-86.1198 65.5,-76.6273"/>
<polygon fill="orange" stroke="orange" points="62.0001,-114.234 65.5,-124.234 69.0001,-114.234 62.0001,-114.234"/>
<text text-anchor="middle" x="108.5" y="-98" font-family="Helvetica,sans-Serif" font-size="10.00"> &lt; Input, NullInput &gt;</text>
</g>
</g>
</svg>
