<?xml version="1.0" encoding="UTF-8" standalone="no"?>
<!DOCTYPE svg PUBLIC "-//W3C//DTD SVG 1.1//EN"
 "http://www.w3.org/Graphics/SVG/1.1/DTD/svg11.dtd">
<!-- Generated by graphviz version 2.38.0 (20140413.2041)
 -->
<!-- Title: EntityTransform Pages: 1 -->
<svg width="239pt" height="219pt"
 viewBox="0.00 0.00 239.00 219.00" xmlns="http://www.w3.org/2000/svg" xmlns:xlink="http://www.w3.org/1999/xlink">
<g id="graph0" class="graph" transform="scale(1 1) rotate(0) translate(4 215)">
<title>EntityTransform</title>
<polygon fill="white" stroke="none" points="-4,4 -4,-215 235,-215 235,4 -4,4"/>
<!-- Node1 -->
<g id="node1" class="node"><title>Node1</title>
<g id="a_node1"><a xlink:title=" ">
<polygon fill="#bfbfbf" stroke="black" points="126.5,-0.5 126.5,-19.5 211.5,-19.5 211.5,-0.5 126.5,-0.5"/>
<text text-anchor="middle" x="169" y="-7.5" font-family="Helvetica,sans-Serif" font-size="10.00">EntityTransform</text>
</a>
</g>
</g>
<!-- Node2 -->
<g id="node2" class="node"><title>Node2</title>
<g id="a_node2"><a xlink:href="../../d2/d00/class_component.html" target="_top" xlink:title=" ">
<polygon fill="white" stroke="black" points="0,-67.5 0,-86.5 152,-86.5 152,-67.5 0,-67.5"/>
<text text-anchor="middle" x="76" y="-74.5" font-family="Helvetica,sans-Serif" font-size="10.00">Component&lt; EntityTransform &gt;</text>
</a>
</g>
</g>
<!-- Node2&#45;&gt;Node1 -->
<g id="edge1" class="edge"><title>Node2&#45;&gt;Node1</title>
<path fill="none" stroke="midnightblue" d="M96.8612,-61.4196C115.247,-48.5695 141.412,-30.2821 156.656,-19.6273"/>
<polygon fill="midnightblue" stroke="midnightblue" points="94.7338,-58.6363 88.5424,-67.2338 98.7439,-64.3738 94.7338,-58.6363"/>
</g>
<!-- Node3 -->
<g id="node3" class="node"><title>Node3</title>
<g id="a_node3"><a xlink:href="../../d5/d79/class_component_interface.html" target="_top" xlink:title=" ">
<polygon fill="white" stroke="black" points="32.5,-191.5 32.5,-210.5 135.5,-210.5 135.5,-191.5 32.5,-191.5"/>
<text text-anchor="middle" x="84" y="-198.5" font-family="Helvetica,sans-Serif" font-size="10.00">ComponentInterface</text>
</a>
</g>
</g>
<!-- Node3&#45;&gt;Node2 -->
<g id="edge2" class="edge"><title>Node3&#45;&gt;Node2</title>
<path fill="none" stroke="midnightblue" d="M81.6478,-181.087C80.6924,-172.788 79.6602,-162.923 79,-154 77.207,-129.77 76.4417,-101.109 76.153,-86.9036"/>
<polygon fill="midnightblue" stroke="midnightblue" points="78.1945,-181.686 82.8611,-191.198 85.1446,-180.852 78.1945,-181.686"/>
</g>
<!-- Node4 -->
<g id="node4" class="node"><title>Node4</title>
<g id="a_node4"><a xlink:href="../../d2/d00/class_component.html" target="_top" xlink:title=" ">
<polygon fill="white" stroke="black" points="88.5,-134.5 88.5,-153.5 177.5,-153.5 177.5,-134.5 88.5,-134.5"/>
<text text-anchor="middle" x="133" y="-141.5" font-family="Helvetica,sans-Serif" font-size="10.00">Component&lt; T &gt;</text>
</a>
</g>
</g>
<!-- Node3&#45;&gt;Node4 -->
<g id="edge4" class="edge"><title>Node3&#45;&gt;Node4</title>
<path fill="none" stroke="midnightblue" d="M98.4077,-183.828C107.182,-173.979 118.049,-161.782 125.236,-153.715"/>
<polygon fill="midnightblue" stroke="midnightblue" points="95.695,-181.611 91.6563,-191.406 100.922,-186.268 95.695,-181.611"/>
</g>
<!-- Node4&#45;&gt;Node2 -->
<g id="edge3" class="edge"><title>Node4&#45;&gt;Node2</title>
<path fill="none" stroke="orange" stroke-dasharray="5,2" d="M118.649,-126.635C107.502,-113.923 92.4842,-96.7978 83.5655,-86.6273"/>
<polygon fill="orange" stroke="orange" points="116.088,-129.023 125.313,-134.234 121.351,-124.408 116.088,-129.023"/>
<text text-anchor="middle" x="153" y="-108" font-family="Helvetica,sans-Serif" font-size="10.00"> &lt; EntityTransform &gt;</text>
</g>
<!-- Node5 -->
<g id="node5" class="node"><title>Node5</title>
<g id="a_node5"><a xlink:href="../../dd/d69/struct_transform.html" target="_top" xlink:title=" ">
<polygon fill="white" stroke="black" points="170.5,-67.5 170.5,-86.5 229.5,-86.5 229.5,-67.5 170.5,-67.5"/>
<text text-anchor="middle" x="200" y="-74.5" font-family="Helvetica,sans-Serif" font-size="10.00">Transform</text>
</a>
</g>
</g>
<!-- Node5&#45;&gt;Node1 -->
<g id="edge5" class="edge"><title>Node5&#45;&gt;Node1</title>
<path fill="none" stroke="#9a32cd" stroke-dasharray="5,2" d="M191.493,-58.1635C185.515,-45.6281 177.78,-29.4104 173.115,-19.6273"/>
<polygon fill="#9a32cd" stroke="#9a32cd" points="188.355,-59.7144 195.819,-67.2338 194.674,-56.7011 188.355,-59.7144"/>
<text text-anchor="middle" x="209" y="-41" font-family="Helvetica,sans-Serif" font-size="10.00"> transform</text>
</g>
</g>
</svg>
