<?xml version="1.0" encoding="UTF-8" standalone="no"?>
<!DOCTYPE svg PUBLIC "-//W3C//DTD SVG 1.1//EN"
 "http://www.w3.org/Graphics/SVG/1.1/DTD/svg11.dtd">
<!-- Generated by graphviz version 2.38.0 (20140413.2041)
 -->
<!-- Title: FloorObject::initialize Pages: 1 -->
<svg width="649pt" height="411pt"
 viewBox="0.00 0.00 649.00 411.00" xmlns="http://www.w3.org/2000/svg" xmlns:xlink="http://www.w3.org/1999/xlink">
<g id="graph0" class="graph" transform="scale(1 1) rotate(0) translate(4 407)">
<title>FloorObject::initialize</title>
<polygon fill="white" stroke="none" points="-4,4 -4,-407 645,-407 645,4 -4,4"/>
<!-- Node1 -->
<g id="node1" class="node"><title>Node1</title>
<g id="a_node1"><a xlink:title=" ">
<polygon fill="#bfbfbf" stroke="black" points="0,-235.5 0,-254.5 108,-254.5 108,-235.5 0,-235.5"/>
<text text-anchor="middle" x="54" y="-242.5" font-family="Helvetica,sans-Serif" font-size="10.00">FloorObject::initialize</text>
</a>
</g>
</g>
<!-- Node2 -->
<g id="node2" class="node"><title>Node2</title>
<g id="a_node2"><a xlink:href="../../d6/db5/class_scene.html#a8be9ee80a306fd6eaeb621367cb3a353" target="_top" xlink:title=" ">
<polygon fill="white" stroke="black" points="164.5,-383.5 164.5,-402.5 280.5,-402.5 280.5,-383.5 164.5,-383.5"/>
<text text-anchor="middle" x="222.5" y="-390.5" font-family="Helvetica,sans-Serif" font-size="10.00">Scene::addComponent</text>
</a>
</g>
</g>
<!-- Node1&#45;&gt;Node2 -->
<g id="edge1" class="edge"><title>Node1&#45;&gt;Node2</title>
<path fill="none" stroke="midnightblue" d="M58.7218,-254.55C68.6322,-278.663 98.0794,-342.338 144,-374 147.464,-376.389 151.198,-378.478 155.087,-380.305"/>
<polygon fill="midnightblue" stroke="midnightblue" points="153.813,-383.566 164.394,-384.111 156.463,-377.086 153.813,-383.566"/>
</g>
<!-- Node4 -->
<g id="node4" class="node"><title>Node4</title>
<g id="a_node4"><a xlink:href="../../d3/d96/class__3_d_m_1_1_model.html#a49748220558104e4577121ffd3b836cc" target="_top" xlink:title=" ">
<polygon fill="white" stroke="black" points="144,-345.5 144,-364.5 301,-364.5 301,-345.5 144,-345.5"/>
<text text-anchor="middle" x="222.5" y="-352.5" font-family="Helvetica,sans-Serif" font-size="10.00">_3DM::Model::amountOfMeshes</text>
</a>
</g>
</g>
<!-- Node1&#45;&gt;Node4 -->
<g id="edge3" class="edge"><title>Node1&#45;&gt;Node4</title>
<path fill="none" stroke="midnightblue" d="M61.5799,-254.689C74.8525,-273.45 106.763,-314.755 144,-336 147.965,-338.262 152.194,-340.257 156.552,-342.015"/>
<polygon fill="midnightblue" stroke="midnightblue" points="155.654,-345.412 166.249,-345.5 158.022,-338.824 155.654,-345.412"/>
</g>
<!-- Node5 -->
<g id="node5" class="node"><title>Node5</title>
<g id="a_node5"><a xlink:href="../../d5/da8/struct_entity_wrapper_1_1_entity_vitals.html#acf65583e2e08d352ba6d4b4a45454214" target="_top" xlink:title=" ">
<polygon fill="white" stroke="black" points="155,-296 155,-326 290,-326 290,-296 155,-296"/>
<text text-anchor="start" x="163" y="-314" font-family="Helvetica,sans-Serif" font-size="10.00">EntityWrapper::EntityVitals</text>
<text text-anchor="middle" x="222.5" y="-303" font-family="Helvetica,sans-Serif" font-size="10.00">::checkForNulls</text>
</a>
</g>
</g>
<!-- Node1&#45;&gt;Node5 -->
<g id="edge4" class="edge"><title>Node1&#45;&gt;Node5</title>
<path fill="none" stroke="midnightblue" d="M74.1571,-254.636C91.9888,-263.409 119.434,-276.419 144,-286 149.791,-288.259 155.879,-290.479 161.991,-292.607"/>
<polygon fill="midnightblue" stroke="midnightblue" points="160.982,-295.961 171.577,-295.869 163.237,-289.334 160.982,-295.961"/>
</g>
<!-- Node6 -->
<g id="node6" class="node"><title>Node6</title>
<g id="a_node6"><a xlink:href="../../d6/db5/class_scene.html#ab4f95ed65ad2f033c8221992840668b7" target="_top" xlink:title=" ">
<polygon fill="white" stroke="black" points="166,-257.5 166,-276.5 279,-276.5 279,-257.5 166,-257.5"/>
<text text-anchor="middle" x="222.5" y="-264.5" font-family="Helvetica,sans-Serif" font-size="10.00">Scene::generateEntity</text>
</a>
</g>
</g>
<!-- Node1&#45;&gt;Node6 -->
<g id="edge5" class="edge"><title>Node1&#45;&gt;Node6</title>
<path fill="none" stroke="midnightblue" d="M108.139,-252.021C123.285,-254.023 139.967,-256.227 155.767,-258.315"/>
<polygon fill="midnightblue" stroke="midnightblue" points="155.626,-261.826 165.998,-259.666 156.543,-254.887 155.626,-261.826"/>
</g>
<!-- Node7 -->
<g id="node7" class="node"><title>Node7</title>
<g id="a_node7"><a xlink:href="../../d2/d23/class_locator.html#a310ebd51e96b6341e25471b651afaf34" target="_top" xlink:title=" ">
<polygon fill="white" stroke="black" points="151,-208 151,-238 294,-238 294,-208 151,-208"/>
<text text-anchor="start" x="159" y="-226" font-family="Helvetica,sans-Serif" font-size="10.00">Locator&lt; ShaderHandler,</text>
<text text-anchor="middle" x="222.5" y="-215" font-family="Helvetica,sans-Serif" font-size="10.00"> ShaderHandler &gt;::getService</text>
</a>
</g>
</g>
<!-- Node1&#45;&gt;Node7 -->
<g id="edge6" class="edge"><title>Node1&#45;&gt;Node7</title>
<path fill="none" stroke="midnightblue" d="M108.139,-237.979C118.559,-236.602 129.706,-235.129 140.793,-233.664"/>
<polygon fill="midnightblue" stroke="midnightblue" points="141.48,-237.104 150.935,-232.324 140.563,-230.164 141.48,-237.104"/>
</g>
<!-- Node8 -->
<g id="node8" class="node"><title>Node8</title>
<g id="a_node8"><a xlink:href="../../de/d51/class_shader_handler.html#ad478cf645ea1baf7f0172059d3f9d40a" target="_top" xlink:title=" ">
<polygon fill="white" stroke="black" points="157,-169.5 157,-188.5 288,-188.5 288,-169.5 157,-169.5"/>
<text text-anchor="middle" x="222.5" y="-176.5" font-family="Helvetica,sans-Serif" font-size="10.00">ShaderHandler::getShader</text>
</a>
</g>
</g>
<!-- Node1&#45;&gt;Node8 -->
<g id="edge7" class="edge"><title>Node1&#45;&gt;Node8</title>
<path fill="none" stroke="midnightblue" d="M70.212,-235.478C87.5132,-225.007 116.885,-208.303 144,-198 150.677,-195.463 157.809,-193.177 164.941,-191.144"/>
<polygon fill="midnightblue" stroke="midnightblue" points="165.882,-194.515 174.624,-188.528 164.057,-187.757 165.882,-194.515"/>
</g>
<!-- Node11 -->
<g id="node11" class="node"><title>Node11</title>
<g id="a_node11"><a xlink:href="../../d4/daa/class_collision_mesh.html#a4d5f48ce34a15dcb6f38a3b9cf0f727a" target="_top" xlink:title=" ">
<polygon fill="white" stroke="black" points="160,-131.5 160,-150.5 285,-150.5 285,-131.5 160,-131.5"/>
<text text-anchor="middle" x="222.5" y="-138.5" font-family="Helvetica,sans-Serif" font-size="10.00">CollisionMesh::getShape</text>
</a>
</g>
</g>
<!-- Node1&#45;&gt;Node11 -->
<g id="edge10" class="edge"><title>Node1&#45;&gt;Node11</title>
<path fill="none" stroke="midnightblue" d="M62.1613,-235.416C75.9509,-217.672 108.027,-179.718 144,-160 148.183,-157.707 152.644,-155.687 157.231,-153.908"/>
<polygon fill="midnightblue" stroke="midnightblue" points="158.483,-157.178 166.776,-150.585 156.182,-150.567 158.483,-157.178"/>
</g>
<!-- Node12 -->
<g id="node12" class="node"><title>Node12</title>
<g id="a_node12"><a xlink:href="../../d4/daa/class_collision_mesh.html#a15e24ea6cec483c05c6d2644f235e408" target="_top" xlink:title=" ">
<polygon fill="white" stroke="black" points="163,-71 163,-101 282,-101 282,-71 163,-71"/>
<text text-anchor="start" x="171" y="-89" font-family="Helvetica,sans-Serif" font-size="10.00">CollisionMesh::initialize</text>
<text text-anchor="middle" x="222.5" y="-78" font-family="Helvetica,sans-Serif" font-size="10.00">ModelShape</text>
</a>
</g>
</g>
<!-- Node1&#45;&gt;Node12 -->
<g id="edge11" class="edge"><title>Node1&#45;&gt;Node12</title>
<path fill="none" stroke="midnightblue" d="M59.7265,-235.412C71.258,-212.874 102.924,-155.877 144,-122 151.726,-115.628 160.765,-110.114 169.889,-105.448"/>
<polygon fill="midnightblue" stroke="midnightblue" points="171.503,-108.555 178.995,-101.064 168.466,-102.248 171.503,-108.555"/>
</g>
<!-- Node3 -->
<g id="node3" class="node"><title>Node3</title>
<g id="a_node3"><a xlink:href="../../d6/db5/class_scene.html#a55c346bea3f04eb9d9f8476a68c2fa93" target="_top" xlink:title=" ">
<polygon fill="white" stroke="black" points="339.5,-383.5 339.5,-402.5 486.5,-402.5 486.5,-383.5 339.5,-383.5"/>
<text text-anchor="middle" x="413" y="-390.5" font-family="Helvetica,sans-Serif" font-size="10.00">Scene::binarySearchForEntity</text>
</a>
</g>
</g>
<!-- Node2&#45;&gt;Node3 -->
<g id="edge2" class="edge"><title>Node2&#45;&gt;Node3</title>
<path fill="none" stroke="midnightblue" d="M280.568,-393C295.913,-393 312.823,-393 329.26,-393"/>
<polygon fill="midnightblue" stroke="midnightblue" points="329.415,-396.5 339.415,-393 329.415,-389.5 329.415,-396.5"/>
</g>
<!-- Node9 -->
<g id="node9" class="node"><title>Node9</title>
<g id="a_node9"><a xlink:href="../../de/d51/class_shader_handler.html#aa6135a3de8989141daaf63815d7e3ba5" target="_top" xlink:title=" ">
<polygon fill="white" stroke="black" points="337,-213.5 337,-232.5 489,-232.5 489,-213.5 337,-213.5"/>
<text text-anchor="middle" x="413" y="-220.5" font-family="Helvetica,sans-Serif" font-size="10.00">ShaderHandler::addNewShader</text>
</a>
</g>
</g>
<!-- Node8&#45;&gt;Node9 -->
<g id="edge8" class="edge"><title>Node8&#45;&gt;Node9</title>
<path fill="none" stroke="midnightblue" d="M264.402,-188.547C292.808,-195.178 330.855,-204.059 361.206,-211.143"/>
<polygon fill="midnightblue" stroke="midnightblue" points="360.644,-214.606 371.178,-213.471 362.236,-207.79 360.644,-214.606"/>
</g>
<!-- Node10 -->
<g id="node10" class="node"><title>Node10</title>
<g id="a_node10"><a xlink:href="../../de/d51/class_shader_handler.html#ad363f345aa76d162312c455de9a4ee40" target="_top" xlink:title=" ">
<polygon fill="white" stroke="black" points="341.5,-164 341.5,-194 484.5,-194 484.5,-164 341.5,-164"/>
<text text-anchor="start" x="349.5" y="-182" font-family="Helvetica,sans-Serif" font-size="10.00">ShaderHandler::binarySearch</text>
<text text-anchor="middle" x="413" y="-171" font-family="Helvetica,sans-Serif" font-size="10.00">Shaders</text>
</a>
</g>
</g>
<!-- Node8&#45;&gt;Node10 -->
<g id="edge9" class="edge"><title>Node8&#45;&gt;Node10</title>
<path fill="none" stroke="midnightblue" d="M288.107,-179C301.915,-179 316.667,-179 331.002,-179"/>
<polygon fill="midnightblue" stroke="midnightblue" points="331.347,-182.5 341.347,-179 331.347,-175.5 331.347,-182.5"/>
</g>
<!-- Node13 -->
<g id="node13" class="node"><title>Node13</title>
<g id="a_node13"><a xlink:href="../../d4/daa/class_collision_mesh.html#a36fa3a5f4028c01af69859a813c20a41" target="_top" xlink:title=" ">
<polygon fill="white" stroke="black" points="341,-115 341,-145 485,-145 485,-115 341,-115"/>
<text text-anchor="start" x="349" y="-133" font-family="Helvetica,sans-Serif" font-size="10.00">CollisionMesh::createTriangle</text>
<text text-anchor="middle" x="413" y="-122" font-family="Helvetica,sans-Serif" font-size="10.00">ModelCollider</text>
</a>
</g>
</g>
<!-- Node12&#45;&gt;Node13 -->
<g id="edge12" class="edge"><title>Node12&#45;&gt;Node13</title>
<path fill="none" stroke="midnightblue" d="M282.109,-99.6807C299.699,-103.786 319.23,-108.345 337.692,-112.655"/>
<polygon fill="midnightblue" stroke="midnightblue" points="336.991,-116.085 347.524,-114.95 338.582,-109.268 336.991,-116.085"/>
</g>
<!-- Node17 -->
<g id="node17" class="node"><title>Node17</title>
<g id="a_node17"><a xlink:href="../../d4/daa/class_collision_mesh.html#adcf9c78c61f0be4c72d56722e0129c2d" target="_top" xlink:title=" ">
<polygon fill="white" stroke="black" points="359.5,-76.5 359.5,-95.5 466.5,-95.5 466.5,-76.5 359.5,-76.5"/>
<text text-anchor="middle" x="413" y="-83.5" font-family="Helvetica,sans-Serif" font-size="10.00">CollisionMesh::deInit</text>
</a>
</g>
</g>
<!-- Node12&#45;&gt;Node17 -->
<g id="edge16" class="edge"><title>Node12&#45;&gt;Node17</title>
<path fill="none" stroke="midnightblue" d="M282.109,-86C303.382,-86 327.495,-86 349.12,-86"/>
<polygon fill="midnightblue" stroke="midnightblue" points="349.187,-89.5001 359.187,-86 349.187,-82.5001 349.187,-89.5001"/>
</g>
<!-- Node18 -->
<g id="node18" class="node"><title>Node18</title>
<g id="a_node18"><a xlink:href="../../d4/daa/class_collision_mesh.html#a258fb73d34b153032086203cfb8d7193" target="_top" xlink:title=" ">
<polygon fill="white" stroke="black" points="343,-38.5 343,-57.5 483,-57.5 483,-38.5 343,-38.5"/>
<text text-anchor="middle" x="413" y="-45.5" font-family="Helvetica,sans-Serif" font-size="10.00">CollisionMesh::setKinematic</text>
</a>
</g>
</g>
<!-- Node12&#45;&gt;Node18 -->
<g id="edge17" class="edge"><title>Node12&#45;&gt;Node18</title>
<path fill="none" stroke="midnightblue" d="M282.109,-74.1849C305.269,-69.5161 331.795,-64.1686 354.813,-59.5284"/>
<polygon fill="midnightblue" stroke="midnightblue" points="355.668,-62.9265 364.779,-57.5193 354.285,-56.0645 355.668,-62.9265"/>
</g>
<!-- Node19 -->
<g id="node19" class="node"><title>Node19</title>
<g id="a_node19"><a xlink:href="../../d4/daa/class_collision_mesh.html#afe25849e28ea6a9884f42d15b40c84d7" target="_top" xlink:title=" ">
<polygon fill="white" stroke="black" points="350,-0.5 350,-19.5 476,-19.5 476,-0.5 350,-0.5"/>
<text text-anchor="middle" x="413" y="-7.5" font-family="Helvetica,sans-Serif" font-size="10.00">CollisionMesh::setTrigger</text>
</a>
</g>
</g>
<!-- Node12&#45;&gt;Node19 -->
<g id="edge18" class="edge"><title>Node12&#45;&gt;Node19</title>
<path fill="none" stroke="midnightblue" d="M249.373,-70.9676C271.918,-58.37 305.801,-40.6282 337,-29 343.511,-26.5731 350.454,-24.3512 357.388,-22.3504"/>
<polygon fill="midnightblue" stroke="midnightblue" points="358.771,-25.6004 367.489,-19.5793 356.919,-18.8498 358.771,-25.6004"/>
</g>
<!-- Node14 -->
<g id="node14" class="node"><title>Node14</title>
<g id="a_node14"><a xlink:href="../../de/d92/class__3_d_m_1_1_animated_model.html#a69c6dd8a0e12cdf4e11cde64cea757c4" target="_top" xlink:title=" ">
<polygon fill="white" stroke="black" points="525,-164 525,-194 641,-194 641,-164 525,-164"/>
<text text-anchor="start" x="533" y="-182" font-family="Helvetica,sans-Serif" font-size="10.00">_3DM::AnimatedModel</text>
<text text-anchor="middle" x="583" y="-171" font-family="Helvetica,sans-Serif" font-size="10.00">::amountOfMeshes</text>
</a>
</g>
</g>
<!-- Node13&#45;&gt;Node14 -->
<g id="edge13" class="edge"><title>Node13&#45;&gt;Node14</title>
<path fill="none" stroke="midnightblue" d="M465.776,-145.101C483.103,-150.155 502.586,-155.838 520.577,-161.085"/>
<polygon fill="midnightblue" stroke="midnightblue" points="519.815,-164.508 530.395,-163.948 521.775,-157.788 519.815,-164.508"/>
</g>
<!-- Node15 -->
<g id="node15" class="node"><title>Node15</title>
<g id="a_node15"><a xlink:href="../../de/d92/class__3_d_m_1_1_animated_model.html#a57f30fb1443d89d32e69ccfe06e46b71" target="_top" xlink:title=" ">
<polygon fill="white" stroke="black" points="525,-115 525,-145 641,-145 641,-115 525,-115"/>
<text text-anchor="start" x="533" y="-133" font-family="Helvetica,sans-Serif" font-size="10.00">_3DM::AnimatedModel</text>
<text text-anchor="middle" x="583" y="-122" font-family="Helvetica,sans-Serif" font-size="10.00">::getMeshIndices</text>
</a>
</g>
</g>
<!-- Node13&#45;&gt;Node15 -->
<g id="edge14" class="edge"><title>Node13&#45;&gt;Node15</title>
<path fill="none" stroke="midnightblue" d="M485.247,-130C495.071,-130 505.132,-130 514.878,-130"/>
<polygon fill="midnightblue" stroke="midnightblue" points="514.896,-133.5 524.896,-130 514.896,-126.5 514.896,-133.5"/>
</g>
<!-- Node16 -->
<g id="node16" class="node"><title>Node16</title>
<g id="a_node16"><a xlink:href="../../de/d92/class__3_d_m_1_1_animated_model.html#a774e41d8b93802e78dcf1f17d76d42c3" target="_top" xlink:title=" ">
<polygon fill="white" stroke="black" points="525,-66 525,-96 641,-96 641,-66 525,-66"/>
<text text-anchor="start" x="533" y="-84" font-family="Helvetica,sans-Serif" font-size="10.00">_3DM::AnimatedModel</text>
<text text-anchor="middle" x="583" y="-73" font-family="Helvetica,sans-Serif" font-size="10.00">::getMeshVertices</text>
</a>
</g>
</g>
<!-- Node13&#45;&gt;Node16 -->
<g id="edge15" class="edge"><title>Node13&#45;&gt;Node16</title>
<path fill="none" stroke="midnightblue" d="M465.776,-114.899C483.103,-109.845 502.586,-104.162 520.577,-98.9152"/>
<polygon fill="midnightblue" stroke="midnightblue" points="521.775,-102.212 530.395,-96.0516 519.815,-95.4916 521.775,-102.212"/>
</g>
</g>
</svg>
