<?xml version="1.0" encoding="UTF-8" standalone="no"?>
<!DOCTYPE svg PUBLIC "-//W3C//DTD SVG 1.1//EN"
 "http://www.w3.org/Graphics/SVG/1.1/DTD/svg11.dtd">
<!-- Generated by graphviz version 2.38.0 (20140413.2041)
 -->
<!-- Title: CubeTrigger::initialize Pages: 1 -->
<svg width="485pt" height="324pt"
 viewBox="0.00 0.00 485.00 324.00" xmlns="http://www.w3.org/2000/svg" xmlns:xlink="http://www.w3.org/1999/xlink">
<g id="graph0" class="graph" transform="scale(1 1) rotate(0) translate(4 320)">
<title>CubeTrigger::initialize</title>
<polygon fill="white" stroke="none" points="-4,4 -4,-320 481,-320 481,4 -4,4"/>
<!-- Node1 -->
<g id="node1" class="node"><title>Node1</title>
<g id="a_node1"><a xlink:title=" ">
<polygon fill="#bfbfbf" stroke="black" points="0,-186.5 0,-205.5 110,-205.5 110,-186.5 0,-186.5"/>
<text text-anchor="middle" x="55" y="-193.5" font-family="Helvetica,sans-Serif" font-size="10.00">CubeTrigger::initialize</text>
</a>
</g>
</g>
<!-- Node2 -->
<g id="node2" class="node"><title>Node2</title>
<g id="a_node2"><a xlink:href="../../d6/db5/class_scene.html#a8be9ee80a306fd6eaeb621367cb3a353" target="_top" xlink:title=" ">
<polygon fill="white" stroke="black" points="159.5,-296.5 159.5,-315.5 275.5,-315.5 275.5,-296.5 159.5,-296.5"/>
<text text-anchor="middle" x="217.5" y="-303.5" font-family="Helvetica,sans-Serif" font-size="10.00">Scene::addComponent</text>
</a>
</g>
</g>
<!-- Node1&#45;&gt;Node2 -->
<g id="edge1" class="edge"><title>Node1&#45;&gt;Node2</title>
<path fill="none" stroke="midnightblue" d="M62.724,-205.612C76.2687,-224.238 108.743,-265.316 146,-287 149.864,-289.249 154.001,-291.238 158.262,-292.998"/>
<polygon fill="midnightblue" stroke="midnightblue" points="157.14,-296.314 167.734,-296.493 159.564,-289.747 157.14,-296.314"/>
</g>
<!-- Node4 -->
<g id="node4" class="node"><title>Node4</title>
<g id="a_node4"><a xlink:href="../../d5/da8/struct_entity_wrapper_1_1_entity_vitals.html#acf65583e2e08d352ba6d4b4a45454214" target="_top" xlink:title=" ">
<polygon fill="white" stroke="black" points="150,-247 150,-277 285,-277 285,-247 150,-247"/>
<text text-anchor="start" x="158" y="-265" font-family="Helvetica,sans-Serif" font-size="10.00">EntityWrapper::EntityVitals</text>
<text text-anchor="middle" x="217.5" y="-254" font-family="Helvetica,sans-Serif" font-size="10.00">::checkForNulls</text>
</a>
</g>
</g>
<!-- Node1&#45;&gt;Node4 -->
<g id="edge3" class="edge"><title>Node1&#45;&gt;Node4</title>
<path fill="none" stroke="midnightblue" d="M75.8022,-205.621C93.8957,-214.267 121.485,-227.091 146,-237 151.399,-239.182 157.07,-241.367 162.752,-243.487"/>
<polygon fill="midnightblue" stroke="midnightblue" points="161.684,-246.823 172.278,-246.98 164.095,-240.251 161.684,-246.823"/>
</g>
<!-- Node5 -->
<g id="node5" class="node"><title>Node5</title>
<g id="a_node5"><a xlink:href="../../d6/db5/class_scene.html#ab4f95ed65ad2f033c8221992840668b7" target="_top" xlink:title=" ">
<polygon fill="white" stroke="black" points="161,-208.5 161,-227.5 274,-227.5 274,-208.5 161,-208.5"/>
<text text-anchor="middle" x="217.5" y="-215.5" font-family="Helvetica,sans-Serif" font-size="10.00">Scene::generateEntity</text>
</a>
</g>
</g>
<!-- Node1&#45;&gt;Node5 -->
<g id="edge4" class="edge"><title>Node1&#45;&gt;Node5</title>
<path fill="none" stroke="midnightblue" d="M110.338,-203.448C123.31,-205.226 137.294,-207.143 150.719,-208.983"/>
<polygon fill="midnightblue" stroke="midnightblue" points="150.468,-212.482 160.85,-210.372 151.418,-205.546 150.468,-212.482"/>
</g>
<!-- Node6 -->
<g id="node6" class="node"><title>Node6</title>
<g id="a_node6"><a xlink:href="../../d2/d23/class_locator.html#a310ebd51e96b6341e25471b651afaf34" target="_top" xlink:title=" ">
<polygon fill="white" stroke="black" points="146,-159 146,-189 289,-189 289,-159 146,-159"/>
<text text-anchor="start" x="154" y="-177" font-family="Helvetica,sans-Serif" font-size="10.00">Locator&lt; ShaderHandler,</text>
<text text-anchor="middle" x="217.5" y="-166" font-family="Helvetica,sans-Serif" font-size="10.00"> ShaderHandler &gt;::getService</text>
</a>
</g>
</g>
<!-- Node1&#45;&gt;Node6 -->
<g id="edge5" class="edge"><title>Node1&#45;&gt;Node6</title>
<path fill="none" stroke="midnightblue" d="M110.338,-188.552C118.509,-187.432 127.081,-186.257 135.662,-185.081"/>
<polygon fill="midnightblue" stroke="midnightblue" points="136.283,-188.528 145.715,-183.703 135.333,-181.593 136.283,-188.528"/>
</g>
<!-- Node7 -->
<g id="node7" class="node"><title>Node7</title>
<g id="a_node7"><a xlink:href="../../de/d51/class_shader_handler.html#ad478cf645ea1baf7f0172059d3f9d40a" target="_top" xlink:title=" ">
<polygon fill="white" stroke="black" points="152,-120.5 152,-139.5 283,-139.5 283,-120.5 152,-120.5"/>
<text text-anchor="middle" x="217.5" y="-127.5" font-family="Helvetica,sans-Serif" font-size="10.00">ShaderHandler::getShader</text>
</a>
</g>
</g>
<!-- Node1&#45;&gt;Node7 -->
<g id="edge6" class="edge"><title>Node1&#45;&gt;Node7</title>
<path fill="none" stroke="midnightblue" d="M71.7615,-186.416C89.3507,-176.046 118.907,-159.579 146,-149 152.188,-146.584 158.797,-144.361 165.395,-142.353"/>
<polygon fill="midnightblue" stroke="midnightblue" points="166.374,-145.713 175.005,-139.567 164.426,-138.99 166.374,-145.713"/>
</g>
<!-- Node10 -->
<g id="node10" class="node"><title>Node10</title>
<g id="a_node10"><a xlink:href="../../d4/daa/class_collision_mesh.html#aa50751946304cee44096c00cf737c696" target="_top" xlink:title=" ">
<polygon fill="white" stroke="black" points="158,-57.5 158,-76.5 277,-76.5 277,-57.5 158,-57.5"/>
<text text-anchor="middle" x="217.5" y="-64.5" font-family="Helvetica,sans-Serif" font-size="10.00">CollisionMesh::initialize</text>
</a>
</g>
</g>
<!-- Node1&#45;&gt;Node10 -->
<g id="edge9" class="edge"><title>Node1&#45;&gt;Node10</title>
<path fill="none" stroke="midnightblue" d="M64.9067,-186.42C80.4709,-169.958 114.016,-135.69 146,-111 159.919,-100.255 176.564,-89.7686 190.184,-81.7296"/>
<polygon fill="midnightblue" stroke="midnightblue" points="192.165,-84.6268 199.06,-76.5821 188.653,-78.5714 192.165,-84.6268"/>
</g>
<!-- Node3 -->
<g id="node3" class="node"><title>Node3</title>
<g id="a_node3"><a xlink:href="../../d6/db5/class_scene.html#a55c346bea3f04eb9d9f8476a68c2fa93" target="_top" xlink:title=" ">
<polygon fill="white" stroke="black" points="327.5,-296.5 327.5,-315.5 474.5,-315.5 474.5,-296.5 327.5,-296.5"/>
<text text-anchor="middle" x="401" y="-303.5" font-family="Helvetica,sans-Serif" font-size="10.00">Scene::binarySearchForEntity</text>
</a>
</g>
</g>
<!-- Node2&#45;&gt;Node3 -->
<g id="edge2" class="edge"><title>Node2&#45;&gt;Node3</title>
<path fill="none" stroke="midnightblue" d="M275.928,-306C289.048,-306 303.248,-306 317.196,-306"/>
<polygon fill="midnightblue" stroke="midnightblue" points="317.288,-309.5 327.288,-306 317.288,-302.5 317.288,-309.5"/>
</g>
<!-- Node8 -->
<g id="node8" class="node"><title>Node8</title>
<g id="a_node8"><a xlink:href="../../de/d51/class_shader_handler.html#aa6135a3de8989141daaf63815d7e3ba5" target="_top" xlink:title=" ">
<polygon fill="white" stroke="black" points="325,-164.5 325,-183.5 477,-183.5 477,-164.5 325,-164.5"/>
<text text-anchor="middle" x="401" y="-171.5" font-family="Helvetica,sans-Serif" font-size="10.00">ShaderHandler::addNewShader</text>
</a>
</g>
</g>
<!-- Node7&#45;&gt;Node8 -->
<g id="edge7" class="edge"><title>Node7&#45;&gt;Node8</title>
<path fill="none" stroke="midnightblue" d="M257.883,-139.547C285.116,-146.149 321.55,-154.982 350.71,-162.051"/>
<polygon fill="midnightblue" stroke="midnightblue" points="350.151,-165.517 360.694,-164.471 351.8,-158.714 350.151,-165.517"/>
</g>
<!-- Node9 -->
<g id="node9" class="node"><title>Node9</title>
<g id="a_node9"><a xlink:href="../../de/d51/class_shader_handler.html#ad363f345aa76d162312c455de9a4ee40" target="_top" xlink:title=" ">
<polygon fill="white" stroke="black" points="329.5,-115 329.5,-145 472.5,-145 472.5,-115 329.5,-115"/>
<text text-anchor="start" x="337.5" y="-133" font-family="Helvetica,sans-Serif" font-size="10.00">ShaderHandler::binarySearch</text>
<text text-anchor="middle" x="401" y="-122" font-family="Helvetica,sans-Serif" font-size="10.00">Shaders</text>
</a>
</g>
</g>
<!-- Node7&#45;&gt;Node9 -->
<g id="edge8" class="edge"><title>Node7&#45;&gt;Node9</title>
<path fill="none" stroke="midnightblue" d="M283.001,-130C294.703,-130 307.041,-130 319.143,-130"/>
<polygon fill="midnightblue" stroke="midnightblue" points="319.233,-133.5 329.232,-130 319.232,-126.5 319.233,-133.5"/>
</g>
<!-- Node11 -->
<g id="node11" class="node"><title>Node11</title>
<g id="a_node11"><a xlink:href="../../d4/daa/class_collision_mesh.html#adcf9c78c61f0be4c72d56722e0129c2d" target="_top" xlink:title=" ">
<polygon fill="white" stroke="black" points="347.5,-76.5 347.5,-95.5 454.5,-95.5 454.5,-76.5 347.5,-76.5"/>
<text text-anchor="middle" x="401" y="-83.5" font-family="Helvetica,sans-Serif" font-size="10.00">CollisionMesh::deInit</text>
</a>
</g>
</g>
<!-- Node10&#45;&gt;Node11 -->
<g id="edge10" class="edge"><title>Node10&#45;&gt;Node11</title>
<path fill="none" stroke="midnightblue" d="M277.177,-73.1425C296.404,-75.1552 317.835,-77.3987 337.344,-79.441"/>
<polygon fill="midnightblue" stroke="midnightblue" points="337.039,-82.9281 347.349,-80.4884 337.768,-75.9662 337.039,-82.9281"/>
</g>
<!-- Node12 -->
<g id="node12" class="node"><title>Node12</title>
<g id="a_node12"><a xlink:href="../../d4/daa/class_collision_mesh.html#a258fb73d34b153032086203cfb8d7193" target="_top" xlink:title=" ">
<polygon fill="white" stroke="black" points="331,-38.5 331,-57.5 471,-57.5 471,-38.5 331,-38.5"/>
<text text-anchor="middle" x="401" y="-45.5" font-family="Helvetica,sans-Serif" font-size="10.00">CollisionMesh::setKinematic</text>
</a>
</g>
</g>
<!-- Node10&#45;&gt;Node12 -->
<g id="edge11" class="edge"><title>Node10&#45;&gt;Node12</title>
<path fill="none" stroke="midnightblue" d="M277.177,-60.8575C291.062,-59.404 306.096,-57.8301 320.726,-56.2986"/>
<polygon fill="midnightblue" stroke="midnightblue" points="321.19,-59.7693 330.771,-55.2471 320.461,-52.8073 321.19,-59.7693"/>
</g>
<!-- Node13 -->
<g id="node13" class="node"><title>Node13</title>
<g id="a_node13"><a xlink:href="../../d4/daa/class_collision_mesh.html#afe25849e28ea6a9884f42d15b40c84d7" target="_top" xlink:title=" ">
<polygon fill="white" stroke="black" points="338,-0.5 338,-19.5 464,-19.5 464,-0.5 338,-0.5"/>
<text text-anchor="middle" x="401" y="-7.5" font-family="Helvetica,sans-Serif" font-size="10.00">CollisionMesh::setTrigger</text>
</a>
</g>
</g>
<!-- Node10&#45;&gt;Node13 -->
<g id="edge12" class="edge"><title>Node10&#45;&gt;Node13</title>
<path fill="none" stroke="midnightblue" d="M243.24,-57.4216C264.684,-49.3004 296.641,-37.6304 325,-29 332.857,-26.609 341.239,-24.2763 349.447,-22.1105"/>
<polygon fill="midnightblue" stroke="midnightblue" points="350.519,-25.4486 359.325,-19.5587 348.768,-18.671 350.519,-25.4486"/>
</g>
</g>
</svg>
