<?xml version="1.0" encoding="UTF-8" standalone="no"?>
<!DOCTYPE svg PUBLIC "-//W3C//DTD SVG 1.1//EN"
 "http://www.w3.org/Graphics/SVG/1.1/DTD/svg11.dtd">
<!-- Generated by graphviz version 2.38.0 (20140413.2041)
 -->
<!-- Title: GuiButton Pages: 1 -->
<svg width="188pt" height="152pt"
 viewBox="0.00 0.00 187.50 152.00" xmlns="http://www.w3.org/2000/svg" xmlns:xlink="http://www.w3.org/1999/xlink">
<g id="graph0" class="graph" transform="scale(1 1) rotate(0) translate(4 148)">
<title>GuiButton</title>
<polygon fill="white" stroke="none" points="-4,4 -4,-148 183.5,-148 183.5,4 -4,4"/>
<!-- Node1 -->
<g id="node1" class="node"><title>Node1</title>
<g id="a_node1"><a xlink:title=" ">
<polygon fill="#bfbfbf" stroke="black" points="62,-0.5 62,-19.5 122,-19.5 122,-0.5 62,-0.5"/>
<text text-anchor="middle" x="92" y="-7.5" font-family="Helvetica,sans-Serif" font-size="10.00">GuiButton</text>
</a>
</g>
</g>
<!-- Node2 -->
<g id="node2" class="node"><title>Node2</title>
<g id="a_node2"><a xlink:href="../../d1/db9/class_gui_sprite.html" target="_top" xlink:title=" ">
<polygon fill="white" stroke="black" points="63.5,-57.5 63.5,-76.5 120.5,-76.5 120.5,-57.5 63.5,-57.5"/>
<text text-anchor="middle" x="92" y="-64.5" font-family="Helvetica,sans-Serif" font-size="10.00">GuiSprite</text>
</a>
</g>
</g>
<!-- Node2&#45;&gt;Node1 -->
<g id="edge1" class="edge"><title>Node2&#45;&gt;Node1</title>
<path fill="none" stroke="midnightblue" d="M92,-47.1166C92,-37.8173 92,-27.0557 92,-19.7149"/>
<polygon fill="midnightblue" stroke="midnightblue" points="88.5001,-47.4062 92,-57.4063 95.5001,-47.4063 88.5001,-47.4062"/>
</g>
<!-- Node3 -->
<g id="node3" class="node"><title>Node3</title>
<g id="a_node3"><a xlink:href="../../d1/d39/class_gui_base.html" target="_top" xlink:title=" ">
<polygon fill="white" stroke="black" points="0,-124.5 0,-143.5 54,-143.5 54,-124.5 0,-124.5"/>
<text text-anchor="middle" x="27" y="-131.5" font-family="Helvetica,sans-Serif" font-size="10.00">GuiBase</text>
</a>
</g>
</g>
<!-- Node3&#45;&gt;Node2 -->
<g id="edge2" class="edge"><title>Node3&#45;&gt;Node2</title>
<path fill="none" stroke="midnightblue" d="M43.0032,-116.997C55.7504,-104.25 73.1053,-86.8947 83.3727,-76.6273"/>
<polygon fill="midnightblue" stroke="midnightblue" points="40.3624,-114.688 35.7662,-124.234 45.3122,-119.638 40.3624,-114.688"/>
</g>
<!-- Node4 -->
<g id="node4" class="node"><title>Node4</title>
<g id="a_node4"><a xlink:href="../../d3/df8/class_quad.html" target="_top" xlink:title=" ">
<polygon fill="white" stroke="black" points="72,-124.5 72,-143.5 112,-143.5 112,-124.5 72,-124.5"/>
<text text-anchor="middle" x="92" y="-131.5" font-family="Helvetica,sans-Serif" font-size="10.00">Quad</text>
</a>
</g>
</g>
<!-- Node4&#45;&gt;Node2 -->
<g id="edge3" class="edge"><title>Node4&#45;&gt;Node2</title>
<path fill="none" stroke="#9a32cd" stroke-dasharray="5,2" d="M92,-114.037C92,-101.67 92,-86.1198 92,-76.6273"/>
<polygon fill="#9a32cd" stroke="#9a32cd" points="88.5001,-114.234 92,-124.234 95.5001,-114.234 88.5001,-114.234"/>
<text text-anchor="middle" x="104.5" y="-98" font-family="Helvetica,sans-Serif" font-size="10.00"> quad</text>
</g>
<!-- Node5 -->
<g id="node5" class="node"><title>Node5</title>
<g id="a_node5"><a xlink:href="../../d2/d7f/class_texture.html" target="_top" xlink:title=" ">
<polygon fill="white" stroke="black" points="130.5,-124.5 130.5,-143.5 179.5,-143.5 179.5,-124.5 130.5,-124.5"/>
<text text-anchor="middle" x="155" y="-131.5" font-family="Helvetica,sans-Serif" font-size="10.00">Texture</text>
</a>
</g>
</g>
<!-- Node5&#45;&gt;Node2 -->
<g id="edge4" class="edge"><title>Node5&#45;&gt;Node2</title>
<path fill="none" stroke="#9a32cd" stroke-dasharray="5,2" d="M140.806,-116.481C134.827,-109.698 127.711,-101.845 121,-95 114.739,-88.6142 107.359,-81.7514 101.61,-76.5428"/>
<polygon fill="#9a32cd" stroke="#9a32cd" points="138.447,-119.103 147.654,-124.346 143.726,-114.506 138.447,-119.103"/>
<text text-anchor="middle" x="148" y="-98" font-family="Helvetica,sans-Serif" font-size="10.00"> texture</text>
</g>
</g>
</svg>
