<?xml version="1.0" encoding="UTF-8" standalone="no"?>
<!DOCTYPE svg PUBLIC "-//W3C//DTD SVG 1.1//EN"
 "http://www.w3.org/Graphics/SVG/1.1/DTD/svg11.dtd">
<!-- Generated by graphviz version 2.38.0 (20140413.2041)
 -->
<!-- Title: EnemyControllerSystem::update Pages: 1 -->
<svg width="866pt" height="554pt"
 viewBox="0.00 0.00 866.00 554.24" xmlns="http://www.w3.org/2000/svg" xmlns:xlink="http://www.w3.org/1999/xlink">
<g id="graph0" class="graph" transform="scale(1 1) rotate(0) translate(4 550.237)">
<title>EnemyControllerSystem::update</title>
<polygon fill="white" stroke="none" points="-4,4 -4,-550.237 862,-550.237 862,4 -4,4"/>
<!-- Node1 -->
<g id="node1" class="node"><title>Node1</title>
<g id="a_node1"><a xlink:title=" ">
<polygon fill="#bfbfbf" stroke="black" points="0,-224.983 0,-254.983 122,-254.983 122,-224.983 0,-224.983"/>
<text text-anchor="start" x="8" y="-242.983" font-family="Helvetica,sans-Serif" font-size="10.00">EnemyControllerSystem</text>
<text text-anchor="middle" x="61" y="-231.983" font-family="Helvetica,sans-Serif" font-size="10.00">::update</text>
</a>
</g>
</g>
<!-- Node2 -->
<g id="node2" class="node"><title>Node2</title>
<g id="a_node2"><a xlink:href="../../d4/daa/class_collision_mesh.html#a5aeedef000c931bc1af02c107ef23c59" target="_top" xlink:title=" ">
<polygon fill="white" stroke="black" points="158,-517.483 158,-536.483 319,-536.483 319,-517.483 158,-517.483"/>
<text text-anchor="middle" x="238.5" y="-524.483" font-family="Helvetica,sans-Serif" font-size="10.00">CollisionMesh::activateRigidBody</text>
</a>
</g>
</g>
<!-- Node1&#45;&gt;Node2 -->
<g id="edge1" class="edge"><title>Node1&#45;&gt;Node2</title>
<path fill="none" stroke="midnightblue" d="M62.6374,-255.138C65.4117,-300.803 80.157,-438.22 158,-507.983 159.717,-509.522 161.537,-510.942 163.439,-512.252"/>
<polygon fill="midnightblue" stroke="midnightblue" points="161.831,-515.366 172.244,-517.321 165.323,-509.299 161.831,-515.366"/>
</g>
<!-- Node3 -->
<g id="node3" class="node"><title>Node3</title>
<g id="a_node3"><a xlink:href="../../da/d3f/class_enemy_controller_system.html#a58e6668793c7bc6ff830ba407047c540" target="_top" xlink:title=" ">
<polygon fill="white" stroke="black" points="177.5,-200.983 177.5,-230.983 299.5,-230.983 299.5,-200.983 177.5,-200.983"/>
<text text-anchor="start" x="185.5" y="-218.983" font-family="Helvetica,sans-Serif" font-size="10.00">EnemyControllerSystem</text>
<text text-anchor="middle" x="238.5" y="-207.983" font-family="Helvetica,sans-Serif" font-size="10.00">::applyForces</text>
</a>
</g>
</g>
<!-- Node1&#45;&gt;Node3 -->
<g id="edge2" class="edge"><title>Node1&#45;&gt;Node3</title>
<path fill="none" stroke="midnightblue" d="M122.397,-231.724C136.818,-229.752 152.333,-227.63 167.158,-225.602"/>
<polygon fill="midnightblue" stroke="midnightblue" points="167.855,-229.04 177.289,-224.217 166.907,-222.104 167.855,-229.04"/>
</g>
<!-- Node6 -->
<g id="node6" class="node"><title>Node6</title>
<g id="a_node6"><a xlink:href="../../da/d3f/class_enemy_controller_system.html#a0f9e26ee8264c2f916c83a329609c099" target="_top" xlink:title=" ">
<polygon fill="white" stroke="black" points="177.5,-407.983 177.5,-437.983 299.5,-437.983 299.5,-407.983 177.5,-407.983"/>
<text text-anchor="start" x="185.5" y="-425.983" font-family="Helvetica,sans-Serif" font-size="10.00">EnemyControllerSystem</text>
<text text-anchor="middle" x="238.5" y="-414.983" font-family="Helvetica,sans-Serif" font-size="10.00">::applyNewTransform</text>
</a>
</g>
</g>
<!-- Node1&#45;&gt;Node6 -->
<g id="edge5" class="edge"><title>Node1&#45;&gt;Node6</title>
<path fill="none" stroke="midnightblue" d="M76.6612,-255.271C107.58,-287.51 179.591,-362.6 215.84,-400.397"/>
<polygon fill="midnightblue" stroke="midnightblue" points="213.556,-403.073 223.004,-407.867 218.608,-398.227 213.556,-403.073"/>
</g>
<!-- Node10 -->
<g id="node10" class="node"><title>Node10</title>
<g id="a_node10"><a xlink:href="../../da/d3f/class_enemy_controller_system.html#a680f913f4384b8879328311f70efe862" target="_top" xlink:title=" ">
<polygon fill="white" stroke="black" points="177.5,-151.983 177.5,-181.983 299.5,-181.983 299.5,-151.983 177.5,-151.983"/>
<text text-anchor="start" x="185.5" y="-169.983" font-family="Helvetica,sans-Serif" font-size="10.00">EnemyControllerSystem</text>
<text text-anchor="middle" x="238.5" y="-158.983" font-family="Helvetica,sans-Serif" font-size="10.00">::calculateMovment</text>
</a>
</g>
</g>
<!-- Node1&#45;&gt;Node10 -->
<g id="edge9" class="edge"><title>Node1&#45;&gt;Node10</title>
<path fill="none" stroke="midnightblue" d="M88.2998,-224.942C107.264,-214.5 133.697,-200.762 158,-190.983 162.809,-189.048 167.835,-187.183 172.922,-185.407"/>
<polygon fill="midnightblue" stroke="midnightblue" points="174.378,-188.61 182.741,-182.105 172.147,-181.975 174.378,-188.61"/>
</g>
<!-- Node11 -->
<g id="node11" class="node"><title>Node11</title>
<g id="a_node11"><a xlink:href="../../da/d3f/class_enemy_controller_system.html#ae94d4732176c8a2b834f76e7be6fe79d" target="_top" xlink:title=" ">
<polygon fill="white" stroke="black" points="177.5,-249.983 177.5,-279.983 299.5,-279.983 299.5,-249.983 177.5,-249.983"/>
<text text-anchor="start" x="185.5" y="-267.983" font-family="Helvetica,sans-Serif" font-size="10.00">EnemyControllerSystem</text>
<text text-anchor="middle" x="238.5" y="-256.983" font-family="Helvetica,sans-Serif" font-size="10.00">::executeRayTesting</text>
</a>
</g>
</g>
<!-- Node1&#45;&gt;Node11 -->
<g id="edge10" class="edge"><title>Node1&#45;&gt;Node11</title>
<path fill="none" stroke="midnightblue" d="M122.397,-248.587C136.818,-250.641 152.333,-252.851 167.158,-254.963"/>
<polygon fill="midnightblue" stroke="midnightblue" points="166.895,-258.461 177.289,-256.406 167.883,-251.531 166.895,-258.461"/>
</g>
<!-- Node26 -->
<g id="node26" class="node"><title>Node26</title>
<g id="a_node26"><a xlink:href="../../df/de8/class_global_information.html#a28de2201027f85bab6c94b7dc9dedbb7" target="_top" xlink:title=" ">
<polygon fill="white" stroke="black" points="189.5,-102.983 189.5,-132.983 287.5,-132.983 287.5,-102.983 189.5,-102.983"/>
<text text-anchor="start" x="197.5" y="-120.983" font-family="Helvetica,sans-Serif" font-size="10.00">GlobalInformation::</text>
<text text-anchor="middle" x="238.5" y="-109.983" font-family="Helvetica,sans-Serif" font-size="10.00">getPlayersPosition</text>
</a>
</g>
</g>
<!-- Node1&#45;&gt;Node26 -->
<g id="edge30" class="edge"><title>Node1&#45;&gt;Node26</title>
<path fill="none" stroke="midnightblue" d="M72.9328,-224.711C89.1269,-203.179 121.532,-164.064 158,-141.983 164.677,-137.94 172.086,-134.534 179.618,-131.676"/>
<polygon fill="midnightblue" stroke="midnightblue" points="180.889,-134.939 189.179,-128.342 178.584,-128.33 180.889,-134.939"/>
</g>
<!-- Node27 -->
<g id="node27" class="node"><title>Node27</title>
<g id="a_node27"><a xlink:href="../../d4/daa/class_collision_mesh.html#a532f01d5ef667f723b8e7e9e9ca4e177" target="_top" xlink:title=" ">
<polygon fill="white" stroke="black" points="158,-479.483 158,-498.483 319,-498.483 319,-479.483 158,-479.483"/>
<text text-anchor="middle" x="238.5" y="-486.483" font-family="Helvetica,sans-Serif" font-size="10.00">CollisionMesh::getTransformation</text>
</a>
</g>
</g>
<!-- Node1&#45;&gt;Node27 -->
<g id="edge31" class="edge"><title>Node1&#45;&gt;Node27</title>
<path fill="none" stroke="midnightblue" d="M65.3294,-254.988C74.2475,-292.09 101.898,-389.372 158,-447.983 169.363,-459.854 184.916,-468.917 199.253,-475.465"/>
<polygon fill="midnightblue" stroke="midnightblue" points="197.873,-478.681 208.443,-479.408 200.634,-472.248 197.873,-478.681"/>
</g>
<!-- Node29 -->
<g id="node29" class="node"><title>Node29</title>
<g id="a_node29"><a xlink:href="../../da/d3f/class_enemy_controller_system.html#a3d71e1f220d6389bb6d164d809da4b1d" target="_top" xlink:title=" ">
<polygon fill="white" stroke="black" points="177.5,-53.983 177.5,-83.983 299.5,-83.983 299.5,-53.983 177.5,-53.983"/>
<text text-anchor="start" x="185.5" y="-71.983" font-family="Helvetica,sans-Serif" font-size="10.00">EnemyControllerSystem</text>
<text text-anchor="middle" x="238.5" y="-60.983" font-family="Helvetica,sans-Serif" font-size="10.00">::performCommands</text>
</a>
</g>
</g>
<!-- Node1&#45;&gt;Node29 -->
<g id="edge34" class="edge"><title>Node1&#45;&gt;Node29</title>
<path fill="none" stroke="midnightblue" d="M67.8361,-224.529C79.9418,-194.57 110.666,-128.426 158,-92.983 161.156,-90.6201 164.544,-88.4881 168.08,-86.5648"/>
<polygon fill="midnightblue" stroke="midnightblue" points="169.638,-89.6992 177.123,-82.2007 166.595,-83.395 169.638,-89.6992"/>
</g>
<!-- Node4 -->
<g id="node4" class="node"><title>Node4</title>
<g id="a_node4"><a xlink:href="../../d4/daa/class_collision_mesh.html#a7d1dde3a566093848fdd3e75278655ec" target="_top" xlink:title=" ">
<polygon fill="white" stroke="black" points="536.5,-3.98298 536.5,-33.983 673.5,-33.983 673.5,-3.98298 536.5,-3.98298"/>
<text text-anchor="start" x="544.5" y="-21.983" font-family="Helvetica,sans-Serif" font-size="10.00">CollisionMesh::applyCentral</text>
<text text-anchor="middle" x="605" y="-10.983" font-family="Helvetica,sans-Serif" font-size="10.00">Impulse</text>
</a>
</g>
</g>
<!-- Node3&#45;&gt;Node4 -->
<g id="edge3" class="edge"><title>Node3&#45;&gt;Node4</title>
<path fill="none" stroke="midnightblue" d="M299.551,-204.731C306.825,-201.292 313.584,-196.813 319,-190.983 366.546,-139.803 301.929,-83.4085 355,-37.983 401.433,1.76097 472.237,3.4939 526.489,-2.97248"/>
<polygon fill="midnightblue" stroke="midnightblue" points="526.048,-6.44451 536.416,-4.26799 526.953,0.496636 526.048,-6.44451"/>
</g>
<!-- Node5 -->
<g id="node5" class="node"><title>Node5</title>
<g id="a_node5"><a xlink:href="../../d7/dd1/namespacehh.html#aa0102ec32d9d665ebdda89fa4c03c5b6" target="_top" xlink:title=" ">
<polygon fill="white" stroke="black" points="747.5,-31.483 747.5,-50.483 821.5,-50.483 821.5,-31.483 747.5,-31.483"/>
<text text-anchor="middle" x="784.5" y="-38.483" font-family="Helvetica,sans-Serif" font-size="10.00">hh::toBtVec3</text>
</a>
</g>
</g>
<!-- Node4&#45;&gt;Node5 -->
<g id="edge4" class="edge"><title>Node4&#45;&gt;Node5</title>
<path fill="none" stroke="midnightblue" d="M673.611,-27.363C694.871,-29.998 717.849,-32.846 737.27,-35.2531"/>
<polygon fill="midnightblue" stroke="midnightblue" points="737.012,-38.7477 747.366,-36.5044 737.873,-31.8009 737.012,-38.7477"/>
</g>
<!-- Node7 -->
<g id="node7" class="node"><title>Node7</title>
<g id="a_node7"><a xlink:href="../../d4/daa/class_collision_mesh.html#aa9ad0053cdd4fd6e991b343e174e543f" target="_top" xlink:title=" ">
<polygon fill="white" stroke="black" points="361,-413.483 361,-432.483 493,-432.483 493,-413.483 361,-413.483"/>
<text text-anchor="middle" x="427" y="-420.483" font-family="Helvetica,sans-Serif" font-size="10.00">CollisionMesh::getPosition</text>
</a>
</g>
</g>
<!-- Node6&#45;&gt;Node7 -->
<g id="edge6" class="edge"><title>Node6&#45;&gt;Node7</title>
<path fill="none" stroke="midnightblue" d="M299.536,-422.983C315.762,-422.983 333.531,-422.983 350.487,-422.983"/>
<polygon fill="midnightblue" stroke="midnightblue" points="350.919,-426.483 360.919,-422.983 350.919,-419.483 350.919,-426.483"/>
</g>
<!-- Node9 -->
<g id="node9" class="node"><title>Node9</title>
<g id="a_node9"><a xlink:href="../../d7/dd1/namespacehh.html#aa744e19f5c464bf275c30a824f81b06e" target="_top" xlink:title=" ">
<polygon fill="white" stroke="black" points="360,-451.983 360,-481.983 494,-481.983 494,-451.983 360,-451.983"/>
<text text-anchor="start" x="368" y="-469.983" font-family="Helvetica,sans-Serif" font-size="10.00">hh::signedRadiansBetween</text>
<text text-anchor="middle" x="427" y="-458.983" font-family="Helvetica,sans-Serif" font-size="10.00">Vectors</text>
</a>
</g>
</g>
<!-- Node6&#45;&gt;Node9 -->
<g id="edge8" class="edge"><title>Node6&#45;&gt;Node9</title>
<path fill="none" stroke="midnightblue" d="M299.536,-437.147C316.271,-441.095 334.647,-445.431 352.081,-449.544"/>
<polygon fill="midnightblue" stroke="midnightblue" points="351.68,-453.045 362.217,-451.935 353.288,-446.232 351.68,-453.045"/>
</g>
<!-- Node8 -->
<g id="node8" class="node"><title>Node8</title>
<g id="a_node8"><a xlink:href="../../d7/dd1/namespacehh.html#ad5fffa12ef6d4badda8b6db66b21f4fb" target="_top" xlink:title=" ">
<polygon fill="white" stroke="black" points="564,-413.483 564,-432.483 646,-432.483 646,-413.483 564,-413.483"/>
<text text-anchor="middle" x="605" y="-420.483" font-family="Helvetica,sans-Serif" font-size="10.00">hh::toGlmVec3</text>
</a>
</g>
</g>
<!-- Node7&#45;&gt;Node8 -->
<g id="edge7" class="edge"><title>Node7&#45;&gt;Node8</title>
<path fill="none" stroke="midnightblue" d="M493.036,-422.983C513.03,-422.983 534.725,-422.983 553.584,-422.983"/>
<polygon fill="midnightblue" stroke="midnightblue" points="553.741,-426.483 563.741,-422.983 553.741,-419.483 553.741,-426.483"/>
</g>
<!-- Node11&#45;&gt;Node8 -->
<g id="edge29" class="edge"><title>Node11&#45;&gt;Node8</title>
<path fill="none" stroke="midnightblue" d="M252.373,-280.268C272.098,-302.655 312.053,-344.071 355,-365.983 372.589,-374.957 486.23,-399.034 553.756,-412.856"/>
<polygon fill="midnightblue" stroke="midnightblue" points="553.274,-416.329 563.772,-414.9 554.674,-409.471 553.274,-416.329"/>
</g>
<!-- Node12 -->
<g id="node12" class="node"><title>Node12</title>
<g id="a_node12"><a xlink:href="../../d3/dbc/class_ray_caster.html#ab40a61c642c4bd5e6c6931803c3269eb" target="_top" xlink:title=" ">
<polygon fill="white" stroke="black" points="364.5,-299.483 364.5,-318.483 489.5,-318.483 489.5,-299.483 364.5,-299.483"/>
<text text-anchor="middle" x="427" y="-306.483" font-family="Helvetica,sans-Serif" font-size="10.00">RayCaster::getHitNormal</text>
</a>
</g>
</g>
<!-- Node11&#45;&gt;Node12 -->
<g id="edge11" class="edge"><title>Node11&#45;&gt;Node12</title>
<path fill="none" stroke="midnightblue" d="M299.536,-279.147C324.134,-284.95 352.279,-291.59 375.763,-297.131"/>
<polygon fill="midnightblue" stroke="midnightblue" points="374.981,-300.542 385.518,-299.432 376.589,-293.729 374.981,-300.542"/>
</g>
<!-- Node13 -->
<g id="node13" class="node"><title>Node13</title>
<g id="a_node13"><a xlink:href="../../da/d3f/class_enemy_controller_system.html#aea2ed084167d7f1f9ac8926b036217d0" target="_top" xlink:title=" ">
<polygon fill="white" stroke="black" points="355,-249.983 355,-279.983 499,-279.983 499,-249.983 355,-249.983"/>
<text text-anchor="start" x="363" y="-267.983" font-family="Helvetica,sans-Serif" font-size="10.00">EnemyControllerSystem</text>
<text text-anchor="middle" x="427" y="-256.983" font-family="Helvetica,sans-Serif" font-size="10.00">::getLowestRayHitForAllRays</text>
</a>
</g>
</g>
<!-- Node11&#45;&gt;Node13 -->
<g id="edge12" class="edge"><title>Node11&#45;&gt;Node13</title>
<path fill="none" stroke="midnightblue" d="M299.536,-264.983C313.812,-264.983 329.282,-264.983 344.342,-264.983"/>
<polygon fill="midnightblue" stroke="midnightblue" points="344.684,-268.483 354.684,-264.983 344.684,-261.483 344.684,-268.483"/>
</g>
<!-- Node19 -->
<g id="node19" class="node"><title>Node19</title>
<g id="a_node19"><a xlink:href="../../d3/dbc/class_ray_caster.html#a85220b230435f4132f72a1ae9304b632" target="_top" xlink:title=" ">
<polygon fill="white" stroke="black" points="741.5,-212.483 741.5,-231.483 827.5,-231.483 827.5,-212.483 741.5,-212.483"/>
<text text-anchor="middle" x="784.5" y="-219.483" font-family="Helvetica,sans-Serif" font-size="10.00">RayCaster::size</text>
</a>
</g>
</g>
<!-- Node11&#45;&gt;Node19 -->
<g id="edge28" class="edge"><title>Node11&#45;&gt;Node19</title>
<path fill="none" stroke="midnightblue" d="M299.407,-249.978C317.192,-246.077 336.787,-242.319 355,-239.983 489.645,-222.712 649.837,-220.912 730.9,-221.306"/>
<polygon fill="midnightblue" stroke="midnightblue" points="731.309,-224.808 741.331,-221.371 731.353,-217.808 731.309,-224.808"/>
</g>
<!-- Node20 -->
<g id="node20" class="node"><title>Node20</title>
<g id="a_node20"><a xlink:href="../../d4/daa/class_collision_mesh.html#ade31943d65b275017a002515e1b2af3c" target="_top" xlink:title=" ">
<polygon fill="white" stroke="black" points="535,-151.483 535,-170.483 675,-170.483 675,-151.483 535,-151.483"/>
<text text-anchor="middle" x="605" y="-158.483" font-family="Helvetica,sans-Serif" font-size="10.00">CollisionMesh::getVelocitybt</text>
</a>
</g>
</g>
<!-- Node11&#45;&gt;Node20 -->
<g id="edge19" class="edge"><title>Node11&#45;&gt;Node20</title>
<path fill="none" stroke="midnightblue" d="M298.078,-249.821C305.334,-247.007 312.483,-243.743 319,-239.983 337.8,-229.136 335.573,-216.664 355,-206.983 407.914,-180.614 473.951,-169.255 524.72,-164.413"/>
<polygon fill="midnightblue" stroke="midnightblue" points="525.334,-167.872 534.986,-163.502 524.716,-160.9 525.334,-167.872"/>
</g>
<!-- Node21 -->
<g id="node21" class="node"><title>Node21</title>
<g id="a_node21"><a xlink:href="../../d5/d44/class_physics_world.html#a61ba42a9ee27640c61acf2e1e85dc78f" target="_top" xlink:title=" ">
<polygon fill="white" stroke="black" points="366,-97.483 366,-116.483 488,-116.483 488,-97.483 366,-97.483"/>
<text text-anchor="middle" x="427" y="-104.483" font-family="Helvetica,sans-Serif" font-size="10.00">PhysicsWorld::getWorld</text>
</a>
</g>
</g>
<!-- Node11&#45;&gt;Node21 -->
<g id="edge20" class="edge"><title>Node11&#45;&gt;Node21</title>
<path fill="none" stroke="midnightblue" d="M299.887,-252.909C306.932,-249.592 313.539,-245.366 319,-239.983 355.333,-204.167 319.051,-167.184 355,-130.983 358.954,-127.001 363.59,-123.68 368.568,-120.91"/>
<polygon fill="midnightblue" stroke="midnightblue" points="370.302,-123.96 377.82,-116.495 367.288,-117.643 370.302,-123.96"/>
</g>
<!-- Node22 -->
<g id="node22" class="node"><title>Node22</title>
<g id="a_node22"><a xlink:href="../../da/d3f/class_enemy_controller_system.html#a687331915aabd4381bc5f5433396e12b" target="_top" xlink:title=" ">
<polygon fill="white" stroke="black" points="366,-47.983 366,-77.983 488,-77.983 488,-47.983 366,-47.983"/>
<text text-anchor="start" x="374" y="-65.983" font-family="Helvetica,sans-Serif" font-size="10.00">EnemyControllerSystem</text>
<text text-anchor="middle" x="427" y="-54.983" font-family="Helvetica,sans-Serif" font-size="10.00">::handleRayHit</text>
</a>
</g>
</g>
<!-- Node11&#45;&gt;Node22 -->
<g id="edge21" class="edge"><title>Node11&#45;&gt;Node22</title>
<path fill="none" stroke="midnightblue" d="M299.544,-253.724C306.819,-250.286 313.58,-245.809 319,-239.983 366.289,-189.155 308.579,-139.605 355,-87.983 356.201,-86.6469 357.479,-85.3822 358.82,-84.1851"/>
<polygon fill="midnightblue" stroke="midnightblue" points="361.166,-86.8029 367.123,-78.0413 357.003,-81.1758 361.166,-86.8029"/>
</g>
<!-- Node23 -->
<g id="node23" class="node"><title>Node23</title>
<g id="a_node23"><a xlink:href="../../d4/daa/class_collision_mesh.html#a094cbf7841a6b6badc1e19f048819ebe" target="_top" xlink:title=" ">
<polygon fill="white" stroke="black" points="539,-102.483 539,-121.483 671,-121.483 671,-102.483 539,-102.483"/>
<text text-anchor="middle" x="605" y="-109.483" font-family="Helvetica,sans-Serif" font-size="10.00">CollisionMesh::setVelocity</text>
</a>
</g>
</g>
<!-- Node11&#45;&gt;Node23 -->
<g id="edge27" class="edge"><title>Node11&#45;&gt;Node23</title>
<path fill="none" stroke="midnightblue" d="M299.684,-252.072C306.678,-248.89 313.327,-244.924 319,-239.983 347.184,-215.435 325.638,-187.109 355,-163.983 369.136,-152.849 466.2,-134.815 534.869,-123.179"/>
<polygon fill="midnightblue" stroke="midnightblue" points="535.501,-126.622 544.782,-121.511 534.339,-119.72 535.501,-126.622"/>
</g>
<!-- Node25 -->
<g id="node25" class="node"><title>Node25</title>
<g id="a_node25"><a xlink:href="../../d3/dbc/class_ray_caster.html#abef1bda7c02b3cb13617706bf18faea9" target="_top" xlink:title=" ">
<polygon fill="white" stroke="black" points="376.5,-337.483 376.5,-356.483 477.5,-356.483 477.5,-337.483 376.5,-337.483"/>
<text text-anchor="middle" x="427" y="-344.483" font-family="Helvetica,sans-Serif" font-size="10.00">RayCaster::rayTest</text>
</a>
</g>
</g>
<!-- Node11&#45;&gt;Node25 -->
<g id="edge26" class="edge"><title>Node11&#45;&gt;Node25</title>
<path fill="none" stroke="midnightblue" d="M263.021,-279.987C285.806,-293.989 321.703,-314.668 355,-327.983 360.987,-330.377 367.377,-332.566 373.777,-334.538"/>
<polygon fill="midnightblue" stroke="midnightblue" points="373.207,-338.018 383.787,-337.457 375.166,-331.298 373.207,-338.018"/>
</g>
<!-- Node14 -->
<g id="node14" class="node"><title>Node14</title>
<g id="a_node14"><a xlink:href="../../d3/dbc/class_ray_caster.html#a43455e12a824e4945575324cfd7b2709" target="_top" xlink:title=" ">
<polygon fill="white" stroke="black" points="540.5,-337.983 540.5,-367.983 669.5,-367.983 669.5,-337.983 540.5,-337.983"/>
<text text-anchor="start" x="548.5" y="-355.983" font-family="Helvetica,sans-Serif" font-size="10.00">RayCaster::getHitFraction</text>
<text text-anchor="middle" x="605" y="-344.983" font-family="Helvetica,sans-Serif" font-size="10.00">RaySpace</text>
</a>
</g>
</g>
<!-- Node13&#45;&gt;Node14 -->
<g id="edge13" class="edge"><title>Node13&#45;&gt;Node14</title>
<path fill="none" stroke="midnightblue" d="M480.17,-280.101C486.742,-282.933 493.189,-286.213 499,-289.983 518.517,-302.645 515.54,-315.233 535,-327.983 538.057,-329.986 541.296,-331.854 544.637,-333.592"/>
<polygon fill="midnightblue" stroke="midnightblue" points="543.132,-336.752 553.665,-337.894 546.142,-330.433 543.132,-336.752"/>
</g>
<!-- Node15 -->
<g id="node15" class="node"><title>Node15</title>
<g id="a_node15"><a xlink:href="../../d3/dbc/class_ray_caster.html#a5edbf39fa4e279c529222aa22291f22d" target="_top" xlink:title=" ">
<polygon fill="white" stroke="black" points="549.5,-299.483 549.5,-318.483 660.5,-318.483 660.5,-299.483 549.5,-299.483"/>
<text text-anchor="middle" x="605" y="-306.483" font-family="Helvetica,sans-Serif" font-size="10.00">RayCaster::getLength</text>
</a>
</g>
</g>
<!-- Node13&#45;&gt;Node15 -->
<g id="edge14" class="edge"><title>Node13&#45;&gt;Node15</title>
<path fill="none" stroke="midnightblue" d="M488.077,-280.002C510.242,-285.543 535.043,-291.744 556,-296.983"/>
<polygon fill="midnightblue" stroke="midnightblue" points="555.4,-300.441 565.95,-299.471 557.098,-293.65 555.4,-300.441"/>
</g>
<!-- Node16 -->
<g id="node16" class="node"><title>Node16</title>
<g id="a_node16"><a xlink:href="../../da/d3f/class_enemy_controller_system.html#af6b83f414b09fb388f55f5649f0658a1" target="_top" xlink:title=" ">
<polygon fill="white" stroke="black" points="544,-249.983 544,-279.983 666,-279.983 666,-249.983 544,-249.983"/>
<text text-anchor="start" x="552" y="-267.983" font-family="Helvetica,sans-Serif" font-size="10.00">EnemyControllerSystem</text>
<text text-anchor="middle" x="605" y="-256.983" font-family="Helvetica,sans-Serif" font-size="10.00">::getLowestRayHitIndex</text>
</a>
</g>
</g>
<!-- Node13&#45;&gt;Node16 -->
<g id="edge15" class="edge"><title>Node13&#45;&gt;Node16</title>
<path fill="none" stroke="midnightblue" d="M499.079,-264.983C510.473,-264.983 522.261,-264.983 533.639,-264.983"/>
<polygon fill="midnightblue" stroke="midnightblue" points="533.95,-268.483 543.95,-264.983 533.95,-261.483 533.95,-268.483"/>
</g>
<!-- Node17 -->
<g id="node17" class="node"><title>Node17</title>
<g id="a_node17"><a xlink:href="../../d3/dbc/class_ray_caster.html#a45c26b33e25a86d40d13ac887c0a78ca" target="_top" xlink:title=" ">
<polygon fill="white" stroke="black" points="711,-291.483 711,-310.483 858,-310.483 858,-291.483 711,-291.483"/>
<text text-anchor="middle" x="784.5" y="-298.483" font-family="Helvetica,sans-Serif" font-size="10.00">RayCaster::getCollisionObject</text>
</a>
</g>
</g>
<!-- Node16&#45;&gt;Node17 -->
<g id="edge16" class="edge"><title>Node16&#45;&gt;Node17</title>
<path fill="none" stroke="midnightblue" d="M666.093,-277.171C685.706,-281.149 707.411,-285.551 726.768,-289.477"/>
<polygon fill="midnightblue" stroke="midnightblue" points="726.157,-292.924 736.654,-291.482 727.549,-286.064 726.157,-292.924"/>
</g>
<!-- Node18 -->
<g id="node18" class="node"><title>Node18</title>
<g id="a_node18"><a xlink:href="../../d3/dbc/class_ray_caster.html#a65d444adaed1585db97b1c6361d54265" target="_top" xlink:title=" ">
<polygon fill="white" stroke="black" points="720,-253.483 720,-272.483 849,-272.483 849,-253.483 720,-253.483"/>
<text text-anchor="middle" x="784.5" y="-260.483" font-family="Helvetica,sans-Serif" font-size="10.00">RayCaster::getHitFraction</text>
</a>
</g>
</g>
<!-- Node16&#45;&gt;Node18 -->
<g id="edge17" class="edge"><title>Node16&#45;&gt;Node18</title>
<path fill="none" stroke="midnightblue" d="M666.093,-264.306C680.014,-264.149 694.987,-263.98 709.428,-263.818"/>
<polygon fill="midnightblue" stroke="midnightblue" points="709.866,-267.313 719.826,-263.7 709.787,-260.313 709.866,-267.313"/>
</g>
<!-- Node16&#45;&gt;Node19 -->
<g id="edge18" class="edge"><title>Node16&#45;&gt;Node19</title>
<path fill="none" stroke="midnightblue" d="M666.093,-250.425C688.32,-245.041 713.234,-239.005 734.373,-233.884"/>
<polygon fill="midnightblue" stroke="midnightblue" points="735.212,-237.282 744.107,-231.526 733.564,-230.479 735.212,-237.282"/>
</g>
<!-- Node22&#45;&gt;Node20 -->
<g id="edge22" class="edge"><title>Node22&#45;&gt;Node20</title>
<path fill="none" stroke="midnightblue" d="M481.132,-78.0971C487.41,-80.9095 493.523,-84.1859 499,-87.983 519.484,-102.183 515.037,-116.059 535,-130.983 543.8,-137.562 554.267,-143.057 564.355,-147.469"/>
<polygon fill="midnightblue" stroke="midnightblue" points="563.264,-150.805 573.844,-151.368 565.925,-144.33 563.264,-150.805"/>
</g>
<!-- Node22&#45;&gt;Node23 -->
<g id="edge23" class="edge"><title>Node22&#45;&gt;Node23</title>
<path fill="none" stroke="midnightblue" d="M482.242,-78.0844C507.253,-85.0476 536.551,-93.2046 560.14,-99.7719"/>
<polygon fill="midnightblue" stroke="midnightblue" points="559.298,-103.171 569.871,-102.481 561.176,-96.4271 559.298,-103.171"/>
</g>
<!-- Node24 -->
<g id="node24" class="node"><title>Node24</title>
<g id="a_node24"><a xlink:href="../../d4/daa/class_collision_mesh.html#ae1579dc2df203d65a3ec2a9761748100" target="_top" xlink:title=" ">
<polygon fill="white" stroke="black" points="544.5,-53.483 544.5,-72.483 665.5,-72.483 665.5,-53.483 544.5,-53.483"/>
<text text-anchor="middle" x="605" y="-60.483" font-family="Helvetica,sans-Serif" font-size="10.00">CollisionMesh::translate</text>
</a>
</g>
</g>
<!-- Node22&#45;&gt;Node24 -->
<g id="edge24" class="edge"><title>Node22&#45;&gt;Node24</title>
<path fill="none" stroke="midnightblue" d="M488.077,-62.983C502.884,-62.983 518.867,-62.983 534.094,-62.983"/>
<polygon fill="midnightblue" stroke="midnightblue" points="534.492,-66.4831 544.492,-62.983 534.492,-59.4831 534.492,-66.4831"/>
</g>
<!-- Node24&#45;&gt;Node5 -->
<g id="edge25" class="edge"><title>Node24&#45;&gt;Node5</title>
<path fill="none" stroke="midnightblue" d="M665.599,-55.5961C688.987,-52.6973 715.413,-49.4219 737.311,-46.7078"/>
<polygon fill="midnightblue" stroke="midnightblue" points="737.85,-50.1679 747.344,-45.4643 736.989,-43.221 737.85,-50.1679"/>
</g>
<!-- Node27&#45;&gt;Node8 -->
<g id="edge33" class="edge"><title>Node27&#45;&gt;Node8</title>
<path fill="none" stroke="midnightblue" d="M289.878,-498.494C299.714,-501.054 309.818,-504.192 319,-507.983 336.332,-515.139 336.95,-524.904 355,-529.983 416.608,-547.317 439.988,-554.753 499,-529.983 541.985,-511.94 576.221,-466.764 592.908,-441.257"/>
<polygon fill="midnightblue" stroke="midnightblue" points="596.034,-442.862 598.426,-432.541 590.12,-439.118 596.034,-442.862"/>
</g>
<!-- Node28 -->
<g id="node28" class="node"><title>Node28</title>
<g id="a_node28"><a xlink:href="../../d7/dd1/namespacehh.html#ab959ffbb77b52e2f0b42582c23117eb4" target="_top" xlink:title=" ">
<polygon fill="white" stroke="black" points="387,-501.483 387,-520.483 467,-520.483 467,-501.483 387,-501.483"/>
<text text-anchor="middle" x="427" y="-508.483" font-family="Helvetica,sans-Serif" font-size="10.00">hh::toGlmQuat</text>
</a>
</g>
</g>
<!-- Node27&#45;&gt;Node28 -->
<g id="edge32" class="edge"><title>Node27&#45;&gt;Node28</title>
<path fill="none" stroke="midnightblue" d="M319.134,-498.377C338.665,-500.681 359.012,-503.081 376.645,-505.161"/>
<polygon fill="midnightblue" stroke="midnightblue" points="376.346,-508.65 386.687,-506.345 377.166,-501.698 376.346,-508.65"/>
</g>
</g>
</svg>
