<?xml version="1.0" encoding="UTF-8" standalone="no"?>
<!DOCTYPE svg PUBLIC "-//W3C//DTD SVG 1.1//EN"
 "http://www.w3.org/Graphics/SVG/1.1/DTD/svg11.dtd">
<!-- Generated by graphviz version 2.38.0 (20140413.2041)
 -->
<!-- Title: Application::update Pages: 1 -->
<!--zoomable 676 -->
<svg id="main" version="1.1" xmlns="http://www.w3.org/2000/svg" xmlns:xlink="http://www.w3.org/1999/xlink" xml:space="preserve" onload="init(evt)">
<style type="text/css"><![CDATA[
.edge:hover path { stroke: red; }
.edge:hover polygon { stroke: red; fill: red; }
]]></style>
<script type="text/javascript"><![CDATA[
var edges = document.getElementsByTagName('g');
if (edges && edges.length) {
  for (var i=0;i<edges.length;i++) {
    if (edges[i].id.substr(0,4)=='edge') {
      edges[i].setAttribute('class','edge');
    }
  }
}
]]></script>
        <defs>
                <circle id="rim" cx="0" cy="0" r="7"/>
                <circle id="rim2" cx="0" cy="0" r="3.5"/>
                <g id="zoomPlus">
                        <use xlink:href="#rim" fill="#404040">
                                <set attributeName="fill" to="#808080" begin="zoomplus.mouseover" end="zoomplus.mouseout"/>
                        </use>
                        <path d="M-4,0h8M0,-4v8" fill="none" stroke="white" stroke-width="1.5" pointer-events="none"/>
                </g>
                <g id="zoomMin">
                        <use xlink:href="#rim" fill="#404040">
                                <set attributeName="fill" to="#808080" begin="zoomminus.mouseover" end="zoomminus.mouseout"/>
                        </use>
                        <path d="M-4,0h8" fill="none" stroke="white" stroke-width="1.5" pointer-events="none"/>
                </g>
                <g id="dirArrow">
                        <path fill="none" stroke="white" stroke-width="1.5" d="M0,-3.0v7 M-2.5,-0.5L0,-3.0L2.5,-0.5"/>
                </g>
               <g id="resetDef">
                       <use xlink:href="#rim2" fill="#404040">
                               <set attributeName="fill" to="#808080" begin="reset.mouseover" end="reset.mouseout"/>
                       </use>
               </g>
        </defs>

<script type="text/javascript">
var viewWidth = 1425;
var viewHeight = 676;
var sectionId = 'dynsection-18';
</script>
<script xlink:href="../../svgpan.js"/>
<svg id="graph" class="graph">
<g id="viewport">
<title>Application::update</title>
<polygon fill="white" stroke="none" points="-4,4 -4,-672 1421,-672 1421,4 -4,4"/>
<!-- Node1 -->
<g id="node1" class="node"><title>Node1</title>
<g id="a_node1"><a xlink:title=" ">
<polygon fill="#bfbfbf" stroke="black" points="0,-377.5 0,-396.5 100,-396.5 100,-377.5 0,-377.5"/>
<text text-anchor="middle" x="50" y="-384.5" font-family="Helvetica,sans-Serif" font-size="10.00">Application::update</text>
</a>
</g>
</g>
<!-- Node2 -->
<g id="node2" class="node"><title>Node2</title>
<g id="a_node2"><a xlink:href="../../d9/dbf/class_window.html#a6a545f61aa6fd24598820ad9607ec99a" target="_top" xlink:title=" ">
<polygon fill="white" stroke="black" points="136,-466.5 136,-485.5 251,-485.5 251,-466.5 136,-466.5"/>
<text text-anchor="middle" x="193.5" y="-473.5" font-family="Helvetica,sans-Serif" font-size="10.00">Window::handleEvents</text>
</a>
</g>
</g>
<!-- Node1&#45;&gt;Node2 -->
<g id="edge1" class="edge"><title>Node1&#45;&gt;Node2</title>
<path fill="none" stroke="midnightblue" d="M66.143,-396.525C90.5894,-411.901 138.964,-442.327 168.253,-460.749"/>
<polygon fill="midnightblue" stroke="midnightblue" points="166.709,-463.913 177.037,-466.274 170.436,-457.987 166.709,-463.913"/>
</g>
<!-- Node6 -->
<g id="node6" class="node"><title>Node6</title>
<g id="a_node6"><a xlink:href="../../d4/d7b/class_input.html#a3ef03fa6f1279b8040f4f9ec8a33d9d6" target="_top" xlink:title=" ">
<polygon fill="white" stroke="black" points="143,-377.5 143,-396.5 244,-396.5 244,-377.5 143,-377.5"/>
<text text-anchor="middle" x="193.5" y="-384.5" font-family="Helvetica,sans-Serif" font-size="10.00">Input::handleEvents</text>
</a>
</g>
</g>
<!-- Node1&#45;&gt;Node6 -->
<g id="edge5" class="edge"><title>Node1&#45;&gt;Node6</title>
<path fill="none" stroke="midnightblue" d="M100.093,-387C110.497,-387 121.593,-387 132.354,-387"/>
<polygon fill="midnightblue" stroke="midnightblue" points="132.535,-390.5 142.535,-387 132.535,-383.5 132.535,-390.5"/>
</g>
<!-- Node8 -->
<g id="node8" class="node"><title>Node8</title>
<g id="a_node8"><a xlink:href="../../dd/d1f/class_game.html#a79df6376b332d63c9eca0dcee30305c3" target="_top" xlink:title=" ">
<polygon fill="white" stroke="black" points="154.5,-288.5 154.5,-307.5 232.5,-307.5 232.5,-288.5 154.5,-288.5"/>
<text text-anchor="middle" x="193.5" y="-295.5" font-family="Helvetica,sans-Serif" font-size="10.00">Game::update</text>
</a>
</g>
</g>
<!-- Node1&#45;&gt;Node8 -->
<g id="edge7" class="edge"><title>Node1&#45;&gt;Node8</title>
<path fill="none" stroke="midnightblue" d="M66.143,-377.475C90.5894,-362.099 138.964,-331.673 168.253,-313.251"/>
<polygon fill="midnightblue" stroke="midnightblue" points="170.436,-316.013 177.037,-307.726 166.709,-310.087 170.436,-316.013"/>
</g>
<!-- Node3 -->
<g id="node3" class="node"><title>Node3</title>
<g id="a_node3"><a xlink:href="../../d9/dbf/class_window.html#a85b92a1f0c1678498470aac8f861fda4" target="_top" xlink:title=" ">
<polygon fill="white" stroke="black" points="287,-504.5 287,-523.5 455,-523.5 455,-504.5 287,-504.5"/>
<text text-anchor="middle" x="371" y="-511.5" font-family="Helvetica,sans-Serif" font-size="10.00">Window::getDeviceMaxScreenSize</text>
</a>
</g>
</g>
<!-- Node2&#45;&gt;Node3 -->
<g id="edge2" class="edge"><title>Node2&#45;&gt;Node3</title>
<path fill="none" stroke="midnightblue" d="M238.786,-485.589C262.258,-490.671 291.281,-496.955 316.058,-502.32"/>
<polygon fill="midnightblue" stroke="midnightblue" points="315.518,-505.784 326.032,-504.48 317,-498.943 315.518,-505.784"/>
</g>
<!-- Node4 -->
<g id="node4" class="node"><title>Node4</title>
<g id="a_node4"><a xlink:href="../../d9/dbf/class_window.html#a78623e051f50427bcc05ffcef62a639e" target="_top" xlink:title=" ">
<polygon fill="white" stroke="black" points="312,-466.5 312,-485.5 430,-485.5 430,-466.5 312,-466.5"/>
<text text-anchor="middle" x="371" y="-473.5" font-family="Helvetica,sans-Serif" font-size="10.00">Window::resizeWindow</text>
</a>
</g>
</g>
<!-- Node2&#45;&gt;Node4 -->
<g id="edge3" class="edge"><title>Node2&#45;&gt;Node4</title>
<path fill="none" stroke="midnightblue" d="M251.48,-476C267.477,-476 285.036,-476 301.623,-476"/>
<polygon fill="midnightblue" stroke="midnightblue" points="301.802,-479.5 311.802,-476 301.802,-472.5 301.802,-479.5"/>
</g>
<!-- Node5 -->
<g id="node5" class="node"><title>Node5</title>
<g id="a_node5"><a xlink:href="../../d6/dc9/class_messenger.html#a6610379d1b30c4dfcdd1b47434a056b6" target="_top" xlink:title=" ">
<polygon fill="white" stroke="black" points="519,-517.5 519,-536.5 647,-536.5 647,-517.5 519,-517.5"/>
<text text-anchor="middle" x="583" y="-524.5" font-family="Helvetica,sans-Serif" font-size="10.00">Messenger::AddMessage</text>
</a>
</g>
</g>
<!-- Node4&#45;&gt;Node5 -->
<g id="edge4" class="edge"><title>Node4&#45;&gt;Node5</title>
<path fill="none" stroke="midnightblue" d="M418.355,-485.564C430.365,-488.328 443.228,-491.541 455,-495 471.321,-499.796 474.633,-503.361 491,-508 500.22,-510.613 510.058,-513.036 519.731,-515.217"/>
<polygon fill="midnightblue" stroke="midnightblue" points="519.203,-518.684 529.72,-517.399 520.698,-511.845 519.203,-518.684"/>
</g>
<!-- Node7 -->
<g id="node7" class="node"><title>Node7</title>
<g id="a_node7"><a xlink:href="../../d4/d58/namespace_game_info.html#aeddde82dcc07940ccb9368a5dedc54a4" target="_top" xlink:title=" ">
<polygon fill="white" stroke="black" points="305.5,-377.5 305.5,-396.5 436.5,-396.5 436.5,-377.5 305.5,-377.5"/>
<text text-anchor="middle" x="371" y="-384.5" font-family="Helvetica,sans-Serif" font-size="10.00">GameInfo::terminateGame</text>
</a>
</g>
</g>
<!-- Node6&#45;&gt;Node7 -->
<g id="edge6" class="edge"><title>Node6&#45;&gt;Node7</title>
<path fill="none" stroke="midnightblue" d="M244.322,-387C260.163,-387 278.047,-387 295.248,-387"/>
<polygon fill="midnightblue" stroke="midnightblue" points="295.277,-390.5 305.277,-387 295.277,-383.5 295.277,-390.5"/>
</g>
<!-- Node9 -->
<g id="node9" class="node"><title>Node9</title>
<g id="a_node9"><a xlink:href="../../d2/d54/class_updating_system.html#a127ad554750e7e7582a1904abfb265aa" target="_top" xlink:title=" ">
<polygon fill="white" stroke="black" points="309,-238.5 309,-257.5 433,-257.5 433,-238.5 309,-238.5"/>
<text text-anchor="middle" x="371" y="-245.5" font-family="Helvetica,sans-Serif" font-size="10.00">UpdatingSystem::update</text>
</a>
</g>
</g>
<!-- Node8&#45;&gt;Node9 -->
<g id="edge8" class="edge"><title>Node8&#45;&gt;Node9</title>
<path fill="none" stroke="midnightblue" d="M227.923,-288.478C255.89,-280.51 295.996,-269.084 326.469,-260.402"/>
<polygon fill="midnightblue" stroke="midnightblue" points="327.744,-263.678 336.403,-257.572 325.826,-256.946 327.744,-263.678"/>
</g>
<!-- Node10 -->
<g id="node10" class="node"><title>Node10</title>
<g id="a_node10"><a xlink:href="../../d6/db5/class_scene.html#abe0ba4b6ba925640493f34f730ccd8d4" target="_top" xlink:title=" ">
<polygon fill="white" stroke="black" points="529,-282.5 529,-301.5 637,-301.5 637,-282.5 529,-282.5"/>
<text text-anchor="middle" x="583" y="-289.5" font-family="Helvetica,sans-Serif" font-size="10.00">Scene::getAllEntities</text>
</a>
</g>
</g>
<!-- Node9&#45;&gt;Node10 -->
<g id="edge9" class="edge"><title>Node9&#45;&gt;Node10</title>
<path fill="none" stroke="midnightblue" d="M417.567,-257.547C449.626,-264.265 492.708,-273.291 526.731,-280.42"/>
<polygon fill="midnightblue" stroke="midnightblue" points="526.017,-283.846 536.522,-282.471 527.452,-276.995 526.017,-283.846"/>
</g>
<!-- Node11 -->
<g id="node11" class="node"><title>Node11</title>
<g id="a_node11"><a xlink:href="../../d6/db5/class_scene.html#a65d6f6cd75b250c657d5d4a267c4b245" target="_top" xlink:title=" ">
<polygon fill="white" stroke="black" points="526.5,-145.5 526.5,-164.5 639.5,-164.5 639.5,-145.5 526.5,-145.5"/>
<text text-anchor="middle" x="583" y="-152.5" font-family="Helvetica,sans-Serif" font-size="10.00">Scene::getComponent</text>
</a>
</g>
</g>
<!-- Node9&#45;&gt;Node11 -->
<g id="edge10" class="edge"><title>Node9&#45;&gt;Node11</title>
<path fill="none" stroke="midnightblue" d="M384.071,-238.458C404.738,-222.606 448.769,-190.92 491,-174 499.055,-170.773 507.74,-168.063 516.436,-165.796"/>
<polygon fill="midnightblue" stroke="midnightblue" points="517.333,-169.18 526.225,-163.42 515.682,-162.377 517.333,-169.18"/>
</g>
<!-- Node14 -->
<g id="node14" class="node"><title>Node14</title>
<g id="a_node14"><a xlink:href="../../d6/db5/class_scene.html#ae05acfccb36d74a21bd4988a2b562ceb" target="_top" xlink:title=" ">
<polygon fill="white" stroke="black" points="503.5,-184 503.5,-214 662.5,-214 662.5,-184 503.5,-184"/>
<text text-anchor="start" x="511.5" y="-202" font-family="Helvetica,sans-Serif" font-size="10.00">Scene::getFirstActiveComponent</text>
<text text-anchor="middle" x="583" y="-191" font-family="Helvetica,sans-Serif" font-size="10.00">OfType</text>
</a>
</g>
</g>
<!-- Node9&#45;&gt;Node14 -->
<g id="edge13" class="edge"><title>Node9&#45;&gt;Node14</title>
<path fill="none" stroke="midnightblue" d="M412.739,-238.494C439.654,-232.214 475.723,-223.798 507.649,-216.349"/>
<polygon fill="midnightblue" stroke="midnightblue" points="508.466,-219.752 517.409,-214.071 506.875,-212.935 508.466,-219.752"/>
</g>
<!-- Node15 -->
<g id="node15" class="node"><title>Node15</title>
<g id="a_node15"><a xlink:href="../../d2/d23/class_locator.html#a310ebd51e96b6341e25471b651afaf34" target="_top" xlink:title=" ">
<polygon fill="white" stroke="black" points="928,-191 928,-221 1050,-221 1050,-191 928,-191"/>
<text text-anchor="start" x="936" y="-209" font-family="Helvetica,sans-Serif" font-size="10.00">Locator&lt; Input, NullInput</text>
<text text-anchor="middle" x="989" y="-198" font-family="Helvetica,sans-Serif" font-size="10.00"> &gt;::getService</text>
</a>
</g>
</g>
<!-- Node9&#45;&gt;Node15 -->
<g id="edge15" class="edge"><title>Node9&#45;&gt;Node15</title>
<path fill="none" stroke="midnightblue" d="M378.306,-238.316C394.005,-215.217 437.463,-157.231 491,-136 571.769,-103.969 803.687,-98.3607 882,-136 905.085,-147.095 897.148,-166.128 918,-181 920.679,-182.911 923.519,-184.689 926.461,-186.342"/>
<polygon fill="midnightblue" stroke="midnightblue" points="925.032,-189.541 935.535,-190.933 928.192,-183.295 925.032,-189.541"/>
</g>
<!-- Node16 -->
<g id="node16" class="node"><title>Node16</title>
<g id="a_node16"><a xlink:href="../../d4/d7b/class_input.html#a2aaf873636cedf13e51a424eb6ea802b" target="_top" xlink:title=" ">
<polygon fill="white" stroke="black" points="737,-397.5 737,-416.5 856,-416.5 856,-397.5 737,-397.5"/>
<text text-anchor="middle" x="796.5" y="-404.5" font-family="Helvetica,sans-Serif" font-size="10.00">Input::keyPressedOnce</text>
</a>
</g>
</g>
<!-- Node9&#45;&gt;Node16 -->
<g id="edge16" class="edge"><title>Node9&#45;&gt;Node16</title>
<path fill="none" stroke="midnightblue" d="M379.022,-257.824C395.62,-280.206 439.754,-334.984 491,-360 565.904,-396.564 662.44,-406.03 726.521,-407.839"/>
<polygon fill="midnightblue" stroke="midnightblue" points="726.836,-411.346 736.913,-408.073 726.994,-404.348 726.836,-411.346"/>
</g>
<!-- Node17 -->
<g id="node17" class="node"><title>Node17</title>
<g id="a_node17"><a xlink:href="../../d4/d4f/class_player_camera_handling_system.html#a94f1d2b673b85a1fbbbe39a3759d3bf3" target="_top" xlink:title=" ">
<polygon fill="white" stroke="black" points="491,-321 491,-351 675,-351 675,-321 491,-321"/>
<text text-anchor="start" x="499" y="-339" font-family="Helvetica,sans-Serif" font-size="10.00">PlayerCameraHandlingSystem</text>
<text text-anchor="middle" x="583" y="-328" font-family="Helvetica,sans-Serif" font-size="10.00">::setThirdPersonCameraTargetPosition</text>
</a>
</g>
</g>
<!-- Node9&#45;&gt;Node17 -->
<g id="edge17" class="edge"><title>Node9&#45;&gt;Node17</title>
<path fill="none" stroke="midnightblue" d="M387.637,-257.71C409.898,-271.196 452.32,-295.663 491,-311 497.242,-313.475 503.818,-315.798 510.46,-317.955"/>
<polygon fill="midnightblue" stroke="midnightblue" points="509.621,-321.36 520.21,-320.994 511.704,-314.677 509.621,-321.36"/>
</g>
<!-- Node20 -->
<g id="node20" class="node"><title>Node20</title>
<g id="a_node20"><a xlink:href="../../d7/dd6/class_pause_menu_system.html#a7c17c731da14866fbbfb186f50b7824e" target="_top" xlink:title=" ">
<polygon fill="white" stroke="black" points="514.5,-479.5 514.5,-498.5 651.5,-498.5 651.5,-479.5 514.5,-479.5"/>
<text text-anchor="middle" x="583" y="-486.5" font-family="Helvetica,sans-Serif" font-size="10.00">PauseMenuSystem::update</text>
</a>
</g>
</g>
<!-- Node9&#45;&gt;Node20 -->
<g id="edge20" class="edge"><title>Node9&#45;&gt;Node20</title>
<path fill="none" stroke="midnightblue" d="M378.091,-257.533C394.668,-283.158 442.602,-355.153 491,-408 513.522,-432.593 542.82,-457.618 562.005,-473.214"/>
<polygon fill="midnightblue" stroke="midnightblue" points="559.817,-475.946 569.802,-479.486 564.204,-470.491 559.817,-475.946"/>
</g>
<!-- Node35 -->
<g id="node35" class="node"><title>Node35</title>
<g id="a_node35"><a xlink:href="../../d4/df8/class_camera_system.html#a9bb59c07839a3bf41290e49f367d8fd6" target="_top" xlink:title=" ">
<polygon fill="white" stroke="black" points="737,-69.5 737,-88.5 856,-88.5 856,-69.5 737,-69.5"/>
<text text-anchor="middle" x="796.5" y="-76.5" font-family="Helvetica,sans-Serif" font-size="10.00">CameraSystem::update</text>
</a>
</g>
</g>
<!-- Node9&#45;&gt;Node35 -->
<g id="edge36" class="edge"><title>Node9&#45;&gt;Node35</title>
<path fill="none" stroke="midnightblue" d="M376.459,-238.317C389.529,-211.211 430.664,-134.497 491,-103 564.626,-64.5656 662.137,-64.1764 726.75,-69.6663"/>
<polygon fill="midnightblue" stroke="midnightblue" points="726.55,-73.1626 736.829,-70.5929 727.191,-66.192 726.55,-73.1626"/>
</g>
<!-- Node41 -->
<g id="node41" class="node"><title>Node41</title>
<g id="a_node41"><a xlink:href="../../d5/d50/class_player_controller_system.html#ae968cd78ae054ed5521f19c6d3793933" target="_top" xlink:title=" ">
<polygon fill="white" stroke="black" points="523.5,-233 523.5,-263 642.5,-263 642.5,-233 523.5,-233"/>
<text text-anchor="start" x="531.5" y="-251" font-family="Helvetica,sans-Serif" font-size="10.00">PlayerControllerSystem</text>
<text text-anchor="middle" x="583" y="-240" font-family="Helvetica,sans-Serif" font-size="10.00">::update</text>
</a>
</g>
</g>
<!-- Node9&#45;&gt;Node41 -->
<g id="edge45" class="edge"><title>Node9&#45;&gt;Node41</title>
<path fill="none" stroke="midnightblue" d="M433.023,-248C458.146,-248 487.37,-248 513.245,-248"/>
<polygon fill="midnightblue" stroke="midnightblue" points="513.356,-251.5 523.356,-248 513.356,-244.5 513.356,-251.5"/>
</g>
<!-- Node45 -->
<g id="node45" class="node"><title>Node45</title>
<g id="a_node45"><a xlink:href="../../df/d86/class_default_particle_system.html#a1304aae47238ab24cf8653c2b423d207" target="_top" xlink:title=" ">
<polygon fill="white" stroke="black" points="526.5,-12 526.5,-42 639.5,-42 639.5,-12 526.5,-12"/>
<text text-anchor="start" x="534.5" y="-30" font-family="Helvetica,sans-Serif" font-size="10.00">DefaultParticleSystem</text>
<text text-anchor="middle" x="583" y="-19" font-family="Helvetica,sans-Serif" font-size="10.00">::updateParticles</text>
</a>
</g>
</g>
<!-- Node9&#45;&gt;Node45 -->
<g id="edge49" class="edge"><title>Node9&#45;&gt;Node45</title>
<path fill="none" stroke="midnightblue" d="M375.869,-238.199C388.177,-208.184 429.288,-116.444 491,-65 499.951,-57.5386 510.574,-51.3586 521.349,-46.3061"/>
<polygon fill="midnightblue" stroke="midnightblue" points="523.066,-49.3748 530.818,-42.1524 520.254,-42.9644 523.066,-49.3748"/>
</g>
<!-- Node12 -->
<g id="node12" class="node"><title>Node12</title>
<g id="a_node12"><a xlink:href="../../d6/db5/class_scene.html#af06ab78544ec997fd8e480762b2cc40a" target="_top" xlink:title=" ">
<polygon fill="white" stroke="black" points="711,-183.5 711,-202.5 882,-202.5 882,-183.5 711,-183.5"/>
<text text-anchor="middle" x="796.5" y="-190.5" font-family="Helvetica,sans-Serif" font-size="10.00">Scene::binarySearchForComponent</text>
</a>
</g>
</g>
<!-- Node11&#45;&gt;Node12 -->
<g id="edge11" class="edge"><title>Node11&#45;&gt;Node12</title>
<path fill="none" stroke="midnightblue" d="M637.097,-164.54C666.011,-169.735 701.974,-176.196 732.322,-181.649"/>
<polygon fill="midnightblue" stroke="midnightblue" points="731.919,-185.133 742.381,-183.456 733.157,-178.243 731.919,-185.133"/>
</g>
<!-- Node13 -->
<g id="node13" class="node"><title>Node13</title>
<g id="a_node13"><a xlink:href="../../d6/db5/class_scene.html#a55c346bea3f04eb9d9f8476a68c2fa93" target="_top" xlink:title=" ">
<polygon fill="white" stroke="black" points="723,-145.5 723,-164.5 870,-164.5 870,-145.5 723,-145.5"/>
<text text-anchor="middle" x="796.5" y="-152.5" font-family="Helvetica,sans-Serif" font-size="10.00">Scene::binarySearchForEntity</text>
</a>
</g>
</g>
<!-- Node11&#45;&gt;Node13 -->
<g id="edge12" class="edge"><title>Node11&#45;&gt;Node13</title>
<path fill="none" stroke="midnightblue" d="M639.569,-155C661.944,-155 688.22,-155 712.759,-155"/>
<polygon fill="midnightblue" stroke="midnightblue" points="712.788,-158.5 722.788,-155 712.788,-151.5 712.788,-158.5"/>
</g>
<!-- Node14&#45;&gt;Node12 -->
<g id="edge14" class="edge"><title>Node14&#45;&gt;Node12</title>
<path fill="none" stroke="midnightblue" d="M662.755,-196.766C675.08,-196.416 687.93,-196.052 700.571,-195.693"/>
<polygon fill="midnightblue" stroke="midnightblue" points="700.754,-199.189 710.651,-195.407 700.555,-192.192 700.754,-199.189"/>
</g>
<!-- Node18 -->
<g id="node18" class="node"><title>Node18</title>
<g id="a_node18"><a xlink:href="../../d4/df7/class_player_camera_handler.html#a02eb98ad960e5b71b0b17189426c0f1d" target="_top" xlink:title=" ">
<polygon fill="white" stroke="black" points="735.5,-348 735.5,-378 857.5,-378 857.5,-348 735.5,-348"/>
<text text-anchor="start" x="743.5" y="-366" font-family="Helvetica,sans-Serif" font-size="10.00">PlayerCameraHandler</text>
<text text-anchor="middle" x="796.5" y="-355" font-family="Helvetica,sans-Serif" font-size="10.00">::getCameraTargetOffset</text>
</a>
</g>
</g>
<!-- Node17&#45;&gt;Node18 -->
<g id="edge18" class="edge"><title>Node17&#45;&gt;Node18</title>
<path fill="none" stroke="midnightblue" d="M675.23,-347.646C691.921,-349.777 709.105,-351.971 725.074,-354.009"/>
<polygon fill="midnightblue" stroke="midnightblue" points="725.013,-357.53 735.376,-355.325 725.899,-350.586 725.013,-357.53"/>
</g>
<!-- Node19 -->
<g id="node19" class="node"><title>Node19</title>
<g id="a_node19"><a xlink:href="../../da/dbb/class_camera.html#a4bd1cfe2d720f762d3c983370421c029" target="_top" xlink:title=" ">
<polygon fill="white" stroke="black" points="730.5,-309.5 730.5,-328.5 862.5,-328.5 862.5,-309.5 730.5,-309.5"/>
<text text-anchor="middle" x="796.5" y="-316.5" font-family="Helvetica,sans-Serif" font-size="10.00">Camera::setTargetPosition</text>
</a>
</g>
</g>
<!-- Node17&#45;&gt;Node19 -->
<g id="edge19" class="edge"><title>Node17&#45;&gt;Node19</title>
<path fill="none" stroke="midnightblue" d="M675.23,-328.667C690.309,-327.455 705.79,-326.211 720.414,-325.035"/>
<polygon fill="midnightblue" stroke="midnightblue" points="720.699,-328.524 730.386,-324.234 720.138,-321.546 720.699,-328.524"/>
</g>
<!-- Node20&#45;&gt;Node16 -->
<g id="edge23" class="edge"><title>Node20&#45;&gt;Node16</title>
<path fill="none" stroke="midnightblue" d="M600.288,-479.327C623.931,-465.66 669.478,-440.727 711,-426 718.374,-423.385 726.241,-421.048 734.096,-418.984"/>
<polygon fill="midnightblue" stroke="midnightblue" points="735.144,-422.33 744.001,-416.515 733.451,-415.537 735.144,-422.33"/>
</g>
<!-- Node21 -->
<g id="node21" class="node"><title>Node21</title>
<g id="a_node21"><a xlink:href="../../d9/dd8/class_user_controls.html#ab577475a2b33671f1f5697fbe0e0cc49" target="_top" xlink:title=" ">
<polygon fill="white" stroke="black" points="727.5,-523 727.5,-553 865.5,-553 865.5,-523 727.5,-523"/>
<text text-anchor="start" x="735.5" y="-541" font-family="Helvetica,sans-Serif" font-size="10.00">UserControls::getGuiControl</text>
<text text-anchor="middle" x="796.5" y="-530" font-family="Helvetica,sans-Serif" font-size="10.00">PauseMenuKey</text>
</a>
</g>
</g>
<!-- Node20&#45;&gt;Node21 -->
<g id="edge21" class="edge"><title>Node20&#45;&gt;Node21</title>
<path fill="none" stroke="midnightblue" d="M631.305,-498.52C645.39,-501.45 660.84,-504.76 675,-508 691.953,-511.879 710.187,-516.292 727.211,-520.517"/>
<polygon fill="midnightblue" stroke="midnightblue" points="726.526,-523.954 737.076,-522.978 728.22,-517.162 726.526,-523.954"/>
</g>
<!-- Node22 -->
<g id="node22" class="node"><title>Node22</title>
<g id="a_node22"><a xlink:href="../../d7/d06/class_g_u_i_resizing_information.html#aa8fb79fc71098f1cf2ce4fac2d5c79ac" target="_top" xlink:title=" ">
<polygon fill="white" stroke="black" points="737.5,-474 737.5,-504 855.5,-504 855.5,-474 737.5,-474"/>
<text text-anchor="start" x="745.5" y="-492" font-family="Helvetica,sans-Serif" font-size="10.00">GUIResizingInformation</text>
<text text-anchor="middle" x="796.5" y="-481" font-family="Helvetica,sans-Serif" font-size="10.00">::getWidthUnit</text>
</a>
</g>
</g>
<!-- Node20&#45;&gt;Node22 -->
<g id="edge22" class="edge"><title>Node20&#45;&gt;Node22</title>
<path fill="none" stroke="midnightblue" d="M651.501,-489C675.619,-489 702.805,-489 727.006,-489"/>
<polygon fill="midnightblue" stroke="midnightblue" points="727.178,-492.5 737.177,-489 727.177,-485.5 727.178,-492.5"/>
</g>
<!-- Node23 -->
<g id="node23" class="node"><title>Node23</title>
<g id="a_node23"><a xlink:href="../../d6/d17/class_gui_button.html#aa019fa7e0fbe4a380899cb9ddb418317" target="_top" xlink:title=" ">
<polygon fill="white" stroke="black" points="716,-435.5 716,-454.5 877,-454.5 877,-435.5 716,-435.5"/>
<text text-anchor="middle" x="796.5" y="-442.5" font-family="Helvetica,sans-Serif" font-size="10.00">GuiButton::onButtonClickedOnce</text>
</a>
</g>
</g>
<!-- Node20&#45;&gt;Node23 -->
<g id="edge24" class="edge"><title>Node20&#45;&gt;Node23</title>
<path fill="none" stroke="midnightblue" d="M629.892,-479.453C662.181,-472.735 705.57,-463.709 739.836,-456.58"/>
<polygon fill="midnightblue" stroke="midnightblue" points="740.62,-459.992 749.697,-454.529 739.194,-453.139 740.62,-459.992"/>
</g>
<!-- Node24 -->
<g id="node24" class="node"><title>Node24</title>
<g id="a_node24"><a xlink:href="../../d1/db9/class_gui_sprite.html#a6ec7ef9580657e062cea7f5ce8bcb515" target="_top" xlink:title=" ">
<polygon fill="white" stroke="black" points="746,-648.5 746,-667.5 847,-667.5 847,-648.5 746,-648.5"/>
<text text-anchor="middle" x="796.5" y="-655.5" font-family="Helvetica,sans-Serif" font-size="10.00">GuiSprite::setScale</text>
</a>
</g>
</g>
<!-- Node20&#45;&gt;Node24 -->
<g id="edge25" class="edge"><title>Node20&#45;&gt;Node24</title>
<path fill="none" stroke="midnightblue" d="M651.781,-494.339C660.353,-497.421 668.413,-501.811 675,-508 719.006,-549.344 667.313,-597.32 711,-639 717.944,-645.625 726.678,-650.128 735.878,-653.154"/>
<polygon fill="midnightblue" stroke="midnightblue" points="735.01,-656.545 745.579,-655.801 736.853,-649.792 735.01,-656.545"/>
</g>
<!-- Node25 -->
<g id="node25" class="node"><title>Node25</title>
<g id="a_node25"><a xlink:href="../../dd/df5/class_gui_string.html#a964f40eb765b7ad9827284b65ac2c9fc" target="_top" xlink:title=" ">
<polygon fill="white" stroke="black" points="746,-610.5 746,-629.5 847,-629.5 847,-610.5 746,-610.5"/>
<text text-anchor="middle" x="796.5" y="-617.5" font-family="Helvetica,sans-Serif" font-size="10.00">GuiString::setScale</text>
</a>
</g>
</g>
<!-- Node20&#45;&gt;Node25 -->
<g id="edge26" class="edge"><title>Node20&#45;&gt;Node25</title>
<path fill="none" stroke="midnightblue" d="M651.686,-495.124C660.171,-498.104 668.232,-502.257 675,-508 708.795,-536.677 677.426,-572.065 711,-601 718.11,-607.127 726.777,-611.396 735.818,-614.349"/>
<polygon fill="midnightblue" stroke="midnightblue" points="735.151,-617.795 745.72,-617.062 737,-611.044 735.151,-617.795"/>
</g>
<!-- Node26 -->
<g id="node26" class="node"><title>Node26</title>
<g id="a_node26"><a xlink:href="../../d6/d17/class_gui_button.html#acfb469dd9337dc5ebf70e32037b02851" target="_top" xlink:title=" ">
<polygon fill="white" stroke="black" points="749,-572.5 749,-591.5 844,-591.5 844,-572.5 749,-572.5"/>
<text text-anchor="middle" x="796.5" y="-579.5" font-family="Helvetica,sans-Serif" font-size="10.00">GuiButton::update</text>
</a>
</g>
</g>
<!-- Node20&#45;&gt;Node26 -->
<g id="edge27" class="edge"><title>Node20&#45;&gt;Node26</title>
<path fill="none" stroke="midnightblue" d="M651.583,-496.803C659.892,-499.542 667.933,-503.181 675,-508 699.137,-524.461 686.99,-546.355 711,-563 719.248,-568.718 728.94,-572.747 738.762,-575.577"/>
<polygon fill="midnightblue" stroke="midnightblue" points="738.029,-579.001 748.579,-578.027 739.723,-572.21 738.029,-579.001"/>
</g>
<!-- Node27 -->
<g id="node27" class="node"><title>Node27</title>
<g id="a_node27"><a xlink:href="../../d4/d7b/class_input.html#a8e3bbc45ca89de6dc03cd870d0909345" target="_top" xlink:title=" ">
<polygon fill="white" stroke="black" points="931.5,-528.5 931.5,-547.5 1046.5,-547.5 1046.5,-528.5 931.5,-528.5"/>
<text text-anchor="middle" x="989" y="-535.5" font-family="Helvetica,sans-Serif" font-size="10.00">Input::getMouseButton</text>
</a>
</g>
</g>
<!-- Node26&#45;&gt;Node27 -->
<g id="edge28" class="edge"><title>Node26&#45;&gt;Node27</title>
<path fill="none" stroke="midnightblue" d="M840.507,-572.421C853.815,-569.432 868.52,-566.105 882,-563 900.252,-558.796 920.25,-554.102 937.91,-549.927"/>
<polygon fill="midnightblue" stroke="midnightblue" points="939.082,-553.246 948.007,-547.536 937.469,-546.435 939.082,-553.246"/>
</g>
<!-- Node28 -->
<g id="node28" class="node"><title>Node28</title>
<g id="a_node28"><a xlink:href="../../d4/d7b/class_input.html#aa10d2871226e0b497010dfca43fe278b" target="_top" xlink:title=" ">
<polygon fill="white" stroke="black" points="928,-616.5 928,-635.5 1050,-635.5 1050,-616.5 928,-616.5"/>
<text text-anchor="middle" x="989" y="-623.5" font-family="Helvetica,sans-Serif" font-size="10.00">Input::getMousePosition</text>
</a>
</g>
</g>
<!-- Node26&#45;&gt;Node28 -->
<g id="edge29" class="edge"><title>Node26&#45;&gt;Node28</title>
<path fill="none" stroke="midnightblue" d="M840.507,-591.579C853.815,-594.568 868.52,-597.895 882,-601 900.252,-605.204 920.25,-609.898 937.91,-614.073"/>
<polygon fill="midnightblue" stroke="midnightblue" points="937.469,-617.565 948.007,-616.464 939.082,-610.754 937.469,-617.565"/>
</g>
<!-- Node29 -->
<g id="node29" class="node"><title>Node29</title>
<g id="a_node29"><a xlink:href="../../d6/d17/class_gui_button.html#a571aa197ec582b526b5d6e2639bad843" target="_top" xlink:title=" ">
<polygon fill="white" stroke="black" points="920.5,-296 920.5,-326 1057.5,-326 1057.5,-296 920.5,-296"/>
<text text-anchor="start" x="928.5" y="-314" font-family="Helvetica,sans-Serif" font-size="10.00">GuiButton::mouseCoordsTo</text>
<text text-anchor="middle" x="989" y="-303" font-family="Helvetica,sans-Serif" font-size="10.00">ScreenCoords</text>
</a>
</g>
</g>
<!-- Node26&#45;&gt;Node29 -->
<g id="edge30" class="edge"><title>Node26&#45;&gt;Node29</title>
<path fill="none" stroke="midnightblue" d="M844.044,-579.53C857.495,-576.83 871.392,-571.879 882,-563 918.748,-532.242 963.476,-393.214 980.73,-335.859"/>
<polygon fill="midnightblue" stroke="midnightblue" points="984.123,-336.727 983.624,-326.144 977.414,-334.729 984.123,-336.727"/>
</g>
<!-- Node34 -->
<g id="node34" class="node"><title>Node34</title>
<g id="a_node34"><a xlink:href="../../d6/d17/class_gui_button.html#a72312192b57055be324335dd1ed88a3d" target="_top" xlink:title=" ">
<polygon fill="white" stroke="black" points="925,-567 925,-597 1053,-597 1053,-567 925,-567"/>
<text text-anchor="start" x="933" y="-585" font-family="Helvetica,sans-Serif" font-size="10.00">GuiButton::mouseIsInside</text>
<text text-anchor="middle" x="989" y="-574" font-family="Helvetica,sans-Serif" font-size="10.00">Button</text>
</a>
</g>
</g>
<!-- Node26&#45;&gt;Node34 -->
<g id="edge35" class="edge"><title>Node26&#45;&gt;Node34</title>
<path fill="none" stroke="midnightblue" d="M844.102,-582C865.402,-582 891.139,-582 914.924,-582"/>
<polygon fill="midnightblue" stroke="midnightblue" points="914.979,-585.5 924.979,-582 914.979,-578.5 914.979,-585.5"/>
</g>
<!-- Node30 -->
<g id="node30" class="node"><title>Node30</title>
<g id="a_node30"><a xlink:href="../../d4/d58/namespace_game_info.html#a344c7e16ac06ee1f8458a249aac36e8e" target="_top" xlink:title=" ">
<polygon fill="white" stroke="black" points="1096,-276.5 1096,-295.5 1236,-295.5 1236,-276.5 1096,-276.5"/>
<text text-anchor="middle" x="1166" y="-283.5" font-family="Helvetica,sans-Serif" font-size="10.00">GameInfo::getWindowHeight</text>
</a>
</g>
</g>
<!-- Node29&#45;&gt;Node30 -->
<g id="edge31" class="edge"><title>Node29&#45;&gt;Node30</title>
<path fill="none" stroke="midnightblue" d="M1057.66,-301.334C1067.69,-299.902 1078.08,-298.417 1088.28,-296.961"/>
<polygon fill="midnightblue" stroke="midnightblue" points="1088.98,-300.396 1098.38,-295.516 1087.99,-293.466 1088.98,-300.396"/>
</g>
<!-- Node32 -->
<g id="node32" class="node"><title>Node32</title>
<g id="a_node32"><a xlink:href="../../d4/d58/namespace_game_info.html#a7cf2306eb3025a60a9e2da52eefba71e" target="_top" xlink:title=" ">
<polygon fill="white" stroke="black" points="1097.5,-202.5 1097.5,-221.5 1234.5,-221.5 1234.5,-202.5 1097.5,-202.5"/>
<text text-anchor="middle" x="1166" y="-209.5" font-family="Helvetica,sans-Serif" font-size="10.00">GameInfo::getWindowWidth</text>
</a>
</g>
</g>
<!-- Node29&#45;&gt;Node32 -->
<g id="edge33" class="edge"><title>Node29&#45;&gt;Node32</title>
<path fill="none" stroke="midnightblue" d="M1037.81,-295.891C1045.38,-292.941 1053.01,-289.624 1060,-286 1092.05,-269.379 1125.55,-244.19 1145.85,-227.914"/>
<polygon fill="midnightblue" stroke="midnightblue" points="1148.15,-230.558 1153.7,-221.535 1143.73,-225.125 1148.15,-230.558"/>
</g>
<!-- Node31 -->
<g id="node31" class="node"><title>Node31</title>
<g id="a_node31"><a xlink:href="../../de/d6b/class_application.html#a0398d40c89d52bb8d6ac6ac466c5d30c" target="_top" xlink:title=" ">
<polygon fill="white" stroke="black" points="1272,-271 1272,-301 1417,-301 1417,-271 1272,-271"/>
<text text-anchor="start" x="1280" y="-289" font-family="Helvetica,sans-Serif" font-size="10.00">Application::getGameWindow</text>
<text text-anchor="middle" x="1344.5" y="-278" font-family="Helvetica,sans-Serif" font-size="10.00">Height</text>
</a>
</g>
</g>
<!-- Node30&#45;&gt;Node31 -->
<g id="edge32" class="edge"><title>Node30&#45;&gt;Node31</title>
<path fill="none" stroke="midnightblue" d="M1236.25,-286C1244.56,-286 1253.1,-286 1261.57,-286"/>
<polygon fill="midnightblue" stroke="midnightblue" points="1261.83,-289.5 1271.83,-286 1261.83,-282.5 1261.83,-289.5"/>
</g>
<!-- Node33 -->
<g id="node33" class="node"><title>Node33</title>
<g id="a_node33"><a xlink:href="../../de/d6b/class_application.html#aad8864ec1fa58ee23db7b111876d09a5" target="_top" xlink:title=" ">
<polygon fill="white" stroke="black" points="1272,-197 1272,-227 1417,-227 1417,-197 1272,-197"/>
<text text-anchor="start" x="1280" y="-215" font-family="Helvetica,sans-Serif" font-size="10.00">Application::getGameWindow</text>
<text text-anchor="middle" x="1344.5" y="-204" font-family="Helvetica,sans-Serif" font-size="10.00">Width</text>
</a>
</g>
</g>
<!-- Node32&#45;&gt;Node33 -->
<g id="edge34" class="edge"><title>Node32&#45;&gt;Node33</title>
<path fill="none" stroke="midnightblue" d="M1234.73,-212C1243.56,-212 1252.68,-212 1261.71,-212"/>
<polygon fill="midnightblue" stroke="midnightblue" points="1261.85,-215.5 1271.85,-212 1261.85,-208.5 1261.85,-215.5"/>
</g>
<!-- Node35&#45;&gt;Node15 -->
<g id="edge42" class="edge"><title>Node35&#45;&gt;Node15</title>
<path fill="none" stroke="midnightblue" d="M856.28,-88.5445C865.593,-91.984 874.583,-96.656 882,-103 911.015,-127.817 889.823,-155.235 918,-181 919.702,-182.557 921.508,-184.018 923.395,-185.389"/>
<polygon fill="midnightblue" stroke="midnightblue" points="921.78,-188.507 932.114,-190.845 925.493,-182.573 921.78,-188.507"/>
</g>
<!-- Node36 -->
<g id="node36" class="node"><title>Node36</title>
<g id="a_node36"><a xlink:href="../../da/dbb/class_camera.html#ad4f098389debf103ea7a26e344a653dd" target="_top" xlink:title=" ">
<polygon fill="white" stroke="black" points="918,-114.5 918,-133.5 1060,-133.5 1060,-114.5 918,-114.5"/>
<text text-anchor="middle" x="989" y="-121.5" font-family="Helvetica,sans-Serif" font-size="10.00">Camera::getCameraDistance</text>
</a>
</g>
</g>
<!-- Node35&#45;&gt;Node36 -->
<g id="edge37" class="edge"><title>Node35&#45;&gt;Node36</title>
<path fill="none" stroke="midnightblue" d="M837.9,-88.5433C867.072,-95.4342 906.655,-104.785 937.849,-112.153"/>
<polygon fill="midnightblue" stroke="midnightblue" points="937.121,-115.578 947.658,-114.47 938.731,-108.765 937.121,-115.578"/>
</g>
<!-- Node37 -->
<g id="node37" class="node"><title>Node37</title>
<g id="a_node37"><a xlink:href="../../d4/d58/namespace_game_info.html#aa6186a79a90a3fcd2556c4282b20a077" target="_top" xlink:title=" ">
<polygon fill="white" stroke="black" points="928.5,-0.5 928.5,-19.5 1049.5,-19.5 1049.5,-0.5 928.5,-0.5"/>
<text text-anchor="middle" x="989" y="-7.5" font-family="Helvetica,sans-Serif" font-size="10.00">GameInfo::getDeltaTime</text>
</a>
</g>
</g>
<!-- Node35&#45;&gt;Node37 -->
<g id="edge38" class="edge"><title>Node35&#45;&gt;Node37</title>
<path fill="none" stroke="midnightblue" d="M819.922,-69.291C849.257,-56.6598 899.139,-35.4432 918,-29 924.882,-26.6491 932.221,-24.392 939.461,-22.306"/>
<polygon fill="midnightblue" stroke="midnightblue" points="940.533,-25.6405 949.22,-19.5748 938.646,-18.8995 940.533,-25.6405"/>
</g>
<!-- Node38 -->
<g id="node38" class="node"><title>Node38</title>
<g id="a_node38"><a xlink:href="../../d4/d7b/class_input.html#a971adcc605a1101f162e2be7a5c16a5e" target="_top" xlink:title=" ">
<polygon fill="white" stroke="black" points="934.5,-152.5 934.5,-171.5 1043.5,-171.5 1043.5,-152.5 934.5,-152.5"/>
<text text-anchor="middle" x="989" y="-159.5" font-family="Helvetica,sans-Serif" font-size="10.00">Input::getMouseDelta</text>
</a>
</g>
</g>
<!-- Node35&#45;&gt;Node38 -->
<g id="edge39" class="edge"><title>Node35&#45;&gt;Node38</title>
<path fill="none" stroke="midnightblue" d="M848.605,-88.5479C860.117,-92.0222 871.905,-96.708 882,-103 902.298,-115.651 897.629,-130.468 918,-143 921.56,-145.19 925.373,-147.131 929.314,-148.852"/>
<polygon fill="midnightblue" stroke="midnightblue" points="928.093,-152.132 938.682,-152.478 930.62,-145.604 928.093,-152.132"/>
</g>
<!-- Node39 -->
<g id="node39" class="node"><title>Node39</title>
<g id="a_node39"><a xlink:href="../../da/dbb/class_camera.html#a4849cb25adcc05df85e1cfba9da77a33" target="_top" xlink:title=" ">
<polygon fill="white" stroke="black" points="918,-76.5 918,-95.5 1060,-95.5 1060,-76.5 918,-76.5"/>
<text text-anchor="middle" x="989" y="-83.5" font-family="Helvetica,sans-Serif" font-size="10.00">Camera::setCameraDistance</text>
</a>
</g>
</g>
<!-- Node35&#45;&gt;Node39 -->
<g id="edge43" class="edge"><title>Node35&#45;&gt;Node39</title>
<path fill="none" stroke="midnightblue" d="M856.211,-81.1573C872.478,-81.7551 890.42,-82.4144 907.691,-83.049"/>
<polygon fill="midnightblue" stroke="midnightblue" points="907.643,-86.5495 917.764,-83.4192 907.9,-79.5542 907.643,-86.5495"/>
</g>
<!-- Node40 -->
<g id="node40" class="node"><title>Node40</title>
<g id="a_node40"><a xlink:href="../../d7/dd1/namespacehh.html#ad58b31143e949894df4e3ca4eaa20550" target="_top" xlink:title=" ">
<polygon fill="white" stroke="black" points="927,-38.5 927,-57.5 1051,-57.5 1051,-38.5 927,-38.5"/>
<text text-anchor="middle" x="989" y="-45.5" font-family="Helvetica,sans-Serif" font-size="10.00">hh::sphericalToCartisean</text>
</a>
</g>
</g>
<!-- Node35&#45;&gt;Node40 -->
<g id="edge44" class="edge"><title>Node35&#45;&gt;Node40</title>
<path fill="none" stroke="midnightblue" d="M855.951,-69.4883C875.971,-66.2304 898.554,-62.5555 919.309,-59.1781"/>
<polygon fill="midnightblue" stroke="midnightblue" points="920.023,-62.6079 929.331,-57.5471 918.899,-55.6988 920.023,-62.6079"/>
</g>
<!-- Node38&#45;&gt;Node30 -->
<g id="edge40" class="edge"><title>Node38&#45;&gt;Node30</title>
<path fill="none" stroke="midnightblue" d="M1041.53,-171.587C1048.06,-174.043 1054.41,-177.127 1060,-181 1082.51,-196.595 1077.12,-211.169 1096,-231 1110.17,-245.883 1128.44,-260.272 1142.62,-270.597"/>
<polygon fill="midnightblue" stroke="midnightblue" points="1140.67,-273.508 1150.84,-276.469 1144.74,-267.81 1140.67,-273.508"/>
</g>
<!-- Node38&#45;&gt;Node32 -->
<g id="edge41" class="edge"><title>Node38&#45;&gt;Node32</title>
<path fill="none" stroke="midnightblue" d="M1025.65,-171.514C1036.68,-174.5 1048.85,-177.842 1060,-181 1081.02,-186.956 1104.34,-193.814 1123.65,-199.563"/>
<polygon fill="midnightblue" stroke="midnightblue" points="1122.77,-202.952 1133.35,-202.458 1124.77,-196.244 1122.77,-202.952"/>
</g>
<!-- Node42 -->
<g id="node42" class="node"><title>Node42</title>
<g id="a_node42"><a xlink:href="../../d5/d50/class_player_controller_system.html#a9b0be7cb86a889e07b30d9fa68a7aaa7" target="_top" xlink:title=" ">
<polygon fill="white" stroke="black" points="737,-260 737,-290 856,-290 856,-260 737,-260"/>
<text text-anchor="start" x="745" y="-278" font-family="Helvetica,sans-Serif" font-size="10.00">PlayerControllerSystem</text>
<text text-anchor="middle" x="796.5" y="-267" font-family="Helvetica,sans-Serif" font-size="10.00">::applyNewRotation</text>
</a>
</g>
</g>
<!-- Node41&#45;&gt;Node42 -->
<g id="edge46" class="edge"><title>Node41&#45;&gt;Node42</title>
<path fill="none" stroke="midnightblue" d="M642.634,-255.485C668.65,-258.806 699.449,-262.738 726.56,-266.199"/>
<polygon fill="midnightblue" stroke="midnightblue" points="726.39,-269.706 736.752,-267.5 727.276,-262.762 726.39,-269.706"/>
</g>
<!-- Node44 -->
<g id="node44" class="node"><title>Node44</title>
<g id="a_node44"><a xlink:href="../../da/dbb/class_camera.html#ae44d552243a7b430e94ed9e70adcf07b" target="_top" xlink:title=" ">
<polygon fill="white" stroke="black" points="744.5,-221.5 744.5,-240.5 848.5,-240.5 848.5,-221.5 744.5,-221.5"/>
<text text-anchor="middle" x="796.5" y="-228.5" font-family="Helvetica,sans-Serif" font-size="10.00">Camera::getForward</text>
</a>
</g>
</g>
<!-- Node41&#45;&gt;Node44 -->
<g id="edge48" class="edge"><title>Node41&#45;&gt;Node44</title>
<path fill="none" stroke="midnightblue" d="M642.634,-243.287C671.051,-241.003 705.175,-238.26 733.965,-235.946"/>
<polygon fill="midnightblue" stroke="midnightblue" points="734.623,-239.405 744.311,-235.115 734.062,-232.427 734.623,-239.405"/>
</g>
<!-- Node43 -->
<g id="node43" class="node"><title>Node43</title>
<g id="a_node43"><a xlink:href="../../d7/dd1/namespacehh.html#aa744e19f5c464bf275c30a824f81b06e" target="_top" xlink:title=" ">
<polygon fill="white" stroke="black" points="922,-247 922,-277 1056,-277 1056,-247 922,-247"/>
<text text-anchor="start" x="930" y="-265" font-family="Helvetica,sans-Serif" font-size="10.00">hh::signedRadiansBetween</text>
<text text-anchor="middle" x="989" y="-254" font-family="Helvetica,sans-Serif" font-size="10.00">Vectors</text>
</a>
</g>
</g>
<!-- Node42&#45;&gt;Node43 -->
<g id="edge47" class="edge"><title>Node42&#45;&gt;Node43</title>
<path fill="none" stroke="midnightblue" d="M856.211,-270.993C873.737,-269.798 893.208,-268.469 911.688,-267.208"/>
<polygon fill="midnightblue" stroke="midnightblue" points="912.095,-270.688 921.834,-266.515 911.619,-263.704 912.095,-270.688"/>
</g>
<!-- Node46 -->
<g id="node46" class="node"><title>Node46</title>
<g id="a_node46"><a xlink:href="../../df/d86/class_default_particle_system.html#a27c707a1f76448433785ce06a0f5152c" target="_top" xlink:title=" ">
<polygon fill="white" stroke="black" points="726,-4 726,-34 867,-34 867,-4 726,-4"/>
<text text-anchor="start" x="734" y="-22" font-family="Helvetica,sans-Serif" font-size="10.00">DefaultParticleSystem</text>
<text text-anchor="middle" x="796.5" y="-11" font-family="Helvetica,sans-Serif" font-size="10.00">::performParticleCalculations</text>
</a>
</g>
</g>
<!-- Node45&#45;&gt;Node46 -->
<g id="edge50" class="edge"><title>Node45&#45;&gt;Node46</title>
<path fill="none" stroke="midnightblue" d="M639.569,-24.8981C662.907,-24.0153 690.491,-22.972 715.92,-22.0101"/>
<polygon fill="midnightblue" stroke="midnightblue" points="716.057,-25.5075 725.917,-21.632 715.792,-18.5125 716.057,-25.5075"/>
</g>
<!-- Node46&#45;&gt;Node37 -->
<g id="edge51" class="edge"><title>Node46&#45;&gt;Node37</title>
<path fill="none" stroke="midnightblue" d="M867.084,-15.7126C883.719,-14.9267 901.483,-14.0874 918.132,-13.3009"/>
<polygon fill="midnightblue" stroke="midnightblue" points="918.51,-16.787 928.333,-12.8189 918.179,-9.7948 918.51,-16.787"/>
</g>
</g>
</svg>
        <g id="navigator" transform="translate(0 0)" fill="#404254">
                <rect fill="#f2f5e9" fill-opacity="0.5" stroke="#606060" stroke-width=".5" x="0" y="0" width="60" height="60"/>
                <use id="zoomplus" xlink:href="#zoomPlus" x="17" y="9" onmousedown="handleZoom(evt,'in')"/>
                <use id="zoomminus" xlink:href="#zoomMin" x="42" y="9" onmousedown="handleZoom(evt,'out')"/>
                <use id="reset" xlink:href="#resetDef" x="30" y="36" onmousedown="handleReset()"/>
                <g id="arrowUp" xlink:href="#dirArrow" transform="translate(30 24)" onmousedown="handlePan(0,-1)">
                  <use xlink:href="#rim" fill="#404040">
                        <set attributeName="fill" to="#808080" begin="arrowUp.mouseover" end="arrowUp.mouseout"/>
                  </use>
                  <path fill="none" stroke="white" stroke-width="1.5" d="M0,-3.0v7 M-2.5,-0.5L0,-3.0L2.5,-0.5"/>
                </g>
                <g id="arrowRight" xlink:href="#dirArrow" transform="rotate(90) translate(36 -43)" onmousedown="handlePan(1,0)">
                  <use xlink:href="#rim" fill="#404040">
                        <set attributeName="fill" to="#808080" begin="arrowRight.mouseover" end="arrowRight.mouseout"/>
                  </use>
                  <path fill="none" stroke="white" stroke-width="1.5" d="M0,-3.0v7 M-2.5,-0.5L0,-3.0L2.5,-0.5"/>
                </g>
                <g id="arrowDown" xlink:href="#dirArrow" transform="rotate(180) translate(-30 -48)" onmousedown="handlePan(0,1)">
                  <use xlink:href="#rim" fill="#404040">
                        <set attributeName="fill" to="#808080" begin="arrowDown.mouseover" end="arrowDown.mouseout"/>
                  </use>
                  <path fill="none" stroke="white" stroke-width="1.5" d="M0,-3.0v7 M-2.5,-0.5L0,-3.0L2.5,-0.5"/>
                </g>
                <g id="arrowLeft" xlink:href="#dirArrow" transform="rotate(270) translate(-36 17)" onmousedown="handlePan(-1,0)">
                  <use xlink:href="#rim" fill="#404040">
                        <set attributeName="fill" to="#808080" begin="arrowLeft.mouseover" end="arrowLeft.mouseout"/>
                  </use>
                  <path fill="none" stroke="white" stroke-width="1.5" d="M0,-3.0v7 M-2.5,-0.5L0,-3.0L2.5,-0.5"/>
                </g>
        </g>
        <svg viewBox="0 0 15 15" width="100%" height="30px" preserveAspectRatio="xMaxYMin meet">
         <g id="arrow_out" transform="scale(0.3 0.3)">
          <a xlink:href="class_application_a051023103d00b96b1e5e7437fd8e2e7c_cgraph_org.svg" target="_base">
           <rect id="button" ry="5" rx="5" y="6" x="6" height="38" width="38"
                fill="#f2f5e9" fill-opacity="0.5" stroke="#606060" stroke-width="1.0"/>
           <path id="arrow"
             d="M 11.500037,31.436501 C 11.940474,20.09759 22.043105,11.32322 32.158766,21.979434 L 37.068811,17.246167 C 37.068811,17.246167 37.088388,32 37.088388,32 L 22.160133,31.978069 C 22.160133,31.978069 26.997745,27.140456 26.997745,27.140456 C 18.528582,18.264221 13.291696,25.230495 11.500037,31.436501 z"
             style="fill:#404040;"/>
          </a>
         </g>
        </svg>
</svg>
