<?xml version="1.0" encoding="UTF-8" standalone="no"?>
<!DOCTYPE svg PUBLIC "-//W3C//DTD SVG 1.1//EN"
 "http://www.w3.org/Graphics/SVG/1.1/DTD/svg11.dtd">
<!-- Generated by graphviz version 2.38.0 (20140413.2041)
 -->
<!-- Title: Application::initializeSDL Pages: 1 -->
<svg width="496pt" height="180pt"
 viewBox="0.00 0.00 496.00 180.00" xmlns="http://www.w3.org/2000/svg" xmlns:xlink="http://www.w3.org/1999/xlink">
<g id="graph0" class="graph" transform="scale(1 1) rotate(0) translate(4 176)">
<title>Application::initializeSDL</title>
<polygon fill="white" stroke="none" points="-4,4 -4,-176 492,-176 492,4 -4,4"/>
<!-- Node1 -->
<g id="node1" class="node"><title>Node1</title>
<g id="a_node1"><a xlink:title=" ">
<polygon fill="#bfbfbf" stroke="black" points="0,-76.5 0,-95.5 125,-95.5 125,-76.5 0,-76.5"/>
<text text-anchor="middle" x="62.5" y="-83.5" font-family="Helvetica,sans-Serif" font-size="10.00">Application::initializeSDL</text>
</a>
</g>
</g>
<!-- Node2 -->
<g id="node2" class="node"><title>Node2</title>
<g id="a_node2"><a xlink:href="../../d9/dbf/class_window.html#ac2d85f74ad9f6b6d76c158b1b98cee5b" target="_top" xlink:title=" ">
<polygon fill="white" stroke="black" points="179.5,-152.5 179.5,-171.5 284.5,-171.5 284.5,-152.5 179.5,-152.5"/>
<text text-anchor="middle" x="232" y="-159.5" font-family="Helvetica,sans-Serif" font-size="10.00">Window::getWindow</text>
</a>
</g>
</g>
<!-- Node1&#45;&gt;Node2 -->
<g id="edge1" class="edge"><title>Node1&#45;&gt;Node2</title>
<path fill="none" stroke="midnightblue" d="M77.1022,-95.5232C95.4135,-107.967 129.356,-129.732 161,-143 166.716,-145.397 172.821,-147.574 178.955,-149.528"/>
<polygon fill="midnightblue" stroke="midnightblue" points="177.982,-152.89 188.566,-152.414 179.995,-146.186 177.982,-152.89"/>
</g>
<!-- Node3 -->
<g id="node3" class="node"><title>Node3</title>
<g id="a_node3"><a xlink:href="../../d4/d58/namespace_game_info.html#a344c7e16ac06ee1f8458a249aac36e8e" target="_top" xlink:title=" ">
<polygon fill="white" stroke="black" points="162,-114.5 162,-133.5 302,-133.5 302,-114.5 162,-114.5"/>
<text text-anchor="middle" x="232" y="-121.5" font-family="Helvetica,sans-Serif" font-size="10.00">GameInfo::getWindowHeight</text>
</a>
</g>
</g>
<!-- Node1&#45;&gt;Node3 -->
<g id="edge2" class="edge"><title>Node1&#45;&gt;Node3</title>
<path fill="none" stroke="midnightblue" d="M105.767,-95.589C128.07,-100.649 155.623,-106.9 179.202,-112.249"/>
<polygon fill="midnightblue" stroke="midnightblue" points="178.51,-115.681 189.037,-114.48 180.059,-108.854 178.51,-115.681"/>
</g>
<!-- Node5 -->
<g id="node5" class="node"><title>Node5</title>
<g id="a_node5"><a xlink:href="../../d4/d58/namespace_game_info.html#a7cf2306eb3025a60a9e2da52eefba71e" target="_top" xlink:title=" ">
<polygon fill="white" stroke="black" points="163.5,-76.5 163.5,-95.5 300.5,-95.5 300.5,-76.5 163.5,-76.5"/>
<text text-anchor="middle" x="232" y="-83.5" font-family="Helvetica,sans-Serif" font-size="10.00">GameInfo::getWindowWidth</text>
</a>
</g>
</g>
<!-- Node1&#45;&gt;Node5 -->
<g id="edge4" class="edge"><title>Node1&#45;&gt;Node5</title>
<path fill="none" stroke="midnightblue" d="M125.395,-86C134.497,-86 143.97,-86 153.34,-86"/>
<polygon fill="midnightblue" stroke="midnightblue" points="153.446,-89.5001 163.446,-86 153.446,-82.5001 153.446,-89.5001"/>
</g>
<!-- Node7 -->
<g id="node7" class="node"><title>Node7</title>
<g id="a_node7"><a xlink:href="../../d9/dbf/class_window.html#ab8bedded50af796c7f44603bb71ba33b" target="_top" xlink:title=" ">
<polygon fill="white" stroke="black" points="186,-38.5 186,-57.5 278,-57.5 278,-38.5 186,-38.5"/>
<text text-anchor="middle" x="232" y="-45.5" font-family="Helvetica,sans-Serif" font-size="10.00">Window::initialize</text>
</a>
</g>
</g>
<!-- Node1&#45;&gt;Node7 -->
<g id="edge6" class="edge"><title>Node1&#45;&gt;Node7</title>
<path fill="none" stroke="midnightblue" d="M105.767,-76.411C128.07,-71.3513 155.623,-65.1004 179.202,-59.7512"/>
<polygon fill="midnightblue" stroke="midnightblue" points="180.059,-63.1458 189.037,-57.5201 178.51,-56.3193 180.059,-63.1458"/>
</g>
<!-- Node8 -->
<g id="node8" class="node"><title>Node8</title>
<g id="a_node8"><a xlink:href="../../d4/d58/namespace_game_info.html#aea6e21f4828393a3ae9aca0eee51c5ba" target="_top" xlink:title=" ">
<polygon fill="white" stroke="black" points="161,-0.5 161,-19.5 303,-19.5 303,-0.5 161,-0.5"/>
<text text-anchor="middle" x="232" y="-7.5" font-family="Helvetica,sans-Serif" font-size="10.00">GameInfo::setMousePosition</text>
</a>
</g>
</g>
<!-- Node1&#45;&gt;Node8 -->
<g id="edge7" class="edge"><title>Node1&#45;&gt;Node8</title>
<path fill="none" stroke="midnightblue" d="M77.1022,-76.4768C95.4135,-64.0326 129.356,-42.2684 161,-29 166.716,-26.6034 172.821,-24.426 178.955,-22.4721"/>
<polygon fill="midnightblue" stroke="midnightblue" points="179.995,-25.8144 188.566,-19.5863 177.982,-19.1101 179.995,-25.8144"/>
</g>
<!-- Node4 -->
<g id="node4" class="node"><title>Node4</title>
<g id="a_node4"><a xlink:href="../../de/d6b/class_application.html#a0398d40c89d52bb8d6ac6ac466c5d30c" target="_top" xlink:title=" ">
<polygon fill="white" stroke="black" points="341,-114 341,-144 486,-144 486,-114 341,-114"/>
<text text-anchor="start" x="349" y="-132" font-family="Helvetica,sans-Serif" font-size="10.00">Application::getGameWindow</text>
<text text-anchor="middle" x="413.5" y="-121" font-family="Helvetica,sans-Serif" font-size="10.00">Height</text>
</a>
</g>
</g>
<!-- Node3&#45;&gt;Node4 -->
<g id="edge3" class="edge"><title>Node3&#45;&gt;Node4</title>
<path fill="none" stroke="midnightblue" d="M302.143,-125.926C311.426,-126.185 321.021,-126.452 330.499,-126.716"/>
<polygon fill="midnightblue" stroke="midnightblue" points="330.625,-130.221 340.718,-127.001 330.82,-123.223 330.625,-130.221"/>
</g>
<!-- Node6 -->
<g id="node6" class="node"><title>Node6</title>
<g id="a_node6"><a xlink:href="../../de/d6b/class_application.html#aad8864ec1fa58ee23db7b111876d09a5" target="_top" xlink:title=" ">
<polygon fill="white" stroke="black" points="341,-65 341,-95 486,-95 486,-65 341,-65"/>
<text text-anchor="start" x="349" y="-83" font-family="Helvetica,sans-Serif" font-size="10.00">Application::getGameWindow</text>
<text text-anchor="middle" x="413.5" y="-72" font-family="Helvetica,sans-Serif" font-size="10.00">Width</text>
</a>
</g>
</g>
<!-- Node5&#45;&gt;Node6 -->
<g id="edge5" class="edge"><title>Node5&#45;&gt;Node6</title>
<path fill="none" stroke="midnightblue" d="M300.605,-83.7402C310.444,-83.4113 320.662,-83.0698 330.743,-82.7328"/>
<polygon fill="midnightblue" stroke="midnightblue" points="330.883,-86.2302 340.761,-82.398 330.649,-79.2341 330.883,-86.2302"/>
</g>
<!-- Node9 -->
<g id="node9" class="node"><title>Node9</title>
<g id="a_node9"><a xlink:href="../../de/d6b/class_application.html#a01dc1b9c36720b31e0419c829e8000c0" target="_top" xlink:title=" ">
<polygon fill="white" stroke="black" points="339,-0.5 339,-19.5 488,-19.5 488,-0.5 339,-0.5"/>
<text text-anchor="middle" x="413.5" y="-7.5" font-family="Helvetica,sans-Serif" font-size="10.00">Application::setMousePosition</text>
</a>
</g>
</g>
<!-- Node8&#45;&gt;Node9 -->
<g id="edge8" class="edge"><title>Node8&#45;&gt;Node9</title>
<path fill="none" stroke="midnightblue" d="M303.171,-10C311.581,-10 320.232,-10 328.809,-10"/>
<polygon fill="midnightblue" stroke="midnightblue" points="328.825,-13.5001 338.825,-10 328.825,-6.5001 328.825,-13.5001"/>
</g>
</g>
</svg>
