<?xml version="1.0" encoding="UTF-8" standalone="no"?>
<!DOCTYPE svg PUBLIC "-//W3C//DTD SVG 1.1//EN"
 "http://www.w3.org/Graphics/SVG/1.1/DTD/svg11.dtd">
<!-- Generated by graphviz version 2.38.0 (20140413.2041)
 -->
<!-- Title: Application::getGameWindowHeight Pages: 1 -->
<svg width="1896pt" height="601pt"
 viewBox="0.00 0.00 1896.00 601.34" xmlns="http://www.w3.org/2000/svg" xmlns:xlink="http://www.w3.org/1999/xlink">
<g id="graph0" class="graph" transform="scale(1 1) rotate(0) translate(4 597.344)">
<title>Application::getGameWindowHeight</title>
<polygon fill="white" stroke="none" points="-4,4 -4,-597.344 1892,-597.344 1892,4 -4,4"/>
<!-- Node1 -->
<g id="node1" class="node"><title>Node1</title>
<g id="a_node1"><a xlink:title=" ">
<polygon fill="#bfbfbf" stroke="black" points="1743,-300.5 1743,-330.5 1888,-330.5 1888,-300.5 1743,-300.5"/>
<text text-anchor="start" x="1751" y="-318.5" font-family="Helvetica,sans-Serif" font-size="10.00">Application::getGameWindow</text>
<text text-anchor="middle" x="1815.5" y="-307.5" font-family="Helvetica,sans-Serif" font-size="10.00">Height</text>
</a>
</g>
</g>
<!-- Node2 -->
<g id="node2" class="node"><title>Node2</title>
<g id="a_node2"><a xlink:href="../../d4/d58/namespace_game_info.html#a344c7e16ac06ee1f8458a249aac36e8e" target="_top" xlink:title=" ">
<polygon fill="white" stroke="black" points="1567,-306 1567,-325 1707,-325 1707,-306 1567,-306"/>
<text text-anchor="middle" x="1637" y="-313" font-family="Helvetica,sans-Serif" font-size="10.00">GameInfo::getWindowHeight</text>
</a>
</g>
</g>
<!-- Node1&#45;&gt;Node2 -->
<g id="edge1" class="edge"><title>Node1&#45;&gt;Node2</title>
<path fill="none" stroke="midnightblue" d="M1732.89,-315.5C1724.25,-315.5 1715.53,-315.5 1707.06,-315.5"/>
<polygon fill="midnightblue" stroke="midnightblue" points="1732.97,-319 1742.97,-315.5 1732.97,-312 1732.97,-319"/>
</g>
<!-- Node3 -->
<g id="node3" class="node"><title>Node3</title>
<g id="a_node3"><a xlink:href="../../d3/de8/class_fixed_updating_system.html#a3ed508813ba850baed19e86ef0429028" target="_top" xlink:title=" ">
<polygon fill="white" stroke="black" points="1039.5,-177.5 1039.5,-207.5 1152.5,-207.5 1152.5,-177.5 1039.5,-177.5"/>
<text text-anchor="start" x="1047.5" y="-195.5" font-family="Helvetica,sans-Serif" font-size="10.00">FixedUpdatingSystem</text>
<text text-anchor="middle" x="1096" y="-184.5" font-family="Helvetica,sans-Serif" font-size="10.00">::fixedUpdate</text>
</a>
</g>
</g>
<!-- Node2&#45;&gt;Node3 -->
<g id="edge2" class="edge"><title>Node2&#45;&gt;Node3</title>
<path fill="none" stroke="midnightblue" d="M1622.6,-297.781C1604.55,-275.404 1570.12,-237.745 1531,-220.5 1404.91,-164.918 1238.03,-174.354 1152.6,-184.354"/>
<polygon fill="midnightblue" stroke="midnightblue" points="1619.97,-300.097 1628.9,-305.8 1625.48,-295.774 1619.97,-300.097"/>
</g>
<!-- Node8 -->
<g id="node8" class="node"><title>Node8</title>
<g id="a_node8"><a xlink:href="../../d7/d06/class_g_u_i_resizing_information.html#a6faff559de8645d296ca4c3b99297b62" target="_top" xlink:title=" ">
<polygon fill="white" stroke="black" points="1387.5,-524.5 1387.5,-554.5 1521.5,-554.5 1521.5,-524.5 1387.5,-524.5"/>
<text text-anchor="start" x="1395.5" y="-542.5" font-family="Helvetica,sans-Serif" font-size="10.00">GUIResizingInformation</text>
<text text-anchor="middle" x="1454.5" y="-531.5" font-family="Helvetica,sans-Serif" font-size="10.00">::getBottomScreenPosition</text>
</a>
</g>
</g>
<!-- Node2&#45;&gt;Node8 -->
<g id="edge7" class="edge"><title>Node2&#45;&gt;Node8</title>
<path fill="none" stroke="midnightblue" d="M1631.12,-334.701C1620.1,-374.177 1589.59,-464.897 1531,-514.5 1526.47,-518.336 1521.33,-521.589 1515.91,-524.346"/>
<polygon fill="midnightblue" stroke="midnightblue" points="1634.51,-335.567 1633.72,-325.002 1627.75,-333.756 1634.51,-335.567"/>
</g>
<!-- Node9 -->
<g id="node9" class="node"><title>Node9</title>
<g id="a_node9"><a xlink:href="../../d4/d7b/class_input.html#a971adcc605a1101f162e2be7a5c16a5e" target="_top" xlink:title=" ">
<polygon fill="white" stroke="black" points="1222,-560 1222,-579 1331,-579 1331,-560 1222,-560"/>
<text text-anchor="middle" x="1276.5" y="-567" font-family="Helvetica,sans-Serif" font-size="10.00">Input::getMouseDelta</text>
</a>
</g>
</g>
<!-- Node2&#45;&gt;Node9 -->
<g id="edge8" class="edge"><title>Node2&#45;&gt;Node9</title>
<path fill="none" stroke="midnightblue" d="M1634.54,-335.307C1629.75,-384.069 1609.94,-509.846 1531,-563.5 1463.83,-609.158 1361.81,-592.121 1310.06,-579.042"/>
<polygon fill="midnightblue" stroke="midnightblue" points="1638.04,-335.407 1635.42,-325.141 1631.07,-334.8 1638.04,-335.407"/>
</g>
<!-- Node14 -->
<g id="node14" class="node"><title>Node14</title>
<g id="a_node14"><a xlink:href="../../d7/d06/class_g_u_i_resizing_information.html#a33295f5b148a175e9aefb4f4344b2bbb" target="_top" xlink:title=" ">
<polygon fill="white" stroke="black" points="1395.5,-426.5 1395.5,-456.5 1513.5,-456.5 1513.5,-426.5 1395.5,-426.5"/>
<text text-anchor="start" x="1403.5" y="-444.5" font-family="Helvetica,sans-Serif" font-size="10.00">GUIResizingInformation</text>
<text text-anchor="middle" x="1454.5" y="-433.5" font-family="Helvetica,sans-Serif" font-size="10.00">::getTopScreenPosition</text>
</a>
</g>
</g>
<!-- Node2&#45;&gt;Node14 -->
<g id="edge14" class="edge"><title>Node2&#45;&gt;Node14</title>
<path fill="none" stroke="midnightblue" d="M1620.89,-332.711C1601.73,-353.671 1566.85,-389.05 1531,-411.5 1521.8,-417.264 1511.3,-422.274 1501.12,-426.463"/>
<polygon fill="midnightblue" stroke="midnightblue" points="1623.57,-334.966 1627.65,-325.19 1618.36,-330.285 1623.57,-334.966"/>
</g>
<!-- Node16 -->
<g id="node16" class="node"><title>Node16</title>
<g id="a_node16"><a xlink:href="../../d3/de8/class_fixed_updating_system.html#a8f07c76b37a898f91221740f42c72598" target="_top" xlink:title=" ">
<polygon fill="white" stroke="black" points="1211,-212.5 1211,-242.5 1342,-242.5 1342,-212.5 1211,-212.5"/>
<text text-anchor="start" x="1219" y="-230.5" font-family="Helvetica,sans-Serif" font-size="10.00">FixedUpdatingSystem</text>
<text text-anchor="middle" x="1276.5" y="-219.5" font-family="Helvetica,sans-Serif" font-size="10.00">::handleBackEndMessage</text>
</a>
</g>
</g>
<!-- Node2&#45;&gt;Node16 -->
<g id="edge16" class="edge"><title>Node2&#45;&gt;Node16</title>
<path fill="none" stroke="midnightblue" d="M1617.73,-299.258C1597.92,-282.721 1564.61,-257.94 1531,-246.5 1469.27,-225.487 1394.35,-222.4 1342.03,-223.547"/>
<polygon fill="midnightblue" stroke="midnightblue" points="1615.48,-301.939 1625.36,-305.777 1620.03,-296.618 1615.48,-301.939"/>
</g>
<!-- Node18 -->
<g id="node18" class="node"><title>Node18</title>
<g id="a_node18"><a xlink:href="../../de/d6b/class_application.html#ac849576fa6b5ad689bf274d1c63ab821" target="_top" xlink:title=" ">
<polygon fill="white" stroke="black" points="840.5,-375 840.5,-394 965.5,-394 965.5,-375 840.5,-375"/>
<text text-anchor="middle" x="903" y="-382" font-family="Helvetica,sans-Serif" font-size="10.00">Application::initializeSDL</text>
</a>
</g>
</g>
<!-- Node2&#45;&gt;Node18 -->
<g id="edge19" class="edge"><title>Node2&#45;&gt;Node18</title>
<path fill="none" stroke="midnightblue" d="M1607.23,-329.157C1586.53,-338.312 1557.66,-349.714 1531,-355.5 1327.87,-399.581 1079.34,-394.072 965.845,-388.399"/>
<polygon fill="midnightblue" stroke="midnightblue" points="1608.75,-332.315 1616.42,-325.008 1605.86,-325.936 1608.75,-332.315"/>
</g>
<!-- Node20 -->
<g id="node20" class="node"><title>Node20</title>
<g id="a_node20"><a xlink:href="../../dd/d1f/class_game.html#a0cd419405f5790feab89322cbb3f18ce" target="_top" xlink:title=" ">
<polygon fill="white" stroke="black" points="1036,-348 1036,-367 1156,-367 1156,-348 1036,-348"/>
<text text-anchor="middle" x="1096" y="-355" font-family="Helvetica,sans-Serif" font-size="10.00">Game::initializeShaders</text>
</a>
</g>
</g>
<!-- Node2&#45;&gt;Node20 -->
<g id="edge22" class="edge"><title>Node2&#45;&gt;Node20</title>
<path fill="none" stroke="midnightblue" d="M1580.27,-326.934C1564.41,-329.82 1547.08,-332.627 1531,-334.5 1397.6,-350.042 1239.89,-355.09 1156.17,-356.724"/>
<polygon fill="midnightblue" stroke="midnightblue" points="1581.26,-330.309 1590.45,-325.035 1579.97,-323.428 1581.26,-330.309"/>
</g>
<!-- Node22 -->
<g id="node22" class="node"><title>Node22</title>
<g id="a_node22"><a xlink:href="../../d6/d17/class_gui_button.html#a571aa197ec582b526b5d6e2639bad843" target="_top" xlink:title=" ">
<polygon fill="white" stroke="black" points="1386,-475.5 1386,-505.5 1523,-505.5 1523,-475.5 1386,-475.5"/>
<text text-anchor="start" x="1394" y="-493.5" font-family="Helvetica,sans-Serif" font-size="10.00">GuiButton::mouseCoordsTo</text>
<text text-anchor="middle" x="1454.5" y="-482.5" font-family="Helvetica,sans-Serif" font-size="10.00">ScreenCoords</text>
</a>
</g>
</g>
<!-- Node2&#45;&gt;Node22 -->
<g id="edge25" class="edge"><title>Node2&#45;&gt;Node22</title>
<path fill="none" stroke="midnightblue" d="M1627.59,-334.645C1612.68,-366.413 1578.65,-430.028 1531,-465.5 1525.79,-469.375 1519.96,-472.67 1513.89,-475.467"/>
<polygon fill="midnightblue" stroke="midnightblue" points="1630.94,-335.73 1631.9,-325.179 1624.57,-332.827 1630.94,-335.73"/>
</g>
<!-- Node25 -->
<g id="node25" class="node"><title>Node25</title>
<g id="a_node25"><a xlink:href="../../d4/df8/class_camera_system.html#a47d9e3f5277b873769028e15ccd4aa43" target="_top" xlink:title=" ">
<polygon fill="white" stroke="black" points="1378,-306 1378,-325 1531,-325 1531,-306 1378,-306"/>
<text text-anchor="middle" x="1454.5" y="-313" font-family="Helvetica,sans-Serif" font-size="10.00">CameraSystem::refreshCamera</text>
</a>
</g>
</g>
<!-- Node2&#45;&gt;Node25 -->
<g id="edge29" class="edge"><title>Node2&#45;&gt;Node25</title>
<path fill="none" stroke="midnightblue" d="M1556.98,-315.5C1548.38,-315.5 1539.64,-315.5 1531.09,-315.5"/>
<polygon fill="midnightblue" stroke="midnightblue" points="1556.99,-319 1566.99,-315.5 1556.99,-312 1556.99,-319"/>
</g>
<!-- Node28 -->
<g id="node28" class="node"><title>Node28</title>
<g id="a_node28"><a xlink:href="../../d8/d31/class_rendering_system.html#ae6a25f6b28ebe40f08916d9eadc95ac2" target="_top" xlink:title=" ">
<polygon fill="white" stroke="black" points="488,-97.9998 488,-117 615,-117 615,-97.9998 488,-97.9998"/>
<text text-anchor="middle" x="551.5" y="-105" font-family="Helvetica,sans-Serif" font-size="10.00">RenderingSystem::render</text>
</a>
</g>
</g>
<!-- Node2&#45;&gt;Node28 -->
<g id="edge35" class="edge"><title>Node2&#45;&gt;Node28</title>
<path fill="none" stroke="midnightblue" d="M1627.52,-296.763C1612.7,-266.442 1579.05,-207.224 1531,-179.5 1432.54,-122.689 1391.18,-145.5 1277.5,-145.5 1277.5,-145.5 1277.5,-145.5 902,-145.5 796.868,-145.5 674.983,-128.296 606.487,-117.04"/>
<polygon fill="midnightblue" stroke="midnightblue" points="1624.37,-298.306 1631.81,-305.851 1630.7,-295.315 1624.37,-298.306"/>
</g>
<!-- Node31 -->
<g id="node31" class="node"><title>Node31</title>
<g id="a_node31"><a xlink:href="../../d7/dd6/class_pause_menu_system.html#a275e625e495889f598a67bdffb2ffd4f" target="_top" xlink:title=" ">
<polygon fill="white" stroke="black" points="1028.5,-21.9998 1028.5,-40.9998 1163.5,-40.9998 1163.5,-21.9998 1028.5,-21.9998"/>
<text text-anchor="middle" x="1096" y="-28.9998" font-family="Helvetica,sans-Serif" font-size="10.00">PauseMenuSystem::render</text>
</a>
</g>
</g>
<!-- Node2&#45;&gt;Node31 -->
<g id="edge39" class="edge"><title>Node2&#45;&gt;Node31</title>
<path fill="none" stroke="midnightblue" d="M1633.32,-295.851C1625.94,-249.427 1601,-132.161 1531,-69.4998 1417.73,31.899 1214.78,-2.50415 1132.8,-21.9671"/>
<polygon fill="midnightblue" stroke="midnightblue" points="1629.87,-296.444 1634.8,-305.82 1636.79,-295.413 1629.87,-296.444"/>
</g>
<!-- Node34 -->
<g id="node34" class="node"><title>Node34</title>
<g id="a_node34"><a xlink:href="../../d3/df8/class_quad.html#a424c01ecd59971dc51e39bc19fbda551" target="_top" xlink:title=" ">
<polygon fill="white" stroke="black" points="1412,-78.9998 1412,-97.9998 1497,-97.9998 1497,-78.9998 1412,-78.9998"/>
<text text-anchor="middle" x="1454.5" y="-85.9998" font-family="Helvetica,sans-Serif" font-size="10.00">Quad::render3D</text>
</a>
</g>
</g>
<!-- Node2&#45;&gt;Node34 -->
<g id="edge43" class="edge"><title>Node2&#45;&gt;Node34</title>
<path fill="none" stroke="midnightblue" d="M1628.99,-296.179C1615.08,-260.059 1580.99,-181.445 1531,-131.5 1516.27,-116.787 1495.49,-105.441 1479.45,-98.1073"/>
<polygon fill="midnightblue" stroke="midnightblue" points="1625.86,-297.811 1632.65,-305.946 1632.42,-295.354 1625.86,-297.811"/>
</g>
<!-- Node37 -->
<g id="node37" class="node"><title>Node37</title>
<g id="a_node37"><a xlink:href="../../d7/d06/class_g_u_i_resizing_information.html#ae82679de84809831c862391c4bafffa1" target="_top" xlink:title=" ">
<polygon fill="white" stroke="black" points="1395.5,-256.5 1395.5,-286.5 1513.5,-286.5 1513.5,-256.5 1395.5,-256.5"/>
<text text-anchor="start" x="1403.5" y="-274.5" font-family="Helvetica,sans-Serif" font-size="10.00">GUIResizingInformation</text>
<text text-anchor="middle" x="1454.5" y="-263.5" font-family="Helvetica,sans-Serif" font-size="10.00">::updateInformation</text>
</a>
</g>
</g>
<!-- Node2&#45;&gt;Node37 -->
<g id="edge48" class="edge"><title>Node2&#45;&gt;Node37</title>
<path fill="none" stroke="midnightblue" d="M1587.11,-303.582C1564.5,-298.07 1537.46,-291.48 1513.8,-285.71"/>
<polygon fill="midnightblue" stroke="midnightblue" points="1586.29,-306.985 1596.83,-305.952 1587.95,-300.184 1586.29,-306.985"/>
</g>
<!-- Node4 -->
<g id="node4" class="node"><title>Node4</title>
<g id="a_node4"><a xlink:href="../../dd/d1f/class_game.html#a157e87f9dc147a5842ee6bdc06c95c17" target="_top" xlink:title=" ">
<polygon fill="white" stroke="black" points="853,-247 853,-266 953,-266 953,-247 853,-247"/>
<text text-anchor="middle" x="903" y="-254" font-family="Helvetica,sans-Serif" font-size="10.00">Game::fixedUpdate</text>
</a>
</g>
</g>
<!-- Node3&#45;&gt;Node4 -->
<g id="edge3" class="edge"><title>Node3&#45;&gt;Node4</title>
<path fill="none" stroke="midnightblue" d="M1040.55,-210.744C1005.34,-222.542 960.935,-237.422 932.499,-246.95"/>
<polygon fill="midnightblue" stroke="midnightblue" points="1041.85,-214.001 1050.22,-207.505 1039.63,-207.364 1041.85,-214.001"/>
</g>
<!-- Node5 -->
<g id="node5" class="node"><title>Node5</title>
<g id="a_node5"><a xlink:href="../../de/d6b/class_application.html#a95c827cb5cf08bd0c3cc7b07ed4b4249" target="_top" xlink:title=" ">
<polygon fill="white" stroke="black" points="330,-254 330,-273 452,-273 452,-254 330,-254"/>
<text text-anchor="middle" x="391" y="-261" font-family="Helvetica,sans-Serif" font-size="10.00">Application::fixedUpdate</text>
</a>
</g>
</g>
<!-- Node4&#45;&gt;Node5 -->
<g id="edge4" class="edge"><title>Node4&#45;&gt;Node5</title>
<path fill="none" stroke="midnightblue" d="M842.619,-257.315C744.792,-258.658 550.794,-261.32 452.341,-262.672"/>
<polygon fill="midnightblue" stroke="midnightblue" points="842.685,-260.814 852.636,-257.177 842.589,-253.815 842.685,-260.814"/>
</g>
<!-- Node6 -->
<g id="node6" class="node"><title>Node6</title>
<g id="a_node6"><a xlink:href="../../de/d6b/class_application.html#a68965449404743bf1add056784d6cf81" target="_top" xlink:title=" ">
<polygon fill="white" stroke="black" points="74,-288 74,-307 158,-307 158,-288 74,-288"/>
<text text-anchor="middle" x="116" y="-295" font-family="Helvetica,sans-Serif" font-size="10.00">Application::run</text>
</a>
</g>
</g>
<!-- Node5&#45;&gt;Node6 -->
<g id="edge5" class="edge"><title>Node5&#45;&gt;Node6</title>
<path fill="none" stroke="midnightblue" d="M319.733,-272.251C268.483,-278.634 200.792,-287.064 158.067,-292.385"/>
<polygon fill="midnightblue" stroke="midnightblue" points="320.26,-275.712 329.751,-271.003 319.395,-268.766 320.26,-275.712"/>
</g>
<!-- Node7 -->
<g id="node7" class="node"><title>Node7</title>
<g id="a_node7"><a xlink:href="../../d5/d12/_main_8cpp.html#a0ddf1224851353fc92bfbff6f499fa97" target="_top" xlink:title=" ">
<polygon fill="white" stroke="black" points="0,-288 0,-307 38,-307 38,-288 0,-288"/>
<text text-anchor="middle" x="19" y="-295" font-family="Helvetica,sans-Serif" font-size="10.00">main</text>
</a>
</g>
</g>
<!-- Node6&#45;&gt;Node7 -->
<g id="edge6" class="edge"><title>Node6&#45;&gt;Node7</title>
<path fill="none" stroke="midnightblue" d="M63.6206,-297.5C54.5384,-297.5 45.6466,-297.5 38.2853,-297.5"/>
<polygon fill="midnightblue" stroke="midnightblue" points="63.8842,-301 73.8841,-297.5 63.8841,-294 63.8842,-301"/>
</g>
<!-- Node10 -->
<g id="node10" class="node"><title>Node10</title>
<g id="a_node10"><a xlink:href="../../d4/df8/class_camera_system.html#a9bb59c07839a3bf41290e49f367d8fd6" target="_top" xlink:title=" ">
<polygon fill="white" stroke="black" points="1036.5,-546 1036.5,-565 1155.5,-565 1155.5,-546 1036.5,-546"/>
<text text-anchor="middle" x="1096" y="-553" font-family="Helvetica,sans-Serif" font-size="10.00">CameraSystem::update</text>
</a>
</g>
</g>
<!-- Node9&#45;&gt;Node10 -->
<g id="edge9" class="edge"><title>Node9&#45;&gt;Node10</title>
<path fill="none" stroke="midnightblue" d="M1211.92,-564.513C1193.53,-563.071 1173.56,-561.505 1155.5,-560.088"/>
<polygon fill="midnightblue" stroke="midnightblue" points="1211.7,-568.007 1221.94,-565.299 1212.25,-561.028 1211.7,-568.007"/>
</g>
<!-- Node11 -->
<g id="node11" class="node"><title>Node11</title>
<g id="a_node11"><a xlink:href="../../d2/d54/class_updating_system.html#a127ad554750e7e7582a1904abfb265aa" target="_top" xlink:title=" ">
<polygon fill="white" stroke="black" points="841,-481 841,-500 965,-500 965,-481 841,-481"/>
<text text-anchor="middle" x="903" y="-488" font-family="Helvetica,sans-Serif" font-size="10.00">UpdatingSystem::update</text>
</a>
</g>
</g>
<!-- Node10&#45;&gt;Node11 -->
<g id="edge10" class="edge"><title>Node10&#45;&gt;Node11</title>
<path fill="none" stroke="midnightblue" d="M1056.93,-542.545C1020.06,-529.995 965.004,-511.26 931.987,-500.024"/>
<polygon fill="midnightblue" stroke="midnightblue" points="1056.22,-546 1066.82,-545.909 1058.48,-539.374 1056.22,-546"/>
</g>
<!-- Node12 -->
<g id="node12" class="node"><title>Node12</title>
<g id="a_node12"><a xlink:href="../../dd/d1f/class_game.html#a79df6376b332d63c9eca0dcee30305c3" target="_top" xlink:title=" ">
<polygon fill="white" stroke="black" points="512.5,-401 512.5,-420 590.5,-420 590.5,-401 512.5,-401"/>
<text text-anchor="middle" x="551.5" y="-408" font-family="Helvetica,sans-Serif" font-size="10.00">Game::update</text>
</a>
</g>
</g>
<!-- Node11&#45;&gt;Node12 -->
<g id="edge11" class="edge"><title>Node11&#45;&gt;Node12</title>
<path fill="none" stroke="midnightblue" d="M850.133,-478.628C779.189,-462.389 653.536,-433.627 590.621,-419.226"/>
<polygon fill="midnightblue" stroke="midnightblue" points="849.66,-482.11 860.189,-480.929 851.222,-475.286 849.66,-482.11"/>
</g>
<!-- Node13 -->
<g id="node13" class="node"><title>Node13</title>
<g id="a_node13"><a xlink:href="../../de/d6b/class_application.html#a051023103d00b96b1e5e7437fd8e2e7c" target="_top" xlink:title=" ">
<polygon fill="white" stroke="black" points="194,-360 194,-379 294,-379 294,-360 194,-360"/>
<text text-anchor="middle" x="244" y="-367" font-family="Helvetica,sans-Serif" font-size="10.00">Application::update</text>
</a>
</g>
</g>
<!-- Node12&#45;&gt;Node13 -->
<g id="edge12" class="edge"><title>Node12&#45;&gt;Node13</title>
<path fill="none" stroke="midnightblue" d="M502.259,-404.026C445.404,-396.395 351.441,-383.785 294.181,-376.1"/>
<polygon fill="midnightblue" stroke="midnightblue" points="502.049,-407.529 512.426,-405.39 502.98,-400.591 502.049,-407.529"/>
</g>
<!-- Node13&#45;&gt;Node6 -->
<g id="edge13" class="edge"><title>Node13&#45;&gt;Node6</title>
<path fill="none" stroke="midnightblue" d="M217.362,-354.849C192.406,-340.589 155.204,-319.331 133.801,-307.1"/>
<polygon fill="midnightblue" stroke="midnightblue" points="215.849,-358.016 226.268,-359.939 219.322,-351.938 215.849,-358.016"/>
</g>
<!-- Node15 -->
<g id="node15" class="node"><title>Node15</title>
<g id="a_node15"><a xlink:href="../../d3/d85/class_display_statistics_system.html#ab92f45efc6e36221000ff94041020a04" target="_top" xlink:title=" ">
<polygon fill="white" stroke="black" points="1214.5,-426.5 1214.5,-456.5 1338.5,-456.5 1338.5,-426.5 1214.5,-426.5"/>
<text text-anchor="start" x="1222.5" y="-444.5" font-family="Helvetica,sans-Serif" font-size="10.00">DisplayStatisticsSystem</text>
<text text-anchor="middle" x="1276.5" y="-433.5" font-family="Helvetica,sans-Serif" font-size="10.00">::fixedUpdate</text>
</a>
</g>
</g>
<!-- Node14&#45;&gt;Node15 -->
<g id="edge15" class="edge"><title>Node14&#45;&gt;Node15</title>
<path fill="none" stroke="midnightblue" d="M1384.95,-441.5C1369.66,-441.5 1353.54,-441.5 1338.58,-441.5"/>
<polygon fill="midnightblue" stroke="midnightblue" points="1385.38,-445 1395.38,-441.5 1385.38,-438 1385.38,-445"/>
</g>
<!-- Node17 -->
<g id="node17" class="node"><title>Node17</title>
<g id="a_node17"><a xlink:href="../../dd/d1f/class_game.html#a5eb682ebf3aa9ac5b2d6d63ade9ddcc0" target="_top" xlink:title=" ">
<polygon fill="white" stroke="black" points="1017,-246 1017,-265 1175,-265 1175,-246 1017,-246"/>
<text text-anchor="middle" x="1096" y="-253" font-family="Helvetica,sans-Serif" font-size="10.00">Game::readBackendEventQueue</text>
</a>
</g>
</g>
<!-- Node16&#45;&gt;Node17 -->
<g id="edge17" class="edge"><title>Node16&#45;&gt;Node17</title>
<path fill="none" stroke="midnightblue" d="M1200.92,-239.199C1186.49,-241.463 1171.53,-243.809 1157.61,-245.992"/>
<polygon fill="midnightblue" stroke="midnightblue" points="1201.47,-242.656 1210.81,-237.648 1200.38,-235.74 1201.47,-242.656"/>
</g>
<!-- Node17&#45;&gt;Node4 -->
<g id="edge18" class="edge"><title>Node17&#45;&gt;Node4</title>
<path fill="none" stroke="midnightblue" d="M1006.6,-255.963C988.205,-256.059 969.46,-256.157 953.111,-256.243"/>
<polygon fill="midnightblue" stroke="midnightblue" points="1006.78,-259.462 1016.76,-255.909 1006.74,-252.462 1006.78,-259.462"/>
</g>
<!-- Node19 -->
<g id="node19" class="node"><title>Node19</title>
<g id="a_node19"><a xlink:href="../../de/d6b/class_application.html#af431bce25717b04a78d4d0940ed6a92c" target="_top" xlink:title=" ">
<polygon fill="white" stroke="black" points="667,-324 667,-343 773,-343 773,-324 667,-324"/>
<text text-anchor="middle" x="720" y="-331" font-family="Helvetica,sans-Serif" font-size="10.00">Application::initialize</text>
</a>
</g>
</g>
<!-- Node18&#45;&gt;Node19 -->
<g id="edge20" class="edge"><title>Node18&#45;&gt;Node19</title>
<path fill="none" stroke="midnightblue" d="M858.046,-372.115C826.297,-363.169 784.046,-351.264 754.892,-343.05"/>
<polygon fill="midnightblue" stroke="midnightblue" points="857.381,-375.564 867.955,-374.907 859.279,-368.826 857.381,-375.564"/>
</g>
<!-- Node19&#45;&gt;Node6 -->
<g id="edge21" class="edge"><title>Node19&#45;&gt;Node6</title>
<path fill="none" stroke="midnightblue" d="M656.871,-329.784C533.793,-322.424 261.941,-306.167 158.269,-299.968"/>
<polygon fill="midnightblue" stroke="midnightblue" points="656.7,-333.28 666.891,-330.384 657.118,-326.293 656.7,-333.28"/>
</g>
<!-- Node21 -->
<g id="node21" class="node"><title>Node21</title>
<g id="a_node21"><a xlink:href="../../dd/d1f/class_game.html#a8986a201a654418cefe34ec28af1a22c" target="_top" xlink:title=" ">
<polygon fill="white" stroke="black" points="861,-324 861,-343 945,-343 945,-324 861,-324"/>
<text text-anchor="middle" x="903" y="-331" font-family="Helvetica,sans-Serif" font-size="10.00">Game::initialize</text>
</a>
</g>
</g>
<!-- Node20&#45;&gt;Node21 -->
<g id="edge23" class="edge"><title>Node20&#45;&gt;Node21</title>
<path fill="none" stroke="midnightblue" d="M1025.67,-348.788C998.602,-345.387 968.496,-341.604 945.003,-338.652"/>
<polygon fill="midnightblue" stroke="midnightblue" points="1025.52,-352.296 1035.87,-350.07 1026.39,-345.351 1025.52,-352.296"/>
</g>
<!-- Node21&#45;&gt;Node19 -->
<g id="edge24" class="edge"><title>Node21&#45;&gt;Node19</title>
<path fill="none" stroke="midnightblue" d="M850.849,-333.5C826.598,-333.5 797.667,-333.5 773.275,-333.5"/>
<polygon fill="midnightblue" stroke="midnightblue" points="850.928,-337 860.928,-333.5 850.928,-330 850.928,-337"/>
</g>
<!-- Node23 -->
<g id="node23" class="node"><title>Node23</title>
<g id="a_node23"><a xlink:href="../../d6/d17/class_gui_button.html#acfb469dd9337dc5ebf70e32037b02851" target="_top" xlink:title=" ">
<polygon fill="white" stroke="black" points="1229,-481 1229,-500 1324,-500 1324,-481 1229,-481"/>
<text text-anchor="middle" x="1276.5" y="-488" font-family="Helvetica,sans-Serif" font-size="10.00">GuiButton::update</text>
</a>
</g>
</g>
<!-- Node22&#45;&gt;Node23 -->
<g id="edge26" class="edge"><title>Node22&#45;&gt;Node23</title>
<path fill="none" stroke="midnightblue" d="M1375.69,-490.5C1358.1,-490.5 1339.96,-490.5 1324.14,-490.5"/>
<polygon fill="midnightblue" stroke="midnightblue" points="1375.96,-494 1385.96,-490.5 1375.96,-487 1375.96,-494"/>
</g>
<!-- Node24 -->
<g id="node24" class="node"><title>Node24</title>
<g id="a_node24"><a xlink:href="../../d7/dd6/class_pause_menu_system.html#a7c17c731da14866fbbfb186f50b7824e" target="_top" xlink:title=" ">
<polygon fill="white" stroke="black" points="1027.5,-481 1027.5,-500 1164.5,-500 1164.5,-481 1027.5,-481"/>
<text text-anchor="middle" x="1096" y="-488" font-family="Helvetica,sans-Serif" font-size="10.00">PauseMenuSystem::update</text>
</a>
</g>
</g>
<!-- Node23&#45;&gt;Node24 -->
<g id="edge27" class="edge"><title>Node23&#45;&gt;Node24</title>
<path fill="none" stroke="midnightblue" d="M1218.25,-490.5C1201.21,-490.5 1182.38,-490.5 1164.73,-490.5"/>
<polygon fill="midnightblue" stroke="midnightblue" points="1218.6,-494 1228.6,-490.5 1218.6,-487 1218.6,-494"/>
</g>
<!-- Node24&#45;&gt;Node11 -->
<g id="edge28" class="edge"><title>Node24&#45;&gt;Node11</title>
<path fill="none" stroke="midnightblue" d="M1017.28,-490.5C999.912,-490.5 981.732,-490.5 965.147,-490.5"/>
<polygon fill="midnightblue" stroke="midnightblue" points="1017.39,-494 1027.39,-490.5 1017.39,-487 1017.39,-494"/>
</g>
<!-- Node25&#45;&gt;Node16 -->
<g id="edge30" class="edge"><title>Node25&#45;&gt;Node16</title>
<path fill="none" stroke="midnightblue" d="M1397.66,-302.995C1390.92,-300.819 1384.22,-298.329 1378,-295.5 1346.94,-281.369 1314.94,-257.892 1295.63,-242.556"/>
<polygon fill="midnightblue" stroke="midnightblue" points="1396.94,-306.433 1407.53,-305.959 1398.96,-299.729 1396.94,-306.433"/>
</g>
<!-- Node26 -->
<g id="node26" class="node"><title>Node26</title>
<g id="a_node26"><a xlink:href="../../d4/df8/class_camera_system.html#a4a7557f88f628a55314d3529519a28aa" target="_top" xlink:title=" ">
<polygon fill="white" stroke="black" points="1214,-300.5 1214,-330.5 1339,-330.5 1339,-300.5 1214,-300.5"/>
<text text-anchor="start" x="1222" y="-318.5" font-family="Helvetica,sans-Serif" font-size="10.00">CameraSystem::initialize</text>
<text text-anchor="middle" x="1276.5" y="-307.5" font-family="Helvetica,sans-Serif" font-size="10.00">Camera</text>
</a>
</g>
</g>
<!-- Node25&#45;&gt;Node26 -->
<g id="edge31" class="edge"><title>Node25&#45;&gt;Node26</title>
<path fill="none" stroke="midnightblue" d="M1367.77,-315.5C1358.08,-315.5 1348.35,-315.5 1339.05,-315.5"/>
<polygon fill="midnightblue" stroke="midnightblue" points="1367.84,-319 1377.84,-315.5 1367.84,-312 1367.84,-319"/>
</g>
<!-- Node27 -->
<g id="node27" class="node"><title>Node27</title>
<g id="a_node27"><a xlink:href="../../d3/de8/class_fixed_updating_system.html#ae6dd11a60942e140a62f8358bb69d4ba" target="_top" xlink:title=" ">
<polygon fill="white" stroke="black" points="1039.5,-293.5 1039.5,-323.5 1152.5,-323.5 1152.5,-293.5 1039.5,-293.5"/>
<text text-anchor="start" x="1047.5" y="-311.5" font-family="Helvetica,sans-Serif" font-size="10.00">FixedUpdatingSystem</text>
<text text-anchor="middle" x="1096" y="-300.5" font-family="Helvetica,sans-Serif" font-size="10.00">::initialize</text>
</a>
</g>
</g>
<!-- Node26&#45;&gt;Node27 -->
<g id="edge32" class="edge"><title>Node26&#45;&gt;Node27</title>
<path fill="none" stroke="midnightblue" d="M1203.43,-312.673C1186.52,-312.011 1168.77,-311.314 1152.7,-310.684"/>
<polygon fill="midnightblue" stroke="midnightblue" points="1203.69,-316.186 1213.82,-313.081 1203.97,-309.192 1203.69,-316.186"/>
</g>
<!-- Node27&#45;&gt;Node4 -->
<g id="edge33" class="edge"><title>Node27&#45;&gt;Node4</title>
<path fill="none" stroke="midnightblue" d="M1030.03,-290.813C999.532,-282.509 964.387,-272.94 938.972,-266.021"/>
<polygon fill="midnightblue" stroke="midnightblue" points="1029.19,-294.209 1039.75,-293.459 1031.03,-287.455 1029.19,-294.209"/>
</g>
<!-- Node27&#45;&gt;Node21 -->
<g id="edge34" class="edge"><title>Node27&#45;&gt;Node21</title>
<path fill="none" stroke="midnightblue" d="M1029.38,-317.088C1001.4,-320.751 969.619,-324.911 945.052,-328.127"/>
<polygon fill="midnightblue" stroke="midnightblue" points="1030.04,-320.533 1039.5,-315.764 1029.13,-313.592 1030.04,-320.533"/>
</g>
<!-- Node29 -->
<g id="node29" class="node"><title>Node29</title>
<g id="a_node29"><a xlink:href="../../dd/d1f/class_game.html#a15ddd769261d923827a3cdf41499c843" target="_top" xlink:title=" ">
<polygon fill="white" stroke="black" points="353,-130 353,-149 429,-149 429,-130 353,-130"/>
<text text-anchor="middle" x="391" y="-137" font-family="Helvetica,sans-Serif" font-size="10.00">Game::render</text>
</a>
</g>
</g>
<!-- Node28&#45;&gt;Node29 -->
<g id="edge36" class="edge"><title>Node28&#45;&gt;Node29</title>
<path fill="none" stroke="midnightblue" d="M493.411,-119.026C472.012,-123.346 448.269,-128.14 429.139,-132.002"/>
<polygon fill="midnightblue" stroke="midnightblue" points="494.264,-122.424 503.374,-117.014 492.879,-115.563 494.264,-122.424"/>
</g>
<!-- Node30 -->
<g id="node30" class="node"><title>Node30</title>
<g id="a_node30"><a xlink:href="../../de/d6b/class_application.html#a9ac99d97ee1cc814298a2f2388bde835" target="_top" xlink:title=" ">
<polygon fill="white" stroke="black" points="195,-171 195,-190 293,-190 293,-171 195,-171"/>
<text text-anchor="middle" x="244" y="-178" font-family="Helvetica,sans-Serif" font-size="10.00">Application::render</text>
</a>
</g>
</g>
<!-- Node29&#45;&gt;Node30 -->
<g id="edge37" class="edge"><title>Node29&#45;&gt;Node30</title>
<path fill="none" stroke="midnightblue" d="M346.701,-151.743C324.935,-157.897 298.953,-165.244 278.699,-170.971"/>
<polygon fill="midnightblue" stroke="midnightblue" points="347.699,-155.098 356.37,-149.009 345.795,-148.362 347.699,-155.098"/>
</g>
<!-- Node30&#45;&gt;Node6 -->
<g id="edge38" class="edge"><title>Node30&#45;&gt;Node6</title>
<path fill="none" stroke="midnightblue" d="M225.198,-197.03C198.515,-221.807 148.99,-267.795 127.454,-287.793"/>
<polygon fill="midnightblue" stroke="midnightblue" points="227.743,-199.444 232.689,-190.074 222.979,-194.314 227.743,-199.444"/>
</g>
<!-- Node32 -->
<g id="node32" class="node"><title>Node32</title>
<g id="a_node32"><a xlink:href="../../d8/d31/class_rendering_system.html#ad5115644b3d0a1df6446a610c683a31e" target="_top" xlink:title=" ">
<polygon fill="white" stroke="black" points="825,-21.9998 825,-40.9998 981,-40.9998 981,-21.9998 825,-21.9998"/>
<text text-anchor="middle" x="903" y="-28.9998" font-family="Helvetica,sans-Serif" font-size="10.00">RenderingSystem::renderOthers</text>
</a>
</g>
</g>
<!-- Node31&#45;&gt;Node32 -->
<g id="edge40" class="edge"><title>Node31&#45;&gt;Node32</title>
<path fill="none" stroke="midnightblue" d="M1018.29,-31.4998C1006.04,-31.4998 993.363,-31.4998 981.103,-31.4998"/>
<polygon fill="midnightblue" stroke="midnightblue" points="1018.47,-34.9999 1028.47,-31.4998 1018.47,-27.9999 1018.47,-34.9999"/>
</g>
<!-- Node33 -->
<g id="node33" class="node"><title>Node33</title>
<g id="a_node33"><a xlink:href="../../d8/d31/class_rendering_system.html#a9f1ec48fdfa79ddc55421b6014fdb9c6" target="_top" xlink:title=" ">
<polygon fill="white" stroke="black" points="651,-21.9998 651,-40.9998 789,-40.9998 789,-21.9998 651,-21.9998"/>
<text text-anchor="middle" x="720" y="-28.9998" font-family="Helvetica,sans-Serif" font-size="10.00">RenderingSystem::renderAll</text>
</a>
</g>
</g>
<!-- Node32&#45;&gt;Node33 -->
<g id="edge41" class="edge"><title>Node32&#45;&gt;Node33</title>
<path fill="none" stroke="midnightblue" d="M814.854,-31.4998C806.198,-31.4998 797.5,-31.4998 789.08,-31.4998"/>
<polygon fill="midnightblue" stroke="midnightblue" points="814.977,-34.9999 824.977,-31.4998 814.977,-27.9999 814.977,-34.9999"/>
</g>
<!-- Node33&#45;&gt;Node28 -->
<g id="edge42" class="edge"><title>Node33&#45;&gt;Node28</title>
<path fill="none" stroke="midnightblue" d="M679.307,-44.4093C669.922,-47.7629 660.023,-51.5512 651,-55.4998 621.238,-68.5242 588.118,-86.8486 568.865,-97.9076"/>
<polygon fill="midnightblue" stroke="midnightblue" points="680.553,-47.6816 688.842,-41.0834 678.247,-41.0721 680.553,-47.6816"/>
</g>
<!-- Node34&#45;&gt;Node28 -->
<g id="edge45" class="edge"><title>Node34&#45;&gt;Node28</title>
<path fill="none" stroke="midnightblue" d="M1401.61,-83.9986C1332.25,-78.3801 1205.48,-69.4998 1097,-69.4998 1097,-69.4998 1097,-69.4998 902,-69.4998 796.868,-69.4998 674.983,-86.7035 606.487,-97.9599"/>
<polygon fill="midnightblue" stroke="midnightblue" points="1401.57,-87.5073 1411.83,-84.8364 1402.15,-80.5307 1401.57,-87.5073"/>
</g>
<!-- Node35 -->
<g id="node35" class="node"><title>Node35</title>
<g id="a_node35"><a xlink:href="../../dd/d84/class_gui_text_character.html#a807cfea698c6d8741d95e251230a5427" target="_top" xlink:title=" ">
<polygon fill="white" stroke="black" points="1214,-97.9998 1214,-117 1339,-117 1339,-97.9998 1214,-97.9998"/>
<text text-anchor="middle" x="1276.5" y="-105" font-family="Helvetica,sans-Serif" font-size="10.00">GuiTextCharacter::render</text>
</a>
</g>
</g>
<!-- Node34&#45;&gt;Node35 -->
<g id="edge44" class="edge"><title>Node34&#45;&gt;Node35</title>
<path fill="none" stroke="midnightblue" d="M1401.83,-94.0779C1382.22,-96.1946 1359.7,-98.6263 1339.25,-100.833"/>
<polygon fill="midnightblue" stroke="midnightblue" points="1402.22,-97.5557 1411.79,-93.0026 1401.47,-90.5962 1402.22,-97.5557"/>
</g>
<!-- Node36 -->
<g id="node36" class="node"><title>Node36</title>
<g id="a_node36"><a xlink:href="../../d1/db9/class_gui_sprite.html#ad8d743c3e3889fba893f29796717114f" target="_top" xlink:title=" ">
<polygon fill="white" stroke="black" points="1231.5,-21.9998 1231.5,-40.9998 1321.5,-40.9998 1321.5,-21.9998 1231.5,-21.9998"/>
<text text-anchor="middle" x="1276.5" y="-28.9998" font-family="Helvetica,sans-Serif" font-size="10.00">GuiSprite::render</text>
</a>
</g>
</g>
<!-- Node34&#45;&gt;Node36 -->
<g id="edge46" class="edge"><title>Node34&#45;&gt;Node36</title>
<path fill="none" stroke="midnightblue" d="M1414.42,-75.844C1381.98,-65.3368 1336.53,-50.6182 1307.05,-41.0715"/>
<polygon fill="midnightblue" stroke="midnightblue" points="1413.45,-79.2079 1424.04,-78.9593 1415.61,-72.5484 1413.45,-79.2079"/>
</g>
<!-- Node36&#45;&gt;Node31 -->
<g id="edge47" class="edge"><title>Node36&#45;&gt;Node31</title>
<path fill="none" stroke="midnightblue" d="M1221.25,-31.4998C1203.07,-31.4998 1182.58,-31.4998 1163.57,-31.4998"/>
<polygon fill="midnightblue" stroke="midnightblue" points="1221.38,-34.9999 1231.38,-31.4998 1221.38,-27.9999 1221.38,-34.9999"/>
</g>
<!-- Node37&#45;&gt;Node16 -->
<g id="edge49" class="edge"><title>Node37&#45;&gt;Node16</title>
<path fill="none" stroke="midnightblue" d="M1385.67,-254.543C1369.86,-250.589 1353.12,-246.406 1337.67,-242.541"/>
<polygon fill="midnightblue" stroke="midnightblue" points="1384.83,-257.941 1395.38,-256.971 1386.53,-251.15 1384.83,-257.941"/>
</g>
<!-- Node37&#45;&gt;Node27 -->
<g id="edge50" class="edge"><title>Node37&#45;&gt;Node27</title>
<path fill="none" stroke="midnightblue" d="M1384.97,-275.431C1336.33,-278.573 1269.54,-283.596 1211,-290.5 1191.9,-292.753 1171.09,-295.847 1152.54,-298.835"/>
<polygon fill="midnightblue" stroke="midnightblue" points="1385.31,-278.917 1395.07,-274.789 1384.86,-271.931 1385.31,-278.917"/>
</g>
</g>
</svg>
