<?xml version="1.0" encoding="UTF-8" standalone="no"?>
<!DOCTYPE svg PUBLIC "-//W3C//DTD SVG 1.1//EN"
 "http://www.w3.org/Graphics/SVG/1.1/DTD/svg11.dtd">
<!-- Generated by graphviz version 2.38.0 (20140413.2041)
 -->
<!-- Title: Application::setMousePosition Pages: 1 -->
<svg width="997pt" height="75pt"
 viewBox="0.00 0.00 997.00 74.50" xmlns="http://www.w3.org/2000/svg" xmlns:xlink="http://www.w3.org/1999/xlink">
<g id="graph0" class="graph" transform="scale(1 1) rotate(0) translate(4 70.5)">
<title>Application::setMousePosition</title>
<polygon fill="white" stroke="none" points="-4,4 -4,-70.5 993,-70.5 993,4 -4,4"/>
<!-- Node1 -->
<g id="node1" class="node"><title>Node1</title>
<g id="a_node1"><a xlink:title=" ">
<polygon fill="#bfbfbf" stroke="black" points="840,-19.5 840,-38.5 989,-38.5 989,-19.5 840,-19.5"/>
<text text-anchor="middle" x="914.5" y="-26.5" font-family="Helvetica,sans-Serif" font-size="10.00">Application::setMousePosition</text>
</a>
</g>
</g>
<!-- Node2 -->
<g id="node2" class="node"><title>Node2</title>
<g id="a_node2"><a xlink:href="../../d4/d58/namespace_game_info.html#aea6e21f4828393a3ae9aca0eee51c5ba" target="_top" xlink:title=" ">
<polygon fill="white" stroke="black" points="662,-19.5 662,-38.5 804,-38.5 804,-19.5 662,-19.5"/>
<text text-anchor="middle" x="733" y="-26.5" font-family="Helvetica,sans-Serif" font-size="10.00">GameInfo::setMousePosition</text>
</a>
</g>
</g>
<!-- Node1&#45;&gt;Node2 -->
<g id="edge1" class="edge"><title>Node1&#45;&gt;Node2</title>
<path fill="none" stroke="midnightblue" d="M829.933,-29C821.335,-29 812.661,-29 804.229,-29"/>
<polygon fill="midnightblue" stroke="midnightblue" points="829.973,-32.5001 839.973,-29 829.973,-25.5001 829.973,-32.5001"/>
</g>
<!-- Node3 -->
<g id="node3" class="node"><title>Node3</title>
<g id="a_node3"><a xlink:href="../../d3/de8/class_fixed_updating_system.html#a3ed508813ba850baed19e86ef0429028" target="_top" xlink:title=" ">
<polygon fill="white" stroke="black" points="513,-36 513,-66 626,-66 626,-36 513,-36"/>
<text text-anchor="start" x="521" y="-54" font-family="Helvetica,sans-Serif" font-size="10.00">FixedUpdatingSystem</text>
<text text-anchor="middle" x="569.5" y="-43" font-family="Helvetica,sans-Serif" font-size="10.00">::fixedUpdate</text>
</a>
</g>
</g>
<!-- Node2&#45;&gt;Node3 -->
<g id="edge2" class="edge"><title>Node2&#45;&gt;Node3</title>
<path fill="none" stroke="midnightblue" d="M651.98,-39.9005C643.333,-41.0785 634.674,-42.258 626.401,-43.385"/>
<polygon fill="midnightblue" stroke="midnightblue" points="652.667,-43.3394 662.103,-38.5216 651.722,-36.4034 652.667,-43.3394"/>
</g>
<!-- Node8 -->
<g id="node8" class="node"><title>Node8</title>
<g id="a_node8"><a xlink:href="../../de/d6b/class_application.html#ac849576fa6b5ad689bf274d1c63ab821" target="_top" xlink:title=" ">
<polygon fill="white" stroke="black" points="352,-0.5 352,-19.5 477,-19.5 477,-0.5 352,-0.5"/>
<text text-anchor="middle" x="414.5" y="-7.5" font-family="Helvetica,sans-Serif" font-size="10.00">Application::initializeSDL</text>
</a>
</g>
</g>
<!-- Node2&#45;&gt;Node8 -->
<g id="edge7" class="edge"><title>Node2&#45;&gt;Node8</title>
<path fill="none" stroke="midnightblue" d="M651.498,-24.1673C597.335,-20.9159 527.005,-16.6938 477.255,-13.7073"/>
<polygon fill="midnightblue" stroke="midnightblue" points="651.567,-27.6777 661.758,-24.7833 651.986,-20.6902 651.567,-27.6777"/>
</g>
<!-- Node4 -->
<g id="node4" class="node"><title>Node4</title>
<g id="a_node4"><a xlink:href="../../dd/d1f/class_game.html#a157e87f9dc147a5842ee6bdc06c95c17" target="_top" xlink:title=" ">
<polygon fill="white" stroke="black" points="364.5,-40.5 364.5,-59.5 464.5,-59.5 464.5,-40.5 364.5,-40.5"/>
<text text-anchor="middle" x="414.5" y="-47.5" font-family="Helvetica,sans-Serif" font-size="10.00">Game::fixedUpdate</text>
</a>
</g>
</g>
<!-- Node3&#45;&gt;Node4 -->
<g id="edge3" class="edge"><title>Node3&#45;&gt;Node4</title>
<path fill="none" stroke="midnightblue" d="M502.74,-50.5702C490.015,-50.487 476.886,-50.4012 464.798,-50.3222"/>
<polygon fill="midnightblue" stroke="midnightblue" points="502.808,-54.0706 512.831,-50.6361 502.854,-47.0708 502.808,-54.0706"/>
</g>
<!-- Node5 -->
<g id="node5" class="node"><title>Node5</title>
<g id="a_node5"><a xlink:href="../../de/d6b/class_application.html#a95c827cb5cf08bd0c3cc7b07ed4b4249" target="_top" xlink:title=" ">
<polygon fill="white" stroke="black" points="194,-39.5 194,-58.5 316,-58.5 316,-39.5 194,-39.5"/>
<text text-anchor="middle" x="255" y="-46.5" font-family="Helvetica,sans-Serif" font-size="10.00">Application::fixedUpdate</text>
</a>
</g>
</g>
<!-- Node4&#45;&gt;Node5 -->
<g id="edge4" class="edge"><title>Node4&#45;&gt;Node5</title>
<path fill="none" stroke="midnightblue" d="M353.876,-49.6214C341.484,-49.5428 328.42,-49.4598 316.013,-49.381"/>
<polygon fill="midnightblue" stroke="midnightblue" points="354.076,-53.1227 364.098,-49.6863 354.121,-46.1228 354.076,-53.1227"/>
</g>
<!-- Node6 -->
<g id="node6" class="node"><title>Node6</title>
<g id="a_node6"><a xlink:href="../../de/d6b/class_application.html#a68965449404743bf1add056784d6cf81" target="_top" xlink:title=" ">
<polygon fill="white" stroke="black" points="74,-19.5 74,-38.5 158,-38.5 158,-19.5 74,-19.5"/>
<text text-anchor="middle" x="116" y="-26.5" font-family="Helvetica,sans-Serif" font-size="10.00">Application::run</text>
</a>
</g>
</g>
<!-- Node5&#45;&gt;Node6 -->
<g id="edge5" class="edge"><title>Node5&#45;&gt;Node6</title>
<path fill="none" stroke="midnightblue" d="M183.954,-38.7743C175.121,-37.4848 166.322,-36.2003 158.145,-35.0066"/>
<polygon fill="midnightblue" stroke="midnightblue" points="183.509,-42.2464 193.91,-40.2277 184.52,-35.3198 183.509,-42.2464"/>
</g>
<!-- Node7 -->
<g id="node7" class="node"><title>Node7</title>
<g id="a_node7"><a xlink:href="../../d5/d12/_main_8cpp.html#a0ddf1224851353fc92bfbff6f499fa97" target="_top" xlink:title=" ">
<polygon fill="white" stroke="black" points="0,-19.5 0,-38.5 38,-38.5 38,-19.5 0,-19.5"/>
<text text-anchor="middle" x="19" y="-26.5" font-family="Helvetica,sans-Serif" font-size="10.00">main</text>
</a>
</g>
</g>
<!-- Node6&#45;&gt;Node7 -->
<g id="edge6" class="edge"><title>Node6&#45;&gt;Node7</title>
<path fill="none" stroke="midnightblue" d="M63.6206,-29C54.5384,-29 45.6466,-29 38.2853,-29"/>
<polygon fill="midnightblue" stroke="midnightblue" points="63.8842,-32.5001 73.8841,-29 63.8841,-25.5001 63.8842,-32.5001"/>
</g>
<!-- Node9 -->
<g id="node9" class="node"><title>Node9</title>
<g id="a_node9"><a xlink:href="../../de/d6b/class_application.html#af431bce25717b04a78d4d0940ed6a92c" target="_top" xlink:title=" ">
<polygon fill="white" stroke="black" points="202,-0.5 202,-19.5 308,-19.5 308,-0.5 202,-0.5"/>
<text text-anchor="middle" x="255" y="-7.5" font-family="Helvetica,sans-Serif" font-size="10.00">Application::initialize</text>
</a>
</g>
</g>
<!-- Node8&#45;&gt;Node9 -->
<g id="edge8" class="edge"><title>Node8&#45;&gt;Node9</title>
<path fill="none" stroke="midnightblue" d="M341.48,-10C330.263,-10 318.862,-10 308.197,-10"/>
<polygon fill="midnightblue" stroke="midnightblue" points="341.704,-13.5001 351.704,-10 341.704,-6.5001 341.704,-13.5001"/>
</g>
<!-- Node9&#45;&gt;Node6 -->
<g id="edge9" class="edge"><title>Node9&#45;&gt;Node6</title>
<path fill="none" stroke="midnightblue" d="M191.581,-18.6567C180.331,-20.2169 168.861,-21.8076 158.396,-23.2589"/>
<polygon fill="midnightblue" stroke="midnightblue" points="192.391,-22.0779 201.815,-17.2373 191.429,-15.1443 192.391,-22.0779"/>
</g>
</g>
</svg>
