<?xml version="1.0" encoding="UTF-8" standalone="no"?>
<!DOCTYPE svg PUBLIC "-//W3C//DTD SVG 1.1//EN"
 "http://www.w3.org/Graphics/SVG/1.1/DTD/svg11.dtd">
<!-- Generated by graphviz version 2.38.0 (20140413.2041)
 -->
<!-- Title: SkyBox Pages: 1 -->
<svg width="289pt" height="219pt"
 viewBox="0.00 0.00 289.00 219.00" xmlns="http://www.w3.org/2000/svg" xmlns:xlink="http://www.w3.org/1999/xlink">
<g id="graph0" class="graph" transform="scale(1 1) rotate(0) translate(4 215)">
<title>SkyBox</title>
<polygon fill="white" stroke="none" points="-4,4 -4,-215 285,-215 285,4 -4,4"/>
<!-- Node1 -->
<g id="node1" class="node"><title>Node1</title>
<g id="a_node1"><a xlink:title=" ">
<polygon fill="#bfbfbf" stroke="black" points="141,-0.5 141,-19.5 192,-19.5 192,-0.5 141,-0.5"/>
<text text-anchor="middle" x="166.5" y="-7.5" font-family="Helvetica,sans-Serif" font-size="10.00">SkyBox</text>
</a>
</g>
</g>
<!-- Node2 -->
<g id="node2" class="node"><title>Node2</title>
<g id="a_node2"><a xlink:href="../../d2/d00/class_component.html" target="_top" xlink:title=" ">
<polygon fill="white" stroke="black" points="0,-67.5 0,-86.5 119,-86.5 119,-67.5 0,-67.5"/>
<text text-anchor="middle" x="59.5" y="-74.5" font-family="Helvetica,sans-Serif" font-size="10.00">Component&lt; SkyBox &gt;</text>
</a>
</g>
</g>
<!-- Node2&#45;&gt;Node1 -->
<g id="edge1" class="edge"><title>Node2&#45;&gt;Node1</title>
<path fill="none" stroke="midnightblue" d="M82.6413,-61.9422C103.831,-49.0696 134.519,-30.4274 152.298,-19.6273"/>
<polygon fill="midnightblue" stroke="midnightblue" points="80.66,-59.0506 73.9305,-67.2338 84.2943,-65.0332 80.66,-59.0506"/>
</g>
<!-- Node3 -->
<g id="node3" class="node"><title>Node3</title>
<g id="a_node3"><a xlink:href="../../d5/d79/class_component_interface.html" target="_top" xlink:title=" ">
<polygon fill="white" stroke="black" points="16,-191.5 16,-210.5 119,-210.5 119,-191.5 16,-191.5"/>
<text text-anchor="middle" x="67.5" y="-198.5" font-family="Helvetica,sans-Serif" font-size="10.00">ComponentInterface</text>
</a>
</g>
</g>
<!-- Node3&#45;&gt;Node2 -->
<g id="edge2" class="edge"><title>Node3&#45;&gt;Node2</title>
<path fill="none" stroke="midnightblue" d="M65.1478,-181.087C64.1924,-172.788 63.1602,-162.923 62.5,-154 60.707,-129.77 59.9417,-101.109 59.653,-86.9036"/>
<polygon fill="midnightblue" stroke="midnightblue" points="61.6945,-181.686 66.3611,-191.198 68.6446,-180.852 61.6945,-181.686"/>
</g>
<!-- Node4 -->
<g id="node4" class="node"><title>Node4</title>
<g id="a_node4"><a xlink:href="../../d2/d00/class_component.html" target="_top" xlink:title=" ">
<polygon fill="white" stroke="black" points="72,-134.5 72,-153.5 161,-153.5 161,-134.5 72,-134.5"/>
<text text-anchor="middle" x="116.5" y="-141.5" font-family="Helvetica,sans-Serif" font-size="10.00">Component&lt; T &gt;</text>
</a>
</g>
</g>
<!-- Node3&#45;&gt;Node4 -->
<g id="edge4" class="edge"><title>Node3&#45;&gt;Node4</title>
<path fill="none" stroke="midnightblue" d="M81.9077,-183.828C90.682,-173.979 101.549,-161.782 108.736,-153.715"/>
<polygon fill="midnightblue" stroke="midnightblue" points="79.195,-181.611 75.1563,-191.406 84.4217,-186.268 79.195,-181.611"/>
</g>
<!-- Node4&#45;&gt;Node2 -->
<g id="edge3" class="edge"><title>Node4&#45;&gt;Node2</title>
<path fill="none" stroke="orange" stroke-dasharray="5,2" d="M102.149,-126.635C91.0015,-113.923 75.9842,-96.7978 67.0655,-86.6273"/>
<polygon fill="orange" stroke="orange" points="99.5879,-129.023 108.813,-134.234 104.851,-124.408 99.5879,-129.023"/>
<text text-anchor="middle" x="119.5" y="-108" font-family="Helvetica,sans-Serif" font-size="10.00"> &lt; SkyBox &gt;</text>
</g>
<!-- Node5 -->
<g id="node5" class="node"><title>Node5</title>
<g id="a_node5"><a xlink:href="../../d6/d1e/class_cube_map.html" target="_top" xlink:title=" ">
<polygon fill="white" stroke="black" points="137.5,-67.5 137.5,-86.5 195.5,-86.5 195.5,-67.5 137.5,-67.5"/>
<text text-anchor="middle" x="166.5" y="-74.5" font-family="Helvetica,sans-Serif" font-size="10.00">CubeMap</text>
</a>
</g>
</g>
<!-- Node5&#45;&gt;Node1 -->
<g id="edge5" class="edge"><title>Node5&#45;&gt;Node1</title>
<path fill="none" stroke="#9a32cd" stroke-dasharray="5,2" d="M166.5,-57.037C166.5,-44.6703 166.5,-29.1198 166.5,-19.6273"/>
<polygon fill="#9a32cd" stroke="#9a32cd" points="163,-57.2338 166.5,-67.2338 170,-57.2338 163,-57.2338"/>
<text text-anchor="middle" x="177.5" y="-41" font-family="Helvetica,sans-Serif" font-size="10.00"> map</text>
</g>
<!-- Node6 -->
<g id="node6" class="node"><title>Node6</title>
<g id="a_node6"><a xlink:href="../../d5/db4/class_cube_shape.html" target="_top" xlink:title=" ">
<polygon fill="white" stroke="black" points="214,-67.5 214,-86.5 281,-86.5 281,-67.5 214,-67.5"/>
<text text-anchor="middle" x="247.5" y="-74.5" font-family="Helvetica,sans-Serif" font-size="10.00">CubeShape</text>
</a>
</g>
</g>
<!-- Node6&#45;&gt;Node1 -->
<g id="edge6" class="edge"><title>Node6&#45;&gt;Node1</title>
<path fill="none" stroke="#9a32cd" stroke-dasharray="5,2" d="M228.451,-60.7134C212.492,-47.907 190.287,-30.0884 177.251,-19.6273"/>
<polygon fill="#9a32cd" stroke="#9a32cd" points="226.586,-63.7048 236.576,-67.2338 230.967,-58.2453 226.586,-63.7048"/>
<text text-anchor="middle" x="225" y="-41" font-family="Helvetica,sans-Serif" font-size="10.00"> cube</text>
</g>
</g>
</svg>
