<?xml version="1.0" encoding="UTF-8" standalone="no"?>
<!DOCTYPE svg PUBLIC "-//W3C//DTD SVG 1.1//EN"
 "http://www.w3.org/Graphics/SVG/1.1/DTD/svg11.dtd">
<!-- Generated by graphviz version 2.38.0 (20140413.2041)
 -->
<!-- Title: Particles Pages: 1 -->
<svg width="171pt" height="209pt"
 viewBox="0.00 0.00 170.50 209.00" xmlns="http://www.w3.org/2000/svg" xmlns:xlink="http://www.w3.org/1999/xlink">
<g id="graph0" class="graph" transform="scale(1 1) rotate(0) translate(4 205)">
<title>Particles</title>
<polygon fill="white" stroke="none" points="-4,4 -4,-205 166.5,-205 166.5,4 -4,4"/>
<!-- Node1 -->
<g id="node1" class="node"><title>Node1</title>
<g id="a_node1"><a xlink:title=" ">
<polygon fill="#bfbfbf" stroke="black" points="33.5,-0.5 33.5,-19.5 88.5,-19.5 88.5,-0.5 33.5,-0.5"/>
<text text-anchor="middle" x="61" y="-7.5" font-family="Helvetica,sans-Serif" font-size="10.00">Particles</text>
</a>
</g>
</g>
<!-- Node2 -->
<g id="node2" class="node"><title>Node2</title>
<g id="a_node2"><a xlink:href="../../d2/d00/class_component.html" target="_top" xlink:title=" ">
<polygon fill="white" stroke="black" points="0,-57.5 0,-76.5 122,-76.5 122,-57.5 0,-57.5"/>
<text text-anchor="middle" x="61" y="-64.5" font-family="Helvetica,sans-Serif" font-size="10.00">Component&lt; Particles &gt;</text>
</a>
</g>
</g>
<!-- Node2&#45;&gt;Node1 -->
<g id="edge1" class="edge"><title>Node2&#45;&gt;Node1</title>
<path fill="none" stroke="midnightblue" d="M61,-47.1166C61,-37.8173 61,-27.0557 61,-19.7149"/>
<polygon fill="midnightblue" stroke="midnightblue" points="57.5001,-47.4062 61,-57.4063 64.5001,-47.4063 57.5001,-47.4062"/>
</g>
<!-- Node3 -->
<g id="node3" class="node"><title>Node3</title>
<g id="a_node3"><a xlink:href="../../d5/d79/class_component_interface.html" target="_top" xlink:title=" ">
<polygon fill="white" stroke="black" points="17.5,-181.5 17.5,-200.5 120.5,-200.5 120.5,-181.5 17.5,-181.5"/>
<text text-anchor="middle" x="69" y="-188.5" font-family="Helvetica,sans-Serif" font-size="10.00">ComponentInterface</text>
</a>
</g>
</g>
<!-- Node3&#45;&gt;Node2 -->
<g id="edge2" class="edge"><title>Node3&#45;&gt;Node2</title>
<path fill="none" stroke="midnightblue" d="M66.6478,-171.087C65.6924,-162.788 64.6602,-152.923 64,-144 62.207,-119.77 61.4417,-91.1087 61.153,-76.9036"/>
<polygon fill="midnightblue" stroke="midnightblue" points="63.1945,-171.686 67.8611,-181.198 70.1446,-170.852 63.1945,-171.686"/>
</g>
<!-- Node4 -->
<g id="node4" class="node"><title>Node4</title>
<g id="a_node4"><a xlink:href="../../d2/d00/class_component.html" target="_top" xlink:title=" ">
<polygon fill="white" stroke="black" points="73.5,-124.5 73.5,-143.5 162.5,-143.5 162.5,-124.5 73.5,-124.5"/>
<text text-anchor="middle" x="118" y="-131.5" font-family="Helvetica,sans-Serif" font-size="10.00">Component&lt; T &gt;</text>
</a>
</g>
</g>
<!-- Node3&#45;&gt;Node4 -->
<g id="edge4" class="edge"><title>Node3&#45;&gt;Node4</title>
<path fill="none" stroke="midnightblue" d="M83.4077,-173.828C92.182,-163.979 103.049,-151.782 110.236,-143.715"/>
<polygon fill="midnightblue" stroke="midnightblue" points="80.695,-171.611 76.6563,-181.406 85.9217,-176.268 80.695,-171.611"/>
</g>
<!-- Node4&#45;&gt;Node2 -->
<g id="edge3" class="edge"><title>Node4&#45;&gt;Node2</title>
<path fill="none" stroke="orange" stroke-dasharray="5,2" d="M103.649,-116.635C92.5015,-103.923 77.4842,-86.7978 68.5655,-76.6273"/>
<polygon fill="orange" stroke="orange" points="101.088,-119.023 110.313,-124.234 106.351,-114.408 101.088,-119.023"/>
<text text-anchor="middle" x="123" y="-98" font-family="Helvetica,sans-Serif" font-size="10.00"> &lt; Particles &gt;</text>
</g>
</g>
</svg>
