<?xml version="1.0" encoding="UTF-8" standalone="no"?>
<!DOCTYPE svg PUBLIC "-//W3C//DTD SVG 1.1//EN"
 "http://www.w3.org/Graphics/SVG/1.1/DTD/svg11.dtd">
<!-- Generated by graphviz version 2.38.0 (20140413.2041)
 -->
<!-- Title: src/Input.h Pages: 1 -->
<svg width="532pt" height="140pt"
 viewBox="0.00 0.00 531.50 140.00" xmlns="http://www.w3.org/2000/svg" xmlns:xlink="http://www.w3.org/1999/xlink">
<g id="graph0" class="graph" transform="scale(1 1) rotate(0) translate(4 136)">
<title>src/Input.h</title>
<polygon fill="white" stroke="none" points="-4,4 -4,-136 527.5,-136 527.5,4 -4,4"/>
<!-- Node1 -->
<g id="node1" class="node"><title>Node1</title>
<g id="a_node1"><a xlink:title=" ">
<polygon fill="#bfbfbf" stroke="black" points="343.5,-112.5 343.5,-131.5 405.5,-131.5 405.5,-112.5 343.5,-112.5"/>
<text text-anchor="middle" x="374.5" y="-119.5" font-family="Helvetica,sans-Serif" font-size="10.00">src/Input.h</text>
</a>
</g>
</g>
<!-- Node2 -->
<g id="node2" class="node"><title>Node2</title>
<g id="a_node2"><a xlink:href="../../de/d50/_game_info_8h.html" target="_top" xlink:title=" ">
<polygon fill="white" stroke="black" points="195.5,-56.5 195.5,-75.5 261.5,-75.5 261.5,-56.5 195.5,-56.5"/>
<text text-anchor="middle" x="228.5" y="-63.5" font-family="Helvetica,sans-Serif" font-size="10.00">GameInfo.h</text>
</a>
</g>
</g>
<!-- Node1&#45;&gt;Node2 -->
<g id="edge1" class="edge"><title>Node1&#45;&gt;Node2</title>
<path fill="none" stroke="midnightblue" d="M351.366,-112.444C327.018,-103.438 288.493,-89.1891 261.077,-79.049"/>
<polygon fill="midnightblue" stroke="midnightblue" points="262.119,-75.7028 251.526,-75.5164 259.691,-82.2681 262.119,-75.7028"/>
</g>
<!-- Node7 -->
<g id="node7" class="node"><title>Node7</title>
<g id="a_node7"><a xlink:href="../../d9/db9/_unique_vectors_8h.html" target="_top" xlink:title=" ">
<polygon fill="white" stroke="black" points="280,-56.5 280,-75.5 369,-75.5 369,-56.5 280,-56.5"/>
<text text-anchor="middle" x="324.5" y="-63.5" font-family="Helvetica,sans-Serif" font-size="10.00">UniqueVectors.h</text>
</a>
</g>
</g>
<!-- Node1&#45;&gt;Node7 -->
<g id="edge6" class="edge"><title>Node1&#45;&gt;Node7</title>
<path fill="none" stroke="midnightblue" d="M366.244,-112.083C359.035,-104.298 348.39,-92.8015 339.654,-83.3665"/>
<polygon fill="midnightblue" stroke="midnightblue" points="341.965,-80.7108 332.603,-75.7511 336.829,-85.4666 341.965,-80.7108"/>
</g>
<!-- Node8 -->
<g id="node8" class="node"><title>Node8</title>
<g id="a_node8"><a xlink:title=" ">
<polygon fill="white" stroke="#bfbfbf" points="387.5,-56.5 387.5,-75.5 461.5,-75.5 461.5,-56.5 387.5,-56.5"/>
<text text-anchor="middle" x="424.5" y="-63.5" font-family="Helvetica,sans-Serif" font-size="10.00">glm/vec2.hpp</text>
</a>
</g>
</g>
<!-- Node1&#45;&gt;Node8 -->
<g id="edge7" class="edge"><title>Node1&#45;&gt;Node8</title>
<path fill="none" stroke="midnightblue" d="M382.756,-112.083C389.965,-104.298 400.61,-92.8015 409.346,-83.3665"/>
<polygon fill="midnightblue" stroke="midnightblue" points="412.171,-85.4666 416.397,-75.7511 407.035,-80.7108 412.171,-85.4666"/>
</g>
<!-- Node9 -->
<g id="node9" class="node"><title>Node9</title>
<g id="a_node9"><a xlink:title=" ">
<polygon fill="white" stroke="#bfbfbf" points="479.5,-56.5 479.5,-75.5 523.5,-75.5 523.5,-56.5 479.5,-56.5"/>
<text text-anchor="middle" x="501.5" y="-63.5" font-family="Helvetica,sans-Serif" font-size="10.00">SDL.h</text>
</a>
</g>
</g>
<!-- Node1&#45;&gt;Node9 -->
<g id="edge8" class="edge"><title>Node1&#45;&gt;Node9</title>
<path fill="none" stroke="midnightblue" d="M394.624,-112.444C415.524,-103.557 448.435,-89.5632 472.216,-79.4514"/>
<polygon fill="midnightblue" stroke="midnightblue" points="473.638,-82.6504 481.471,-75.5164 470.898,-76.2085 473.638,-82.6504"/>
</g>
<!-- Node3 -->
<g id="node3" class="node"><title>Node3</title>
<g id="a_node3"><a xlink:title=" ">
<polygon fill="white" stroke="#bfbfbf" points="0,-0.5 0,-19.5 127,-19.5 127,-0.5 0,-0.5"/>
<text text-anchor="middle" x="63.5" y="-7.5" font-family="Helvetica,sans-Serif" font-size="10.00">LinearMath/btTransform.h</text>
</a>
</g>
</g>
<!-- Node2&#45;&gt;Node3 -->
<g id="edge2" class="edge"><title>Node2&#45;&gt;Node3</title>
<path fill="none" stroke="midnightblue" d="M202.355,-56.4435C174.477,-47.3196 130.152,-32.8133 99.1,-22.6509"/>
<polygon fill="midnightblue" stroke="midnightblue" points="100.115,-19.3005 89.5224,-19.5164 97.9377,-25.9533 100.115,-19.3005"/>
</g>
<!-- Node4 -->
<g id="node4" class="node"><title>Node4</title>
<g id="a_node4"><a xlink:title=" ">
<polygon fill="white" stroke="#bfbfbf" points="145.5,-0.5 145.5,-19.5 219.5,-19.5 219.5,-0.5 145.5,-0.5"/>
<text text-anchor="middle" x="182.5" y="-7.5" font-family="Helvetica,sans-Serif" font-size="10.00">glm/vec3.hpp</text>
</a>
</g>
</g>
<!-- Node2&#45;&gt;Node4 -->
<g id="edge3" class="edge"><title>Node2&#45;&gt;Node4</title>
<path fill="none" stroke="midnightblue" d="M220.904,-56.083C214.273,-48.2982 204.479,-36.8015 196.442,-27.3665"/>
<polygon fill="midnightblue" stroke="midnightblue" points="199.104,-25.0939 189.955,-19.7511 193.775,-29.6332 199.104,-25.0939"/>
</g>
<!-- Node5 -->
<g id="node5" class="node"><title>Node5</title>
<g id="a_node5"><a xlink:title=" ">
<polygon fill="white" stroke="#bfbfbf" points="237.5,-0.5 237.5,-19.5 311.5,-19.5 311.5,-0.5 237.5,-0.5"/>
<text text-anchor="middle" x="274.5" y="-7.5" font-family="Helvetica,sans-Serif" font-size="10.00">glm/vec4.hpp</text>
</a>
</g>
</g>
<!-- Node2&#45;&gt;Node5 -->
<g id="edge4" class="edge"><title>Node2&#45;&gt;Node5</title>
<path fill="none" stroke="midnightblue" d="M236.096,-56.083C242.727,-48.2982 252.521,-36.8015 260.558,-27.3665"/>
<polygon fill="midnightblue" stroke="midnightblue" points="263.225,-29.6332 267.045,-19.7511 257.896,-25.0939 263.225,-29.6332"/>
</g>
<!-- Node6 -->
<g id="node6" class="node"><title>Node6</title>
<g id="a_node6"><a xlink:title=" ">
<polygon fill="white" stroke="#bfbfbf" points="330,-0.5 330,-19.5 371,-19.5 371,-0.5 330,-0.5"/>
<text text-anchor="middle" x="350.5" y="-7.5" font-family="Helvetica,sans-Serif" font-size="10.00">string</text>
</a>
</g>
</g>
<!-- Node2&#45;&gt;Node6 -->
<g id="edge5" class="edge"><title>Node2&#45;&gt;Node6</title>
<path fill="none" stroke="midnightblue" d="M247.831,-56.4435C267.82,-47.5961 299.243,-33.6875 322.064,-23.5865"/>
<polygon fill="midnightblue" stroke="midnightblue" points="323.532,-26.7645 331.259,-19.5164 320.698,-20.3635 323.532,-26.7645"/>
</g>
</g>
</svg>
