<?xml version="1.0" encoding="UTF-8" standalone="no"?>
<!DOCTYPE svg PUBLIC "-//W3C//DTD SVG 1.1//EN"
 "http://www.w3.org/Graphics/SVG/1.1/DTD/svg11.dtd">
<!-- Generated by graphviz version 2.38.0 (20140413.2041)
 -->
<!-- Title: PointLightShadowMap::initialize Pages: 1 -->
<svg width="488pt" height="127pt"
 viewBox="0.00 0.00 488.00 127.00" xmlns="http://www.w3.org/2000/svg" xmlns:xlink="http://www.w3.org/1999/xlink">
<g id="graph0" class="graph" transform="scale(1 1) rotate(0) translate(4 123)">
<title>PointLightShadowMap::initialize</title>
<polygon fill="white" stroke="none" points="-4,4 -4,-123 484,-123 484,4 -4,4"/>
<!-- Node1 -->
<g id="node1" class="node"><title>Node1</title>
<g id="a_node1"><a xlink:title=" ">
<polygon fill="#bfbfbf" stroke="black" points="0,-44.5 0,-74.5 113,-74.5 113,-44.5 0,-44.5"/>
<text text-anchor="start" x="8" y="-62.5" font-family="Helvetica,sans-Serif" font-size="10.00">PointLightShadowMap</text>
<text text-anchor="middle" x="56.5" y="-51.5" font-family="Helvetica,sans-Serif" font-size="10.00">::initialize</text>
</a>
</g>
</g>
<!-- Node2 -->
<g id="node2" class="node"><title>Node2</title>
<g id="a_node2"><a xlink:href="../../d2/d23/class_locator.html#a310ebd51e96b6341e25471b651afaf34" target="_top" xlink:title=" ">
<polygon fill="white" stroke="black" points="149,-88.5 149,-118.5 292,-118.5 292,-88.5 149,-88.5"/>
<text text-anchor="start" x="157" y="-106.5" font-family="Helvetica,sans-Serif" font-size="10.00">Locator&lt; ShaderHandler,</text>
<text text-anchor="middle" x="220.5" y="-95.5" font-family="Helvetica,sans-Serif" font-size="10.00"> ShaderHandler &gt;::getService</text>
</a>
</g>
</g>
<!-- Node1&#45;&gt;Node2 -->
<g id="edge1" class="edge"><title>Node1&#45;&gt;Node2</title>
<path fill="none" stroke="midnightblue" d="M112.798,-74.5192C126.148,-78.1452 140.538,-82.0534 154.295,-85.7899"/>
<polygon fill="midnightblue" stroke="midnightblue" points="153.608,-89.2303 164.176,-88.4738 155.443,-82.475 153.608,-89.2303"/>
</g>
<!-- Node3 -->
<g id="node3" class="node"><title>Node3</title>
<g id="a_node3"><a xlink:href="../../de/d51/class_shader_handler.html#ad478cf645ea1baf7f0172059d3f9d40a" target="_top" xlink:title=" ">
<polygon fill="white" stroke="black" points="155,-50 155,-69 286,-69 286,-50 155,-50"/>
<text text-anchor="middle" x="220.5" y="-57" font-family="Helvetica,sans-Serif" font-size="10.00">ShaderHandler::getShader</text>
</a>
</g>
</g>
<!-- Node1&#45;&gt;Node3 -->
<g id="edge2" class="edge"><title>Node1&#45;&gt;Node3</title>
<path fill="none" stroke="midnightblue" d="M113.251,-59.5C123.378,-59.5 134.089,-59.5 144.66,-59.5"/>
<polygon fill="midnightblue" stroke="midnightblue" points="144.728,-63.0001 154.728,-59.5 144.728,-56.0001 144.728,-63.0001"/>
</g>
<!-- Node6 -->
<g id="node6" class="node"><title>Node6</title>
<g id="a_node6"><a xlink:href="../../d1/d18/class_point_light_shadow_map.html#a28292a616ec4e9a3b4434efa560b575d" target="_top" xlink:title=" ">
<polygon fill="white" stroke="black" points="149.5,-0.5 149.5,-30.5 291.5,-30.5 291.5,-0.5 149.5,-0.5"/>
<text text-anchor="start" x="157.5" y="-18.5" font-family="Helvetica,sans-Serif" font-size="10.00">PointLightShadowMap</text>
<text text-anchor="middle" x="220.5" y="-7.5" font-family="Helvetica,sans-Serif" font-size="10.00">::updateDepthMapResolution</text>
</a>
</g>
</g>
<!-- Node1&#45;&gt;Node6 -->
<g id="edge5" class="edge"><title>Node1&#45;&gt;Node6</title>
<path fill="none" stroke="midnightblue" d="M112.798,-44.4808C126.148,-40.8548 140.538,-36.9466 154.295,-33.2101"/>
<polygon fill="midnightblue" stroke="midnightblue" points="155.443,-36.525 164.176,-30.5262 153.608,-29.7697 155.443,-36.525"/>
</g>
<!-- Node4 -->
<g id="node4" class="node"><title>Node4</title>
<g id="a_node4"><a xlink:href="../../de/d51/class_shader_handler.html#aa6135a3de8989141daaf63815d7e3ba5" target="_top" xlink:title=" ">
<polygon fill="white" stroke="black" points="328,-72 328,-91 480,-91 480,-72 328,-72"/>
<text text-anchor="middle" x="404" y="-79" font-family="Helvetica,sans-Serif" font-size="10.00">ShaderHandler::addNewShader</text>
</a>
</g>
</g>
<!-- Node3&#45;&gt;Node4 -->
<g id="edge3" class="edge"><title>Node3&#45;&gt;Node4</title>
<path fill="none" stroke="midnightblue" d="M286.001,-67.3183C296.271,-68.5631 307.031,-69.8674 317.691,-71.1595"/>
<polygon fill="midnightblue" stroke="midnightblue" points="317.512,-74.6634 327.861,-72.3922 318.355,-67.7142 317.512,-74.6634"/>
</g>
<!-- Node5 -->
<g id="node5" class="node"><title>Node5</title>
<g id="a_node5"><a xlink:href="../../de/d51/class_shader_handler.html#ad363f345aa76d162312c455de9a4ee40" target="_top" xlink:title=" ">
<polygon fill="white" stroke="black" points="332.5,-22.5 332.5,-52.5 475.5,-52.5 475.5,-22.5 332.5,-22.5"/>
<text text-anchor="start" x="340.5" y="-40.5" font-family="Helvetica,sans-Serif" font-size="10.00">ShaderHandler::binarySearch</text>
<text text-anchor="middle" x="404" y="-29.5" font-family="Helvetica,sans-Serif" font-size="10.00">Shaders</text>
</a>
</g>
</g>
<!-- Node3&#45;&gt;Node5 -->
<g id="edge4" class="edge"><title>Node3&#45;&gt;Node5</title>
<path fill="none" stroke="midnightblue" d="M286.001,-51.6817C297.703,-50.2633 310.041,-48.7677 322.143,-47.3009"/>
<polygon fill="midnightblue" stroke="midnightblue" points="322.726,-50.7558 332.232,-46.0779 321.884,-43.8067 322.726,-50.7558"/>
</g>
</g>
</svg>
