<?xml version="1.0" encoding="UTF-8" standalone="no"?>
<!DOCTYPE svg PUBLIC "-//W3C//DTD SVG 1.1//EN"
 "http://www.w3.org/Graphics/SVG/1.1/DTD/svg11.dtd">
<!-- Generated by graphviz version 2.38.0 (20140413.2041)
 -->
<!-- Title: PointLightShadowMap::updateDepthMap Pages: 1 -->
<svg width="466pt" height="136pt"
 viewBox="0.00 0.00 466.00 135.58" xmlns="http://www.w3.org/2000/svg" xmlns:xlink="http://www.w3.org/1999/xlink">
<g id="graph0" class="graph" transform="scale(1 1) rotate(0) translate(4 131.579)">
<title>PointLightShadowMap::updateDepthMap</title>
<polygon fill="white" stroke="none" points="-4,4 -4,-131.579 462,-131.579 462,4 -4,4"/>
<!-- Node1 -->
<g id="node1" class="node"><title>Node1</title>
<g id="a_node1"><a xlink:title=" ">
<polygon fill="#bfbfbf" stroke="black" points="0,-36.5788 0,-66.5788 113,-66.5788 113,-36.5788 0,-36.5788"/>
<text text-anchor="start" x="8" y="-54.5788" font-family="Helvetica,sans-Serif" font-size="10.00">PointLightShadowMap</text>
<text text-anchor="middle" x="56.5" y="-43.5788" font-family="Helvetica,sans-Serif" font-size="10.00">::updateDepthMap</text>
</a>
</g>
</g>
<!-- Node2 -->
<g id="node2" class="node"><title>Node2</title>
<g id="a_node2"><a xlink:href="../../d1/d51/class_shader.html#a240b7ecb19883fa340489840733eae6d" target="_top" xlink:title=" ">
<polygon fill="white" stroke="black" points="163.5,-108.079 163.5,-127.079 276.5,-127.079 276.5,-108.079 163.5,-108.079"/>
<text text-anchor="middle" x="220" y="-115.079" font-family="Helvetica,sans-Serif" font-size="10.00">Shader::getProgramID</text>
</a>
</g>
</g>
<!-- Node1&#45;&gt;Node2 -->
<g id="edge1" class="edge"><title>Node1&#45;&gt;Node2</title>
<path fill="none" stroke="midnightblue" d="M83.253,-66.6534C101.227,-76.7102 126.021,-89.672 149,-98.5788 155.232,-100.994 161.889,-103.225 168.527,-105.244"/>
<polygon fill="midnightblue" stroke="midnightblue" points="167.607,-108.621 178.187,-108.046 169.558,-101.899 167.607,-108.621"/>
</g>
<!-- Node3 -->
<g id="node3" class="node"><title>Node3</title>
<g id="a_node3"><a xlink:href="../../d1/d18/class_point_light_shadow_map.html#aa9486827e1af7562c77aa1ca19b3222a" target="_top" xlink:title=" ">
<polygon fill="white" stroke="black" points="153,-58.5788 153,-88.5788 287,-88.5788 287,-58.5788 153,-58.5788"/>
<text text-anchor="start" x="161" y="-76.5788" font-family="Helvetica,sans-Serif" font-size="10.00">PointLightShadowMap</text>
<text text-anchor="middle" x="220" y="-65.5788" font-family="Helvetica,sans-Serif" font-size="10.00">::getShadowTransformation</text>
</a>
</g>
</g>
<!-- Node1&#45;&gt;Node3 -->
<g id="edge2" class="edge"><title>Node1&#45;&gt;Node3</title>
<path fill="none" stroke="midnightblue" d="M113.079,-59.15C122.66,-60.4551 132.765,-61.8317 142.778,-63.1956"/>
<polygon fill="midnightblue" stroke="midnightblue" points="142.356,-66.6704 152.737,-64.5522 143.3,-59.7344 142.356,-66.6704"/>
</g>
<!-- Node4 -->
<g id="node4" class="node"><title>Node4</title>
<g id="a_node4"><a xlink:href="../../d7/da2/namespace_shaders.html#aaa649eb98b860170946f582b8e93c12d" target="_top" xlink:title=" ">
<polygon fill="white" stroke="black" points="149,-20.0788 149,-39.0788 291,-39.0788 291,-20.0788 149,-20.0788"/>
<text text-anchor="middle" x="220" y="-27.0788" font-family="Helvetica,sans-Serif" font-size="10.00">Shaders::getUniformLocation</text>
</a>
</g>
</g>
<!-- Node1&#45;&gt;Node4 -->
<g id="edge3" class="edge"><title>Node1&#45;&gt;Node4</title>
<path fill="none" stroke="midnightblue" d="M113.079,-44.0077C121.498,-42.8608 130.323,-41.6586 139.134,-40.4584"/>
<polygon fill="midnightblue" stroke="midnightblue" points="139.618,-43.925 149.054,-39.1072 138.673,-36.989 139.618,-43.925"/>
</g>
<!-- Node5 -->
<g id="node5" class="node"><title>Node5</title>
<g id="a_node5"><a xlink:href="../../d7/da2/namespace_shaders.html#a25a80e81a8051ed31ecab4ed167b0be8" target="_top" xlink:title=" ">
<polygon fill="white" stroke="black" points="327,-1.07884 327,-20.0788 458,-20.0788 458,-1.07884 327,-1.07884"/>
<text text-anchor="middle" x="392.5" y="-8.07884" font-family="Helvetica,sans-Serif" font-size="10.00">Shaders::getUniformName</text>
</a>
</g>
</g>
<!-- Node1&#45;&gt;Node5 -->
<g id="edge5" class="edge"><title>Node1&#45;&gt;Node5</title>
<path fill="none" stroke="midnightblue" d="M83.3152,-36.4696C101.114,-26.9564 125.679,-15.5649 149,-10.5788 204.348,1.25474 268.441,0.659593 316.83,-2.57393"/>
<polygon fill="midnightblue" stroke="midnightblue" points="316.683,-6.0723 326.909,-3.30045 317.186,0.909579 316.683,-6.0723"/>
</g>
<!-- Node4&#45;&gt;Node5 -->
<g id="edge4" class="edge"><title>Node4&#45;&gt;Node5</title>
<path fill="none" stroke="midnightblue" d="M291.333,-21.7411C299.681,-20.8109 308.225,-19.8587 316.633,-18.9218"/>
<polygon fill="midnightblue" stroke="midnightblue" points="317.247,-22.3751 326.798,-17.789 316.472,-15.4182 317.247,-22.3751"/>
</g>
</g>
</svg>
