<?xml version="1.0" encoding="UTF-8" standalone="no"?>
<!DOCTYPE svg PUBLIC "-//W3C//DTD SVG 1.1//EN"
 "http://www.w3.org/Graphics/SVG/1.1/DTD/svg11.dtd">
<!-- Generated by graphviz version 2.38.0 (20140413.2041)
 -->
<!-- Title: ShaderHandler::addNewShader Pages: 1 -->
<!--zoomable 355 -->
<svg id="main" version="1.1" xmlns="http://www.w3.org/2000/svg" xmlns:xlink="http://www.w3.org/1999/xlink" xml:space="preserve" onload="init(evt)">
<style type="text/css"><![CDATA[
.edge:hover path { stroke: red; }
.edge:hover polygon { stroke: red; fill: red; }
]]></style>
<script type="text/javascript"><![CDATA[
var edges = document.getElementsByTagName('g');
if (edges && edges.length) {
  for (var i=0;i<edges.length;i++) {
    if (edges[i].id.substr(0,4)=='edge') {
      edges[i].setAttribute('class','edge');
    }
  }
}
]]></script>
        <defs>
                <circle id="rim" cx="0" cy="0" r="7"/>
                <circle id="rim2" cx="0" cy="0" r="3.5"/>
                <g id="zoomPlus">
                        <use xlink:href="#rim" fill="#404040">
                                <set attributeName="fill" to="#808080" begin="zoomplus.mouseover" end="zoomplus.mouseout"/>
                        </use>
                        <path d="M-4,0h8M0,-4v8" fill="none" stroke="white" stroke-width="1.5" pointer-events="none"/>
                </g>
                <g id="zoomMin">
                        <use xlink:href="#rim" fill="#404040">
                                <set attributeName="fill" to="#808080" begin="zoomminus.mouseover" end="zoomminus.mouseout"/>
                        </use>
                        <path d="M-4,0h8" fill="none" stroke="white" stroke-width="1.5" pointer-events="none"/>
                </g>
                <g id="dirArrow">
                        <path fill="none" stroke="white" stroke-width="1.5" d="M0,-3.0v7 M-2.5,-0.5L0,-3.0L2.5,-0.5"/>
                </g>
               <g id="resetDef">
                       <use xlink:href="#rim2" fill="#404040">
                               <set attributeName="fill" to="#808080" begin="reset.mouseover" end="reset.mouseout"/>
                       </use>
               </g>
        </defs>

<script type="text/javascript">
var viewWidth = 1112;
var viewHeight = 355;
var sectionId = 'dynsection-0';
</script>
<script xlink:href="../../svgpan.js"/>
<svg id="graph" class="graph">
<g id="viewport">
<title>ShaderHandler::addNewShader</title>
<polygon fill="white" stroke="none" points="-4,4 -4,-350.5 1108,-350.5 1108,4 -4,4"/>
<!-- Node1 -->
<g id="node1" class="node"><title>Node1</title>
<g id="a_node1"><a xlink:title=" ">
<polygon fill="#bfbfbf" stroke="black" points="952,-152.5 952,-171.5 1104,-171.5 1104,-152.5 952,-152.5"/>
<text text-anchor="middle" x="1028" y="-159.5" font-family="Helvetica,sans-Serif" font-size="10.00">ShaderHandler::addNewShader</text>
</a>
</g>
</g>
<!-- Node2 -->
<g id="node2" class="node"><title>Node2</title>
<g id="a_node2"><a xlink:href="../../de/d51/class_shader_handler.html#ad478cf645ea1baf7f0172059d3f9d40a" target="_top" xlink:title=" ">
<polygon fill="white" stroke="black" points="785,-152.5 785,-171.5 916,-171.5 916,-152.5 785,-152.5"/>
<text text-anchor="middle" x="850.5" y="-159.5" font-family="Helvetica,sans-Serif" font-size="10.00">ShaderHandler::getShader</text>
</a>
</g>
</g>
<!-- Node1&#45;&gt;Node2 -->
<g id="edge1" class="edge"><title>Node1&#45;&gt;Node2</title>
<path fill="none" stroke="midnightblue" d="M941.706,-162C933.071,-162 924.404,-162 916.04,-162"/>
<polygon fill="midnightblue" stroke="midnightblue" points="941.808,-165.5 951.808,-162 941.808,-158.5 941.808,-165.5"/>
</g>
<!-- Node3 -->
<g id="node3" class="node"><title>Node3</title>
<g id="a_node3"><a xlink:href="../../dc/d22/class_directional_light_shadow_map.html#a03e2c232a0bc4595be80e4031be543aa" target="_top" xlink:title=" ">
<polygon fill="white" stroke="black" points="612,-316 612,-346 749,-346 749,-316 612,-316"/>
<text text-anchor="start" x="620" y="-334" font-family="Helvetica,sans-Serif" font-size="10.00">DirectionalLightShadowMap</text>
<text text-anchor="middle" x="680.5" y="-323" font-family="Helvetica,sans-Serif" font-size="10.00">::initialize</text>
</a>
</g>
</g>
<!-- Node2&#45;&gt;Node3 -->
<g id="edge2" class="edge"><title>Node2&#45;&gt;Node3</title>
<path fill="none" stroke="midnightblue" d="M841.21,-180.841C826.788,-211.538 794.238,-272.383 749,-307 744.555,-310.401 739.587,-313.348 734.418,-315.896"/>
<polygon fill="midnightblue" stroke="midnightblue" points="844.428,-182.219 845.398,-171.668 838.06,-179.311 844.428,-182.219"/>
</g>
<!-- Node9 -->
<g id="node9" class="node"><title>Node9</title>
<g id="a_node9"><a xlink:href="../../d1/d18/class_point_light_shadow_map.html#ab74d70c7108207fcda5aeda08514b393" target="_top" xlink:title=" ">
<polygon fill="white" stroke="black" points="624,-267 624,-297 737,-297 737,-267 624,-267"/>
<text text-anchor="start" x="632" y="-285" font-family="Helvetica,sans-Serif" font-size="10.00">PointLightShadowMap</text>
<text text-anchor="middle" x="680.5" y="-274" font-family="Helvetica,sans-Serif" font-size="10.00">::initialize</text>
</a>
</g>
</g>
<!-- Node2&#45;&gt;Node9 -->
<g id="edge8" class="edge"><title>Node2&#45;&gt;Node9</title>
<path fill="none" stroke="midnightblue" d="M834.995,-179.479C816.808,-200.425 783.772,-235.394 749,-257 742.95,-260.759 736.247,-264.084 729.483,-266.981"/>
<polygon fill="midnightblue" stroke="midnightblue" points="837.809,-181.573 841.632,-171.692 832.482,-177.032 837.809,-181.573"/>
</g>
<!-- Node10 -->
<g id="node10" class="node"><title>Node10</title>
<g id="a_node10"><a xlink:href="../../d1/d45/class_light_test.html#acfa774548a0298d8240d5d73d20fe676" target="_top" xlink:title=" ">
<polygon fill="white" stroke="black" points="631.5,-228.5 631.5,-247.5 729.5,-247.5 729.5,-228.5 631.5,-228.5"/>
<text text-anchor="middle" x="680.5" y="-235.5" font-family="Helvetica,sans-Serif" font-size="10.00">LightTest::initialize</text>
</a>
</g>
</g>
<!-- Node2&#45;&gt;Node10 -->
<g id="edge10" class="edge"><title>Node2&#45;&gt;Node10</title>
<path fill="none" stroke="midnightblue" d="M826.444,-177.214C806.584,-189.789 776.809,-207.401 749,-219 740.348,-222.609 730.794,-225.765 721.664,-228.415"/>
<polygon fill="midnightblue" stroke="midnightblue" points="828.565,-180.012 835.087,-171.663 824.782,-174.123 828.565,-180.012"/>
</g>
<!-- Node11 -->
<g id="node11" class="node"><title>Node11</title>
<g id="a_node11"><a xlink:href="../../d7/dbc/class_particle_test.html#a2c80205ed7aa29e3cb9062ad803f4485" target="_top" xlink:title=" ">
<polygon fill="white" stroke="black" points="625.5,-190.5 625.5,-209.5 735.5,-209.5 735.5,-190.5 625.5,-190.5"/>
<text text-anchor="middle" x="680.5" y="-197.5" font-family="Helvetica,sans-Serif" font-size="10.00">ParticleTest::initialize</text>
</a>
</g>
</g>
<!-- Node2&#45;&gt;Node11 -->
<g id="edge11" class="edge"><title>Node2&#45;&gt;Node11</title>
<path fill="none" stroke="midnightblue" d="M797.224,-173.824C773.539,-179.182 745.91,-185.431 723.589,-190.48"/>
<polygon fill="midnightblue" stroke="midnightblue" points="798.125,-177.209 807.107,-171.589 796.581,-170.381 798.125,-177.209"/>
</g>
<!-- Node12 -->
<g id="node12" class="node"><title>Node12</title>
<g id="a_node12"><a xlink:href="../../d8/d53/class_player.html#a74539e4ea62aea94ea420052bac78292" target="_top" xlink:title=" ">
<polygon fill="white" stroke="black" points="637.5,-152.5 637.5,-171.5 723.5,-171.5 723.5,-152.5 637.5,-152.5"/>
<text text-anchor="middle" x="680.5" y="-159.5" font-family="Helvetica,sans-Serif" font-size="10.00">Player::initialize</text>
</a>
</g>
</g>
<!-- Node2&#45;&gt;Node12 -->
<g id="edge12" class="edge"><title>Node2&#45;&gt;Node12</title>
<path fill="none" stroke="midnightblue" d="M774.445,-162C757.148,-162 739.34,-162 723.999,-162"/>
<polygon fill="midnightblue" stroke="midnightblue" points="774.547,-165.5 784.547,-162 774.547,-158.5 774.547,-165.5"/>
</g>
<!-- Node13 -->
<g id="node13" class="node"><title>Node13</title>
<g id="a_node13"><a xlink:href="../../db/dd3/class_player_test_object.html#aac17d3bdbe3a909a7a873551fe90b6bb" target="_top" xlink:title=" ">
<polygon fill="white" stroke="black" points="614,-114.5 614,-133.5 747,-133.5 747,-114.5 614,-114.5"/>
<text text-anchor="middle" x="680.5" y="-121.5" font-family="Helvetica,sans-Serif" font-size="10.00">PlayerTestObject::initialize</text>
</a>
</g>
</g>
<!-- Node2&#45;&gt;Node13 -->
<g id="edge13" class="edge"><title>Node2&#45;&gt;Node13</title>
<path fill="none" stroke="midnightblue" d="M797.224,-150.176C773.539,-144.818 745.91,-138.569 723.589,-133.52"/>
<polygon fill="midnightblue" stroke="midnightblue" points="796.581,-153.619 807.107,-152.411 798.125,-146.791 796.581,-153.619"/>
</g>
<!-- Node14 -->
<g id="node14" class="node"><title>Node14</title>
<g id="a_node14"><a xlink:href="../../da/d1b/class_enemy_test_object.html#a360c36ab9698fba8c384a6aa7816a7a2" target="_top" xlink:title=" ">
<polygon fill="white" stroke="black" points="612.5,-76.5 612.5,-95.5 748.5,-95.5 748.5,-76.5 612.5,-76.5"/>
<text text-anchor="middle" x="680.5" y="-83.5" font-family="Helvetica,sans-Serif" font-size="10.00">EnemyTestObject::initialize</text>
</a>
</g>
</g>
<!-- Node2&#45;&gt;Node14 -->
<g id="edge14" class="edge"><title>Node2&#45;&gt;Node14</title>
<path fill="none" stroke="midnightblue" d="M826.444,-146.786C806.584,-134.211 776.809,-116.599 749,-105 740.348,-101.391 730.794,-98.2347 721.664,-95.5845"/>
<polygon fill="midnightblue" stroke="midnightblue" points="824.782,-149.877 835.087,-152.337 828.565,-143.988 824.782,-149.877"/>
</g>
<!-- Node15 -->
<g id="node15" class="node"><title>Node15</title>
<g id="a_node15"><a xlink:href="../../de/d20/class_cube_trigger.html#acd67037d7ab9aca5a6880824644f1cea" target="_top" xlink:title=" ">
<polygon fill="white" stroke="black" points="625.5,-38.5 625.5,-57.5 735.5,-57.5 735.5,-38.5 625.5,-38.5"/>
<text text-anchor="middle" x="680.5" y="-45.5" font-family="Helvetica,sans-Serif" font-size="10.00">CubeTrigger::initialize</text>
</a>
</g>
</g>
<!-- Node2&#45;&gt;Node15 -->
<g id="edge15" class="edge"><title>Node2&#45;&gt;Node15</title>
<path fill="none" stroke="midnightblue" d="M835.552,-144.378C817.706,-122.996 784.795,-87.2969 749,-67 742.222,-63.1568 734.615,-60.0477 727.016,-57.5459"/>
<polygon fill="midnightblue" stroke="midnightblue" points="833.002,-146.79 842.038,-152.322 838.425,-142.363 833.002,-146.79"/>
</g>
<!-- Node16 -->
<g id="node16" class="node"><title>Node16</title>
<g id="a_node16"><a xlink:href="../../da/d3c/class_floor_object.html#a5f324e5913659265a3ac615c8888c524" target="_top" xlink:title=" ">
<polygon fill="white" stroke="black" points="626.5,-0.5 626.5,-19.5 734.5,-19.5 734.5,-0.5 626.5,-0.5"/>
<text text-anchor="middle" x="680.5" y="-7.5" font-family="Helvetica,sans-Serif" font-size="10.00">FloorObject::initialize</text>
</a>
</g>
</g>
<!-- Node2&#45;&gt;Node16 -->
<g id="edge16" class="edge"><title>Node2&#45;&gt;Node16</title>
<path fill="none" stroke="midnightblue" d="M840.408,-143.188C825.436,-114.223 792.831,-58.9246 749,-29 743.269,-25.0873 736.744,-21.975 730.062,-19.5007"/>
<polygon fill="midnightblue" stroke="midnightblue" points="837.343,-144.884 844.957,-152.251 843.598,-141.743 837.343,-144.884"/>
</g>
<!-- Node4 -->
<g id="node4" class="node"><title>Node4</title>
<g id="a_node4"><a xlink:href="../../dd/d1f/class_game.html#a0cd419405f5790feab89322cbb3f18ce" target="_top" xlink:title=" ">
<polygon fill="white" stroke="black" points="456,-296.5 456,-315.5 576,-315.5 576,-296.5 456,-296.5"/>
<text text-anchor="middle" x="516" y="-303.5" font-family="Helvetica,sans-Serif" font-size="10.00">Game::initializeShaders</text>
</a>
</g>
</g>
<!-- Node3&#45;&gt;Node4 -->
<g id="edge3" class="edge"><title>Node3&#45;&gt;Node4</title>
<path fill="none" stroke="midnightblue" d="M601.844,-319.053C593.154,-317.716 584.408,-316.37 576.006,-315.078"/>
<polygon fill="midnightblue" stroke="midnightblue" points="601.581,-322.554 611.997,-320.615 602.646,-315.635 601.581,-322.554"/>
</g>
<!-- Node5 -->
<g id="node5" class="node"><title>Node5</title>
<g id="a_node5"><a xlink:href="../../dd/d1f/class_game.html#a8986a201a654418cefe34ec28af1a22c" target="_top" xlink:title=" ">
<polygon fill="white" stroke="black" points="336,-296.5 336,-315.5 420,-315.5 420,-296.5 336,-296.5"/>
<text text-anchor="middle" x="378" y="-303.5" font-family="Helvetica,sans-Serif" font-size="10.00">Game::initialize</text>
</a>
</g>
</g>
<!-- Node4&#45;&gt;Node5 -->
<g id="edge4" class="edge"><title>Node4&#45;&gt;Node5</title>
<path fill="none" stroke="midnightblue" d="M445.544,-306C436.838,-306 428.164,-306 420.093,-306"/>
<polygon fill="midnightblue" stroke="midnightblue" points="445.744,-309.5 455.744,-306 445.744,-302.5 445.744,-309.5"/>
</g>
<!-- Node6 -->
<g id="node6" class="node"><title>Node6</title>
<g id="a_node6"><a xlink:href="../../de/d6b/class_application.html#af431bce25717b04a78d4d0940ed6a92c" target="_top" xlink:title=" ">
<polygon fill="white" stroke="black" points="194,-296.5 194,-315.5 300,-315.5 300,-296.5 194,-296.5"/>
<text text-anchor="middle" x="247" y="-303.5" font-family="Helvetica,sans-Serif" font-size="10.00">Application::initialize</text>
</a>
</g>
</g>
<!-- Node5&#45;&gt;Node6 -->
<g id="edge5" class="edge"><title>Node5&#45;&gt;Node6</title>
<path fill="none" stroke="midnightblue" d="M325.743,-306C317.313,-306 308.567,-306 300.116,-306"/>
<polygon fill="midnightblue" stroke="midnightblue" points="325.829,-309.5 335.829,-306 325.829,-302.5 325.829,-309.5"/>
</g>
<!-- Node7 -->
<g id="node7" class="node"><title>Node7</title>
<g id="a_node7"><a xlink:href="../../de/d6b/class_application.html#a68965449404743bf1add056784d6cf81" target="_top" xlink:title=" ">
<polygon fill="white" stroke="black" points="74,-296.5 74,-315.5 158,-315.5 158,-296.5 74,-296.5"/>
<text text-anchor="middle" x="116" y="-303.5" font-family="Helvetica,sans-Serif" font-size="10.00">Application::run</text>
</a>
</g>
</g>
<!-- Node6&#45;&gt;Node7 -->
<g id="edge6" class="edge"><title>Node6&#45;&gt;Node7</title>
<path fill="none" stroke="midnightblue" d="M183.772,-306C175.088,-306 166.349,-306 158.186,-306"/>
<polygon fill="midnightblue" stroke="midnightblue" points="183.903,-309.5 193.903,-306 183.903,-302.5 183.903,-309.5"/>
</g>
<!-- Node8 -->
<g id="node8" class="node"><title>Node8</title>
<g id="a_node8"><a xlink:href="../../d5/d12/_main_8cpp.html#a0ddf1224851353fc92bfbff6f499fa97" target="_top" xlink:title=" ">
<polygon fill="white" stroke="black" points="0,-296.5 0,-315.5 38,-315.5 38,-296.5 0,-296.5"/>
<text text-anchor="middle" x="19" y="-303.5" font-family="Helvetica,sans-Serif" font-size="10.00">main</text>
</a>
</g>
</g>
<!-- Node7&#45;&gt;Node8 -->
<g id="edge7" class="edge"><title>Node7&#45;&gt;Node8</title>
<path fill="none" stroke="midnightblue" d="M63.6206,-306C54.5384,-306 45.6466,-306 38.2853,-306"/>
<polygon fill="midnightblue" stroke="midnightblue" points="63.8842,-309.5 73.8841,-306 63.8841,-302.5 63.8842,-309.5"/>
</g>
<!-- Node9&#45;&gt;Node4 -->
<g id="edge9" class="edge"><title>Node9&#45;&gt;Node4</title>
<path fill="none" stroke="midnightblue" d="M613.349,-291.77C601.008,-293.593 588.185,-295.487 576.074,-297.275"/>
<polygon fill="midnightblue" stroke="midnightblue" points="614.195,-295.183 623.577,-290.259 613.173,-288.258 614.195,-295.183"/>
</g>
</g>
</svg>
        <g id="navigator" transform="translate(0 0)" fill="#404254">
                <rect fill="#f2f5e9" fill-opacity="0.5" stroke="#606060" stroke-width=".5" x="0" y="0" width="60" height="60"/>
                <use id="zoomplus" xlink:href="#zoomPlus" x="17" y="9" onmousedown="handleZoom(evt,'in')"/>
                <use id="zoomminus" xlink:href="#zoomMin" x="42" y="9" onmousedown="handleZoom(evt,'out')"/>
                <use id="reset" xlink:href="#resetDef" x="30" y="36" onmousedown="handleReset()"/>
                <g id="arrowUp" xlink:href="#dirArrow" transform="translate(30 24)" onmousedown="handlePan(0,-1)">
                  <use xlink:href="#rim" fill="#404040">
                        <set attributeName="fill" to="#808080" begin="arrowUp.mouseover" end="arrowUp.mouseout"/>
                  </use>
                  <path fill="none" stroke="white" stroke-width="1.5" d="M0,-3.0v7 M-2.5,-0.5L0,-3.0L2.5,-0.5"/>
                </g>
                <g id="arrowRight" xlink:href="#dirArrow" transform="rotate(90) translate(36 -43)" onmousedown="handlePan(1,0)">
                  <use xlink:href="#rim" fill="#404040">
                        <set attributeName="fill" to="#808080" begin="arrowRight.mouseover" end="arrowRight.mouseout"/>
                  </use>
                  <path fill="none" stroke="white" stroke-width="1.5" d="M0,-3.0v7 M-2.5,-0.5L0,-3.0L2.5,-0.5"/>
                </g>
                <g id="arrowDown" xlink:href="#dirArrow" transform="rotate(180) translate(-30 -48)" onmousedown="handlePan(0,1)">
                  <use xlink:href="#rim" fill="#404040">
                        <set attributeName="fill" to="#808080" begin="arrowDown.mouseover" end="arrowDown.mouseout"/>
                  </use>
                  <path fill="none" stroke="white" stroke-width="1.5" d="M0,-3.0v7 M-2.5,-0.5L0,-3.0L2.5,-0.5"/>
                </g>
                <g id="arrowLeft" xlink:href="#dirArrow" transform="rotate(270) translate(-36 17)" onmousedown="handlePan(-1,0)">
                  <use xlink:href="#rim" fill="#404040">
                        <set attributeName="fill" to="#808080" begin="arrowLeft.mouseover" end="arrowLeft.mouseout"/>
                  </use>
                  <path fill="none" stroke="white" stroke-width="1.5" d="M0,-3.0v7 M-2.5,-0.5L0,-3.0L2.5,-0.5"/>
                </g>
        </g>
        <svg viewBox="0 0 15 15" width="100%" height="30px" preserveAspectRatio="xMaxYMin meet">
         <g id="arrow_out" transform="scale(0.3 0.3)">
          <a xlink:href="class_shader_handler_aa6135a3de8989141daaf63815d7e3ba5_icgraph_org.svg" target="_base">
           <rect id="button" ry="5" rx="5" y="6" x="6" height="38" width="38"
                fill="#f2f5e9" fill-opacity="0.5" stroke="#606060" stroke-width="1.0"/>
           <path id="arrow"
             d="M 11.500037,31.436501 C 11.940474,20.09759 22.043105,11.32322 32.158766,21.979434 L 37.068811,17.246167 C 37.068811,17.246167 37.088388,32 37.088388,32 L 22.160133,31.978069 C 22.160133,31.978069 26.997745,27.140456 26.997745,27.140456 C 18.528582,18.264221 13.291696,25.230495 11.500037,31.436501 z"
             style="fill:#404040;"/>
          </a>
         </g>
        </svg>
</svg>
