<?xml version="1.0" encoding="UTF-8" standalone="no"?>
<!DOCTYPE svg PUBLIC "-//W3C//DTD SVG 1.1//EN"
 "http://www.w3.org/Graphics/SVG/1.1/DTD/svg11.dtd">
<!-- Generated by graphviz version 2.38.0 (20140413.2041)
 -->
<!-- Title: _3DM::_3DM_IO::readBoneHierarchyFromFile Pages: 1 -->
<svg width="423pt" height="39pt"
 viewBox="0.00 0.00 423.00 39.00" xmlns="http://www.w3.org/2000/svg" xmlns:xlink="http://www.w3.org/1999/xlink">
<g id="graph0" class="graph" transform="scale(1 1) rotate(0) translate(4 35)">
<title>_3DM::_3DM_IO::readBoneHierarchyFromFile</title>
<polygon fill="white" stroke="none" points="-4,4 -4,-35 419,-35 419,4 -4,4"/>
<!-- Node1 -->
<g id="node1" class="node"><title>Node1</title>
<g id="a_node1"><a xlink:title=" ">
<polygon fill="#bfbfbf" stroke="black" points="0,-0.5 0,-30.5 177,-30.5 177,-0.5 0,-0.5"/>
<text text-anchor="start" x="8" y="-18.5" font-family="Helvetica,sans-Serif" font-size="10.00">_3DM::_3DM_IO::readBoneHierarchy</text>
<text text-anchor="middle" x="88.5" y="-7.5" font-family="Helvetica,sans-Serif" font-size="10.00">FromFile</text>
</a>
</g>
</g>
<!-- Node2 -->
<g id="node2" class="node"><title>Node2</title>
<g id="a_node2"><a xlink:href="../../d5/d71/namespace_s_l.html#addb3c1f99efa9625ddde4137a659306a" target="_top" xlink:title=" ">
<polygon fill="white" stroke="black" points="213,-6 213,-25 292,-25 292,-6 213,-6"/>
<text text-anchor="middle" x="252.5" y="-13" font-family="Helvetica,sans-Serif" font-size="10.00">SL::readBytes</text>
</a>
</g>
</g>
<!-- Node1&#45;&gt;Node2 -->
<g id="edge1" class="edge"><title>Node1&#45;&gt;Node2</title>
<path fill="none" stroke="midnightblue" d="M177.138,-15.5C185.944,-15.5 194.645,-15.5 202.821,-15.5"/>
<polygon fill="midnightblue" stroke="midnightblue" points="202.864,-19.0001 212.864,-15.5 202.864,-12.0001 202.864,-19.0001"/>
</g>
<!-- Node3 -->
<g id="node3" class="node"><title>Node3</title>
<g id="a_node3"><a xlink:href="../../d5/d71/namespace_s_l.html#aebfdfe445c38bfb5eed787b16283cf5e" target="_top" xlink:title=" ">
<polygon fill="white" stroke="black" points="328,-6 328,-25 415,-25 415,-6 328,-6"/>
<text text-anchor="middle" x="371.5" y="-13" font-family="Helvetica,sans-Serif" font-size="10.00">SL::swapEndian</text>
</a>
</g>
</g>
<!-- Node2&#45;&gt;Node3 -->
<g id="edge2" class="edge"><title>Node2&#45;&gt;Node3</title>
<path fill="none" stroke="midnightblue" d="M292.134,-15.5C300.363,-15.5 309.187,-15.5 317.838,-15.5"/>
<polygon fill="midnightblue" stroke="midnightblue" points="317.87,-19.0001 327.87,-15.5 317.87,-12.0001 317.87,-19.0001"/>
</g>
</g>
</svg>
