<?xml version="1.0" encoding="UTF-8" standalone="no"?>
<!DOCTYPE svg PUBLIC "-//W3C//DTD SVG 1.1//EN"
 "http://www.w3.org/Graphics/SVG/1.1/DTD/svg11.dtd">
<!-- Generated by graphviz version 2.38.0 (20140413.2041)
 -->
<!-- Title: _3DM::_3DM_IO::readVector Pages: 1 -->
<svg width="388pt" height="28pt"
 viewBox="0.00 0.00 388.00 28.00" xmlns="http://www.w3.org/2000/svg" xmlns:xlink="http://www.w3.org/1999/xlink">
<g id="graph0" class="graph" transform="scale(1 1) rotate(0) translate(4 24)">
<title>_3DM::_3DM_IO::readVector</title>
<polygon fill="white" stroke="none" points="-4,4 -4,-24 384,-24 384,4 -4,4"/>
<!-- Node1 -->
<g id="node1" class="node"><title>Node1</title>
<g id="a_node1"><a xlink:title=" ">
<polygon fill="#bfbfbf" stroke="black" points="0,-0.5 0,-19.5 142,-19.5 142,-0.5 0,-0.5"/>
<text text-anchor="middle" x="71" y="-7.5" font-family="Helvetica,sans-Serif" font-size="10.00">_3DM::_3DM_IO::readVector</text>
</a>
</g>
</g>
<!-- Node2 -->
<g id="node2" class="node"><title>Node2</title>
<g id="a_node2"><a xlink:href="../../d5/d71/namespace_s_l.html#addb3c1f99efa9625ddde4137a659306a" target="_top" xlink:title=" ">
<polygon fill="white" stroke="black" points="178,-0.5 178,-19.5 257,-19.5 257,-0.5 178,-0.5"/>
<text text-anchor="middle" x="217.5" y="-7.5" font-family="Helvetica,sans-Serif" font-size="10.00">SL::readBytes</text>
</a>
</g>
</g>
<!-- Node1&#45;&gt;Node2 -->
<g id="edge1" class="edge"><title>Node1&#45;&gt;Node2</title>
<path fill="none" stroke="midnightblue" d="M142.134,-10C150.729,-10 159.364,-10 167.552,-10"/>
<polygon fill="midnightblue" stroke="midnightblue" points="167.648,-13.5001 177.647,-10 167.647,-6.5001 167.648,-13.5001"/>
</g>
<!-- Node3 -->
<g id="node3" class="node"><title>Node3</title>
<g id="a_node3"><a xlink:href="../../d5/d71/namespace_s_l.html#aebfdfe445c38bfb5eed787b16283cf5e" target="_top" xlink:title=" ">
<polygon fill="white" stroke="black" points="293,-0.5 293,-19.5 380,-19.5 380,-0.5 293,-0.5"/>
<text text-anchor="middle" x="336.5" y="-7.5" font-family="Helvetica,sans-Serif" font-size="10.00">SL::swapEndian</text>
</a>
</g>
</g>
<!-- Node2&#45;&gt;Node3 -->
<g id="edge2" class="edge"><title>Node2&#45;&gt;Node3</title>
<path fill="none" stroke="midnightblue" d="M257.134,-10C265.363,-10 274.187,-10 282.838,-10"/>
<polygon fill="midnightblue" stroke="midnightblue" points="282.87,-13.5001 292.87,-10 282.87,-6.5001 282.87,-13.5001"/>
</g>
</g>
</svg>
