<?xml version="1.0" encoding="UTF-8" standalone="no"?>
<!DOCTYPE svg PUBLIC "-//W3C//DTD SVG 1.1//EN"
 "http://www.w3.org/Graphics/SVG/1.1/DTD/svg11.dtd">
<!-- Generated by graphviz version 2.38.0 (20140413.2041)
 -->
<!-- Title: src/GuiString.h Pages: 1 -->
<svg width="609pt" height="532pt"
 viewBox="0.00 0.00 609.25 532.00" xmlns="http://www.w3.org/2000/svg" xmlns:xlink="http://www.w3.org/1999/xlink">
<g id="graph0" class="graph" transform="scale(1 1) rotate(0) translate(4 528)">
<title>src/GuiString.h</title>
<polygon fill="white" stroke="none" points="-4,4 -4,-528 605.249,-528 605.249,4 -4,4"/>
<!-- Node1 -->
<g id="node1" class="node"><title>Node1</title>
<g id="a_node1"><a xlink:title=" ">
<polygon fill="#bfbfbf" stroke="black" points="310.249,-504.5 310.249,-523.5 392.249,-523.5 392.249,-504.5 310.249,-504.5"/>
<text text-anchor="middle" x="351.249" y="-511.5" font-family="Helvetica,sans-Serif" font-size="10.00">src/GuiString.h</text>
</a>
</g>
</g>
<!-- Node2 -->
<g id="node2" class="node"><title>Node2</title>
<g id="a_node2"><a xlink:href="../../d6/dfe/_display_statistics_8h.html" target="_top" xlink:title=" ">
<polygon fill="white" stroke="black" points="67.7491,-448.5 67.7491,-467.5 182.749,-467.5 182.749,-448.5 67.7491,-448.5"/>
<text text-anchor="middle" x="125.249" y="-455.5" font-family="Helvetica,sans-Serif" font-size="10.00">src/DisplayStatistics.h</text>
</a>
</g>
</g>
<!-- Node1&#45;&gt;Node2 -->
<g id="edge1" class="edge"><title>Node1&#45;&gt;Node2</title>
<path fill="none" stroke="midnightblue" d="M305.582,-502.088C262.885,-491.887 200.001,-476.861 160.892,-467.516"/>
<polygon fill="midnightblue" stroke="midnightblue" points="304.899,-505.524 315.439,-504.444 306.526,-498.715 304.899,-505.524"/>
</g>
<!-- Node3 -->
<g id="node3" class="node"><title>Node3</title>
<g id="a_node3"><a xlink:href="../../da/d03/_entity_tests_8h.html" target="_top" xlink:title=" ">
<polygon fill="white" stroke="black" points="178.749,-392.5 178.749,-411.5 269.749,-411.5 269.749,-392.5 178.749,-392.5"/>
<text text-anchor="middle" x="224.249" y="-399.5" font-family="Helvetica,sans-Serif" font-size="10.00">src/EntityTests.h</text>
</a>
</g>
</g>
<!-- Node1&#45;&gt;Node3 -->
<g id="edge23" class="edge"><title>Node1&#45;&gt;Node3</title>
<path fill="none" stroke="midnightblue" d="M331.885,-497.94C320.983,-489.338 307.2,-478.253 295.249,-468 272.419,-448.412 246.593,-424.235 233.27,-411.606"/>
<polygon fill="midnightblue" stroke="midnightblue" points="329.892,-500.825 339.92,-504.244 334.212,-495.318 329.892,-500.825"/>
</g>
<!-- Node16 -->
<g id="node16" class="node"><title>Node16</title>
<g id="a_node16"><a xlink:href="../../da/d66/_rendering_system_8h.html" target="_top" xlink:title=" ">
<polygon fill="white" stroke="black" points="421.749,-224.5 421.749,-243.5 540.749,-243.5 540.749,-224.5 421.749,-224.5"/>
<text text-anchor="middle" x="481.249" y="-231.5" font-family="Helvetica,sans-Serif" font-size="10.00">src/RenderingSystem.h</text>
</a>
</g>
</g>
<!-- Node1&#45;&gt;Node16 -->
<g id="edge29" class="edge"><title>Node1&#45;&gt;Node16</title>
<path fill="none" stroke="midnightblue" d="M386.29,-500.75C424.793,-484.787 481.249,-452.877 481.249,-403 481.249,-403 481.249,-403 481.249,-345 481.249,-307.188 481.249,-262.064 481.249,-243.558"/>
<polygon fill="midnightblue" stroke="midnightblue" points="384.935,-497.522 376.933,-504.466 387.519,-504.028 384.935,-497.522"/>
</g>
<!-- Node20 -->
<g id="node20" class="node"><title>Node20</title>
<g id="a_node20"><a xlink:href="../../db/d30/_pause_menu_8h.html" target="_top" xlink:title=" ">
<polygon fill="white" stroke="black" points="304.749,-448.5 304.749,-467.5 397.749,-467.5 397.749,-448.5 304.749,-448.5"/>
<text text-anchor="middle" x="351.249" y="-455.5" font-family="Helvetica,sans-Serif" font-size="10.00">src/PauseMenu.h</text>
</a>
</g>
</g>
<!-- Node1&#45;&gt;Node20 -->
<g id="edge24" class="edge"><title>Node1&#45;&gt;Node20</title>
<path fill="none" stroke="midnightblue" d="M351.249,-493.805C351.249,-484.91 351.249,-474.78 351.249,-467.751"/>
<polygon fill="midnightblue" stroke="midnightblue" points="347.749,-494.083 351.249,-504.083 354.749,-494.083 347.749,-494.083"/>
</g>
<!-- Node22 -->
<g id="node22" class="node"><title>Node22</title>
<g id="a_node22"><a xlink:href="../../dc/df4/_gui_string_8cpp.html" target="_top" xlink:title=" ">
<polygon fill="white" stroke="black" points="509.249,-448.5 509.249,-467.5 601.249,-467.5 601.249,-448.5 509.249,-448.5"/>
<text text-anchor="middle" x="555.249" y="-455.5" font-family="Helvetica,sans-Serif" font-size="10.00">src/GuiString.cpp</text>
</a>
</g>
</g>
<!-- Node1&#45;&gt;Node22 -->
<g id="edge30" class="edge"><title>Node1&#45;&gt;Node22</title>
<path fill="none" stroke="midnightblue" d="M393.45,-501.829C431.968,-491.633 488.072,-476.782 523.076,-467.516"/>
<polygon fill="midnightblue" stroke="midnightblue" points="392.345,-498.501 383.574,-504.444 394.136,-505.268 392.345,-498.501"/>
</g>
<!-- Node2&#45;&gt;Node3 -->
<g id="edge2" class="edge"><title>Node2&#45;&gt;Node3</title>
<path fill="none" stroke="midnightblue" d="M150.086,-443.453C168.363,-433.483 192.665,-420.228 208.383,-411.655"/>
<polygon fill="midnightblue" stroke="midnightblue" points="148.258,-440.463 141.155,-448.324 151.61,-446.608 148.258,-440.463"/>
</g>
<!-- Node11 -->
<g id="node11" class="node"><title>Node11</title>
<g id="a_node11"><a xlink:href="../../db/d81/_fixed_updating_system_8h.html" target="_top" xlink:title=" ">
<polygon fill="white" stroke="black" points="67.7491,-224.5 67.7491,-243.5 204.749,-243.5 204.749,-224.5 67.7491,-224.5"/>
<text text-anchor="middle" x="136.249" y="-231.5" font-family="Helvetica,sans-Serif" font-size="10.00">src/FixedUpdatingSystem.h</text>
</a>
</g>
</g>
<!-- Node2&#45;&gt;Node11 -->
<g id="edge10" class="edge"><title>Node2&#45;&gt;Node11</title>
<path fill="none" stroke="midnightblue" d="M57.4157,-446.702C23.3495,-437.799 -8.62616,-421.494 2.24914,-392 27.4161,-323.747 96.9289,-265.017 124.633,-243.625"/>
<polygon fill="midnightblue" stroke="midnightblue" points="56.9852,-450.198 67.5259,-449.128 58.6185,-443.392 56.9852,-450.198"/>
</g>
<!-- Node13 -->
<g id="node13" class="node"><title>Node13</title>
<g id="a_node13"><a xlink:href="../../d0/dd5/_display_statistics_system_8h.html" target="_top" xlink:title=" ">
<polygon fill="white" stroke="black" points="11.7491,-392.5 11.7491,-411.5 160.749,-411.5 160.749,-392.5 11.7491,-392.5"/>
<text text-anchor="middle" x="86.2491" y="-399.5" font-family="Helvetica,sans-Serif" font-size="10.00">src/DisplayStatisticsSystem.h</text>
</a>
</g>
</g>
<!-- Node2&#45;&gt;Node13 -->
<g id="edge13" class="edge"><title>Node2&#45;&gt;Node13</title>
<path fill="none" stroke="midnightblue" d="M112.867,-439.855C106.114,-430.505 98.0405,-419.327 92.5694,-411.751"/>
<polygon fill="midnightblue" stroke="midnightblue" points="110.117,-442.025 118.809,-448.083 115.792,-437.927 110.117,-442.025"/>
</g>
<!-- Node4 -->
<g id="node4" class="node"><title>Node4</title>
<g id="a_node4"><a xlink:href="../../d9/dcd/_game_8h.html" target="_top" xlink:title=" ">
<polygon fill="white" stroke="black" points="214.249,-168.5 214.249,-187.5 282.249,-187.5 282.249,-168.5 214.249,-168.5"/>
<text text-anchor="middle" x="248.249" y="-175.5" font-family="Helvetica,sans-Serif" font-size="10.00">src/Game.h</text>
</a>
</g>
</g>
<!-- Node3&#45;&gt;Node4 -->
<g id="edge3" class="edge"><title>Node3&#45;&gt;Node4</title>
<path fill="none" stroke="midnightblue" d="M226.271,-382.295C231.207,-336.644 243.724,-220.854 247.289,-187.884"/>
<polygon fill="midnightblue" stroke="midnightblue" points="222.785,-381.979 225.19,-392.297 229.745,-382.731 222.785,-381.979"/>
</g>
<!-- Node10 -->
<g id="node10" class="node"><title>Node10</title>
<g id="a_node10"><a xlink:href="../../de/d4c/_entity_tests_8cpp.html" target="_top" xlink:title=" ">
<polygon fill="white" stroke="black" points="118.749,-336.5 118.749,-355.5 219.749,-355.5 219.749,-336.5 118.749,-336.5"/>
<text text-anchor="middle" x="169.249" y="-343.5" font-family="Helvetica,sans-Serif" font-size="10.00">src/EntityTests.cpp</text>
</a>
</g>
</g>
<!-- Node3&#45;&gt;Node10 -->
<g id="edge9" class="edge"><title>Node3&#45;&gt;Node10</title>
<path fill="none" stroke="midnightblue" d="M207.955,-385.002C198.209,-375.433 186.196,-363.639 178.162,-355.751"/>
<polygon fill="midnightblue" stroke="midnightblue" points="205.579,-387.575 215.167,-392.083 210.483,-382.58 205.579,-387.575"/>
</g>
<!-- Node5 -->
<g id="node5" class="node"><title>Node5</title>
<g id="a_node5"><a xlink:href="../../d9/da3/_application_8h.html" target="_top" xlink:title=" ">
<polygon fill="white" stroke="black" points="152.749,-112.5 152.749,-131.5 241.749,-131.5 241.749,-112.5 152.749,-112.5"/>
<text text-anchor="middle" x="197.249" y="-119.5" font-family="Helvetica,sans-Serif" font-size="10.00">src/Application.h</text>
</a>
</g>
</g>
<!-- Node4&#45;&gt;Node5 -->
<g id="edge4" class="edge"><title>Node4&#45;&gt;Node5</title>
<path fill="none" stroke="midnightblue" d="M232.871,-160.718C223.882,-151.2 212.89,-139.561 205.514,-131.751"/>
<polygon fill="midnightblue" stroke="midnightblue" points="230.417,-163.216 239.828,-168.083 235.506,-158.41 230.417,-163.216"/>
</g>
<!-- Node9 -->
<g id="node9" class="node"><title>Node9</title>
<g id="a_node9"><a xlink:href="../../d7/db5/_game_8cpp.html" target="_top" xlink:title=" ">
<polygon fill="white" stroke="black" points="260.249,-112.5 260.249,-131.5 338.249,-131.5 338.249,-112.5 260.249,-112.5"/>
<text text-anchor="middle" x="299.249" y="-119.5" font-family="Helvetica,sans-Serif" font-size="10.00">src/Game.cpp</text>
</a>
</g>
</g>
<!-- Node4&#45;&gt;Node9 -->
<g id="edge8" class="edge"><title>Node4&#45;&gt;Node9</title>
<path fill="none" stroke="midnightblue" d="M263.627,-160.718C272.616,-151.2 283.608,-139.561 290.984,-131.751"/>
<polygon fill="midnightblue" stroke="midnightblue" points="260.992,-158.41 256.671,-168.083 266.082,-163.216 260.992,-158.41"/>
</g>
<!-- Node6 -->
<g id="node6" class="node"><title>Node6</title>
<g id="a_node6"><a xlink:href="../../d0/d42/_application_8cpp.html" target="_top" xlink:title=" ">
<polygon fill="white" stroke="black" points="98.2491,-56.5 98.2491,-75.5 198.249,-75.5 198.249,-56.5 98.2491,-56.5"/>
<text text-anchor="middle" x="148.249" y="-63.5" font-family="Helvetica,sans-Serif" font-size="10.00">src/Application.cpp</text>
</a>
</g>
</g>
<!-- Node5&#45;&gt;Node6 -->
<g id="edge5" class="edge"><title>Node5&#45;&gt;Node6</title>
<path fill="none" stroke="midnightblue" d="M182.215,-104.431C173.627,-94.9673 163.206,-83.4827 156.19,-75.7511"/>
<polygon fill="midnightblue" stroke="midnightblue" points="179.846,-107.029 189.158,-112.083 185.03,-102.325 179.846,-107.029"/>
</g>
<!-- Node7 -->
<g id="node7" class="node"><title>Node7</title>
<g id="a_node7"><a xlink:href="../../d4/dbf/main_8h.html" target="_top" xlink:title=" ">
<polygon fill="white" stroke="black" points="216.249,-56.5 216.249,-75.5 278.249,-75.5 278.249,-56.5 216.249,-56.5"/>
<text text-anchor="middle" x="247.249" y="-63.5" font-family="Helvetica,sans-Serif" font-size="10.00">src/main.h</text>
</a>
</g>
</g>
<!-- Node5&#45;&gt;Node7 -->
<g id="edge6" class="edge"><title>Node5&#45;&gt;Node7</title>
<path fill="none" stroke="midnightblue" d="M212.325,-104.718C221.138,-95.1997 231.915,-83.5608 239.146,-75.7511"/>
<polygon fill="midnightblue" stroke="midnightblue" points="209.732,-102.367 205.506,-112.083 214.868,-107.123 209.732,-102.367"/>
</g>
<!-- Node8 -->
<g id="node8" class="node"><title>Node8</title>
<g id="a_node8"><a xlink:href="../../d5/d12/_main_8cpp.html" target="_top" xlink:title=" ">
<polygon fill="white" stroke="black" points="210.749,-0.5 210.749,-19.5 283.749,-19.5 283.749,-0.5 210.749,-0.5"/>
<text text-anchor="middle" x="247.249" y="-7.5" font-family="Helvetica,sans-Serif" font-size="10.00">src/Main.cpp</text>
</a>
</g>
</g>
<!-- Node7&#45;&gt;Node8 -->
<g id="edge7" class="edge"><title>Node7&#45;&gt;Node8</title>
<path fill="none" stroke="midnightblue" d="M247.249,-45.8045C247.249,-36.9102 247.249,-26.7798 247.249,-19.7511"/>
<polygon fill="midnightblue" stroke="midnightblue" points="243.749,-46.083 247.249,-56.083 250.749,-46.083 243.749,-46.083"/>
</g>
<!-- Node11&#45;&gt;Node4 -->
<g id="edge11" class="edge"><title>Node11&#45;&gt;Node4</title>
<path fill="none" stroke="midnightblue" d="M163.498,-219.862C184.266,-209.849 212.273,-196.346 230.299,-187.655"/>
<polygon fill="midnightblue" stroke="midnightblue" points="161.732,-216.828 154.244,-224.324 164.772,-223.134 161.732,-216.828"/>
</g>
<!-- Node12 -->
<g id="node12" class="node"><title>Node12</title>
<g id="a_node12"><a xlink:href="../../d0/d56/_fixed_updating_system_8cpp.html" target="_top" xlink:title=" ">
<polygon fill="white" stroke="black" points="48.2491,-168.5 48.2491,-187.5 196.249,-187.5 196.249,-168.5 48.2491,-168.5"/>
<text text-anchor="middle" x="122.249" y="-175.5" font-family="Helvetica,sans-Serif" font-size="10.00">src/FixedUpdatingSystem.cpp</text>
</a>
</g>
</g>
<!-- Node11&#45;&gt;Node12 -->
<g id="edge12" class="edge"><title>Node11&#45;&gt;Node12</title>
<path fill="none" stroke="midnightblue" d="M131.426,-214.396C129.084,-205.362 126.381,-194.936 124.518,-187.751"/>
<polygon fill="midnightblue" stroke="midnightblue" points="128.04,-215.281 133.937,-224.083 134.816,-213.525 128.04,-215.281"/>
</g>
<!-- Node14 -->
<g id="node14" class="node"><title>Node14</title>
<g id="a_node14"><a xlink:href="../../d8/dc4/_sub_systems_8h.html" target="_top" xlink:title=" ">
<polygon fill="white" stroke="black" points="298.249,-336.5 298.249,-355.5 396.249,-355.5 396.249,-336.5 298.249,-336.5"/>
<text text-anchor="middle" x="347.249" y="-343.5" font-family="Helvetica,sans-Serif" font-size="10.00">src/SubSystems.h</text>
</a>
</g>
</g>
<!-- Node13&#45;&gt;Node14 -->
<g id="edge14" class="edge"><title>Node13&#45;&gt;Node14</title>
<path fill="none" stroke="midnightblue" d="M137.436,-390.41C186.762,-380.204 260.444,-364.96 306.086,-355.516"/>
<polygon fill="midnightblue" stroke="midnightblue" points="136.689,-386.99 127.605,-392.444 138.107,-393.845 136.689,-386.99"/>
</g>
<!-- Node15 -->
<g id="node15" class="node"><title>Node15</title>
<g id="a_node15"><a xlink:href="../../dc/d18/_system_base_8h.html" target="_top" xlink:title=" ">
<polygon fill="white" stroke="black" points="298.249,-280.5 298.249,-299.5 396.249,-299.5 396.249,-280.5 298.249,-280.5"/>
<text text-anchor="middle" x="347.249" y="-287.5" font-family="Helvetica,sans-Serif" font-size="10.00">src/SystemBase.h</text>
</a>
</g>
</g>
<!-- Node14&#45;&gt;Node15 -->
<g id="edge15" class="edge"><title>Node14&#45;&gt;Node15</title>
<path fill="none" stroke="midnightblue" d="M347.249,-325.805C347.249,-316.91 347.249,-306.78 347.249,-299.751"/>
<polygon fill="midnightblue" stroke="midnightblue" points="343.749,-326.083 347.249,-336.083 350.749,-326.083 343.749,-326.083"/>
</g>
<!-- Node15&#45;&gt;Node11 -->
<g id="edge16" class="edge"><title>Node15&#45;&gt;Node11</title>
<path fill="none" stroke="midnightblue" d="M304.107,-277.959C264.255,-267.76 205.886,-252.822 169.526,-243.516"/>
<polygon fill="midnightblue" stroke="midnightblue" points="303.26,-281.355 313.816,-280.444 304.996,-274.573 303.26,-281.355"/>
</g>
<!-- Node15&#45;&gt;Node16 -->
<g id="edge17" class="edge"><title>Node15&#45;&gt;Node16</title>
<path fill="none" stroke="midnightblue" d="M377.926,-276.638C403.073,-266.504 438.003,-252.427 460.116,-243.516"/>
<polygon fill="midnightblue" stroke="midnightblue" points="376.449,-273.459 368.482,-280.444 379.065,-279.952 376.449,-273.459"/>
</g>
<!-- Node18 -->
<g id="node18" class="node"><title>Node18</title>
<g id="a_node18"><a xlink:href="../../db/dc0/_updating_system_8h.html" target="_top" xlink:title=" ">
<polygon fill="white" stroke="black" points="290.749,-224.5 290.749,-243.5 403.749,-243.5 403.749,-224.5 290.749,-224.5"/>
<text text-anchor="middle" x="347.249" y="-231.5" font-family="Helvetica,sans-Serif" font-size="10.00">src/UpdatingSystem.h</text>
</a>
</g>
</g>
<!-- Node15&#45;&gt;Node18 -->
<g id="edge20" class="edge"><title>Node15&#45;&gt;Node18</title>
<path fill="none" stroke="midnightblue" d="M347.249,-269.805C347.249,-260.91 347.249,-250.78 347.249,-243.751"/>
<polygon fill="midnightblue" stroke="midnightblue" points="343.749,-270.083 347.249,-280.083 350.749,-270.083 343.749,-270.083"/>
</g>
<!-- Node16&#45;&gt;Node4 -->
<g id="edge18" class="edge"><title>Node16&#45;&gt;Node4</title>
<path fill="none" stroke="midnightblue" d="M434.518,-222.17C389.516,-211.74 322.527,-196.215 282.343,-186.902"/>
<polygon fill="midnightblue" stroke="midnightblue" points="433.798,-225.595 444.33,-224.444 435.378,-218.776 433.798,-225.595"/>
</g>
<!-- Node17 -->
<g id="node17" class="node"><title>Node17</title>
<g id="a_node17"><a xlink:href="../../d2/db8/_rendering_system_8cpp.html" target="_top" xlink:title=" ">
<polygon fill="white" stroke="black" points="442.749,-168.5 442.749,-187.5 571.749,-187.5 571.749,-168.5 442.749,-168.5"/>
<text text-anchor="middle" x="507.249" y="-175.5" font-family="Helvetica,sans-Serif" font-size="10.00">src/RenderingSystem.cpp</text>
</a>
</g>
</g>
<!-- Node16&#45;&gt;Node17 -->
<g id="edge19" class="edge"><title>Node16&#45;&gt;Node17</title>
<path fill="none" stroke="midnightblue" d="M489.924,-214.983C494.337,-205.817 499.501,-195.092 503.036,-187.751"/>
<polygon fill="midnightblue" stroke="midnightblue" points="486.727,-213.555 485.543,-224.083 493.034,-216.591 486.727,-213.555"/>
</g>
<!-- Node18&#45;&gt;Node4 -->
<g id="edge21" class="edge"><title>Node18&#45;&gt;Node4</title>
<path fill="none" stroke="midnightblue" d="M322.412,-219.453C304.136,-209.483 279.834,-196.228 264.116,-187.655"/>
<polygon fill="midnightblue" stroke="midnightblue" points="320.888,-222.608 331.343,-224.324 324.24,-216.463 320.888,-222.608"/>
</g>
<!-- Node19 -->
<g id="node19" class="node"><title>Node19</title>
<g id="a_node19"><a xlink:href="../../d7/d1d/_updating_system_8cpp.html" target="_top" xlink:title=" ">
<polygon fill="white" stroke="black" points="300.249,-168.5 300.249,-187.5 424.249,-187.5 424.249,-168.5 300.249,-168.5"/>
<text text-anchor="middle" x="362.249" y="-175.5" font-family="Helvetica,sans-Serif" font-size="10.00">src/UpdatingSystem.cpp</text>
</a>
</g>
</g>
<!-- Node18&#45;&gt;Node19 -->
<g id="edge22" class="edge"><title>Node18&#45;&gt;Node19</title>
<path fill="none" stroke="midnightblue" d="M352.417,-214.396C354.926,-205.362 357.822,-194.936 359.818,-187.751"/>
<polygon fill="midnightblue" stroke="midnightblue" points="349.03,-213.511 349.726,-224.083 355.775,-215.385 349.03,-213.511"/>
</g>
<!-- Node20&#45;&gt;Node3 -->
<g id="edge25" class="edge"><title>Node20&#45;&gt;Node3</title>
<path fill="none" stroke="midnightblue" d="M321.858,-444.503C298.049,-434.38 265.143,-420.388 244.279,-411.516"/>
<polygon fill="midnightblue" stroke="midnightblue" points="320.553,-447.751 331.126,-448.444 323.292,-441.31 320.553,-447.751"/>
</g>
<!-- Node20&#45;&gt;Node18 -->
<g id="edge28" class="edge"><title>Node20&#45;&gt;Node18</title>
<path fill="none" stroke="midnightblue" d="M385.913,-444.239C400.146,-437.082 415.16,-426.595 423.249,-412 427.558,-404.225 423.957,-400.861 423.249,-392 419.236,-341.743 430.96,-323.368 405.249,-280 395.63,-263.775 377.748,-251.27 364.372,-243.606"/>
<polygon fill="midnightblue" stroke="midnightblue" points="384.363,-441.1 376.754,-448.472 387.299,-447.454 384.363,-441.1"/>
</g>
<!-- Node21 -->
<g id="node21" class="node"><title>Node21</title>
<g id="a_node21"><a xlink:href="../../d8/dd5/_pause_menu_system_8h.html" target="_top" xlink:title=" ">
<polygon fill="white" stroke="black" points="287.749,-392.5 287.749,-411.5 414.749,-411.5 414.749,-392.5 287.749,-392.5"/>
<text text-anchor="middle" x="351.249" y="-399.5" font-family="Helvetica,sans-Serif" font-size="10.00">src/PauseMenuSystem.h</text>
</a>
</g>
</g>
<!-- Node20&#45;&gt;Node21 -->
<g id="edge26" class="edge"><title>Node20&#45;&gt;Node21</title>
<path fill="none" stroke="midnightblue" d="M351.249,-437.805C351.249,-428.91 351.249,-418.78 351.249,-411.751"/>
<polygon fill="midnightblue" stroke="midnightblue" points="347.749,-438.083 351.249,-448.083 354.749,-438.083 347.749,-438.083"/>
</g>
<!-- Node21&#45;&gt;Node14 -->
<g id="edge27" class="edge"><title>Node21&#45;&gt;Node14</title>
<path fill="none" stroke="midnightblue" d="M349.849,-382.101C349.185,-373.136 348.424,-362.858 347.897,-355.751"/>
<polygon fill="midnightblue" stroke="midnightblue" points="346.359,-382.369 350.589,-392.083 353.34,-381.852 346.359,-382.369"/>
</g>
</g>
</svg>
