<?xml version="1.0" encoding="UTF-8" standalone="no"?>
<!DOCTYPE svg PUBLIC "-//W3C//DTD SVG 1.1//EN"
 "http://www.w3.org/Graphics/SVG/1.1/DTD/svg11.dtd">
<!-- Generated by graphviz version 2.38.0 (20140413.2041)
 -->
<!-- Title: src/GuiTextCharacter.cpp Pages: 1 -->
<svg width="1387pt" height="364pt"
 viewBox="0.00 0.00 1386.93 364.00" xmlns="http://www.w3.org/2000/svg" xmlns:xlink="http://www.w3.org/1999/xlink">
<g id="graph0" class="graph" transform="scale(1 1) rotate(0) translate(4 360)">
<title>src/GuiTextCharacter.cpp</title>
<polygon fill="white" stroke="none" points="-4,4 -4,-360 1382.93,-360 1382.93,4 -4,4"/>
<!-- Node1 -->
<g id="node1" class="node"><title>Node1</title>
<g id="a_node1"><a xlink:title=" ">
<polygon fill="#bfbfbf" stroke="black" points="303.927,-336.5 303.927,-355.5 431.927,-355.5 431.927,-336.5 303.927,-336.5"/>
<text text-anchor="middle" x="367.927" y="-343.5" font-family="Helvetica,sans-Serif" font-size="10.00">src/GuiTextCharacter.cpp</text>
</a>
</g>
</g>
<!-- Node2 -->
<g id="node2" class="node"><title>Node2</title>
<g id="a_node2"><a xlink:href="../../d8/dc0/_gui_text_character_8h.html" target="_top" xlink:title=" ">
<polygon fill="white" stroke="black" points="317.427,-280.5 317.427,-299.5 418.427,-299.5 418.427,-280.5 317.427,-280.5"/>
<text text-anchor="middle" x="367.927" y="-287.5" font-family="Helvetica,sans-Serif" font-size="10.00">GuiTextCharacter.h</text>
</a>
</g>
</g>
<!-- Node1&#45;&gt;Node2 -->
<g id="edge1" class="edge"><title>Node1&#45;&gt;Node2</title>
<path fill="none" stroke="midnightblue" d="M367.927,-336.083C367.927,-329.006 367.927,-318.861 367.927,-309.986"/>
<polygon fill="midnightblue" stroke="midnightblue" points="371.427,-309.751 367.927,-299.751 364.427,-309.751 371.427,-309.751"/>
</g>
<!-- Node3 -->
<g id="node3" class="node"><title>Node3</title>
<g id="a_node3"><a xlink:href="../../d3/d67/_glyph_8h.html" target="_top" xlink:title=" ">
<polygon fill="white" stroke="black" points="185.927,-224.5 185.927,-243.5 235.927,-243.5 235.927,-224.5 185.927,-224.5"/>
<text text-anchor="middle" x="210.927" y="-231.5" font-family="Helvetica,sans-Serif" font-size="10.00">Glyph.h</text>
</a>
</g>
</g>
<!-- Node2&#45;&gt;Node3 -->
<g id="edge2" class="edge"><title>Node2&#45;&gt;Node3</title>
<path fill="none" stroke="midnightblue" d="M343.05,-280.444C316.638,-271.359 274.712,-256.939 245.186,-246.783"/>
<polygon fill="midnightblue" stroke="midnightblue" points="246.283,-243.459 235.688,-243.516 244.006,-250.079 246.283,-243.459"/>
</g>
<!-- Node5 -->
<g id="node5" class="node"><title>Node5</title>
<g id="a_node5"><a xlink:href="../../db/dc0/_quad_8h.html" target="_top" xlink:title=" ">
<polygon fill="white" stroke="black" points="501.927,-224.5 501.927,-243.5 549.927,-243.5 549.927,-224.5 501.927,-224.5"/>
<text text-anchor="middle" x="525.927" y="-231.5" font-family="Helvetica,sans-Serif" font-size="10.00">Quad.h</text>
</a>
</g>
</g>
<!-- Node2&#45;&gt;Node5 -->
<g id="edge4" class="edge"><title>Node2&#45;&gt;Node5</title>
<path fill="none" stroke="midnightblue" d="M392.963,-280.444C419.778,-271.279 462.482,-256.684 492.234,-246.515"/>
<polygon fill="midnightblue" stroke="midnightblue" points="493.455,-249.797 501.786,-243.251 491.191,-243.173 493.455,-249.797"/>
</g>
<!-- Node4 -->
<g id="node4" class="node"><title>Node4</title>
<g id="a_node4"><a xlink:title=" ">
<polygon fill="white" stroke="#bfbfbf" points="560.427,-0.5 560.427,-19.5 609.427,-19.5 609.427,-0.5 560.427,-0.5"/>
<text text-anchor="middle" x="584.927" y="-7.5" font-family="Helvetica,sans-Serif" font-size="10.00">stdint.h</text>
</a>
</g>
</g>
<!-- Node3&#45;&gt;Node4 -->
<g id="edge3" class="edge"><title>Node3&#45;&gt;Node4</title>
<path fill="none" stroke="midnightblue" d="M185.814,-228.47C121.017,-215.744 -43.082,-176.342 10.9272,-112 80.7225,-28.8514 436.79,-14.1326 550.189,-11.5464"/>
<polygon fill="midnightblue" stroke="midnightblue" points="550.464,-15.0415 560.388,-11.3321 550.317,-8.04303 550.464,-15.0415"/>
</g>
<!-- Node6 -->
<g id="node6" class="node"><title>Node6</title>
<g id="a_node6"><a xlink:href="../../de/d50/_game_info_8h.html" target="_top" xlink:title=" ">
<polygon fill="white" stroke="black" points="1002.93,-112.5 1002.93,-131.5 1068.93,-131.5 1068.93,-112.5 1002.93,-112.5"/>
<text text-anchor="middle" x="1035.93" y="-119.5" font-family="Helvetica,sans-Serif" font-size="10.00">GameInfo.h</text>
</a>
</g>
</g>
<!-- Node5&#45;&gt;Node6 -->
<g id="edge5" class="edge"><title>Node5&#45;&gt;Node6</title>
<path fill="none" stroke="midnightblue" d="M550.067,-229.176C594.661,-221.991 692.89,-205.609 774.927,-188 853.043,-171.233 943.325,-147.844 994.619,-134.174"/>
<polygon fill="midnightblue" stroke="midnightblue" points="995.586,-137.539 1004.34,-131.575 993.778,-130.776 995.586,-137.539"/>
</g>
<!-- Node11 -->
<g id="node11" class="node"><title>Node11</title>
<g id="a_node11"><a xlink:href="../../d8/d34/_shader_8h.html" target="_top" xlink:title=" ">
<polygon fill="white" stroke="black" points="709.927,-168.5 709.927,-187.5 765.927,-187.5 765.927,-168.5 709.927,-168.5"/>
<text text-anchor="middle" x="737.927" y="-175.5" font-family="Helvetica,sans-Serif" font-size="10.00">Shader.h</text>
</a>
</g>
</g>
<!-- Node5&#45;&gt;Node11 -->
<g id="edge10" class="edge"><title>Node5&#45;&gt;Node11</title>
<path fill="none" stroke="midnightblue" d="M550.246,-226.806C586.897,-217.47 656.604,-199.714 699.978,-188.666"/>
<polygon fill="midnightblue" stroke="midnightblue" points="701.044,-192.007 709.871,-186.146 699.316,-185.223 701.044,-192.007"/>
</g>
<!-- Node17 -->
<g id="node17" class="node"><title>Node17</title>
<g id="a_node17"><a xlink:href="../../d2/d06/_shaders_8h.html" target="_top" xlink:title=" ">
<polygon fill="white" stroke="black" points="494.427,-112.5 494.427,-131.5 555.427,-131.5 555.427,-112.5 494.427,-112.5"/>
<text text-anchor="middle" x="524.927" y="-119.5" font-family="Helvetica,sans-Serif" font-size="10.00">Shaders.h</text>
</a>
</g>
</g>
<!-- Node5&#45;&gt;Node17 -->
<g id="edge30" class="edge"><title>Node5&#45;&gt;Node17</title>
<path fill="none" stroke="midnightblue" d="M546.16,-224.391C569.333,-213.176 602.569,-192.128 589.927,-168 582.649,-154.108 568.918,-143.652 555.945,-136.333"/>
<polygon fill="midnightblue" stroke="midnightblue" points="557.223,-133.053 546.735,-131.553 553.999,-139.266 557.223,-133.053"/>
</g>
<!-- Node18 -->
<g id="node18" class="node"><title>Node18</title>
<g id="a_node18"><a xlink:title=" ">
<polygon fill="white" stroke="#bfbfbf" points="342.927,-56.5 342.927,-75.5 402.927,-75.5 402.927,-56.5 342.927,-56.5"/>
<text text-anchor="middle" x="372.927" y="-63.5" font-family="Helvetica,sans-Serif" font-size="10.00">GL/glew.h</text>
</a>
</g>
</g>
<!-- Node5&#45;&gt;Node18 -->
<g id="edge47" class="edge"><title>Node5&#45;&gt;Node18</title>
<path fill="none" stroke="midnightblue" d="M501.685,-232.128C409.139,-228.239 80.2259,-209.103 18.9272,-132 13.3955,-125.042 13.0514,-118.67 18.9272,-112 39.415,-88.7429 244.186,-74.3485 332.612,-69.1722"/>
<polygon fill="midnightblue" stroke="midnightblue" points="333.016,-72.6548 342.799,-68.5867 332.614,-65.6664 333.016,-72.6548"/>
</g>
<!-- Node23 -->
<g id="node23" class="node"><title>Node23</title>
<g id="a_node23"><a xlink:href="../../de/dbf/_texture_8h.html" target="_top" xlink:title=" ">
<polygon fill="white" stroke="black" points="270.427,-168.5 270.427,-187.5 327.427,-187.5 327.427,-168.5 270.427,-168.5"/>
<text text-anchor="middle" x="298.927" y="-175.5" font-family="Helvetica,sans-Serif" font-size="10.00">Texture.h</text>
</a>
</g>
</g>
<!-- Node5&#45;&gt;Node23 -->
<g id="edge31" class="edge"><title>Node5&#45;&gt;Node23</title>
<path fill="none" stroke="midnightblue" d="M501.634,-227.221C462.315,-217.868 384.411,-199.335 337.462,-188.167"/>
<polygon fill="midnightblue" stroke="midnightblue" points="338.194,-184.743 327.655,-185.834 336.574,-191.553 338.194,-184.743"/>
</g>
<!-- Node29 -->
<g id="node29" class="node"><title>Node29</title>
<g id="a_node29"><a xlink:href="../../db/d56/_transform_8h.html" target="_top" xlink:title=" ">
<polygon fill="white" stroke="black" points="1172.93,-168.5 1172.93,-187.5 1240.93,-187.5 1240.93,-168.5 1172.93,-168.5"/>
<text text-anchor="middle" x="1206.93" y="-175.5" font-family="Helvetica,sans-Serif" font-size="10.00">Transform.h</text>
</a>
</g>
</g>
<!-- Node5&#45;&gt;Node29 -->
<g id="edge45" class="edge"><title>Node5&#45;&gt;Node29</title>
<path fill="none" stroke="midnightblue" d="M550.164,-231.078C650.169,-223.148 1031.61,-192.902 1162.52,-182.522"/>
<polygon fill="midnightblue" stroke="midnightblue" points="1162.9,-186.002 1172.59,-181.723 1162.34,-179.024 1162.9,-186.002"/>
</g>
<!-- Node30 -->
<g id="node30" class="node"><title>Node30</title>
<g id="a_node30"><a xlink:title=" ">
<polygon fill="white" stroke="#bfbfbf" points="345.927,-168.5 345.927,-187.5 451.927,-187.5 451.927,-168.5 345.927,-168.5"/>
<text text-anchor="middle" x="398.927" y="-175.5" font-family="Helvetica,sans-Serif" font-size="10.00">glm/gtc/type_ptr.hpp</text>
</a>
</g>
</g>
<!-- Node5&#45;&gt;Node30 -->
<g id="edge48" class="edge"><title>Node5&#45;&gt;Node30</title>
<path fill="none" stroke="midnightblue" d="M505.804,-224.444C484.903,-215.557 451.992,-201.563 428.211,-191.451"/>
<polygon fill="midnightblue" stroke="midnightblue" points="429.529,-188.208 418.957,-187.516 426.79,-194.65 429.529,-188.208"/>
</g>
<!-- Node31 -->
<g id="node31" class="node"><title>Node31</title>
<g id="a_node31"><a xlink:title=" ">
<polygon fill="white" stroke="#bfbfbf" points="470.427,-168.5 470.427,-187.5 581.427,-187.5 581.427,-168.5 470.427,-168.5"/>
<text text-anchor="middle" x="525.927" y="-175.5" font-family="Helvetica,sans-Serif" font-size="10.00">glm/gtx/transform.hpp</text>
</a>
</g>
</g>
<!-- Node5&#45;&gt;Node31 -->
<g id="edge49" class="edge"><title>Node5&#45;&gt;Node31</title>
<path fill="none" stroke="midnightblue" d="M525.927,-224.083C525.927,-217.006 525.927,-206.861 525.927,-197.986"/>
<polygon fill="midnightblue" stroke="midnightblue" points="529.427,-197.751 525.927,-187.751 522.427,-197.751 529.427,-197.751"/>
</g>
<!-- Node7 -->
<g id="node7" class="node"><title>Node7</title>
<g id="a_node7"><a xlink:title=" ">
<polygon fill="white" stroke="#bfbfbf" points="802.427,-56.5 802.427,-75.5 929.427,-75.5 929.427,-56.5 802.427,-56.5"/>
<text text-anchor="middle" x="865.927" y="-63.5" font-family="Helvetica,sans-Serif" font-size="10.00">LinearMath/btTransform.h</text>
</a>
</g>
</g>
<!-- Node6&#45;&gt;Node7 -->
<g id="edge6" class="edge"><title>Node6&#45;&gt;Node7</title>
<path fill="none" stroke="midnightblue" d="M1008.99,-112.444C980.267,-103.32 934.599,-88.8133 902.606,-78.6509"/>
<polygon fill="midnightblue" stroke="midnightblue" points="903.329,-75.2081 892.738,-75.5164 901.209,-81.8797 903.329,-75.2081"/>
</g>
<!-- Node8 -->
<g id="node8" class="node"><title>Node8</title>
<g id="a_node8"><a xlink:title=" ">
<polygon fill="white" stroke="#bfbfbf" points="1076.93,-56.5 1076.93,-75.5 1150.93,-75.5 1150.93,-56.5 1076.93,-56.5"/>
<text text-anchor="middle" x="1113.93" y="-63.5" font-family="Helvetica,sans-Serif" font-size="10.00">glm/vec3.hpp</text>
</a>
</g>
</g>
<!-- Node6&#45;&gt;Node8 -->
<g id="edge7" class="edge"><title>Node6&#45;&gt;Node8</title>
<path fill="none" stroke="midnightblue" d="M1048.46,-112.324C1060.51,-103.979 1078.95,-91.2122 1093.2,-81.3524"/>
<polygon fill="midnightblue" stroke="midnightblue" points="1095.2,-84.2243 1101.43,-75.6545 1091.21,-78.469 1095.2,-84.2243"/>
</g>
<!-- Node9 -->
<g id="node9" class="node"><title>Node9</title>
<g id="a_node9"><a xlink:title=" ">
<polygon fill="white" stroke="#bfbfbf" points="984.927,-56.5 984.927,-75.5 1058.93,-75.5 1058.93,-56.5 984.927,-56.5"/>
<text text-anchor="middle" x="1021.93" y="-63.5" font-family="Helvetica,sans-Serif" font-size="10.00">glm/vec4.hpp</text>
</a>
</g>
</g>
<!-- Node6&#45;&gt;Node9 -->
<g id="edge8" class="edge"><title>Node6&#45;&gt;Node9</title>
<path fill="none" stroke="midnightblue" d="M1033.62,-112.083C1031.76,-104.927 1029.09,-94.6353 1026.77,-85.6911"/>
<polygon fill="midnightblue" stroke="midnightblue" points="1030.09,-84.5527 1024.2,-75.7511 1023.32,-86.3094 1030.09,-84.5527"/>
</g>
<!-- Node10 -->
<g id="node10" class="node"><title>Node10</title>
<g id="a_node10"><a xlink:title=" ">
<polygon fill="white" stroke="#bfbfbf" points="601.427,-56.5 601.427,-75.5 642.427,-75.5 642.427,-56.5 601.427,-56.5"/>
<text text-anchor="middle" x="621.927" y="-63.5" font-family="Helvetica,sans-Serif" font-size="10.00">string</text>
</a>
</g>
</g>
<!-- Node6&#45;&gt;Node10 -->
<g id="edge9" class="edge"><title>Node6&#45;&gt;Node10</title>
<path fill="none" stroke="midnightblue" d="M1002.51,-113.529C999.616,-112.975 996.724,-112.456 993.927,-112 853.111,-89.0245 816.203,-95.9509 674.927,-76 667.641,-74.971 659.815,-73.7222 652.474,-72.4865"/>
<polygon fill="midnightblue" stroke="midnightblue" points="652.974,-69.0211 642.525,-70.7727 651.785,-75.9195 652.974,-69.0211"/>
</g>
<!-- Node11&#45;&gt;Node8 -->
<g id="edge26" class="edge"><title>Node11&#45;&gt;Node8</title>
<path fill="none" stroke="midnightblue" d="M766.208,-176.027C854.633,-172.699 1121.51,-160.364 1146.93,-132 1159.9,-117.526 1145.43,-97.0278 1131.78,-82.941"/>
<polygon fill="midnightblue" stroke="midnightblue" points="1134.08,-80.294 1124.46,-75.8535 1129.21,-85.3236 1134.08,-80.294"/>
</g>
<!-- Node11&#45;&gt;Node10 -->
<g id="edge28" class="edge"><title>Node11&#45;&gt;Node10</title>
<path fill="none" stroke="midnightblue" d="M723.056,-168.486C709.24,-160.18 688.513,-146.681 672.927,-132 657.488,-117.456 642.868,-98.0265 633.273,-84.2079"/>
<polygon fill="midnightblue" stroke="midnightblue" points="635.992,-81.9812 627.484,-75.6668 630.197,-85.9084 635.992,-81.9812"/>
</g>
<!-- Node12 -->
<g id="node12" class="node"><title>Node12</title>
<g id="a_node12"><a xlink:href="../../dc/d20/_component_8h.html" target="_top" xlink:title=" ">
<polygon fill="white" stroke="black" points="1170.93,-56.5 1170.93,-75.5 1244.93,-75.5 1244.93,-56.5 1170.93,-56.5"/>
<text text-anchor="middle" x="1207.93" y="-63.5" font-family="Helvetica,sans-Serif" font-size="10.00">Component.h</text>
</a>
</g>
</g>
<!-- Node11&#45;&gt;Node12 -->
<g id="edge11" class="edge"><title>Node11&#45;&gt;Node12</title>
<path fill="none" stroke="midnightblue" d="M766.247,-176.756C870.57,-175.567 1229.13,-168.813 1262.93,-132 1278.67,-114.848 1254.22,-94.1979 1233.08,-80.8459"/>
<polygon fill="midnightblue" stroke="midnightblue" points="1234.72,-77.7497 1224.35,-75.602 1231.12,-83.7508 1234.72,-77.7497"/>
</g>
<!-- Node13 -->
<g id="node13" class="node"><title>Node13</title>
<g id="a_node13"><a xlink:href="../../d0/d4b/_debug_8h.html" target="_top" xlink:title=" ">
<polygon fill="white" stroke="black" points="384.427,-112.5 384.427,-131.5 437.427,-131.5 437.427,-112.5 384.427,-112.5"/>
<text text-anchor="middle" x="410.927" y="-119.5" font-family="Helvetica,sans-Serif" font-size="10.00">Debug.h</text>
</a>
</g>
</g>
<!-- Node11&#45;&gt;Node13 -->
<g id="edge13" class="edge"><title>Node11&#45;&gt;Node13</title>
<path fill="none" stroke="midnightblue" d="M709.82,-173.149C658.451,-165.983 546.027,-149.714 451.927,-132 450.638,-131.757 449.328,-131.504 448.005,-131.244"/>
<polygon fill="midnightblue" stroke="midnightblue" points="448.287,-127.728 437.786,-129.138 446.874,-134.584 448.287,-127.728"/>
</g>
<!-- Node14 -->
<g id="node14" class="node"><title>Node14</title>
<g id="a_node14"><a xlink:href="../../d5/d31/_lights_8h.html" target="_top" xlink:title=" ">
<polygon fill="white" stroke="black" points="1087.43,-112.5 1087.43,-131.5 1138.43,-131.5 1138.43,-112.5 1087.43,-112.5"/>
<text text-anchor="middle" x="1112.93" y="-119.5" font-family="Helvetica,sans-Serif" font-size="10.00">Lights.h</text>
</a>
</g>
</g>
<!-- Node11&#45;&gt;Node14 -->
<g id="edge14" class="edge"><title>Node11&#45;&gt;Node14</title>
<path fill="none" stroke="midnightblue" d="M766.323,-174.406C823.377,-168.946 956.115,-154.99 1077.55,-131.844"/>
<polygon fill="midnightblue" stroke="midnightblue" points="1078.24,-135.277 1087.39,-129.943 1076.91,-128.404 1078.24,-135.277"/>
</g>
<!-- Node15 -->
<g id="node15" class="node"><title>Node15</title>
<g id="a_node15"><a xlink:href="../../d3/d09/_material_8h.html" target="_top" xlink:title=" ">
<polygon fill="white" stroke="black" points="1195.43,-112.5 1195.43,-131.5 1254.43,-131.5 1254.43,-112.5 1195.43,-112.5"/>
<text text-anchor="middle" x="1224.93" y="-119.5" font-family="Helvetica,sans-Serif" font-size="10.00">Material.h</text>
</a>
</g>
</g>
<!-- Node11&#45;&gt;Node15 -->
<g id="edge16" class="edge"><title>Node11&#45;&gt;Node15</title>
<path fill="none" stroke="midnightblue" d="M766.039,-175.13C836.285,-170.244 1025.03,-155.8 1180.93,-132 1182.37,-131.779 1183.84,-131.543 1185.32,-131.294"/>
<polygon fill="midnightblue" stroke="midnightblue" points="1185.96,-134.735 1195.18,-129.507 1184.71,-127.847 1185.96,-134.735"/>
</g>
<!-- Node16 -->
<g id="node16" class="node"><title>Node16</title>
<g id="a_node16"><a xlink:href="../../d4/d4a/_settings_8h.html" target="_top" xlink:title=" ">
<polygon fill="white" stroke="black" points="786.427,-112.5 786.427,-131.5 847.427,-131.5 847.427,-112.5 786.427,-112.5"/>
<text text-anchor="middle" x="816.927" y="-119.5" font-family="Helvetica,sans-Serif" font-size="10.00">Settings.h</text>
</a>
</g>
</g>
<!-- Node11&#45;&gt;Node16 -->
<g id="edge19" class="edge"><title>Node11&#45;&gt;Node16</title>
<path fill="none" stroke="midnightblue" d="M750.62,-168.324C762.828,-159.979 781.506,-147.212 795.93,-137.352"/>
<polygon fill="midnightblue" stroke="midnightblue" points="797.985,-140.187 804.266,-131.655 794.035,-134.408 797.985,-140.187"/>
</g>
<!-- Node11&#45;&gt;Node17 -->
<g id="edge20" class="edge"><title>Node11&#45;&gt;Node17</title>
<path fill="none" stroke="midnightblue" d="M709.642,-169.829C672.738,-160.473 607.909,-144.038 565.698,-133.336"/>
<polygon fill="midnightblue" stroke="midnightblue" points="566.301,-129.878 555.747,-130.814 564.58,-136.664 566.301,-129.878"/>
</g>
<!-- Node11&#45;&gt;Node18 -->
<g id="edge23" class="edge"><title>Node11&#45;&gt;Node18</title>
<path fill="none" stroke="midnightblue" d="M709.77,-175.205C662.155,-171.472 563.269,-160.68 484.927,-132 466.703,-125.328 422.121,-98.093 395.021,-81.0642"/>
<polygon fill="midnightblue" stroke="midnightblue" points="396.56,-77.8969 386.236,-75.517 392.823,-83.8156 396.56,-77.8969"/>
</g>
<!-- Node19 -->
<g id="node19" class="node"><title>Node19</title>
<g id="a_node19"><a xlink:title=" ">
<polygon fill="white" stroke="#bfbfbf" points="526.927,-56.5 526.927,-75.5 582.927,-75.5 582.927,-56.5 526.927,-56.5"/>
<text text-anchor="middle" x="554.927" y="-63.5" font-family="Helvetica,sans-Serif" font-size="10.00">algorithm</text>
</a>
</g>
</g>
<!-- Node11&#45;&gt;Node19 -->
<g id="edge24" class="edge"><title>Node11&#45;&gt;Node19</title>
<path fill="none" stroke="midnightblue" d="M719.932,-168.464C702.102,-159.828 674.17,-145.814 650.927,-132 623.892,-115.931 594.095,-95.2625 574.979,-81.5956"/>
<polygon fill="midnightblue" stroke="midnightblue" points="576.915,-78.6767 566.755,-75.6752 572.826,-84.3579 576.915,-78.6767"/>
</g>
<!-- Node20 -->
<g id="node20" class="node"><title>Node20</title>
<g id="a_node20"><a xlink:title=" ">
<polygon fill="white" stroke="#bfbfbf" points="865.427,-112.5 865.427,-131.5 914.427,-131.5 914.427,-112.5 865.427,-112.5"/>
<text text-anchor="middle" x="889.927" y="-119.5" font-family="Helvetica,sans-Serif" font-size="10.00">fstream</text>
</a>
</g>
</g>
<!-- Node11&#45;&gt;Node20 -->
<g id="edge25" class="edge"><title>Node11&#45;&gt;Node20</title>
<path fill="none" stroke="midnightblue" d="M762.012,-168.444C787.472,-159.399 827.821,-145.064 856.386,-134.916"/>
<polygon fill="midnightblue" stroke="midnightblue" points="857.704,-138.162 865.955,-131.516 855.36,-131.566 857.704,-138.162"/>
</g>
<!-- Node21 -->
<g id="node21" class="node"><title>Node21</title>
<g id="a_node21"><a xlink:title=" ">
<polygon fill="white" stroke="#bfbfbf" points="932.927,-112.5 932.927,-131.5 984.927,-131.5 984.927,-112.5 932.927,-112.5"/>
<text text-anchor="middle" x="958.927" y="-119.5" font-family="Helvetica,sans-Serif" font-size="10.00">sstream</text>
</a>
</g>
</g>
<!-- Node11&#45;&gt;Node21 -->
<g id="edge27" class="edge"><title>Node11&#45;&gt;Node21</title>
<path fill="none" stroke="midnightblue" d="M766.149,-170.194C800.597,-161.874 860.882,-147.273 922.662,-132.053"/>
<polygon fill="midnightblue" stroke="midnightblue" points="923.715,-135.398 932.586,-129.606 922.039,-128.602 923.715,-135.398"/>
</g>
<!-- Node22 -->
<g id="node22" class="node"><title>Node22</title>
<g id="a_node22"><a xlink:title=" ">
<polygon fill="white" stroke="#bfbfbf" points="683.927,-56.5 683.927,-75.5 725.927,-75.5 725.927,-56.5 683.927,-56.5"/>
<text text-anchor="middle" x="704.927" y="-63.5" font-family="Helvetica,sans-Serif" font-size="10.00">vector</text>
</a>
</g>
</g>
<!-- Node11&#45;&gt;Node22 -->
<g id="edge29" class="edge"><title>Node11&#45;&gt;Node22</title>
<path fill="none" stroke="midnightblue" d="M718.943,-168.398C705.041,-160.954 687.213,-148.741 678.927,-132 670.966,-115.916 680.838,-96.762 690.62,-83.4301"/>
<polygon fill="midnightblue" stroke="midnightblue" points="693.362,-85.6058 696.847,-75.6007 687.883,-81.2486 693.362,-85.6058"/>
</g>
<!-- Node12&#45;&gt;Node4 -->
<g id="edge12" class="edge"><title>Node12&#45;&gt;Node4</title>
<path fill="none" stroke="midnightblue" d="M1170.78,-57.6278C1167.12,-57.0242 1163.46,-56.4677 1159.93,-56 956.277,-29.0179 709.745,-16.3817 619.857,-12.4269"/>
<polygon fill="midnightblue" stroke="midnightblue" points="619.827,-8.92245 609.685,-11.9873 619.525,-15.9159 619.827,-8.92245"/>
</g>
<!-- Node14&#45;&gt;Node8 -->
<g id="edge15" class="edge"><title>Node14&#45;&gt;Node8</title>
<path fill="none" stroke="midnightblue" d="M1113.09,-112.083C1113.22,-105.006 1113.41,-94.8611 1113.58,-85.9865"/>
<polygon fill="midnightblue" stroke="midnightblue" points="1117.08,-85.8142 1113.77,-75.7511 1110.08,-85.6845 1117.08,-85.8142"/>
</g>
<!-- Node15&#45;&gt;Node8 -->
<g id="edge18" class="edge"><title>Node15&#45;&gt;Node8</title>
<path fill="none" stroke="midnightblue" d="M1207.09,-112.324C1189.21,-103.625 1161.45,-90.1202 1140.88,-80.113"/>
<polygon fill="midnightblue" stroke="midnightblue" points="1142.24,-76.8819 1131.72,-75.6545 1139.18,-83.1765 1142.24,-76.8819"/>
</g>
<!-- Node15&#45;&gt;Node12 -->
<g id="edge17" class="edge"><title>Node15&#45;&gt;Node12</title>
<path fill="none" stroke="midnightblue" d="M1222.12,-112.083C1219.84,-104.849 1216.56,-94.4087 1213.72,-85.3968"/>
<polygon fill="midnightblue" stroke="midnightblue" points="1217.02,-84.2385 1210.68,-75.7511 1210.35,-86.3406 1217.02,-84.2385"/>
</g>
<!-- Node17&#45;&gt;Node10 -->
<g id="edge22" class="edge"><title>Node17&#45;&gt;Node10</title>
<path fill="none" stroke="midnightblue" d="M540.512,-112.324C555.926,-103.743 579.739,-90.486 597.637,-80.5224"/>
<polygon fill="midnightblue" stroke="midnightblue" points="599.346,-83.5767 606.381,-75.6545 595.941,-77.4606 599.346,-83.5767"/>
</g>
<!-- Node17&#45;&gt;Node18 -->
<g id="edge21" class="edge"><title>Node17&#45;&gt;Node18</title>
<path fill="none" stroke="midnightblue" d="M500.842,-112.444C475.382,-103.399 435.033,-89.064 406.468,-78.9158"/>
<polygon fill="midnightblue" stroke="midnightblue" points="407.494,-75.5661 396.899,-75.5164 405.151,-82.1622 407.494,-75.5661"/>
</g>
<!-- Node23&#45;&gt;Node10 -->
<g id="edge37" class="edge"><title>Node23&#45;&gt;Node10</title>
<path fill="none" stroke="midnightblue" d="M306.301,-168.137C318.799,-153.771 345.655,-125.637 374.927,-112 460.689,-72.0462 494.499,-96.3974 591.462,-75.7599"/>
<polygon fill="midnightblue" stroke="midnightblue" points="592.368,-79.1437 601.363,-73.5445 590.84,-72.3126 592.368,-79.1437"/>
</g>
<!-- Node23&#45;&gt;Node13 -->
<g id="edge38" class="edge"><title>Node23&#45;&gt;Node13</title>
<path fill="none" stroke="midnightblue" d="M316.922,-168.324C334.965,-159.625 362.974,-146.12 383.73,-136.113"/>
<polygon fill="midnightblue" stroke="midnightblue" points="385.489,-139.15 392.977,-131.655 382.449,-132.845 385.489,-139.15"/>
</g>
<!-- Node23&#45;&gt;Node18 -->
<g id="edge32" class="edge"><title>Node23&#45;&gt;Node18</title>
<path fill="none" stroke="midnightblue" d="M297.307,-168.289C295.33,-155.099 293.428,-129.722 303.927,-112 312.278,-97.9037 326.973,-87.412 340.662,-80.1216"/>
<polygon fill="midnightblue" stroke="midnightblue" points="342.461,-83.1372 349.887,-75.5809 339.37,-76.8567 342.461,-83.1372"/>
</g>
<!-- Node23&#45;&gt;Node19 -->
<g id="edge35" class="edge"><title>Node23&#45;&gt;Node19</title>
<path fill="none" stroke="midnightblue" d="M302.146,-168.253C307.848,-154.053 321.118,-126.154 341.927,-112 394.985,-75.9126 471.349,-67.8988 516.771,-66.5944"/>
<polygon fill="midnightblue" stroke="midnightblue" points="516.866,-70.0933 526.797,-66.4016 516.731,-63.0946 516.866,-70.0933"/>
</g>
<!-- Node24 -->
<g id="node24" class="node"><title>Node24</title>
<g id="a_node24"><a xlink:title=" ">
<polygon fill="white" stroke="#bfbfbf" points="28.4272,-112.5 28.4272,-131.5 103.427,-131.5 103.427,-112.5 28.4272,-112.5"/>
<text text-anchor="middle" x="65.9272" y="-119.5" font-family="Helvetica,sans-Serif" font-size="10.00">SDL_image.h</text>
</a>
</g>
</g>
<!-- Node23&#45;&gt;Node24 -->
<g id="edge33" class="edge"><title>Node23&#45;&gt;Node24</title>
<path fill="none" stroke="midnightblue" d="M270.357,-170.379C231.072,-161.274 159.896,-144.778 112.763,-133.855"/>
<polygon fill="midnightblue" stroke="midnightblue" points="113.331,-130.393 102.798,-131.545 111.75,-137.213 113.331,-130.393"/>
</g>
<!-- Node25 -->
<g id="node25" class="node"><title>Node25</title>
<g id="a_node25"><a xlink:title=" ">
<polygon fill="white" stroke="#bfbfbf" points="121.427,-112.5 121.427,-131.5 198.427,-131.5 198.427,-112.5 121.427,-112.5"/>
<text text-anchor="middle" x="159.927" y="-119.5" font-family="Helvetica,sans-Serif" font-size="10.00">SDL_opengl.h</text>
</a>
</g>
</g>
<!-- Node23&#45;&gt;Node25 -->
<g id="edge34" class="edge"><title>Node23&#45;&gt;Node25</title>
<path fill="none" stroke="midnightblue" d="M276.902,-168.444C253.823,-159.478 217.365,-145.314 191.286,-135.183"/>
<polygon fill="midnightblue" stroke="midnightblue" points="192.438,-131.875 181.849,-131.516 189.903,-138.4 192.438,-131.875"/>
</g>
<!-- Node26 -->
<g id="node26" class="node"><title>Node26</title>
<g id="a_node26"><a xlink:title=" ">
<polygon fill="white" stroke="#bfbfbf" points="216.427,-112.5 216.427,-131.5 251.427,-131.5 251.427,-112.5 216.427,-112.5"/>
<text text-anchor="middle" x="233.927" y="-119.5" font-family="Helvetica,sans-Serif" font-size="10.00">map</text>
</a>
</g>
</g>
<!-- Node23&#45;&gt;Node26 -->
<g id="edge36" class="edge"><title>Node23&#45;&gt;Node26</title>
<path fill="none" stroke="midnightblue" d="M288.484,-168.324C278.781,-160.263 264.112,-148.077 252.427,-138.369"/>
<polygon fill="midnightblue" stroke="midnightblue" points="254.489,-135.532 244.561,-131.834 250.016,-140.916 254.489,-135.532"/>
</g>
<!-- Node27 -->
<g id="node27" class="node"><title>Node27</title>
<g id="a_node27"><a xlink:href="../../d7/d26/_helping_hand_8h.html" target="_top" xlink:title=" ">
<polygon fill="white" stroke="black" points="687.927,-112.5 687.927,-131.5 767.927,-131.5 767.927,-112.5 687.927,-112.5"/>
<text text-anchor="middle" x="727.927" y="-119.5" font-family="Helvetica,sans-Serif" font-size="10.00">HelpingHand.h</text>
</a>
</g>
</g>
<!-- Node23&#45;&gt;Node27 -->
<g id="edge39" class="edge"><title>Node23&#45;&gt;Node27</title>
<path fill="none" stroke="midnightblue" d="M327.486,-169.855C330.661,-169.174 333.855,-168.539 336.927,-168 458.416,-146.699 602.978,-133.064 677.672,-126.874"/>
<polygon fill="midnightblue" stroke="midnightblue" points="678.057,-130.355 687.738,-126.051 677.486,-123.378 678.057,-130.355"/>
</g>
<!-- Node27&#45;&gt;Node7 -->
<g id="edge40" class="edge"><title>Node27&#45;&gt;Node7</title>
<path fill="none" stroke="midnightblue" d="M749.794,-112.444C772.707,-103.478 808.902,-89.314 834.794,-79.1827"/>
<polygon fill="midnightblue" stroke="midnightblue" points="836.126,-82.4198 844.163,-75.5164 833.575,-75.9011 836.126,-82.4198"/>
</g>
<!-- Node27&#45;&gt;Node8 -->
<g id="edge43" class="edge"><title>Node27&#45;&gt;Node8</title>
<path fill="none" stroke="midnightblue" d="M768.006,-113.441C771.022,-112.933 774.021,-112.446 776.927,-112 902.592,-92.7032 937.542,-96.3282 1066.92,-76.0611"/>
<polygon fill="midnightblue" stroke="midnightblue" points="1067.48,-79.5155 1076.81,-74.4939 1066.39,-72.6017 1067.48,-79.5155"/>
</g>
<!-- Node27&#45;&gt;Node19 -->
<g id="edge41" class="edge"><title>Node27&#45;&gt;Node19</title>
<path fill="none" stroke="midnightblue" d="M700.515,-112.444C671.158,-103.28 624.408,-88.6876 591.831,-78.5192"/>
<polygon fill="midnightblue" stroke="midnightblue" points="592.8,-75.1551 582.211,-75.5164 590.714,-81.8371 592.8,-75.1551"/>
</g>
<!-- Node27&#45;&gt;Node22 -->
<g id="edge44" class="edge"><title>Node27&#45;&gt;Node22</title>
<path fill="none" stroke="midnightblue" d="M724.129,-112.083C721.014,-104.77 716.504,-94.1814 712.638,-85.1034"/>
<polygon fill="midnightblue" stroke="midnightblue" points="715.793,-83.5798 708.654,-75.7511 709.353,-86.3229 715.793,-83.5798"/>
</g>
<!-- Node28 -->
<g id="node28" class="node"><title>Node28</title>
<g id="a_node28"><a xlink:title=" ">
<polygon fill="white" stroke="#bfbfbf" points="1262.93,-56.5 1262.93,-75.5 1378.93,-75.5 1378.93,-56.5 1262.93,-56.5"/>
<text text-anchor="middle" x="1320.93" y="-63.5" font-family="Helvetica,sans-Serif" font-size="10.00">glm/gtc/quaternion.hpp</text>
</a>
</g>
</g>
<!-- Node27&#45;&gt;Node28 -->
<g id="edge42" class="edge"><title>Node27&#45;&gt;Node28</title>
<path fill="none" stroke="midnightblue" d="M767.984,-113.284C771.005,-112.812 774.011,-112.377 776.927,-112 984.483,-85.1837 1040.73,-97.7526 1252.64,-76.0708"/>
<polygon fill="midnightblue" stroke="midnightblue" points="1253.26,-79.525 1262.85,-75.0122 1252.54,-72.5623 1253.26,-79.525"/>
</g>
<!-- Node29&#45;&gt;Node28 -->
<g id="edge46" class="edge"><title>Node29&#45;&gt;Node28</title>
<path fill="none" stroke="midnightblue" d="M1236.84,-168.426C1256.31,-161.462 1280.96,-149.827 1296.93,-132 1308.58,-118.99 1314.73,-99.8303 1317.88,-85.6805"/>
<polygon fill="midnightblue" stroke="midnightblue" points="1321.36,-86.0997 1319.8,-75.6201 1314.49,-84.7844 1321.36,-86.0997"/>
</g>
</g>
</svg>
